<svg width="151" height="151" xmlns="http://www.w3.org/2000/svg" xmlns:xlink="http://www.w3.org/1999/xlink" xml:space="preserve" overflow="hidden"><g transform="translate(-1010 -416)"><path d="M1085.5 561.967C1081.35 561.967 1077.95 558.569 1077.95 554.417 1077.95 550.264 1081.35 546.867 1085.5 546.867 1089.65 546.867 1093.05 550.264 1093.05 554.417 1093.05 558.569 1089.65 561.967 1085.5 561.967ZM1085.5 551.9C1084.12 551.9 1082.98 553.032 1082.98 554.417 1082.98 555.801 1084.12 556.933 1085.5 556.933 1086.88 556.933 1088.02 555.801 1088.02 554.417 1088.02 553.032 1086.88 551.9 1085.5 551.9Z" fill="#6100DC"/><path d="M1123.25 551.9C1119.1 551.9 1115.7 548.503 1115.7 544.35 1115.7 540.198 1119.1 536.8 1123.25 536.8 1127.4 536.8 1130.8 540.198 1130.8 544.35 1130.8 548.503 1127.4 551.9 1123.25 551.9ZM1123.25 541.833C1121.87 541.833 1120.73 542.966 1120.73 544.35 1120.73 545.734 1121.87 546.867 1123.25 546.867 1124.63 546.867 1125.77 545.734 1125.77 544.35 1125.77 542.966 1124.63 541.833 1123.25 541.833Z" fill="#6100DC"/><path d="M1047.75 551.9C1043.6 551.9 1040.2 548.503 1040.2 544.35 1040.2 540.198 1043.6 536.8 1047.75 536.8 1051.9 536.8 1055.3 540.198 1055.3 544.35 1055.3 548.503 1051.9 551.9 1047.75 551.9ZM1047.75 541.833C1046.37 541.833 1045.23 542.966 1045.23 544.35 1045.23 545.734 1046.37 546.867 1047.75 546.867 1049.13 546.867 1050.27 545.734 1050.27 544.35 1050.27 542.966 1049.13 541.833 1047.75 541.833Z" fill="#6100DC"/><path d="M1148.42 496.533C1144.26 496.533 1140.87 493.136 1140.87 488.983 1140.87 484.831 1144.26 481.433 1148.42 481.433 1152.57 481.433 1155.97 484.831 1155.97 488.983 1155.97 493.136 1152.57 496.533 1148.42 496.533ZM1148.42 486.467C1147.03 486.467 1145.9 487.599 1145.9 488.983 1145.9 490.367 1147.03 491.5 1148.42 491.5 1149.8 491.5 1150.93 490.367 1150.93 488.983 1150.93 487.599 1149.8 486.467 1148.42 486.467Z" fill="#6100DC"/><path d="M1138.35 531.767C1134.2 531.767 1130.8 528.369 1130.8 524.217 1130.8 520.064 1134.2 516.667 1138.35 516.667 1142.5 516.667 1145.9 520.064 1145.9 524.217 1145.9 528.369 1142.5 531.767 1138.35 531.767ZM1138.35 521.7C1136.97 521.7 1135.83 522.833 1135.83 524.217 1135.83 525.601 1136.97 526.733 1138.35 526.733 1139.73 526.733 1140.87 525.601 1140.87 524.217 1140.87 522.833 1139.73 521.7 1138.35 521.7Z" fill="#6100DC"/><path d="M1138.35 461.3C1134.2 461.3 1130.8 457.902 1130.8 453.75 1130.8 449.598 1134.2 446.2 1138.35 446.2 1142.5 446.2 1145.9 449.598 1145.9 453.75 1145.9 457.902 1142.5 461.3 1138.35 461.3ZM1138.35 451.233C1136.97 451.233 1135.83 452.366 1135.83 453.75 1135.83 455.134 1136.97 456.267 1138.35 456.267 1139.73 456.267 1140.87 455.134 1140.87 453.75 1140.87 452.366 1139.73 451.233 1138.35 451.233Z" fill="#6100DC"/><path d="M1138.35 521.7C1136.97 521.7 1135.83 520.568 1135.83 519.183L1135.83 506.6 1128.28 506.6C1126.9 506.6 1125.77 505.467 1125.77 504.083 1125.77 502.699 1126.9 501.567 1128.28 501.567L1138.35 501.567C1139.73 501.567 1140.87 502.699 1140.87 504.083L1140.87 519.183C1140.87 520.568 1139.73 521.7 1138.35 521.7Z" fill="#6100DC"/><path d="M1022.58 496.533C1018.43 496.533 1015.03 493.136 1015.03 488.983 1015.03 484.831 1018.43 481.433 1022.58 481.433 1026.74 481.433 1030.13 484.831 1030.13 488.983 1030.13 493.136 1026.74 496.533 1022.58 496.533ZM1022.58 486.467C1021.2 486.467 1020.07 487.599 1020.07 488.983 1020.07 490.367 1021.2 491.5 1022.58 491.5 1023.97 491.5 1025.1 490.367 1025.1 488.983 1025.1 487.599 1023.97 486.467 1022.58 486.467Z" fill="#6100DC"/><path d="M1032.65 531.767C1028.5 531.767 1025.1 528.369 1025.1 524.217 1025.1 520.064 1028.5 516.667 1032.65 516.667 1036.8 516.667 1040.2 520.064 1040.2 524.217 1040.2 528.369 1036.8 531.767 1032.65 531.767ZM1032.65 521.7C1031.27 521.7 1030.13 522.833 1030.13 524.217 1030.13 525.601 1031.27 526.733 1032.65 526.733 1034.03 526.733 1035.17 525.601 1035.17 524.217 1035.17 522.833 1034.03 521.7 1032.65 521.7Z" fill="#6100DC"/><path d="M1085.5 496.533C1081.35 496.533 1077.95 493.136 1077.95 488.983 1077.95 484.831 1081.35 481.433 1085.5 481.433 1089.65 481.433 1093.05 484.831 1093.05 488.983 1093.05 493.136 1089.65 496.533 1085.5 496.533ZM1085.5 486.467C1084.12 486.467 1082.98 487.599 1082.98 488.983 1082.98 490.367 1084.12 491.5 1085.5 491.5 1086.88 491.5 1088.02 490.367 1088.02 488.983 1088.02 487.599 1086.88 486.467 1085.5 486.467Z" fill="#6100DC"/><path d="M1032.65 461.3C1028.5 461.3 1025.1 457.902 1025.1 453.75 1025.1 449.598 1028.5 446.2 1032.65 446.2 1036.8 446.2 1040.2 449.598 1040.2 453.75 1040.2 457.902 1036.8 461.3 1032.65 461.3ZM1032.65 451.233C1031.27 451.233 1030.13 452.366 1030.13 453.75 1030.13 455.134 1031.27 456.267 1032.65 456.267 1034.03 456.267 1035.17 455.134 1035.17 453.75 1035.17 452.366 1034.03 451.233 1032.65 451.233Z" fill="#6100DC"/><path d="M1042.72 476.4 1032.65 476.4C1031.27 476.4 1030.13 475.267 1030.13 473.883L1030.13 458.783C1030.13 457.399 1031.27 456.267 1032.65 456.267 1034.03 456.267 1035.17 457.399 1035.17 458.783L1035.17 471.367 1042.72 471.367C1044.1 471.367 1045.23 472.499 1045.23 473.883 1045.23 475.267 1044.1 476.4 1042.72 476.4Z" fill="#6100DC"/><path d="M1113.18 521.7 1095.57 521.7C1094.18 521.7 1093.05 520.568 1093.05 519.183 1093.05 517.799 1094.18 516.667 1095.57 516.667L1113.18 516.667C1114.57 516.667 1115.7 515.534 1115.7 514.15L1115.7 488.983C1115.7 487.599 1116.83 486.467 1118.22 486.467L1143.38 486.467C1144.77 486.467 1145.9 487.599 1145.9 488.983 1145.9 490.367 1144.77 491.5 1143.38 491.5L1120.73 491.5 1120.73 514.15C1120.73 518.302 1117.34 521.7 1113.18 521.7Z" fill="#6100DC"/><path d="M1118.22 546.867 1103.12 546.867C1101.73 546.867 1100.6 545.734 1100.6 544.35L1100.6 521.7C1100.6 520.316 1101.73 519.183 1103.12 519.183 1104.5 519.183 1105.63 520.316 1105.63 521.7L1105.63 541.833 1118.22 541.833C1119.6 541.833 1120.73 542.966 1120.73 544.35 1120.73 545.734 1119.6 546.867 1118.22 546.867Z" fill="#6100DC"/><path d="M1052.78 491.5 1027.62 491.5C1026.23 491.5 1025.1 490.367 1025.1 488.983 1025.1 487.599 1026.23 486.467 1027.62 486.467L1050.27 486.467 1050.27 468.85C1050.27 464.698 1053.66 461.3 1057.82 461.3L1113.18 461.3C1117.34 461.3 1120.73 464.698 1120.73 468.85L1120.73 478.917C1120.73 480.301 1119.6 481.433 1118.22 481.433 1116.83 481.433 1115.7 480.301 1115.7 478.917L1115.7 468.85C1115.7 467.466 1114.57 466.333 1113.18 466.333L1057.82 466.333C1056.43 466.333 1055.3 467.466 1055.3 468.85L1055.3 488.983C1055.3 490.367 1054.17 491.5 1052.78 491.5Z" fill="#6100DC"/><path d="M1138.35 476.4 1118.22 476.4C1116.83 476.4 1115.7 475.267 1115.7 473.883 1115.7 472.499 1116.83 471.367 1118.22 471.367L1135.83 471.367 1135.83 458.783C1135.83 457.399 1136.97 456.267 1138.35 456.267 1139.73 456.267 1140.87 457.399 1140.87 458.783L1140.87 473.883C1140.87 475.267 1139.73 476.4 1138.35 476.4Z" fill="#6100DC"/><path d="M1085.5 551.9C1084.12 551.9 1082.98 550.768 1082.98 549.383L1082.98 521.7 1057.82 521.7C1053.66 521.7 1050.27 518.302 1050.27 514.15L1050.27 499.05C1050.27 497.666 1051.4 496.533 1052.78 496.533 1054.17 496.533 1055.3 497.666 1055.3 499.05L1055.3 514.15C1055.3 515.534 1056.43 516.667 1057.82 516.667L1085.5 516.667C1086.88 516.667 1088.02 517.799 1088.02 519.183L1088.02 549.383C1088.02 550.768 1086.88 551.9 1085.5 551.9Z" fill="#6100DC"/><path d="M1032.65 521.7C1031.27 521.7 1030.13 520.568 1030.13 519.183L1030.13 504.083C1030.13 502.699 1031.27 501.567 1032.65 501.567L1052.78 501.567C1054.17 501.567 1055.3 502.699 1055.3 504.083 1055.3 505.467 1054.17 506.6 1052.78 506.6L1035.17 506.6 1035.17 519.183C1035.17 520.568 1034.03 521.7 1032.65 521.7Z" fill="#6100DC"/><path d="M1067.88 546.867 1052.78 546.867C1051.4 546.867 1050.27 545.734 1050.27 544.35 1050.27 542.966 1051.4 541.833 1052.78 541.833L1065.37 541.833 1065.37 529.25C1065.37 527.866 1066.5 526.733 1067.88 526.733 1069.27 526.733 1070.4 527.866 1070.4 529.25L1070.4 544.35C1070.4 545.734 1069.27 546.867 1067.88 546.867Z" fill="#6100DC"/><path d="M1105.63 466.333C1104.25 466.333 1103.12 465.201 1103.12 463.817L1103.12 443.683C1103.12 433.969 1095.21 426.067 1085.5 426.067 1075.79 426.067 1067.88 433.969 1067.88 443.683L1067.88 463.817C1067.88 465.201 1066.75 466.333 1065.37 466.333 1063.98 466.333 1062.85 465.201 1062.85 463.817L1062.85 443.683C1062.85 431.201 1073.02 421.033 1085.5 421.033 1097.98 421.033 1108.15 431.201 1108.15 443.683L1108.15 463.817C1108.15 465.201 1107.02 466.333 1105.63 466.333Z" fill="#6100DC"/><path d="M1085.5 506.6C1084.12 506.6 1082.98 505.467 1082.98 504.083L1082.98 494.017C1082.98 492.633 1084.12 491.5 1085.5 491.5 1086.88 491.5 1088.02 492.633 1088.02 494.017L1088.02 504.083C1088.02 505.467 1086.88 506.6 1085.5 506.6Z" fill="#6100DC"/></g></svg>