<svg width="151" height="151" xmlns="http://www.w3.org/2000/svg" xmlns:xlink="http://www.w3.org/1999/xlink" xml:space="preserve" overflow="hidden"><g transform="translate(-718 -416)"><path d="M768.333 556.405C764.181 556.405 760.783 553.007 760.783 548.855 760.783 544.702 764.181 541.305 768.333 541.305 772.486 541.305 775.883 544.702 775.883 548.855 775.883 553.007 772.486 556.405 768.333 556.405ZM768.333 546.338C766.949 546.338 765.817 547.471 765.817 548.855 765.817 550.239 766.949 551.372 768.333 551.372 769.718 551.372 770.85 550.239 770.85 548.855 770.85 547.471 769.718 546.338 768.333 546.338Z" fill="#6100DC"/><path d="M748.2 536.271C744.047 536.271 740.65 532.874 740.65 528.721 740.65 524.569 744.047 521.172 748.2 521.172 752.352 521.172 755.75 524.569 755.75 528.721 755.75 532.874 752.352 536.271 748.2 536.271ZM748.2 526.205C746.816 526.205 745.683 527.337 745.683 528.721 745.683 530.106 746.816 531.238 748.2 531.238 749.584 531.238 750.717 530.106 750.717 528.721 750.717 527.337 749.584 526.205 748.2 526.205Z" fill="#6100DC"/><path d="M750.717 501.038C746.564 501.038 743.167 497.641 743.167 493.488 743.167 489.336 746.564 485.938 750.717 485.938 754.869 485.938 758.267 489.336 758.267 493.488 758.267 497.641 754.869 501.038 750.717 501.038ZM750.717 490.971C749.333 490.971 748.2 492.104 748.2 493.488 748.2 494.872 749.333 496.005 750.717 496.005 752.101 496.005 753.233 494.872 753.233 493.488 753.233 492.104 752.101 490.971 750.717 490.971Z" fill="#6100DC"/><path d="M831.25 480.905C827.097 480.905 823.7 477.507 823.7 473.355 823.7 469.202 827.097 465.805 831.25 465.805 835.403 465.805 838.8 469.202 838.8 473.355 838.8 477.507 835.403 480.905 831.25 480.905ZM831.25 470.838C829.866 470.838 828.733 471.971 828.733 473.355 828.733 474.739 829.866 475.871 831.25 475.871 832.634 475.871 833.767 474.739 833.767 473.355 833.767 471.971 832.634 470.838 831.25 470.838Z" fill="#6100DC"/><path d="M838.8 536.271C834.648 536.271 831.25 532.874 831.25 528.721 831.25 524.569 834.648 521.172 838.8 521.172 842.953 521.172 846.35 524.569 846.35 528.721 846.35 532.874 842.953 536.271 838.8 536.271ZM838.8 526.205C837.416 526.205 836.283 527.337 836.283 528.721 836.283 530.106 837.416 531.238 838.8 531.238 840.184 531.238 841.317 530.106 841.317 528.721 841.317 527.337 840.184 526.205 838.8 526.205Z" fill="#6100DC"/><path d="M821.183 455.738C817.031 455.738 813.633 452.341 813.633 448.188 813.633 444.036 817.031 440.638 821.183 440.638 825.336 440.638 828.733 444.036 828.733 448.188 828.733 452.341 825.336 455.738 821.183 455.738ZM821.183 445.672C819.799 445.672 818.667 446.804 818.667 448.188 818.667 449.572 819.799 450.705 821.183 450.705 822.568 450.705 823.7 449.572 823.7 448.188 823.7 446.804 822.568 445.672 821.183 445.672Z" fill="#6100DC"/><path d="M765.817 475.871C761.664 475.871 758.267 472.474 758.267 468.322 758.267 464.169 761.664 460.772 765.817 460.772 769.969 460.772 773.367 464.169 773.367 468.322 773.367 472.474 769.969 475.871 765.817 475.871ZM765.817 465.805C764.432 465.805 763.3 466.937 763.3 468.322 763.3 469.706 764.432 470.838 765.817 470.838 767.201 470.838 768.333 469.706 768.333 468.322 768.333 466.937 767.201 465.805 765.817 465.805Z" fill="#6100DC"/><path d="M833.767 531.238 801.05 531.238C799.666 531.238 798.533 530.106 798.533 528.721L798.533 508.588C798.533 507.204 799.666 506.072 801.05 506.072 802.434 506.072 803.567 507.204 803.567 508.588L803.567 526.205 833.767 526.205C835.151 526.205 836.283 527.337 836.283 528.721 836.283 530.106 835.151 531.238 833.767 531.238Z" fill="#6100DC"/><path d="M753.233 531.238C752.579 531.238 751.925 530.961 751.446 530.508 751.22 530.257 751.044 529.98 750.918 529.678 750.767 529.376 750.717 529.049 750.717 528.721 750.717 528.394 750.767 528.067 750.918 527.765 751.044 527.438 751.22 527.161 751.446 526.935 751.698 526.708 751.975 526.532 752.277 526.381 753.208 526.003 754.315 526.23 755.02 526.935 755.473 527.413 755.75 528.067 755.75 528.721 755.75 529.376 755.473 530.03 755.02 530.508 754.894 530.609 754.768 530.71 754.617 530.81 754.492 530.911 754.341 530.987 754.19 531.037 754.039 531.112 753.888 531.163 753.711 531.188 753.56 531.188 753.384 531.238 753.233 531.238Z" fill="#6100DC"/><path d="M750.717 528.721C750.717 527.337 751.849 526.205 753.233 526.205L753.233 526.205C754.617 526.205 755.75 527.337 755.75 528.721L755.75 528.721C755.75 530.106 754.617 531.238 753.233 531.238L753.233 531.238C751.849 531.238 750.717 530.106 750.717 528.721Z" fill="#6100DC"/><path d="M769.164 528.721C769.164 527.337 770.296 526.205 771.68 526.205L771.68 526.205C773.065 526.205 774.197 527.337 774.197 528.721L774.197 528.721C774.197 530.106 773.065 531.238 771.68 531.238L771.68 531.238C770.296 531.238 769.164 530.106 769.164 528.721ZM759.953 528.721C759.953 527.337 761.06 526.205 762.469 526.205L762.469 526.205C763.854 526.205 764.986 527.337 764.986 528.721L764.986 528.721C764.986 530.106 763.854 531.238 762.469 531.238L762.469 531.238C761.06 531.238 759.953 530.106 759.953 528.721Z" fill="#6100DC"/><path d="M780.917 531.238C780.74 531.238 780.589 531.213 780.413 531.188 780.262 531.163 780.111 531.112 779.96 531.037 779.809 530.987 779.658 530.911 779.507 530.81 779.381 530.71 779.256 530.609 779.13 530.508 778.903 530.257 778.727 529.98 778.601 529.678 778.45 529.376 778.4 529.049 778.4 528.721 778.4 528.042 778.677 527.413 779.13 526.935 779.709 526.356 780.589 526.079 781.395 526.255 781.571 526.255 781.722 526.331 781.873 526.381 782.024 526.456 782.175 526.532 782.326 526.633 782.452 526.708 782.578 526.809 782.703 526.935 783.156 527.413 783.433 528.067 783.433 528.721 783.433 529.049 783.383 529.376 783.232 529.678 783.106 529.98 782.93 530.257 782.703 530.508 782.578 530.609 782.452 530.71 782.326 530.81 782.175 530.911 782.024 530.987 781.873 531.037 781.722 531.112 781.571 531.163 781.395 531.188 781.244 531.188 781.068 531.238 780.917 531.238Z" fill="#6100DC"/><path d="M778.4 528.721C778.4 527.337 779.532 526.205 780.917 526.205L780.917 526.205C782.301 526.205 783.433 527.337 783.433 528.721L783.433 528.721C783.433 530.106 782.301 531.238 780.917 531.238L780.917 531.238C779.532 531.238 778.4 530.106 778.4 528.721Z" fill="#6100DC"/><path d="M778.4 518.655C778.4 517.271 779.532 516.138 780.917 516.138L780.917 516.138C782.301 516.138 783.433 517.271 783.433 518.655L783.433 518.655C783.433 520.039 782.301 521.172 780.917 521.172L780.917 521.172C779.532 521.172 778.4 520.039 778.4 518.655Z" fill="#6100DC"/><path d="M780.917 511.105C780.74 511.105 780.589 511.08 780.413 511.055 780.262 511.029 780.111 510.979 779.96 510.904 779.809 510.853 779.658 510.778 779.507 510.677 779.381 510.576 779.256 510.476 779.13 510.375 778.903 510.123 778.727 509.846 778.601 509.544 778.45 509.242 778.4 508.915 778.4 508.588 778.4 507.909 778.677 507.28 779.13 506.801 779.709 506.223 780.589 505.946 781.395 506.122 781.571 506.122 781.722 506.197 781.873 506.248 782.024 506.323 782.175 506.399 782.326 506.499 782.452 506.575 782.578 506.676 782.703 506.801 783.156 507.28 783.433 507.934 783.433 508.588 783.433 508.915 783.383 509.242 783.232 509.544 783.106 509.846 782.93 510.123 782.703 510.375 782.578 510.476 782.452 510.576 782.326 510.677 782.175 510.778 782.024 510.853 781.873 510.904 781.722 510.979 781.571 511.029 781.395 511.055 781.244 511.055 781.068 511.105 780.917 511.105Z" fill="#6100DC"/><path d="M816.15 556.405C811.997 556.405 808.6 553.007 808.6 548.855 808.6 544.702 811.997 541.305 816.15 541.305 820.302 541.305 823.7 544.702 823.7 548.855 823.7 553.007 820.302 556.405 816.15 556.405ZM816.15 546.338C814.766 546.338 813.633 547.471 813.633 548.855 813.633 550.239 814.766 551.372 816.15 551.372 817.534 551.372 818.667 550.239 818.667 548.855 818.667 547.471 817.534 546.338 816.15 546.338Z" fill="#6100DC"/><path d="M833.112 511.105 816.15 511.105C814.766 511.105 813.633 509.972 813.633 508.588 813.633 507.204 814.766 506.072 816.15 506.072L833.112 506.072C844.563 506.072 853.9 496.584 853.9 484.906 853.9 476.35 848.892 468.674 841.141 465.377 840.109 464.924 839.479 463.842 839.63 462.734 839.832 461.25 839.932 460.017 839.932 458.859 839.932 443.281 827.475 430.597 812.148 430.597 800.068 430.597 789.448 438.474 785.749 450.227 785.522 450.982 784.943 451.586 784.188 451.837 783.433 452.089 782.628 451.988 781.948 451.56 778.652 449.371 774.801 448.213 770.85 448.213 759.752 448.213 750.717 457.248 750.717 468.347 750.717 469.605 749.786 470.863 748.527 471.014 739.744 472.122 733.1 479.621 733.1 488.48 733.1 498.194 741.002 506.097 750.717 506.097L765.817 506.097C767.201 506.097 768.333 507.229 768.333 508.613 768.333 509.997 767.201 511.13 765.817 511.13L750.717 511.13C738.234 511.13 728.067 500.963 728.067 488.48 728.067 477.809 735.541 468.674 745.759 466.384 746.766 453.423 757.638 443.18 770.85 443.18 774.751 443.18 778.551 444.086 782.024 445.797 787.133 433.591 798.886 425.563 812.148 425.563 830.243 425.563 844.966 440.512 844.966 458.859 844.966 459.715 844.916 460.62 844.84 461.552 853.472 466.006 858.958 474.966 858.958 484.906 858.958 499.352 847.382 511.105 833.138 511.105Z" fill="#6100DC"/><path d="M803.567 511.105 778.4 511.105C775.632 511.105 773.367 508.84 773.367 506.072L773.367 480.905C773.367 478.137 775.632 475.871 778.4 475.871L803.567 475.871C806.335 475.871 808.6 478.137 808.6 480.905L808.6 506.072C808.6 508.84 806.335 511.105 803.567 511.105ZM778.4 480.905 778.4 506.072 803.567 506.072 803.567 480.905 778.4 480.905Z" fill="#6100DC"/><path d="M785.95 480.905C784.566 480.905 783.433 479.772 783.433 478.388L783.433 470.838 770.85 470.838C769.466 470.838 768.333 469.706 768.333 468.322 768.333 466.937 769.466 465.805 770.85 465.805L785.95 465.805C787.334 465.805 788.467 466.937 788.467 468.322L788.467 478.388C788.467 479.772 787.334 480.905 785.95 480.905Z" fill="#6100DC"/><path d="M831.25 490.971 806.083 490.971C804.699 490.971 803.567 489.839 803.567 488.455 803.567 487.071 804.699 485.938 806.083 485.938L828.733 485.938 828.733 478.388C828.733 477.004 829.866 475.871 831.25 475.871 832.634 475.871 833.767 477.004 833.767 478.388L833.767 488.455C833.767 489.839 832.634 490.971 831.25 490.971Z" fill="#6100DC"/><path d="M801.05 480.905C800.396 480.905 799.741 480.628 799.263 480.175 798.81 479.697 798.533 479.043 798.533 478.388 798.533 478.061 798.584 477.734 798.735 477.432 798.86 477.105 799.037 476.828 799.263 476.601 799.49 476.375 799.766 476.199 800.094 476.073 801.025 475.67 802.132 475.897 802.837 476.601 803.063 476.828 803.24 477.105 803.365 477.432 803.491 477.734 803.567 478.061 803.567 478.388 803.567 479.043 803.29 479.697 802.837 480.175 802.359 480.628 801.704 480.905 801.05 480.905Z" fill="#6100DC"/><path d="M798.533 478.388C798.533 476.979 799.666 475.871 801.05 475.871L801.05 475.871C802.434 475.871 803.567 476.979 803.567 478.388L803.567 478.388C803.567 479.772 802.434 480.905 801.05 480.905L801.05 480.905C799.666 480.905 798.533 479.772 798.533 478.388Z" fill="#6100DC"/><path d="M798.533 468.322C798.533 466.937 799.666 465.805 801.05 465.805L801.05 465.805C802.434 465.805 803.567 466.937 803.567 468.322L803.567 468.322C803.567 469.706 802.434 470.838 801.05 470.838L801.05 470.838C799.666 470.838 798.533 469.706 798.533 468.322ZM798.533 458.255C798.533 456.871 799.666 455.738 801.05 455.738L801.05 455.738C802.434 455.738 803.567 456.871 803.567 458.255L803.567 458.255C803.567 459.639 802.434 460.772 801.05 460.772L801.05 460.772C799.666 460.772 798.533 459.639 798.533 458.255Z" fill="#6100DC"/><path d="M801.05 450.705C800.396 450.705 799.741 450.428 799.263 449.975 798.81 449.497 798.533 448.842 798.533 448.188 798.533 447.534 798.81 446.88 799.263 446.401 800.219 445.47 801.88 445.47 802.837 446.401 803.29 446.88 803.567 447.534 803.567 448.188 803.567 448.842 803.29 449.497 802.837 449.975 802.359 450.428 801.704 450.705 801.05 450.705Z" fill="#6100DC"/><path d="M798.533 448.188C798.533 446.804 799.666 445.672 801.05 445.672L801.05 445.672C802.434 445.672 803.567 446.804 803.567 448.188L803.567 448.188C803.567 449.572 802.434 450.705 801.05 450.705L801.05 450.705C799.666 450.705 798.533 449.572 798.533 448.188Z" fill="#6100DC"/><path d="M806.083 448.188C806.083 446.804 807.216 445.672 808.6 445.672L808.6 445.672C809.984 445.672 811.117 446.804 811.117 448.188L811.117 448.188C811.117 449.572 809.984 450.705 808.6 450.705L808.6 450.705C807.216 450.705 806.083 449.572 806.083 448.188Z" fill="#6100DC"/><path d="M816.15 450.705C815.471 450.705 814.841 450.428 814.363 449.975 814.137 449.723 813.961 449.447 813.835 449.145 813.709 448.842 813.633 448.515 813.633 448.188 813.633 447.534 813.91 446.88 814.363 446.401 815.294 445.47 817.006 445.47 817.937 446.401 818.39 446.88 818.667 447.534 818.667 448.188 818.667 448.515 818.616 448.842 818.465 449.145 818.339 449.447 818.163 449.723 817.937 449.975 817.459 450.428 816.829 450.705 816.15 450.705Z" fill="#6100DC"/><path d="M775.883 496.005 755.75 496.005C754.366 496.005 753.233 494.872 753.233 493.488 753.233 492.104 754.366 490.971 755.75 490.971L775.883 490.971C777.268 490.971 778.4 492.104 778.4 493.488 778.4 494.872 777.268 496.005 775.883 496.005Z" fill="#6100DC"/><path d="M833.767 498.521C833.767 497.137 834.899 496.005 836.283 496.005L836.283 496.005C837.667 496.005 838.8 497.137 838.8 498.521L838.8 498.521C838.8 499.906 837.667 501.038 836.283 501.038L836.283 501.038C834.899 501.038 833.767 499.906 833.767 498.521ZM823.7 498.521C823.7 497.137 824.833 496.005 826.217 496.005L826.217 496.005C827.601 496.005 828.733 497.137 828.733 498.521L828.733 498.521C828.733 499.906 827.601 501.038 826.217 501.038L826.217 501.038C824.833 501.038 823.7 499.906 823.7 498.521ZM813.633 498.521C813.633 497.137 814.766 496.005 816.15 496.005L816.15 496.005C817.534 496.005 818.667 497.137 818.667 498.521L818.667 498.521C818.667 499.906 817.534 501.038 816.15 501.038L816.15 501.038C814.766 501.038 813.633 499.906 813.633 498.521ZM803.567 498.521C803.567 497.137 804.699 496.005 806.083 496.005L806.083 496.005C807.468 496.005 808.6 497.137 808.6 498.521L808.6 498.521C808.6 499.906 807.468 501.038 806.083 501.038L806.083 501.038C804.699 501.038 803.567 499.906 803.567 498.521Z" fill="#6100DC"/><path d="M790.983 551.372 773.367 551.372C771.982 551.372 770.85 550.239 770.85 548.855 770.85 547.471 771.982 546.338 773.367 546.338L788.467 546.338 788.467 508.588C788.467 507.204 789.599 506.072 790.983 506.072 792.367 506.072 793.5 507.204 793.5 508.588L793.5 548.855C793.5 550.239 792.367 551.372 790.983 551.372Z" fill="#6100DC"/><path d="M808.6 548.855C808.6 547.471 809.732 546.338 811.117 546.338L811.117 546.338C812.501 546.338 813.633 547.471 813.633 548.855L813.633 548.855C813.633 550.239 812.501 551.372 811.117 551.372L811.117 551.372C809.732 551.372 808.6 550.239 808.6 548.855ZM798.533 548.855C798.533 547.471 799.666 546.338 801.05 546.338L801.05 546.338C802.434 546.338 803.567 547.471 803.567 548.855L803.567 548.855C803.567 550.239 802.434 551.372 801.05 551.372L801.05 551.372C799.666 551.372 798.533 550.239 798.533 548.855ZM788.467 548.855C788.467 547.471 789.599 546.338 790.983 546.338L790.983 546.338C792.367 546.338 793.5 547.471 793.5 548.855L793.5 548.855C793.5 550.239 792.367 551.372 790.983 551.372L790.983 551.372C789.599 551.372 788.467 550.239 788.467 548.855Z" fill="#6100DC"/></g></svg>