<svg width="151" height="151" xmlns="http://www.w3.org/2000/svg" xmlns:xlink="http://www.w3.org/1999/xlink" xml:space="preserve" overflow="hidden"><g transform="translate(-1005 -416)"><path d="M1081.46 538.738C1075.79 538.738 1071.21 534.132 1071.21 528.495 1071.21 522.858 1075.82 518.252 1081.46 518.252 1087.09 518.252 1091.7 522.858 1091.7 528.495 1091.7 534.132 1087.09 538.738 1081.46 538.738ZM1081.46 522.757C1078.31 522.757 1075.74 525.324 1075.74 528.47 1075.74 531.616 1078.31 534.183 1081.46 534.183 1084.6 534.183 1087.17 531.616 1087.17 528.47 1087.17 525.324 1084.6 522.757 1081.46 522.757Z" fill="#6100DC"/><path d="M1100.48 564.408 1095.95 564.408 1095.95 550.063C1095.95 547.747 1094.06 545.86 1091.75 545.86L1071.19 545.86C1068.87 545.86 1066.99 547.747 1066.99 550.063L1066.99 564.408 1062.46 564.408 1062.46 550.063C1062.46 545.231 1066.38 541.33 1071.19 541.33L1091.75 541.33C1096.58 541.33 1100.48 545.256 1100.48 550.063L1100.48 564.408Z" fill="#6100DC"/><path d="M1073.48 563.879C1072.22 563.879 1071.21 562.873 1071.21 561.614L1071.21 553.435C1071.21 552.177 1072.22 551.17 1073.48 551.17 1074.74 551.17 1075.74 552.177 1075.74 553.435L1075.74 561.614C1075.74 562.873 1074.74 563.879 1073.48 563.879Z" fill="#6100DC"/><path d="M1089.84 563.879C1088.58 563.879 1087.57 562.873 1087.57 561.614L1087.57 553.435C1087.57 552.177 1088.58 551.17 1089.84 551.17 1091.1 551.17 1092.1 552.177 1092.1 553.435L1092.1 561.614C1092.1 562.873 1091.1 563.879 1089.84 563.879Z" fill="#6100DC"/><path d="M1098.22 564.408 1064.72 564.408C1063.46 564.408 1062.46 563.401 1062.46 562.143 1062.46 560.885 1063.46 559.878 1064.72 559.878L1098.22 559.878C1099.48 559.878 1100.48 560.885 1100.48 562.143 1100.48 563.401 1099.48 564.408 1098.22 564.408Z" fill="#6100DC"/><path d="M1060.72 547.118C1060.39 547.118 1060.09 547.043 1059.76 546.917 1049.29 542.11 1040.61 533.83 1035.28 523.588 1034.7 522.48 1035.12 521.121 1036.23 520.542 1037.34 519.964 1038.7 520.391 1039.28 521.499 1044.13 530.836 1052.06 538.411 1061.62 542.79 1062.76 543.318 1063.26 544.652 1062.73 545.784 1062.35 546.615 1061.52 547.093 1060.67 547.093Z" fill="#6100DC"/><path d="M1102.67 546.892C1101.82 546.892 1101.01 546.414 1100.63 545.583 1100.1 544.451 1100.58 543.092 1101.72 542.563 1112.31 537.555 1120.67 528.872 1125.22 518.076 1125.7 516.918 1127.03 516.39 1128.19 516.868 1129.35 517.346 1129.88 518.68 1129.4 519.838 1124.42 531.641 1115.26 541.179 1103.65 546.665 1103.35 546.816 1103.02 546.892 1102.7 546.892Z" fill="#6100DC"/><path d="M1122.3 473.481C1121.6 473.481 1120.89 473.154 1120.44 472.499 1115.68 465.654 1109.19 460.168 1101.67 456.644 1100.53 456.116 1100.05 454.757 1100.58 453.624 1101.11 452.492 1102.47 452.013 1103.6 452.542 1111.83 456.418 1118.95 462.432 1124.16 469.907 1124.87 470.939 1124.62 472.348 1123.61 473.053 1123.21 473.33 1122.75 473.456 1122.33 473.456Z" fill="#6100DC"/><path d="M1040.36 473.858C1039.93 473.858 1039.48 473.732 1039.08 473.456 1038.04 472.751 1037.77 471.341 1038.47 470.31 1043.71 462.634 1050.93 456.493 1059.31 452.542 1060.44 452.013 1061.8 452.492 1062.33 453.624 1062.86 454.757 1062.38 456.116 1061.25 456.644 1053.57 460.243 1047 465.855 1042.22 472.877 1041.79 473.506 1041.06 473.858 1040.36 473.858Z" fill="#6100DC"/><path d="M1129.27 491.072C1123.61 491.072 1119.03 486.467 1119.03 480.829 1119.03 475.192 1123.64 470.586 1129.27 470.586 1134.91 470.586 1139.52 475.192 1139.52 480.829 1139.52 486.467 1134.91 491.072 1129.27 491.072ZM1129.27 475.091C1126.13 475.091 1123.56 477.658 1123.56 480.804 1123.56 483.95 1126.13 486.517 1129.27 486.517 1132.42 486.517 1134.99 483.95 1134.99 480.804 1134.99 477.658 1132.42 475.091 1129.27 475.091Z" fill="#6100DC"/><path d="M1148.3 516.742 1143.77 516.742 1143.77 502.397C1143.77 500.082 1141.88 498.194 1139.57 498.194L1119.01 498.194C1116.69 498.194 1114.8 500.082 1114.8 502.397L1114.8 516.742 1110.27 516.742 1110.27 502.397C1110.27 497.565 1114.2 493.664 1119.01 493.664L1139.57 493.664C1144.4 493.664 1148.3 497.59 1148.3 502.397L1148.3 516.742Z" fill="#6100DC"/><path d="M1121.3 516.214C1120.04 516.214 1119.03 515.207 1119.03 513.949L1119.03 505.77C1119.03 504.511 1120.04 503.505 1121.3 503.505 1122.55 503.505 1123.56 504.511 1123.56 505.77L1123.56 513.949C1123.56 515.207 1122.55 516.214 1121.3 516.214Z" fill="#6100DC"/><path d="M1137.65 516.214C1136.4 516.214 1135.39 515.207 1135.39 513.949L1135.39 505.77C1135.39 504.511 1136.4 503.505 1137.65 503.505 1138.91 503.505 1139.92 504.511 1139.92 505.77L1139.92 513.949C1139.92 515.207 1138.91 516.214 1137.65 516.214Z" fill="#6100DC"/><path d="M1146.03 516.742 1112.54 516.742C1111.28 516.742 1110.27 515.735 1110.27 514.477 1110.27 513.219 1111.28 512.212 1112.54 512.212L1146.03 512.212C1147.29 512.212 1148.3 513.219 1148.3 514.477 1148.3 515.735 1147.29 516.742 1146.03 516.742Z" fill="#6100DC"/><path d="M1031.73 492.456C1026.06 492.456 1021.48 487.851 1021.48 482.214 1021.48 476.576 1026.09 471.971 1031.73 471.971 1037.36 471.971 1041.97 476.576 1041.97 482.214 1041.97 487.851 1037.36 492.456 1031.73 492.456ZM1031.73 476.475C1028.58 476.475 1026.01 479.043 1026.01 482.188 1026.01 485.334 1028.58 487.901 1031.73 487.901 1034.87 487.901 1037.44 485.334 1037.44 482.188 1037.44 479.043 1034.87 476.475 1031.73 476.475Z" fill="#6100DC"/><path d="M1050.73 518.126 1046.2 518.126 1046.2 503.781C1046.2 501.466 1044.31 499.578 1041.99 499.578L1021.43 499.578C1019.12 499.578 1017.23 501.466 1017.23 503.781L1017.23 518.126 1012.7 518.126 1012.7 503.781C1012.7 498.949 1016.63 495.048 1021.43 495.048L1041.99 495.048C1046.83 495.048 1050.73 498.974 1050.73 503.781L1050.73 518.126Z" fill="#6100DC"/><path d="M1023.72 517.598C1022.47 517.598 1021.46 516.591 1021.46 515.333L1021.46 507.154C1021.46 505.895 1022.47 504.889 1023.72 504.889 1024.98 504.889 1025.99 505.895 1025.99 507.154L1025.99 515.333C1025.99 516.591 1024.98 517.598 1023.72 517.598Z" fill="#6100DC"/><path d="M1040.08 517.598C1038.82 517.598 1037.82 516.591 1037.82 515.333L1037.82 507.154C1037.82 505.895 1038.82 504.889 1040.08 504.889 1041.34 504.889 1042.35 505.895 1042.35 507.154L1042.35 515.333C1042.35 516.591 1041.34 517.598 1040.08 517.598Z" fill="#6100DC"/><path d="M1048.46 518.126 1014.97 518.126C1013.71 518.126 1012.7 517.12 1012.7 515.861 1012.7 514.603 1013.71 513.596 1014.97 513.596L1048.46 513.596C1049.72 513.596 1050.73 514.603 1050.73 515.861 1050.73 517.12 1049.72 518.126 1048.46 518.126Z" fill="#6100DC"/><path d="M1081.46 438.197C1075.79 438.197 1071.21 433.591 1071.21 427.954 1071.21 422.317 1075.82 417.711 1081.46 417.711 1087.09 417.711 1091.7 422.317 1091.7 427.954 1091.7 433.591 1087.09 438.197 1081.46 438.197ZM1081.46 422.216C1078.31 422.216 1075.74 424.783 1075.74 427.929 1075.74 431.075 1078.31 433.642 1081.46 433.642 1084.6 433.642 1087.17 431.075 1087.17 427.929 1087.17 424.783 1084.6 422.216 1081.46 422.216Z" fill="#6100DC"/><path d="M1100.48 463.892 1095.95 463.892 1095.95 449.547C1095.95 447.232 1094.06 445.344 1091.75 445.344L1071.19 445.344C1068.87 445.344 1066.99 447.232 1066.99 449.547L1066.99 463.892 1062.46 463.892 1062.46 449.547C1062.46 444.715 1066.38 440.814 1071.19 440.814L1091.75 440.814C1096.58 440.814 1100.48 444.74 1100.48 449.547L1100.48 463.892Z" fill="#6100DC"/><path d="M1073.48 463.339C1072.22 463.339 1071.21 462.332 1071.21 461.073L1071.21 452.894C1071.21 451.636 1072.22 450.629 1073.48 450.629 1074.74 450.629 1075.74 451.636 1075.74 452.894L1075.74 461.073C1075.74 462.332 1074.74 463.339 1073.48 463.339Z" fill="#6100DC"/><path d="M1089.84 463.339C1088.58 463.339 1087.57 462.332 1087.57 461.073L1087.57 452.894C1087.57 451.636 1088.58 450.629 1089.84 450.629 1091.1 450.629 1092.1 451.636 1092.1 452.894L1092.1 461.073C1092.1 462.332 1091.1 463.339 1089.84 463.339Z" fill="#6100DC"/><path d="M1098.22 463.892 1064.72 463.892C1063.46 463.892 1062.46 462.885 1062.46 461.627 1062.46 460.369 1063.46 459.362 1064.72 459.362L1098.22 459.362C1099.48 459.362 1100.48 460.369 1100.48 461.627 1100.48 462.885 1099.48 463.892 1098.22 463.892Z" fill="#6100DC"/></g></svg>