<svg width="151" height="151" xmlns="http://www.w3.org/2000/svg" xmlns:xlink="http://www.w3.org/1999/xlink" xml:space="preserve" overflow="hidden"><g transform="translate(-426 -416)"><path d="M472.961 555.272C468.607 555.272 465.084 551.724 465.084 547.395 465.084 543.067 468.632 539.518 472.961 539.518 477.29 539.518 480.838 543.067 480.838 547.395 480.838 551.724 477.29 555.272 472.961 555.272ZM472.961 544.526C471.401 544.526 470.117 545.81 470.117 547.37 470.117 548.93 471.401 550.214 472.961 550.214 474.521 550.214 475.805 548.93 475.805 547.37 475.805 545.81 474.521 544.526 472.961 544.526Z" fill="#6100DC"/><path d="M451.494 533.805C447.14 533.805 443.617 530.257 443.617 525.928 443.617 521.599 447.165 518.051 451.494 518.051 455.823 518.051 459.371 521.599 459.371 525.928 459.371 530.257 455.823 533.805 451.494 533.805ZM451.494 523.059C449.934 523.059 448.65 524.343 448.65 525.903 448.65 527.463 449.934 528.747 451.494 528.747 453.054 528.747 454.338 527.463 454.338 525.903 454.338 524.343 453.054 523.059 451.494 523.059Z" fill="#6100DC"/><path d="M454.161 496.206C449.808 496.206 446.284 492.658 446.284 488.329 446.284 484 449.833 480.452 454.161 480.452 458.49 480.452 462.039 484 462.039 488.329 462.039 492.658 458.49 496.206 454.161 496.206ZM454.161 485.46C452.601 485.46 451.318 486.743 451.318 488.304 451.318 489.864 452.601 491.148 454.161 491.148 455.722 491.148 457.005 489.864 457.005 488.304 457.005 486.743 455.722 485.46 454.161 485.46Z" fill="#6100DC"/><path d="M540.081 474.739C535.727 474.739 532.203 471.19 532.203 466.862 532.203 462.533 535.752 458.985 540.081 458.985 544.409 458.985 547.958 462.533 547.958 466.862 547.958 471.19 544.409 474.739 540.081 474.739ZM540.081 463.993C538.52 463.993 537.237 465.276 537.237 466.837 537.237 468.397 538.52 469.681 540.081 469.681 541.641 469.681 542.924 468.397 542.924 466.837 542.924 465.276 541.641 463.993 540.081 463.993Z" fill="#6100DC"/><path d="M548.134 533.805C543.78 533.805 540.257 530.257 540.257 525.928 540.257 521.599 543.805 518.051 548.134 518.051 552.463 518.051 556.011 521.599 556.011 525.928 556.011 530.257 552.463 533.805 548.134 533.805ZM548.134 523.059C546.573 523.059 545.29 524.343 545.29 525.903 545.29 527.463 546.573 528.747 548.134 528.747 549.694 528.747 550.978 527.463 550.978 525.903 550.978 524.343 549.694 523.059 548.134 523.059Z" fill="#6100DC"/><path d="M529.334 447.886C524.981 447.886 521.457 444.338 521.457 440.009 521.457 435.68 525.006 432.132 529.334 432.132 533.663 432.132 537.211 435.68 537.211 440.009 537.211 444.338 533.663 447.886 529.334 447.886ZM529.334 437.14C527.774 437.14 526.49 438.423 526.49 439.984 526.49 441.544 527.774 442.828 529.334 442.828 530.895 442.828 532.178 441.544 532.178 439.984 532.178 438.423 530.895 437.14 529.334 437.14Z" fill="#6100DC"/><path d="M470.268 469.353C465.914 469.353 462.391 465.805 462.391 461.476 462.391 457.147 465.94 453.599 470.268 453.599 474.597 453.599 478.145 457.147 478.145 461.476 478.145 465.805 474.597 469.353 470.268 469.353ZM470.268 458.607C468.708 458.607 467.424 459.891 467.424 461.451 467.424 463.011 468.708 464.295 470.268 464.295 471.828 464.295 473.112 463.011 473.112 461.451 473.112 459.891 471.828 458.607 470.268 458.607Z" fill="#6100DC"/><path d="M542.773 528.419 507.867 528.419C506.483 528.419 505.35 527.287 505.35 525.903L505.35 504.436C505.35 503.052 506.483 501.919 507.867 501.919 509.251 501.919 510.384 503.052 510.384 504.436L510.384 523.386 542.773 523.386C544.157 523.386 545.29 524.519 545.29 525.903 545.29 527.287 544.157 528.419 542.773 528.419Z" fill="#6100DC"/><path d="M456.854 528.419C456.527 528.419 456.2 528.369 455.898 528.243 455.571 528.117 455.294 527.916 455.068 527.69 454.589 527.211 454.338 526.582 454.338 525.903 454.338 525.576 454.388 525.248 454.514 524.947 454.64 524.644 454.841 524.368 455.068 524.116 455.294 523.89 455.571 523.713 455.873 523.588 456.804 523.21 457.911 523.437 458.616 524.116 458.868 524.368 459.044 524.644 459.17 524.947 459.296 525.248 459.371 525.576 459.371 525.903 459.371 526.582 459.094 527.211 458.616 527.69 458.389 527.916 458.113 528.117 457.811 528.243 457.509 528.369 457.181 528.419 456.854 528.419Z" fill="#6100DC"/><path d="M454.338 525.903C454.338 524.519 455.445 523.386 456.854 523.386L456.854 523.386C458.238 523.386 459.371 524.519 459.371 525.903L459.371 525.903C459.371 527.287 458.238 528.419 456.854 528.419L456.854 528.419C455.445 528.419 454.338 527.287 454.338 525.903Z" fill="#6100DC"/><path d="M473.414 525.903C473.414 524.519 474.521 523.386 475.931 523.386L475.931 523.386C477.29 523.386 478.422 524.519 478.422 525.903L478.422 525.903C478.422 527.287 477.29 528.419 475.931 528.419L475.931 528.419C474.521 528.419 473.414 527.287 473.414 525.903ZM464.178 525.903C464.178 524.519 465.285 523.386 466.694 523.386L466.694 523.386C468.079 523.386 469.211 524.519 469.211 525.903L469.211 525.903C469.211 527.287 468.079 528.419 466.694 528.419L466.694 528.419C465.285 528.419 464.178 527.287 464.178 525.903Z" fill="#6100DC"/><path d="M486.375 528.419C485.695 528.419 485.066 528.168 484.588 527.69 484.362 527.438 484.185 527.186 484.06 526.884 483.934 526.582 483.858 526.255 483.858 525.903 483.858 525.248 484.135 524.594 484.588 524.141 484.84 523.89 485.117 523.713 485.419 523.588 486.324 523.21 487.457 523.437 488.162 524.141 488.615 524.594 488.892 525.248 488.892 525.903 488.892 526.255 488.841 526.582 488.715 526.884 488.59 527.186 488.388 527.438 488.162 527.69 487.91 527.916 487.658 528.117 487.331 528.243 487.029 528.369 486.727 528.419 486.375 528.419Z" fill="#6100DC"/><path d="M483.858 525.903C483.858 524.519 484.991 523.386 486.375 523.386L486.375 523.386C487.759 523.386 488.892 524.519 488.892 525.903L488.892 525.903C488.892 527.287 487.759 528.419 486.375 528.419L486.375 528.419C484.991 528.419 483.858 527.287 483.858 525.903Z" fill="#6100DC"/><path d="M483.858 515.182C483.858 513.773 484.991 512.64 486.375 512.64L486.375 512.64C487.759 512.64 488.892 513.773 488.892 515.182L488.892 515.182C488.892 516.566 487.759 517.698 486.375 517.698L486.375 517.698C484.991 517.698 483.858 516.566 483.858 515.182Z" fill="#6100DC"/><path d="M486.375 506.952C485.695 506.952 485.066 506.676 484.588 506.197 484.362 505.971 484.185 505.694 484.06 505.392 483.934 505.09 483.858 504.763 483.858 504.436 483.858 504.108 483.934 503.781 484.06 503.479 484.185 503.152 484.362 502.875 484.588 502.649 484.84 502.422 485.117 502.246 485.419 502.095 485.871 501.919 486.375 501.869 486.878 501.969 487.029 501.969 487.18 502.045 487.331 502.095 487.482 502.171 487.633 502.246 487.784 502.347 487.91 502.422 488.036 502.548 488.162 502.649 488.388 502.875 488.564 503.152 488.69 503.479 488.841 503.781 488.892 504.108 488.892 504.436 488.892 504.763 488.841 505.09 488.715 505.392 488.564 505.694 488.388 505.971 488.162 506.197 487.684 506.676 487.054 506.952 486.375 506.952Z" fill="#6100DC"/><path d="M523.974 555.272C519.62 555.272 516.097 551.724 516.097 547.395 516.097 543.067 519.645 539.518 523.974 539.518 528.302 539.518 531.851 543.067 531.851 547.395 531.851 551.724 528.302 555.272 523.974 555.272ZM523.974 544.526C522.414 544.526 521.13 545.81 521.13 547.37 521.13 548.93 522.414 550.214 523.974 550.214 525.534 550.214 526.818 548.93 526.818 547.37 526.818 545.81 525.534 544.526 523.974 544.526Z" fill="#6100DC"/><path d="M510.711 506.952 483.531 506.952C480.763 506.952 478.498 504.687 478.498 501.919L478.498 474.739C478.498 471.971 480.763 469.706 483.531 469.706L510.711 469.706C513.479 469.706 515.744 471.971 515.744 474.739L515.744 501.919C515.744 504.687 513.479 506.952 510.711 506.952ZM510.711 501.919 510.711 504.436 510.711 501.919C510.711 501.919 510.711 501.919 510.711 501.919ZM483.531 474.739 483.531 501.919 510.711 501.919 510.711 474.739C510.711 474.739 483.531 474.739 483.531 474.739Z" fill="#6100DC"/><path d="M491.76 474.739C490.376 474.739 489.244 473.607 489.244 472.222L489.244 463.993 475.654 463.993C474.27 463.993 473.137 462.86 473.137 461.476 473.137 460.092 474.27 458.96 475.654 458.96L491.76 458.96C493.145 458.96 494.277 460.092 494.277 461.476L494.277 472.222C494.277 473.607 493.145 474.739 491.76 474.739Z" fill="#6100DC"/><path d="M540.081 485.46 513.228 485.46C511.844 485.46 510.711 484.328 510.711 482.943 510.711 481.559 511.844 480.427 513.228 480.427L537.564 480.427 537.564 472.197C537.564 470.813 538.696 469.681 540.081 469.681 541.465 469.681 542.597 470.813 542.597 472.197L542.597 482.943C542.597 484.328 541.465 485.46 540.081 485.46Z" fill="#6100DC"/><path d="M507.867 474.739C507.188 474.739 506.559 474.462 506.08 473.984 505.829 473.758 505.652 473.481 505.527 473.179 505.401 472.877 505.325 472.549 505.325 472.222 505.325 471.895 505.401 471.568 505.527 471.241 505.652 470.939 505.854 470.662 506.08 470.435 507.012 469.504 508.698 469.479 509.629 470.435 509.88 470.662 510.057 470.939 510.182 471.241 510.308 471.568 510.384 471.87 510.384 472.222 510.384 472.549 510.308 472.877 510.182 473.179 510.057 473.481 509.88 473.758 509.629 473.984 509.402 474.236 509.125 474.412 508.823 474.538 508.521 474.664 508.194 474.739 507.867 474.739Z" fill="#6100DC"/><path d="M505.35 472.222C505.35 470.813 506.458 469.706 507.867 469.706L507.867 469.706C509.251 469.706 510.384 470.813 510.384 472.222L510.384 472.222C510.384 473.607 509.251 474.739 507.867 474.739L507.867 474.739C506.458 474.739 505.35 473.607 505.35 472.222Z" fill="#6100DC"/><path d="M505.35 461.476C505.35 460.092 506.458 458.96 507.867 458.96L507.867 458.96C509.251 458.96 510.384 460.092 510.384 461.476L510.384 461.476C510.384 462.86 509.251 463.993 507.867 463.993L507.867 463.993C506.458 463.993 505.35 462.86 505.35 461.476ZM505.35 451.409C505.35 450.025 506.458 448.893 507.867 448.893L507.867 448.893C509.251 448.893 510.384 450.025 510.384 451.409L510.384 451.409C510.384 452.794 509.251 453.926 507.867 453.926L507.867 453.926C506.458 453.926 505.35 452.794 505.35 451.409Z" fill="#6100DC"/><path d="M507.867 442.5C507.188 442.5 506.559 442.249 506.08 441.771 505.602 441.293 505.325 440.663 505.325 439.984 505.325 439.304 505.602 438.675 506.08 438.222 507.012 437.291 508.698 437.266 509.629 438.222 510.107 438.675 510.384 439.329 510.384 439.984 510.384 440.638 510.107 441.293 509.629 441.771 509.402 441.997 509.125 442.198 508.823 442.324 508.521 442.45 508.194 442.5 507.867 442.5Z" fill="#6100DC"/><path d="M505.35 439.984C505.35 438.6 506.458 437.467 507.867 437.467L507.867 437.467C509.251 437.467 510.384 438.6 510.384 439.984L510.384 439.984C510.384 441.393 509.251 442.5 507.867 442.5L507.867 442.5C506.458 442.5 505.35 441.393 505.35 439.984Z" fill="#6100DC"/><path d="M513.404 439.984C513.404 438.6 514.536 437.467 515.921 437.467L515.921 437.467C517.305 437.467 518.437 438.6 518.437 439.984L518.437 439.984C518.437 441.393 517.305 442.5 515.921 442.5L515.921 442.5C514.536 442.5 513.404 441.393 513.404 439.984Z" fill="#6100DC"/><path d="M523.974 442.5C523.294 442.5 522.665 442.249 522.187 441.771 521.961 441.544 521.759 441.267 521.633 440.965 521.508 440.663 521.457 440.336 521.457 439.984 521.457 439.329 521.709 438.675 522.187 438.222 523.118 437.266 524.804 437.266 525.735 438.222 526.214 438.675 526.49 439.329 526.49 439.984 526.49 440.336 526.415 440.663 526.289 440.965 526.163 441.267 525.987 441.544 525.735 441.771 525.509 442.022 525.232 442.198 524.93 442.324 524.628 442.45 524.301 442.5 523.974 442.5Z" fill="#6100DC"/><path d="M481.014 490.846 459.547 490.846C458.163 490.846 457.03 489.713 457.03 488.329 457.03 486.945 458.163 485.812 459.547 485.812L481.014 485.812C482.398 485.812 483.531 486.945 483.531 488.329 483.531 489.713 482.398 490.846 481.014 490.846Z" fill="#6100DC"/><path d="M542.924 493.69C542.924 492.305 544.057 491.173 545.441 491.173L545.441 491.173C546.825 491.173 547.958 492.305 547.958 493.69L547.958 493.69C547.958 495.074 546.825 496.206 545.441 496.206L545.441 496.206C544.057 496.206 542.924 495.074 542.924 493.69ZM532.858 493.69C532.858 492.305 533.99 491.173 535.374 491.173L535.374 491.173C536.758 491.173 537.891 492.305 537.891 493.69L537.891 493.69C537.891 495.074 536.758 496.206 535.374 496.206L535.374 496.206C533.99 496.206 532.858 495.074 532.858 493.69ZM522.791 493.69C522.791 492.305 523.924 491.173 525.308 491.173L525.308 491.173C526.692 491.173 527.824 492.305 527.824 493.69L527.824 493.69C527.824 495.074 526.692 496.206 525.308 496.206L525.308 496.206C523.924 496.206 522.791 495.074 522.791 493.69ZM512.724 493.69C512.724 492.305 513.857 491.173 515.241 491.173L515.241 491.173C516.625 491.173 517.758 492.305 517.758 493.69L517.758 493.69C517.758 495.074 516.625 496.206 515.241 496.206L515.241 496.206C513.857 496.206 512.724 495.074 512.724 493.69Z" fill="#6100DC"/><path d="M497.121 549.912 478.322 549.912C476.937 549.912 475.805 548.779 475.805 547.395 475.805 546.011 476.937 544.878 478.322 544.878L494.604 544.878 494.604 504.436C494.604 503.052 495.737 501.919 497.121 501.919 498.505 501.919 499.638 503.052 499.638 504.436L499.638 547.395C499.638 548.779 498.505 549.912 497.121 549.912Z" fill="#6100DC"/><path d="M516.072 547.395C516.072 545.986 517.204 544.878 518.613 544.878L518.613 544.878C519.997 544.878 521.105 545.986 521.105 547.395L521.105 547.395C521.105 548.779 519.997 549.912 518.613 549.912L518.613 549.912C517.204 549.912 516.072 548.779 516.072 547.395ZM506.005 547.395C506.005 545.986 507.137 544.878 508.521 544.878L508.521 544.878C509.906 544.878 511.038 545.986 511.038 547.395L511.038 547.395C511.038 548.779 509.906 549.912 508.521 549.912L508.521 549.912C507.137 549.912 506.005 548.779 506.005 547.395ZM495.938 547.395C495.938 545.986 497.071 544.878 498.455 544.878L498.455 544.878C499.864 544.878 500.971 545.986 500.971 547.395L500.971 547.395C500.971 548.779 499.864 549.912 498.455 549.912L498.455 549.912C497.071 549.912 495.938 548.779 495.938 547.395Z" fill="#6100DC"/></g></svg>