<svg width="152" height="151" xmlns="http://www.w3.org/2000/svg" xmlns:xlink="http://www.w3.org/1999/xlink" xml:space="preserve" overflow="hidden"><g transform="translate(-715 -141)"><path d="M76.3053 38.9077C74.9212 38.9077 73.7887 37.7752 73.7887 36.391L73.7887 26.3243C73.7887 24.9402 74.9212 23.8077 76.3053 23.8077 77.6895 23.8077 78.822 24.9402 78.822 26.3243L78.822 36.391C78.822 37.7752 77.6895 38.9077 76.3053 38.9077Z" fill="#6100DC" transform="matrix(1.00662 0 0 1 715 141)"/><path d="M18.422 99.3077C17.0378 99.3077 15.9053 98.1752 15.9053 96.791L15.9053 79.1743C15.9053 77.7902 17.0378 76.6577 18.422 76.6577L33.522 76.6577C34.9062 76.6577 36.0387 77.7902 36.0387 79.1743 36.0387 80.5585 34.9062 81.691 33.522 81.691L20.9387 81.691 20.9387 96.791C20.9387 98.1752 19.8062 99.3077 18.422 99.3077Z" fill="#6100DC" transform="matrix(1.00662 0 0 1 715 141)"/><path d="M103.989 48.9743C103.334 48.9743 102.705 48.7227 102.202 48.2445 101.22 47.263 101.22 45.6775 102.202 44.696L103.989 42.9092 103.989 26.3243C103.989 24.9402 105.121 23.8077 106.505 23.8077 107.889 23.8077 109.022 24.9402 109.022 26.3243L109.022 43.941C109.022 44.6205 108.745 45.2497 108.292 45.7278L105.775 48.2445C105.272 48.7478 104.643 48.9743 103.989 48.9743Z" fill="#6100DC" transform="matrix(1.00662 0 0 1 715 141)"/><path d="M80.2313 114.408 72.6813 114.408C70.3912 114.408 68.5288 112.545 68.5288 110.255L68.5288 106.782C66.3393 106.178 64.2253 105.297 62.2372 104.165L60.0728 106.329C57.9588 108.443 55.3667 108.091 53.907 106.631L48.7982 101.522C47.1875 99.9117 47.1875 97.2692 48.7982 95.6585L51.2645 93.1922C50.132 91.204 49.2512 89.09 48.6472 86.9005L45.602 86.9005C43.0098 86.9005 41.0468 85.1137 41.0468 82.748L41.0468 75.5252C41.0468 73.235 42.9092 71.3727 45.1993 71.3727L48.6723 71.3727C49.2763 69.1832 50.1572 67.0692 51.2897 65.081L49.1253 62.9167C47.0113 60.8027 47.3637 58.2105 48.8233 56.7508L53.9322 51.642C55.4925 50.0817 58.2357 50.0817 59.796 51.642L62.2623 54.1083C64.2505 52.9758 66.3645 52.095 68.554 51.491L68.554 48.4458C68.554 45.8537 70.3408 43.8907 72.7065 43.8907L79.9293 43.8907C82.2195 43.8907 84.0818 45.753 84.0818 48.0432L84.0818 51.5162C86.2713 52.1202 88.3853 53.001 90.3735 54.1335L92.5378 51.9692C93.4187 51.0883 94.4505 50.585 95.5327 50.5095 96.6903 50.4088 97.8732 50.8367 98.7037 51.6672L103.812 56.776C105.423 58.3867 105.423 61.0292 103.812 62.6398L101.346 65.1062C102.479 67.0943 103.334 69.2083 103.964 71.3978L107.009 71.3978C110.003 71.3978 111.564 73.4867 111.564 75.5503L111.564 82.7732C111.564 85.0633 109.701 86.9257 107.411 86.9257L103.938 86.9257C103.309 89.1152 102.453 91.2292 101.321 93.2173L103.485 95.3817C105.322 97.2188 105.448 99.8613 103.787 101.547L98.6785 106.656C97.0678 108.267 94.4253 108.267 92.8147 106.656L90.3483 104.19C88.3602 105.322 86.2462 106.203 84.0567 106.807L84.0567 110.155C84.0567 112.948 82.144 114.408 80.2313 114.408ZM73.5873 109.374 79.0233 109.374 79.0233 106.103C79.0233 104.215 80.332 102.579 82.1692 102.101 84.3335 101.547 86.4223 100.692 88.3602 99.5342 90.0212 98.5527 92.11 98.8043 93.4438 100.138L95.7592 102.453 99.6097 98.603 97.2943 96.2877C95.9605 94.9538 95.7088 92.865 96.6903 91.2292 97.848 89.2913 98.7037 87.2025 99.2573 85.0382 99.7355 83.1758 101.371 81.8923 103.284 81.8923L106.556 81.8923 106.556 76.4563 103.284 76.4563C101.396 76.4563 99.7607 75.1477 99.2825 73.3105 98.7288 71.1462 97.8732 69.0573 96.7155 67.1195 95.734 65.4837 95.9857 63.3948 97.3195 62.061L99.6348 59.7457 95.7843 55.8952 93.469 58.2105C92.1352 59.5443 90.0463 59.796 88.4105 58.8145 86.4727 57.6568 84.3838 56.8012 82.2195 56.2475 80.3572 55.7693 79.0737 54.1335 79.0737 52.2208L79.0737 48.9492 73.6377 48.9492 73.6377 52.2208C73.6377 54.1083 72.329 55.7442 70.4667 56.2223 68.3023 56.776 66.2387 57.6317 64.3008 58.7893 62.665 59.7708 60.5762 59.5192 59.2172 58.1853L56.9018 55.87 53.0513 59.7205 55.3667 62.0358C56.7005 63.3697 56.9522 65.4585 55.9707 67.0943 54.813 69.0322 53.9573 71.121 53.4037 73.2853 52.9255 75.1477 51.2897 76.4312 49.377 76.4312L46.1053 76.4312 46.1053 81.8672 49.377 81.8672C51.2645 81.8672 52.9003 83.1758 53.3785 85.013 53.9322 87.1773 54.7878 89.241 55.9455 91.1788 56.927 92.8398 56.6753 94.9035 55.3415 96.2625L53.0262 98.5778 56.8767 102.428 59.192 100.113C60.5258 98.7792 62.6147 98.5275 64.2505 99.509 66.1883 100.667 68.252 101.522 70.4163 102.076 72.2787 102.554 73.5622 104.215 73.5622 106.103L73.5622 109.374ZM61.6835 103.863C61.6835 103.863 61.6835 103.863 61.6835 103.863 61.6835 103.863 61.6835 103.863 61.6835 103.863ZM62.7405 54.662 62.7405 54.662C62.7405 54.662 62.7405 54.662 62.7405 54.662Z" fill="#6100DC" transform="matrix(1.00662 0 0 1 715 141)"/><path d="M76.3053 94.2743C67.9752 94.2743 61.2053 87.5045 61.2053 79.1743 61.2053 70.8442 67.9752 64.0743 76.3053 64.0743 84.6355 64.0743 91.4053 70.8442 91.4053 79.1743 91.4053 87.5045 84.6355 94.2743 76.3053 94.2743ZM76.3053 69.1077C70.7435 69.1077 66.2387 73.6125 66.2387 79.1743 66.2387 84.7362 70.7435 89.241 76.3053 89.241 81.8672 89.241 86.372 84.7362 86.372 79.1743 86.372 73.6125 81.8672 69.1077 76.3053 69.1077Z" fill="#6100DC" transform="matrix(1.00662 0 0 1 715 141)"/><path d="M81.3387 28.841 71.272 28.841C69.8878 28.841 68.7553 27.7085 68.7553 26.3243L68.7553 16.2577C68.7553 14.8735 69.8878 13.741 71.272 13.741L81.3387 13.741C82.7228 13.741 83.8553 14.8735 83.8553 16.2577L83.8553 26.3243C83.8553 27.7085 82.7228 28.841 81.3387 28.841ZM73.7887 23.8077 78.822 23.8077 78.822 18.7743 73.7887 18.7743 73.7887 23.8077Z" fill="#6100DC" transform="matrix(1.00662 0 0 1 715 141)"/><path d="M111.539 28.841 101.472 28.841C100.088 28.841 98.9553 27.7085 98.9553 26.3243L98.9553 16.2577C98.9553 14.8735 100.088 13.741 101.472 13.741L111.539 13.741C112.923 13.741 114.055 14.8735 114.055 16.2577L114.055 26.3243C114.055 27.7085 112.923 28.841 111.539 28.841ZM103.989 23.8077 109.022 23.8077 109.022 18.7743 103.989 18.7743 103.989 23.8077Z" fill="#6100DC" transform="matrix(1.00662 0 0 1 715 141)"/><path d="M48.622 48.9743C47.9677 48.9743 47.3385 48.7227 46.8352 48.2445L44.3185 45.7278C43.8403 45.2497 43.5887 44.6205 43.5887 43.941L43.5887 26.3243C43.5887 24.9402 44.7212 23.8077 46.1053 23.8077 47.4895 23.8077 48.622 24.9402 48.622 26.3243L48.622 42.9092 50.4088 44.696C51.3903 45.6775 51.3903 47.263 50.4088 48.2445 49.9055 48.7478 49.2763 48.9743 48.622 48.9743Z" fill="#6100DC" transform="matrix(1.00662 0 0 1 715 141)"/><path d="M51.1387 28.841 41.072 28.841C39.6878 28.841 38.5553 27.7085 38.5553 26.3243L38.5553 16.2577C38.5553 14.8735 39.6878 13.741 41.072 13.741L51.1387 13.741C52.5228 13.741 53.6553 14.8735 53.6553 16.2577L53.6553 26.3243C53.6553 27.7085 52.5228 28.841 51.1387 28.841ZM43.5887 23.8077 48.622 23.8077 48.622 18.7743 43.5887 18.7743 43.5887 23.8077Z" fill="#6100DC" transform="matrix(1.00662 0 0 1 715 141)"/><path d="M76.3053 134.541C74.9212 134.541 73.7887 133.408 73.7887 132.024L73.7887 121.958C73.7887 120.574 74.9212 119.441 76.3053 119.441 77.6895 119.441 78.822 120.574 78.822 121.958L78.822 132.024C78.822 133.408 77.6895 134.541 76.3053 134.541Z" fill="#6100DC" transform="matrix(1.00662 0 0 1 715 141)"/><path d="M106.505 134.541C105.121 134.541 103.989 133.408 103.989 132.024L103.989 115.439 102.202 113.653C101.22 112.671 101.22 111.086 102.202 110.104 103.183 109.123 104.769 109.123 105.75 110.104L108.267 112.621C108.745 113.099 108.997 113.728 108.997 114.408L108.997 132.024C108.997 133.408 107.864 134.541 106.48 134.541Z" fill="#6100DC" transform="matrix(1.00662 0 0 1 715 141)"/><path d="M81.3387 144.608 71.272 144.608C69.8878 144.608 68.7553 143.475 68.7553 142.091L68.7553 132.024C68.7553 130.64 69.8878 129.508 71.272 129.508L81.3387 129.508C82.7228 129.508 83.8553 130.64 83.8553 132.024L83.8553 142.091C83.8553 143.475 82.7228 144.608 81.3387 144.608ZM73.7887 139.574 78.822 139.574 78.822 134.541 73.7887 134.541 73.7887 139.574Z" fill="#6100DC" transform="matrix(1.00662 0 0 1 715 141)"/><path d="M111.539 144.608 101.472 144.608C100.088 144.608 98.9553 143.475 98.9553 142.091L98.9553 132.024C98.9553 130.64 100.088 129.508 101.472 129.508L111.539 129.508C112.923 129.508 114.055 130.64 114.055 132.024L114.055 142.091C114.055 143.475 112.923 144.608 111.539 144.608ZM103.989 139.574 109.022 139.574 109.022 134.541 103.989 134.541 103.989 139.574Z" fill="#6100DC" transform="matrix(1.00662 0 0 1 715 141)"/><path d="M46.1053 134.541C44.7212 134.541 43.5887 133.408 43.5887 132.024L43.5887 114.408C43.5887 113.728 43.8655 113.099 44.3185 112.621L46.8352 110.104C47.8167 109.123 49.4022 109.123 50.3837 110.104 51.3652 111.086 51.3652 112.671 50.3837 113.653L48.5968 115.439 48.5968 132.024C48.5968 133.408 47.4643 134.541 46.0802 134.541Z" fill="#6100DC" transform="matrix(1.00662 0 0 1 715 141)"/><path d="M51.1387 144.608 41.072 144.608C39.6878 144.608 38.5553 143.475 38.5553 142.091L38.5553 132.024C38.5553 130.64 39.6878 129.508 41.072 129.508L51.1387 129.508C52.5228 129.508 53.6553 130.64 53.6553 132.024L53.6553 142.091C53.6553 143.475 52.5228 144.608 51.1387 144.608ZM43.5887 139.574 48.622 139.574 48.622 134.541 43.5887 134.541 43.5887 139.574Z" fill="#6100DC" transform="matrix(1.00662 0 0 1 715 141)"/><path d="M23.4553 109.374 13.3887 109.374C12.0045 109.374 10.872 108.242 10.872 106.858L10.872 96.791C10.872 95.4068 12.0045 94.2743 13.3887 94.2743L23.4553 94.2743C24.8395 94.2743 25.972 95.4068 25.972 96.791L25.972 106.858C25.972 108.242 24.8395 109.374 23.4553 109.374ZM15.9053 104.341 20.9387 104.341 20.9387 99.3077 15.9053 99.3077 15.9053 104.341Z" fill="#6100DC" transform="matrix(1.00662 0 0 1 715 141)"/><path d="M134.189 81.691 119.089 81.691C117.704 81.691 116.572 80.5585 116.572 79.1743 116.572 77.7902 117.704 76.6577 119.089 76.6577L131.672 76.6577 131.672 61.5577C131.672 60.1735 132.805 59.041 134.189 59.041 135.573 59.041 136.705 60.1735 136.705 61.5577L136.705 79.1743C136.705 80.5585 135.573 81.691 134.189 81.691Z" fill="#6100DC" transform="matrix(1.00662 0 0 1 715 141)"/><path d="M139.222 64.0743 129.155 64.0743C127.771 64.0743 126.639 62.9418 126.639 61.5577L126.639 51.491C126.639 50.1068 127.771 48.9743 129.155 48.9743L139.222 48.9743C140.606 48.9743 141.739 50.1068 141.739 51.491L141.739 61.5577C141.739 62.9418 140.606 64.0743 139.222 64.0743ZM131.672 59.041 136.705 59.041 136.705 54.0077 131.672 54.0077 131.672 59.041Z" fill="#6100DC" transform="matrix(1.00662 0 0 1 715 141)"/><path d="M33.522 56.5243 13.3887 56.5243C12.0045 56.5243 10.872 55.3918 10.872 54.0077 10.872 52.6235 12.0045 51.491 13.3887 51.491L33.522 51.491C34.9062 51.491 36.0387 52.6235 36.0387 54.0077 36.0387 55.3918 34.9062 56.5243 33.522 56.5243Z" fill="#6100DC" transform="matrix(1.00662 0 0 1 715 141)"/><path d="M33.522 46.4577 13.3887 46.4577C12.0045 46.4577 10.872 45.3252 10.872 43.941 10.872 42.5568 12.0045 41.4243 13.3887 41.4243L33.522 41.4243C34.9062 41.4243 36.0387 42.5568 36.0387 43.941 36.0387 45.3252 34.9062 46.4577 33.522 46.4577Z" fill="#6100DC" transform="matrix(1.00662 0 0 1 715 141)"/><path d="M23.4553 66.591 13.3887 66.591C12.0045 66.591 10.872 65.4585 10.872 64.0743 10.872 62.6902 12.0045 61.5577 13.3887 61.5577L23.4553 61.5577C24.8395 61.5577 25.972 62.6902 25.972 64.0743 25.972 65.4585 24.8395 66.591 23.4553 66.591Z" fill="#6100DC" transform="matrix(1.00662 0 0 1 715 141)"/><path d="M129.155 116.924 119.089 116.924C117.704 116.924 116.572 115.792 116.572 114.408 116.572 113.023 117.704 111.891 119.089 111.891L129.155 111.891C130.539 111.891 131.672 113.023 131.672 114.408 131.672 115.792 130.539 116.924 129.155 116.924Z" fill="#6100DC" transform="matrix(1.00662 0 0 1 715 141)"/><path d="M139.222 96.791 119.089 96.791C117.704 96.791 116.572 95.6585 116.572 94.2743 116.572 92.8902 117.704 91.7577 119.089 91.7577L139.222 91.7577C140.606 91.7577 141.739 92.8902 141.739 94.2743 141.739 95.6585 140.606 96.791 139.222 96.791Z" fill="#6100DC" transform="matrix(1.00662 0 0 1 715 141)"/><path d="M139.222 106.858 119.089 106.858C117.704 106.858 116.572 105.725 116.572 104.341 116.572 102.957 117.704 101.824 119.089 101.824L139.222 101.824C140.606 101.824 141.739 102.957 141.739 104.341 141.739 105.725 140.606 106.858 139.222 106.858Z" fill="#6100DC" transform="matrix(1.00662 0 0 1 715 141)"/></g></svg>