<?xml version="1.0" encoding="UTF-8"?>
<svg id="Layer_1" data-name="Layer 1" xmlns="http://www.w3.org/2000/svg" viewBox="0 0 60 60">
  <defs>
    <style>
      .cls-1 {
        fill: #37464c;
        stroke-width: 0px;
      }
    </style>
  </defs>
  <path class="cls-1" d="m29.69,32.1c-.26,0-.51-.1-.71-.29-.39-.39-.39-1.02,0-1.41l14-14c.39-.39,1.02-.39,1.41,0s.39,1.02,0,1.41l-14,14c-.2.2-.45.29-.71.29Z"/>
  <path class="cls-1" d="m49.69,18.1h-6c-.55,0-1-.45-1-1v-6c0-.27.11-.52.29-.71l6-6c.29-.29.71-.37,1.09-.22.37.15.62.52.62.92v5h5c.4,0,.77.24.92.62.15.37.07.8-.22,1.09l-6,6c-.19.19-.44.29-.71.29Zm-5-2h4.59l4-4h-3.59c-.55,0-1-.45-1-1v-3.59l-4,4v4.59Z"/>
  <path class="cls-1" d="m29.69,33.1c-1.1,0-2-.9-2-2s.9-2,2-2,2,.9,2,2-.9,2-2,2Zm0-2h0s0,0,0,0Z"/>
  <path class="cls-1" d="m29.69,56.1c-13.79,0-25-11.21-25-25S15.91,6.1,29.69,6.1c3.68,0,7.22.78,10.53,2.32.5.23.72.83.48,1.33-.23.5-.83.72-1.33.48-3.05-1.42-6.31-2.14-9.69-2.14-12.68,0-23,10.32-23,23s10.32,23,23,23,23-10.32,23-23c0-3.38-.72-6.64-2.14-9.69-.23-.5-.02-1.1.48-1.33.5-.23,1.1-.02,1.33.48,1.54,3.31,2.32,6.86,2.32,10.53,0,13.79-11.21,25-25,25Z"/>
  <path class="cls-1" d="m29.69,48.1c-9.37,0-17-7.63-17-17s7.63-17,17-17c3.02,0,6,.82,8.62,2.37.48.28.63.89.35,1.37s-.89.63-1.37.35c-2.31-1.37-4.94-2.09-7.61-2.09-8.27,0-15,6.73-15,15s6.73,15,15,15,15-6.73,15-15c0-2.66-.72-5.29-2.09-7.61-.28-.48-.12-1.09.35-1.37.48-.28,1.09-.12,1.37.35,1.55,2.62,2.37,5.6,2.37,8.62,0,9.37-7.63,17-17,17Z"/>
  <path class="cls-1" d="m29.69,40.1c-4.96,0-9-4.04-9-9s4.04-9,9-9c.76,0,1.55.1,2.32.31.53.14.85.69.71,1.22-.14.53-.69.85-1.22.71-4.58-1.22-8.81,2.31-8.81,6.76,0,3.86,3.14,7,7,7s7-3.14,7-7c0-.59-.08-1.2-.24-1.81-.14-.53.17-1.08.71-1.22.53-.15,1.08.17,1.22.71.21.78.31,1.56.31,2.32,0,4.96-4.04,9-9,9Z"/>
</svg>