<?xml version="1.0" encoding="UTF-8"?>
<svg id="Layer_1" data-name="Layer 1" xmlns="http://www.w3.org/2000/svg" viewBox="0 0 60 60">
  <defs>
    <style>
      .cls-1 {
        fill: #37464c;
        stroke-width: 0px;
      }
    </style>
  </defs>
  <path class="cls-1" d="m30.38,56.54c-14.63,0-26.53-11.9-26.53-26.53S15.76,3.48,30.38,3.48s26.53,11.9,26.53,26.53-11.9,26.53-26.53,26.53Zm0-51.06c-13.53,0-24.53,11-24.53,24.53s11,24.53,24.53,24.53,24.53-11,24.53-24.53S43.91,5.48,30.38,5.48Z"/>
  <g>
    <path class="cls-1" d="m31.03,39.39c-2.45,0-4.03-1.67-4.03-4.24l-2.21-21.26c0-2.68,3.7-4.34,6.24-4.34s6.43,1.02,6.43,3.77l-2.24,22.03c0,2.42-1.64,4.04-4.18,4.04Zm0-28.14c-1.75,0-4.55,1.17-4.55,2.55l2.21,21.26c0,1.25.41,2.63,2.34,2.63,1.6,0,2.49-.86,2.49-2.43l2.24-22.03c0-1.17-2.8-1.98-4.73-1.98Z"/>
    <path class="cls-1" d="m31.12,50.23c-1.13,0-2.25-.43-3.11-1.29-1.72-1.71-1.72-4.5,0-6.22.83-.83,1.93-1.29,3.11-1.29s2.28.46,3.11,1.29c1.72,1.71,1.72,4.5,0,6.22h0c-.86.86-1.98,1.29-3.11,1.29Zm0-7.1c-.72,0-1.4.28-1.91.79-1.05,1.05-1.05,2.76,0,3.82,1.05,1.05,2.76,1.05,3.82,0h0c1.05-1.05,1.05-2.76,0-3.82-.51-.51-1.19-.79-1.91-.79Z"/>
  </g>
</svg>