<?xml version="1.0" encoding="UTF-8"?>
<svg id="Layer_1" data-name="Layer 1" xmlns="http://www.w3.org/2000/svg" viewBox="0 0 60 60">
  <defs>
    <style>
      .cls-1 {
        fill: #37464c;
        stroke-width: 0px;
      }
    </style>
  </defs>
  <path class="cls-1" d="m14,51c-3.31,0-6-2.69-6-6s2.69-6,6-6,6,2.69,6,6-2.69,6-6,6Zm0-10c-2.21,0-4,1.79-4,4s1.79,4,4,4,4-1.79,4-4-1.79-4-4-4Z"/>
  <path class="cls-1" d="m46,51c-3.31,0-6-2.69-6-6s2.69-6,6-6,6,2.69,6,6-2.69,6-6,6Zm0-10c-2.21,0-4,1.79-4,4s1.79,4,4,4,4-1.79,4-4-1.79-4-4-4Z"/>
  <path class="cls-1" d="m57,37h-3c-.55,0-1-.45-1-1s.45-1,1-1h3c.55,0,1,.45,1,1s-.45,1-1,1Z"/>
  <path class="cls-1" d="m51,31h-11c-1.1,0-2-.9-2-2v-6c0-1.1.9-2,2-2h5.67v2h-5.67v6h11v2Z"/>
  <path class="cls-1" d="m42,18h-2v-2c0-.55-.45-1-1-1s-1,.45-1,1v2h-2v-2c0-1.65,1.35-3,3-3s3,1.35,3,3v2Z"/>
  <path class="cls-1" d="m23,35h-4c-.55,0-1-.45-1-1v-3h-3c-.55,0-1-.45-1-1v-4c0-.55.45-1,1-1h3v-3c0-.55.45-1,1-1h4c.55,0,1,.45,1,1v3h3c.55,0,1,.45,1,1v4c0,.55-.45,1-1,1h-3v3c0,.55-.45,1-1,1Zm-3-2h2v-3c0-.55.45-1,1-1h3v-2h-3c-.55,0-1-.45-1-1v-3h-2v3c0,.55-.45,1-1,1h-3v2h3c.55,0,1,.45,1,1v3Z"/>
  <path class="cls-1" d="m55,47h-4.1v-2h4.1c.55,0,1-.45,1-1v-8.39c0-.67-.33-1.29-.89-1.66l-4.66-3.11c-.11-.07-.2-.17-.28-.28l-7.11-10.66c-.37-.56-.99-.89-1.66-.89h-8.39c-.55,0-1-.45-1-1v-4c0-.55-.45-1-1-1H5c-.55,0-1,.45-1,1v30c0,.55.45,1,1,1h4.1v2h-4.1c-1.65,0-3-1.35-3-3V14c0-1.65,1.35-3,3-3h26c1.65,0,3,1.35,3,3v3h7.39c1.34,0,2.58.67,3.33,1.78l7,10.5,4.5,3c1.12.74,1.78,1.99,1.78,3.33v8.39c0,1.65-1.35,3-3,3Z"/>
  <rect class="cls-1" x="18.9" y="45" width="22.2" height="2"/>
</svg>