<?xml version="1.0" encoding="UTF-8"?>
<svg id="Layer_1" data-name="Layer 1" xmlns="http://www.w3.org/2000/svg" viewBox="0 0 60 60">
  <defs>
    <style>
      .cls-1 {
        fill: #37464c;
        stroke-width: 0px;
      }
    </style>
  </defs>
  <g>
    <path class="cls-1" d="m36,55.68c-1.15,0-2.44-.3-3.83-1.15-.05-.03-.1-.07-.14-.12-.34-.4-.96-.97-1.39-1.16-.43.18-1.05.76-1.39,1.16-.04.05-.09.08-.14.12-4.52,2.78-8.12-.3-8.48-.62-.63-.5-10.52-8.5-9.83-19.65.34-5.46,1.82-9.38,4.41-11.67,1.9-1.68,4.32-2.43,7.21-2.25,1.2.08,2.84.33,4.87.74,2.22.45,4.47.45,6.68,0,2.03-.41,3.67-.66,4.87-.74,2.89-.19,5.31.57,7.21,2.25,2.59,2.28,4.07,6.21,4.41,11.67.69,11.15-9.2,19.15-9.83,19.65-.25.22-2.05,1.77-4.65,1.77Zm-14.4-34.2c-2.23,0-4.12.67-5.61,1.98-2.35,2.07-3.7,5.73-4.02,10.86-.66,10.67,9.31,18.6,9.41,18.68.02.01.03.03.05.04.12.12,3.09,2.89,7.01.53.27-.3,1.22-1.3,2.08-1.5.09-.02.18-.02.27,0,.86.2,1.81,1.2,2.08,1.5,3.92,2.35,6.89-.42,7.01-.54.01-.01.03-.03.04-.04.1-.08,10.07-8.02,9.41-18.68-.32-5.14-1.67-8.79-4.02-10.86-1.66-1.46-3.81-2.12-6.37-1.96-1.15.07-2.73.32-4.72.72-2.37.48-4.78.48-7.15,0-1.98-.4-3.57-.65-4.72-.72-.26-.02-.51-.02-.75-.02Zm7.21,32.55h0,0Z"/>
    <path class="cls-1" d="m25.28,56.06c-2.71,0-4.61-1.62-4.89-1.88-.42-.33-10.66-8.54-9.96-19.95.34-5.56,1.87-9.57,4.54-11.92,1.98-1.75,4.5-2.54,7.48-2.34,1.22.08,2.87.33,4.93.75,2.17.44,4.37.44,6.53,0,2.05-.42,3.71-.67,4.93-.75,2.98-.2,5.5.6,7.48,2.34,2.67,2.35,4.19,6.36,4.54,11.92.71,11.41-9.54,19.62-9.97,19.97-.33.3-2.18,1.85-4.88,1.85-1.37,0-2.72-.41-4.03-1.21-.09-.05-.16-.12-.23-.19-.3-.35-.77-.77-1.11-.98-.34.2-.81.64-1.11.98-.06.07-.14.14-.22.19-1.46.9-2.83,1.22-4.03,1.22Zm-3.69-35.37c-2.42,0-4.48.73-6.12,2.18-2.51,2.21-3.95,6.05-4.29,11.41-.68,11.02,9.27,19,9.69,19.33.39.35,3.71,3.18,7.94.66v-.55s-.07.07-.1.11l-.09.07c-4.18,2.51-7.33-.46-7.47-.59-.12-.1-10.24-8.14-9.57-19.01.32-5.24,1.72-8.98,4.15-11.12,1.74-1.53,3.96-2.22,6.64-2.05,1.17.07,2.77.32,4.77.73,2.32.48,4.68.47,7,0,2-.41,3.6-.65,4.77-.73,2.67-.18,4.9.52,6.64,2.05,2.42,2.14,3.82,5.88,4.15,11.12.67,10.83-9.45,18.91-9.55,18.99-.15.14-3.31,3.11-7.48.6l-.09-.07c-.52-.58-1.28-1.25-1.88-1.39h-.1c-.56.13-1.27.73-1.78,1.28v.55s.07-.04.11-.06c.38-.43,1.06-1.08,1.58-1.3l.15-.06.15.06c.56.24,1.24.92,1.53,1.26,1.24.77,2.46,1.14,3.68,1.14,2.47,0,4.21-1.5,4.39-1.68.44-.35,10.39-8.33,9.71-19.35-.33-5.36-1.77-9.19-4.29-11.41-1.82-1.61-4.16-2.33-6.94-2.15-1.18.08-2.8.32-4.82.73-2.27.46-4.57.46-6.83,0-2.02-.41-3.64-.66-4.82-.73-.28-.02-.55-.03-.81-.03Zm0,1.16c-2.14,0-3.94.64-5.36,1.89-2.27,2-3.58,5.57-3.89,10.61-.65,10.46,9.16,18.28,9.26,18.36l.08.07c.12.11,2.84,2.68,6.51.51.39-.43,1.32-1.36,2.23-1.57.14-.04.3-.03.44,0,.91.21,1.84,1.14,2.23,1.57,3.66,2.16,6.4-.4,6.51-.51l.07-.06c.1-.08,9.91-7.93,9.26-18.36-.31-5.04-1.62-8.6-3.89-10.61-1.58-1.4-3.63-2.02-6.09-1.87-1.13.07-2.7.31-4.67.71-2.42.5-4.88.5-7.3,0-1.96-.4-3.53-.64-4.67-.71-.25-.02-.49-.02-.73-.02Z"/>
  </g>
  <g>
    <path class="cls-1" d="m30.64,22.58c-.31,0-.57-.25-.58-.56-.01-.35-.28-8.59,4.97-13.05.24-.21.61-.18.82.07.21.24.18.61-.07.82-4.82,4.1-4.56,12.04-4.56,12.12.01.32-.24.59-.56.6,0,0-.02,0-.02,0Z"/>
    <path class="cls-1" d="m30.64,22.96c-.52,0-.94-.4-.96-.92-.01-.36-.28-8.78,5.1-13.35.19-.17.43-.24.7-.23.25.02.49.14.65.33.17.19.25.44.22.7-.02.26-.14.49-.33.65-4.66,3.96-4.43,11.74-4.43,11.82.01.25-.08.5-.25.69-.17.19-.41.3-.67.31h-.04Zm4.77-13.75s-.1.02-.13.05c-5.11,4.34-4.85,12.41-4.84,12.75,0,.11.09.2.2.2.07,0,.12-.03.16-.07.04-.04.06-.09.05-.15,0-.08-.24-8.22,4.69-12.42.04-.04.07-.09.07-.14,0-.05-.01-.11-.05-.15-.04-.04-.09-.07-.14-.07,0,0-.01,0-.02,0Z"/>
  </g>
  <g>
    <path class="cls-1" d="m31.74,15.66c-.14,0-.28-.05-.39-.15l-5.38-4.89c-.24-.22-.26-.58-.04-.82.22-.24.58-.25.82-.04l5.38,4.89c.24.22.25.58.04.82-.12.13-.27.19-.43.19Z"/>
    <path class="cls-1" d="m31.74,16.03c-.24,0-.47-.09-.64-.25l-5.38-4.89c-.19-.17-.3-.41-.31-.66-.01-.25.08-.5.25-.69.36-.39.96-.42,1.35-.06l5.38,4.9c.39.36.42.96.06,1.35-.18.2-.44.31-.71.31Zm-5.38-6.06c-.06,0-.11.02-.15.07-.04.04-.06.09-.05.15,0,.06.03.11.07.14l5.38,4.89c.06.06.16.13.29-.01.08-.08.07-.22-.01-.29l-5.38-4.89s-.09-.05-.14-.05Z"/>
  </g>
  <g>
    <path class="cls-1" d="m26.11,14.07c-.75,0-1.46-.17-2.12-.52-3.84-2-4.67-9.12-4.71-9.42-.02-.17.04-.34.15-.46.11-.12.28-.19.45-.19,5.6.19,9.05,1.51,10.27,3.92,1.33,2.62-.54,5.44-.62,5.56-.05.08-.12.14-.2.18-1.14.62-2.21.93-3.21.93Zm-5.57-9.39c.3,1.76,1.32,6.45,3.99,7.84,1.16.6,2.54.49,4.11-.33.3-.5,1.37-2.52.48-4.27-.96-1.87-3.91-2.99-8.57-3.24Zm8.51,7.95h0,0Zm0,0h0,0Z"/>
    <path class="cls-1" d="m26.11,14.45c-.81,0-1.58-.19-2.29-.56-4.03-2.1-4.87-9.4-4.91-9.71-.03-.28.06-.55.25-.76.19-.2.47-.3.74-.31,5.74.2,9.31,1.59,10.59,4.12,1.44,2.83-.56,5.81-.65,5.94-.08.13-.2.23-.34.3-1.18.65-2.33.98-3.39.98Zm-6.25-10.59c-.06,0-.11.03-.15.07-.04.04-.06.1-.05.16,0,.07.83,7.22,4.51,9.13,1.42.74,3.06.61,4.89-.36v-.61s0,0,0,0v.61s.06-.03.1-.05c.03-.02.05-.04.07-.06.08-.11,1.84-2.74.6-5.18-1.15-2.27-4.5-3.52-9.95-3.71,0,0,0,0,0,0Zm6.25,9.42c-.62,0-1.21-.14-1.76-.43-2.79-1.45-3.85-6.15-4.19-8.11l-.08-.46.47.03c4.8.26,7.87,1.45,8.89,3.45.97,1.9-.13,4.02-.49,4.63l-.05.09-.09.05c-.96.5-1.86.76-2.7.76Zm-5.12-8.19c.35,1.81,1.38,5.89,3.71,7.1,1.02.53,2.25.44,3.67-.28.35-.62,1.17-2.34.41-3.81-.86-1.68-3.54-2.72-7.79-3.01Z"/>
  </g>
</svg>