<?xml version="1.0" encoding="UTF-8"?>
<svg id="Layer_1" data-name="Layer 1" xmlns="http://www.w3.org/2000/svg" viewBox="0 0 60 60">
  <defs>
    <style>
      .cls-1 {
        fill: #37464c;
        stroke-width: 0px;
      }
    </style>
  </defs>
  <path class="cls-1" d="m40.49,44h0c-.55,0-1-.45-1-1,0-2.69-.52-7.29-4.14-7.92-3.34-.59-6.94,2.46-8.56,7.25-.18.52-.74.81-1.27.63-.52-.18-.8-.74-.63-1.27,1.97-5.82,6.41-9.35,10.8-8.57,3.69.65,5.8,4.26,5.79,9.9,0,.55-.45,1-1,1Z"/>
  <path class="cls-1" d="m28.04,53c-2.24,0-4.57-.81-6.8-2.4-3.15-2.25-5.73-5.8-7.26-10-2.6-7.16-1.52-14.71,2.64-18.38.92-.81,1.44-2.06,1.45-3.44.02-4.46,2.72-8.43,6.72-9.97,3.62-1.39,7.45-.98,10.51,1.11,2.99,2.06,4.78,5.45,4.78,9.07,0,3.37-1.51,5.97-4.37,7.51-.39.21-.63.63-.63,1.09,0,.64-.28,1.18-.75,1.51-.47.33-1.08.4-1.61.2l-.17-.06c-.17-.06-.36-.03-.5.09l-.86.74c-1.5,1.29-3.78,1.12-5.07-.38-.36-.42-.32-1.05.1-1.41.42-.36,1.05-.32,1.41.1.58.67,1.59.74,2.26.17l.86-.74c.65-.56,1.54-.74,2.35-.49.11-1.11.72-2.06,1.67-2.57,2.2-1.19,3.32-3.13,3.32-5.75,0-2.97-1.46-5.74-3.91-7.42-2.5-1.72-5.66-2.04-8.66-.89-3.24,1.24-5.42,4.46-5.43,8.02,0,2.04-.78,3.84-2.13,5.03-3.56,3.13-4.41,9.79-2.08,16.19,1.39,3.83,3.72,7.04,6.54,9.06,2.71,1.93,5.55,2.51,7.99,1.62,4.87-1.77,4.28-8.58,3.8-11.43-.09-.54.28-1.06.82-1.15.55-.09,1.06.28,1.15.82,1.19,7.06-.67,12.03-5.09,13.64-.98.36-2,.53-3.04.53Z"/>
  <path class="cls-1" d="m25.9,24.75c-.26,0-.51-.1-.71-.29-.96-.96-.81-2.6.33-3.75,1.14-1.14,2.79-1.29,3.75-.33.39.39.39,1.02,0,1.41-.39.39-1.02.39-1.41,0-.09-.09-.53-.06-.92.33-.39.39-.42.83-.33.92.39.39.39,1.02,0,1.41-.2.19-.45.29-.71.29Z"/>
  <path class="cls-1" d="m31.74,35.64c-.32,0-.63-.15-.83-.44-1.03-1.51-2.39-3.13-3.95-4.69-.98-.98-2.01-1.9-3.06-2.74-.43-.34-.5-.97-.16-1.4.34-.43.97-.51,1.41-.16,1.12.89,2.2,1.86,3.23,2.89,1.65,1.65,3.09,3.37,4.19,4.98.31.46.19,1.08-.26,1.39-.17.12-.37.17-.56.17Z"/>
  <path class="cls-1" d="m27.95,38.91c-.2,0-.4-.06-.57-.18-1.52-1.07-3.13-2.44-4.66-3.96-.39-.39-.39-1.02,0-1.41s1.02-.39,1.41,0c1.44,1.44,2.96,2.74,4.39,3.74.45.32.56.94.24,1.39-.19.28-.5.43-.82.43Z"/>
  <path class="cls-1" d="m38.77,35.54l-1.84-.77c.16-.38.2-.79.11-1.21-.16-.77-.82-1.4-1.6-1.53-.79-.14-2.11,1.97-2.34,2.67l-.8-.26-1.16.19c-.12-.74,1.1-2.69,1.94-3.51,1.08-1.07,2.06-1.17,2.69-1.06,1.59.27,2.88,1.51,3.22,3.09.17.81.1,1.64-.22,2.4Z"/>
  <path class="cls-1" d="m37.93,35.89c-.16,0-.33-.04-.48-.12-.48-.26-.66-.87-.4-1.36,1.39-2.55,2.86-3.84,4.5-3.95,1.21-.09,2.07.53,2.84,1.08.68.49,1.35.79,2.1.96,1.39.31,2.12-1.8,2.13-1.82.17-.52.74-.81,1.26-.63.52.17.81.74.63,1.27-.44,1.33-1.95,3.71-4.46,3.14-1.01-.23-1.94-.65-2.83-1.29-.68-.49-1.07-.74-1.53-.71-.87.06-1.89,1.1-2.89,2.92-.18.33-.52.52-.88.52Z"/>
  <path class="cls-1" d="m40.17,48.5c-2.44,0-4.43-1.72-5.6-4.83l1.87-.71c.61,1.61,1.75,3.54,3.73,3.54,1.66,0,2.58-2.09,3.07-3.85.5-1.81.42-3.27-.22-4.11-.53-.69-1.49-1.04-2.85-1.04-.25,0-.82.02-1.01.04l-.24-1.99c.34-.04,1.02-.06,1.25-.06,2.02,0,3.52.61,4.44,1.83,1.04,1.36,1.23,3.39.55,5.85-1.21,4.4-3.38,5.32-5,5.32Z"/>
  <path class="cls-1" d="m16.57,56h-6c-1.65,0-3-1.35-3-3v-6c0-.55.45-1,1-1s1,.45,1,1v6c0,.55.45,1,1,1h6c.55,0,1,.45,1,1s-.45,1-1,1Z"/>
  <path class="cls-1" d="m50.57,14c-.55,0-1-.45-1-1v-6c0-.55-.45-1-1-1h-6c-.55,0-1-.45-1-1s.45-1,1-1h6c1.65,0,3,1.35,3,3v6c0,.55-.45,1-1,1Z"/>
  <path class="cls-1" d="m48.57,56h-6c-.55,0-1-.45-1-1s.45-1,1-1h6c.55,0,1-.45,1-1v-6c0-.55.45-1,1-1s1,.45,1,1v6c0,1.65-1.35,3-3,3Z"/>
  <path class="cls-1" d="m8.57,14c-.55,0-1-.45-1-1v-6c0-1.65,1.35-3,3-3h6c.55,0,1,.45,1,1s-.45,1-1,1h-6c-.55,0-1,.45-1,1v6c0,.55-.45,1-1,1Z"/>
</svg>