<?xml version="1.0" encoding="UTF-8"?>
<svg id="Layer_1" data-name="Layer 1" xmlns="http://www.w3.org/2000/svg" viewBox="0 0 60 60">
  <defs>
    <style>
      .cls-1 {
        fill: #37464c;
        stroke-width: 0px;
      }
    </style>
  </defs>
  <rect class="cls-1" x="14.61" y="8.1" width="30.38" height="1"/>
  <path class="cls-1" d="m44.98,9.6h-12.03c-.55,0-1-.45-1-1s.45-1,1-1h12.03c.55,0,1,.45,1,1s-.45,1-1,1Z"/>
  <path class="cls-1" d="m26.6,9.6h-11.99c-.55,0-1-.45-1-1s.45-1,1-1h11.99c.55,0,1,.45,1,1s-.45,1-1,1Z"/>
  <path class="cls-1" d="m9.44,23.07c-.12,0-.24-.02-.35-.06-.52-.19-.78-.77-.58-1.29l5.06-13.47c.15-.39.52-.65.94-.65s.79.26.94.65l4.93,13.11c.19.52-.07,1.09-.58,1.29-.52.19-1.09-.07-1.29-.58l-3.99-10.62-4.12,10.98c-.15.4-.53.65-.94.65Z"/>
  <path class="cls-1" d="m15.07,35.5c-.07,0-.14,0-.21,0-2.71-.13-3.65-2.02-3.79-2.73-.1-.54.25-1.07.8-1.17.55-.11,1.07.25,1.17.8h0s.3,1.03,1.92,1.11c.89.05,1.46-.46,1.51-.97.06-.57-.61-1.06-1.72-1.23-2.03-.32-3.22-1.36-3.21-2.78.02-1.5,1.07-2.66,2.67-2.94,1.57-.27,3.51.4,4.19,2.22.19.52-.07,1.09-.58,1.29-.52.19-1.09-.07-1.29-.58-.3-.8-1.22-1.09-1.97-.95-.38.07-1.01.28-1.02.99,0,.31.65.64,1.52.78,2.72.43,3.53,2.11,3.39,3.41-.14,1.39-1.44,2.77-3.39,2.77Z"/>
  <path class="cls-1" d="m15.06,36.53c-.28,0-.5-.22-.5-.5v-11.5c0-.28.22-.5.5-.5s.5.22.5.5v11.5c0,.28-.22.5-.5.5Z"/>
  <path class="cls-1" d="m44.17,55.58H15.37c-.55,0-1-.45-1-1s.45-1,1-1h28.79c.55,0,1,.45,1,1s-.45,1-1,1Z"/>
  <path class="cls-1" d="m40.74,51.29h-21.94c-.55,0-1-.45-1-1s.45-1,1-1h21.94c.55,0,1,.45,1,1s-.45,1-1,1Z"/>
  <path class="cls-1" d="m29.77,51.29c-.55,0-1-.45-1-1V11.78c0-.55.45-1,1-1s1,.45,1,1v38.52c0,.55-.45,1-1,1Z"/>
  <path class="cls-1" d="m29.77,12.28c-2.03,0-3.68-1.65-3.68-3.68s1.65-3.68,3.68-3.68,3.68,1.65,3.68,3.68-1.65,3.68-3.68,3.68Zm0-6.35c-1.48,0-2.68,1.2-2.68,2.68s1.2,2.68,2.68,2.68,2.68-1.2,2.68-2.68-1.2-2.68-2.68-2.68Z"/>
  <path class="cls-1" d="m29.77,12.78c-2.3,0-4.18-1.87-4.18-4.18s1.87-4.18,4.18-4.18,4.18,1.87,4.18,4.18-1.87,4.18-4.18,4.18Zm0-6.35c-1.2,0-2.18.98-2.18,2.18s.98,2.18,2.18,2.18,2.18-.98,2.18-2.18-.98-2.18-2.18-2.18Z"/>
  <path class="cls-1" d="m14.48,44.72c-4.22,0-8.04-2.17-10.23-5.8l-.46-.76h21.38l-.46.76c-2.19,3.63-6.02,5.8-10.23,5.8Zm-8.88-5.56c2.06,2.87,5.32,4.56,8.88,4.56s6.81-1.69,8.88-4.56H5.61Z"/>
  <path class="cls-1" d="m49.82,22.46c-.4,0-.79-.25-.94-.65l-3.9-10.37-3.8,10.12c-.19.52-.77.78-1.29.58-.52-.19-.78-.77-.58-1.29l4.74-12.61c.15-.39.52-.65.94-.65s.79.26.94.65l4.83,12.86c.19.52-.07,1.09-.58,1.29-.12.04-.23.06-.35.06Z"/>
  <path class="cls-1" d="m53.34,39.01c-.23,0-.46-.08-.65-.24-.42-.36-.47-.99-.11-1.41,1.49-1.75,2.3-3.97,2.3-6.27,0-5.34-4.35-9.69-9.69-9.69s-9.69,4.34-9.69,9.69c0,2.3.82,4.52,2.3,6.27.36.42.31,1.05-.11,1.41-.42.36-1.05.31-1.41-.11-1.79-2.11-2.78-4.8-2.78-7.57,0-6.44,5.24-11.69,11.69-11.69s11.69,5.24,11.69,11.69c0,2.77-.99,5.46-2.78,7.57-.2.23-.48.35-.76.35Z"/>
  <polygon class="cls-1" points="45.8 34.31 40.62 29.14 41.33 28.43 45.8 32.9 48.51 30.19 49.21 30.89 45.8 34.31"/>
  <path class="cls-1" d="m45.8,34.6c-.27,0-.52-.11-.71-.29l-4.82-4.82c-.39-.39-.39-1.02,0-1.41s1.02-.39,1.41,0l4.11,4.11,2.36-2.36c.39-.39,1.02-.39,1.41,0s.39,1.02,0,1.41l-3.06,3.06c-.19.19-.44.29-.71.29Z"/>
  <path class="cls-1" d="m45.1,45.12c-4.79,0-9.14-2.46-11.63-6.59-.19-.31-.19-.69-.02-1.01.18-.31.51-.51.87-.51h21.55c.36,0,.69.19.87.51.18.31.17.7-.02,1.01-2.49,4.13-6.84,6.59-11.63,6.59Zm-8.83-6.11c2.19,2.6,5.38,4.11,8.83,4.11s6.65-1.51,8.83-4.11h-17.67Z"/>
  <path class="cls-1" d="m6.62,39.44c-.28,0-.56-.12-.76-.35-1.79-2.11-2.78-4.8-2.78-7.57,0-6.44,5.24-11.69,11.69-11.69s11.69,5.24,11.69,11.69c0,2.77-.99,5.46-2.78,7.57-.36.42-.99.47-1.41.11-.42-.36-.47-.99-.11-1.41,1.49-1.75,2.3-3.97,2.3-6.27,0-5.34-4.35-9.69-9.69-9.69s-9.69,4.34-9.69,9.69c0,2.3.82,4.52,2.3,6.27.36.42.31,1.05-.11,1.41-.19.16-.42.24-.65.24Z"/>
  <path class="cls-1" d="m14.68,45.55c-4.79,0-9.14-2.46-11.63-6.59-.19-.31-.19-.69-.02-1.01.18-.31.51-.51.87-.51h21.55c.36,0,.69.19.87.51.18.31.17.7-.02,1.01-2.49,4.13-6.84,6.59-11.63,6.59Zm-8.84-6.11c2.19,2.6,5.38,4.11,8.84,4.11s6.65-1.51,8.83-4.11H5.84Z"/>
</svg>