<?xml version="1.0" encoding="UTF-8"?>
<svg id="Layer_1" data-name="Layer 1" xmlns="http://www.w3.org/2000/svg" viewBox="0 0 60 60">
  <defs>
    <style>
      .cls-1 {
        fill: #37464c;
        stroke-width: 0px;
      }
    </style>
  </defs>
  <polygon class="cls-1" points="42.2 54.04 36.2 46.88 36.97 46.24 42.2 52.49 50.2 42.95 46.46 42.95 46.46 28.31 37.95 28.31 37.95 42.95 31.1 42.95 31.1 18.77 22.59 18.77 22.59 42.95 15.74 42.95 15.74 9.23 7.23 9.23 7.23 42.45 6.23 42.45 6.23 8.23 16.74 8.23 16.74 41.95 21.59 41.95 21.59 17.77 32.1 17.77 32.1 41.95 36.95 41.95 36.95 27.31 47.46 27.31 47.46 41.95 52.34 41.95 42.2 54.04"/>
  <path class="cls-1" d="m42.2,54.27c-.3,0-.58-.13-.77-.36l-5.62-6.7c-.35-.42-.3-1.05.12-1.41.42-.35,1.05-.3,1.41.12l4.85,5.79,6.92-8.26h-2.17c-.55,0-1-.45-1-1v-13.64h-7.51v13.64c0,.55-.45,1-1,1h-5.85c-.55,0-1-.45-1-1v-23.18h-7.51v23.18c0,.55-.45,1-1,1h-5.85c-.55,0-1-.45-1-1V9.73h-7.51v32.72c0,.55-.45,1-1,1s-1-.45-1-1V8.73c0-.55.45-1,1-1h9.51c.55,0,1,.45,1,1v32.72h3.85v-23.18c0-.55.45-1,1-1h9.51c.55,0,1,.45,1,1v23.18h3.85v-13.64c0-.55.45-1,1-1h9.51c.55,0,1,.45,1,1v13.64h3.31c.39,0,.74.23.91.58.16.35.11.77-.14,1.07l-9.06,10.82c-.19.23-.47.36-.77.36Z"/>
</svg>