<?xml version="1.0" encoding="UTF-8"?>
<svg id="Layer_1" data-name="Layer 1" xmlns="http://www.w3.org/2000/svg" viewBox="0 0 60 60">
  <defs>
    <style>
      .cls-1 {
        fill: #37464c;
        stroke-width: 0px;
      }
    </style>
  </defs>
  <path class="cls-1" d="m4,47c0-.55.45-1,1-1h0c.55,0,1,.45,1,1h0c0,.55-.45,1-1,1h0c-.55,0-1-.45-1-1Zm0-4c0-.55.45-1,1-1h0c.55,0,1,.45,1,1h0c0,.55-.45,1-1,1h0c-.55,0-1-.45-1-1Zm0-4c0-.55.45-1,1-1h0c.55,0,1,.45,1,1h0c0,.55-.45,1-1,1h0c-.55,0-1-.45-1-1Zm0-4c0-.55.45-1,1-1h0c.55,0,1,.45,1,1h0c0,.55-.45,1-1,1h0c-.55,0-1-.45-1-1Zm0-4c0-.55.45-1,1-1h0c.55,0,1,.45,1,1h0c0,.55-.45,1-1,1h0c-.55,0-1-.45-1-1Zm0-4c0-.55.45-1,1-1h0c.55,0,1,.45,1,1h0c0,.55-.45,1-1,1h0c-.55,0-1-.45-1-1Zm0-4c0-.55.45-1,1-1h0c.55,0,1,.45,1,1h0c0,.55-.45,1-1,1h0c-.55,0-1-.45-1-1Zm0-4c0-.55.45-1,1-1h0c.55,0,1,.45,1,1h0c0,.55-.45,1-1,1h0c-.55,0-1-.45-1-1Zm0-4c0-.55.45-1,1-1h0c.55,0,1,.45,1,1h0c0,.55-.45,1-1,1h0c-.55,0-1-.45-1-1Zm0-4c0-.55.45-1,1-1h0c.55,0,1,.45,1,1h0c0,.55-.45,1-1,1h0c-.55,0-1-.45-1-1Z"/>
  <path class="cls-1" d="m51,52H5c-.55,0-1-.45-1-1s.45-1,1-1h46c.55,0,1,.45,1,1s-.45,1-1,1Z"/>
  <path class="cls-1" d="m19,46h-8c-.55,0-1-.45-1-1v-8c0-.55.45-1,1-1h8c.55,0,1,.45,1,1v8c0,.55-.45,1-1,1Zm-7-2h6v-6h-6v6Z"/>
  <path class="cls-1" d="m31,46h-8c-.55,0-1-.45-1-1v-18c0-.55.45-1,1-1h8c.55,0,1,.45,1,1v18c0,.55-.45,1-1,1Zm-7-2h6v-16h-6v16Z"/>
  <path class="cls-1" d="m55,46h-8c-.55,0-1-.45-1-1v-24c0-.55.45-1,1-1h8c.55,0,1,.45,1,1v24c0,.55-.45,1-1,1Zm-7-2h6v-22h-6v22Z"/>
  <path class="cls-1" d="m43,46h-8c-.55,0-1-.45-1-1v-14c0-.55.45-1,1-1h8c.55,0,1,.45,1,1v14c0,.55-.45,1-1,1Zm-7-2h6v-12h-6v12Z"/>
  <path class="cls-1" d="m15,32c-2.21,0-4-1.79-4-4s1.79-4,4-4,4,1.79,4,4-1.79,4-4,4Zm0-6c-1.1,0-2,.9-2,2s.9,2,2,2,2-.9,2-2-.9-2-2-2Z"/>
  <path class="cls-1" d="m27,22c-2.21,0-4-1.79-4-4s1.79-4,4-4,4,1.79,4,4-1.79,4-4,4Zm0-6c-1.1,0-2,.9-2,2s.9,2,2,2,2-.9,2-2-.9-2-2-2Z"/>
  <path class="cls-1" d="m39,26c-2.21,0-4-1.79-4-4s1.79-4,4-4,4,1.79,4,4-1.79,4-4,4Zm0-6c-1.1,0-2,.9-2,2s.9,2,2,2,2-.9,2-2-.9-2-2-2Z"/>
  <path class="cls-1" d="m51,16c-2.21,0-4-1.79-4-4s1.79-4,4-4,4,1.79,4,4-1.79,4-4,4Zm0-6c-1.1,0-2,.9-2,2s.9,2,2,2,2-.9,2-2-.9-2-2-2Z"/>
  <path class="cls-1" d="m41.29,21.09c-.29,0-.57-.12-.77-.36-.35-.42-.3-1.05.13-1.41l7.41-6.18c.42-.35,1.05-.3,1.41.13.35.42.3,1.05-.13,1.41l-7.41,6.18c-.19.16-.41.23-.64.23Z"/>
  <path class="cls-1" d="m36.17,22.06c-.1,0-.21-.02-.32-.05l-6.33-2.11c-.52-.17-.81-.74-.63-1.27.17-.52.74-.81,1.27-.63l6.33,2.11c.52.17.81.74.63,1.27-.14.42-.53.68-.95.68Z"/>
  <path class="cls-1" d="m17.29,27.09c-.29,0-.57-.12-.77-.36-.35-.42-.3-1.05.13-1.41l7.41-6.18c.42-.35,1.05-.3,1.41.13.35.42.3,1.05-.13,1.41l-7.41,6.18c-.19.16-.41.23-.64.23Z"/>
</svg>