<?xml version="1.0" encoding="UTF-8"?>
<svg id="Layer_1" data-name="Layer 1" xmlns="http://www.w3.org/2000/svg" viewBox="0 0 60 60">
  <defs>
    <style>
      .cls-1 {
        fill: #37464c;
        stroke-width: 0px;
      }
    </style>
  </defs>
  <g>
    <path class="cls-1" d="m30.23,53.4c-12.41,0-22.51-10.1-22.51-22.51S17.82,8.37,30.23,8.37s22.51,10.1,22.51,22.51-10.1,22.51-22.51,22.51Zm0-44.03c-11.86,0-21.51,9.65-21.51,21.51s9.65,21.51,21.51,21.51,21.51-9.65,21.51-21.51-9.65-21.51-21.51-21.51Z"/>
    <path class="cls-1" d="m30.23,53.77c-12.62,0-22.89-10.27-22.89-22.89S17.61,7.99,30.23,7.99s22.89,10.27,22.89,22.89-10.27,22.89-22.89,22.89Zm0-45.03c-12.21,0-22.14,9.93-22.14,22.14s9.93,22.14,22.14,22.14,22.14-9.93,22.14-22.14-9.93-22.14-22.14-22.14Zm0,44.03c-12.07,0-21.89-9.82-21.89-21.89S18.17,9,30.23,9s21.89,9.82,21.89,21.89-9.82,21.89-21.89,21.89Zm0-43.02c-11.65,0-21.14,9.48-21.14,21.14s9.48,21.14,21.14,21.14,21.14-9.48,21.14-21.14-9.48-21.14-21.14-21.14Z"/>
  </g>
  <g>
    <path class="cls-1" d="m12.4,44.28c-.21,0-.4-.13-.47-.33-.09-.26.04-.55.3-.64.01,0,1.06-.38,2.62-1.08.18-.08.37-.17.56-.26,2.68-1.25,6.51-3.31,9.56-6.09,3.56-3.24,5.16-6.63,4.77-10.09-1.03-8.99-10.39-9.04-14.38-9.06-.94,0-1.37-.01-1.64-.1-.26-.09-.4-.37-.32-.64.09-.26.37-.4.63-.32.14.04.77.05,1.33.05,3.9.02,14.25.07,15.38,9.95.43,3.79-1.28,7.47-5.09,10.94-3.14,2.86-7.07,4.98-9.81,6.25-.2.09-.39.18-.57.26-1.6.72-2.65,1.1-2.7,1.11-.06.02-.11.03-.17.03Z"/>
    <path class="cls-1" d="m12.4,44.66c-.37,0-.7-.23-.83-.58-.16-.46.08-.96.53-1.12.11-.04,1.11-.4,2.59-1.07l.56-.25c2.65-1.24,6.45-3.29,9.46-6.02,3.46-3.15,5.03-6.44,4.65-9.77-.99-8.66-10.12-8.71-14.01-8.73-1.01,0-1.43-.01-1.76-.12-.22-.07-.4-.23-.51-.44-.1-.21-.12-.45-.05-.67.15-.46.65-.7,1.11-.55.12.03.83.03,1.21.03,3.99.02,14.58.07,15.75,10.28.45,3.92-1.3,7.71-5.21,11.26-3.17,2.89-7.13,5.03-9.9,6.32l-.58.26c-1.62.73-2.68,1.11-2.73,1.12-.1.03-.19.05-.29.05Zm1.47-28.62c-.06,0-.1.03-.12.08-.02.06.02.14.08.16.21.07.67.08,1.52.08,4.1.02,13.69.07,14.75,9.39.41,3.58-1.24,7.08-4.89,10.41-3.08,2.8-6.95,4.89-9.65,6.15l-.56.26c-1.5.68-2.53,1.05-2.65,1.09-.07.02-.1.1-.08.16.03.08.1.1.16.08.04-.02,1.08-.38,2.67-1.1l.57-.26c2.72-1.27,6.61-3.37,9.71-6.19,3.72-3.38,5.39-6.96,4.97-10.62-1.09-9.55-11.2-9.6-15-9.62-.91,0-1.27-.02-1.43-.07-.02,0-.03,0-.05,0Z"/>
  </g>
  <g>
    <path class="cls-1" d="m50.77,39.31c-.11,0-.23-.04-.32-.12-7.57-6.26-7.84-8.36-8.39-12.55-.04-.27-.07-.54-.11-.83-.28-2.01.59-4.05,2.51-5.92,1.56-1.52,3.25-2.39,3.33-2.43.25-.13.55-.03.68.22.13.25.03.55-.22.68-.02,0-1.64.85-3.08,2.25-1.71,1.66-2.45,3.36-2.22,5.06.04.29.08.57.11.84.53,4.05.78,5.9,8.04,11.91.21.18.24.49.07.71-.1.12-.24.18-.39.18Z"/>
    <path class="cls-1" d="m50.77,39.68c-.2,0-.4-.07-.56-.2-7.68-6.35-7.96-8.5-8.52-12.79l-.11-.83c-.29-2.13.61-4.29,2.62-6.24,1.62-1.57,3.35-2.46,3.42-2.49.43-.22.96-.05,1.18.38.11.21.13.45.05.67-.07.22-.23.41-.44.51-.06.03-1.62.85-2.99,2.19-1.61,1.57-2.32,3.17-2.11,4.75l.1.78c.53,4.02.76,5.82,7.91,11.73.37.31.43.86.12,1.24-.17.2-.41.32-.68.32Zm-2.76-21.9s-.04,0-.06.01c-.02,0-1.7.87-3.23,2.36-1.83,1.78-2.66,3.72-2.4,5.6l.11.83c.54,4.09.81,6.15,8.26,12.31l.08.03s.06,0,.1-.05c.04-.05.03-.14-.02-.18-7.38-6.1-7.62-8-8.17-12.15l-.11-.84c-.25-1.83.53-3.64,2.33-5.39,1.43-1.39,3-2.22,3.17-2.32.06-.03.09-.12.06-.17-.02-.04-.07-.07-.11-.07Z"/>
  </g>
  <g>
    <path class="cls-1" d="m29.26,53.37c-.11,0-.22-.04-.32-.11-.21-.18-.25-.49-.07-.71,4.23-5.18,6.97-10.67,8.15-16.33.94-4.53.89-9.17-.14-13.81-1.77-7.92-5.87-13.15-5.91-13.2-.17-.22-.14-.53.08-.71.22-.17.53-.14.71.08.17.22,4.26,5.43,6.09,13.56,1.69,7.52,1.63,19-8.2,31.04-.1.12-.24.18-.39.18Z"/>
    <path class="cls-1" d="m29.26,53.75c-.2,0-.4-.07-.55-.2-.37-.31-.43-.86-.12-1.23,4.19-5.13,6.9-10.57,8.07-16.17.93-4.47.88-9.07-.14-13.65-1.74-7.81-5.79-13-5.83-13.05-.15-.18-.21-.41-.18-.64.03-.23.14-.44.33-.59.18-.15.41-.21.65-.18.23.03.44.14.59.33.17.22,4.31,5.47,6.16,13.72,1.71,7.6,1.66,19.2-8.27,31.36-.17.21-.42.32-.68.32Zm2.1-44.98s-.05,0-.08.03c-.04.03-.04.06-.05.08,0,.02,0,.06.03.09.04.05,4.19,5.36,5.98,13.35,1.05,4.69,1.1,9.39.14,13.97-1.19,5.72-3.96,11.27-8.22,16.49-.04.05-.04.13.02.18l.08.03s.07-.02.1-.05c9.74-11.92,9.79-23.28,8.12-30.72-1.81-8.08-5.85-13.2-6.02-13.41-.03-.04-.07-.05-.08-.05,0,0,0,0-.01,0Z"/>
  </g>
  <g>
    <path class="cls-1" d="m8.22,30.47c-.19,0-.37-.11-.46-.29-.12-.25,0-.55.24-.67,10.39-4.83,21.87-5.02,29.67-4.33,8.44.75,14.52,2.67,14.58,2.69.26.08.41.37.33.63-.08.26-.37.41-.63.33-.24-.08-24-7.48-43.52,1.59-.07.03-.14.05-.21.05Z"/>
    <path class="cls-1" d="m8.22,30.85c-.34,0-.65-.2-.8-.51-.2-.44-.01-.96.43-1.17,10.47-4.87,22.02-5.06,29.86-4.36,8.13.72,14.01,2.5,14.65,2.7.47.15.72.65.58,1.11-.15.46-.64.71-1.1.57-.24-.08-23.83-7.46-43.24,1.57-.12.05-.24.08-.37.08Zm22.85-5.58c-6.93,0-15.22,1.01-22.9,4.59-.06.03-.09.11-.06.17.04.08.11.09.17.06,19.68-9.15,43.55-1.68,43.79-1.61.07.02.14-.02.16-.08s-.02-.14-.08-.16c-.26-.08-6.3-1.94-14.5-2.67-1.98-.18-4.2-.29-6.57-.29Z"/>
  </g>
</svg>