<svg width="151" height="152" xmlns="http://www.w3.org/2000/svg" xmlns:xlink="http://www.w3.org/1999/xlink" xml:space="preserve" overflow="hidden"><g transform="translate(-1005 -146)"><path d="M75.5 149.062C71.4733 149.062 68.2017 145.79 68.2017 141.764 68.2017 137.737 71.4733 134.465 75.5 134.465 79.5267 134.465 82.7983 137.737 82.7983 141.764 82.7983 145.79 79.5267 149.062 75.5 149.062ZM75.5 138.744C73.839 138.744 72.48 140.103 72.48 141.764 72.48 143.425 73.839 144.784 75.5 144.784 77.161 144.784 78.52 143.425 78.52 141.764 78.52 140.103 77.161 138.744 75.5 138.744Z" fill="#6100DC" transform="matrix(1 0 0 1.00662 1005 146)"/><path d="M114.181 138.744C110.155 138.744 106.883 135.472 106.883 131.445 106.883 127.419 110.155 124.147 114.181 124.147 118.208 124.147 121.479 127.419 121.479 131.445 121.479 135.472 118.208 138.744 114.181 138.744ZM114.181 128.425C112.52 128.425 111.161 129.785 111.161 131.445 111.161 133.106 112.52 134.465 114.181 134.465 115.842 134.465 117.201 133.106 117.201 131.445 117.201 129.785 115.842 128.425 114.181 128.425Z" fill="#6100DC" transform="matrix(1 0 0 1.00662 1005 146)"/><path d="M36.8188 138.744C32.7922 138.744 29.5205 135.472 29.5205 131.445 29.5205 127.419 32.7922 124.147 36.8188 124.147 40.8455 124.147 44.1172 127.419 44.1172 131.445 44.1172 135.472 40.8455 138.744 36.8188 138.744ZM36.8188 128.425C35.1578 128.425 33.7988 129.785 33.7988 131.445 33.7988 133.106 35.1578 134.465 36.8188 134.465 38.4798 134.465 39.8388 133.106 39.8388 131.445 39.8388 129.785 38.4798 128.425 36.8188 128.425Z" fill="#6100DC" transform="matrix(1 0 0 1.00662 1005 146)"/><path d="M139.977 82.0182C135.95 82.0182 132.679 78.7465 132.679 74.7198 132.679 70.6932 135.95 67.4215 139.977 67.4215 144.004 67.4215 147.275 70.6932 147.275 74.7198 147.275 78.7465 144.004 82.0182 139.977 82.0182ZM139.977 71.6998C138.316 71.6998 136.957 73.0588 136.957 74.7198 136.957 76.3808 138.316 77.7398 139.977 77.7398 141.638 77.7398 142.997 76.3808 142.997 74.7198 142.997 73.0588 141.638 71.6998 139.977 71.6998Z" fill="#6100DC" transform="matrix(1 0 0 1.00662 1005 146)"/><path d="M129.659 118.107C125.632 118.107 122.36 114.836 122.36 110.809 122.36 106.782 125.632 103.511 129.659 103.511 133.685 103.511 136.957 106.782 136.957 110.809 136.957 114.836 133.685 118.107 129.659 118.107ZM129.659 107.789C127.998 107.789 126.639 109.148 126.639 110.809 126.639 112.47 127.998 113.829 129.659 113.829 131.32 113.829 132.679 112.47 132.679 110.809 132.679 109.148 131.32 107.789 129.659 107.789Z" fill="#6100DC" transform="matrix(1 0 0 1.00662 1005 146)"/><path d="M129.659 107.814C128.476 107.814 127.519 106.858 127.519 105.675L127.519 92.3365 113.653 92.3365C112.47 92.3365 111.514 91.3802 111.514 90.1973 111.514 89.0145 112.47 88.0582 113.653 88.0582L129.659 88.0582C130.842 88.0582 131.798 89.0145 131.798 90.1973L131.798 105.675C131.798 106.858 130.842 107.814 129.659 107.814Z" fill="#6100DC" transform="matrix(1 0 0 1.00662 1005 146)"/><path d="M11.023 82.0182C6.99633 82.0182 3.72467 78.7465 3.72467 74.7198 3.72467 70.6932 6.99633 67.4215 11.023 67.4215 15.0497 67.4215 18.3213 70.6932 18.3213 74.7198 18.3213 78.7465 15.0497 82.0182 11.023 82.0182ZM11.023 71.6998C9.362 71.6998 8.003 73.0588 8.003 74.7198 8.003 76.3808 9.362 77.7398 11.023 77.7398 12.684 77.7398 14.043 76.3808 14.043 74.7198 14.043 73.0588 12.684 71.6998 11.023 71.6998Z" fill="#6100DC" transform="matrix(1 0 0 1.00662 1005 146)"/><path d="M21.3413 118.107C17.3147 118.107 14.043 114.836 14.043 110.809 14.043 106.782 17.3147 103.511 21.3413 103.511 25.368 103.511 28.6397 106.782 28.6397 110.809 28.6397 114.836 25.368 118.107 21.3413 118.107ZM21.3413 107.789C19.6803 107.789 18.3213 109.148 18.3213 110.809 18.3213 112.47 19.6803 113.829 21.3413 113.829 23.0023 113.829 24.3613 112.47 24.3613 110.809 24.3613 109.148 23.0023 107.789 21.3413 107.789Z" fill="#6100DC" transform="matrix(1 0 0 1.00662 1005 146)"/><path d="M21.3413 45.904C17.3147 45.904 14.043 42.6323 14.043 38.6057 14.043 34.579 17.3147 31.3073 21.3413 31.3073 25.368 31.3073 28.6397 34.579 28.6397 38.6057 28.6397 42.6323 25.368 45.904 21.3413 45.904ZM21.3413 35.5857C19.6803 35.5857 18.3213 36.9447 18.3213 38.6057 18.3213 40.2667 19.6803 41.6257 21.3413 41.6257 23.0023 41.6257 24.3613 40.2667 24.3613 38.6057 24.3613 36.9447 23.0023 35.5857 21.3413 35.5857Z" fill="#6100DC" transform="matrix(1 0 0 1.00662 1005 146)"/><path d="M36.3155 61.3815 21.3162 61.3815C20.1333 61.3815 19.177 60.4252 19.177 59.2423L19.177 43.7648C19.177 42.582 20.1333 41.6257 21.3162 41.6257 22.499 41.6257 23.4553 42.582 23.4553 43.7648L23.4553 57.1032 36.3155 57.1032C37.4983 57.1032 38.4547 58.0595 38.4547 59.2423 38.4547 60.4252 37.4983 61.3815 36.3155 61.3815Z" fill="#6100DC" transform="matrix(1 0 0 1.00662 1005 146)"/><path d="M134.818 76.859 116.421 76.859C115.238 76.859 114.282 75.9027 114.282 74.7198 114.282 73.537 115.238 72.5807 116.421 72.5807L134.818 72.5807C136.001 72.5807 136.957 73.537 136.957 74.7198 136.957 75.9027 136.001 76.859 134.818 76.859Z" fill="#6100DC" transform="matrix(1 0 0 1.00662 1005 146)"/><path d="M109.022 133.585 93.5445 133.585C92.3617 133.585 91.4053 132.628 91.4053 131.445L91.4053 111.664C91.4053 110.482 92.3617 109.525 93.5445 109.525 94.7273 109.525 95.6837 110.482 95.6837 111.664L95.6837 129.306 109.022 129.306C110.205 129.306 111.161 130.263 111.161 131.445 111.161 132.628 110.205 133.585 109.022 133.585Z" fill="#6100DC" transform="matrix(1 0 0 1.00662 1005 146)"/><path d="M36.3155 76.859 16.1822 76.859C14.9993 76.859 14.043 75.9027 14.043 74.7198 14.043 73.537 14.9993 72.5807 16.1822 72.5807L36.3155 72.5807C37.4983 72.5807 38.4547 73.537 38.4547 74.7198 38.4547 75.9027 37.4983 76.859 36.3155 76.859Z" fill="#6100DC" transform="matrix(1 0 0 1.00662 1005 146)"/><path d="M75.5 138.744C74.3172 138.744 73.3608 137.788 73.3608 136.605L73.3608 112.596C73.3608 111.413 74.3172 110.456 75.5 110.456 76.6828 110.456 77.6392 111.413 77.6392 112.596L77.6392 136.605C77.6392 137.788 76.6828 138.744 75.5 138.744Z" fill="#6100DC" transform="matrix(1 0 0 1.00662 1005 146)"/><path d="M21.3413 107.814C20.1585 107.814 19.2022 106.858 19.2022 105.675L19.2022 90.1973C19.2022 89.0145 20.1585 88.0582 21.3413 88.0582L39.4865 88.0582C40.6693 88.0582 41.6257 89.0145 41.6257 90.1973 41.6257 91.3802 40.6693 92.3365 39.4865 92.3365L23.4805 92.3365 23.4805 105.675C23.4805 106.858 22.5242 107.814 21.3413 107.814Z" fill="#6100DC" transform="matrix(1 0 0 1.00662 1005 146)"/><path d="M57.4555 133.585 41.978 133.585C40.7952 133.585 39.8388 132.628 39.8388 131.445 39.8388 130.263 40.7952 129.306 41.978 129.306L55.3163 129.306 55.3163 107.713C55.3163 106.531 56.2727 105.574 57.4555 105.574 58.6383 105.574 59.5947 106.531 59.5947 107.713L59.5947 131.445C59.5947 132.628 58.6383 133.585 57.4555 133.585Z" fill="#6100DC" transform="matrix(1 0 0 1.00662 1005 146)"/><path d="M88.3853 17.2643C84.3587 17.2643 81.087 13.9927 81.087 9.966 81.087 5.93933 84.3587 2.66767 88.3853 2.66767 92.412 2.66767 95.6837 5.93933 95.6837 9.966 95.6837 13.9927 92.412 17.2643 88.3853 17.2643ZM88.3853 6.946C86.7243 6.946 85.3653 8.305 85.3653 9.966 85.3653 11.627 86.7243 12.986 88.3853 12.986 90.0463 12.986 91.4053 11.627 91.4053 9.966 91.4053 8.305 90.0463 6.946 88.3853 6.946Z" fill="#6100DC" transform="matrix(1 0 0 1.00662 1005 146)"/><path d="M124.5 27.5827C120.473 27.5827 117.201 24.311 117.201 20.2843 117.201 16.2577 120.473 12.986 124.5 12.986 128.526 12.986 131.798 16.2577 131.798 20.2843 131.798 24.311 128.526 27.5827 124.5 27.5827ZM124.5 17.2643C122.839 17.2643 121.479 18.6233 121.479 20.2843 121.479 21.9453 122.839 23.3043 124.5 23.3043 126.16 23.3043 127.519 21.9453 127.519 20.2843 127.519 18.6233 126.16 17.2643 124.5 17.2643Z" fill="#6100DC" transform="matrix(1 0 0 1.00662 1005 146)"/><path d="M103.863 43.488C102.68 43.488 101.724 42.5317 101.724 41.3488L101.724 20.2843C101.724 19.1015 102.68 18.1452 103.863 18.1452L119.34 18.1452C120.523 18.1452 121.479 19.1015 121.479 20.2843 121.479 21.4672 120.523 22.4235 119.34 22.4235L106.002 22.4235 106.002 41.3488C106.002 42.5317 105.046 43.488 103.863 43.488Z" fill="#6100DC" transform="matrix(1 0 0 1.00662 1005 146)"/><path d="M88.3853 35.6612C87.2025 35.6612 86.2462 34.7048 86.2462 33.522L86.2462 15.1252C86.2462 13.9423 87.2025 12.986 88.3853 12.986 89.5682 12.986 90.5245 13.9423 90.5245 15.1252L90.5245 33.522C90.5245 34.7048 89.5682 35.6612 88.3853 35.6612Z" fill="#6100DC" transform="matrix(1 0 0 1.00662 1005 146)"/><path d="M39.26 28.841C35.2333 28.841 31.9617 25.5693 31.9617 21.5427 31.9617 17.516 35.2333 14.2443 39.26 14.2443 43.2867 14.2443 46.5583 17.516 46.5583 21.5427 46.5583 25.5693 43.2867 28.841 39.26 28.841ZM39.26 18.5227C37.599 18.5227 36.24 19.8817 36.24 21.5427 36.24 23.2037 37.599 24.5627 39.26 24.5627 40.921 24.5627 42.28 23.2037 42.28 21.5427 42.28 19.8817 40.921 18.5227 39.26 18.5227Z" fill="#6100DC" transform="matrix(1 0 0 1.00662 1005 146)"/><path d="M59.8967 38.5805C58.7138 38.5805 57.7575 37.6242 57.7575 36.4413L57.7575 23.6567 44.4192 23.6567C43.2363 23.6567 42.28 22.7003 42.28 21.5175 42.28 20.3347 43.2363 19.3783 44.4192 19.3783L59.8967 19.3783C61.0795 19.3783 62.0358 20.3347 62.0358 21.5175L62.0358 36.4413C62.0358 37.6242 61.0795 38.5805 59.8967 38.5805Z" fill="#6100DC" transform="matrix(1 0 0 1.00662 1005 146)"/><path d="M76.6073 114.181C53.2778 114.181 34.277 95.2055 34.277 71.8508 34.277 48.4962 53.2527 29.5205 76.6073 29.5205 99.962 29.5205 118.938 48.4962 118.938 71.8508 118.938 95.2055 99.962 114.181 76.6073 114.181ZM76.6073 34.579C56.0462 34.579 39.3103 51.3148 39.3103 71.876 39.3103 92.4372 56.0462 109.173 76.6073 109.173 97.1685 109.173 113.904 92.4372 113.904 71.876 113.904 51.3148 97.1685 34.579 76.6073 34.579Z" fill="#6100DC" transform="matrix(1 0 0 1.00662 1005 146)"/></g></svg>