<?xml version="1.0" encoding="UTF-8"?>
<svg id="Layer_1" data-name="Layer 1" xmlns="http://www.w3.org/2000/svg" viewBox="0 0 60 60">
  <defs>
    <style>
      .cls-1 {
        fill: #37464c;
        stroke-width: 0px;
      }
    </style>
  </defs>
  <g>
    <g>
      <path class="cls-1" d="m52.74,51.09h-2.63c-.32,0-.57-.26-.57-.57v-26.63c0-.32.26-.57.57-.57h2.63c.32,0,.57.26.57.57v26.63c0,.32-.26.57-.57.57Zm-2.06-1.14h1.49v-25.49h-1.49v25.49Z"/>
      <path class="cls-1" d="m52.74,51.46h-2.63c-.52,0-.95-.42-.95-.95v-26.63c0-.52.42-.95.95-.95h2.63c.52,0,.95.42.95.95v26.63c0,.52-.42.95-.95.95Zm-2.63-27.77c-.11,0-.2.09-.2.2v26.63c0,.11.09.2.2.2h2.63c.11,0,.2-.09.2-.2v-26.63c0-.11-.09-.2-.2-.2h-2.63Zm2.44,26.63h-2.24v-26.24h2.24v26.24Zm-1.49-.75h.74v-24.74h-.74v24.74Z"/>
    </g>
    <g>
      <path class="cls-1" d="m54.5,23.46h-6.15c-.31,0-.57-.26-.57-.57v-2.74c0-.32.26-.57.57-.57h6.15c.32,0,.57.26.57.57v2.74c0,.32-.26.57-.57.57Zm-5.58-1.14h5.01v-1.6h-5.01v1.6Z"/>
      <path class="cls-1" d="m54.5,23.71h-6.15c-.45,0-.82-.37-.82-.82v-2.74c0-.45.37-.82.82-.82h6.15c.45,0,.82.37.82.82v2.74c0,.45-.37.82-.82.82Zm-6.15-3.88c-.18,0-.32.14-.32.32v2.74c0,.18.14.32.32.32h6.15c.18,0,.32-.14.32-.32v-2.74c0-.18-.14-.32-.32-.32h-6.15Zm5.83,2.74h-5.51v-2.1h5.51v2.1Zm-5.01-.5h4.51v-1.1h-4.51v1.1Z"/>
    </g>
    <g>
      <path class="cls-1" d="m54.5,54.83h-6.15c-.31,0-.57-.26-.57-.57v-2.74c0-.32.26-.57.57-.57h6.15c.32,0,.57.26.57.57v2.74c0,.32-.26.57-.57.57Zm-5.58-1.14h5.01v-1.6h-5.01v1.6Z"/>
      <path class="cls-1" d="m54.5,55.08h-6.15c-.45,0-.82-.37-.82-.82v-2.75c0-.45.37-.82.82-.82h6.15c.45,0,.82.37.82.82v2.75c0,.45-.37.82-.82.82Zm-6.15-3.89c-.18,0-.32.14-.32.32v2.75c0,.18.14.32.32.32h6.15c.18,0,.32-.14.32-.32v-2.75c0-.18-.14-.32-.32-.32h-6.15Zm5.83,2.75h-5.51v-2.1h5.51v2.1Zm-5.01-.5h4.51v-1.1h-4.51v1.1Z"/>
    </g>
    <g>
      <path class="cls-1" d="m51.43,19.96c-2.25,0-4.08-1.83-4.08-4.08s1.83-4.08,4.08-4.08,4.08,1.83,4.08,4.08-1.83,4.08-4.08,4.08Zm0-7.03c-1.62,0-2.94,1.32-2.94,2.94s1.32,2.94,2.94,2.94,2.94-1.32,2.94-2.94-1.32-2.94-2.94-2.94Z"/>
      <path class="cls-1" d="m51.43,20.33c-2.46,0-4.46-2-4.46-4.46s2-4.46,4.46-4.46,4.46,2,4.46,4.46-2,4.46-4.46,4.46Zm0-8.17c-2.04,0-3.71,1.66-3.71,3.71s1.66,3.71,3.71,3.71,3.71-1.66,3.71-3.71-1.66-3.71-3.71-3.71Zm0,7.03c-1.83,0-3.32-1.49-3.32-3.32s1.49-3.32,3.32-3.32,3.32,1.49,3.32,3.32-1.49,3.32-3.32,3.32Zm0-5.89c-1.42,0-2.57,1.15-2.57,2.57s1.15,2.57,2.57,2.57,2.57-1.15,2.57-2.57-1.15-2.57-2.57-2.57Z"/>
    </g>
  </g>
  <g>
    <g>
      <path class="cls-1" d="m10.48,51.12h-2.63c-.32,0-.57-.26-.57-.57v-26.63c0-.32.26-.57.57-.57h2.63c.32,0,.57.26.57.57v26.63c0,.32-.26.57-.57.57Zm-2.06-1.14h1.49v-25.49h-1.49v25.49Z"/>
      <path class="cls-1" d="m10.48,51.49h-2.63c-.52,0-.95-.42-.95-.95v-26.63c0-.52.42-.95.95-.95h2.63c.52,0,.95.42.95.95v26.63c0,.52-.42.95-.95.95Zm-2.63-27.77c-.11,0-.2.09-.2.2v26.63c0,.11.09.2.2.2h2.63c.11,0,.2-.09.2-.2v-26.63c0-.11-.09-.2-.2-.2h-2.63Zm2.44,26.63h-2.24v-26.24h2.24v26.24Zm-1.49-.75h.74v-24.74h-.74v24.74Z"/>
    </g>
    <g>
      <path class="cls-1" d="m12.23,23.49h-6.15c-.32,0-.57-.26-.57-.57v-2.74c0-.32.26-.57.57-.57h6.15c.31,0,.57.26.57.57v2.74c0,.31-.26.57-.57.57Zm-5.58-1.14h5.01v-1.6h-5.01v1.6Z"/>
      <path class="cls-1" d="m12.23,23.74h-6.15c-.45,0-.82-.37-.82-.82v-2.75c0-.45.37-.82.82-.82h6.15c.45,0,.82.37.82.82v2.75c0,.45-.37.82-.82.82Zm-6.15-3.89c-.18,0-.32.14-.32.32v2.75c0,.18.14.32.32.32h6.15c.18,0,.32-.14.32-.32v-2.75c0-.18-.14-.32-.32-.32h-6.15Zm5.83,2.75h-5.51v-2.1h5.51v2.1Zm-5.01-.5h4.51v-1.1h-4.51v1.1Z"/>
    </g>
    <g>
      <path class="cls-1" d="m12.23,54.86h-6.15c-.32,0-.57-.26-.57-.57v-2.74c0-.32.26-.57.57-.57h6.15c.31,0,.57.26.57.57v2.74c0,.32-.26.57-.57.57Zm-5.58-1.14h5.01v-1.6h-5.01v1.6Z"/>
      <path class="cls-1" d="m12.23,55.11h-6.15c-.45,0-.82-.37-.82-.82v-2.74c0-.45.37-.82.82-.82h6.15c.45,0,.82.37.82.82v2.74c0,.45-.37.82-.82.82Zm-6.15-3.89c-.18,0-.32.14-.32.32v2.74c0,.18.14.32.32.32h6.15c.18,0,.32-.14.32-.32v-2.74c0-.18-.14-.32-.32-.32h-6.15Zm5.83,2.74h-5.51v-2.1h5.51v2.1Zm-5.01-.5h4.51v-1.1h-4.51v1.1Z"/>
    </g>
    <g>
      <path class="cls-1" d="m9.16,19.99c-2.25,0-4.08-1.83-4.08-4.08s1.83-4.08,4.08-4.08,4.08,1.83,4.08,4.08-1.83,4.08-4.08,4.08Zm0-7.03c-1.62,0-2.94,1.32-2.94,2.94s1.32,2.94,2.94,2.94,2.94-1.32,2.94-2.94-1.32-2.94-2.94-2.94Z"/>
      <path class="cls-1" d="m9.16,20.36c-2.46,0-4.46-2-4.46-4.46s2-4.46,4.46-4.46,4.46,2,4.46,4.46-2,4.46-4.46,4.46Zm0-8.17c-2.04,0-3.71,1.66-3.71,3.71s1.66,3.71,3.71,3.71,3.71-1.66,3.71-3.71-1.66-3.71-3.71-3.71Zm0,7.03c-1.83,0-3.32-1.49-3.32-3.32s1.49-3.32,3.32-3.32,3.32,1.49,3.32,3.32-1.49,3.32-3.32,3.32Zm0-5.88c-1.42,0-2.57,1.15-2.57,2.57s1.15,2.57,2.57,2.57,2.57-1.15,2.57-2.57-1.15-2.57-2.57-2.57Z"/>
    </g>
  </g>
  <g>
    <path class="cls-1" d="m46.81,41.18H13.66c-.32,0-.57-.26-.57-.57v-14.4c0-.32.26-.57.57-.57h33.15c.31,0,.57.26.57.57v14.4c0,.31-.26.57-.57.57Zm-32.58-1.14h32.01v-13.26H14.23v13.26Z"/>
    <path class="cls-1" d="m46.81,41.55H13.66c-.52,0-.95-.42-.95-.95v-14.4c0-.52.42-.95.95-.95h33.15c.52,0,.95.42.95.95v14.4c0,.52-.42.95-.95.95ZM13.66,26.01c-.11,0-.2.09-.2.2v14.4c0,.11.09.2.2.2h33.15c.11,0,.2-.09.2-.2v-14.4c0-.11-.09-.2-.2-.2H13.66Zm32.96,14.4H13.86v-14.01h32.76v14.01Zm-32.01-.75h31.26v-12.51H14.61v12.51Z"/>
  </g>
  <g>
    <path class="cls-1" d="m13.66,32.72c-.15,0-.29-.06-.4-.17-.22-.22-.22-.58,0-.81l5.88-5.88c.22-.22.58-.22.81,0,.22.22.22.58,0,.81l-5.88,5.88c-.11.11-.26.17-.4.17Z"/>
    <path class="cls-1" d="m13.66,33.1c-.25,0-.49-.1-.67-.28-.18-.18-.28-.42-.28-.67s.1-.49.28-.67l5.88-5.88c.37-.37.97-.37,1.34,0,.37.37.37.97,0,1.34l-5.88,5.88c-.18.18-.42.28-.67.28Zm5.88-7.02c-.05,0-.1.02-.14.06l-5.88,5.88s-.06.09-.06.14.02.1.06.14c.06.06.14.13.28,0l5.88-5.88c.08-.08.08-.2,0-.28-.04-.04-.09-.06-.14-.06Z"/>
  </g>
  <g>
    <path class="cls-1" d="m13.79,39.92c-.15,0-.29-.06-.4-.17-.22-.22-.22-.58,0-.81l13.08-13.08c.22-.22.58-.22.81,0,.22.22.22.58,0,.81l-13.08,13.08c-.11.11-.26.17-.4.17Z"/>
    <path class="cls-1" d="m13.79,40.3c-.25,0-.49-.1-.67-.28-.37-.37-.37-.97,0-1.34l13.08-13.08c.37-.37.97-.37,1.34,0,.37.37.37.97,0,1.34l-13.08,13.08c-.18.18-.42.28-.67.28Zm13.08-14.22s-.1.02-.14.06l-13.08,13.08c-.08.08-.08.2,0,.28.07.07.2.07.28,0l13.08-13.08c.08-.08.08-.2,0-.28-.04-.04-.09-.06-.14-.06Z"/>
  </g>
  <g>
    <path class="cls-1" d="m20.1,40.94c-.15,0-.29-.06-.4-.17-.22-.22-.22-.58,0-.81l14.12-14.12c.22-.22.58-.22.81,0,.22.22.22.58,0,.81l-14.12,14.12c-.11.11-.26.17-.4.17Z"/>
    <path class="cls-1" d="m20.1,41.32c-.25,0-.49-.1-.67-.28-.18-.18-.28-.42-.28-.67s.1-.49.28-.67l14.12-14.12c.37-.37.97-.37,1.34,0,.37.37.37.97,0,1.34l-14.12,14.12c-.18.18-.42.28-.67.28Zm14.12-15.26s-.1.02-.14.06l-14.12,14.12c-.07.06-.06.21,0,.28.07.07.2.07.28,0l14.12-14.12c.08-.08.08-.2,0-.28-.04-.04-.09-.06-.14-.06Z"/>
  </g>
  <g>
    <path class="cls-1" d="m27.2,41.18c-.15,0-.29-.06-.4-.17-.22-.22-.22-.58,0-.81l14.33-14.34c.22-.22.58-.22.81,0,.22.22.22.58,0,.81l-14.33,14.34c-.11.11-.26.17-.4.17Z"/>
    <path class="cls-1" d="m27.2,41.55c-.25,0-.49-.1-.67-.28-.18-.18-.28-.42-.28-.67s.1-.49.28-.67l14.33-14.34c.37-.37.97-.37,1.34,0,.18.18.28.42.28.67s-.1.49-.28.67l-14.33,14.33c-.18.18-.42.28-.67.28Zm14.33-15.48c-.05,0-.1.02-.14.06l-14.33,14.33c-.06.06-.07.21,0,.28.06.06.14.14.28,0l14.33-14.33s.06-.09.06-.14-.02-.1-.06-.14c-.04-.04-.09-.06-.14-.06Z"/>
  </g>
  <g>
    <path class="cls-1" d="m34.91,40.8c-.15,0-.29-.06-.4-.17-.22-.22-.22-.58,0-.81l11.9-11.9c.22-.22.58-.22.81,0,.22.22.22.58,0,.81l-11.9,11.9c-.11.11-.26.17-.4.17Z"/>
    <path class="cls-1" d="m34.91,41.17c-.25,0-.49-.1-.67-.28-.18-.18-.28-.42-.28-.67s.1-.49.28-.67l11.9-11.9c.37-.37.97-.37,1.34,0,.18.18.28.42.28.67s-.1.49-.28.67l-11.9,11.9c-.18.18-.42.28-.67.28Zm11.9-13.04c-.05,0-.1.02-.14.06l-11.9,11.9s-.06.09-.06.14.02.1.06.14c.06.06.14.13.28,0l11.9-11.91c.07-.06.06-.21,0-.28-.04-.04-.09-.06-.14-.06Z"/>
  </g>
  <g>
    <path class="cls-1" d="m41.87,41.18c-.15,0-.29-.06-.4-.17-.22-.22-.22-.58,0-.81l4.95-4.95c.22-.22.58-.22.81,0,.22.22.22.58,0,.81l-4.95,4.95c-.11.11-.26.17-.4.17Z"/>
    <path class="cls-1" d="m41.87,41.55c-.25,0-.49-.1-.67-.28-.18-.18-.28-.42-.28-.67s.1-.49.28-.67l4.95-4.95c.37-.37.97-.37,1.34,0,.18.18.28.42.28.67s-.1.49-.28.67l-4.95,4.95c-.18.18-.42.28-.67.28Zm4.95-6.09c-.05,0-.1.02-.14.06l-4.95,4.95c-.06.06-.07.21,0,.28.06.06.14.14.28,0l4.95-4.95c.06-.06.07-.21,0-.28-.04-.04-.09-.06-.14-.06Z"/>
  </g>
</svg>