<?xml version="1.0" encoding="UTF-8"?>
<svg id="Layer_1" data-name="Layer 1" xmlns="http://www.w3.org/2000/svg" viewBox="0 0 60 60">
  <defs>
    <style>
      .cls-1 {
        fill: #37464c;
        stroke-width: 0px;
      }
    </style>
  </defs>
  <g>
    <g>
      <g>
        <path class="cls-1" d="m23.78,46.92c-.2,0-.4-.1-.52-.29l-13.19-21.5c-.1-.16-.12-.35-.05-.52s.2-.31.38-.37l19.98-6.8c.18-.06.39-.03.55.08.16.11.25.3.25.49v26.15c0,.33-.27.61-.61.61s-.61-.27-.61-.61v-25.3l-18.46,6.28,12.79,20.85c.18.29.09.66-.2.83-.1.06-.21.09-.32.09Z"/>
        <path class="cls-1" d="m23.78,47.3c-.34,0-.66-.17-.84-.47l-13.19-21.5c-.16-.26-.19-.56-.09-.85.1-.28.32-.5.61-.6l19.98-6.8c.3-.1.63-.05.89.13.26.18.41.48.41.8v26.15c0,.54-.44.98-.98.98s-.98-.44-.98-.98v-24.78l-17.52,5.96,12.54,20.45c.14.22.18.49.12.74-.06.25-.22.47-.44.61-.15.09-.33.14-.51.14Zm6.79-29.51s-.05,0-.07.01l-19.98,6.8c-.07.02-.12.07-.14.14-.02.07-.02.14.02.2l13.19,21.5c.07.11.21.14.32.08.11-.07.14-.21.08-.32l-13.04-21.25,19.4-6.6v25.82c0,.26.46.26.46,0v-26.15c0-.07-.04-.14-.1-.19-.04-.03-.09-.04-.14-.04Z"/>
      </g>
      <g>
        <path class="cls-1" d="m19.6,39.43c-.3,0-.56-.22-.6-.53-.04-.33.19-.64.52-.68l10.98-1.46c.33-.05.64.19.68.52.04.33-.19.64-.52.68l-10.98,1.46s-.05,0-.08,0Z"/>
        <path class="cls-1" d="m19.6,39.81c-.49,0-.91-.37-.97-.85-.04-.26.03-.52.19-.72.16-.21.39-.34.65-.38l10.98-1.46c.26-.04.51.03.72.19.21.16.34.39.38.65.07.54-.31,1.03-.84,1.1l-11.11,1.47Zm10.98-2.67s-.02,0-.03,0l-10.98,1.46c-.06,0-.12.04-.15.09s-.05.11-.04.17c.01.12.11.2.23.2v.38l.03-.38,10.98-1.46c.06,0,.12-.04.15-.09.04-.05.05-.11.04-.17,0-.06-.04-.12-.09-.15-.04-.03-.09-.05-.14-.05Z"/>
      </g>
    </g>
    <g>
      <g>
        <path class="cls-1" d="m37.41,46.86c-.11,0-.22-.03-.32-.09-.29-.17-.37-.55-.2-.83l12.75-20.79-18.46-6.28v25.3c0,.33-.27.61-.61.61s-.61-.27-.61-.61v-26.15c0-.2.09-.38.25-.49.16-.11.36-.14.55-.08l19.98,6.8c.17.06.31.2.38.37.06.17.04.37-.05.52l-13.15,21.43c-.11.19-.31.29-.52.29Z"/>
        <path class="cls-1" d="m37.41,47.23c-.18,0-.36-.05-.51-.15-.22-.14-.38-.35-.44-.61-.06-.25-.02-.52.12-.74l12.5-20.39-17.52-5.96v24.78c0,.54-.44.98-.98.98s-.98-.44-.98-.98v-26.15c0-.32.15-.61.41-.8.26-.18.59-.23.89-.13l19.98,6.8c.28.1.5.31.61.59.1.28.07.59-.09.85l-13.15,21.44c-.18.29-.49.47-.84.47Zm-6.6-28.89l19.4,6.6-13,21.19c-.03.05-.04.11-.03.17.01.06.05.11.1.14.17.11.26.02.32-.08l13.15-21.43c.04-.06.04-.13.02-.2-.02-.07-.08-.12-.14-.14l-19.98-6.8c-.07-.02-.15-.01-.21.03-.06.04-.1.11-.1.19v26.15c0,.26.46.26.46,0v-25.82Z"/>
      </g>
      <g>
        <path class="cls-1" d="m41.55,39.43s-.05,0-.08,0l-10.98-1.46c-.33-.04-.57-.35-.52-.68.04-.33.35-.57.68-.52l10.98,1.46c.33.04.57.35.52.68-.04.3-.3.53-.6.53Z"/>
        <path class="cls-1" d="m41.55,39.81h-.13s-10.97-1.47-10.97-1.47c-.54-.07-.91-.57-.84-1.1.04-.26.17-.49.38-.65.21-.16.47-.23.73-.19l10.98,1.46c.54.07.91.57.84,1.1-.06.49-.48.85-.97.85Zm-10.98-2.67s-.1.02-.14.05c-.05.04-.08.09-.09.15,0,.06,0,.12.04.17.04.05.09.08.15.09l11.01,1.46c.12,0,.21-.09.23-.2.02-.13-.07-.24-.2-.26l-10.98-1.46s-.02,0-.03,0Z"/>
      </g>
    </g>
    <g>
      <path class="cls-1" d="m56.83,47.91c-.07,0-.14-.01-.2-.04l-5.72-2.05c-1.82-.65-3.82-.65-5.64,0l-2.7.97c-2.08.75-4.38.75-6.46,0l-2.7-.97c-1.82-.65-3.82-.65-5.64,0l-2.7.97c-2.08.75-4.38.75-6.46,0l-2.7-.97c-1.82-.65-3.82-.65-5.64,0l-5.72,2.05c-.32.11-.66-.05-.78-.37-.11-.32.05-.66.37-.78l5.72-2.05c2.08-.75,4.38-.75,6.46,0l2.7.97c1.82.65,3.82.65,5.64,0l2.7-.97c2.08-.75,4.38-.75,6.46,0l2.7.97c1.82.65,3.82.65,5.64,0l2.7-.97c2.08-.75,4.38-.75,6.46,0l5.72,2.05c.32.11.48.46.37.78-.09.25-.32.4-.57.4Z"/>
      <path class="cls-1" d="m4.33,48.28c-.4,0-.78-.25-.93-.65-.09-.25-.08-.51.04-.75.11-.24.31-.42.56-.5l5.72-2.05c2.17-.78,4.55-.78,6.72,0l2.7.97c1.74.62,3.65.62,5.39,0l2.7-.97c2.17-.78,4.55-.78,6.72,0l2.7.97c1.74.62,3.66.62,5.39,0l2.7-.97c2.17-.78,4.55-.78,6.72,0l5.72,2.05c.51.18.77.74.59,1.25-.18.49-.75.77-1.25.59l-5.73-2.05c-1.74-.62-3.65-.62-5.39,0l-2.7.97c-2.17.78-4.55.78-6.72,0l-2.7-.97c-1.74-.62-3.65-.62-5.39,0l-2.7.97c-2.17.78-4.55.78-6.72,0l-2.7-.97c-1.74-.62-3.66-.62-5.39,0l-5.72,2.05c-.11.04-.22.06-.33.06Zm8.75-3.79c-1.05,0-2.1.18-3.1.54l-5.72,2.05c-.06.02-.11.06-.13.12s-.03.12,0,.18c.04.12.18.18.3.14l5.72-2.05c1.9-.68,4-.68,5.9,0l2.7.97c2,.72,4.21.72,6.21,0l2.7-.97c1.9-.68,4-.68,5.9,0l2.7.97c2,.72,4.21.72,6.21,0l2.7-.97c1.9-.68,4-.68,5.9,0l5.8,2.07c.1,0,.19-.06.22-.15.02-.06.02-.12,0-.18-.03-.06-.07-.1-.13-.12l-5.72-2.05c-2-.72-4.21-.72-6.21,0l-2.7.97c-1.9.68-4,.68-5.9,0l-2.7-.97c-2-.72-4.21-.72-6.21,0l-2.7.97c-1.9.68-4,.68-5.9,0l-2.7-.97c-1-.36-2.05-.54-3.1-.54Z"/>
    </g>
    <g>
      <path class="cls-1" d="m56.83,52.45c-.07,0-.14-.01-.2-.04l-5.72-2.05c-1.82-.65-3.82-.65-5.64,0l-2.7.97c-2.08.75-4.38.75-6.46,0l-2.7-.97c-1.82-.65-3.82-.65-5.64,0l-2.7.97c-2.08.75-4.38.75-6.46,0l-2.7-.97c-1.82-.65-3.82-.65-5.64,0l-5.72,2.05c-.32.11-.66-.05-.78-.37-.11-.32.05-.66.37-.78l5.72-2.05c2.08-.75,4.38-.75,6.46,0l2.7.97c1.82.65,3.82.65,5.64,0l2.7-.97c2.08-.75,4.38-.75,6.46,0l2.7.97c1.82.65,3.82.65,5.64,0l2.7-.97c2.08-.75,4.38-.75,6.46,0l5.72,2.05c.32.11.48.46.37.78-.09.25-.32.4-.57.4Z"/>
      <path class="cls-1" d="m56.83,52.83c-.11,0-.22-.02-.33-.06l-5.72-2.05c-1.74-.62-3.65-.62-5.39,0l-2.7.97c-2.17.78-4.55.78-6.72,0l-2.7-.97c-1.74-.62-3.65-.62-5.39,0l-2.7.97c-2.17.78-4.55.78-6.72,0l-2.7-.97c-1.74-.62-3.65-.62-5.39,0l-5.72,2.05c-.51.18-1.08-.08-1.26-.59-.18-.51.08-1.07.59-1.25l5.72-2.05c2.17-.78,4.55-.78,6.72,0l2.7.97c1.74.62,3.65.62,5.39,0l2.7-.97c2.17-.78,4.55-.78,6.72,0l2.7.97c1.74.62,3.65.62,5.39,0l2.7-.97c2.17-.78,4.55-.78,6.72,0l5.72,2.05c.51.18.77.75.59,1.25-.14.39-.51.65-.92.65Zm-8.75-3.33c1,0,2,.17,2.95.51l5.8,2.07c.1,0,.19-.06.22-.15.04-.12-.02-.25-.14-.3l-5.72-2.05c-2-.72-4.21-.72-6.21,0l-2.7.97c-1.9.68-4,.68-5.9,0l-2.7-.97c-2-.72-4.21-.72-6.21,0l-2.7.97c-1.9.68-4,.68-5.9,0l-2.7-.97c-2-.72-4.21-.72-6.21,0l-5.72,2.05c-.12.04-.18.18-.14.3.02.06.06.11.12.13.06.03.12.03.18,0l5.72-2.05c1.9-.68,4-.68,5.9,0l2.7.97c2,.72,4.21.72,6.21,0l2.7-.97c1.9-.68,4-.68,5.9,0l2.7.97c2,.72,4.21.72,6.21,0l2.7-.97c.95-.34,1.95-.51,2.95-.51Z"/>
    </g>
    <g>
      <path class="cls-1" d="m56.83,57c-.07,0-.14-.01-.2-.04l-5.72-2.05c-1.82-.65-3.82-.65-5.64,0l-2.7.97c-2.08.75-4.38.75-6.46,0l-2.7-.97c-1.82-.65-3.82-.65-5.64,0l-2.7.97c-2.08.75-4.38.75-6.46,0l-2.7-.97c-1.82-.65-3.82-.65-5.64,0l-5.72,2.05c-.32.11-.66-.05-.78-.37-.11-.32.05-.66.37-.78l5.72-2.05c2.08-.75,4.38-.75,6.46,0l2.7.97c1.82.65,3.82.65,5.64,0l2.7-.97c2.08-.75,4.38-.75,6.46,0l2.7.97c1.82.65,3.82.65,5.64,0l2.7-.97c2.08-.75,4.38-.75,6.46,0l5.72,2.05c.32.11.48.46.37.78-.09.25-.32.4-.57.4Z"/>
      <path class="cls-1" d="m4.32,57.38c-.14,0-.29-.03-.42-.09-.24-.11-.42-.31-.5-.56s-.08-.51.04-.75c.11-.24.31-.42.56-.5l5.72-2.05c2.17-.78,4.55-.78,6.72,0l2.7.97c1.74.62,3.65.62,5.39,0l2.7-.97c2.17-.78,4.55-.78,6.72,0l2.7.97c1.74.62,3.66.62,5.39,0l2.7-.97c2.17-.78,4.55-.78,6.72,0l5.72,2.05c.51.18.77.75.59,1.25-.18.5-.76.77-1.26.59l-5.72-2.05c-1.74-.62-3.65-.62-5.39,0l-2.7.97c-2.17.78-4.55.78-6.72,0l-2.7-.97c-1.74-.62-3.65-.62-5.39,0l-2.7.97c-2.17.78-4.55.78-6.72,0l-2.7-.97c-1.74-.62-3.65-.62-5.39,0l-5.72,2.05c-.11.04-.22.06-.33.06Zm43.75-3.33c1,0,2,.17,2.95.51l5.8,2.07c.1,0,.19-.06.22-.15.04-.12-.02-.25-.14-.3l-5.72-2.05c-2-.72-4.21-.72-6.21,0l-2.7.97c-1.9.68-4,.68-5.9,0l-2.7-.97c-2-.72-4.21-.72-6.21,0l-2.7.97c-1.9.68-4,.68-5.9,0l-2.7-.97c-2-.72-4.21-.72-6.21,0l-5.72,2.05c-.06.02-.11.06-.13.12-.03.06-.03.12,0,.18.02.06.06.1.12.13.06.03.12.03.18,0l5.72-2.05c1.9-.68,4-.68,5.9,0l2.7.97c2,.72,4.21.72,6.21,0l2.7-.97c1.9-.68,4-.68,5.9,0l2.7.97c2,.72,4.21.72,6.21,0l2.7-.97c.95-.34,1.95-.51,2.95-.51Z"/>
    </g>
  </g>
  <g>
    <path class="cls-1" d="m46.05,23.95c-.26,0-.49-.16-.58-.42l-4.71-14.68c-.49-1.54-1.91-2.58-3.53-2.58h-13.5c-1.62,0-3.03,1.03-3.53,2.58l-4.71,14.68c-.1.32-.44.49-.76.39-.32-.1-.49-.44-.39-.76l4.71-14.68c.66-2.04,2.54-3.42,4.68-3.42h13.5c2.15,0,4.03,1.37,4.68,3.42l4.71,14.68c.1.32-.07.66-.39.76-.06.02-.12.03-.19.03Z"/>
    <path class="cls-1" d="m46.05,24.33c-.43,0-.8-.27-.93-.68l-4.71-14.67c-.44-1.38-1.72-2.31-3.17-2.31h-13.5c-1.45,0-2.73.93-3.17,2.31l-4.71,14.67c-.17.52-.73.8-1.23.63-.25-.08-.45-.25-.57-.49-.12-.23-.14-.5-.06-.75l4.71-14.67c.71-2.2,2.73-3.68,5.04-3.68h13.5c2.31,0,4.33,1.48,5.04,3.68l4.71,14.67c.17.51-.12,1.07-.63,1.23-.1.03-.2.05-.3.05ZM23.73,5.91h13.5c1.78,0,3.34,1.14,3.89,2.84l4.71,14.67c.04.12.17.19.29.15.12-.04.19-.17.15-.29l-4.71-14.67c-.61-1.89-2.34-3.16-4.33-3.16h-13.5c-1.98,0-3.72,1.27-4.33,3.16l-4.71,14.67c-.02.06-.01.12.01.18.03.05.08.1.14.11.13.04.25-.03.29-.15l4.71-14.67c.54-1.7,2.11-2.84,3.89-2.84Z"/>
  </g>
  <g>
    <path class="cls-1" d="m37.66,11.38h-14.35c-.33,0-.61-.27-.61-.61s.27-.61.61-.61h14.35c.33,0,.61.27.61.61s-.27.61-.61.61Z"/>
    <path class="cls-1" d="m37.66,11.76h-14.35c-.54,0-.98-.44-.98-.98s.44-.98.98-.98h14.35c.54,0,.98.44.98.98s-.44.98-.98.98Zm-14.35-1.21c-.13,0-.23.1-.23.23s.1.23.23.23h14.35c.13,0,.23-.1.23-.23s-.1-.23-.23-.23h-14.35Z"/>
  </g>
  <g>
    <path class="cls-1" d="m39.29,15.12h-17.62c-.33,0-.61-.27-.61-.61s.27-.61.61-.61h17.62c.33,0,.61.27.61.61s-.27.61-.61.61Z"/>
    <path class="cls-1" d="m39.29,15.49h-17.62c-.54,0-.98-.44-.98-.98s.44-.98.98-.98h17.62c.54,0,.98.44.98.98s-.44.98-.98.98Zm-17.62-1.21c-.13,0-.23.1-.23.23s.1.23.23.23h17.62c.13,0,.23-.1.23-.23s-.1-.23-.23-.23h-17.62Z"/>
  </g>
</svg>