<?xml version="1.0" encoding="UTF-8"?>
<svg id="Layer_1" data-name="Layer 1" xmlns="http://www.w3.org/2000/svg" viewBox="0 0 60 60">
  <defs>
    <style>
      .cls-1 {
        fill: #37464c;
        stroke-width: 0px;
      }
    </style>
  </defs>
  <path class="cls-1" d="m24,55.79c-1.83,0-3.59-.72-4.89-2-3.79.04-6.93-2.93-7.1-6.68-2.42-1.15-4.01-3.6-4.01-6.32,0-.63.09-1.25.25-1.86-1.44-1.32-2.25-3.16-2.25-5.14,0-1.44.44-2.83,1.26-4-.82-1.17-1.26-2.56-1.26-4,0-2.1.93-4.05,2.52-5.37-.34-.83-.52-1.73-.52-2.63,0-2.77,1.64-5.26,4.14-6.38.65-3.24,3.5-5.62,6.86-5.62.04,0,.07,0,.11,0,1.3-1.28,3.06-2,4.89-2,3.86,0,7,3.14,7,7h-2c0-2.76-2.24-5-5-5-1.42,0-2.79.62-3.74,1.69-.21.24-.52.36-.83.33-.14-.01-.29-.02-.43-.02-2.55,0-4.69,1.91-4.97,4.44-.04.38-.3.71-.67.83-2.01.7-3.37,2.59-3.37,4.72,0,.86.22,1.7.65,2.45.26.46.12,1.05-.33,1.33-1.45.93-2.31,2.5-2.31,4.21,0,1.23.46,2.41,1.28,3.33.34.38.34.96,0,1.34-.83.92-1.28,2.1-1.28,3.33,0,1.59.74,3.05,2.02,4,.36.27.5.75.33,1.17-.23.59-.35,1.21-.35,1.83,0,2.12,1.35,4.01,3.35,4.71.42.15.69.56.67,1,0,0,0,.1,0,.1,0,.06,0,.12,0,.18,0,2.76,2.24,5,5,5,.14,0,.29-.01.43-.02.31-.03.62.1.83.33.95,1.07,2.31,1.69,3.74,1.69,2.76,0,5-2.24,5-5h2c0,3.86-3.14,7-7,7Z"/>
  <path class="cls-1" d="m19.51,53.76c-.26,0-.51-.1-.71-.29-1.32-1.31-1.96-3.01-1.8-4.78.05-.55.52-.97,1.08-.91.55.05.96.53.91,1.08-.1,1.19.32,2.29,1.23,3.19.39.39.39,1.02,0,1.41-.2.2-.45.29-.71.29Z"/>
  <path class="cls-1" d="m23,22.79c-.55,0-1-.45-1-1,0-2.76-2.24-5-5-5-.55,0-1-.45-1-1s.45-1,1-1c3.86,0,7,3.14,7,7,0,.55-.45,1-1,1Z"/>
  <path class="cls-1" d="m24,49.79c-.55,0-1-.45-1-1,0-2.76-2.24-5-5-5-.55,0-1-.45-1-1s.45-1,1-1c3.86,0,7,3.14,7,7,0,.55-.45,1-1,1Z"/>
  <path class="cls-1" d="m24,31.79c-.55,0-1-.45-1-1s.45-1,1-1c2.76,0,5-2.24,5-5,0-.55.45-1,1-1s1,.45,1,1c0,3.86-3.14,7-7,7Z"/>
  <path class="cls-1" d="m14.76,29.27c-.26,0-.51-.1-.71-.29-1.32-1.32-2.05-3.08-2.05-4.95s.73-3.63,2.05-4.95c.39-.39,1.02-.39,1.41,0s.39,1.02,0,1.41c-.94.94-1.46,2.2-1.46,3.54s.52,2.59,1.46,3.54c.39.39.39,1.02,0,1.41-.2.2-.45.29-.71.29Z"/>
  <path class="cls-1" d="m14,41.79c-.55,0-1-.45-1-1,0-3.65,2.85-6.71,6.48-6.98.57-.04,1.03.37,1.07.92.04.55-.37,1.03-.92,1.07-2.6.19-4.63,2.38-4.63,4.98,0,.55-.45,1-1,1Z"/>
  <path class="cls-1" d="m20.01,17.6s-.02,0-.03,0c-.55-.02-.99-.48-.97-1.03.12-3.8,3.19-6.78,6.99-6.78.55,0,1,.45,1,1s-.45,1-1,1c-2.72,0-4.91,2.13-4.99,4.85-.02.54-.46.97-1,.97Z"/>
  <path class="cls-1" d="m36,55.79c-3.86,0-7-3.14-7-7V10.79c0-3.86,3.14-7,7-7,1.83,0,3.59.72,4.89,2,3.37-.02,6.32,2.34,6.97,5.62,2.5,1.12,4.14,3.61,4.14,6.38,0,.9-.18,1.8-.52,2.63,1.59,1.32,2.52,3.27,2.52,5.37,0,1.44-.44,2.83-1.26,4,.82,1.17,1.26,2.56,1.26,4,0,1.98-.81,3.82-2.25,5.14.17.61.25,1.23.25,1.86,0,2.72-1.58,5.18-4.01,6.32-.17,3.75-3.29,6.72-7.1,6.68-1.3,1.28-3.06,2-4.89,2Zm0-50c-2.76,0-5,2.24-5,5v38c0,2.76,2.24,5,5,5,1.42,0,2.79-.62,3.74-1.69.21-.24.52-.36.83-.33.14.01.29.02.43.02,2.76,0,5-2.24,5-5,0-.06,0-.12,0-.18,0,0,0-.1,0-.1-.03-.45.25-.86.67-1,2-.7,3.35-2.6,3.35-4.71,0-.62-.12-1.24-.35-1.83-.17-.42-.03-.9.33-1.17,1.28-.96,2.02-2.42,2.02-4,0-1.23-.46-2.41-1.28-3.33-.34-.38-.34-.96,0-1.34.83-.92,1.28-2.1,1.28-3.33,0-1.71-.87-3.29-2.31-4.21-.45-.29-.59-.87-.33-1.33.42-.75.65-1.6.65-2.45,0-2.13-1.35-4.02-3.37-4.72-.37-.13-.62-.45-.67-.83-.28-2.53-2.42-4.44-4.97-4.44-.14,0-.29.01-.43.02-.31.03-.62-.1-.83-.33-.95-1.07-2.31-1.69-3.74-1.69Z"/>
  <path class="cls-1" d="m40.49,53.76c-.26,0-.51-.1-.71-.29-.39-.39-.39-1.02,0-1.41.9-.9,1.33-2.01,1.23-3.19-.05-.55.36-1.03.91-1.08.56-.05,1.03.36,1.08.91.15,1.77-.49,3.47-1.8,4.78-.2.2-.45.29-.71.29Z"/>
  <path class="cls-1" d="m36,49.79c-.55,0-1-.45-1-1,0-3.86,3.14-7,7-7,.55,0,1,.45,1,1s-.45,1-1,1c-2.76,0-5,2.24-5,5,0,.55-.45,1-1,1Z"/>
  <path class="cls-1" d="m36,31.79c-3.86,0-7-3.14-7-7,0-.55.45-1,1-1s1,.45,1,1c0,2.76,2.24,5,5,5,.55,0,1,.45,1,1s-.45,1-1,1Z"/>
  <path class="cls-1" d="m45.24,29.27c-.26,0-.51-.1-.71-.29-.39-.39-.39-1.02,0-1.41.94-.94,1.46-2.2,1.46-3.54s-.52-2.59-1.46-3.54c-.39-.39-.39-1.02,0-1.41s1.02-.39,1.41,0c1.32,1.32,2.05,3.08,2.05,4.95s-.73,3.63-2.05,4.95c-.2.2-.45.29-.71.29Z"/>
  <path class="cls-1" d="m36,37.79c-.55,0-1-.45-1-1s.45-1,1-1c2.76,0,5-2.24,5-5,0-.55.45-1,1-1s1,.45,1,1c0,3.86-3.14,7-7,7Z"/>
  <path class="cls-1" d="m46,41.79c-.55,0-1-.45-1-1,0-2.6-2.03-4.79-4.63-4.98-.55-.04-.96-.52-.92-1.07.04-.55.5-.96,1.07-.92,3.64.27,6.48,3.33,6.48,6.98,0,.55-.45,1-1,1Z"/>
  <path class="cls-1" d="m39.99,17.6c-.54,0-.98-.43-1-.97-.08-2.72-2.27-4.85-4.99-4.85-.55,0-1-.45-1-1s.45-1,1-1c3.8,0,6.87,2.98,6.99,6.78.02.55-.42,1.01-.97,1.03,0,0-.02,0-.03,0Z"/>
  <path class="cls-1" d="m24,37.79c-3.86,0-7-3.14-7-7,0-3.58,2.45-4.84,2.55-4.89.49-.25,1.09-.05,1.34.45.25.49.05,1.09-.44,1.34-.08.05-1.46.83-1.46,3.11,0,2.76,2.24,5,5,5,.55,0,1,.45,1,1s-.45,1-1,1Z"/>
  <path class="cls-1" d="m39,26.79c-.15,0-.3-.03-.44-.1-.1-.05-2.55-1.32-2.55-4.89,0-3.86,3.14-7,7-7,.55,0,1,.45,1,1s-.45,1-1,1c-2.76,0-5,2.24-5,5,0,2.3,1.4,3.08,1.46,3.11.48.26.67.86.42,1.34-.18.34-.52.54-.88.54Z"/>
</svg>