<?xml version="1.0" encoding="UTF-8"?>
<svg id="Layer_1" data-name="Layer 1" xmlns="http://www.w3.org/2000/svg" viewBox="0 0 60 60">
  <defs>
    <style>
      .cls-1 {
        fill: #37464c;
        stroke-width: 0px;
      }
    </style>
  </defs>
  <path class="cls-1" d="m41.13,17.16h-2v-5c0-1.1-.9-2-2-2h-12c-1.1,0-2,.9-2,2v5h-2v-5c0-2.21,1.79-4,4-4h12c2.21,0,4,1.79,4,4v5Z"/>
  <path class="cls-1" d="m28.13,56.16H12.13c-2.76,0-5-2.24-5-5v-15.54c0-.55.45-1,1-1s1,.45,1,1v15.54c0,1.65,1.35,3,3,3h16c.55,0,1,.45,1,1s-.45,1-1,1Z"/>
  <path class="cls-1" d="m26.13,38.16h-14c-3.86,0-7-3.14-7-7v-12c0-1.65,1.35-3,3-3h46c1.65,0,3,1.35,3,3v8c0,.55-.45,1-1,1s-1-.45-1-1v-8c0-.55-.45-1-1-1H8.13c-.55,0-1,.45-1,1v12c0,2.76,2.24,5,5,5h14c.55,0,1,.45,1,1s-.45,1-1,1Z"/>
  <path class="cls-1" d="m31.13,44.16c-3.31,0-6-2.69-6-6v-3c0-1.65,1.35-3,3-3h6c1.65,0,3,1.35,3,3v3c0,3.31-2.69,6-6,6Zm-3-10c-.55,0-1,.45-1,1v3c0,2.21,1.79,4,4,4s4-1.79,4-4v-3c0-.55-.45-1-1-1h-6Z"/>
  <path class="cls-1" d="m31.13,40.16c-.55,0-1-.45-1-1v-2c0-.55.45-1,1-1s1,.45,1,1v2c0,.55-.45,1-1,1Z"/>
  <path class="cls-1" d="m36.13,31.16c-.55,0-1-.45-1-1v-12h-8v12c0,.55-.45,1-1,1s-1-.45-1-1v-13c0-.55.45-1,1-1h10c.55,0,1,.45,1,1v13c0,.55-.45,1-1,1Z"/>
  <path class="cls-1" d="m38.13,56.16h-6c-.55,0-1-.45-1-1v-6c0-.55.45-1,1-1h6c.55,0,1,.45,1,1v6c0,.55-.45,1-1,1Zm-5-2h4v-4h-4v4Z"/>
  <path class="cls-1" d="m44.13,56.16h-6c-.55,0-1-.45-1-1v-12c0-.55.45-1,1-1h6c.55,0,1,.45,1,1v12c0,.55-.45,1-1,1Zm-5-2h4v-10h-4v10Z"/>
  <path class="cls-1" d="m56.13,56.16h-6c-.55,0-1-.45-1-1v-24c0-.55.45-1,1-1h6c.55,0,1,.45,1,1v24c0,.55-.45,1-1,1Zm-5-2h4v-22h-4v22Z"/>
  <path class="cls-1" d="m50.13,56.16h-6c-.55,0-1-.45-1-1v-18c0-.55.45-1,1-1h6c.55,0,1,.45,1,1v18c0,.55-.45,1-1,1Zm-5-2h4v-16h-4v16Z"/>
</svg>