<?xml version="1.0" encoding="UTF-8"?>
<svg id="Layer_1" data-name="Layer 1" xmlns="http://www.w3.org/2000/svg" viewBox="0 0 60 60">
  <defs>
    <style>
      .cls-1 {
        fill: #37464c;
        stroke-width: 0px;
      }
    </style>
  </defs>
  <path class="cls-1" d="m40,13.5h-2v-5c0-1.1-.9-2-2-2h-12c-1.1,0-2,.9-2,2v5h-2v-5c0-2.21,1.79-4,4-4h12c2.21,0,4,1.79,4,4v5Z"/>
  <path class="cls-1" d="m49,52.5H11c-2.76,0-5-2.24-5-5v-15.54h2v15.54c0,1.65,1.35,3,3,3h38c1.65,0,3-1.35,3-3v-15.54h2v15.54c0,2.76-2.24,5-5,5Z"/>
  <path class="cls-1" d="m49,34.5h-14v-2h14c2.76,0,5-2.24,5-5v-12c0-.55-.45-1-1-1H7c-.55,0-1,.45-1,1v12c0,2.76,2.24,5,5,5h14v2h-14c-3.86,0-7-3.14-7-7v-12c0-1.65,1.35-3,3-3h46c1.65,0,3,1.35,3,3v12c0,3.86-3.14,7-7,7Z"/>
  <path class="cls-1" d="m30,40.5c-3.31,0-6-2.69-6-6v-3c0-1.65,1.35-3,3-3h6c1.65,0,3,1.35,3,3v3c0,3.31-2.69,6-6,6Zm-3-10c-.55,0-1,.45-1,1v3c0,2.21,1.79,4,4,4s4-1.79,4-4v-3c0-.55-.45-1-1-1h-6Z"/>
  <path class="cls-1" d="m30,36.5c-.55,0-1-.45-1-1v-2c0-.55.45-1,1-1s1,.45,1,1v2c0,.55-.45,1-1,1Z"/>
</svg>