<?xml version="1.0" encoding="UTF-8"?>
<svg id="Layer_1" data-name="Layer 1" xmlns="http://www.w3.org/2000/svg" viewBox="0 0 60 60">
  <defs>
    <style>
      .cls-1 {
        fill: #37464c;
        stroke-width: 0px;
      }
    </style>
  </defs>
  <g>
    <g>
      <g>
        <path class="cls-1" d="m56.55,51.38H3.31c-.83,0-1.5-.67-1.5-1.5v-1.39c0-.83.67-1.5,1.5-1.5h53.24c.83,0,1.5.67,1.5,1.5v1.39c0,.83-.67,1.5-1.5,1.5Zm-53.24-3.11c-.12,0-.22.1-.22.22v1.39c0,.12.1.22.22.22h53.24c.12,0,.22-.1.22-.22v-1.39c0-.12-.1-.22-.22-.22H3.31Z"/>
        <path class="cls-1" d="m56.55,51.75H3.31c-1.04,0-1.88-.84-1.88-1.88v-1.39c0-1.04.84-1.88,1.88-1.88h53.24c1.04,0,1.88.84,1.88,1.88v1.39c0,1.04-.84,1.88-1.88,1.88ZM3.31,47.35c-.62,0-1.13.51-1.13,1.13v1.39c0,.62.51,1.13,1.13,1.13h53.24c.62,0,1.13-.51,1.13-1.13v-1.39c0-.62-.51-1.13-1.13-1.13H3.31Zm53.24,3.11H3.31c-.33,0-.59-.27-.59-.59v-1.39c0-.33.27-.59.59-.59h53.24c.33,0,.59.27.59.59v1.39c0,.33-.27.59-.59.59Zm-53.08-.75h52.93v-1.08H3.47v1.08Z"/>
      </g>
      <g>
        <path class="cls-1" d="m50.83,13.27h-4.59v1.28h4.59c1.62,0,2.93,1.31,2.93,2.93v29.5H6.1v-29.5c0-1.62,1.31-2.93,2.93-2.93h3.2c-.11-.42-.08-.89.1-1.28h-3.3c-2.32,0-4.21,1.89-4.21,4.21v30.14c0,.35.29.64.64.64h48.94c.35,0,.64-.29.64-.64v-30.14c0-2.32-1.89-4.21-4.21-4.21Z"/>
        <path class="cls-1" d="m54.4,48.64H5.46c-.56,0-1.02-.46-1.02-1.02v-30.14c0-2.53,2.06-4.59,4.59-4.59h3.87l-.24.53c-.14.32-.17.69-.08,1.03l.13.47h-3.69c-1.41,0-2.56,1.15-2.56,2.56v29.12h46.91v-29.12c0-1.41-1.15-2.56-2.56-2.56h-4.96v-2.03h4.96c2.53,0,4.59,2.06,4.59,4.59v30.14c0,.56-.46,1.02-1.02,1.02ZM9.03,13.64c-2.12,0-3.84,1.72-3.84,3.84v30.14c0,.15.12.27.27.27h48.94c.15,0,.27-.12.27-.27v-30.14c0-2.12-1.72-3.84-3.84-3.84h-4.21v.53h4.21c1.82,0,3.31,1.48,3.31,3.31v29.87H5.73v-29.87c0-1.82,1.48-3.31,3.31-3.31h2.76c-.01-.18,0-.36.03-.53h-2.79Z"/>
      </g>
    </g>
    <path class="cls-1" d="m49.5,43.99H10.36c-1.47,0-2.67-1.2-2.67-2.67v-21.71c0-1.47,1.2-2.67,2.67-2.67h1.96c.44,0,.8.36.8.8s-.36.8-.8.8h-1.96c-.59,0-1.07.48-1.07,1.07v21.71c0,.59.48,1.07,1.07,1.07h39.13c.59,0,1.07-.48,1.07-1.07v-21.71c0-.59-.48-1.07-1.07-1.07h-2.43c-.44,0-.8-.36-.8-.8s.36-.8.8-.8h2.43c1.47,0,2.67,1.2,2.67,2.67v21.71c0,1.47-1.2,2.67-2.67,2.67Z"/>
  </g>
  <g>
    <path class="cls-1" d="m37.37,19.1c-1.38,0-2.5-1.12-2.5-2.5s1.12-2.5,2.5-2.5,2.5,1.12,2.5,2.5-1.12,2.5-2.5,2.5Zm0-3.5c-.55,0-1,.45-1,1s.45,1,1,1,1-.45,1-1-.45-1-1-1Z"/>
    <path class="cls-1" d="m35.03,26.69c-1.38,0-2.5-1.12-2.5-2.5s1.12-2.5,2.5-2.5,2.5,1.12,2.5,2.5-1.12,2.5-2.5,2.5Zm0-3.5c-.55,0-1,.45-1,1s.45,1,1,1,1-.45,1-1-.45-1-1-1Z"/>
    <path class="cls-1" d="m29.19,30.19c-1.38,0-2.5-1.12-2.5-2.5s1.12-2.5,2.5-2.5,2.5,1.12,2.5,2.5-1.12,2.5-2.5,2.5Zm0-3.5c-.55,0-1,.45-1,1s.45,1,1,1,1-.45,1-1-.45-1-1-1Z"/>
    <path class="cls-1" d="m30.36,11.51c-1.38,0-2.5-1.12-2.5-2.5s1.12-2.5,2.5-2.5,2.5,1.12,2.5,2.5-1.12,2.5-2.5,2.5Zm0-3.5c-.55,0-1,.45-1,1s.45,1,1,1,1-.45,1-1-.45-1-1-1Z"/>
    <path class="cls-1" d="m30.36,13.85h-12.84c-.41,0-.75-.34-.75-.75s.34-.75.75-.75h12.09v-1.58c0-.41.34-.75.75-.75s.75.34.75.75v2.33c0,.41-.34.75-.75.75Z"/>
    <path class="cls-1" d="m35.03,23.19c-.41,0-.75-.34-.75-.75v-1.58h-16.76c-.41,0-.75-.34-.75-.75s.34-.75.75-.75h17.51c.41,0,.75.34.75.75v2.33c0,.41-.34.75-.75.75Z"/>
    <path class="cls-1" d="m29.19,26.69c-.41,0-.75-.34-.75-.75v-1.58h-10.93c-.41,0-.75-.34-.75-.75s.34-.75.75-.75h11.68c.41,0,.75.34.75.75v2.33c0,.41-.34.75-.75.75Z"/>
    <path class="cls-1" d="m35.61,17.35h-18.1c-.41,0-.75-.34-.75-.75s.34-.75.75-.75h18.1c.41,0,.75.34.75.75s-.34.75-.75.75Z"/>
    <path class="cls-1" d="m29.78,33.69c-.09,0-.19-.02-.28-.05-.25-.1-6.09-2.49-9.79-7.24-.25-.33-.2-.8.13-1.05.33-.26.8-.2,1.05.13,3,3.86,7.7,6.12,8.88,6.65,1.79-.8,11.51-5.52,11.51-13.78V7.69c-1.29-.73-5.99-3.18-11.51-3.18s-10.22,2.45-11.51,3.18v3.08c0,.41-.34.75-.75.75s-.75-.34-.75-.75v-3.5c0-.26.13-.49.35-.63.23-.15,5.75-3.62,12.66-3.62s12.43,3.47,12.66,3.62c.22.14.35.38.35.63v11.09c0,10.06-12.21,15.08-12.73,15.29-.09.04-.18.05-.28.05Z"/>
  </g>
  <path class="cls-1" d="m13.89,15.06h-.02l-3.86-.09c-.58-.01-1.04-.49-1.03-1.07.01-.57.48-1.03,1.05-1.03h.02l3.86.09c.58.01,1.04.49,1.03,1.07-.01.57-.48,1.03-1.05,1.03Z"/>
  <path class="cls-1" d="m51.95,15.12h-.02l-6.49-.15c-.58-.01-1.04-.49-1.03-1.07.01-.57.48-1.03,1.05-1.03h.02l6.49.15c.58.01,1.04.49,1.03,1.07-.01.57-.48,1.03-1.05,1.03Z"/>
</svg>