<?xml version="1.0" encoding="UTF-8"?>
<svg id="Layer_1" data-name="Layer 1" xmlns="http://www.w3.org/2000/svg" viewBox="0 0 60 60">
  <defs>
    <style>
      .cls-1 {
        fill: #37464c;
        stroke-width: 0px;
      }
    </style>
  </defs>
  <path class="cls-1" d="m23.52,57.47c-.05,0-.11,0-.17-.01-.54-.09-.91-.61-.82-1.15l1-6c.09-.54.61-.91,1.15-.82.54.09.91.61.82,1.15l-1,6c-.08.49-.5.84-.99.84Z"/>
  <path class="cls-1" d="m38.52,57.47h-18c-.55,0-1-.45-1-1s.45-1,1-1h18c.55,0,1,.45,1,1s-.45,1-1,1Z"/>
  <path class="cls-1" d="m35.52,57.47c-.48,0-.9-.35-.99-.84l-1-6c-.09-.54.28-1.06.82-1.15.54-.09,1.06.28,1.15.82l1,6c.09.54-.28,1.06-.82,1.15-.06,0-.11.01-.17.01Z"/>
  <rect class="cls-1" x="2.52" y="43.47" width="54" height="2"/>
  <path class="cls-1" d="m53.52,51.47H5.52c-2.21,0-4-1.79-4-4V15.47c0-2.21,1.79-4,4-4h3c.55,0,1,.45,1,1s-.45,1-1,1h-3c-1.1,0-2,.9-2,2v32c0,1.1.9,2,2,2h48c1.1,0,2-.9,2-2V15.47c0-1.1-.9-2-2-2h-3c-.55,0-1-.45-1-1s.45-1,1-1h3c2.21,0,4,1.79,4,4v32c0,2.21-1.79,4-4,4Z"/>
  <path class="cls-1" d="m46.52,41.47c-.55,0-1-.45-1-1V7.47H13.52v33c0,.55-.45,1-1,1s-1-.45-1-1V6.47c0-.55.45-1,1-1h34c.55,0,1,.45,1,1v34c0,.55-.45,1-1,1Z"/>
  <path class="cls-1" d="m38.52,13.47h-10c-.55,0-1-.45-1-1s.45-1,1-1h10c.55,0,1,.45,1,1s-.45,1-1,1Z"/>
  <path class="cls-1" d="m34.52,17.47h-6c-.55,0-1-.45-1-1s.45-1,1-1h6c.55,0,1,.45,1,1s-.45,1-1,1Z"/>
  <path class="cls-1" d="m20.52,17.47c-.26,0-.51-.1-.71-.29l-2-2c-.39-.39-.39-1.02,0-1.41s1.02-.39,1.41,0l1.29,1.29,3.29-3.29c.39-.39,1.02-.39,1.41,0s.39,1.02,0,1.41l-4,4c-.2.2-.45.29-.71.29Z"/>
  <path class="cls-1" d="m20.52,33.47c-.26,0-.51-.1-.71-.29l-2-2c-.39-.39-.39-1.02,0-1.41s1.02-.39,1.41,0l1.29,1.29,3.29-3.29c.39-.39,1.02-.39,1.41,0s.39,1.02,0,1.41l-4,4c-.2.2-.45.29-.71.29Z"/>
  <path class="cls-1" d="m20.52,41.47c-.26,0-.51-.1-.71-.29l-2-2c-.39-.39-.39-1.02,0-1.41s1.02-.39,1.41,0l1.29,1.29,3.29-3.29c.39-.39,1.02-.39,1.41,0s.39,1.02,0,1.41l-4,4c-.2.2-.45.29-.71.29Z"/>
  <path class="cls-1" d="m38.52,21.47h-10c-.55,0-1-.45-1-1s.45-1,1-1h10c.55,0,1,.45,1,1s-.45,1-1,1Z"/>
  <path class="cls-1" d="m34.52,25.47h-6c-.55,0-1-.45-1-1s.45-1,1-1h6c.55,0,1,.45,1,1s-.45,1-1,1Z"/>
  <path class="cls-1" d="m18.52,25.47c-.26,0-.51-.1-.71-.29-.39-.39-.39-1.02,0-1.41l4-4c.39-.39,1.02-.39,1.41,0s.39,1.02,0,1.41l-4,4c-.2.2-.45.29-.71.29Z"/>
  <path class="cls-1" d="m22.52,25.47c-.26,0-.51-.1-.71-.29l-4-4c-.39-.39-.39-1.02,0-1.41s1.02-.39,1.41,0l4,4c.39.39.39,1.02,0,1.41-.2.2-.45.29-.71.29Z"/>
  <path class="cls-1" d="m38.52,29.47h-10c-.55,0-1-.45-1-1s.45-1,1-1h10c.55,0,1,.45,1,1s-.45,1-1,1Z"/>
  <path class="cls-1" d="m34.52,33.47h-6c-.55,0-1-.45-1-1s.45-1,1-1h6c.55,0,1,.45,1,1s-.45,1-1,1Z"/>
  <path class="cls-1" d="m38.52,37.47h-10c-.55,0-1-.45-1-1s.45-1,1-1h10c.55,0,1,.45,1,1s-.45,1-1,1Z"/>
  <path class="cls-1" d="m34.52,41.47h-6c-.55,0-1-.45-1-1s.45-1,1-1h6c.55,0,1,.45,1,1s-.45,1-1,1Z"/>
</svg>