<?xml version="1.0" encoding="UTF-8"?>
<svg id="Layer_1" data-name="Layer 1" xmlns="http://www.w3.org/2000/svg" viewBox="0 0 60 60">
  <defs>
    <style>
      .cls-1 {
        fill: #37464c;
        stroke-width: 0px;
      }
    </style>
  </defs>
  <path class="cls-1" d="m52.06,53.53H6.06c-2.76,0-5-2.24-5-5v-2c0-.55.45-1,1-1h23c.55,0,1,.45,1,1s.45,1,1,1h4c.55,0,1-.45,1-1s.45-1,1-1h23c.55,0,1,.45,1,1v2c0,2.76-2.24,5-5,5ZM3.06,47.53v1c0,1.65,1.35,3,3,3h46c1.65,0,3-1.35,3-3v-1h-21.17c-.41,1.16-1.53,2-2.83,2h-4c-1.3,0-2.42-.84-2.83-2H3.06Z"/>
  <path class="cls-1" d="m6.06,47.53c-.55,0-1-.45-1-1v-27c0-2.21,1.79-4,4-4h29c.55,0,1,.45,1,1s-.45,1-1,1H9.06c-1.1,0-2,.9-2,2v27c0,.55-.45,1-1,1Z"/>
  <path class="cls-1" d="m52.06,47.53c-.55,0-1-.45-1-1v-20c0-.55.45-1,1-1s1,.45,1,1v20c0,.55-.45,1-1,1Z"/>
  <path class="cls-1" d="m10.06,43.53c-.26,0-.51-.1-.71-.29-.39-.39-.39-1.02,0-1.41l12-12c.39-.39,1.02-.39,1.41,0l7.29,7.29,19.29-19.29c.39-.39,1.02-.39,1.41,0l2.29,2.29v-8.59h-8.59l2.29,2.29c.39.39.39,1.02,0,1.41l-16,16c-.39.39-1.02.39-1.41,0l-7.29-7.29-11.29,11.29c-.39.39-1.02.39-1.41,0s-.39-1.02,0-1.41l12-12c.39-.39,1.02-.39,1.41,0l7.29,7.29,14.59-14.59-3.29-3.29c-.29-.29-.37-.72-.22-1.09.15-.37.52-.62.92-.62h12c.55,0,1,.45,1,1v12c0,.4-.24.77-.62.92-.37.16-.8.07-1.09-.22l-3.29-3.29-19.29,19.29c-.39.39-1.02.39-1.41,0l-7.29-7.29-11.29,11.29c-.2.2-.45.29-.71.29Z"/>
</svg>