<?xml version="1.0" encoding="UTF-8"?>
<svg id="Layer_1" data-name="Layer 1" xmlns="http://www.w3.org/2000/svg" viewBox="0 0 60 60">
  <defs>
    <style>
      .cls-1 {
        fill: #37464c;
        stroke-width: 0px;
      }
    </style>
  </defs>
  <g>
    <path class="cls-1" d="m40.59,25.09c-.17,0-.33-.06-.46-.19l-5.13-5.13c-.12-.12-.19-.29-.19-.46s.07-.34.19-.46l2.05-2.05c.25-.25.67-.25.92,0l2.62,2.62,6.72-6.72c.25-.25.67-.25.92,0l2.05,2.05c.25.25.25.67,0,.92l-9.24,9.24c-.13.13-.29.19-.46.19Zm-4.21-5.78l4.21,4.21,8.32-8.32-1.13-1.13-6.72,6.72c-.25.25-.67.25-.92,0l-2.62-2.62-1.13,1.13Z"/>
    <path class="cls-1" d="m42.64,32.63c-7.62,0-13.83-6.2-13.83-13.83s6.2-13.83,13.83-13.83,13.83,6.2,13.83,13.83-6.2,13.83-13.83,13.83Zm0-25.65c-6.52,0-11.83,5.31-11.83,11.83s5.31,11.83,11.83,11.83,11.83-5.31,11.83-11.83-5.31-11.83-11.83-11.83Z"/>
  </g>
  <g>
    <path class="cls-1" d="m31.74,27.18H3.53c-.55,0-1-.45-1-1s.45-1,1-1h28.21c.55,0,1,.45,1,1s-.45,1-1,1Z"/>
    <path class="cls-1" d="m37.75,32.07h-5.33c-.55,0-1-.45-1-1s.45-1,1-1h5.33c.55,0,1,.45,1,1s-.45,1-1,1Zm-9.33,0h-14c-.55,0-1-.45-1-1s.45-1,1-1h14c.55,0,1,.45,1,1s-.45,1-1,1Zm-18,0h-2c-.55,0-1-.45-1-1s.45-1,1-1h2c.55,0,1,.45,1,1s-.45,1-1,1Z"/>
    <path class="cls-1" d="m37.75,38.59h-5.33c-.55,0-1-.45-1-1s.45-1,1-1h5.33c.55,0,1,.45,1,1s-.45,1-1,1Zm-9.33,0h-14c-.55,0-1-.45-1-1s.45-1,1-1h14c.55,0,1,.45,1,1s-.45,1-1,1Zm-18,0h-2c-.55,0-1-.45-1-1s.45-1,1-1h2c.55,0,1,.45,1,1s-.45,1-1,1Z"/>
    <path class="cls-1" d="m37.75,35.33h-2c-.55,0-1-.45-1-1s.45-1,1-1h2c.55,0,1,.45,1,1s-.45,1-1,1Zm-6,0h-14c-.55,0-1-.45-1-1s.45-1,1-1h14c.55,0,1,.45,1,1s-.45,1-1,1Zm-18,0h-5.33c-.55,0-1-.45-1-1s.45-1,1-1h5.33c.55,0,1,.45,1,1s-.45,1-1,1Z"/>
    <path class="cls-1" d="m37.75,45.1h-5.33c-.55,0-1-.45-1-1s.45-1,1-1h5.33c.55,0,1,.45,1,1s-.45,1-1,1Zm-9.33,0h-14c-.55,0-1-.45-1-1s.45-1,1-1h14c.55,0,1,.45,1,1s-.45,1-1,1Zm-18,0h-2c-.55,0-1-.45-1-1s.45-1,1-1h2c.55,0,1,.45,1,1s-.45,1-1,1Z"/>
    <path class="cls-1" d="m37.75,41.84h-6c-.55,0-1-.45-1-1s.45-1,1-1h6c.55,0,1,.45,1,1s-.45,1-1,1Zm-10,0h-4c-.55,0-1-.45-1-1s.45-1,1-1h4c.55,0,1,.45,1,1s-.45,1-1,1Zm-8,0h-8c-.55,0-1-.45-1-1s.45-1,1-1h8c.55,0,1,.45,1,1s-.45,1-1,1Z"/>
    <path class="cls-1" d="m6.79,23.92c-.27,0-.52-.11-.71-.3-.19-.18-.29-.44-.29-.7,0-.13.02-.26.07-.38.05-.13.13-.23.22-.33.09-.09.2-.16.32-.21.25-.11.52-.11.77,0,.12.05.23.12.32.21.09.1.17.2.22.33.05.12.07.25.07.38,0,.27-.1.52-.29.7-.09.1-.2.17-.32.22s-.25.08-.38.08Z"/>
    <path class="cls-1" d="m10.05,23.92c-.14,0-.27-.03-.39-.08s-.23-.12-.32-.22c-.1-.09-.17-.2-.22-.32s-.08-.25-.08-.38.03-.26.08-.38c.05-.13.12-.23.22-.33.04-.04.09-.09.15-.12.05-.04.11-.07.17-.09.06-.03.13-.05.19-.06.13-.03.26-.03.39,0,.06.01.13.03.19.06.06.02.12.05.17.09.05.03.11.08.15.12.09.1.17.2.22.33.05.12.08.25.08.38s-.03.26-.08.38c-.05.12-.12.23-.22.32-.18.19-.44.3-.7.3Z"/>
    <path class="cls-1" d="m13.3,23.92c-.13,0-.26-.03-.38-.08s-.23-.12-.32-.21c-.19-.19-.29-.44-.29-.71,0-.13.02-.26.07-.38.05-.13.12-.23.22-.33.36-.37,1.04-.37,1.41,0,.19.19.3.45.3.71s-.11.52-.3.71c-.09.09-.2.16-.32.21s-.25.08-.39.08Z"/>
    <path class="cls-1" d="m39.38,49.99H6.79c-2.35,0-4.26-1.91-4.26-4.26v-22.81c0-2.35,1.91-4.26,4.26-4.26h23.02v2H6.79c-1.25,0-2.26,1.01-2.26,2.26v22.81c0,1.25,1.01,2.26,2.26,2.26h32.59c1.25,0,2.26-1.01,2.26-2.26v-13.66h2v13.66c0,2.35-1.91,4.26-4.26,4.26Z"/>
    <rect class="cls-1" x="41.64" y="31.63" width="2" height=".45"/>
    <path class="cls-1" d="m44.27,54.88H11.68c-2.35,0-4.26-1.91-4.26-4.26v-1.63h2v1.63c0,1.25,1.01,2.26,2.26,2.26h32.59c1.25,0,2.26-1.01,2.26-2.26v-19.96h2v19.96c0,2.35-1.91,4.26-4.26,4.26Z"/>
  </g>
</svg>