<?xml version="1.0" encoding="UTF-8"?>
<svg id="Layer_1" data-name="Layer 1" xmlns="http://www.w3.org/2000/svg" viewBox="0 0 60 60">
  <defs>
    <style>
      .cls-1 {
        fill: #37464c;
        stroke-width: 0px;
      }
    </style>
  </defs>
  <g>
    <path class="cls-1" d="m52.74,54.13H7.54c-1.71,0-3.1-1.39-3.1-3.1v-23.28c0-.32.26-.59.59-.59s.59.26.59.59v23.28c0,1.06.86,1.93,1.93,1.93h45.2c1.06,0,1.93-.86,1.93-1.93v-23.88c0-.32.26-.59.59-.59s.59.26.59.59v23.88c0,1.71-1.39,3.1-3.1,3.1Z"/>
    <path class="cls-1" d="m52.74,54.51H7.54c-1.92,0-3.48-1.56-3.48-3.48v-23.28c0-.53.43-.96.96-.96s.96.43.96.96v23.28c0,.86.7,1.55,1.55,1.55h45.2c.86,0,1.55-.7,1.55-1.55v-23.88c0-.53.43-.96.96-.96s.96.43.96.96v23.88c0,1.92-1.56,3.48-3.48,3.48ZM5.02,27.54c-.12,0-.21.1-.21.21v23.28c0,1.5,1.22,2.73,2.73,2.73h45.2c1.5,0,2.73-1.22,2.73-2.73v-23.88c0-.23-.42-.23-.42,0v23.88c0,1.27-1.03,2.3-2.3,2.3H7.54c-1.27,0-2.3-1.03-2.3-2.3v-23.28c0-.12-.1-.21-.21-.21Z"/>
  </g>
  <g>
    <g>
      <path class="cls-1" d="m8.97,29.94c-2.66,0-4.82-2.16-4.82-4.82v-9.16c0-.32.26-.59.59-.59s.59.26.59.59v9.16c0,2.01,1.64,3.65,3.65,3.65s3.65-1.64,3.65-3.65v-8.08c0-.32.26-.59.59-.59s.59.26.59.59v8.08c0,2.66-2.16,4.82-4.82,4.82Z"/>
      <path class="cls-1" d="m8.97,30.31c-2.86,0-5.2-2.33-5.2-5.2v-9.16c0-.53.43-.96.96-.96s.96.43.96.96v9.16c0,1.8,1.47,3.27,3.27,3.27s3.27-1.47,3.27-3.27v-8.08c0-.53.43-.96.96-.96s.96.43.96.96v8.08c0,2.87-2.33,5.2-5.2,5.2Zm-4.23-14.57c-.12,0-.21.09-.21.21v9.16c0,2.45,1.99,4.45,4.45,4.45s4.45-1.99,4.45-4.45v-8.08c0-.23-.42-.23-.42,0v8.08c0,2.22-1.8,4.02-4.02,4.02s-4.02-1.8-4.02-4.02v-9.16c0-.12-.1-.21-.21-.21Z"/>
    </g>
    <g>
      <path class="cls-1" d="m17.44,29.94c-2.66,0-4.82-2.16-4.82-4.82v-8.08c0-.32.26-.59.59-.59h8.47c.32,0,.59.26.59.59v8.08c0,2.66-2.16,4.82-4.82,4.82Zm-3.65-12.31v7.49c0,2.01,1.64,3.65,3.65,3.65s3.65-1.64,3.65-3.65v-7.49h-7.29Z"/>
      <path class="cls-1" d="m17.44,30.31c-2.87,0-5.2-2.33-5.2-5.2v-8.08c0-.53.43-.96.96-.96h8.47c.53,0,.96.43.96.96v8.08c0,2.87-2.33,5.2-5.2,5.2Zm-4.23-13.49c-.12,0-.21.1-.21.21v8.08c0,2.45,1.99,4.45,4.45,4.45s4.45-1.99,4.45-4.45v-8.08c0-.12-.1-.21-.21-.21h-8.47Zm4.23,12.31c-2.22,0-4.02-1.8-4.02-4.02v-7.87h8.04v7.87c0,2.22-1.8,4.02-4.02,4.02Zm-3.27-11.14v7.12c0,1.8,1.47,3.27,3.27,3.27s3.27-1.47,3.27-3.27v-7.12h-6.54Z"/>
    </g>
    <g>
      <path class="cls-1" d="m25.9,29.94c-2.66,0-4.82-2.16-4.82-4.82v-8.08c0-.32.26-.59.59-.59h8.47c.32,0,.59.26.59.59v8.08c0,2.66-2.16,4.82-4.82,4.82Zm-3.65-12.31v7.49c0,2.01,1.64,3.65,3.65,3.65s3.65-1.64,3.65-3.65v-7.49h-7.29Z"/>
      <path class="cls-1" d="m25.9,30.31c-2.87,0-5.2-2.33-5.2-5.2v-8.08c0-.53.43-.96.96-.96h8.47c.53,0,.96.43.96.96v8.08c0,2.86-2.33,5.2-5.2,5.2Zm-4.23-13.49c-.12,0-.21.1-.21.21v8.08c0,2.45,1.99,4.45,4.45,4.45s4.45-1.99,4.45-4.45v-8.08c0-.12-.1-.21-.21-.21h-8.47Zm4.23,12.31c-2.22,0-4.02-1.8-4.02-4.02v-7.87h8.04v7.87c0,2.22-1.8,4.02-4.02,4.02Zm-3.27-11.14v7.12c0,1.8,1.47,3.27,3.27,3.27s3.27-1.47,3.27-3.27v-7.12h-6.54Z"/>
    </g>
    <g>
      <path class="cls-1" d="m34.37,29.94c-2.66,0-4.82-2.16-4.82-4.82v-8.08c0-.32.26-.59.59-.59h8.47c.32,0,.59.26.59.59v8.08c0,2.66-2.16,4.82-4.82,4.82Zm-3.65-12.31v7.49c0,2.01,1.64,3.65,3.65,3.65s3.65-1.64,3.65-3.65v-7.49h-7.29Z"/>
      <path class="cls-1" d="m34.37,30.31c-2.86,0-5.2-2.33-5.2-5.2v-8.08c0-.53.43-.96.96-.96h8.47c.53,0,.96.43.96.96v8.08c0,2.87-2.33,5.2-5.2,5.2Zm-4.23-13.49c-.12,0-.21.1-.21.21v8.08c0,2.45,1.99,4.45,4.45,4.45s4.45-1.99,4.45-4.45v-8.08c0-.12-.09-.21-.21-.21h-8.47Zm4.23,12.31c-2.22,0-4.02-1.8-4.02-4.02v-7.87h8.04v7.87c0,2.22-1.8,4.02-4.02,4.02Zm-3.27-11.14v7.12c0,1.8,1.47,3.27,3.27,3.27s3.27-1.47,3.27-3.27v-7.12h-6.54Z"/>
    </g>
    <g>
      <path class="cls-1" d="m42.84,29.94c-2.66,0-4.82-2.16-4.82-4.82v-8.08c0-.32.26-.59.59-.59h8.47c.32,0,.59.26.59.59v8.08c0,2.66-2.16,4.82-4.82,4.82Zm-3.65-12.31v7.49c0,2.01,1.64,3.65,3.65,3.65s3.65-1.64,3.65-3.65v-7.49h-7.29Z"/>
      <path class="cls-1" d="m42.84,30.31c-2.87,0-5.2-2.33-5.2-5.2v-8.08c0-.53.43-.96.96-.96h8.47c.53,0,.96.43.96.96v8.08c0,2.87-2.33,5.2-5.2,5.2Zm-4.23-13.49c-.12,0-.21.1-.21.21v8.08c0,2.45,1.99,4.45,4.45,4.45s4.45-1.99,4.45-4.45v-8.08c0-.12-.1-.21-.21-.21h-8.47Zm4.23,12.31c-2.22,0-4.02-1.8-4.02-4.02v-7.87h8.04v7.87c0,2.22-1.8,4.02-4.02,4.02Zm-3.27-11.14v7.12c0,1.8,1.47,3.27,3.27,3.27s3.27-1.47,3.27-3.27v-7.12h-6.54Z"/>
    </g>
    <g>
      <path class="cls-1" d="m51.31,29.94c-2.66,0-4.82-2.16-4.82-4.82v-8.08c0-.32.26-.59.59-.59s.59.26.59.59v8.08c0,2.01,1.64,3.65,3.65,3.65s3.65-1.64,3.65-3.65v-9.16c0-.32.26-.59.59-.59s.59.26.59.59v9.16c0,2.66-2.16,4.82-4.82,4.82Z"/>
      <path class="cls-1" d="m51.31,30.31c-2.87,0-5.2-2.33-5.2-5.2v-8.08c0-.53.43-.96.96-.96s.96.43.96.96v8.08c0,1.8,1.47,3.27,3.27,3.27s3.27-1.47,3.27-3.27v-9.16c0-.53.43-.96.96-.96s.96.43.96.96v9.16c0,2.87-2.33,5.2-5.2,5.2Zm-4.23-13.49c-.12,0-.21.1-.21.21v8.08c0,2.45,1.99,4.45,4.45,4.45s4.45-1.99,4.45-4.45v-9.16c0-.23-.42-.23-.42,0v9.16c0,2.22-1.8,4.02-4.02,4.02s-4.02-1.8-4.02-4.02v-8.08c0-.12-.1-.21-.21-.21Z"/>
    </g>
  </g>
  <g>
    <path class="cls-1" d="m53.99,17.62H6.29c-.7,0-1.34-.34-1.75-.93-.42-.6-.51-1.37-.25-2.06l2.28-6.02c.32-.85,1.1-1.4,1.99-1.4h43.14c.89,0,1.67.55,1.99,1.4l2.28,6.02c.26.69.17,1.46-.25,2.06-.41.59-1.04.93-1.75.93ZM8.57,8.4c-.4,0-.75.25-.9.64l-2.28,6.02c-.12.33-.08.69.12.98.18.27.47.42.78.42h47.7c.31,0,.6-.15.78-.42.2-.28.24-.65.12-.97l-2.28-6.02c-.15-.39-.5-.64-.9-.64H8.57Z"/>
    <path class="cls-1" d="m53.99,18H6.29c-.83,0-1.58-.4-2.06-1.09-.49-.7-.59-1.6-.29-2.4l2.28-6.02c.38-1,1.3-1.64,2.34-1.64h43.14c1.05,0,1.97.64,2.34,1.64l2.28,6.02c.3.8.2,1.7-.29,2.4-.48.69-1.23,1.09-2.06,1.09ZM8.57,7.6c-.73,0-1.38.45-1.64,1.16l-2.28,6.02c-.22.57-.14,1.21.21,1.71.33.49.86.76,1.44.76h47.7c.58,0,1.1-.28,1.44-.76.35-.5.42-1.14.21-1.71l-2.28-6.02c-.27-.7-.91-1.16-1.64-1.16H8.57Zm45.42,9.23H6.29c-.44,0-.83-.21-1.09-.58-.27-.39-.33-.88-.16-1.32l2.28-6.02c.2-.54.69-.88,1.25-.88h43.14c.55,0,1.04.35,1.25.88l2.28,6.02c.17.44.11.93-.16,1.32-.25.37-.65.58-1.09.58ZM8.57,8.77c-.24,0-.45.16-.55.4l-2.28,6.02c-.08.21-.05.45.07.63.11.17.28.26.47.26h47.7c.19,0,.36-.09.47-.26.13-.18.15-.42.07-.63l-2.28-6.02c-.09-.24-.31-.4-.55-.4H8.57Z"/>
  </g>
  <g>
    <path class="cls-1" d="m32.64,43.92H10.22c-.32,0-.59-.26-.59-.59v-13.98c0-.32.26-.59.59-.59s.59.26.59.59v13.4h21.24v-13.33c0-.32.26-.59.59-.59s.59.26.59.59v13.92c0,.32-.26.59-.59.59Z"/>
    <path class="cls-1" d="m32.64,44.3H10.22c-.53,0-.96-.43-.96-.96v-13.98c0-.53.43-.96.96-.96s.96.43.96.96v13.02h20.49v-12.95c0-.53.43-.96.96-.96s.96.43.96.96v13.92c0,.53-.43.96-.96.96Zm-22.41-15.16c-.12,0-.21.1-.21.21v13.98c0,.12.1.21.21.21h22.41c.12,0,.21-.09.21-.21v-13.92c0-.23-.42-.23-.42,0v13.7H10.44v-13.77c0-.12-.1-.21-.21-.21Z"/>
  </g>
  <g>
    <path class="cls-1" d="m51.31,54.13h-13.92c-.32,0-.59-.26-.59-.59v-25.46c0-.32.26-.59.59-.59s.59.26.59.59v24.87h12.75v-23.61c0-.32.26-.59.59-.59s.59.26.59.59v24.19c0,.32-.26.59-.59.59Z"/>
    <path class="cls-1" d="m51.31,54.51h-13.92c-.53,0-.96-.43-.96-.96v-25.46c0-.53.43-.96.96-.96s.96.43.96.96v24.5h12v-23.23c0-.53.43-.96.96-.96s.96.43.96.96v24.19c0,.53-.43.96-.96.96Zm-13.92-26.63c-.12,0-.21.1-.21.21v25.46c0,.12.1.21.21.21h13.92c.12,0,.21-.09.21-.21v-24.19c0-.23-.42-.23-.42,0v23.98h-13.5v-25.25c0-.12-.1-.21-.21-.21Z"/>
  </g>
  <g>
    <path class="cls-1" d="m48.79,43.58h-8.87c-.32,0-.59-.26-.59-.59v-10.84c0-.32.26-.59.59-.59h8.87c.32,0,.59.26.59.59v10.84c0,.32-.26.59-.59.59Zm-8.29-1.17h7.7v-9.67h-7.7v9.67Z"/>
    <path class="cls-1" d="m48.79,43.96h-8.87c-.53,0-.96-.43-.96-.96v-10.84c0-.53.43-.96.96-.96h8.87c.53,0,.96.43.96.96v10.84c0,.53-.43.96-.96.96Zm-8.87-12.02c-.12,0-.21.09-.21.21v10.84c0,.12.09.21.21.21h8.87c.12,0,.21-.09.21-.21v-10.84c0-.12-.09-.21-.21-.21h-8.87Zm8.66,10.84h-8.45v-10.42h8.45v10.42Zm-7.7-.75h6.95v-8.92h-6.95v8.92Z"/>
  </g>
  <g>
    <path class="cls-1" d="m32.79,47.19H10.07c-.8,0-1.46-.65-1.46-1.46v-1.53c0-.8.65-1.46,1.46-1.46h22.72c.8,0,1.46.65,1.46,1.46v1.53c0,.8-.65,1.46-1.46,1.46Zm-22.72-3.27c-.16,0-.29.13-.29.29v1.53c0,.16.13.29.29.29h22.72c.16,0,.29-.13.29-.29v-1.53c0-.16-.13-.29-.29-.29H10.07Z"/>
    <path class="cls-1" d="m32.79,47.57H10.07c-1.01,0-1.83-.82-1.83-1.83v-1.53c0-1.01.82-1.83,1.83-1.83h22.72c1.01,0,1.83.82,1.83,1.83v1.53c0,1.01-.82,1.83-1.83,1.83Zm-22.72-4.45c-.6,0-1.08.49-1.08,1.08v1.53c0,.6.49,1.08,1.08,1.08h22.72c.6,0,1.08-.49,1.08-1.08v-1.53c0-.6-.49-1.08-1.08-1.08H10.07Zm22.72,3.27H10.07c-.36,0-.66-.3-.66-.66v-1.53c0-.36.3-.66.66-.66h22.72c.36,0,.66.3.66.66v1.53c0,.36-.3.66-.66.66Zm-22.63-.75h22.54v-1.35H10.16v1.35Z"/>
  </g>
  <g>
    <path class="cls-1" d="m42.78,46.43h-2.86c-.32,0-.59-.26-.59-.59s.26-.59.59-.59h2.86c.32,0,.59.26.59.59s-.26.59-.59.59Z"/>
    <path class="cls-1" d="m42.78,46.8h-2.86c-.53,0-.96-.43-.96-.96s.43-.96.96-.96h2.86c.53,0,.96.43.96.96s-.43.96-.96.96Zm-2.86-1.17c-.12,0-.21.09-.21.21s.09.21.21.21h2.86c.12,0,.21-.09.21-.21s-.1-.21-.21-.21h-2.86Z"/>
  </g>
</svg>