<?xml version="1.0" encoding="UTF-8"?>
<svg id="Layer_1" data-name="Layer 1" xmlns="http://www.w3.org/2000/svg" viewBox="0 0 60 60">
  <defs>
    <style>
      .cls-1 {
        fill: #37464c;
        stroke-width: 0px;
      }
    </style>
  </defs>
  <path class="cls-1" d="m48.65,29.59c-.55,0-1-.45-1-1v-14.96c0-.08-.07-.15-.15-.15h-4.6c-.55,0-1-.45-1-1s.45-1,1-1h4.6c1.19,0,2.15.97,2.15,2.15v14.96c0,.55-.45,1-1,1Z"/>
  <path class="cls-1" d="m26.78,46.86H7.21c-1.19,0-2.15-.97-2.15-2.15V13.63c0-1.19.96-2.15,2.15-2.15h4.6c.55,0,1,.45,1,1s-.45,1-1,1h-4.6c-.08,0-.15.07-.15.15v31.08c0,.08.07.15.15.15h19.57c.55,0,1,.45,1,1s-.45,1-1,1Z"/>
  <rect class="cls-1" x="6.06" y="20.69" width="42.59" height="2"/>
  <path class="cls-1" d="m39.45,15.78c-.55,0-1-.45-1-1v-4.6c0-.55.45-1,1-1s1,.45,1,1v4.6c0,.55-.45,1-1,1Z"/>
  <path class="cls-1" d="m35.99,13.48h-17.27c-.55,0-1-.45-1-1s.45-1,1-1h17.27c.55,0,1,.45,1,1s-.45,1-1,1Z"/>
  <path class="cls-1" d="m15.27,15.78c-.55,0-1-.45-1-1v-4.6c0-.55.45-1,1-1s1,.45,1,1v4.6c0,.55-.45,1-1,1Z"/>
  <rect class="cls-1" x="18.73" y="26.44" width="3.45" height="2"/>
  <rect class="cls-1" x="24.48" y="26.44" width="3.45" height="2"/>
  <rect class="cls-1" x="30.24" y="26.44" width="3.45" height="2"/>
  <rect class="cls-1" x="35.99" y="26.44" width="3.45" height="2"/>
  <rect class="cls-1" x="12.97" y="32.2" width="3.45" height="2"/>
  <rect class="cls-1" x="18.73" y="32.2" width="3.45" height="2"/>
  <rect class="cls-1" x="24.48" y="32.2" width="3.45" height="2"/>
  <rect class="cls-1" x="30.24" y="32.2" width="3.45" height="2"/>
  <rect class="cls-1" x="35.99" y="32.2" width="3.45" height="2"/>
  <rect class="cls-1" x="12.97" y="37.95" width="3.45" height="2"/>
  <rect class="cls-1" x="18.73" y="37.95" width="3.45" height="2"/>
  <rect class="cls-1" x="24.48" y="37.95" width="3.45" height="2"/>
  <path class="cls-1" d="m39.57,52.61c-.26,0-.51-.1-.71-.29l-9.33-9.33c-.19-.19-.29-.44-.29-.71s.11-.52.29-.71l4-4c.39-.39,1.02-.39,1.41,0l4.62,4.62,11.29-11.29c.39-.39,1.02-.39,1.41,0l4,4c.19.19.29.44.29.71s-.11.52-.29.71l-16,15.99c-.2.2-.45.29-.71.29Zm-7.92-10.33l7.92,7.92,14.58-14.58-2.58-2.58-11.29,11.29c-.19.19-.44.29-.71.29h0c-.27,0-.52-.11-.71-.29l-4.62-4.62-2.58,2.58Z"/>
</svg>