<?xml version="1.0" encoding="UTF-8"?>
<svg id="Layer_1" data-name="Layer 1" xmlns="http://www.w3.org/2000/svg" viewBox="0 0 60 60">
  <defs>
    <style>
      .cls-1 {
        fill: #37464c;
        stroke-width: 0px;
      }
    </style>
  </defs>
  <path class="cls-1" d="m53.24,52.61H6.34c-1.18,0-2.14-.96-2.14-2.14V11.58c0-1.18.96-2.14,2.14-2.14h5.72c.55,0,1,.45,1,1s-.45,1-1,1h-5.72c-.08,0-.14.06-.14.14v38.89c0,.08.06.14.14.14h46.89c.08,0,.14-.06.14-.14V11.58c0-.08-.06-.14-.14-.14h-5.72c-.55,0-1-.45-1-1s.45-1,1-1h5.72c1.18,0,2.14.96,2.14,2.14v38.89c0,1.18-.96,2.14-2.14,2.14Z"/>
  <rect class="cls-1" x="5.2" y="18.58" width="49.18" height="2"/>
  <path class="cls-1" d="m44.09,13.72c-.55,0-1-.45-1-1v-5.72c0-.55.45-1,1-1s1,.45,1,1v5.72c0,.55-.45,1-1,1Z"/>
  <path class="cls-1" d="m40.66,11.43h-21.73c-.55,0-1-.45-1-1s.45-1,1-1h21.73c.55,0,1,.45,1,1s-.45,1-1,1Z"/>
  <path class="cls-1" d="m15.49,13.72c-.55,0-1-.45-1-1v-5.72c0-.55.45-1,1-1s1,.45,1,1v5.72c0,.55-.45,1-1,1Z"/>
  <path class="cls-1" d="m27.05,46.89c-.26,0-.51-.1-.71-.29l-9.27-9.27c-.39-.39-.39-1.02,0-1.41l3.97-3.97c.39-.39,1.02-.39,1.41,0l4.59,4.59,11.21-11.21c.39-.39,1.02-.39,1.41,0l3.97,3.97c.39.39.39,1.02,0,1.41l-15.89,15.89c-.2.2-.45.29-.71.29Zm-7.86-10.27l7.86,7.86,14.48-14.48-2.56-2.56-11.21,11.21c-.39.39-1.02.39-1.41,0l-4.59-4.59-2.56,2.56Z"/>
</svg>