<?xml version="1.0" encoding="UTF-8"?>
<svg id="Layer_1" data-name="Layer 1" xmlns="http://www.w3.org/2000/svg" viewBox="0 0 60 60">
  <defs>
    <style>
      .cls-1 {
        fill: #37464c;
        stroke-width: 0px;
      }
    </style>
  </defs>
  <path class="cls-1" d="m29.27,50.13c-2.38,0-4.31-1.93-4.31-4.31s1.93-4.31,4.31-4.31,4.31,1.93,4.31,4.31-1.93,4.31-4.31,4.31Zm0-6.62c-1.27,0-2.31,1.04-2.31,2.31s1.04,2.31,2.31,2.31,2.31-1.04,2.31-2.31-1.04-2.31-2.31-2.31Z"/>
  <path class="cls-1" d="m31.2,57.86h-3.86c-.43,0-.81-.27-.95-.68l-.67-1.99c-.19-.07-.38-.15-.56-.23l-1.88.93c-.38.19-.85.11-1.15-.19l-2.73-2.73c-.3-.3-.38-.77-.19-1.15l.93-1.89c-.08-.18-.16-.37-.23-.56l-1.99-.67c-.41-.14-.68-.52-.68-.95v-3.86c0-.43.27-.81.68-.95l1.98-.67c.07-.19.15-.38.24-.57l-.93-1.88c-.19-.38-.11-.85.19-1.15l2.73-2.73c.3-.3.77-.38,1.15-.19l1.88.93c.18-.08.37-.16.56-.23l.67-1.99c.14-.41.52-.68.95-.68h3.86c.43,0,.81.27.95.68l.67,2c.19.07.38.15.56.23l1.88-.93c.38-.19.85-.11,1.15.19l2.73,2.73c.3.3.38.77.19,1.15l-.93,1.88c.08.18.16.37.23.56l1.99.67c.41.14.68.52.68.95v3.86c0,.43-.27.81-.68.95l-1.98.67c-.07.19-.15.38-.24.57l.93,1.88c.19.38.11.85-.19,1.15l-2.73,2.73c-.3.3-.77.38-1.15.19l-1.88-.93c-.18.08-.37.16-.56.23l-.67,1.99c-.14.41-.52.68-.95.68Zm-3.14-2h2.42l.6-1.78c.1-.3.34-.54.65-.63.42-.13.83-.3,1.21-.49.28-.14.61-.14.9,0l1.67.83,1.72-1.72-.83-1.67c-.14-.28-.14-.62,0-.9.2-.39.37-.8.5-1.21.1-.3.33-.54.63-.64l1.77-.6v-2.43l-1.78-.6c-.3-.1-.54-.34-.64-.65-.13-.42-.3-.83-.49-1.21-.14-.28-.14-.61,0-.9l.83-1.67-1.72-1.72-1.67.83c-.28.14-.61.14-.9,0-.38-.19-.79-.36-1.21-.49-.31-.1-.55-.33-.65-.63l-.6-1.78h-2.42l-.6,1.78c-.1.3-.34.54-.65.63-.42.13-.83.3-1.21.49-.28.14-.61.14-.9,0l-1.67-.83-1.72,1.72.83,1.67c.14.28.14.62,0,.9-.2.39-.37.8-.5,1.21-.1.3-.33.54-.63.64l-1.76.6v2.43l1.78.6c.3.1.54.34.63.65.13.42.3.83.49,1.21.14.28.14.61,0,.9l-.83,1.68,1.72,1.72,1.67-.83c.28-.14.61-.14.9,0,.38.19.79.36,1.21.49.3.1.54.33.65.63l.6,1.78Z"/>
  <path class="cls-1" d="m14.92,34.68c-2.38,0-4.31-1.93-4.31-4.31s1.93-4.31,4.31-4.31,4.31,1.93,4.31,4.31-1.93,4.31-4.31,4.31Zm0-6.62c-1.27,0-2.31,1.04-2.31,2.31s1.04,2.31,2.31,2.31,2.31-1.04,2.31-2.31-1.04-2.31-2.31-2.31Z"/>
  <path class="cls-1" d="m14.92,42.41h-1.93c-.43,0-.81-.27-.95-.68l-.67-1.99c-.19-.07-.38-.15-.56-.23l-1.88.93c-.38.19-.85.11-1.15-.19l-2.73-2.73c-.3-.3-.38-.77-.19-1.15l.93-1.88c-.08-.18-.16-.37-.23-.56l-1.99-.67c-.41-.14-.68-.52-.68-.95v-3.86c0-.43.27-.81.68-.95l1.98-.67c.07-.19.15-.38.24-.57l-.93-1.88c-.19-.38-.11-.85.19-1.15l2.73-2.73c.3-.3.77-.38,1.15-.19l1.88.93c.18-.08.37-.16.56-.23l.67-1.99c.14-.41.52-.68.95-.68h3.86c.43,0,.81.27.95.68l.67,1.99c.16.06.31.12.47.19l.13-.09c.45-.32,1.07-.21,1.39.24.32.45.21,1.07-.24,1.39l-.6.43c-.3.21-.7.24-1.03.08-.38-.19-.79-.36-1.21-.49-.31-.1-.55-.33-.65-.63l-.6-1.78h-2.42l-.6,1.78c-.1.3-.34.54-.65.63-.42.13-.83.3-1.21.49-.28.14-.61.14-.9,0l-1.67-.83-1.72,1.72.83,1.67c.14.28.14.62,0,.9-.2.39-.37.8-.5,1.21-.1.3-.33.54-.63.64l-1.76.6v2.43l1.78.6c.3.1.54.34.63.65.13.42.3.83.49,1.21.14.28.14.61,0,.9l-.83,1.67,1.72,1.72,1.67-.83c.28-.14.61-.14.9,0,.38.19.79.36,1.21.49.31.1.55.33.65.63l.6,1.78h1.21c.55,0,1,.45,1,1s-.45,1-1,1Z"/>
  <path class="cls-1" d="m23.75,32.34c-.55,0-1-.45-1-1V12.72c0-1.16.94-2.1,2.1-2.1h2.21c.55,0,1,.45,1,1s-.45,1-1,1h-2.21c-.06,0-.1.05-.1.1v18.62c0,.55-.45,1-1,1Z"/>
  <path class="cls-1" d="m53.54,40.2h-11.03c-.55,0-1-.45-1-1s.45-1,1-1h11.03c.06,0,.1-.05.1-.1V12.72c0-.06-.05-.1-.1-.1h-2.21c-.55,0-1-.45-1-1s.45-1,1-1h2.21c1.16,0,2.1.94,2.1,2.1v25.38c0,1.16-.94,2.1-2.1,2.1Z"/>
  <path class="cls-1" d="m48.03,13.72c-.55,0-1-.45-1-1v-3.31c0-.55.45-1,1-1s1,.45,1,1v3.31c0,.55-.45,1-1,1Z"/>
  <path class="cls-1" d="m44.72,12.61h-11.03c-.55,0-1-.45-1-1s.45-1,1-1h11.03c.55,0,1,.45,1,1s-.45,1-1,1Z"/>
  <path class="cls-1" d="m30.37,13.72c-.55,0-1-.45-1-1v-3.31c0-.55.45-1,1-1s1,.45,1,1v3.31c0,.55-.45,1-1,1Z"/>
  <rect class="cls-1" x="34.79" y="23.86" width="3.31" height="2"/>
  <rect class="cls-1" x="29.27" y="23.86" width="3.31" height="2"/>
  <rect class="cls-1" x="40.3" y="23.86" width="3.31" height="2"/>
  <rect class="cls-1" x="45.82" y="23.86" width="3.31" height="2"/>
  <rect class="cls-1" x="29.27" y="29.37" width="3.31" height="2"/>
  <rect class="cls-1" x="34.79" y="29.37" width="3.31" height="2"/>
  <rect class="cls-1" x="40.3" y="29.37" width="3.31" height="2"/>
  <rect class="cls-1" x="45.82" y="29.37" width="3.31" height="2"/>
  <path class="cls-1" d="m54.65,19.24h-30.9c-.55,0-1-.45-1-1s.45-1,1-1h30.9c.55,0,1,.45,1,1s-.45,1-1,1Z"/>
</svg>