<?xml version="1.0" encoding="UTF-8"?>
<svg id="Layer_1" data-name="Layer 1" xmlns="http://www.w3.org/2000/svg" viewBox="0 0 60 60">
  <defs>
    <style>
      .cls-1 {
        fill: #37464c;
        stroke-width: 0px;
      }
    </style>
  </defs>
  <path class="cls-1" d="m50.69,42.05h-14.65c-.55,0-1-.45-1-1s.45-1,1-1h14.65c.07,0,.13-.06.13-.13V8.38c0-.07-.06-.13-.13-.13h-5.63c-.55,0-1-.45-1-1s.45-1,1-1h5.63c1.17,0,2.13.95,2.13,2.13v31.55c0,1.17-.95,2.13-2.13,2.13Z"/>
  <path class="cls-1" d="m11.26,20.65c-.55,0-1-.45-1-1v-11.27c0-1.17.95-2.13,2.13-2.13h5.63c.55,0,1,.45,1,1s-.45,1-1,1h-5.63c-.07,0-.13.06-.13.13v11.27c0,.55-.45,1-1,1Z"/>
  <path class="cls-1" d="m51.82,17.27H11.26c-.55,0-1-.45-1-1s.45-1,1-1h40.56c.55,0,1,.45,1,1s-.45,1-1,1Z"/>
  <path class="cls-1" d="m21.4,10.51c-.55,0-1-.45-1-1v-4.51c0-.55.45-1,1-1s1,.45,1,1v4.51c0,.55-.45,1-1,1Z"/>
  <path class="cls-1" d="m38.3,8.25h-13.52c-.55,0-1-.45-1-1s.45-1,1-1h13.52c.55,0,1,.45,1,1s-.45,1-1,1Z"/>
  <path class="cls-1" d="m41.68,10.51c-.55,0-1-.45-1-1v-4.51c0-.55.45-1,1-1s1,.45,1,1v4.51c0,.55-.45,1-1,1Z"/>
  <path class="cls-1" d="m26.7,38.56c-2.66,0-7.87-2.12-10.84-4.98-1.53-1.48-2.31-2.99-2.31-4.49,0-.55.45-1,1-1s1,.45,1,1c0,1.17.92,2.31,1.69,3.05,2.72,2.62,7.63,4.5,9.55,4.42.56-.02,1.02.41,1.04.96.02.55-.41,1.02-.96,1.04-.06,0-.11,0-.17,0Z"/>
  <path class="cls-1" d="m25.91,45.43c-.55,0-1-.45-1-1v-6.94c0-.55.45-1,1-1s1,.45,1,1v6.94c0,.55-.45,1-1,1Z"/>
  <path class="cls-1" d="m20.27,53.32c-.55,0-1-.45-1-1v-2.25c0-.55.45-1,1-1s1,.45,1,1v1.2c4.37-.49,7.01-4.15,7.01-6.83,0-.38.21-.73.55-.89l1.7-.85v-5.52l-1.7-.85c-.34-.17-.55-.52-.55-.89v-2.25c0-5.66-4.61-10.27-10.27-10.27s-10.27,4.61-10.27,10.27v2.25c0,.38-.21.73-.55.89l-1.7.85v5.52l1.7.85c.49.25.69.85.45,1.34-.25.49-.85.69-1.34.45l-2.25-1.13c-.34-.17-.55-.52-.55-.89v-6.76c0-.38.21-.73.55-.89l1.7-.85v-1.64c0-6.76,5.5-12.27,12.27-12.27s12.27,5.5,12.27,12.27v1.64l1.7.85c.34.17.55.52.55.89v6.76c0,.38-.21.73-.55.89l-1.73.87c-.38,4.03-4.38,8.25-9.98,8.25Z"/>
  <path class="cls-1" d="m16.87,52.11s-.1,0-.15-.01c-4.33-.63-7.59-4.42-7.59-8.79v-5.63c0-2.43,3.24-5.32,6.25-6.59.51-.21,1.1.02,1.31.53.22.51-.02,1.1-.53,1.31-2.79,1.18-5.03,3.56-5.03,4.75v5.63c0,3.39,2.53,6.32,5.88,6.81.55.08.92.59.84,1.13-.07.5-.5.85-.99.85Z"/>
  <path class="cls-1" d="m7.94,57.83c-.42,0-.82-.27-.95-.7-.17-.53.13-1.09.65-1.25l3.76-1.18c.68-.18,1.12-.67,1.12-1.21v-3.7c0-.55.45-1,1-1s1,.45,1,1v3.7c0,1.46-1.06,2.75-2.57,3.14l-3.71,1.17c-.1.03-.2.05-.3.05Z"/>
  <path class="cls-1" d="m28.1,57.83c-.1,0-.2-.02-.3-.05l-3.76-1.18c-1.46-.37-2.52-1.66-2.52-3.12v-1.43c0-.55.45-1,1-1s1,.45,1,1v1.43c0,.55.44,1.04,1.07,1.2l3.81,1.2c.53.17.82.73.65,1.25-.13.43-.53.7-.95.7Z"/>
</svg>