<?xml version="1.0" encoding="UTF-8"?>
<svg id="Layer_1" data-name="Layer 1" xmlns="http://www.w3.org/2000/svg" version="1.1" viewBox="0 0 60 60">
  <defs>
    <style>
      .cls-1 {
        fill: #37464c;
        stroke-width: 0px;
      }
    </style>
  </defs>
  <path class="cls-1" d="M53.3,10.6h-5.7c-.6,0-1,.5-1,1s.4,1,1,1h5.7c0,0,.1,0,.1.1v7H6.6v-7c0,0,0-.1.1-.1h5.7c.6,0,1-.5,1-1s-.4-1-1-1h-5.7c-1.2,0-2.1,1-2.1,2.1v38.6c0,1.2,1,2.1,2.1,2.1h46.5c1.2,0,2.1-1,2.1-2.1V12.8c0-1.2-1-2.1-2.1-2.1ZM53.3,51.5H6.7c0,0-.1,0-.1-.1v-29.6h46.8v29.6c0,0,0,.1-.1.1Z"/>
  <path class="cls-1" d="M44.2,14.9c.5,0,1-.5,1-1v-5.7c0-.5-.5-1-1-1s-1,.5-1,1v5.7c0,.5.5,1,1,1Z"/>
  <path class="cls-1" d="M19.2,12.6h21.6c.5,0,1-.5,1-1s-.5-1-1-1h-21.6c-.6,0-1,.5-1,1s.4,1,1,1Z"/>
  <path class="cls-1" d="M15.8,14.9c.5,0,1-.5,1-1v-5.7c0-.5-.5-1-1-1s-1,.5-1,1v5.7c0,.5.5,1,1,1Z"/>
  <rect class="cls-1" x="22.1" y="28.8" width="4.4" height="2"/>
  <rect class="cls-1" x="27.8" y="28.8" width="4.4" height="2"/>
  <rect class="cls-1" x="33.5" y="28.8" width="4.4" height="2"/>
  <rect class="cls-1" x="39.2" y="28.8" width="4.4" height="2"/>
  <rect class="cls-1" x="16.5" y="34.5" width="4.4" height="2"/>
  <rect class="cls-1" x="22.1" y="34.5" width="4.4" height="2"/>
  <rect class="cls-1" x="27.8" y="34.5" width="4.4" height="2"/>
  <rect class="cls-1" x="16.5" y="40.1" width="4.4" height="2"/>
  <rect class="cls-1" x="22.1" y="40.1" width="4.4" height="2"/>
  <rect class="cls-1" x="16.5" y="28.8" width="4.4" height="2"/>
  <path class="cls-1" d="M39.7,32.4c-4.6,0-8.3,3.7-8.3,8.3s3.7,8.3,8.3,8.3,8.3-3.7,8.3-8.3-3.7-8.3-8.3-8.3ZM39.7,47.7c-3.9,0-7-3.1-7-7s3.1-7,7-7,7,3.1,7,7-3.1,7-7,7Z"/>
  <path class="cls-1" d="M43.3,38.7h-1.9v-1.9c0-.3-.2-.5-.5-.5h-2.4c-.3,0-.5.2-.5.5v1.9h-1.9c-.3,0-.5.2-.5.5v2.4c0,.3.2.5.5.5h1.9v1.9c0,.3.2.5.5.5h2.4c.3,0,.5-.2.5-.5v-1.9h1.9c.3,0,.5-.2.5-.5v-2.4c0-.3-.2-.5-.5-.5ZM38.4,41.1h-1.9v-1.3h1.9c.3,0,.5-.2.5-.5v-1.9h1.3v1.9c0,.3.2.5.5.5h1.9v1.3h-1.9c-.3,0-.5.2-.5.5v1.9h-1.3v-1.9c0-.3-.2-.5-.5-.5Z"/>
</svg>