<?xml version="1.0" encoding="UTF-8"?>
<svg id="Layer_1" data-name="Layer 1" xmlns="http://www.w3.org/2000/svg" viewBox="0 0 60 60">
  <defs>
    <style>
      .cls-1 {
        fill: #37464c;
        stroke-width: 0px;
      }
    </style>
  </defs>
  <path class="cls-1" d="m49.02,48.61H11.02c-1.1,0-2-.9-2-2V13.61c0-1.1.9-2,2-2h5c.55,0,1,.45,1,1s-.45,1-1,1h-5v33h38v-1c0-.55.45-1,1-1s1,.45,1,1v1c0,1.1-.9,2-2,2Z"/>
  <path class="cls-1" d="m50.02,21.61c-.55,0-1-.45-1-1v-7h-5c-.55,0-1-.45-1-1s.45-1,1-1h5c1.1,0,2,.9,2,2v7c0,.55-.45,1-1,1Z"/>
  <rect class="cls-1" x="10.02" y="19.61" width="40" height="2"/>
  <path class="cls-1" d="m41.02,15.61c-.55,0-1-.45-1-1v-5c0-.55.45-1,1-1s1,.45,1,1v5c0,.55-.45,1-1,1Z"/>
  <path class="cls-1" d="m38.02,13.61h-16c-.55,0-1-.45-1-1s.45-1,1-1h16c.55,0,1,.45,1,1s-.45,1-1,1Z"/>
  <path class="cls-1" d="m19.02,15.61c-.55,0-1-.45-1-1v-5c0-.55.45-1,1-1s1,.45,1,1v5c0,.55-.45,1-1,1Z"/>
  <rect class="cls-1" x="27.02" y="25.61" width="3" height="2"/>
  <rect class="cls-1" x="32.02" y="25.61" width="3" height="2"/>
  <rect class="cls-1" x="37.02" y="25.61" width="3" height="2"/>
  <rect class="cls-1" x="22.02" y="30.61" width="3" height="2"/>
  <rect class="cls-1" x="27.02" y="30.61" width="3" height="2"/>
  <rect class="cls-1" x="32.02" y="30.61" width="3" height="2"/>
  <rect class="cls-1" x="37.02" y="30.61" width="3" height="2"/>
  <rect class="cls-1" x="22.02" y="35.61" width="3" height="2"/>
  <rect class="cls-1" x="27.02" y="35.61" width="3" height="2"/>
  <rect class="cls-1" x="32.02" y="35.61" width="3" height="2"/>
  <path class="cls-1" d="m52.98,43.61H15.83c-1.14,0-2.16-.62-2.66-1.61-2.75-5.45-4.15-12.65-4.15-21.39h2c0,8.43,1.32,15.32,3.93,20.49.16.31.5.51.88.51h37.15c-2.63-5.39-3.96-12.46-3.96-21h2c0,8.23,1.27,15.01,3.76,20.14.3.62.26,1.34-.1,1.92-.37.59-1,.94-1.7.94Z"/>
</svg>