<?xml version="1.0" encoding="UTF-8"?>
<svg id="Layer_1" data-name="Layer 1" xmlns="http://www.w3.org/2000/svg" viewBox="0 0 60 60">
  <defs>
    <style>
      .cls-1 {
        fill: #37464c;
        stroke-width: 0px;
      }
    </style>
  </defs>
  <path class="cls-1" d="m22.88,46.76h-14.16c-1.15,0-2.09-.94-2.09-2.09V14.17c0-1.15.94-2.09,2.09-2.09h4.36c.55,0,1,.45,1,1s-.45,1-1,1h-4.36s-.09.04-.09.09v30.51s.04.09.09.09h14.16c.55,0,1,.45,1,1s-.45,1-1,1Z"/>
  <path class="cls-1" d="m46.85,27.15c-.55,0-1-.45-1-1v-11.99s-.04-.09-.09-.09h-4.36c-.55,0-1-.45-1-1s.45-1,1-1h4.36c1.15,0,2.09.94,2.09,2.09v11.99c0,.55-.45,1-1,1Z"/>
  <rect class="cls-1" x="7.62" y="20.79" width="39.22" height="2"/>
  <path class="cls-1" d="m38.13,16.26c-.55,0-1-.45-1-1v-5.45c0-.55.45-1,1-1s1,.45,1,1v5.45c0,.55-.45,1-1,1Z"/>
  <path class="cls-1" d="m34.86,14.08h-15.25c-.55,0-1-.45-1-1s.45-1,1-1h15.25c.55,0,1,.45,1,1s-.45,1-1,1Z"/>
  <path class="cls-1" d="m16.34,16.26c-.55,0-1-.45-1-1v-5.45c0-.55.45-1,1-1s1,.45,1,1v5.45c0,.55-.45,1-1,1Z"/>
  <path class="cls-1" d="m34.87,57.21c-.27,0-.54-.05-.8-.16-.78-.32-1.29-1.08-1.29-1.93v-4h-3.36c-1.75,0-3.18-1.43-3.18-3.18v-15.25c0-1.75,1.43-3.18,3.18-3.18h25.06c1.75,0,3.18,1.43,3.18,3.18v15.25c0,1.75-1.43,3.18-3.18,3.18h-12.66l-5.47,5.47c-.4.4-.93.61-1.48.61Zm-5.45-25.7c-.65,0-1.18.53-1.18,1.18v15.25c0,.65.53,1.18,1.18,1.18h4.36c.55,0,1,.45,1,1v5l.15.06,5.77-5.77c.19-.19.44-.29.71-.29h13.07c.65,0,1.18-.53,1.18-1.18v-15.25c0-.65-.53-1.18-1.18-1.18h-25.06Z"/>
  <path class="cls-1" d="m49.03,39.14h-14.16c-.55,0-1-.45-1-1s.45-1,1-1h14.16c.55,0,1,.45,1,1s-.45,1-1,1Z"/>
  <path class="cls-1" d="m43.58,43.5h-8.72c-.55,0-1-.45-1-1s.45-1,1-1h8.72c.55,0,1,.45,1,1s-.45,1-1,1Z"/>
</svg>