<?xml version="1.0" encoding="UTF-8"?>
<svg id="Layer_1" data-name="Layer 1" xmlns="http://www.w3.org/2000/svg" viewBox="0 0 60 60">
  <defs>
    <style>
      .cls-1 {
        fill: #37464c;
        stroke-width: 0px;
      }
    </style>
  </defs>
  <path class="cls-1" d="m54.35,28.99c-.55,0-1-.45-1-1v-14.7c0-.12-.1-.23-.23-.23h-4.9c-.55,0-1-.45-1-1s.45-1,1-1h4.9c1.23,0,2.23,1,2.23,2.23v14.7c0,.55-.45,1-1,1Z"/>
  <path class="cls-1" d="m33.52,48.59H10.24c-1.23,0-2.23-1-2.23-2.23V13.28c0-1.23,1-2.23,2.23-2.23h4.9c.55,0,1,.45,1,1s-.45,1-1,1h-4.9c-.12,0-.23.1-.23.23v33.08c0,.12.1.23.23.23h23.28c.55,0,1,.45,1,1s-.45,1-1,1Z"/>
  <path class="cls-1" d="m54.35,22.86H9.02c-.55,0-1-.45-1-1s.45-1,1-1h45.34c.55,0,1,.45,1,1s-.45,1-1,1Z"/>
  <path class="cls-1" d="m44.55,15.51c-.55,0-1-.45-1-1v-4.9c0-.55.45-1,1-1s1,.45,1,1v4.9c0,.55-.45,1-1,1Z"/>
  <path class="cls-1" d="m40.88,13.06h-18.38c-.55,0-1-.45-1-1s.45-1,1-1h18.38c.55,0,1,.45,1,1s-.45,1-1,1Z"/>
  <path class="cls-1" d="m18.82,15.51c-.55,0-1-.45-1-1v-4.9c0-.55.45-1,1-1s1,.45,1,1v4.9c0,.55-.45,1-1,1Z"/>
  <rect class="cls-1" x="22.5" y="26.99" width="3.68" height="2"/>
  <rect class="cls-1" x="28.62" y="26.99" width="3.68" height="2"/>
  <rect class="cls-1" x="34.75" y="26.99" width="3.68" height="2"/>
  <rect class="cls-1" x="40.88" y="26.99" width="3.68" height="2"/>
  <rect class="cls-1" x="16.37" y="33.11" width="3.68" height="2"/>
  <rect class="cls-1" x="22.5" y="33.11" width="3.68" height="2"/>
  <rect class="cls-1" x="28.62" y="33.11" width="3.68" height="2"/>
  <rect class="cls-1" x="16.37" y="39.24" width="3.68" height="2"/>
  <rect class="cls-1" x="22.5" y="39.24" width="3.68" height="2"/>
  <rect class="cls-1" x="28.62" y="39.24" width="3.68" height="2"/>
  <path class="cls-1" d="m53.68,54.7h0c-.27,0-.52-.11-.71-.29l-5.36-5.36-5.36,5.36c-.39.39-1.02.39-1.41,0l-4.33-4.33c-.19-.19-.29-.44-.29-.71s.11-.52.29-.71l5.36-5.36-5.36-5.36c-.19-.19-.29-.44-.29-.71s.11-.52.29-.71l4.33-4.33c.39-.39,1.02-.39,1.41,0l5.36,5.36,5.36-5.36c.39-.39,1.02-.39,1.41,0l4.33,4.33c.19.19.29.44.29.71s-.11.52-.29.71l-5.36,5.36,5.36,5.36c.19.19.29.44.29.71s-.11.52-.29.71l-4.33,4.33c-.19.19-.44.29-.71.29Zm-15.05-5.33l2.92,2.92,5.36-5.36c.38-.38,1.04-.38,1.41,0l5.36,5.36,2.92-2.92-5.36-5.36c-.19-.19-.29-.44-.29-.71s.11-.52.29-.71l5.36-5.36-2.92-2.92-5.36,5.36c-.39.39-1.02.39-1.41,0l-5.36-5.36-2.92,2.92,5.36,5.36c.19.19.29.44.29.71s-.11.52-.29.71l-5.36,5.36Z"/>
</svg>