<?xml version="1.0" encoding="UTF-8"?>
<svg id="Layer_1" data-name="Layer 1" xmlns="http://www.w3.org/2000/svg" version="1.1" viewBox="0 0 60 60">
  <defs>
    <style>
      .cls-1 {
        fill: #37464c;
        stroke-width: 0px;
      }
    </style>
  </defs>
  <path class="cls-1" d="M52.3,10.3h-5.7c-.5,0-1,.5-1,1s.5,1,1,1h5.7c0,0,.1,0,.1.1v7H5.7v-7c0,0,0-.1.1-.1h5.7c.6,0,1-.5,1-1s-.4-1-1-1h-5.7c-1.2,0-2.1,1-2.1,2.1v38.6c0,1.2,1,2.1,2.1,2.1h46.5c1.2,0,2.1-1,2.1-2.1V12.4c0-1.2-1-2.1-2.1-2.1ZM52.3,51.2H5.8c0,0-.1,0-.1-.1v-29.6h46.8v29.6c0,0,0,.1-.1.1Z"/>
  <path class="cls-1" d="M43.3,14.6c.5,0,1-.5,1-1v-5.7c0-.5-.5-1-1-1s-1,.5-1,1v5.7c0,.5.5,1,1,1Z"/>
  <path class="cls-1" d="M18.3,12.3h21.6c.6,0,1-.5,1-1s-.4-1-1-1h-21.6c-.6,0-1,.5-1,1s.4,1,1,1Z"/>
  <path class="cls-1" d="M14.9,14.6c.5,0,1-.5,1-1v-5.7c0-.5-.5-1-1-1s-1,.5-1,1v5.7c0,.5.5,1,1,1Z"/>
  <rect class="cls-1" x="21.2" y="28.5" width="4.4" height="2"/>
  <rect class="cls-1" x="26.9" y="28.5" width="4.4" height="2"/>
  <rect class="cls-1" x="32.5" y="28.5" width="4.4" height="2"/>
  <rect class="cls-1" x="38.2" y="28.5" width="4.4" height="2"/>
  <rect class="cls-1" x="15.5" y="34.1" width="4.4" height="2"/>
  <rect class="cls-1" x="21.2" y="34.1" width="4.4" height="2"/>
  <rect class="cls-1" x="26.9" y="34.1" width="4.4" height="2"/>
  <rect class="cls-1" x="15.5" y="39.8" width="4.4" height="2"/>
  <rect class="cls-1" x="21.2" y="39.8" width="4.4" height="2"/>
  <rect class="cls-1" x="15.5" y="28.5" width="4.4" height="2"/>
  <path class="cls-1" d="M42.1,36.7c-.2-.2-.5-.2-.7,0l-3.9,3.9-1.5-1.5c0-.1-.2-.2-.3-.2s-.3,0-.4.2l-1.2,1.2c-.2.2-.2.5,0,.7l3,3c0,.1.2.2.3.2h0c.1,0,.2,0,.4-.1l5.5-5.5c.2-.2.2-.5,0-.7l-1.2-1.2ZM37.5,43.1l-2.3-2.3h0l.5-.5,1.5,1.5c0,.1.2.2.3.2s.3,0,.4-.2l3.9-3.9.5.5-4.8,4.8Z"/>
  <path class="cls-1" d="M38.7,32.1c-4.6,0-8.3,3.7-8.3,8.3s3.7,8.3,8.3,8.3,8.3-3.7,8.3-8.3-3.7-8.3-8.3-8.3ZM38.7,47.4c-3.9,0-7-3.1-7-7s3.1-7,7-7,7,3.1,7,7-3.1,7-7,7Z"/>
</svg>