<?xml version="1.0" encoding="UTF-8"?>
<svg id="Layer_1" data-name="Layer 1" xmlns="http://www.w3.org/2000/svg" viewBox="0 0 60 60">
  <defs>
    <style>
      .cls-1 {
        fill: #37464c;
        stroke-width: 0px;
      }
    </style>
  </defs>
  <path class="cls-1" d="m48.85,27.3c-.55,0-1-.45-1-1V10.27c0-.08-.06-.14-.14-.14h-4.58c-.55,0-1-.45-1-1s.45-1,1-1h4.58c1.18,0,2.14.96,2.14,2.14v16.02c0,.55-.45,1-1,1Z"/>
  <path class="cls-1" d="m31.68,44.46H7.64c-1.18,0-2.14-.96-2.14-2.14V10.27c0-1.18.96-2.14,2.14-2.14h4.58c.55,0,1,.45,1,1s-.45,1-1,1h-4.58c-.08,0-.14.06-.14.14v32.05c0,.08.06.14.14.14h24.04c.55,0,1,.45,1,1s-.45,1-1,1Z"/>
  <path class="cls-1" d="m45.41,51.33c-6.23,0-11.3-5.07-11.3-11.3s5.07-11.3,11.3-11.3,11.3,5.07,11.3,11.3-5.07,11.3-11.3,11.3Zm0-20.6c-5.13,0-9.3,4.17-9.3,9.3s4.17,9.3,9.3,9.3,9.3-4.17,9.3-9.3-4.17-9.3-9.3-9.3Z"/>
  <rect class="cls-1" x="6.5" y="17.28" width="42.35" height="2"/>
  <path class="cls-1" d="m39.69,12.42c-.55,0-1-.45-1-1v-4.58c0-.55.45-1,1-1s1,.45,1,1v4.58c0,.55-.45,1-1,1Z"/>
  <path class="cls-1" d="m36.26,10.13h-17.17c-.55,0-1-.45-1-1s.45-1,1-1h17.17c.55,0,1,.45,1,1s-.45,1-1,1Z"/>
  <path class="cls-1" d="m15.66,12.42c-.55,0-1-.45-1-1v-4.58c0-.55.45-1,1-1s1,.45,1,1v4.58c0,.55-.45,1-1,1Z"/>
  <rect class="cls-1" x="19.09" y="24.15" width="3.43" height="2"/>
  <rect class="cls-1" x="30.53" y="24.15" width="3.43" height="2"/>
  <rect class="cls-1" x="36.26" y="24.15" width="3.43" height="2"/>
  <rect class="cls-1" x="13.37" y="29.87" width="3.43" height="2"/>
  <rect class="cls-1" x="19.09" y="29.87" width="3.43" height="2"/>
  <rect class="cls-1" x="30.53" y="29.87" width="3.43" height="2"/>
  <rect class="cls-1" x="13.37" y="35.6" width="3.43" height="2"/>
  <rect class="cls-1" x="19.09" y="35.6" width="3.43" height="2"/>
  <rect class="cls-1" x="24.81" y="24.15" width="3.43" height="2"/>
  <rect class="cls-1" x="24.81" y="29.87" width="3.43" height="2"/>
  <rect class="cls-1" x="24.81" y="35.6" width="3.43" height="2"/>
  <path class="cls-1" d="m29.39,57.05c-.26,0-.51-.1-.71-.29-.39-.39-.39-1.02,0-1.41l8.74-8.74c.39-.39,1.02-.39,1.41,0s.39,1.02,0,1.41l-8.74,8.74c-.2.2-.45.29-.71.29Z"/>
</svg>