<?xml version="1.0" encoding="UTF-8"?>
<svg id="Layer_1" data-name="Layer 1" xmlns="http://www.w3.org/2000/svg" viewBox="0 0 60 60">
  <defs>
    <style>
      .cls-1 {
        fill: #37464c;
        stroke-width: 0px;
      }
    </style>
  </defs>
  <path class="cls-1" d="m49,41.5H5c-1.65,0-3-1.35-3-3V14.5c0-1.65,1.35-3,3-3h44c1.65,0,3,1.35,3,3v24c0,1.65-1.35,3-3,3ZM5,13.5c-.55,0-1,.45-1,1v24c0,.55.45,1,1,1h44c.55,0,1-.45,1-1V14.5c0-.55-.45-1-1-1H5Z"/>
  <path class="cls-1" d="m55,47.5H11c-1.65,0-3-1.35-3-3v-4c0-.55.45-1,1-1s1,.45,1,1v4c0,.55.45,1,1,1h44c.55,0,1-.45,1-1v-24c0-.55-.45-1-1-1h-4c-.55,0-1-.45-1-1s.45-1,1-1h4c1.65,0,3,1.35,3,3v24c0,1.65-1.35,3-3,3Z"/>
  <path class="cls-1" d="m27,37.5c-6.07,0-11-4.93-11-11s4.93-11,11-11,11,4.93,11,11-4.93,11-11,11Zm0-20c-4.96,0-9,4.04-9,9s4.04,9,9,9,9-4.04,9-9-4.04-9-9-9Z"/>
  <path class="cls-1" d="m3,21.5c-.55,0-1-.45-1-1s.45-1,1-1c3.86,0,7-3.14,7-7,0-.55.45-1,1-1s1,.45,1,1c0,4.96-4.04,9-9,9Z"/>
  <path class="cls-1" d="m51,21.5c-4.96,0-9-4.04-9-9,0-.55.45-1,1-1s1,.45,1,1c0,3.86,3.14,7,7,7,.55,0,1,.45,1,1s-.45,1-1,1Z"/>
  <path class="cls-1" d="m43,41.5c-.55,0-1-.45-1-1,0-4.96,4.04-9,9-9,.55,0,1,.45,1,1s-.45,1-1,1c-3.86,0-7,3.14-7,7,0,.55-.45,1-1,1Z"/>
  <path class="cls-1" d="m11,41.5c-.55,0-1-.45-1-1,0-3.86-3.14-7-7-7-.55,0-1-.45-1-1s.45-1,1-1c4.96,0,9,4.04,9,9,0,.55-.45,1-1,1Z"/>
</svg>