<?xml version="1.0" encoding="UTF-8"?>
<svg id="Layer_1" data-name="Layer 1" xmlns="http://www.w3.org/2000/svg" viewBox="0 0 60 60">
  <defs>
    <style>
      .cls-1 {
        fill: #37464c;
        stroke-width: 0px;
      }
    </style>
  </defs>
  <path class="cls-1" d="m35.53,13h-10c-.55,0-1-.45-1-1s.45-1,1-1h10c.55,0,1,.45,1,1s-.45,1-1,1Z"/>
  <path class="cls-1" d="m43.53,19h-26c-.55,0-1-.45-1-1s.45-1,1-1h26c.55,0,1,.45,1,1s-.45,1-1,1Z"/>
  <path class="cls-1" d="m43.53,25h-26c-.55,0-1-.45-1-1s.45-1,1-1h26c.55,0,1,.45,1,1s-.45,1-1,1Z"/>
  <path class="cls-1" d="m43.53,31h-26c-.55,0-1-.45-1-1s.45-1,1-1h26c.55,0,1,.45,1,1s-.45,1-1,1Z"/>
  <path class="cls-1" d="m25.53,41h-8c-.55,0-1-.45-1-1s.45-1,1-1h8c.55,0,1,.45,1,1s-.45,1-1,1Z"/>
  <path class="cls-1" d="m25.53,47h-8c-.55,0-1-.45-1-1s.45-1,1-1h8c.55,0,1,.45,1,1s-.45,1-1,1Z"/>
  <path class="cls-1" d="m37.53,49c-3.86,0-7-3.14-7-7s3.14-7,7-7,7,3.14,7,7-3.14,7-7,7Zm0-12c-2.76,0-5,2.24-5,5s2.24,5,5,5,5-2.24,5-5-2.24-5-5-5Z"/>
  <path class="cls-1" d="m41.53,57c-.15,0-.31-.04-.45-.11l-3.55-1.78-3.55,1.78c-.31.15-.68.14-.97-.04-.29-.18-.47-.5-.47-.85v-9.54c0-.55.45-1,1-1s1,.45,1,1v7.92l2.55-1.28c.28-.14.61-.14.89,0l2.55,1.28v-7.92c0-.55.45-1,1-1s1,.45,1,1v9.54c0,.35-.18.67-.47.85-.16.1-.34.15-.53.15Z"/>
  <path class="cls-1" d="m46.53,55h-1c-.55,0-1-.45-1-1s.45-1,1-1h1c1.1,0,2-.9,2-2V9c0-1.1-.9-2-2-2H14.53c-1.1,0-2,.9-2,2v42c0,1.1.9,2,2,2h15c.55,0,1,.45,1,1s-.45,1-1,1h-15c-2.21,0-4-1.79-4-4V9c0-2.21,1.79-4,4-4h32c2.21,0,4,1.79,4,4v42c0,2.21-1.79,4-4,4Z"/>
</svg>