<?xml version="1.0" encoding="UTF-8"?>
<svg id="Layer_1" data-name="Layer 1" xmlns="http://www.w3.org/2000/svg" viewBox="0 0 60 60">
  <defs>
    <style>
      .cls-1 {
        fill: #37464c;
        stroke-width: 0px;
      }
    </style>
  </defs>
  <path class="cls-1" d="m46.69,58h-30c-2.76,0-5-2.24-5-5V15c0-2.76,2.24-5,5-5h4v2h-4c-1.65,0-3,1.35-3,3v38c0,1.65,1.35,3,3,3h30c1.65,0,3-1.35,3-3V15c0-1.65-1.35-3-3-3h-4v-2h4c2.76,0,5,2.24,5,5v38c0,2.76-2.24,5-5,5Z"/>
  <path class="cls-1" d="m31.69,10c-1.1,0-2-.9-2-2s.9-2,2-2,2,.9,2,2-.9,2-2,2Zm0-2h0,0Zm0,0h0,0Zm0,0h0,0Zm0,0h0,0Zm0,0h0,0Zm0,0h0,0Zm0,0h0,0Zm0,0h0,0Z"/>
  <path class="cls-1" d="m40.69,18h-18c-1.65,0-3-1.35-3-3v-4c0-1.65,1.35-3,3-3h3c0-3.31,2.69-6,6-6s6,2.69,6,6h3c1.65,0,3,1.35,3,3v4c0,1.65-1.35,3-3,3Zm-18-8c-.55,0-1,.45-1,1v4c0,.55.45,1,1,1h18c.55,0,1-.45,1-1v-4c0-.55-.45-1-1-1h-4c-.55,0-1-.45-1-1v-1c0-2.21-1.79-4-4-4s-4,1.79-4,4v1c0,.55-.45,1-1,1h-4Z"/>
  <path class="cls-1" d="m40.69,40h-10c-.55,0-1-.45-1-1s.45-1,1-1h10c.55,0,1,.45,1,1s-.45,1-1,1Z"/>
  <path class="cls-1" d="m40.69,30h-10c-.55,0-1-.45-1-1s.45-1,1-1h10c.55,0,1,.45,1,1s-.45,1-1,1Z"/>
  <path class="cls-1" d="m20.69,30h0c-.27,0-.52-.11-.71-.29l-2-2c-.39-.39-.39-1.02,0-1.41.39-.39,1.02-.39,1.41,0l1.29,1.29,3.29-3.29c.39-.39,1.02-.39,1.41,0s.39,1.02,0,1.41l-4,4c-.19.19-.44.29-.71.29Z"/>
  <path class="cls-1" d="m20.69,50h0c-.27,0-.52-.11-.71-.29l-2-2c-.39-.39-.39-1.02,0-1.41.39-.39,1.02-.39,1.41,0l1.29,1.29,3.29-3.29c.39-.39,1.02-.39,1.41,0s.39,1.02,0,1.41l-4,4c-.19.19-.44.29-.71.29Z"/>
  <path class="cls-1" d="m20.69,40h0c-.27,0-.52-.11-.71-.29l-2-2c-.39-.39-.39-1.02,0-1.41.39-.39,1.02-.39,1.41,0l1.29,1.29,3.29-3.29c.39-.39,1.02-.39,1.41,0s.39,1.02,0,1.41l-4,4c-.19.19-.44.29-.71.29Z"/>
  <path class="cls-1" d="m44.69,36h-14c-.55,0-1-.45-1-1s.45-1,1-1h14c.55,0,1,.45,1,1s-.45,1-1,1Z"/>
  <path class="cls-1" d="m44.69,26h-14c-.55,0-1-.45-1-1s.45-1,1-1h14c.55,0,1,.45,1,1s-.45,1-1,1Z"/>
  <path class="cls-1" d="m40.69,50h-10c-.55,0-1-.45-1-1s.45-1,1-1h10c.55,0,1,.45,1,1s-.45,1-1,1Z"/>
  <path class="cls-1" d="m44.69,46h-14c-.55,0-1-.45-1-1s.45-1,1-1h14c.55,0,1,.45,1,1s-.45,1-1,1Z"/>
</svg>