<?xml version="1.0" encoding="UTF-8"?>
<svg id="Layer_1" data-name="Layer 1" xmlns="http://www.w3.org/2000/svg" viewBox="0 0 60 60">
  <defs>
    <style>
      .cls-1 {
        fill: #37464c;
        stroke-width: 0px;
      }
    </style>
  </defs>
  <path class="cls-1" d="m44.35,47.15l-1.79-.89c2.66-5.31-.34-8.38-3.52-11.62-2.27-2.32-4.63-4.73-4.58-7.94l2,.03c-.03,2.38,1.93,4.39,4.01,6.52,3.2,3.27,7.17,7.33,3.88,13.92Z"/>
  <path class="cls-1" d="m37.46,16.7c-.26,0-.51-.1-.71-.29l-1-1c-.39-.39-.39-1.02,0-1.41s1.02-.39,1.41,0l1,1c.39.39.39,1.02,0,1.41-.2.2-.45.29-.71.29Z"/>
  <path class="cls-1" d="m41.46,51.7h-14c-.55,0-1-.45-1-1s.45-1,1-1h14c.55,0,1,.45,1,1s-.45,1-1,1Z"/>
  <path class="cls-1" d="m46.46,57.7h-19c-.55,0-1-.45-1-1s.45-1,1-1h19c.32,0,.61-.15.8-.4.19-.26.25-.58.16-.88l-1.59-5.29c-.26-.85-1.03-1.43-1.92-1.43h-16.45c-.55,0-1-.45-1-1s.45-1,1-1h16.45c1.78,0,3.32,1.15,3.83,2.85l1.59,5.29c.28.92.11,1.88-.47,2.65s-1.45,1.21-2.41,1.21Z"/>
  <path class="cls-1" d="m23.46,40.7v-2c1.65,0,3-1.35,3-3v-12.77c0-1.08-.69-2.04-1.73-2.39-.42-.14-1.38-.47-2.01-.69l-4.56,4.56c-.39.39-1.02.39-1.41,0l-4.56-4.56c-.63.22-1.59.55-2.01.69-1.03.35-1.73,1.31-1.73,2.39v12.77c0,1.65,1.35,3,3,3v2c-2.76,0-5-2.24-5-5v-12.77c0-1.94,1.24-3.66,3.09-4.29.65-.22,2.58-.89,2.58-.89.36-.13.76-.03,1.03.24l4.29,4.29,4.29-4.29c.27-.27.67-.36,1.03-.24,0,0,1.94.67,2.58.89,1.85.62,3.09,2.35,3.09,4.29v12.77c0,2.76-2.24,5-5,5Z"/>
  <path class="cls-1" d="m17.46,17.7c-3.31,0-6-2.69-6-6s2.69-6,6-6,6,2.69,6,6-2.69,6-6,6Zm0-10c-2.21,0-4,1.79-4,4s1.79,4,4,4,4-1.79,4-4-1.79-4-4-4Z"/>
  <path class="cls-1" d="m22.46,57.7h-10c-1.1,0-2-.9-2-2v-29c0-.55.45-1,1-1s1,.45,1,1v29h10v-29c0-.55.45-1,1-1s1,.45,1,1v29c0,1.1-.9,2-2,2Z"/>
  <path class="cls-1" d="m17.46,57.7c-.55,0-1-.45-1-1v-18c0-.55.45-1,1-1s1,.45,1,1v18c0,.55-.45,1-1,1Z"/>
  <path class="cls-1" d="m45.55,32.04c-.18,0-.36-.05-.52-.15l-6.37-3.9c-.31-.19-.67-.29-1.04-.29h-2.16c-2.76,0-5-2.24-5-5,0-.55.45-1,1-1s1,.45,1,1c0,1.65,1.35,3,3,3h2.16c.73,0,1.45.2,2.08.58l5.79,3.55,1.52-1.14c.78-.58,1.28-1.43,1.41-2.4.13-.96-.12-1.92-.71-2.7-6.94-9.09-10.03-13.26-10.06-13.3-.18-.25-.24-.57-.16-.87l1.62-5.65c-2.78.31-3.83,1.5-3.88,1.56-.19.22-.48.37-.77.37-3.14,0-6.21.74-8.89,2.15-.49.26-1.09.07-1.35-.42-.26-.49-.07-1.09.42-1.35,2.84-1.5,6.09-2.32,9.4-2.38.75-.67,2.71-2,6.42-2,.31,0,.61.15.8.4s.25.58.16.88l-1.86,6.53c.92,1.23,4.01,5.38,9.75,12.88.92,1.2,1.31,2.69,1.1,4.18-.21,1.5-.98,2.82-2.19,3.72l-2.07,1.55c-.18.13-.39.2-.6.2Z"/>
</svg>