<?xml version="1.0" encoding="UTF-8"?>
<svg id="Layer_1" data-name="Layer 1" xmlns="http://www.w3.org/2000/svg" viewBox="0 0 60 60">
  <defs>
    <style>
      .cls-1 {
        fill: #37464c;
        stroke-width: 0px;
      }
    </style>
  </defs>
  <path class="cls-1" d="m20.11,47.19c-3.29-6.59.68-10.65,3.88-13.92,2.08-2.13,4.04-4.13,4.01-6.52l2-.03c.04,3.21-2.31,5.62-4.58,7.94-3.18,3.25-6.18,6.31-3.52,11.62l-1.79.89Z"/>
  <path class="cls-1" d="m46.31,57.75h-28.62c-.96,0-1.83-.44-2.41-1.21-.57-.77-.74-1.74-.47-2.65l1.59-5.29c.51-1.71,2.05-2.85,3.83-2.85h23.54c1.78,0,3.32,1.15,3.83,2.85l1.59,5.29c.28.92.1,1.88-.47,2.65-.57.77-1.45,1.21-2.41,1.21Zm-26.08-10c-.89,0-1.66.57-1.92,1.43l-1.59,5.29c-.09.31-.04.63.16.88.19.26.48.4.8.4h28.62c.32,0,.61-.15.8-.4.19-.26.25-.58.16-.88l-1.59-5.29c-.26-.85-1.03-1.42-1.92-1.42h-23.54Z"/>
  <path class="cls-1" d="m27,16.75c-.26,0-.51-.1-.71-.29-.39-.39-.39-1.02,0-1.41l1-1c.39-.39,1.02-.39,1.41,0s.39,1.02,0,1.41l-1,1c-.2.2-.45.29-.71.29Z"/>
  <path class="cls-1" d="m43,47.75c-.23,0-.46-.08-.65-.24-.42-.36-.47-.99-.11-1.41l5.76-6.72v-15.76c0-5.32-1.88-9.87-5.43-13.15-3.29-3.04-7.76-4.72-12.57-4.72-.31,0-.59-.14-.78-.38-.04-.05-1.08-1.24-3.87-1.55l1.62,5.65c.08.3.03.62-.16.87-.03.04-3.12,4.22-10.06,13.3-.59.77-.84,1.73-.71,2.69.13.96.63,1.81,1.41,2.4l1.52,1.14,5.79-3.55c.63-.38,1.35-.58,2.08-.58h2.16c1.65,0,3-1.35,3-3,0-.55.45-1,1-1s1,.45,1,1c0,2.76-2.24,5-5,5h-2.16c-.37,0-.73.1-1.04.29l-6.37,3.9c-.35.21-.79.19-1.12-.05l-2.07-1.55c-1.21-.91-1.98-2.23-2.19-3.72-.21-1.5.18-2.98,1.1-4.18,5.73-7.5,8.83-11.65,9.75-12.88l-1.87-6.53c-.09-.3-.03-.63.16-.88.19-.25.49-.4.8-.4,3.7,0,5.66,1.33,6.42,2,5.16.09,9.95,1.95,13.51,5.24,3.97,3.67,6.07,8.72,6.07,14.62v16.13c0,.24-.08.47-.24.65l-6,7c-.2.23-.48.35-.76.35Z"/>
  <path class="cls-1" d="m47.2,51.75h-24.2c-.55,0-1-.45-1-1s.45-1,1-1h24.2c.55,0,1,.45,1,1s-.45,1-1,1Z"/>
</svg>