<?xml version="1.0" encoding="UTF-8"?>
<svg id="Layer_1" data-name="Layer 1" xmlns="http://www.w3.org/2000/svg" viewBox="0 0 60 60">
  <defs>
    <style>
      .cls-1 {
        fill: #37464c;
        stroke-width: 0px;
      }
    </style>
  </defs>
  <g>
    <path class="cls-1" d="m43.82,55.49h-26.11c-2.12,0-3.84-1.72-3.84-3.83V14.93c0-2.11,1.72-3.83,3.84-3.83h4.13c.33,0,.59.27.59.59s-.27.59-.59.59h-4.13c-1.46,0-2.66,1.19-2.66,2.65v36.72c0,1.46,1.19,2.65,2.66,2.65h26.11c1.46,0,2.66-1.19,2.66-2.65V14.93c0-1.46-1.19-2.65-2.66-2.65h-4.13c-.33,0-.59-.27-.59-.59s.27-.59.59-.59h4.13c2.12,0,3.84,1.72,3.84,3.83v36.72c0,2.11-1.72,3.83-3.84,3.83Z"/>
    <path class="cls-1" d="m43.82,55.86h-26.11c-2.32,0-4.22-1.89-4.22-4.21V14.93c0-2.32,1.89-4.21,4.22-4.21h4.13c.53,0,.97.43.97.97s-.43.97-.97.97h-4.13c-1.26,0-2.28,1.02-2.28,2.27v36.72c0,1.25,1.02,2.27,2.28,2.27h26.11c1.26,0,2.28-1.02,2.28-2.27V14.93c0-1.25-1.02-2.27-2.28-2.27h-4.13c-.53,0-.97-.43-.97-.97s.43-.97.97-.97h4.13c2.32,0,4.22,1.89,4.22,4.21v36.72c0,2.32-1.89,4.21-4.22,4.21ZM17.72,11.47c-1.91,0-3.47,1.55-3.47,3.46v36.72c0,1.91,1.56,3.46,3.47,3.46h26.11c1.91,0,3.47-1.55,3.47-3.46V14.93c0-1.91-1.56-3.46-3.47-3.46h-4.13c-.12,0-.22.1-.22.22s.1.22.22.22h4.13c1.67,0,3.03,1.36,3.03,3.02v36.72c0,1.67-1.36,3.02-3.03,3.02h-26.11c-1.67,0-3.03-1.36-3.03-3.02V14.93c0-1.67,1.36-3.02,3.03-3.02h4.13c.12,0,.22-.1.22-.22s-.1-.22-.22-.22h-4.13Z"/>
  </g>
  <g>
    <path class="cls-1" d="m42.29,51.42h-23.03c-.72,0-1.3-.58-1.3-1.3V16.46c0-.72.58-1.3,1.3-1.3h2.54c.33,0,.59.27.59.59s-.27.59-.59.59h-2.54c-.06,0-.12.05-.12.12v33.65c0,.06.05.12.12.12h23.03c.07,0,.12-.05.12-.12V16.46c0-.06-.05-.12-.12-.12h-2.54c-.33,0-.59-.27-.59-.59s.27-.59.59-.59h2.54c.72,0,1.3.58,1.3,1.3v33.65c0,.72-.58,1.3-1.3,1.3Z"/>
    <path class="cls-1" d="m42.29,51.79h-23.03c-.93,0-1.68-.75-1.68-1.68V16.46c0-.92.75-1.68,1.68-1.68h2.54c.53,0,.97.43.97.97s-.43.97-.97.97h-2.28v33.14h22.52V16.72h-2.28c-.53,0-.97-.43-.97-.97s.43-.97.97-.97h2.54c.93,0,1.68.75,1.68,1.68v33.65c0,.92-.75,1.68-1.68,1.68ZM19.25,15.54c-.51,0-.93.42-.93.93v33.65c0,.51.42.93.93.93h23.03c.51,0,.93-.42.93-.93V16.46c0-.51-.42-.93-.93-.93h-2.54c-.12,0-.22.1-.22.22s.1.22.22.22h2.54c.27,0,.49.22.49.49v33.65c0,.27-.22.49-.49.49h-23.03c-.27,0-.49-.22-.49-.49V16.46c0-.27.22-.49.49-.49h2.54c.12,0,.22-.1.22-.22s-.1-.22-.22-.22h-2.54Z"/>
  </g>
  <g>
    <path class="cls-1" d="m39.41,18.71h-17.28c-.33,0-.59-.27-.59-.59v-9.19c0-.33.27-.59.59-.59h17.28c.33,0,.59.27.59.59v9.19c0,.33-.27.59-.59.59Zm-16.69-1.19h16.1v-8.01h-16.1v8.01Z"/>
    <path class="cls-1" d="m39.41,19.08h-17.28c-.53,0-.97-.43-.97-.97v-9.19c0-.53.43-.97.97-.97h17.28c.53,0,.97.43.97.97v9.19c0,.53-.43.97-.97.97Zm-17.28-10.38c-.12,0-.22.1-.22.22v9.19c0,.12.1.22.22.22h17.28c.12,0,.22-.1.22-.22v-9.19c0-.12-.1-.22-.22-.22h-17.28Zm17.07,9.19h-16.85v-8.76h16.85v8.76Zm-16.1-.75h15.35v-7.26h-15.35v7.26Z"/>
  </g>
  <g>
    <path class="cls-1" d="m36.62,9.51h-11.7c-.25,0-.47-.16-.56-.39-.09-.23-.02-.5.17-.66l4.71-3.99h0c.88-.75,2.16-.75,3.04,0l4.71,3.99c.19.16.26.42.17.66-.09.23-.31.39-.56.39Zm-10.08-1.19h8.46l-3.48-2.94c-.44-.37-1.07-.37-1.51,0l-3.48,2.94Z"/>
    <path class="cls-1" d="m36.62,9.89h-11.7c-.4,0-.77-.25-.91-.63-.14-.38-.03-.81.28-1.07l4.71-3.99c1.02-.86,2.5-.86,3.52,0l4.71,3.99c.31.26.42.69.28,1.07-.14.38-.5.63-.91.63Zm-5.85-5.59c-.45,0-.91.16-1.28.47l-4.71,3.99c-.07.06-.09.16-.06.24.03.08.11.14.2.14h11.7c.09,0,.17-.06.2-.14.03-.09,0-.18-.06-.24l-4.71-3.99c-.37-.31-.82-.47-1.28-.47Zm5.25,4.41h-10.51l4.26-3.6c.58-.49,1.42-.49,1.99,0l4.26,3.6Zm-8.46-.75h6.41l-2.7-2.28c-.3-.25-.73-.25-1.02,0l-2.7,2.28Z"/>
  </g>
  <g>
    <path class="cls-1" d="m28.7,38.37c-.15,0-.3-.06-.42-.17l-4.84-4.83c-.23-.23-.23-.61,0-.84.23-.23.61-.23.84,0l4.42,4.41,8.57-8.55c.23-.23.61-.23.84,0,.23.23.23.61,0,.84l-8.98,8.97c-.12.12-.27.17-.42.17Z"/>
    <path class="cls-1" d="m28.7,38.74c-.26,0-.5-.1-.68-.28l-4.84-4.83c-.18-.18-.28-.43-.28-.68s.1-.5.28-.68c.18-.18.42-.28.68-.28h0c.26,0,.5.1.68.28l4.15,4.15,8.3-8.28c.38-.38.99-.38,1.37,0,.38.38.38.99,0,1.37l-8.98,8.97c-.18.18-.43.28-.68.28Zm-4.84-6.01h0c-.06,0-.11.02-.15.06-.04.04-.06.1-.06.15s.02.11.06.15l4.84,4.83c.08.08.22.08.31,0l8.98-8.97c.08-.08.08-.22,0-.31s-.22-.08-.31,0l-8.83,8.81-4.68-4.67s-.1-.06-.15-.06Z"/>
  </g>
</svg>