<?xml version="1.0" encoding="UTF-8"?>
<svg id="Layer_1" data-name="Layer 1" xmlns="http://www.w3.org/2000/svg" viewBox="0 0 60 60">
  <defs>
    <style>
      .cls-1 {
        fill: #37464c;
        stroke-width: 0px;
      }
    </style>
  </defs>
  <g>
    <path class="cls-1" d="m29.99,56.05c-14.47,0-26.24-11.77-26.24-26.24S15.52,3.57,29.99,3.57s26.24,11.77,26.24,26.24-11.77,26.24-26.24,26.24Zm0-51.29c-13.82,0-25.05,11.24-25.05,25.05s11.24,25.05,25.05,25.05,25.05-11.24,25.05-25.05S43.81,4.75,29.99,4.75Z"/>
    <path class="cls-1" d="m29.99,56.42c-14.68,0-26.61-11.94-26.61-26.61S15.32,3.19,29.99,3.19s26.61,11.94,26.61,26.62-11.94,26.61-26.61,26.61Zm0-52.48C15.73,3.94,4.13,15.54,4.13,29.81s11.6,25.86,25.86,25.86,25.86-11.6,25.86-25.86S44.25,3.94,29.99,3.94Zm0,51.29c-14.02,0-25.43-11.41-25.43-25.43S15.97,4.38,29.99,4.38s25.43,11.41,25.43,25.43-11.41,25.43-25.43,25.43Zm0-50.11c-13.61,0-24.68,11.07-24.68,24.68s11.07,24.68,24.68,24.68,24.68-11.07,24.68-24.68S43.6,5.13,29.99,5.13Z"/>
  </g>
  <g>
    <path class="cls-1" d="m29.99,52.63c-12.58,0-22.82-10.24-22.82-22.82S17.41,6.99,29.99,6.99s22.82,10.24,22.82,22.82-10.24,22.82-22.82,22.82Zm0-44.46c-11.93,0-21.64,9.71-21.64,21.64s9.71,21.64,21.64,21.64,21.63-9.71,21.63-21.64-9.71-21.64-21.63-21.64Z"/>
    <path class="cls-1" d="m29.99,53c-12.79,0-23.19-10.41-23.19-23.2S17.2,6.61,29.99,6.61s23.19,10.41,23.19,23.2-10.41,23.2-23.19,23.2Zm0-45.64c-12.38,0-22.44,10.07-22.44,22.45s10.07,22.45,22.44,22.45,22.44-10.07,22.44-22.45S42.37,7.36,29.99,7.36Zm0,44.46c-12.14,0-22.01-9.87-22.01-22.01S17.86,7.8,29.99,7.8s22.01,9.87,22.01,22.01-9.87,22.01-22.01,22.01Zm0-43.27c-11.72,0-21.26,9.54-21.26,21.26s9.54,21.26,21.26,21.26,21.26-9.54,21.26-21.26-9.54-21.26-21.26-21.26Z"/>
  </g>
  <g>
    <g>
      <path class="cls-1" d="m29.99,49.98c-.33,0-.59-.27-.59-.59v-2.74c0-.33.27-.59.59-.59s.59.27.59.59v2.74c0,.33-.27.59-.59.59Z"/>
      <path class="cls-1" d="m29.99,50.35c-.53,0-.97-.43-.97-.97v-2.74c0-.53.43-.97.97-.97s.97.43.97.97v2.74c0,.53-.43.97-.97.97Zm0-3.92c-.12,0-.22.1-.22.22v2.74c0,.24.43.24.43,0v-2.74c0-.12-.1-.22-.22-.22Z"/>
    </g>
    <g>
      <path class="cls-1" d="m29.99,13.56c-.33,0-.59-.27-.59-.59v-2.74c0-.33.27-.59.59-.59s.59.27.59.59v2.74c0,.33-.27.59-.59.59Z"/>
      <path class="cls-1" d="m29.99,13.93c-.53,0-.97-.43-.97-.97v-2.74c0-.53.43-.97.97-.97s.97.43.97.97v2.74c0,.53-.43.97-.97.97Zm0-3.92c-.12,0-.22.1-.22.22v2.74c0,.24.43.24.43,0v-2.74c0-.12-.1-.22-.22-.22Z"/>
    </g>
  </g>
  <g>
    <g>
      <path class="cls-1" d="m49.57,30.4h-2.74c-.33,0-.59-.27-.59-.59s.27-.59.59-.59h2.74c.33,0,.59.27.59.59s-.27.59-.59.59Z"/>
      <path class="cls-1" d="m49.57,30.77h-2.74c-.53,0-.97-.43-.97-.97s.43-.97.97-.97h2.74c.53,0,.97.43.97.97s-.43.97-.97.97Zm-2.74-1.18c-.12,0-.22.1-.22.22s.1.22.22.22h2.74c.12,0,.22-.1.22-.22s-.1-.22-.22-.22h-2.74Z"/>
    </g>
    <g>
      <path class="cls-1" d="m13.15,30.4h-2.74c-.33,0-.59-.27-.59-.59s.27-.59.59-.59h2.74c.33,0,.59.27.59.59s-.27.59-.59.59Z"/>
      <path class="cls-1" d="m13.15,30.77h-2.74c-.53,0-.97-.43-.97-.97s.43-.97.97-.97h2.74c.53,0,.97.43.97.97s-.43.97-.97.97Zm-2.74-1.18c-.12,0-.22.1-.22.22s.1.22.22.22h2.74c.12,0,.22-.1.22-.22s-.1-.22-.22-.22h-2.74Z"/>
    </g>
  </g>
  <g>
    <path class="cls-1" d="m29.99,32.39c-1.43,0-2.59-1.16-2.59-2.59s1.16-2.59,2.59-2.59,2.59,1.16,2.59,2.59-1.16,2.59-2.59,2.59Zm0-3.99c-.77,0-1.4.63-1.4,1.4s.63,1.4,1.4,1.4,1.4-.63,1.4-1.4-.63-1.4-1.4-1.4Z"/>
    <path class="cls-1" d="m29.99,32.77c-1.63,0-2.96-1.33-2.96-2.96s1.33-2.96,2.96-2.96,2.96,1.33,2.96,2.96-1.33,2.96-2.96,2.96Zm0-5.17c-1.22,0-2.21.99-2.21,2.21s.99,2.21,2.21,2.21,2.21-.99,2.21-2.21-.99-2.21-2.21-2.21Zm0,3.99c-.98,0-1.78-.8-1.78-1.78s.8-1.78,1.78-1.78,1.78.8,1.78,1.78-.8,1.78-1.78,1.78Zm0-2.8c-.57,0-1.03.46-1.03,1.03s.46,1.03,1.03,1.03,1.03-.46,1.03-1.03-.46-1.03-1.03-1.03Z"/>
  </g>
  <g>
    <path class="cls-1" d="m29.99,28.4c-.33,0-.59-.27-.59-.59v-11.8c0-.33.27-.59.59-.59s.59.27.59.59v11.8c0,.33-.27.59-.59.59Z"/>
    <path class="cls-1" d="m29.99,28.78c-.53,0-.97-.43-.97-.97v-11.8c0-.53.43-.97.97-.97s.97.43.97.97v11.8c0,.53-.43.97-.97.97Zm0-12.98c-.12,0-.22.1-.22.22v11.8c0,.24.43.24.43,0v-11.8c0-.12-.1-.22-.22-.22Z"/>
  </g>
  <g>
    <path class="cls-1" d="m39.45,30.4h-7.47c-.33,0-.59-.27-.59-.59s.27-.59.59-.59h7.47c.33,0,.59.27.59.59s-.27.59-.59.59Z"/>
    <path class="cls-1" d="m39.45,30.77h-7.47c-.53,0-.97-.43-.97-.97s.43-.97.97-.97h7.47c.53,0,.97.43.97.97s-.43.97-.97.97Zm-7.47-1.18c-.12,0-.22.1-.22.22s.1.22.22.22h7.47c.12,0,.22-.1.22-.22s-.1-.22-.22-.22h-7.47Z"/>
  </g>
</svg>