<?xml version="1.0" encoding="UTF-8"?>
<svg id="Layer_1" data-name="Layer 1" xmlns="http://www.w3.org/2000/svg" viewBox="0 0 60 60">
  <defs>
    <style>
      .cls-1 {
        fill: #37464c;
        stroke-width: 0px;
      }
    </style>
  </defs>
  <path class="cls-1" d="m26,41.75c-.26,0-.51-.1-.71-.29l-10-10c-.39-.39-.39-1.02,0-1.41l4-4c.39-.39,1.02-.39,1.41,0l5.29,5.29,13.29-13.29c.39-.39,1.02-.39,1.41,0l4,4c.39.39.39,1.02,0,1.41l-18,18c-.2.2-.45.29-.71.29Zm-8.59-11l8.59,8.59,16.59-16.59-2.59-2.59-13.29,13.29c-.39.39-1.02.39-1.41,0l-5.29-5.29-2.59,2.59Z"/>
  <path class="cls-1" d="m30,55.75c-14.34,0-26-11.66-26-26S15.66,3.75,30,3.75s26,11.66,26,26-11.66,26-26,26Zm0-50c-13.23,0-24,10.77-24,24s10.77,24,24,24,24-10.77,24-24S43.23,5.75,30,5.75Z"/>
</svg>