<?xml version="1.0" encoding="UTF-8"?>
<svg id="Layer_1" data-name="Layer 1" xmlns="http://www.w3.org/2000/svg" viewBox="0 0 60 60">
  <defs>
    <style>
      .cls-1 {
        fill: #37464c;
        stroke-width: 0px;
      }
    </style>
  </defs>
  <path class="cls-1" d="m12,18c-2.21,0-4-1.79-4-4s1.79-4,4-4,4,1.79,4,4-1.79,4-4,4Zm0-6c-1.1,0-2,.9-2,2s.9,2,2,2,2-.9,2-2-.9-2-2-2Z"/>
  <path class="cls-1" d="m48,26c-2.21,0-4-1.79-4-4s1.79-4,4-4,4,1.79,4,4-1.79,4-4,4Zm0-6c-1.1,0-2,.9-2,2s.9,2,2,2,2-.9,2-2-.9-2-2-2Z"/>
  <path class="cls-1" d="m12,50c-2.21,0-4-1.79-4-4s1.79-4,4-4,4,1.79,4,4-1.79,4-4,4Zm0-6c-1.1,0-2,.9-2,2s.9,2,2,2,2-.9,2-2-.9-2-2-2Z"/>
  <path class="cls-1" d="m48,42c-2.21,0-4-1.79-4-4s1.79-4,4-4,4,1.79,4,4-1.79,4-4,4Zm0-6c-1.1,0-2,.9-2,2s.9,2,2,2,2-.9,2-2-.9-2-2-2Z"/>
  <path class="cls-1" d="m12,34c-2.21,0-4-1.79-4-4s1.79-4,4-4,4,1.79,4,4-1.79,4-4,4Zm0-6c-1.1,0-2,.9-2,2s.9,2,2,2,2-.9,2-2-.9-2-2-2Z"/>
  <path class="cls-1" d="m30,10c-2.21,0-4-1.79-4-4s1.79-4,4-4,4,1.79,4,4-1.79,4-4,4Zm0-6c-1.1,0-2,.9-2,2s.9,2,2,2,2-.9,2-2-.9-2-2-2Z"/>
  <path class="cls-1" d="m30,42c-2.21,0-4-1.79-4-4s1.79-4,4-4,4,1.79,4,4-1.79,4-4,4Zm0-6c-1.1,0-2,.9-2,2s.9,2,2,2,2-.9,2-2-.9-2-2-2Z"/>
  <path class="cls-1" d="m30,58c-2.21,0-4-1.79-4-4s1.79-4,4-4,4,1.79,4,4-1.79,4-4,4Zm0-6c-1.1,0-2,.9-2,2s.9,2,2,2,2-.9,2-2-.9-2-2-2Z"/>
  <path class="cls-1" d="m30,26c-2.21,0-4-1.79-4-4s1.79-4,4-4,4,1.79,4,4-1.79,4-4,4Zm0-6c-1.1,0-2,.9-2,2s.9,2,2,2,2-.9,2-2-.9-2-2-2Z"/>
  <path class="cls-1" d="m26.45,22.83l-12-8c-.28-.19-.45-.5-.45-.83s.17-.65.45-.83l12-8,1.11,1.66-10.75,7.17,10.75,7.17-1.11,1.66Z"/>
  <path class="cls-1" d="m44.2,22.6c-.14-.18-.2-.39-.2-.6h0c0-.3.14-.6.4-.8h0c.44-.33,1.07-.24,1.4.2h0c.14.18.2.39.2.6h0c0,.3-.14.6-.4.8h0c-.18.14-.39.2-.6.2h0c-.3,0-.6-.14-.8-.4Zm-2.4-3.2c-.14-.18-.2-.39-.2-.6h0c0-.3.14-.6.4-.8h0c.44-.33,1.07-.24,1.4.2h0c.13.18.2.39.2.6h0c0,.3-.14.6-.4.8h0c-.18.13-.39.2-.6.2h0c-.3,0-.6-.14-.8-.4Zm-2.4-3.2c-.14-.18-.2-.39-.2-.6h0c0-.3.14-.6.4-.8h0c.44-.33,1.07-.24,1.4.2h0c.13.18.2.39.2.6h0c0,.3-.14.6-.4.8h0c-.18.13-.39.2-.6.2h0c-.3,0-.6-.14-.8-.4Zm-2.4-3.2c-.14-.18-.2-.39-.2-.6h0c0-.3.14-.6.4-.8h0c.44-.33,1.07-.24,1.4.2h0c.13.18.2.39.2.6h0c0,.3-.14.6-.4.8h0c-.18.13-.39.2-.6.2h0c-.3,0-.6-.14-.8-.4Zm-2.4-3.2c-.14-.18-.2-.39-.2-.6h0c0-.3.14-.6.4-.8h0c.44-.33,1.07-.24,1.4.2h0c.13.18.2.39.2.6h0c0,.3-.14.6-.4.8h0c-.18.13-.39.2-.6.2h0c-.3,0-.6-.14-.8-.4Zm-2.4-3.2c-.14-.18-.2-.39-.2-.6h0c0-.3.14-.6.4-.8h0c.44-.33,1.07-.24,1.4.2h0c.13.18.2.39.2.6h0c0,.3-.14.6-.4.8h0c-.18.14-.39.2-.6.2h0c-.3,0-.6-.14-.8-.4Z"/>
  <rect class="cls-1" x="33" y="37" width="12" height="2"/>
  <rect class="cls-1" x="33" y="21" width="12" height="2"/>
  <rect class="cls-1" x="29" y="45" width="20" height="2" transform="translate(-21.2 49.59) rotate(-53.12)"/>
  <path class="cls-1" d="m24.43,53.49c-.29-.19-.45-.51-.45-.83h0c0-.19.06-.39.17-.56h0c.31-.46.93-.58,1.39-.28h0c.29.2.44.51.44.83h0c.01.19-.05.39-.16.56h0c-.2.29-.51.45-.84.45h0c-.19,0-.38-.06-.55-.17Zm-3.33-2.22c-.29-.19-.44-.51-.44-.83h0c-.01-.19.05-.38.16-.56h0c.31-.46.93-.58,1.39-.28h0c.29.2.44.51.45.83h0c0,.2-.06.39-.17.56h0c-.19.29-.51.45-.83.45h0c-.2,0-.39-.06-.56-.17Zm-3.33-2.22c-.28-.19-.44-.5-.44-.83h0c0-.19.05-.38.17-.56h0c.3-.46.92-.58,1.38-.27h0c.29.19.45.5.45.82h0c0,.2-.06.39-.17.56h0c-.19.29-.51.45-.83.45h0c-.19,0-.39-.05-.56-.17Zm-3.32-2.22c-.29-.19-.45-.5-.45-.82h0c0-.2.05-.39.17-.56h0c.3-.46.93-.59,1.38-.28h0c.29.19.45.5.45.83h0c0,.19-.05.38-.17.55h0c-.19.29-.51.45-.83.45h0c-.19,0-.38-.05-.55-.17Z"/>
  <rect class="cls-1" x="13.79" y="41" width="14.42" height="2" transform="translate(-19.77 18.7) rotate(-33.69)"/>
  <path class="cls-1" d="m14.17,30.55c-.12-.17-.17-.36-.17-.56h0c0-.32.16-.63.45-.82h0c.45-.31,1.07-.18,1.38.28h0c.12.17.17.36.17.56h0c0,.32-.16.63-.45.82h0c-.17.11-.36.17-.55.17h0c-.32,0-.64-.16-.83-.45Zm3.33-2.21c-.12-.18-.17-.37-.17-.56h0c0-.33.16-.64.44-.83h0c.46-.31,1.08-.18,1.39.28h0c.11.17.17.36.17.56h0c0,.32-.16.63-.45.82h0c-.17.12-.36.17-.55.17h0c-.32,0-.64-.16-.83-.44Zm3.32-2.22c-.11-.18-.17-.37-.16-.56h0c0-.32.15-.64.44-.83h0c.46-.31,1.08-.18,1.39.28h0c.11.17.17.36.17.56h0c-.01.32-.16.63-.45.83h0c-.17.11-.36.16-.55.16h0c-.33,0-.64-.15-.84-.44Zm3.33-2.22c-.11-.17-.17-.37-.17-.56h0c0-.32.16-.64.45-.83h0c.46-.31,1.08-.18,1.39.28h0c.11.17.17.37.16.56h0c0,.32-.15.63-.44.83h0c-.17.11-.36.16-.56.16h0c-.32,0-.64-.15-.83-.44Z"/>
  <rect class="cls-1" x="20" y="26.79" width="2" height="14.42" transform="translate(-18.94 32.61) rotate(-56.31)"/>
  <path class="cls-1" d="m32.4,38.8c-.26-.2-.4-.5-.4-.8h0c0-.21.06-.42.2-.6h0c.33-.44.96-.53,1.4-.2h0c.26.2.4.5.4.8h0c0,.21-.07.42-.2.6h0c-.2.26-.5.4-.8.4h0c-.21,0-.42-.06-.6-.2Zm2.4-3.2c-.26-.2-.4-.5-.4-.8h0c0-.21.06-.42.2-.6h0c.33-.44.96-.53,1.4-.2h0c.26.2.4.5.4.8h0c0,.21-.07.42-.2.6h0c-.2.26-.5.4-.8.4h0c-.21,0-.42-.06-.6-.2Zm2.4-3.2c-.26-.2-.4-.5-.4-.8h0c0-.21.06-.42.2-.6h0c.33-.44.96-.53,1.4-.2h0c.26.2.4.5.4.8h0c0,.21-.07.42-.2.6h0c-.2.26-.5.4-.8.4h0c-.21,0-.42-.07-.6-.2Zm2.4-3.2c-.26-.2-.4-.5-.4-.8h0c0-.21.06-.42.2-.6h0c.33-.44.96-.53,1.4-.2h0c.26.2.4.5.4.8h0c0,.21-.07.42-.2.6h0c-.2.26-.5.4-.8.4h0c-.21,0-.42-.07-.6-.2Zm2.4-3.2c-.26-.2-.4-.5-.4-.8h0c0-.21.06-.42.2-.6h0c.33-.44.96-.53,1.4-.2h0c.26.2.4.5.4.8h0c0,.21-.07.42-.2.6h0c-.2.26-.5.4-.8.4h0c-.21,0-.42-.06-.6-.2Zm2.4-3.2c-.26-.2-.4-.5-.4-.8h0c0-.21.06-.42.2-.6h0c.33-.44.96-.53,1.4-.2h0c.26.2.4.5.4.8h0c0,.21-.06.42-.2.6h0c-.2.26-.5.4-.8.4h0c-.21,0-.42-.06-.6-.2Z"/>
</svg>