<?xml version="1.0" encoding="UTF-8"?>
<svg id="Layer_1" data-name="Layer 1" xmlns="http://www.w3.org/2000/svg" viewBox="0 0 60 60">
  <defs>
    <style>
      .cls-1 {
        fill: #37464c;
        stroke-width: 0px;
      }
    </style>
  </defs>
  <g>
    <g>
      <path class="cls-1" d="m51.03,56.05H8.65c-.32,0-.58-.26-.58-.58v-5.51c0-9.85,8.01-17.86,17.86-17.86h7.82c9.85,0,17.86,8.01,17.86,17.86v5.51c0,.32-.26.58-.58.58Zm-41.8-1.16h41.22v-4.94c0-9.21-7.49-16.7-16.7-16.7h-7.82c-9.21,0-16.7,7.49-16.7,16.7v4.94Z"/>
      <path class="cls-1" d="m51.04,56.42H8.65c-.53,0-.95-.43-.95-.95v-5.51c0-10.05,8.18-18.23,18.23-18.23h7.82c10.05,0,18.23,8.18,18.23,18.23v5.51c0,.53-.43.95-.95.95Zm-25.1-23.95c-9.64,0-17.48,7.84-17.48,17.48v5.51c0,.11.09.2.2.2h42.38c.11,0,.2-.09.2-.2v-5.51c0-9.64-7.84-17.48-17.48-17.48h-7.82Zm24.9,22.79H8.86v-5.31c0-9.42,7.66-17.08,17.08-17.08h7.82c9.42,0,17.08,7.66,17.08,17.08v5.31Zm-41.22-.75h40.47v-4.56c0-9-7.32-16.33-16.33-16.33h-7.82c-9,0-16.33,7.32-16.33,16.33v4.56Z"/>
    </g>
    <g>
      <path class="cls-1" d="m29.84,29.67c-4.52,0-8.35-4.03-9.77-10.27-.07-.31.12-.62.44-.69.31-.07.62.12.69.44.98,4.32,3.84,9.37,8.64,9.37s7.66-5.05,8.64-9.37c.07-.31.38-.51.69-.44.31.07.51.38.44.69-1.42,6.24-5.25,10.27-9.77,10.27Z"/>
      <path class="cls-1" d="m29.84,30.05c-4.7,0-8.67-4.15-10.13-10.56-.06-.25-.01-.5.12-.72.14-.22.35-.37.6-.42.25-.05.5-.01.72.12.22.14.37.35.42.6.95,4.19,3.69,9.08,8.27,9.08s7.32-4.89,8.28-9.08c.06-.25.21-.46.42-.6.21-.14.47-.18.72-.12.25.06.46.21.59.42s.18.47.12.72c-1.46,6.42-5.44,10.56-10.13,10.56Zm-9.2-10.98s-.03,0-.04,0c-.07.02-.11.06-.13.09-.03.05-.04.1-.03.15,1.38,6.06,5.07,9.98,9.4,9.98s8.02-3.92,9.4-9.98c.01-.05,0-.11-.03-.15-.03-.05-.07-.08-.13-.09-.05-.01-.11,0-.15.02-.05.03-.08.07-.09.13-1.01,4.46-3.98,9.66-9.01,9.66s-7.99-5.21-9.01-9.66c-.02-.07-.06-.11-.09-.13-.03-.02-.07-.03-.11-.03Z"/>
    </g>
    <g>
      <path class="cls-1" d="m16.05,55.71c-.32,0-.58-.26-.58-.58v-19.01c0-.32.26-.58.58-.58s.58.26.58.58v19.01c0,.32-.26.58-.58.58Z"/>
      <path class="cls-1" d="m16.05,56.09c-.53,0-.95-.43-.95-.95v-19.01c0-.53.43-.95.95-.95s.95.43.95.95v19.01c0,.53-.43.95-.95.95Zm0-20.17c-.11,0-.2.09-.2.2v19.01c0,.22.41.22.41,0v-19.01c0-.11-.09-.2-.2-.2Z"/>
    </g>
    <g>
      <path class="cls-1" d="m43.72,55.71c-.32,0-.58-.26-.58-.58v-19.01c0-.32.26-.58.58-.58s.58.26.58.58v19.01c0,.32-.26.58-.58.58Z"/>
      <path class="cls-1" d="m43.72,56.09c-.53,0-.95-.43-.95-.95v-19.01c0-.53.43-.95.95-.95s.95.43.95.95v19.01c0,.53-.43.95-.95.95Zm0-20.17c-.11,0-.2.09-.2.2v19.01c0,.22.41.22.41,0v-19.01c0-.11-.09-.2-.2-.2Z"/>
    </g>
    <g>
      <path class="cls-1" d="m38.93,45.27h-18.16c-.32,0-.58-.26-.58-.58v-10.92c0-.32.26-.58.58-.58s.58.26.58.58v10.34h17.01v-10.43c0-.32.26-.58.58-.58s.58.26.58.58v11c0,.32-.26.58-.58.58Z"/>
      <path class="cls-1" d="m38.93,45.65h-18.16c-.53,0-.95-.43-.95-.95v-10.92c0-.53.43-.95.95-.95s.95.43.95.95v9.97h16.26v-10.05c0-.53.43-.95.95-.95s.95.43.95.95v11c0,.53-.43.95-.95.95Zm-18.16-12.08c-.11,0-.2.09-.2.2v10.92c0,.11.09.2.2.2h18.16c.11,0,.2-.09.2-.2v-11c0-.22-.41-.22-.41,0v10.8h-17.76v-10.72c0-.11-.09-.2-.2-.2Z"/>
    </g>
  </g>
  <g>
    <path class="cls-1" d="m40.27,19.23c-.32,0-.58-.26-.58-.58,0-7.53-3.96-12.58-9.85-12.58s-9.85,5.06-9.85,12.58c0,.32-.26.58-.58.58s-.58-.26-.58-.58c0-8.22,4.42-13.74,11.01-13.74s11.01,5.52,11.01,13.74c0,.32-.26.58-.58.58Z"/>
    <path class="cls-1" d="m40.27,19.61c-.53,0-.95-.43-.95-.95,0-7.3-3.81-12.21-9.47-12.21s-9.47,4.91-9.47,12.21c0,.53-.43.95-.95.95s-.95-.43-.95-.95c0-8.44,4.57-14.11,11.38-14.11s11.38,5.67,11.38,14.11c0,.53-.43.95-.95.95Zm-10.43-13.91c6.12,0,10.22,5.21,10.22,12.96,0,.22.41.22.41,0,0-7.99-4.27-13.36-10.63-13.36s-10.63,5.37-10.63,13.36c0,.22.41.22.41,0,0-7.75,4.11-12.96,10.22-12.96Z"/>
  </g>
  <g>
    <path class="cls-1" d="m41.66,19.85h-23.63c-.32,0-.58-.26-.58-.58s.26-.58.58-.58h23.63c.32,0,.58.26.58.58s-.26.58-.58.58Z"/>
    <path class="cls-1" d="m41.66,20.22h-23.63c-.53,0-.95-.43-.95-.95s.43-.95.95-.95h23.63c.53,0,.95.43.95.95s-.43.95-.95.95Zm-23.63-1.16c-.11,0-.2.09-.2.2s.09.2.2.2h23.63c.11,0,.2-.09.2-.2s-.09-.2-.2-.2h-23.63Z"/>
  </g>
  <g>
    <g>
      <path class="cls-1" d="m33.21,11.73c-.32,0-.58-.26-.58-.58v-4.65c0-.32.26-.58.58-.58s.58.26.58.58v4.65c0,.32-.26.58-.58.58Z"/>
      <path class="cls-1" d="m33.21,12.1c-.53,0-.95-.43-.95-.95v-4.65c0-.53.43-.95.95-.95s.95.43.95.95v4.65c0,.53-.43.95-.95.95Zm0-5.8c-.11,0-.2.09-.2.2v4.65c0,.22.41.22.41,0v-4.65c0-.11-.09-.2-.2-.2Z"/>
    </g>
    <g>
      <path class="cls-1" d="m29.84,15.09c-.32,0-.58-.26-.58-.58V5.49c0-.32.26-.58.58-.58s.58.26.58.58v9.02c0,.32-.26.58-.58.58Z"/>
      <path class="cls-1" d="m29.84,15.46c-.53,0-.95-.43-.95-.95V5.5c0-.53.43-.95.95-.95s.95.43.95.95v9.02c0,.53-.43.95-.95.95Zm0-10.17c-.11,0-.2.09-.2.2v9.02c0,.22.41.22.41,0V5.5c0-.11-.09-.2-.2-.2Z"/>
    </g>
    <g>
      <path class="cls-1" d="m26.48,11.73c-.32,0-.58-.26-.58-.58v-4.65c0-.32.26-.58.58-.58s.58.26.58.58v4.65c0,.32-.26.58-.58.58Z"/>
      <path class="cls-1" d="m26.48,12.1c-.53,0-.95-.43-.95-.95v-4.65c0-.53.43-.95.95-.95s.95.43.95.95v4.65c0,.53-.43.95-.95.95Zm0-5.8c-.11,0-.2.09-.2.2v4.65c0,.22.41.22.41,0v-4.65c0-.11-.09-.2-.2-.2Z"/>
    </g>
  </g>
  <g>
    <path class="cls-1" d="m38.93,50.38h-6.43c-.32,0-.58-.26-.58-.58s.26-.58.58-.58h6.43c.32,0,.58.26.58.58s-.26.58-.58.58Z"/>
    <path class="cls-1" d="m38.93,50.75h-6.43c-.53,0-.95-.43-.95-.95s.43-.95.95-.95h6.43c.53,0,.95.43.95.95s-.43.95-.95.95Zm-6.43-1.16c-.11,0-.2.09-.2.2s.09.2.2.2h6.43c.11,0,.2-.09.2-.2s-.09-.2-.2-.2h-6.43Z"/>
  </g>
</svg>