<?xml version="1.0" encoding="UTF-8"?>
<svg id="Layer_1" data-name="Layer 1" xmlns="http://www.w3.org/2000/svg" viewBox="0 0 60 60">
  <defs>
    <style>
      .cls-1 {
        fill: #37464c;
        stroke-width: 0px;
      }
    </style>
  </defs>
  <path class="cls-1" d="m17,51.09c-.55,0-1-.45-1-1s.45-1,1-1c4.39,0,7.85-5.45,8.9-9.31.23-.83.67-1.6,1.28-2.21l6.99-6.99c.97-.97.97-2.56,0-3.54-.48-.48-1.1-.74-1.77-.74h0c-.67,0-1.3.26-1.77.73l-7.13,7.14c-.12.12-.24.22-.37.32-.71.51-1.6.64-2.45.37-.91-.29-1.63-1.01-1.94-1.91l-.43-1.28c-.17-.52.11-1.09.63-1.27.53-.18,1.09.11,1.26.63l.43,1.28c.1.3.35.55.65.64.17.06.43.09.67-.09.04-.03.09-.07.12-.11l7.13-7.14c.85-.85,1.98-1.32,3.18-1.32h0c1.2,0,2.33.47,3.18,1.32,1.76,1.76,1.76,4.61,0,6.37l-6.99,6.99c-.37.37-.63.82-.77,1.32-1.13,4.17-5.07,10.79-10.83,10.79Z"/>
  <path class="cls-1" d="m17,57.09c-.26,0-.51-.1-.71-.29-.39-.39-.39-1.02,0-1.41l2.29-2.29-12.59-12.59-2.29,2.29c-.39.39-1.02.39-1.41,0s-.39-1.02,0-1.41l3-3c.39-.39,1.02-.39,1.41,0l14,14c.39.39.39,1.02,0,1.41l-3,3c-.2.2-.45.29-.71.29Z"/>
  <path class="cls-1" d="m7,41.09c-.08,0-.16,0-.24-.03-.54-.13-.86-.67-.73-1.21l3.69-14.96c.55-2.24,2.55-3.8,4.85-3.8h8.42c.55,0,1,.45,1,1s-.45,1-1,1h-8.42s0,0,0,0c-1.39,0-2.58.94-2.91,2.28l-3.69,14.96c-.11.46-.52.76-.97.76Z"/>
  <path class="cls-1" d="m29,17.09c-.55,0-1-.45-1-1v-4c0-.55.45-1,1-1s1,.45,1,1v4c0,.55-.45,1-1,1Z"/>
  <path class="cls-1" d="m29,23.09c-.55,0-1-.45-1-1v-2c0-.55.45-1,1-1s1,.45,1,1v2c0,.55-.45,1-1,1Z"/>
  <path class="cls-1" d="m23,28.6c-.55,0-1-.45-1-1V9.09c0-2.21,1.79-4,4-4h20c2.21,0,4,1.79,4,4v3c0,.55-.45,1-1,1s-1-.45-1-1v-3c0-1.1-.9-2-2-2h-20c-1.1,0-2,.9-2,2v18.51c0,.55-.45,1-1,1Z"/>
  <path class="cls-1" d="m46,47.09h-17.4c-.55,0-1-.45-1-1s.45-1,1-1h17.4c1.1,0,2-.9,2-2v-3c0-.55.45-1,1-1s1,.45,1,1v3c0,2.21-1.79,4-4,4Z"/>
  <path class="cls-1" d="m41.83,29.92c-.26,0-.51-.1-.71-.29-.39-.39-.39-1.02,0-1.41.57-.57.88-1.32.88-2.12s-.31-1.55-.88-2.12c-.39-.39-.39-1.02,0-1.41s1.02-.39,1.41,0c.94.94,1.46,2.2,1.46,3.54s-.52,2.59-1.46,3.54c-.2.2-.45.29-.71.29Z"/>
  <path class="cls-1" d="m45.36,33.45c-.26,0-.51-.1-.71-.29-.39-.39-.39-1.02,0-1.41,3.12-3.12,3.12-8.19,0-11.31-.39-.39-.39-1.02,0-1.41.39-.39,1.02-.39,1.41,0,3.9,3.9,3.9,10.24,0,14.14-.2.2-.45.29-.71.29Z"/>
  <path class="cls-1" d="m48.9,36.99c-.26,0-.51-.1-.71-.29-.39-.39-.39-1.02,0-1.41,2.46-2.46,3.81-5.72,3.81-9.19s-1.35-6.74-3.81-9.19c-.39-.39-.39-1.02,0-1.41s1.02-.39,1.41,0c2.83,2.83,4.39,6.6,4.39,10.61s-1.56,7.77-4.39,10.61c-.2.2-.45.29-.71.29Z"/>
  <path class="cls-1" d="m40,19.09h-4c-1.1,0-2-.9-2-2v-4c0-1.1.9-2,2-2h4c1.1,0,2,.9,2,2v4c0,1.1-.9,2-2,2Zm-4-6v4h4v-4h-4Z"/>
</svg>