<?xml version="1.0" encoding="UTF-8"?>
<svg id="Layer_1" data-name="Layer 1" xmlns="http://www.w3.org/2000/svg" viewBox="0 0 60 60">
  <defs>
    <style>
      .cls-1 {
        fill: #37464c;
        stroke-width: 0px;
      }
    </style>
  </defs>
  <path class="cls-1" d="m48,54.31H14c-2.76,0-5-2.24-5-5s2.24-5,5-5h34c2.76,0,5,2.24,5,5s-2.24,5-5,5Zm-34-8c-1.65,0-3,1.35-3,3s1.35,3,3,3h34c1.65,0,3-1.35,3-3s-1.35-3-3-3H14Z"/>
  <path class="cls-1" d="m31,18.31c-3.31,0-6-2.69-6-6s2.69-6,6-6,6,2.69,6,6-2.69,6-6,6Zm0-10c-2.21,0-4,1.79-4,4s1.79,4,4,4,4-1.79,4-4-1.79-4-4-4Z"/>
  <path class="cls-1" d="m52,26.31c-2.76,0-5-2.24-5-5s2.24-5,5-5,5,2.24,5,5-2.24,5-5,5Zm0-8c-1.65,0-3,1.35-3,3s1.35,3,3,3,3-1.35,3-3-1.35-3-3-3Z"/>
  <path class="cls-1" d="m10,26.31c-2.76,0-5-2.24-5-5s2.24-5,5-5,5,2.24,5,5-2.24,5-5,5Zm0-8c-1.65,0-3,1.35-3,3s1.35,3,3,3,3-1.35,3-3-1.35-3-3-3Z"/>
  <path class="cls-1" d="m42.34,28.31c-5.66,0-10.3-5.12-10.34-11.42,0-.55.44-1,.99-1.01h0c.55,0,1,.44,1,.99.03,5.2,3.77,9.43,8.34,9.43,2.27,0,4.39-1.04,5.99-2.92.36-.42.99-.48,1.41-.12.42.36.47.99.12,1.41-1.98,2.34-4.65,3.62-7.51,3.62Z"/>
  <path class="cls-1" d="m48,46.31H14c-.48,0-.89-.34-.98-.8l-4-20c-.11-.54.24-1.07.78-1.18.55-.11,1.07.24,1.18.78l3.84,19.2h32.36l3.84-19.2c.11-.54.64-.89,1.18-.78.54.11.89.64.78,1.18l-4,20c-.09.47-.5.8-.98.8Z"/>
  <path class="cls-1" d="m19.66,28.31c-2.86,0-5.53-1.29-7.51-3.62-.36-.42-.3-1.05.12-1.41.42-.36,1.05-.3,1.41.12,1.59,1.88,3.72,2.92,5.99,2.92,4.56,0,8.3-4.23,8.34-9.43,0-.55.45-.99,1-.99h0c.55,0,1,.45.99,1.01-.04,6.3-4.68,11.42-10.34,11.42Z"/>
</svg>