<?xml version="1.0" encoding="UTF-8"?>
<svg id="Layer_1" data-name="Layer 1" xmlns="http://www.w3.org/2000/svg" viewBox="0 0 60 60">
  <defs>
    <style>
      .cls-1 {
        fill: #37464c;
        stroke-width: 0px;
      }
    </style>
  </defs>
  <g>
    <path class="cls-1" d="m30,57.35c-6.98,0-13.58-2.62-18.66-7.41l-3.16,3.16c-.22.22-.55.3-.85.21-.3-.09-.53-.34-.59-.65l-2.99-14.94c-.06-.3.05-.61.28-.81.23-.2.55-.26.84-.16l13.24,4.69c.27.1.48.33.54.61.06.29-.02.58-.23.79l-2.28,2.28c3.77,3.47,9.02,5.68,13.61,5.68.47,0,.85.38.85.85s-.38.85-.85.85c-5.36,0-11.27-2.59-15.43-6.76-.33-.33-.33-.87,0-1.2l1.94-1.94-10.56-3.74,2.38,11.92,2.62-2.62c.16-.16.38-.25.6-.25h0c.23,0,.44.09.6.25,4.83,4.84,11.25,7.5,18.06,7.5,14.1,0,25.56-11.47,25.56-25.56,0-.19,0-.37-.01-.55v-.23c-.02-.47.35-.86.82-.87.47,0,.86.36.87.83v.22c.01.2.02.41.02.61,0,15.03-12.23,27.26-27.26,27.26Z"/>
    <g>
      <path class="cls-1" d="m33.83,52.04c-.11,0-.22-.02-.32-.06-.11-.04-.2-.1-.28-.18-.16-.16-.25-.38-.25-.6,0-.12.02-.23.07-.33.04-.1.1-.2.18-.28.08-.07.17-.14.28-.18.2-.09.44-.09.65,0,.1.04.19.11.27.18.08.08.14.18.19.28.04.1.06.21.06.33,0,.22-.09.44-.25.6-.16.16-.37.24-.6.24Z"/>
      <path class="cls-1" d="m38.69,50.44c-.22,0-.43-.09-.6-.25-.08-.08-.14-.17-.18-.27-.04-.11-.07-.22-.07-.33,0-.22.1-.44.25-.6.24-.24.62-.31.93-.18.1.04.2.1.28.18.16.16.25.38.25.6,0,.12-.03.22-.07.33-.04.1-.1.19-.19.27-.15.16-.37.25-.6.25Z"/>
      <path class="cls-1" d="m43.07,47.8c-.23,0-.44-.09-.6-.25-.16-.16-.25-.37-.25-.6,0-.11.02-.22.06-.33.05-.1.11-.19.19-.27.07-.08.17-.14.27-.19.31-.13.69-.05.93.19.16.16.25.38.25.6,0,.11-.02.22-.07.32-.04.11-.1.2-.18.28s-.17.14-.28.18c-.1.05-.21.07-.32.07Z"/>
      <path class="cls-1" d="m46.73,44.26c-.12,0-.23-.03-.33-.07-.1-.04-.19-.1-.27-.18-.16-.16-.25-.38-.25-.61,0-.11.02-.22.06-.32.04-.11.1-.2.18-.28s.17-.14.28-.18c.21-.09.44-.09.65,0,.11.04.2.1.28.18s.14.17.18.28c.04.1.07.21.07.32,0,.23-.09.44-.25.61-.16.16-.38.25-.6.25Z"/>
      <path class="cls-1" d="m49.48,39.99c-.11,0-.22-.02-.32-.07-.11-.04-.2-.1-.28-.18-.16-.16-.25-.37-.25-.6,0-.11.02-.22.07-.33.04-.1.1-.2.18-.27.08-.08.17-.14.28-.19.2-.08.44-.08.65,0,.1.05.19.11.27.19.08.07.14.17.19.27.04.11.06.22.06.33,0,.23-.09.44-.25.6-.16.16-.37.25-.6.25Z"/>
      <path class="cls-1" d="m51.19,35.22c-.11,0-.22-.02-.32-.06-.11-.05-.2-.11-.28-.19-.16-.16-.25-.37-.25-.6s.09-.44.25-.6c.32-.32.89-.32,1.2,0,.16.16.25.38.25.6s-.09.44-.25.6-.37.25-.6.25Z"/>
      <path class="cls-1" d="m51.77,30.19c-.11,0-.22-.02-.32-.06-.1-.04-.2-.1-.28-.18-.16-.16-.25-.37-.25-.6,0-.12.03-.22.07-.33.04-.1.1-.2.18-.28.08-.07.17-.14.28-.18.31-.13.69-.05.93.18.07.08.14.18.18.28.04.11.07.21.07.33,0,.23-.09.44-.26.6-.08.08-.17.14-.27.18-.1.04-.21.06-.33.06Z"/>
    </g>
  </g>
  <g>
    <path class="cls-1" d="m3.61,31.74c-.46,0-.84-.36-.85-.83v-.22c-.01-.2-.02-.41-.02-.61C2.74,15.05,14.97,2.82,30,2.82c6.99,0,13.58,2.62,18.66,7.4l3.15-3.15c.22-.22.55-.3.85-.21.3.09.53.34.59.65l2.99,14.94c.06.3-.05.61-.28.81-.23.2-.55.26-.84.16l-13.29-4.64c-.28-.1-.48-.33-.55-.61-.06-.29.02-.58.23-.79l2.4-2.39c-3.63-3.34-8.38-5.24-13.16-5.24-.47,0-.85-.38-.85-.85s.38-.85.85-.85c5.5,0,10.96,2.3,14.98,6.33.16.16.25.38.25.6,0,.23-.09.44-.25.6l-2.05,2.05,10.6,3.7-2.39-11.92-2.62,2.62c-.32.32-.88.32-1.2,0-4.83-4.83-11.25-7.5-18.07-7.5C15.9,4.52,4.44,15.99,4.44,30.08c0,.19,0,.37.01.55v.23c.02.47-.35.86-.82.87h-.02Z"/>
    <g>
      <path class="cls-1" d="m26,9.74c-.12,0-.23-.02-.33-.06-.1-.05-.2-.11-.27-.19-.08-.08-.15-.17-.19-.27-.04-.11-.06-.22-.06-.33s.02-.22.06-.33c.04-.1.11-.19.19-.27.23-.24.6-.32.92-.19.11.05.2.11.28.19.08.08.14.17.18.27.04.11.06.22.06.33s-.02.22-.06.33c-.04.1-.1.19-.18.27-.16.16-.38.25-.6.25Z"/>
      <path class="cls-1" d="m21.3,11.27c-.11,0-.22-.03-.33-.07-.1-.04-.19-.1-.27-.18-.16-.16-.25-.37-.25-.6,0-.11.02-.22.06-.33.05-.1.11-.19.19-.27.08-.08.17-.14.27-.19.32-.13.69-.05.93.19.08.08.14.17.18.27.05.11.07.22.07.33,0,.23-.09.44-.25.6s-.37.25-.6.25Z"/>
      <path class="cls-1" d="m17.08,13.78c-.12,0-.23-.02-.33-.06s-.2-.11-.28-.19c-.16-.16-.24-.37-.24-.6s.09-.44.24-.6c.08-.08.18-.14.28-.18.21-.09.44-.09.65,0,.1.04.2.1.28.18s.14.17.18.28c.04.1.06.21.06.32,0,.12-.02.23-.06.33s-.1.19-.19.27c-.16.16-.37.25-.59.25Z"/>
      <path class="cls-1" d="m13.54,17.15c-.23,0-.44-.08-.6-.24-.08-.08-.14-.18-.18-.28-.05-.1-.07-.21-.07-.32s.02-.23.07-.33c.04-.1.1-.2.18-.28.24-.23.61-.31.93-.18.1.04.19.11.27.18.08.08.14.18.19.28.04.1.06.22.06.33,0,.22-.09.44-.25.6s-.37.24-.6.24Z"/>
      <path class="cls-1" d="m10.88,21.21c-.23,0-.44-.08-.6-.24-.08-.08-.14-.17-.19-.28-.04-.1-.06-.21-.06-.32,0-.12.02-.23.06-.33.05-.1.11-.2.19-.27.08-.08.17-.15.28-.19.2-.08.44-.08.65,0,.1.04.19.11.27.19.08.07.14.17.19.27.04.1.06.21.06.33,0,.11-.02.22-.06.32-.05.11-.11.2-.19.28-.16.16-.37.24-.6.24Z"/>
      <path class="cls-1" d="m9.22,25.76c-.11,0-.22-.03-.32-.07-.1-.04-.19-.11-.27-.19-.16-.15-.25-.37-.25-.59,0-.23.09-.45.24-.61.08-.08.18-.14.28-.18.21-.09.44-.09.65,0,.1.04.2.1.28.18.16.16.25.38.25.61,0,.11-.03.22-.07.32-.04.1-.1.19-.18.27-.17.17-.38.26-.61.26Z"/>
      <path class="cls-1" d="m8.66,30.54c-.11,0-.22-.02-.32-.07-.1-.04-.2-.1-.28-.18-.08-.08-.14-.18-.18-.28s-.06-.21-.06-.32c0-.23.09-.45.24-.61.24-.23.62-.31.93-.18.1.04.2.11.27.18.17.16.26.38.26.61s-.09.43-.26.6c-.16.16-.37.25-.6.25Z"/>
    </g>
  </g>
</svg>