<svg width="151" height="151" xmlns="http://www.w3.org/2000/svg" xmlns:xlink="http://www.w3.org/1999/xlink" xml:space="preserve" overflow="hidden"><g transform="translate(-1005 -141)"><path d="M1123.48 188.288 1012.75 188.288C1011.37 188.288 1010.23 187.156 1010.23 185.771 1010.23 184.387 1011.37 183.255 1012.75 183.255L1123.48 183.255C1124.87 183.255 1126 184.387 1126 185.771 1126 187.156 1124.87 188.288 1123.48 188.288Z" fill="#6100DC"/><path d="M1108.38 203.388 1088.25 203.388C1086.87 203.388 1085.73 202.256 1085.73 200.872 1085.73 199.487 1086.87 198.355 1088.25 198.355L1108.38 198.355C1109.77 198.355 1110.9 199.487 1110.9 200.872 1110.9 202.256 1109.77 203.388 1108.38 203.388ZM1078.18 203.388 1042.95 203.388C1041.57 203.388 1040.43 202.256 1040.43 200.872 1040.43 199.487 1041.57 198.355 1042.95 198.355L1078.18 198.355C1079.57 198.355 1080.7 199.487 1080.7 200.872 1080.7 202.256 1079.57 203.388 1078.18 203.388ZM1032.88 203.388 1027.85 203.388C1026.47 203.388 1025.33 202.256 1025.33 200.872 1025.33 199.487 1026.47 198.355 1027.85 198.355L1032.88 198.355C1034.27 198.355 1035.4 199.487 1035.4 200.872 1035.4 202.256 1034.27 203.388 1032.88 203.388Z" fill="#6100DC"/><path d="M1108.38 223.521 1088.25 223.521C1086.87 223.521 1085.73 222.389 1085.73 221.005 1085.73 219.621 1086.87 218.488 1088.25 218.488L1108.38 218.488C1109.77 218.488 1110.9 219.621 1110.9 221.005 1110.9 222.389 1109.77 223.521 1108.38 223.521ZM1078.18 223.521 1042.95 223.521C1041.57 223.521 1040.43 222.389 1040.43 221.005 1040.43 219.621 1041.57 218.488 1042.95 218.488L1078.18 218.488C1079.57 218.488 1080.7 219.621 1080.7 221.005 1080.7 222.389 1079.57 223.521 1078.18 223.521ZM1032.88 223.521 1027.85 223.521C1026.47 223.521 1025.33 222.389 1025.33 221.005 1025.33 219.621 1026.47 218.488 1027.85 218.488L1032.88 218.488C1034.27 218.488 1035.4 219.621 1035.4 221.005 1035.4 222.389 1034.27 223.521 1032.88 223.521Z" fill="#6100DC"/><path d="M1118.45 213.455 1113.42 213.455C1112.03 213.455 1110.9 212.322 1110.9 210.938 1110.9 209.554 1112.03 208.422 1113.42 208.422L1118.45 208.422C1119.84 208.422 1120.97 209.554 1120.97 210.938 1120.97 212.322 1119.84 213.455 1118.45 213.455ZM1103.35 213.455 1068.12 213.455C1066.73 213.455 1065.6 212.322 1065.6 210.938 1065.6 209.554 1066.73 208.422 1068.12 208.422L1103.35 208.422C1104.74 208.422 1105.87 209.554 1105.87 210.938 1105.87 212.322 1104.74 213.455 1103.35 213.455ZM1058.05 213.455 1037.92 213.455C1036.53 213.455 1035.4 212.322 1035.4 210.938 1035.4 209.554 1036.53 208.422 1037.92 208.422L1058.05 208.422C1059.44 208.422 1060.57 209.554 1060.57 210.938 1060.57 212.322 1059.44 213.455 1058.05 213.455Z" fill="#6100DC"/><path d="M1118.45 243.655 1113.42 243.655C1112.03 243.655 1110.9 242.522 1110.9 241.138 1110.9 239.754 1112.03 238.621 1113.42 238.621L1118.45 238.621C1119.84 238.621 1120.97 239.754 1120.97 241.138 1120.97 242.522 1119.84 243.655 1118.45 243.655ZM1103.35 243.655 1088.25 243.655C1086.87 243.655 1085.73 242.522 1085.73 241.138 1085.73 239.754 1086.87 238.621 1088.25 238.621L1103.35 238.621C1104.74 238.621 1105.87 239.754 1105.87 241.138 1105.87 242.522 1104.74 243.655 1103.35 243.655ZM1078.18 243.655 1042.95 243.655C1041.57 243.655 1040.43 242.522 1040.43 241.138 1040.43 239.754 1041.57 238.621 1042.95 238.621L1078.18 238.621C1079.57 238.621 1080.7 239.754 1080.7 241.138 1080.7 242.522 1079.57 243.655 1078.18 243.655ZM1032.88 243.655 1027.85 243.655C1026.47 243.655 1025.33 242.522 1025.33 241.138 1025.33 239.754 1026.47 238.621 1027.85 238.621L1032.88 238.621C1034.27 238.621 1035.4 239.754 1035.4 241.138 1035.4 242.522 1034.27 243.655 1032.88 243.655Z" fill="#6100DC"/><path d="M1118.45 233.588 1103.35 233.588C1101.97 233.588 1100.83 232.456 1100.83 231.072 1100.83 229.687 1101.97 228.555 1103.35 228.555L1118.45 228.555C1119.84 228.555 1120.97 229.687 1120.97 231.072 1120.97 232.456 1119.84 233.588 1118.45 233.588ZM1093.28 233.588 1083.22 233.588C1081.83 233.588 1080.7 232.456 1080.7 231.072 1080.7 229.687 1081.83 228.555 1083.22 228.555L1093.28 228.555C1094.67 228.555 1095.8 229.687 1095.8 231.072 1095.8 232.456 1094.67 233.588 1093.28 233.588ZM1073.15 233.588 1053.02 233.588C1051.63 233.588 1050.5 232.456 1050.5 231.072 1050.5 229.687 1051.63 228.555 1053.02 228.555L1073.15 228.555C1074.54 228.555 1075.67 229.687 1075.67 231.072 1075.67 232.456 1074.54 233.588 1073.15 233.588ZM1042.95 233.588 1027.85 233.588C1026.47 233.588 1025.33 232.456 1025.33 231.072 1025.33 229.687 1026.47 228.555 1027.85 228.555L1042.95 228.555C1044.34 228.555 1045.47 229.687 1045.47 231.072 1045.47 232.456 1044.34 233.588 1042.95 233.588Z" fill="#6100DC"/><path d="M1022.82 178.221C1022.16 178.221 1021.51 177.945 1021.03 177.492 1020.58 177.014 1020.3 176.359 1020.3 175.705 1020.3 175.051 1020.58 174.396 1021.03 173.918 1021.96 172.987 1023.67 172.987 1024.6 173.918 1025.06 174.396 1025.33 175.025 1025.33 175.705 1025.33 176.384 1025.06 177.014 1024.6 177.492 1024.13 177.945 1023.47 178.221 1022.82 178.221Z" fill="#6100DC"/><path d="M1032.88 178.221C1032.56 178.221 1032.23 178.146 1031.93 178.02 1031.6 177.894 1031.35 177.718 1031.1 177.492 1030.64 177.014 1030.37 176.359 1030.37 175.705 1030.37 175.051 1030.64 174.396 1031.1 173.918 1031.35 173.691 1031.6 173.515 1031.93 173.389 1032.86 172.987 1033.97 173.213 1034.67 173.918 1035.12 174.396 1035.4 175.025 1035.4 175.705 1035.4 176.384 1035.12 177.014 1034.67 177.492 1034.55 177.592 1034.42 177.693 1034.27 177.794 1034.14 177.894 1033.99 177.97 1033.84 178.02 1033.69 178.096 1033.54 178.146 1033.36 178.171 1033.21 178.171 1033.06 178.221 1032.88 178.221Z" fill="#6100DC"/><path d="M1042.95 178.221C1042.8 178.221 1042.62 178.196 1042.47 178.171 1042.3 178.146 1042.15 178.096 1041.99 178.02 1041.84 177.97 1041.69 177.894 1041.54 177.794 1041.42 177.693 1041.29 177.592 1041.16 177.492 1040.71 177.014 1040.43 176.359 1040.43 175.705 1040.43 175.051 1040.71 174.396 1041.16 173.918 1041.29 173.792 1041.42 173.691 1041.54 173.616 1041.69 173.515 1041.84 173.44 1041.99 173.389 1042.15 173.314 1042.3 173.264 1042.47 173.238 1043.28 173.062 1044.16 173.339 1044.74 173.918 1045.19 174.396 1045.47 175.025 1045.47 175.705 1045.47 176.384 1045.19 177.014 1044.74 177.492 1044.26 177.945 1043.61 178.221 1042.95 178.221Z" fill="#6100DC"/><path d="M1123.48 258.755 1022.82 258.755C1015.87 258.755 1010.23 253.117 1010.23 246.172L1010.23 175.705C1010.23 168.759 1015.87 163.122 1022.82 163.122L1123.48 163.122C1130.43 163.122 1136.07 168.759 1136.07 175.705L1136.07 246.172C1136.07 253.117 1130.43 258.755 1123.48 258.755ZM1022.82 168.155C1018.67 168.155 1015.27 171.552 1015.27 175.705L1015.27 246.172C1015.27 250.324 1018.67 253.721 1022.82 253.721L1123.48 253.721C1127.64 253.721 1131.03 250.324 1131.03 246.172L1131.03 175.705C1131.03 171.552 1127.64 168.155 1123.48 168.155L1022.82 168.155Z" fill="#6100DC"/><path d="M1138.58 273.855 1037.92 273.855C1030.97 273.855 1025.33 268.217 1025.33 261.271L1025.33 256.238 1030.37 256.238 1030.37 261.271C1030.37 265.424 1033.77 268.822 1037.92 268.822L1138.58 268.822C1142.74 268.822 1146.13 265.424 1146.13 261.271L1146.13 190.805C1146.13 186.652 1142.74 183.255 1138.58 183.255L1133.55 183.255 1133.55 178.221 1138.58 178.221C1145.53 178.221 1151.17 183.859 1151.17 190.805L1151.17 261.271C1151.17 268.217 1145.53 273.855 1138.58 273.855Z" fill="#6100DC"/></g></svg>