<?xml version="1.0" encoding="UTF-8"?>
<svg id="Layer_1" data-name="Layer 1" xmlns="http://www.w3.org/2000/svg" viewBox="0 0 60 60">
  <defs>
    <style>
      .cls-1 {
        fill: #37464c;
        stroke-width: 0px;
      }
    </style>
  </defs>
  <g>
    <g>
      <path class="cls-1" d="m52.29,42.68H7.18c-2.28,0-4.14-1.86-4.14-4.14V12.36c0-2.28,1.86-4.14,4.14-4.14h45.11c2.28,0,4.14,1.86,4.14,4.14v26.18c0,2.28-1.86,4.14-4.14,4.14ZM7.18,9.44c-1.61,0-2.92,1.31-2.92,2.92v26.18c0,1.61,1.31,2.92,2.92,2.92h45.11c1.61,0,2.92-1.31,2.92-2.92V12.36c0-1.61-1.31-2.92-2.92-2.92H7.18Z"/>
      <path class="cls-1" d="m52.29,43.06H7.18c-2.49,0-4.52-2.03-4.52-4.52V12.36c0-2.49,2.03-4.52,4.52-4.52h45.11c2.49,0,4.52,2.03,4.52,4.52v26.18c0,2.49-2.03,4.52-4.52,4.52ZM7.18,8.59c-2.08,0-3.77,1.69-3.77,3.77v26.18c0,2.08,1.69,3.77,3.77,3.77h45.11c2.08,0,3.77-1.69,3.77-3.77V12.36c0-2.08-1.69-3.77-3.77-3.77H7.18Zm45.11,33.25H7.18c-1.82,0-3.3-1.48-3.3-3.3V12.36c0-1.82,1.48-3.3,3.3-3.3h45.11c1.82,0,3.3,1.48,3.3,3.3v26.18c0,1.82-1.48,3.3-3.3,3.3ZM7.18,9.81c-1.41,0-2.55,1.14-2.55,2.55v26.18c0,1.41,1.14,2.55,2.55,2.55h45.11c1.41,0,2.55-1.14,2.55-2.55V12.36c0-1.41-1.14-2.55-2.55-2.55H7.18Z"/>
    </g>
    <g>
      <path class="cls-1" d="m39.43,50.27h-19.39c-1.12,0-2.03-.91-2.03-2.03s.91-2.03,2.03-2.03h19.39c1.12,0,2.03.91,2.03,2.03s-.91,2.03-2.03,2.03Zm-19.39-2.84c-.45,0-.81.36-.81.81s.36.81.81.81h19.39c.45,0,.81-.36.81-.81s-.36-.81-.81-.81h-19.39Z"/>
      <path class="cls-1" d="m39.43,50.65h-19.39c-1.32,0-2.4-1.08-2.4-2.4s1.08-2.4,2.4-2.4h19.39c1.32,0,2.4,1.08,2.4,2.4s-1.08,2.4-2.4,2.4Zm-19.39-4.06c-.91,0-1.65.74-1.65,1.65s.74,1.65,1.65,1.65h19.39c.91,0,1.65-.74,1.65-1.65s-.74-1.65-1.65-1.65h-19.39Zm19.39,2.84h-19.39c-.65,0-1.18-.53-1.18-1.18s.53-1.19,1.18-1.19h19.39c.65,0,1.18.53,1.18,1.19s-.53,1.18-1.18,1.18Zm-19.39-1.62c-.24,0-.43.2-.43.44s.19.43.43.43h19.39c.24,0,.43-.2.43-.43s-.19-.44-.43-.44h-19.39Z"/>
    </g>
    <g>
      <path class="cls-1" d="m29.74,47.43c-.34,0-.61-.27-.61-.61v-4.75c0-.34.27-.61.61-.61s.61.27.61.61v4.75c0,.34-.27.61-.61.61Z"/>
      <path class="cls-1" d="m29.74,47.81c-.54,0-.98-.44-.98-.98v-4.75c0-.54.44-.98.98-.98s.98.44.98.98v4.75c0,.54-.44.98-.98.98Zm0-5.97c-.13,0-.23.11-.23.23v4.75c0,.26.47.26.47,0v-4.75c0-.13-.1-.23-.23-.23Z"/>
    </g>
  </g>
  <path class="cls-1" d="m50.51,38.98H8.85c-1.54,0-2.79-1.2-2.79-2.67V14.6c0-1.47,1.25-2.67,2.79-2.67h41.66c1.54,0,2.79,1.2,2.79,2.67v21.71c0,1.47-1.25,2.67-2.79,2.67ZM8.85,13.52c-.66,0-1.19.48-1.19,1.07v21.71c0,.59.54,1.07,1.19,1.07h41.66c.66,0,1.19-.48,1.19-1.07V14.6c0-.59-.54-1.07-1.19-1.07H8.85Z"/>
</svg>