<svg width="151" height="152" xmlns="http://www.w3.org/2000/svg" xmlns:xlink="http://www.w3.org/1999/xlink" xml:space="preserve" overflow="hidden"><g transform="translate(-426 -415)"><path d="M131.596 107.411 18.0697 107.411C12.3317 107.411 7.65067 102.73 7.65067 96.9923L7.65067 31.106C7.65067 25.368 12.3317 20.687 18.0697 20.687L131.596 20.687C137.335 20.687 142.016 25.368 142.016 31.106L142.016 96.9923C142.016 102.73 137.335 107.411 131.596 107.411ZM18.0697 23.7573C14.0178 23.7573 10.721 27.0542 10.721 31.106L10.721 96.9923C10.721 101.044 14.0178 104.341 18.0697 104.341L131.596 104.341C135.648 104.341 138.945 101.044 138.945 96.9923L138.945 31.106C138.945 27.0542 135.648 23.7573 131.596 23.7573L18.0697 23.7573Z" fill="#6100DC" transform="matrix(1 0 0 1.00662 426 415)"/><path d="M131.596 108.368 18.0697 108.368C11.8032 108.368 6.69433 103.259 6.69433 96.9923L6.69433 31.106C6.69433 24.8395 11.8032 19.7307 18.0697 19.7307L131.596 19.7307C137.863 19.7307 142.972 24.8395 142.972 31.106L142.972 96.9923C142.972 103.259 137.863 108.368 131.596 108.368ZM18.0697 21.6182C12.835 21.6182 8.58183 25.8713 8.58183 31.106L8.58183 96.9923C8.58183 102.227 12.835 106.48 18.0697 106.48L131.596 106.48C136.831 106.48 141.084 102.227 141.084 96.9923L141.084 31.106C141.084 25.8713 136.831 21.6182 131.596 21.6182L18.0697 21.6182ZM131.596 105.297 18.0697 105.297C13.4893 105.297 9.76467 101.573 9.76467 96.9923L9.76467 31.106C9.76467 26.5257 13.4893 22.801 18.0697 22.801L131.596 22.801C136.177 22.801 139.902 26.5257 139.902 31.106L139.902 96.9923C139.902 101.573 136.177 105.297 131.596 105.297ZM18.0697 24.6885C14.5212 24.6885 11.6522 27.5575 11.6522 31.106L11.6522 96.9923C11.6522 100.541 14.5212 103.41 18.0697 103.41L131.596 103.41C135.145 103.41 138.014 100.541 138.014 96.9923L138.014 31.106C138.014 27.5575 135.145 24.6885 131.596 24.6885L18.0697 24.6885Z" fill="#6100DC" transform="matrix(1 0 0 1.00662 426 415)"/><path d="M99.2322 126.513 50.434 126.513C47.6153 126.513 45.3252 124.223 45.3252 121.404 45.3252 118.585 47.6153 116.295 50.434 116.295L99.2322 116.295C102.051 116.295 104.341 118.585 104.341 121.404 104.341 124.223 102.051 126.513 99.2322 126.513ZM50.434 119.366C49.3015 119.366 48.3955 120.271 48.3955 121.404 48.3955 122.536 49.3015 123.442 50.434 123.442L99.2322 123.442C100.365 123.442 101.271 122.536 101.271 121.404 101.271 120.271 100.365 119.366 99.2322 119.366L50.434 119.366Z" fill="#6100DC" transform="matrix(1 0 0 1.00662 426 415)"/><path d="M99.2322 127.469 50.434 127.469C47.112 127.469 44.394 124.751 44.394 121.429 44.394 118.107 47.112 115.389 50.434 115.389L99.2322 115.389C102.554 115.389 105.272 118.107 105.272 121.429 105.272 124.751 102.554 127.469 99.2322 127.469ZM50.434 117.252C48.1438 117.252 46.2815 119.114 46.2815 121.404 46.2815 123.694 48.1438 125.556 50.434 125.556L99.2322 125.556C101.522 125.556 103.385 123.694 103.385 121.404 103.385 119.114 101.522 117.252 99.2322 117.252L50.434 117.252ZM99.2322 124.399 50.434 124.399C48.7982 124.399 47.4643 123.065 47.4643 121.429 47.4643 119.793 48.7982 118.434 50.434 118.434L99.2322 118.434C100.868 118.434 102.202 119.768 102.202 121.429 102.202 123.09 100.868 124.399 99.2322 124.399ZM50.434 120.322C49.83 120.322 49.3518 120.825 49.3518 121.429 49.3518 122.033 49.83 122.511 50.434 122.511L99.2322 122.511C99.8362 122.511 100.314 122.008 100.314 121.429 100.314 120.85 99.8362 120.322 99.2322 120.322L50.434 120.322Z" fill="#6100DC" transform="matrix(1 0 0 1.00662 426 415)"/><path d="M74.8457 119.366C73.99 119.366 73.3105 118.686 73.3105 117.83L73.3105 105.876C73.3105 105.021 73.99 104.341 74.8457 104.341 75.7013 104.341 76.3808 105.021 76.3808 105.876L76.3808 117.83C76.3808 118.686 75.7013 119.366 74.8457 119.366Z" fill="#6100DC" transform="matrix(1 0 0 1.00662 426 415)"/><path d="M74.8457 120.322C73.4867 120.322 72.3793 119.214 72.3793 117.856L72.3793 105.901C72.3793 104.542 73.4867 103.435 74.8457 103.435 76.2047 103.435 77.312 104.542 77.312 105.901L77.312 117.856C77.312 119.214 76.2047 120.322 74.8457 120.322ZM74.8457 105.297C74.5185 105.297 74.2668 105.574 74.2668 105.876L74.2668 117.83C74.2668 118.485 75.4497 118.485 75.4497 117.83L75.4497 105.876C75.4497 105.549 75.198 105.297 74.8708 105.297Z" fill="#6100DC" transform="matrix(1 0 0 1.00662 426 415)"/><path d="M127.117 98.0997 22.2725 98.0997C18.3968 98.0997 15.251 95.0797 15.251 91.3802L15.251 36.7433C15.251 33.0438 18.3968 30.0238 22.2725 30.0238L127.117 30.0238C130.992 30.0238 134.138 33.0438 134.138 36.7433L134.138 91.3802C134.138 95.0797 130.992 98.0997 127.117 98.0997ZM22.2725 34.0253C20.6115 34.0253 19.2777 35.2333 19.2777 36.7182L19.2777 91.355C19.2777 92.8398 20.6367 94.0478 22.2725 94.0478L127.117 94.0478C128.778 94.0478 130.112 92.8398 130.112 91.355L130.112 36.7433C130.112 35.2585 128.753 34.0505 127.117 34.0505L22.2725 34.0505Z" fill="#6100DC" transform="matrix(1 0 0 1.00662 426 415)"/></g></svg>