<?xml version="1.0" encoding="UTF-8"?>
<svg id="Layer_1" data-name="Layer 1" xmlns="http://www.w3.org/2000/svg" viewBox="0 0 60 60">
  <defs>
    <style>
      .cls-1 {
        fill: #37464c;
        stroke-width: 0px;
      }
    </style>
  </defs>
  <g>
    <g>
      <path class="cls-1" d="m29.88,57.66c-6.99,0-13.58-2.62-18.66-7.41l-3.16,3.16c-.22.22-.54.3-.85.21-.3-.09-.53-.34-.59-.65l-2.99-14.94c-.06-.3.04-.61.28-.81.23-.2.55-.26.84-.16l13.24,4.69c.27.1.48.33.54.61.06.29-.02.58-.23.79l-2.28,2.28c3.77,3.47,9.02,5.67,13.61,5.67.47,0,.85.38.85.85s-.38.85-.85.85c-5.36,0-11.27-2.59-15.43-6.76-.33-.33-.33-.87,0-1.2l1.94-1.94-10.56-3.74,2.38,11.92,2.63-2.63c.16-.16.38-.25.6-.25h0c.23,0,.44.09.6.25,4.83,4.84,11.25,7.5,18.06,7.5,14.1,0,25.56-11.47,25.56-25.57,0-.21,0-.41-.01-.61v-.17c-.02-.47.35-.86.82-.88.43,0,.86.35.88.82v.16c.01.22.02.45.02.67,0,15.03-12.23,27.26-27.26,27.26Z"/>
      <g>
        <path class="cls-1" d="m33.72,52.36c-.23,0-.44-.09-.6-.25-.08-.08-.15-.17-.19-.27-.04-.11-.06-.22-.06-.33,0-.23.09-.45.25-.6.23-.24.6-.32.92-.19.11.05.2.11.28.19.16.15.25.37.25.6,0,.11-.03.22-.07.33-.04.1-.1.19-.18.27-.08.08-.17.14-.28.18-.1.05-.21.07-.32.07Z"/>
        <path class="cls-1" d="m38.58,50.75c-.23,0-.44-.08-.6-.25-.08-.07-.14-.17-.18-.27-.05-.1-.07-.21-.07-.33,0-.11.02-.22.07-.32.04-.11.1-.2.18-.28.08-.08.17-.14.28-.18.21-.09.44-.09.65,0,.1.04.19.1.27.18s.14.17.19.28c.04.1.06.21.06.32,0,.12-.02.23-.06.33-.05.1-.11.2-.19.27-.16.17-.37.25-.6.25Z"/>
        <path class="cls-1" d="m42.95,48.11c-.11,0-.22-.02-.32-.06-.11-.04-.2-.11-.28-.19-.08-.08-.14-.17-.18-.27-.05-.11-.07-.21-.07-.33,0-.22.09-.44.25-.6.08-.08.17-.14.28-.18.21-.09.44-.09.65,0,.1.04.2.1.27.18.16.16.26.38.26.6,0,.12-.03.22-.07.33-.04.1-.11.19-.19.27-.08.08-.17.15-.27.19-.1.04-.21.06-.33.06Z"/>
        <path class="cls-1" d="m46.61,44.57c-.23,0-.44-.09-.6-.25-.08-.08-.14-.17-.18-.28-.05-.1-.07-.21-.07-.32,0-.12.02-.22.07-.33.04-.1.1-.2.18-.27.08-.08.17-.14.28-.19.2-.08.44-.08.65,0,.1.05.19.11.27.19s.14.17.19.27c.04.11.06.21.06.33,0,.11-.02.22-.06.32-.05.11-.11.2-.19.28-.08.08-.17.14-.27.18-.11.05-.22.07-.33.07Z"/>
        <path class="cls-1" d="m49.37,40.3c-.12,0-.23-.02-.33-.06-.1-.05-.19-.11-.27-.19-.17-.16-.25-.37-.25-.6,0-.11.02-.22.06-.32.04-.11.11-.2.19-.28.07-.08.17-.14.27-.18.21-.09.45-.09.65,0,.11.04.2.1.28.18s.14.17.18.28c.05.1.07.21.07.32,0,.23-.09.44-.25.6-.08.08-.18.14-.28.19-.1.04-.21.06-.32.06Z"/>
        <path class="cls-1" d="m51.08,35.54c-.11,0-.22-.03-.33-.07-.1-.04-.19-.1-.27-.18-.08-.08-.14-.18-.19-.28-.04-.1-.06-.21-.06-.32,0-.23.09-.45.25-.61.32-.31.88-.31,1.2,0,.08.08.14.17.18.28.05.1.07.21.07.33,0,.11-.02.22-.07.32-.04.1-.1.2-.18.28-.16.16-.38.25-.6.25Z"/>
        <path class="cls-1" d="m51.66,30.51c-.23,0-.44-.09-.6-.25-.16-.16-.25-.37-.25-.6,0-.11.02-.22.06-.32.05-.11.11-.2.19-.28s.17-.14.27-.19c.21-.08.45-.08.65,0,.11.05.2.11.28.19s.14.17.18.28c.05.1.07.21.07.32,0,.23-.09.44-.25.6-.08.08-.17.14-.28.19-.1.04-.21.06-.32.06Z"/>
      </g>
    </g>
    <g>
      <path class="cls-1" d="m3.49,32.05c-.46,0-.84-.36-.85-.83v-.22c-.01-.2-.02-.41-.02-.61C2.62,15.36,14.85,3.13,29.88,3.13c6.99,0,13.58,2.62,18.66,7.4l3.15-3.15c.22-.22.55-.3.85-.21.3.09.53.34.59.65l2.99,14.94c.06.3-.04.61-.28.81-.23.2-.55.26-.84.16l-13.29-4.64c-.28-.1-.48-.33-.55-.61-.06-.29.02-.58.23-.79l2.4-2.39c-3.63-3.34-8.38-5.24-13.16-5.24-.47,0-.85-.38-.85-.85s.38-.85.85-.85c5.5,0,10.96,2.3,14.98,6.33.16.16.25.38.25.6,0,.23-.09.44-.25.6l-2.05,2.05,10.6,3.7-2.39-11.92-2.62,2.62c-.32.32-.88.32-1.2,0-4.83-4.83-11.25-7.5-18.07-7.5-14.1,0-25.56,11.47-25.56,25.56,0,.19,0,.37.01.55v.23c.02.47-.35.86-.82.87h-.02Z"/>
      <g>
        <path class="cls-1" d="m25.88,10.05c-.11,0-.22-.02-.32-.06-.11-.04-.2-.11-.28-.19-.16-.16-.25-.37-.25-.6s.09-.44.25-.6c.24-.23.61-.31.93-.18.1.04.2.1.27.18.16.16.25.38.25.6s-.09.44-.25.6c-.08.08-.17.15-.27.19s-.21.06-.33.06Z"/>
        <path class="cls-1" d="m21.18,11.58c-.11,0-.22-.02-.32-.06-.1-.05-.19-.11-.27-.19-.17-.16-.25-.37-.25-.6s.09-.44.24-.6c.24-.24.61-.31.93-.18.11.04.2.1.28.18.15.16.24.37.24.6s-.08.44-.25.6c-.08.08-.17.14-.27.19-.1.04-.21.06-.33.06Z"/>
        <path class="cls-1" d="m16.96,14.1c-.23,0-.44-.09-.6-.25-.16-.16-.25-.37-.25-.6s.09-.45.25-.6c.31-.32.89-.32,1.2,0,.08.07.14.17.19.27.04.1.06.21.06.33,0,.22-.09.44-.25.6-.16.16-.37.25-.6.25Z"/>
        <path class="cls-1" d="m13.43,17.47c-.12,0-.23-.02-.33-.06-.1-.05-.19-.11-.27-.19-.16-.16-.25-.37-.25-.6,0-.11.02-.22.06-.33.05-.1.11-.19.19-.27.07-.08.17-.14.27-.19.31-.12.7-.05.93.19.16.16.25.38.25.6,0,.11-.02.22-.07.33-.04.1-.1.19-.18.27-.16.16-.37.25-.6.25Z"/>
        <path class="cls-1" d="m10.77,21.53c-.23,0-.45-.09-.6-.25-.08-.08-.15-.17-.19-.27-.04-.11-.06-.22-.06-.33s.02-.22.06-.33c.04-.1.11-.19.19-.27.07-.08.17-.14.27-.18.32-.13.7-.06.93.18.08.08.14.17.18.27.05.11.07.22.07.33s-.02.22-.07.33c-.04.1-.1.19-.19.27-.07.08-.17.14-.27.19-.1.04-.21.06-.32.06Z"/>
        <path class="cls-1" d="m9.11,26.07c-.22,0-.44-.09-.6-.25-.16-.16-.25-.38-.25-.6s.09-.45.25-.6c.08-.08.17-.14.28-.19.31-.13.69-.05.92.19.16.15.25.37.25.6s-.09.44-.25.6c-.08.08-.17.14-.27.18-.11.05-.22.07-.33.07Z"/>
        <path class="cls-1" d="m8.55,30.85c-.11,0-.22-.02-.32-.07-.11-.04-.2-.1-.28-.18s-.14-.17-.18-.28c-.05-.1-.07-.21-.07-.32s.02-.22.07-.33c.04-.1.1-.19.18-.27.24-.24.61-.31.93-.18.1.04.19.1.27.18.08.08.14.17.19.27.04.11.06.22.06.33s-.02.22-.06.32c-.05.11-.11.2-.19.28-.08.08-.17.14-.27.18-.11.05-.22.07-.33.07Z"/>
      </g>
    </g>
  </g>
  <path class="cls-1" d="m28.22,44.09c-.73,0-1.38-.54-1.52-1.25l-.65-3.06-1.99-1.12-2.98.95c-.67.23-1.46-.07-1.82-.69l-1.79-3.09c-.36-.63-.22-1.46.32-1.93l2.33-2.1-.03-2.28-2.31-2.11c-.53-.46-.67-1.29-.31-1.92l1.78-3.09c.36-.63,1.15-.92,1.84-.69l2.98.97,1.96-1.17.68-3.05c.13-.69.79-1.23,1.51-1.23h3.55s0,0,0,0c.72,0,1.37.54,1.51,1.25l.65,3.06,1.99,1.12,2.98-.95c.67-.23,1.46.07,1.82.69l1.79,3.09c.36.62.22,1.45-.32,1.93l-2.33,2.1.03,2.28,2.31,2.11c.53.46.67,1.29.31,1.92l-1.79,3.09c-.36.62-1.15.92-1.83.69l-2.99-.97-1.96,1.17-.68,3.05c-.13.69-.79,1.23-1.51,1.23h-3.55Zm3.11-1.65s0,.01,0,.02v-.02Zm-2.67-.02v.02s0-.01,0-.02Zm-4.65-5.78c.4,0,.81.12,1.12.33l1.9,1.09c.43.2.87.75.98,1.3l.58,2.72h2.82s.58-2.73.58-2.73c.1-.54.54-1.09,1.05-1.33l1.9-1.1c.38-.28,1.08-.38,1.62-.19l2.64.86,1.41-2.44-2.07-1.87c-.41-.36-.68-1.01-.63-1.58v-2.19c-.05-.48.21-1.13.64-1.5l2.06-1.85-1.41-2.45-2.65.86c-.52.18-1.22.08-1.68-.25l-1.9-1.09c-.43-.2-.87-.75-.98-1.31l-.58-2.71h-2.82s-.58,2.73-.58,2.73c-.11.54-.54,1.1-1.06,1.33l-1.89,1.1c-.39.28-1.09.38-1.62.19l-2.63-.85-1.41,2.44,2.07,1.87c.42.36.68,1.02.63,1.58v2.18c.05.47-.21,1.13-.64,1.5l-2.06,1.85,1.41,2.45,2.65-.86c.17-.06.36-.09.56-.09Zm14.99,1.27s0,0,0,0h0Zm-18.54-.21s0,0-.01,0h.01Zm19.06,0h0s0,0,0,0Zm1.34-2.31s0,0,.02.01h-.02Zm-21.74-.01h-.01s0,0,.01,0Zm-.02-9.47h.01s0,0-.01,0Zm1.35-2.3h.02s-.02,0-.02,0Zm19.08,0h-.01s0,0,.01,0Zm-7.77-4.38h0,0Zm-.44-.35s0,.01,0,.02v-.02Zm-2.66-.02v.02s0-.01,0-.02Zm1.33,17.36c-.57,0-1.15-.09-1.69-.26-.7-.22-1.33-.57-1.9-1.05-.56-.48-1.02-1.05-1.35-1.69-.33-.64-.54-1.36-.6-2.09-.06-.72.02-1.47.24-2.16.22-.7.58-1.33,1.05-1.9.48-.57,1.05-1.02,1.69-1.35.64-.33,1.36-.54,2.09-.6.72-.06,1.47.02,2.16.24.69.22,1.38.69,1.46.75.25.17.6.46.81.68.07.07.65.68.98,1.32.33.64.54,1.36.6,2.09.06.72-.02,1.47-.24,2.16-.22.69-.58,1.33-1.05,1.9-.48.56-1.05,1.02-1.69,1.35-.64.33-1.37.54-2.09.6-.16.01-.31.02-.47.02Zm0-9.12c-.1,0-.2,0-.3.01-.47.04-.93.17-1.34.38-.41.21-.78.5-1.08.87-.3.36-.53.77-.67,1.21-.14.44-.19.92-.15,1.38.04.47.17.93.38,1.34.21.41.51.78.87,1.08.36.3.77.53,1.21.67.44.14.92.2,1.38.15.47-.04.93-.17,1.34-.38.41-.21.78-.51,1.08-.87.3-.36.53-.77.67-1.21.14-.44.19-.92.15-1.38h0c-.04-.46-.17-.93-.38-1.34-.17-.32-.52-.72-.64-.84-.12-.12-.37-.33-.51-.43-.14-.1-.59-.38-.93-.48-.34-.11-.71-.17-1.08-.17Z"/>
</svg>