<?xml version="1.0" encoding="UTF-8"?>
<svg id="Layer_1" data-name="Layer 1" xmlns="http://www.w3.org/2000/svg" viewBox="0 0 60 60">
  <defs>
    <style>
      .cls-1 {
        fill: #37464c;
        stroke-width: 0px;
      }
    </style>
  </defs>
  <path class="cls-1" d="m24,39.79h-4c-.55,0-1-.45-1-1v-6c0-.55.45-1,1-1h4c.55,0,1,.45,1,1v6c0,.55-.45,1-1,1Zm-3-2h2v-4h-2v4Z"/>
  <path class="cls-1" d="m32,39.79h-4c-.55,0-1-.45-1-1v-18c0-.55.45-1,1-1h4c.55,0,1,.45,1,1v18c0,.55-.45,1-1,1Zm-3-2h2v-16h-2v16Z"/>
  <path class="cls-1" d="m40,39.79h-4c-.55,0-1-.45-1-1v-12c0-.55.45-1,1-1h4c.55,0,1,.45,1,1v12c0,.55-.45,1-1,1Zm-3-2h2v-10h-2v10Z"/>
  <path class="cls-1" d="m30,49.79c-9.93,0-18-8.07-18-18S20.07,13.79,30,13.79s18,8.07,18,18-8.07,18-18,18Zm0-34c-8.82,0-16,7.18-16,16s7.18,16,16,16,16-7.18,16-16-7.18-16-16-16Z"/>
  <path class="cls-1" d="m30,57.79c-14.34,0-26-11.66-26-26S15.66,5.79,30,5.79s26,11.66,26,26-11.66,26-26,26Zm0-50c-13.23,0-24,10.77-24,24s10.77,24,24,24,24-10.77,24-24S43.23,7.79,30,7.79Z"/>
  <path class="cls-1" d="m30,15.79c-.55,0-1-.45-1-1V6.79c0-.55.45-1,1-1s1,.45,1,1v8c0,.55-.45,1-1,1Z"/>
  <path class="cls-1" d="m51.65,45.29c-.17,0-.34-.04-.5-.13l-6.93-4c-.48-.28-.64-.89-.37-1.37.28-.48.89-.64,1.37-.37l6.93,4c.48.28.64.89.37,1.37-.19.32-.52.5-.87.5Z"/>
  <path class="cls-1" d="m8.35,45.29c-.35,0-.68-.18-.87-.5-.28-.48-.11-1.09.37-1.37l6.93-4c.48-.28,1.09-.11,1.37.37.28.48.11,1.09-.37,1.37l-6.93,4c-.16.09-.33.13-.5.13Z"/>
</svg>