<?xml version="1.0" encoding="UTF-8"?>
<svg id="Layer_1" data-name="Layer 1" xmlns="http://www.w3.org/2000/svg" viewBox="0 0 60 60">
  <defs>
    <style>
      .cls-1 {
        fill: #37464c;
        stroke-width: 0px;
      }
    </style>
  </defs>
  <rect class="cls-1" x="24" y="48.5" width="2" height="6"/>
  <path class="cls-1" d="m39,55.5h-18c-.55,0-1-.45-1-1s.45-1,1-1h18c.55,0,1,.45,1,1s-.45,1-1,1Z"/>
  <rect class="cls-1" x="34" y="48.5" width="2" height="6"/>
  <path class="cls-1" d="m55,49.5H5c-1.65,0-3-1.35-3-3V14.5c0-1.65,1.35-3,3-3h23c.55,0,1,.45,1,1s-.45,1-1,1H5c-.55,0-1,.45-1,1v32c0,.55.45,1,1,1h50c.55,0,1-.45,1-1V14.5c0-.55-.45-1-1-1h-3c-.55,0-1-.45-1-1s.45-1,1-1h3c1.65,0,3,1.35,3,3v32c0,1.65-1.35,3-3,3Z"/>
  <path class="cls-1" d="m18,31.5c-3.31,0-6-2.69-6-6s2.69-6,6-6,6,2.69,6,6-2.69,6-6,6Zm0-10c-2.21,0-4,1.79-4,4s1.79,4,4,4,4-1.79,4-4-1.79-4-4-4Z"/>
  <path class="cls-1" d="m27,43.5c-.55,0-1-.45-1-1v-5.29c0-1.23-.74-2.33-1.89-2.79l-1.87-.75-3.53,3.53c-.39.39-1.02.39-1.41,0l-3.53-3.53-1.87.75c-1.15.46-1.89,1.55-1.89,2.79v5.29c0,.55-.45,1-1,1s-1-.45-1-1v-5.29c0-2.06,1.23-3.88,3.14-4.64l2.49-.99c.37-.15.8-.06,1.08.22l3.29,3.29,3.29-3.29c.28-.28.71-.37,1.08-.22l2.49.99c1.91.76,3.14,2.59,3.14,4.64v5.29c0,.55-.45,1-1,1Z"/>
  <path class="cls-1" d="m57,43.5H3c-.55,0-1-.45-1-1s.45-1,1-1h54c.55,0,1,.45,1,1s-.45,1-1,1Z"/>
  <path class="cls-1" d="m40,31.5h-13c-.4,0-.77-.24-.92-.62s-.07-.8.22-1.09l3.12-3.13c-2.21-2.54-3.42-5.76-3.42-9.17,0-7.72,6.28-14,14-14s14,6.28,14,14-6.28,14-14,14Zm-10.59-2h10.59c6.62,0,12-5.38,12-12s-5.38-12-12-12-12,5.38-12,12c0,3.21,1.25,6.22,3.51,8.48.39.39.39,1.02,0,1.41l-2.1,2.1Z"/>
  <path class="cls-1" d="m45,15.5h-10c-.55,0-1-.45-1-1s.45-1,1-1h10c.55,0,1,.45,1,1s-.45,1-1,1Z"/>
  <path class="cls-1" d="m45,21.5h-10c-.55,0-1-.45-1-1s.45-1,1-1h10c.55,0,1,.45,1,1s-.45,1-1,1Z"/>
  <path class="cls-1" d="m23,43.5c-.55,0-1-.45-1-1v-3c0-.55.45-1,1-1s1,.45,1,1v3c0,.55-.45,1-1,1Z"/>
  <path class="cls-1" d="m13,43.5c-.55,0-1-.45-1-1v-3c0-.55.45-1,1-1s1,.45,1,1v3c0,.55-.45,1-1,1Z"/>
</svg>