<?xml version="1.0" encoding="UTF-8"?>
<svg id="Layer_1" data-name="Layer 1" xmlns="http://www.w3.org/2000/svg" viewBox="0 0 60 60">
  <defs>
    <style>
      .cls-1 {
        fill: #37464c;
        stroke-width: 0px;
      }
    </style>
  </defs>
  <path class="cls-1" d="m31.05,50c-1.07,0-2.07-.45-2.81-1.28L6.17,28.04c-1.32-1.47-1.47-3.65-.42-5.24l7.33-11.06c.72-1.09,1.91-1.74,3.17-1.74h29.61c1.26,0,2.44.65,3.17,1.74l7.33,11.06h0c1.05,1.59.9,3.77-.36,5.18l-22.19,20.81c-.68.76-1.67,1.22-2.75,1.22ZM16.25,12c-.59,0-1.15.32-1.5.85l-7.33,11.06c-.56.84-.48,2,.18,2.74l22.07,20.68c.83.92,1.99.85,2.7.06l22.19-20.8c.6-.68.68-1.83.12-2.68l-7.33-11.06c-.35-.53-.91-.85-1.5-.85h-29.61Z"/>
  <path class="cls-1" d="m31.05,50c-.55,0-1.3-.3-1.75-1.75l-8.49-22.9c-.19-.52.07-1.09.59-1.29.52-.19,1.09.07,1.29.59l8.36,22.57,8.36-22.57c.19-.52.77-.78,1.29-.59.52.19.78.77.59,1.29l-8.51,22.95c-.43,1.4-1.18,1.7-1.73,1.7h0Z"/>
  <path class="cls-1" d="m56.05,26H6.05c-.55,0-1-.45-1-1s.45-1,1-1h50c.55,0,1,.45,1,1s-.45,1-1,1Z"/>
  <path class="cls-1" d="m40.36,26c-1.09,0-2.08-.66-2.63-1.76l-5.83-11.57c-.42-.84-1.27-.84-1.7,0l-5.83,11.57c-.56,1.1-1.54,1.76-2.63,1.76s-2.08-.66-2.63-1.76l-6.07-11.47c-.26-.49-.07-1.09.42-1.35.49-.26,1.09-.07,1.35.42l6.08,11.49c.44.88,1.28.86,1.7.02l5.83-11.57c.56-1.1,1.54-1.76,2.63-1.76s2.08.66,2.63,1.76l5.83,11.57c.42.84,1.27.84,1.7,0l6.09-11.51c.26-.49.86-.68,1.35-.42.49.26.67.86.42,1.35l-6.08,11.49c-.55,1.09-1.53,1.74-2.62,1.75h0Z"/>
</svg>