<?xml version="1.0" encoding="UTF-8"?>
<svg id="Layer_1" data-name="Layer 1" xmlns="http://www.w3.org/2000/svg" viewBox="0 0 60 60">
  <defs>
    <style>
      .cls-1 {
        fill: #37464c;
        stroke-width: 0px;
      }
    </style>
  </defs>
  <g>
    <path class="cls-1" d="m37.29,56.77c-.14,0-.28-.05-.39-.16l-1.93-1.9c-2.35-2.32-3.1-5.8-1.93-8.88l5.2-13.55c1.18-3.09.42-6.59-1.92-8.93-2.29-2.21-5.57-2.93-8.58-1.88l-13.45,4.74c-3.52,1.23-7.35.36-10.01-2.26l-1.15-1.13c-.22-.21-.22-.56,0-.78.22-.22.56-.22.78,0l1.15,1.13c2.35,2.32,5.75,3.09,8.87,2l13.45-4.74c3.31-1.15,6.91-.42,9.49,1.92h0s0,0,0,0l.28.28s0,0,.01.01h0c2.59,2.64,3.42,6.56,2.1,10.03l-5.2,13.55c-1.02,2.67-.36,5.69,1.68,7.7l1.93,1.9c.22.21.22.56,0,.78-.11.11-.25.16-.39.16Z"/>
    <path class="cls-1" d="m37.29,57.27c-.28,0-.54-.11-.74-.3l-1.93-1.9c-2.49-2.45-3.29-6.15-2.05-9.42l5.2-13.55c1.1-2.9.4-6.2-1.81-8.39-2.15-2.07-5.24-2.74-8.06-1.76l-13.45,4.74c-3.7,1.29-7.73.38-10.52-2.37l-1.15-1.13c-.41-.41-.42-1.08,0-1.49.41-.41,1.08-.42,1.49,0l1.15,1.13c2.21,2.18,5.41,2.91,8.35,1.88l13.45-4.74c3.29-1.15,6.92-.5,9.6,1.68l.02-.03.68.65c2.75,2.8,3.61,6.94,2.23,10.58l-5.2,13.55c-.95,2.48-.33,5.3,1.56,7.17l1.93,1.9c.2.2.31.46.31.74,0,.28-.11.55-.3.75-.2.2-.47.31-.75.31Zm-6.77-36.77c2.26,0,4.46.86,6.15,2.49,2.49,2.48,3.29,6.19,2.04,9.46l-5.2,13.55c-1.1,2.89-.39,6.17,1.82,8.35l1.96,1.92s.03,0,.04-.02l-1.93-1.97c-2.18-2.15-2.88-5.38-1.79-8.24l5.2-13.55c1.24-3.27.46-7-1.99-9.5l-.28-.27c-2.44-2.21-5.89-2.9-8.99-1.82l-13.45,4.74c-3.3,1.15-6.9.34-9.38-2.12l-1.15-1.13-.07.07,1.15,1.13c2.52,2.49,6.16,3.31,9.49,2.14l13.45-4.74c.97-.34,1.96-.5,2.94-.5Z"/>
  </g>
  <g>
    <path class="cls-1" d="m26.63,42.62c-2.41,0-4.77-.91-6.57-2.64h0s0,0-.01-.01l-.29-.28h0c-2.33-2.53-3.14-6.2-2.04-9.47l4.57-13.52c1.05-3.13.24-6.52-2.11-8.84l-1.15-1.13c-.22-.21-.22-.56,0-.78.22-.22.56-.22.78,0l1.15,1.13c2.65,2.62,3.57,6.44,2.38,9.98l-4.57,13.52c-.99,2.98-.21,6.33,1.99,8.56,2.36,2.31,5.87,3.02,8.95,1.8l13.48-5.38c3.07-1.21,6.56-.5,8.91,1.82l1.93,1.9c.22.21.22.56,0,.78-.21.22-.56.22-.78,0l-1.93-1.9c-2.03-2.01-5.06-2.63-7.73-1.58l-13.48,5.38c-1.13.45-2.31.66-3.49.66Z"/>
    <path class="cls-1" d="m26.63,43.12c-2.58,0-5.03-.98-6.89-2.75l-.69-.68.03-.03c-2.23-2.66-2.94-6.29-1.83-9.6l4.57-13.52c.98-2.95.22-6.14-1.99-8.32l-1.15-1.13c-.2-.2-.31-.46-.31-.74,0-.28.11-.55.3-.75.41-.41,1.07-.42,1.49,0l1.15,1.13c2.79,2.75,3.75,6.77,2.51,10.49l-4.58,13.52c-.93,2.79-.2,5.95,1.87,8.05,2.21,2.16,5.52,2.83,8.41,1.69l13.48-5.37c3.25-1.28,6.96-.53,9.45,1.93l1.93,1.9c.41.41.42,1.07,0,1.49-.41.41-1.08.42-1.49.01l-1.93-1.9c-1.89-1.87-4.72-2.44-7.19-1.47l-13.48,5.38c-1.18.46-2.41.7-3.67.7Zm-6.36-3.62l.12.12c1.69,1.62,3.9,2.5,6.23,2.5,1.13,0,2.25-.21,3.3-.63l13.48-5.37c2.85-1.12,6.09-.46,8.26,1.69l1.93,1.9.07-.07-1.93-1.9c-2.2-2.18-5.49-2.85-8.37-1.71l-13.48,5.37c-3.26,1.29-6.98.53-9.48-1.91-2.34-2.37-3.17-5.93-2.12-9.07l4.58-13.52c1.12-3.35.25-6.98-2.26-9.46l-1.15-1.13-.42.43.35-.36,1.15,1.13c2.49,2.46,3.34,6.04,2.24,9.35l-4.57,13.52c-1.03,3.07-.27,6.59,1.94,8.97l.14.15Z"/>
  </g>
  <g>
    <g>
      <path class="cls-1" d="m6.38,21.94c-.14,0-.28-.05-.39-.16-.22-.21-.22-.56,0-.78l12.18-12.34c.22-.22.56-.22.78,0,.22.21.22.56,0,.78l-12.18,12.34c-.11.11-.25.16-.39.16Z"/>
      <path class="cls-1" d="m6.38,22.44c-.28,0-.54-.11-.74-.3-.41-.41-.42-1.07,0-1.49l12.18-12.34c.41-.41,1.08-.42,1.49-.01.41.41.42,1.08,0,1.49l-12.18,12.34c-.2.2-.47.31-.75.31Zm11.79-13.78l.36.35-12.18,12.34.04.09s.03,0,.04-.02l12.18-12.34-.43-.42Z"/>
    </g>
    <g>
      <path class="cls-1" d="m10.36,23.85c-.14,0-.28-.05-.39-.16-.22-.21-.22-.56,0-.78l9.75-9.87c.22-.22.57-.22.78,0,.22.21.22.56,0,.78l-9.75,9.87c-.11.11-.25.16-.39.16Z"/>
      <path class="cls-1" d="m10.36,24.35c-.28,0-.54-.11-.74-.3-.41-.41-.42-1.07,0-1.49l9.75-9.87c.41-.41,1.08-.42,1.49,0,.41.41.42,1.07,0,1.49l-9.75,9.87c-.2.2-.47.31-.75.31Zm9.35-11.31l.36.35-9.75,9.87.04.09s.02,0,.04-.02l9.75-9.87-.43-.42Z"/>
    </g>
  </g>
  <g>
    <g>
      <g>
        <path class="cls-1" d="m23.22,37.44c-.14,0-.28-.05-.39-.16-.22-.21-.22-.56,0-.78l10.77-10.91c.21-.22.56-.22.78,0,.22.21.22.56,0,.78l-10.77,10.91c-.11.11-.25.16-.39.16Z"/>
        <path class="cls-1" d="m23.22,37.94c-.28,0-.54-.11-.74-.31-.2-.2-.31-.46-.31-.74,0-.28.11-.55.3-.75l10.77-10.91c.19-.2.46-.31.74-.31h.01c.28,0,.54.11.74.3.41.41.42,1.08,0,1.49l-10.77,10.91c-.2.2-.47.31-.75.31Zm10.74-12l-10.77,10.91.04.09s.03,0,.04-.02l10.77-10.91-.07-.07Z"/>
      </g>
      <g>
        <path class="cls-1" d="m27.05,39.34c-.14,0-.28-.05-.39-.16-.22-.21-.22-.56,0-.78l8.62-8.73c.21-.22.56-.22.78,0,.22.21.22.56,0,.78l-8.62,8.73c-.11.11-.25.16-.39.16Z"/>
        <path class="cls-1" d="m27.05,39.84c-.28,0-.54-.11-.74-.31-.2-.19-.31-.46-.31-.74,0-.28.11-.55.3-.75l8.62-8.73c.4-.41,1.07-.42,1.49-.01.2.2.31.46.31.74,0,.28-.11.55-.3.75l-8.62,8.73c-.2.2-.47.31-.75.31Zm8.58-9.82l-8.62,8.73.04.09s.02,0,.04-.02l8.62-8.73-.07-.07Z"/>
      </g>
    </g>
    <g>
      <path class="cls-1" d="m21.26,33.63c-.14,0-.28-.05-.39-.16-.22-.21-.22-.56,0-.78l8.62-8.73c.21-.22.56-.22.78,0,.22.21.22.56,0,.78l-8.62,8.73c-.11.11-.25.16-.39.16Z"/>
      <path class="cls-1" d="m21.26,34.13c-.28,0-.54-.11-.74-.3-.2-.2-.31-.46-.31-.74,0-.28.11-.55.3-.75l8.62-8.73c.19-.2.46-.31.74-.31h0c.28,0,.54.11.74.3.41.41.42,1.08,0,1.49l-8.62,8.73c-.2.2-.47.31-.75.31Zm8.58-9.82l-8.62,8.73.04.09s.03,0,.04-.02l8.62-8.73-.07-.07Z"/>
    </g>
  </g>
  <g>
    <g>
      <path class="cls-1" d="m38.6,53.68c-.14,0-.28-.05-.39-.16-.22-.21-.22-.56,0-.78l12.18-12.34c.21-.22.56-.22.78,0,.22.21.22.56,0,.78l-12.18,12.34c-.11.11-.25.16-.39.16Z"/>
      <path class="cls-1" d="m38.6,54.18c-.28,0-.54-.11-.74-.3-.2-.2-.31-.46-.31-.74,0-.28.11-.55.3-.75l12.18-12.34c.41-.41,1.08-.42,1.49,0,.2.2.31.46.31.74,0,.28-.11.55-.3.75l-12.18,12.34c-.2.2-.46.31-.75.31Zm12.14-13.43l-12.18,12.34.04.09s.02,0,.04-.01l12.18-12.34-.07-.07Z"/>
    </g>
    <g>
      <path class="cls-1" d="m36.49,49.38c-.14,0-.28-.05-.39-.16-.22-.21-.22-.56,0-.78l9.75-9.87c.21-.22.56-.22.78,0,.22.21.22.56,0,.78l-9.75,9.87c-.11.11-.25.16-.39.16Z"/>
      <path class="cls-1" d="m36.49,49.88c-.28,0-.54-.11-.74-.3-.2-.2-.31-.46-.31-.74,0-.28.11-.55.3-.75l9.75-9.87c.41-.41,1.08-.42,1.49,0,.2.2.31.46.31.74,0,.28-.11.55-.3.75l-9.75,9.87c-.2.2-.47.31-.75.31Zm9.71-10.96l-9.75,9.87.04.09s.02,0,.04-.02l9.75-9.87-.07-.07Z"/>
    </g>
  </g>
</svg>