<?xml version="1.0" encoding="UTF-8"?>
<svg id="Layer_1" data-name="Layer 1" xmlns="http://www.w3.org/2000/svg" viewBox="0 0 60 60">
  <defs>
    <style>
      .cls-1 {
        fill: #37464c;
        stroke-width: 0px;
      }
    </style>
  </defs>
  <path class="cls-1" d="m21,18.5h-9c-.55,0-1-.45-1-1s.45-1,1-1h9V7.5c0-.55.45-1,1-1s1,.45,1,1v9c0,1.1-.9,2-2,2Z"/>
  <path class="cls-1" d="m49,58.5H13c-1.1,0-2-.9-2-2V17.5c0-.27.11-.52.29-.71l10-10c.19-.19.44-.29.71-.29h27c1.1,0,2,.9,2,2v5c0,.55-.45,1-1,1s-1-.45-1-1v-5h-26.59l-9.41,9.41v38.59h36v-19c0-.55.45-1,1-1s1,.45,1,1v19c0,1.1-.9,2-2,2Z"/>
  <path class="cls-1" d="m24,40.5h-6c-.55,0-1-.45-1-1v-8c0-.55.45-1,1-1h6c.55,0,1,.45,1,1v8c0,.55-.45,1-1,1Zm-5-2h4v-6h-4v6Z"/>
  <path class="cls-1" d="m30,40.5h-6c-.55,0-1-.45-1-1v-16c0-.55.45-1,1-1h4c.55,0,1,.45,1,1s-.45,1-1,1h-3v14h5c.55,0,1,.45,1,1s-.45,1-1,1Z"/>
  <path class="cls-1" d="m41,32.5c-5.51,0-10-4.49-10-10s4.49-10,10-10,10,4.49,10,10-4.49,10-10,10Zm0-18c-4.41,0-8,3.59-8,8s3.59,8,8,8,8-3.59,8-8-3.59-8-8-8Z"/>
  <path class="cls-1" d="m54,36.5c-.26,0-.51-.1-.71-.29l-6.63-6.64c-.39-.39-.39-1.02,0-1.41s1.02-.39,1.41,0l6.63,6.64c.39.39.39,1.02,0,1.41-.2.2-.45.29-.71.29Z"/>
  <path class="cls-1" d="m28,46.5h-10c-.55,0-1-.45-1-1s.45-1,1-1h10c.55,0,1,.45,1,1s-.45,1-1,1Z"/>
  <path class="cls-1" d="m28,50.5h-10c-.55,0-1-.45-1-1s.45-1,1-1h10c.55,0,1,.45,1,1s-.45,1-1,1Z"/>
  <path class="cls-1" d="m44,46.5h-10c-.55,0-1-.45-1-1s.45-1,1-1h10c.55,0,1,.45,1,1s-.45,1-1,1Z"/>
  <path class="cls-1" d="m44,50.5h-10c-.55,0-1-.45-1-1s.45-1,1-1h10c.55,0,1,.45,1,1s-.45,1-1,1Z"/>
  <path class="cls-1" d="m42,40.5h-6c-.55,0-1-.45-1-1v-5c0-.55.45-1,1-1s1,.45,1,1v4h4v-3c0-.55.45-1,1-1s1,.45,1,1v4c0,.55-.45,1-1,1Z"/>
  <path class="cls-1" d="m36,40.5h-6c-.55,0-1-.45-1-1v-10c0-.55.45-1,1-1s1,.45,1,1v9h4v-4c0-.55.45-1,1-1s1,.45,1,1v5c0,.55-.45,1-1,1Z"/>
  <path class="cls-1" d="m40,26.5c-.26,0-.51-.1-.71-.29l-3-3c-.39-.39-.39-1.02,0-1.41s1.02-.39,1.41,0l2.29,2.29,4.29-4.29c.39-.39,1.02-.39,1.41,0s.39,1.02,0,1.41l-5,5c-.2.2-.45.29-.71.29Z"/>
</svg>