<?xml version="1.0" encoding="UTF-8"?>
<svg id="Layer_1" data-name="Layer 1" xmlns="http://www.w3.org/2000/svg" version="1.1" viewBox="0 0 60 60">
  <defs>
    <style>
      .cls-1 {
        fill: #37464c;
        stroke-width: 0px;
      }
    </style>
  </defs>
  <polygon class="cls-1" points="31 33 31 33 31 33 31 33"/>
  <polygon class="cls-1" points="31.2 41.5 31.2 41.5 31.2 41.5 31.2 41.5"/>
  <polygon class="cls-1" points="53.2 54.8 53.2 54.8 53.2 54.7 53.2 54.8"/>
  <path class="cls-1" d="M55.2,43.9c-.3-2.3-1.6-4.4-3.6-5.6v-.4h-.4c-1.5,0-4.5-7.2-4.5-20.4v-.4h0c-.2-7.9-5.1-14.3-11.3-14.9h0s-.4,0-.4,0c0,0,0,0,0,0-.1,0-.2,0-.4,0h-.4c-1.6.2-3.1.7-4,1.5-.6-.7-1.5-1.2-2.5-1.4h0c0-.1-.4-.1-.4-.1-.1,0-.3,0-.4,0,0,0,0,0,0,0h-.4c-6.1.6-10.9,7-11,14.9h0v.4c0,13.5-2.7,19.9-3.5,20h-.4v.3c-2.5,1.1-4.3,3.4-4.6,6.2v12.1c.1,0,.1,0,.1,0h2.2s-.1-11.9-.1-11.9c.2-1.8,1.3-3.4,3-4.2.5,0,1-.3,1.4-.6l5.7-2.4c-.7,1.4-1.2,3-1.2,4.9-2,.2-3.6,1.7-3.8,3.5l-1.2,6.4c-.2.9,0,1.9.7,2.6.6.7,1.6,1.1,2.5,1.1h1.5v-2.2h-1.5c-.3,0-.6-.1-.8-.4-.2-.2-.3-.5-.2-.8l1.3-6.5c0-.9.9-1.7,1.9-1.7s1.8.7,1.9,1.8l1.2,6.4c0,.3,0,.6-.2.8-.2.2-.5.4-.9.4h-1.4v2.2h1.4c1,0,1.9-.4,2.5-1.1.6-.7.9-1.7.7-2.7l-1.2-6.2c-.1-1.3-.9-2.5-2.1-3.1-.2-5.1,4.1-8.1,4.1-8.1h0s.6,2.6.6,2.6h0s.2.5.2.5c0,0,0,0,0,.1l4.4,18.7c.1.6.7,1,1.3,1h0c.6,0,1.2-.4,1.3-1l4.8-19.4v-.2c0,0,0,0,0,0l.6-2.3,1.3,1.3,1.2.5,1.7,2.8c.7,1.1,1,2.4,1,3.6v5.2c-1.7.5-3,2-3,3.8s1.9,4,4.1,4,4.2-1.8,4.2-4-1.3-3.3-3-3.8v-5.2c0-1.7-.5-3.3-1.4-4.8l-.2-.3,5.4,2.2c.5.4,1,.7,1.6.8,1.3.9,2.1,2.2,2.3,3.7l.2,10.7h2.2s-.2-10.8-.2-10.8ZM41.8,34.3h0s-1.3-.5-1.3-.5l-2.4-2.4v-2c1.7-2.3,2.9-5.5,3.3-9.5.5-5-.3-8.7-2.4-11.1-1.7-1.9-4.2-2.9-7.4-3,.6-.5,1.8-1,3.4-1.1,5.2.3,9.3,5.9,9.3,12.8v.4h0c0,6.9.9,14.1,2.8,18.4l-5.2-2h0ZM26.5,32.2h0s0,0,0,0v-.5c1.4.9,2.9,1.4,4.6,1.4,1.8,0,3.4-.5,4.8-1.5v.9s0,0,0,0h0s0,.4,0,.4l-.9,3.6v.2c-.6,1.7-2.1,2.8-3.8,2.8s-3.2-1-3.8-2.6l-.9-3.8v-.7ZM17.9,18v-.4c0-6.9,4-12.5,9.1-12.8.9,0,1.6.5,1.8,1.2-2.3.4-4.1,1.3-5.5,2.8-2.1,2.4-3,6.1-2.5,11.1.4,4.1,1.7,7.4,3.5,9.7v1.6l-1.2,1c-.2.1-.7.5-1.4,1.2l-6.2,2.7c2.1-5.7,2.3-16,2.3-18.1h0ZM33.9,40.8l-2.8,11.5-2.7-11.5c.9.4,1.8.7,2.8.7,1,0,1.9-.2,2.7-.7ZM39.2,19.7c-.4,3.8-1.6,6.9-3.3,8.8h-.2s0,.2,0,.2c-1.3,1.4-2.9,2.2-4.7,2.2s-3.3-.7-4.6-2h0c0,0,0,0,0,0-1.8-1.9-3.1-5-3.4-8.9-.2-1.8-.2-3.4,0-4.8.7.7,1.7,1.2,2.8,1.3,0,0,0,0,0,0h.9s0,0,.1,0h0s.4,0,.4,0c0-1.2.5-2.3,1.2-2.9l.5,3.4h.2s0,.2,0,.2c3.1,0,7.8-.4,10.2-1.8.1,1.3.1,2.8,0,4.5ZM30,15l-.4-3.1v-.4c-1.5,0-2.8,1.1-3.4,2.8-1.3-.2-2.3-1-2.5-1.9.3-.8.7-1.5,1.3-2.1,1.3-1.5,3.4-2.2,6.2-2.2,2.8,0,4.9.8,6.3,2.3.7.7,1.1,1.6,1.5,2.7-.5.6-3.4,1.8-8.8,1.9ZM44.2,53.3c-1.1,0-1.9-.8-1.9-1.8s.9-1.8,1.9-1.8,1.9.8,1.9,1.8-.9,1.8-1.9,1.8Z"/>
</svg>