<?xml version="1.0" encoding="UTF-8"?>
<svg id="Layer_1" data-name="Layer 1" xmlns="http://www.w3.org/2000/svg" viewBox="0 0 60 60">
  <defs>
    <style>
      .cls-1 {
        fill: #37464c;
        stroke-width: 0px;
      }
    </style>
  </defs>
  <path class="cls-1" d="m10,15.23c-2.65,0-4.8-2.15-4.8-4.8s2.15-4.8,4.8-4.8,4.8,2.15,4.8,4.8-2.15,4.8-4.8,4.8Zm0-8c-1.76,0-3.2,1.44-3.2,3.2s1.44,3.2,3.2,3.2,3.2-1.44,3.2-3.2-1.44-3.2-3.2-3.2Z"/>
  <path class="cls-1" d="m50,15.23c-2.65,0-4.8-2.15-4.8-4.8s2.15-4.8,4.8-4.8,4.8,2.15,4.8,4.8-2.15,4.8-4.8,4.8Zm0-8c-1.76,0-3.2,1.44-3.2,3.2s1.44,3.2,3.2,3.2,3.2-1.44,3.2-3.2-1.44-3.2-3.2-3.2Z"/>
  <path class="cls-1" d="m10,55.23c-2.65,0-4.8-2.15-4.8-4.8s2.15-4.8,4.8-4.8,4.8,2.15,4.8,4.8-2.15,4.8-4.8,4.8Zm0-8c-1.76,0-3.2,1.44-3.2,3.2s1.44,3.2,3.2,3.2,3.2-1.44,3.2-3.2-1.44-3.2-3.2-3.2Z"/>
  <path class="cls-1" d="m30,12.28c-.64,0-1.28-.13-1.89-.39-1.19-.5-2.12-1.44-2.6-2.64-1-2.48.19-5.31,2.67-6.32,2.48-1,5.31.19,6.32,2.67h0c1,2.48-.2,5.31-2.67,6.32-.59.24-1.21.36-1.82.36Zm0-8c-.39,0-.79.07-1.18.23-1.61.65-2.39,2.49-1.74,4.1.32.78.92,1.39,1.69,1.72.77.33,1.63.33,2.41.02,1.61-.65,2.39-2.49,1.74-4.1h0c-.5-1.22-1.68-1.97-2.92-1.97Z"/>
  <path class="cls-1" d="m30,58.28c-2.67,0-4.85-2.18-4.85-4.85s2.18-4.85,4.85-4.85,4.85,2.18,4.85,4.85-2.18,4.85-4.85,4.85Zm0-8c-1.74,0-3.15,1.41-3.15,3.15s1.41,3.15,3.15,3.15,3.15-1.41,3.15-3.15-1.41-3.15-3.15-3.15Z"/>
  <path class="cls-1" d="m50,55.23c-2.65,0-4.8-2.15-4.8-4.8s2.15-4.8,4.8-4.8,4.8,2.15,4.8,4.8-2.15,4.8-4.8,4.8Zm0-8c-1.76,0-3.2,1.44-3.2,3.2s1.44,3.2,3.2,3.2,3.2-1.44,3.2-3.2-1.44-3.2-3.2-3.2Z"/>
  <path class="cls-1" d="m7,35.28c-2.67,0-4.85-2.18-4.85-4.85s2.18-4.85,4.85-4.85,4.85,2.18,4.85,4.85-2.18,4.85-4.85,4.85Zm0-8c-1.74,0-3.15,1.41-3.15,3.15s1.41,3.15,3.15,3.15,3.15-1.41,3.15-3.15-1.41-3.15-3.15-3.15Z"/>
  <path class="cls-1" d="m53,35.28c-2.67,0-4.85-2.18-4.85-4.85s2.18-4.85,4.85-4.85,4.85,2.18,4.85,4.85-2.18,4.85-4.85,4.85Zm0-8c-1.74,0-3.15,1.41-3.15,3.15s1.41,3.15,3.15,3.15,3.15-1.41,3.15-3.15-1.41-3.15-3.15-3.15Z"/>
  <path class="cls-1" d="m30,18.13c-.39,0-.7-.31-.7-.7v-6c0-.39.31-.7.7-.7s.7.31.7.7v6c0,.39-.31.7-.7.7Z"/>
  <path class="cls-1" d="m49,31.13h-6c-.39,0-.7-.31-.7-.7s.31-.7.7-.7h6c.39,0,.7.31.7.7s-.31.7-.7.7Z"/>
  <path class="cls-1" d="m30,50.13c-.39,0-.7-.31-.7-.7v-6c0-.39.31-.7.7-.7s.7.31.7.7v6c0,.39-.31.7-.7.7Z"/>
  <path class="cls-1" d="m17,31.13h-6c-.39,0-.7-.31-.7-.7s.31-.7.7-.7h6c.39,0,.7.31.7.7s-.31.7-.7.7Z"/>
  <path class="cls-1" d="m17.29,19.13c-.19-.19-.29-.45-.29-.7h0c0-.26.1-.52.29-.71h0c.39-.39,1.03-.39,1.42,0h0c.19.19.29.45.29.71h0c0,.25-.1.51-.29.7h0c-.2.2-.46.3-.71.3h0c-.26,0-.51-.1-.71-.3Zm-2.83-2.82c-.19-.2-.29-.46-.29-.71h0c0-.26.1-.52.29-.71h0c.39-.39,1.03-.39,1.42,0h0c.19.19.29.45.29.71h0c0,.25-.1.51-.29.71h0c-.2.19-.45.29-.71.29h0c-.26,0-.51-.1-.71-.29Z"/>
  <path class="cls-1" d="m41.29,19.13c-.19-.19-.29-.45-.29-.7h0c0-.26.1-.52.29-.71h0c.39-.39,1.03-.39,1.42,0h0c.19.19.29.45.29.71h0c0,.25-.1.51-.29.7h0c-.2.2-.45.3-.71.3h0c-.26,0-.51-.1-.71-.3Zm2.83-2.83c-.2-.19-.29-.45-.29-.7h0c0-.26.09-.51.29-.71h0c.39-.39,1.02-.39,1.41,0h0c.2.2.3.45.3.71h0c0,.25-.1.51-.3.7h0c-.19.2-.45.3-.7.3h0c-.26,0-.52-.1-.71-.3Z"/>
  <path class="cls-1" d="m14.46,45.96c-.19-.19-.29-.45-.29-.71h0c0-.25.1-.51.29-.7h0c.39-.39,1.03-.39,1.42,0h0c.19.19.29.45.29.7h0c0,.26-.1.52-.29.71h0c-.2.2-.45.29-.71.29h0c-.26,0-.51-.09-.71-.29Zm2.83-2.83c-.19-.19-.29-.45-.29-.7h0c0-.26.1-.52.29-.71h0c.39-.39,1.03-.39,1.42,0h0c.19.19.29.45.29.71h0c0,.25-.1.51-.29.7h0c-.2.2-.46.3-.71.3h0c-.26,0-.51-.1-.71-.3Z"/>
  <path class="cls-1" d="m44.12,45.96c-.2-.19-.29-.45-.29-.71h0c0-.25.09-.51.29-.7h0c.39-.39,1.02-.39,1.41,0h0c.2.19.3.45.3.7h0c0,.26-.1.52-.3.71h0c-.19.2-.45.29-.7.29h0c-.26,0-.52-.09-.71-.29Zm-2.83-2.83c-.19-.19-.29-.45-.29-.7h0c0-.26.1-.51.29-.71h0c.39-.39,1.03-.39,1.42,0h0c.19.2.29.45.29.71h0c0,.25-.1.51-.29.7h0c-.2.2-.45.3-.71.3h0c-.26,0-.51-.1-.71-.3Z"/>
  <g>
    <g>
      <path class="cls-1" d="m26.71,34.5c-.21-2.2,1.56-3.46,1.63-3.51l.24.38s-1.63,1.16-1.44,3.09l-.43.04Z"/>
      <path class="cls-1" d="m26.44,34.83l-.03-.3c-.22-2.36,1.68-3.73,1.76-3.78l.26-.18.56.89-.25.16s-1.47,1.07-1.31,2.81l.03.3-1.02.11Z"/>
    </g>
    <g>
      <path class="cls-1" d="m28.81,38.21l-.55-2.64c-.07-.74-.77-1.32-1.6-1.32s-1.54.58-1.6,1.29l-.56,2.67c-.07.32.03.66.27.91.21.23.52.35.84.38,0-.03,0-.05,0-.08,0-.12.02-.24.03-.36-.19-.02-.36-.09-.48-.22-.14-.15-.2-.35-.16-.54l.56-2.69c.05-.51.53-.9,1.1-.9s1.05.4,1.1.92l.56,2.66c.04.19-.02.39-.16.54-.07.07-.15.12-.24.15.04.15.04.3.02.46.24-.06.46-.15.62-.32.24-.25.34-.59.27-.91Z"/>
      <path class="cls-1" d="m27.57,39.84l.06-.44c.02-.12.01-.23-.01-.34l-.06-.25.24-.1c.07-.03.11-.05.13-.08.08-.08.11-.18.08-.28l-.56-2.66c-.04-.41-.38-.69-.81-.69s-.77.28-.8.63l-.57,2.73c-.02.1,0,.19.08.27.06.07.17.11.29.12l.3.03-.05.39c0,.08-.02.16-.02.24v.33l-.33.05c-.42-.04-.78-.2-1.03-.47-.31-.33-.43-.76-.34-1.18l.56-2.67c.07-.84.91-1.53,1.9-1.53s1.82.7,1.9,1.59l.55,2.6c.09.42-.04.85-.34,1.18-.18.2-.43.33-.77.41l-.43.1Z"/>
    </g>
  </g>
  <path class="cls-1" d="m30,28.83c-2.48,0-4.5-1.94-4.5-4.32s2.02-4.32,4.5-4.32,4.5,1.94,4.5,4.32-2.02,4.32-4.5,4.32Zm0-7.64c-1.93,0-3.5,1.49-3.5,3.32s1.57,3.32,3.5,3.32,3.5-1.49,3.5-3.32-1.57-3.32-3.5-3.32Z"/>
  <path class="cls-1" d="m30,29.33c-2.76,0-5-2.16-5-4.82s2.24-4.82,5-4.82,5,2.16,5,4.82-2.24,4.82-5,4.82Zm0-7.64c-1.66,0-3,1.26-3,2.82s1.35,2.82,3,2.82,3-1.26,3-2.82-1.35-2.82-3-2.82Z"/>
  <path class="cls-1" d="m38.48,38.92h-1v-4.56c0-1.35-1.16-2.44-2.58-2.44h-9.79c-1.42,0-2.58,1.09-2.58,2.44v4.56h-1v-4.56c0-1.9,1.61-3.44,3.58-3.44h9.79c1.98,0,3.58,1.54,3.58,3.44v4.56Z"/>
  <path class="cls-1" d="m37.98,39.92c-.55,0-1-.45-1-1v-4.56c0-1.07-.93-1.94-2.08-1.94h-9.79c-1.15,0-2.08.87-2.08,1.94v4.56c0,.55-.45,1-1,1s-1-.45-1-1v-4.56c0-2.17,1.83-3.94,4.08-3.94h9.79c2.25,0,4.08,1.77,4.08,3.94v4.56c0,.55-.45,1-1,1Z"/>
  <g>
    <g>
      <path class="cls-1" d="m33.7,36.64h-.43v-2.69c0-.58-.15-1.15-.42-1.65l-.7-1.25.37-.23.7,1.25c.32.57.48,1.22.48,1.87v2.69Z"/>
      <path class="cls-1" d="m34,36.94h-1.03v-2.99c0-.53-.13-1.05-.39-1.5l-.84-1.5.88-.54.85,1.53c.34.61.52,1.31.52,2.02v2.99Z"/>
    </g>
    <g>
      <path class="cls-1" d="m33.48,39.16c-.75,0-1.37-.64-1.37-1.44s.61-1.44,1.37-1.44,1.37.64,1.37,1.44-.61,1.44-1.37,1.44Zm0-2.42c-.52,0-.94.44-.94.99s.42.99.94.99.94-.44.94-.99-.42-.99-.94-.99Z"/>
      <path class="cls-1" d="m33.48,39.46c-.92,0-1.67-.78-1.67-1.74s.75-1.74,1.67-1.74,1.67.78,1.67,1.74-.75,1.74-1.67,1.74Zm0-2.42c-.35,0-.64.31-.64.69s.29.69.64.69.64-.31.64-.69-.29-.69-.64-.69Z"/>
    </g>
  </g>
</svg>