<?xml version="1.0" encoding="UTF-8"?>
<svg id="Layer_1" data-name="Layer 1" xmlns="http://www.w3.org/2000/svg" viewBox="0 0 60 60">
  <defs>
    <style>
      .cls-1 {
        fill: #37464c;
        stroke-width: 0px;
      }
    </style>
  </defs>
  <path class="cls-1" d="m5.88,34.91c-.26,0-.5-.15-.6-.4-4.05-9.91.62-21.46,10.87-26.87,5.07-2.67,10.79-3.43,16.16-2.15l.9-1.99c.09-.19.26-.33.47-.37.21-.04.42.02.57.17l7.69,7.39c.19.19.25.47.15.72-.1.25-.33.45-.62.4l-10.79-.25c-.22,0-.41-.12-.53-.3-.12-.18-.14-.41-.05-.61l.62-1.47c-3.62-.73-8.01-.03-11.67,1.9-.32.17-.71.04-.88-.27-.17-.32-.05-.71.27-.88,4.18-2.21,9.29-2.91,13.34-1.83.18.05.33.17.42.34.08.17.09.37.01.54l-.55,1.3,8.16.19-5.82-5.59-.74,1.65c-.13.29-.45.44-.76.36-5.21-1.38-10.81-.71-15.75,1.9C7.1,13.87,2.68,24.72,6.48,34.01c.14.33-.02.71-.36.85-.08.03-.16.05-.25.05Z"/>
  <path class="cls-1" d="m31.64,56.02c-.12,0-.24-.03-.35-.1l-9.02-5.69c-.23-.14-.34-.41-.29-.67.05-.26.26-.47.52-.52l10.62-1.92c.22-.04.43.03.58.18.15.15.22.37.17.58l-.31,1.56c3.69,0,7.86-1.58,11.05-4.2.28-.23.69-.19.92.09s.19.69-.09.92c-3.65,3-8.5,4.71-12.7,4.48-.19-.01-.36-.1-.48-.25-.12-.15-.16-.34-.12-.52l.27-1.38-8.03,1.46,6.83,4.31.39-1.76c.07-.31.34-.5.67-.51,5.39.32,10.73-1.48,15.05-5.03,5.14-4.23,8.15-10.53,8.04-16.86,0-.36.28-.65.64-.66.33,0,.65.28.66.64.11,6.72-3.07,13.4-8.52,17.88-4.43,3.64-9.89,5.54-15.4,5.35l-.48,2.13c-.05.21-.19.38-.39.46-.08.03-.16.05-.25.05Z"/>
  <g>
    <g>
      <path class="cls-1" d="m12.73,43.59c-.24-2.48,1.76-3.9,1.84-3.96l.27.42s-1.83,1.31-1.63,3.48l-.48.05Z"/>
      <path class="cls-1" d="m12.45,43.92l-.03-.3c-.25-2.64,1.88-4.17,1.97-4.23l.26-.18.59.94-.24.16s-1.69,1.22-1.5,3.2l.03.3-1.08.11Z"/>
    </g>
    <g>
      <path class="cls-1" d="m15.1,47.77l-.62-2.97c-.08-.83-.87-1.48-1.81-1.48s-1.73.65-1.81,1.46l-.63,3.01c-.08.37.03.74.3,1.02.24.25.58.39.95.42,0-.03,0-.06,0-.09,0-.14.02-.27.04-.41-.21-.02-.41-.1-.54-.25-.16-.17-.22-.39-.18-.61l.63-3.03c.05-.57.6-1.02,1.24-1.02s1.19.45,1.24,1.04l.63,3c.05.22-.02.44-.18.61-.07.08-.17.13-.28.17.04.17.05.34.02.51.27-.06.51-.17.7-.36.27-.29.38-.66.3-1.03Z"/>
      <path class="cls-1" d="m13.74,49.56l.06-.44c.02-.14.02-.28-.01-.4l-.06-.25.24-.1c.08-.03.13-.06.17-.1.09-.1.13-.22.11-.35l-.63-3c-.05-.47-.45-.8-.95-.8s-.9.33-.94.74l-.64,3.07c-.03.12.01.24.1.34.08.08.21.14.36.15l.3.03-.05.39c-.01.09-.03.19-.03.29v.33l-.32.06c-.46-.04-.87-.22-1.14-.52-.33-.36-.47-.83-.38-1.29l.63-3.01c.08-.94,1.01-1.7,2.1-1.7s2.02.77,2.11,1.76l.62,2.94c.1.46-.04.94-.38,1.29-.2.21-.48.36-.84.45l-.43.1Z"/>
    </g>
  </g>
  <path class="cls-1" d="m16.44,37.14c-2.76,0-5.01-2.16-5.01-4.8s2.25-4.8,5.01-4.8,5.01,2.16,5.01,4.8-2.25,4.8-5.01,4.8Zm0-8.61c-2.21,0-4.01,1.71-4.01,3.8s1.8,3.8,4.01,3.8,4.01-1.71,4.01-3.8-1.8-3.8-4.01-3.8Z"/>
  <path class="cls-1" d="m16.44,37.64c-3.04,0-5.51-2.38-5.51-5.3s2.47-5.3,5.51-5.3,5.51,2.38,5.51,5.3-2.47,5.3-5.51,5.3Zm0-8.61c-1.94,0-3.51,1.48-3.51,3.3s1.58,3.3,3.51,3.3,3.51-1.48,3.51-3.3-1.58-3.3-3.51-3.3Z"/>
  <path class="cls-1" d="m7.94,48.57h-1v-5.13c0-2.1,1.78-3.82,3.98-3.82h11.03c2.19,0,3.98,1.71,3.98,3.82v2.16h-1v-2.16c0-1.55-1.33-2.82-2.98-2.82h-11.03c-1.64,0-2.98,1.26-2.98,2.82v5.13Z"/>
  <path class="cls-1" d="m7.44,49.57c-.55,0-1-.45-1-1v-5.13c0-2.38,2.01-4.32,4.48-4.32h11.03c2.47,0,4.48,1.94,4.48,4.32v2.51c0,.55-.45,1-1,1s-1-.45-1-1v-2.51c0-1.28-1.11-2.32-2.48-2.32h-11.03c-1.37,0-2.48,1.04-2.48,2.32v5.13c0,.55-.45,1-1,1Z"/>
  <g>
    <g>
      <path class="cls-1" d="m20.6,46h-.48v-3.03c0-.65-.17-1.29-.48-1.86l-.79-1.41.42-.26.79,1.41c.36.64.55,1.37.55,2.11v3.03Z"/>
      <path class="cls-1" d="m20.9,46.3h-1.08v-3.33c0-.6-.15-1.19-.44-1.71l-.92-1.66.93-.57.94,1.68c.38.68.58,1.47.58,2.26v3.33Z"/>
    </g>
    <g>
      <path class="cls-1" d="m20.36,48.84c-.85,0-1.54-.73-1.54-1.62s.69-1.62,1.54-1.62,1.54.73,1.54,1.62-.69,1.62-1.54,1.62Zm0-2.73c-.58,0-1.06.5-1.06,1.11s.47,1.11,1.06,1.11,1.06-.5,1.06-1.11-.47-1.11-1.06-1.11Z"/>
      <path class="cls-1" d="m20.36,49.14c-1.01,0-1.84-.86-1.84-1.92s.83-1.92,1.84-1.92,1.84.86,1.84,1.92-.83,1.92-1.84,1.92Zm0-2.73c-.42,0-.76.36-.76.81s.34.81.76.81.76-.36.76-.81-.34-.81-.76-.81Z"/>
    </g>
  </g>
  <g>
    <g>
      <path class="cls-1" d="m44.8,23.15c-.21-2.2,1.56-3.46,1.63-3.51l.24.38s-1.63,1.16-1.44,3.09l-.43.04Z"/>
      <path class="cls-1" d="m44.53,23.48l-.03-.3c-.23-2.39,1.68-3.73,1.76-3.78l.26-.18.55.88-.22.17c-.06.05-1.49,1.11-1.32,2.82l.03.3-1.02.11Z"/>
    </g>
    <g>
      <path class="cls-1" d="m46.9,26.86l-.55-2.64c-.07-.74-.77-1.32-1.6-1.32s-1.54.58-1.6,1.29l-.56,2.67c-.07.32.03.66.27.91.21.23.52.35.84.38,0-.03,0-.05,0-.08,0-.12.02-.24.03-.36-.19-.02-.36-.09-.48-.22-.14-.15-.2-.35-.16-.54l.56-2.69c.05-.51.53-.9,1.1-.9s1.05.4,1.1.92l.56,2.66c.04.19-.02.39-.16.54-.07.07-.15.12-.24.15.04.15.04.3.02.46.24-.06.46-.15.62-.32.24-.25.34-.59.27-.91Z"/>
      <path class="cls-1" d="m45.66,28.49l.06-.44c.02-.12.01-.24-.01-.34l-.06-.25.24-.1c.07-.03.11-.05.14-.08.07-.08.1-.18.08-.27l-.56-2.66c-.04-.4-.39-.69-.81-.69s-.77.28-.8.63l-.56,2.73c-.02.1,0,.19.08.27.08.09.21.12.3.13l.3.03-.05.4c0,.08-.02.16-.02.23v.34s-.32.04-.32.04c-.42-.04-.78-.2-1.03-.47-.3-.32-.43-.75-.34-1.18l.56-2.67c.07-.84.91-1.53,1.9-1.53s1.82.7,1.9,1.59l.55,2.61c.09.42-.04.85-.34,1.18-.18.19-.43.33-.77.41l-.43.1Z"/>
    </g>
  </g>
  <path class="cls-1" d="m48.09,17.49c-2.48,0-4.5-1.94-4.5-4.32s2.02-4.32,4.5-4.32,4.5,1.94,4.5,4.32-2.02,4.32-4.5,4.32Zm0-7.64c-1.93,0-3.5,1.49-3.5,3.32s1.57,3.32,3.5,3.32,3.5-1.49,3.5-3.32-1.57-3.32-3.5-3.32Z"/>
  <path class="cls-1" d="m48.09,17.99c-2.76,0-5-2.16-5-4.82s2.24-4.82,5-4.82,5,2.16,5,4.82-2.24,4.82-5,4.82Zm0-7.64c-1.66,0-3,1.26-3,2.82s1.35,2.82,3,2.82,3-1.26,3-2.82-1.35-2.82-3-2.82Z"/>
  <path class="cls-1" d="m40.61,27.57h-1v-4.56c0-1.9,1.61-3.44,3.58-3.44h9.79c1.98,0,3.58,1.54,3.58,3.44v3h-1v-3c0-1.35-1.16-2.44-2.58-2.44h-9.79c-1.42,0-2.58,1.09-2.58,2.44v4.56Z"/>
  <path class="cls-1" d="m40.11,28.57c-.55,0-1-.45-1-1v-4.56c0-2.17,1.83-3.94,4.08-3.94h9.79c2.25,0,4.08,1.77,4.08,3.94v3c0,.55-.45,1-1,1s-1-.45-1-1v-3c0-1.07-.93-1.94-2.08-1.94h-9.79c-1.15,0-2.08.87-2.08,1.94v4.56c0,.55-.45,1-1,1Z"/>
  <g>
    <g>
      <path class="cls-1" d="m51.78,25.29h-.43v-2.69c0-.58-.15-1.15-.42-1.65l-.7-1.25.37-.23.7,1.25c.32.57.48,1.22.48,1.87v2.69Z"/>
      <path class="cls-1" d="m52.08,25.59h-1.03v-2.99c0-.53-.13-1.05-.39-1.5l-.84-1.5.88-.54.85,1.52c.34.61.52,1.31.52,2.02v2.99Z"/>
    </g>
    <g>
      <path class="cls-1" d="m51.57,27.81c-.75,0-1.37-.64-1.37-1.44s.61-1.44,1.37-1.44,1.37.64,1.37,1.44-.61,1.44-1.37,1.44Zm0-2.42c-.52,0-.94.44-.94.99s.42.99.94.99.94-.44.94-.99-.42-.99-.94-.99Z"/>
      <path class="cls-1" d="m51.57,28.11c-.92,0-1.67-.78-1.67-1.74s.75-1.74,1.67-1.74,1.67.78,1.67,1.74-.75,1.74-1.67,1.74Zm0-2.42c-.35,0-.64.31-.64.69s.29.69.64.69.64-.31.64-.69-.29-.69-.64-.69Z"/>
    </g>
  </g>
  <g>
    <path class="cls-1" d="m19.68,10.67c-.06,0-.13-.02-.19-.04-.06-.03-.11-.06-.16-.11s-.08-.1-.11-.16c-.02-.06-.04-.13-.04-.19,0-.07.02-.13.04-.19.03-.07.06-.12.11-.17.05-.04.1-.08.16-.1.12-.05.26-.05.38,0,.07.02.12.06.17.1.04.05.08.1.1.17.03.06.04.12.04.19,0,.06,0,.13-.03.19-.03.06-.07.11-.11.16-.05.05-.1.08-.17.11-.06.02-.12.04-.19.04Z"/>
    <path class="cls-1" d="m15.68,13.17c-.07,0-.13,0-.19-.03-.06-.03-.12-.07-.17-.11-.04-.05-.08-.1-.1-.16-.03-.07-.04-.13-.04-.2,0-.06.01-.13.04-.19.02-.06.06-.12.1-.16.05-.05.11-.08.17-.11.12-.05.26-.05.38,0,.06.03.11.06.16.11.05.04.08.1.11.16.03.06.04.13.04.19,0,.07,0,.13-.04.2-.02.06-.06.11-.11.16-.05.04-.1.08-.16.11-.06.02-.13.03-.19.03Z"/>
    <path class="cls-1" d="m12.34,16.46c-.13,0-.25-.05-.35-.15-.1-.09-.15-.21-.15-.35,0-.13.06-.26.15-.35.05-.05.1-.09.16-.11.12-.05.26-.05.38,0,.06.02.12.06.17.11.09.09.14.22.14.35,0,.14-.05.26-.14.35-.1.1-.22.15-.36.15Z"/>
    <path class="cls-1" d="m9.85,20.36c-.07,0-.13,0-.19-.04-.06-.02-.12-.06-.16-.11-.05-.04-.09-.1-.11-.16-.03-.06-.04-.12-.04-.19,0-.13.05-.26.15-.35.04-.05.1-.09.16-.11.12-.05.26-.05.38,0,.06.02.12.06.16.11.05.04.09.1.11.16.03.06.04.12.04.19,0,.13-.05.26-.15.35-.09.1-.22.15-.35.15Z"/>
    <path class="cls-1" d="m8.33,24.67c-.14,0-.26-.05-.36-.15-.09-.09-.14-.22-.14-.35,0-.07,0-.13.03-.19.03-.06.07-.12.11-.16.05-.05.1-.09.16-.11.19-.08.41-.03.55.11.05.04.08.1.11.16.02.06.03.12.03.19s0,.13-.03.19c-.03.06-.06.12-.11.16-.05.05-.1.09-.16.11-.06.03-.13.04-.19.04Z"/>
    <path class="cls-1" d="m7.85,29.17c-.07,0-.13,0-.19-.04-.06-.02-.12-.06-.16-.11-.1-.09-.15-.22-.15-.35,0-.07.01-.13.04-.19.02-.06.06-.12.11-.16.04-.05.1-.09.16-.11.12-.05.26-.05.38,0,.06.02.12.06.16.11.1.09.15.22.15.35s-.05.26-.15.35c-.04.05-.1.09-.16.11-.06.03-.12.04-.19.04Z"/>
    <path class="cls-1" d="m8.44,33.63c-.13,0-.25-.05-.35-.15-.05-.04-.08-.1-.11-.16-.02-.06-.04-.12-.04-.19,0-.13.06-.26.15-.35.05-.05.1-.08.16-.11.13-.05.26-.05.38,0,.07.03.12.06.17.11.09.09.15.22.15.35,0,.07-.02.13-.04.19-.03.06-.07.12-.11.16-.1.1-.22.15-.36.15Z"/>
  </g>
  <g>
    <path class="cls-1" d="m44.65,46.44c-.13,0-.26-.05-.35-.14s-.15-.22-.15-.35c0-.07.02-.13.04-.2.03-.06.06-.11.11-.16.18-.18.52-.18.71,0,.04.05.08.1.11.16.02.07.04.13.04.2,0,.06-.02.13-.04.19-.03.06-.07.11-.11.16-.05.05-.11.08-.17.11-.05.02-.12.03-.19.03Z"/>
    <path class="cls-1" d="m48.18,43.3c-.13,0-.26-.05-.35-.14-.05-.05-.08-.1-.11-.16-.02-.06-.04-.13-.04-.19,0-.14.06-.27.15-.36.14-.14.36-.18.55-.11.06.03.11.06.16.11.04.05.08.1.11.16.02.06.03.13.03.2,0,.06,0,.13-.03.19-.03.06-.07.11-.11.16-.1.09-.22.14-.36.14Z"/>
    <path class="cls-1" d="m50.92,39.51c-.06,0-.13-.02-.19-.04-.06-.03-.11-.06-.16-.11-.1-.09-.15-.22-.15-.35,0-.07.02-.13.04-.2.03-.06.06-.11.11-.16.05-.04.1-.08.16-.11.18-.07.41-.03.55.11.04.05.08.1.1.16.03.07.04.13.04.2,0,.13-.05.26-.14.35-.05.05-.11.08-.17.11-.06.02-.12.04-.19.04Z"/>
    <path class="cls-1" d="m52.73,35.24c-.13,0-.26-.05-.35-.14-.05-.05-.09-.1-.11-.16-.03-.06-.04-.13-.04-.19,0-.07,0-.13.04-.19.02-.07.06-.12.11-.17.18-.18.52-.18.7,0,.05.05.09.1.11.17.03.06.04.12.04.19,0,.06-.01.13-.04.19-.02.06-.06.11-.11.16-.09.09-.22.14-.35.14Z"/>
    <path class="cls-1" d="m53.51,30.74c-.06,0-.13-.01-.19-.04-.06-.02-.11-.06-.16-.1-.1-.1-.15-.23-.15-.36,0-.06.01-.13.04-.19.03-.06.06-.11.11-.16.04-.05.1-.08.16-.11.18-.08.41-.03.54.11.05.05.09.1.11.16.03.06.04.13.04.19,0,.13-.05.26-.15.36-.09.09-.22.14-.35.14Z"/>
  </g>
</svg>