<?xml version="1.0" encoding="UTF-8"?>
<svg id="Layer_1" data-name="Layer 1" xmlns="http://www.w3.org/2000/svg" viewBox="0 0 60 60">
  <defs>
    <style>
      .cls-1 {
        fill: #37464c;
        stroke-width: 0px;
      }
    </style>
  </defs>
  <g>
    <g>
      <g>
        <path class="cls-1" d="m36.15,17.16c-2.9-.38-4.4-2.07-4.91-2.78-.53-.74-.77-1.45-.67-1.97.04-.22.04-.39.01-.51-2.41,1.41-9.47,1.96-11.95,1.93l.02-1.05c3.19.06,10.11-.72,11.62-1.93.23-.19.54-.2.81-.04.47.28.68,1.03.53,1.81-.02.12.07.55.49,1.14.43.6,1.69,2.02,4.19,2.35l-.14,1.05Z"/>
        <path class="cls-1" d="m36.63,17.78l-.54-.07c-3.12-.41-4.74-2.24-5.29-3.01-.48-.67-.75-1.34-.79-1.91-3.04,1.19-9.18,1.62-11.38,1.59h-.55s.03-2.16.03-2.16h.55c3.31.06,9.96-.75,11.27-1.8.41-.33.98-.36,1.44-.08.67.41.99,1.37.78,2.39,0,0,.08.27.4.71.39.54,1.53,1.83,3.81,2.12l.54.07-.28,2.14Z"/>
      </g>
      <g>
        <path class="cls-1" d="m27.26,31.21c-4.96,0-8.63-4.72-9.34-12.03-.45-4.65.31-8.1,2.27-10.26,1.59-1.76,3.97-2.65,7.07-2.65s5.57.91,7.17,2.7c1.95,2.17,2.68,5.61,2.17,10.22h0c-.82,7.42-4.4,12.02-9.34,12.02Zm0-23.88c-2.79,0-4.91.77-6.29,2.3-1.75,1.93-2.42,5.1-2,9.45.65,6.73,3.91,11.08,8.29,11.08s7.54-4.25,8.29-11.08h0c.47-4.29-.17-7.46-1.91-9.4-1.39-1.56-3.54-2.34-6.38-2.34Z"/>
        <path class="cls-1" d="m27.26,31.76c-5.27,0-9.15-4.92-9.89-12.53-.47-4.81.34-8.41,2.41-10.68,1.7-1.88,4.22-2.83,7.48-2.83s5.87.97,7.58,2.88c2.06,2.3,2.83,5.88,2.31,10.64-.85,7.72-4.64,12.51-9.88,12.51Zm0-23.88c-2.63,0-4.61.71-5.88,2.12-1.64,1.81-2.26,4.84-1.86,9.02.62,6.43,3.66,10.58,7.74,10.58s7.02-4.06,7.74-10.59c.46-4.13-.14-7.15-1.77-8.97-1.29-1.43-3.29-2.16-5.97-2.16Z"/>
      </g>
    </g>
    <g>
      <path class="cls-1" d="m27.26,54.39h0c-.36,0-.67-.25-.75-.6l-5.21-22.03v-3.64h1.05v3.58l4.92,20.74,5.17-20.91-.14-3.6,1.05-.04.15,3.75-5.48,22.16c-.09.35-.4.59-.76.59Z"/>
      <path class="cls-1" d="m27.26,54.94h0c-.62,0-1.15-.42-1.29-1.02l-5.22-22.16v-4.19h2.15v4.06l4.38,18.47,4.61-18.63-.16-4.07,2.15-.08.17,4.37-5.5,22.24c-.15.59-.68,1.01-1.29,1.01Z"/>
    </g>
    <g>
      <path class="cls-1" d="m27.4,39.32c-2.32,0-4.44-1.48-5.17-3.59l1-.34c.58,1.7,2.3,2.88,4.17,2.88s3.57-1.26,4.14-3.08l1.01.32c-.7,2.25-2.82,3.81-5.14,3.81Z"/>
      <path class="cls-1" d="m27.39,39.87c-2.55,0-4.89-1.63-5.69-3.96l-.18-.52,2.04-.7.18.52c.5,1.48,2.01,2.51,3.65,2.51s3.12-1.11,3.61-2.69l.17-.53,2.06.64-.17.52c-.77,2.47-3.1,4.2-5.67,4.2Z"/>
    </g>
    <g>
      <path class="cls-1" d="m4.89,53.28l-.12-10.99c.3-2.53,1.92-4.62,4.22-5.53l9.68-4.19,2.8-2.47.7.79-3,2.61-9.77,4.23c-1.96.77-3.33,2.54-3.58,4.62l.12,10.92h-1.05Z"/>
      <path class="cls-1" d="m4.35,53.83l-.12-11.54c.33-2.77,2.08-5.06,4.57-6.05l9.58-4.15,3.14-2.78,1.43,1.62-3.56,3.07-9.77,4.23c-1.78.7-3.02,2.3-3.25,4.18l.13,11.4-2.15.02Z"/>
    </g>
    <g>
      <g>
        <path class="cls-1" d="m35.3,32.29l-.09-.08-1.87-1.84-.74.75,2.49,2.45c-.03-.44.04-.88.21-1.28Z"/>
        <path class="cls-1" d="m35.73,34.97l-3.92-3.85,1.51-1.54,2.62,2.57-.14.34c-.13.32-.19.67-.17,1.03l.1,1.44Z"/>
      </g>
      <g>
        <path class="cls-1" d="m49.25,42.74c-.16,0-.31-.02-.46-.05l.16,9.3,1.05-.02-.16-9.3c-.18.04-.38.06-.59.06Z"/>
        <path class="cls-1" d="m48.41,52.55l-.18-10.51.65.11c.26.05.56.05.84-.01l.66-.14.19,10.52-2.15.04Z"/>
      </g>
    </g>
    <g>
      <g>
        <path class="cls-1" d="m14.34,40.97c-.51-5.14,3.83-8.07,4.02-8.19l.58.88s-4,2.72-3.55,7.21l-1.05.11Z"/>
        <path class="cls-1" d="m13.85,41.57l-.05-.55c-.55-5.48,4.06-8.58,4.26-8.71l.46-.3,1.19,1.8-.46.3s-3.72,2.56-3.3,6.7l.05.55-2.14.21Z"/>
      </g>
      <g>
        <path class="cls-1" d="m16.96,52.69h-.81v-1.05h.81c.46,0,.89-.2,1.18-.56.29-.35.41-.81.33-1.27l-1.15-6.22c-.1-1.23-1.1-2.16-2.29-2.16s-2.19.92-2.28,2.11l-1.16,6.28c-.08.45.04.91.33,1.26.29.35.72.55,1.17.55h.89v1.05h-.89c-.77,0-1.49-.34-1.99-.93-.49-.59-.69-1.37-.55-2.12l1.16-6.23c.13-1.67,1.6-3.02,3.33-3.02s3.19,1.35,3.33,3.08l1.15,6.16c.14.76-.06,1.54-.56,2.13-.49.59-1.22.94-2,.94Z"/>
        <path class="cls-1" d="m16.96,53.25h-1.36v-2.15h1.36c.29,0,.57-.13.76-.36.19-.23.27-.52.21-.81l-1.15-6.22c-.08-1-.83-1.71-1.75-1.71s-1.66.7-1.73,1.6l-1.17,6.34c-.05.29.02.58.21.8.19.22.46.35.75.35h1.44v2.15h-1.44c-.93,0-1.81-.41-2.41-1.13-.6-.72-.84-1.66-.67-2.57l1.16-6.23c.15-1.92,1.85-3.47,3.87-3.47s3.72,1.57,3.88,3.58l1.14,6.11c.17.92-.08,1.87-.67,2.59-.6.72-1.48,1.13-2.42,1.13Z"/>
      </g>
      <g>
        <path class="cls-1" d="m38.56,40.3c0,.08.01.15.01.23v6.28h1.05v-5.93c-.44-.1-.79-.31-1.07-.58Z"/>
        <path class="cls-1" d="m40.17,47.36h-2.15v-7.04s-.06-1.37-.06-1.37l.98.95c.23.22.49.37.81.44l.43.1v6.92Z"/>
      </g>
      <g>
        <path class="cls-1" d="m39.1,52.69c-1.85,0-3.36-1.51-3.36-3.36s1.51-3.36,3.36-3.36,3.36,1.51,3.36,3.36-1.51,3.36-3.36,3.36Zm0-5.66c-1.27,0-2.3,1.03-2.3,2.3s1.03,2.3,2.3,2.3,2.3-1.03,2.3-2.3-1.03-2.3-2.3-2.3Z"/>
        <path class="cls-1" d="m39.1,53.25c-2.15,0-3.91-1.75-3.91-3.91s1.75-3.91,3.91-3.91,3.91,1.75,3.91,3.91-1.75,3.91-3.91,3.91Zm0-5.66c-.97,0-1.75.79-1.75,1.75s.79,1.75,1.75,1.75,1.75-.79,1.75-1.75-.79-1.75-1.75-1.75Z"/>
      </g>
    </g>
  </g>
  <g>
    <path class="cls-1" d="m44.46,37.39c-.17,0-.33-.06-.46-.19l-4.41-4.41c-.12-.12-.19-.29-.19-.46s.07-.34.19-.46l1.76-1.76c.12-.12.29-.19.46-.19h0c.17,0,.34.07.46.19l2.19,2.19,5.71-5.71c.25-.25.67-.25.92,0l1.76,1.76c.12.12.19.29.19.46s-.07.34-.19.46l-7.94,7.94c-.13.13-.29.19-.46.19Zm-3.49-5.06l3.49,3.49,7.02-7.02-.85-.84-5.71,5.71c-.12.12-.29.19-.46.19h0c-.17,0-.34-.07-.46-.19l-2.19-2.19-.85.85Z"/>
    <path class="cls-1" d="m46.23,43.77c-6.55,0-11.87-5.33-11.87-11.87s5.33-11.87,11.87-11.87,11.88,5.33,11.88,11.87-5.33,11.87-11.88,11.87Zm0-22.05c-5.61,0-10.17,4.56-10.17,10.17s4.56,10.17,10.17,10.17,10.18-4.56,10.18-10.17-4.57-10.17-10.18-10.17Z"/>
  </g>
</svg>