<?xml version="1.0" encoding="UTF-8"?>
<svg id="Layer_1" data-name="Layer 1" xmlns="http://www.w3.org/2000/svg" version="1.1" viewBox="0 0 60 60">
  <defs>
    <style>
      .cls-1 {
        fill: #37464c;
        stroke-width: 0px;
      }
    </style>
  </defs>
  <polygon class="cls-1" points="3.8 53.3 3.8 53.3 3.8 53.3 3.8 53.3"/>
  <path class="cls-1" d="M52,25.7c-.2-.2-.7-.2-.9,0l-5.9,5.9-2.2-2.2c-.2-.2-.7-.2-.9,0l-1.8,1.8c-.2.2-.2.7,0,.9l4.5,4.5c.1.1.3.2.5.2s.3,0,.5-.2l8.1-8.1c.2-.2.2-.7,0-.9l-1.8-1.8ZM45.2,35.2l-3.6-3.6.9-.9,2.2,2.2c.2.2.7.2.9,0l5.9-5.9.9.9-7.2,7.2Z"/>
  <path class="cls-1" d="M59.1,31.2c0-6.7-5.5-12.1-12.2-12.1s-4.3.6-6,1.6c0-1.1,0-2.2,0-3.3v-.4h0c-.2-7.4-4.8-13.4-10.6-13.9h0s-.4,0-.4,0c0,0-.1,0-.2,0,0,0-.2,0-.3,0h-.4c-1.5.2-2.8.7-3.7,1.4-.6-.6-1.4-1.1-2.3-1.3h0c0,0-.4,0-.4,0-.1,0-.2,0-.3,0,0,0,0,0-.1,0h-.4c-5.7.6-10.2,6.6-10.3,14h0v.4c0,12.5-2.4,18.4-3.1,18.6h-.4v.3c-2.3,1-4,3.2-4.3,5.8v11.3c.1,0,2.2,0,2.2,0v-11.2c0-1.6,1.1-3.1,2.5-3.8.6,0,1.1-.3,1.6-.7l5.1-2.2c-.6,1.3-1.1,2.8-1.1,4.5-1.9.2-3.4,1.6-3.5,3.3l-1.2,6c-.2.9,0,1.8.7,2.5.6.7,1.5,1.1,2.4,1.1h1.4v-2.1h-1.4c-.3,0-.6-.1-.8-.3-.2-.2-.2-.5-.2-.7l1.2-6.1c0-.8.8-1.5,1.7-1.5s1.7.7,1.8,1.6l1.2,5.9c0,.3,0,.5-.2.7-.2.2-.5.3-.8.3h-1.4v2.1h1.4,0c.9,0,1.8-.4,2.4-1.1.6-.7.9-1.6.7-2.5l-1.1-5.8c-.1-1.2-.9-2.3-1.9-2.9-.2-4.6,3.6-7.5,3.8-7.6l.6,2.4h0s.2.5.2.5c0,0,0,0,0,.1l4.1,17.5c.1.6.7,1,1.3,1h0c.6,0,1.1-.4,1.3-1l4.5-18.3h0c0-.1,0-.1,0-.1l.5-2.1,1.1,1.1,1.1.5,1.6,2.6c.6,1,1,2.2,1,3.4v4.8c-1.6.5-2.8,1.9-2.8,3.6s1.8,3.8,3.9,3.8,3.9-1.7,3.9-3.8-1.2-3.1-2.8-3.6v-4.6c2,1.6,4.5,2.5,7.1,2.6l.2,8.7h2.1s-.2-8.9-.2-8.9c5.8-.9,10.3-5.9,10.3-12ZM38.4,50.6c-1,0-1.8-.7-1.8-1.6s.8-1.7,1.8-1.7,1.8.7,1.8,1.7-.8,1.6-1.8,1.6ZM30.7,31.1v.3s-.8,3.2-.8,3.2v.2c-.6,1.5-2,2.6-3.6,2.6s-3-1-3.5-2.4l-.8-3.6v-.6h0s0,0,0,0v-.4c1.3.8,2.7,1.3,4.2,1.3h0c1.7,0,3.2-.5,4.5-1.4v.7s0,0,0,0h0ZM26.3,39.6c.9,0,1.7-.2,2.5-.6l-2.6,10.5-2.5-10.5c.8.4,1.7.6,2.6.6h0ZM17.5,32l-5.7,2.5c1.9-5.4,2.1-14.8,2.1-16.8h0v-.4c0-6.4,3.8-11.7,8.4-11.9.7,0,1.4.5,1.5,1-2.1.3-3.8,1.2-5.1,2.6-2,2.2-2.8,5.7-2.4,10.4.4,3.8,1.6,6.9,3.3,9.1v1.4l-1.2,1c-.2.2-.7.5-1.2,1ZM33.7,19.2c-.4,3.6-1.5,6.4-3,8.2h-.1s0,.1,0,.1c-1.2,1.3-2.7,2-4.4,2s-3-.7-4.2-1.9h0c0-.1-.1-.1-.1-.1-1.7-1.8-2.8-4.7-3.2-8.3-.2-1.6-.2-3.1,0-4.4.7.6,1.6,1,2.6,1.2,0,0,0,0,0,0h.2c.3,0,.5,0,.8,0h0c0,0,.4,0,.4,0,0-1.1.4-2.1,1-2.6l.4,3.1h.2s0,.2,0,.2c2.9,0,7.2-.4,9.5-1.7.1,1.2.1,2.6,0,4.1ZM25.2,14.8l-.4-2.8h0s0-.4,0-.4c-1.4,0-2.6,1.1-3.2,2.6-1.2-.2-2.1-.9-2.3-1.8.3-.7.7-1.3,1.1-1.9,1.2-1.4,3.2-2.1,5.7-2.1s4.6.7,5.8,2.1c.6.7,1.1,1.5,1.4,2.5-.5.6-3.5,1.7-8.1,1.8ZM34.9,32.3l-2.1-2.1v-1.9c1.6-2.1,2.7-5.1,3.1-8.8.5-4.7-.2-8.2-2.3-10.4-1.6-1.7-3.9-2.7-6.8-2.8.5-.4,1.5-.9,3-.9,4.8.2,8.7,5.4,8.7,11.9v.4h0c0,1.6,0,3.2.2,4.6h0c-2.3,2.3-3.8,5.4-3.8,8.9s0,.8,0,1.1ZM47,41.6c-3.6,0-6.7-1.8-8.6-4.5h0s0,0,0,0c-.2-.3-.4-.5-.5-.8,0,0,0-.2,0-.3v-.2c0,0-.2,0-.2,0-.4-.9-.8-1.9-.9-3h0c0,0,0,0,0,0,0-.5-.1-1-.1-1.4,0-5.8,4.7-10.5,10.5-10.5s10.5,4.7,10.5,10.5-4.7,10.4-10.5,10.4Z"/>
</svg>