<?xml version="1.0" encoding="UTF-8"?>
<svg id="Layer_1" data-name="Layer 1" xmlns="http://www.w3.org/2000/svg" viewBox="0 0 60 60">
  <defs>
    <style>
      .cls-1 {
        fill: #37464c;
        stroke-width: 0px;
      }
    </style>
  </defs>
  <g>
    <path class="cls-1" d="m29.21,32.56c-5.48,0-9.51-5.12-10.28-13.04-.49-5.01.36-8.75,2.5-11.12,1.77-1.95,4.39-2.94,7.78-2.94s6.1,1.01,7.88,2.99c2.14,2.39,2.94,6.11,2.4,11.08-.89,8.03-4.83,13.02-10.28,13.02Zm0-24.89c-2.75,0-4.81.75-6.15,2.22-1.71,1.89-2.37,5.06-1.94,9.42.65,6.71,3.83,11.05,8.09,11.05s7.34-4.24,8.09-11.07c.48-4.32-.15-7.47-1.85-9.37-1.34-1.5-3.44-2.26-6.25-2.26Zm5.96.53c.4.29.77.62,1.1.99.12.13.24.27.35.42-.11-.14-.23-.28-.35-.42-.33-.37-.7-.7-1.1-.99Z"/>
    <path class="cls-1" d="m19.85,16.48v-2c4.61,0,8.36-3.3,8.36-7.36h2c0,5.16-4.65,9.36-10.36,9.36Z"/>
    <path class="cls-1" d="m38.62,16.48c-5.74,0-10.42-4.2-10.42-9.36h2c0,4.06,3.78,7.36,8.42,7.36v2Z"/>
    <path class="cls-1" d="m42.67,36.92l-.37-1.97c3.39-.63,5.92-3.02,5.51-5.21l1.97-.37c.63,3.37-2.49,6.69-7.11,7.55Z"/>
    <path class="cls-1" d="m49.64,31.55c-4.16,0-7.42-2.34-7.42-5.32h2c0,1.8,2.48,3.32,5.42,3.32v2Z"/>
    <rect class="cls-1" x="42.22" y="11.3" width="2" height="15.47"/>
    <path class="cls-1" d="m44.22,11.86h-2c0-4.34-3.91-7.87-8.71-7.87V2c5.9,0,10.71,4.43,10.71,9.87Z"/>
    <path class="cls-1" d="m30.73,6.03h-2c0-2.23,2.14-4.04,4.78-4.04v2c-1.51,0-2.78.93-2.78,2.04Z"/>
    <path class="cls-1" d="m16.92,36.56c-4.79,0-8.68-3.14-8.68-7h2c0,2.76,3,5,6.68,5v2Z"/>
    <path class="cls-1" d="m8.71,31.55v-2c3.1,0,5.71-1.63,5.71-3.56h2c0,3.12-3.39,5.56-7.71,5.56Z"/>
    <rect class="cls-1" x="14.42" y="11.06" width="2" height="15.47"/>
    <path class="cls-1" d="m16.42,11.62h-2c0-5.31,4.95-9.63,11.03-9.63v2c-4.98,0-9.03,3.42-9.03,7.63Z"/>
    <path class="cls-1" d="m30.22,6.03h-2c0-1.1-1.27-2.04-2.78-2.04V2c2.63,0,4.78,1.81,4.78,4.04Z"/>
  </g>
  <g>
    <path class="cls-1" d="m29.21,56.17h0c-.38,0-.7-.26-.78-.62l-5.43-22.97v-3.79h1.1v3.73l5.12,21.62,5.39-21.79-.15-3.75,1.1-.04.15,3.91-5.71,23.1c-.09.36-.41.62-.79.62Z"/>
    <path class="cls-1" d="m29.21,56.72h0c-.63,0-1.17-.43-1.32-1.05l-5.44-23.09v-4.34h2.2v4.21l4.59,19.35,4.83-19.51-.17-4.22,2.2-.09.18,4.53-5.73,23.18c-.15.61-.69,1.03-1.32,1.03Z"/>
  </g>
  <g>
    <path class="cls-1" d="m29.35,40.47c-2.42,0-4.63-1.54-5.39-3.74l1.04-.36c.61,1.77,2.39,3,4.35,3s3.72-1.32,4.31-3.21l1.05.33c-.73,2.34-2.94,3.98-5.36,3.98Z"/>
    <path class="cls-1" d="m29.35,41.02c-2.65,0-5.08-1.69-5.91-4.12l-.18-.52,2.08-.71.18.52c.53,1.55,2.1,2.63,3.83,2.63s3.27-1.16,3.79-2.82l.16-.53,2.1.66-.17.52c-.8,2.57-3.22,4.36-5.89,4.36Zm-4.66-3.96c.12.26.27.5.44.74-.17-.23-.32-.48-.44-.74h0Zm9.3-.21c-.04.08-.08.17-.12.25.04-.08.08-.17.12-.25h0Z"/>
  </g>
  <g>
    <path class="cls-1" d="m5.9,55.02l-.12-11.46c.31-2.64,2-4.82,4.4-5.77l10.09-4.37,2.91-2.57.73.82-3.13,2.73-10.19,4.41c-2.04.81-3.47,2.65-3.73,4.81l.13,11.39h-1.1Z"/>
    <path class="cls-1" d="m5.35,55.57l-.13-12.01c.34-2.88,2.16-5.26,4.75-6.29l9.99-4.32,3.26-2.88,1.46,1.65-3.69,3.18-10.19,4.41c-1.87.74-3.16,2.41-3.4,4.37l.14,11.86-2.2.02Z"/>
  </g>
  <g>
    <path class="cls-1" d="m51.84,53.68l-.17-10.24c-.26-2.13-1.66-4-3.67-4.81l-10.24-4.18-2.79-2.81.76-.79,2.71,2.73,9.96,4.02c2.38.96,4.05,3.17,4.36,5.77l.18,10.29-1.09.02Z"/>
    <path class="cls-1" d="m51.3,54.24l-.18-10.79c-.23-1.9-1.51-3.57-3.33-4.31l-10.43-4.3-3.17-3.19,1.53-1.59,3.03,3.05,9.86,3.98c2.57,1.04,4.36,3.42,4.7,6.21l.19,10.9-2.19.04Zm-5.29-17.01l2.19.89c.62.25,1.2.6,1.7,1.01-.51-.42-1.08-.77-1.71-1.03l-2.18-.88Zm-7.95-3.24l-.02-.02-2.32-2.33,2.33,2.35Z"/>
  </g>
  <g>
    <g>
      <path class="cls-1" d="m15.74,42.19c-.54-5.35,3.99-8.41,4.19-8.54l.61.92s-4.17,2.83-3.7,7.51l-1.09.11Z"/>
      <path class="cls-1" d="m15.25,42.79l-.05-.55c-.57-5.69,4.23-8.92,4.43-9.05l.46-.3,1.21,1.83-.45.31s-3.89,2.69-3.46,7l.05.55-2.19.22Zm4.54-8.36c-1.07.85-3.66,3.33-3.54,7.15h0c-.12-3.78,2.48-6.28,3.54-7.15h0Z"/>
    </g>
    <g>
      <path class="cls-1" d="m18.48,54.41h-.84v-1.1h.84c.48,0,.93-.21,1.23-.58.31-.37.43-.85.34-1.32l-1.2-6.48c-.11-1.29-1.15-2.25-2.39-2.25s-2.28.96-2.38,2.19l-1.21,6.55c-.09.47.04.94.34,1.31.3.37.75.57,1.22.57h.93v1.1h-.93c-.8,0-1.56-.35-2.07-.97-.51-.62-.72-1.42-.58-2.21l1.21-6.5c.14-1.74,1.66-3.15,3.47-3.15s3.33,1.41,3.47,3.21l1.2,6.42c.15.79-.06,1.6-.58,2.22-.52.62-1.27.98-2.08.98Z"/>
      <path class="cls-1" d="m18.48,54.96h-1.39v-2.2h1.39c.31,0,.61-.14.81-.38s.28-.56.23-.87l-1.2-6.48c-.09-1.05-.88-1.8-1.84-1.8s-1.75.74-1.83,1.69l-1.22,6.61c-.06.31.02.62.22.86.2.24.49.38.8.38h1.48v2.2h-1.48c-.97,0-1.88-.43-2.49-1.17-.62-.74-.87-1.71-.7-2.67l1.21-6.5c.16-1.99,1.92-3.6,4.01-3.6s3.86,1.63,4.02,3.71l1.19,6.37c.18.95-.08,1.93-.7,2.68-.62.75-1.53,1.17-2.5,1.17Zm-4.93-10.18l-.33,1.76.33-1.76h0Z"/>
    </g>
    <g>
      <path class="cls-1" d="m42.1,48.28h-1.1v-6.55c0-1.41-.38-2.79-1.09-4.01l-1.79-3.04.95-.56,1.79,3.04c.81,1.38,1.24,2.96,1.24,4.56v6.55Z"/>
      <path class="cls-1" d="m42.65,48.83h-2.2v-7.1c0-1.31-.35-2.6-1.01-3.73l-2.06-3.52,1.9-1.11,2.06,3.52c.86,1.46,1.31,3.14,1.31,4.84v7.1Z"/>
    </g>
    <g>
      <path class="cls-1" d="m41.55,54.41c-1.93,0-3.5-1.57-3.5-3.5s1.57-3.5,3.5-3.5,3.5,1.57,3.5,3.5-1.57,3.5-3.5,3.5Zm0-5.9c-1.32,0-2.4,1.08-2.4,2.4s1.08,2.4,2.4,2.4,2.4-1.08,2.4-2.4-1.08-2.4-2.4-2.4Z"/>
      <path class="cls-1" d="m41.55,54.96c-2.23,0-4.05-1.82-4.05-4.05s1.82-4.05,4.05-4.05,4.05,1.82,4.05,4.05-1.82,4.05-4.05,4.05Zm0-5.9c-1.02,0-1.85.83-1.85,1.85s.83,1.85,1.85,1.85,1.85-.83,1.85-1.85-.83-1.85-1.85-1.85Z"/>
    </g>
  </g>
</svg>