<?xml version="1.0" encoding="UTF-8"?>
<svg id="Layer_1" data-name="Layer 1" xmlns="http://www.w3.org/2000/svg" viewBox="0 0 60 60">
  <defs>
    <style>
      .cls-1 {
        fill: #37464c;
        stroke-width: 0px;
      }
    </style>
  </defs>
  <g>
    <path class="cls-1" d="m45.42,50.35h-5.84c-.32,0-.58-.26-.58-.58s.26-.58.58-.58h5.26V6.08h-23.66v43.69c0,.32-.26.58-.58.58s-.58-.26-.58-.58V5.5c0-.32.26-.58.58-.58h24.82c.32,0,.58.26.58.58v44.27c0,.32-.26.58-.58.58Z"/>
    <path class="cls-1" d="m45.42,50.72h-5.84c-.53,0-.96-.43-.96-.96s.43-.96.96-.96h4.88V6.45h-22.91v43.31c0,.53-.43.96-.96.96s-.96-.43-.96-.96V5.5c0-.53.43-.96.96-.96h24.82c.53,0,.96.43.96.96v44.27c0,.53-.43.96-.96.96Zm-5.84-1.16c-.11,0-.21.09-.21.21s.09.21.21.21h5.84c.11,0,.21-.09.21-.21V5.5c0-.11-.09-.21-.21-.21h-24.82c-.11,0-.21.09-.21.21v44.27c0,.23.41.23.41,0V5.7h24.41v43.86h-5.63Z"/>
  </g>
  <g>
    <path class="cls-1" d="m39.32,56.25c-.06,0-.12,0-.17-.03l-18.92-5.9c-.24-.08-.41-.3-.41-.55V5.5c0-.18.09-.36.24-.47.15-.11.34-.14.52-.09l18.92,5.9c.24.08.41.3.41.55v44.27c0,.18-.09.36-.24.47-.1.07-.22.11-.34.11Zm-18.34-6.91l17.76,5.54V11.83l-17.76-5.54v43.05Z"/>
    <path class="cls-1" d="m39.32,56.62c-.1,0-.19-.01-.28-.04l-18.92-5.9c-.4-.13-.67-.49-.67-.91V5.5c0-.3.15-.59.39-.77.25-.18.56-.23.85-.14l18.92,5.9c.4.12.67.49.67.91v44.27c0,.3-.15.59-.39.77-.16.12-.37.19-.57.19ZM20.39,5.29s-.09.01-.12.04c-.05.04-.08.1-.08.17v44.27c0,.09.06.17.14.2l18.98,5.91s.09-.01.12-.04c.05-.04.08-.1.08-.17V11.4c0-.09-.06-.17-.14-.2l-18.92-5.9s-.04,0-.06,0Zm18.72,50.1l-18.51-5.77V5.78l18.51,5.78v43.84Zm-17.76-6.33l17.01,5.31V12.1l-17.01-5.31v42.27Z"/>
  </g>
  <g>
    <path class="cls-1" d="m35.04,35.41c-1.36,0-2.46-1.1-2.46-2.46s1.1-2.46,2.46-2.46,2.46,1.1,2.46,2.46-1.1,2.46-2.46,2.46Zm0-3.76c-.72,0-1.3.58-1.3,1.3s.58,1.3,1.3,1.3,1.3-.58,1.3-1.3-.58-1.3-1.3-1.3Z"/>
    <path class="cls-1" d="m35.04,35.54c-1.43,0-2.59-1.16-2.59-2.59s1.16-2.59,2.59-2.59,2.59,1.16,2.59,2.59-1.16,2.59-2.59,2.59Zm0-4.92c-1.29,0-2.34,1.05-2.34,2.34s1.05,2.34,2.34,2.34,2.34-1.05,2.34-2.34-1.05-2.34-2.34-2.34Zm0,3.76c-.79,0-1.42-.64-1.42-1.43s.64-1.43,1.42-1.43,1.43.64,1.43,1.43-.64,1.43-1.43,1.43Zm0-2.6c-.65,0-1.17.53-1.17,1.18s.53,1.18,1.17,1.18,1.18-.53,1.18-1.18-.53-1.18-1.18-1.18Z"/>
  </g>
</svg>