<?xml version="1.0" encoding="UTF-8"?>
<svg id="Layer_1" data-name="Layer 1" xmlns="http://www.w3.org/2000/svg" viewBox="0 0 60 60">
  <defs>
    <style>
      .cls-1 {
        fill: #37464c;
        stroke-width: 0px;
      }
    </style>
  </defs>
  <g>
    <path class="cls-1" d="m52.03,57.62H9.94c-.34,0-.61-.27-.61-.61V3.95c0-.34.27-.61.61-.61h42.09c.34,0,.61.27.61.61v53.05c0,.34-.28.61-.61.61Zm-41.48-1.23h40.86V4.57H10.55v51.83Zm38.12-1.76h-15.74c-.34,0-.61-.27-.61-.61V7.65c0-.34.27-.61.61-.61h15.74c.34,0,.61.27.61.61v46.37c0,.34-.27.61-.61.61Zm-15.13-1.23h14.51V8.26h-14.51v45.14Zm-4.5,1.23h-15.74c-.34,0-.61-.27-.61-.61V7.65c0-.34.27-.61.61-.61h15.74c.34,0,.61.27.61.61v46.37c0,.34-.27.61-.61.61Zm-15.13-1.23h14.51V8.26h-14.51v45.14Z"/>
    <path class="cls-1" d="m52.03,58H9.94c-.55,0-.99-.44-.99-.99V3.95c0-.54.44-.99.99-.99h42.09c.55,0,.99.44.99.99v53.05c0,.55-.44.99-.99.99ZM9.94,3.71c-.13,0-.24.11-.24.24v53.05c0,.13.11.24.24.24h42.09c.13,0,.24-.11.24-.24V3.95c0-.13-.11-.24-.24-.24H9.94Zm41.85,53.05H10.18V4.19h41.61v52.58Zm-40.86-.75h40.11V4.94H10.93v51.08Zm37.74-1.01h-15.74c-.55,0-.99-.44-.99-.99V7.65c0-.55.44-.99.99-.99h15.74c.55,0,.99.44.99.99v46.37c0,.55-.44.99-.99.99ZM32.93,7.41c-.13,0-.24.11-.24.24v46.37c0,.13.11.24.24.24h15.74c.13,0,.24-.11.24-.24V7.65c0-.13-.11-.24-.24-.24h-15.74Zm-3.89,47.59h-15.74c-.55,0-.99-.44-.99-.99V7.65c0-.55.44-.99.99-.99h15.74c.55,0,.99.44.99.99v46.37c0,.55-.44.99-.99.99ZM13.3,7.41c-.13,0-.24.11-.24.24v46.37c0,.13.11.24.24.24h15.74c.13,0,.24-.11.24-.24V7.65c0-.13-.11-.24-.24-.24h-15.74Zm35.13,46.37h-15.26V7.89h15.26v45.89Zm-14.51-.75h13.76V8.64h-13.76v44.39Zm-5.12.75h-15.26V7.89h15.26v45.89Zm-14.51-.75h13.76V8.64h-13.76v44.39Z"/>
  </g>
  <g>
    <path class="cls-1" d="m37.62,31.09h-6.28c-.34,0-.61-.27-.61-.61s.27-.61.61-.61h6.28c.34,0,.61.27.61.61s-.27.61-.61.61Z"/>
    <path class="cls-1" d="m37.62,31.47h-6.28c-.55,0-.99-.44-.99-.99s.44-.99.99-.99h6.28c.55,0,.99.44.99.99s-.44.99-.99.99Zm-6.28-1.23c-.13,0-.24.11-.24.24s.11.24.24.24h6.28c.13,0,.24-.11.24-.24s-.11-.24-.24-.24h-6.28Z"/>
  </g>
</svg>