<?xml version="1.0" encoding="UTF-8"?>
<svg id="Layer_1" data-name="Layer 1" xmlns="http://www.w3.org/2000/svg" viewBox="0 0 60 60">
  <defs>
    <style>
      .cls-1 {
        fill: #37464c;
        stroke-width: 0px;
      }
    </style>
  </defs>
  <g>
    <path class="cls-1" d="m29.73,55.28c-6.82,0-13.24-2.66-18.07-7.49C1.7,37.83,1.7,21.62,11.66,11.65c4.83-4.83,11.24-7.49,18.07-7.49s13.24,2.66,18.07,7.49c9.96,9.96,9.96,26.18,0,36.14h0c-4.83,4.83-11.24,7.49-18.07,7.49Zm0-49.59c-6.42,0-12.45,2.5-16.99,7.04-9.37,9.37-9.37,24.61,0,33.98,4.54,4.54,10.57,7.04,16.99,7.04s12.45-2.5,16.99-7.04c9.37-9.37,9.37-24.61,0-33.98-4.54-4.54-10.57-7.04-16.99-7.04Zm17.53,41.56h0,0Z"/>
    <path class="cls-1" d="m29.73,55.66c-6.92,0-13.43-2.7-18.33-7.59C1.29,37.95,1.29,21.5,11.4,11.39c4.9-4.9,11.41-7.6,18.33-7.6s13.44,2.7,18.33,7.6c10.11,10.11,10.11,26.56,0,36.67-4.9,4.9-11.41,7.6-18.33,7.6Zm0-51.11c-6.72,0-13.05,2.62-17.8,7.38-9.82,9.82-9.82,25.79,0,35.61,4.75,4.76,11.08,7.38,17.8,7.38s13.05-2.62,17.8-7.38c9.82-9.82,9.82-25.79,0-35.61-4.75-4.76-11.08-7.38-17.8-7.38Zm0,49.59c-6.52,0-12.64-2.54-17.25-7.15-9.51-9.52-9.51-25,0-34.51,4.61-4.61,10.74-7.15,17.25-7.15s12.64,2.54,17.25,7.15c9.51,9.51,9.51,25,0,34.51-4.61,4.61-10.74,7.15-17.25,7.15Zm0-48.06c-6.32,0-12.25,2.46-16.72,6.93-9.22,9.22-9.22,24.23,0,33.45,4.47,4.47,10.41,6.93,16.72,6.93s12.26-2.46,16.72-6.93c9.22-9.22,9.22-24.23,0-33.45-4.47-4.47-10.4-6.93-16.72-6.93Zm17.53,41.56v-.75s0,0,0,0v.75Z"/>
  </g>
  <g>
    <g>
      <path class="cls-1" d="m22.54,37.43c-.32,0-.61-.2-.72-.5-.1-.28-2.42-6.87,1.29-12.16,2.88-4.1,8.51-6.18,16.74-6.18.34,0,.64.22.73.55.08.28,1.99,7.03-1.97,12.32-2.97,3.97-8.38,5.98-16.07,5.98Zm16.71-17.32c-7.37.1-12.37,1.95-14.88,5.52-2.71,3.85-1.7,8.71-1.27,10.27,6.88-.09,11.68-1.89,14.28-5.35,2.9-3.86,2.21-8.8,1.87-10.43Z"/>
      <path class="cls-1" d="m22.54,37.8c-.48,0-.91-.3-1.07-.75-.1-.29-2.49-7.06,1.34-12.51,2.95-4.21,8.69-6.34,17.05-6.34.5,0,.95.34,1.09.82.09.29,2.04,7.21-2.03,12.65-3.04,4.07-8.55,6.13-16.37,6.13Zm17.32-18.85c-8.1,0-13.63,2.03-16.44,6.02-3.6,5.13-1.34,11.55-1.24,11.82.06.15.2.26.37.26,7.57,0,12.88-1.96,15.77-5.83,3.85-5.14,2-11.71,1.91-11.99-.05-.16-.2-.28-.37-.28Zm-17.04,17.32l-.08-.28c-.4-1.47-1.5-6.57,1.32-10.58,2.58-3.67,7.69-5.58,15.18-5.68h.31s.06.3.06.3c.31,1.5,1.09,6.7-1.94,10.74-2.67,3.56-7.58,5.41-14.58,5.5h-.29Zm16.13-15.79c-7.07.14-11.87,1.94-14.27,5.35-2.48,3.53-1.7,8-1.29,9.67,6.6-.14,11.21-1.88,13.69-5.2,2.66-3.55,2.17-8.1,1.86-9.83Z"/>
    </g>
    <g>
      <path class="cls-1" d="m19.11,40.87c-.2,0-.39-.07-.54-.22-.3-.3-.3-.78,0-1.08l13.33-13.33c.3-.3.78-.3,1.08,0,.3.3.3.78,0,1.08l-13.33,13.33c-.15.15-.34.22-.54.22Z"/>
      <path class="cls-1" d="m19.11,41.24c-.3,0-.59-.12-.8-.33-.44-.45-.44-1.17,0-1.61l13.33-13.33c.21-.21.5-.33.8-.33h0c.3,0,.59.12.81.33.21.21.33.5.33.8,0,.3-.12.59-.33.81l-13.33,13.33c-.22.22-.5.33-.81.33Zm13.33-14.86h0c-.1,0-.2.04-.27.11l-13.33,13.33c-.15.15-.15.4,0,.55.15.14.4.15.55,0l13.33-13.33c.07-.07.11-.17.11-.27s-.04-.2-.11-.27-.17-.11-.28-.11Z"/>
    </g>
  </g>
</svg>