<?xml version="1.0" encoding="UTF-8"?>
<svg id="Layer_1" data-name="Layer 1" xmlns="http://www.w3.org/2000/svg" viewBox="0 0 60 60">
  <defs>
    <style>
      .cls-1 {
        fill: #37464c;
        stroke-width: 0px;
      }
    </style>
  </defs>
  <g>
    <g>
      <path class="cls-1" d="m29.47,56.06c-13.89,0-25.18-11.3-25.18-25.18S15.59,5.69,29.47,5.69s25.18,11.3,25.18,25.18-11.3,25.18-25.18,25.18Zm0-49.21c-13.25,0-24.03,10.78-24.03,24.03s10.78,24.03,24.03,24.03,24.03-10.78,24.03-24.03S42.72,6.84,29.47,6.84Z"/>
      <path class="cls-1" d="m29.47,56.43c-14.09,0-25.56-11.46-25.56-25.56S15.38,5.32,29.47,5.32s25.56,11.46,25.56,25.56-11.46,25.56-25.56,25.56Zm0-50.36c-13.68,0-24.81,11.13-24.81,24.81s11.13,24.81,24.81,24.81,24.81-11.13,24.81-24.81S43.15,6.07,29.47,6.07Zm0,49.21c-13.46,0-24.41-10.95-24.41-24.41S16.01,6.47,29.47,6.47s24.41,10.95,24.41,24.41-10.95,24.41-24.41,24.41Zm0-48.06c-13.04,0-23.66,10.61-23.66,23.66s10.61,23.66,23.66,23.66,23.66-10.61,23.66-23.66S42.51,7.22,29.47,7.22Z"/>
    </g>
    <g>
      <path class="cls-1" d="m29.47,55.61c-.08,0-.16-.02-.23-.05-9.51-4.23-15.41-13.68-15.41-24.68,0-5.44,1.46-10.66,4.22-15.11,2.68-4.32,6.47-7.72,10.94-9.82.29-.14.63-.01.77.28.14.29.01.63-.28.77-4.27,2.01-7.88,5.25-10.45,9.38-2.65,4.26-4.04,9.27-4.04,14.5,0,10.54,5.64,19.59,14.73,23.63.29.13.42.47.29.76-.1.21-.31.34-.53.34Z"/>
      <path class="cls-1" d="m29.47,55.98c-.14,0-.27-.03-.39-.08-9.64-4.29-15.63-13.88-15.63-25.02,0-5.51,1.48-10.8,4.27-15.3,2.72-4.38,6.56-7.83,11.1-9.96.47-.22,1.04-.02,1.26.46.11.23.12.49.03.73s-.26.43-.49.54c-4.2,1.97-7.76,5.17-10.29,9.24-2.61,4.2-3.99,9.14-3.99,14.3,0,10.39,5.56,19.31,14.51,23.29.48.21.7.78.48,1.25-.15.34-.49.56-.87.56Zm-.25-49.71s-.06,0-.08.02c-4.41,2.07-8.13,5.42-10.78,9.68-2.72,4.38-4.16,9.54-4.16,14.91,0,10.85,5.82,20.17,15.19,24.34l.08.02c.08,0,.15-.05.18-.12.02-.05.02-.1,0-.15s-.06-.09-.11-.11c-9.22-4.1-14.95-13.29-14.95-23.97,0-5.29,1.42-10.38,4.1-14.7,2.6-4.19,6.27-7.49,10.61-9.52.05-.02.08-.06.1-.11.02-.05.02-.11,0-.15-.02-.05-.06-.09-.11-.1-.02,0-.04-.01-.07-.01Z"/>
    </g>
    <g>
      <path class="cls-1" d="m40.94,17.53c-.2,0-.39-.1-.5-.28-2.65-4.5-6.63-8.17-11.22-10.31-.29-.13-.41-.48-.28-.77.13-.29.48-.41.77-.28,4.79,2.25,8.96,6.07,11.72,10.77.16.27.07.63-.2.79-.09.05-.19.08-.29.08Z"/>
      <path class="cls-1" d="m40.94,17.91c-.33,0-.65-.18-.82-.47-2.61-4.44-6.53-8.05-11.05-10.17-.23-.11-.4-.3-.49-.54-.09-.24-.07-.5.03-.73.22-.48.79-.68,1.26-.46,4.86,2.28,9.08,6.16,11.88,10.92.27.45.11,1.04-.34,1.3-.15.09-.31.13-.48.13Zm-11.47-11.7s-.05,0-.07.01c-.05.02-.09.05-.11.1-.02.05-.03.1,0,.15.02.05.05.09.1.11,4.65,2.18,8.7,5.9,11.38,10.46.05.09.18.13.28.07.09-.06.13-.18.07-.28-2.73-4.64-6.83-8.41-11.56-10.62-.03-.01-.06-.02-.08-.02Z"/>
    </g>
    <g>
      <path class="cls-1" d="m29.47,26.25c-.32,0-.58-.26-.58-.58V6.93c0-.32.26-.58.58-.58s.58.26.58.58v18.75c0,.32-.26.58-.58.58Z"/>
      <path class="cls-1" d="m29.47,26.62c-.52,0-.95-.43-.95-.95V6.93c0-.52.43-.95.95-.95s.95.43.95.95v18.75c0,.52-.43.95-.95.95Zm0-19.9c-.11,0-.2.09-.2.2v18.75c0,.22.4.22.4,0V6.93c0-.11-.09-.2-.2-.2Z"/>
    </g>
    <g>
      <path class="cls-1" d="m48.34,46.81c-.09,0-.18-.02-.26-.06-.48-.25-.97-.49-1.46-.72-.29-.13-.41-.48-.28-.76.13-.29.47-.41.76-.28.51.23,1.02.48,1.51.74.28.15.39.49.25.78-.1.2-.3.31-.51.31Z"/>
      <path class="cls-1" d="m48.34,47.18c-.15,0-.3-.04-.44-.11-.47-.25-.96-.48-1.45-.71-.47-.22-.68-.79-.46-1.26.22-.48.79-.69,1.26-.46.51.24,1.03.49,1.53.75.23.12.39.31.47.56.08.24.05.5-.06.72-.17.32-.49.51-.84.51Zm-1.49-1.88c-.08,0-.15.04-.18.12-.05.1,0,.22.1.27.5.23.99.47,1.48.72.08.04.21.04.27-.09.02-.05.03-.1.01-.15-.02-.05-.05-.09-.1-.12-.49-.25-.99-.5-1.49-.73-.03-.01-.06-.02-.08-.02Z"/>
    </g>
    <g>
      <path class="cls-1" d="m10.6,46.81c-.21,0-.41-.11-.51-.31-.15-.28-.04-.63.25-.78,3.24-1.68,6.81-2.92,10.58-3.66.31-.06.61.14.68.45.06.31-.14.61-.45.68-3.67.73-7.13,1.92-10.28,3.56-.08.04-.18.06-.26.06Z"/>
      <path class="cls-1" d="m10.6,47.18c-.36,0-.68-.2-.84-.51-.12-.23-.14-.48-.06-.73.08-.24.24-.44.47-.56,3.28-1.7,6.87-2.94,10.68-3.7.25-.05.5,0,.71.14.21.14.35.36.4.61.05.25,0,.5-.14.71-.14.21-.36.35-.61.4-3.63.72-7.06,1.9-10.17,3.52-.13.07-.29.11-.44.11Zm10.43-4.76s-.03,0-.04,0c-3.74.74-7.27,1.96-10.48,3.63-.05.02-.08.07-.1.12-.02.05-.01.11.01.15.06.12.19.13.27.08,3.18-1.65,6.67-2.86,10.38-3.59.05,0,.1-.04.13-.08.03-.04.04-.1.03-.15,0-.05-.04-.1-.08-.13-.03-.02-.07-.03-.11-.03Z"/>
    </g>
    <g>
      <path class="cls-1" d="m29.47,20.02c-6.72,0-13.03-1.5-18.77-4.47-.28-.15-.39-.49-.25-.78.15-.28.49-.39.78-.25,5.57,2.88,11.71,4.34,18.24,4.34,2.11,0,4.23-.15,6.29-.46.31-.05.61.17.65.49.05.31-.17.61-.49.65-2.11.31-4.29.47-6.46.47Z"/>
      <path class="cls-1" d="m29.47,20.39c-6.78,0-13.15-1.52-18.94-4.51-.23-.12-.39-.31-.47-.56-.08-.24-.05-.5.06-.72s.31-.39.56-.47c.24-.08.5-.05.72.06,5.52,2.85,11.59,4.3,18.07,4.3,2.09,0,4.19-.15,6.23-.45.25-.04.5.03.71.18.21.15.34.37.37.62.08.52-.28,1-.8,1.08-2.13.31-4.32.47-6.51.47Zm-18.5-5.56s-.04,0-.06,0c-.05.02-.09.05-.12.1-.02.05-.03.1-.01.15.02.05.05.09.1.12,5.68,2.94,11.94,4.43,18.59,4.43,2.15,0,4.31-.16,6.4-.46.11-.02.18-.12.17-.23,0-.05-.04-.1-.08-.13-.04-.03-.09-.05-.15-.04-2.08.3-4.21.46-6.34.46-6.59,0-12.79-1.48-18.41-4.38-.03-.01-.06-.02-.09-.02Z"/>
    </g>
    <g>
      <path class="cls-1" d="m42.88,17.89c-.24,0-.47-.15-.55-.39-.1-.3.06-.63.36-.73,1.69-.56,3.33-1.24,4.88-2.01.28-.14.63-.03.77.26.14.28.03.63-.26.77-1.59.8-3.29,1.49-5.03,2.07-.06.02-.12.03-.18.03Z"/>
      <path class="cls-1" d="m42.88,18.27c-.41,0-.77-.26-.9-.65-.08-.24-.06-.5.05-.73.11-.23.31-.4.55-.48,1.67-.56,3.3-1.23,4.83-1.99.47-.23,1.04-.04,1.28.43.23.47.04,1.04-.42,1.28-1.62.81-3.33,1.51-5.08,2.09-.09.03-.2.05-.3.05Zm4.95-3.19s-.06,0-.09.02c-1.56.78-3.22,1.46-4.93,2.03-.1.04-.16.15-.13.25.03.1.15.16.25.13,1.72-.57,3.4-1.26,4.98-2.05.1-.05.14-.17.09-.27-.04-.07-.11-.11-.18-.11Z"/>
    </g>
    <g>
      <path class="cls-1" d="m53.75,31.45h-5.6c-.32,0-.58-.26-.58-.58s.26-.58.58-.58h5.6c.32,0,.58.26.58.58s-.26.58-.58.58Z"/>
      <path class="cls-1" d="m53.75,31.83h-5.6c-.52,0-.95-.43-.95-.95s.43-.95.95-.95h5.6c.52,0,.95.43.95.95s-.43.95-.95.95Zm-5.6-1.15c-.11,0-.2.09-.2.2s.09.2.2.2h5.6c.11,0,.2-.09.2-.2s-.09-.2-.2-.2h-5.6Z"/>
    </g>
    <g>
      <path class="cls-1" d="m25.6,31.45H5.19c-.32,0-.58-.26-.58-.58s.26-.58.58-.58h20.41c.32,0,.58.26.58.58s-.26.58-.58.58Z"/>
      <path class="cls-1" d="m25.6,31.83H5.19c-.52,0-.95-.43-.95-.95s.43-.95.95-.95h20.41c.52,0,.95.43.95.95s-.43.95-.95.95Zm-20.41-1.15c-.11,0-.2.09-.2.2s.09.2.2.2h20.41c.11,0,.2-.09.2-.2s-.09-.2-.2-.2H5.19Z"/>
    </g>
  </g>
  <g>
    <g>
      <path class="cls-1" d="m33.74,55c-2.03,0-4.08-.47-6-1.47-6.39-3.32-8.89-11.22-5.57-17.61,1.69-3.26,5.24-8.67,9.04-12.83,4.93-5.41,8.92-7.38,11.85-5.86,4.1,2.13,4.74,10.76,4.82,14.37.15,6.48-.89,13.21-2.53,16.36h0c-2.32,4.47-6.89,7.04-11.61,7.04Zm7.25-37.11c-2.83,0-6.31,3.11-8.93,5.98-3.73,4.09-7.21,9.39-8.87,12.59-3.03,5.83-.75,13.03,5.08,16.05,5.83,3.03,13.03.75,16.05-5.08,1.53-2.95,2.54-9.59,2.4-15.8-.16-7.09-1.73-12.09-4.2-13.38-.48-.25-1-.36-1.54-.36Zm3.85,29.81h0,0Z"/>
      <path class="cls-1" d="m33.74,55.37c-2.16,0-4.24-.51-6.17-1.51-6.57-3.41-9.14-11.54-5.73-18.11,1.7-3.28,5.28-8.72,9.09-12.91,5.06-5.55,9.19-7.56,12.3-5.94,4.28,2.22,4.94,11.02,5.02,14.7.15,6.54-.91,13.34-2.57,16.54-2.32,4.47-6.9,7.24-11.94,7.24Zm7.24-38.27c-2.53,0-5.71,2.09-9.49,6.24-3.77,4.14-7.3,9.51-8.98,12.75-1.56,3-1.85,6.44-.83,9.67,1.02,3.23,3.24,5.87,6.24,7.43,1.82.95,3.78,1.43,5.82,1.43,4.77,0,9.09-2.62,11.28-6.84,1.61-3.1,2.63-9.75,2.49-16.18-.08-3.54-.69-12.01-4.62-14.05-.59-.31-1.22-.46-1.91-.46Zm-7.24,37.12c-1.9,0-3.84-.44-5.64-1.38-6.01-3.12-8.36-10.55-5.24-16.56,1.67-3.22,5.17-8.55,8.92-12.67,4.63-5.08,8.37-7.02,10.92-5.69,2.59,1.35,4.24,6.47,4.4,13.7.14,6.26-.88,12.99-2.44,15.98-2.18,4.21-6.48,6.62-10.92,6.62Zm7.25-35.96c-2.17,0-5.16,2.03-8.65,5.86-3.7,4.07-7.16,9.33-8.81,12.51-1.42,2.73-1.69,5.85-.76,8.79.93,2.94,2.95,5.34,5.67,6.76,5.64,2.93,12.62.72,15.55-4.92,1.51-2.9,2.5-9.47,2.36-15.62-.16-6.85-1.69-11.85-4-13.05-.41-.21-.87-.32-1.37-.32Zm3.85,29.81v-.75s0,0,0,0v.75Z"/>
    </g>
    <g>
      <path class="cls-1" d="m30.21,55.25c-.11,0-.22-.03-.32-.1-.26-.18-.34-.53-.16-.8h0s3.05-4.75,7.24-20.26c.08-.31.4-.49.71-.41.31.08.49.4.41.71-4.26,15.76-7.27,20.41-7.39,20.6-.11.17-.29.26-.48.26Z"/>
      <path class="cls-1" d="m30.21,55.63c-.19,0-.37-.05-.52-.16-.44-.29-.56-.88-.27-1.32.03-.04,3.04-4.8,7.19-20.16.07-.25.22-.45.45-.58s.48-.16.72-.09c.5.14.81.66.67,1.17-4.27,15.8-7.32,20.51-7.44,20.71-.18.27-.47.43-.79.43Zm7.32-21.58s-.08.02-.1.03c-.03.02-.08.05-.09.12-4.22,15.6-7.26,20.33-7.29,20.37-.06.09-.04.22.06.28.09.06.22.03.28-.06.12-.19,3.11-4.8,7.34-20.49.03-.11-.03-.22-.14-.25-.02,0-.04,0-.05,0Z"/>
    </g>
    <g>
      <path class="cls-1" d="m32.86,49.5c-.18,0-.36-.08-.47-.24-.18-.26-.12-.62.14-.8l8.08-5.74c.26-.18.62-.12.8.14.18.26.12.62-.14.8l-8.08,5.74c-.1.07-.22.11-.33.11Z"/>
      <path class="cls-1" d="m32.86,49.88c-.31,0-.6-.15-.78-.4-.3-.43-.2-1.02.22-1.33l8.08-5.74c.43-.3,1.02-.2,1.32.22.3.43.2,1.02-.22,1.33l-8.08,5.74c-.16.12-.35.18-.55.18Zm8.08-6.89s-.08.01-.12.04l-8.08,5.74c-.09.06-.11.19-.05.28.06.09.19.11.28.05l8.08-5.74s.07-.08.08-.13c0-.05,0-.11-.04-.15-.03-.04-.08-.07-.13-.08-.01,0-.02,0-.03,0Z"/>
    </g>
    <g>
      <path class="cls-1" d="m35.21,42.79c-.23,0-.45-.14-.54-.38l-2.35-6.34c-.11-.3.04-.63.34-.74.3-.11.63.04.74.34l2.35,6.34c.11.3-.04.63-.34.74-.07.02-.13.04-.2.04Z"/>
      <path class="cls-1" d="m35.21,43.16c-.4,0-.75-.25-.89-.62l-2.35-6.34c-.18-.49.07-1.04.56-1.22.24-.09.5-.08.73.03.23.11.41.3.49.53l2.35,6.34c.18.49-.07,1.04-.56,1.22-.11.04-.22.06-.33.06Zm-2.35-7.49s-.05,0-.07.01c-.1.04-.16.15-.12.26l2.35,6.34c.04.1.15.15.26.12.1-.04.16-.15.12-.26l-2.35-6.34s-.06-.09-.1-.11c-.03-.01-.05-.02-.08-.02Z"/>
    </g>
  </g>
</svg>