<?xml version="1.0" encoding="UTF-8"?>
<svg id="Layer_1" data-name="Layer 1" xmlns="http://www.w3.org/2000/svg" viewBox="0 0 60 60">
  <defs>
    <style>
      .cls-1 {
        fill: #37464c;
        stroke-width: 0px;
      }
    </style>
  </defs>
  <g>
    <g>
      <path class="cls-1" d="m36.79,42.59h-14.38c-.27,0-.49-.21-.52-.47l-.75-8.88c-.01-.14.04-.29.13-.39.04-.04.09-.08.14-.11-3.62-2.61-5.82-6.82-5.82-11.36,0-7.72,6.28-13.99,13.99-13.99s13.99,6.28,13.99,13.99c0,4.53-2.19,8.74-5.82,11.36.05.03.1.06.14.11.1.11.15.25.13.39l-.75,8.88c-.02.27-.25.47-.52.47Zm-13.9-1.03h13.43l.66-7.85h-.89c-.24,0-.44-.16-.5-.39-.06-.23.04-.47.25-.58,4.15-2.28,6.72-6.64,6.72-11.36,0-7.15-5.81-12.96-12.96-12.96s-12.96,5.81-12.96,12.96c0,4.73,2.58,9.08,6.72,11.36.21.11.31.35.25.58-.06.23-.26.39-.5.39h-.89l.66,7.85Z"/>
      <path class="cls-1" d="m36.79,42.96h-14.38c-.47,0-.85-.35-.89-.81l-.75-8.88c-.01-.17.02-.33.09-.48-3.54-2.71-5.63-6.94-5.63-11.41,0-7.92,6.45-14.37,14.37-14.37s14.37,6.45,14.37,14.37c0,4.47-2.1,8.7-5.63,11.41.08.15.11.32.09.48l-.75,8.88c-.04.46-.43.82-.89.82ZM29.6,7.75c-7.51,0-13.62,6.11-13.62,13.62,0,4.37,2.12,8.5,5.66,11.05l.49.36-.54.28c-.07.06-.08.1-.08.14l.75,8.88c0,.07.07.13.14.13h14.38c.07,0,.14-.06.14-.13l.75-8.88s0-.08-.04-.11l-.54-.28.46-.38c3.54-2.55,5.66-6.69,5.66-11.05,0-7.51-6.11-13.62-13.62-13.62Zm7.06,34.17h-14.11l-.73-8.6h1.3c.07,0,.12-.04.14-.11.02-.06-.01-.13-.07-.16-4.27-2.35-6.92-6.83-6.92-11.69,0-7.35,5.98-13.33,13.33-13.33s13.33,5.98,13.33,13.33c0,4.86-2.65,9.34-6.92,11.69-.06.03-.08.1-.07.16.02.06.07.11.14.11h1.3l-.73,8.6Zm-13.42-.75h12.74l.6-7.1h-.48c-.41,0-.76-.28-.86-.67-.1-.4.08-.81.43-1,4.03-2.22,6.53-6.44,6.53-11.03,0-6.94-5.65-12.58-12.58-12.58s-12.58,5.65-12.58,12.58c0,4.59,2.5,8.82,6.53,11.03.36.19.54.61.43,1-.1.39-.46.67-.86.67h-.48l.6,7.1Z"/>
    </g>
    <g>
      <g>
        <path class="cls-1" d="m35.71,46.1h-12.21c-.29,0-.52-.23-.52-.52s.23-.52.52-.52h12.21c.29,0,.52.23.52.52s-.23.52-.52.52Z"/>
        <path class="cls-1" d="m35.71,46.47h-12.21c-.49,0-.89-.4-.89-.89s.4-.89.89-.89h12.21c.49,0,.89.4.89.89s-.4.89-.89.89Zm-12.21-1.03c-.08,0-.14.06-.14.14s.06.14.14.14h12.21c.08,0,.14-.06.14-.14s-.06-.14-.14-.14h-12.21Z"/>
      </g>
      <g>
        <path class="cls-1" d="m34.63,49.42h-10.07c-.29,0-.52-.23-.52-.52s.23-.52.52-.52h10.07c.29,0,.52.23.52.52s-.23.52-.52.52Z"/>
        <path class="cls-1" d="m34.63,49.8h-10.07c-.49,0-.89-.4-.89-.89s.4-.89.89-.89h10.07c.49,0,.89.4.89.89s-.4.89-.89.89Zm-10.07-1.03c-.08,0-.14.06-.14.14s.06.14.14.14h10.07c.08,0,.14-.06.14-.14s-.06-.14-.14-.14h-10.07Z"/>
      </g>
      <g>
        <path class="cls-1" d="m32.44,52.62h-5.68c-.29,0-.52-.23-.52-.52s.23-.52.52-.52h5.68c.29,0,.52.23.52.52s-.23.52-.52.52Z"/>
        <path class="cls-1" d="m32.44,53h-5.68c-.49,0-.89-.4-.89-.89s.4-.89.89-.89h5.68c.49,0,.89.4.89.89s-.4.89-.89.89Zm-5.68-1.03c-.08,0-.14.06-.14.14s.06.14.14.14h5.68c.08,0,.14-.06.14-.14s-.06-.14-.14-.14h-5.68Z"/>
      </g>
    </g>
  </g>
  <g>
    <g>
      <path class="cls-1" d="m25.56,26.33c-.22,0-.41-.14-.49-.34-.06-.16-1.38-3.91.74-6.92,1.64-2.33,4.83-3.51,9.49-3.51.23,0,.43.15.5.37.05.16,1.13,3.99-1.12,7.01-1.69,2.25-4.75,3.4-9.11,3.4Zm9.33-9.74c-4.08.06-6.84,1.09-8.23,3.06-1.47,2.08-.96,4.71-.72,5.64,3.81-.06,6.47-1.06,7.9-2.98,1.57-2.1,1.24-4.75,1.05-5.72Z"/>
      <path class="cls-1" d="m25.56,26.7c-.37,0-.71-.24-.84-.59-.06-.17-1.45-4.08.78-7.26,1.71-2.44,5.01-3.67,9.8-3.67.4,0,.75.26.86.64.05.17,1.2,4.16-1.18,7.33-1.76,2.35-4.93,3.55-9.41,3.55Zm9.74-10.77c-4.53,0-7.62,1.13-9.18,3.35-2.01,2.86-.75,6.43-.69,6.58.02.06.07.09.13.09,4.23,0,7.2-1.09,8.81-3.25,2.16-2.88,1.11-6.52,1.06-6.67-.02-.06-.07-.1-.14-.1Zm-9.64,9.74l-.08-.28c-.28-1.06-.77-3.76.77-5.95,1.46-2.07,4.33-3.16,8.53-3.22h.31s.06.3.06.3c.21,1.08.54,3.81-1.11,6.02-1.51,2.01-4.27,3.07-8.2,3.13h-.29Zm8.92-8.7c-3.77.11-6.33,1.08-7.61,2.9-1.24,1.76-.98,3.94-.73,5.04,3.53-.11,5.99-1.05,7.31-2.82,1.33-1.78,1.21-3.99,1.03-5.11Z"/>
    </g>
    <g>
      <path class="cls-1" d="m23.62,28.26c-.13,0-.26-.05-.37-.15-.2-.2-.2-.53,0-.73l7.5-7.5c.2-.2.53-.2.73,0,.2.2.2.53,0,.73l-7.5,7.5c-.1.1-.23.15-.37.15Z"/>
      <path class="cls-1" d="m23.62,28.64c-.24,0-.46-.09-.63-.26-.17-.17-.26-.39-.26-.63,0-.24.09-.46.26-.63l7.5-7.5c.35-.34.91-.35,1.26,0,.35.35.35.91,0,1.26l-7.5,7.5c-.17.17-.39.26-.63.26Zm7.5-8.53s-.07.01-.1.04l-7.5,7.5s-.04.08-.04.1,0,.06.04.1c.08.09.14.06.2,0l7.5-7.5c.06-.05.06-.15,0-.2-.03-.03-.06-.04-.1-.04Z"/>
    </g>
  </g>
</svg>