<?xml version="1.0" encoding="UTF-8"?>
<svg id="Layer_1" data-name="Layer 1" xmlns="http://www.w3.org/2000/svg" viewBox="0 0 60 60">
  <defs>
    <style>
      .cls-1 {
        fill: #37464c;
        stroke-width: 0px;
      }
    </style>
  </defs>
  <g>
    <g>
      <path class="cls-1" d="m24.39,37.96c-.24,0-.46-.15-.54-.38-.09-.24-2.12-6.01,1.12-10.63,2.52-3.6,7.48-5.42,14.73-5.42.26,0,.48.17.55.41.07.25,1.75,6.14-1.72,10.78-2.61,3.48-7.36,5.24-14.14,5.24Zm14.85-15.28c-6.6.07-11.08,1.73-13.32,4.92-2.45,3.49-1.48,7.89-1.11,9.2,6.16-.07,10.46-1.67,12.78-4.77,2.63-3.5,1.94-7.98,1.64-9.35Z"/>
      <path class="cls-1" d="m24.39,38.34c-.4,0-.76-.25-.89-.63-.09-.25-2.2-6.17,1.17-10.97,2.6-3.7,7.65-5.58,15.03-5.58.42,0,.8.28.91.68.08.25,1.81,6.31-1.78,11.11-2.68,3.58-7.54,5.39-14.44,5.39Zm15.31-16.43c-7.12,0-11.97,1.77-14.42,5.26-3.14,4.48-1.16,10.05-1.08,10.29.03.08.1.13.19.13,6.65,0,11.31-1.71,13.84-5.09,3.36-4.5,1.73-10.2,1.66-10.44-.03-.09-.1-.15-.2-.15Zm-15.16,15.28l-.08-.28c-.37-1.31-1.39-5.89,1.16-9.52,2.32-3.3,6.9-5.01,13.62-5.08h.31s.06.3.06.3c.29,1.34,1.02,6.01-1.71,9.65-2.4,3.19-6.8,4.85-13.08,4.92h-.29Zm14.4-14.12c-6.3.12-10.57,1.72-12.71,4.75-2.21,3.14-1.51,7.1-1.13,8.6,5.88-.11,9.98-1.67,12.2-4.62,2.37-3.16,1.93-7.19,1.64-8.74Z"/>
    </g>
    <g>
      <path class="cls-1" d="m21.35,40.99c-.15,0-.3-.06-.41-.17-.23-.23-.22-.59,0-.82l11.78-11.76c.23-.23.59-.23.82,0,.23.23.23.59,0,.82l-11.78,11.76c-.11.11-.26.17-.41.17Z"/>
      <path class="cls-1" d="m21.35,41.37c-.26,0-.5-.1-.67-.28-.37-.37-.37-.97,0-1.34l11.78-11.76c.37-.37.97-.37,1.35,0,.37.37.37.98,0,1.35l-11.78,11.76c-.18.18-.42.28-.67.28Zm11.78-12.91c-.05,0-.1.02-.14.06l-11.78,11.76c-.08.08-.08.21,0,.29.14.14.23.06.29,0l11.78-11.76c.08-.08.08-.21,0-.29-.04-.04-.09-.06-.14-.06Z"/>
    </g>
  </g>
  <g>
    <g>
      <path class="cls-1" d="m40.6,55.9h-22.86c-3.08,0-5.59-2.51-5.59-5.59V10.97c0-3.08,2.51-5.59,5.59-5.59h22.86c5.42,0,9.83,4.41,9.83,9.83v30.86c0,5.42-4.41,9.83-9.83,9.83ZM17.74,6.53c-2.45,0-4.44,1.99-4.44,4.44v39.34c0,2.45,1.99,4.44,4.44,4.44h22.86c4.78,0,8.68-3.89,8.68-8.68V15.21c0-4.78-3.89-8.68-8.68-8.68h-22.86Z"/>
      <path class="cls-1" d="m40.6,56.27h-22.86c-3.29,0-5.97-2.68-5.97-5.97V10.97c0-3.29,2.68-5.97,5.97-5.97h22.86c5.63,0,10.21,4.58,10.21,10.21v30.86c0,5.63-4.58,10.21-10.21,10.21ZM17.74,5.75c-2.88,0-5.22,2.34-5.22,5.22v39.34c0,2.88,2.34,5.22,5.22,5.22h22.86c5.21,0,9.46-4.24,9.46-9.46V15.21c0-5.21-4.24-9.46-9.46-9.46h-22.86Zm22.86,49.37h-22.86c-2.65,0-4.81-2.16-4.81-4.81V10.97c0-2.65,2.16-4.81,4.81-4.81h22.86c4.99,0,9.05,4.06,9.05,9.05v30.86c0,4.99-4.06,9.05-9.05,9.05ZM17.74,6.91c-2.24,0-4.06,1.82-4.06,4.06v39.34c0,2.24,1.82,4.06,4.06,4.06h22.86c4.58,0,8.3-3.72,8.3-8.3V15.21c0-4.58-3.72-8.3-8.3-8.3h-22.86Z"/>
    </g>
    <g>
      <g>
        <path class="cls-1" d="m15.91,17.09h-6.37c-.32,0-.58-.26-.58-.58s.26-.58.58-.58h6.37c.32,0,.58.26.58.58s-.26.58-.58.58Z"/>
        <path class="cls-1" d="m15.91,17.46h-6.37c-.53,0-.95-.43-.95-.95s.43-.95.95-.95h6.37c.53,0,.95.43.95.95s-.43.95-.95.95Zm-6.37-1.15c-.11,0-.2.09-.2.2s.09.2.2.2h6.37c.11,0,.2-.09.2-.2s-.09-.2-.2-.2h-6.37Z"/>
      </g>
      <g>
        <path class="cls-1" d="m15.91,26.51h-6.37c-.32,0-.58-.26-.58-.58s.26-.58.58-.58h6.37c.32,0,.58.26.58.58s-.26.58-.58.58Z"/>
        <path class="cls-1" d="m15.91,26.88h-6.37c-.53,0-.95-.43-.95-.95s.43-.95.95-.95h6.37c.53,0,.95.43.95.95s-.43.95-.95.95Zm-6.37-1.16c-.11,0-.2.09-.2.2s.09.2.2.2h6.37c.11,0,.2-.09.2-.2s-.09-.2-.2-.2h-6.37Z"/>
      </g>
      <g>
        <path class="cls-1" d="m15.91,35.92h-6.37c-.32,0-.58-.26-.58-.58s.26-.58.58-.58h6.37c.32,0,.58.26.58.58s-.26.58-.58.58Z"/>
        <path class="cls-1" d="m15.91,36.3h-6.37c-.53,0-.95-.43-.95-.95s.43-.95.95-.95h6.37c.53,0,.95.43.95.95s-.43.95-.95.95Zm-6.37-1.16c-.11,0-.2.09-.2.2s.09.2.2.2h6.37c.11,0,.2-.09.2-.2s-.09-.2-.2-.2h-6.37Z"/>
      </g>
      <g>
        <path class="cls-1" d="m15.91,45.34h-6.37c-.32,0-.58-.26-.58-.58s.26-.58.58-.58h6.37c.32,0,.58.26.58.58s-.26.58-.58.58Z"/>
        <path class="cls-1" d="m15.91,45.72h-6.37c-.53,0-.95-.43-.95-.95s.43-.95.95-.95h6.37c.53,0,.95.43.95.95s-.43.95-.95.95Zm-6.37-1.15c-.11,0-.2.09-.2.2s.09.2.2.2h6.37c.11,0,.2-.09.2-.2s-.09-.2-.2-.2h-6.37Z"/>
      </g>
    </g>
  </g>
</svg>