<?xml version="1.0" encoding="UTF-8"?>
<svg id="Layer_1" data-name="Layer 1" xmlns="http://www.w3.org/2000/svg" viewBox="0 0 60 60">
  <defs>
    <style>
      .cls-1 {
        fill: #37464c;
        stroke-width: 0px;
      }
    </style>
  </defs>
  <path class="cls-1" d="m35.53,18.88c-3.96,0-7.18-3.22-7.18-7.18s3.22-7.18,7.18-7.18,7.18,3.22,7.18,7.18-3.22,7.18-7.18,7.18Zm0-12.35c-2.85,0-5.18,2.32-5.18,5.18s2.32,5.18,5.18,5.18,5.18-2.32,5.18-5.18-2.32-5.18-5.18-5.18Z"/>
  <path class="cls-1" d="m33.06,53.47c-2.59,0-4.71-2.11-4.71-4.71v-6.25l-7.98-4.36c-2.7-1.48-4.38-4.3-4.38-7.38v-3.02c0-7.36,4.88-13.35,10.88-13.35h1.24c3.96,0,7.18,3.22,7.18,7.18v4.94c0,.08.04.14.07.17.03.03.08.07.16.07h6.18s0,0,0,0c.93,0,1.8.36,2.45,1.02.65.66,1.01,1.53,1.01,2.46s-.35,1.83-1,2.47-1.5,1-2.41,1h-7.32s1.71,1.83,1.71,1.83c1.03,1.1,1.6,2.54,1.6,4.06v9.17c0,2.6-2.11,4.71-4.71,4.71Zm-6.18-37.06c-4.9,0-8.88,5.09-8.88,11.35v3.02c0,2.35,1.28,4.5,3.34,5.63l8.5,4.64c.32.18.52.51.52.88v6.84c0,1.49,1.21,2.71,2.71,2.71s2.71-1.21,2.71-2.71v-9.17c0-1-.38-1.96-1.06-2.69l-4.63-4.96s-.02-.02-.03-.03c-1.04-1.07-1.69-2.54-1.69-4.15v-2.47c0-.55.45-1,1-1s1,.45,1,1v2.47c0,2.17,1.77,3.94,3.94,3.94h7.48c.37,0,.73-.14.99-.41.27-.26.41-.62.41-.99,0-.46-.15-.84-.43-1.12-.28-.28-.64-.43-1.04-.43h-6.19s0,0,0,0c-.6,0-1.16-.23-1.58-.66-.42-.42-.65-.98-.65-1.58v-4.94c0-2.85-2.32-5.18-5.18-5.18h-1.24Z"/>
  <path class="cls-1" d="m44.18,53.47c-.55,0-1-.45-1-1v-17.3c0-.81-.66-1.47-1.47-1.47s-1.47.66-1.47,1.47c0,.55-.45,1-1,1s-1-.45-1-1c0-1.91,1.56-3.47,3.47-3.47s3.47,1.56,3.47,3.47v17.3c0,.55-.45,1-1,1Z"/>
  <path class="cls-1" d="m18.24,53.48c-.54,0-1.09-.1-1.61-.29-1.18-.43-2.12-1.29-2.66-2.43-.53-1.14-.59-2.42-.16-3.6l4.25-11.67,1.88.68-4.25,11.67c-.25.68-.21,1.41.09,2.07.31.65.85,1.15,1.53,1.4.68.25,1.41.21,2.07-.09.66-.31,1.15-.85,1.4-1.53l3.73-10.24,1.88.68-3.73,10.24c-.43,1.18-1.29,2.12-2.43,2.66-.63.29-1.31.44-1.99.44Z"/>
</svg>