<?xml version="1.0" encoding="UTF-8"?>
<svg id="Layer_1" data-name="Layer 1" xmlns="http://www.w3.org/2000/svg" viewBox="0 0 60 60">
  <defs>
    <style>
      .cls-1 {
        fill: #37464c;
        stroke-width: 0px;
      }
    </style>
  </defs>
  <g>
    <g>
      <path class="cls-1" d="m47.11,45.73h-29.62c-3.52,0-6.38-2.86-6.38-6.38s2.86-6.38,6.38-6.38h29.62c3.52,0,6.38,2.86,6.38,6.38s-2.86,6.38-6.38,6.38Zm-29.62-11.66c-2.91,0-5.28,2.37-5.28,5.28s2.37,5.28,5.28,5.28h29.62c2.91,0,5.28-2.37,5.28-5.28s-2.37-5.28-5.28-5.28h-29.62Z"/>
      <path class="cls-1" d="m47.11,46.1h-29.62c-3.72,0-6.75-3.03-6.75-6.76s3.03-6.76,6.75-6.76h29.62c3.72,0,6.75,3.03,6.75,6.76s-3.03,6.76-6.75,6.76Zm-29.62-12.76c-3.31,0-6,2.69-6,6.01s2.69,6.01,6,6.01h29.62c3.31,0,6-2.69,6-6.01s-2.69-6.01-6-6.01h-29.62Zm29.62,11.66h-29.62c-3.12,0-5.65-2.54-5.65-5.66s2.54-5.66,5.65-5.66h29.62c3.12,0,5.65,2.54,5.65,5.66s-2.54,5.66-5.65,5.66Zm-29.62-10.56c-2.7,0-4.9,2.2-4.9,4.91s2.2,4.91,4.9,4.91h29.62c2.7,0,4.9-2.2,4.9-4.91s-2.2-4.91-4.9-4.91h-29.62Z"/>
    </g>
    <g>
      <path class="cls-1" d="m46.51,34.06h-28.42c-.19,0-.37-.1-.47-.26-.1-.16-.11-.37-.02-.54l2.19-4.24c1.92-3.71,5.7-6.01,9.86-6.01h5.29c4.17,0,7.95,2.3,9.86,6.01l2.19,4.24c.09.17.08.37-.02.54-.1.16-.28.26-.47.26Zm-27.52-1.1h26.61l-1.77-3.43c-1.73-3.34-5.13-5.41-8.89-5.41h-5.29c-3.76,0-7.16,2.07-8.89,5.41l-1.77,3.43Z"/>
      <path class="cls-1" d="m46.51,34.44h-28.42c-.32,0-.62-.17-.79-.44-.17-.28-.18-.62-.03-.91l2.19-4.23c1.98-3.83,5.89-6.21,10.2-6.21h5.29c4.31,0,8.22,2.38,10.2,6.21l2.19,4.24c.15.28.14.63-.03.9-.17.27-.47.44-.79.44Zm-16.85-11.05c-4.03,0-7.68,2.22-9.53,5.81l-2.19,4.24c-.03.05-.03.12,0,.17.03.05.09.08.15.08h28.42c.06,0,.12-.03.15-.08.03-.05.03-.12,0-.17l-2.19-4.24c-1.85-3.58-5.5-5.81-9.53-5.81h-5.29Zm16.57,9.95h-27.85l2.06-3.98c1.79-3.47,5.32-5.62,9.22-5.62h5.29c3.9,0,7.43,2.15,9.22,5.62l2.06,3.98Zm-26.62-.75h25.38l-1.49-2.89c-1.66-3.21-4.94-5.21-8.55-5.21h-5.29c-3.62,0-6.89,2-8.56,5.21l-1.49,2.89Z"/>
    </g>
    <g>
      <g>
        <path class="cls-1" d="m19.72,50.87h-7.21c-.3,0-.55-.25-.55-.55v-7.89c0-.3.25-.55.55-.55s.55.25.55.55v7.34h6.11v-4.17c0-.3.25-.55.55-.55s.55.25.55.55v4.72c0,.3-.25.55-.55.55Z"/>
        <path class="cls-1" d="m19.72,51.25h-7.21c-.51,0-.92-.42-.92-.92v-7.89c0-.51.42-.92.92-.92s.92.42.92.92v6.96h5.36v-3.79c0-.51.42-.92.92-.92s.92.42.92.92v4.72c0,.51-.42.92-.92.92Zm-7.21-8.99c-.1,0-.17.08-.17.17v7.89c0,.1.08.17.17.17h7.21c.1,0,.17-.08.17-.17v-4.72c0-.19-.35-.19-.35,0v4.54h-6.86v-7.71c0-.1-.08-.17-.17-.17Z"/>
      </g>
      <g>
        <path class="cls-1" d="m52.1,50.87h-7.21c-.3,0-.55-.25-.55-.55v-5.15c0-.3.25-.55.55-.55s.55.25.55.55v4.6h6.11v-7.34c0-.3.25-.55.55-.55s.55.25.55.55v7.89c0,.3-.25.55-.55.55Z"/>
        <path class="cls-1" d="m52.1,51.25h-7.21c-.51,0-.92-.42-.92-.92v-5.15c0-.51.41-.92.92-.92s.92.42.92.92v4.22h5.36v-6.96c0-.51.42-.92.92-.92s.92.42.92.92v7.89c0,.51-.42.92-.92.92Zm-7.21-6.25c-.1,0-.17.08-.17.17v5.15c0,.1.08.17.17.17h7.21c.1,0,.17-.08.17-.17v-7.89c0-.19-.35-.19-.35,0v7.71h-6.86v-4.97c0-.1-.08-.17-.17-.17Z"/>
      </g>
    </g>
    <g>
      <g>
        <path class="cls-1" d="m22.91,41.27h-5.75c-1.06,0-1.92-.86-1.92-1.92s.86-1.92,1.92-1.92h5.75c1.06,0,1.92.86,1.92,1.92s-.86,1.92-1.92,1.92Zm-5.75-2.74c-.45,0-.82.37-.82.82s.37.82.82.82h5.75c.45,0,.82-.37.82-.82s-.37-.82-.82-.82h-5.75Z"/>
        <path class="cls-1" d="m22.91,41.64h-5.75c-1.27,0-2.29-1.03-2.29-2.3s1.03-2.3,2.29-2.3h5.75c1.27,0,2.29,1.03,2.29,2.3s-1.03,2.3-2.29,2.3Zm-5.75-3.84c-.85,0-1.54.69-1.54,1.55s.69,1.55,1.54,1.55h5.75c.85,0,1.54-.69,1.54-1.55s-.69-1.55-1.54-1.55h-5.75Zm5.75,2.74h-5.75c-.66,0-1.2-.54-1.2-1.2s.54-1.2,1.2-1.2h5.75c.66,0,1.2.54,1.2,1.2s-.54,1.2-1.2,1.2Zm-5.75-1.64c-.25,0-.45.2-.45.45s.2.45.45.45h5.75c.25,0,.45-.2.45-.45s-.2-.45-.45-.45h-5.75Z"/>
      </g>
      <g>
        <path class="cls-1" d="m47.45,41.27h-5.75c-1.06,0-1.92-.86-1.92-1.92s.86-1.92,1.92-1.92h5.75c1.06,0,1.92.86,1.92,1.92s-.86,1.92-1.92,1.92Zm-5.75-2.74c-.45,0-.82.37-.82.82s.37.82.82.82h5.75c.45,0,.82-.37.82-.82s-.37-.82-.82-.82h-5.75Z"/>
        <path class="cls-1" d="m47.45,41.64h-5.75c-1.27,0-2.29-1.03-2.29-2.3s1.03-2.3,2.29-2.3h5.75c1.27,0,2.3,1.03,2.3,2.3s-1.03,2.3-2.3,2.3Zm-5.75-3.84c-.85,0-1.54.69-1.54,1.55s.69,1.55,1.54,1.55h5.75c.85,0,1.55-.69,1.55-1.55s-.69-1.55-1.55-1.55h-5.75Zm5.75,2.74h-5.75c-.66,0-1.2-.54-1.2-1.2s.54-1.2,1.2-1.2h5.75c.66,0,1.2.54,1.2,1.2s-.54,1.2-1.2,1.2Zm-5.75-1.64c-.25,0-.45.2-.45.45s.2.45.45.45h5.75c.25,0,.45-.2.45-.45s-.2-.45-.45-.45h-5.75Z"/>
      </g>
    </g>
    <g>
      <g>
        <path class="cls-1" d="m28.15,41.78c-.3,0-.55-.25-.55-.55v-3.64c0-.3.25-.55.55-.55s.55.25.55.55v3.64c0,.3-.25.55-.55.55Z"/>
        <path class="cls-1" d="m28.15,42.16c-.51,0-.92-.42-.92-.92v-3.64c0-.51.42-.92.92-.92s.92.42.92.92v3.64c0,.51-.42.92-.92.92Zm0-4.74c-.1,0-.17.08-.17.17v3.64c0,.19.35.19.35,0v-3.64c0-.1-.08-.17-.17-.17Z"/>
      </g>
      <g>
        <path class="cls-1" d="m32.3,41.78c-.3,0-.55-.25-.55-.55v-3.64c0-.3.25-.55.55-.55s.55.25.55.55v3.64c0,.3-.25.55-.55.55Z"/>
        <path class="cls-1" d="m32.3,42.16c-.51,0-.92-.42-.92-.92v-3.64c0-.51.42-.92.92-.92s.92.42.92.92v3.64c0,.51-.42.92-.92.92Zm0-4.74c-.1,0-.17.08-.17.17v3.64c0,.19.35.19.35,0v-3.64c0-.1-.08-.17-.17-.17Z"/>
      </g>
      <g>
        <path class="cls-1" d="m36.46,41.78c-.3,0-.55-.25-.55-.55v-3.64c0-.3.25-.55.55-.55s.55.25.55.55v3.64c0,.3-.25.55-.55.55Z"/>
        <path class="cls-1" d="m36.46,42.16c-.51,0-.92-.42-.92-.92v-3.64c0-.51.42-.92.92-.92s.92.42.92.92v3.64c0,.51-.42.92-.92.92Zm0-4.74c-.1,0-.17.08-.17.17v3.64c0,.19.35.19.35,0v-3.64c0-.1-.08-.17-.17-.17Z"/>
      </g>
    </g>
  </g>
  <g>
    <path class="cls-1" d="m11.67,39.9c-3.47,0-6.29-2.82-6.29-6.29v-13.15c0-3.47,2.82-6.29,6.29-6.29h15.39c.3,0,.55.25.55.55s-.25.55-.55.55h-15.39c-2.86,0-5.19,2.33-5.19,5.19v13.15c0,2.86,2.33,5.19,5.19,5.19.3,0,.55.25.55.55s-.25.55-.55.55Z"/>
    <path class="cls-1" d="m11.67,40.27c-3.67,0-6.66-2.99-6.66-6.67v-13.15c0-3.68,2.99-6.67,6.66-6.67h15.39c.51,0,.92.42.92.92s-.42.92-.92.92h-15.39c-2.65,0-4.81,2.16-4.81,4.82v13.15c0,2.66,2.16,4.82,4.81,4.82.51,0,.92.42.92.92s-.42.92-.92.92Zm0-25.74c-3.26,0-5.91,2.66-5.91,5.92v13.15c0,3.26,2.65,5.92,5.91,5.92.1,0,.17-.08.17-.17s-.08-.17-.17-.17c-3.07,0-5.56-2.5-5.56-5.57v-13.15c0-3.07,2.5-5.57,5.56-5.57h15.39c.1,0,.17-.08.17-.17s-.08-.17-.17-.17h-15.39Z"/>
  </g>
  <g>
    <path class="cls-1" d="m37.55,20.51h-5.24c-3.2,0-5.79-2.6-5.79-5.8s2.6-5.8,5.79-5.8h5.24c.3,0,.55.25.55.55v10.5c0,.3-.25.55-.55.55Zm-5.24-10.5c-2.59,0-4.7,2.11-4.7,4.7s2.11,4.7,4.7,4.7h4.69v-9.4h-4.69Z"/>
    <path class="cls-1" d="m37.55,20.88h-5.25c-3.4,0-6.17-2.77-6.17-6.17s2.77-6.17,6.17-6.17h5.25c.51,0,.92.41.92.92v10.5c0,.51-.42.92-.92.92Zm-5.25-11.6c-2.99,0-5.42,2.43-5.42,5.42s2.43,5.42,5.42,5.42h5.25c.1,0,.17-.08.17-.17v-10.5c0-.1-.08-.17-.17-.17h-5.25Zm5.07,10.5h-5.07c-2.8,0-5.07-2.28-5.07-5.08s2.27-5.08,5.07-5.08h5.07v10.15Zm-5.07-9.4c-2.38,0-4.32,1.94-4.32,4.33s1.94,4.33,4.32,4.33h4.32v-8.65h-4.32Z"/>
  </g>
  <g>
    <g>
      <path class="cls-1" d="m43.28,12.78h-5.73c-.3,0-.55-.25-.55-.55s.25-.55.55-.55h5.73c.3,0,.55.25.55.55s-.25.55-.55.55Z"/>
      <path class="cls-1" d="m43.28,13.16h-5.73c-.51,0-.92-.42-.92-.92s.42-.92.92-.92h5.73c.51,0,.92.42.92.92s-.42.92-.92.92Zm-5.73-1.1c-.1,0-.17.08-.17.17s.08.17.17.17h5.73c.1,0,.17-.08.17-.17s-.08-.17-.17-.17h-5.73Z"/>
    </g>
    <g>
      <path class="cls-1" d="m43.28,17.73h-5.73c-.3,0-.55-.25-.55-.55s.25-.55.55-.55h5.73c.3,0,.55.25.55.55s-.25.55-.55.55Z"/>
      <path class="cls-1" d="m43.28,18.1h-5.73c-.51,0-.92-.42-.92-.92s.42-.92.92-.92h5.73c.51,0,.92.42.92.92s-.42.92-.92.92Zm-5.73-1.1c-.1,0-.17.08-.17.17s.08.17.17.17h5.73c.1,0,.17-.08.17-.17s-.08-.17-.17-.17h-5.73Z"/>
    </g>
  </g>
</svg>