<?xml version="1.0" encoding="UTF-8"?>
<svg id="Layer_1" data-name="Layer 1" xmlns="http://www.w3.org/2000/svg" viewBox="0 0 60 60">
  <defs>
    <style>
      .cls-1 {
        fill: #37464c;
        stroke-width: 0px;
      }
    </style>
  </defs>
  <g>
    <g>
      <g>
        <path class="cls-1" d="m29.97,15.22h-3.12c-.34,0-.61-.27-.61-.61v-5.82c0-.34.27-.61.61-.61s.61.27.61.61v5.21h1.89v-5.21c0-.34.27-.61.61-.61s.61.27.61.61v5.82c0,.34-.27.61-.61.61Z"/>
        <path class="cls-1" d="m29.97,15.59h-3.12c-.54,0-.99-.44-.99-.99v-5.82c0-.54.44-.99.99-.99s.99.44.99.99v4.83h1.14v-4.83c0-.54.44-.99.99-.99s.99.44.99.99v5.82c0,.54-.44.99-.99.99Zm-3.12-7.04c-.13,0-.24.11-.24.24v5.82c0,.13.11.24.24.24h3.12c.13,0,.24-.11.24-.24v-5.82c0-.26-.47-.26-.47,0v5.58h-2.64v-5.58c0-.13-.11-.24-.24-.24Z"/>
      </g>
      <g>
        <path class="cls-1" d="m28.42,9.87c-1.62,0-2.94-1.32-2.94-2.94s1.32-2.94,2.94-2.94,2.94,1.32,2.94,2.94-1.32,2.94-2.94,2.94Zm0-4.66c-.95,0-1.72.77-1.72,1.72s.77,1.72,1.72,1.72,1.72-.77,1.72-1.72-.77-1.72-1.72-1.72Z"/>
        <path class="cls-1" d="m28.42,10.25c-1.83,0-3.32-1.49-3.32-3.32s1.49-3.32,3.32-3.32,3.32,1.49,3.32,3.32-1.49,3.32-3.32,3.32Zm0-5.89c-1.42,0-2.57,1.15-2.57,2.57s1.15,2.57,2.57,2.57,2.57-1.15,2.57-2.57-1.15-2.57-2.57-2.57Zm0,4.66c-1.16,0-2.1-.94-2.1-2.1s.94-2.1,2.1-2.1,2.1.94,2.1,2.1-.94,2.1-2.1,2.1Zm0-3.44c-.74,0-1.35.6-1.35,1.35s.6,1.35,1.35,1.35,1.35-.6,1.35-1.35-.6-1.35-1.35-1.35Z"/>
      </g>
      <g>
        <g>
          <path class="cls-1" d="m41.22,10.29c-.18,0-.36-.01-.54-.04l-9.8-1.58c-.33-.05-.56-.37-.51-.7.05-.33.37-.56.7-.51l9.8,1.58c.62.1,1.25-.08,1.73-.48.48-.41.75-1,.75-1.63s-.27-1.22-.75-1.63c-.48-.41-1.11-.58-1.73-.48l-9.8,1.58c-.33.05-.65-.17-.7-.51-.05-.33.17-.65.51-.7l9.8-1.58c.98-.16,1.96.12,2.72.76.75.64,1.18,1.57,1.18,2.56s-.43,1.92-1.18,2.56c-.61.52-1.39.8-2.18.8Z"/>
          <path class="cls-1" d="m41.22,10.67c-.2,0-.4-.02-.6-.05l-9.8-1.58c-.26-.04-.49-.18-.64-.4-.15-.21-.22-.47-.17-.73.04-.26.18-.49.4-.64.21-.15.48-.22.73-.17l9.8,1.58c.51.08,1.03-.06,1.43-.4.4-.34.62-.83.62-1.35s-.23-1.01-.62-1.35c-.39-.34-.91-.48-1.43-.4l-9.8,1.58c-.54.09-1.04-.28-1.13-.82-.04-.26.02-.52.17-.73.15-.21.38-.35.64-.4l9.8-1.58c1.09-.17,2.18.13,3.02.84.84.71,1.31,1.75,1.31,2.85s-.48,2.13-1.31,2.85c-.68.58-1.54.89-2.42.89Zm-10.24-2.84s-.1.01-.14.04c-.05.04-.08.09-.1.15-.02.13.07.25.19.27l9.8,1.58c.87.14,1.75-.11,2.41-.67.67-.57,1.05-1.4,1.05-2.28s-.38-1.71-1.05-2.28c-.67-.57-1.55-.81-2.41-.67l-9.8,1.58c-.13.02-.22.14-.2.27.02.13.14.22.27.2l9.8-1.58c.73-.12,1.47.09,2.03.57.56.48.89,1.18.89,1.92s-.32,1.44-.89,1.92c-.56.48-1.31.68-2.03.57l-9.8-1.58s-.03,0-.04,0Z"/>
        </g>
        <g>
          <path class="cls-1" d="m15.51,10.31c-.77,0-1.52-.27-2.11-.78-.73-.62-1.15-1.53-1.15-2.48s.41-1.84,1.12-2.46c.71-.62,1.65-.9,2.59-.77l9.98,1.37c.33.05.57.35.52.69-.05.33-.35.57-.69.52l-9.98-1.37c-.58-.08-1.17.1-1.62.48-.44.39-.7.95-.7,1.54s.26,1.17.72,1.55c.46.39,1.06.56,1.65.46l9.92-1.6c.33-.05.65.17.7.51.05.33-.17.65-.51.7l-9.92,1.6c-.17.03-.35.04-.52.04Z"/>
          <path class="cls-1" d="m15.51,10.69c-.86,0-1.7-.31-2.36-.87-.81-.69-1.28-1.7-1.28-2.77s.45-2.05,1.25-2.74c.79-.69,1.84-1.01,2.88-.86l9.98,1.37c.26.04.49.17.65.38.16.21.23.47.19.73-.07.54-.57.91-1.11.84l-9.98-1.38c-.48-.06-.96.08-1.32.39-.36.32-.57.77-.57,1.26s.21.95.59,1.27c.37.32.86.45,1.34.38l9.92-1.6c.26-.04.52.02.73.17.21.15.35.38.4.64.09.54-.28,1.04-.82,1.13l-9.92,1.6c-.19.03-.39.05-.58.05Zm0-6.52c-.69,0-1.37.25-1.9.71-.63.55-.99,1.34-.99,2.18s.37,1.65,1.02,2.2c.64.54,1.49.79,2.33.65l9.92-1.6c.13-.02.22-.14.2-.27-.01-.06-.04-.12-.1-.15-.05-.04-.11-.05-.17-.04l-9.92,1.6c-.7.12-1.41-.08-1.95-.54-.54-.46-.85-1.13-.85-1.84s.3-1.36.83-1.82c.53-.46,1.23-.67,1.92-.57l9.98,1.37c.12,0,.25-.07.27-.2,0-.06,0-.12-.05-.17-.04-.05-.09-.08-.16-.09l-9.98-1.37c-.13-.02-.26-.03-.39-.03Z"/>
        </g>
      </g>
    </g>
    <g>
      <path class="cls-1" d="m50,39.42h-8.93c-.34,0-.61-.27-.61-.61v-3.65c0-.69-.56-1.25-1.25-1.25H13.7c-.34,0-.61-.27-.61-.61v-10.8c0-.34.27-.61.61-.61h8.7v-7.28c0-.34.27-.61.61-.61h10.8c.34,0,.61.27.61.61v7.28h6.64c5.27,0,9.55,4.29,9.55,9.56v7.36c0,.34-.27.61-.61.61Zm-8.32-1.22h7.71v-6.75c0-4.6-3.74-8.33-8.33-8.33h-7.25c-.34,0-.61-.27-.61-.61v-7.28h-9.58v7.28c0,.34-.27.61-.61.61h-8.7v9.58h24.91c1.36,0,2.47,1.11,2.47,2.47v3.04Z"/>
      <path class="cls-1" d="m50,39.79h-8.93c-.54,0-.99-.44-.99-.99v-3.65c0-.48-.39-.87-.87-.87H13.7c-.54,0-.99-.44-.99-.99v-10.8c0-.54.44-.99.99-.99h8.33v-6.91c0-.54.44-.99.99-.99h10.8c.54,0,.99.44.99.99v6.91h6.26c5.47,0,9.93,4.45,9.93,9.93v7.36c0,.54-.44.99-.99.99ZM13.7,22.26c-.13,0-.24.11-.24.24v10.8c0,.13.11.24.24.24h25.52c.89,0,1.62.73,1.62,1.62v3.65c0,.13.11.24.24.24h8.93c.13,0,.24-.11.24-.24v-7.36c0-5.06-4.12-9.18-9.18-9.18h-7.01v-7.66c0-.13-.11-.24-.24-.24h-10.8c-.13,0-.24.11-.24.24v7.66h-9.08Zm36.07,16.31h-8.46v-3.41c0-1.15-.94-2.09-2.09-2.09H13.94v-10.33h9.08c.13,0,.24-.11.24-.24v-7.66h10.33v7.66c0,.13.11.24.24.24h7.25c4.8,0,8.71,3.91,8.71,8.71v7.13Zm-7.71-.75h6.96v-6.38c0-4.39-3.57-7.96-7.96-7.96h-7.25c-.54,0-.99-.44-.99-.99v-6.91h-8.83v6.91c0,.54-.44.99-.99.99h-8.33v8.83h24.53c1.57,0,2.84,1.28,2.84,2.84v2.66Z"/>
    </g>
    <g>
      <path class="cls-1" d="m49.58,42.3h-8.08c-.34,0-.61-.27-.61-.61s.27-.61.61-.61h8.08c.34,0,.61.27.61.61s-.27.61-.61.61Z"/>
      <path class="cls-1" d="m49.58,42.67h-8.07c-.54,0-.99-.44-.99-.99s.44-.99.99-.99h8.07c.54,0,.99.44.99.99s-.44.99-.99.99Zm-8.07-1.22c-.13,0-.24.11-.24.24s.11.24.24.24h8.07c.13,0,.24-.11.24-.24s-.11-.24-.24-.24h-8.07Z"/>
    </g>
  </g>
  <g>
    <path class="cls-1" d="m45.54,57.55c-2.12,0-3.84-1.72-3.84-3.84,0-1.9,2.98-6.67,3.32-7.2.11-.18.31-.28.52-.28s.4.11.52.28c.34.54,3.32,5.3,3.32,7.2,0,2.12-1.72,3.84-3.84,3.84Zm0-9.55c-1.17,1.96-2.62,4.7-2.62,5.71,0,1.44,1.17,2.62,2.62,2.62s2.62-1.17,2.62-2.62c0-1.01-1.44-3.75-2.62-5.71Z"/>
    <path class="cls-1" d="m45.54,57.93c-2.32,0-4.21-1.89-4.21-4.21,0-1.97,2.82-6.51,3.38-7.4.36-.57,1.3-.57,1.67,0,.56.89,3.38,5.43,3.38,7.4,0,2.32-1.89,4.21-4.21,4.21Zm0-11.32c-.08,0-.16.04-.2.11-1.21,1.91-3.26,5.54-3.26,7,0,1.91,1.55,3.46,3.46,3.46s3.46-1.55,3.46-3.46c0-1.46-2.05-5.09-3.26-7-.04-.07-.12-.11-.2-.11Zm0,10.1c-1.65,0-2.99-1.34-2.99-2.99,0-1.35,2.04-4.86,2.67-5.9l.32-.54.32.54c.63,1.04,2.67,4.56,2.67,5.9,0,1.65-1.34,2.99-2.99,2.99Zm0-7.96c-1.35,2.32-2.24,4.28-2.24,4.97,0,1.24,1,2.24,2.24,2.24s2.24-1.01,2.24-2.24c0-.69-.89-2.65-2.24-4.97Z"/>
  </g>
</svg>