<?xml version="1.0" encoding="UTF-8"?>
<svg id="Layer_1" data-name="Layer 1" xmlns="http://www.w3.org/2000/svg" viewBox="0 0 60 60">
  <defs>
    <style>
      .cls-1 {
        fill: #37464c;
        stroke-width: 0px;
      }
    </style>
  </defs>
  <g>
    <path class="cls-1" d="m5.27,50.5c-.83,0-1.5-.67-1.5-1.5V7.27c0-.83.67-1.5,1.5-1.5s1.5.67,1.5,1.5v41.73c0,.83-.67,1.5-1.5,1.5Z"/>
    <path class="cls-1" d="m31.22,33.78H5.27c-.55,0-1-.45-1-1V13.07c0-.55.45-1,1-1h25.95c.55,0,1,.45,1,1v19.71c0,.55-.45,1-1,1Zm-24.95-2h23.95V14.07H6.27v17.71Z"/>
    <path class="cls-1" d="m57.17,41.27h-25.95c-.55,0-1-.45-1-1v-19.71c0-.55.45-1,1-1h25.95c.41,0,.78.25.93.64.15.38.05.82-.25,1.1l-9.86,9.12,9.86,9.12c.3.28.4.72.25,1.1-.15.38-.52.64-.93.64Zm-24.95-2h22.4l-8.78-8.12c-.21-.19-.32-.46-.32-.73s.12-.54.32-.73l8.78-8.12h-22.4v17.71Z"/>
  </g>
  <path class="cls-1" d="m37.91,21.14c-.55,0-1-.45-1-1,0-3.34-2.55-6.06-5.69-6.06-.55,0-1-.45-1-1s.45-1,1-1c4.24,0,7.69,3.62,7.69,8.06,0,.55-.45,1-1,1Z"/>
</svg>