<?xml version="1.0" encoding="UTF-8"?>
<svg id="Layer_1" data-name="Layer 1" xmlns="http://www.w3.org/2000/svg" viewBox="0 0 60 60">
  <defs>
    <style>
      .cls-1 {
        fill: #37464c;
        stroke-width: 0px;
      }
    </style>
  </defs>
  <g>
    <path class="cls-1" d="m52.01,54.63c-.06,0-.12,0-.17,0-5.46-.25-16.04-1.59-25.51-7.81C14.63,39.13,8.3,26.6,7.5,9.57c-.05-1.12.37-2.23,1.16-3.03.79-.8,1.87-1.23,2.98-1.17h0c16.76.82,29.09,7.25,36.65,19.13,6.12,9.63,7.45,20.37,7.69,25.92.05,1.13-.37,2.23-1.16,3.02-.74.75-1.75,1.18-2.8,1.18ZM11.44,6.47c-.76,0-1.49.31-2.03.86-.57.58-.88,1.38-.84,2.2.79,16.65,6.95,28.89,18.34,36.37,9.26,6.08,19.62,7.4,24.97,7.64.82.04,1.59-.27,2.16-.85.58-.59.88-1.37.84-2.2-.24-5.44-1.53-15.96-7.52-25.37C40.01,13.54,27.97,7.27,11.58,6.47c-.05,0-.09,0-.14,0Z"/>
    <path class="cls-1" d="m52.01,55c-.06,0-.13,0-.19,0-5.5-.25-16.15-1.6-25.69-7.87C14.32,39.38,7.93,26.75,7.12,9.59c-.06-1.23.4-2.43,1.26-3.31.86-.88,2.06-1.34,3.26-1.29,16.89.82,29.32,7.32,36.94,19.31,6.17,9.7,7.5,20.52,7.75,26.1.05,1.23-.41,2.43-1.26,3.3-.81.82-1.93,1.29-3.07,1.29ZM11.44,5.74c-.94,0-1.85.38-2.53,1.07-.71.73-1.1,1.73-1.05,2.75.8,16.9,7.08,29.33,18.66,36.94,9.4,6.17,19.9,7.51,25.32,7.75h.16c.94,0,1.87-.38,2.53-1.06.71-.72,1.09-1.72,1.05-2.74-.24-5.51-1.55-16.18-7.63-25.74C40.47,12.94,28.24,6.56,11.61,5.75c-.06,0-.11,0-.17,0Zm40.57,48.16s-.1,0-.15,0c-5.39-.24-15.83-1.57-25.16-7.7C15.22,38.66,8.99,26.32,8.2,9.54c-.04-.92.3-1.82.95-2.48.6-.62,1.44-.97,2.29-.97h.15c16.52.81,28.66,7.14,36.09,18.81,6.03,9.48,7.33,20.08,7.57,25.56.04.94-.3,1.82-.95,2.48-.62.63-1.43.97-2.3.97ZM11.44,6.84c-.65,0-1.29.27-1.76.74-.5.51-.77,1.21-.73,1.92.78,16.53,6.89,28.66,18.17,36.07,9.18,6.03,19.47,7.33,24.78,7.57.71.04,1.38-.23,1.88-.74.5-.51.76-1.19.73-1.92-.24-5.4-1.52-15.85-7.46-25.19C39.76,13.85,27.82,7.64,11.56,6.85h-.12Z"/>
  </g>
  <g>
    <g>
      <path class="cls-1" d="m38.64,33.65c-.14,0-.28-.05-.38-.16-.21-.21-.21-.56,0-.78l4.31-4.38c.21-.21.55-.21.76,0,.21.21.21.56,0,.78l-4.31,4.38c-.11.11-.24.16-.38.16Z"/>
      <path class="cls-1" d="m38.64,34.03c-.25,0-.48-.1-.65-.27-.35-.36-.35-.94,0-1.3l4.31-4.38c.17-.18.4-.27.65-.27h0c.25,0,.48.1.65.27.35.36.35.94,0,1.3l-4.31,4.38c-.17.18-.4.27-.65.27Zm4.31-5.48s-.07,0-.12.05l-4.31,4.38c-.07.07-.07.18,0,.25.07.07.14.09.23,0l4.31-4.38c.07-.07.07-.18,0-.25-.04-.04-.12-.03-.12-.05Z"/>
    </g>
    <g>
      <path class="cls-1" d="m35.46,30.42c-.14,0-.28-.05-.38-.16-.21-.21-.21-.56,0-.78l4.31-4.38c.21-.21.55-.21.76,0,.21.21.21.56,0,.78l-4.31,4.38c-.11.11-.24.16-.38.16Z"/>
      <path class="cls-1" d="m35.46,30.8c-.24,0-.47-.1-.65-.27-.35-.36-.35-.95,0-1.3l4.31-4.38c.17-.18.4-.27.65-.27h0c.25,0,.48.1.65.27.35.36.35.94,0,1.3l-4.31,4.38c-.17.18-.4.27-.65.27Zm4.31-5.48h0s-.07,0-.11.05l-4.31,4.38c-.07.07-.07.18,0,.25.05.05.11.11.23,0l4.31-4.38c.07-.07.07-.18,0-.25-.04-.04-.09-.05-.12-.05Z"/>
    </g>
    <g>
      <path class="cls-1" d="m32.28,27.19c-.14,0-.28-.05-.38-.16-.21-.21-.21-.56,0-.78l4.31-4.38c.21-.21.55-.21.76,0,.21.21.21.56,0,.78l-4.31,4.38c-.11.11-.24.16-.38.16Z"/>
      <path class="cls-1" d="m32.28,27.57c-.25,0-.48-.1-.65-.27-.35-.36-.35-.94,0-1.3l4.31-4.38c.17-.18.4-.27.65-.27h0c.25,0,.48.1.65.27.35.36.35.94,0,1.3l-4.31,4.38c-.17.18-.4.27-.65.27Zm4.31-5.48s-.07,0-.12.05l-4.31,4.38c-.07.07-.07.18,0,.25.07.08.14.09.23,0l4.31-4.38c.07-.07.07-.18,0-.25-.04-.04-.11-.04-.12-.05Z"/>
    </g>
    <g>
      <path class="cls-1" d="m29.1,23.96c-.14,0-.28-.05-.38-.16-.21-.21-.21-.56,0-.78l4.31-4.38c.21-.21.55-.21.76,0,.21.21.21.56,0,.78l-4.31,4.38c-.11.11-.24.16-.38.16Z"/>
      <path class="cls-1" d="m29.1,24.34c-.25,0-.48-.1-.65-.27-.35-.36-.35-.94,0-1.3l4.31-4.38c.17-.18.4-.27.65-.27h0c.25,0,.48.1.65.27.35.36.35.94,0,1.3l-4.31,4.38c-.17.18-.4.27-.65.27Zm4.31-5.48s-.07,0-.11.05l-4.31,4.38c-.07.07-.07.18,0,.25.08.08.15.08.23,0l4.31-4.38c.07-.07.07-.18,0-.25-.04-.04-.09-.05-.12-.05Z"/>
    </g>
  </g>
  <g>
    <path class="cls-1" d="m43.06,33.77c-.14,0-.28-.05-.38-.16l-14.07-14.3c-.21-.21-.21-.56,0-.78s.55-.21.76,0l14.07,14.3c.21.21.21.56,0,.78-.11.11-.24.16-.38.16Z"/>
    <path class="cls-1" d="m43.06,34.14c-.25,0-.48-.1-.65-.27l-14.07-14.3c-.35-.36-.35-.94,0-1.3.17-.18.4-.27.65-.27h0c.25,0,.48.1.65.27l14.07,14.3c.35.36.35.94,0,1.3-.17.18-.4.27-.65.27Zm-14.07-15.4s-.07,0-.12.05c-.07.07-.07.18,0,.25l14.07,14.3c.07.07.14.09.23,0,.07-.07.07-.18,0-.25l-14.07-14.3s-.13-.03-.12-.05Z"/>
  </g>
  <g>
    <g>
      <path class="cls-1" d="m40.33,52.87c-.28,0-.52-.22-.54-.51-.02-.25-.36-6.07,3.46-10.22,2.41-2.62,5.93-3.96,10.45-3.96.3,0,.54.25.54.55s-.24.55-.54.55c-4.21,0-7.45,1.21-9.66,3.6-3.49,3.79-3.18,9.34-3.17,9.4.02.3-.21.56-.5.58-.01,0-.02,0-.04,0Z"/>
      <path class="cls-1" d="m40.33,53.25c-.48,0-.88-.38-.91-.86-.02-.25-.37-6.23,3.55-10.49,2.49-2.71,6.1-4.08,10.73-4.08.5,0,.92.41.92.92s-.41.92-.92.92c-4.1,0-7.25,1.17-9.38,3.48-3.36,3.65-3.08,9.07-3.08,9.12.03.51-.35.95-.85.98h-.06Zm13.37-14.68c-4.41,0-7.84,1.29-10.18,3.83-3.71,4.03-3.37,9.7-3.36,9.94,0,.09.08.16.16.16v.38-.38c.1,0,.17-.09.17-.19,0-.06-.31-5.79,3.27-9.68,2.27-2.47,5.62-3.72,9.93-3.72.09,0,.17-.08.17-.17s-.07-.17-.17-.17Z"/>
    </g>
    <g>
      <path class="cls-1" d="m10.27,21.82c-.31,0-.51-.01-.55-.01-.3-.02-.52-.28-.5-.58.02-.3.28-.53.58-.51.06,0,5.52.33,9.25-3.22,2.35-2.24,3.54-5.54,3.54-9.81,0-.3.24-.55.54-.55s.54.25.54.55c0,4.6-1.31,8.17-3.89,10.62-3.4,3.23-7.94,3.52-9.5,3.52Z"/>
      <path class="cls-1" d="m10.27,22.2c-.33,0-.53-.01-.57-.02-.5-.03-.88-.48-.85-.98.03-.51.47-.91.97-.86.05,0,5.37.3,8.96-3.12,2.27-2.16,3.43-5.37,3.43-9.54,0-.51.41-.92.92-.92s.92.42.92.92c0,4.7-1.35,8.37-4.01,10.89-3.45,3.27-7.98,3.63-9.76,3.63Zm-.51-1.11c-.09,0-.16.07-.17.16,0,.1.06.18.15.19.04,0,.22.01.52.01,1.7,0,5.99-.33,9.25-3.42,2.51-2.38,3.78-5.86,3.78-10.35,0-.19-.33-.19-.33,0,0,4.38-1.23,7.77-3.66,10.08-3.86,3.67-9.48,3.33-9.53,3.33h-.01Z"/>
    </g>
  </g>
</svg>