<?xml version="1.0" encoding="UTF-8"?>
<svg id="Layer_1" data-name="Layer 1" xmlns="http://www.w3.org/2000/svg" viewBox="0 0 60 60">
  <defs>
    <style>
      .cls-1 {
        fill: #37464c;
        stroke-width: 0px;
      }
    </style>
  </defs>
  <path class="cls-1" d="m48.1,57.86H16.1c-2.21,0-4-1.79-4-4V13.86c0-2.21,1.79-4,4-4h1c.55,0,1,.45,1,1s-.45,1-1,1h-1c-1.1,0-2,.9-2,2v40c0,1.1.9,2,2,2h32c1.1,0,2-.9,2-2V13.86c0-1.1-.9-2-2-2h-1c-.55,0-1-.45-1-1s.45-1,1-1h1c2.21,0,4,1.79,4,4v40c0,2.21-1.79,4-4,4Z"/>
  <path class="cls-1" d="m32.1,9.86c-1.1,0-2-.9-2-2s.9-2,2-2,2,.9,2,2-.9,2-2,2Zm0-2h0,0Zm0,0h0,0Zm0,0h0,0Zm0,0h0,0Zm0,0h0,0Zm0,0h0,0Zm0,0h0,0Zm0,0h0,0Z"/>
  <path class="cls-1" d="m41.1,15.86h-18c-1.65,0-3-1.35-3-3v-2.31c0-1.47,1.05-2.72,2.51-2.96l2.88-.48c.39-.06.7-.35.8-.74.68-2.66,3.07-4.52,5.81-4.52s5.14,1.86,5.82,4.52c.1.38.41.67.8.74l2.88.48c1.45.24,2.51,1.49,2.51,2.96v2.31c0,1.65-1.35,3-3,3Zm-9-12c-1.83,0-3.43,1.24-3.88,3.01-.29,1.15-1.24,2.02-2.41,2.22l-2.88.48c-.48.08-.84.5-.84.99v2.31c0,.55.45,1,1,1h18c.55,0,1-.45,1-1v-2.31c0-.49-.35-.91-.83-.99l-2.88-.48c-1.17-.2-2.12-1.07-2.41-2.22-.45-1.77-2.04-3.01-3.88-3.01Z"/>
  <path class="cls-1" d="m41.1,25.86c-.26,0-.51-.1-.71-.29l-3.29-3.29-3.29,3.29c-.39.39-1.02.39-1.41,0s-.39-1.02,0-1.41l4-4c.39-.39,1.02-.39,1.41,0l4,4c.39.39.39,1.02,0,1.41-.2.2-.45.29-.71.29Z"/>
  <path class="cls-1" d="m27.1,27.86c-.26,0-.51-.1-.71-.29l-6-6c-.39-.39-.39-1.02,0-1.41s1.02-.39,1.41,0l6,6c.39.39.39,1.02,0,1.41-.2.2-.45.29-.71.29Z"/>
  <path class="cls-1" d="m21.1,27.86c-.26,0-.51-.1-.71-.29-.39-.39-.39-1.02,0-1.41l6-6c.39-.39,1.02-.39,1.41,0s.39,1.02,0,1.41l-6,6c-.2.2-.45.29-.71.29Z"/>
  <path class="cls-1" d="m39.1,51.86c-.26,0-.51-.1-.71-.29l-6-6c-.39-.39-.39-1.02,0-1.41s1.02-.39,1.41,0l6,6c.39.39.39,1.02,0,1.41-.2.2-.45.29-.71.29Z"/>
  <path class="cls-1" d="m33.1,51.86c-.26,0-.51-.1-.71-.29-.39-.39-.39-1.02,0-1.41l6-6c.39-.39,1.02-.39,1.41,0s.39,1.02,0,1.41l-6,6c-.2.2-.45.29-.71.29Z"/>
  <path class="cls-1" d="m45.1,41.86c-.26,0-.51-.1-.71-.29l-6-6c-.39-.39-.39-1.02,0-1.41s1.02-.39,1.41,0l6,6c.39.39.39,1.02,0,1.41-.2.2-.45.29-.71.29Z"/>
  <path class="cls-1" d="m39.1,41.86c-.26,0-.51-.1-.71-.29-.39-.39-.39-1.02,0-1.41l6-6c.39-.39,1.02-.39,1.41,0s.39,1.02,0,1.41l-6,6c-.2.2-.45.29-.71.29Z"/>
  <path class="cls-1" d="m22.1,39.86c-2.21,0-4-1.79-4-4s1.79-4,4-4,4,1.79,4,4-1.79,4-4,4Zm0-6c-1.1,0-2,.9-2,2s.9,2,2,2,2-.9,2-2-.9-2-2-2Z"/>
  <path class="cls-1" d="m24.1,51.86c-2.21,0-4-1.79-4-4s1.79-4,4-4,4,1.79,4,4-1.79,4-4,4Zm0-6c-1.1,0-2,.9-2,2s.9,2,2,2,2-.9,2-2-.9-2-2-2Z"/>
  <path class="cls-1" d="m25.1,36.86c-.55,0-1-.45-1-1s.45-1,1-1c6.07,0,11-4.93,11-11v-3c0-.55.45-1,1-1s1,.45,1,1v3c0,7.17-5.83,13-13,13Z"/>
</svg>