<?xml version="1.0" encoding="UTF-8"?>
<svg id="Layer_1" data-name="Layer 1" xmlns="http://www.w3.org/2000/svg" viewBox="0 0 60 60">
  <defs>
    <style>
      .cls-1 {
        fill: #37464c;
        stroke-width: 0px;
      }
    </style>
  </defs>
  <g>
    <g>
      <path class="cls-1" d="m26.3,53.91H4.23c-.16,0-.32-.07-.44-.18-.12-.12-.18-.27-.18-.44v-5.35c0-.34.28-.62.62-.62h22.07c.16,0,.32.07.44.18.12.12.18.27.18.44v5.35c0,.34-.28.62-.62.62Zm-21.45-1.24h20.83s0-4.12,0-4.12H4.85s0,4.12,0,4.12Z"/>
      <path class="cls-1" d="m26.3,54.28H4.23c-.26,0-.52-.11-.7-.29-.18-.18-.29-.44-.29-.7v-5.35c0-.55.45-.99.99-.99h22.07c.26,0,.51.1.7.29.19.19.29.44.29.7v5.35c0,.55-.45.99-.99.99Zm-22.07-6.59c-.13,0-.24.11-.24.24v5.35c0,.06.02.12.07.17.05.05.11.07.17.07h22.07c.13,0,.24-.11.24-.24v-5.35c0-.07-.03-.13-.07-.17-.04-.04-.11-.07-.17-.07H4.23Zm21.82,5.35H4.47v-4.87h21.58s0,4.87,0,4.87Zm-20.83-.75h20.08s0-3.37,0-3.37H5.22s0,3.37,0,3.37Z"/>
    </g>
    <g>
      <path class="cls-1" d="m24.97,45.29H5.56c-.34,0-.62-.28-.62-.62s.28-.62.62-.62h19.41c.34,0,.62.28.62.62s-.28.62-.62.62Z"/>
      <path class="cls-1" d="m24.97,45.67H5.56c-.55,0-.99-.45-.99-.99s.44-.99.99-.99h19.41c.55,0,.99.45.99.99s-.44.99-.99.99Zm-19.41-1.24c-.13,0-.24.11-.24.24s.11.24.24.24h19.41c.13,0,.24-.11.24-.24s-.11-.24-.24-.24H5.56Z"/>
    </g>
  </g>
  <g>
    <g>
      <path class="cls-1" d="m25.76,30.14c-.15,0-.3-.06-.42-.17l-7.08-6.63c-.12-.11-.19-.27-.19-.43,0-.16.05-.32.17-.44l6.63-7.08c.23-.25.62-.26.87-.03l7.08,6.63c.12.11.19.27.19.43s-.05.32-.17.44l-6.63,7.08c-.12.13-.29.19-.45.19Zm-6.21-7.28l6.18,5.79,5.79-6.18-6.18-5.79-5.79,6.18Z"/>
      <path class="cls-1" d="m25.76,30.52c-.25,0-.5-.1-.68-.27l-7.08-6.63c-.19-.18-.3-.43-.31-.69,0-.26.08-.51.27-.71l6.64-7.08c.18-.19.43-.3.69-.31.25,0,.52.09.71.27l7.08,6.63c.19.18.3.42.31.69,0,.26-.09.52-.27.71l-6.63,7.08c-.19.2-.45.31-.72.31Zm-.44-14.94h0c-.06,0-.12.03-.17.08l-6.63,7.08s-.07.11-.06.17c0,.07.03.13.08.17l7.08,6.63c.15.14.26.07.34-.01l6.63-7.08s.07-.11.07-.17c0-.06-.03-.12-.08-.17l-7.08-6.63s-.1-.07-.17-.07Zm.43,13.61l-6.73-6.3,6.3-6.72,6.73,6.3-6.3,6.72Zm-5.67-6.34l5.63,5.28,5.28-5.63-5.63-5.28-5.28,5.63Z"/>
    </g>
    <g>
      <path class="cls-1" d="m23.1,36.87c-.15,0-.31-.06-.42-.17l-10.96-10.27c-.16-.15-.23-.36-.18-.57.04-.21.19-.38.39-.46l3.94-1.46c.22-.08.47-.03.64.13l8.22,7.7c.17.16.24.4.17.63l-1.2,4.02c-.06.2-.22.36-.43.42-.05.01-.11.02-.16.02Zm-9.81-10.65l9.5,8.9.8-2.7-7.66-7.18-2.64.98Z"/>
      <path class="cls-1" d="m23.1,37.24c-.25,0-.49-.09-.68-.27l-10.96-10.27c-.25-.23-.36-.58-.29-.92.07-.34.3-.61.63-.73l3.94-1.46c.36-.13.75-.05,1.02.21l8.22,7.7c.28.26.38.64.27,1.01l-1.2,4.02c-.1.33-.36.58-.69.67-.08.02-.17.03-.26.03Zm-7.02-12.96s-.06,0-.08.01l-3.94,1.45c-.08.03-.14.1-.15.18-.02.08.01.17.07.22l10.96,10.27c.06.06.15.08.23.06.08-.02.15-.09.17-.17l1.2-4.02c.03-.09,0-.18-.07-.25l-8.22-7.7s-.11-.06-.17-.06Zm6.9,11.52l-10.39-9.73,3.43-1.27,8,7.5-1.04,3.5Zm-8.99-9.45l8.62,8.07.57-1.9-7.32-6.86-1.86.69Z"/>
    </g>
    <g>
      <path class="cls-1" d="m35,21.43c-.15,0-.31-.06-.42-.17l-8.22-7.7c-.17-.16-.24-.4-.17-.63l1.2-4.02c.06-.2.22-.36.43-.42.21-.06.43,0,.58.15l10.96,10.27c.16.15.23.36.18.57-.04.21-.19.38-.39.46l-3.94,1.46c-.07.03-.14.04-.21.04Zm-7.52-8.51l7.66,7.18,2.64-.98-9.5-8.9-.8,2.7Z"/>
      <path class="cls-1" d="m35,21.81c-.25,0-.5-.1-.68-.27l-8.22-7.7c-.28-.26-.38-.64-.27-1.01l1.2-4.02c.1-.33.36-.58.69-.67.34-.09.68,0,.94.23l10.96,10.27c.25.23.36.58.29.92-.07.34-.31.62-.63.73l-3.94,1.46c-.11.04-.23.06-.34.06Zm-7.02-12.96s-.04,0-.06,0c-.08.02-.15.08-.17.16l-1.2,4.02c-.03.09,0,.18.07.25l8.22,7.7c.07.06.16.08.25.05l3.94-1.46c.08-.03.14-.1.15-.18.02-.08-.01-.17-.07-.22l-10.96-10.27s-.1-.07-.16-.07Zm7.08,11.69l-8-7.5,1.04-3.5,10.39,9.73-3.43,1.27Zm-7.15-7.73l7.32,6.86,1.86-.69-8.62-8.07-.57,1.9Z"/>
    </g>
    <g>
      <path class="cls-1" d="m51.51,50.94c-.16,0-.32-.06-.44-.18l-21.27-21.22c-.24-.24-.24-.62-.01-.86l2.03-2.17c.23-.24.61-.26.86-.04l22.56,19.85c.13.11.2.27.21.43,0,.17-.05.33-.17.45l-3.32,3.54c-.11.12-.27.19-.44.19h-.01Zm-20.42-21.85l20.4,20.35,2.45-2.61-21.63-19.04-1.22,1.3Z"/>
      <path class="cls-1" d="m51.52,51.32h-.01c-.26,0-.51-.1-.7-.29l-21.28-21.22c-.38-.38-.39-.99-.02-1.38l2.03-2.17c.37-.39.97-.42,1.38-.07l22.56,19.85c.2.18.32.43.33.7.01.27-.08.53-.27.72l-3.32,3.54c-.18.19-.44.31-.71.31h0Zm-19.25-24.62c-.06,0-.13.03-.18.08l-2.03,2.17c-.09.09-.09.25,0,.34l21.27,21.22s.11.07.17.07h.01c.06,0,.12-.03.17-.08l3.32-3.54s.07-.11.06-.18c0-.07-.03-.13-.08-.17l-22.56-19.85s-.1-.06-.16-.06Zm19.24,23.29l-20.93-20.88,1.71-1.83,22.2,19.53-2.98,3.17Zm-19.89-20.9l19.87,19.82,1.92-2.04-21.07-18.54-.72.77Z"/>
    </g>
    <g>
      <path class="cls-1" d="m53.9,53.19c-.15,0-.3-.06-.42-.17-.25-.23-.26-.62-.03-.87l3.32-3.54c.23-.25.62-.26.87-.03.25.23.26.62.03.87l-3.32,3.54c-.12.13-.29.19-.45.19Z"/>
      <path class="cls-1" d="m53.9,53.56c-.25,0-.49-.09-.68-.27-.4-.38-.42-1-.05-1.4l3.32-3.54c.18-.19.43-.3.69-.31.26,0,.52.09.71.27.4.37.42,1,.04,1.4l-3.32,3.54c-.19.2-.45.31-.72.31Zm3.32-4.77h0c-.06,0-.12.03-.17.08l-3.32,3.54c-.09.1-.08.25.01.34.07.07.18.16.34-.01l3.32-3.54s.07-.11.06-.17c0-.06-.03-.12-.08-.17-.04-.04-.1-.07-.17-.07Z"/>
    </g>
  </g>
</svg>