<?xml version="1.0" encoding="UTF-8"?>
<svg id="Layer_1" data-name="Layer 1" xmlns="http://www.w3.org/2000/svg" viewBox="0 0 60 60">
  <defs>
    <style>
      .cls-1 {
        fill: #37464c;
        stroke-width: 0px;
      }
    </style>
  </defs>
  <path class="cls-1" d="m18,51.58c-1.65,0-3-1.35-3-3s1.35-3,3-3,3,1.35,3,3-1.35,3-3,3Zm0-4c-.55,0-1,.45-1,1s.45,1,1,1,1-.45,1-1-.45-1-1-1Z"/>
  <path class="cls-1" d="m46,55.58h-30c-1.91,0-3.69-.75-5.02-2.13-1.33-1.37-2.03-3.18-1.97-5.09.11-3.74,3.36-6.79,7.25-6.79h29.75c3.86,0,7,3.14,7,7s-3.14,7-7,7Zm-29.75-12c-2.81,0-5.17,2.17-5.25,4.85-.04,1.37.46,2.66,1.41,3.64.95.98,2.22,1.52,3.59,1.52h30c2.76,0,5-2.24,5-5s-2.24-5-5-5h-29.75Z"/>
  <path class="cls-1" d="m37,20.58c-2.76,0-5-2.24-5-5s2.24-5,5-5,5,2.24,5,5-2.24,5-5,5Zm0-8c-1.65,0-3,1.35-3,3s1.35,3,3,3,3-1.35,3-3-1.35-3-3-3Z"/>
  <path class="cls-1" d="m37,27.58c-.58,0-1.16-.04-1.73-.12-.44-.06-.78-.41-.85-.85l-.23-1.6c-.65-.19-1.28-.45-1.87-.77l-1.29.97c-.35.27-.84.27-1.2,0-.47-.35-.91-.73-1.31-1.13-.4-.4-.79-.85-1.14-1.31-.26-.36-.26-.84,0-1.2l.97-1.29c-.32-.6-.58-1.22-.77-1.87l-1.61-.23c-.44-.06-.78-.41-.85-.85-.17-1.15-.17-2.31,0-3.46.06-.44.41-.78.85-.85l1.6-.23c.19-.65.45-1.27.77-1.87l-.97-1.29c-.27-.35-.27-.84,0-1.2.35-.47.73-.91,1.14-1.31.41-.41.85-.79,1.31-1.13.36-.27.84-.27,1.2,0l1.29.97c.6-.32,1.22-.58,1.87-.77l.23-1.6c.06-.44.41-.78.85-.85,1.15-.17,2.31-.17,3.46,0,.44.06.78.41.85.85l.23,1.6c.65.19,1.28.45,1.87.77l1.29-.97c.35-.27.84-.27,1.2,0,.47.35.91.73,1.31,1.13.4.4.79.85,1.14,1.31.26.36.26.84,0,1.2l-.97,1.29c.32.6.58,1.22.77,1.87l1.61.23c.44.06.78.41.85.85.17,1.15.17,2.31,0,3.46-.06.44-.41.78-.85.85l-1.6.23c-.19.65-.45,1.27-.77,1.87l.97,1.29c.27.35.27.84,0,1.2-.35.47-.73.91-1.14,1.31-.4.4-.84.78-1.31,1.13-.36.27-.84.27-1.2,0l-1.29-.97c-.6.32-1.22.58-1.87.77l-.23,1.6c-.06.44-.41.78-.85.85-.58.08-1.16.12-1.73.12Zm-.71-2.02c.47.03.95.03,1.42,0l.21-1.5c.06-.41.37-.75.78-.84.87-.19,1.74-.55,2.51-1.04.35-.22.8-.2,1.13.04l1.21.9c.18-.16.35-.32.52-.48.17-.17.33-.34.48-.52l-.9-1.21c-.25-.33-.27-.78-.04-1.14.49-.77.85-1.64,1.04-2.51.09-.41.42-.72.84-.78l1.5-.21c.03-.47.03-.95,0-1.42l-1.5-.21c-.41-.06-.75-.37-.83-.77-.2-.9-.55-1.74-1.04-2.52-.22-.35-.21-.8.04-1.14l.9-1.21c-.16-.18-.32-.35-.48-.52-.17-.17-.34-.33-.52-.48l-1.2.9c-.33.25-.79.27-1.14.04-.77-.49-1.62-.84-2.52-1.04-.41-.09-.72-.42-.78-.84l-.21-1.5c-.47-.03-.95-.03-1.42,0l-.21,1.5c-.06.41-.37.75-.78.84-.87.19-1.74.55-2.51,1.04-.35.22-.8.21-1.13-.04l-1.21-.9c-.18.16-.35.32-.52.48s-.33.34-.48.52l.9,1.21c.25.33.27.78.04,1.14-.5.78-.84,1.63-1.04,2.51-.09.41-.42.72-.83.78l-1.5.21c-.03.47-.03.94,0,1.42l1.5.21c.41.06.75.37.83.77.2.9.55,1.74,1.04,2.52.22.35.21.8-.04,1.14l-.9,1.21c.16.18.32.35.48.52.17.17.34.33.52.48l1.21-.9c.33-.25.79-.27,1.14-.04.77.49,1.62.84,2.51,1.04.41.09.72.42.78.84l.21,1.5Z"/>
  <path class="cls-1" d="m36,51.58c-.55,0-1-.45-1-1v-4c0-.55.45-1,1-1s1,.45,1,1v4c0,.55-.45,1-1,1Z"/>
  <path class="cls-1" d="m40,51.58c-.55,0-1-.45-1-1v-4c0-.55.45-1,1-1s1,.45,1,1v4c0,.55-.45,1-1,1Z"/>
  <path class="cls-1" d="m44,51.58c-.55,0-1-.45-1-1v-4c0-.55.45-1,1-1s1,.45,1,1v4c0,.55-.45,1-1,1Z"/>
  <path class="cls-1" d="m18,39.58c-1.65,0-3-1.35-3-3s1.35-3,3-3,3,1.35,3,3-1.35,3-3,3Zm0-4c-.55,0-1,.45-1,1s.45,1,1,1,1-.45,1-1-.45-1-1-1Z"/>
  <path class="cls-1" d="m46,43.58h-30c-1.91,0-3.69-.75-5.02-2.13-1.33-1.37-2.03-3.18-1.97-5.09.11-3.74,3.36-6.79,7.25-6.79h29.75c3.86,0,7,3.14,7,7s-3.14,7-7,7Zm-29.75-12c-2.81,0-5.17,2.17-5.25,4.85-.04,1.37.46,2.66,1.41,3.64.95.98,2.22,1.52,3.59,1.52h30c2.76,0,5-2.24,5-5s-2.24-5-5-5h-29.75Z"/>
  <path class="cls-1" d="m36,39.58c-.55,0-1-.45-1-1v-4c0-.55.45-1,1-1s1,.45,1,1v4c0,.55-.45,1-1,1Z"/>
  <path class="cls-1" d="m40,39.58c-.55,0-1-.45-1-1v-4c0-.55.45-1,1-1s1,.45,1,1v4c0,.55-.45,1-1,1Z"/>
  <path class="cls-1" d="m44,39.58c-.55,0-1-.45-1-1v-4c0-.55.45-1,1-1s1,.45,1,1v4c0,.55-.45,1-1,1Z"/>
  <path class="cls-1" d="m18,27.58c-1.65,0-3-1.35-3-3s1.35-3,3-3,3,1.35,3,3-1.35,3-3,3Zm0-4c-.55,0-1,.45-1,1s.45,1,1,1,1-.45,1-1-.45-1-1-1Z"/>
  <path class="cls-1" d="m46,31.58h-30c-1.91,0-3.69-.75-5.02-2.13-1.33-1.37-2.03-3.18-1.97-5.09.11-3.74,3.36-6.79,7.25-6.79h12.45v2h-12.45c-2.81,0-5.17,2.17-5.25,4.85-.04,1.37.46,2.66,1.41,3.64.95.98,2.22,1.52,3.59,1.52h30c2.76,0,5-2.24,5-5s-2.24-5-5-5h-.7v-2h.7c3.86,0,7,3.14,7,7s-3.14,7-7,7Z"/>
</svg>