<?xml version="1.0" encoding="UTF-8"?>
<svg id="Layer_1" data-name="Layer 1" xmlns="http://www.w3.org/2000/svg" viewBox="0 0 60 60">
  <defs>
    <style>
      .cls-1 {
        fill: #37464c;
        stroke-width: 0px;
      }
    </style>
  </defs>
  <path class="cls-1" d="m23.81,49.88c-.66,0-1.32-.03-1.97-.09-.56-.05-1.26-.41-1.46-1.08-.55-1.94-.83-3.04-.96-3.7-1.31-.36-2.56-.88-3.74-1.54-.56.36-1.54.95-3.3,1.93-.62.33-1.36.09-1.8-.27-.99-.82-1.92-1.75-2.75-2.75-.37-.45-.6-1.2-.26-1.8.98-1.76,1.56-2.74,1.93-3.29-.67-1.18-1.19-2.43-1.55-3.73-.65-.14-1.76-.42-3.7-.97-.67-.19-1.03-.89-1.08-1.46-.12-1.3-.12-2.61,0-3.9.05-.56.41-1.27,1.08-1.46,1.94-.55,3.05-.83,3.7-.96.37-1.34.88-2.59,1.54-3.75-.36-.56-.95-1.54-1.93-3.3-.31-.67-.07-1.39.27-1.8.83-1,1.75-1.92,2.76-2.75.4-.34,1.11-.58,1.72-.3,1.81,1.01,2.8,1.6,3.37,1.98,1.18-.67,2.43-1.19,3.73-1.55.14-.65.42-1.76.97-3.71.26-.7.93-1.03,1.46-1.08,1.29-.12,2.6-.12,3.89,0,.57.05,1.27.41,1.46,1.08.55,1.94.83,3.05.96,3.71,1.31.36,2.56.88,3.74,1.55.56-.37,1.54-.96,3.3-1.94.61-.34,1.36-.1,1.8.27.43.35.84.73,1.24,1.11.4.39.4,1.02.02,1.41s-1.02.4-1.41.02c-.32-.31-.64-.61-.98-.89-2.51,1.4-3.09,1.83-3.2,1.91-.13.13-.3.22-.48.27-.26.06-.53.02-.76-.13-1.34-.84-2.81-1.45-4.37-1.81-.46-.11-.77-.52-.77-.97-.02-.14-.13-.85-.9-3.62-1.05-.09-2.11-.09-3.17,0-.77,2.75-.89,3.48-.91,3.62,0,.46-.31.87-.77.97-1.55.36-3.02.97-4.37,1.81-.23.14-.5.19-.76.12-.18-.04-.35-.14-.48-.27-.11-.08-.69-.51-3.19-1.92-.81.68-1.56,1.43-2.24,2.23,1.4,2.5,1.83,3.09,1.91,3.2.32.32.39.83.14,1.23-.83,1.34-1.44,2.81-1.81,4.37-.06.26-.22.49-.45.63-.15.09-.33.15-.51.15h0c-.06,0-.67.07-3.63.9-.09,1.05-.09,2.11,0,3.16,2.77.78,3.49.89,3.62.91.45,0,.86.31.97.77.36,1.55.97,3.01,1.81,4.37.14.23.19.5.12.76-.04.18-.14.35-.27.48-.08.11-.51.69-1.91,3.19.68.81,1.43,1.56,2.23,2.23,2.5-1.4,3.09-1.83,3.2-1.91.32-.32.83-.39,1.23-.14,1.34.84,2.82,1.44,4.37,1.8.26.06.48.22.62.45.1.16.15.34.15.53.02.13.13.84.91,3.61,1.06.09,2.12.09,3.16,0,.72-2.56.87-3.2.9-3.34,0-.03,0-.07.01-.1.08-.41.4-.72.8-.79,1.28-.23,2.56-1.05,3.81-1.84l.51-.32c.4-.25.91-.18,1.23.14.11.08.69.51,3.2,1.91.8-.68,1.55-1.43,2.23-2.23-.59-1.06-1.08-1.9-1.44-2.48-.29-.47-.15-1.09.32-1.38.47-.29,1.09-.15,1.38.32.42.67.98,1.64,1.67,2.88.34.61.1,1.36-.27,1.8-.83,1-1.75,1.92-2.75,2.75-.44.37-1.2.6-1.8.26-1.74-.97-2.72-1.55-3.28-1.92-1.15.73-2.43,1.53-3.81,1.92-.16.69-.45,1.72-.91,3.32-.19.66-.89,1.03-1.46,1.08-.64.06-1.28.09-1.93.09Zm-1.79-2.09h0,0Zm14.14-4.15s0,0,0,0c0,0,0,0,0,0Zm-26.85-2.09s0,0,0,0c0,0,0,0,0,0Zm-4.52-13.86s0,0,0,0c0,0,0,0,0,0Zm.36-.28h0s0,0,0,0Zm6.71-12.66s0,0,0,0c0,0,0,0,0,0Zm11.91,24.48c-.7,0-1.4-.07-2.1-.22-2.63-.56-4.89-2.1-6.35-4.36-1.47-2.25-1.97-4.94-1.41-7.58.85-4,3.99-7.07,8.01-7.81,1.3-.24,2.62-.22,3.92.05,5.43,1.15,8.91,6.5,7.76,11.93-.85,4-3.99,7.06-8.01,7.81h0c-.61.11-1.22.17-1.83.17Zm-.02-18.14c-.49,0-.98.05-1.47.14-3.22.6-5.74,3.06-6.42,6.26-.45,2.11-.05,4.27,1.13,6.07,1.17,1.8,2.98,3.04,5.09,3.49,1.05.22,2.11.24,3.14.04t0,0c3.22-.6,5.74-3.06,6.42-6.26.92-4.35-1.87-8.64-6.22-9.56-.56-.12-1.12-.18-1.68-.18Z"/>
  <path class="cls-1" d="m37.55,38.48s-.06,0-.1,0c-.09,0-.19-.02-.28-.03-.55-.08-.93-.58-.85-1.13.08-.55.58-.92,1.13-.85l.19.02c.55.05.95.54.9,1.09-.05.52-.48.9-.99.9Z"/>
  <path class="cls-1" d="m47.73,58.41h-7.41c-1.24,0-2.29-.99-2.39-2.25l-.96-12.94c-.04-.55.37-1.03.92-1.07.57-.05,1.03.37,1.07.92l.96,12.94c.02.21.2.4.39.4h7.41c.19,0,.38-.19.39-.4l1.38-18.6c.04-.49.42-.88.9-.92l.19-.02c1.57-.23,3.26-1.48,3.34-2.47l1.02-13.95c0-2.12-1.73-3.94-3.84-4h-14.22c-2.08.05-3.8,1.88-3.8,4.08,0,.09,0,.13,0,.19l1.02,13.7c.09.98,1.78,2.22,3.35,2.45.55.08.92.59.84,1.14-.08.55-.59.93-1.14.84-1.98-.29-4.84-1.94-5.05-4.27l-1.02-13.74c-.01-.19,0-.31,0-.38,0-3.21,2.59-5.93,5.78-6.01h14.27c3.22.08,5.82,2.8,5.82,6.07l-1.03,14.03c-.17,1.98-2.36,3.66-4.49,4.18l-1.32,17.82c-.09,1.26-1.14,2.25-2.39,2.25Z"/>
  <path class="cls-1" d="m44.02,13.28c-3.05,0-5.54-2.49-5.54-5.54s2.49-5.54,5.54-5.54,5.54,2.49,5.54,5.54-2.49,5.54-5.54,5.54Zm0-9.08c-1.95,0-3.54,1.59-3.54,3.54s1.59,3.54,3.54,3.54,3.54-1.59,3.54-3.54-1.59-3.54-3.54-3.54Z"/>
  <path class="cls-1" d="m44.02,58.41c-.55,0-1-.45-1-1v-21.23c0-.55.45-1,1-1s1,.45,1,1v21.23c0,.55-.45,1-1,1Z"/>
  <path class="cls-1" d="m37.55,38.48c-.52,0-.96-.4-1-.93l-1.15-15.51c-.04-.55.37-1.03.92-1.07.57-.05,1.03.37,1.07.92l1.15,15.51c.04.55-.37,1.03-.92,1.07-.03,0-.05,0-.08,0Z"/>
  <path class="cls-1" d="m50.49,38.48s-.05,0-.08,0c-.55-.04-.96-.52-.92-1.07l1.15-15.51c.04-.55.5-.97,1.07-.92.55.04.96.52.92,1.07l-1.15,15.51c-.04.53-.48.93-1,.93Z"/>
</svg>