<?xml version="1.0" encoding="UTF-8"?>
<svg id="Layer_1" data-name="Layer 1" xmlns="http://www.w3.org/2000/svg" viewBox="0 0 60 60">
  <defs>
    <style>
      .cls-1 {
        fill: #37464c;
        stroke-width: 0px;
      }
    </style>
  </defs>
  <g>
    <g>
      <path class="cls-1" d="m30.41,41.12c-6.51,0-11.81-5.07-11.81-11.3s5.3-11.3,11.81-11.3,11.81,5.07,11.81,11.3-5.3,11.3-11.81,11.3Zm0-21.34c-5.79,0-10.5,4.51-10.5,10.05s4.71,10.05,10.5,10.05,10.5-4.51,10.5-10.05-4.71-10.05-10.5-10.05Z"/>
      <path class="cls-1" d="m30.41,41.24c-6.58,0-11.94-5.12-11.94-11.42s5.36-11.42,11.94-11.42,11.94,5.12,11.94,11.42-5.36,11.42-11.94,11.42Zm0-22.6c-6.45,0-11.69,5.01-11.69,11.17s5.24,11.17,11.69,11.17,11.69-5.01,11.69-11.17-5.24-11.17-11.69-11.17Zm0,21.34c-5.86,0-10.63-4.56-10.63-10.17s4.77-10.17,10.63-10.17,10.63,4.56,10.63,10.17-4.77,10.17-10.63,10.17Zm0-20.09c-5.72,0-10.38,4.45-10.38,9.92s4.66,9.92,10.38,9.92,10.38-4.45,10.38-9.92-4.66-9.92-10.38-9.92Z"/>
    </g>
    <g>
      <path class="cls-1" d="m30.41,40.92c-.09,0-.18-.02-.27-.05-4.46-1.89-7.22-6.13-7.22-11.05s2.79-9.21,7.1-11.15c.33-.15.72-.01.87.3.15.31.01.69-.31.83-3.91,1.76-6.35,5.6-6.35,10.02s2.47,8.21,6.45,9.9c.33.14.48.51.33.83-.11.23-.35.37-.6.37Z"/>
      <path class="cls-1" d="m30.41,41.05c-.11,0-.21-.02-.31-.06-4.5-1.92-7.3-6.19-7.3-11.17s2.82-9.31,7.17-11.26c.39-.17.85-.01,1.04.36.09.18.1.38.03.57-.07.19-.21.35-.41.43-3.87,1.74-6.27,5.53-6.27,9.9s2.44,8.12,6.37,9.79c.19.08.34.23.42.43.07.19.06.39-.02.57-.13.27-.4.44-.71.44Zm-.11-22.31c-.08,0-.15.02-.23.05-4.27,1.92-7.03,6.25-7.03,11.04s2.74,9.06,7.15,10.93c.27.11.59,0,.7-.26.06-.12.06-.25.01-.37-.05-.13-.15-.23-.28-.29-4.02-1.71-6.52-5.55-6.52-10.02s2.46-8.35,6.42-10.13c.13-.06.23-.16.27-.29.04-.12.04-.26-.02-.37-.09-.18-.28-.29-.48-.29Z"/>
    </g>
    <g>
      <path class="cls-1" d="m30.41,40.92c-.25,0-.49-.14-.6-.37-.15-.32,0-.69.33-.83,4.02-1.75,6.52-5.54,6.52-9.91s-2.56-8.27-6.53-10.04c-.33-.15-.47-.52-.32-.83.15-.31.54-.45.87-.3,4.43,1.98,7.29,6.37,7.29,11.18s-2.79,9.09-7.29,11.05c-.09.04-.18.06-.27.06Z"/>
      <path class="cls-1" d="m30.42,41.05c-.3,0-.58-.17-.71-.44-.09-.18-.09-.38-.02-.57.07-.19.22-.35.41-.43,3.98-1.73,6.45-5.48,6.45-9.79s-2.53-8.17-6.46-9.93c-.19-.09-.34-.24-.41-.43-.07-.19-.06-.39.03-.57.18-.37.65-.53,1.04-.36,4.47,2,7.36,6.44,7.36,11.29s-2.82,9.19-7.37,11.16c-.1.04-.21.07-.32.07Zm0-22.34c-.2,0-.39.11-.48.29-.06.12-.06.25-.02.37.05.13.14.23.27.29,4.01,1.8,6.6,5.78,6.6,10.16s-2.53,8.25-6.6,10.02c-.13.06-.23.16-.28.29-.05.12-.04.25.02.37.12.25.45.36.71.25,4.45-1.93,7.22-6.12,7.22-10.93s-2.83-9.1-7.21-11.06c-.07-.03-.15-.05-.23-.05Z"/>
    </g>
    <g>
      <path class="cls-1" d="m30.41,40.98c-.36,0-.66-.28-.66-.63v-20.92c0-.35.29-.63.66-.63s.66.28.66.63v20.92c0,.35-.29.63-.66.63Z"/>
      <path class="cls-1" d="m30.41,41.1c-.43,0-.78-.34-.78-.75v-20.92c0-.41.35-.75.78-.75s.78.34.78.75v20.92c0,.42-.35.75-.78.75Zm0-22.17c-.29,0-.53.23-.53.5v20.92c0,.28.24.5.53.5s.53-.23.53-.5v-20.92c0-.28-.24-.5-.53-.5Z"/>
    </g>
    <g>
      <path class="cls-1" d="m38.97,37.11c-.1,0-.2-.02-.3-.07-2.44-1.21-5.29-1.85-8.26-1.85s-5.82.64-8.26,1.85c-.32.16-.72.04-.88-.27-.17-.31-.04-.69.28-.85,2.62-1.3,5.69-1.99,8.86-1.99s6.23.69,8.86,1.99c.32.16.45.54.28.84-.12.21-.35.34-.58.34Z"/>
      <path class="cls-1" d="m38.97,37.23c-.12,0-.25-.03-.36-.08-2.42-1.2-5.26-1.84-8.2-1.84s-5.78.63-8.2,1.84c-.38.19-.85.05-1.05-.32-.1-.18-.12-.38-.06-.57.06-.2.2-.36.39-.45,2.64-1.31,5.72-2,8.91-2s6.27.69,8.91,2c.19.09.33.25.39.45.06.19.04.39-.05.57-.14.25-.4.4-.69.4Zm-8.56-2.17c2.98,0,5.85.64,8.31,1.86.26.13.59.03.72-.21.06-.12.08-.25.04-.37-.04-.13-.13-.24-.26-.3-2.61-1.29-5.65-1.98-8.8-1.98s-6.2.68-8.8,1.98c-.13.06-.22.17-.26.3-.04.12-.03.26.04.37.14.25.46.35.72.21,2.46-1.22,5.33-1.86,8.31-1.86Z"/>
    </g>
    <g>
      <path class="cls-1" d="m30.41,25.49c-3.11,0-6.04-.67-8.69-1.98-.32-.16-.45-.54-.28-.84.17-.31.56-.43.88-.27,2.47,1.22,5.19,1.84,8.09,1.84s5.65-.6,8.04-1.74c.32-.15.72-.03.88.28.16.31.03.69-.29.84-2.57,1.23-5.55,1.87-8.62,1.87Z"/>
      <path class="cls-1" d="m30.41,25.61c-3.13,0-6.07-.67-8.75-2-.19-.09-.33-.25-.39-.45-.06-.19-.04-.39.05-.57.2-.37.67-.51,1.05-.32,2.45,1.21,5.16,1.83,8.03,1.83s5.61-.6,7.98-1.73c.38-.18.85-.03,1.04.34.09.18.11.38.05.57-.06.2-.21.35-.4.44-2.58,1.23-5.58,1.89-8.67,1.89Zm-8.39-3.17c-.19,0-.38.1-.47.27-.06.12-.08.25-.04.37.04.13.13.24.26.3,2.64,1.31,5.54,1.97,8.64,1.97s6.02-.64,8.57-1.86c.13-.06.22-.17.27-.3.04-.12.03-.26-.03-.37-.13-.25-.45-.35-.71-.23-2.4,1.15-5.2,1.75-8.09,1.75s-5.66-.62-8.15-1.85c-.08-.04-.16-.06-.25-.06Z"/>
    </g>
    <g>
      <path class="cls-1" d="m41.43,30.45h-22.02c-.36,0-.66-.28-.66-.63s.29-.63.66-.63h22.02c.36,0,.66.28.66.63s-.29.63-.66.63Z"/>
      <path class="cls-1" d="m41.43,30.57h-22.02c-.43,0-.78-.34-.78-.75s.35-.75.78-.75h22.02c.43,0,.78.34.78.75s-.35.75-.78.75Zm-22.02-1.25c-.29,0-.53.23-.53.5s.24.5.53.5h22.02c.29,0,.53-.23.53-.5s-.24-.5-.53-.5h-22.02Z"/>
    </g>
  </g>
  <g>
    <path class="cls-1" d="m40.48,55.7h-23.47c-3.17,0-5.74-2.46-5.74-5.49V11.49c0-3.03,2.58-5.49,5.74-5.49h23.47c5.57,0,10.1,4.33,10.1,9.66v30.39c0,5.33-4.53,9.66-10.1,9.66ZM17.01,7.12c-2.52,0-4.57,1.96-4.57,4.37v38.72c0,2.41,2.05,4.37,4.57,4.37h23.47c4.92,0,8.93-3.83,8.93-8.54V15.65c0-4.71-4.01-8.54-8.93-8.54h-23.47Z"/>
    <path class="cls-1" d="m40.48,55.95h-23.47c-3.3,0-5.99-2.58-5.99-5.74V11.49c0-3.17,2.69-5.74,5.99-5.74h23.47c5.71,0,10.35,4.45,10.35,9.91v30.39c0,5.46-4.64,9.91-10.35,9.91ZM17.01,6.24c-3.03,0-5.49,2.35-5.49,5.24v38.72c0,2.89,2.46,5.24,5.49,5.24h23.47c5.43,0,9.85-4.22,9.85-9.41V15.65c0-5.19-4.42-9.41-9.85-9.41h-23.47Zm23.47,48.59h-23.47c-2.66,0-4.82-2.07-4.82-4.62V11.49c0-2.55,2.16-4.62,4.82-4.62h23.47c5.06,0,9.18,3.94,9.18,8.79v30.39c0,4.85-4.12,8.79-9.18,8.79ZM17.01,7.37c-2.38,0-4.32,1.85-4.32,4.12v38.72c0,2.27,1.94,4.12,4.32,4.12h23.47c4.79,0,8.68-3.72,8.68-8.29V15.65c0-4.57-3.89-8.29-8.68-8.29h-23.47Z"/>
  </g>
</svg>