<?xml version="1.0" encoding="UTF-8"?>
<svg id="Layer_1" data-name="Layer 1" xmlns="http://www.w3.org/2000/svg" viewBox="0 0 60 60">
  <defs>
    <style>
      .cls-1 {
        fill: #37464c;
        stroke-width: 0px;
      }
    </style>
  </defs>
  <rect class="cls-1" x="29" y="4.58" width="2" height="46"/>
  <path class="cls-1" d="m49,28.58H7c-.55,0-1-.45-1-1s.45-1,1-1h42c.55,0,1,.45,1,1s-.45,1-1,1Z"/>
  <path class="cls-1" d="m32,39.58H9.8c-.55,0-1-.45-1-1s.45-1,1-1h22.2c.55,0,1,.45,1,1s-.45,1-1,1Z"/>
  <path class="cls-1" d="m46.2,17.58H9.8c-.55,0-1-.45-1-1s.45-1,1-1h36.41c.55,0,1,.45,1,1s-.45,1-1,1Z"/>
  <path class="cls-1" d="m30,51.58c-13.23,0-24-10.77-24-24S16.77,3.58,30,3.58s24,10.77,24,24c0,2.3-.33,4.58-.98,6.78-.16.53-.71.83-1.24.68-.53-.16-.83-.71-.68-1.24.6-2.02.9-4.11.9-6.22,0-12.13-9.87-22-22-22S8,15.45,8,27.58s9.87,22,22,22c2.1,0,4.2-.3,6.22-.9.53-.15,1.09.15,1.24.68.16.53-.15,1.09-.68,1.24-2.21.65-4.49.98-6.78.98Z"/>
  <path class="cls-1" d="m30,51.58c-7.85,0-14-10.54-14-24S22.15,3.58,30,3.58s14,10.54,14,24c0,1.01-.04,2.06-.12,3.13-.04.55-.53.96-1.07.92-.55-.04-.96-.52-.92-1.07.08-1.02.12-2.02.12-2.98,0-12.13-5.38-22-12-22s-12,9.87-12,22,5.38,22,12,22c.55,0,1,.45,1,1s-.45,1-1,1Z"/>
  <path class="cls-1" d="m48.73,50.58c-.26,0-.51-.1-.71-.29l-4.85-4.85-1.71,3.99c-.16.38-.56.63-.94.61-.41,0-.77-.27-.91-.65l-6.55-17.45c-.14-.37-.05-.78.23-1.06.28-.28.69-.37,1.06-.23l17.45,6.55c.38.14.64.51.65.91,0,.41-.23.78-.61.94l-3.99,1.71,4.85,4.85c.39.39.39,1.02,0,1.41l-3.27,3.27c-.2.2-.45.29-.71.29Zm-5.89-7.89c.26,0,.52.1.71.29l5.18,5.18,1.86-1.86-5.18-5.18c-.23-.23-.34-.57-.28-.9.06-.33.28-.6.59-.73l3.06-1.31-13.06-4.9,4.9,13.06,1.31-3.06c.13-.3.4-.52.73-.59.06-.01.13-.02.19-.02Z"/>
</svg>