<?xml version="1.0" encoding="UTF-8"?>
<svg id="Layer_1" data-name="Layer 1" xmlns="http://www.w3.org/2000/svg" viewBox="0 0 60 60">
  <defs>
    <style>
      .cls-1 {
        fill: #37464c;
        stroke-width: 0px;
      }
    </style>
  </defs>
  <path class="cls-1" d="m27,49.1c-7.17,0-13-5.83-13-13s5.83-13,13-13,13,5.83,13,13-5.83,13-13,13Zm0-24c-6.07,0-11,4.93-11,11s4.93,11,11,11,11-4.93,11-11-4.93-11-11-11Z"/>
  <path class="cls-1" d="m27,48.6c-3.42,0-6-5.37-6-12.5s2.58-12.5,6-12.5,6,5.37,6,12.5-2.58,12.5-6,12.5Zm0-23c-1.89,0-4,4.49-4,10.5s2.11,10.5,4,10.5,4-4.49,4-10.5-2.11-10.5-4-10.5Z"/>
  <path class="cls-1" d="m42,55.1H12c-2.21,0-4-1.79-4-4V14.1c0-.55.45-1,1-1h36c.55,0,1,.45,1,1v37c0,2.21-1.79,4-4,4ZM10,15.1v36c0,1.1.9,2,2,2h30c1.1,0,2-.9,2-2V15.1H10Z"/>
  <path class="cls-1" d="m48,55.1h-6v-2h6c1.1,0,2-.9,2-2V15.1h-5v-2h6c.55,0,1,.45,1,1v37c0,2.21-1.79,4-4,4Z"/>
  <path class="cls-1" d="m19,21.1c-1.1,0-2-.9-2-2s.9-2,2-2,2,.9,2,2-.9,2-2,2Zm0-2h0s0,0,0,0Z"/>
  <path class="cls-1" d="m35,21.1c-1.1,0-2-.9-2-2s.9-2,2-2,2,.9,2,2-.9,2-2,2Zm0-2h0s0,0,0,0Z"/>
  <rect class="cls-1" x="16.1" y="30.1" width="21.8" height="2"/>
  <rect class="cls-1" x="16.1" y="40.1" width="21.8" height="2"/>
  <path class="cls-1" d="m36,19.1h-2v-7c0-3.86-3.14-7-7-7s-7,3.14-7,7v7h-2v-7c0-4.96,4.04-9,9-9s9,4.04,9,9v7Z"/>
  <path class="cls-1" d="m42,14.1h-2v-2c0-3.86-3.14-7-7-7s-7,3.14-7,7v2h-2v-2c0-4.96,4.04-9,9-9s9,4.04,9,9v2Z"/>
</svg>