<?xml version="1.0" encoding="UTF-8"?>
<svg id="Layer_1" data-name="Layer 1" xmlns="http://www.w3.org/2000/svg" viewBox="0 0 60 60">
  <defs>
    <style>
      .cls-1 {
        fill: #37464c;
        stroke-width: 0px;
      }
    </style>
  </defs>
  <path class="cls-1" d="m37,32.5c-.26,0-.51-.1-.71-.29-.39-.39-.39-1.02,0-1.41l14-14c.39-.39,1.02-.39,1.41,0l2.29,2.29v-8.59h-8.59l2.29,2.29c.39.39.39,1.02,0,1.41l-10,10c-.39.39-1.02.39-1.41,0s-.39-1.02,0-1.41l9.29-9.29-3.29-3.29c-.29-.29-.37-.72-.22-1.09.15-.37.52-.62.92-.62h12c.55,0,1,.45,1,1v12c0,.4-.24.77-.62.92-.37.16-.8.07-1.09-.22l-3.29-3.29-13.29,13.29c-.2.2-.45.29-.71.29Z"/>
  <path class="cls-1" d="m5,40.5c-.26,0-.51-.1-.71-.29-.39-.39-.39-1.02,0-1.41l20-20c.39-.39,1.02-.39,1.41,0l4,4c.39.39.39,1.02,0,1.41s-1.02.39-1.41,0l-3.29-3.29L5.71,40.21c-.2.2-.45.29-.71.29Z"/>
  <path class="cls-1" d="m5,48.5c-.26,0-.51-.1-.71-.29-.39-.39-.39-1.02,0-1.41l20-20c.39-.39,1.02-.39,1.41,0l2,2c.39.39.39,1.02,0,1.41s-1.02.39-1.41,0l-1.29-1.29L5.71,48.21c-.2.2-.45.29-.71.29Z"/>
  <path class="cls-1" d="m45,52.5c-.55,0-1-.45-1-1v-22c0-.55.45-1,1-1s1,.45,1,1v22c0,.55-.45,1-1,1Z"/>
  <path class="cls-1" d="m51,52.5c-.55,0-1-.45-1-1v-28c0-.55.45-1,1-1s1,.45,1,1v28c0,.55-.45,1-1,1Z"/>
  <path class="cls-1" d="m39,52.5c-.55,0-1-.45-1-1v-2c0-.55.45-1,1-1s1,.45,1,1v2c0,.55-.45,1-1,1Z"/>
  <path class="cls-1" d="m33,52.5c-.55,0-1-.45-1-1v-4c0-.55.45-1,1-1s1,.45,1,1v4c0,.55-.45,1-1,1Z"/>
  <path class="cls-1" d="m27,52.5c-.55,0-1-.45-1-1v-10c0-.55.45-1,1-1s1,.45,1,1v10c0,.55-.45,1-1,1Z"/>
  <path class="cls-1" d="m21,52.5c-.55,0-1-.45-1-1v-10c0-.55.45-1,1-1s1,.45,1,1v10c0,.55-.45,1-1,1Z"/>
  <path class="cls-1" d="m15,52.5c-.55,0-1-.45-1-1v-8c0-.55.45-1,1-1s1,.45,1,1v8c0,.55-.45,1-1,1Z"/>
  <path class="cls-1" d="m9,52.5c-.55,0-1-.45-1-1v-2c0-.55.45-1,1-1s1,.45,1,1v2c0,.55-.45,1-1,1Z"/>
  <path class="cls-1" d="m38.17,46.5c-1.02,0-1.98-.4-2.7-1.12l-9.21-9.21,1.41-1.42,9.21,9.21c.69.69,1.89.69,2.58,0,.71-.71.71-1.87,0-2.58l-9.21-9.21,1.41-1.41,9.21,9.21c1.49,1.49,1.49,3.92,0,5.41-.72.72-1.68,1.12-2.71,1.12Z"/>
  <path class="cls-1" d="m20.69,38.46c-.53,0-.97-.41-1-.95-.03-.55.39-1.02.95-1.05,6.37-.34,11.36-5.59,11.36-11.97s-5.38-12-12-12-12,5.38-12,12c0,1.91.44,3.74,1.32,5.46.25.49.06,1.09-.43,1.35-.49.25-1.09.06-1.35-.43-1.02-2-1.54-4.14-1.54-6.37,0-7.72,6.28-14,14-14s14,6.28,14,14-5.82,13.57-13.26,13.96c-.02,0-.04,0-.05,0Z"/>
  <path class="cls-1" d="m53,56.5H5c-.55,0-1-.45-1-1s.45-1,1-1h48c.55,0,1,.45,1,1s-.45,1-1,1Z"/>
</svg>