<?xml version="1.0" encoding="UTF-8"?>
<svg id="Layer_1" data-name="Layer 1" xmlns="http://www.w3.org/2000/svg" viewBox="0 0 60 60">
  <defs>
    <style>
      .cls-1 {
        fill: #37464c;
        stroke-width: 0px;
      }
    </style>
  </defs>
  <g>
    <path class="cls-1" d="m18.39,47.94h-7.5c-.14,0-.27-.06-.37-.16s-.15-.23-.15-.37v-25.44c0-.29.24-.53.53-.53h7.5c.14,0,.27.06.37.16s.15.23.15.37v25.44c0,.29-.24.53-.53.53Zm-6.97-1.06h6.44s0-24.38,0-24.38h-6.44s0,24.38,0,24.38Z"/>
    <path class="cls-1" d="m18.39,48.44h-7.5c-.27,0-.54-.11-.73-.3-.19-.19-.3-.45-.3-.73v-25.44c0-.57.46-1.03,1.03-1.03h7.5c.27,0,.53.11.73.3.19.19.3.46.3.73v25.44c0,.57-.46,1.03-1.03,1.03Zm-7.49-26.49l-.03,25.46,7.52.03s.03-.01.03-.03v-25.44s-7.52-.03-7.52-.03Zm7.46,25.44h-7.44v-25.38h7.44v25.38Zm-6.44-1h5.44v-23.38s-5.44,0-5.44,0v23.38Z"/>
  </g>
  <g>
    <path class="cls-1" d="m34.24,47.94h-7.5c-.14,0-.27-.06-.37-.16-.1-.1-.15-.23-.15-.37v-25.44c0-.29.24-.53.53-.53h7.5c.14,0,.27.06.37.16s.15.23.15.37v25.44c0,.29-.24.53-.53.53Zm-6.97-1.06h6.44s0-24.38,0-24.38h-6.44s0,24.38,0,24.38Z"/>
    <path class="cls-1" d="m34.24,48.44h-7.5c-.27,0-.54-.11-.73-.3-.19-.2-.3-.45-.3-.73v-25.44c0-.57.46-1.03,1.03-1.03h7.5c.27,0,.53.11.72.3.19.19.3.46.3.73v25.43c0,.57-.46,1.03-1.03,1.03Zm-7.49-26.49l-.03,25.46,7.52.03s.03-.01.03-.03v-25.43s-7.52-.03-7.52-.03Zm7.46,25.44h-7.44s0-25.38,0-25.38h7.44s0,25.38,0,25.38Zm-6.44-1h5.44s0-23.38,0-23.38h-5.44s0,23.38,0,23.38Z"/>
  </g>
  <g>
    <path class="cls-1" d="m50.08,47.94h-7.5c-.14,0-.27-.06-.37-.16-.1-.1-.15-.23-.15-.37v-25.44c0-.14.06-.27.16-.37.1-.1.23-.15.37-.15h7.5c.29,0,.53.24.53.53v25.44c0,.29-.24.53-.53.53Zm-6.97-1.06h6.44s0-24.38,0-24.38h-6.44s0,24.38,0,24.38Z"/>
    <path class="cls-1" d="m50.08,48.44h-7.5c-.27,0-.53-.11-.73-.3-.2-.2-.3-.46-.3-.73v-25.43c0-.27.11-.53.3-.73s.45-.3.73-.3h7.5c.57,0,1.03.46,1.03,1.03v25.43c0,.57-.46,1.03-1.03,1.03Zm-7.49-26.49l-.03,25.46,7.52.03s.03-.01.03-.03v-25.43s-7.52-.03-7.52-.03Zm7.46,25.44h-7.44s0-25.38,0-25.38h7.44s0,25.38,0,25.38Zm-6.44-1h5.44s0-23.38,0-23.38h-5.44s0,23.38,0,23.38Z"/>
  </g>
  <g>
    <path class="cls-1" d="m51.16,22.5H9.82c-.14,0-.27-.06-.37-.16s-.15-.23-.15-.37v-3.24c0-.29.24-.53.53-.53h41.33c.29,0,.53.24.53.53v3.24c0,.14-.06.27-.15.37-.1.1-.23.15-.37.15Zm-40.81-1.06h40.28s0-2.18,0-2.18H10.35s0,2.18,0,2.18Z"/>
    <path class="cls-1" d="m51.16,23H9.82c-.27,0-.54-.12-.73-.31-.19-.19-.3-.45-.3-.72v-3.24c0-.57.46-1.03,1.03-1.03h41.33c.57,0,1.03.46,1.03,1.03v3.24c0,.27-.11.53-.3.72-.2.2-.46.3-.73.3Zm-41.33-4.29l-.03,3.26,41.36.03s.01,0,.02,0v-3.25s-41.35-.03-41.35-.03Zm41.3,3.24H9.85v-3.18h41.28v3.18Zm-40.28-1h39.28s0-1.18,0-1.18H10.85s0,1.18,0,1.18Z"/>
  </g>
  <g>
    <path class="cls-1" d="m51.15,50.86H9.82c-.29,0-.53-.24-.53-.53v-2.43c0-.14.06-.27.15-.37s.23-.15.37-.15h41.33c.29,0,.53.24.53.53v2.43c0,.14-.06.27-.15.37s-.23.15-.37.15Zm-40.81-1.06h40.28s0-1.37,0-1.37H10.35s0,1.37,0,1.37Z"/>
    <path class="cls-1" d="m51.15,51.11H9.82c-.43,0-.78-.35-.78-.78v-2.43c0-.21.08-.41.23-.55.14-.14.34-.23.55-.23h41.33c.43,0,.78.35.78.78v2.43c0,.21-.08.4-.23.55s-.34.23-.55.23Zm-41.33-3.49c-.07,0-.14.03-.2.08s-.08.12-.08.2v2.43c0,.15.12.28.28.28h41.33c.07,0,.14-.02.2-.08s.08-.12.08-.2v-2.43c0-.15-.12-.28-.28-.28H9.82Zm41.06,2.43H10.1s0-1.88,0-1.88h40.78v1.88Zm-40.28-.5h39.78s0-.87,0-.87H10.6s0,.87,0,.87Z"/>
  </g>
  <g>
    <path class="cls-1" d="m53.16,54.28H7.81c-.14,0-.27-.06-.37-.16-.1-.1-.15-.23-.15-.37v-3.42c0-.29.24-.53.53-.53h45.35c.14,0,.27.06.37.16.1.1.15.23.15.37v3.42c0,.29-.24.53-.53.53Zm-44.82-1.06h44.29s0-2.35,0-2.35H8.34s0,2.35,0,2.35Z"/>
    <path class="cls-1" d="m53.16,54.78H7.81c-.27,0-.53-.11-.73-.3-.19-.19-.3-.46-.3-.73v-3.42c0-.57.46-1.03,1.03-1.03h45.35c.27,0,.53.11.73.31s.3.45.3.73v3.42c0,.57-.46,1.03-1.03,1.03Zm-45.35-4.48l-.03,3.44,45.38.03s.03-.01.03-.03v-3.42s-45.38-.03-45.38-.03Zm45.32,3.42H7.84v-3.37h45.29v3.37Zm-44.29-1h43.29s0-1.36,0-1.36H8.84s0,1.36,0,1.36Z"/>
  </g>
  <g>
    <path class="cls-1" d="m12.76,18.9c-.2,0-.39-.12-.48-.31-.03-.07-.05-.14-.05-.22,0-.2.12-.39.31-.48l17.73-8c.27-.12.58,0,.7.26.03.07.05.14.05.22,0,.2-.12.39-.31.48l-17.73,8c-.07.03-.14.05-.22.05Z"/>
    <path class="cls-1" d="m12.76,19.4c-.4,0-.77-.24-.94-.6-.06-.14-.09-.28-.09-.42,0-.4.24-.77.61-.94l17.73-8c.52-.23,1.13,0,1.36.52.06.13.09.28.09.42,0,.4-.24.77-.61.94l-17.73,8c-.13.06-.27.09-.42.09Zm17.74-9l-17.75,7.95v.05s.02,0,.02,0l17.73-8Z"/>
  </g>
  <g>
    <path class="cls-1" d="m48.22,18.9c-.07,0-.15-.02-.22-.05l-17.73-8c-.19-.09-.31-.28-.31-.48,0-.07.01-.15.05-.22.12-.27.43-.38.7-.26l17.73,8c.2.09.31.28.31.48,0,.07-.01.15-.05.22-.09.2-.28.31-.48.31Z"/>
    <path class="cls-1" d="m48.22,19.4c-.15,0-.29-.03-.42-.09l-17.72-8c-.37-.17-.6-.53-.6-.94,0-.15.03-.29.09-.42.11-.25.32-.44.57-.54.26-.1.54-.09.79.03l17.73,8c.37.17.6.53.6.94,0,.15-.03.29-.09.42-.16.37-.53.6-.94.6Zm-17.71-9.05l17.71,8.05s.02,0,.03-.02l-17.74-8.04Z"/>
  </g>
</svg>