<?xml version="1.0" encoding="UTF-8"?>
<svg id="Layer_1" data-name="Layer 1" xmlns="http://www.w3.org/2000/svg" viewBox="0 0 60 60">
  <defs>
    <style>
      .cls-1 {
        fill: #37464c;
        stroke-width: 0px;
      }
    </style>
  </defs>
  <g>
    <path class="cls-1" d="m7.27,39c-2.76,0-5-2.24-5-5v-12.77c0-1.94,1.24-3.66,3.09-4.29.65-.22,2.58-.89,2.58-.89.36-.13.76-.03,1.03.24l4.29,4.29,4.29-4.29c.27-.27.67-.36,1.03-.24,0,0,1.94.67,2.58.89.3.1.6.24.87.4.47.28.63.9.35,1.37s-.9.63-1.37.35c-.15-.09-.32-.17-.49-.22-.42-.14-1.38-.47-2.01-.69l-4.56,4.56c-.39.39-1.02.39-1.41,0l-4.56-4.56c-.63.22-1.59.55-2.01.69-1.03.35-1.73,1.31-1.73,2.39v12.77c0,1.65,1.35,3,3,3,.55,0,1,.45,1,1s-.45,1-1,1Z"/>
    <path class="cls-1" d="m19.27,39c-.55,0-1-.45-1-1s.45-1,1-1c1.65,0,3-1.35,3-3v-1.03c0-.55.45-1,1-1s1,.45,1,1v1.03c0,2.76-2.24,5-5,5Z"/>
    <path class="cls-1" d="m13.27,16c-3.31,0-6-2.69-6-6s2.69-6,6-6,6,2.69,6,6-2.69,6-6,6Zm0-10c-2.21,0-4,1.79-4,4s1.79,4,4,4,4-1.79,4-4-1.79-4-4-4Z"/>
    <path class="cls-1" d="m18.27,56h-10c-1.1,0-2-.9-2-2v-29c0-.55.45-1,1-1s1,.45,1,1v29h10v-21.03c0-.55.45-1,1-1s1,.45,1,1v21.03c0,1.1-.9,2-2,2Z"/>
    <path class="cls-1" d="m13.27,56c-.55,0-1-.45-1-1v-18c0-.55.45-1,1-1s1,.45,1,1v18c0,.55-.45,1-1,1Z"/>
  </g>
  <g>
    <path class="cls-1" d="m53.29,39c-.55,0-1-.45-1-1s.45-1,1-1c1.65,0,3-1.35,3-3v-12.77c0-1.08-.69-2.04-1.73-2.39-.42-.14-1.38-.47-2.01-.69l-4.56,4.56c-.39.39-1.02.39-1.41,0l-4.56-4.56c-.63.22-1.59.55-2.01.69-1.03.35-1.73,1.31-1.73,2.39v4.3c0,.55-.45,1-1,1s-1-.45-1-1v-4.3c0-1.94,1.24-3.66,3.09-4.29.65-.22,2.58-.89,2.58-.89.36-.13.76-.03,1.03.24l4.29,4.29,4.29-4.29c.27-.27.67-.36,1.03-.24,0,0,1.94.67,2.58.89,1.85.62,3.09,2.35,3.09,4.29v12.77c0,2.76-2.24,5-5,5Z"/>
    <path class="cls-1" d="m47.29,16c-3.31,0-6-2.69-6-6s2.69-6,6-6,6,2.69,6,6-2.69,6-6,6Zm0-10c-2.21,0-4,1.79-4,4s1.79,4,4,4,4-1.79,4-4-1.79-4-4-4Z"/>
    <path class="cls-1" d="m41.29,30.24c-.55,0-1-.45-1-1v-4.24c0-.55.45-1,1-1s1,.45,1,1v4.24c0,.55-.45,1-1,1Z"/>
    <path class="cls-1" d="m41.29,40.52c-.55,0-1-.45-1-1v-2.14c0-.55.45-1,1-1s1,.45,1,1v2.14c0,.55-.45,1-1,1Z"/>
    <path class="cls-1" d="m52.29,56h-10c-1.1,0-2-.9-2-2v-14.48c0-.55.45-1,1-1s1,.45,1,1v14.48h10v-29c0-.55.45-1,1-1s1,.45,1,1v29c0,1.1-.9,2-2,2Z"/>
    <path class="cls-1" d="m47.29,56c-.55,0-1-.45-1-1v-18c0-.55.45-1,1-1s1,.45,1,1v18c0,.55-.45,1-1,1Z"/>
  </g>
  <g>
    <path class="cls-1" d="m36.78,26.8h-18.57c-.55,0-1-.45-1-1s.45-1,1-1h18.57c.55,0,1,.45,1,1s-.45,1-1,1Z"/>
    <path class="cls-1" d="m18.2,26.8c-.26,0-.51-.1-.71-.29-.39-.39-.39-1.02,0-1.41l4.89-4.88c.39-.39,1.02-.39,1.41,0,.39.39.39,1.02,0,1.41l-4.89,4.88c-.2.19-.45.29-.71.29Z"/>
    <path class="cls-1" d="m23.48,31.35c-.23,0-.46-.08-.65-.24l-5.27-4.55c-.42-.36-.46-.99-.1-1.41.36-.42.99-.46,1.41-.1l5.27,4.55c.42.36.46.99.1,1.41-.2.23-.48.35-.76.35Z"/>
  </g>
  <g>
    <path class="cls-1" d="m41.84,33.97h-18.57c-.55,0-1-.45-1-1s.45-1,1-1h18.57c.55,0,1,.45,1,1s-.45,1-1,1Z"/>
    <path class="cls-1" d="m36.95,38.85c-.26,0-.51-.1-.71-.29-.39-.39-.39-1.02,0-1.41l4.89-4.88c.39-.39,1.02-.39,1.41,0,.39.39.39,1.02,0,1.41l-4.89,4.88c-.2.19-.45.29-.71.29Z"/>
    <path class="cls-1" d="m41.84,33.97c-.23,0-.46-.08-.65-.24l-5.27-4.55c-.42-.36-.46-.99-.1-1.41.36-.42.99-.46,1.41-.1l5.27,4.55c.42.36.46.99.1,1.41-.2.23-.48.35-.76.35Z"/>
  </g>
</svg>