<?xml version="1.0" encoding="UTF-8"?>
<svg id="Layer_1" data-name="Layer 1" xmlns="http://www.w3.org/2000/svg" viewBox="0 0 60 60">
  <defs>
    <style>
      .cls-1 {
        fill: #37464c;
        stroke-width: 0px;
      }
    </style>
  </defs>
  <path class="cls-1" d="m21.88,18.5c-2.24,0-4.06-1.82-4.06-4.06s1.82-4.06,4.06-4.06,4.06,1.82,4.06,4.06-1.82,4.06-4.06,4.06Zm0-6.33c-1.25,0-2.26,1.02-2.26,2.26s1.01,2.26,2.26,2.26,2.26-1.02,2.26-2.26-1.02-2.26-2.26-2.26Z"/>
  <path class="cls-1" d="m31.09,29.68c-.42,0-.79-.29-.88-.71-.1-.49.2-.96.69-1.07l1.58-.34c.48-.1.84-.52.82-.95-.02-.3-.16-.5-.28-.61-.36-.34-.37-.91-.03-1.27.34-.36.91-.37,1.27-.03.5.48.79,1.12.83,1.82.07,1.31-.89,2.52-2.24,2.81l-1.59.34c-.06.01-.13.02-.19.02Z"/>
  <path class="cls-1" d="m26,41.18c-.37,0-.72-.23-.85-.6l-.96-2.74c-.05-.15-.15-.29-.27-.39l-4.8-4.16c-.29-.25-.39-.65-.25-1l2.67-7.03c.12-.31.39-.52.71-.57.33-.05.65.09.85.35l2.62,3.45c.17.22.44.36.72.36.49,0,.93.39.94.88.01.49-.32.9-.81.92-.02,0-.12,0-.13,0-.84,0-1.65-.4-2.15-1.07l-1.64-2.16-1.87,4.93,4.32,3.75c.36.31.63.71.79,1.16l.96,2.74c.16.47-.08.98-.55,1.15-.1.03-.2.05-.3.05Z"/>
  <path class="cls-1" d="m26.49,49.85c-1.15,0-2.18-.73-2.56-1.82l-1.06-3.05c-.16-.47.08-.98.55-1.15.47-.17.98.08,1.15.55l1.06,3.05c.16.46.69.72,1.16.56.47-.16.72-.68.56-1.16l-.73-2.08c-.16-.47.08-.98.55-1.15.47-.16.98.08,1.15.55l.73,2.08c.49,1.41-.26,2.96-1.67,3.45-.29.1-.59.15-.89.15Z"/>
  <path class="cls-1" d="m13.06,42.82H3.81c-1.49,0-2.71-1.21-2.71-2.71s1.21-2.71,2.71-2.71h6.7l5.06-13.35h-1.8l-2.26,5c-.52.92-1.42,1.45-2.4,1.45-.46,0-.92-.12-1.33-.35-1.3-.74-1.76-2.39-1.02-3.69l2.99-6.39c.51-.91,1.42-1.44,2.39-1.44h8.18c1.55,0,3.04.74,3.97,1.97l3.28,4.31.67-.14c.48-.1.96.2,1.07.69.1.49-.2.96-.69,1.07l-1.23.26c-.34.07-.69-.06-.91-.34l-3.62-4.77c-.6-.79-1.55-1.26-2.54-1.26h-8.18c-.33,0-.63.18-.79.46l-2.98,6.39c-.28.5-.12,1.05.31,1.3.42.24,1,.08,1.24-.34l2.46-5.46c.15-.32.47-.53.82-.53h3.68c.3,0,.57.15.74.39.17.24.21.55.1.83l-5.74,15.15c-.13.35-.47.58-.84.58H3.81c-.5,0-.91.41-.91.91s.41.91.91.91h9.25c.37,0,.72-.24.85-.59l1.97-5.12c.1-.27.34-.48.62-.55.28-.07.58,0,.81.19l5.5,4.72c.12.1.21.24.26.39l.05.14c.16.47-.09.98-.56,1.15-.44.15-.91-.05-1.11-.46l-4.35-3.74-1.51,3.92c-.39,1.04-1.41,1.74-2.53,1.74Z"/>
  <path class="cls-1" d="m46.26,52.19c-1.16,0-2.2-.74-2.58-1.83l-2.52-7.25-4.42-3.8-1.54,3.99c-.4,1.05-1.42,1.76-2.55,1.76h-9.38c-1.51,0-2.73-1.23-2.73-2.73,0-.97.52-1.88,1.36-2.36.43-.25.98-.1,1.23.33s.1.98-.33,1.23c-.29.17-.47.48-.47.81,0,.51.42.93.93.93h9.38c.39,0,.74-.24.87-.6l2-5.19c.11-.27.34-.48.62-.55.28-.07.58,0,.81.19l5.57,4.79c.12.1.21.24.26.39l2.6,7.48c.17.47.72.73,1.19.57.49-.17.74-.7.57-1.19l-3.19-9.13c-.05-.16-.15-.29-.27-.4l-4.87-4.22c-.29-.25-.39-.65-.25-1l2.71-7.13c.12-.31.39-.52.71-.57.32-.05.65.09.85.35l2.66,3.5c.22.28.6.42.94.35l5.93-1.28c.49-.11.86-.53.84-.98-.02-.28-.14-.53-.36-.69-.22-.17-.5-.23-.77-.18l-4.89,1.05c-.34.07-.69-.06-.91-.33l-3.68-4.84c-.61-.8-1.58-1.28-2.59-1.28h-8.3c-.34,0-.65.18-.81.47l-3.03,6.48c-.15.28-.19.53-.12.77s.22.44.44.56c.44.24,1.03.08,1.27-.35l2.5-5.54c.15-.32.47-.53.82-.53h3.73c.3,0,.57.15.74.39.17.24.21.55.1.83l-5.82,15.37c-.13.35-.47.58-.84.58h-4.61c-.5,0-.9-.4-.9-.9s.4-.9.9-.9h3.99l5.14-13.57h-1.85l-2.29,5.08c-.77,1.37-2.48,1.82-3.76,1.11-.64-.36-1.1-.95-1.29-1.65-.2-.7-.1-1.44.25-2.08l3.03-6.48c.52-.92,1.43-1.45,2.41-1.45h8.3c1.57,0,3.07.75,4.02,1.99l3.33,4.38,4.33-.93c.79-.17,1.6.02,2.24.51.63.49,1.02,1.22,1.06,2.03.07,1.32-.9,2.54-2.26,2.83l-5.93,1.28c-1.01.21-2.12-.19-2.75-1.02l-1.68-2.21-1.91,5.02,4.39,3.8c.36.31.64.71.8,1.17l3.19,9.14c.5,1.42-.26,2.98-1.68,3.48-.29.1-.59.15-.9.15Z"/>
  <path class="cls-1" d="m22.35,41.65c-.31,0-.61-.16-.78-.45-.25-.43-.1-.98.33-1.23.42-.24.89-.37,1.37-.37h2.82c.5,0,.9.4.9.9s-.4.9-.9.9h-2.82c-.16,0-.33.04-.47.12-.14.08-.3.12-.45.12Z"/>
  <path class="cls-1" d="m49.72,39.3c-.17,0-.34-.05-.49-.14-.2-.13-.34-.33-.39-.57l-1.34-6.26c-.1-.49.21-.96.69-1.07l8.53-1.83c.23-.05.48,0,.68.12.2.13.34.33.39.57l1.34,6.26c.1.49-.21.96-.69,1.07l-8.53,1.83c-.06.01-.13.02-.19.02Zm-.27-6.47l.97,4.5,6.77-1.45-.97-4.5-6.77,1.45Z"/>
  <path class="cls-1" d="m41.72,20.22c-2.24,0-4.06-1.82-4.06-4.06s1.82-4.06,4.06-4.06,4.06,1.82,4.06,4.06-1.82,4.06-4.06,4.06Zm0-6.32c-1.25,0-2.26,1.01-2.26,2.26s1.01,2.26,2.26,2.26,2.26-1.02,2.26-2.26-1.02-2.26-2.26-2.26Z"/>
</svg>