<?xml version="1.0" encoding="UTF-8"?>
<svg id="Layer_1" data-name="Layer 1" xmlns="http://www.w3.org/2000/svg" viewBox="0 0 60 60">
  <defs>
    <style>
      .cls-1 {
        fill: #37464c;
        stroke-width: 0px;
      }
    </style>
  </defs>
  <path class="cls-1" d="m20.45,52.14h-6.38c-1.09,0-2.01-.87-2.09-1.98l-1.13-15.31c-1.84-.46-3.72-1.92-3.87-3.62l-.88-12.03c0-2.9,2.25-5.26,5.02-5.33h12.28c2.79.07,5.03,2.43,5.03,5.27,0,.02,0,.11,0,.25l-.13,1.69c-.04.5-.48.88-.96.83-.5-.04-.87-.47-.83-.96l.12-1.67s0-.08,0-.1c0-1.9-1.46-3.46-3.26-3.5h-12.24c-1.78.04-3.25,1.6-3.25,3.46l.88,11.95c.07.83,1.51,1.88,2.85,2.08l.15.02c.44.04.79.39.82.83l1.18,16.01c.01.18.17.31.3.31h6.38c.13,0,.29-.13.3-.31l.75-10.15c.04-.5.48-.87.96-.83.5.04.87.47.83.96l-.75,10.15c-.08,1.11-1,1.98-2.09,1.98Z"/>
  <path class="cls-1" d="m17.26,12.44c-2.65,0-4.81-2.16-4.81-4.81s2.16-4.81,4.81-4.81,4.81,2.16,4.81,4.81-2.16,4.81-4.81,4.81Zm0-7.82c-1.66,0-3.01,1.35-3.01,3.01s1.35,3.01,3.01,3.01,3.01-1.35,3.01-3.01-1.35-3.01-3.01-3.01Z"/>
  <path class="cls-1" d="m17.26,51.63c-.5,0-.9-.4-.9-.9v-17.77c0-.5.4-.9.9-.9s.9.4.9.9v17.77c0,.5-.4.9-.9.9Z"/>
  <path class="cls-1" d="m11.69,34.98c-.47,0-.86-.36-.9-.83l-.99-13.35c-.04-.5.34-.93.83-.96.49-.04.93.34.96.83l.99,13.35c.04.5-.34.93-.83.96-.02,0-.04,0-.07,0Z"/>
  <path class="cls-1" d="m46.66,52.14h-6.38c-1.09,0-2.01-.87-2.09-1.98l-.77-10.41c-.04-.5.34-.93.83-.96.49-.04.93.33.96.83l.77,10.41c.01.17.17.31.3.31h6.38c.13,0,.29-.14.3-.31l1.18-16.01c.03-.44.38-.79.82-.83l.17-.02c1.32-.2,2.76-1.25,2.83-2.09l.88-12.01c0-1.8-1.47-3.35-3.27-3.4h-12.24c-1.77.04-3.23,1.6-3.23,3.47,0,.06,0,.1,0,.16l.14,1.91c.04.5-.33.93-.83.96-.5.05-.93-.33-.96-.83l-.14-1.93c0-.16,0-.25,0-.31,0-2.8,2.25-5.17,5.01-5.23h12.28c2.79.07,5.05,2.43,5.05,5.26l-.88,12.08c-.15,1.71-2.03,3.17-3.87,3.63l-1.13,15.31c-.08,1.11-1,1.98-2.09,1.98Z"/>
  <path class="cls-1" d="m43.47,12.44c-2.65,0-4.81-2.16-4.81-4.81s2.16-4.81,4.81-4.81,4.81,2.16,4.81,4.81-2.16,4.81-4.81,4.81Zm0-7.82c-1.66,0-3.01,1.35-3.01,3.01s1.35,3.01,3.01,3.01,3.01-1.35,3.01-3.01-1.35-3.01-3.01-3.01Z"/>
  <path class="cls-1" d="m43.47,51.63c-.5,0-.9-.4-.9-.9v-17.77c0-.5.4-.9.9-.9s.9.4.9.9v17.77c0,.5-.4.9-.9.9Z"/>
  <path class="cls-1" d="m49.04,34.98s-.04,0-.07,0c-.5-.04-.87-.47-.83-.96l.99-13.35c.04-.5.48-.87.96-.83.5.04.87.47.83.96l-.99,13.35c-.04.47-.43.83-.9.83Z"/>
  <path class="cls-1" d="m33.56,58.64h-6.38c-1.09,0-2.01-.87-2.1-1.98l-1.13-15.32c-1.86-.47-3.72-1.92-3.87-3.6l-.88-11.83c0-.16,0-.25,0-.31,0-2.8,2.25-5.17,5.01-5.23h12.28c2.79.07,5.05,2.43,5.05,5.26,0,.02,0,.04,0,.07l-.88,12.02c-.15,1.71-2.03,3.17-3.87,3.63l-1.13,15.31c-.08,1.11-1,1.98-2.09,1.98Zm2.91-36.47h-12.24c-1.77.04-3.23,1.6-3.23,3.47,0,.06,0,.1,0,.15l.88,11.8c.07.82,1.51,1.88,2.85,2.08l.15.02c.44.04.79.39.82.83l1.18,16.01c.01.17.17.31.3.31h6.38c.13,0,.29-.14.3-.31l1.18-16.01c.03-.44.38-.79.82-.83l.14-.02c1.34-.2,2.78-1.26,2.85-2.09l.88-11.97c-.02-1.85-1.48-3.39-3.27-3.43Zm4.17,3.46h0,0Z"/>
  <path class="cls-1" d="m30.37,18.95c-2.65,0-4.81-2.16-4.81-4.81s2.16-4.81,4.81-4.81,4.81,2.16,4.81,4.81-2.16,4.81-4.81,4.81Zm0-7.82c-1.66,0-3.01,1.35-3.01,3.01s1.35,3.01,3.01,3.01,3.01-1.35,3.01-3.01-1.35-3.01-3.01-3.01Z"/>
  <path class="cls-1" d="m30.36,58.14c-.5,0-.9-.4-.9-.9v-17.77c0-.5.4-.9.9-.9s.9.4.9.9v17.77c0,.5-.4.9-.9.9Z"/>
  <path class="cls-1" d="m24.79,41.49c-.47,0-.86-.36-.9-.83l-.99-13.35c-.04-.5.34-.93.83-.96.49-.04.93.34.96.83l.99,13.35c.04.5-.34.93-.83.96-.02,0-.04,0-.07,0Z"/>
  <path class="cls-1" d="m35.94,41.49s-.04,0-.07,0c-.5-.04-.87-.47-.83-.96l.99-13.35c.04-.5.48-.87.96-.83.5.04.87.47.83.96l-.99,13.35c-.04.47-.43.83-.9.83Z"/>
  <path class="cls-1" d="m33.56,58.64h-6.38c-1.09,0-2.01-.87-2.1-1.98l-1.13-15.32c-1.86-.47-3.72-1.92-3.87-3.6l-.88-11.83c0-.16,0-.25,0-.31,0-2.8,2.25-5.17,5.01-5.23h12.28c2.79.07,5.05,2.43,5.05,5.26l-.88,12.08c-.15,1.71-2.03,3.17-3.87,3.63l-1.13,15.31c-.08,1.11-1,1.98-2.09,1.98Zm-9.33-36.47c-1.77.04-3.23,1.6-3.23,3.47,0,.06,0,.1,0,.15l.88,11.8c.07.82,1.51,1.88,2.85,2.08l.15.02c.44.04.79.39.82.83l1.18,16.01c.01.17.17.31.3.31h6.38c.13,0,.29-.14.3-.31l1.18-16.01c.03-.44.38-.79.82-.83l.14-.02c1.34-.2,2.78-1.26,2.85-2.09l.88-12.01c0-1.8-1.47-3.35-3.27-3.4h-12.24Z"/>
  <path class="cls-1" d="m30.37,18.95c-2.65,0-4.81-2.16-4.81-4.81s2.16-4.81,4.81-4.81,4.81,2.16,4.81,4.81-2.16,4.81-4.81,4.81Zm0-7.82c-1.66,0-3.01,1.35-3.01,3.01s1.35,3.01,3.01,3.01,3.01-1.35,3.01-3.01-1.35-3.01-3.01-3.01Z"/>
  <path class="cls-1" d="m30.36,58.14c-.5,0-.9-.4-.9-.9v-17.77c0-.5.4-.9.9-.9s.9.4.9.9v17.77c0,.5-.4.9-.9.9Z"/>
  <path class="cls-1" d="m24.79,41.49c-.47,0-.86-.36-.9-.83l-.99-13.35c-.04-.5.34-.93.83-.96.49-.04.93.34.96.83l.99,13.35c.04.5-.34.93-.83.96-.02,0-.04,0-.07,0Z"/>
  <path class="cls-1" d="m35.94,41.49s-.04,0-.07,0c-.5-.04-.87-.47-.83-.96l.99-13.35c.04-.5.48-.87.96-.83.5.04.87.47.83.96l-.99,13.35c-.04.47-.43.83-.9.83Z"/>
</svg>