<?xml version="1.0" encoding="UTF-8"?>
<svg id="Layer_1" data-name="Layer 1" xmlns="http://www.w3.org/2000/svg" viewBox="0 0 60 60">
  <defs>
    <style>
      .cls-1 {
        fill: #37464c;
        stroke-width: 0px;
      }
    </style>
  </defs>
  <path class="cls-1" d="m30,29c-4.41,0-8-3.59-8-8s3.59-8,8-8,8,3.59,8,8-3.59,8-8,8Zm0-14c-3.31,0-6,2.69-6,6s2.69,6,6,6,6-2.69,6-6-2.69-6-6-6Z"/>
  <path class="cls-1" d="m49,55H11c-.34,0-.65-.17-.83-.45-.18-.28-.22-.64-.08-.94l6-14c.22-.51.81-.74,1.31-.52.51.22.74.81.53,1.31l-5.4,12.61h34.97l-5.4-12.61c-.22-.51.02-1.1.53-1.31.5-.22,1.09.02,1.31.52l6,14c.13.31.1.66-.08.94-.19.28-.5.45-.83.45Z"/>
  <path class="cls-1" d="m30,49c-1.28,0-2.49-.62-3.24-1.67l-11.37-15.84c-2.22-3.08-3.39-6.71-3.39-10.49C12,11.07,20.08,3,30,3s18,8.07,18,18c0,3.78-1.17,7.41-3.39,10.49l-11.37,15.84c-.75,1.05-1.96,1.67-3.24,1.67Zm0-44c-8.82,0-16,7.18-16,16,0,3.36,1.04,6.58,3.02,9.32l11.37,15.84c.76,1.06,2.47,1.06,3.23,0l11.37-15.84c1.97-2.74,3.02-5.97,3.02-9.32,0-8.82-7.18-16-16-16Z"/>
</svg>