<?xml version="1.0" encoding="UTF-8"?>
<svg id="Layer_1" data-name="Layer 1" xmlns="http://www.w3.org/2000/svg" viewBox="0 0 60 60">
  <defs>
    <style>
      .cls-1 {
        fill: #37464c;
        stroke-width: 0px;
      }
    </style>
  </defs>
  <g>
    <path class="cls-1" d="m7.35,53.28c-.47,0-.86-.36-.9-.83l-.64-8.6c0-3,2.35-5.43,5.25-5.5h12.96c2.91.07,5.26,2.51,5.26,5.44,0,.01,0,.11,0,.26l-.12,1.53c-.04.5-.46.87-.97.83-.5-.04-.87-.47-.83-.97l.11-1.5s0-.08,0-.1c0-2.01-1.56-3.64-3.49-3.69h-12.92c-1.91.05-3.48,1.68-3.48,3.64l.64,8.54c.04.5-.33.93-.83.96-.02,0-.04,0-.07,0Z"/>
    <path class="cls-1" d="m17.56,36.79c-2.77,0-5.03-2.23-5.03-4.97s2.26-4.97,5.03-4.97,5.03,2.23,5.03,4.97-2.25,4.97-5.03,4.97Zm0-8.13c-1.78,0-3.23,1.42-3.23,3.17s1.45,3.17,3.23,3.17,3.23-1.42,3.23-3.17-1.45-3.17-3.23-3.17Z"/>
    <path class="cls-1" d="m11.68,53.95c-.47,0-.86-.36-.9-.83l-.57-7.61c-.04-.5.33-.93.83-.96.5-.04.93.33.96.83l.57,7.61c.04.5-.33.93-.83.96-.02,0-.05,0-.07,0Z"/>
    <path class="cls-1" d="m55.32,54.77s-.04,0-.07,0c-.5-.04-.87-.47-.83-.96l.75-10.09c0-1.89-1.57-3.53-3.5-3.57h-12.92c-1.9.05-3.46,1.68-3.46,3.64,0,.07,0,.1,0,.16l.11,1.47c.04.5-.33.93-.83.96-.48.04-.93-.33-.96-.83l-.11-1.48c0-.16,0-.27,0-.32,0-2.89,2.35-5.33,5.24-5.4h12.96c2.92.07,5.28,2.51,5.28,5.44l-.75,10.16c-.04.47-.43.83-.9.83Z"/>
    <path class="cls-1" d="m45.23,36.79c-2.77,0-5.03-2.23-5.03-4.97s2.26-4.97,5.03-4.97,5.03,2.23,5.03,4.97-2.25,4.97-5.03,4.97Zm0-8.13c-1.78,0-3.23,1.42-3.23,3.17s1.45,3.17,3.23,3.17,3.23-1.42,3.23-3.17-1.45-3.17-3.23-3.17Z"/>
    <path class="cls-1" d="m50.99,55.41s-.05,0-.07,0c-.5-.04-.87-.47-.83-.96l.68-9.07c.04-.5.48-.87.96-.83.5.04.87.47.83.96l-.68,9.07c-.04.47-.43.83-.9.83Z"/>
    <path class="cls-1" d="m31.39,43.56c-2.77,0-5.03-2.23-5.03-4.96s2.25-4.97,5.03-4.97,5.03,2.23,5.03,4.97-2.26,4.96-5.03,4.96Zm0-8.13c-1.78,0-3.23,1.42-3.23,3.17s1.45,3.16,3.23,3.16,3.23-1.42,3.23-3.16-1.45-3.17-3.23-3.17Z"/>
    <path class="cls-1" d="m20.88,55.99c-.47,0-.86-.36-.9-.83l-.33-4.33c0-.17,0-.27,0-.32,0-2.89,2.35-5.33,5.24-5.4h3.35c.5,0,.9.4.9.9s-.4.9-.9.9h-3.33c-1.9.05-3.46,1.68-3.46,3.64,0,.07,0,.11,0,.17l.33,4.3c.04.5-.33.93-.83.96-.02,0-.05,0-.07,0Z"/>
    <path class="cls-1" d="m41.85,56.59s-.04,0-.07,0c-.5-.04-.87-.47-.83-.96l.38-5.14c0-1.89-1.57-3.53-3.5-3.57h-3.3c-.5,0-.9-.4-.9-.9s.4-.9.9-.9h3.32c2.92.07,5.28,2.51,5.28,5.44l-.39,5.21c-.04.47-.43.83-.9.83Z"/>
    <path class="cls-1" d="m34.54,46.91h-6.29c-.5,0-.9-.4-.9-.9s.4-.9.9-.9h6.29c.5,0,.9.4.9.9s-.4.9-.9.9Z"/>
    <path class="cls-1" d="m25.48,59.38c-.47,0-.86-.36-.9-.83l-.53-7.11c-.04-.5.33-.93.83-.96.49-.04.93.33.96.83l.53,7.11c.04.5-.33.93-.83.96-.02,0-.05,0-.07,0Z"/>
    <path class="cls-1" d="m37.32,59.21s-.05,0-.07,0c-.5-.04-.87-.47-.83-.96l.52-6.94c.04-.5.49-.87.96-.83.5.04.87.47.83.96l-.52,6.94c-.04.47-.43.83-.9.83Z"/>
  </g>
  <g>
    <path class="cls-1" d="m32.04,29.85h-2.13c-1.93,0-3.5-1.57-3.5-3.5v-2.84c0-.55.45-1,1-1h7.13c.55,0,1,.45,1,1v2.84c0,1.93-1.57,3.5-3.5,3.5Zm-3.63-5.34v1.84c0,.83.67,1.5,1.5,1.5h2.13c.83,0,1.5-.67,1.5-1.5v-1.84h-5.13Z"/>
    <path class="cls-1" d="m21.72,12.03c-.17,0-.34-.04-.5-.13l-3.09-1.78c-.48-.28-.64-.89-.37-1.37s.89-.64,1.37-.37l3.09,1.78c.48.28.64.89.37,1.37-.19.32-.52.5-.87.5Z"/>
    <path class="cls-1" d="m43.32,24.5c-.17,0-.34-.04-.5-.13l-3.09-1.78c-.48-.28-.64-.89-.37-1.37.28-.48.89-.64,1.37-.37l3.09,1.78c.48.28.64.89.37,1.37-.19.32-.52.5-.87.5Z"/>
    <path class="cls-1" d="m25.63,8.12c-.35,0-.68-.18-.87-.5l-1.78-3.09c-.28-.48-.11-1.09.37-1.37.48-.28,1.09-.11,1.37.37l1.78,3.09c.28.48.11,1.09-.37,1.37-.16.09-.33.13-.5.13Z"/>
    <path class="cls-1" d="m30.97,6.69c-.55,0-1-.45-1-1v-3.56c0-.55.45-1,1-1s1,.45,1,1v3.56c0,.55-.45,1-1,1Z"/>
    <path class="cls-1" d="m36.32,8.12c-.17,0-.34-.04-.5-.13-.48-.28-.64-.89-.37-1.37l1.78-3.09c.28-.48.89-.64,1.37-.37.48.28.64.89.37,1.37l-1.78,3.09c-.19.32-.52.5-.87.5Z"/>
    <path class="cls-1" d="m40.23,12.03c-.35,0-.68-.18-.87-.5-.28-.48-.11-1.09.37-1.37l3.09-1.78c.48-.28,1.09-.11,1.37.37.28.48.11,1.09-.37,1.37l-3.09,1.78c-.16.09-.33.13-.5.13Z"/>
    <path class="cls-1" d="m18.63,24.5c-.35,0-.68-.18-.87-.5-.28-.48-.11-1.09.37-1.37l3.09-1.78c.48-.28,1.09-.11,1.37.37.28.48.11,1.09-.37,1.37l-3.09,1.78c-.16.09-.33.13-.5.13Z"/>
    <path class="cls-1" d="m45.23,17.38h-3.56c-.55,0-1-.45-1-1s.45-1,1-1h3.56c.55,0,1,.45,1,1s-.45,1-1,1Z"/>
    <path class="cls-1" d="m20.28,17.38h-3.56c-.55,0-1-.45-1-1s.45-1,1-1h3.56c.55,0,1,.45,1,1s-.45,1-1,1Z"/>
    <path class="cls-1" d="m34.54,24.5h-7.13c-.32,0-.62-.15-.81-.41-.26-.35-.54-.7-.84-1.05-1.3-1.58-2.92-3.56-2.92-6.67,0-4.48,3.65-8.13,8.13-8.13s8.13,3.65,8.13,8.13c0,3.11-1.62,5.08-2.92,6.67-.29.36-.58.7-.83,1.05-.19.26-.49.41-.81.41Zm-6.63-2h6.14c.19-.24.39-.48.59-.73,1.21-1.48,2.47-3.01,2.47-5.4,0-3.38-2.75-6.13-6.13-6.13s-6.13,2.75-6.13,6.13c0,2.39,1.25,3.92,2.47,5.4.2.25.4.49.59.73Z"/>
    <path class="cls-1" d="m30.97,31.18c-1.29,0-2.34-1.05-2.34-2.34,0-.55.45-1,1-1s1,.45,1,1c0,.19.15.34.34.34s.34-.15.34-.34c0-.55.45-1,1-1s1,.45,1,1c0,1.29-1.05,2.34-2.34,2.34Z"/>
  </g>
</svg>