<?xml version="1.0" encoding="UTF-8"?>
<svg id="Layer_1" data-name="Layer 1" xmlns="http://www.w3.org/2000/svg" viewBox="0 0 60 60">
  <defs>
    <style>
      .cls-1 {
        fill: #37464c;
        stroke-width: 0px;
      }
    </style>
  </defs>
  <g>
    <path class="cls-1" d="m17.45,56.99c-3.17,0-6.5-1.32-9.08-3.9-2.3-2.3-3.68-5.24-3.89-8.29-.21-3.08.8-5.9,2.84-7.94,1.55-1.55,3.56-2.51,5.82-2.78,1.73-.21,3.26-1.35,4-2.98.39-.85.92-1.61,1.57-2.27,2.71-2.71,7.04-3.09,10.77-.95.28.16.38.52.22.8-.16.28-.52.38-.8.22-3.27-1.88-7.03-1.57-9.36.76-.56.56-1,1.2-1.33,1.92-.91,2-2.8,3.4-4.93,3.66-2,.24-3.77,1.09-5.13,2.45-1.8,1.8-2.68,4.29-2.5,7.03.19,2.77,1.45,5.45,3.54,7.54,4.31,4.31,10.85,4.78,14.58,1.05,1.36-1.36,2.2-3.13,2.45-5.13.26-2.13,1.66-4.02,3.66-4.93.72-.33,1.37-.78,1.92-1.33,2.33-2.33,2.63-6.08.76-9.35-.16-.28-.06-.64.22-.8.28-.16.64-.06.8.22,2.14,3.73,1.76,8.06-.95,10.76-.66.66-1.42,1.18-2.27,1.57-1.63.74-2.77,2.27-2.98,4-.27,2.26-1.24,4.27-2.78,5.82-1.92,1.92-4.48,2.86-7.16,2.86Z"/>
    <path class="cls-1" d="m17.45,57.49c-3.42,0-6.86-1.48-9.43-4.05-2.38-2.38-3.81-5.44-4.03-8.61-.22-3.23.84-6.19,2.98-8.33,1.63-1.62,3.74-2.64,6.11-2.92,1.55-.19,2.94-1.22,3.61-2.69.41-.9.97-1.71,1.67-2.41,2.87-2.87,7.44-3.28,11.38-1.03.25.14.43.38.51.66.08.28.04.57-.11.83s-.38.43-.66.51c-.28.08-.57.04-.82-.11-3.07-1.76-6.59-1.49-8.76.68-.51.51-.93,1.11-1.23,1.78-.98,2.16-3.02,3.67-5.32,3.95-1.89.23-3.56,1.03-4.84,2.3-1.69,1.69-2.53,4.05-2.35,6.64.18,2.65,1.39,5.21,3.4,7.22,4.11,4.11,10.33,4.58,13.87,1.05,1.28-1.28,2.07-2.95,2.3-4.84.28-2.3,1.79-4.34,3.95-5.32.67-.3,1.26-.72,1.78-1.23,2.17-2.17,2.44-5.68.68-8.75-.14-.25-.18-.54-.11-.83.08-.28.26-.52.51-.66.25-.14.54-.18.82-.11.28.08.52.26.66.51,2.25,3.93,1.84,8.5-1.03,11.36-.7.7-1.51,1.26-2.42,1.67-1.47.67-2.51,2.05-2.69,3.61-.29,2.37-1.3,4.49-2.92,6.11-1.94,1.94-4.61,3-7.51,3Zm7.05-30.5c-2.05,0-3.99.74-5.43,2.18-.61.61-1.11,1.33-1.47,2.12-.81,1.79-2.5,3.04-4.4,3.27-2.15.26-4.06,1.17-5.53,2.64-1.94,1.94-2.89,4.62-2.69,7.55.2,2.93,1.53,5.76,3.74,7.97,2.39,2.39,5.57,3.76,8.73,3.76,2.64,0,5.06-.96,6.8-2.71,1.47-1.47,2.38-3.38,2.64-5.53.23-1.9,1.48-3.58,3.27-4.39.8-.36,1.51-.86,2.12-1.47,2.55-2.54,2.9-6.63.87-10.16-.02-.04-.08-.05-.12-.03l-.03.12c1.99,3.46,1.65,7.46-.84,9.95-.6.6-1.3,1.08-2.07,1.43-1.84.84-3.14,2.58-3.37,4.53-.26,2.11-1.15,3.99-2.59,5.42-3.92,3.92-10.78,3.46-15.28-1.05-2.18-2.18-3.49-4.97-3.69-7.86-.2-2.88.74-5.52,2.64-7.42,1.44-1.44,3.31-2.33,5.42-2.59,1.96-.24,3.7-1.53,4.53-3.37.35-.78.83-1.47,1.43-2.07,2.49-2.49,6.49-2.83,9.96-.84l.12-.03-.03-.12c-1.53-.88-3.17-1.31-4.74-1.31Z"/>
  </g>
  <g>
    <path class="cls-1" d="m29.89,35.35c-.16,0-.31-.06-.42-.17l-3.2-3.2c-.11-.11-.17-.26-.17-.42,0-.16.07-.31.18-.42l19.29-18.53c.23-.22.6-.22.82,0l2.45,2.45c.23.23.23.59,0,.82l-18.54,19.28c-.11.11-.26.18-.42.18h0Zm-2.36-3.78l2.35,2.35,17.72-18.43-1.64-1.64-18.44,17.72Z"/>
    <path class="cls-1" d="m29.9,35.85h0c-.29,0-.56-.11-.77-.32l-3.2-3.2c-.21-.21-.32-.49-.32-.78,0-.29.12-.57.33-.77l19.29-18.53c.42-.41,1.11-.4,1.52.01l2.45,2.45c.42.42.42,1.1.02,1.52l-18.54,19.28c-.2.21-.48.33-.77.33h0Zm16.08-22.91s-.04,0-.06.02l-19.29,18.53v.12s3.27,3.22,3.27,3.22l18.6-19.31s.03-.09,0-.12l-2.45-2.45s-.04-.03-.06-.03Zm-16.09,21.69l-3.07-3.07,19.16-18.41,2.33,2.33-18.42,19.16Zm-1.65-3.06l1.63,1.63,17.03-17.71-.94-.94-17.72,17.03Z"/>
  </g>
  <g>
    <path class="cls-1" d="m22.7,43.68c-1.26,0-2.53-.48-3.49-1.44-.93-.93-1.45-2.17-1.45-3.49s.51-2.56,1.45-3.49c1.92-1.92,5.05-1.92,6.98,0,.93.93,1.45,2.17,1.45,3.49s-.51,2.56-1.45,3.49h0c-.96.96-2.23,1.44-3.49,1.44Zm0-8.69c-.96,0-1.93.37-2.66,1.1-.71.71-1.1,1.65-1.1,2.66s.39,1.95,1.1,2.66c1.47,1.47,3.85,1.47,5.32,0h0c.71-.71,1.1-1.65,1.1-2.66s-.39-1.95-1.1-2.66c-.73-.73-1.7-1.1-2.66-1.1Zm3.07,6.83h0,0Z"/>
    <path class="cls-1" d="m22.7,44.18c-1.45,0-2.82-.56-3.84-1.59-1.03-1.03-1.59-2.39-1.59-3.84s.57-2.82,1.59-3.84c2.12-2.12,5.57-2.12,7.68,0,1.03,1.03,1.59,2.39,1.59,3.84s-.57,2.82-1.59,3.84c-1.03,1.02-2.39,1.59-3.84,1.59Zm0-9.86c-1.14,0-2.27.43-3.14,1.3-.84.84-1.3,1.95-1.3,3.13s.46,2.3,1.3,3.13c.84.84,1.95,1.3,3.14,1.3s2.25-.44,3.08-1.24v-.25s-.04.04-.06.06c-1.66,1.66-4.36,1.66-6.02,0-.8-.8-1.25-1.87-1.25-3.01s.44-2.21,1.25-3.01c.8-.8,1.87-1.25,3.01-1.25h0c1.14,0,2.21.44,3.01,1.25.8.8,1.25,1.87,1.25,3.01s-.42,2.15-1.18,2.94v.25s.04-.04.06-.06c.84-.84,1.3-1.95,1.3-3.13s-.46-2.3-1.3-3.13c-.86-.86-2-1.3-3.14-1.3Zm0,1.17c-.87,0-1.69.34-2.3.95s-.95,1.43-.95,2.3.34,1.69.95,2.3c1.27,1.27,3.34,1.27,4.61,0,.62-.62.95-1.43.95-2.3s-.34-1.69-.95-2.3c-.61-.61-1.43-.95-2.3-.95Z"/>
  </g>
  <g>
    <path class="cls-1" d="m19.26,48.92c-.15,0-.3-.06-.42-.17l-6.15-6.15c-.23-.23-.23-.6,0-.83.23-.23.6-.23.83,0l6.15,6.15c.23.23.23.6,0,.83-.11.11-.27.17-.42.17Z"/>
    <path class="cls-1" d="m19.26,49.42c-.29,0-.56-.11-.77-.32l-6.15-6.15c-.42-.42-.42-1.11,0-1.54.43-.42,1.12-.42,1.54,0l6.15,6.15c.21.21.32.48.32.77,0,.29-.11.56-.32.77-.21.21-.48.32-.77.32Zm-6.15-7.32s-.04,0-.06.03c-.03.03-.03.09,0,.12l6.21,6.17s.04,0,.06-.03v-.12s-6.15-6.15-6.15-6.15c-.02-.02-.04-.03-.06-.03Z"/>
  </g>
  <g>
    <path class="cls-1" d="m49.33,16.22c-.61,0-1.22-.23-1.69-.7l-1.7-1.7c-.45-.45-.7-1.05-.7-1.69s.25-1.24.7-1.69l4.41-4.41c.93-.93,2.45-.93,3.38,0l1.7,1.7c.45.45.7,1.05.7,1.69s-.25,1.24-.7,1.69l-4.41,4.41c-.47.47-1.08.7-1.69.7Zm2.71-9.71c-.31,0-.62.12-.86.35l-4.41,4.41c-.23.23-.36.53-.36.86s.13.63.36.86l1.7,1.7h0c.47.47,1.24.47,1.72,0l4.41-4.41c.23-.23.36-.53.36-.86s-.13-.63-.36-.86l-1.7-1.7c-.24-.24-.55-.35-.86-.35Z"/>
    <path class="cls-1" d="m49.33,16.72c-.77,0-1.5-.3-2.04-.84l-1.7-1.7c-.55-.54-.85-1.27-.85-2.04s.3-1.5.85-2.04l4.41-4.41c1.13-1.12,2.96-1.12,4.08,0l1.7,1.7c.55.55.85,1.27.85,2.04s-.3,1.5-.85,2.04l-4.41,4.41c-.54.54-1.27.84-2.04.84Zm2.71-10.89c-.48,0-.97.18-1.34.55l-4.41,4.41c-.36.36-.55.83-.55,1.34s.2.98.55,1.34l1.7,1.7c.71.71,1.96.71,2.67,0l4.41-4.41c.36-.36.55-.83.55-1.34s-.2-.98-.55-1.33l-1.7-1.7c-.37-.37-.85-.55-1.34-.55Zm-2.71,9.71c-.46,0-.89-.18-1.21-.5l-1.7-1.7c-.32-.32-.5-.75-.5-1.21s.18-.89.5-1.21l4.41-4.41c.65-.65,1.78-.65,2.42,0l1.7,1.7c.32.32.5.75.5,1.21s-.18.89-.5,1.21l-4.41,4.41c-.32.32-.75.5-1.21.5Zm2.71-8.54c-.19,0-.37.07-.5.21l-4.41,4.41c-.13.13-.21.31-.21.5s.07.37.21.5l1.7,1.7c.27.27.74.27,1.01,0l4.41-4.41c.13-.13.21-.31.21-.5s-.07-.37-.21-.5l-1.7-1.7c-.13-.13-.31-.21-.5-.21Z"/>
  </g>
  <g>
    <g>
      <g>
        <path class="cls-1" d="m55.12,13.43c-.15,0-.3-.06-.42-.17l-1.1-1.1c-.23-.23-.23-.6,0-.83.23-.23.6-.23.83,0l1.1,1.1c.23.23.23.6,0,.83-.11.11-.27.17-.42.17Z"/>
        <path class="cls-1" d="m55.12,13.93c-.29,0-.56-.11-.77-.32l-1.1-1.1c-.21-.21-.32-.48-.32-.77,0-.29.11-.56.32-.77.42-.42,1.11-.42,1.54,0l1.1,1.1c.42.42.42,1.11,0,1.54-.2.21-.48.32-.77.32Zm-1.16-2.12l1.16,1.12s.04,0,.06-.03c.04-.04.04-.09,0-.12l-1.1-1.1s-.09-.03-.12,0l-.35.48.35-.35Z"/>
      </g>
      <g>
        <path class="cls-1" d="m52.77,15.81c-.15,0-.3-.06-.42-.17l-1.1-1.1c-.23-.23-.23-.6,0-.83.23-.23.6-.23.83,0l1.1,1.1c.23.23.23.6,0,.83-.11.11-.27.17-.42.17Z"/>
        <path class="cls-1" d="m52.77,16.31c-.29,0-.56-.11-.77-.32l-1.1-1.1c-.42-.42-.42-1.11,0-1.54.42-.42,1.11-.42,1.54,0l1.1,1.1c.42.42.42,1.11,0,1.54-.2.21-.48.32-.77.32Zm-1.1-2.27s-.04,0-.06.03c-.03.03-.03.09,0,.12l1.16,1.12s.04,0,.06-.02c.04-.04.04-.09,0-.12l-1.1-1.1s-.04-.03-.06-.03Z"/>
      </g>
    </g>
    <g>
      <g>
        <path class="cls-1" d="m49.7,8.01c-.15,0-.3-.06-.42-.17l-1.1-1.1c-.23-.23-.23-.6,0-.83s.6-.23.83,0l1.1,1.1c.23.23.23.6,0,.83-.11.11-.27.17-.42.17Z"/>
        <path class="cls-1" d="m49.7,8.51c-.29,0-.56-.11-.77-.32l-1.1-1.1c-.21-.21-.32-.48-.32-.77,0-.29.11-.56.32-.77.42-.42,1.11-.42,1.54,0l1.1,1.1c.42.43.42,1.12,0,1.54-.21.21-.48.32-.77.32Zm-1.1-2.27s-.04,0-.06.03v.12s1.16,1.12,1.16,1.12c.02,0,.04,0,.06-.03.03-.03.03-.09,0-.12l-1.1-1.1s-.04-.03-.06-.03Z"/>
      </g>
      <g>
        <path class="cls-1" d="m47.35,10.39c-.15,0-.3-.06-.42-.17l-1.1-1.1c-.23-.23-.23-.6,0-.83.23-.23.6-.23.83,0l1.1,1.1c.23.23.23.6,0,.83-.11.11-.27.17-.42.17Z"/>
        <path class="cls-1" d="m47.35,10.89c-.29,0-.56-.11-.77-.32l-1.1-1.1c-.42-.42-.42-1.11,0-1.54.41-.41,1.13-.41,1.54,0l1.1,1.1c.42.42.42,1.11,0,1.54-.21.21-.48.32-.77.32Zm-1.1-2.27s-.05,0-.06.02c-.03.03-.03.09,0,.12l1.16,1.12s.04,0,.06-.03c.03-.03.03-.09,0-.12l-1.1-1.1s-.04-.02-.06-.02Z"/>
      </g>
    </g>
  </g>
</svg>