<?xml version="1.0" encoding="UTF-8"?>
<svg id="Layer_1" data-name="Layer 1" xmlns="http://www.w3.org/2000/svg" viewBox="0 0 60 60">
  <defs>
    <style>
      .cls-1 {
        fill: #37464c;
        stroke-width: 0px;
      }
    </style>
  </defs>
  <path class="cls-1" d="m34.58,21.51h-2.84c-.55,0-1-.45-1-1V7.32c0-.55.45-1,1-1h7.17c.55,0,1,.45,1,1s-.45,1-1,1h-6.17v11.2h1.84c.55,0,1,.45,1,1s-.45,1-1,1Z"/>
  <path class="cls-1" d="m18.62,14.46H4.31c-.55,0-1-.45-1-1s.45-1,1-1h14.31c.55,0,1,.45,1,1s-.45,1-1,1Z"/>
  <path class="cls-1" d="m18.62,10.12H6.87c-.55,0-1-.45-1-1s.45-1,1-1h11.75c.55,0,1,.45,1,1s-.45,1-1,1Z"/>
  <path class="cls-1" d="m18.62,18.8H6.87c-.55,0-1-.45-1-1s.45-1,1-1h11.75c.55,0,1,.45,1,1s-.45,1-1,1Z"/>
  <path class="cls-1" d="m31.74,9.62h-.86c-1.73,0-2.77-1-3.78-1.97-1.21-1.16-2.46-2.37-5.14-2.37h-12.2v-1h12.2c3.08,0,4.6,1.47,5.83,2.65.98.94,1.76,1.69,3.09,1.69h.86v1Z"/>
  <path class="cls-1" d="m31.74,10.12h-.86c-1.93,0-3.1-1.12-4.13-2.11-1.19-1.15-2.32-2.23-4.79-2.23h-12.2c-.55,0-1-.45-1-1s.45-1,1-1h12.2c3.28,0,4.89,1.55,6.18,2.79,1.03.99,1.66,1.55,2.74,1.55h.86c.55,0,1,.45,1,1s-.45,1-1,1Z"/>
  <path class="cls-1" d="m21.97,22.64h-8.87v-1h8.87c2.67,0,3.93-1.2,5.14-2.37,1.01-.97,2.05-1.97,3.78-1.97h.86v1h-.86c-1.33,0-2.1.75-3.09,1.69-1.23,1.18-2.75,2.65-5.83,2.65Z"/>
  <path class="cls-1" d="m21.97,23.14h-8.87c-.55,0-1-.45-1-1s.45-1,1-1h8.87c2.47,0,3.6-1.08,4.79-2.23,1.03-.99,2.19-2.11,4.13-2.11h.86c.55,0,1,.45,1,1s-.45,1-1,1h-.86c-1.08,0-1.71.56-2.74,1.55-1.29,1.24-2.9,2.79-6.18,2.79Z"/>
  <path class="cls-1" d="m20.04,29.59H6.84c-.55,0-1-.45-1-1v-7.17c0-.55.45-1,1-1s1,.45,1,1v6.17h11.19v-1.84c0-.55.45-1,1-1s1,.45,1,1v2.84c0,.55-.45,1-1,1Z"/>
  <path class="cls-1" d="m12.99,57.02c-.55,0-1-.45-1-1v-14.31c0-.55.45-1,1-1s1,.45,1,1v14.31c0,.55-.45,1-1,1Z"/>
  <path class="cls-1" d="m8.65,54.46c-.55,0-1-.45-1-1v-11.75c0-.55.45-1,1-1s1,.45,1,1v11.75c0,.55-.45,1-1,1Z"/>
  <rect class="cls-1" x="16.83" y="39.38" width="1" height="13.21"/>
  <path class="cls-1" d="m17.33,54.46c-.55,0-1-.45-1-1v-11.75c0-.55.45-1,1-1s1,.45,1,1v11.75c0,.55-.45,1-1,1Z"/>
  <path class="cls-1" d="m4.81,50.57h-1v-12.2c0-3.08,1.47-4.6,2.65-5.83.94-.98,1.69-1.76,1.69-3.09v-.86h1v.86c0,1.73-1,2.77-1.97,3.78-1.16,1.21-2.37,2.46-2.37,5.14v12.2Z"/>
  <path class="cls-1" d="m4.31,51.57c-.55,0-1-.45-1-1v-12.2c0-3.28,1.55-4.89,2.79-6.18.99-1.03,1.55-1.66,1.55-2.74v-.86c0-.55.45-1,1-1s1,.45,1,1v.86c0,1.93-1.12,3.1-2.11,4.13-1.15,1.19-2.23,2.32-2.23,4.79v12.2c0,.55-.45,1-1,1Z"/>
  <path class="cls-1" d="m22.16,47.23h-1v-8.87c0-2.67-1.2-3.93-2.37-5.14-.97-1.01-1.97-2.05-1.97-3.78v-.86h1v.86c0,1.33.75,2.1,1.69,3.09,1.18,1.23,2.65,2.75,2.65,5.83v8.87Z"/>
  <path class="cls-1" d="m21.66,48.23c-.55,0-1-.45-1-1v-8.87c0-2.47-1.08-3.6-2.23-4.79-.99-1.03-2.11-2.19-2.11-4.13v-.86c0-.55.45-1,1-1s1,.45,1,1v.86c0,1.08.56,1.71,1.55,2.74,1.24,1.29,2.79,2.9,2.79,6.18v8.87c0,.55-.45,1-1,1Z"/>
  <path class="cls-1" d="m28.13,54.49h-7.17c-.55,0-1-.45-1-1s.45-1,1-1h6.17v-11.2h-1.84c-.55,0-1-.45-1-1s.45-1,1-1h2.84c.55,0,1,.45,1,1v13.2c0,.55-.45,1-1,1Z"/>
  <path class="cls-1" d="m55.56,48.35h-14.31c-.55,0-1-.45-1-1s.45-1,1-1h14.31c.55,0,1,.45,1,1s-.45,1-1,1Z"/>
  <path class="cls-1" d="m53,52.68h-11.75c-.55,0-1-.45-1-1s.45-1,1-1h11.75c.55,0,1,.45,1,1s-.45,1-1,1Z"/>
  <path class="cls-1" d="m53,44.01h-11.75c-.55,0-1-.45-1-1s.45-1,1-1h11.75c.55,0,1,.45,1,1s-.45,1-1,1Z"/>
  <path class="cls-1" d="m50.11,56.52h-12.2c-3.08,0-4.6-1.47-5.83-2.65-.98-.94-1.76-1.69-3.09-1.69h-.86v-1h.86c1.73,0,2.77,1,3.78,1.97,1.21,1.16,2.46,2.37,5.14,2.37h12.2v1Z"/>
  <path class="cls-1" d="m50.11,57.02h-12.2c-3.28,0-4.89-1.55-6.18-2.79-1.03-.99-1.66-1.55-2.74-1.55h-.86c-.55,0-1-.45-1-1s.45-1,1-1h.86c1.93,0,3.1,1.12,4.13,2.11,1.19,1.15,2.32,2.23,4.79,2.23h12.2c.55,0,1,.45,1,1s-.45,1-1,1Z"/>
  <path class="cls-1" d="m28.99,43.51h-.86v-1h.86c1.33,0,2.1-.75,3.09-1.69,1.23-1.18,2.75-2.65,5.83-2.65h8.87v1h-8.87c-2.67,0-3.93,1.2-5.14,2.37-1.01.97-2.05,1.97-3.78,1.97Z"/>
  <path class="cls-1" d="m28.99,44.01h-.86c-.55,0-1-.45-1-1s.45-1,1-1h.86c1.08,0,1.71-.56,2.74-1.55,1.29-1.24,2.9-2.79,6.18-2.79h8.87c.55,0,1,.45,1,1s-.45,1-1,1h-8.87c-2.47,0-3.6,1.08-4.79,2.23-1.03.99-2.19,2.11-4.13,2.11Z"/>
  <path class="cls-1" d="m53.02,40.39c-.55,0-1-.45-1-1v-6.17h-11.2v1.84c0,.55-.45,1-1,1s-1-.45-1-1v-2.84c0-.55.45-1,1-1h13.2c.55,0,1,.45,1,1v7.17c0,.55-.45,1-1,1Z"/>
  <path class="cls-1" d="m46.87,20.1c-.55,0-1-.45-1-1V4.79c0-.55.45-1,1-1s1,.45,1,1v14.31c0,.55-.45,1-1,1Z"/>
  <path class="cls-1" d="m51.21,20.1c-.55,0-1-.45-1-1V7.35c0-.55.45-1,1-1s1,.45,1,1v11.75c0,.55-.45,1-1,1Z"/>
  <path class="cls-1" d="m42.53,20.1c-.55,0-1-.45-1-1V7.35c0-.55.45-1,1-1s1,.45,1,1v11.75c0,.55-.45,1-1,1Z"/>
  <path class="cls-1" d="m51.71,32.22h-1v-.86c0-1.73,1-2.77,1.97-3.78,1.16-1.21,2.37-2.46,2.37-5.14v-12.2h1v12.2c0,3.08-1.47,4.6-2.65,5.83-.94.98-1.69,1.76-1.69,3.09v.86Z"/>
  <path class="cls-1" d="m51.21,33.22c-.55,0-1-.45-1-1v-.86c0-1.93,1.12-3.1,2.11-4.13,1.15-1.19,2.23-2.32,2.23-4.79v-12.2c0-.55.45-1,1-1s1,.45,1,1v12.2c0,3.28-1.55,4.89-2.79,6.18-.99,1.03-1.55,1.66-1.55,2.74v.86c0,.55-.45,1-1,1Z"/>
  <path class="cls-1" d="m43.03,32.22h-1v-.86c0-1.33-.75-2.1-1.69-3.09-1.18-1.23-2.65-2.75-2.65-5.83v-8.87h1v8.87c0,2.67,1.2,3.93,2.37,5.14.97,1.01,1.97,2.05,1.97,3.78v.86Z"/>
  <path class="cls-1" d="m42.53,33.22c-.55,0-1-.45-1-1v-.86c0-1.08-.56-1.71-1.55-2.74-1.24-1.29-2.79-2.9-2.79-6.18v-8.87c0-.55.45-1,1-1s1,.45,1,1v8.87c0,2.47,1.08,3.6,2.23,4.79.99,1.03,2.11,2.19,2.11,4.13v.86c0,.55-.45,1-1,1Z"/>
</svg>