<?xml version="1.0" encoding="UTF-8"?>
<svg id="Layer_1" data-name="Layer 1" xmlns="http://www.w3.org/2000/svg" viewBox="0 0 60 60">
  <defs>
    <style>
      .cls-1 {
        fill: #37464c;
        stroke-width: 0px;
      }
    </style>
  </defs>
  <path class="cls-1" d="m26.01,50c-.92,0-1.85-.35-2.55-1.05-1.41-1.41-1.41-3.69,0-5.1l1.24-1.24c1.41-1.4,3.69-1.41,5.1,0,1.41,1.41,1.41,3.69,0,5.1l-1.24,1.24h0c-.7.7-1.63,1.05-2.55,1.05Zm1.24-6.44c-.41,0-.82.16-1.14.47l-1.24,1.24c-.63.63-.63,1.64,0,2.27s1.64.62,2.27,0l1.24-1.24c.63-.63.63-1.64,0-2.27-.31-.31-.72-.47-1.13-.47Z"/>
  <path class="cls-1" d="m20.48,48.16c-.92,0-1.85-.35-2.55-1.05-.68-.68-1.06-1.59-1.06-2.55s.38-1.87,1.06-2.55l3.08-3.08c1.36-1.36,3.74-1.36,5.1,0,.68.68,1.06,1.59,1.06,2.55s-.38,1.87-1.06,2.55l-3.08,3.08h0c-.7.7-1.63,1.05-2.55,1.05Zm3.08-8.29c-.43,0-.83.17-1.13.47l-3.08,3.08c-.3.3-.47.71-.47,1.13s.17.83.47,1.14c.62.62,1.65.62,2.27,0l3.08-3.08c.3-.3.47-.71.47-1.13s-.17-.83-.47-1.13c-.3-.3-.71-.47-1.13-.47Z"/>
  <path class="cls-1" d="m16.79,44.47c-.92,0-1.85-.35-2.55-1.05-1.4-1.41-1.4-3.69,0-5.1l3.08-3.08c1.41-1.41,3.69-1.41,5.1,0s1.41,3.69,0,5.1l-3.08,3.08h0c-.7.7-1.63,1.05-2.55,1.05Zm3.08-8.29c-.41,0-.82.16-1.14.47l-3.08,3.08c-.62.63-.62,1.64,0,2.27.63.62,1.64.62,2.27,0l3.08-3.08c.62-.63.62-1.64,0-2.27-.31-.31-.72-.47-1.13-.47Z"/>
  <path class="cls-1" d="m14.03,39.87c-.96,0-1.87-.37-2.55-1.06-.68-.68-1.06-1.59-1.06-2.55s.38-1.87,1.06-2.55l2.16-2.16c1.41-1.41,3.69-1.41,5.1,0,.68.68,1.06,1.59,1.06,2.55s-.38,1.87-1.06,2.55l-2.16,2.16c-.68.68-1.59,1.06-2.55,1.06Zm2.16-7.37c-.41,0-.82.16-1.13.47l-2.16,2.16c-.3.3-.47.71-.47,1.14s.17.83.47,1.13c.61.61,1.66.61,2.27,0h0l2.16-2.16c.3-.3.47-.71.47-1.14s-.17-.83-.47-1.13c-.31-.31-.72-.47-1.14-.47Z"/>
  <path class="cls-1" d="m39.21,48.16c-.92,0-1.85-.35-2.55-1.05l-4.76-4.76c-.39-.39-.39-1.02,0-1.41.39-.39,1.02-.39,1.41,0l4.76,4.76c.63.62,1.65.62,2.27,0,.3-.3.47-.71.47-1.14s-.17-.83-.47-1.13c-.39-.39-.39-1.02,0-1.41s1.02-.39,1.41,0c.68.68,1.06,1.59,1.06,2.55s-.38,1.87-1.06,2.55c-.7.7-1.63,1.05-2.55,1.05Z"/>
  <path class="cls-1" d="m42.9,44.47c-.92,0-1.85-.35-2.55-1.05l-4.76-4.76c-.39-.39-.39-1.02,0-1.41.39-.39,1.02-.39,1.41,0l4.76,4.76c.63.62,1.65.63,2.27,0,.62-.63.62-1.64,0-2.27l-.92-.92c-.39-.39-.39-1.02,0-1.41s1.02-.39,1.41,0l.92.92c1.4,1.41,1.4,3.69,0,5.1-.7.7-1.63,1.05-2.55,1.05Z"/>
  <path class="cls-1" d="m33.69,50c-.96,0-1.87-.38-2.55-1.06l-2.17-2.17c-.39-.39-.39-1.02,0-1.41s1.02-.39,1.41,0l2.17,2.17c.61.61,1.66.61,2.27,0s.63-1.64,0-2.27c-.39-.39-.39-1.02,0-1.41s1.02-.39,1.41,0c1.41,1.41,1.41,3.69,0,5.1-.68.68-1.59,1.06-2.55,1.06Z"/>
  <path class="cls-1" d="m45.66,39.87c-.95,0-1.87-.38-2.55-1.06l-3.84-3.84c-.39-.39-.39-1.02,0-1.41.39-.39,1.02-.39,1.41,0l3.84,3.84c.34.34.81.51,1.29.46.49-.05.91-.3,1.19-.72.42-.61.3-1.51-.28-2.08-.39-.39-.39-1.02,0-1.41.39-.39,1.02-.39,1.41,0,1.26,1.26,1.48,3.21.52,4.62-.61.91-1.58,1.48-2.66,1.59-.12.01-.23.02-.34.02Z"/>
  <path class="cls-1" d="m51.95,35.26c-.08,0-.17-.01-.25-.03-.26-.07-.48-.24-.62-.47l-10.13-17.55c-.27-.48-.11-1.08.36-1.36l4.61-2.71c.23-.14.5-.17.76-.11.26.07.48.24.61.47l10.13,17.5c.27.47.12,1.08-.35,1.36l-4.61,2.76c-.16.09-.33.14-.51.14Zm-8.77-18.19l9.13,15.81,2.89-1.73-9.13-15.78-2.88,1.7Z"/>
  <path class="cls-1" d="m7.74,35.26c-.18,0-.36-.05-.51-.14l-4.61-2.76c-.47-.28-.62-.89-.35-1.36L12.4,13.5c.13-.23.35-.4.61-.47.26-.07.53-.03.76.11l4.61,2.71c.47.28.63.89.36,1.36l-10.13,17.55c-.13.23-.36.4-.62.47-.08.02-.17.03-.25.03Zm-3.25-4.11l2.89,1.73,9.13-15.81-2.88-1.7-9.13,15.78Z"/>
  <path class="cls-1" d="m47.44,35.35c-.26,0-.51-.1-.71-.29l-8.38-8.38c-2.31-2.31-6.01-2.4-8.43-.28v1.41c0,2.58-2.1,4.68-4.68,4.68h-.92c-1.06,0-1.92-.86-1.92-1.92v-7.15c0-1.01.39-1.95,1.1-2.66l1.69-1.69c1.64-1.64,3.26-2.4,5.11-2.4h9.68c.66,0,1.36-.06,2.13-.19l.32,1.97c-.88.14-1.68.21-2.45.21h-9.68c-1.3,0-2.44.56-3.69,1.82l-1.69,1.69c-.33.33-.52.78-.52,1.25v7.07h.84c1.48,0,2.68-1.2,2.68-2.68v-1.84c0-.27.11-.52.29-.71,3.19-3.18,8.36-3.18,11.55,0l7.86,7.86,2.87-1.48.92,1.78-3.52,1.81c-.15.07-.3.11-.46.11Z"/>
  <rect class="cls-1" x="9.5" y="31.47" width="2" height="3.96" transform="translate(-24.05 27.47) rotate(-62.77)"/>
  <path class="cls-1" d="m29.22,18.75c-.27-.05-.51-.07-.74-.07h-8.76c-.77,0-1.57-.07-2.45-.21l.32-1.97c.77.12,1.46.19,2.13.19h8.76c.34,0,.69.03,1.07.09l-.33,1.97Z"/>
</svg>