<?xml version="1.0" encoding="UTF-8"?>
<svg id="Layer_1" data-name="Layer 1" xmlns="http://www.w3.org/2000/svg" viewBox="0 0 60 60">
  <defs>
    <style>
      .cls-1 {
        fill: #fff;
      }

      .cls-1, .cls-2 {
        stroke-width: 0px;
      }

      .cls-2 {
        fill: #37464c;
      }
    </style>
  </defs>
  <g>
    <g>
      <circle class="cls-1" cx="16.73" cy="11.4" r="5"/>
      <path class="cls-2" d="m16.73,17.4c-3.31,0-6-2.69-6-6s2.69-6,6-6,6,2.69,6,6-2.69,6-6,6Zm0-10c-2.21,0-4,1.79-4,4s1.79,4,4,4,4-1.79,4-4-1.79-4-4-4Z"/>
    </g>
    <g>
      <path class="cls-1" d="m19.73,33.69v-9.72c0-2.76-2.24-5-5-5h-1.34c-1.06,0-2.08.42-2.83,1.17l-5.66,5.66c-.75.75-1.17,1.77-1.17,2.83v6.34c0,1.1.9,2,2,2h0c1.1,0,2-.9,2-2v-5.59c0-.27.11-.52.29-.71l3.71-3.71v8.26"/>
      <path class="cls-2" d="m5.73,37.97c-1.65,0-3-1.35-3-3v-6.34c0-1.33.52-2.59,1.46-3.54l5.66-5.66c.95-.94,2.2-1.46,3.54-1.46h1.34c3.31,0,6,2.69,6,6v9.72h-2v-9.72c0-2.21-1.79-4-4-4h-1.34c-.8,0-1.55.31-2.12.88l-5.66,5.66c-.56.56-.88,1.33-.88,2.12v6.34c0,.55.45,1,1,1s1-.45,1-1v-5.58c0-.53.21-1.04.58-1.41l3.71-3.71c.29-.29.72-.37,1.09-.22.37.15.62.52.62.92v8.26h-2v-5.85l-2,2v5.59c0,1.65-1.35,3-3,3Z"/>
    </g>
    <g>
      <path class="cls-1" d="m19.73,29.8l6.59,6.59c.78.78,2.05.78,2.83,0,.78-.78.78-2.05,0-2.83l-9.41-9.41"/>
      <path class="cls-2" d="m27.73,37.97c-.77,0-1.54-.29-2.12-.88l-6.59-6.59,1.41-1.41,6.59,6.59c.39.39,1.02.39,1.41,0,.39-.39.39-1.02,0-1.42l-9.41-9.41,1.41-1.41,9.41,9.41c1.17,1.17,1.17,3.07,0,4.24-.58.58-1.35.88-2.12.88Z"/>
    </g>
    <g>
      <path class="cls-1" d="m11.95,34.97l1.57,18.2c.14,1.65,1.6,2.87,3.25,2.73,1.65-.14,2.87-1.6,2.73-3.25l-.54-6.29"/>
      <path class="cls-2" d="m16.51,56.91c-2.05,0-3.8-1.58-3.98-3.66l-1.57-18.2,1.99-.17,1.57,18.2c.09,1.1,1.07,1.92,2.16,1.82.53-.05,1.01-.3,1.36-.71.34-.41.51-.93.46-1.46l-.54-6.29,1.99-.17.54,6.29c.09,1.06-.24,2.1-.92,2.92-.69.82-1.65,1.32-2.72,1.41-.12,0-.23.01-.34.01Z"/>
    </g>
    <g>
      <path class="cls-1" d="m11.86,33.97l-4.84,17.32c-.44,1.57.3,3.27,1.65,3.8.97.38,1.99.05,2.65-.74"/>
      <path class="cls-2" d="m9.49,56.24c-.4,0-.79-.07-1.18-.22-1.84-.72-2.83-2.92-2.25-5l4.84-17.32c.15-.53.71-.84,1.23-.69.53.15.84.7.69,1.23l-4.84,17.32c-.3,1.07.18,2.26,1.05,2.6.53.21,1.1.04,1.51-.45.35-.42.98-.48,1.41-.13s.48.98.13,1.41c-.68.82-1.63,1.26-2.6,1.26Z"/>
    </g>
    <g>
      <line class="cls-1" x1="11.96" y1="35.13" x2="11.73" y2="32.66"/>
      <rect class="cls-2" x="10.85" y="32.65" width="2" height="2.48" transform="translate(-3.16 1.28) rotate(-5.44)"/>
    </g>
    <g>
      <line class="cls-1" x1="19.73" y1="33.43" x2="18.87" y2="45.44"/>
      <rect class="cls-2" x="13.28" y="38.44" width="12.04" height="2" transform="translate(-21.41 55.88) rotate(-85.91)"/>
    </g>
    <g>
      <line class="cls-1" x1="18.98" y1="46.7" x2="18.93" y2="44.73"/>
      <rect class="cls-2" x="17.95" y="44.73" width="2" height="1.97" transform="translate(-1.33 .57) rotate(-1.67)"/>
    </g>
  </g>
  <g>
    <g>
      <circle class="cls-1" cx="43.27" cy="11.4" r="5"/>
      <path class="cls-2" d="m43.27,17.4c-3.31,0-6-2.69-6-6s2.69-6,6-6,6,2.69,6,6-2.69,6-6,6Zm0-10c-2.21,0-4,1.79-4,4s1.79,4,4,4,4-1.79,4-4-1.79-4-4-4Z"/>
    </g>
    <g>
      <line class="cls-1" x1="48.27" y1="24.84" x2="48.27" y2="33.1"/>
      <rect class="cls-2" x="47.27" y="24.84" width="2" height="8.26"/>
    </g>
    <g>
      <path class="cls-1" d="m40.27,33.56v-9.72c0-2.76,2.24-5,5-5h1.34c1.06,0,2.08.42,2.83,1.17l.81.81"/>
      <path class="cls-2" d="m41.27,33.56h-2v-9.72c0-3.31,2.69-6,6-6h1.34c1.34,0,2.59.52,3.54,1.46l.81.81-1.41,1.41-.81-.81c-.57-.57-1.32-.88-2.12-.88h-1.34c-2.21,0-4,1.79-4,4v9.72Z"/>
    </g>
    <g>
      <path class="cls-1" d="m40.27,29.67l-6.59,6.59c-.78.78-2.05.78-2.83,0-.78-.78-.78-2.05,0-2.83l9.41-9.41"/>
      <path class="cls-2" d="m32.27,37.84c-.8,0-1.56-.31-2.12-.88-.57-.57-.88-1.32-.88-2.12s.31-1.56.88-2.12l9.41-9.41,1.41,1.41-9.41,9.41c-.19.19-.29.44-.29.71s.1.52.29.71c.38.38,1.04.38,1.41,0l6.59-6.59,1.41,1.41-6.59,6.59c-.57.57-1.32.88-2.12.88Z"/>
    </g>
    <g>
      <path class="cls-1" d="m48.05,34.83l-1.57,18.2c-.14,1.65-1.6,2.87-3.25,2.73-1.65-.14-2.87-1.6-2.73-3.25l.54-6.29"/>
      <path class="cls-2" d="m43.5,56.78c-.12,0-.23,0-.35-.02-2.2-.19-3.83-2.13-3.64-4.33l.54-6.29,1.99.17-.54,6.29c-.09,1.1.72,2.07,1.82,2.17.53.04,1.05-.12,1.46-.46.41-.34.66-.83.71-1.36l1.57-18.2,1.99.17-1.57,18.2c-.09,1.06-.59,2.03-1.41,2.72-.73.61-1.63.94-2.57.94Z"/>
    </g>
    <g>
      <path class="cls-1" d="m48.14,33.83l4.84,17.32c.44,1.57-.3,3.27-1.65,3.8-.97.38-1.99.05-2.65-.74"/>
      <path class="cls-2" d="m50.51,56.1c-.97,0-1.92-.44-2.6-1.26-.35-.43-.29-1.06.13-1.41.42-.36,1.06-.29,1.41.13.41.49.97.66,1.51.45.87-.34,1.35-1.53,1.05-2.6l-4.84-17.32c-.15-.53.16-1.08.69-1.23.54-.15,1.08.16,1.23.69l4.84,17.32c.58,2.08-.4,4.28-2.25,5-.39.15-.79.22-1.18.22Z"/>
    </g>
    <g>
      <line class="cls-1" x1="48.04" y1="35" x2="48.27" y2="32.52"/>
      <rect class="cls-2" x="46.91" y="32.76" width="2.48" height="2" transform="translate(9.98 78.5) rotate(-84.56)"/>
    </g>
    <g>
      <line class="cls-1" x1="40.27" y1="33.3" x2="41.13" y2="45.3"/>
      <rect class="cls-2" x="39.7" y="33.28" width="2" height="12.04" transform="translate(-2.68 2.98) rotate(-4.07)"/>
    </g>
    <g>
      <line class="cls-1" x1="41.02" y1="46.57" x2="41.07" y2="44.59"/>
      <rect class="cls-2" x="40.06" y="44.58" width="1.98" height="2" transform="translate(-5.72 85.27) rotate(-88.32)"/>
    </g>
    <g>
      <path class="cls-1" d="m49.43,27.62l3.46,8.65c.41,1.03,1.58,1.52,2.6,1.11,1.03-.41,1.52-1.58,1.11-2.6l-4.95-12.36"/>
      <path class="cls-2" d="m54.75,38.52c-.4,0-.8-.08-1.18-.24-.74-.32-1.31-.9-1.61-1.64l-3.46-8.64,1.86-.74,3.46,8.65c.1.25.29.44.53.55.25.1.52.11.77,0,.25-.1.44-.29.55-.54.1-.25.11-.52,0-.76l-4.95-12.36,1.86-.74,4.95,12.36c.3.74.29,1.56-.03,2.3-.31.74-.9,1.31-1.64,1.6-.36.14-.74.22-1.12.22Z"/>
    </g>
    <g>
      <path class="cls-1" d="m52.42,24.21c-1.31-3.21-3.81-5.38-6.68-5.38"/>
      <path class="cls-2" d="m51.5,24.59c-1.2-2.93-3.4-4.76-5.76-4.76v-2c3.18,0,6.1,2.3,7.61,6l-1.85.76Z"/>
    </g>
    <g>
      <line class="cls-1" x1="49.72" y1="28.22" x2="48.27" y2="25.24"/>
      <rect class="cls-2" x="48" y="25.07" width="2" height="3.32" transform="translate(-6.76 24.15) rotate(-25.96)"/>
    </g>
  </g>
</svg>