<?xml version="1.0" encoding="UTF-8"?>
<svg id="Layer_1" data-name="Layer 1" xmlns="http://www.w3.org/2000/svg" viewBox="0 0 60 60">
  <defs>
    <style>
      .cls-1 {
        fill: #37464c;
        stroke-width: 0px;
      }
    </style>
  </defs>
  <g>
    <g>
      <g>
        <g>
          <path class="cls-1" d="m24.59,26.64c-.25,0-.46-.15-.55-.38-.06-.16-1.4-3.98.75-7.06,1.67-2.37,4.91-3.58,9.64-3.58.26,0,.49.17.56.42.05.16,1.15,4.07-1.15,7.14-1.72,2.29-4.84,3.46-9.26,3.46Zm9.38-9.85c-4.08.07-6.84,1.11-8.23,3.08-1.45,2.07-.98,4.64-.73,5.6,3.8-.07,6.45-1.07,7.89-2.98,1.55-2.06,1.26-4.69,1.06-5.7Z"/>
          <path class="cls-1" d="m24.59,27.01c-.4,0-.76-.25-.9-.63-.06-.17-1.46-4.18.8-7.4,1.74-2.48,5.09-3.74,9.95-3.74.42,0,.8.28.92.69.05.17,1.21,4.24-1.21,7.47-1.79,2.39-5.01,3.61-9.56,3.61Zm9.85-11.02c-4.6,0-7.74,1.15-9.34,3.42-2.04,2.9-.76,6.56-.71,6.71.03.08.11.13.19.13,4.3,0,7.32-1.11,8.96-3.31,2.2-2.94,1.13-6.65,1.09-6.81-.03-.09-.11-.15-.2-.15Zm-9.7,9.86l-.07-.29c-.28-1.05-.75-3.73.78-5.91,1.46-2.07,4.32-3.16,8.53-3.24h.32s.06.3.06.3c.21,1.08.51,3.82-1.13,6-1.51,2-4.26,3.06-8.18,3.13h-.29Zm8.92-8.68c-3.77.12-6.33,1.1-7.6,2.91-1.23,1.75-.98,3.92-.74,5,3.52-.11,5.97-1.06,7.3-2.82,1.32-1.76,1.22-3.97,1.05-5.09Z"/>
        </g>
        <g>
          <path class="cls-1" d="m20.34,30.89c-.15,0-.3-.06-.41-.17-.23-.23-.23-.6,0-.82l9.88-9.88c.23-.23.6-.23.82,0,.23.23.23.6,0,.82l-9.88,9.88c-.11.11-.26.17-.41.17Z"/>
          <path class="cls-1" d="m20.33,31.26c-.26,0-.5-.1-.68-.28-.37-.37-.37-.98,0-1.35l9.88-9.88c.18-.18.42-.28.68-.28h0c.26,0,.5.1.68.28.18.18.28.42.28.68,0,.26-.1.5-.28.68l-9.88,9.88c-.18.18-.42.28-.68.28Zm9.88-11.05s-.09,0-.15.06l-9.88,9.88c-.08.08-.08.21,0,.29.11.11.19.11.29,0l9.88-9.88s.06-.09.06-.15-.02-.11-.06-.15c-.04-.04-.09-.06-.15-.06h0Z"/>
        </g>
      </g>
      <g>
        <g>
          <path class="cls-1" d="m16.08,26.64c-4.43,0-7.54-1.16-9.26-3.46-2.3-3.07-1.2-6.98-1.15-7.14.07-.25.3-.42.56-.42,4.73,0,7.98,1.2,9.64,3.58,2.16,3.07.81,6.9.75,7.06-.08.23-.3.38-.55.38Zm-9.38-9.85c-.19,1.01-.49,3.64,1.06,5.7,1.44,1.91,4.09,2.91,7.89,2.98.25-.97.72-3.55-.73-5.61-1.39-1.97-4.15-3-8.22-3.07Z"/>
          <path class="cls-1" d="m16.08,27.01c-4.55,0-7.77-1.21-9.56-3.61-2.41-3.21-1.26-7.3-1.21-7.47.12-.41.5-.69.92-.69,4.86,0,8.21,1.26,9.95,3.74,2.27,3.24.86,7.23.8,7.4-.14.38-.5.63-.9.63ZM6.24,15.99c-.09,0-.17.06-.2.15-.04.16-1.09,3.9,1.09,6.81,1.65,2.19,4.66,3.31,8.96,3.31.09,0,.17-.05.2-.14.06-.15,1.34-3.79-.71-6.71-1.59-2.27-4.73-3.42-9.34-3.42Zm9.7,9.86h-.3c-3.92-.08-6.67-1.13-8.18-3.14-1.64-2.18-1.34-4.92-1.13-6l.06-.31h.32c4.2.08,7.06,1.17,8.52,3.24,1.53,2.17,1.06,4.87.79,5.92l-.07.29Zm-8.92-8.68c-.17,1.13-.27,3.34,1.05,5.09,1.32,1.76,3.78,2.71,7.29,2.82.24-1.09.49-3.27-.74-5.01-1.28-1.81-3.83-2.79-7.6-2.9Z"/>
        </g>
        <g>
          <path class="cls-1" d="m20.34,30.89c-.15,0-.3-.06-.41-.17l-9.88-9.88c-.23-.23-.23-.6,0-.82.23-.23.6-.23.82,0l9.88,9.88c.23.23.23.6,0,.82-.11.11-.26.17-.41.17Z"/>
          <path class="cls-1" d="m20.33,31.26c-.26,0-.5-.1-.68-.28l-9.88-9.88c-.37-.37-.37-.98,0-1.35.38-.37.98-.37,1.35,0l9.88,9.88c.18.18.28.42.28.68s-.1.5-.28.68c-.18.18-.42.28-.68.28Zm-9.88-11.05c-.05,0-.11.02-.15.06-.08.08-.08.21,0,.29l9.88,9.88c.12.12.2.09.29,0,.08-.08.08-.21,0-.29l-9.88-9.88s-.09-.06-.15-.06Z"/>
        </g>
      </g>
    </g>
    <g>
      <path class="cls-1" d="m17.1,40.24h-7.36c-.22,0-.43-.13-.52-.33-.1-.2-.07-.44.06-.61.83-1.06,1.57-2.07,2.22-2.95,2.87-3.91,4.77-6.49,8.69-6.49.32,0,.58.26.58.58s-.26.58-.58.58c-3.33,0-4.9,2.14-7.76,6.01-.46.63-.97,1.31-1.52,2.04h6.18c.32,0,.58.26.58.58s-.26.58-.58.58Z"/>
      <path class="cls-1" d="m17.1,40.61h-7.36c-.36,0-.7-.21-.86-.54-.16-.33-.12-.72.11-1.01.8-1.03,1.53-2.02,2.17-2.89,2.98-4.06,4.93-6.7,9.04-6.7.53,0,.96.43.96.96s-.43.96-.96.96c-3.14,0-4.58,1.96-7.45,5.86l-.07.1c-.31.42-.64.87-.99,1.34h5.43c.53,0,.96.43.96.96s-.43.96-.96.96Zm3.09-10.38c-3.73,0-5.59,2.52-8.39,6.33-.69.93-1.42,1.92-2.22,2.96-.05.06-.06.15-.02.22.03.07.11.12.19.12h7.36c.11,0,.21-.09.21-.21s-.09-.21-.21-.21h-6.94l.46-.6c.52-.68,1-1.34,1.44-1.93l.07-.1c2.83-3.84,4.54-6.16,8.06-6.16.11,0,.21-.09.21-.21s-.09-.21-.21-.21Z"/>
    </g>
  </g>
  <g>
    <g>
      <path class="cls-1" d="m28.5,45.16c-.18,0-.36,0-.54-.01l-9.4-.42c-.25-.01-.5-.04-.74-.08l-10.12-1.66c-1.06-.17-1.78-1.15-1.64-2.22.13-.97.97-1.7,1.95-1.7h9.08c.86,0,1.72-.11,2.55-.32l3.12-.8c.85-.22,1.69-.52,2.49-.9l4.54-2.13c.29-.14.64-.01.77.28.14.29.01.64-.28.77l-4.54,2.13c-.86.41-1.77.73-2.69.97l-3.12.8c-.93.24-1.88.36-2.84.36h-9.08c-.4,0-.75.3-.8.7-.06.44.23.84.67.91l10.12,1.66c.2.03.4.05.6.06l9.4.42c1.29.06,2.58-.11,3.81-.51l9.98-3.22c.46-.19,5.25-1.92,14.22,2.75.29.15.4.5.25.79-.15.29-.5.4-.79.25-8.69-4.52-13.21-2.72-13.25-2.7-.02,0-.03.01-.05.02l-10,3.23c-1.19.39-2.43.58-3.68.58Z"/>
      <path class="cls-1" d="m28.5,45.53c-.19,0-.37,0-.55-.01l-9.4-.42c-.26-.01-.53-.04-.78-.08l-10.12-1.66c-1.27-.21-2.12-1.37-1.95-2.64.16-1.16,1.16-2.03,2.33-2.03h9.08c.83,0,1.66-.1,2.46-.31l3.12-.8c.83-.21,1.64-.51,2.42-.87l4.54-2.13c.23-.11.49-.12.73-.03.24.09.43.26.54.49.22.48.02,1.05-.46,1.27l-4.54,2.13c-.88.42-1.81.75-2.76.99l-3.12.8c-.96.25-1.94.37-2.93.37h-9.08c-.21,0-.4.16-.43.37-.03.24.12.45.36.49l10.12,1.66c.18.03.37.05.56.06l9.4.42c1.24.06,2.49-.11,3.68-.49l9.98-3.22c.5-.21,5.42-1.95,14.51,2.77.47.24.65.82.41,1.29-.12.23-.32.39-.56.47s-.5.05-.73-.06c-8.45-4.39-12.9-2.7-12.94-2.69l-10.08,3.26c-1.23.4-2.51.6-3.79.6Zm-20.48-6.09c-.79,0-1.47.59-1.58,1.38-.12.87.46,1.65,1.33,1.79l10.12,1.66c.23.04.46.06.69.07l9.4.42c1.38.06,2.76-.12,4.09-.55l10-3.23c.21-.09,4.78-1.88,13.59,2.71.05.03.11.03.16.01.05-.02.1-.05.12-.1.05-.1.01-.23-.09-.28-8.79-4.58-13.41-2.94-13.91-2.74l-10,3.23c-1.28.41-2.59.59-3.94.53l-9.4-.42c-.22,0-.43-.03-.65-.07l-10.12-1.66c-.64-.1-1.07-.69-.98-1.33.08-.58.58-1.02,1.17-1.02h9.08c.93,0,1.85-.12,2.75-.35l3.12-.8c.9-.23,1.79-.55,2.63-.95l4.54-2.13c.1-.05.15-.17.1-.28-.05-.1-.17-.15-.28-.1l-4.54,2.13c-.82.38-1.68.69-2.55.92l-3.12.8c-.86.22-1.75.33-2.64.33h-9.08Z"/>
    </g>
    <g>
      <path class="cls-1" d="m36.61,36.02h-9.2s-.07,0-.11,0l-5.03-.93c-1.22-.22-2.11-1.29-2.11-2.53,0-.7.27-1.35.77-1.84.5-.49,1.15-.74,1.85-.74l7.77.14,4.74-1.8s.03,0,.04-.01c7.73-2.33,10.38-.99,10.88-.65l9.78,4.36c.29.13.43.48.29.77-.13.29-.47.43-.77.29l-9.84-4.39s-.08-.04-.12-.07c0,0-2.26-1.49-9.87.79l-4.82,1.84c-.07.03-.14.04-.22.04l-7.88-.14c-.38-.01-.74.14-1.01.4-.27.27-.42.62-.42,1.01,0,.68.48,1.26,1.15,1.39l4.98.92h9.14c.32,0,.58.26.58.58s-.26.58-.58.58Z"/>
      <path class="cls-1" d="m36.61,36.4h-9.2c-.06,0-.12,0-.18-.02l-5.03-.93c-1.4-.26-2.41-1.48-2.41-2.9,0-.8.31-1.54.88-2.1.56-.55,1.32-.87,2.11-.84l7.7.14,4.67-1.78c7.81-2.35,10.59-1.07,11.26-.63l9.73,4.33c.23.1.41.29.5.53.09.24.08.5-.02.73-.21.48-.78.7-1.26.48l-9.84-4.39c-.07-.03-.14-.07-.2-.12h0s-2.27-1.32-9.54.86l-4.79,1.83c-.11.04-.23.06-.35.06l-7.89-.14c-.29-.02-.54.09-.74.3-.2.2-.31.46-.31.74,0,.5.36.93.85,1.02l4.98.92h9.08c.53,0,.96.42.96.95s-.43.96-.96.96Zm-13.85-6.04c-.6,0-1.15.22-1.57.63-.42.42-.66.97-.66,1.57,0,1.06.76,1.97,1.8,2.16l5.04.93h9.23c.11,0,.21-.09.21-.2s-.09-.21-.21-.21h-9.14l-5.05-.92c-.84-.16-1.46-.89-1.46-1.75,0-.48.19-.94.53-1.27.36-.35.82-.53,1.29-.51l7.87.14,4.9-1.85c7.82-2.35,10.13-.82,10.22-.75l9.89,4.42c.1.05.23,0,.27-.1.02-.05.02-.11,0-.16-.02-.05-.06-.09-.11-.11l-9.78-4.36c-.48-.32-3-1.62-10.62.67l-4.82,1.83-7.84-.14h-.01Z"/>
    </g>
  </g>
</svg>