<?xml version="1.0" encoding="UTF-8"?>
<svg id="Layer_1" data-name="Layer 1" xmlns="http://www.w3.org/2000/svg" viewBox="0 0 60 60">
  <defs>
    <style>
      .cls-1 {
        fill: #37464c;
        stroke-width: 0px;
      }
    </style>
  </defs>
  <g>
    <path class="cls-1" d="m49.45,24.1c-.33,0-.6-.27-.6-.6,0-10.44-8.49-18.93-18.94-18.93S10.98,13.06,10.98,23.5c0,.33-.27.6-.6.6s-.6-.27-.6-.6C9.77,12.4,18.81,3.36,29.91,3.36s20.14,9.03,20.14,20.13c0,.33-.27.6-.6.6Z"/>
    <path class="cls-1" d="m49.45,24.48c-.54,0-.98-.44-.98-.98,0-10.23-8.33-18.55-18.56-18.55S11.35,13.27,11.35,23.5c0,.54-.44.98-.98.98s-.98-.44-.98-.98C9.4,12.19,18.6,2.99,29.91,2.99s20.52,9.2,20.52,20.51c0,.54-.44.98-.98.98ZM29.91,4.19c10.65,0,19.31,8.66,19.31,19.3,0,.25.46.25.46,0,0-10.9-8.87-19.76-19.77-19.76S10.15,12.6,10.15,23.5c0,.25.46.25.46,0,0-10.64,8.66-19.3,19.31-19.3Z"/>
  </g>
  <g>
    <path class="cls-1" d="m10.3,39.75c-1.67,0-3.03-1.36-3.03-3.03v-10.62c0-1.67,1.36-3.03,3.03-3.03s3.03,1.36,3.03,3.03v10.62c0,1.67-1.36,3.03-3.03,3.03Zm0-15.47c-1.01,0-1.82.82-1.82,1.82v10.62c0,1,.82,1.82,1.82,1.82s1.82-.82,1.82-1.82v-10.62c0-1-.82-1.82-1.82-1.82Z"/>
    <path class="cls-1" d="m10.3,40.12c-1.88,0-3.4-1.53-3.4-3.4v-10.62c0-1.88,1.53-3.4,3.4-3.4s3.4,1.53,3.4,3.4v10.62c0,1.88-1.53,3.4-3.4,3.4Zm0-16.67c-1.46,0-2.65,1.19-2.65,2.65v10.62c0,1.46,1.19,2.65,2.65,2.65s2.65-1.19,2.65-2.65v-10.62c0-1.46-1.19-2.65-2.65-2.65Zm0,15.47c-1.21,0-2.2-.99-2.2-2.2v-10.62c0-1.21.99-2.2,2.2-2.2s2.2.99,2.2,2.2v10.62c0,1.21-.99,2.2-2.2,2.2Zm0-14.26c-.8,0-1.45.65-1.45,1.45v10.62c0,.8.65,1.45,1.45,1.45s1.45-.65,1.45-1.45v-10.62c0-.8-.65-1.45-1.45-1.45Z"/>
  </g>
  <g>
    <path class="cls-1" d="m49.38,39.75c-1.67,0-3.03-1.36-3.03-3.03v-10.62c0-1.67,1.36-3.03,3.03-3.03s3.03,1.36,3.03,3.03v10.62c0,1.67-1.36,3.03-3.03,3.03Zm0-15.47c-1.01,0-1.82.82-1.82,1.82v10.62c0,1,.82,1.82,1.82,1.82s1.82-.82,1.82-1.82v-10.62c0-1-.82-1.82-1.82-1.82Z"/>
    <path class="cls-1" d="m49.38,40.12c-1.88,0-3.4-1.53-3.4-3.4v-10.62c0-1.88,1.53-3.4,3.4-3.4s3.4,1.53,3.4,3.4v10.62c0,1.88-1.53,3.4-3.4,3.4Zm0-16.67c-1.46,0-2.65,1.19-2.65,2.65v10.62c0,1.46,1.19,2.65,2.65,2.65s2.65-1.19,2.65-2.65v-10.62c0-1.46-1.19-2.65-2.65-2.65Zm0,15.47c-1.21,0-2.2-.99-2.2-2.2v-10.62c0-1.21.99-2.2,2.2-2.2s2.2.99,2.2,2.2v10.62c0,1.21-.99,2.2-2.2,2.2Zm0-14.26c-.8,0-1.45.65-1.45,1.45v10.62c0,.8.65,1.45,1.45,1.45s1.45-.65,1.45-1.45v-10.62c0-.8-.65-1.45-1.45-1.45Z"/>
  </g>
  <g>
    <path class="cls-1" d="m42.48,53.79h-6.18c-.33,0-.6-.27-.6-.6s.27-.6.6-.6h6.18c3.4,0,6.22-2.76,6.3-6.16v-.14s0-6.76,0-6.76c0-.33.27-.6.6-.6s.6.27.6.6v6.76c0,.05,0,.11,0,.16-.09,4.05-3.45,7.34-7.5,7.34Z"/>
    <path class="cls-1" d="m42.48,54.16h-6.18c-.54,0-.98-.44-.98-.98s.44-.98.98-.98h6.18c3.2,0,5.85-2.6,5.92-5.79v-.13s0-6.76,0-6.76c0-.54.44-.98.98-.98s.98.44.98.98v6.93c-.09,4.25-3.63,7.71-7.88,7.71Zm-6.18-1.21c-.13,0-.23.1-.23.23s.1.23.23.23h6.18c3.85,0,7.04-3.13,7.13-6.97v-.16s0-6.76,0-6.76c0-.25-.46-.25-.46,0v6.91c-.08,3.6-3.07,6.53-6.67,6.53h-6.18Z"/>
  </g>
  <g>
    <path class="cls-1" d="m33.67,56.17h-7.52c-1.65,0-2.98-1.34-2.98-2.98s1.34-2.98,2.98-2.98h7.52c1.65,0,2.98,1.34,2.98,2.98s-1.34,2.98-2.98,2.98Zm-7.52-4.76c-.98,0-1.78.8-1.78,1.78s.8,1.78,1.78,1.78h7.52c.98,0,1.78-.8,1.78-1.78s-.8-1.78-1.78-1.78h-7.52Z"/>
    <path class="cls-1" d="m33.67,56.54h-7.52c-1.85,0-3.36-1.51-3.36-3.36s1.51-3.36,3.36-3.36h7.52c1.85,0,3.36,1.51,3.36,3.36s-1.51,3.36-3.36,3.36Zm-7.52-5.96c-1.44,0-2.61,1.17-2.61,2.61s1.17,2.61,2.61,2.61h7.52c1.44,0,2.61-1.17,2.61-2.61s-1.17-2.61-2.61-2.61h-7.52Zm7.52,4.76h-7.52c-1.19,0-2.15-.97-2.15-2.15s.97-2.15,2.15-2.15h7.52c1.19,0,2.15.97,2.15,2.15s-.97,2.15-2.15,2.15Zm-7.52-3.55c-.77,0-1.4.63-1.4,1.4s.63,1.4,1.4,1.4h7.52c.77,0,1.4-.63,1.4-1.4s-.63-1.4-1.4-1.4h-7.52Z"/>
  </g>
</svg>