<svg width="164" height="163" xmlns="http://www.w3.org/2000/svg" xmlns:xlink="http://www.w3.org/1999/xlink" xml:space="preserve" overflow="hidden"><g transform="translate(-98 -141)"><path d="M44.2002 157.023C38.5767 157.023 34.0127 152.84 34.0127 147.678 34.0127 142.516 38.5767 138.333 44.2002 138.333 49.8237 138.333 54.3877 142.516 54.3877 147.678 54.3877 152.84 49.8237 157.023 44.2002 157.023ZM44.2002 143.793C41.5922 143.793 39.446 145.532 39.446 147.705 39.446 149.878 41.565 151.617 44.2002 151.617 46.8353 151.617 48.9543 149.878 48.9543 147.705 48.9543 145.532 46.8353 143.793 44.2002 143.793Z" fill="#6100DC" transform="matrix(1.00613 0 0 1 98 141)"/><path d="M14.3712 130.563C8.74767 130.563 4.18367 126.379 4.18367 121.218 4.18367 116.056 8.74767 111.872 14.3712 111.872 19.9947 111.872 24.5587 116.056 24.5587 121.218 24.5587 126.379 19.9947 130.563 14.3712 130.563ZM14.3712 117.333C11.7632 117.333 9.617 119.072 9.617 121.245 9.617 123.418 11.736 125.157 14.3712 125.157 17.0063 125.157 19.1253 123.418 19.1253 121.245 19.1253 119.072 17.0063 117.333 14.3712 117.333Z" fill="#6100DC" transform="matrix(1.00613 0 0 1 98 141)"/><path d="M18.093 84.2167C12.4695 84.2167 7.9055 80.033 7.9055 74.8713 7.9055 69.7097 12.4695 65.526 18.093 65.526 23.7165 65.526 28.2805 69.7097 28.2805 74.8713 28.2805 80.033 23.7165 84.2167 18.093 84.2167ZM18.093 70.9865C15.485 70.9865 13.3388 72.7252 13.3388 74.8985 13.3388 77.0718 15.4578 78.8105 18.093 78.8105 20.7282 78.8105 22.8472 77.0718 22.8472 74.8985 22.8472 72.7252 20.7282 70.9865 18.093 70.9865Z" fill="#6100DC" transform="matrix(1.00613 0 0 1 98 141)"/><path d="M137.436 57.7292C131.813 57.7292 127.249 53.5455 127.249 48.3838 127.249 43.2222 131.813 39.0385 137.436 39.0385 143.06 39.0385 147.624 43.2222 147.624 48.3838 147.624 53.5455 143.06 57.7292 137.436 57.7292ZM137.436 44.499C134.828 44.499 132.682 46.2377 132.682 48.411 132.682 50.5843 134.801 52.323 137.436 52.323 140.071 52.323 142.19 50.5843 142.19 48.411 142.19 46.2377 140.071 44.499 137.436 44.499Z" fill="#6100DC" transform="matrix(1.00613 0 0 1 98 141)"/><path d="M148.629 130.563C143.005 130.563 138.441 126.379 138.441 121.218 138.441 116.056 143.005 111.872 148.629 111.872 154.252 111.872 158.816 116.056 158.816 121.218 158.816 126.379 154.252 130.563 148.629 130.563ZM148.629 117.333C146.021 117.333 143.875 119.072 143.875 121.245 143.875 123.418 145.994 125.157 148.629 125.157 151.264 125.157 153.383 123.418 153.383 121.245 153.383 119.072 151.264 117.333 148.629 117.333Z" fill="#6100DC" transform="matrix(1.00613 0 0 1 98 141)"/><path d="M122.522 24.6402C116.898 24.6402 112.334 20.4565 112.334 15.2948 112.334 10.1332 116.898 5.9495 122.522 5.9495 128.145 5.9495 132.709 10.1332 132.709 15.2948 132.709 20.4565 128.145 24.6402 122.522 24.6402ZM122.522 11.41C119.914 11.41 117.767 13.1487 117.767 15.322 117.767 17.4953 119.887 19.234 122.522 19.234 125.157 19.234 127.276 17.4953 127.276 15.322 127.276 13.1487 125.157 11.41 122.522 11.41Z" fill="#6100DC" transform="matrix(1.00613 0 0 1 98 141)"/><path d="M40.4783 51.1277C34.8548 51.1277 30.2908 46.944 30.2908 41.7823 30.2908 36.6207 34.8548 32.437 40.4783 32.437 46.1018 32.437 50.6658 36.6207 50.6658 41.7823 50.6658 46.944 46.1018 51.1277 40.4783 51.1277ZM40.4783 37.8975C37.8703 37.8975 35.7242 39.6362 35.7242 41.8095 35.7242 43.9828 37.8432 45.7215 40.4783 45.7215 43.1135 45.7215 45.2325 43.9828 45.2325 41.8095 45.2325 39.6362 43.1135 37.8975 40.4783 37.8975Z" fill="#6100DC" transform="matrix(1.00613 0 0 1 98 141)"/><path d="M141.158 123.934 92.6655 123.934C91.1713 123.934 89.9488 122.712 89.9488 121.218L89.9488 114.589C89.9488 113.095 91.1713 111.872 92.6655 111.872 94.1597 111.872 95.3822 113.095 95.3822 114.589L95.3822 118.501 141.158 118.501C142.652 118.501 143.875 119.724 143.875 121.218 143.875 122.712 142.652 123.934 141.158 123.934Z" fill="#6100DC" transform="matrix(1.00613 0 0 1 98 141)"/><path d="M21.8148 123.934C21.4617 123.934 21.1085 123.88 20.7825 123.744 20.4565 123.608 20.1577 123.391 19.9132 123.147 19.6415 122.875 19.4513 122.576 19.3155 122.25 19.1797 121.924 19.0982 121.571 19.0982 121.218 19.0982 120.865 19.1797 120.511 19.3155 120.185 19.4513 119.859 19.6415 119.56 19.9132 119.316 20.1577 119.044 20.4565 118.854 20.7825 118.718 21.7877 118.284 22.983 118.528 23.7437 119.316 23.9882 119.56 24.2055 119.859 24.3413 120.185 24.4772 120.511 24.5315 120.865 24.5315 121.218 24.5315 121.571 24.4772 121.924 24.3413 122.25 24.2055 122.576 23.9882 122.875 23.7437 123.147 23.472 123.391 23.2003 123.608 22.8743 123.744 22.5483 123.88 22.1952 123.934 21.8148 123.934Z" fill="#6100DC" transform="matrix(1.00613 0 0 1 98 141)"/><path d="M19.0982 121.218C19.0982 119.724 20.3207 118.501 21.8148 118.501L21.8148 118.501C23.309 118.501 24.5315 119.724 24.5315 121.218L24.5315 121.218C24.5315 122.712 23.309 123.934 21.8148 123.934L21.8148 123.934C20.3207 123.934 19.0982 122.712 19.0982 121.218Z" fill="#6100DC" transform="matrix(1.00613 0 0 1 98 141)"/><path d="M52.7033 121.218C52.7033 119.724 53.9258 118.501 55.42 118.501L55.42 118.501C56.9142 118.501 58.1367 119.724 58.1367 121.218L58.1367 121.218C58.1367 122.712 56.9142 123.934 55.42 123.934L55.42 123.934C53.9258 123.934 52.7033 122.712 52.7033 121.218ZM42.7332 121.218C42.7332 119.724 43.9557 118.501 45.4498 118.501L45.4498 118.501C46.944 118.501 48.1665 119.724 48.1665 121.218L48.1665 121.218C48.1665 122.712 46.944 123.934 45.4498 123.934L45.4498 123.934C43.9557 123.934 42.7332 122.712 42.7332 121.218ZM32.763 121.218C32.763 119.724 33.9855 118.501 35.5068 118.501L35.5068 118.501C37.001 118.501 38.2235 119.724 38.2235 121.218L38.2235 121.218C38.2235 122.712 37.001 123.934 35.5068 123.934L35.5068 123.934C33.9855 123.934 32.763 122.712 32.763 121.218Z" fill="#6100DC" transform="matrix(1.00613 0 0 1 98 141)"/><path d="M62.8365 123.934C62.103 123.934 61.4238 123.663 60.9348 123.147 60.6632 122.875 60.473 122.603 60.3372 122.25 60.2013 121.924 60.1198 121.571 60.1198 121.218 60.1198 120.865 60.2013 120.511 60.3372 120.185 60.473 119.859 60.6632 119.56 60.9348 119.289 61.1793 119.044 61.4782 118.854 61.8042 118.718 62.8093 118.311 64.0318 118.555 64.7653 119.289 65.2815 119.805 65.5532 120.511 65.5532 121.218 65.5532 121.571 65.4988 121.924 65.363 122.25 65.2272 122.603 65.0098 122.875 64.7653 123.147 64.5208 123.391 64.222 123.608 63.896 123.744 63.5428 123.88 63.1897 123.934 62.8365 123.934Z" fill="#6100DC" transform="matrix(1.00613 0 0 1 98 141)"/><path d="M60.1198 121.218C60.1198 119.724 61.3423 118.501 62.8365 118.501L62.8365 118.501C64.3307 118.501 65.5532 119.724 65.5532 121.218L65.5532 121.218C65.5532 122.712 64.3307 123.934 62.8365 123.934L62.8365 123.934C61.3423 123.934 60.1198 122.712 60.1198 121.218Z" fill="#6100DC" transform="matrix(1.00613 0 0 1 98 141)"/><path d="M60.1198 113.475C60.1198 111.981 61.3423 110.758 62.8365 110.758L62.8365 110.758C64.3307 110.758 65.5532 111.981 65.5532 113.475L65.5532 113.475C65.5532 114.969 64.3307 116.192 62.8365 116.192L62.8365 116.192C61.3423 116.192 60.1198 114.969 60.1198 113.475Z" fill="#6100DC" transform="matrix(1.00613 0 0 1 98 141)"/><path d="M62.8365 108.449C62.4833 108.449 62.1302 108.395 61.8042 108.259 61.4782 108.123 61.1793 107.906 60.9348 107.662 60.4187 107.145 60.1198 106.466 60.1198 105.733 60.1198 105.38 60.2013 105.026 60.3372 104.7 60.473 104.374 60.6632 104.076 60.9348 103.831 61.5597 103.179 62.4833 102.88 63.3798 103.07 63.5428 103.125 63.7058 103.152 63.8688 103.233 64.059 103.288 64.1948 103.396 64.3578 103.478 64.4937 103.587 64.6295 103.695 64.7653 103.831 65.0098 104.076 65.2272 104.374 65.363 104.7 65.4988 105.026 65.5532 105.38 65.5532 105.733 65.5532 106.466 65.2815 107.145 64.7653 107.662 64.2492 108.178 63.57 108.449 62.8365 108.449Z" fill="#6100DC" transform="matrix(1.00613 0 0 1 98 141)"/><path d="M115.051 157.023C109.427 157.023 104.863 152.84 104.863 147.678 104.863 142.516 109.427 138.333 115.051 138.333 120.674 138.333 125.238 142.516 125.238 147.678 125.238 152.84 120.674 157.023 115.051 157.023ZM115.051 143.793C112.443 143.793 110.297 145.532 110.297 147.705 110.297 149.878 112.416 151.617 115.051 151.617 117.686 151.617 119.805 149.878 119.805 147.705 119.805 145.532 117.686 143.793 115.051 143.793Z" fill="#6100DC" transform="matrix(1.00613 0 0 1 98 141)"/><path d="M70.3073 54.4148C68.8132 54.4148 67.5907 53.1923 67.5907 51.6982L67.5907 44.4718 47.922 44.4718C46.4278 44.4718 45.2053 43.2493 45.2053 41.7552 45.2053 40.261 46.4278 39.0385 47.922 39.0385L70.3073 39.0385C71.8015 39.0385 73.024 40.261 73.024 41.7552L73.024 51.6982C73.024 53.1923 71.8015 54.4148 70.3073 54.4148Z" fill="#6100DC" transform="matrix(1.00613 0 0 1 98 141)"/><path d="M137.436 70.9865 115.947 70.9865C114.453 70.9865 113.231 69.764 113.231 68.2698 113.231 66.7757 114.453 65.5532 115.947 65.5532L134.719 65.5532 134.719 55.0397C134.719 53.5455 135.942 52.323 137.436 52.323 138.93 52.323 140.153 53.5455 140.153 55.0397L140.153 68.2698C140.153 69.764 138.93 70.9865 137.436 70.9865Z" fill="#6100DC" transform="matrix(1.00613 0 0 1 98 141)"/><path d="M92.6655 53.7357C92.3123 53.7357 91.9592 53.6813 91.6332 53.5455 91.3072 53.4097 91.0083 53.1923 90.7638 52.9478 90.4922 52.6762 90.302 52.4045 90.1662 52.0785 90.0303 51.7253 89.9488 51.3993 89.9488 51.019 89.9488 50.3127 90.2477 49.6063 90.7638 49.1173 91.769 48.085 93.5892 48.085 94.5943 49.1173 95.1105 49.6063 95.3822 50.3127 95.3822 51.019 95.3822 51.3722 95.3278 51.7253 95.192 52.0785 95.0562 52.4045 94.8388 52.6762 94.5943 52.9478 94.3498 53.1923 94.051 53.4097 93.725 53.5455 93.399 53.6813 93.0458 53.7357 92.6655 53.7357Z" fill="#6100DC" transform="matrix(1.00613 0 0 1 98 141)"/><path d="M89.976 51.019C89.976 49.5248 91.1713 48.3023 92.6655 48.3023L92.6655 48.3023C94.1868 48.3023 95.3822 49.5248 95.3822 51.019L95.3822 51.019C95.3822 52.5403 94.1868 53.7357 92.6655 53.7357L92.6655 53.7357C91.1713 53.7357 89.976 52.5403 89.976 51.019Z" fill="#6100DC" transform="matrix(1.00613 0 0 1 98 141)"/><path d="M89.976 39.12C89.976 37.6258 91.1713 36.4033 92.6655 36.4033L92.6655 36.4033C94.1868 36.4033 95.3822 37.6258 95.3822 39.12L95.3822 39.12C95.3822 40.6142 94.1868 41.8367 92.6655 41.8367L92.6655 41.8367C91.1713 41.8367 89.976 40.6142 89.976 39.12ZM89.976 28.2533C89.976 26.7592 91.1713 25.5367 92.6655 25.5367L92.6655 25.5367C94.1868 25.5367 95.3822 26.7592 95.3822 28.2533L95.3822 28.2533C95.3822 29.7475 94.1868 30.97 92.6655 30.97L92.6655 30.97C91.1713 30.97 89.976 29.7475 89.976 28.2533Z" fill="#6100DC" transform="matrix(1.00613 0 0 1 98 141)"/><path d="M92.6655 18.0115C92.3123 18.0115 91.9592 17.9572 91.6332 17.8213 91.3072 17.6855 91.0083 17.4682 90.7638 17.2237 90.4922 16.952 90.302 16.6532 90.1662 16.3272 90.0303 16.0012 89.9488 15.648 89.9488 15.2948 89.9488 14.5885 90.2477 13.8822 90.7638 13.366 91.769 12.3608 93.5892 12.3608 94.5943 13.366 95.1105 13.8822 95.3822 14.5885 95.3822 15.2948 95.3822 15.648 95.3278 16.0012 95.192 16.3272 95.0562 16.6532 94.8388 16.952 94.5943 17.2237 94.3498 17.4682 94.051 17.6855 93.725 17.8213 93.399 17.9572 93.0458 18.0115 92.6655 18.0115Z" fill="#6100DC" transform="matrix(1.00613 0 0 1 98 141)"/><path d="M89.976 15.2948C89.976 13.8007 91.1713 12.5782 92.6655 12.5782L92.6655 12.5782C94.1868 12.5782 95.3822 13.8007 95.3822 15.2948L95.3822 15.2948C95.3822 16.8162 94.1868 18.0115 92.6655 18.0115L92.6655 18.0115C91.1713 18.0115 89.976 16.8162 89.976 15.2948Z" fill="#6100DC" transform="matrix(1.00613 0 0 1 98 141)"/><path d="M101.142 15.2948C101.142 13.8007 102.364 12.5782 103.858 12.5782L103.858 12.5782C105.38 12.5782 106.575 13.8007 106.575 15.2948L106.575 15.2948C106.575 16.8162 105.38 18.0115 103.858 18.0115L103.858 18.0115C102.364 18.0115 101.142 16.8162 101.142 15.2948Z" fill="#6100DC" transform="matrix(1.00613 0 0 1 98 141)"/><path d="M115.051 18.0115C114.698 18.0115 114.345 17.9572 114.019 17.8213 113.692 17.6855 113.394 17.4682 113.122 17.2237 112.633 16.7075 112.334 16.0283 112.334 15.2948 112.334 14.9417 112.416 14.5885 112.551 14.2625 112.687 13.9365 112.878 13.6377 113.122 13.366 114.127 12.3608 115.974 12.388 116.98 13.366 117.224 13.6377 117.414 13.9365 117.577 14.2625 117.713 14.5885 117.767 14.9417 117.767 15.2948 117.767 16.0283 117.496 16.7075 116.98 17.2237 116.735 17.4682 116.436 17.6855 116.083 17.8213 115.757 17.9572 115.404 18.0115 115.051 18.0115Z" fill="#6100DC" transform="matrix(1.00613 0 0 1 98 141)"/><path d="M51.671 77.588 25.5638 77.588C24.0697 77.588 22.8472 76.3655 22.8472 74.8713 22.8472 73.3772 24.0697 72.1547 25.5638 72.1547L51.671 72.1547C53.1652 72.1547 54.3877 73.3772 54.3877 74.8713 54.3877 76.3655 53.1652 77.588 51.671 77.588Z" fill="#6100DC" transform="matrix(1.00613 0 0 1 98 141)"/><path d="M142.163 81.5C142.163 80.0058 143.386 78.7833 144.88 78.7833L144.88 78.7833C146.401 78.7833 147.597 80.0058 147.597 81.5L147.597 81.5C147.597 82.9942 146.401 84.2167 144.88 84.2167L144.88 84.2167C143.386 84.2167 142.163 82.9942 142.163 81.5ZM131.297 81.5C131.297 80.0058 132.519 78.7833 134.013 78.7833L134.013 78.7833C135.535 78.7833 136.73 80.0058 136.73 81.5L136.73 81.5C136.73 82.9942 135.535 84.2167 134.013 84.2167L134.013 84.2167C132.519 84.2167 131.297 82.9942 131.297 81.5ZM120.43 81.5C120.43 80.0058 121.652 78.7833 123.147 78.7833L123.147 78.7833C124.668 78.7833 125.863 80.0058 125.863 81.5L125.863 81.5C125.863 82.9942 124.668 84.2167 123.147 84.2167L123.147 84.2167C121.652 84.2167 120.43 82.9942 120.43 81.5Z" fill="#6100DC" transform="matrix(1.00613 0 0 1 98 141)"/><path d="M77.7782 150.422 51.671 150.422C50.1768 150.422 48.9543 149.199 48.9543 147.705 48.9543 146.211 50.1768 144.988 51.671 144.988L75.0615 144.988 75.0615 115.812C75.0615 114.317 76.284 113.095 77.7782 113.095 79.2723 113.095 80.4948 114.317 80.4948 115.812L80.4948 147.705C80.4948 149.199 79.2723 150.422 77.7782 150.422Z" fill="#6100DC" transform="matrix(1.00613 0 0 1 98 141)"/><path d="M104.863 147.705C104.863 146.211 106.086 144.988 107.58 144.988L107.58 144.988C109.101 144.988 110.324 146.211 110.324 147.705L110.324 147.705C110.324 149.199 109.101 150.422 107.58 150.422L107.58 150.422C106.086 150.422 104.863 149.199 104.863 147.705ZM94.0238 147.705C94.0238 146.211 95.2192 144.988 96.7405 144.988L96.7405 144.988C98.2347 144.988 99.4572 146.211 99.4572 147.705L99.4572 147.705C99.4572 149.199 98.2347 150.422 96.7405 150.422L96.7405 150.422C95.2192 150.422 94.0238 149.199 94.0238 147.705ZM83.1572 147.705C83.1572 146.211 84.3525 144.988 85.8738 144.988L85.8738 144.988C87.368 144.988 88.5905 146.211 88.5905 147.705L88.5905 147.705C88.5905 149.199 87.368 150.422 85.8738 150.422L85.8738 150.422C84.3525 150.422 83.1572 149.199 83.1572 147.705Z" fill="#6100DC" transform="matrix(1.00613 0 0 1 98 141)"/><path d="M51.671 69.5467C50.1768 69.5467 48.9543 68.3242 48.9543 66.83L48.9543 58.7343C48.9543 57.7563 49.4977 56.8598 50.3398 56.3708 50.9647 56.0177 65.5532 47.922 83.8092 47.922 86.8518 47.922 89.976 48.1393 93.1273 48.6012 94.6215 48.8185 95.6538 50.204 95.4365 51.671 95.2192 53.1652 93.888 54.1975 92.3667 53.9802 89.487 53.5727 86.6073 53.3553 83.8092 53.3553 70.09 53.3553 58.2997 58.4627 54.3877 60.3915L54.3877 66.83C54.3877 68.3242 53.1652 69.5467 51.671 69.5467Z" fill="#6100DC" transform="matrix(1.00613 0 0 1 98 141)"/><path d="M115.947 70.9865C114.453 70.9865 113.231 69.764 113.231 68.2698L113.231 60.4187C110.161 58.9245 102.228 55.4472 92.3667 54.0073 90.8725 53.79 89.8402 52.4045 90.0575 50.9375 90.2748 49.4433 91.6603 48.4382 93.1273 48.6283 106.874 50.6115 116.844 56.1535 117.278 56.3708 118.121 56.8598 118.664 57.7563 118.664 58.7343L118.664 68.2427C118.664 69.7368 117.441 70.9593 115.947 70.9593Z" fill="#6100DC" transform="matrix(1.00613 0 0 1 98 141)"/><path d="M83.8092 120.783C83.5103 120.783 83.1843 120.729 82.9127 120.62 82.2607 120.403 66.7757 114.806 56.9413 103.668 55.9362 102.554 56.0448 100.816 57.1858 99.8375 58.3268 98.8323 60.0383 98.941 61.0163 100.082 68.6502 108.721 80.4677 113.828 83.8092 115.16 88.8622 113.149 113.231 102.5 113.231 84.3525L113.231 68.2427C113.231 66.7485 114.453 65.526 115.947 65.526 117.441 65.526 118.664 66.7485 118.664 68.2427L118.664 84.3525C118.664 108.341 86.0912 120.131 84.7057 120.62 84.4068 120.729 84.108 120.783 83.8092 120.783Z" fill="#6100DC" transform="matrix(1.00613 0 0 1 98 141)"/><path d="M60.0655 106.167C59.2777 106.167 58.4898 105.841 57.9737 105.162 52.4045 98.3705 48.9543 83.7005 48.9543 66.83 48.9543 65.3358 50.1768 64.1133 51.671 64.1133 53.1652 64.1133 54.3877 65.3358 54.3877 66.83 54.3877 82.0162 57.5118 96.0342 62.1845 101.712 63.1353 102.88 62.9723 104.592 61.8042 105.542 61.288 105.95 60.6903 106.167 60.0927 106.167Z" fill="#6100DC" transform="matrix(1.00613 0 0 1 98 141)"/><path d="M88.9437 98.4792 78.6475 98.4792C77.9683 98.4792 77.425 97.9358 77.425 97.2567L77.425 88.02 68.1883 88.02C67.5092 88.02 66.9658 87.4767 66.9658 86.7975L66.9658 76.5013C66.9658 75.8222 67.5092 75.2788 68.1883 75.2788L77.425 75.2788 77.425 66.0422C77.425 65.363 77.9683 64.8197 78.6475 64.8197L88.9437 64.8197C89.6228 64.8197 90.1662 65.363 90.1662 66.0422L90.1662 75.2788 99.4028 75.2788C100.082 75.2788 100.625 75.8222 100.625 76.5013L100.625 86.7975C100.625 87.4767 100.082 88.02 99.4028 88.02L90.1662 88.02 90.1662 97.2567C90.1662 97.9358 89.6228 98.4792 88.9437 98.4792ZM79.87 96.0342 87.7212 96.0342 87.7212 86.7975C87.7212 86.1183 88.2645 85.575 88.9437 85.575L98.1803 85.575 98.1803 77.7238 88.9437 77.7238C88.2645 77.7238 87.7212 77.1805 87.7212 76.5013L87.7212 67.2647 79.87 67.2647 79.87 76.5013C79.87 77.1805 79.3267 77.7238 78.6475 77.7238L69.4108 77.7238 69.4108 85.575 78.6475 85.575C79.3267 85.575 79.87 86.1183 79.87 86.7975L79.87 96.0342Z" fill="#6100DC" transform="matrix(1.00613 0 0 1 98 141)"/><path d="M88.9437 99.1583 78.6475 99.1583C77.588 99.1583 76.7458 98.3162 76.7458 97.2567L76.7458 88.6992 68.1883 88.6992C67.1288 88.6992 66.2867 87.857 66.2867 86.7975L66.2867 76.5013C66.2867 75.4418 67.1288 74.5997 68.1883 74.5997L76.7458 74.5997 76.7458 66.0422C76.7458 64.9827 77.588 64.1405 78.6475 64.1405L88.9437 64.1405C90.0032 64.1405 90.8453 64.9827 90.8453 66.0422L90.8453 74.5997 99.4028 74.5997C100.462 74.5997 101.305 75.4418 101.305 76.5013L101.305 86.7975C101.305 87.857 100.462 88.6992 99.4028 88.6992L90.8453 88.6992 90.8453 97.2567C90.8453 98.3162 90.0032 99.1583 88.9437 99.1583ZM68.1883 75.958C67.8895 75.958 67.645 76.2025 67.645 76.5013L67.645 86.7975C67.645 87.0963 67.8895 87.3408 68.1883 87.3408L78.1042 87.3408 78.1042 97.2567C78.1042 97.5555 78.3487 97.8 78.6475 97.8L88.9437 97.8C89.2425 97.8 89.487 97.5555 89.487 97.2567L89.487 87.3408 99.4028 87.3408C99.7017 87.3408 99.9462 87.0963 99.9462 86.7975L99.9462 76.5013C99.9462 76.2025 99.7017 75.958 99.4028 75.958L89.487 75.958 89.487 66.0422C89.487 65.7433 89.2425 65.4988 88.9437 65.4988L78.6475 65.4988C78.3487 65.4988 78.1042 65.7433 78.1042 66.0422L78.1042 75.958 68.1883 75.958ZM88.4003 96.7133 79.1908 96.7133 79.1908 86.7975C79.1908 86.4987 78.9463 86.2542 78.6475 86.2542L68.7317 86.2542 68.7317 77.0447 78.6475 77.0447C78.9463 77.0447 79.1908 76.8002 79.1908 76.5013L79.1908 66.5855 88.4003 66.5855 88.4003 76.5013C88.4003 76.8002 88.6448 77.0447 88.9437 77.0447L98.8595 77.0447 98.8595 86.2542 88.9437 86.2542C88.6448 86.2542 88.4003 86.4987 88.4003 86.7975L88.4003 96.7133ZM80.5492 95.355 87.042 95.355 87.042 86.7975C87.042 85.738 87.8842 84.8958 88.9437 84.8958L97.5012 84.8958 97.5012 78.403 88.9437 78.403C87.8842 78.403 87.042 77.5608 87.042 76.5013L87.042 67.9438 80.5492 67.9438 80.5492 76.5013C80.5492 77.5608 79.707 78.403 78.6475 78.403L70.09 78.403 70.09 84.8958 78.6475 84.8958C79.707 84.8958 80.5492 85.738 80.5492 86.7975L80.5492 95.355Z" fill="#6100DC" transform="matrix(1.00613 0 0 1 98 141)"/></g></svg>