<?xml version="1.0" encoding="UTF-8"?>
<svg id="Layer_1" data-name="Layer 1" xmlns="http://www.w3.org/2000/svg" viewBox="0 0 60 60">
  <defs>
    <style>
      .cls-1 {
        fill: #37464c;
        stroke-width: 0px;
      }
    </style>
  </defs>
  <path class="cls-1" d="m29.33,57.16c-.13,0-.25-.02-.37-.07-.88-.35-21.63-8.88-21.63-25.93V12.16c0-.34.17-.66.46-.84.39-.25,9.78-6.16,21.54-6.16s21.14,5.91,21.54,6.16c.29.18.46.5.46.84v19c0,17.05-20.74,25.57-21.63,25.93-.12.05-.25.07-.37.07ZM9.33,12.72v18.43c0,14.5,17.23,22.69,20,23.91,2.77-1.22,20-9.41,20-23.91V12.72c-2-1.16-10.26-5.57-20-5.57s-18,4.41-20,5.57Z"/>
  <path class="cls-1" d="m29.33,45.16c-8.82,0-16-7.18-16-16s7.18-16,16-16,16,7.18,16,16-7.18,16-16,16Zm0-30c-7.72,0-14,6.28-14,14s6.28,14,14,14,14-6.28,14-14-6.28-14-14-14Z"/>
  <path class="cls-1" d="m32.33,39.16h-6c-.55,0-1-.45-1-1v-5h-5c-.55,0-1-.45-1-1v-6c0-.55.45-1,1-1h5v-5c0-.55.45-1,1-1h6c.55,0,1,.45,1,1v5h5c.55,0,1,.45,1,1v6c0,.55-.45,1-1,1h-5v5c0,.55-.45,1-1,1Zm-5-2h4v-5c0-.55.45-1,1-1h5v-4h-5c-.55,0-1-.45-1-1v-5h-4v5c0,.55-.45,1-1,1h-5v4h5c.55,0,1,.45,1,1v5Z"/>
</svg>