<?xml version="1.0" encoding="UTF-8"?>
<svg id="Layer_1" data-name="Layer 1" xmlns="http://www.w3.org/2000/svg" viewBox="0 0 60 60">
  <defs>
    <style>
      .cls-1 {
        fill: #37464c;
        stroke-width: 0px;
      }
    </style>
  </defs>
  <path class="cls-1" d="m36.52,54c-.13,0-.26-.02-.38-.08-.37-.15-.62-.52-.62-.92v-7H11.52c-2.21,0-4-1.79-4-4V14c0-2.21,1.79-4,4-4h40c2.21,0,4,1.79,4,4v28c0,2.21-1.79,4-4,4h-6.59l-7.71,7.71c-.19.19-.45.29-.71.29ZM11.52,12c-1.1,0-2,.9-2,2v28c0,1.1.9,2,2,2h25c.55,0,1,.45,1,1v5.59l6.29-6.29c.19-.19.44-.29.71-.29h7c1.1,0,2-.9,2-2V14c0-1.1-.9-2-2-2H11.52Z"/>
  <path class="cls-1" d="m34.52,38h-6c-.55,0-1-.45-1-1v-5h-5c-.55,0-1-.45-1-1v-6c0-.55.45-1,1-1h5v-5c0-.55.45-1,1-1h6c.55,0,1,.45,1,1v5h5c.55,0,1,.45,1,1v6c0,.55-.45,1-1,1h-5v5c0,.55-.45,1-1,1Zm-5-2h4v-5c0-.55.45-1,1-1h5v-4h-5c-.55,0-1-.45-1-1v-5h-4v5c0,.55-.45,1-1,1h-5v4h5c.55,0,1,.45,1,1v5Z"/>
</svg>