<?xml version="1.0" encoding="UTF-8"?>
<svg id="Layer_1" data-name="Layer 1" xmlns="http://www.w3.org/2000/svg" viewBox="0 0 60 60">
  <defs>
    <style>
      .cls-1 {
        fill: #37464c;
        stroke-width: 0px;
      }
    </style>
  </defs>
  <path class="cls-1" d="m21,48c-.12,0-.25-.02-.36-.07-.52-.2-12.64-5.02-12.64-15.93v-11.25c0-.33.16-.63.43-.82.23-.16,5.71-3.93,12.57-3.93s12.34,3.77,12.57,3.93c.27.19.43.49.43.82v11.25c0,10.91-12.12,15.73-12.64,15.93-.12.04-.24.07-.36.07Zm-11-26.7v10.7c0,8.56,9.06,13.05,11,13.91,1.94-.86,11-5.36,11-13.91v-10.7c-1.36-.84-5.81-3.3-11-3.3s-9.64,2.46-11,3.3Z"/>
  <path class="cls-1" d="m45,24h-12c-.55,0-1-.45-1-1s.45-1,1-1h12c.55,0,1,.45,1,1s-.45,1-1,1Z"/>
  <path class="cls-1" d="m45,30h-12c-.55,0-1-.45-1-1s.45-1,1-1h12c.55,0,1,.45,1,1s-.45,1-1,1Z"/>
  <path class="cls-1" d="m45,48h-8c-.55,0-1-.45-1-1s.45-1,1-1h8c.55,0,1,.45,1,1s-.45,1-1,1Z"/>
  <path class="cls-1" d="m47,18h-5c-2.21,0-4-1.79-4-4v-5c0-.55.45-1,1-1s1,.45,1,1v5c0,1.1.9,2,2,2h5c.55,0,1,.45,1,1s-.45,1-1,1Z"/>
  <path class="cls-1" d="m35,16h-10c-.55,0-1-.45-1-1s.45-1,1-1h10c.55,0,1,.45,1,1s-.45,1-1,1Z"/>
  <path class="cls-1" d="m23,38h-4c-.55,0-1-.45-1-1v-3h-3c-.55,0-1-.45-1-1v-4c0-.55.45-1,1-1h3v-3c0-.55.45-1,1-1h4c.55,0,1,.45,1,1v3h3c.55,0,1,.45,1,1v4c0,.55-.45,1-1,1h-3v3c0,.55-.45,1-1,1Zm-3-2h2v-3c0-.55.45-1,1-1h3v-2h-3c-.55,0-1-.45-1-1v-3h-2v3c0,.55-.45,1-1,1h-3v2h3c.55,0,1,.45,1,1v3Z"/>
  <path class="cls-1" d="m47,56h-30c-2.76,0-5-2.24-5-5v-9.49c0-.55.45-1,1-1s1,.45,1,1v9.49c0,1.65,1.35,3,3,3h30c1.65,0,3-1.35,3-3V16.66c0-.8-.31-1.55-.88-2.12l-7.66-7.66c-.56-.56-1.33-.88-2.12-.88h-22.34c-1.65,0-3,1.35-3,3v9.68c0,.55-.45,1-1,1s-1-.45-1-1v-9.68c0-2.76,2.24-5,5-5h22.34c1.34,0,2.59.52,3.54,1.46l7.66,7.66c.94.94,1.46,2.2,1.46,3.54v34.34c0,2.76-2.24,5-5,5Z"/>
  <path class="cls-1" d="m45,42h-15.54c-.55,0-1-.45-1-1s.45-1,1-1h15.54c.55,0,1,.45,1,1s-.45,1-1,1Z"/>
  <path class="cls-1" d="m45,36h-12.36c-.55,0-1-.45-1-1s.45-1,1-1h12.36c.55,0,1,.45,1,1s-.45,1-1,1Z"/>
</svg>