<?xml version="1.0" encoding="UTF-8"?>
<svg id="Layer_1" data-name="Layer 1" xmlns="http://www.w3.org/2000/svg" viewBox="0 0 60 60">
  <defs>
    <style>
      .cls-1 {
        fill: #37464c;
        stroke-width: 0px;
      }
    </style>
  </defs>
  <rect class="cls-1" x="3" y="18" width="54" height="2"/>
  <path class="cls-1" d="m54,50H6c-2.21,0-4-1.79-4-4V14c0-2.21,1.79-4,4-4h48c2.21,0,4,1.79,4,4v32c0,2.21-1.79,4-4,4ZM6,12c-1.1,0-2,.9-2,2v32c0,1.1.9,2,2,2h48c1.1,0,2-.9,2-2V14c0-1.1-.9-2-2-2H6Z"/>
  <path class="cls-1" d="m7,16c-.26,0-.52-.11-.71-.29-.09-.1-.16-.21-.21-.33-.05-.12-.08-.25-.08-.38s.03-.26.08-.38c.05-.13.12-.23.21-.33.23-.23.58-.33.91-.27.06,0,.12.03.18.06.06.02.12.05.18.09.05.04.1.08.15.12.09.1.16.21.21.33.06.12.08.25.08.38s-.02.26-.08.38c-.05.12-.12.23-.21.33-.05.04-.1.08-.15.12-.06.04-.12.07-.18.09-.06.03-.12.05-.18.06-.07,0-.13.02-.2.02Z"/>
  <path class="cls-1" d="m11,16c-.13,0-.26-.03-.38-.08-.12-.05-.23-.12-.33-.21-.09-.1-.16-.21-.21-.33-.05-.12-.08-.25-.08-.38,0-.26.11-.52.29-.71.1-.09.21-.16.33-.21.24-.11.52-.11.76,0,.12.05.23.12.33.21.09.1.16.2.21.33.05.12.08.25.08.38s-.03.26-.08.38c-.05.12-.12.23-.21.33-.19.18-.45.29-.71.29Z"/>
  <path class="cls-1" d="m15,16c-.26,0-.52-.11-.71-.29-.09-.1-.16-.21-.21-.33-.05-.12-.08-.25-.08-.38s.03-.26.08-.38c.05-.13.12-.23.21-.33.1-.09.21-.16.33-.21.24-.11.52-.11.76,0,.12.05.23.12.33.21.18.19.29.45.29.71,0,.13-.03.26-.08.38-.05.12-.12.23-.21.33-.1.09-.21.16-.33.21-.12.05-.25.08-.38.08Z"/>
  <path class="cls-1" d="m27,32h-6c-.55,0-1-.45-1-1s.45-1,1-1h6c.55,0,1,.45,1,1s-.45,1-1,1Z"/>
  <path class="cls-1" d="m27,26h-6c-.55,0-1-.45-1-1s.45-1,1-1h6c.55,0,1,.45,1,1s-.45,1-1,1Z"/>
  <path class="cls-1" d="m27,38H9c-.55,0-1-.45-1-1s.45-1,1-1h18c.55,0,1,.45,1,1s-.45,1-1,1Z"/>
  <path class="cls-1" d="m23,44h-14c-.55,0-1-.45-1-1s.45-1,1-1h14c.55,0,1,.45,1,1s-.45,1-1,1Z"/>
  <path class="cls-1" d="m45,44h-6c-.55,0-1-.45-1-1v-5h-5c-.55,0-1-.45-1-1v-6c0-.55.45-1,1-1h5v-5c0-.55.45-1,1-1h6c.55,0,1,.45,1,1v5h5c.55,0,1,.45,1,1v6c0,.55-.45,1-1,1h-5v5c0,.55-.45,1-1,1Zm-5-2h4v-5c0-.55.45-1,1-1h5v-4h-5c-.55,0-1-.45-1-1v-5h-4v5c0,.55-.45,1-1,1h-5v4h5c.55,0,1,.45,1,1v5Z"/>
  <path class="cls-1" d="m15,32h-6c-.55,0-1-.45-1-1v-6c0-.55.45-1,1-1h6c.55,0,1,.45,1,1v6c0,.55-.45,1-1,1Zm-5-2h4v-4h-4v4Z"/>
</svg>