<?xml version="1.0" encoding="UTF-8"?>
<svg id="Layer_1" data-name="Layer 1" xmlns="http://www.w3.org/2000/svg" viewBox="0 0 60 60">
  <defs>
    <style>
      .cls-1 {
        fill: #37464c;
        stroke-width: 0px;
      }
    </style>
  </defs>
  <g>
    <path class="cls-1" d="m23.73,37.91c-2.76,0-5-2.24-5-5s2.24-5,5-5,5,2.24,5,5-2.24,5-5,5Zm0-8c-1.65,0-3,1.35-3,3s1.35,3,3,3,3-1.35,3-3-1.35-3-3-3Z"/>
    <path class="cls-1" d="m47.73,53.91h-15c-.55,0-1-.45-1-1s.45-1,1-1h15c1.1,0,2-.9,2-2v-17.38c0-.55.45-1,1-1s1,.45,1,1v17.38c0,2.21-1.79,4-4,4Z"/>
    <path class="cls-1" d="m28.73,57.91c-.55,0-1-.45-1-1v-12c0-1.65,1.35-3,3-3h10c.55,0,1-.45,1-1s-.45-1-1-1h-12.59l-3.71,3.71c-.39.39-1.02.39-1.41,0l-3.53-3.53-1.87.75c-1.15.46-1.89,1.55-1.89,2.79v9.29c0,.55-.45,1-1,1h-3c-2.21,0-4-1.79-4-4v-22.66c0-.55.45-1,1-1s1,.45,1,1v22.66c0,1.1.9,2,2,2h2v-8.29c0-2.06,1.23-3.88,3.14-4.64l2.49-.99c.37-.15.79-.06,1.08.22l3.29,3.29,3.29-3.29c.19-.19.44-.29.71-.29h13c1.65,0,3,1.35,3,3s-1.35,3-3,3h-10c-.55,0-1,.45-1,1v12c0,.55-.45,1-1,1Z"/>
    <path class="cls-1" d="m8.73,27.64c-.55,0-1-.45-1-1v-8.39c0-2.21,1.79-4,4-4h13.69c.55,0,1,.45,1,1s-.45,1-1,1h-13.69c-1.1,0-2,.9-2,2v8.39c0,.55-.45,1-1,1Z"/>
    <path class="cls-1" d="m18.73,53.91c-.55,0-1-.45-1-1v-8c0-.55.45-1,1-1s1,.45,1,1v8c0,.55-.45,1-1,1Z"/>
  </g>
  <path class="cls-1" d="m43,32.27c-.11,0-.23-.02-.33-.06-.26-.09-6.47-2.33-10.42-6.79-.37-.41-.33-1.05.09-1.41.42-.37,1.04-.33,1.41.09,3.11,3.52,7.94,5.59,9.25,6.11,1.97-.78,11.94-5.09,11.94-12.5V8c-1.53-.75-6.34-2.87-11.94-2.87s-10.41,2.11-11.94,2.87v2.65c0,.55-.45,1-1,1s-1-.45-1-1v-3.26c0-.36.2-.69.51-.87.25-.14,6.1-3.38,13.43-3.38s13.18,3.25,13.43,3.38c.31.18.51.51.51.87v10.31c0,9.59-13.05,14.32-13.6,14.51-.11.04-.22.06-.33.06Z"/>
  <path class="cls-1" d="m33.44,26.38c-.29,0-.58-.12-.77-.37-2.19-2.67-3.61-8.71-3.61-15.37,0-.55.45-1,1-1s1,.45,1,1c0,6.13,1.27,11.8,3.16,14.1.35.43.29,1.06-.14,1.41-.19.15-.41.23-.63.23Z"/>
  <g>
    <path class="cls-1" d="m45.07,23.39h-4.14c-.27,0-.49-.22-.49-.49v-3.72h-3.72c-.27,0-.49-.22-.49-.49v-4.14c0-.27.22-.49.49-.49h3.72v-3.72c0-.27.22-.49.49-.49h4.14c.27,0,.49.22.49.49v3.72h3.72c.27,0,.49.22.49.49v4.14c0,.27-.22.49-.49.49h-3.72v3.72c0,.27-.22.49-.49.49Zm-3.65-.98h3.16v-3.72c0-.27.22-.49.49-.49h3.72v-3.16h-3.72c-.27,0-.49-.22-.49-.49v-3.72h-3.16v3.72c0,.27-.22.49-.49.49h-3.72v3.16h3.72c.27,0,.49.22.49.49v3.72Z"/>
    <path class="cls-1" d="m45.07,23.64h-4.14c-.41,0-.74-.33-.74-.74v-3.47h-3.47c-.41,0-.74-.33-.74-.74v-4.14c0-.41.33-.74.74-.74h3.47v-3.47c0-.41.33-.74.74-.74h4.14c.41,0,.74.33.74.74v3.47h3.47c.41,0,.74.33.74.74v4.14c0,.41-.33.74-.74.74h-3.47v3.47c0,.41-.33.74-.74.74Zm-8.35-9.34c-.13,0-.24.11-.24.24v4.14c0,.13.11.24.24.24h3.97v3.97c0,.13.11.24.24.24h4.14c.13,0,.24-.11.24-.24v-3.97h3.97c.13,0,.24-.11.24-.24v-4.14c0-.13-.11-.24-.24-.24h-3.97v-3.97c0-.13-.11-.24-.24-.24h-4.14c-.13,0-.24.11-.24.24v3.97h-3.97Zm8.11,8.35h-3.66v-3.97c0-.13-.11-.24-.24-.24h-3.97v-3.66h3.97c.13,0,.24-.11.24-.24v-3.97h3.66v3.97c0,.13.11.24.24.24h3.97v3.66h-3.97c-.13,0-.24.11-.24.24v3.97Zm-3.16-.5h2.66v-3.47c0-.41.33-.74.74-.74h3.47v-2.66h-3.47c-.41,0-.74-.33-.74-.74v-3.47h-2.66v3.47c0,.41-.33.74-.74.74h-3.47v2.66h3.47c.41,0,.74.33.74.74v3.47Z"/>
  </g>
</svg>