<?xml version="1.0" encoding="UTF-8"?>
<svg id="Layer_1" data-name="Layer 1" xmlns="http://www.w3.org/2000/svg" viewBox="0 0 60 60">
  <defs>
    <style>
      .cls-1 {
        fill: #37464c;
        stroke-width: 0px;
      }
    </style>
  </defs>
  <g>
    <g>
      <path class="cls-1" d="m50.54,20.88h-10.02v1.06h10.02c1.4,0,2.54,1.14,2.54,2.54v22.71c0,1.4-1.14,2.54-2.54,2.54H11.41c-1.4,0-2.54-1.14-2.54-2.54v-22.71c0-1.4,1.14-2.54,2.54-2.54h11.11v-1.06h-11.11c-1.98,0-3.59,1.61-3.59,3.59v22.71c0,1.98,1.61,3.59,3.59,3.59h39.13c1.98,0,3.59-1.61,3.59-3.59v-22.71c0-1.98-1.61-3.59-3.59-3.59Z"/>
      <path class="cls-1" d="m50.54,51.15H11.41c-2.19,0-3.97-1.78-3.97-3.97v-22.71c0-2.19,1.78-3.97,3.97-3.97h11.49v1.81h-11.49c-1.19,0-2.16.97-2.16,2.16v22.71c0,1.19.97,2.16,2.16,2.16h39.13c1.19,0,2.16-.97,2.16-2.16v-22.71c0-1.19-.97-2.16-2.16-2.16h-10.39v-1.81h10.39c2.19,0,3.97,1.78,3.97,3.97v22.71c0,2.19-1.78,3.97-3.97,3.97ZM11.41,21.25c-1.77,0-3.22,1.44-3.22,3.22v22.71c0,1.77,1.44,3.22,3.22,3.22h39.13c1.77,0,3.22-1.44,3.22-3.22v-22.71c0-1.77-1.44-3.22-3.22-3.22h-9.64v.31h9.64c1.61,0,2.91,1.31,2.91,2.91v22.71c0,1.61-1.31,2.91-2.91,2.91H11.41c-1.61,0-2.91-1.31-2.91-2.91v-22.71c0-1.61,1.31-2.91,2.91-2.91h10.74v-.31h-10.74Z"/>
    </g>
    <g>
      <path class="cls-1" d="m39.39,57.36h-16.82c-.97,0-1.76-.79-1.76-1.76s.79-1.76,1.76-1.76h16.82c.97,0,1.76.79,1.76,1.76s-.79,1.76-1.76,1.76Zm-16.82-2.46c-.39,0-.7.32-.7.7s.31.7.7.7h16.82c.39,0,.7-.32.7-.7s-.31-.7-.7-.7h-16.82Z"/>
      <path class="cls-1" d="m39.39,57.73h-16.82c-1.18,0-2.13-.96-2.13-2.14s.96-2.13,2.13-2.13h16.82c1.18,0,2.13.96,2.13,2.13s-.96,2.14-2.13,2.14Zm-16.82-3.52c-.76,0-1.38.62-1.38,1.38s.62,1.39,1.38,1.39h16.82c.76,0,1.38-.62,1.38-1.39s-.62-1.38-1.38-1.38h-16.82Zm16.82,2.46h-16.82c-.59,0-1.08-.48-1.08-1.08s.48-1.08,1.08-1.08h16.82c.59,0,1.08.48,1.08,1.08s-.48,1.08-1.08,1.08Zm-16.82-1.41c-.18,0-.33.15-.33.33s.15.33.33.33h16.82c.18,0,.33-.15.33-.33s-.15-.33-.33-.33h-16.82Z"/>
    </g>
    <g>
      <path class="cls-1" d="m30.98,54.89c-.29,0-.53-.24-.53-.53v-4.12c0-.29.24-.53.53-.53s.53.24.53.53v4.12c0,.29-.24.53-.53.53Z"/>
      <path class="cls-1" d="m30.98,55.27c-.5,0-.9-.41-.9-.9v-4.12c0-.5.41-.9.9-.9s.9.41.9.9v4.12c0,.5-.41.9-.9.9Zm0-5.18c-.08,0-.15.07-.15.15v4.12c0,.17.31.17.31,0v-4.12c0-.08-.07-.15-.15-.15Z"/>
    </g>
  </g>
  <path class="cls-1" d="m49,47.66H12.87c-1.39,0-2.53-1.09-2.53-2.42v-18.83c0-1.34,1.13-2.42,2.53-2.42h10.16v1.6h-10.16c-.51,0-.93.37-.93.83v18.83c0,.46.42.83.93.83h36.13c.51,0,.93-.37.93-.83v-18.83c0-.46-.42-.83-.93-.83h-8.45v-1.6h8.45c1.39,0,2.53,1.09,2.53,2.42v18.83c0,1.34-1.13,2.42-2.53,2.42Z"/>
  <g>
    <path class="cls-1" d="m29.51,7.39c-1.51,0-2.75-1.23-2.75-2.75s1.23-2.75,2.75-2.75,2.75,1.23,2.75,2.75-1.23,2.75-2.75,2.75Zm0-3.99c-.69,0-1.25.56-1.25,1.25s.56,1.25,1.25,1.25,1.25-.56,1.25-1.25-.56-1.25-1.25-1.25Z"/>
    <path class="cls-1" d="m38.16,10.05c-1.51,0-2.75-1.23-2.75-2.75s1.23-2.75,2.75-2.75,2.75,1.23,2.75,2.75-1.23,2.75-2.75,2.75Zm0-3.99c-.69,0-1.25.56-1.25,1.25s.56,1.25,1.25,1.25,1.25-.56,1.25-1.25-.56-1.25-1.25-1.25Z"/>
    <path class="cls-1" d="m42.15,16.7c-1.51,0-2.75-1.23-2.75-2.75s1.23-2.75,2.75-2.75,2.75,1.23,2.75,2.75-1.23,2.75-2.75,2.75Zm0-3.99c-.69,0-1.25.56-1.25,1.25s.56,1.25,1.25,1.25,1.25-.56,1.25-1.25-.56-1.25-1.25-1.25Z"/>
    <path class="cls-1" d="m20.86,15.37c-1.51,0-2.75-1.23-2.75-2.75s1.23-2.75,2.75-2.75,2.75,1.23,2.75,2.75-1.23,2.75-2.75,2.75Zm0-3.99c-.69,0-1.25.56-1.25,1.25s.56,1.25,1.25,1.25,1.25-.56,1.25-1.25-.56-1.25-1.25-1.25Z"/>
    <path class="cls-1" d="m25.52,28.98c-.41,0-.75-.34-.75-.75v-3.39c0-3.09,0-6.18.01-9.27,0-.91.01-1.77-.22-1.99-.19-.18-.74-.25-1.67-.21-.41.04-.76-.3-.78-.72-.02-.41.3-.76.72-.78,1.05-.05,2.12,0,2.78.63.69.67.69,1.68.68,3.08-.02,3.09-.02,6.17-.01,9.26v3.39c0,.41-.33.75-.75.75Z"/>
    <path class="cls-1" d="m33.5,27.16h0c-.42,0-.75-.34-.74-.76.07-6.46.07-12.55.07-18.45,0-.54.28-.99.78-1.27.86-.49,2.29-.41,2.94-.02.35.21.46.66.26,1.02-.21.35-.67.47-1.02.27-.28-.16-1.29-.15-1.48.07.02,5.84.02,11.94-.05,18.41,0,.41-.34.74-.75.74Z"/>
    <path class="cls-1" d="m37.49,29.26c-.41,0-.75-.34-.75-.75v-11.5c0-.43-.01-.8-.02-1.12-.03-1-.05-1.66.42-2.15.54-.55,1.36-.55,3.01-.55.41,0,.75.34.75.75s-.34.75-.75.75c-.78,0-1.76,0-1.95.11-.01.08,0,.59.02,1.04.01.33.02.71.02,1.16v11.5c0,.41-.34.75-.75.75Z"/>
    <path class="cls-1" d="m29.51,27.35c-.41,0-.75-.34-.75-.75V6.64c0-.41.34-.75.75-.75s.75.34.75.75v19.96c0,.41-.34.75-.75.75Z"/>
  </g>
  <g>
    <g>
      <path class="cls-1" d="m31.51,45.32c-2.54,0-4.92-.99-6.71-2.78-1.79-1.79-2.78-4.18-2.78-6.71s.99-4.92,2.78-6.71c1.79-1.79,4.18-2.78,6.71-2.78s4.92.99,6.71,2.78c1.79,1.79,2.78,4.18,2.78,6.71s-.99,4.92-2.78,6.71h0c-1.79,1.79-4.18,2.78-6.71,2.78Zm0-18.27c-2.34,0-4.55.91-6.21,2.57s-2.57,3.86-2.57,6.21.91,4.55,2.57,6.21,3.86,2.57,6.21,2.57,4.55-.91,6.21-2.57h0c1.66-1.66,2.57-3.86,2.57-6.21s-.91-4.55-2.57-6.21-3.86-2.57-6.21-2.57Z"/>
      <path class="cls-1" d="m31.51,45.67c-2.63,0-5.1-1.02-6.96-2.88-1.86-1.86-2.88-4.33-2.88-6.96s1.02-5.1,2.88-6.96c1.86-1.86,4.33-2.88,6.96-2.88s5.1,1.02,6.96,2.88c1.86,1.86,2.88,4.33,2.88,6.96s-1.02,5.1-2.88,6.96c-1.86,1.86-4.33,2.88-6.96,2.88Zm0-18.99c-2.44,0-4.74.95-6.47,2.68-1.73,1.73-2.68,4.02-2.68,6.47s.95,4.74,2.68,6.47c1.73,1.73,4.02,2.68,6.47,2.68s4.74-.95,6.47-2.68,2.68-4.02,2.68-6.47-.95-4.74-2.68-6.47-4.02-2.68-6.47-2.68Zm0,18.27c-2.44,0-4.73-.95-6.45-2.67-1.72-1.72-2.67-4.01-2.67-6.45s.95-4.73,2.67-6.45c1.72-1.72,4.01-2.67,6.45-2.67s4.73.95,6.45,2.67c1.72,1.72,2.67,4.01,2.67,6.45s-.95,4.73-2.67,6.45c-1.72,1.72-4.01,2.67-6.45,2.67Zm0-17.55c-2.25,0-4.37.88-5.96,2.47-1.59,1.59-2.47,3.71-2.47,5.96s.88,4.37,2.47,5.96,3.71,2.47,5.96,2.47,4.37-.88,5.96-2.47,2.47-3.71,2.47-5.96-.88-4.37-2.47-5.96c-1.59-1.59-3.71-2.47-5.96-2.47Z"/>
    </g>
    <g>
      <path class="cls-1" d="m33.02,40.77h-3.02c-.2,0-.36-.16-.36-.36v-2.71h-2.71c-.2,0-.36-.16-.36-.36v-3.02c0-.2.16-.36.36-.36h2.71v-2.71c0-.2.16-.36.36-.36h3.02c.2,0,.36.16.36.36v2.71h2.71c.2,0,.36.16.36.36v3.02c0,.2-.16.36-.36.36h-2.71v2.71c0,.2-.16.36-.36.36Zm-2.66-.72h2.3v-2.71c0-.2.16-.36.36-.36h2.71v-2.3h-2.71c-.2,0-.36-.16-.36-.36v-2.71h-2.3v2.71c0,.2-.16.36-.36.36h-2.71v2.3h2.71c.2,0,.36.16.36.36v2.71Z"/>
      <path class="cls-1" d="m33.02,41.02h-3.02c-.34,0-.61-.27-.61-.61v-2.46h-2.46c-.34,0-.61-.27-.61-.61v-3.02c0-.34.27-.61.61-.61h2.46v-2.46c0-.34.27-.61.61-.61h3.02c.34,0,.61.27.61.61v2.46h2.46c.34,0,.61.27.61.61v3.02c0,.34-.27.61-.61.61h-2.46v2.46c0,.34-.27.61-.61.61Zm-6.1-6.81c-.06,0-.11.05-.11.11v3.02c0,.06.05.11.11.11h2.96v2.96c0,.06.05.11.11.11h3.02c.06,0,.11-.05.11-.11v-2.96h2.96c.06,0,.11-.05.11-.11v-3.02c0-.06-.05-.11-.11-.11h-2.96v-2.96c0-.06-.05-.11-.11-.11h-3.02c-.06,0-.11.05-.11.11v2.96h-2.96Zm5.99,6.1h-2.8v-2.96c0-.06-.05-.11-.11-.11h-2.96v-2.8h2.96c.06,0,.11-.05.11-.11v-2.96h2.8v2.96c0,.06.05.11.11.11h2.96v2.8h-2.96c-.06,0-.11.05-.11.11v2.96Zm-2.3-.5h1.8v-2.46c0-.34.27-.61.61-.61h2.46v-1.8h-2.46c-.34,0-.61-.27-.61-.61v-2.46h-1.8v2.46c0,.34-.27.61-.61.61h-2.46v1.8h2.46c.34,0,.61.27.61.61v2.46Z"/>
    </g>
  </g>
</svg>