<?xml version="1.0" encoding="UTF-8"?>
<svg id="Layer_1" data-name="Layer 1" xmlns="http://www.w3.org/2000/svg" viewBox="0 0 60 60">
  <defs>
    <style>
      .cls-1 {
        fill: #37464c;
        stroke-width: 0px;
      }
    </style>
  </defs>
  <g>
    <path class="cls-1" d="m20.59,56.35c-2.43,0-4.6-1.73-5.06-4.21h0c-.52-2.79,1.33-5.48,4.12-6,1.34-.25,2.72.04,3.86.82,1.13.78,1.9,1.95,2.15,3.3.25,1.35-.04,2.72-.82,3.86-.78,1.13-1.95,1.9-3.3,2.15-.32.06-.63.09-.94.09Zm-3.09-4.57c.32,1.71,1.96,2.84,3.67,2.52.83-.15,1.54-.62,2.02-1.31.48-.69.65-1.53.5-2.36-.15-.83-.62-1.54-1.31-2.02s-1.53-.65-2.36-.5c-1.71.32-2.84,1.97-2.52,3.67h0Z"/>
    <path class="cls-1" d="m46.19,11.61c-.21,0-.42-.01-.63-.04-2.49-.33-4.25-2.6-3.92-5.05.16-1.19.78-2.25,1.75-2.97.96-.72,2.16-1.02,3.36-.87,2.49.33,4.25,2.6,3.92,5.05-.16,1.19-.78,2.25-1.75,2.97-.8.59-1.75.91-2.74.91Zm-.06-6.97c-.56,0-1.1.18-1.54.51-.54.4-.88.98-.97,1.63-.18,1.36.81,2.62,2.21,2.8.68.09,1.36-.08,1.9-.49.54-.4.88-.98.97-1.63.18-1.36-.81-2.62-2.21-2.8-.12-.02-.24-.02-.36-.02Z"/>
    <path class="cls-1" d="m5.33,40.37c-1.03,0-2.03-.31-2.9-.9-1.13-.78-1.9-1.95-2.15-3.3H.28c-.25-1.35.04-2.72.82-3.86.78-1.13,1.95-1.9,3.3-2.15,2.79-.52,5.48,1.33,6,4.12.52,2.79-1.33,5.48-4.12,6-.32.06-.64.09-.95.09Zm.01-8.3c-.19,0-.38.02-.58.05-.83.15-1.54.62-2.02,1.31-.48.69-.65,1.53-.5,2.36h0c.15.83.62,1.54,1.31,2.02.69.48,1.53.65,2.36.5,1.71-.32,2.84-1.97,2.52-3.67-.28-1.51-1.61-2.57-3.09-2.57Z"/>
    <path class="cls-1" d="m9.79,17.3c-2.43,0-4.6-1.73-5.06-4.21h0c-.52-2.79,1.33-5.48,4.12-6,2.79-.52,5.48,1.33,6,4.12.52,2.79-1.33,5.48-4.12,6-.32.06-.63.09-.94.09Zm-3.09-4.57c.32,1.71,1.96,2.84,3.67,2.52,1.71-.32,2.84-1.97,2.52-3.67-.32-1.71-1.96-2.84-3.67-2.52-1.71.32-2.84,1.97-2.52,3.67h0Z"/>
    <path class="cls-1" d="m51.44,57.11c-2.92,0-5.53-2.08-6.08-5.05h0c-.62-3.35,1.6-6.59,4.95-7.21,3.36-.63,6.59,1.6,7.21,4.95.3,1.62-.05,3.27-.98,4.63s-2.34,2.28-3.97,2.58c-.38.07-.76.11-1.13.11Zm-4.11-5.42c.42,2.27,2.61,3.77,4.88,3.35,1.1-.21,2.05-.83,2.68-1.75s.87-2.04.66-3.13c-.42-2.27-2.6-3.77-4.88-3.35-2.27.42-3.77,2.61-3.35,4.88h0Z"/>
    <path class="cls-1" d="m22.36,48.46c-.14,0-.29-.03-.43-.1-.5-.24-.71-.83-.48-1.33l3.73-7.9c.24-.5.83-.71,1.33-.48.5.24.71.83.48,1.33l-3.73,7.9c-.17.36-.53.57-.91.57Z"/>
    <path class="cls-1" d="m8.44,34.65c-.01-.06-.02-.12-.02-.18h0c0-.48.33-.9.82-.99h0c.54-.1,1.06.26,1.16.8h0c0,.06.02.12.02.18h0c0,.47-.33.9-.82.99h0c-.06.01-.12.01-.18.01h0c-.47,0-.89-.33-.98-.81Zm3.93-.74c0-.06-.02-.12-.02-.17h0c0-.48.34-.9.82-.99h0c.54-.1,1.06.25,1.16.8h0c0,.06.02.12.02.18h0c0,.47-.33.89-.81.98h0c-.07.02-.13.02-.19.02h0c-.47,0-.89-.33-.98-.82Zm3.93-.73c0-.06,0-.12-.02-.18h0c0-.47.34-.89.82-.98h0c.54-.11,1.07.25,1.17.8h0c0,.06,0,.11,0,.17h0c0,.48-.33.9-.81.99h0c-.06.01-.13.02-.19.02h0c-.47,0-.89-.34-.98-.82Zm3.93-.73c-.01-.06-.01-.12-.01-.18h0c0-.47.33-.9.81-.99h0c.55-.1,1.07.26,1.17.8h0c0,.06.02.12.02.18h0c0,.47-.34.9-.82.99h0c-.06.01-.12.02-.18.02h0c-.48,0-.9-.34-.99-.82Z"/>
    <path class="cls-1" d="m19.83,20.97c-.21,0-.43-.07-.61-.21l-6.78-5.28c-.44-.34-.51-.97-.17-1.4s.97-.51,1.4-.17l6.78,5.28c.44.34.51.97.17,1.4-.2.25-.49.39-.79.39Z"/>
    <path class="cls-1" d="m44.33,46.83c-.22-.2-.33-.47-.33-.74h0c0-.24.08-.48.25-.67h0c.38-.41,1.01-.45,1.42-.08h0c.22.2.33.47.33.74h0c0,.24-.09.49-.26.68h0c-.2.22-.47.33-.74.33h0c-.24,0-.48-.09-.67-.26Zm-2.97-2.69c-.22-.19-.33-.47-.33-.74h0c0-.24.08-.48.26-.67h0c.37-.41,1-.44,1.41-.07h0c.22.2.33.47.33.74h0c0,.24-.08.48-.26.67h0c-.2.22-.47.33-.74.33h0c-.24,0-.48-.08-.67-.26Zm-2.97-2.68h.01c-.22-.2-.33-.47-.33-.74h0c0-.24.08-.48.26-.67h0c.36-.41,1-.45,1.41-.07h0c.22.19.33.46.33.74h0c0,.24-.09.48-.26.67h0c-.2.22-.47.33-.75.33h0c-.23,0-.47-.09-.67-.26Z"/>
    <path class="cls-1" d="m37.57,17.92c-.23,0-.47-.08-.66-.25-.42-.36-.46-1-.09-1.41l6.28-7.16c.36-.42,1-.46,1.41-.09.42.36.46,1,.09,1.41l-6.28,7.16c-.2.23-.47.34-.75.34Z"/>
    <path class="cls-1" d="m53.75,28.79c-.51,0-1.02-.1-1.5-.31-.96-.4-1.7-1.15-2.09-2.11-.81-1.98.14-4.25,2.13-5.06.96-.39,2.02-.39,2.97.02.96.4,1.7,1.15,2.09,2.11s.39,2.01-.01,2.97c-.4.96-1.15,1.7-2.11,2.09-.47.19-.97.29-1.47.29Zm0-5.76c-.24,0-.48.05-.71.14-.96.39-1.42,1.49-1.03,2.45.19.47.55.83,1.01,1.02.46.19.97.2,1.44,0s.83-.55,1.02-1.01c.19-.46.2-.97,0-1.44s-.55-.83-1.01-1.02c-.23-.1-.48-.15-.73-.15Z"/>
    <path class="cls-1" d="m42.75,29.4c-.05-.12-.07-.24-.07-.37h0c0-.4.23-.78.62-.94h0c.51-.21,1.09.04,1.3.55h0c.05.13.08.26.08.39h0c0,.39-.24.76-.62.92h0c-.13.05-.26.07-.38.07h0c-.4,0-.77-.23-.93-.62Zm3.7-1.51c-.04-.12-.07-.25-.07-.37h0c0-.4.23-.78.62-.94h0c.51-.21,1.1.04,1.31.55h0c.04.12.07.24.07.37h0c0,.4-.23.77-.62.93h0c-.12.05-.25.08-.38.08h0c-.4,0-.77-.24-.93-.62Zm3.71-1.52c-.05-.12-.07-.24-.08-.36h0c0-.4.24-.78.63-.94h0c.51-.21,1.09.04,1.3.55h0c.05.13.08.26.08.39h0c0,.39-.24.76-.63.91h0c-.12.05-.25.08-.37.08h0c-.4,0-.77-.24-.93-.63Z"/>
  </g>
  <path class="cls-1" d="m31.92,42.52c-.11,0-.23-.02-.33-.06-.24-.08-5.89-2.12-9.48-6.18-.37-.41-.33-1.05.09-1.41.42-.37,1.05-.33,1.41.09,2.77,3.14,7.09,5.01,8.32,5.49,1.85-.74,10.73-4.62,10.73-11.23v-8.74c-1.44-.7-5.73-2.56-10.73-2.56s-9.29,1.86-10.73,2.56v2.34c0,.55-.45,1-1,1s-1-.45-1-1v-2.95c0-.36.2-.69.51-.87.22-.13,5.55-3.08,12.22-3.08s11.99,2.95,12.22,3.08c.31.18.51.51.51.87v9.35c0,8.76-11.89,13.06-12.39,13.24-.11.04-.22.06-.33.06Z"/>
  <path class="cls-1" d="m23.26,37.18c-.29,0-.58-.12-.77-.37-2.03-2.48-3.29-7.84-3.29-13.99,0-.55.45-1,1-1s1,.45,1,1c0,5.54,1.14,10.65,2.84,12.72.35.43.29,1.06-.14,1.41-.19.15-.41.23-.63.23Z"/>
  <g>
    <path class="cls-1" d="m33.79,34.37h-3.75c-.25,0-.45-.2-.45-.45v-3.37h-3.37c-.25,0-.45-.2-.45-.45v-3.75c0-.25.2-.45.45-.45h3.37v-3.37c0-.25.2-.45.45-.45h3.75c.25,0,.45.2.45.45v3.37h3.37c.25,0,.45.2.45.45v3.75c0,.25-.2.45-.45.45h-3.37v3.37c0,.25-.2.45-.45.45Zm-3.31-.89h2.86v-3.37c0-.25.2-.45.45-.45h3.37v-2.86h-3.37c-.25,0-.45-.2-.45-.45v-3.37h-2.86v3.37c0,.25-.2.45-.45.45h-3.37v2.86h3.37c.25,0,.45.2.45.45v3.37Z"/>
    <path class="cls-1" d="m33.79,34.62h-3.75c-.38,0-.7-.31-.7-.7v-3.12h-3.12c-.38,0-.7-.31-.7-.7v-3.75c0-.38.31-.7.7-.7h3.12v-3.12c0-.38.31-.7.7-.7h3.75c.38,0,.7.31.7.7v3.12h3.12c.38,0,.7.31.7.7v3.75c0,.38-.31.7-.7.7h-3.12v3.12c0,.38-.31.7-.7.7Zm-7.57-8.46c-.11,0-.2.09-.2.2v3.75c0,.11.09.2.2.2h3.62v3.62c0,.11.09.2.2.2h3.75c.11,0,.2-.09.2-.2v-3.62h3.62c.11,0,.2-.09.2-.2v-3.75c0-.11-.09-.2-.2-.2h-3.62v-3.62c0-.11-.09-.2-.2-.2h-3.75c-.11,0-.2.09-.2.2v3.62h-3.62Zm7.38,7.57h-3.36v-3.62c0-.11-.09-.2-.2-.2h-3.62v-3.36h3.62c.11,0,.2-.09.2-.2v-3.62h3.36v3.62c0,.11.09.2.2.2h3.62v3.36h-3.62c-.11,0-.2.09-.2.2v3.62Zm-2.86-.5h2.36v-3.12c0-.38.31-.7.7-.7h3.12v-2.36h-3.12c-.38,0-.7-.31-.7-.7v-3.12h-2.36v3.12c0,.38-.31.7-.7.7h-3.12v2.36h3.12c.38,0,.7.31.7.7v3.12Z"/>
  </g>
</svg>