<?xml version="1.0" encoding="UTF-8"?>
<svg id="Layer_1" data-name="Layer 1" xmlns="http://www.w3.org/2000/svg" viewBox="0 0 60 60">
  <defs>
    <style>
      .cls-1 {
        fill: #37464c;
        stroke-width: 0px;
      }
    </style>
  </defs>
  <path class="cls-1" d="m11,49.16c-.28,0-.55-.11-.75-.34l-6.99-7.86c-.81-.92-1.26-2.1-1.26-3.32v-15.35c0-1.73,1.4-3.13,3.13-3.13,1.57,0,2.9,1.17,3.1,2.72l1.19,9.07c.07.55-.31,1.05-.86,1.12-.55.07-1.05-.31-1.12-.86l-1.19-9.07c-.07-.56-.55-.98-1.12-.98-.62,0-1.13.51-1.13,1.13v15.35c0,.74.27,1.44.76,1.99l6.99,7.86c.37.41.33,1.04-.08,1.41-.19.17-.43.25-.66.25Z"/>
  <path class="cls-1" d="m27,55.16c-.55,0-1-.45-1-1v-7.82c0-3.8-2.65-7.09-6.31-7.82-.57-.12-1.18-.2-1.81-.26-1.18-.11-2.29-.62-3.11-1.44l-4.35-4.35c-.6-.59-1.52-.69-2.1-.21-.34.28-.54.66-.56,1.09-.02.42.14.84.44,1.14l6.96,6.96c.39.39.39,1.02,0,1.41s-1.02.39-1.41,0l-6.96-6.96c-.7-.7-1.07-1.66-1.02-2.65.05-.99.52-1.91,1.29-2.54,1.37-1.12,3.47-.97,4.78.34l4.35,4.35c.49.49,1.15.8,1.87.86.7.06,1.38.16,2.02.29,4.59.92,7.92,5.04,7.92,9.78v7.82c0,.55-.45,1-1,1Z"/>
  <path class="cls-1" d="m49,49.16c-.24,0-.47-.08-.66-.25-.41-.37-.45-1-.08-1.41l6.99-7.86c.49-.55.76-1.26.76-1.99v-15.35c0-.62-.51-1.13-1.13-1.13-.57,0-1.05.42-1.12.98l-1.19,9.07c-.07.55-.57.93-1.12.86-.55-.07-.93-.57-.86-1.12l1.19-9.07c.2-1.55,1.54-2.72,3.1-2.72,1.73,0,3.13,1.4,3.13,3.13v15.35c0,1.23-.45,2.41-1.26,3.32l-6.99,7.86c-.2.22-.47.34-.75.34Z"/>
  <path class="cls-1" d="m33,55.16c-.55,0-1-.45-1-1v-7.82c0-4.73,3.31-8.84,7.87-9.77.66-.13,1.36-.24,2.07-.3.71-.06,1.38-.37,1.86-.86l4.35-4.35c1.31-1.31,3.41-1.46,4.78-.34.77.63,1.24,1.55,1.29,2.54.05.99-.32,1.95-1.02,2.65l-6.96,6.96c-.39.39-1.02.39-1.41,0s-.39-1.02,0-1.41l6.96-6.96c.3-.3.46-.71.44-1.14-.02-.43-.22-.82-.56-1.09-.59-.48-1.51-.39-2.1.2l-4.35,4.35c-.82.82-1.92,1.33-3.1,1.44-.64.06-1.27.15-1.85.27-3.63.74-6.27,4.03-6.27,7.81v7.82c0,.55-.45,1-1,1Z"/>
  <path class="cls-1" d="m30,39.16c-.25,0-.49-.09-.68-.27l-14.28-13.34c-4.02-4.23-4.02-11.04-.04-15.22,1.94-2.04,4.53-3.17,7.28-3.17s5.34,1.13,7.28,3.17c.15.16.3.33.45.5.14-.17.29-.34.45-.5,1.94-2.04,4.53-3.17,7.28-3.17s5.34,1.13,7.28,3.17c3.98,4.19,3.98,11,0,15.18-.01.01-.03.03-.04.04l-14.28,13.34c-.19.18-.44.27-.68.27Zm-7.73-30c-2.2,0-4.27.9-5.83,2.55-3.25,3.43-3.25,9,0,12.43l13.56,12.66,13.58-12.68c3.24-3.43,3.23-8.99-.02-12.4-1.56-1.64-3.63-2.55-5.83-2.55s-4.27.9-5.83,2.55c-.39.41-.74.86-1.05,1.35-.37.58-1.33.58-1.69,0-.31-.49-.66-.95-1.05-1.35-1.56-1.65-3.63-2.55-5.83-2.55Z"/>
</svg>