<?xml version="1.0" encoding="UTF-8"?>
<svg id="Layer_1" data-name="Layer 1" xmlns="http://www.w3.org/2000/svg" viewBox="0 0 60 60">
  <defs>
    <style>
      .cls-1 {
        fill: #37464c;
        stroke-width: 0px;
      }
    </style>
  </defs>
  <g>
    <path class="cls-1" d="m57.07,36.45h-4.77c-5.89,0-10.67-4.79-10.67-10.67v-.48h.96v.48c0,5.36,4.36,9.72,9.72,9.72h4.77v.96Z"/>
    <path class="cls-1" d="m57.52,36.9h-5.22c-6.13,0-11.12-4.99-11.12-11.12v-.93h1.86v.93c0,5.11,4.16,9.27,9.27,9.27h5.22v1.86Zm-15.45-11.15v.03c0,5.64,4.59,10.22,10.22,10.22h4.32v-.05h-4.32c-5.61,0-10.17-4.56-10.17-10.17v-.03h-.05Z"/>
  </g>
  <g>
    <path class="cls-1" d="m52.22,41.94h-15.52c-5.74,0-10.51-4.24-11.34-9.75l-16.24-2.05c-.39-.05-.76.19-.88.56l-.6,1.81c-.39,1.17-1.58,1.84-2.78,1.57-.66-.15-1.23-.58-1.56-1.18s-.38-1.31-.15-1.95l.73-2.03c.65-1.78.77-3.7.35-5.55l-.72-3.17c-.24-1.07.32-2.17,1.33-2.61.61-.26,1.31-.25,1.91.04.6.29,1.04.83,1.21,1.48l1.46,5.57c.1.36.42.62.8.62h35.68c6.32,0,11.47,5.15,11.47,11.47,0,2.85-2.32,5.16-5.16,5.16Zm-25.99-10.51c.49,5.35,5,9.55,10.47,9.55h15.52c2.32,0,4.21-1.89,4.21-4.21,0-5.8-4.72-10.52-10.52-10.52H10.23c-.81,0-1.52-.55-1.72-1.33l-1.46-5.57c-.1-.38-.36-.69-.71-.86-.35-.17-.75-.18-1.11-.03-.59.25-.91.89-.77,1.52l.72,3.17c.46,2.03.33,4.13-.38,6.09l-.73,2.03c-.14.38-.11.81.09,1.16.19.36.53.61.93.7.72.17,1.43-.24,1.66-.94l.6-1.81c.26-.8,1.07-1.31,1.91-1.21l16.02,2.02c-.02-.25-.02-.49-.02-.74v-.48h.96v.48c0,.29.01.58.04.86h.02s-.01.1-.01.1Z"/>
    <path class="cls-1" d="m52.22,42.39h-15.52c-5.73,0-10.72-4.19-11.73-9.8l-15.91-2c-.18-.02-.34.08-.4.25l-.6,1.81c-.46,1.39-1.88,2.19-3.3,1.87-.79-.18-1.46-.69-1.85-1.4-.39-.71-.45-1.55-.18-2.31l.73-2.03c.62-1.7.73-3.54.33-5.3l-.72-3.17c-.29-1.28.38-2.6,1.59-3.12.73-.32,1.57-.3,2.28.05.72.35,1.25.99,1.45,1.77l1.46,5.57c.04.17.19.28.36.28h35.68c6.57,0,11.92,5.35,11.92,11.92,0,3.1-2.52,5.61-5.61,5.61ZM9.02,29.68c.05,0,.1,0,.16,0l16.58,2.09.05.34c.8,5.34,5.49,9.37,10.9,9.37h15.52c2.6,0,4.71-2.11,4.71-4.71,0-6.08-4.94-11.02-11.02-11.02H10.23c-.58,0-1.09-.39-1.24-.95l-1.46-5.57c-.14-.52-.49-.95-.97-1.19-.48-.23-1.04-.25-1.53-.04-.81.35-1.26,1.23-1.07,2.09l.72,3.17c.44,1.93.31,3.94-.37,5.8l-.73,2.03c-.19.52-.14,1.09.12,1.58.26.48.72.83,1.26.95.98.22,1.94-.33,2.25-1.27l.6-1.81c.17-.52.67-.87,1.21-.87Zm43.2,11.75h-15.52c-5.61,0-10.41-4.38-10.92-9.96v-.05s0-.01,0-.01v-.04c-.03-.3-.04-.6-.04-.9v-.03l-.05.03c0,.24,0,.48.02.71l.03.54-16.56-2.09c-.62-.08-1.23.3-1.42.9l-.6,1.81c-.3.92-1.25,1.45-2.19,1.23-.52-.12-.96-.45-1.22-.92-.26-.47-.3-1.03-.12-1.53l.73-2.03c.68-1.87.8-3.89.37-5.83l-.72-3.17c-.19-.84.25-1.69,1.04-2.03.48-.21,1.02-.19,1.49.04.47.23.81.65.94,1.15l1.46,5.57c.15.59.68.99,1.29.99h35.68c6.05,0,10.97,4.92,10.97,10.97,0,2.57-2.09,4.66-4.66,4.66Zm-25.54-10.04c.47,5.13,4.87,9.14,10.02,9.14h15.52c2.07,0,3.76-1.69,3.76-3.76,0-5.55-4.52-10.07-10.07-10.07H10.23c-1.01,0-1.9-.69-2.16-1.67l-1.46-5.57c-.07-.25-.24-.46-.47-.57-.23-.11-.5-.12-.74-.02-.39.17-.61.59-.51,1.01l.72,3.17c.48,2.11.34,4.3-.4,6.34l-.73,2.03c-.09.26-.07.55.06.79.13.24.36.42.63.48.49.11.98-.16,1.13-.64l.6-1.81c.33-1.01,1.34-1.64,2.39-1.51l15.49,1.95c0-.08,0-.15,0-.23v-.93h1.86v.93c0,.16,0,.31.01.47h.07s-.04.45-.04.45Z"/>
  </g>
  <g>
    <path class="cls-1" d="m51.23,47.27h-19.22v-.96h19.22c.77,0,1.49-.35,1.97-.96l.29-.38.75.59-.29.38c-.66.84-1.65,1.33-2.72,1.33Z"/>
    <path class="cls-1" d="m51.23,47.72h-19.67v-1.86h19.67c.63,0,1.22-.29,1.61-.79l.57-.73,1.46,1.14-.57.73c-.74.95-1.86,1.5-3.07,1.5Zm-18.77-.9h18.77c.93,0,1.79-.42,2.37-1.15l.02-.02-.04-.03-.02.02c-.56.72-1.41,1.13-2.32,1.13h-18.77v.05Z"/>
  </g>
  <g>
    <rect class="cls-1" x="38.06" y="21.75" width="16.62" height=".96"/>
    <path class="cls-1" d="m55.13,23.16h-17.52v-1.86h17.52v1.86Zm-16.62-.9h15.72v-.05h-15.72v.05Z"/>
  </g>
  <g>
    <rect class="cls-1" x="15.66" y="21.75" width="17.08" height=".96"/>
    <path class="cls-1" d="m33.19,23.16H15.21v-1.86h17.98v1.86Zm-17.08-.9h16.18v-.05h-16.18v.05Z"/>
  </g>
  <g>
    <rect class="cls-1" x="34.92" y="19.66" width=".96" height="6.6"/>
    <path class="cls-1" d="m36.33,26.71h-1.86v-7.5h1.86v7.5Zm-.96-.9h.05v-5.7h-.05v5.7Z"/>
  </g>
  <g>
    <rect class="cls-1" x="36.74" y="40.98" width=".96" height="6.29"/>
    <path class="cls-1" d="m38.14,47.72h-1.86v-7.19h1.86v7.19Zm-.96-.9h.05v-5.38h-.05v5.38Z"/>
  </g>
  <g>
    <rect class="cls-1" x="48.87" y="40.98" width=".96" height="6.29"/>
    <path class="cls-1" d="m50.27,47.72h-1.86v-7.19h1.86v7.19Zm-.96-.9h.05v-5.38h-.05v5.38Z"/>
  </g>
  <g>
    <rect class="cls-1" x="33.5" y="19.66" width="3.81" height=".96"/>
    <path class="cls-1" d="m37.76,21.06h-4.71v-1.86h4.71v1.86Zm-3.81-.9h2.91v-.05h-2.91v.05Z"/>
  </g>
  <g>
    <path class="cls-1" d="m36.96,37.45h-2.09c-.43,0-.78-.35-.78-.78v-1.46h-1.46c-.43,0-.79-.35-.79-.79v-2.09c0-.43.35-.79.79-.79h1.46v-1.47c0-.43.35-.78.78-.78h2.1c.43,0,.78.35.78.78v1.47h1.46c.43,0,.78.35.78.78v2.09c0,.43-.35.78-.78.78h-1.46v1.46c0,.43-.35.78-.78.78Zm-1.92-.96h1.75v-2.25h2.25v-1.75h-2.25v-2.25h-1.75v2.25h-2.25v1.75h2.25v2.25Zm4.17-4h0,0Z"/>
    <path class="cls-1" d="m36.96,37.58h-2.09c-.5,0-.91-.41-.91-.91v-1.34h-1.34c-.5,0-.91-.41-.91-.91v-2.09c0-.5.41-.91.91-.91h1.34v-1.34c0-.5.41-.9.9-.9h2.1c.5,0,.9.4.9.9v1.34h1.34c.5,0,.91.41.91.91v2.09c0,.5-.41.91-.91.91h-1.34v1.34c0,.5-.41.91-.91.91Zm-4.34-5.91c-.36,0-.66.3-.66.66v2.09c0,.36.3.66.66.66h1.59v1.59c0,.36.29.66.66.66h2.09c.36,0,.66-.29.66-.66v-1.59h1.59c.36,0,.66-.29.66-.66v-2.09c0-.36-.29-.66-.66-.66h-1.59v-1.59c0-.36-.29-.65-.65-.65h-2.1c-.36,0-.65.29-.65.65v1.59h-1.59Zm4.29,4.95h-2v-2.25h-2.25v-2h2.25v-2.25h2v2.25h2.25v2h-2.25v2.25Zm-1.75-.25h1.5v-2.25h2.25v-1.5h-2.25v-2.25h-1.5v2.25h-2.25v1.5h2.25v2.25Zm4.05-3.75v-.25s0,0,0,0v.25Z"/>
  </g>
</svg>