<?xml version="1.0" encoding="UTF-8"?>
<svg id="Layer_1" data-name="Layer 1" xmlns="http://www.w3.org/2000/svg" viewBox="0 0 60 60">
  <defs>
    <style>
      .cls-1 {
        fill: #37464c;
        stroke-width: 0px;
      }
    </style>
  </defs>
  <path class="cls-1" d="m44.3,55.6c-.55,0-1-.45-1-1v-11h-16v11c0,.55-.45,1-1,1s-1-.45-1-1v-12c0-.55.45-1,1-1h18c.55,0,1,.45,1,1v12c0,.55-.45,1-1,1Z"/>
  <path class="cls-1" d="m42.3,43.6c-.55,0-1-.45-1-1v-4.39c0-.59.17-1.17.5-1.66l.99-1.49c.33-.49.5-1.07.5-1.66v-10.65c0-1.04-.71-1.95-1.65-2.11-.67-.12-1.19.12-1.49.33-.28.2-.65.23-.97.1-.32-.14-.54-.43-.6-.77-.15-.98-.98-1.69-1.97-1.69-.6,0-1.04.27-1.3.5-.24.21-.55.29-.86.22-.31-.07-.56-.27-.7-.56-.33-.71-1.04-1.16-1.81-1.16s-1.48.46-1.81,1.16c-.13.28-.39.49-.7.56-.31.06-.63-.02-.86-.22-.25-.21-.66-.47-1.23-.49-.51-.02-.98.18-1.37.55-.45.43-.7,1.03-.7,1.64v7.81c0,.55-.45,1-1,1h-1v2.13c0,.89.39,1.73,1.08,2.3l3.12,2.6c1.14.95,1.8,2.35,1.8,3.84v2.13c0,.55-.45,1-1,1s-1-.45-1-1v-2.13c0-.89-.39-1.73-1.08-2.31l-3.12-2.6c-1.14-.95-1.8-2.35-1.8-3.84v-3.13c0-.55.45-1,1-1h1v-6.81c0-1.15.48-2.27,1.32-3.08.78-.75,1.78-1.15,2.83-1.11.53.02,1.04.14,1.52.37.75-.85,1.84-1.37,3-1.37s2.25.52,3,1.37c.52-.24,1.09-.37,1.66-.37,1.54,0,2.88.86,3.55,2.16.58-.17,1.2-.21,1.81-.1,1.88.32,3.31,2.08,3.31,4.08v10.65c0,.99-.29,1.95-.84,2.77l-.99,1.49c-.11.17-.17.36-.17.55v4.39c0,.55-.45,1-1,1Z"/>
  <path class="cls-1" d="m58.3,33.6h-8c-.55,0-1-.45-1-1v-3h-5c-.55,0-1-.45-1-1v-4c0-.55.45-1,1-1h14c.55,0,1,.45,1,1v8c0,.55-.45,1-1,1Zm-7-2h6v-6h-12v2h5c.55,0,1,.45,1,1v3Z"/>
  <path class="cls-1" d="m54.3,33.6c-.55,0-1-.45-1-1v-3c0-.55.45-1,1-1s1,.45,1,1v3c0,.55-.45,1-1,1Z"/>
  <g>
    <path class="cls-1" d="m38.8,12.75c-.11,0-.23-.02-.34-.06-.52-.19-.79-.76-.6-1.28l2.05-5.64c.19-.52.76-.79,1.28-.6.52.19.79.76.6,1.28l-2.05,5.64c-.15.41-.53.66-.94.66Z"/>
    <path class="cls-1" d="m44.51,16.05c-.23,0-.46-.08-.64-.23-.42-.35-.48-.99-.12-1.41l3.86-4.6c.35-.42.99-.48,1.41-.12.42.35.48.99.12,1.41l-3.86,4.6c-.2.24-.48.36-.77.36Z"/>
    <path class="cls-1" d="m48.75,21.1c-.35,0-.68-.18-.87-.5-.28-.48-.11-1.09.37-1.37l5.2-3c.48-.28,1.09-.11,1.37.37.28.48.11,1.09-.37,1.37l-5.2,3c-.16.09-.33.13-.5.13Z"/>
    <path class="cls-1" d="m20.08,16.05c-.29,0-.57-.12-.77-.36l-3.86-4.6c-.35-.42-.3-1.05.12-1.41.42-.35,1.05-.3,1.41.12l3.86,4.6c.35.42.3,1.05-.12,1.41-.19.16-.42.23-.64.23Z"/>
    <path class="cls-1" d="m25.8,12.75c-.41,0-.79-.25-.94-.66l-2.05-5.64c-.19-.52.08-1.09.6-1.28.52-.19,1.09.08,1.28.6l2.05,5.64c.19.52-.08,1.09-.6,1.28-.11.04-.23.06-.34.06Z"/>
    <path class="cls-1" d="m32.3,11.6c-.55,0-1-.45-1-1v-6c0-.55.45-1,1-1s1,.45,1,1v6c0,.55-.45,1-1,1Z"/>
  </g>
  <path class="cls-1" d="m10.3,29.6c-1.65,0-3-1.35-3-3s1.35-3,3-3,3,1.35,3,3-1.35,3-3,3Zm0-4c-.55,0-1,.45-1,1s.45,1,1,1,1-.45,1-1-.45-1-1-1Z"/>
  <path class="cls-1" d="m12.3,35.6c-4.96,0-9-4.04-9-9s4.04-9,9-9c3.84,0,7.22,2.43,8.48,6h3.52c.55,0,1,.45,1,1v4c0,.55-.45,1-1,1h-3.52c-1.26,3.57-4.64,6-8.48,6Zm0-16c-3.86,0-7,3.14-7,7s3.14,7,7,7c3.19,0,5.97-2.16,6.77-5.25.11-.44.51-.75.97-.75h3.26v-2h-3.26c-.46,0-.85-.31-.97-.75-.8-3.09-3.58-5.25-6.77-5.25Z"/>
  <path class="cls-1" d="m30.3,49.6c-.55,0-1-.45-1-1v-2c0-.55.45-1,1-1s1,.45,1,1v2c0,.55-.45,1-1,1Z"/>
</svg>