<?xml version="1.0" encoding="UTF-8"?>
<svg id="Layer_1" data-name="Layer 1" xmlns="http://www.w3.org/2000/svg" viewBox="0 0 60 60">
  <defs>
    <style>
      .cls-1 {
        fill: #37464c;
        stroke-width: 0px;
      }
    </style>
  </defs>
  <g>
    <path class="cls-1" d="m48.35,52.68H7.05v-13.69h41.29v13.69Zm-40.18-1.12h39.06v-11.46H8.17v11.46Z"/>
    <path class="cls-1" d="m48.8,53.13H6.6v-14.59h42.19v14.59Zm-41.29-.9h40.39v-12.79H7.5v12.79Zm40.18-.22H7.72v-12.36h39.96v12.36Zm-39.06-.9h38.16v-10.56H8.62v10.56Z"/>
  </g>
  <g>
    <polygon class="cls-1" points="45.77 40.1 9.91 40.1 9.91 8.69 23.89 8.69 23.89 9.8 11.03 9.8 11.03 38.99 44.65 38.99 44.65 9.8 31.76 9.8 31.76 8.69 45.77 8.69 45.77 40.1"/>
    <path class="cls-1" d="m46.22,40.55H9.46V8.24h14.88v2.02h-12.86v28.28h32.72V10.25h-12.89v-2.02h14.91v32.32Zm-35.86-.9h34.96V9.14h-13.11v.22h12.89v30.08H10.58V9.35h12.86v-.22h-13.08v30.52Z"/>
  </g>
  <g>
    <rect class="cls-1" x="9.91" y="16.26" width="35.86" height="1.12"/>
    <path class="cls-1" d="m46.22,17.83H9.46v-2.02h36.76v2.02Zm-35.86-.9h34.96v-.22H10.36v.22Z"/>
  </g>
  <g>
    <rect class="cls-1" x="9.91" y="23.84" width="35.86" height="1.12"/>
    <path class="cls-1" d="m46.22,25.4H9.46v-2.02h36.76v2.02Zm-35.86-.9h34.96v-.22H10.36v.22Z"/>
  </g>
  <g>
    <rect class="cls-1" x="9.91" y="31.41" width="35.86" height="1.12"/>
    <path class="cls-1" d="m46.22,32.98H9.46v-2.02h36.76v2.02Zm-35.86-.9h34.96v-.22H10.36v.22Z"/>
  </g>
  <g>
    <rect class="cls-1" x="2.22" y="51.56" width="55.56" height="1.12"/>
    <path class="cls-1" d="m58.23,53.13H1.77v-2.02h56.46v2.02Zm-55.56-.9h54.66v-.22H2.67v.22Z"/>
  </g>
  <g>
    <path class="cls-1" d="m32.08,52.68h-8.77v-9.51h8.77v9.51Zm-7.65-1.12h6.53v-7.28h-6.53v7.28Z"/>
    <path class="cls-1" d="m32.53,53.13h-9.67v-10.41h9.67v10.41Zm-8.77-.9h7.87v-8.61h-7.87v8.61Zm7.65-.22h-7.43v-8.18h7.43v8.18Zm-6.53-.9h5.63v-6.38h-5.63v6.38Z"/>
  </g>
  <g>
    <rect class="cls-1" x="19.25" y="43.17" width="1.12" height="9.51"/>
    <path class="cls-1" d="m20.82,53.13h-2.02v-10.41h2.02v10.41Zm-1.12-.9h.22v-8.61h-.22v8.61Z"/>
  </g>
  <g>
    <rect class="cls-1" x="15.19" y="43.17" width="1.12" height="9.51"/>
    <path class="cls-1" d="m16.75,53.13h-2.02v-10.41h2.02v10.41Zm-1.12-.9h.22v-8.61h-.22v8.61Z"/>
  </g>
  <g>
    <rect class="cls-1" x="11.12" y="43.17" width="1.12" height="9.51"/>
    <path class="cls-1" d="m12.69,53.13h-2.02v-10.41h2.02v10.41Zm-1.12-.9h.22v-8.61h-.22v8.61Z"/>
  </g>
  <g>
    <rect class="cls-1" x="43.16" y="43.17" width="1.12" height="9.51"/>
    <path class="cls-1" d="m44.73,53.13h-2.02v-10.41h2.02v10.41Zm-1.12-.9h.22v-8.61h-.22v8.61Z"/>
  </g>
  <g>
    <rect class="cls-1" x="39.1" y="43.17" width="1.12" height="9.51"/>
    <path class="cls-1" d="m40.67,53.13h-2.02v-10.41h2.02v10.41Zm-1.12-.9h.22v-8.61h-.22v8.61Z"/>
  </g>
  <g>
    <rect class="cls-1" x="35.03" y="43.17" width="1.12" height="9.51"/>
    <path class="cls-1" d="m36.6,53.13h-2.02v-10.41h2.02v10.41Zm-1.12-.9h.22v-8.61h-.22v8.61Z"/>
  </g>
  <g>
    <g>
      <path class="cls-1" d="m54.12,47.18c-1.24,0-3.21-2.33-3.21-5.09,0-3.77,2.75-5.99,2.87-6.08l.35-.28.35.28c.12.09,2.87,2.32,2.87,6.08,0,2.76-1.97,5.09-3.21,5.09Zm0-9.97c-.68.69-2.1,2.42-2.1,4.88s1.69,3.96,2.1,3.97c.4-.01,2.1-1.62,2.1-3.97s-1.42-4.2-2.1-4.88Z"/>
      <path class="cls-1" d="m54.12,47.63c-1.6,0-3.66-2.69-3.66-5.54,0-4,2.92-6.34,3.04-6.44l.63-.5.63.5c.12.1,3.04,2.43,3.04,6.44,0,2.85-2.06,5.54-3.66,5.54Zm0-11.32l-.07.05c-.11.09-2.7,2.16-2.7,5.73,0,2.54,1.83,4.64,2.76,4.64s2.76-2.1,2.76-4.64c0-3.57-2.67-5.71-2.69-5.73l-.07-.06Zm.01,10.21c-.78-.02-2.56-1.91-2.56-4.42,0-2.65,1.56-4.52,2.23-5.2l.32-.33.32.33c.67.68,2.23,2.55,2.23,5.2,0,2.51-1.78,4.4-2.53,4.42Zm-.01-8.64c-.66.77-1.65,2.25-1.65,4.22s1.27,3.26,1.65,3.49c.38-.24,1.65-1.52,1.65-3.49s-.98-3.44-1.65-4.22Z"/>
    </g>
    <g>
      <rect class="cls-1" x="53.56" y="46.07" width="1.12" height="6.61"/>
      <path class="cls-1" d="m55.13,53.13h-2.02v-7.51h2.02v7.51Zm-1.12-.9h.22v-5.71h-.22v5.71Z"/>
    </g>
  </g>
  <g>
    <rect class="cls-1" x="16.84" y="35.57" width="2.43" height="1.12"/>
    <path class="cls-1" d="m19.72,37.14h-3.34v-2.02h3.34v2.02Zm-2.44-.9h1.53v-.22h-1.53v.22Z"/>
  </g>
  <g>
    <rect class="cls-1" x="23.36" y="35.57" width="2.44" height="1.12"/>
    <path class="cls-1" d="m26.25,37.14h-3.34v-2.02h3.34v2.02Zm-2.44-.9h1.53v-.22h-1.53v.22Z"/>
  </g>
  <g>
    <rect class="cls-1" x="29.88" y="35.57" width="2.43" height="1.12"/>
    <path class="cls-1" d="m32.77,37.14h-3.33v-2.02h3.33v2.02Zm-2.43-.9h1.53v-.22h-1.53v.22Z"/>
  </g>
  <g>
    <rect class="cls-1" x="36.41" y="35.57" width="2.43" height="1.12"/>
    <path class="cls-1" d="m39.29,37.14h-3.33v-2.02h3.33v2.02Zm-2.43-.9h1.53v-.22h-1.53v.22Z"/>
  </g>
  <g>
    <rect class="cls-1" x="16.84" y="27.51" width="2.43" height="1.12"/>
    <path class="cls-1" d="m19.72,29.08h-3.34v-2.02h3.34v2.02Zm-2.44-.9h1.53v-.22h-1.53v.22Z"/>
  </g>
  <g>
    <rect class="cls-1" x="23.36" y="27.51" width="2.44" height="1.12"/>
    <path class="cls-1" d="m26.25,29.08h-3.34v-2.02h3.34v2.02Zm-2.44-.9h1.53v-.22h-1.53v.22Z"/>
  </g>
  <g>
    <rect class="cls-1" x="29.88" y="27.51" width="2.43" height="1.12"/>
    <path class="cls-1" d="m32.77,29.08h-3.33v-2.02h3.33v2.02Zm-2.43-.9h1.53v-.22h-1.53v.22Z"/>
  </g>
  <g>
    <rect class="cls-1" x="36.41" y="27.51" width="2.43" height="1.12"/>
    <path class="cls-1" d="m39.29,29.08h-3.33v-2.02h3.33v2.02Zm-2.43-.9h1.53v-.22h-1.53v.22Z"/>
  </g>
  <g>
    <rect class="cls-1" x="16.84" y="19.93" width="2.43" height="1.12"/>
    <path class="cls-1" d="m19.72,21.49h-3.34v-2.02h3.34v2.02Zm-2.44-.9h1.53v-.22h-1.53v.22Z"/>
  </g>
  <g>
    <rect class="cls-1" x="23.36" y="19.93" width="2.44" height="1.12"/>
    <path class="cls-1" d="m26.25,21.49h-3.34v-2.02h3.34v2.02Zm-2.44-.9h1.53v-.22h-1.53v.22Z"/>
  </g>
  <g>
    <rect class="cls-1" x="29.88" y="19.93" width="2.43" height="1.12"/>
    <path class="cls-1" d="m32.77,21.49h-3.33v-2.02h3.33v2.02Zm-2.43-.9h1.53v-.22h-1.53v.22Z"/>
  </g>
  <g>
    <rect class="cls-1" x="36.41" y="19.93" width="2.43" height="1.12"/>
    <path class="cls-1" d="m39.29,21.49h-3.33v-2.02h3.33v2.02Zm-2.43-.9h1.53v-.22h-1.53v.22Z"/>
  </g>
  <g>
    <rect class="cls-1" x="16.84" y="12.77" width="2.43" height="1.12"/>
    <path class="cls-1" d="m19.72,14.34h-3.34v-2.02h3.34v2.02Zm-2.44-.9h1.53v-.22h-1.53v.22Z"/>
  </g>
  <g>
    <rect class="cls-1" x="36.41" y="12.77" width="2.43" height="1.12"/>
    <path class="cls-1" d="m39.29,14.34h-3.33v-2.02h3.33v2.02Zm-2.43-.9h1.53v-.22h-1.53v.22Z"/>
  </g>
  <g>
    <path class="cls-1" d="m29.07,14.02h-2.45c-.5,0-.92-.41-.92-.92v-1.71h-1.71c-.51,0-.92-.41-.92-.92v-2.44c0-.51.41-.92.92-.92h1.71v-1.72c0-.5.41-.91.91-.91h2.46c.5,0,.91.41.91.91v1.72h1.71c.5,0,.92.41.92.92v2.45c0,.5-.41.92-.92.92h-1.71v1.71c0,.5-.41.92-.92.92Zm-2.25-1.12h2.05v-2.63h2.63v-2.05h-2.63v-2.63h-2.05v2.63h-2.63v2.05h2.63v2.63Zm4.88-4.68h.01-.01Z"/>
    <path class="cls-1" d="m29.07,14.27h-2.45c-.64,0-1.17-.52-1.17-1.17v-1.46h-1.46c-.65,0-1.17-.52-1.17-1.17v-2.44c0-.65.52-1.17,1.17-1.17h1.46v-1.47c0-.64.52-1.16,1.16-1.16h2.46c.64,0,1.16.52,1.16,1.16v1.47h1.46c.64,0,1.17.52,1.17,1.17v2.45c0,.64-.52,1.17-1.17,1.17h-1.46v1.46c0,.64-.52,1.17-1.17,1.17Zm-5.08-6.91c-.37,0-.67.3-.67.67v2.44c0,.37.3.67.67.67h1.96v1.96c0,.37.3.67.67.67h2.45c.37,0,.67-.3.67-.67v-1.96h1.96c.37,0,.67-.3.67-.67v-2.45c0-.37-.3-.67-.67-.67h-1.96v-1.97c0-.36-.3-.66-.66-.66h-2.46c-.36,0-.66.3-.66.66v1.97h-1.96Zm5.12,5.79h-2.55v-2.63h-2.63v-2.55h2.63v-2.63h2.55v2.63h2.63v2.55h-2.63v2.63Zm-2.05-.5h1.55v-2.63h2.63v-1.55h-2.63v-2.63h-1.55v2.63h-2.63v1.55h2.63v2.63Z"/>
  </g>
</svg>