<?xml version="1.0" encoding="UTF-8"?>
<svg id="Layer_1" data-name="Layer 1" xmlns="http://www.w3.org/2000/svg" viewBox="0 0 60 60">
  <defs>
    <style>
      .cls-1 {
        fill: #424242;
      }

      .cls-1, .cls-2 {
        stroke-width: 0px;
      }

      .cls-2 {
        fill: #37464c;
      }
    </style>
  </defs>
  <g>
    <g>
      <path class="cls-1" d="m31.2,55.18h-13.28v-11.49h13.28v11.49Zm-11.88-1.4h10.48v-8.68h-10.48v8.68Z"/>
      <path class="cls-1" d="m23.66,40.67h-5.54v-5.54h5.54v5.54Zm-4.54-1h3.54v-3.54h-3.54v3.54Z"/>
      <path class="cls-1" d="m31,40.67h-5.54v-5.54h5.54v5.54Zm-4.54-1h3.54v-3.54h-3.54v3.54Z"/>
      <path class="cls-1" d="m23.66,31.91h-5.54v-5.54h5.54v5.54Zm-4.54-1h3.54v-3.54h-3.54v3.54Z"/>
      <path class="cls-1" d="m31,31.91h-5.54v-5.54h5.54v5.54Zm-4.54-1h3.54v-3.54h-3.54v3.54Z"/>
      <path class="cls-1" d="m35.75,55.18H13.37V17.8c0-1.06.86-1.92,1.92-1.92h1.48v1.4h-1.48c-.29,0-.52.23-.52.52v35.98h19.57V17.8c0-.29-.23-.52-.52-.52h-1.48v-1.4h1.48c1.06,0,1.92.86,1.92,1.92v37.38Z"/>
      <g>
        <path class="cls-1" d="m11.09,40.67h-5.54v-5.54h5.54v5.54Zm-4.54-1h3.54v-3.54h-3.54v3.54Z"/>
        <path class="cls-1" d="m11.09,49.44h-5.54v-5.54h5.54v5.54Zm-4.54-1h3.54v-3.54h-3.54v3.54Z"/>
        <path class="cls-1" d="m14.78,55.18H1.87v-22.03c0-6.73,5.48-12.21,12.21-12.21h.7v34.24Zm-11.51-1.4h10.11v-31.41c-5.63.36-10.11,5.06-10.11,10.78v20.63Z"/>
      </g>
      <g>
        <path class="cls-1" d="m43.57,40.67h-5.54v-5.54h5.54v5.54Zm-4.54-1h3.54v-3.54h-3.54v3.54Z"/>
        <path class="cls-1" d="m43.57,49.44h-5.54v-5.54h5.54v5.54Zm-4.54-1h3.54v-3.54h-3.54v3.54Z"/>
        <path class="cls-1" d="m47.26,55.18h-12.91V20.94h.7c1.21,0,2.4.18,3.55.52l-.41,1.34c-.79-.24-1.61-.39-2.44-.44v31.41h10.11v-18.72h1.4v20.12Z"/>
      </g>
      <g>
        <path class="cls-1" d="m24.56,23.21c-3.66,0-6.64-2.98-6.64-6.64s2.98-6.64,6.64-6.64,6.64,2.98,6.64,6.64-2.98,6.64-6.64,6.64Zm0-11.88c-2.89,0-5.24,2.35-5.24,5.24s2.35,5.24,5.24,5.24,5.24-2.35,5.24-5.24-2.35-5.24-5.24-5.24Z"/>
        <path class="cls-1" d="m26.27,20.62h-3.41v-2.34h-2.34v-3.41h2.34v-2.34h3.41v2.34h2.34v3.41h-2.34v2.34Zm-2.41-1h1.41v-2.34h2.34v-1.41h-2.34v-2.34h-1.41v2.34h-2.34v1.41h2.34v2.34Z"/>
      </g>
      <rect class="cls-1" x="23.86" y="44.39" width="1.4" height="10.08"/>
    </g>
    <path class="cls-1" d="m48.26,36c-6.09,0-11.05-4.96-11.05-11.05s4.96-11.05,11.05-11.05,11.05,4.96,11.05,11.05-4.96,11.05-11.05,11.05Zm0-20.5c-5.21,0-9.45,4.24-9.45,9.45s4.24,9.45,9.45,9.45,9.45-4.24,9.45-9.45-4.24-9.45-9.45-9.45Z"/>
  </g>
  <path class="cls-2" d="m51.17,30.45c-.13,0-.26-.05-.35-.15l-2.57-2.57-2.57,2.57c-.09.09-.22.15-.35.15h0c-.13,0-.26-.05-.35-.15l-2.08-2.08c-.2-.2-.2-.51,0-.71l2.56-2.57-2.56-2.57c-.2-.2-.2-.51,0-.71l2.08-2.08c.2-.2.51-.2.71,0l2.57,2.56,2.57-2.56c.2-.2.51-.2.71,0l2.08,2.08c.09.09.15.22.15.35s-.05.26-.15.35l-2.57,2.57,2.57,2.57c.2.2.2.51,0,.71l-2.08,2.08c-.1.1-.23.15-.35.15Zm-2.92-3.92c.13,0,.26.05.35.15l2.57,2.57,1.38-1.38-2.57-2.57c-.2-.2-.2-.51,0-.71l2.57-2.57-1.38-1.38-2.57,2.56c-.2.2-.51.2-.71,0l-2.57-2.56-1.38,1.38,2.56,2.57c.2.2.2.51,0,.71l-2.56,2.57,1.38,1.38,2.57-2.57c.1-.1.23-.15.35-.15Z"/>
</svg>