<?xml version="1.0" encoding="UTF-8"?>
<svg id="Layer_1" data-name="Layer 1" xmlns="http://www.w3.org/2000/svg" viewBox="0 0 60 60">
  <defs>
    <style>
      .cls-1 {
        fill: #37464c;
        stroke-width: 0px;
      }
    </style>
  </defs>
  <g>
    <path class="cls-1" d="m52.57,52.96H7.97c-.33,0-.59-.26-.59-.59V20.06c0-.33.26-.59.59-.59s.59.26.59.59v31.73h43.42v-31.78c0-.33.26-.59.59-.59s.59.26.59.59v32.37c0,.33-.26.59-.59.59Z"/>
    <path class="cls-1" d="m52.57,53.34H7.97c-.53,0-.96-.43-.96-.96V20.06c0-.53.43-.96.96-.96s.96.43.96.96v31.35h42.67v-31.41c0-.53.43-.96.96-.96s.96.43.96.96v32.37c0,.53-.43.96-.96.96ZM7.97,19.84c-.12,0-.21.1-.21.21v32.32c0,.12.1.21.21.21h44.6c.12,0,.21-.1.21-.21V20c0-.24-.43-.24-.43,0v32.16H8.19V20.06c0-.12-.1-.21-.21-.21Z"/>
  </g>
  <g>
    <path class="cls-1" d="m54.16,56.02H6.39c-.33,0-.59-.26-.59-.59s.26-.59.59-.59h47.77c.33,0,.59.26.59.59s-.26.59-.59.59Z"/>
    <path class="cls-1" d="m54.16,56.39H6.39c-.53,0-.96-.43-.96-.96s.43-.96.96-.96h47.77c.53,0,.96.43.96.96s-.43.96-.96.96Zm-47.77-1.18c-.12,0-.21.1-.21.21s.1.21.21.21h47.77c.12,0,.21-.1.21-.21s-.1-.21-.21-.21H6.39Z"/>
  </g>
  <g>
    <path class="cls-1" d="m55.74,20.36H4.8c-.18,0-.36-.08-.47-.23-.11-.14-.15-.33-.1-.51l3.4-12.9c.07-.26.3-.44.57-.44h44.15c.27,0,.5.18.57.44l3.4,12.9c.05.18,0,.37-.1.51-.11.14-.28.23-.47.23Zm-50.17-1.18h49.41l-3.09-11.73H8.65l-3.09,11.73Z"/>
    <path class="cls-1" d="m55.74,20.74H4.8c-.3,0-.58-.14-.76-.38-.18-.23-.24-.55-.17-.83l3.4-12.91c.11-.42.49-.72.93-.72h44.15c.44,0,.82.3.93.72l3.4,12.9c.08.29.01.6-.17.84-.18.24-.46.37-.76.37ZM8.2,6.66c-.1,0-.18.07-.21.16l-3.4,12.91c-.02.06,0,.13.04.19.04.05.1.08.17.08h50.94c.07,0,.13-.03.17-.08s.05-.12.04-.19l-3.4-12.9c-.03-.09-.11-.16-.21-.16H8.2Zm47.26,12.9H5.08l3.28-12.48h43.81l3.28,12.48Zm-49.41-.75h48.44l-2.89-10.98H8.94l-2.89,10.98Z"/>
  </g>
  <g>
    <g>
      <path class="cls-1" d="m48.02,43.79h-7.65c-.33,0-.59-.26-.59-.59v-19.7c0-.33.26-.59.59-.59h7.65c.33,0,.59.26.59.59v19.7c0,.33-.26.59-.59.59Zm-7.06-1.18h6.47v-18.52h-6.47v18.52Z"/>
      <path class="cls-1" d="m48.02,44.17h-7.65c-.53,0-.96-.43-.96-.96v-19.7c0-.53.43-.96.96-.96h7.65c.53,0,.96.43.96.96v19.7c0,.53-.43.96-.96.96Zm-7.65-20.87c-.12,0-.21.1-.21.21v19.7c0,.12.1.21.21.21h7.65c.12,0,.21-.1.21-.21v-19.7c0-.12-.1-.21-.21-.21h-7.65Zm7.43,19.7h-7.22v-19.27h7.22v19.27Zm-6.47-.75h5.72v-17.77h-5.72v17.77Z"/>
    </g>
    <g>
      <path class="cls-1" d="m20.17,43.79h-7.65c-.33,0-.59-.26-.59-.59v-19.7c0-.33.26-.59.59-.59h7.65c.33,0,.59.26.59.59v19.7c0,.33-.26.59-.59.59Zm-7.06-1.18h6.47v-18.52h-6.47v18.52Z"/>
      <path class="cls-1" d="m20.17,44.17h-7.65c-.53,0-.96-.43-.96-.96v-19.7c0-.53.43-.96.96-.96h7.65c.53,0,.96.43.96.96v19.7c0,.53-.43.96-.96.96Zm-7.65-20.87c-.12,0-.21.1-.21.21v19.7c0,.12.1.21.21.21h7.65c.12,0,.21-.1.21-.21v-19.7c0-.12-.1-.21-.21-.21h-7.65Zm7.43,19.7h-7.22v-19.27h7.22v19.27Zm-6.47-.75h5.72v-17.77h-5.72v17.77Z"/>
    </g>
    <g>
      <path class="cls-1" d="m35.25,52.96h-9.96c-.33,0-.59-.26-.59-.59v-19.7c0-.33.26-.59.59-.59h9.96c.33,0,.59.26.59.59v19.7c0,.33-.26.59-.59.59Zm-9.37-1.18h8.78v-18.52h-8.78v18.52Z"/>
      <path class="cls-1" d="m35.25,53.34h-9.96c-.53,0-.96-.43-.96-.96v-19.7c0-.53.43-.96.96-.96h9.96c.53,0,.96.43.96.96v19.7c0,.53-.43.96-.96.96Zm-9.96-20.87c-.12,0-.21.1-.21.21v19.7c0,.12.1.21.21.21h9.96c.12,0,.21-.1.21-.21v-19.7c0-.12-.1-.21-.21-.21h-9.96Zm9.75,19.7h-9.53v-19.27h9.53v19.27Zm-8.78-.75h8.03v-17.77h-8.03v17.77Z"/>
    </g>
  </g>
</svg>