<?xml version="1.0" encoding="UTF-8"?>
<svg id="Layer_1" data-name="Layer 1" xmlns="http://www.w3.org/2000/svg" viewBox="0 0 60 60">
  <defs>
    <style>
      .cls-1 {
        fill: #37464c;
        stroke-width: 0px;
      }
    </style>
  </defs>
  <path class="cls-1" d="m30,10c-2.21,0-4-1.79-4-4s1.79-4,4-4,4,1.79,4,4-1.79,4-4,4Zm0-6c-1.1,0-2,.9-2,2s.9,2,2,2,2-.9,2-2-.9-2-2-2Z"/>
  <path class="cls-1" d="m30,58c-2.21,0-4-1.79-4-4s1.79-4,4-4,4,1.79,4,4-1.79,4-4,4Zm0-6c-1.1,0-2,.9-2,2s.9,2,2,2,2-.9,2-2-.9-2-2-2Z"/>
  <path class="cls-1" d="m6,34c-2.21,0-4-1.79-4-4s1.79-4,4-4,4,1.79,4,4-1.79,4-4,4Zm0-6c-1.1,0-2,.9-2,2s.9,2,2,2,2-.9,2-2-.9-2-2-2Z"/>
  <path class="cls-1" d="m30,44c-7.72,0-14-6.28-14-14s6.28-14,14-14,14,6.28,14,14-6.28,14-14,14Zm0-26c-6.62,0-12,5.38-12,12s5.38,12,12,12,12-5.38,12-12-5.38-12-12-12Z"/>
  <path class="cls-1" d="m54,34c-2.21,0-4-1.79-4-4s1.79-4,4-4,4,1.79,4,4-1.79,4-4,4Zm0-6c-1.1,0-2,.9-2,2s.9,2,2,2,2-.9,2-2-.9-2-2-2Z"/>
  <path class="cls-1" d="m30,14c-.55,0-1-.45-1-1v-4c0-.55.45-1,1-1s1,.45,1,1v4c0,.55-.45,1-1,1Z"/>
  <path class="cls-1" d="m51,31h-4c-.55,0-1-.45-1-1s.45-1,1-1h4c.55,0,1,.45,1,1s-.45,1-1,1Z"/>
  <path class="cls-1" d="m30,52c-.55,0-1-.45-1-1v-4c0-.55.45-1,1-1s1,.45,1,1v4c0,.55-.45,1-1,1Z"/>
  <path class="cls-1" d="m13.03,17.03c-1.02,0-2.05-.39-2.83-1.17-.76-.76-1.17-1.76-1.17-2.83s.42-2.07,1.17-2.83c1.51-1.51,4.15-1.51,5.66,0,1.56,1.56,1.56,4.1,0,5.66-.78.78-1.8,1.17-2.83,1.17Zm0-6c-.53,0-1.04.21-1.41.59s-.59.88-.59,1.41.21,1.04.59,1.41c.78.78,2.05.78,2.83,0,.78-.78.78-2.05,0-2.83-.38-.38-.88-.59-1.41-.59Z"/>
  <path class="cls-1" d="m46.97,50.97c-1.07,0-2.07-.42-2.83-1.17-1.56-1.56-1.56-4.1,0-5.66,1.56-1.56,4.1-1.56,5.66,0,.76.76,1.17,1.76,1.17,2.83s-.42,2.07-1.17,2.83c-.76.76-1.76,1.17-2.83,1.17Zm0-6c-.51,0-1.02.19-1.41.58-.78.78-.78,2.05,0,2.83s2.07.76,2.83,0c.38-.38.59-.88.59-1.41s-.21-1.04-.59-1.41-.9-.58-1.41-.58Z"/>
  <path class="cls-1" d="m17.98,18.98c-.26,0-.51-.1-.71-.29l-2.83-2.83c-.39-.39-.39-1.02,0-1.41s1.02-.39,1.41,0l2.83,2.83c.39.39.39,1.02,0,1.41-.2.2-.45.29-.71.29Z"/>
  <path class="cls-1" d="m44.85,45.85c-.26,0-.51-.1-.71-.29l-2.83-2.83c-.39-.39-.39-1.02,0-1.41s1.02-.39,1.41,0l2.83,2.83c.39.39.39,1.02,0,1.41-.2.2-.45.29-.71.29Z"/>
  <path class="cls-1" d="m13,31h-4c-.55,0-1-.45-1-1s.45-1,1-1h4c.55,0,1,.45,1,1s-.45,1-1,1Z"/>
  <path class="cls-1" d="m13.03,50.97c-1.07,0-2.07-.42-2.83-1.17-.76-.76-1.17-1.76-1.17-2.83s.42-2.07,1.17-2.83c1.56-1.56,4.1-1.56,5.66,0h0c1.56,1.56,1.56,4.1,0,5.66-.76.76-1.76,1.17-2.83,1.17Zm0-6c-.51,0-1.02.19-1.41.58-.38.38-.59.88-.59,1.41s.21,1.04.59,1.41c.76.76,2.07.76,2.83,0,.78-.78.78-2.05,0-2.83-.39-.39-.9-.58-1.41-.58Z"/>
  <path class="cls-1" d="m46.97,17.03c-1.02,0-2.05-.39-2.83-1.17-1.56-1.56-1.56-4.1,0-5.66,1.51-1.51,4.15-1.51,5.66,0h0c.76.76,1.17,1.76,1.17,2.83s-.42,2.07-1.17,2.83c-.78.78-1.8,1.17-2.83,1.17Zm0-6c-.53,0-1.04.21-1.41.59-.78.78-.78,2.05,0,2.83.78.78,2.05.78,2.83,0,.38-.38.59-.88.59-1.41s-.21-1.04-.59-1.41h0c-.38-.38-.88-.59-1.41-.59Z"/>
  <path class="cls-1" d="m42.02,18.98c-.26,0-.51-.1-.71-.29-.39-.39-.39-1.02,0-1.41l2.83-2.83c.39-.39,1.02-.39,1.41,0s.39,1.02,0,1.41l-2.83,2.83c-.2.2-.45.29-.71.29Z"/>
  <path class="cls-1" d="m15.15,45.85c-.26,0-.51-.1-.71-.29-.39-.39-.39-1.02,0-1.41l2.83-2.83c.39-.39,1.02-.39,1.41,0s.39,1.02,0,1.41l-2.83,2.83c-.2.2-.45.29-.71.29Z"/>
  <path class="cls-1" d="m30,33c-3.03,0-5.5-2.47-5.5-5.5s2.47-5.5,5.5-5.5,5.5,2.47,5.5,5.5-2.47,5.5-5.5,5.5Zm0-9c-1.93,0-3.5,1.57-3.5,3.5s1.57,3.5,3.5,3.5,3.5-1.57,3.5-3.5-1.57-3.5-3.5-3.5Z"/>
  <path class="cls-1" d="m30,44c-3.62,0-7.06-1.39-9.68-3.9-.2-.19-.31-.47-.31-.75.1-4.03,4.21-6.85,9.99-6.85s9.89,2.82,9.99,6.85c0,.28-.1.55-.31.75-2.62,2.52-6.06,3.9-9.68,3.9Zm-7.96-5.03c2.2,1.96,5.01,3.03,7.96,3.03s5.75-1.07,7.96-3.03c-.37-2.65-3.56-4.47-7.96-4.47s-7.58,1.82-7.96,4.47Z"/>
</svg>