<svg width="151" height="151" xmlns="http://www.w3.org/2000/svg" xmlns:xlink="http://www.w3.org/1999/xlink" xml:space="preserve" overflow="hidden"><g transform="translate(-1010 -416)"><path d="M1081.05 563.225C1077.5 563.225 1074.63 560.356 1074.63 556.807 1074.63 553.259 1077.52 550.39 1081.05 550.39 1084.57 550.39 1087.46 553.284 1087.46 556.807 1087.46 560.331 1084.57 563.225 1081.05 563.225ZM1081.05 554.643C1079.86 554.643 1078.91 555.599 1078.91 556.782 1078.91 557.965 1079.86 558.922 1081.05 558.922 1082.23 558.922 1083.18 557.965 1083.18 556.782 1083.18 555.599 1082.23 554.643 1081.05 554.643Z" fill="#6100DC"/><path d="M1113.21 554.668C1109.66 554.668 1106.79 551.774 1106.79 548.251 1106.79 544.728 1109.66 541.833 1113.21 541.833 1116.76 541.833 1119.63 544.702 1119.63 548.251 1119.63 551.799 1116.73 554.668 1113.21 554.668ZM1113.21 546.086C1112.03 546.086 1111.07 547.043 1111.07 548.226 1111.07 549.409 1112.03 550.365 1113.21 550.365 1114.39 550.365 1115.35 549.409 1115.35 548.226 1115.35 547.043 1114.39 546.086 1113.21 546.086Z" fill="#6100DC"/><path d="M1048.91 554.668C1045.36 554.668 1042.49 551.774 1042.49 548.251 1042.49 544.728 1045.38 541.833 1048.91 541.833 1052.43 541.833 1055.33 544.702 1055.33 548.251 1055.33 551.799 1052.46 554.668 1048.91 554.668ZM1048.91 546.086C1047.72 546.086 1046.77 547.043 1046.77 548.226 1046.77 549.409 1047.72 550.365 1048.91 550.365 1050.09 550.365 1051.05 549.409 1051.05 548.226 1051.05 547.043 1050.09 546.086 1048.91 546.086Z" fill="#6100DC"/><path d="M1134.65 507.506C1131.1 507.506 1128.23 504.637 1128.23 501.089 1128.23 497.54 1131.1 494.671 1134.65 494.671 1138.2 494.671 1141.07 497.565 1141.07 501.089 1141.07 504.612 1138.17 507.506 1134.65 507.506ZM1134.65 498.924C1133.47 498.924 1132.51 499.88 1132.51 501.063 1132.51 502.246 1133.47 503.203 1134.65 503.203 1135.83 503.203 1136.79 502.246 1136.79 501.063 1136.79 499.88 1135.83 498.924 1134.65 498.924Z" fill="#6100DC"/><path d="M1126.07 537.505C1122.52 537.505 1119.65 534.61 1119.65 531.087 1119.65 527.564 1122.52 524.67 1126.07 524.67 1129.62 524.67 1132.49 527.564 1132.49 531.087 1132.49 534.61 1129.59 537.505 1126.07 537.505ZM1126.07 528.923C1124.89 528.923 1123.93 529.879 1123.93 531.062 1123.93 532.245 1124.89 533.201 1126.07 533.201 1127.25 533.201 1128.21 532.245 1128.21 531.062 1128.21 529.879 1127.25 528.923 1126.07 528.923Z" fill="#6100DC"/><path d="M1126.07 528.923C1124.89 528.923 1123.93 527.966 1123.93 526.784L1123.93 516.063 1117.49 516.063C1116.3 516.063 1115.35 515.106 1115.35 513.924 1115.35 512.741 1116.3 511.784 1117.49 511.784L1126.07 511.784C1127.25 511.784 1128.21 512.741 1128.21 513.924L1128.21 526.784C1128.21 527.966 1127.25 528.923 1126.07 528.923Z" fill="#6100DC"/><path d="M1027.47 507.506C1023.92 507.506 1021.05 504.637 1021.05 501.089 1021.05 497.54 1023.94 494.671 1027.47 494.671 1030.99 494.671 1033.88 497.565 1033.88 501.089 1033.88 504.612 1031.01 507.506 1027.47 507.506ZM1027.47 498.924C1026.28 498.924 1025.33 499.88 1025.33 501.063 1025.33 502.246 1026.28 503.203 1027.47 503.203 1028.65 503.203 1029.6 502.246 1029.6 501.063 1029.6 499.88 1028.65 498.924 1027.47 498.924Z" fill="#6100DC"/><path d="M1036.05 537.505C1032.5 537.505 1029.63 534.61 1029.63 531.087 1029.63 527.564 1032.52 524.67 1036.05 524.67 1039.57 524.67 1042.46 527.564 1042.46 531.087 1042.46 534.61 1039.6 537.505 1036.05 537.505ZM1036.05 528.923C1034.86 528.923 1033.91 529.879 1033.91 531.062 1033.91 532.245 1034.86 533.201 1036.05 533.201 1037.23 533.201 1038.19 532.245 1038.19 531.062 1038.19 529.879 1037.23 528.923 1036.05 528.923Z" fill="#6100DC"/><path d="M1081.05 507.506C1077.5 507.506 1074.63 504.637 1074.63 501.089 1074.63 497.54 1077.52 494.671 1081.05 494.671 1084.57 494.671 1087.46 497.565 1087.46 501.089 1087.46 504.612 1084.57 507.506 1081.05 507.506ZM1081.05 498.924C1079.86 498.924 1078.91 499.88 1078.91 501.063 1078.91 502.246 1079.86 503.203 1081.05 503.203 1082.23 503.203 1083.18 502.246 1083.18 501.063 1083.18 499.88 1082.23 498.924 1081.05 498.924Z" fill="#6100DC"/><path d="M1036.05 477.482C1032.5 477.482 1029.63 474.613 1029.63 471.065 1029.63 467.516 1032.52 464.647 1036.05 464.647 1039.57 464.647 1042.46 467.541 1042.46 471.065 1042.46 474.588 1039.6 477.482 1036.05 477.482ZM1036.05 468.9C1034.86 468.9 1033.91 469.857 1033.91 471.039 1033.91 472.222 1034.86 473.179 1036.05 473.179 1037.23 473.179 1038.19 472.222 1038.19 471.039 1038.19 469.857 1037.23 468.9 1036.05 468.9Z" fill="#6100DC"/><path d="M1044.6 490.342 1036.02 490.342C1034.84 490.342 1033.88 489.386 1033.88 488.203L1033.88 475.343C1033.88 474.16 1034.84 473.204 1036.02 473.204 1037.21 473.204 1038.16 474.16 1038.16 475.343L1038.16 486.064 1044.6 486.064C1045.79 486.064 1046.74 487.02 1046.74 488.203 1046.74 489.386 1045.79 490.342 1044.6 490.342Z" fill="#6100DC"/><path d="M1104.63 528.923 1089.63 528.923C1088.44 528.923 1087.49 527.966 1087.49 526.784 1087.49 525.601 1088.44 524.644 1089.63 524.644L1104.63 524.644C1105.81 524.644 1106.77 523.688 1106.77 522.505L1106.77 501.063C1106.77 499.88 1107.72 498.924 1108.91 498.924L1130.35 498.924C1131.53 498.924 1132.49 499.88 1132.49 501.063 1132.49 502.246 1131.53 503.203 1130.35 503.203L1111.04 503.203 1111.04 522.505C1111.04 526.054 1108.15 528.923 1104.63 528.923Z" fill="#6100DC"/><path d="M1108.93 550.365 1096.07 550.365C1094.89 550.365 1093.93 549.409 1093.93 548.226L1093.93 528.923C1093.93 527.74 1094.89 526.784 1096.07 526.784 1097.25 526.784 1098.21 527.74 1098.21 528.923L1098.21 546.086 1108.93 546.086C1110.11 546.086 1111.07 547.043 1111.07 548.226 1111.07 549.409 1110.11 550.365 1108.93 550.365Z" fill="#6100DC"/><path d="M1053.19 503.203 1031.74 503.203C1030.56 503.203 1029.6 502.246 1029.6 501.063 1029.6 499.88 1030.56 498.924 1031.74 498.924L1051.05 498.924 1051.05 483.9C1051.05 480.351 1053.94 477.482 1057.46 477.482L1087.21 477.482C1088.39 477.482 1089.35 478.439 1089.35 479.621 1089.35 480.804 1088.39 481.76 1087.21 481.76L1057.46 481.76C1056.28 481.76 1055.33 482.717 1055.33 483.9L1055.33 501.063C1055.33 502.246 1054.37 503.203 1053.19 503.203Z" fill="#6100DC"/><path d="M1081.05 554.668C1079.86 554.668 1078.91 553.712 1078.91 552.529L1078.91 528.948 1057.46 528.948C1053.92 528.948 1051.05 526.079 1051.05 522.531L1051.05 509.67C1051.05 508.487 1052 507.531 1053.19 507.531 1054.37 507.531 1055.33 508.487 1055.33 509.67L1055.33 522.531C1055.33 523.713 1056.28 524.67 1057.46 524.67L1081.05 524.67C1082.23 524.67 1083.18 525.626 1083.18 526.809L1083.18 552.529C1083.18 553.712 1082.23 554.668 1081.05 554.668Z" fill="#6100DC"/><path d="M1036.05 528.923C1034.86 528.923 1033.91 527.966 1033.91 526.784L1033.91 513.924C1033.91 512.741 1034.86 511.784 1036.05 511.784L1053.19 511.784C1054.37 511.784 1055.33 512.741 1055.33 513.924 1055.33 515.106 1054.37 516.063 1053.19 516.063L1038.19 516.063 1038.19 526.784C1038.19 527.966 1037.23 528.923 1036.05 528.923Z" fill="#6100DC"/><path d="M1066.05 550.365 1053.19 550.365C1052 550.365 1051.05 549.409 1051.05 548.226 1051.05 547.043 1052 546.086 1053.19 546.086L1063.91 546.086 1063.91 535.365C1063.91 534.183 1064.86 533.226 1066.05 533.226 1067.23 533.226 1068.19 534.183 1068.19 535.365L1068.19 548.226C1068.19 549.409 1067.23 550.365 1066.05 550.365Z" fill="#6100DC"/><path d="M1063.91 481.76C1062.72 481.76 1061.77 480.804 1061.77 479.621L1061.77 462.483C1061.77 451.837 1070.43 443.18 1081.05 443.18 1082.23 443.18 1083.18 444.136 1083.18 445.319 1083.18 446.502 1082.23 447.458 1081.05 447.458 1072.77 447.458 1066.05 454.203 1066.05 462.483L1066.05 479.621C1066.05 480.804 1065.09 481.76 1063.91 481.76Z" fill="#6100DC"/><path d="M1081.05 516.063C1079.86 516.063 1078.91 515.106 1078.91 513.924L1078.91 505.342C1078.91 504.159 1079.86 503.203 1081.05 503.203 1082.23 503.203 1083.18 504.159 1083.18 505.342L1083.18 513.924C1083.18 515.106 1082.23 516.063 1081.05 516.063Z" fill="#6100DC"/><path d="M1107.22 474.085 1107.22 474.085C1106.64 474.085 1106.11 473.858 1105.71 473.456L1092.8 460.545C1091.97 459.715 1091.97 458.355 1092.8 457.525L1097.96 452.366C1098.76 451.56 1100.17 451.56 1100.98 452.366L1107.22 458.607 1123.78 442.047C1124.18 441.645 1124.73 441.418 1125.29 441.418L1125.29 441.418C1125.87 441.418 1126.4 441.645 1126.8 442.047L1131.96 447.207C1132.79 448.037 1132.79 449.396 1131.96 450.227L1108.7 473.481C1108.3 473.883 1107.75 474.11 1107.19 474.11ZM1097.33 459.035 1107.22 468.926 1127.43 448.717 1125.29 446.578 1108.73 463.137C1108.33 463.54 1107.77 463.766 1107.22 463.766L1107.22 463.766C1106.64 463.766 1106.11 463.54 1105.71 463.137L1099.47 456.896 1097.33 459.035Z" fill="#6100DC"/><path d="M1112.38 492.154C1093.4 492.154 1077.95 476.727 1077.95 457.726 1077.95 438.725 1093.38 423.298 1112.38 423.298 1131.38 423.298 1146.81 438.725 1146.81 457.726 1146.81 476.727 1131.38 492.154 1112.38 492.154ZM1112.38 427.602C1095.77 427.602 1082.23 441.116 1082.23 457.751 1082.23 474.387 1095.74 487.901 1112.38 487.901 1129.01 487.901 1142.53 474.387 1142.53 457.751 1142.53 441.116 1129.01 427.602 1112.38 427.602Z" fill="#6100DC"/><path d="M1106.79 489.839 1111.07 489.839 1111.07 514.754 1106.79 514.754Z" fill="#6100DC"/><path d="M1051.05 501.063 1055.33 501.063 1055.33 522.505 1051.05 522.505Z" fill="#6100DC"/><path d="M1072.49 524.644 1096.07 524.644 1096.07 528.923 1072.49 528.923Z" fill="#6100DC"/></g></svg>