<?xml version="1.0" encoding="UTF-8"?>
<svg id="Layer_1" data-name="Layer 1" xmlns="http://www.w3.org/2000/svg" viewBox="0 0 60 60">
  <defs>
    <style>
      .cls-1 {
        fill: #37464c;
        stroke-width: 0px;
      }
    </style>
  </defs>
  <g>
    <path class="cls-1" d="m31.81,20.85c-.55,0-1-.45-1-1v-6.51c0-.55.45-1,1-1s1,.45,1,1v6.51c0,.55-.45,1-1,1Z"/>
    <path class="cls-1" d="m41.57,14.34h-19.52c-.55,0-1-.45-1-1v-6.51c0-.55.45-1,1-1h2.06c.55,0,1,.45,1,1s-.45,1-1,1h-1.06v4.51h17.52v-4.51h-1.21c-.55,0-1-.45-1-1s.45-1,1-1h2.21c.55,0,1,.45,1,1v6.51c0,.55-.45,1-1,1Z"/>
    <path class="cls-1" d="m46.91,31.02h-2v-10.18h-23.98v-2h24.98c.55,0,1,.45,1,1v11.18Z"/>
    <path class="cls-1" d="m17.72,31.04c-.55,0-1-.45-1-1v-10.19c0-.55.45-1,1-1h3.22c.55,0,1,.45,1,1s-.45,1-1,1h-2.22v9.19c0,.55-.45,1-1,1Z"/>
    <path class="cls-1" d="m23.33,47.36c-.55,0-1-.45-1-1v-8.18c0-.55.45-1,1-1s1,.45,1,1v8.18c0,.55-.45,1-1,1Z"/>
    <path class="cls-1" d="m26.01,38.2H8.66c-.55,0-1-.45-1-1v-6.51c0-.55.45-1,1-1h17.35c.55,0,1,.45,1,1v6.51c0,.55-.45,1-1,1Zm-16.35-2h15.35v-4.51h-15.35v4.51Z"/>
    <path class="cls-1" d="m26.01,56.89h-8.67c-.55,0-1-.45-1-1v-8.18c0-.55.45-1,1-1h10.84c.55,0,1,.45,1,1s-.45,1-1,1h-9.84v6.18h7.67c.55,0,1,.45,1,1s-.45,1-1,1Z"/>
    <path class="cls-1" d="m54.59,38.2h-17.35c-.55,0-1-.45-1-1v-6.51c0-.55.45-1,1-1h17.35c.55,0,1,.45,1,1v6.51c0,.55-.45,1-1,1Zm-16.35-2h15.35v-4.51h-15.35v4.51Z"/>
  </g>
  <polygon class="cls-1" points="33.66 53.03 35.69 51 34.24 49.55 32.21 51.58 30.18 49.55 28.73 51 30.76 53.03 28.73 55.05 30.18 56.5 32.21 54.47 34.24 56.5 35.69 55.05 33.66 53.03"/>
  <polygon class="cls-1" points="31 6.78 29.17 4.95 27.96 6.17 31 9.21 36.47 3.74 35.25 2.52 31 6.78"/>
</svg>