<?xml version="1.0" encoding="UTF-8"?>
<svg id="Layer_1" data-name="Layer 1" xmlns="http://www.w3.org/2000/svg" viewBox="0 0 60 60">
  <defs>
    <style>
      .cls-1 {
        fill: #37464c;
        stroke-width: 0px;
      }
    </style>
  </defs>
  <g>
    <path class="cls-1" d="m34.39,19.95c-.55,0-1-.45-1-1v-6.58c0-.55.45-1,1-1s1,.45,1,1v6.58c0,.55-.45,1-1,1Z"/>
    <path class="cls-1" d="m44.27,13.37h-19.75c-.55,0-1-.45-1-1v-6.58c0-.55.45-1,1-1h19.75c.55,0,1,.45,1,1v6.58c0,.55-.45,1-1,1Zm-18.75-2h17.75v-4.58h-17.75v4.58Z"/>
    <path class="cls-1" d="m49.66,30.26h-2v-10.31h-24.28v-2h25.28c.55,0,1,.45,1,1v11.31Z"/>
    <path class="cls-1" d="m20.13,22.3c-.55,0-1-.45-1-1v-2.35c0-.55.45-1,1-1h3.25c.55,0,1,.45,1,1s-.45,1-1,1h-2.25v1.35c0,.55-.45,1-1,1Z"/>
    <path class="cls-1" d="m20.13,44.09c-.55,0-1-.45-1-1v-6.58c0-.55.45-1,1-1s1,.45,1,1v6.58c0,.55-.45,1-1,1Z"/>
    <path class="cls-1" d="m48.66,44.09c-.55,0-1-.45-1-1v-6.58c0-.55.45-1,1-1s1,.45,1,1v6.58c0,.55-.45,1-1,1Z"/>
    <path class="cls-1" d="m11.35,50.68c-.55,0-1-.45-1-1v-6.58c0-.55.45-1,1-1h10.97c.55,0,1,.45,1,1s-.45,1-1,1h-9.97v5.58c0,.55-.45,1-1,1Z"/>
    <path class="cls-1" d="m28.9,37.51H11.35c-.55,0-1-.45-1-1v-6.58c0-.55.45-1,1-1h2.05c.55,0,1,.45,1,1s-.45,1-1,1h-1.05v4.58h15.56v-4.58h-1.42c-.55,0-1-.45-1-1s.45-1,1-1h2.42c.55,0,1,.45,1,1v6.58c0,.55-.45,1-1,1Z"/>
    <path class="cls-1" d="m20.13,57.26H2.57c-.55,0-1-.45-1-1v-6.58c0-.55.45-1,1-1h17.56c.55,0,1,.45,1,1v6.58c0,.55-.45,1-1,1Zm-16.56-2h15.56v-4.58H3.57v4.58Z"/>
    <path class="cls-1" d="m57.44,50.68h-8.78c-.55,0-1-.45-1-1s.45-1,1-1h7.78v-4.58h-9.97c-.55,0-1-.45-1-1s.45-1,1-1h10.97c.55,0,1,.45,1,1v6.58c0,.55-.45,1-1,1Z"/>
    <path class="cls-1" d="m57.44,37.51h-17.56c-.55,0-1-.45-1-1v-6.58c0-.55.45-1,1-1h17.56c.55,0,1,.45,1,1v6.58c0,.55-.45,1-1,1Zm-16.56-2h15.56v-4.58h-15.56v4.58Z"/>
  </g>
  <polygon class="cls-1" points="21.58 28.76 23.61 26.73 22.16 25.28 20.13 27.31 18.1 25.28 16.65 26.73 18.68 28.76 16.65 30.79 18.1 32.24 20.13 30.21 22.16 32.24 23.61 30.79 21.58 28.76"/>
  <polygon class="cls-1" points="42.26 49.68 40.43 47.86 39.22 49.07 42.26 52.11 47.73 46.64 46.51 45.43 42.26 49.68"/>
</svg>