<?xml version="1.0" encoding="UTF-8"?>
<svg id="Layer_1" data-name="Layer 1" xmlns="http://www.w3.org/2000/svg" viewBox="0 0 60 60">
  <defs>
    <style>
      .cls-1 {
        fill: #37464c;
        stroke-width: 0px;
      }
    </style>
  </defs>
  <path class="cls-1" d="m33.52,21.69c-.55,0-1-.45-1-1v-6c0-.55.45-1,1-1s1,.45,1,1v6c0,.55-.45,1-1,1Z"/>
  <path class="cls-1" d="m33.52,55.69c-5.51,0-10-4.49-10-10s4.49-10,10-10,10,4.49,10,10-4.49,10-10,10Zm0-18c-4.41,0-8,3.59-8,8s3.59,8,8,8,8-3.59,8-8-3.59-8-8-8Z"/>
  <path class="cls-1" d="m46.52,59.69c-.26,0-.51-.1-.71-.29l-6.63-6.63c-.39-.39-.39-1.02,0-1.41s1.02-.39,1.41,0l6.63,6.63c.39.39.39,1.02,0,1.41-.2.2-.45.29-.71.29Z"/>
  <path class="cls-1" d="m42.52,15.69h-18c-.55,0-1-.45-1-1v-6c0-.55.45-1,1-1h18c.55,0,1,.45,1,1v6c0,.55-.45,1-1,1Zm-17-2h16v-4h-16v4Z"/>
  <path class="cls-1" d="m47.52,26.69h-2v-5h-24v5h-2v-6c0-.55.45-1,1-1h26c.55,0,1,.45,1,1v6Z"/>
  <path class="cls-1" d="m20.52,39.69c-.55,0-1-.45-1-1v-6c0-.55.45-1,1-1s1,.45,1,1v6c0,.55-.45,1-1,1Z"/>
  <path class="cls-1" d="m46.52,39.69c-.55,0-1-.45-1-1v-6c0-.55.45-1,1-1s1,.45,1,1v6c0,.55-.45,1-1,1Z"/>
  <path class="cls-1" d="m12.52,45.69c-.55,0-1-.45-1-1v-6c0-.55.45-1,1-1h10c.55,0,1,.45,1,1s-.45,1-1,1h-9v5c0,.55-.45,1-1,1Z"/>
  <path class="cls-1" d="m28.52,33.69H12.52c-.55,0-1-.45-1-1v-6c0-.55.45-1,1-1h16c.55,0,1,.45,1,1v6c0,.55-.45,1-1,1Zm-15-2h14v-4h-14v4Z"/>
  <path class="cls-1" d="m20.52,51.69H4.52c-.55,0-1-.45-1-1v-6c0-.55.45-1,1-1h16c.55,0,1,.45,1,1v6c0,.55-.45,1-1,1Zm-15-2h14v-4H5.52v4Z"/>
  <path class="cls-1" d="m54.52,45.69h-8c-.55,0-1-.45-1-1s.45-1,1-1h7v-4h-9c-.55,0-1-.45-1-1s.45-1,1-1h10c.55,0,1,.45,1,1v6c0,.55-.45,1-1,1Z"/>
  <path class="cls-1" d="m54.52,33.69h-16c-.55,0-1-.45-1-1v-6c0-.55.45-1,1-1h16c.55,0,1,.45,1,1v6c0,.55-.45,1-1,1Zm-15-2h14v-4h-14v4Z"/>
</svg>