<?xml version="1.0" encoding="UTF-8"?>
<svg id="Layer_1" data-name="Layer 1" xmlns="http://www.w3.org/2000/svg" viewBox="0 0 60 60">
  <defs>
    <style>
      .cls-1 {
        fill: #37464c;
        stroke-width: 0px;
      }
    </style>
  </defs>
  <g>
    <path class="cls-1" d="m40.85,48.96h-21.63c-.55,0-1-.45-1-1s.45-1,1-1h21.22l15.64-15.09c-2.06-1.72-4.05-1.68-6.35.09-3.32,2.56-8.66,6.76-8.66,6.76l-1.24-1.57s5.35-4.21,8.68-6.77c3.4-2.61,6.67-2.35,9.74.79.19.19.29.45.28.71,0,.27-.11.52-.31.7l-16.68,16.1c-.19.18-.44.28-.69.28Z"/>
    <path class="cls-1" d="m40.54,41.55h-13.05c-.55,0-1-.45-1-1s.45-1,1-1h12c-.35-3.06-2.33-3.42-3.23-3.42h-6.2c-.2,0-.4-.06-.57-.18-2.74-1.88-4.35-2.22-7.51-2.22-3.78,0-6.75,1.93-10.61,6.89-.34.44-.97.52-1.4.17-.44-.34-.51-.97-.17-1.4,4.24-5.44,7.77-7.66,12.19-7.66,3.3,0,5.33.35,8.39,2.4h5.89c2.44,0,5.28,1.68,5.28,6.42,0,.55-.45,1-1,1Z"/>
    <path class="cls-1" d="m16.86,57.8c-.25,0-.5-.09-.7-.28-.4-.39-.4-1.02-.02-1.41l4.21-4.32-12.49-12.8-4.18,4.28c-.39.4-1.02.4-1.41.02-.4-.39-.4-1.02-.02-1.41l4.89-5.01c.38-.39,1.05-.39,1.43,0l13.89,14.23c.38.39.38,1.01,0,1.4l-4.89,5.01c-.2.2-.46.3-.72.3Z"/>
    <path class="cls-1" d="m14.32,53.16h0c-.48,0-.92-.19-1.26-.53-.69-.7-.69-1.85,0-2.55h0c.34-.34.78-.54,1.26-.54h0c.48,0,.92.19,1.26.53.68.7.68,1.85,0,2.55-.34.34-.79.53-1.26.53Zm0-2.62h0c-.21,0-.4.08-.54.23h0c-.31.32-.31.84,0,1.15.15.15.34.23.54.23h0c.21,0,.4-.08.55-.23.31-.32.31-.83,0-1.15-.15-.15-.34-.23-.54-.23Z"/>
  </g>
  <g>
    <path class="cls-1" d="m34.26,31.69h-2.13c-1.93,0-3.5-1.57-3.5-3.5v-2.84c0-.55.45-1,1-1h7.13c.55,0,1,.45,1,1v2.84c0,1.93-1.57,3.5-3.5,3.5Zm-3.63-5.34v1.84c0,.83.67,1.5,1.5,1.5h2.13c.83,0,1.5-.67,1.5-1.5v-1.84h-5.13Z"/>
    <path class="cls-1" d="m23.94,13.88c-.17,0-.34-.04-.5-.13l-3.09-1.78c-.48-.28-.64-.89-.37-1.37.28-.48.89-.64,1.37-.37l3.09,1.78c.48.28.64.89.37,1.37-.19.32-.52.5-.87.5Z"/>
    <path class="cls-1" d="m45.54,26.35c-.17,0-.34-.04-.5-.13l-3.09-1.78c-.48-.28-.64-.89-.37-1.37.28-.48.89-.64,1.37-.37l3.09,1.78c.48.28.64.89.37,1.37-.19.32-.52.5-.87.5Z"/>
    <path class="cls-1" d="m27.86,9.97c-.35,0-.68-.18-.87-.5l-1.78-3.09c-.28-.48-.11-1.09.37-1.37.48-.28,1.09-.11,1.37.37l1.78,3.09c.28.48.11,1.09-.37,1.37-.16.09-.33.13-.5.13Z"/>
    <path class="cls-1" d="m33.2,8.53c-.55,0-1-.45-1-1v-3.56c0-.55.45-1,1-1s1,.45,1,1v3.56c0,.55-.45,1-1,1Z"/>
    <path class="cls-1" d="m38.54,9.97c-.17,0-.34-.04-.5-.13-.48-.28-.64-.89-.37-1.37l1.78-3.09c.28-.48.89-.64,1.37-.37.48.28.64.89.37,1.37l-1.78,3.09c-.19.32-.52.5-.87.5Z"/>
    <path class="cls-1" d="m42.46,13.88c-.35,0-.68-.18-.87-.5-.28-.48-.11-1.09.37-1.37l3.09-1.78c.48-.28,1.09-.11,1.37.37.28.48.11,1.09-.37,1.37l-3.09,1.78c-.16.09-.33.13-.5.13Z"/>
    <path class="cls-1" d="m20.86,26.35c-.35,0-.68-.18-.87-.5-.28-.48-.11-1.09.37-1.37l3.09-1.78c.48-.28,1.09-.11,1.37.37.28.48.11,1.09-.37,1.37l-3.09,1.78c-.16.09-.33.13-.5.13Z"/>
    <path class="cls-1" d="m47.45,19.22h-3.56c-.55,0-1-.45-1-1s.45-1,1-1h3.56c.55,0,1,.45,1,1s-.45,1-1,1Z"/>
    <path class="cls-1" d="m22.51,19.22h-3.56c-.55,0-1-.45-1-1s.45-1,1-1h3.56c.55,0,1,.45,1,1s-.45,1-1,1Z"/>
    <path class="cls-1" d="m36.76,26.35h-7.13c-.32,0-.62-.15-.81-.41-.26-.35-.54-.7-.83-1.05-1.3-1.59-2.92-3.56-2.92-6.67,0-4.48,3.65-8.13,8.13-8.13s8.13,3.65,8.13,8.13c0,3.11-1.62,5.08-2.92,6.67-.29.36-.58.7-.84,1.05-.19.26-.49.41-.81.41Zm-6.63-2h6.14c.19-.24.39-.48.59-.73,1.21-1.48,2.47-3.01,2.47-5.4,0-3.38-2.75-6.13-6.13-6.13s-6.13,2.75-6.13,6.13c0,2.39,1.25,3.92,2.47,5.4.2.25.4.49.59.73Z"/>
    <path class="cls-1" d="m33.2,33.03c-1.29,0-2.34-1.05-2.34-2.34,0-.55.45-1,1-1s1,.45,1,1c0,.19.15.34.34.34s.34-.15.34-.34c0-.55.45-1,1-1s1,.45,1,1c0,1.29-1.05,2.34-2.34,2.34Z"/>
  </g>
</svg>