<?xml version="1.0" encoding="UTF-8"?>
<svg id="Layer_1" data-name="Layer 1" xmlns="http://www.w3.org/2000/svg" viewBox="0 0 60 60">
  <defs>
    <style>
      .cls-1 {
        fill: #37464c;
        stroke-width: 0px;
      }
    </style>
  </defs>
  <g>
    <path class="cls-1" d="m41.56,48.09h-23.09c-.33,0-.59-.27-.59-.59v-24.55l-4.11,4.1c-.88.88-2.31.88-3.19,0l-5.32-5.31c-.43-.43-.66-.99-.66-1.59s.23-1.17.66-1.59l4.92-4.92c3.24-3.23,7.54-5.02,12.12-5.02h.03c.33,0,.59.27.59.59s-.27.59-.59.59h-.03c-4.26,0-8.27,1.66-11.28,4.67l-4.92,4.92c-.2.2-.31.47-.31.76s.11.55.31.76l5.32,5.31c.42.42,1.1.42,1.51,0l5.12-5.11c.17-.17.42-.22.65-.13.22.09.37.31.37.55v25.39h21.9v-25.39c0-.24.14-.46.37-.55.22-.09.48-.04.65.13l5.12,5.11c.42.42,1.1.42,1.51,0l5.32-5.31c.2-.2.31-.47.31-.76s-.11-.55-.31-.76l-4.92-4.92c-3.01-3.01-7.02-4.67-11.28-4.67h-.06c-.33,0-.59-.27-.59-.59s.27-.59.59-.59h.06c4.58,0,8.88,1.78,12.12,5.02l4.92,4.92c.43.43.66.99.66,1.59s-.23,1.17-.66,1.59l-5.32,5.31c-.88.88-2.31.88-3.19,0l-4.11-4.1v24.55c0,.33-.27.59-.59.59Z"/>
    <path class="cls-1" d="m41.56,48.46h-23.09c-.53,0-.97-.43-.97-.97v-23.65l-3.47,3.46c-.99.99-2.73.99-3.72,0l-5.32-5.31c-.5-.5-.77-1.16-.77-1.86s.27-1.36.77-1.86l4.92-4.92c3.31-3.3,7.71-5.12,12.38-5.12.56,0,1,.43,1,.97s-.43.97-.97.97c-4.19,0-8.1,1.62-11.04,4.56l-4.92,4.92c-.13.13-.2.3-.2.49s.07.36.2.49l5.32,5.31c.13.13.3.2.49.2h0c.19,0,.36-.07.49-.2l5.12-5.11c.27-.28.69-.36,1.05-.21.36.15.6.5.6.89v25.02h21.15v-25.02c0-.39.23-.74.6-.89.36-.15.78-.07,1.05.21l5.12,5.11c.13.13.3.2.49.2h0c.19,0,.36-.07.49-.2l5.32-5.31c.13-.13.2-.3.2-.49s-.07-.36-.2-.49l-4.92-4.92c-2.94-2.94-6.85-4.56-11.01-4.56-.59,0-1.02-.43-1.02-.97s.43-.97.97-.97c4.73,0,9.13,1.82,12.44,5.12l4.92,4.92c.5.5.77,1.16.77,1.86s-.27,1.36-.77,1.86l-5.32,5.31c-.99.99-2.73.99-3.72,0l-3.46-3.46v23.65c0,.53-.43.97-.97.97Zm-23.31-26.43v25.46c0,.12.1.22.22.22h23.09c.12,0,.22-.1.22-.22v-25.46l4.75,4.74c.71.71,1.95.71,2.66,0l5.32-5.31c.35-.35.55-.83.55-1.33s-.2-.97-.55-1.33l-4.92-4.92c-3.17-3.16-7.38-4.91-11.85-4.91-.17,0-.27.1-.27.22s.1.22.22.22c4.42,0,8.52,1.7,11.6,4.78l4.92,4.92c.27.27.42.63.42,1.02s-.15.75-.42,1.02l-5.32,5.31c-.27.27-.63.42-1.02.42h0c-.39,0-.75-.15-1.02-.42l-5.12-5.11c-.06-.06-.16-.08-.24-.05s-.13.11-.13.2v25.77h-22.65v-25.77c0-.09-.05-.17-.13-.2-.08-.03-.18-.01-.24.05l-5.12,5.11c-.27.27-.63.42-1.02.42h0c-.39,0-.75-.15-1.02-.42l-5.32-5.31c-.27-.27-.42-.64-.42-1.02s.15-.75.42-1.02l4.92-4.92c3.08-3.08,7.18-4.78,11.54-4.78.15,0,.25-.1.25-.22s-.1-.22-.22-.22c-4.51,0-8.71,1.74-11.88,4.91l-4.92,4.92c-.35.35-.55.83-.55,1.33s.2.97.55,1.33l5.32,5.31c.71.71,1.95.71,2.66,0l4.75-4.74Z"/>
  </g>
  <path class="cls-1" d="m6.73,21.89c-.15,0-.3-.06-.42-.17-.23-.23-.23-.61,0-.84l4.92-4.92c2.85-2.84,6.62-4.6,10.63-4.95.32-.03.61.21.64.54.03.33-.21.61-.54.64-3.73.32-7.25,1.96-9.9,4.61l-4.92,4.92c-.12.12-.27.17-.42.17Z"/>
  <g>
    <path class="cls-1" d="m53.05,21.89c-.15,0-.3-.06-.42-.17l-4.92-4.92c-2.65-2.65-6.16-4.28-9.9-4.61-.33-.03-.57-.32-.54-.64.03-.33.31-.57.64-.54,4.01.35,7.79,2.11,10.63,4.95l4.92,4.92c.23.23.23.61,0,.84-.12.12-.27.17-.42.17Z"/>
    <path class="cls-1" d="m53.05,22.01c-.19,0-.37-.07-.51-.21l-4.92-4.92c-2.63-2.63-6.12-4.25-9.82-4.57-.39-.04-.69-.38-.65-.78.04-.39.38-.67.78-.65,4.04.35,7.84,2.12,10.71,4.99l4.92,4.92c.28.28.28.74,0,1.02-.13.13-.32.21-.51.21Zm-15.18-10.88c-.24,0-.45.18-.47.43-.01.12.03.25.11.34.08.09.19.15.32.16,3.76.33,7.3,1.98,9.97,4.65l4.92,4.92c.18.18.49.18.66,0,.18-.18.18-.48,0-.66l-4.92-4.92c-2.83-2.82-6.57-4.57-10.56-4.92-.01,0-.03,0-.04,0Z"/>
  </g>
  <g>
    <path class="cls-1" d="m30.02,17.3c-4.47,0-8.1-3.63-8.1-8.1,0-.33.27-.59.59-.59s.59.27.59.59c0,3.81,3.1,6.91,6.92,6.91s6.92-3.1,6.92-6.91c0-.33.27-.59.59-.59s.59.27.59.59c0,4.47-3.63,8.1-8.1,8.1Z"/>
    <path class="cls-1" d="m30.02,17.67c-4.67,0-8.48-3.8-8.48-8.47,0-.53.43-.97.97-.97s.97.43.97.97c0,3.61,2.94,6.54,6.54,6.54s6.54-2.93,6.54-6.54c0-.53.43-.97.97-.97s.97.43.97.97c0,4.67-3.8,8.47-8.48,8.47Zm-7.51-8.69c-.12,0-.22.1-.22.22,0,4.26,3.47,7.72,7.73,7.72s7.73-3.46,7.73-7.72c0-.24-.44-.24-.44,0,0,4.02-3.27,7.29-7.29,7.29s-7.29-3.27-7.29-7.29c0-.12-.1-.22-.22-.22Z"/>
  </g>
  <g>
    <path class="cls-1" d="m29.82,11.79c-4.36,0-7.22-.81-7.39-.87-.31-.09-.49-.42-.4-.73.09-.31.42-.49.73-.4.06.02,6.39,1.81,14.55,0,.32-.07.64.13.71.45.07.32-.13.64-.45.71-2.87.64-5.51.86-7.75.86Z"/>
    <path class="cls-1" d="m29.82,12.17c-4.43,0-7.38-.85-7.5-.88-.25-.07-.45-.24-.58-.46-.12-.23-.15-.49-.08-.74.07-.25.24-.45.46-.58.23-.12.49-.15.74-.08.25.07,6.41,1.76,14.36-.02.25-.05.51-.01.73.13.22.14.37.35.43.61.06.25.01.51-.13.73-.14.22-.35.37-.61.43-2.57.57-5.2.87-7.83.87Zm-7.23-2.03s-.07,0-.1.03c-.05.03-.09.07-.1.13-.02.06-.01.11.02.17.03.05.07.09.13.1.12.04,2.96.85,7.29.85,2.57,0,5.15-.29,7.66-.85.06-.01.11-.05.14-.1s.04-.11.03-.16c-.01-.06-.05-.11-.1-.14-.05-.03-.11-.04-.16-.03-8.13,1.82-14.47.08-14.73,0-.02,0-.04,0-.07,0Z"/>
  </g>
  <g>
    <path class="cls-1" d="m9.36,28.86h0c-.16,0-.31-.06-.42-.18l-5.29-5.33c-.23-.23-.23-.61,0-.84l1.62-1.62c.23-.23.61-.23.84,0l5.32,5.31c.11.11.17.26.17.42s-.06.31-.17.42l-1.64,1.64c-.11.11-.26.17-.42.17Zm-4.46-5.92l4.46,4.49.8-.8-4.48-4.47-.79.79Z"/>
    <path class="cls-1" d="m9.36,28.98h0c-.19,0-.37-.08-.51-.21l-5.29-5.33c-.28-.28-.28-.73,0-1.01l1.62-1.62c.28-.28.73-.28,1.02,0l5.32,5.31c.14.14.21.32.21.51s-.08.38-.21.51l-1.64,1.64c-.13.13-.32.21-.51.21Zm-3.67-8.14c-.12,0-.24.05-.33.14l-1.62,1.62c-.18.18-.18.48,0,.66l5.29,5.33c.09.09.21.14.33.14h0c.12,0,.24-.05.33-.14l1.65-1.64c.09-.09.14-.21.14-.33s-.05-.24-.14-.33l-5.32-5.31c-.09-.09-.21-.14-.33-.14Zm3.67,6.76l-.09-.09-4.55-4.58.96-.96,4.65,4.65-.98.98Zm-4.28-4.67l4.28,4.32.63-.63-4.3-4.3-.61.61Z"/>
  </g>
  <g>
    <path class="cls-1" d="m50.72,28.86c-.16,0-.31-.06-.42-.17l-1.64-1.64c-.11-.11-.17-.26-.17-.42s.06-.31.17-.42l5.32-5.31c.23-.23.61-.23.84,0l1.62,1.62c.23.23.23.6,0,.84l-5.29,5.33c-.11.11-.26.17-.42.18h0Zm-.81-2.24l.8.8,4.46-4.49-.79-.79-4.48,4.47Z"/>
    <path class="cls-1" d="m50.73,28.98h0c-.19,0-.37-.07-.51-.21l-1.64-1.64c-.13-.13-.21-.32-.21-.51s.07-.37.21-.51l5.32-5.31c.28-.28.73-.28,1.01,0l1.62,1.62c.28.28.28.73,0,1.01l-5.29,5.33c-.13.13-.32.21-.51.21Zm3.67-8.14c-.12,0-.24.05-.33.14l-5.32,5.31c-.09.09-.14.21-.14.33s.05.24.14.33l1.64,1.64c.09.09.21.14.33.14h0c.12,0,.24-.05.33-.14l5.29-5.33c.18-.18.18-.48,0-.66l-1.62-1.62c-.09-.09-.21-.14-.33-.14Zm-3.67,6.76l-.98-.98,4.65-4.65.96.96-.09.09-4.55,4.58Zm-.63-.98l.63.63,4.28-4.32-.61-.61-4.3,4.3Z"/>
  </g>
  <g>
    <path class="cls-1" d="m41.45,50.78h-22.87c-.33,0-.59-.27-.59-.59v-2.69c0-.33.27-.59.59-.59h22.87c.33,0,.59.27.59.59v2.69c0,.33-.27.59-.59.59Zm-22.28-1.19h21.68v-1.51h-21.68v1.51Z"/>
    <path class="cls-1" d="m41.45,51.15h-22.87c-.53,0-.97-.43-.97-.97v-2.69c0-.53.43-.97.97-.97h22.87c.53,0,.97.43.97.97v2.69c0,.53-.43.97-.97.97Zm-22.87-3.88c-.12,0-.22.1-.22.22v2.69c0,.12.1.22.22.22h22.87c.12,0,.22-.1.22-.22v-2.69c0-.12-.1-.22-.22-.22h-22.87Zm22.65,2.69h-22.43v-2.25h22.43v2.25Zm-21.68-.75h20.93v-.75h-20.93v.75Z"/>
  </g>
  <g>
    <path class="cls-1" d="m29.47,23.5h-.05l-2.72,1.47-.41-1.61,3.41-1.83h1.8v15.62h-2.04v-13.65Z"/>
    <path class="cls-1" d="m31.89,37.53h-2.79v-13.42l-2.63,1.42-.6-2.36,3.85-2.01h2.18v16.37Zm-2.04-.75h1.29v-14.87h-1.33l-3.07,1.64.22.86,2.47-1.28h.38l.05.38v13.27Z"/>
  </g>
</svg>