<?xml version="1.0" encoding="UTF-8"?>
<svg id="Layer_1" data-name="Layer 1" xmlns="http://www.w3.org/2000/svg" viewBox="0 0 60 60">
  <defs>
    <style>
      .cls-1 {
        fill: #37464c;
        stroke-width: 0px;
      }
    </style>
  </defs>
  <g>
    <path class="cls-1" d="m14.57,42.5c-.32,0-.59-.23-.6-.53-.05-.85-1.14-20.85,0-27.63,1.06-6.25,5.77-9.43,14.01-9.43,1.78,0,3.32.15,4.61.45.72-.2,1.49-.35,2.28-.45,1.69-.2,3.25.19,4.62,1.19,3.14,2.27,4.51,7.04,4.83,9.5.83,6.49.04,25.54,0,26.35-.01.31-.3.55-.63.54-.33-.01-.59-.27-.58-.58,0-.2.82-19.77,0-26.17-.27-2.13-1.54-6.7-4.37-8.75-1.11-.8-2.36-1.13-3.72-.96-.12.01-.25.03-.37.05.92.45,1.62,1.03,2.1,1.73,1.42,2.08.43,4.54-.06,5.5-.56,1.11-2.25,3.26-4.59,3.52-1.55.17-3.01-.52-4.34-2.05-1.82-2.09-1.6-3.93-1.09-5.11.61-1.42,1.97-2.65,3.79-3.52-.76-.08-1.59-.12-2.49-.12-7.56,0-11.87,2.85-12.82,8.48-1.12,6.66,0,27.19,0,27.4.02.31-.24.57-.57.59-.01,0-.02,0-.03,0ZM32.62,6.55c-2.34.73-4.16,2.03-4.82,3.55-.55,1.29-.24,2.66.91,3.98,1.06,1.21,2.15,1.77,3.26,1.64,1.67-.19,3.12-1.87,3.64-2.89.4-.79,1.22-2.81.13-4.42-.58-.84-1.63-1.47-3.12-1.87Z"/>
    <path class="cls-1" d="m14.57,42.88c-.52,0-.95-.39-.98-.89-.05-.85-1.14-20.89.01-27.71,1.09-6.46,5.93-9.74,14.38-9.74,1.76,0,3.31.15,4.6.44.72-.2,1.47-.34,2.24-.44,1.79-.22,3.43.21,4.89,1.26,3.25,2.35,4.66,7.24,4.98,9.76.84,6.52.04,25.6,0,26.41-.01.24-.12.47-.3.64-.19.18-.46.25-.72.26-.26,0-.51-.12-.69-.31-.17-.18-.26-.42-.25-.66,0-.2.83-19.7,0-26.11-.27-2.07-1.49-6.52-4.22-8.49-.81-.59-1.71-.9-2.67-.93.49.36.89.77,1.21,1.24,1.53,2.25.48,4.86-.04,5.88-.59,1.17-2.38,3.45-4.88,3.73-1.67.18-3.25-.55-4.67-2.18-1.94-2.24-1.7-4.22-1.15-5.5.5-1.16,1.49-2.23,2.85-3.09-.39-.02-.79-.03-1.2-.03-7.35,0-11.54,2.75-12.45,8.17-1.12,6.65,0,27.11.01,27.31.01.24-.07.48-.24.66-.17.19-.43.31-.69.32h-.05ZM27.98,5.29c-8.03,0-12.62,3.07-13.64,9.11-1.14,6.73-.05,26.7,0,27.54,0,.1.11.18.23.18.08,0,.15-.03.19-.08.02-.02.05-.06.04-.12-.01-.21-1.14-20.75,0-27.48.98-5.83,5.42-8.79,13.19-8.79.9,0,1.75.04,2.53.12l1.32.14-1.19.57c-1.77.84-3.05,2.03-3.61,3.33-.46,1.08-.66,2.77,1.03,4.71,1.25,1.44,2.6,2.09,4.02,1.93,2.18-.24,3.76-2.28,4.29-3.32.46-.9,1.39-3.2.08-5.12-.44-.65-1.1-1.19-1.95-1.61l-1.08-.53,1.18-.18c.13-.02.25-.04.38-.05,1.46-.18,2.8.17,3.99,1.03,2.94,2.13,4.24,6.82,4.52,9,.83,6.47,0,26.04,0,26.24,0,.05.02.09.05.12.04.04.1.07.17.07.07,0,.13-.02.18-.06.03-.02.06-.06.06-.12.03-.81.83-19.83,0-26.29-.31-2.4-1.64-7.05-4.68-9.25-1.29-.94-2.75-1.31-4.36-1.12-.76.09-1.51.24-2.22.44l-.09.03-.09-.02c-1.26-.3-2.78-.45-4.53-.45Zm3.68,10.82c-1.12,0-2.2-.6-3.24-1.79-1.25-1.44-1.58-2.95-.97-4.38.69-1.61,2.53-2.98,5.05-3.76l.1-.03.1.03c1.58.42,2.7,1.1,3.33,2.02,1.21,1.77.33,3.95-.11,4.8-.58,1.13-2.1,2.89-3.93,3.09-.12.01-.23.02-.34.02Zm.96-9.18c-2.22.71-3.89,1.94-4.48,3.31-.49,1.14-.2,2.39.85,3.59.97,1.11,1.95,1.63,2.93,1.52,1.44-.16,2.82-1.67,3.34-2.69.37-.73,1.14-2.59.15-4.03-.51-.75-1.45-1.32-2.8-1.69Z"/>
  </g>
  <g>
    <path class="cls-1" d="m17.4,55.22h-5.42c-.33,0-.6-.25-.6-.56v-12.71c0-.31.27-.56.6-.56h5.42c.33,0,.6.25.6.56v12.71c0,.31-.27.56-.6.56Zm-4.81-1.12h4.21v-11.59h-4.21v11.59Z"/>
    <path class="cls-1" d="m17.4,55.59h-5.42c-.54,0-.98-.42-.98-.94v-12.71c0-.52.44-.94.98-.94h5.42c.54,0,.98.42.98.94v12.71c0,.52-.44.94-.98.94Zm-5.42-13.83c-.13,0-.23.08-.23.19v12.71c0,.1.1.19.23.19h5.42c.13,0,.23-.08.23-.19v-12.71c0-.1-.1-.19-.23-.19h-5.42Zm5.19,12.71h-4.96v-12.34h4.96v12.34Zm-4.21-.75h3.46v-10.84h-3.46v10.84Z"/>
  </g>
  <g>
    <path class="cls-1" d="m46.37,55.22h-5.42c-.33,0-.6-.25-.6-.56v-12.71c0-.31.27-.56.6-.56h5.42c.33,0,.6.25.6.56v12.71c0,.31-.27.56-.6.56Zm-4.81-1.12h4.21v-11.59h-4.21v11.59Z"/>
    <path class="cls-1" d="m46.37,55.59h-5.42c-.54,0-.98-.42-.98-.94v-12.71c0-.52.44-.94.98-.94h5.42c.54,0,.98.42.98.94v12.71c0,.52-.44.94-.98.94Zm-5.42-13.83c-.13,0-.23.08-.23.19v12.71c0,.1.1.19.23.19h5.42c.12,0,.23-.08.23-.19v-12.71c0-.1-.1-.19-.23-.19h-5.42Zm5.19,12.71h-4.96v-12.34h4.96v12.34Zm-4.21-.75h3.46v-10.84h-3.46v10.84Z"/>
  </g>
  <g>
    <path class="cls-1" d="m17.4,51.38h-5.42c-.33,0-.6-.25-.6-.56v-5.04c0-.31.27-.56.6-.56h5.42c.33,0,.6.25.6.56v5.04c0,.31-.27.56-.6.56Zm-4.81-1.12h4.21v-3.91h-4.21v3.91Z"/>
    <path class="cls-1" d="m17.4,51.75h-5.42c-.54,0-.98-.42-.98-.94v-5.04c0-.52.44-.94.98-.94h5.42c.54,0,.98.42.98.94v5.04c0,.52-.44.94-.98.94Zm-5.42-6.16c-.13,0-.23.08-.23.19v5.04c0,.1.11.19.23.19h5.42c.12,0,.23-.08.23-.19v-5.04c0-.1-.1-.19-.23-.19h-5.42Zm5.19,5.04h-4.96v-4.66h4.96v4.66Zm-4.21-.75h3.46v-3.16h-3.46v3.16Z"/>
  </g>
  <g>
    <path class="cls-1" d="m46.37,51.38h-5.42c-.33,0-.6-.25-.6-.56v-5.04c0-.31.27-.56.6-.56h5.42c.33,0,.6.25.6.56v5.04c0,.31-.27.56-.6.56Zm-4.81-1.12h4.21v-3.91h-4.21v3.91Z"/>
    <path class="cls-1" d="m46.37,51.75h-5.42c-.54,0-.98-.42-.98-.94v-5.04c0-.52.44-.94.98-.94h5.42c.54,0,.98.42.98.94v5.04c0,.52-.44.94-.98.94Zm-5.42-6.16c-.13,0-.23.08-.23.19v5.04c0,.1.1.19.23.19h5.42c.12,0,.23-.08.23-.19v-5.04c0-.1-.1-.19-.23-.19h-5.42Zm5.19,5.04h-4.96v-4.66h4.96v4.66Zm-4.21-.75h3.46v-3.16h-3.46v3.16Z"/>
  </g>
</svg>