<?xml version="1.0" encoding="UTF-8"?>
<svg id="Layer_1" data-name="Layer 1" xmlns="http://www.w3.org/2000/svg" viewBox="0 0 60 60">
  <defs>
    <style>
      .cls-1 {
        fill: #37464c;
        stroke-width: 0px;
      }
    </style>
  </defs>
  <g>
    <g>
      <path class="cls-1" d="m54.35,45.59H7.21c-1.46,0-2.65-1.19-2.65-2.65v-19.07c0-1.46,1.19-2.65,2.65-2.65h47.15c1.46,0,2.65,1.19,2.65,2.65v19.07c0,1.46-1.19,2.65-2.65,2.65ZM7.21,22.42c-.8,0-1.45.65-1.45,1.45v19.07c0,.8.65,1.45,1.45,1.45h47.15c.8,0,1.45-.65,1.45-1.45v-19.07c0-.8-.65-1.45-1.45-1.45H7.21Z"/>
      <path class="cls-1" d="m54.35,45.84H7.21c-1.6,0-2.9-1.3-2.9-2.9v-19.07c0-1.6,1.3-2.9,2.9-2.9h47.15c1.6,0,2.9,1.3,2.9,2.9v19.07c0,1.6-1.3,2.9-2.9,2.9ZM7.21,21.47c-1.32,0-2.4,1.08-2.4,2.4v19.07c0,1.32,1.08,2.4,2.4,2.4h47.15c1.32,0,2.4-1.08,2.4-2.4v-19.07c0-1.32-1.08-2.4-2.4-2.4H7.21Zm47.15,23.17H7.21c-.94,0-1.7-.76-1.7-1.7v-19.07c0-.94.76-1.7,1.7-1.7h47.15c.94,0,1.7.76,1.7,1.7v19.07c0,.94-.76,1.7-1.7,1.7ZM7.21,22.67c-.66,0-1.2.54-1.2,1.2v19.07c0,.66.54,1.2,1.2,1.2h47.15c.66,0,1.2-.54,1.2-1.2v-19.07c0-.66-.54-1.2-1.2-1.2H7.21Z"/>
    </g>
    <g>
      <path class="cls-1" d="m10.97,27.68h-2.06c-.51,0-.93-.42-.93-.93v-1.79c0-.51.42-.93.93-.93h2.06c.51,0,.93.42.93.93v1.79c0,.51-.42.93-.93.93Zm-1.8-1.2h1.54v-1.26h-1.54v1.26Z"/>
      <path class="cls-1" d="m10.97,27.92h-2.06c-.65,0-1.18-.53-1.18-1.18v-1.79c0-.65.53-1.18,1.18-1.18h2.06c.65,0,1.18.53,1.18,1.18v1.79c0,.65-.53,1.18-1.18,1.18Zm-2.06-3.66c-.38,0-.68.31-.68.68v1.79c0,.38.31.68.68.68h2.06c.38,0,.68-.31.68-.68v-1.79c0-.38-.31-.68-.68-.68h-2.06Zm2.05,2.46h-2.04v-1.76h2.04v1.76Zm-1.54-.5h1.04v-.76h-1.04v.76Z"/>
    </g>
    <g>
      <path class="cls-1" d="m15.99,27.68h-1.67c-.62,0-1.13-.51-1.13-1.13v-1.4c0-.62.51-1.13,1.13-1.13h1.67c.62,0,1.13.51,1.13,1.13v1.4c0,.62-.51,1.13-1.13,1.13Zm-1.61-1.2h1.54v-1.26h-1.54v1.26Z"/>
      <path class="cls-1" d="m15.99,27.92h-1.67c-.76,0-1.38-.62-1.38-1.38v-1.4c0-.76.62-1.38,1.38-1.38h1.67c.76,0,1.38.62,1.38,1.38v1.4c0,.76-.62,1.38-1.38,1.38Zm-1.67-3.66c-.48,0-.88.39-.88.88v1.4c0,.48.39.88.88.88h1.67c.48,0,.88-.39.88-.88v-1.4c0-.48-.39-.88-.88-.88h-1.67Zm1.86,2.46h-2.04v-1.76h2.04v1.76Zm-1.54-.5h1.04v-.76h-1.04v.76Z"/>
    </g>
    <g>
      <path class="cls-1" d="m21.2,27.68h-1.67c-.62,0-1.13-.51-1.13-1.13v-1.4c0-.62.51-1.13,1.13-1.13h1.67c.62,0,1.13.51,1.13,1.13v1.4c0,.62-.51,1.13-1.13,1.13Zm-1.61-1.2h1.54v-1.26h-1.54v1.26Z"/>
      <path class="cls-1" d="m21.2,27.92h-1.67c-.76,0-1.38-.62-1.38-1.38v-1.4c0-.76.62-1.38,1.38-1.38h1.67c.76,0,1.38.62,1.38,1.38v1.4c0,.76-.62,1.38-1.38,1.38Zm-1.67-3.66c-.48,0-.88.39-.88.88v1.4c0,.48.39.88.88.88h1.67c.48,0,.88-.39.88-.88v-1.4c0-.48-.39-.88-.88-.88h-1.67Zm1.85,2.46h-2.04v-1.76h2.04v1.76Zm-1.54-.5h1.04v-.76h-1.04v.76Z"/>
    </g>
    <g>
      <path class="cls-1" d="m26.41,27.68h-1.67c-.62,0-1.13-.51-1.13-1.13v-1.4c0-.62.51-1.13,1.13-1.13h1.67c.62,0,1.13.51,1.13,1.13v1.4c0,.62-.51,1.13-1.13,1.13Zm-1.61-1.2h1.54v-1.26h-1.54v1.26Z"/>
      <path class="cls-1" d="m26.41,27.92h-1.67c-.76,0-1.38-.62-1.38-1.38v-1.4c0-.76.62-1.38,1.38-1.38h1.67c.76,0,1.38.62,1.38,1.38v1.4c0,.76-.62,1.38-1.38,1.38Zm-1.67-3.66c-.48,0-.88.39-.88.88v1.4c0,.48.39.88.88.88h1.67c.48,0,.88-.39.88-.88v-1.4c0-.48-.39-.88-.88-.88h-1.67Zm1.86,2.46h-2.04v-1.76h2.04v1.76Zm-1.54-.5h1.04v-.76h-1.04v.76Z"/>
    </g>
    <g>
      <path class="cls-1" d="m31.62,27.68h-1.67c-.62,0-1.13-.51-1.13-1.13v-1.4c0-.62.51-1.13,1.13-1.13h1.67c.62,0,1.13.51,1.13,1.13v1.4c0,.62-.51,1.13-1.13,1.13Zm-1.61-1.2h1.54v-1.26h-1.54v1.26Z"/>
      <path class="cls-1" d="m31.62,27.92h-1.67c-.76,0-1.38-.62-1.38-1.38v-1.4c0-.76.62-1.38,1.38-1.38h1.67c.76,0,1.38.62,1.38,1.38v1.4c0,.76-.62,1.38-1.38,1.38Zm-1.67-3.66c-.48,0-.88.39-.88.88v1.4c0,.48.39.88.88.88h1.67c.48,0,.88-.39.88-.88v-1.4c0-.48-.39-.88-.88-.88h-1.67Zm1.86,2.46h-2.04v-1.76h2.04v1.76Zm-1.54-.5h1.04v-.76h-1.04v.76Z"/>
    </g>
    <g>
      <path class="cls-1" d="m36.83,27.68h-1.67c-.62,0-1.13-.51-1.13-1.13v-1.4c0-.62.51-1.13,1.13-1.13h1.67c.62,0,1.13.51,1.13,1.13v1.4c0,.62-.51,1.13-1.13,1.13Zm-1.61-1.2h1.54v-1.26h-1.54v1.26Z"/>
      <path class="cls-1" d="m36.83,27.92h-1.67c-.76,0-1.38-.62-1.38-1.38v-1.4c0-.76.62-1.38,1.38-1.38h1.67c.76,0,1.38.62,1.38,1.38v1.4c0,.76-.62,1.38-1.38,1.38Zm-1.67-3.66c-.48,0-.88.39-.88.88v1.4c0,.48.39.88.88.88h1.67c.48,0,.88-.39.88-.88v-1.4c0-.48-.39-.88-.88-.88h-1.67Zm1.85,2.46h-2.04v-1.76h2.04v1.76Zm-1.54-.5h1.04v-.76h-1.04v.76Z"/>
    </g>
    <g>
      <path class="cls-1" d="m42.04,27.68h-1.67c-.62,0-1.13-.51-1.13-1.13v-1.4c0-.62.51-1.13,1.13-1.13h1.67c.62,0,1.13.51,1.13,1.13v1.4c0,.62-.51,1.13-1.13,1.13Zm-1.61-1.2h1.54v-1.26h-1.54v1.26Z"/>
      <path class="cls-1" d="m42.04,27.92h-1.67c-.76,0-1.38-.62-1.38-1.38v-1.4c0-.76.62-1.38,1.38-1.38h1.67c.76,0,1.38.62,1.38,1.38v1.4c0,.76-.62,1.38-1.38,1.38Zm-1.67-3.66c-.48,0-.88.39-.88.88v1.4c0,.48.39.88.88.88h1.67c.48,0,.88-.39.88-.88v-1.4c0-.48-.39-.88-.88-.88h-1.67Zm1.85,2.46h-2.04v-1.76h2.04v1.76Zm-1.54-.5h1.04v-.76h-1.04v.76Z"/>
    </g>
    <g>
      <path class="cls-1" d="m47.25,27.68h-1.67c-.62,0-1.13-.51-1.13-1.13v-1.4c0-.62.51-1.13,1.13-1.13h1.67c.62,0,1.13.51,1.13,1.13v1.4c0,.62-.51,1.13-1.13,1.13Zm-1.61-1.2h1.54v-1.26h-1.54v1.26Z"/>
      <path class="cls-1" d="m47.25,27.92h-1.67c-.76,0-1.38-.62-1.38-1.38v-1.4c0-.76.62-1.38,1.38-1.38h1.67c.76,0,1.38.62,1.38,1.38v1.4c0,.76-.62,1.38-1.38,1.38Zm-1.67-3.66c-.48,0-.88.39-.88.88v1.4c0,.48.39.88.88.88h1.67c.48,0,.88-.39.88-.88v-1.4c0-.48-.39-.88-.88-.88h-1.67Zm1.85,2.46h-2.04v-1.76h2.04v1.76Zm-1.54-.5h1.04v-.76h-1.04v.76Z"/>
    </g>
    <g>
      <path class="cls-1" d="m52.46,27.68h-1.67c-.62,0-1.13-.51-1.13-1.13v-1.4c0-.62.51-1.13,1.13-1.13h1.67c.62,0,1.13.51,1.13,1.13v1.4c0,.62-.51,1.13-1.13,1.13Zm-1.61-1.2h1.54v-1.26h-1.54v1.26Z"/>
      <path class="cls-1" d="m52.46,27.92h-1.67c-.76,0-1.38-.62-1.38-1.38v-1.4c0-.76.62-1.38,1.38-1.38h1.67c.76,0,1.38.62,1.38,1.38v1.4c0,.76-.62,1.38-1.38,1.38Zm-1.67-3.66c-.48,0-.88.39-.88.88v1.4c0,.48.39.88.88.88h1.67c.48,0,.88-.39.88-.88v-1.4c0-.48-.39-.88-.88-.88h-1.67Zm1.85,2.46h-2.04v-1.76h2.04v1.76Zm-1.54-.5h1.04v-.76h-1.04v.76Z"/>
    </g>
    <g>
      <path class="cls-1" d="m10.97,32.63h-2.06c-.51,0-.93-.42-.93-.93v-1.79c0-.51.42-.93.93-.93h2.06c.51,0,.93.42.93.93v1.79c0,.51-.42.93-.93.93Zm-1.8-1.2h1.54v-1.26h-1.54v1.26Z"/>
      <path class="cls-1" d="m10.97,32.88h-2.06c-.65,0-1.18-.53-1.18-1.18v-1.79c0-.65.53-1.18,1.18-1.18h2.06c.65,0,1.18.53,1.18,1.18v1.79c0,.65-.53,1.18-1.18,1.18Zm-2.06-3.66c-.38,0-.68.31-.68.68v1.79c0,.38.31.68.68.68h2.06c.38,0,.68-.31.68-.68v-1.79c0-.38-.31-.68-.68-.68h-2.06Zm2.05,2.46h-2.04v-1.76h2.04v1.76Zm-1.54-.5h1.04v-.76h-1.04v.76Z"/>
    </g>
    <g>
      <path class="cls-1" d="m15.99,32.63h-1.67c-.62,0-1.13-.51-1.13-1.13v-1.4c0-.62.51-1.13,1.13-1.13h1.67c.62,0,1.13.51,1.13,1.13v1.4c0,.62-.51,1.13-1.13,1.13Zm-1.61-1.2h1.54v-1.26h-1.54v1.26Z"/>
      <path class="cls-1" d="m15.99,32.88h-1.67c-.76,0-1.38-.62-1.38-1.38v-1.4c0-.76.62-1.38,1.38-1.38h1.67c.76,0,1.38.62,1.38,1.38v1.4c0,.76-.62,1.38-1.38,1.38Zm-1.67-3.66c-.48,0-.88.39-.88.88v1.4c0,.48.39.88.88.88h1.67c.48,0,.88-.39.88-.88v-1.4c0-.48-.39-.88-.88-.88h-1.67Zm1.86,2.46h-2.04v-1.76h2.04v1.76Zm-1.54-.5h1.04v-.76h-1.04v.76Z"/>
    </g>
    <g>
      <path class="cls-1" d="m21.2,32.63h-1.67c-.62,0-1.13-.51-1.13-1.13v-1.4c0-.62.51-1.13,1.13-1.13h1.67c.62,0,1.13.51,1.13,1.13v1.4c0,.62-.51,1.13-1.13,1.13Zm-1.61-1.2h1.54v-1.26h-1.54v1.26Z"/>
      <path class="cls-1" d="m21.2,32.88h-1.67c-.76,0-1.38-.62-1.38-1.38v-1.4c0-.76.62-1.38,1.38-1.38h1.67c.76,0,1.38.62,1.38,1.38v1.4c0,.76-.62,1.38-1.38,1.38Zm-1.67-3.66c-.48,0-.88.39-.88.88v1.4c0,.48.39.88.88.88h1.67c.48,0,.88-.39.88-.88v-1.4c0-.48-.39-.88-.88-.88h-1.67Zm1.85,2.46h-2.04v-1.76h2.04v1.76Zm-1.54-.5h1.04v-.76h-1.04v.76Z"/>
    </g>
    <g>
      <path class="cls-1" d="m26.41,32.63h-1.67c-.62,0-1.13-.51-1.13-1.13v-1.4c0-.62.51-1.13,1.13-1.13h1.67c.62,0,1.13.51,1.13,1.13v1.4c0,.62-.51,1.13-1.13,1.13Zm-1.61-1.2h1.54v-1.26h-1.54v1.26Z"/>
      <path class="cls-1" d="m26.41,32.88h-1.67c-.76,0-1.38-.62-1.38-1.38v-1.4c0-.76.62-1.38,1.38-1.38h1.67c.76,0,1.38.62,1.38,1.38v1.4c0,.76-.62,1.38-1.38,1.38Zm-1.67-3.66c-.48,0-.88.39-.88.88v1.4c0,.48.39.88.88.88h1.67c.48,0,.88-.39.88-.88v-1.4c0-.48-.39-.88-.88-.88h-1.67Zm1.86,2.46h-2.04v-1.76h2.04v1.76Zm-1.54-.5h1.04v-.76h-1.04v.76Z"/>
    </g>
    <g>
      <path class="cls-1" d="m31.62,32.63h-1.67c-.62,0-1.13-.51-1.13-1.13v-1.4c0-.62.51-1.13,1.13-1.13h1.67c.62,0,1.13.51,1.13,1.13v1.4c0,.62-.51,1.13-1.13,1.13Zm-1.61-1.2h1.54v-1.26h-1.54v1.26Z"/>
      <path class="cls-1" d="m31.62,32.88h-1.67c-.76,0-1.38-.62-1.38-1.38v-1.4c0-.76.62-1.38,1.38-1.38h1.67c.76,0,1.38.62,1.38,1.38v1.4c0,.76-.62,1.38-1.38,1.38Zm-1.67-3.66c-.48,0-.88.39-.88.88v1.4c0,.48.39.88.88.88h1.67c.48,0,.88-.39.88-.88v-1.4c0-.48-.39-.88-.88-.88h-1.67Zm1.86,2.46h-2.04v-1.76h2.04v1.76Zm-1.54-.5h1.04v-.76h-1.04v.76Z"/>
    </g>
    <g>
      <path class="cls-1" d="m36.83,32.63h-1.67c-.62,0-1.13-.51-1.13-1.13v-1.4c0-.62.51-1.13,1.13-1.13h1.67c.62,0,1.13.51,1.13,1.13v1.4c0,.62-.51,1.13-1.13,1.13Zm-1.61-1.2h1.54v-1.26h-1.54v1.26Z"/>
      <path class="cls-1" d="m36.83,32.88h-1.67c-.76,0-1.38-.62-1.38-1.38v-1.4c0-.76.62-1.38,1.38-1.38h1.67c.76,0,1.38.62,1.38,1.38v1.4c0,.76-.62,1.38-1.38,1.38Zm-1.67-3.66c-.48,0-.88.39-.88.88v1.4c0,.48.39.88.88.88h1.67c.48,0,.88-.39.88-.88v-1.4c0-.48-.39-.88-.88-.88h-1.67Zm1.85,2.46h-2.04v-1.76h2.04v1.76Zm-1.54-.5h1.04v-.76h-1.04v.76Z"/>
    </g>
    <g>
      <path class="cls-1" d="m42.04,32.63h-1.67c-.62,0-1.13-.51-1.13-1.13v-1.4c0-.62.51-1.13,1.13-1.13h1.67c.62,0,1.13.51,1.13,1.13v1.4c0,.62-.51,1.13-1.13,1.13Zm-1.61-1.2h1.54v-1.26h-1.54v1.26Z"/>
      <path class="cls-1" d="m42.04,32.88h-1.67c-.76,0-1.38-.62-1.38-1.38v-1.4c0-.76.62-1.38,1.38-1.38h1.67c.76,0,1.38.62,1.38,1.38v1.4c0,.76-.62,1.38-1.38,1.38Zm-1.67-3.66c-.48,0-.88.39-.88.88v1.4c0,.48.39.88.88.88h1.67c.48,0,.88-.39.88-.88v-1.4c0-.48-.39-.88-.88-.88h-1.67Zm1.85,2.46h-2.04v-1.76h2.04v1.76Zm-1.54-.5h1.04v-.76h-1.04v.76Z"/>
    </g>
    <g>
      <path class="cls-1" d="m47.25,32.63h-1.67c-.62,0-1.13-.51-1.13-1.13v-1.4c0-.62.51-1.13,1.13-1.13h1.67c.62,0,1.13.51,1.13,1.13v1.4c0,.62-.51,1.13-1.13,1.13Zm-1.61-1.2h1.54v-1.26h-1.54v1.26Z"/>
      <path class="cls-1" d="m47.25,32.88h-1.67c-.76,0-1.38-.62-1.38-1.38v-1.4c0-.76.62-1.38,1.38-1.38h1.67c.76,0,1.38.62,1.38,1.38v1.4c0,.76-.62,1.38-1.38,1.38Zm-1.67-3.66c-.48,0-.88.39-.88.88v1.4c0,.48.39.88.88.88h1.67c.48,0,.88-.39.88-.88v-1.4c0-.48-.39-.88-.88-.88h-1.67Zm1.85,2.46h-2.04v-1.76h2.04v1.76Zm-1.54-.5h1.04v-.76h-1.04v.76Z"/>
    </g>
    <g>
      <path class="cls-1" d="m52.46,32.63h-1.67c-.62,0-1.13-.51-1.13-1.13v-1.4c0-.62.51-1.13,1.13-1.13h1.67c.62,0,1.13.51,1.13,1.13v1.4c0,.62-.51,1.13-1.13,1.13Zm-1.61-1.2h1.54v-1.26h-1.54v1.26Z"/>
      <path class="cls-1" d="m52.46,32.88h-1.67c-.76,0-1.38-.62-1.38-1.38v-1.4c0-.76.62-1.38,1.38-1.38h1.67c.76,0,1.38.62,1.38,1.38v1.4c0,.76-.62,1.38-1.38,1.38Zm-1.67-3.66c-.48,0-.88.39-.88.88v1.4c0,.48.39.88.88.88h1.67c.48,0,.88-.39.88-.88v-1.4c0-.48-.39-.88-.88-.88h-1.67Zm1.85,2.46h-2.04v-1.76h2.04v1.76Zm-1.54-.5h1.04v-.76h-1.04v.76Z"/>
    </g>
    <g>
      <path class="cls-1" d="m10.97,37.58h-2.06c-.51,0-.93-.42-.93-.93v-1.79c0-.51.42-.93.93-.93h2.06c.51,0,.93.42.93.93v1.79c0,.51-.42.93-.93.93Zm-1.8-1.2h1.54v-1.26h-1.54v1.26Z"/>
      <path class="cls-1" d="m10.97,37.83h-2.06c-.65,0-1.18-.53-1.18-1.18v-1.79c0-.65.53-1.18,1.18-1.18h2.06c.65,0,1.18.53,1.18,1.18v1.79c0,.65-.53,1.18-1.18,1.18Zm-2.06-3.66c-.38,0-.68.31-.68.68v1.79c0,.38.31.68.68.68h2.06c.38,0,.68-.31.68-.68v-1.79c0-.38-.31-.68-.68-.68h-2.06Zm2.05,2.46h-2.04v-1.76h2.04v1.76Zm-1.54-.5h1.04v-.76h-1.04v.76Z"/>
    </g>
    <g>
      <path class="cls-1" d="m15.99,37.58h-1.67c-.62,0-1.13-.51-1.13-1.13v-1.4c0-.62.51-1.13,1.13-1.13h1.67c.62,0,1.13.51,1.13,1.13v1.4c0,.62-.51,1.13-1.13,1.13Zm-1.61-1.2h1.54v-1.26h-1.54v1.26Z"/>
      <path class="cls-1" d="m15.99,37.83h-1.67c-.76,0-1.38-.62-1.38-1.38v-1.4c0-.76.62-1.38,1.38-1.38h1.67c.76,0,1.38.62,1.38,1.38v1.4c0,.76-.62,1.38-1.38,1.38Zm-1.67-3.66c-.48,0-.88.39-.88.88v1.4c0,.48.39.88.88.88h1.67c.48,0,.88-.39.88-.88v-1.4c0-.48-.39-.88-.88-.88h-1.67Zm1.86,2.46h-2.04v-1.76h2.04v1.76Zm-1.54-.5h1.04v-.76h-1.04v.76Z"/>
    </g>
    <g>
      <path class="cls-1" d="m21.2,37.58h-1.67c-.62,0-1.13-.51-1.13-1.13v-1.4c0-.62.51-1.13,1.13-1.13h1.67c.62,0,1.13.51,1.13,1.13v1.4c0,.62-.51,1.13-1.13,1.13Zm-1.61-1.2h1.54v-1.26h-1.54v1.26Z"/>
      <path class="cls-1" d="m21.2,37.83h-1.67c-.76,0-1.38-.62-1.38-1.38v-1.4c0-.76.62-1.38,1.38-1.38h1.67c.76,0,1.38.62,1.38,1.38v1.4c0,.76-.62,1.38-1.38,1.38Zm-1.67-3.66c-.48,0-.88.39-.88.88v1.4c0,.48.39.88.88.88h1.67c.48,0,.88-.39.88-.88v-1.4c0-.48-.39-.88-.88-.88h-1.67Zm1.85,2.46h-2.04v-1.76h2.04v1.76Zm-1.54-.5h1.04v-.76h-1.04v.76Z"/>
    </g>
    <g>
      <path class="cls-1" d="m26.41,37.58h-1.67c-.62,0-1.13-.51-1.13-1.13v-1.4c0-.62.51-1.13,1.13-1.13h1.67c.62,0,1.13.51,1.13,1.13v1.4c0,.62-.51,1.13-1.13,1.13Zm-1.61-1.2h1.54v-1.26h-1.54v1.26Z"/>
      <path class="cls-1" d="m26.41,37.83h-1.67c-.76,0-1.38-.62-1.38-1.38v-1.4c0-.76.62-1.38,1.38-1.38h1.67c.76,0,1.38.62,1.38,1.38v1.4c0,.76-.62,1.38-1.38,1.38Zm-1.67-3.66c-.48,0-.88.39-.88.88v1.4c0,.48.39.88.88.88h1.67c.48,0,.88-.39.88-.88v-1.4c0-.48-.39-.88-.88-.88h-1.67Zm1.86,2.46h-2.04v-1.76h2.04v1.76Zm-1.54-.5h1.04v-.76h-1.04v.76Z"/>
    </g>
    <g>
      <path class="cls-1" d="m31.62,37.58h-1.67c-.62,0-1.13-.51-1.13-1.13v-1.4c0-.62.51-1.13,1.13-1.13h1.67c.62,0,1.13.51,1.13,1.13v1.4c0,.62-.51,1.13-1.13,1.13Zm-1.61-1.2h1.54v-1.26h-1.54v1.26Z"/>
      <path class="cls-1" d="m31.62,37.83h-1.67c-.76,0-1.38-.62-1.38-1.38v-1.4c0-.76.62-1.38,1.38-1.38h1.67c.76,0,1.38.62,1.38,1.38v1.4c0,.76-.62,1.38-1.38,1.38Zm-1.67-3.66c-.48,0-.88.39-.88.88v1.4c0,.48.39.88.88.88h1.67c.48,0,.88-.39.88-.88v-1.4c0-.48-.39-.88-.88-.88h-1.67Zm1.86,2.46h-2.04v-1.76h2.04v1.76Zm-1.54-.5h1.04v-.76h-1.04v.76Z"/>
    </g>
    <g>
      <path class="cls-1" d="m36.83,37.58h-1.67c-.62,0-1.13-.51-1.13-1.13v-1.4c0-.62.51-1.13,1.13-1.13h1.67c.62,0,1.13.51,1.13,1.13v1.4c0,.62-.51,1.13-1.13,1.13Zm-1.61-1.2h1.54v-1.26h-1.54v1.26Z"/>
      <path class="cls-1" d="m36.83,37.83h-1.67c-.76,0-1.38-.62-1.38-1.38v-1.4c0-.76.62-1.38,1.38-1.38h1.67c.76,0,1.38.62,1.38,1.38v1.4c0,.76-.62,1.38-1.38,1.38Zm-1.67-3.66c-.48,0-.88.39-.88.88v1.4c0,.48.39.88.88.88h1.67c.48,0,.88-.39.88-.88v-1.4c0-.48-.39-.88-.88-.88h-1.67Zm1.85,2.46h-2.04v-1.76h2.04v1.76Zm-1.54-.5h1.04v-.76h-1.04v.76Z"/>
    </g>
    <g>
      <path class="cls-1" d="m42.04,37.58h-1.67c-.62,0-1.13-.51-1.13-1.13v-1.4c0-.62.51-1.13,1.13-1.13h1.67c.62,0,1.13.51,1.13,1.13v1.4c0,.62-.51,1.13-1.13,1.13Zm-1.61-1.2h1.54v-1.26h-1.54v1.26Z"/>
      <path class="cls-1" d="m42.04,37.83h-1.67c-.76,0-1.38-.62-1.38-1.38v-1.4c0-.76.62-1.38,1.38-1.38h1.67c.76,0,1.38.62,1.38,1.38v1.4c0,.76-.62,1.38-1.38,1.38Zm-1.67-3.66c-.48,0-.88.39-.88.88v1.4c0,.48.39.88.88.88h1.67c.48,0,.88-.39.88-.88v-1.4c0-.48-.39-.88-.88-.88h-1.67Zm1.85,2.46h-2.04v-1.76h2.04v1.76Zm-1.54-.5h1.04v-.76h-1.04v.76Z"/>
    </g>
    <g>
      <path class="cls-1" d="m47.25,37.58h-1.67c-.62,0-1.13-.51-1.13-1.13v-1.4c0-.62.51-1.13,1.13-1.13h1.67c.62,0,1.13.51,1.13,1.13v1.4c0,.62-.51,1.13-1.13,1.13Zm-1.61-1.2h1.54v-1.26h-1.54v1.26Z"/>
      <path class="cls-1" d="m47.25,37.83h-1.67c-.76,0-1.38-.62-1.38-1.38v-1.4c0-.76.62-1.38,1.38-1.38h1.67c.76,0,1.38.62,1.38,1.38v1.4c0,.76-.62,1.38-1.38,1.38Zm-1.67-3.66c-.48,0-.88.39-.88.88v1.4c0,.48.39.88.88.88h1.67c.48,0,.88-.39.88-.88v-1.4c0-.48-.39-.88-.88-.88h-1.67Zm1.85,2.46h-2.04v-1.76h2.04v1.76Zm-1.54-.5h1.04v-.76h-1.04v.76Z"/>
    </g>
    <g>
      <path class="cls-1" d="m52.46,37.58h-1.67c-.62,0-1.13-.51-1.13-1.13v-1.4c0-.62.51-1.13,1.13-1.13h1.67c.62,0,1.13.51,1.13,1.13v1.4c0,.62-.51,1.13-1.13,1.13Zm-1.61-1.2h1.54v-1.26h-1.54v1.26Z"/>
      <path class="cls-1" d="m52.46,37.83h-1.67c-.76,0-1.38-.62-1.38-1.38v-1.4c0-.76.62-1.38,1.38-1.38h1.67c.76,0,1.38.62,1.38,1.38v1.4c0,.76-.62,1.38-1.38,1.38Zm-1.67-3.66c-.48,0-.88.39-.88.88v1.4c0,.48.39.88.88.88h1.67c.48,0,.88-.39.88-.88v-1.4c0-.48-.39-.88-.88-.88h-1.67Zm1.85,2.46h-2.04v-1.76h2.04v1.76Zm-1.54-.5h1.04v-.76h-1.04v.76Z"/>
    </g>
    <g>
      <path class="cls-1" d="m10.97,42.53h-2.06c-.51,0-.93-.42-.93-.93v-1.79c0-.51.42-.93.93-.93h2.06c.51,0,.93.42.93.93v1.79c0,.51-.42.93-.93.93Zm-1.8-1.2h1.54v-1.26h-1.54v1.26Z"/>
      <path class="cls-1" d="m10.97,42.78h-2.06c-.65,0-1.18-.53-1.18-1.18v-1.79c0-.65.53-1.18,1.18-1.18h2.06c.65,0,1.18.53,1.18,1.18v1.79c0,.65-.53,1.18-1.18,1.18Zm-2.06-3.66c-.38,0-.68.31-.68.68v1.79c0,.38.31.68.68.68h2.06c.38,0,.68-.31.68-.68v-1.79c0-.38-.31-.68-.68-.68h-2.06Zm2.05,2.46h-2.04v-1.76h2.04v1.76Zm-1.54-.5h1.04v-.76h-1.04v.76Z"/>
    </g>
    <g>
      <path class="cls-1" d="m15.99,42.53h-1.67c-.62,0-1.13-.51-1.13-1.13v-1.4c0-.62.51-1.13,1.13-1.13h1.67c.62,0,1.13.51,1.13,1.13v1.4c0,.62-.51,1.13-1.13,1.13Zm-1.61-1.2h1.54v-1.26h-1.54v1.26Z"/>
      <path class="cls-1" d="m15.99,42.78h-1.67c-.76,0-1.38-.62-1.38-1.38v-1.4c0-.76.62-1.38,1.38-1.38h1.67c.76,0,1.38.62,1.38,1.38v1.4c0,.76-.62,1.38-1.38,1.38Zm-1.67-3.66c-.48,0-.88.39-.88.88v1.4c0,.48.39.88.88.88h1.67c.48,0,.88-.39.88-.88v-1.4c0-.48-.39-.88-.88-.88h-1.67Zm1.86,2.46h-2.04v-1.76h2.04v1.76Zm-1.54-.5h1.04v-.76h-1.04v.76Z"/>
    </g>
    <g>
      <path class="cls-1" d="m21.2,42.53h-1.67c-.62,0-1.13-.51-1.13-1.13v-1.4c0-.62.51-1.13,1.13-1.13h1.67c.62,0,1.13.51,1.13,1.13v1.4c0,.62-.51,1.13-1.13,1.13Zm-1.61-1.2h1.54v-1.26h-1.54v1.26Z"/>
      <path class="cls-1" d="m21.2,42.78h-1.67c-.76,0-1.38-.62-1.38-1.38v-1.4c0-.76.62-1.38,1.38-1.38h1.67c.76,0,1.38.62,1.38,1.38v1.4c0,.76-.62,1.38-1.38,1.38Zm-1.67-3.66c-.48,0-.88.39-.88.88v1.4c0,.48.39.88.88.88h1.67c.48,0,.88-.39.88-.88v-1.4c0-.48-.39-.88-.88-.88h-1.67Zm1.85,2.46h-2.04v-1.76h2.04v1.76Zm-1.54-.5h1.04v-.76h-1.04v.76Z"/>
    </g>
    <g>
      <path class="cls-1" d="m36.83,42.53h-12.09c-.62,0-1.13-.51-1.13-1.13v-1.4c0-.62.51-1.13,1.13-1.13h12.09c.62,0,1.13.51,1.13,1.13v1.4c0,.62-.51,1.13-1.13,1.13Zm-12.03-1.2h11.96v-1.26h-11.96v1.26Z"/>
      <path class="cls-1" d="m36.83,42.78h-12.09c-.76,0-1.38-.62-1.38-1.38v-1.4c0-.76.62-1.38,1.38-1.38h12.09c.76,0,1.38.62,1.38,1.38v1.4c0,.76-.62,1.38-1.38,1.38Zm-12.09-3.66c-.48,0-.88.39-.88.88v1.4c0,.48.39.88.88.88h12.09c.48,0,.88-.39.88-.88v-1.4c0-.48-.39-.88-.88-.88h-12.09Zm12.27,2.46h-12.46v-1.76h12.46v1.76Zm-11.96-.5h11.46v-.76h-11.46v.76Z"/>
    </g>
    <g>
      <path class="cls-1" d="m42.04,42.53h-1.67c-.62,0-1.13-.51-1.13-1.13v-1.4c0-.62.51-1.13,1.13-1.13h1.67c.62,0,1.13.51,1.13,1.13v1.4c0,.62-.51,1.13-1.13,1.13Zm-1.61-1.2h1.54v-1.26h-1.54v1.26Z"/>
      <path class="cls-1" d="m42.04,42.78h-1.67c-.76,0-1.38-.62-1.38-1.38v-1.4c0-.76.62-1.38,1.38-1.38h1.67c.76,0,1.38.62,1.38,1.38v1.4c0,.76-.62,1.38-1.38,1.38Zm-1.67-3.66c-.48,0-.88.39-.88.88v1.4c0,.48.39.88.88.88h1.67c.48,0,.88-.39.88-.88v-1.4c0-.48-.39-.88-.88-.88h-1.67Zm1.85,2.46h-2.04v-1.76h2.04v1.76Zm-1.54-.5h1.04v-.76h-1.04v.76Z"/>
    </g>
    <g>
      <path class="cls-1" d="m47.25,42.53h-1.67c-.62,0-1.13-.51-1.13-1.13v-1.4c0-.62.51-1.13,1.13-1.13h1.67c.62,0,1.13.51,1.13,1.13v1.4c0,.62-.51,1.13-1.13,1.13Zm-1.61-1.2h1.54v-1.26h-1.54v1.26Z"/>
      <path class="cls-1" d="m47.25,42.78h-1.67c-.76,0-1.38-.62-1.38-1.38v-1.4c0-.76.62-1.38,1.38-1.38h1.67c.76,0,1.38.62,1.38,1.38v1.4c0,.76-.62,1.38-1.38,1.38Zm-1.67-3.66c-.48,0-.88.39-.88.88v1.4c0,.48.39.88.88.88h1.67c.48,0,.88-.39.88-.88v-1.4c0-.48-.39-.88-.88-.88h-1.67Zm1.85,2.46h-2.04v-1.76h2.04v1.76Zm-1.54-.5h1.04v-.76h-1.04v.76Z"/>
    </g>
    <g>
      <path class="cls-1" d="m52.46,42.53h-1.67c-.62,0-1.13-.51-1.13-1.13v-1.4c0-.62.51-1.13,1.13-1.13h1.67c.62,0,1.13.51,1.13,1.13v1.4c0,.62-.51,1.13-1.13,1.13Zm-1.61-1.2h1.54v-1.26h-1.54v1.26Z"/>
      <path class="cls-1" d="m52.46,42.78h-1.67c-.76,0-1.38-.62-1.38-1.38v-1.4c0-.76.62-1.38,1.38-1.38h1.67c.76,0,1.38.62,1.38,1.38v1.4c0,.76-.62,1.38-1.38,1.38Zm-1.67-3.66c-.48,0-.88.39-.88.88v1.4c0,.48.39.88.88.88h1.67c.48,0,.88-.39.88-.88v-1.4c0-.48-.39-.88-.88-.88h-1.67Zm1.85,2.46h-2.04v-1.76h2.04v1.76Zm-1.54-.5h1.04v-.76h-1.04v.76Z"/>
    </g>
  </g>
  <g>
    <path class="cls-1" d="m30.78,21.97c-.33,0-.6-.27-.6-.6,0-2.38,1.94-4.32,4.32-4.32h.74c1.72,0,3.12-1.4,3.12-3.12,0-.33.27-.6.6-.6s.6.27.6.6c0,2.38-1.94,4.32-4.32,4.32h-.74c-1.72,0-3.12,1.4-3.12,3.12,0,.33-.27.6-.6.6Z"/>
    <path class="cls-1" d="m30.78,22.22c-.47,0-.85-.38-.85-.85,0-2.52,2.05-4.57,4.57-4.57h.74c1.58,0,2.87-1.29,2.87-2.87,0-.47.38-.85.85-.85s.85.38.85.85c0,2.52-2.05,4.57-4.57,4.57h-.74c-1.58,0-2.87,1.29-2.87,2.87,0,.47-.38.85-.85.85Zm3.72-4.92c-2.24,0-4.07,1.83-4.07,4.07,0,.19.16.35.35.35s.35-.16.35-.35c0-1.86,1.51-3.37,3.37-3.37h.74c2.24,0,4.07-1.83,4.07-4.07,0-.19-.16-.35-.35-.35s-.35.16-.35.35c0,1.86-1.51,3.37-3.37,3.37h-.74Z"/>
  </g>
</svg>