<?xml version="1.0" encoding="UTF-8"?>
<svg id="Layer_1" data-name="Layer 1" xmlns="http://www.w3.org/2000/svg" viewBox="0 0 60 60">
  <defs>
    <style>
      .cls-1 {
        fill: #37464c;
        stroke-width: 0px;
      }
    </style>
  </defs>
  <g>
    <path class="cls-1" d="m35.42,52.8c-.2,0-.4-.12-.48-.32L17.47,11.96c-.52-1.2-.4-2.58.32-3.67.72-1.1,1.94-1.75,3.25-1.75h3.9c1.49,0,2.87.87,3.51,2.22l20.54,43.3c.12.26.01.57-.25.7-.26.12-.57.01-.7-.25L27.51,9.21c-.47-.99-1.48-1.62-2.57-1.62h-3.9c-.96,0-1.85.48-2.37,1.28-.53.8-.61,1.8-.24,2.68l17.47,40.53c.11.27,0,.57-.27.69-.07.03-.14.04-.21.04Z"/>
    <path class="cls-1" d="m48.52,53.18c-.1,0-.2-.02-.3-.05-.23-.08-.41-.24-.51-.46L27.17,9.37c-.41-.86-1.28-1.41-2.23-1.41h-3.9c-.83,0-1.6.42-2.06,1.11-.46.69-.53,1.56-.2,2.33l17.47,40.53c.2.46-.02.98-.47,1.18-.45.19-.99-.03-1.18-.47L17.13,12.11c-.57-1.32-.44-2.83.35-4.03.79-1.2,2.12-1.92,3.56-1.92h3.9c1.64,0,3.15.96,3.85,2.43l20.54,43.3c.21.45.02.98-.43,1.2-.12.06-.25.09-.38.09ZM21.04,6.91c-1.19,0-2.28.59-2.94,1.58-.65.99-.76,2.23-.29,3.32l17.47,40.53c.04.1.13.11.2.08.07-.03.11-.12.08-.2L18.09,11.69c-.43-1-.33-2.13.27-3.04.6-.91,1.6-1.45,2.69-1.45h3.9c1.24,0,2.38.72,2.91,1.84l20.54,43.3c.03.06.13.1.2.07.07-.04.11-.12.07-.2L28.12,8.92c-.58-1.22-1.82-2.01-3.17-2.01h-3.9Z"/>
  </g>
  <g>
    <path class="cls-1" d="m15.28,52.8s-.1,0-.14-.02c-.28-.08-.44-.37-.36-.65l7.99-28.2c.08-.28.37-.44.65-.36.28.08.44.37.36.65l-7.99,28.2c-.07.23-.27.38-.5.38Z"/>
    <path class="cls-1" d="m15.28,53.18c-.08,0-.17-.01-.25-.04-.23-.06-.42-.21-.54-.42s-.15-.45-.08-.68l7.99-28.2c.07-.23.22-.42.43-.54.21-.12.45-.14.68-.08.23.06.42.21.54.42.12.21.15.45.08.68l-7.99,28.2c-.11.38-.46.65-.86.65Zm7.99-29.25s-.06.01-.07.02c-.02.01-.06.04-.07.09l-7.99,28.2c-.01.05,0,.09.01.11.01.02.04.06.09.07h.04c.07,0,.12-.04.14-.1l7.99-28.2c.01-.05,0-.09-.01-.11-.01-.02-.04-.06-.09-.07-.01,0-.03,0-.04,0Z"/>
  </g>
  <g>
    <path class="cls-1" d="m26.98,52.8s-.1,0-.14-.02c-.28-.08-.44-.37-.36-.65l7.99-28.2c.08-.28.37-.44.65-.36.28.08.44.37.36.65l-7.99,28.2c-.07.23-.27.38-.5.38Z"/>
    <path class="cls-1" d="m26.98,53.18c-.08,0-.17-.01-.25-.04-.23-.06-.42-.21-.54-.42s-.15-.45-.08-.68l7.99-28.2c.07-.23.22-.42.43-.54.21-.12.45-.14.68-.08.23.06.42.21.54.42.12.21.15.45.08.68l-7.99,28.2c-.11.38-.46.65-.86.65Zm7.99-29.25s-.06.01-.07.02c-.02.01-.06.04-.07.09l-7.99,28.2c-.01.05,0,.09.01.11.01.02.04.06.09.07h.04c.07,0,.12-.04.14-.1l7.99-28.2c.01-.05,0-.09-.01-.11-.01-.02-.04-.06-.09-.07-.01,0-.03,0-.04,0Z"/>
  </g>
  <g>
    <path class="cls-1" d="m32.77,19.75h-11.6c-.29,0-.52-.23-.52-.52s.23-.52.52-.52h11.6c.29,0,.52.23.52.52s-.23.52-.52.52Z"/>
    <path class="cls-1" d="m32.77,20.12h-11.6c-.5,0-.9-.4-.9-.9s.4-.9.9-.9h11.6c.5,0,.9.4.9.9s-.4.9-.9.9Zm-11.6-1.05c-.08,0-.15.07-.15.15s.07.15.15.15h11.6c.08,0,.15-.07.15-.15s-.07-.15-.15-.15h-11.6Z"/>
  </g>
  <g>
    <path class="cls-1" d="m36.58,27.77h-11.6c-.29,0-.52-.23-.52-.52s.23-.52.52-.52h11.6c.29,0,.52.23.52.52s-.23.52-.52.52Z"/>
    <path class="cls-1" d="m36.58,28.15h-11.6c-.5,0-.9-.4-.9-.9s.4-.9.9-.9h11.6c.5,0,.9.4.9.9s-.4.9-.9.9Zm-11.6-1.05c-.08,0-.15.07-.15.15s.07.15.15.15h11.6c.08,0,.15-.07.15-.15s-.07-.15-.15-.15h-11.6Z"/>
  </g>
  <g>
    <path class="cls-1" d="m40.39,35.79h-11.6c-.29,0-.52-.23-.52-.52s.23-.52.52-.52h11.6c.29,0,.52.23.52.52s-.23.52-.52.52Z"/>
    <path class="cls-1" d="m40.39,36.17h-11.6c-.5,0-.9-.4-.9-.9s.4-.9.9-.9h11.6c.5,0,.9.4.9.9s-.4.9-.9.9Zm-11.6-1.05c-.08,0-.15.07-.15.15s.07.15.15.15h11.6c.08,0,.15-.07.15-.15s-.07-.15-.15-.15h-11.6Z"/>
  </g>
  <g>
    <path class="cls-1" d="m44.2,43.81h-11.6c-.29,0-.52-.23-.52-.52s.23-.52.52-.52h11.6c.29,0,.52.23.52.52s-.23.52-.52.52Z"/>
    <path class="cls-1" d="m44.2,44.19h-11.6c-.5,0-.9-.4-.9-.9s.4-.9.9-.9h11.6c.5,0,.9.4.9.9s-.4.9-.9.9Zm-11.6-1.05c-.08,0-.15.07-.15.15s.07.15.15.15h11.6c.08,0,.15-.07.15-.15s-.07-.15-.15-.15h-11.6Z"/>
  </g>
</svg>