<?xml version="1.0" encoding="UTF-8"?>
<svg id="Layer_1" data-name="Layer 1" xmlns="http://www.w3.org/2000/svg" viewBox="0 0 60 60">
  <defs>
    <style>
      .cls-1 {
        fill: #37464c;
        stroke-width: 0px;
      }
    </style>
  </defs>
  <g>
    <g>
      <path class="cls-1" d="m56.37,49H3.13c-.83,0-1.5-.67-1.5-1.5v-1.39c0-.83.67-1.5,1.5-1.5h53.24c.83,0,1.5.67,1.5,1.5v1.39c0,.83-.67,1.5-1.5,1.5Zm-53.24-3.11c-.12,0-.22.1-.22.22v1.39c0,.12.1.22.22.22h53.24c.12,0,.22-.1.22-.22v-1.39c0-.12-.1-.22-.22-.22H3.13Z"/>
      <path class="cls-1" d="m56.37,49.37H3.13c-1.04,0-1.88-.84-1.88-1.88v-1.39c0-1.04.84-1.88,1.88-1.88h53.24c1.04,0,1.88.84,1.88,1.88v1.39c0,1.04-.84,1.88-1.88,1.88ZM3.13,44.97c-.62,0-1.13.51-1.13,1.13v1.39c0,.62.51,1.13,1.13,1.13h53.24c.62,0,1.13-.51,1.13-1.13v-1.39c0-.62-.51-1.13-1.13-1.13H3.13Zm53.24,3.11H3.13c-.33,0-.6-.27-.6-.59v-1.39c0-.33.27-.59.6-.59h53.24c.33,0,.59.27.59.59v1.39c0,.33-.27.59-.59.59Zm-53.08-.75h52.93v-1.08H3.28v1.08Z"/>
    </g>
    <g>
      <path class="cls-1" d="m54.22,45.88H5.28c-.35,0-.64-.29-.64-.64V15.1c0-2.32,1.89-4.21,4.21-4.21h41.8c2.32,0,4.21,1.89,4.21,4.21v30.14c0,.35-.29.64-.64.64Zm-48.3-1.28h47.66V15.1c0-1.62-1.31-2.93-2.93-2.93H8.85c-1.62,0-2.93,1.31-2.93,2.93v29.5Z"/>
      <path class="cls-1" d="m54.22,46.26H5.28c-.56,0-1.02-.46-1.02-1.02V15.1c0-2.53,2.06-4.59,4.59-4.59h41.8c2.53,0,4.59,2.06,4.59,4.59v30.14c0,.56-.46,1.02-1.02,1.02ZM8.85,11.26c-2.12,0-3.84,1.72-3.84,3.84v30.14c0,.15.12.27.27.27h48.94c.15,0,.27-.12.27-.27V15.1c0-2.12-1.72-3.84-3.84-3.84H8.85Zm45.1,33.71H5.54V15.1c0-1.82,1.48-3.31,3.31-3.31h41.8c1.82,0,3.31,1.48,3.31,3.31v29.87Zm-47.66-.75h46.91V15.1c0-1.41-1.15-2.56-2.56-2.56H8.85c-1.41,0-2.56,1.15-2.56,2.56v29.12Z"/>
    </g>
  </g>
  <path class="cls-1" d="m49.31,41.61H10.18c-1.47,0-2.67-1.2-2.67-2.67v-21.71c0-1.47,1.2-2.67,2.67-2.67h39.13c1.47,0,2.67,1.2,2.67,2.67v21.71c0,1.47-1.2,2.67-2.67,2.67ZM10.18,16.16c-.59,0-1.07.48-1.07,1.07v21.71c0,.59.48,1.07,1.07,1.07h39.13c.59,0,1.07-.48,1.07-1.07v-21.71c0-.59-.48-1.07-1.07-1.07H10.18Z"/>
</svg>