<?xml version="1.0" encoding="UTF-8"?>
<svg id="Layer_1" data-name="Layer 1" xmlns="http://www.w3.org/2000/svg" viewBox="0 0 60 60">
  <defs>
    <style>
      .cls-1 {
        fill: #37464c;
        stroke-width: 0px;
      }
    </style>
  </defs>
  <path class="cls-1" d="m22.75,55.4c-.09,0-.18-.02-.26-.06-.25-.13-.37-.42-.29-.69l6.44-19.53h-14.04c-.22,0-.42-.12-.51-.32-.1-.19-.08-.43.05-.6L35.66,5.35c.17-.23.48-.3.73-.16.25.13.37.43.27.7l-7.04,20.15h13.4c.22,0,.41.12.51.31.1.19.08.42-.04.6l-20.27,28.23c-.11.15-.29.24-.47.24Zm-7-21.43h13.69c.18,0,.36.09.47.24.11.15.14.34.08.52l-5.51,16.72,17.43-24.27h-13.09c-.19,0-.36-.09-.47-.24-.11-.15-.14-.35-.07-.52l6.08-17.37-18.59,24.93Z"/>
  <path class="cls-1" d="m22.75,55.78c-.15,0-.29-.03-.43-.1-.42-.21-.62-.7-.47-1.14l6.27-19.04h-13.52c-.36,0-.69-.2-.85-.52-.16-.32-.13-.7.09-.99L35.36,5.12c.28-.38.79-.49,1.21-.27.41.22.6.71.45,1.15l-6.87,19.65h12.87c.36,0,.68.2.84.51.16.32.13.7-.07.99l-20.27,28.23c-.18.25-.47.4-.77.4ZM36.12,5.49c-.06,0-.12.03-.16.08l-21.52,28.86c-.05.06-.05.14-.02.21.03.07.1.11.18.11h14.56l-6.6,20.02c-.03.09.01.2.1.24.09.04.2.02.25-.06l20.26-28.23c.04-.06.05-.14.02-.21-.03-.07-.1-.11-.18-.11h-13.93l7.22-20.65c.03-.09,0-.2-.09-.24-.03-.02-.06-.02-.09-.02Zm-12.77,48.16l6.28-19.05c.02-.06,0-.13-.03-.18-.04-.05-.1-.08-.16-.08h-14.44L35.5,6.85l-6.88,19.68c-.02.06-.01.13.03.18.04.05.1.08.16.08h13.82l-19.28,26.85Zm-6.85-20.06h12.94c.3,0,.59.15.77.39.18.25.23.56.13.85l-4.75,14.4,15.57-21.69h-12.36c-.31,0-.59-.15-.77-.4-.18-.25-.22-.58-.12-.87l5.27-15.07-16.69,22.38Z"/>
</svg>