<?xml version="1.0" encoding="UTF-8"?>
<svg id="Layer_1" data-name="Layer 1" xmlns="http://www.w3.org/2000/svg" viewBox="0 0 60 60">
  <defs>
    <style>
      .cls-1 {
        fill: #37464c;
        stroke-width: 0px;
      }
    </style>
  </defs>
  <path class="cls-1" d="m18.52,59c-.26,0-.51-.1-.71-.29-.39-.39-.39-1.02,0-1.41l2.29-2.29-11.59-11.59-2.29,2.29c-.39.39-1.02.39-1.41,0s-.39-1.02,0-1.41l3-3c.39-.39,1.02-.39,1.41,0l13,13c.39.39.39,1.02,0,1.41l-3,3c-.2.2-.45.29-.71.29Z"/>
  <path class="cls-1" d="m20.52,55c-.26,0-.51-.1-.71-.29-.39-.39-.39-1.02,0-1.41l.54-.54c1.13-1.13,2.64-1.76,4.24-1.76h10.62c1.32,0,2.61-.37,3.72-1.07l14.61-9.18c.51-.32.85-.84.94-1.43.09-.6-.08-1.19-.49-1.66-.6-.69-1.67-.86-2.56-.41l-7.53,4.01c-.48.26-1.09.08-1.35-.41-.26-.49-.08-1.09.41-1.35l7.54-4.02c1.71-.88,3.81-.51,5,.87.78.91,1.13,2.1.95,3.27-.18,1.17-.86,2.2-1.86,2.82l-14.61,9.18c-1.44.9-3.09,1.38-4.79,1.38h-10.62c-1.07,0-2.07.42-2.83,1.17l-.54.54c-.2.2-.45.29-.71.29Z"/>
  <path class="cls-1" d="m10.52,45c-.15,0-.3-.03-.45-.11-.49-.25-.69-.85-.45-1.34.17-.35,4.36-8.55,11.89-8.55,4.63,0,7.07,1.15,8.11,1.83.17.11.36.17.55.17h10.33c1.09,0,2.15.45,2.9,1.25.76.8,1.15,1.86,1.09,2.97-.11,2.12-1.94,3.79-4.16,3.79h-12.83c-.55,0-1-.45-1-1s.45-1,1-1h12.83c1.14,0,2.11-.85,2.17-1.89.03-.56-.16-1.08-.55-1.49s-.9-.62-1.45-.62h-10.33c-.58,0-1.16-.17-1.65-.5-.69-.45-2.75-1.5-7.01-1.5-6.31,0-10.07,7.37-10.11,7.45-.18.35-.53.55-.9.55Z"/>
  <path class="cls-1" d="m36.52,35h-4c-1.65,0-3-1.35-3-3v-4c0-.55.45-1,1-1h8c.55,0,1,.45,1,1v4c0,1.65-1.35,3-3,3Zm-5-6v3c0,.55.45,1,1,1h4c.55,0,1-.45,1-1v-3h-6Z"/>
  <g>
    <path class="cls-1" d="m24.13,15c-.17,0-.34-.04-.5-.13l-3.46-2c-.48-.28-.64-.89-.37-1.37.28-.48.89-.64,1.37-.37l3.46,2c.48.28.64.89.37,1.37-.19.32-.52.5-.87.5Z"/>
    <path class="cls-1" d="m48.38,29c-.17,0-.34-.04-.5-.13l-3.46-2c-.48-.28-.64-.89-.37-1.37.28-.48.89-.64,1.37-.37l3.46,2c.48.28.64.89.37,1.37-.19.32-.52.5-.87.5Z"/>
    <path class="cls-1" d="m28.52,10.61c-.35,0-.68-.18-.87-.5l-2-3.46c-.28-.48-.11-1.09.37-1.37.48-.28,1.09-.11,1.37.37l2,3.46c.28.48.11,1.09-.37,1.37-.16.09-.33.13-.5.13Z"/>
    <path class="cls-1" d="m34.52,9c-.55,0-1-.45-1-1v-4c0-.55.45-1,1-1s1,.45,1,1v4c0,.55-.45,1-1,1Z"/>
    <path class="cls-1" d="m40.52,10.61c-.17,0-.34-.04-.5-.13-.48-.28-.64-.89-.37-1.37l2-3.46c.28-.48.89-.64,1.37-.37.48.28.64.89.37,1.37l-2,3.46c-.19.32-.52.5-.87.5Z"/>
    <path class="cls-1" d="m44.91,15c-.35,0-.68-.18-.87-.5-.28-.48-.11-1.09.37-1.37l3.46-2c.48-.28,1.09-.11,1.37.37.28.48.11,1.09-.37,1.37l-3.46,2c-.16.09-.33.13-.5.13Z"/>
    <path class="cls-1" d="m20.66,29c-.35,0-.68-.18-.87-.5-.28-.48-.11-1.09.37-1.37l3.46-2c.48-.28,1.09-.11,1.37.37.28.48.11,1.09-.37,1.37l-3.46,2c-.16.09-.33.13-.5.13Z"/>
    <path class="cls-1" d="m50.52,21h-4c-.55,0-1-.45-1-1s.45-1,1-1h4c.55,0,1,.45,1,1s-.45,1-1,1Z"/>
    <path class="cls-1" d="m22.52,21h-4c-.55,0-1-.45-1-1s.45-1,1-1h4c.55,0,1,.45,1,1s-.45,1-1,1Z"/>
  </g>
  <path class="cls-1" d="m38.52,29h-8c-.32,0-.62-.15-.81-.41-.29-.39-.61-.78-.94-1.19-1.45-1.76-3.25-3.96-3.25-7.41,0-4.96,4.04-9,9-9s9,4.04,9,9c0,3.44-1.8,5.64-3.25,7.41-.33.4-.65.79-.94,1.19-.19.26-.49.41-.81.41Zm-7.5-2h7.01c.22-.29.46-.57.7-.86,1.38-1.68,2.8-3.41,2.8-6.14,0-3.86-3.14-7-7-7s-7,3.14-7,7c0,2.73,1.42,4.46,2.8,6.14.24.29.47.58.7.86Z"/>
</svg>