<?xml version="1.0" encoding="UTF-8"?>
<svg id="Layer_1" data-name="Layer 1" xmlns="http://www.w3.org/2000/svg" viewBox="0 0 60 60">
  <defs>
    <style>
      .cls-1 {
        fill: #37464c;
        stroke-width: 0px;
      }
    </style>
  </defs>
  <path class="cls-1" d="m35,47.5h-10c-1.65,0-3-1.35-3-3v-.69c0-2.5-1.04-4.89-2.84-6.56-3.28-3.02-5.16-7.31-5.16-11.76,0-8.82,7.18-16,16-16s16,7.18,16,16c0,4.45-1.88,8.74-5.16,11.76-1.81,1.67-2.84,4.06-2.84,6.56v.69c0,1.65-1.35,3-3,3Zm-5-36c-7.72,0-14,6.28-14,14,0,3.89,1.64,7.64,4.51,10.29,2.22,2.04,3.49,4.97,3.49,8.03v.69c0,.55.45,1,1,1h10c.55,0,1-.45,1-1v-.69c0-3.06,1.27-5.98,3.49-8.03,2.87-2.64,4.51-6.39,4.51-10.29,0-7.72-6.28-14-14-14Z"/>
  <path class="cls-1" d="m33,55.5h-6c-1.65,0-3-1.35-3-3v-6h2v6c0,.55.45,1,1,1h6c.55,0,1-.45,1-1v-6h2v6c0,1.65-1.35,3-3,3Z"/>
  <path class="cls-1" d="m30,57.5c-1.65,0-3-1.35-3-3h2c0,.55.45,1,1,1s1-.45,1-1h2c0,1.65-1.35,3-3,3Z"/>
  <path class="cls-1" d="m42,53.5c-1.65,0-3-1.35-3-3h2c0,.55.45,1,1,1s1-.45,1-1h2c0,1.65-1.35,3-3,3Z"/>
  <path class="cls-1" d="m35,51.5h-6c-.55,0-1-.45-1-1s.45-1,1-1h6c.55,0,1,.45,1,1s-.45,1-1,1Z"/>
  <path class="cls-1" d="m45,51.5h-6c-.55,0-1-.45-1-1s.45-1,1-1h6c.55,0,1-.45,1-1v-6c0-.55.45-1,1-1s1,.45,1,1v6c0,1.65-1.35,3-3,3Z"/>
  <path class="cls-1" d="m47,47.5h-6c-.55,0-1-.45-1-1s.45-1,1-1h6c.55,0,1,.45,1,1s-.45,1-1,1Z"/>
  <path class="cls-1" d="m18,53.5c-1.65,0-3-1.35-3-3h2c0,.55.45,1,1,1s1-.45,1-1h2c0,1.65-1.35,3-3,3Z"/>
  <path class="cls-1" d="m21,51.5h-6c-1.65,0-3-1.35-3-3v-6c0-.55.45-1,1-1s1,.45,1,1v6c0,.55.45,1,1,1h6c.55,0,1,.45,1,1s-.45,1-1,1Z"/>
  <path class="cls-1" d="m19,47.5h-6c-.55,0-1-.45-1-1s.45-1,1-1h6c.55,0,1,.45,1,1s-.45,1-1,1Z"/>
  <path class="cls-1" d="m28,35.5c-.26,0-.51-.1-.71-.29l-7-7c-.39-.39-.39-1.02,0-1.41l3-3c.39-.39,1.02-.39,1.41,0l3.29,3.29,7.29-7.29c.39-.39,1.02-.39,1.41,0l3,3c.39.39.39,1.02,0,1.41l-11,11c-.2.2-.45.29-.71.29Zm-5.59-8l5.59,5.59,9.59-9.59-1.59-1.59-7.29,7.29c-.39.39-1.02.39-1.41,0l-3.29-3.29-1.59,1.59Z"/>
  <path class="cls-1" d="m47,43.5h-9.9v-2h9.9c.55,0,1-.45,1-1v-.69c0-3.06,1.27-5.98,3.49-8.03,2.87-2.64,4.51-6.39,4.51-10.29,0-7.72-6.28-14-14-14-3.58,0-6.99,1.36-9.6,3.83l-1.37-1.45c2.99-2.82,6.89-4.38,10.98-4.38,8.82,0,16,7.18,16,16,0,4.45-1.88,8.74-5.16,11.76-1.81,1.67-2.84,4.06-2.84,6.56v.69c0,1.65-1.35,3-3,3Z"/>
  <path class="cls-1" d="m22.9,43.5h-9.9c-1.65,0-3-1.35-3-3v-.69c0-2.5-1.04-4.89-2.84-6.56-3.28-3.02-5.16-7.31-5.16-11.76C2,12.68,9.18,5.5,18,5.5c4.09,0,7.99,1.55,10.98,4.38l-1.37,1.45c-2.62-2.47-6.03-3.83-9.6-3.83-7.72,0-14,6.28-14,14,0,3.89,1.64,7.64,4.51,10.29,2.22,2.04,3.49,4.97,3.49,8.03v.69c0,.55.45,1,1,1h9.9v2Z"/>
</svg>