<?xml version="1.0" encoding="UTF-8"?>
<svg id="Layer_1" data-name="Layer 1" xmlns="http://www.w3.org/2000/svg" viewBox="0 0 60 60">
  <defs>
    <style>
      .cls-1 {
        fill: #37464c;
        stroke-width: 0px;
      }
    </style>
  </defs>
  <g>
    <path class="cls-1" d="m30.38,57.2c-.2,0-.39-.1-.5-.26-.72-1.04-17.62-25.7-17.62-35.45S20.39,3.36,30.38,3.36s18.12,8.13,18.12,18.12-16.9,34.4-17.62,35.45c-.11.16-.3.26-.5.26Zm0-52.62c-9.32,0-16.91,7.58-16.91,16.91,0,8.47,14.06,29.78,16.91,34.02,2.85-4.24,16.91-25.56,16.91-34.02,0-9.32-7.59-16.91-16.91-16.91Z"/>
    <path class="cls-1" d="m30.38,57.57c-.32,0-.62-.16-.81-.42-.72-1.05-17.69-25.81-17.69-35.66S20.18,2.99,30.38,2.99s18.5,8.3,18.5,18.5-16.97,34.61-17.69,35.66c-.19.27-.49.42-.81.42Zm0-53.83c-9.79,0-17.75,7.96-17.75,17.75s16.84,34.2,17.56,35.24c.09.12.3.12.38,0,.72-1.04,17.56-25.62,17.56-35.24S40.17,3.74,30.38,3.74Zm0,52.44l-.31-.46c-2.83-4.21-16.97-25.65-16.97-34.23,0-9.53,7.75-17.28,17.28-17.28s17.28,7.75,17.28,17.28c0,8.58-14.14,30.02-16.97,34.23l-.31.46Zm0-51.23c-9.12,0-16.53,7.42-16.53,16.53,0,8.09,13.13,28.26,16.53,33.35,3.4-5.09,16.53-25.26,16.53-33.35,0-9.12-7.42-16.53-16.53-16.53Z"/>
  </g>
  <g>
    <path class="cls-1" d="m30.38,32.57c-6.11,0-11.09-4.97-11.09-11.09s4.97-11.09,11.09-11.09,11.09,4.97,11.09,11.09-4.97,11.09-11.09,11.09Zm0-20.96c-5.44,0-9.87,4.43-9.87,9.87s4.43,9.87,9.87,9.87,9.87-4.43,9.87-9.87-4.43-9.87-9.87-9.87Z"/>
    <path class="cls-1" d="m30.38,32.95c-6.32,0-11.46-5.14-11.46-11.46s5.14-11.46,11.46-11.46,11.46,5.14,11.46,11.46-5.14,11.46-11.46,11.46Zm0-22.17c-5.91,0-10.71,4.81-10.71,10.71s4.81,10.71,10.71,10.71,10.71-4.81,10.71-10.71-4.81-10.71-10.71-10.71Zm0,20.96c-5.65,0-10.25-4.6-10.25-10.25s4.6-10.25,10.25-10.25,10.25,4.6,10.25,10.25-4.6,10.25-10.25,10.25Zm0-19.74c-5.24,0-9.5,4.26-9.5,9.5s4.26,9.5,9.5,9.5,9.5-4.26,9.5-9.5-4.26-9.5-9.5-9.5Z"/>
  </g>
</svg>