<?xml version="1.0" encoding="UTF-8"?>
<svg id="Layer_1" data-name="Layer 1" xmlns="http://www.w3.org/2000/svg" viewBox="0 0 60 60">
  <defs>
    <style>
      .cls-1 {
        fill: #37464c;
        stroke-width: 0px;
      }
    </style>
  </defs>
  <path class="cls-1" d="m27.08,48.1v-2c.55,0,1-.45,1-1v-19c0-5.51-4.49-10-10-10s-10,4.49-10,10v3h-2v-3c0-6.62,5.38-12,12-12s12,5.38,12,12v19c0,1.65-1.35,3-3,3Z"/>
  <path class="cls-1" d="m55.08,48.1h-28v-2h28c.55,0,1-.45,1-1v-19c0-5.51-4.49-10-10-10h-28v-2h28c6.62,0,12,5.38,12,12v19c0,1.65-1.35,3-3,3Z"/>
  <path class="cls-1" d="m39.08,56.1c-.55,0-1-.45-1-1v-8c0-.55.45-1,1-1s1,.45,1,1v8c0,.55-.45,1-1,1Z"/>
  <path class="cls-1" d="m31.08,56.1c-.55,0-1-.45-1-1v-8c0-.55.45-1,1-1s1,.45,1,1v8c0,.55-.45,1-1,1Z"/>
  <path class="cls-1" d="m29.08,48.1H3.08c-.55,0-1-.45-1-1v-18c0-.55.45-1,1-1h26c.55,0,1,.45,1,1v18c0,.55-.45,1-1,1Zm-25-2h24v-16H4.08v16Z"/>
  <path class="cls-1" d="m18.08,41.55c-.66,0-1.32-.22-1.87-.66L2.45,29.88l1.25-1.56,13.75,11c.37.29.88.29,1.25,0l9.75-7.8,1.25,1.56-9.75,7.8c-.55.44-1.21.66-1.87.66Z"/>
  <path class="cls-1" d="m47.08,12.1h-10c-.55,0-1-.45-1-1v-6c0-.55.45-1,1-1h10c.55,0,1,.45,1,1v6c0,.55-.45,1-1,1Zm-9-2h8v-4h-8v4Z"/>
  <rect class="cls-1" x="36.08" y="11.1" width="2" height="16"/>
  <path class="cls-1" d="m37.08,32.1c-1.65,0-3-1.35-3-3s1.35-3,3-3,3,1.35,3,3-1.35,3-3,3Zm0-4c-.55,0-1,.45-1,1s.45,1,1,1,1-.45,1-1-.45-1-1-1Z"/>
</svg>