<?xml version="1.0" encoding="UTF-8"?>
<svg id="Layer_1" data-name="Layer 1" xmlns="http://www.w3.org/2000/svg" viewBox="0 0 60 60">
  <defs>
    <style>
      .cls-1 {
        fill: #37464c;
        stroke-width: 0px;
      }
    </style>
  </defs>
  <g>
    <path class="cls-1" d="m5.64,52.04c-.12,0-.24-.04-.34-.11-.14-.11-.23-.27-.23-.45V9.34c0-.18.08-.34.23-.45.14-.11.33-.14.5-.09l12.2,3.54c.24.07.41.29.41.54v35.06c0,.25-.17.47-.41.54l-12.2,3.54c-.05.01-.1.02-.16.02Zm.56-41.95v40.64l11.08-3.21V13.31l-11.08-3.21Zm11.64,37.85h0,0Z"/>
    <path class="cls-1" d="m5.64,52.42c-.2,0-.4-.07-.56-.19-.23-.18-.37-.46-.37-.75V9.34c0-.29.14-.58.38-.75.23-.18.54-.23.82-.15l12.21,3.54c.4.12.68.49.68.9v35.06c0,.42-.28.79-.68.9l-12.21,3.54c-.09.02-.18.04-.26.04Zm0-43.27s-.08.01-.11.04c-.05.04-.08.09-.08.15v42.14c0,.06.03.12.07.15.05.04.1.05.17.03l12.15-3.52v-.57s0,0,0,0v.57h.05c.08-.04.14-.11.14-.2V12.88c0-.08-.06-.16-.14-.18l-12.2-3.54s-.04,0-.05,0Zm.19,42.08V9.59l11.83,3.43v34.78l-11.83,3.43Zm.75-40.64v39.64l10.33-2.99V13.59l-10.33-2.99Z"/>
  </g>
  <g>
    <path class="cls-1" d="m30.05,52.04c-.05,0-.11,0-.16-.02l-12.21-3.54c-.24-.07-.41-.29-.41-.54V12.88c0-.25.17-.47.41-.54l12.21-3.54c.17-.05.35-.02.5.09.14.11.23.27.23.45v42.14c0,.18-.08.34-.23.45-.1.07-.22.11-.34.11Zm-11.64-4.53l11.08,3.21V10.09l-11.08,3.21v34.21Z"/>
    <path class="cls-1" d="m30.05,52.42c-.09,0-.17-.01-.26-.04l-12.21-3.54c-.4-.12-.68-.49-.68-.9V12.88c0-.41.28-.79.68-.9l12.21-3.54c.28-.08.59-.02.83.15.23.18.37.46.37.75v42.14c0,.29-.14.57-.38.75-.16.12-.36.19-.56.19Zm0-43.27s-.04,0-.05,0l-12.2,3.54c-.08.02-.14.1-.14.18v35.06c0,.08.06.16.14.18l12.26,3.55s.08-.01.11-.04c.05-.04.07-.09.07-.15V9.34c0-.06-.03-.12-.07-.15-.03-.03-.07-.04-.11-.04Zm-.19,42.08l-11.83-3.43V13.02l11.83-3.43v41.63Zm-11.08-3.99l10.33,2.99V10.59l-10.33,2.99v33.65Z"/>
  </g>
  <g>
    <path class="cls-1" d="m30.05,52.04c-.12,0-.24-.04-.34-.11-.14-.11-.23-.27-.23-.45V9.34c0-.18.08-.34.23-.45.14-.11.33-.14.5-.09l12.21,3.54c.24.07.41.29.41.54v35.06c0,.25-.17.47-.41.54l-12.21,3.54c-.05.01-.1.02-.16.02Zm.56-41.95v40.64l11.08-3.21V13.31l-11.08-3.21Zm11.64,37.85h0,0Z"/>
    <path class="cls-1" d="m30.05,52.42c-.2,0-.4-.07-.56-.19-.23-.18-.38-.46-.38-.75V9.34c0-.29.14-.58.38-.75.23-.18.54-.23.82-.15l12.21,3.54c.4.12.68.49.68.9v35.06c0,.42-.28.79-.68.9l-12.21,3.54c-.09.02-.18.04-.26.04Zm0-43.27s-.08.01-.11.04c-.05.04-.08.09-.08.15v42.14c0,.06.03.12.08.15.05.04.1.05.17.03l12.15-3.52v-.57s0,0,0,0v.57h.05c.08-.04.14-.11.14-.2V12.88c0-.08-.06-.16-.14-.18l-12.2-3.54s-.03,0-.05,0Zm.19,42.08V9.59l11.83,3.43v34.78l-11.83,3.43Zm.75-40.64v39.64l10.33-2.99V13.59l-10.33-2.99Z"/>
  </g>
  <g>
    <path class="cls-1" d="m54.46,52.04c-.05,0-.11,0-.16-.02l-12.21-3.54c-.24-.07-.41-.29-.41-.54V12.88c0-.25.17-.47.41-.54l12.21-3.54c.17-.05.35-.02.5.09.14.11.23.27.23.45v42.14c0,.18-.08.34-.23.45-.1.07-.22.11-.34.11Zm-11.64-4.53l11.08,3.21V10.09l-11.08,3.21v34.21Z"/>
    <path class="cls-1" d="m54.46,52.42c-.09,0-.17-.01-.26-.04l-12.21-3.54c-.4-.12-.68-.49-.68-.9V12.88c0-.41.28-.79.68-.9l12.21-3.54c.28-.08.59-.02.83.15s.37.46.37.75v42.14c0,.29-.14.57-.38.75-.16.12-.36.19-.56.19Zm0-43.27s-.04,0-.05,0l-12.21,3.54c-.08.02-.14.1-.14.18v35.06c0,.08.06.16.14.18l12.26,3.55s.08-.01.11-.04c.05-.04.07-.09.07-.15V9.34c0-.06-.03-.12-.07-.15-.03-.03-.07-.04-.11-.04Zm-.19,42.08l-11.83-3.43V13.02l11.83-3.43v41.63Zm-11.08-3.99l10.33,2.99V10.59l-10.33,2.99v33.65Z"/>
  </g>
</svg>