<?xml version="1.0" encoding="UTF-8"?>
<svg id="Layer_1" data-name="Layer 1" xmlns="http://www.w3.org/2000/svg" viewBox="0 0 60 60">
  <defs>
    <style>
      .cls-1 {
        fill: #37464c;
        stroke-width: 0px;
      }
    </style>
  </defs>
  <g>
    <path class="cls-1" d="m56,55.26H4.62V22.35h20.91l5.5,5.55h24.97v27.36Zm-50.17-1.2h48.96v-24.95h-24.27l-5.5-5.55H5.83v30.5Z"/>
    <path class="cls-1" d="m56.5,55.76H4.12V21.85h21.62l5.5,5.55h25.26v28.36Zm-51.38-1h50.38v-26.36h-24.68l-5.5-5.55H5.12v31.91Zm50.17-.2H5.33v-31.5h19.9l5.5,5.55h24.56v25.95Zm-48.96-1h47.96v-23.95h-23.98l-5.5-5.55H6.33v29.5Z"/>
  </g>
  <g>
    <polygon class="cls-1" points="46.1 29.02 44.89 29.02 44.89 12.87 11.84 12.87 11.84 23.55 10.62 23.55 10.62 11.67 46.1 11.67 46.1 29.02"/>
    <path class="cls-1" d="m46.6,29.52h-2.21V13.37H12.33v10.68h-2.21v-12.89h36.48v18.35Zm-1.21-1h.21V12.17H11.12v10.89h.21v-10.68h34.05v16.15Z"/>
  </g>
  <g>
    <polygon class="cls-1" points="51.05 29.1 49.84 29.1 49.84 8.24 15.05 8.24 15.05 12.87 13.84 12.87 13.84 7.04 51.05 7.04 51.05 29.1"/>
    <path class="cls-1" d="m51.55,29.6h-2.21V8.74H15.55v4.63h-2.21v-6.83h38.21v23.06Zm-1.21-1h.21V7.54H14.34v4.83h.21v-4.63h35.79v20.86Z"/>
  </g>
  <g>
    <path class="cls-1" d="m19,49.78c-4.93,0-8.95-3.99-8.95-8.9s4.02-8.9,8.95-8.9,8.95,3.99,8.95,8.9-4.02,8.9-8.95,8.9Zm0-16.59c-4.27,0-7.74,3.45-7.74,7.69s3.47,7.69,7.74,7.69,7.74-3.45,7.74-7.69-3.47-7.69-7.74-7.69Z"/>
    <path class="cls-1" d="m19,50.28c-5.21,0-9.45-4.22-9.45-9.4s4.24-9.4,9.45-9.4,9.45,4.22,9.45,9.4-4.24,9.4-9.45,9.4Zm0-17.79c-4.66,0-8.45,3.77-8.45,8.4s3.79,8.4,8.45,8.4,8.45-3.77,8.45-8.4-3.79-8.4-8.45-8.4Zm0,16.59c-4.54,0-8.24-3.68-8.24-8.19s3.7-8.19,8.24-8.19,8.24,3.68,8.24,8.19-3.7,8.19-8.24,8.19Zm0-15.39c-3.99,0-7.24,3.23-7.24,7.19s3.25,7.19,7.24,7.19,7.24-3.23,7.24-7.19-3.25-7.19-7.24-7.19Z"/>
  </g>
  <g>
    <path class="cls-1" d="m20.32,46.02h-2.66c-.55,0-.99-.44-.99-.99v-1.85h-1.85c-.55,0-1-.44-1-.99v-2.63c0-.55.45-.99,1-.99h1.85v-1.85c0-.54.44-.98.99-.98h2.67c.54,0,.99.44.99.98v1.85h1.86c.55,0,.99.44.99.99v2.64c0,.54-.45.99-.99.99h-1.86v1.85c0,.54-.45.99-.99.99Zm-2.44-1.2h2.22v-2.83h2.85v-2.2h-2.85v-2.83h-2.22v2.83h-2.85v2.2h2.85v2.83Zm5.29-5.04h.01-.01Z"/>
    <path class="cls-1" d="m20.33,46.15h-2.66c-.62,0-1.12-.5-1.12-1.11v-1.72h-1.73c-.62,0-1.12-.5-1.12-1.12v-2.63c0-.62.5-1.12,1.12-1.12h1.73v-1.73c0-.61.5-1.1,1.11-1.1h2.67c.61,0,1.11.5,1.11,1.1v1.73h1.73c.62,0,1.12.5,1.12,1.11v2.64c0,.61-.5,1.11-1.12,1.11h-1.73v1.72c0,.61-.5,1.11-1.12,1.11Zm-5.5-7.44c-.48,0-.87.39-.87.87v2.63c0,.48.39.87.87.87h1.98v1.97c0,.48.39.86.87.86h2.66c.48,0,.87-.39.87-.86v-1.97h1.98c.48,0,.87-.39.87-.86v-2.64c0-.48-.39-.86-.87-.86h-1.98v-1.98c0-.47-.39-.85-.86-.85h-2.67c-.47,0-.86.38-.86.85v1.98h-1.98Zm5.41,6.24h-2.47v-2.83h-2.85v-2.46h2.85v-2.83h2.47v2.83h2.85v2.46h-2.85v2.83Zm-2.22-.25h1.97v-2.83h2.85v-1.96h-2.85v-2.83h-1.97v2.83h-2.85v1.96h2.85v2.83Zm5.17-4.79v-.25s0,0,0,0v.25Z"/>
  </g>
</svg>