<?xml version="1.0" encoding="UTF-8"?>
<svg id="Layer_1" data-name="Layer 1" xmlns="http://www.w3.org/2000/svg" viewBox="0 0 60 60">
  <defs>
    <style>
      .cls-1 {
        fill: #37464c;
        stroke-width: 0px;
      }
    </style>
  </defs>
  <path class="cls-1" d="m56,50c-.55,0-1-.45-1-1v-13c0-1.1-.9-2-2-2h-2c-1.1,0-2,.9-2,2v6c0,1.1-.9,2-2,2h-7c-.55,0-1,.45-1,1s.45,1,1,1h10c.55,0,1,.45,1,1s-.45,1-1,1h-10c-1.65,0-3-1.35-3-3s1.35-3,3-3h7v-6c0-2.21,1.79-4,4-4h2c2.21,0,4,1.79,4,4v13c0,.55-.45,1-1,1Z"/>
  <path class="cls-1" d="m6,50c-.55,0-1-.45-1-1v-13c0-2.21,1.79-4,4-4h2c2.21,0,4,1.79,4,4v6h7c1.65,0,3,1.35,3,3s-1.35,3-3,3h-10c-.55,0-1-.45-1-1s.45-1,1-1h10c.55,0,1-.45,1-1s-.45-1-1-1h-7c-1.1,0-2-.9-2-2v-6c0-1.1-.9-2-2-2h-2c-1.1,0-2,.9-2,2v13c0,.55-.45,1-1,1Z"/>
  <path class="cls-1" d="m52,32c-2.76,0-5-2.24-5-5s2.24-5,5-5,5,2.24,5,5-2.24,5-5,5Zm0-8c-1.65,0-3,1.35-3,3s1.35,3,3,3,3-1.35,3-3-1.35-3-3-3Z"/>
  <path class="cls-1" d="m10,32c-2.76,0-5-2.24-5-5s2.24-5,5-5,5,2.24,5,5-2.24,5-5,5Zm0-8c-1.65,0-3,1.35-3,3s1.35,3,3,3,3-1.35,3-3-1.35-3-3-3Z"/>
  <path class="cls-1" d="m46.61,56H15.39c-.64,0-1.25-.31-1.62-.83-.37-.52-.48-1.19-.27-1.8l2.23-6.68,1.9.63-2.23,6.68h31.23l-2.23-6.68,1.9-.63,2.23,6.68c.2.61.1,1.28-.28,1.8-.38.52-.98.83-1.62.83Z"/>
  <path class="cls-1" d="m43.05,43.32l-1.77-5.32h-20.56l-1.77,5.32-1.9-.63,1.77-5.32c.27-.82,1.04-1.37,1.9-1.37h20.56c.86,0,1.62.55,1.9,1.37l1.77,5.32-1.9.63Z"/>
  <path class="cls-1" d="m40,31c-.26,0-.52-.1-.71-.29l-4.71-4.71h-3.59c-2.21,0-4-1.79-4-4v-1h2v1c0,1.1.9,2,2,2h4c.27,0,.52.11.71.29l3.29,3.29v-2.59c0-.55.45-1,1-1h3c1.1,0,2-.9,2-2v-8c0-1.1-.9-2-2-2h-3v-2h3c2.21,0,4,1.79,4,4v8c0,2.21-1.79,4-4,4h-2v4c0,.4-.24.77-.62.92-.12.05-.25.08-.38.08Z"/>
  <path class="cls-1" d="m20,27c-.13,0-.26-.02-.38-.08-.37-.15-.62-.52-.62-.92v-4h-2c-2.21,0-4-1.79-4-4v-10c0-2.21,1.79-4,4-4h20c2.21,0,4,1.79,4,4v10c0,2.21-1.79,4-4,4h-11.59l-4.71,4.71c-.19.19-.45.29-.71.29Zm-3-21c-1.1,0-2,.9-2,2v10c0,1.1.9,2,2,2h3c.55,0,1,.45,1,1v2.59l3.29-3.29c.19-.19.44-.29.71-.29h12c1.1,0,2-.9,2-2v-10c0-1.1-.9-2-2-2h-20Z"/>
  <path class="cls-1" d="m33,15c-1.1,0-2-.9-2-2s.9-2,2-2,2,.9,2,2-.9,2-2,2Zm0-2h0s0,0,0,0Z"/>
  <path class="cls-1" d="m27,15c-1.1,0-2-.9-2-2s.9-2,2-2,2,.9,2,2-.9,2-2,2Zm0-2h0s0,0,0,0Z"/>
  <path class="cls-1" d="m21,15c-1.1,0-2-.9-2-2s.9-2,2-2,2,.9,2,2-.9,2-2,2Zm0-2h0s0,0,0,0Z"/>
</svg>