<?xml version="1.0" encoding="UTF-8"?>
<svg id="Layer_1" data-name="Layer 1" xmlns="http://www.w3.org/2000/svg" viewBox="0 0 60 60">
  <defs>
    <style>
      .cls-1 {
        fill: #37464c;
        stroke-width: 0px;
      }
    </style>
  </defs>
  <path class="cls-1" d="m5,48c-.55,0-1-.45-1-1v-13c0-2.21,1.79-4,4-4h2c2.21,0,4,1.79,4,4v6h7c1.65,0,3,1.35,3,3s-1.35,3-3,3h-12c-.55,0-1-.45-1-1s.45-1,1-1h12c.55,0,1-.45,1-1s-.45-1-1-1h-7c-1.1,0-2-.9-2-2v-6c0-1.1-.9-2-2-2h-2c-1.1,0-2,.9-2,2v13c0,.55-.45,1-1,1Z"/>
  <path class="cls-1" d="m55,48c-.55,0-1-.45-1-1v-13c0-1.1-.9-2-2-2h-2c-1.1,0-2,.9-2,2v6c0,1.1-.9,2-2,2h-7c-.55,0-1,.45-1,1s.45,1,1,1h12c.55,0,1,.45,1,1s-.45,1-1,1h-12c-1.65,0-3-1.35-3-3s1.35-3,3-3h7v-6c0-2.21,1.79-4,4-4h2c2.21,0,4,1.79,4,4v13c0,.55-.45,1-1,1Z"/>
  <path class="cls-1" d="m9,30c-2.76,0-5-2.24-5-5s2.24-5,5-5,5,2.24,5,5-2.24,5-5,5Zm0-8c-1.65,0-3,1.35-3,3s1.35,3,3,3,3-1.35,3-3-1.35-3-3-3Z"/>
  <path class="cls-1" d="m51,30c-2.76,0-5-2.24-5-5s2.24-5,5-5,5,2.24,5,5-2.24,5-5,5Zm0-8c-1.65,0-3,1.35-3,3s1.35,3,3,3,3-1.35,3-3-1.35-3-3-3Z"/>
  <path class="cls-1" d="m30,32c-7.17,0-13-5.83-13-13s5.83-13,13-13,13,5.83,13,13-5.83,13-13,13Zm0-24c-6.07,0-11,4.93-11,11s4.93,11,11,11,11-4.93,11-11-4.93-11-11-11Z"/>
  <path class="cls-1" d="m45.61,54H14.39c-.64,0-1.25-.31-1.62-.83-.38-.52-.48-1.19-.28-1.8l2.23-6.68,1.9.63-2.23,6.68h31.23l-2.23-6.68,1.9-.63,2.23,6.68c.2.61.1,1.28-.27,1.8-.38.52-.98.83-1.62.83Z"/>
  <path class="cls-1" d="m42.05,41.32l-1.77-5.32h-20.56l-1.77,5.32-1.9-.63,1.77-5.32c.27-.82,1.04-1.37,1.9-1.37h20.56c.86,0,1.62.55,1.9,1.37l1.77,5.32-1.9.63Z"/>
  <path class="cls-1" d="m28,24c-.26,0-.51-.1-.71-.29l-4-4c-.39-.39-.39-1.02,0-1.41.39-.39,1.02-.39,1.41,0l3.29,3.29,7.29-7.29c.39-.39,1.02-.39,1.41,0,.39.39.39,1.02,0,1.41l-8,8c-.2.19-.45.29-.71.29Z"/>
</svg>