<?xml version="1.0" encoding="UTF-8"?>
<svg id="Layer_1" data-name="Layer 1" xmlns="http://www.w3.org/2000/svg" viewBox="0 0 60 60">
  <defs>
    <style>
      .cls-1 {
        fill: #37464c;
        stroke-width: 0px;
      }
    </style>
  </defs>
  <g>
    <path class="cls-1" d="m47.2,23.47c-1.89,0-3.73-.58-5.31-1.69-4.17-2.95-5.18-8.74-2.24-12.93,1.42-2.03,3.55-3.38,5.99-3.8,2.44-.42,4.89.13,6.91,1.56,4.17,2.95,5.18,8.74,2.24,12.93-1.42,2.03-3.55,3.38-5.99,3.8-.53.09-1.07.14-1.6.14Zm.04-17.43c-.47,0-.94.04-1.4.12-2.14.37-4.01,1.56-5.26,3.34-2.58,3.67-1.7,8.77,1.97,11.35,1.77,1.25,3.93,1.74,6.07,1.37,2.14-.37,4.01-1.56,5.26-3.34h0c2.58-3.67,1.7-8.77-1.97-11.35-1.38-.98-3-1.49-4.66-1.49Z"/>
    <path class="cls-1" d="m47.2,23.85c-1.98,0-3.89-.61-5.53-1.76-4.34-3.06-5.39-9.1-2.33-13.45,1.48-2.11,3.69-3.51,6.23-3.95,2.53-.44,5.09.13,7.19,1.62,4.34,3.06,5.39,9.1,2.33,13.45-1.48,2.11-3.7,3.51-6.23,3.96-.55.1-1.11.14-1.66.14Zm.04-18.56c-.51,0-1.02.04-1.54.13-2.34.41-4.38,1.7-5.75,3.65-2.82,4.01-1.86,9.58,2.15,12.41,1.93,1.36,4.3,1.9,6.63,1.49,2.34-.41,4.38-1.7,5.75-3.65,2.82-4.01,1.86-9.58-2.15-12.41-1.51-1.07-3.28-1.63-5.09-1.63Zm-.04,17.43c-1.74,0-3.43-.53-4.88-1.56-3.83-2.71-4.76-8.03-2.06-11.88,1.31-1.86,3.26-3.1,5.5-3.49,2.23-.38,4.5.13,6.35,1.43,3.83,2.71,4.76,8.03,2.06,11.88-1.31,1.86-3.26,3.1-5.5,3.49-.49.08-.98.13-1.47.13Zm.03-16.3c-.45,0-.9.04-1.34.12-2.04.36-3.82,1.49-5.02,3.18-2.46,3.5-1.62,8.36,1.88,10.83,1.69,1.19,3.74,1.66,5.79,1.3,2.04-.36,3.82-1.49,5.02-3.18,2.46-3.5,1.62-8.36-1.88-10.83-1.31-.93-2.85-1.42-4.44-1.42Z"/>
  </g>
  <g>
    <path class="cls-1" d="m30.47,42.73c-.45,0-.91-.14-1.31-.42l-2.27-1.6c-.96-.68-1.25-1.97-.66-2.99l10.52-18.22c.16-.27.5-.36.77-.21.27.16.36.5.21.77l-10.52,18.22c-.3.51-.16,1.16.33,1.5l2.27,1.6c.48.34,1.13.26,1.52-.19l13.57-16.07c.2-.24.56-.27.8-.07.24.2.27.56.07.8l-13.57,16.07c-.45.53-1.08.81-1.72.81Z"/>
    <path class="cls-1" d="m30.47,43.1c-.54,0-1.07-.17-1.52-.49l-2.27-1.6c-1.12-.79-1.45-2.29-.76-3.48l10.52-18.22c.26-.45.83-.6,1.28-.34.22.13.37.33.44.57.06.24.03.5-.09.71l-10.52,18.22c-.2.34-.1.78.22,1l2.27,1.6c.32.23.76.17,1.01-.13l13.57-16.07c.16-.19.39-.31.64-.33.26-.03.49.06.69.22.19.16.31.39.33.64.02.25-.06.49-.22.69l-13.57,16.07c-.5.6-1.24.94-2.01.94Zm6.77-23.52c-.07,0-.13.03-.17.09l-10.52,18.22c-.49.85-.26,1.93.55,2.49l2.27,1.6c.78.55,1.91.41,2.53-.33l13.57-16.07c.06-.07.05-.21-.02-.27-.07-.06-.21-.05-.27.02l-13.57,16.07c-.51.6-1.37.71-2.02.26l-2.27-1.6c-.64-.45-.83-1.31-.44-1.99l10.52-18.22c.04-.08,0-.21-.07-.26-.03-.02-.06-.03-.09-.03Z"/>
  </g>
  <g>
    <path class="cls-1" d="m22.89,50.91c-.37,0-.75-.11-1.07-.34h0c-.73-.51-.99-1.48-.62-2.29l2.45-5.43c.23-.51.67-.88,1.21-1.03.54-.15,1.1-.05,1.56.27l1.82,1.28c.45.32.74.82.78,1.38.04.55-.16,1.09-.56,1.48l-4.27,4.14c-.36.35-.82.52-1.29.52Zm-.42-1.26c.28.2.67.17.92-.07l4.27-4.14c.16-.15.24-.36.22-.58-.02-.22-.13-.42-.31-.54l-1.82-1.28c-.18-.13-.4-.16-.61-.11-.21.06-.38.2-.47.4l-2.45,5.43c-.14.32-.04.7.24.9h0Z"/>
    <path class="cls-1" d="m22.89,51.29c-.46,0-.91-.14-1.29-.41-.87-.62-1.19-1.78-.75-2.75l2.45-5.43c.28-.61.8-1.06,1.45-1.24.64-.18,1.33-.06,1.87.33l1.82,1.28c.54.38.89.99.94,1.65.05.67-.19,1.31-.67,1.78l-4.27,4.14c-.42.41-.97.63-1.56.63Zm2.46-9.15c-.13,0-.26.02-.39.05-.43.12-.78.42-.96.82l-2.45,5.43c-.29.65-.08,1.42.5,1.83.57.4,1.39.33,1.89-.15l4.27-4.14c.32-.31.48-.74.45-1.18s-.26-.84-.62-1.1l-1.82-1.28c-.25-.18-.55-.27-.85-.27Zm-2.46,8.02c-.22,0-.44-.07-.63-.2h0c-.43-.31-.59-.88-.37-1.36l2.45-5.43c.14-.3.4-.52.71-.61.32-.09.65-.03.92.16l1.82,1.28c.27.19.44.49.46.82.03.33-.1.65-.33.88l-4.27,4.14c-.21.21-.49.31-.77.31Zm-.2-.81c.14.1.33.08.45-.04l4.27-4.14c.08-.07.12-.18.11-.28s-.06-.2-.15-.26l-1.82-1.28c-.09-.06-.19-.08-.29-.05-.1.03-.19.1-.23.2l-2.45,5.43c-.07.16-.02.34.12.44h0Z"/>
  </g>
  <g>
    <path class="cls-1" d="m16.88,54.46c-1.01,0-1.99-.31-2.83-.9l-.71-.5c-.83-.59-1.84-.81-2.84-.64-1,.17-1.88.73-2.46,1.56-.18.26-.53.32-.79.14-.26-.18-.32-.53-.14-.79.76-1.08,1.89-1.8,3.19-2.03,1.3-.22,2.61.07,3.68.83l.71.5c.83.59,1.84.81,2.84.64,1-.17,1.88-.73,2.46-1.56.18-.26.53-.32.79-.14.26.18.32.53.14.79-.76,1.08-1.89,1.8-3.19,2.03-.28.05-.57.07-.85.07Z"/>
    <path class="cls-1" d="m16.87,54.83c-1.09,0-2.14-.34-3.04-.97l-.71-.5c-.75-.53-1.66-.73-2.56-.58-.9.16-1.69.66-2.22,1.41-.3.42-.88.53-1.31.23-.42-.3-.53-.89-.23-1.31.82-1.16,2.04-1.94,3.44-2.18,1.4-.25,2.81.07,3.96.89l.71.5c.75.53,1.66.73,2.56.58.9-.16,1.69-.66,2.22-1.41.3-.42.88-.53,1.31-.23.42.3.53.89.23,1.31-.82,1.16-2.04,1.94-3.44,2.18-.31.05-.61.08-.92.08h0Zm-5.72-2.85c.85,0,1.69.26,2.4.76l.71.5c.77.55,1.68.83,2.61.83h0c.26,0,.53-.02.79-.07,1.2-.21,2.25-.88,2.95-1.87.06-.09.04-.21-.05-.27-.08-.06-.2-.04-.27.05-.64.92-1.6,1.53-2.7,1.72-1.1.19-2.21-.06-3.12-.7l-.71-.5c-1-.7-2.2-.98-3.4-.77-1.2.21-2.25.87-2.95,1.87-.06.09-.04.21.05.27.08.06.2.04.27-.05.64-.92,1.6-1.52,2.7-1.72.24-.04.48-.06.72-.06Z"/>
  </g>
  <g>
    <path class="cls-1" d="m35.55,31.36c-.11,0-.23-.03-.32-.1-.26-.18-.32-.53-.14-.79l2-2.85c.18-.26.53-.32.79-.14.26.18.32.53.14.79l-2,2.85c-.11.16-.29.24-.46.24Z"/>
    <path class="cls-1" d="m35.55,31.74c-.19,0-.38-.06-.54-.17-.21-.14-.34-.36-.39-.61s.01-.5.16-.7l2-2.85c.3-.42.88-.53,1.31-.23.42.3.53.89.23,1.31l-2,2.85c-.18.25-.46.4-.77.4Zm2-3.98c-.06,0-.12.03-.16.08l-2,2.85c-.05.07-.03.21.05.26.13.09.21.03.27-.05l2-2.85c.06-.09.04-.21-.05-.27-.03-.02-.07-.03-.11-.03Z"/>
  </g>
</svg>