<?xml version="1.0" encoding="UTF-8"?>
<svg id="Layer_1" data-name="Layer 1" xmlns="http://www.w3.org/2000/svg" viewBox="0 0 60 60">
  <defs>
    <style>
      .cls-1 {
        fill: #37464c;
        stroke-width: 0px;
      }
    </style>
  </defs>
  <path class="cls-1" d="m33,56.79h-12c-1.65,0-3-1.35-3-3v-26c0-1.65,1.35-3,3-3h6c.55,0,1,.45,1,1s-.45,1-1,1h-6c-.55,0-1,.45-1,1v26c0,.55.45,1,1,1h12c.55,0,1-.45,1-1v-20c0-.55.45-1,1-1s1,.45,1,1v20c0,1.65-1.35,3-3,3Z"/>
  <path class="cls-1" d="m41,30.79c-.55,0-1-.45-1-1,0-4.96-4.04-9-9-9-.55,0-1-.45-1-1s.45-1,1-1c6.07,0,11,4.93,11,11,0,.55-.45,1-1,1Z"/>
  <path class="cls-1" d="m35,30.79c-.55,0-1-.45-1-1,0-1.65-1.35-3-3-3-.55,0-1-.45-1-1s.45-1,1-1c2.76,0,5,2.24,5,5,0,.55-.45,1-1,1Z"/>
  <path class="cls-1" d="m45.96,28.72h0v-.08h0c0-.52.4-.95.93-.99h0c.55-.04,1.03.38,1.07.93h0v.07h0c0,.52-.41.96-.93.99h0s-.05.01-.07.01h0c-.52,0-.96-.41-1-.93Zm-.72-3.67h0c-.04-.11-.05-.21-.05-.32h0c0-.42.26-.8.68-.94h0c.52-.18,1.09.11,1.26.63h0c.04.11.06.21.06.32h0c0,.42-.27.81-.69.94h0c-.1.04-.21.06-.31.06h0c-.42,0-.82-.27-.95-.69Zm-1.62-3.37c-.11-.17-.16-.35-.16-.54h0c0-.33.16-.65.46-.84h0c.47-.3,1.08-.17,1.38.3h0c.11.17.16.35.16.54h0c0,.33-.16.65-.46.84h0c-.16.11-.35.16-.54.16h0c-.33,0-.65-.16-.84-.46Zm-2.4-2.87h0c-.21-.19-.31-.46-.32-.72h0c0-.25.09-.5.27-.69h0c.38-.41,1.01-.43,1.42-.05h0c.2.19.31.45.31.72h0c.01.24-.08.49-.27.69h0c-.19.21-.46.32-.73.32h0c-.24,0-.49-.09-.68-.27Zm-3.03-2.19h0c-.33-.18-.52-.53-.52-.88h0c0-.16.04-.33.12-.48h0c.27-.48.87-.66,1.36-.39h0c.33.18.52.52.52.88h0c0,.16-.04.32-.12.47h0c-.19.34-.53.52-.88.52h0c-.16,0-.33-.04-.48-.12Zm-3.48-1.37c-.45-.11-.75-.52-.75-.96h0c0-.09,0-.17.03-.25h0c.13-.54.68-.86,1.21-.73h0c.45.12.76.52.76.97h0c0,.08,0,.16-.03.25h0c-.12.45-.53.75-.97.75h0c-.08,0-.17,0-.25-.03Zm-4.71-1.46c0-.55.45-1,1-1h0c.55,0,1,.45,1,1h0c0,.55-.45,1-1,1h0c-.55,0-1-.45-1-1Z"/>
  <path class="cls-1" d="m45.74,38.79h-6.74c-.55,0-1-.45-1-1s.45-1,1-1h6.74c4.55,0,8.26-3.77,8.26-8.41,0-3.4-1.99-6.45-5.07-7.76-.41-.18-.66-.61-.6-1.05.08-.57.12-1.07.12-1.54,0-6.19-4.95-11.23-11.04-11.23-4.8,0-9.02,3.13-10.49,7.8-.09.3-.32.54-.62.64-.3.1-.62.06-.89-.11-1.31-.87-2.84-1.33-4.41-1.33-4.41,0-8,3.59-8,8,0,.5-.37,1-.87,1.06-3.49.44-6.13,3.42-6.13,6.94,0,3.86,3.14,7,7,7h6c.55,0,1,.45,1,1s-.45,1-1,1h-6c-4.96,0-9-4.04-9-9,0-4.24,2.97-7.87,7.03-8.78.4-5.15,4.72-9.22,9.97-9.22,1.55,0,3.06.36,4.44,1.04,2.03-4.85,6.7-8.04,11.97-8.04,7.19,0,13.04,5.94,13.04,13.23,0,.34-.02.7-.05,1.07,3.43,1.77,5.61,5.33,5.61,9.28,0,5.74-4.6,10.41-10.26,10.41Z"/>
  <path class="cls-1" d="m28,52.79h-2c-.55,0-1-.45-1-1s.45-1,1-1h2c.55,0,1,.45,1,1s-.45,1-1,1Z"/>
</svg>