<svg width="152" height="151" xmlns="http://www.w3.org/2000/svg" xmlns:xlink="http://www.w3.org/1999/xlink" xml:space="preserve" overflow="hidden"><g transform="translate(-715 -141)"><path d="M82.748 140.933 23.2288 140.933C20.3095 140.933 17.9187 138.568 17.9187 135.623L17.9187 15.6788C17.9187 12.7595 20.2843 10.3687 23.2288 10.3687L82.748 10.3687C85.6673 10.3687 88.0582 12.7343 88.0582 15.6788L88.0582 79.9293 85.0885 79.9293 85.0885 15.6788C85.0885 14.3953 84.0567 13.3635 82.7732 13.3635L23.2288 13.3635C21.9453 13.3635 20.9135 14.3953 20.9135 15.6788L20.9135 135.623C20.9135 136.907 21.9453 137.939 23.2288 137.939L82.748 137.939C84.0315 137.939 85.0633 136.907 85.0633 135.623L85.0633 108.468 88.033 108.468 88.033 135.623C88.033 138.542 85.6673 140.933 82.7228 140.933Z" fill="#6100DC" transform="matrix(1.00662 0 0 1 715 141)"/><path d="M82.748 142.192 23.2288 142.192C19.6048 142.192 16.6603 139.247 16.6603 135.623L16.6603 15.6788C16.6603 12.0548 19.6048 9.11033 23.2288 9.11033L82.748 9.11033C86.372 9.11033 89.3165 12.0548 89.3165 15.6788L89.3165 81.1625 83.8302 81.1625 83.8302 15.6788C83.8302 15.1 83.352 14.6218 82.7732 14.6218L23.2288 14.6218C22.65 14.6218 22.1718 15.1 22.1718 15.6788L22.1718 135.623C22.1718 136.202 22.65 136.68 23.2288 136.68L82.748 136.68C83.3268 136.68 83.805 136.202 83.805 135.623L83.805 107.21 89.2913 107.21 89.2913 135.623C89.2913 139.247 86.3468 142.192 82.7228 142.192ZM23.2288 11.6522C20.989 11.6522 19.177 13.4642 19.177 15.704L19.177 135.648C19.177 137.888 20.989 139.7 23.2288 139.7L82.748 139.7C84.9878 139.7 86.7998 137.888 86.7998 135.648L86.7998 109.752 86.3468 109.752 86.3468 135.648C86.3468 137.636 84.7362 139.222 82.7732 139.222L23.2288 139.222C21.2407 139.222 19.6552 137.611 19.6552 135.648L19.6552 15.6788C19.6552 13.7158 21.2658 12.1052 23.2288 12.1052L82.748 12.1052C84.7362 12.1052 86.3217 13.7158 86.3217 15.6788L86.3217 78.6458 86.7747 78.6458 86.7747 15.6788C86.7747 13.439 84.9627 11.627 82.7228 11.627L23.2288 11.627Z" fill="#6100DC" transform="matrix(1.00662 0 0 1 715 141)"/><path d="M17.9438 27.8847 88.0582 27.8847 88.0582 30.8543 17.9438 30.8543Z" fill="#6100DC" transform="matrix(1.00662 0 0 1 715 141)"/><path d="M89.3165 32.1127 16.6855 32.1127 16.6855 26.6263 89.3165 26.6263 89.3165 32.1127ZM19.2022 29.596 86.7998 29.596 86.7998 29.143 19.2022 29.143 19.2022 29.596Z" fill="#6100DC" transform="matrix(1.00662 0 0 1 715 141)"/><path d="M17.9438 116.371 88.0582 116.371 88.0582 119.34 17.9438 119.34Z" fill="#6100DC" transform="matrix(1.00662 0 0 1 715 141)"/><path d="M89.3165 120.599 16.6855 120.599 16.6855 115.112 89.3165 115.112 89.3165 120.599ZM19.2022 118.082 86.7998 118.082 86.7998 117.629 19.2022 117.629 19.2022 118.082Z" fill="#6100DC" transform="matrix(1.00662 0 0 1 715 141)"/><path d="M46.7093 126.513 59.9973 126.513 59.9973 129.482 46.7093 129.482Z" fill="#6100DC" transform="matrix(1.00662 0 0 1 715 141)"/><path d="M61.2557 130.741 45.451 130.741 45.451 125.255 61.2557 125.255 61.2557 130.741ZM47.9677 128.224 58.739 128.224 58.739 127.771 47.9677 127.771 47.9677 128.224Z" fill="#6100DC" transform="matrix(1.00662 0 0 1 715 141)"/><path d="M41.3992 19.026 44.8722 19.026 44.8722 21.9957 41.3992 21.9957Z" fill="#6100DC" transform="matrix(1.00662 0 0 1 715 141)"/><path d="M46.1053 23.2792 40.1157 23.2792 40.1157 17.7928 46.1053 17.7928 46.1053 23.2792ZM42.6323 20.7625 43.5887 20.7625 43.5887 20.3095 42.6323 20.3095 42.6323 20.7625Z" fill="#6100DC" transform="matrix(1.00662 0 0 1 715 141)"/><path d="M52.095 19.026 64.6028 19.026 64.6028 21.9957 52.095 21.9957Z" fill="#6100DC" transform="matrix(1.00662 0 0 1 715 141)"/><path d="M65.8612 23.2792 50.8367 23.2792 50.8367 17.7928 65.8612 17.7928 65.8612 23.2792ZM53.3533 20.7625 63.3445 20.7625 63.3445 20.3095 53.3533 20.3095 53.3533 20.7625Z" fill="#6100DC" transform="matrix(1.00662 0 0 1 715 141)"/><path d="M106.933 125.104C103.259 125.104 100.289 122.134 100.289 118.459L100.289 87.5045C100.289 85.4912 98.6533 83.8302 96.6148 83.8302 94.5763 83.8302 92.9405 85.466 92.9405 87.5045L92.9405 96.4387C92.9405 101.85 88.5363 106.254 83.1255 106.254L41.6257 106.254C37.9765 106.254 35.032 103.284 35.032 99.66 35.032 96.036 38.0017 93.0663 41.6257 93.0663L69.309 93.0663C71.2972 93.0663 72.933 91.4305 72.933 89.4423 72.933 87.4542 71.2972 85.8183 69.309 85.8183L59.3933 85.8183C56.2223 85.8183 53.6553 83.2513 53.6553 80.0803L53.6553 78.5955 56.625 78.5955 56.625 80.0803C56.625 81.5903 57.8582 82.8235 59.3682 82.8235L69.2838 82.8235C72.933 82.8235 75.8775 85.7932 75.8775 89.4172 75.8775 93.0412 72.9078 96.0108 69.2838 96.0108L41.6005 96.0108C39.6123 96.0108 37.9765 97.6215 37.9765 99.6348 37.9765 101.648 39.5872 103.259 41.6005 103.259L83.1003 103.259C86.8753 103.259 89.9457 100.188 89.9457 96.4135L89.9457 87.4793C89.9457 83.805 92.9153 80.8353 96.5897 80.8353 100.264 80.8353 103.234 83.805 103.234 87.4793L103.234 118.434C103.234 120.448 104.869 122.109 106.908 122.109 108.947 122.109 110.582 120.473 110.582 118.434L110.582 71.6243 113.552 71.6243 113.552 118.434C113.552 122.109 110.582 125.078 106.908 125.078Z" fill="#6100DC" transform="matrix(1.00662 0 0 1 715 141)"/><path d="M106.933 126.362C102.579 126.362 99.0308 122.813 99.0308 118.459L99.0308 87.5045C99.0308 86.1707 97.9487 85.0885 96.6148 85.0885 95.281 85.0885 94.1988 86.1707 94.1988 87.5045L94.1988 96.4387C94.1988 102.529 89.241 107.512 83.1255 107.512L41.6257 107.512C37.297 107.512 33.7737 103.989 33.7737 99.66 33.7737 95.3313 37.297 91.808 41.6257 91.808L69.309 91.808C70.6177 91.808 71.6747 90.751 71.6747 89.4423 71.6747 88.1337 70.6177 87.0767 69.309 87.0767L59.3682 87.0767C55.5177 87.0767 52.3718 83.9308 52.3718 80.0803L52.3718 77.3372 57.8582 77.3372 57.8582 80.0803C57.8582 80.9108 58.5377 81.5652 59.343 81.5652L69.2838 81.5652C73.6125 81.5652 77.1358 85.0885 77.1358 89.4172 77.1358 93.7458 73.6125 97.2692 69.2838 97.2692L41.6005 97.2692C40.2918 97.2692 39.2348 98.3262 39.2348 99.6348 39.2348 100.944 40.2918 102 41.6005 102L83.1003 102C86.1707 102 88.6622 99.509 88.6622 96.4387L88.6622 87.5045C88.6622 83.1507 92.2107 79.6022 96.5645 79.6022 100.918 79.6022 104.467 83.1507 104.467 87.5045L104.467 118.459C104.467 119.793 105.549 120.875 106.883 120.875 108.217 120.875 109.299 119.793 109.299 118.459L109.299 70.3912 114.785 70.3912 114.785 118.459C114.785 122.813 111.237 126.362 106.883 126.362ZM96.6148 82.5718C99.3328 82.5718 101.547 84.7865 101.547 87.5045L101.547 118.459C101.547 121.429 103.964 123.845 106.933 123.845 109.903 123.845 112.319 121.429 112.319 118.459L112.319 72.9078 111.866 72.9078 111.866 118.459C111.866 121.178 109.651 123.392 106.933 123.392 104.215 123.392 102 121.178 102 118.459L102 87.5045C102 84.5348 99.5845 82.1188 96.6148 82.1188 93.6452 82.1188 91.2292 84.5348 91.2292 87.5045L91.2292 96.4387C91.2292 100.893 87.6052 104.517 83.1507 104.517L41.6508 104.517C38.958 104.517 36.7685 102.328 36.7685 99.6348 36.7685 96.942 38.958 94.7525 41.6508 94.7525L69.3342 94.7525C72.2787 94.7525 74.6695 92.3617 74.6695 89.4172 74.6695 86.4727 72.2787 84.0818 69.3342 84.0818L59.3933 84.0818C57.1787 84.0818 55.3918 82.295 55.3918 80.0803L55.3918 79.8538 54.9388 79.8538 54.9388 80.0803C54.9388 82.5467 56.9522 84.56 59.4185 84.56L69.3593 84.56C72.0522 84.56 74.2417 86.7495 74.2417 89.4423 74.2417 92.1352 72.0522 94.3247 69.3593 94.3247L41.676 94.3247C38.7315 94.3247 36.3407 96.7155 36.3407 99.66 36.3407 102.604 38.7315 104.995 41.676 104.995L83.1758 104.995C87.882 104.995 91.7325 101.17 91.7325 96.4387L91.7325 87.5045C91.7325 84.7865 93.9472 82.5718 96.6652 82.5718Z" fill="#6100DC" transform="matrix(1.00662 0 0 1 715 141)"/><path d="M55.3163 78.218 42.7582 64.5777C40.5938 62.2372 39.411 59.1417 39.411 55.8448L39.411 44.7212C39.5117 42.0032 41.6257 39.8137 44.243 39.8137L45.2748 39.8137 45.2748 42.7833 44.243 42.7833C43.2363 42.7833 42.4058 43.7397 42.4058 44.9225L42.4058 55.8448C42.4058 58.3615 43.337 60.8027 44.9728 62.5643L55.3415 73.8138 65.7102 62.5643C67.346 60.8027 68.2772 58.3615 68.2772 55.8448L68.2772 44.9225C68.2772 43.7397 67.4467 42.7833 66.44 42.7833L65.4082 42.7833 65.4082 39.8137 66.44 39.8137C69.0322 39.8137 71.1713 42.0032 71.272 44.7212L71.272 44.7212 71.272 55.8448C71.272 59.1417 70.0892 62.2372 67.9248 64.5777L55.3667 78.218Z" fill="#6100DC" transform="matrix(1.00662 0 0 1 715 141)"/><path d="M55.3163 80.0552 41.827 65.4333C39.4613 62.8663 38.1527 59.4437 38.1527 55.8448L38.1527 44.7212C38.2785 41.2482 40.9462 38.5553 44.243 38.5553L46.5332 38.5553 46.5332 44.0417 44.243 44.0417C43.9662 44.0417 43.6642 44.394 43.6642 44.9225L43.6642 55.8448C43.6642 58.0343 44.4695 60.1735 45.8788 61.7087L55.3415 71.9515 64.8042 61.7087C66.2135 60.1735 67.0188 58.0343 67.0188 55.8448L67.0188 44.9225C67.0188 44.4192 66.7168 44.0417 66.44 44.0417L64.1498 44.0417 64.1498 38.5553 66.44 38.5553C69.7368 38.5553 72.4045 41.2482 72.5303 44.6708L72.5303 55.8448C72.5303 59.4688 71.2217 62.8663 68.856 65.4333L55.3667 80.0552ZM43.9913 41.072C42.1793 41.1978 40.7448 42.7833 40.6693 44.7715L40.6693 55.8448C40.6693 58.8145 41.7263 61.6332 43.6893 63.722L55.3415 76.3557 66.9937 63.722C68.9315 61.608 70.0137 58.8145 70.0137 55.8448L70.0137 44.7212C69.9382 42.7833 68.5037 41.1978 66.6917 41.072L66.6917 41.525C68.3023 41.6508 69.5607 43.1105 69.5607 44.8973L69.5607 55.8197C69.5607 58.6383 68.5037 61.4067 66.6665 63.3948L55.3667 75.651 44.0668 63.3948C42.2297 61.4067 41.1727 58.6383 41.1727 55.8197L41.1727 44.8973C41.1727 43.1105 42.431 41.6508 44.0417 41.525L44.0417 41.072Z" fill="#6100DC" transform="matrix(1.00662 0 0 1 715 141)"/><path d="M55.3163 66.6665C50.0313 66.6665 45.149 65.534 42.2548 63.6213L43.8907 61.1298C46.2815 62.6902 50.6605 63.6717 55.3163 63.6717 60.2238 63.6717 64.7035 62.6147 67.0188 60.9537L68.7805 63.3697C65.9367 65.4333 60.9033 66.6665 55.3415 66.6665Z" fill="#6100DC" transform="matrix(1.00662 0 0 1 715 141)"/><path d="M55.3163 67.9248C49.7797 67.9248 44.6457 66.7168 41.5502 64.6783L40.4932 63.9988 43.5132 59.4185 44.5702 60.098C46.7345 61.5073 50.9625 62.4385 55.3163 62.4385 59.6702 62.4385 64.2002 61.457 66.2638 59.947L67.2705 59.2172 70.4918 63.6465 69.4852 64.3763C66.44 66.591 61.1298 67.9248 55.2912 67.9248ZM44.0417 63.1935C46.81 64.5777 50.9122 65.4082 55.3163 65.4082 59.9722 65.4082 64.2002 64.5273 66.9433 63.0173L66.6665 62.6398C63.9988 64.0995 59.8715 64.93 55.2912 64.93 51.0128 64.93 46.9358 64.1247 44.2682 62.7908L44.0165 63.1683Z" fill="#6100DC" transform="matrix(1.00662 0 0 1 715 141)"/><path d="M47.0868 45.0987C46.2563 45.0987 45.602 44.4443 45.602 43.6138L45.602 39.1593C45.602 38.3288 46.2563 37.6745 47.0868 37.6745 47.9173 37.6745 48.5717 38.3288 48.5717 39.1593L48.5717 43.6138C48.5717 44.4443 47.9173 45.0987 47.0868 45.0987Z" fill="#6100DC" transform="matrix(1.00662 0 0 1 715 141)"/><path d="M47.0868 46.357C45.5768 46.357 44.3437 45.1238 44.3437 43.6138L44.3437 39.1593C44.3437 37.6493 45.5768 36.4162 47.0868 36.4162 48.5968 36.4162 49.83 37.6493 49.83 39.1593L49.83 43.6138C49.83 45.1238 48.5968 46.357 47.0868 46.357ZM47.0868 38.9328C47.0868 38.9328 46.8603 39.0335 46.8603 39.1593L46.8603 43.6138C46.8603 43.8655 47.3133 43.8655 47.3133 43.6138L47.3133 39.1593C47.3133 39.0335 47.2127 38.9328 47.0868 38.9328Z" fill="#6100DC" transform="matrix(1.00662 0 0 1 715 141)"/><path d="M63.5458 45.0987C62.7153 45.0987 62.061 44.4443 62.061 43.6138L62.061 39.1593C62.061 38.3288 62.7153 37.6745 63.5458 37.6745 64.3763 37.6745 65.0307 38.3288 65.0307 39.1593L65.0307 43.6138C65.0307 44.4443 64.3763 45.0987 63.5458 45.0987Z" fill="#6100DC" transform="matrix(1.00662 0 0 1 715 141)"/><path d="M63.5458 46.357C62.0358 46.357 60.8027 45.1238 60.8027 43.6138L60.8027 39.1593C60.8027 37.6493 62.0358 36.4162 63.5458 36.4162 65.0558 36.4162 66.289 37.6493 66.289 39.1593L66.289 43.6138C66.289 45.1238 65.0558 46.357 63.5458 46.357ZM63.5458 38.9328C63.42 38.9328 63.3193 39.0335 63.3193 39.1593L63.3193 43.6138C63.3193 43.8655 63.7723 43.8655 63.7723 43.6138L63.7723 39.1593C63.7723 39.0335 63.6717 38.9328 63.5458 38.9328Z" fill="#6100DC" transform="matrix(1.00662 0 0 1 715 141)"/><path d="M112.092 72.8575C102.806 72.8575 95.281 65.3075 95.281 56.0462 95.281 46.7848 102.831 39.2348 112.092 39.2348 121.354 39.2348 128.904 46.7848 128.904 56.0462 128.904 65.3075 121.354 72.8575 112.092 72.8575ZM112.092 42.1793C104.467 42.1793 98.2507 48.3955 98.2507 56.021 98.2507 63.6465 104.467 69.8627 112.092 69.8627 119.718 69.8627 125.934 63.6465 125.934 56.021 125.934 48.3955 119.718 42.1793 112.092 42.1793Z" fill="#6100DC" transform="matrix(1.00662 0 0 1 715 141)"/><path d="M112.092 74.1158C102.126 74.1158 94.0227 66.0122 94.0227 56.0462 94.0227 46.0802 102.126 37.9765 112.092 37.9765 122.058 37.9765 130.162 46.0802 130.162 56.0462 130.162 66.0122 122.058 74.1158 112.092 74.1158ZM112.092 40.468C103.511 40.468 96.5393 47.4392 96.5393 56.021 96.5393 64.6028 103.511 71.574 112.092 71.574 120.674 71.574 127.645 64.6028 127.645 56.021 127.645 47.4392 120.674 40.468 112.092 40.468ZM112.092 71.1462C103.762 71.1462 96.9923 64.3763 96.9923 56.0462 96.9923 47.716 103.762 40.9462 112.092 40.9462 120.422 40.9462 127.192 47.716 127.192 56.0462 127.192 64.3763 120.422 71.1462 112.092 71.1462ZM112.092 43.4628C105.146 43.4628 99.509 49.1002 99.509 56.0462 99.509 62.9922 105.146 68.6295 112.092 68.6295 119.038 68.6295 124.676 62.9922 124.676 56.0462 124.676 49.1002 119.038 43.4628 112.092 43.4628Z" fill="#6100DC" transform="matrix(1.00662 0 0 1 715 141)"/><path d="M112.092 63.269C108.116 63.269 104.869 60.0225 104.869 56.0462 104.869 52.0698 108.116 48.8233 112.092 48.8233 116.069 48.8233 119.315 52.0698 119.315 56.0462 119.315 60.0225 116.069 63.269 112.092 63.269ZM112.092 51.8182C109.752 51.8182 107.839 53.7308 107.839 56.0713 107.839 58.4118 109.752 60.3245 112.092 60.3245 114.433 60.3245 116.32 58.4118 116.32 56.0713 116.32 53.7308 114.408 51.8182 112.092 51.8182Z" fill="#6100DC" transform="matrix(1.00662 0 0 1 715 141)"/><path d="M112.092 64.5273C107.411 64.5273 103.611 60.7272 103.611 56.0462 103.611 51.3652 107.411 47.565 112.092 47.565 116.773 47.565 120.574 51.3652 120.574 56.0462 120.574 60.7272 116.773 64.5273 112.092 64.5273ZM112.092 50.0817C108.796 50.0817 106.128 52.7493 106.128 56.0462 106.128 59.343 108.796 62.0107 112.092 62.0107 115.389 62.0107 118.057 59.343 118.057 56.0462 118.057 52.7493 115.389 50.0817 112.092 50.0817ZM112.092 61.5325C109.047 61.5325 106.581 59.0662 106.581 56.021 106.581 52.9758 109.047 50.5095 112.092 50.5095 115.137 50.5095 117.579 52.9758 117.579 56.021 117.579 59.0662 115.112 61.5325 112.092 61.5325ZM112.092 53.0513C110.456 53.0513 109.097 54.3852 109.097 56.0462 109.097 57.7072 110.431 59.041 112.092 59.041 113.753 59.041 115.062 57.7072 115.062 56.0462 115.062 54.3852 113.728 53.0513 112.092 53.0513Z" fill="#6100DC" transform="matrix(1.00662 0 0 1 715 141)"/></g></svg>