<?xml version="1.0" encoding="UTF-8"?>
<svg id="Layer_1" data-name="Layer 1" xmlns="http://www.w3.org/2000/svg" viewBox="0 0 60 60">
  <defs>
    <style>
      .cls-1 {
        fill: #37464c;
        stroke-width: 0px;
      }
    </style>
  </defs>
  <path class="cls-1" d="m30,11.79c-.13,0-.26-.03-.38-.08-.13-.05-.23-.12-.33-.21-.18-.19-.29-.45-.29-.71s.11-.52.29-.71c.1-.09.2-.16.33-.21.18-.08.38-.1.57-.06.07,0,.13.03.19.06.06.02.12.05.18.09.05.03.1.08.15.12.04.05.08.1.12.15.04.06.07.12.09.18.03.06.05.12.06.18.01.07.02.13.02.2,0,.06,0,.13-.02.19,0,.07-.03.13-.06.19-.02.06-.05.12-.09.17-.04.06-.08.11-.12.16-.05.04-.1.08-.15.12-.06.04-.12.07-.18.09-.06.03-.12.05-.19.06-.06,0-.13.02-.19.02Z"/>
  <path class="cls-1" d="m40,57.79h-20c-2.21,0-4-1.79-4-4v-9c0-.55.45-1,1-1s1,.45,1,1v9c0,1.1.9,2,2,2h20c1.1,0,2-.9,2-2v-9c0-.55.45-1,1-1s1,.45,1,1v9c0,2.21-1.79,4-4,4Z"/>
  <path class="cls-1" d="m11,34.79c-1.65,0-3-1.35-3-3s1.35-3,3-3,3,1.35,3,3-1.35,3-3,3Zm0-4c-.55,0-1,.45-1,1s.45,1,1,1,1-.45,1-1-.45-1-1-1Z"/>
  <path class="cls-1" d="m24,24.79c-1.65,0-3-1.35-3-3s1.35-3,3-3,3,1.35,3,3-1.35,3-3,3Zm0-4c-.55,0-1,.45-1,1s.45,1,1,1,1-.45,1-1-.45-1-1-1Z"/>
  <path class="cls-1" d="m36,28.79c-1.65,0-3-1.35-3-3s1.35-3,3-3,3,1.35,3,3-1.35,3-3,3Zm0-4c-.55,0-1,.45-1,1s.45,1,1,1,1-.45,1-1-.45-1-1-1Z"/>
  <path class="cls-1" d="m30,53.79c-1.65,0-3-1.35-3-3s1.35-3,3-3,3,1.35,3,3-1.35,3-3,3Zm0-4c-.55,0-1,.45-1,1s.45,1,1,1,1-.45,1-1-.45-1-1-1Z"/>
  <path class="cls-1" d="m49,17.79c-1.65,0-3-1.35-3-3s1.35-3,3-3,3,1.35,3,3-1.35,3-3,3Zm0-4c-.55,0-1,.45-1,1s.45,1,1,1,1-.45,1-1-.45-1-1-1Z"/>
  <path class="cls-1" d="m50,45.79H10c-.55,0-1-.45-1-1s.45-1,1-1h40c.55,0,1,.45,1,1s-.45,1-1,1Z"/>
  <path class="cls-1" d="m11,41.79c-.55,0-1-.45-1-1v-3c0-.55.45-1,1-1s1,.45,1,1v3c0,.55-.45,1-1,1Z"/>
  <path class="cls-1" d="m15,41.79c-.55,0-1-.45-1-1v-5c0-.55.45-1,1-1s1,.45,1,1v5c0,.55-.45,1-1,1Z"/>
  <path class="cls-1" d="m19,41.79c-.55,0-1-.45-1-1v-10c0-.55.45-1,1-1s1,.45,1,1v10c0,.55-.45,1-1,1Z"/>
  <path class="cls-1" d="m23,41.79c-.55,0-1-.45-1-1v-13c0-.55.45-1,1-1s1,.45,1,1v13c0,.55-.45,1-1,1Z"/>
  <path class="cls-1" d="m27,41.79c-.55,0-1-.45-1-1v-14c0-.55.45-1,1-1s1,.45,1,1v14c0,.55-.45,1-1,1Z"/>
  <path class="cls-1" d="m31,41.79c-.55,0-1-.45-1-1v-12c0-.55.45-1,1-1s1,.45,1,1v12c0,.55-.45,1-1,1Z"/>
  <path class="cls-1" d="m39,41.79c-.55,0-1-.45-1-1v-10c0-.55.45-1,1-1s1,.45,1,1v10c0,.55-.45,1-1,1Z"/>
  <path class="cls-1" d="m35,41.79c-.55,0-1-.45-1-1v-9c0-.55.45-1,1-1s1,.45,1,1v9c0,.55-.45,1-1,1Z"/>
  <path class="cls-1" d="m43,41.79c-.55,0-1-.45-1-1v-16c0-.55.45-1,1-1s1,.45,1,1v16c0,.55-.45,1-1,1Z"/>
  <path class="cls-1" d="m47,41.79c-.55,0-1-.45-1-1v-19c0-.55.45-1,1-1s1,.45,1,1v19c0,.55-.45,1-1,1Z"/>
  <path class="cls-1" d="m37.52,25.5c-.28,0-.57-.12-.76-.35-.36-.42-.3-1.05.12-1.41l9.96-8.43c.42-.36,1.05-.3,1.41.12.36.42.3,1.05-.12,1.41l-9.96,8.43c-.19.16-.42.24-.64.24Z"/>
  <path class="cls-1" d="m34.11,26.16c-.1,0-.21-.02-.32-.05l-8.22-2.74c-.52-.17-.81-.74-.63-1.27.17-.52.74-.81,1.26-.63l8.22,2.74c.52.17.81.74.63,1.27-.14.42-.53.68-.95.68Z"/>
  <path class="cls-1" d="m12.58,31.57c-.3,0-.6-.13-.79-.39-.34-.44-.25-1.07.18-1.4l9.84-7.57c.44-.34,1.07-.25,1.4.18.34.44.25,1.07-.18,1.4l-9.84,7.57c-.18.14-.4.21-.61.21Z"/>
  <path class="cls-1" d="m17,28.17c-.55,0-1-.45-1-1V9.79c0-2.21,1.79-4,4-4h20c2.21,0,4,1.79,4,4v10.08c0,.55-.45,1-1,1s-1-.45-1-1v-10.08c0-1.1-.9-2-2-2h-20c-1.1,0-2,.9-2,2v17.38c0,.55-.45,1-1,1Z"/>
</svg>