<?xml version="1.0" encoding="UTF-8"?>
<svg id="Layer_1" data-name="Layer 1" xmlns="http://www.w3.org/2000/svg" viewBox="0 0 60 60">
  <defs>
    <style>
      .cls-1 {
        fill: #37464c;
        stroke-width: 0px;
      }
    </style>
  </defs>
  <path class="cls-1" d="m45.84,37.97c-.26,0-.51-.1-.71-.29-.39-.39-.39-1.02,0-1.41,3.51-3.51,3.51-9.22,0-12.73-.39-.39-.39-1.02,0-1.41s1.02-.39,1.41,0c4.29,4.29,4.29,11.27,0,15.56-.2.2-.45.29-.71.29Z"/>
  <path class="cls-1" d="m42.77,33.73c-.23,0-.46-.08-.65-.24-.42-.36-.47-.99-.11-1.41,1.01-1.18,1.01-3.18,0-4.36-.36-.42-.31-1.05.11-1.41.42-.36,1.05-.31,1.41.11,1.66,1.95,1.66,5,0,6.95-.2.23-.48.35-.76.35Z"/>
  <path class="cls-1" d="m49.09,42.21c-.26,0-.51-.1-.71-.29-.39-.39-.39-1.02,0-1.41,5.85-5.85,5.85-15.36,0-21.21-.39-.39-.39-1.02,0-1.41s1.02-.39,1.41,0c6.63,6.63,6.63,17.41,0,24.04-.2.2-.45.29-.71.29Z"/>
  <g>
    <g>
      <path class="cls-1" d="m30.52,58.3H11.11c-4.11,0-7.45-3.34-7.45-7.45V11.29c0-4.11,3.34-7.45,7.45-7.45h19.41c4.11,0,7.45,3.34,7.45,7.45v39.56c0,4.11-3.34,7.45-7.45,7.45ZM11.11,5.09c-3.42,0-6.21,2.78-6.21,6.21v39.56c0,3.42,2.78,6.21,6.21,6.21h19.41c3.42,0,6.21-2.78,6.21-6.21V11.29c0-3.42-2.78-6.21-6.21-6.21H11.11Z"/>
      <path class="cls-1" d="m30.52,58.55H11.11c-4.25,0-7.7-3.45-7.7-7.7V11.29c0-4.24,3.45-7.7,7.7-7.7h19.41c4.25,0,7.7,3.45,7.7,7.7v39.56c0,4.24-3.45,7.7-7.7,7.7ZM11.11,4.1c-3.97,0-7.2,3.23-7.2,7.2v39.56c0,3.97,3.23,7.2,7.2,7.2h19.41c3.97,0,7.2-3.23,7.2-7.2V11.29c0-3.97-3.23-7.2-7.2-7.2H11.11Zm19.41,53.21H11.11c-3.56,0-6.46-2.9-6.46-6.46V11.29c0-3.56,2.9-6.46,6.46-6.46h19.41c3.56,0,6.46,2.9,6.46,6.46v39.56c0,3.56-2.9,6.46-6.46,6.46ZM11.11,5.34c-3.28,0-5.96,2.67-5.96,5.96v39.56c0,3.28,2.67,5.96,5.96,5.96h19.41c3.28,0,5.96-2.67,5.96-5.96V11.29c0-3.28-2.67-5.96-5.96-5.96H11.11Z"/>
    </g>
    <g>
      <path class="cls-1" d="m34.28,48.6H7.35c-.33,0-.6-.28-.6-.62V14.17c0-.34.27-.62.6-.62h26.93c.33,0,.6.28.6.62v33.81c0,.34-.27.62-.6.62Zm-26.34-1.24h25.74V14.79H7.94v32.57Z"/>
      <path class="cls-1" d="m34.28,48.85H7.35c-.47,0-.85-.39-.85-.87V14.17c0-.48.38-.87.85-.87h26.93c.47,0,.84.39.84.87v33.81c0,.48-.38.87-.84.87ZM7.35,13.79c-.19,0-.35.17-.35.37v33.81c0,.2.16.37.35.37h26.93c.19,0,.34-.17.34-.37V14.17c0-.2-.15-.37-.34-.37H7.35Zm26.59,33.81H7.69V14.54h26.24v33.07Zm-25.74-.5h25.24V15.04H8.19v32.07Z"/>
    </g>
  </g>
  <path class="cls-1" d="m20.82,29.48c-2.89,0-5.24-2.25-5.24-5.02s2.35-5.02,5.24-5.02,5.24,2.25,5.24,5.02-2.35,5.02-5.24,5.02Zm0-9.04c-2.34,0-4.24,1.8-4.24,4.02s1.9,4.02,4.24,4.02,4.24-1.8,4.24-4.02-1.9-4.02-4.24-4.02Z"/>
  <path class="cls-1" d="m20.82,29.98c-3.17,0-5.74-2.48-5.74-5.52s2.57-5.52,5.74-5.52,5.74,2.48,5.74,5.52-2.57,5.52-5.74,5.52Zm0-9.04c-2.06,0-3.74,1.58-3.74,3.52s1.68,3.52,3.74,3.52,3.74-1.58,3.74-3.52-1.68-3.52-3.74-3.52Z"/>
  <path class="cls-1" d="m30.76,41.52h-1v-5.39c0-1.64-1.41-2.98-3.15-2.98h-11.59c-1.74,0-3.15,1.34-3.15,2.98v5.39h-1v-5.39c0-2.2,1.86-3.98,4.15-3.98h11.59c2.29,0,4.15,1.79,4.15,3.98v5.39Z"/>
  <path class="cls-1" d="m30.26,42.52c-.55,0-1-.45-1-1v-5.39c0-1.37-1.19-2.48-2.65-2.48h-11.59c-1.46,0-2.65,1.11-2.65,2.48v5.39c0,.55-.45,1-1,1s-1-.45-1-1v-5.39c0-2.47,2.09-4.48,4.65-4.48h11.59c2.56,0,4.65,2.01,4.65,4.48v5.39c0,.55-.45,1-1,1Z"/>
  <g>
    <circle class="cls-1" cx="20.97" cy="9.65" r=".84"/>
    <path class="cls-1" d="m20.97,10.8c-.63,0-1.14-.51-1.14-1.14s.51-1.14,1.14-1.14,1.14.51,1.14,1.14-.51,1.14-1.14,1.14Zm0-1.69c-.3,0-.54.24-.54.54s.24.54.54.54.54-.24.54-.54-.24-.54-.54-.54Z"/>
  </g>
  <g>
    <circle class="cls-1" cx="21.59" cy="53.27" r="2.07"/>
    <path class="cls-1" d="m21.59,55.65c-1.31,0-2.38-1.06-2.38-2.37s1.07-2.37,2.38-2.37,2.37,1.06,2.37,2.37-1.06,2.37-2.37,2.37Zm0-4.15c-.98,0-1.78.8-1.78,1.77s.8,1.77,1.78,1.77,1.77-.8,1.77-1.77-.8-1.77-1.77-1.77Z"/>
  </g>
</svg>