<?xml version="1.0" encoding="UTF-8"?>
<svg id="Layer_1" data-name="Layer 1" xmlns="http://www.w3.org/2000/svg" viewBox="0 0 60 60">
  <defs>
    <style>
      .cls-1 {
        fill: #37464c;
        stroke-width: 0px;
      }
    </style>
  </defs>
  <path class="cls-1" d="m39,43c-.16,0-.32-.04-.46-.11-.33-.17-.54-.51-.54-.89v-4c0-.55.45-1,1-1s1,.45,1,1v2.08l7.26-5.08-7.26-5.08v2.08c0,.55-.45,1-1,1h-12c-.55,0-1-.45-1-1s.45-1,1-1h11v-3c0-.37.21-.71.54-.89.33-.17.73-.15,1.04.07l10,7c.27.19.43.49.43.82s-.16.63-.43.82l-10,7c-.17.12-.37.18-.57.18Z"/>
  <path class="cls-1" d="m52,55h-16c-2.21,0-4-1.79-4-4v-9c0-.55.45-1,1-1s1,.45,1,1v9c0,1.1.9,2,2,2h16c1.1,0,2-.9,2-2V11c0-1.1-.9-2-2-2h-16c-1.1,0-2,.9-2,2v7c0,.55-.45,1-1,1s-1-.45-1-1v-7c0-2.21,1.79-4,4-4h16c2.21,0,4,1.79,4,4v40c0,2.21-1.79,4-4,4Z"/>
  <path class="cls-1" d="m40,22c0-.55.45-1,1-1h0c.55,0,1,.45,1,1h0c0,.55-.45,1-1,1h0c-.55,0-1-.45-1-1Zm-4,0c0-.55.45-1,1-1h0c.55,0,1,.45,1,1h0c0,.55-.45,1-1,1h0c-.55,0-1-.45-1-1Zm-4,0c0-.55.45-1,1-1h0c.55,0,1,.45,1,1h0c0,.55-.45,1-1,1h0c-.55,0-1-.45-1-1Zm-4,0c0-.55.45-1,1-1h0c.55,0,1,.45,1,1h0c0,.55-.45,1-1,1h0c-.55,0-1-.45-1-1Zm-4,0c0-.55.45-1,1-1h0c.55,0,1,.45,1,1h0c0,.55-.45,1-1,1h0c-.55,0-1-.45-1-1Zm-4,0c0-.55.45-1,1-1h0c.55,0,1,.45,1,1h0c0,.55-.45,1-1,1h0c-.55,0-1-.45-1-1Z"/>
  <path class="cls-1" d="m21,33c-.2,0-.4-.06-.57-.18l-10-7c-.27-.19-.43-.49-.43-.82s.16-.63.43-.82l10-7c.3-.21.7-.24,1.04-.07.33.17.54.51.54.89v4c0,.55-.45,1-1,1s-1-.45-1-1v-2.08l-7.26,5.08,7.26,5.08v-2.08c0-.55.45-1,1-1h12c.55,0,1,.45,1,1s-.45,1-1,1h-11v3c0,.37-.21.71-.54.89-.15.08-.3.11-.46.11Z"/>
  <path class="cls-1" d="m24,55H8c-2.21,0-4-1.79-4-4V11c0-2.21,1.79-4,4-4h16c2.21,0,4,1.79,4,4v7c0,.55-.45,1-1,1s-1-.45-1-1v-7c0-1.1-.9-2-2-2H8c-1.1,0-2,.9-2,2v40c0,1.1.9,2,2,2h16c1.1,0,2-.9,2-2v-9c0-.55.45-1,1-1s1,.45,1,1v9c0,2.21-1.79,4-4,4Z"/>
  <path class="cls-1" d="m38,38c0-.55.45-1,1-1h0c.55,0,1,.45,1,1h0c0,.55-.45,1-1,1h0c-.55,0-1-.45-1-1Zm-4,0c0-.55.45-1,1-1h0c.55,0,1,.45,1,1h0c0,.55-.45,1-1,1h0c-.55,0-1-.45-1-1Zm-4,0c0-.55.45-1,1-1h0c.55,0,1,.45,1,1h0c0,.55-.45,1-1,1h0c-.55,0-1-.45-1-1Zm-4,0c0-.55.45-1,1-1h0c.55,0,1,.45,1,1h0c0,.55-.45,1-1,1h0c-.55,0-1-.45-1-1Zm-4,0c0-.55.45-1,1-1h0c.55,0,1,.45,1,1h0c0,.55-.45,1-1,1h0c-.55,0-1-.45-1-1Zm-4,0c0-.55.45-1,1-1h0c.55,0,1,.45,1,1h0c0,.55-.45,1-1,1h0c-.55,0-1-.45-1-1Z"/>
  <path class="cls-1" d="m44,13c-.26,0-.52-.11-.71-.29-.18-.19-.29-.45-.29-.71s.11-.52.29-.71c.38-.37,1.05-.37,1.42,0,.18.19.29.45.29.71s-.11.52-.29.71c-.19.18-.45.29-.71.29Z"/>
  <path class="cls-1" d="m16,13c-.07,0-.13-.01-.2-.02-.06-.01-.12-.03-.18-.06-.06-.02-.12-.05-.18-.09-.05-.03-.1-.08-.15-.12-.09-.09-.16-.2-.21-.33-.05-.12-.08-.25-.08-.38,0-.06,0-.13.02-.19.01-.07.03-.13.06-.19.02-.06.05-.12.09-.18.03-.05.08-.1.12-.15l.15-.12c.06-.04.12-.07.18-.09.06-.03.12-.05.18-.06.2-.04.4-.02.58.06.12.05.23.12.33.21.04.05.09.1.12.15.04.06.07.12.09.18.03.06.05.12.06.19.01.06.02.13.02.19,0,.13-.03.26-.08.38-.05.13-.12.24-.21.33-.19.18-.45.29-.71.29Z"/>
  <path class="cls-1" d="m16,51c-1.65,0-3-1.35-3-3s1.35-3,3-3,3,1.35,3,3-1.35,3-3,3Zm0-4c-.55,0-1,.45-1,1s.45,1,1,1,1-.45,1-1-.45-1-1-1Z"/>
  <path class="cls-1" d="m44,51c-1.65,0-3-1.35-3-3s1.35-3,3-3,3,1.35,3,3-1.35,3-3,3Zm0-4c-.55,0-1,.45-1,1s.45,1,1,1,1-.45,1-1-.45-1-1-1Z"/>
</svg>