<?xml version="1.0" encoding="UTF-8"?>
<svg id="Layer_1" data-name="Layer 1" xmlns="http://www.w3.org/2000/svg" viewBox="0 0 60 60">
  <defs>
    <style>
      .cls-1 {
        fill: #37464c;
        stroke-width: 0px;
      }
    </style>
  </defs>
  <path class="cls-1" d="m30.8,57h-14.4c-1.88,0-3.4-1.53-3.4-3.4v-31.2c0-1.88,1.53-3.4,3.4-3.4h7.2c.55,0,1,.45,1,1s-.45,1-1,1h-7.2c-.77,0-1.4.63-1.4,1.4v31.2c0,.77.63,1.4,1.4,1.4h14.4c.77,0,1.4-.63,1.4-1.4v-24c0-.55.45-1,1-1s1,.45,1,1v24c0,1.88-1.53,3.4-3.4,3.4Z"/>
  <path class="cls-1" d="m40.4,25.8c-.55,0-1-.45-1-1,0-6.07-4.93-11-11-11-.55,0-1-.45-1-1s.45-1,1-1c7.17,0,13,5.83,13,13,0,.55-.45,1-1,1Z"/>
  <path class="cls-1" d="m33.2,25.8c-.55,0-1-.45-1-1,0-2.1-1.7-3.8-3.8-3.8-.55,0-1-.45-1-1s.45-1,1-1c3.2,0,5.8,2.6,5.8,5.8,0,.55-.45,1-1,1Z"/>
  <path class="cls-1" d="m46.48,22.75v-.11h0c-.01-.5.37-.94.88-1h0c.55-.06,1.05.33,1.11.88h0s.01.07.01.11h0c0,.5-.38.94-.89,1h-.11c-.51,0-.94-.37-1-.88Zm-.81-3.7h0c-.04-.1-.05-.21-.05-.32h0c0-.42.26-.8.68-.94h0c.53-.18,1.09.1,1.27.63h0c.03.11.05.21.05.32h0c0,.42-.27.8-.69.95h0c-.1.03-.21.05-.31.05h0c-.42,0-.81-.27-.95-.69Zm-1.56-3.44c-.09-.16-.14-.33-.14-.5h0c0-.35.17-.68.49-.87h0c.48-.28,1.09-.12,1.37.35h0c.09.16.14.33.14.5h0c0,.35-.17.68-.49.87h0c-.16.1-.34.14-.51.14h0c-.34,0-.68-.18-.86-.49Zm-2.25-3.05c-.17-.19-.26-.44-.26-.68h0c0-.27.11-.54.33-.74h0c.41-.37,1.04-.34,1.41.07h0c.18.19.26.43.26.67h0c0,.28-.11.55-.32.74h0c-.2.18-.44.26-.68.26h0c-.27,0-.54-.1-.74-.32Zm-2.82-2.53c-.27-.19-.41-.49-.41-.79h0c0-.21.06-.42.19-.6h0c.32-.45.95-.55,1.39-.23h0c.27.2.41.49.42.8h0c0,.21-.06.42-.19.6h0c-.2.27-.5.41-.81.41h0c-.21,0-.41-.06-.59-.19Zm-3.28-1.88h0c-.37-.16-.59-.53-.6-.91h0c0-.13.03-.28.09-.41h0c.22-.5.82-.73,1.32-.51h0c.37.17.59.53.6.91h0c0,.14-.03.28-.09.41h0c-.17.37-.53.6-.92.6h0c-.13,0-.27-.03-.4-.09Zm-3.6-1.16c-.47-.1-.8-.52-.79-.98h0c0-.07,0-.14.02-.21h0c.11-.54.64-.88,1.18-.77h0c.48.1.8.52.8.98h0c0,.07,0,.14-.03.21h0c-.09.47-.51.79-.97.79h0c-.07,0-.14-.01-.21-.02Zm-4.76-1.39c0-.55.44-1,1-1h0c.55,0,1,.45,1,1h0c0,.55-.45,1-1,1h0c-.56,0-1-.45-1-1Z"/>
  <path class="cls-1" d="m24.8,52.2h-2.4c-.55,0-1-.45-1-1s.45-1,1-1h2.4c.55,0,1,.45,1,1s-.45,1-1,1Z"/>
</svg>