<?xml version="1.0" encoding="UTF-8"?>
<svg id="Layer_1" data-name="Layer 1" xmlns="http://www.w3.org/2000/svg" viewBox="0 0 60 60">
  <defs>
    <style>
      .cls-1 {
        fill: #37464c;
        stroke-width: 0px;
      }
    </style>
  </defs>
  <g>
    <path class="cls-1" d="m35.72,8.76c-.27,0-.52-.1-.71-.29s-.29-.44-.29-.71.1-.52.29-.71c.23-.23.58-.34.9-.27.07,0,.13.03.19.06.06.02.12.05.17.09.06.04.11.08.16.12.09.1.16.2.21.33.05.12.08.25.08.38s-.03.26-.08.38-.12.23-.21.33c-.19.19-.44.29-.71.29Z"/>
    <path class="cls-1" d="m50.55,44.26c-.98,0-1.96-.37-2.71-1.12-1.49-1.49-1.49-3.92,0-5.42l1.34-1.34c1.5-1.5,3.93-1.49,5.42,0,1.49,1.49,1.49,3.93,0,5.42l-1.33,1.33c-.75.75-1.73,1.12-2.71,1.12Zm1.34-7c-.47,0-.94.18-1.3.54l-1.34,1.34c-.71.71-.71,1.88,0,2.59s1.88.71,2.59,0l1.33-1.33c.71-.71.71-1.88,0-2.59-.36-.36-.83-.54-1.29-.54Z"/>
    <path class="cls-1" d="m49.55,37.76c-.98,0-1.96-.37-2.71-1.12-1.49-1.49-1.49-3.92,0-5.42l2.34-2.34c1.5-1.5,3.93-1.49,5.42,0,1.49,1.49,1.49,3.93,0,5.42l-2.33,2.33c-.75.75-1.73,1.12-2.71,1.12Zm2.34-8c-.47,0-.94.18-1.3.54l-2.34,2.34c-.71.71-.71,1.88,0,2.59s1.88.71,2.59,0l2.33-2.33c.71-.71.71-1.88,0-2.59-.36-.36-.83-.54-1.29-.54Z"/>
    <path class="cls-1" d="m48.55,30.76c-.98,0-1.96-.37-2.71-1.12-1.49-1.49-1.49-3.92,0-5.42l3.34-3.34c1.5-1.5,3.93-1.49,5.42,0,1.49,1.49,1.49,3.93,0,5.42l-3.33,3.33c-.75.75-1.73,1.12-2.71,1.12Zm3.33-9c-.49,0-.95.19-1.29.54l-3.34,3.34c-.35.35-.54.81-.54,1.29s.19.95.54,1.3c.69.69,1.9.69,2.59,0l3.33-3.33c.35-.35.54-.81.54-1.3s-.19-.95-.54-1.3c-.35-.35-.81-.54-1.3-.54Z"/>
    <path class="cls-1" d="m37.71,44.76h-4c-.55,0-1-.45-1-1s.45-1,1-1h4c.55,0,1,.45,1,1s-.45,1-1,1Z"/>
    <path class="cls-1" d="m10.71,46.76c-.25,0-.51-.1-.71-.29-.39-.39-.39-1.02,0-1.42l.24-.24c.93-.93,1.47-2.22,1.47-3.54v-5.09c0-2.76.82-5.35,2.38-7.49,1.75-2.41,3.94-6.57,4.45-12.68.09-1.06.71-1.99,1.65-2.49.88-.46,1.92-.44,2.77.05,4.19,2.42,4.43,9.32.7,20.51-.17.52-.74.81-1.26.63-.52-.17-.81-.74-.63-1.26,3.29-9.87,3.36-16.31.19-18.14-.35-.2-.68-.09-.84,0-.33.17-.55.51-.58.88-.55,6.58-2.93,11.08-4.83,13.69-1.3,1.8-1.99,3.98-1.99,6.31v5.09c0,1.84-.75,3.65-2.05,4.95l-.24.24c-.2.2-.45.29-.71.29Z"/>
    <path class="cls-1" d="m44.71,50.76h-18c-2.76,0-5-2.24-5-5v-12c0-.11.02-.21.05-.32,3.21-9.62,3.34-16.01.39-18-.28-.19-.44-.5-.44-.83v-6.86c0-2.76,2.24-5,5-5h18c2.76,0,5,2.24,5,5v6.22c0,.55-.45,1-1,1s-1-.45-1-1v-6.22c0-1.65-1.35-3-3-3h-18c-1.65,0-3,1.35-3,3v6.36c3.42,2.81,3.42,9.47,0,19.81v11.84c0,1.65,1.35,3,3,3h18c1.65,0,3-1.35,3-3v-3.17c0-.55.45-1,1-1s1,.45,1,1v3.17c0,2.76-2.24,5-5,5Z"/>
    <path class="cls-1" d="m48.71,23.76c-.55,0-1-.45-1-1v-8.78c0-.55.45-1,1-1s1,.45,1,1v8.78c0,.55-.45,1-1,1Z"/>
    <path class="cls-1" d="m25.71,58.76c-.26,0-.51-.1-.71-.29-.39-.39-.39-1.02,0-1.41l.4-.4c1.11-1.11,2.58-1.81,4.25-2.01,3.98-.48,7.62-2.45,10.24-5.53.36-.42.99-.47,1.41-.11.42.36.47.99.11,1.41-2.95,3.47-7.04,5.68-11.52,6.22-1.22.15-2.29.65-3.08,1.44l-.4.4c-.2.2-.45.29-.71.29Z"/>
    <path class="cls-1" d="m49.33,22.76c-.26,0-.51-.1-.71-.29-.39-.39-.39-1.02,0-1.41l3.05-3.05c.35-.35.54-.81.54-1.3s-.19-.95-.54-1.3c-.53-.52-1.31-.68-2-.4-.51.21-1.09-.03-1.31-.54-.21-.51.03-1.09.54-1.31,1.44-.59,3.07-.26,4.17.83.72.72,1.12,1.69,1.12,2.71s-.4,1.99-1.12,2.71l-3.05,3.05c-.2.2-.45.29-.71.29Z"/>
    <path class="cls-1" d="m48.88,15.31c-.33,0-.65-.16-.84-.46-.3-.47-.16-1.08.31-1.38.19-.12.38-.22.58-.3.51-.21,1.09.04,1.3.55.21.51-.04,1.1-.55,1.3-.09.04-.18.08-.27.14-.17.11-.35.16-.54.16Z"/>
  </g>
  <path class="cls-1" d="m39.59,34.59c-.17,0-.33-.06-.46-.19l-3.42-3.42-3.42,3.42c-.25.25-.67.25-.92,0l-2.77-2.77c-.12-.12-.19-.29-.19-.46s.07-.34.19-.46l3.42-3.42-3.42-3.42c-.25-.25-.25-.67,0-.92l2.77-2.77c.25-.25.67-.25.92,0l3.42,3.42,3.42-3.42c.24-.24.68-.24.92,0l2.77,2.77c.25.25.25.67,0,.92l-3.42,3.42,3.42,3.42c.25.25.25.67,0,.92l-2.77,2.77c-.13.13-.29.19-.46.19Zm-9.61-3.42l1.85,1.85,3.42-3.42c.25-.25.67-.25.92,0l3.42,3.42,1.85-1.85-3.42-3.42c-.25-.25-.25-.67,0-.92l3.42-3.42-1.85-1.85-3.42,3.42c-.24.24-.68.24-.92,0l-3.42-3.42-1.85,1.85,3.42,3.42c.12.12.19.29.19.46s-.07.34-.19.46l-3.42,3.42Z"/>
</svg>