<?xml version="1.0" encoding="UTF-8"?>
<svg id="Layer_1" data-name="Layer 1" xmlns="http://www.w3.org/2000/svg" viewBox="0 0 60 60">
  <defs>
    <style>
      .cls-1 {
        fill: #37464c;
        stroke-width: 0px;
      }
    </style>
  </defs>
  <g>
    <g>
      <path class="cls-1" d="m32.88,56H9.23c-1.16,0-2.11-.94-2.11-2.11V6.23c0-1.16.94-2.11,2.11-2.11h23.65c1.16,0,2.11.94,2.11,2.11v25.53h-1.18V6.23c0-.51-.41-.92-.92-.92H9.23c-.51,0-.92.41-.92.92v47.66c0,.51.41.92.92.92h23.65c.51,0,.92-.41.92-.92v-10.79h1.18v10.79c0,1.16-.94,2.11-2.11,2.11Z"/>
      <path class="cls-1" d="m32.88,56.5H9.23c-1.44,0-2.61-1.17-2.61-2.61V6.23c0-1.44,1.17-2.61,2.61-2.61h23.65c1.44,0,2.61,1.17,2.61,2.61v26.02h-2.18V6.23c0-.23-.19-.42-.42-.42H9.23c-.23,0-.42.19-.42.42v47.66c0,.23.19.42.42.42h23.65c.23,0,.42-.19.42-.42v-11.29h2.18v11.29c0,1.44-1.17,2.61-2.61,2.61ZM9.23,4.63c-.89,0-1.61.72-1.61,1.61v47.66c0,.89.72,1.61,1.61,1.61h23.65c.89,0,1.61-.72,1.61-1.61v-10.29h-.18v10.29c0,.79-.64,1.42-1.42,1.42H9.23c-.79,0-1.42-.64-1.42-1.42V6.23c0-.78.64-1.42,1.42-1.42h23.65c.79,0,1.42.64,1.42,1.42v25.02h.18V6.23c0-.89-.72-1.61-1.61-1.61H9.23Z"/>
    </g>
    <g>
      <rect class="cls-1" x="7.13" y="11.08" width="27.86" height="1.18"/>
      <path class="cls-1" d="m35.49,12.76H6.63v-2.18h28.86v2.18Zm-27.86-1h26.86v-.18H7.63v.18Z"/>
    </g>
    <g>
      <rect class="cls-1" x="7.13" y="46.24" width="27.86" height="1.18"/>
      <path class="cls-1" d="m35.49,47.92H6.63v-2.18h28.86v2.18Zm-27.86-1h26.86v-.18H7.63v.18Z"/>
    </g>
    <g>
      <rect class="cls-1" x="18.56" y="50.27" width="5.28" height="1.18"/>
      <path class="cls-1" d="m24.34,51.95h-6.28v-2.18h6.28v2.18Zm-5.28-1h4.28v-.18h-4.28v.18Z"/>
    </g>
    <g>
      <g>
        <rect class="cls-1" x="16.45" y="7.56" width="1.38" height="1.18"/>
        <path class="cls-1" d="m18.32,9.25h-2.38v-2.18h2.38v2.18Zm-1.38-1h.38v-.18h-.38v.18Z"/>
      </g>
      <g>
        <rect class="cls-1" x="20.7" y="7.56" width="4.97" height="1.18"/>
        <path class="cls-1" d="m26.17,9.25h-5.97v-2.18h5.97v2.18Zm-4.97-1h3.97v-.18h-3.97v.18Z"/>
      </g>
    </g>
  </g>
  <g>
    <path class="cls-1" d="m42.49,49.71c-1.46,0-2.64-1.18-2.64-2.64v-12.3c0-.8-.65-1.46-1.46-1.46s-1.46.65-1.46,1.46v3.55c0,2.15-1.75,3.9-3.9,3.9h-16.49c-1.45,0-2.62-1.18-2.62-2.62s1.18-2.62,2.62-2.62h11c.79,0,1.44-.65,1.44-1.44s-.65-1.44-1.44-1.44h-3.94c-1.26,0-2.28-1.02-2.28-2.28v-.59h1.18v.59c0,.6.49,1.09,1.09,1.09h3.94c1.45,0,2.62,1.18,2.62,2.62s-1.18,2.62-2.62,2.62h-11c-.79,0-1.44.64-1.44,1.44s.64,1.44,1.44,1.44h16.49c1.5,0,2.72-1.22,2.72-2.72v-3.55c0-1.46,1.18-2.64,2.64-2.64s2.64,1.18,2.64,2.64v12.3c0,.8.65,1.46,1.46,1.46s1.46-.65,1.46-1.46v-18.6h1.18v18.6c0,1.46-1.18,2.64-2.64,2.64Z"/>
    <path class="cls-1" d="m42.49,50.21c-1.73,0-3.14-1.41-3.14-3.14v-12.3c0-.53-.43-.96-.96-.96s-.96.43-.96.96v3.55c0,2.42-1.97,4.4-4.4,4.4h-16.49c-1.72,0-3.12-1.4-3.12-3.12s1.4-3.12,3.12-3.12h11c.52,0,.94-.42.94-.94s-.42-.94-.94-.94h-3.95c-1.53,0-2.78-1.25-2.78-2.78v-1.09h2.18v1.09c0,.33.27.59.59.59h3.95c1.72,0,3.12,1.4,3.12,3.12s-1.4,3.12-3.12,3.12h-11c-.52,0-.94.42-.94.94s.42.94.94.94h16.49c1.22,0,2.21-.99,2.21-2.21v-3.55c0-1.73,1.41-3.14,3.14-3.14s3.14,1.41,3.14,3.14v12.3c0,.53.43.96.96.96s.96-.43.96-.96v-19.1h2.18v19.1c0,1.73-1.41,3.14-3.14,3.14Zm-4.1-17.4c1.08,0,1.96.88,1.96,1.96v12.3c0,1.18.96,2.14,2.14,2.14s2.14-.96,2.14-2.14v-18.1h-.18v18.1c0,1.08-.88,1.96-1.96,1.96s-1.96-.88-1.96-1.96v-12.3c0-1.18-.96-2.14-2.14-2.14s-2.14.96-2.14,2.14v3.55c0,1.77-1.44,3.21-3.21,3.21h-16.49c-1.07,0-1.94-.87-1.94-1.94s.87-1.94,1.94-1.94h11c1.17,0,2.12-.95,2.12-2.12s-.95-2.12-2.12-2.12h-3.95c-.88,0-1.59-.71-1.59-1.59v-.09h-.18v.09c0,.98.8,1.78,1.78,1.78h3.95c1.07,0,1.94.87,1.94,1.94s-.87,1.94-1.94,1.94h-11c-1.17,0-2.12.95-2.12,2.12s.95,2.12,2.12,2.12h16.49c1.87,0,3.4-1.52,3.4-3.4v-3.55c0-1.08.88-1.96,1.96-1.96Z"/>
  </g>
  <g>
    <path class="cls-1" d="m21.98,31.08l-4.99-5.42c-.86-.93-1.33-2.16-1.33-3.47v-4.42c.04-1.08.88-1.95,1.92-1.95h.41v1.18h-.41c-.4,0-.73.38-.73.85v4.34c0,1,.37,1.97,1.02,2.67l4.12,4.47,4.12-4.47c.65-.7,1.02-1.67,1.02-2.67v-4.34c0-.47-.33-.85-.73-.85h-.41v-1.18h.41c1.03,0,1.88.87,1.92,1.95h0v4.42c0,1.31-.47,2.54-1.33,3.47l-4.99,5.42Z"/>
    <path class="cls-1" d="m21.98,31.81l-5.36-5.81c-.94-1.02-1.46-2.38-1.46-3.81v-4.42c.05-1.38,1.11-2.45,2.42-2.45h.91v2.18h-.91c-.11,0-.23.14-.23.35v4.34c0,.87.32,1.72.88,2.33l3.76,4.07,3.76-4.07c.56-.61.88-1.46.88-2.33v-4.34c0-.2-.12-.35-.23-.35h-.91v-2.18h.91c1.31,0,2.37,1.07,2.42,2.43v4.44c0,1.44-.52,2.79-1.46,3.81l-5.36,5.81Zm-4.5-15.49c-.72.05-1.29.68-1.32,1.47v4.4c0,1.18.42,2.3,1.2,3.13l4.63,5.02,4.63-5.02c.77-.84,1.2-1.95,1.2-3.13v-4.42c-.03-.77-.6-1.4-1.32-1.45v.18c.64.05,1.14.63,1.14,1.34v4.34c0,1.12-.42,2.22-1.15,3.01l-4.49,4.87-4.49-4.87c-.73-.79-1.15-1.89-1.15-3.01v-4.34c0-.71.5-1.29,1.14-1.34v-.18Z"/>
  </g>
  <g>
    <path class="cls-1" d="m21.98,26.49c-2.1,0-4.04-.45-5.19-1.21l.65-.99c.95.62,2.69,1.01,4.54,1.01,1.95,0,3.73-.42,4.65-1.08l.7.96c-1.13.82-3.13,1.31-5.34,1.31Z"/>
    <path class="cls-1" d="m21.98,26.99c-2.2,0-4.24-.48-5.47-1.29l-.42-.27,1.2-1.82.42.27c.86.56,2.54.93,4.27.93s3.53-.39,4.35-.99l.4-.29,1.28,1.76-.4.29c-1.21.88-3.32,1.41-5.64,1.41Zm-4.48-1.88c1.1.55,2.73.88,4.48.88,1.85,0,3.53-.35,4.62-.95l-.11-.15c-1.06.58-2.7.91-4.52.91-1.7,0-3.32-.32-4.38-.85l-.1.15Z"/>
  </g>
  <g>
    <path class="cls-1" d="m18.71,17.92c-.33,0-.59-.26-.59-.59v-1.77c0-.33.26-.59.59-.59s.59.26.59.59v1.77c0,.33-.26.59-.59.59Z"/>
    <path class="cls-1" d="m18.71,18.42c-.6,0-1.09-.49-1.09-1.09v-1.77c0-.6.49-1.09,1.09-1.09s1.09.49,1.09,1.09v1.77c0,.6-.49,1.09-1.09,1.09Zm0-2.95s-.09.04-.09.09v1.77c0,.1.18.1.18,0v-1.77c0-.05-.04-.09-.09-.09Z"/>
  </g>
  <g>
    <path class="cls-1" d="m25.25,17.92c-.33,0-.59-.26-.59-.59v-1.77c0-.33.26-.59.59-.59s.59.26.59.59v1.77c0,.33-.26.59-.59.59Z"/>
    <path class="cls-1" d="m25.25,18.42c-.6,0-1.09-.49-1.09-1.09v-1.77c0-.6.49-1.09,1.09-1.09s1.09.49,1.09,1.09v1.77c0,.6-.49,1.09-1.09,1.09Zm0-2.95c-.05,0-.09.04-.09.09v1.77c0,.1.18.1.18,0v-1.77c0-.05-.04-.09-.09-.09Z"/>
  </g>
  <g>
    <path class="cls-1" d="m44.54,28.95c-3.69,0-6.68-3-6.68-6.68s3-6.68,6.68-6.68,6.68,3,6.68,6.68-3,6.68-6.68,6.68Zm0-12.19c-3.03,0-5.5,2.47-5.5,5.5s2.47,5.5,5.5,5.5,5.5-2.47,5.5-5.5-2.47-5.5-5.5-5.5Z"/>
    <path class="cls-1" d="m44.54,29.45c-3.96,0-7.18-3.22-7.18-7.18s3.22-7.18,7.18-7.18,7.18,3.22,7.18,7.18-3.22,7.18-7.18,7.18Zm0-13.37c-3.41,0-6.18,2.77-6.18,6.18s2.77,6.18,6.18,6.18,6.18-2.77,6.18-6.18-2.77-6.18-6.18-6.18Zm0,12.19c-3.31,0-6-2.69-6-6s2.69-6,6-6,6,2.69,6,6-2.69,6-6,6Zm0-11c-2.76,0-5,2.24-5,5s2.24,5,5,5,5-2.24,5-5-2.24-5-5-5Z"/>
  </g>
  <g>
    <path class="cls-1" d="m44.54,25.14c-1.58,0-2.87-1.29-2.87-2.87s1.29-2.87,2.87-2.87,2.87,1.29,2.87,2.87-1.29,2.87-2.87,2.87Zm0-4.55c-.93,0-1.69.76-1.69,1.69s.76,1.69,1.69,1.69,1.68-.76,1.68-1.69-.76-1.69-1.68-1.69Z"/>
    <path class="cls-1" d="m44.54,25.64c-1.86,0-3.37-1.51-3.37-3.37s1.51-3.37,3.37-3.37,3.37,1.51,3.37,3.37-1.51,3.37-3.37,3.37Zm0-5.74c-1.31,0-2.37,1.06-2.37,2.37s1.06,2.37,2.37,2.37,2.37-1.06,2.37-2.37-1.06-2.37-2.37-2.37Zm0,4.55c-1.21,0-2.19-.98-2.19-2.19s.98-2.19,2.19-2.19,2.18.98,2.18,2.19-.98,2.19-2.18,2.19Zm0-3.37c-.65,0-1.19.53-1.19,1.19s.53,1.19,1.19,1.19,1.18-.53,1.18-1.19-.53-1.19-1.18-1.19Z"/>
  </g>
</svg>