<?xml version="1.0" encoding="UTF-8"?>
<svg id="Layer_1" data-name="Layer 1" xmlns="http://www.w3.org/2000/svg" viewBox="0 0 60 60">
  <defs>
    <style>
      .cls-1 {
        fill: #37464c;
        stroke-width: 0px;
      }
    </style>
  </defs>
  <path class="cls-1" d="m13,50.86c-.55,0-1-.45-1-1v-.17c0-.26-.11-.52-.29-.71l-8.24-8.24c-.94-.94-1.46-2.2-1.46-3.54v-15.21c0-1.73,1.4-3.13,3.13-3.13,1.57,0,2.9,1.17,3.1,2.72l1.19,9.07c.07.55-.31,1.05-.86,1.12-.55.07-1.05-.31-1.12-.86l-1.19-9.07c-.07-.56-.55-.98-1.12-.98-.62,0-1.13.51-1.13,1.13v15.21c0,.8.31,1.55.88,2.12l8.24,8.24c.57.57.88,1.32.88,2.12v.17c0,.55-.45,1-1,1Z"/>
  <path class="cls-1" d="m27,50.86c-.55,0-1-.45-1-1v-3.82c0-3.8-2.65-7.09-6.31-7.82-.57-.12-1.18-.2-1.81-.26-1.18-.11-2.29-.62-3.11-1.44l-4.34-4.34c-.6-.6-1.52-.69-2.1-.21-.34.28-.54.66-.56,1.09-.02.42.14.84.44,1.14l6.96,6.96c.39.39.39,1.02,0,1.41s-1.02.39-1.41,0l-6.96-6.96c-.7-.7-1.07-1.66-1.02-2.65.05-.99.52-1.91,1.29-2.54,1.37-1.12,3.47-.97,4.78.34l4.35,4.35c.49.49,1.15.8,1.87.86.7.06,1.38.16,2.02.29,4.59.92,7.92,5.04,7.92,9.78v3.82c0,.55-.45,1-1,1Z"/>
  <path class="cls-1" d="m27,56.86c-.55,0-1-.45-1-1v-5h-14v5c0,.55-.45,1-1,1s-1-.45-1-1v-6c0-.55.45-1,1-1h16c.55,0,1,.45,1,1v6c0,.55-.45,1-1,1Z"/>
  <path class="cls-1" d="m49,56.86c-.55,0-1-.45-1-1v-5h-14v5c0,.55-.45,1-1,1s-1-.45-1-1v-6c0-.55.45-1,1-1h16c.55,0,1,.45,1,1v6c0,.55-.45,1-1,1Z"/>
  <path class="cls-1" d="m47,50.86c-.55,0-1-.45-1-1v-.17c0-.8.31-1.55.88-2.12l8.24-8.24c.57-.57.88-1.32.88-2.12v-15.21c0-.62-.51-1.13-1.13-1.13-.57,0-1.05.42-1.12.98l-1.19,9.07c-.07.55-.57.93-1.12.86-.55-.07-.93-.57-.86-1.12l1.19-9.07c.2-1.55,1.54-2.72,3.1-2.72,1.73,0,3.13,1.4,3.13,3.13v15.21c0,1.34-.52,2.59-1.46,3.54l-8.24,8.24c-.19.19-.29.44-.29.71v.17c0,.55-.45,1-1,1Z"/>
  <path class="cls-1" d="m33,50.86c-.55,0-1-.45-1-1v-3.82c0-4.75,3.33-8.86,7.92-9.78.64-.13,1.32-.23,2.02-.29.72-.06,1.38-.37,1.87-.86l4.35-4.35c1.31-1.31,3.41-1.46,4.79-.34.77.63,1.24,1.55,1.29,2.54.05.99-.32,1.95-1.02,2.65l-6.96,6.96c-.39.39-1.02.39-1.41,0s-.39-1.02,0-1.41l6.96-6.96c.3-.3.46-.71.44-1.14-.02-.43-.22-.82-.56-1.09-.59-.48-1.51-.39-2.1.21l-4.35,4.34c-.82.82-1.92,1.33-3.11,1.44-.63.06-1.23.14-1.81.26-3.66.74-6.31,4.03-6.31,7.82v3.82c0,.55-.45,1-1,1Z"/>
  <path class="cls-1" d="m30,36.86c-8.82,0-16-7.18-16-16S21.18,4.86,30,4.86s16,7.18,16,16-7.18,16-16,16Zm0-30c-7.72,0-14,6.28-14,14s6.28,14,14,14,14-6.28,14-14-6.28-14-14-14Z"/>
  <g>
    <path class="cls-1" d="m33.75,23c.03.47-.03.91-.18,1.3-.15.4-.38.75-.69,1.05-.31.3-.7.55-1.16.75-.46.2-.99.33-1.58.4l-.06,1.93s-.01.07-.02.1c-.01.03-.04.06-.08.09-.04.02-.1.04-.17.06-.07.02-.17.03-.28.04-.14,0-.24,0-.32,0-.08,0-.15-.02-.19-.04-.05-.02-.08-.04-.1-.08-.02-.04-.02-.08-.01-.13l.07-1.92c-.28-.02-.55-.04-.79-.08-.25-.04-.46-.08-.66-.13-.19-.05-.36-.11-.49-.17-.14-.06-.24-.12-.31-.18-.07-.06-.11-.13-.14-.23-.03-.1-.05-.24-.06-.41,0-.13-.01-.24,0-.32,0-.09.02-.16.04-.22s.05-.1.08-.12c.04-.02.08-.04.14-.04.08,0,.19.03.34.11s.34.16.58.24c.24.09.53.16.87.23.34.06.75.08,1.22.05.84-.06,1.46-.27,1.87-.63.41-.36.59-.82.55-1.39-.02-.35-.12-.63-.3-.85-.18-.22-.4-.41-.67-.56-.27-.15-.58-.27-.92-.37-.34-.1-.69-.2-1.04-.29-.35-.1-.7-.22-1.04-.35-.34-.14-.65-.31-.93-.53-.28-.22-.5-.49-.69-.82-.18-.33-.29-.74-.33-1.23-.03-.39.01-.77.12-1.12.11-.35.29-.66.55-.94.25-.28.58-.51.98-.7.4-.19.87-.32,1.42-.4l.05-1.79s.01-.07.02-.1c.01-.03.04-.06.08-.09.04-.03.09-.05.16-.06.07-.01.17-.02.29-.03.13,0,.24-.01.32,0,.09,0,.15.02.2.04.04.02.08.05.09.09.01.03.02.08.03.12l-.07,1.78c.18,0,.36.02.56.05.19.03.38.07.55.11.17.04.33.1.47.15.14.06.24.11.29.15.05.04.09.09.12.12.02.04.04.09.06.14s.03.11.04.18c.01.07.02.15.03.24,0,.11.01.21,0,.29,0,.08-.01.15-.03.2-.01.05-.04.09-.06.11-.03.03-.06.04-.1.04-.06,0-.17-.03-.32-.09-.15-.07-.33-.14-.55-.21-.22-.07-.47-.14-.76-.19-.29-.06-.61-.07-.95-.05-.39.03-.73.09-1,.19-.27.1-.49.22-.66.37-.16.15-.28.33-.35.52-.06.2-.09.41-.07.64.02.35.13.64.3.87s.4.41.68.56.58.27.93.36c.34.09.69.19,1.05.29.36.1.71.22,1.06.35.35.13.66.3.94.52.28.22.51.49.7.81.19.33.3.74.33,1.23Z"/>
    <path class="cls-1" d="m29.34,29.1c-.07,0-.13,0-.19,0-.11-.01-.2-.03-.27-.06-.15-.05-.26-.15-.32-.28-.05-.1-.06-.22-.04-.35l.05-1.5c-.16-.02-.32-.04-.47-.06-.26-.04-.49-.09-.69-.14-.21-.06-.4-.12-.55-.19-.17-.07-.3-.15-.4-.24-.12-.11-.21-.24-.26-.4-.04-.13-.07-.29-.08-.5-.01-.15-.01-.28,0-.38,0-.12.03-.22.06-.31.05-.14.13-.25.24-.32.1-.06.2-.09.31-.1.15,0,.32.03.53.15.14.07.32.14.54.22.22.08.49.15.81.21.31.06.69.07,1.12.04.75-.05,1.3-.23,1.65-.54.32-.28.46-.63.43-1.08-.02-.27-.09-.48-.22-.65-.14-.18-.33-.33-.56-.46-.25-.13-.53-.25-.84-.34l-1.04-.29c-.36-.1-.73-.22-1.08-.36-.38-.15-.72-.34-1.02-.58-.31-.25-.58-.56-.78-.93-.21-.37-.33-.84-.37-1.39-.03-.44.02-.86.14-1.26.13-.4.34-.77.63-1.08.28-.31.65-.57,1.09-.78.35-.17.76-.3,1.21-.38l.04-1.48c0-.1.03-.17.05-.23.04-.1.11-.2.22-.27.08-.05.18-.09.3-.12.09-.02.2-.03.34-.04.15-.01.27-.01.38,0,.14,0,.25.04.35.09.16.08.23.2.27.28.03.06.05.15.05.24l-.05,1.45c.07,0,.15.02.23.03.21.03.4.07.58.12.19.05.36.11.52.17.18.08.3.14.38.21.09.07.15.14.2.22.05.08.08.15.1.23.02.06.04.14.05.22.02.07.03.17.04.27,0,.13.01.24,0,.34,0,.1-.02.2-.04.28-.04.12-.09.21-.17.28-.1.09-.21.14-.33.14-.13,0-.28-.03-.5-.13-.14-.06-.31-.13-.51-.19-.21-.07-.45-.13-.72-.18-.25-.05-.54-.06-.85-.04-.36.03-.66.08-.91.17-.22.08-.4.18-.53.29-.12.11-.2.23-.24.37-.05.15-.07.32-.06.5.02.28.09.49.22.66.15.18.33.34.56.46.25.13.53.24.85.33.34.09.7.19,1.06.29.37.1.73.22,1.09.35.38.14.73.34,1.04.57.32.25.58.56.79.93.21.38.34.84.38,1.39h0c.04.52-.03,1.01-.2,1.46-.17.45-.44.85-.78,1.18-.34.33-.77.61-1.28.82-.41.17-.86.3-1.36.39l-.05,1.61c0,.09-.02.16-.04.22-.05.13-.13.22-.24.28-.08.05-.17.08-.28.1-.09.02-.2.04-.34.05-.08,0-.15,0-.21,0Zm-.07-.75c.06,0,.13,0,.22,0,.09,0,.16-.01.21-.03l.06-2.15.32-.04c.55-.07,1.04-.19,1.47-.38.42-.18.77-.41,1.05-.67.27-.26.47-.56.6-.91.13-.34.18-.73.15-1.14-.03-.43-.13-.8-.28-1.07-.16-.28-.36-.52-.6-.7-.25-.19-.53-.35-.84-.46-.34-.13-.68-.24-1.03-.34-.36-.1-.71-.2-1.05-.29-.37-.1-.71-.23-1-.39-.32-.17-.58-.39-.79-.65-.22-.28-.35-.64-.39-1.07-.02-.28.01-.54.09-.79.09-.26.24-.49.45-.69.2-.18.46-.34.78-.45.3-.11.67-.18,1.1-.21.38-.03.73,0,1.05.05.31.06.57.13.81.21.23.08.42.15.57.22,0-.05,0-.11,0-.17,0-.07-.01-.13-.02-.19-.01-.06-.02-.11-.04-.15-.05-.08-.1-.11-.25-.18-.12-.05-.26-.09-.41-.13-.16-.04-.33-.08-.51-.11-.18-.03-.35-.04-.51-.05h-.38s.08-2.03.08-2.03c-.08,0-.15,0-.23,0-.08,0-.15.01-.21.02l-.06,2.02-.32.04c-.5.07-.94.19-1.31.36-.36.17-.65.38-.86.61-.21.23-.37.5-.47.8-.1.3-.13.63-.11.98.03.44.12.8.28,1.07.16.28.36.52.59.7.25.19.53.35.83.47.33.13.67.24,1.01.34l1.04.29c.37.1.7.24,1,.4.32.17.58.39.79.65.22.28.35.64.38,1.06.05.69-.18,1.26-.68,1.7-.47.41-1.17.66-2.09.72-.5.04-.94.02-1.32-.05-.37-.07-.67-.15-.93-.24-.26-.09-.46-.18-.62-.26-.02,0-.03-.02-.05-.02,0,.07,0,.16,0,.26.01.18.03.28.05.33.05.08.11.12.24.18.12.05.27.1.44.15.18.05.39.09.62.13.24.04.49.06.76.08l.37.02-.08,2.15Z"/>
  </g>
</svg>