<?xml version="1.0" encoding="UTF-8"?>
<svg id="Layer_1" data-name="Layer 1" xmlns="http://www.w3.org/2000/svg" viewBox="0 0 60 60">
  <defs>
    <style>
      .cls-1 {
        fill: #37464c;
        stroke-width: 0px;
      }
    </style>
  </defs>
  <path class="cls-1" d="m36,40c-2.21,0-4-1.79-4-4s1.79-4,4-4,4,1.79,4,4-1.79,4-4,4Zm0-6c-1.1,0-2,.9-2,2s.9,2,2,2,2-.9,2-2-.9-2-2-2Z"/>
  <path class="cls-1" d="m46.61,26.4c-.27,0-.54-.11-.73-.32-.37-.4-.35-1.03.04-1.4.39-.38,1.01-.38,1.4.01.01.01.02.02.03.03h0s.03.04.05.06c.34.42.28,1.03-.13,1.38-.19.16-.42.24-.65.24Zm-.06-.95l-.72.58.72-.58Z"/>
  <path class="cls-1" d="m38.12,34.88c-.26,0-.51-.1-.71-.29-.39-.39-.39-1.02,0-1.41l8.49-8.49c.39-.39,1.02-.39,1.41,0s.39,1.02,0,1.41l-8.49,8.49c-.2.2-.45.29-.71.29Z"/>
  <rect class="cls-1" x="32" y="9" width="2" height="6.24"/>
  <rect class="cls-1" x="38" y="9" width="2" height="6.2"/>
  <path class="cls-1" d="m52.8,24.44s-.05,0-.07,0c-.29-.02-.56-.17-.73-.4-1.15-1.53-2.51-2.89-4.04-4.04-.23-.17-.38-.44-.4-.73-.02-.29.08-.57.29-.78l3.29-3.29c.78-.78,2.05-.78,2.83,0l2.83,2.83c.38.38.59.88.59,1.41s-.21,1.04-.59,1.41l-3.29,3.29c-.19.19-.44.29-.71.29Zm-2.74-5.33c1.03.86,1.97,1.8,2.83,2.83l2.5-2.5-2.83-2.83-2.5,2.5Z"/>
  <path class="cls-1" d="m19.2,24.44c-.26,0-.52-.1-.71-.29l-3.29-3.29c-.38-.38-.59-.88-.59-1.41s.21-1.04.59-1.41l2.83-2.83c.78-.78,2.05-.78,2.83,0l3.29,3.29c.21.21.31.49.29.78-.02.29-.17.56-.4.73-1.54,1.15-2.89,2.51-4.04,4.04-.17.23-.44.38-.73.4-.02,0-.05,0-.07,0Zm.25-7.83l-2.83,2.83,2.5,2.5c.85-1.03,1.8-1.97,2.83-2.83l-2.5-2.5Z"/>
  <path class="cls-1" d="m42,10h-12c-1.65,0-3-1.35-3-3v-1c0-2.21,1.79-4,4-4h10c2.21,0,4,1.79,4,4v1c0,1.65-1.35,3-3,3Zm-11-6c-1.1,0-2,.9-2,2v1c0,.55.45,1,1,1h12c.55,0,1-.45,1-1v-1c0-1.1-.9-2-2-2h-10Z"/>
  <path class="cls-1" d="m36,52c-.55,0-1-.45-1-1s.45-1,1-1c7.72,0,14-6.28,14-14,0-1.74-.33-3.46-.97-5.11-.2-.51.05-1.09.57-1.3.51-.2,1.09.05,1.3.57.74,1.88,1.11,3.85,1.11,5.84,0,8.82-7.18,16-16,16Z"/>
  <path class="cls-1" d="m16,56c-7.72,0-14-6.28-14-14s6.28-14,14-14,14,6.28,14,14-6.28,14-14,14Zm0-26c-6.62,0-12,5.38-12,12s5.38,12,12,12,12-5.38,12-12-5.38-12-12-12Z"/>
  <path class="cls-1" d="m36,58c-3.28,0-6.46-.72-9.44-2.14-.5-.24-.71-.83-.47-1.33.24-.5.83-.71,1.33-.47,2.71,1.29,5.59,1.95,8.58,1.95,11.03,0,20-8.97,20-20s-8.97-20-20-20c-7.03,0-13.41,3.61-17.08,9.66-.29.47-.9.62-1.37.34-.47-.29-.62-.9-.34-1.37,4.03-6.65,11.06-10.62,18.79-10.62,12.13,0,22,9.87,22,22s-9.87,22-22,22Z"/>
  <g>
    <path class="cls-1" d="m19.17,43.64c.02.41-.04.78-.18,1.12-.14.34-.35.63-.62.89-.27.25-.61.46-1.02.62-.4.16-.86.26-1.37.31l-.09,1.66s-.01.06-.02.09c-.01.03-.03.05-.07.07-.03.02-.08.04-.15.05-.06.01-.14.02-.25.03-.12,0-.21,0-.28,0-.07,0-.12-.02-.17-.04-.04-.02-.07-.04-.08-.07-.01-.03-.02-.07,0-.11l.1-1.65c-.24-.02-.47-.05-.68-.09-.21-.04-.4-.08-.56-.13-.16-.05-.31-.1-.42-.16-.12-.06-.2-.11-.26-.16-.05-.05-.1-.12-.12-.2-.02-.09-.04-.2-.05-.36,0-.11,0-.2,0-.28,0-.07.02-.14.04-.18s.04-.08.08-.1c.03-.02.07-.03.12-.03.07,0,.16.03.29.1s.29.14.49.22c.2.08.45.15.75.21.29.06.64.09,1.05.07.72-.03,1.26-.2,1.62-.5.36-.3.53-.69.51-1.18-.01-.3-.09-.55-.24-.74-.15-.19-.34-.36-.57-.49-.23-.13-.49-.25-.78-.34-.29-.09-.59-.18-.89-.28-.3-.09-.6-.2-.89-.33-.29-.12-.56-.28-.79-.48-.23-.19-.42-.43-.57-.72-.15-.29-.23-.64-.25-1.07-.01-.34.03-.66.13-.96.1-.3.27-.57.49-.8.22-.23.51-.42.86-.58.35-.15.76-.26,1.23-.31l.08-1.54s.01-.06.02-.09c.01-.03.03-.05.07-.08.03-.02.08-.04.14-.05.06,0,.14-.02.25-.02.11,0,.2,0,.28,0,.07,0,.13.02.17.04.04.02.06.05.08.08.01.03.02.07.02.11l-.1,1.53c.15,0,.31.03.48.06.17.03.32.07.47.11.15.04.28.09.4.14.12.05.2.1.25.14.04.04.08.08.1.11.02.03.03.07.05.12s.02.1.03.16c.01.06.02.13.02.21,0,.1,0,.18,0,.25,0,.07-.01.13-.03.17-.01.04-.03.07-.06.09-.02.02-.05.03-.09.03-.06,0-.15-.03-.27-.09-.12-.06-.28-.12-.47-.19-.19-.07-.41-.13-.65-.18-.25-.06-.52-.08-.82-.06-.34.01-.63.06-.87.14-.24.08-.43.18-.57.3-.15.13-.25.27-.31.44-.06.17-.09.35-.08.55.01.3.09.56.24.75s.34.36.57.49.5.24.79.33c.29.09.59.18.9.28.31.1.61.2.9.32.3.12.56.28.79.47.23.19.43.43.58.72.15.29.24.64.26,1.07Z"/>
    <path class="cls-1" d="m15.3,48.85c-.09,0-.17,0-.22-.01-.09-.01-.18-.03-.25-.06-.14-.05-.24-.15-.29-.28-.04-.1-.06-.22-.03-.33l.07-1.24c-.12-.02-.24-.03-.36-.06-.22-.04-.42-.09-.6-.14-.19-.05-.35-.11-.48-.18-.15-.07-.27-.15-.35-.22-.11-.09-.18-.22-.23-.38-.03-.11-.05-.26-.06-.44,0-.13,0-.24,0-.33,0-.11.03-.2.06-.28.06-.16.16-.24.23-.29.1-.06.19-.08.3-.09.12,0,.29.04.48.14.11.06.26.13.45.2.19.07.42.14.69.2.26.06.58.08.95.06.63-.03,1.1-.17,1.4-.41.27-.23.39-.51.37-.88,0-.22-.06-.4-.16-.53-.11-.15-.27-.29-.46-.39-.21-.12-.45-.22-.71-.3l-.89-.28c-.31-.1-.62-.21-.93-.34-.32-.14-.62-.31-.88-.53-.27-.22-.49-.5-.67-.83-.18-.34-.27-.75-.3-1.23-.02-.39.04-.76.15-1.1.12-.35.32-.67.58-.93.25-.26.58-.49.97-.66.3-.13.65-.23,1.03-.3l.12-1.46c.03-.08.11-.17.21-.24.08-.05.17-.08.28-.1.08-.01.17-.02.3-.03.13,0,.24,0,.33,0,.13.01.23.04.32.09.11.06.2.15.24.27.03.07.04.14.05.23l-.08,1.21s.1.02.15.02c.18.03.35.07.51.12.17.05.31.1.45.16.16.07.26.13.34.19.08.07.14.14.18.21.04.07.07.14.09.21.02.06.03.13.04.2.01.07.02.16.03.25,0,.11,0,.21,0,.3,0,.09-.02.18-.04.26-.03.1-.09.19-.17.26-.09.08-.2.12-.32.12-.13,0-.26-.03-.45-.12-.12-.06-.26-.11-.43-.18-.17-.06-.38-.12-.61-.17-.21-.05-.45-.06-.72-.05-.3.01-.56.05-.77.12-.19.06-.34.14-.44.23-.1.08-.16.18-.2.29-.04.12-.06.26-.06.41,0,.23.06.41.17.54.12.15.27.29.46.39.21.12.45.22.71.3l.9.28c.32.1.63.21.93.33.33.13.63.31.89.53.27.22.5.5.67.83.18.33.28.75.3,1.23h0c.02.46-.05.89-.21,1.28-.16.39-.4.73-.72,1.02-.31.28-.69.51-1.13.69-.35.14-.73.24-1.15.3l-.12,1.55c-.03.08-.1.19-.23.27-.08.04-.16.07-.26.09-.08.02-.18.03-.31.03-.04,0-.08,0-.12,0Zm-.04-.75s.09,0,.13,0c.05,0,.1,0,.14-.01l.1-1.85.32-.03c.47-.04.89-.14,1.26-.29.36-.14.66-.33.9-.54.23-.21.41-.46.53-.75.12-.29.17-.61.15-.96-.02-.37-.09-.67-.21-.91-.13-.24-.29-.44-.49-.61-.21-.17-.44-.31-.7-.41-.29-.12-.58-.22-.87-.31l-.9-.28c-.32-.1-.61-.22-.87-.36-.28-.16-.51-.36-.69-.59-.19-.26-.3-.58-.32-.96-.01-.24.02-.48.1-.69.09-.24.23-.44.42-.6.18-.16.42-.28.7-.38.27-.09.59-.14.97-.15.33-.02.64,0,.92.07.26.06.5.13.7.2.16.06.3.11.42.17,0-.02,0-.04,0-.06,0-.06,0-.11-.01-.16,0-.05-.02-.09-.03-.13-.02-.04-.06-.06-.18-.12-.1-.05-.22-.09-.35-.12-.14-.04-.28-.07-.44-.1-.15-.03-.29-.04-.43-.05l-.38-.02.11-1.74s-.09,0-.14,0c-.05,0-.1,0-.13,0l-.09,1.73-.32.03c-.43.05-.81.14-1.12.28-.3.14-.55.3-.74.5-.19.19-.32.41-.41.66-.09.25-.12.53-.11.82.02.37.09.67.21.91.13.24.29.44.48.6.2.17.44.31.69.42.28.12.57.22.86.31l.89.28c.31.1.6.22.86.37.28.16.5.36.68.59.19.25.3.57.31.95.03.6-.2,1.11-.64,1.49-.42.35-1.04.55-1.85.59-.44.02-.82,0-1.14-.08-.32-.07-.58-.14-.8-.23-.21-.08-.37-.16-.5-.23,0,.04,0,.09,0,.14,0,.16.02.24.03.27.02.04.06.07.18.13.1.05.22.09.37.14.15.05.33.09.52.12.2.04.41.07.64.08l.37.03-.12,1.85Z"/>
  </g>
</svg>