<?xml version="1.0" encoding="UTF-8"?>
<svg id="Layer_1" data-name="Layer 1" xmlns="http://www.w3.org/2000/svg" viewBox="0 0 60 60">
  <defs>
    <style>
      .cls-1 {
        fill: #31353f;
      }

      .cls-1, .cls-2 {
        stroke-width: 0px;
      }

      .cls-2 {
        fill: #37464c;
      }
    </style>
  </defs>
  <g>
    <path class="cls-2" d="m31,55.88c-6.6,0-12.83-2.45-17.65-6.93l-2.85,2.85c-.26.26-.64.36-1,.25-.35-.11-.62-.4-.69-.76l-2.83-14.14c-.07-.33.04-.67.27-.9.24-.24.57-.34.9-.27l14.14,2.83c.36.07.65.34.76.69s.01.74-.25,1l-2.79,2.79c3.3,2.97,7.52,4.6,11.99,4.6.55,0,1,.45,1,1s-.45,1-1,1c-5.33,0-10.35-2.09-14.13-5.88-.39-.39-.39-1.02,0-1.41l2.2-2.2-10.84-2.17,2.17,10.84,2.23-2.23c.19-.19.44-.29.71-.29h0c.27,0,.52.11.71.29,4.54,4.54,10.56,7.04,16.96,7.04,13.23,0,24-10.77,24-24,0-.18,0-.36-.01-.54v-.19c-.02-.55.41-1.01.96-1.03.53-.03,1.01.42,1.03.97v.19c.01.2.02.4.02.61,0,14.34-11.66,26-26,26Z"/>
    <g>
      <path class="cls-2" d="m34.95,49.46c-.07,0-.13,0-.2-.02-.06-.01-.12-.03-.18-.05-.06-.03-.12-.06-.17-.09-.06-.04-.11-.08-.16-.13-.09-.09-.16-.2-.21-.32-.05-.13-.08-.26-.08-.39,0-.26.11-.52.29-.7.05-.05.1-.09.16-.13.05-.03.11-.06.17-.09.06-.02.12-.04.18-.06.33-.06.68.04.91.28.09.09.16.2.21.32.05.12.08.25.08.38s-.03.26-.08.39c-.05.12-.12.23-.21.32-.19.19-.44.29-.71.29Z"/>
      <path class="cls-2" d="m39.03,48.1c-.13,0-.26-.03-.38-.08-.13-.05-.24-.12-.33-.21-.09-.1-.16-.21-.21-.33-.05-.12-.08-.25-.08-.38s.03-.26.08-.38c.05-.13.12-.24.21-.33.1-.09.2-.16.33-.21.18-.08.38-.1.57-.06.07.01.13.03.19.06.06.02.12.05.17.09.06.03.11.08.15.12.1.09.17.2.22.33.05.12.08.25.08.38s-.03.26-.08.38c-.05.12-.12.23-.22.33-.04.04-.09.08-.15.12-.05.04-.11.07-.17.09-.06.03-.12.05-.19.06-.06.01-.13.02-.19.02Z"/>
      <path class="cls-2" d="m42.7,45.85c-.13,0-.26-.03-.39-.08-.12-.05-.23-.12-.32-.21-.05-.05-.09-.1-.13-.15-.03-.06-.06-.12-.09-.18-.02-.06-.04-.12-.05-.18-.02-.07-.02-.13-.02-.2,0-.13.02-.26.07-.38s.13-.23.22-.33c.09-.09.2-.16.32-.21.19-.08.39-.1.58-.06.07.01.13.03.19.06.06.02.12.05.17.09.06.04.11.08.15.12.19.19.3.45.3.71,0,.07-.01.13-.02.2,0,.06-.03.12-.06.18-.02.06-.06.12-.09.18-.04.05-.08.1-.13.15-.04.04-.09.09-.15.12-.05.04-.11.07-.17.09-.06.03-.12.05-.19.06-.06.01-.13.02-.19.02Z"/>
      <path class="cls-2" d="m45.76,42.84c-.26,0-.51-.11-.7-.3-.1-.09-.17-.2-.22-.32s-.07-.25-.07-.38c0-.14.02-.26.07-.39.05-.12.12-.23.22-.32.23-.23.58-.34.9-.28.06.02.13.04.19.06.06.03.12.06.17.09.05.04.11.08.15.13.09.09.17.2.22.32.05.13.08.26.08.39s-.03.26-.08.38c-.05.12-.13.23-.22.32-.04.05-.1.09-.15.13-.05.03-.11.06-.17.09-.06.03-.13.04-.19.06-.06,0-.13.02-.2.02Z"/>
      <path class="cls-2" d="m48.08,39.21c-.27,0-.53-.11-.71-.29-.09-.1-.17-.21-.22-.33-.05-.12-.07-.25-.07-.38s.02-.26.07-.38c.05-.13.13-.24.22-.33.28-.28.72-.37,1.09-.22.12.05.23.13.32.22.1.09.17.2.22.33.05.12.08.25.08.38s-.03.26-.08.38-.12.23-.22.33c-.09.09-.2.16-.32.21-.12.05-.25.08-.38.08Z"/>
      <path class="cls-2" d="m49.51,35.15c-.06,0-.13,0-.19-.02-.07-.01-.13-.03-.19-.05-.06-.03-.12-.06-.17-.1-.06-.03-.11-.07-.15-.12-.1-.09-.17-.2-.22-.32-.05-.13-.08-.26-.08-.39,0-.06,0-.13.02-.19.02-.07.03-.13.06-.19.02-.06.06-.12.09-.17.04-.06.08-.11.13-.15.04-.05.09-.09.15-.13.05-.03.11-.07.17-.09.06-.03.12-.04.19-.06.13-.02.26-.02.39,0,.06.02.12.03.19.06.06.02.11.06.17.09.05.04.1.08.15.13.05.04.09.09.12.15.04.05.07.11.1.17.02.06.04.12.05.19.02.06.02.13.02.19,0,.13-.02.26-.07.39-.06.12-.13.23-.22.32-.05.05-.1.09-.15.12-.06.04-.11.07-.17.1-.07.02-.13.04-.19.05-.07.02-.13.02-.2.02Z"/>
      <path class="cls-2" d="m50,30.88c-.06,0-.13-.01-.2-.02-.06-.01-.12-.03-.18-.06-.06-.02-.12-.05-.18-.09-.05-.04-.1-.08-.15-.13-.18-.18-.29-.44-.29-.7,0-.07,0-.13.02-.2.01-.06.03-.12.06-.18.02-.06.05-.12.09-.18.04-.05.08-.1.12-.15.28-.27.72-.37,1.09-.21.06.02.12.05.17.09.06.03.11.08.16.12.18.19.29.44.29.71s-.11.52-.29.7c-.05.05-.1.09-.16.13-.05.04-.11.07-.17.09-.12.05-.25.08-.38.08Z"/>
    </g>
  </g>
  <g>
    <path class="cls-2" d="m6.02,31.64c-.54,0-.98-.43-1-.97v-.19c-.01-.2-.02-.4-.02-.61C5,15.54,16.66,3.88,31,3.88c6.6,0,12.83,2.45,17.66,6.93l2.85-2.85c.26-.26.64-.36,1-.25.35.11.62.4.69.76l2.83,14.14c.07.33-.04.67-.27.9-.24.24-.57.34-.9.27l-14.14-2.83c-.36-.07-.65-.34-.76-.69s-.01-.74.25-1l2.8-2.8c-3.31-2.97-7.53-4.59-12-4.59-.55,0-1-.45-1-1s.45-1,1-1c5.34,0,10.36,2.08,14.14,5.86.39.39.39,1.02,0,1.41l-2.21,2.21,10.84,2.17-2.17-10.84-2.22,2.22c-.19.19-.44.29-.71.29h0c-.27,0-.52-.11-.71-.29-4.54-4.54-10.56-7.04-16.96-7.04-13.23,0-24,10.77-24,24,0,.18,0,.36.01.54v.19c.02.55-.41,1.01-.96,1.03,0,0-.02,0-.03,0Z"/>
    <g>
      <path class="cls-2" d="m27.05,12.29c-.26,0-.52-.1-.71-.29-.18-.18-.29-.44-.29-.71s.11-.52.29-.7c.37-.38,1.05-.38,1.42,0,.18.18.29.44.29.7s-.11.52-.29.71c-.19.19-.45.29-.71.29Z"/>
      <path class="cls-2" d="m22.97,13.66c-.26,0-.52-.11-.71-.29-.09-.1-.16-.21-.21-.33-.05-.12-.08-.25-.08-.38,0-.27.11-.52.29-.71.37-.37,1.04-.37,1.42,0,.18.19.29.44.29.71,0,.13-.03.26-.08.38-.05.12-.12.23-.21.33-.1.09-.21.16-.33.21-.12.05-.25.08-.38.08Z"/>
      <path class="cls-2" d="m19.3,15.91c-.26,0-.52-.11-.7-.3-.1-.09-.17-.2-.22-.32-.05-.12-.08-.25-.08-.38,0-.27.11-.53.3-.71.37-.37,1.04-.37,1.41,0,.18.18.29.44.29.71,0,.13-.02.26-.07.38-.05.12-.13.23-.22.32-.19.19-.45.3-.71.3Z"/>
      <path class="cls-2" d="m16.23,18.92c-.26,0-.52-.11-.7-.29-.19-.19-.29-.44-.29-.71s.1-.52.29-.7c.23-.24.57-.34.9-.28.06,0,.13.03.19.06.06.02.11.05.17.09.05.04.1.08.15.13.05.04.09.09.12.15.04.05.07.11.1.17.02.06.04.12.05.19.02.06.02.13.02.19,0,.07,0,.13-.02.2,0,.06-.03.12-.05.18-.03.06-.06.12-.1.18-.03.05-.07.1-.12.15-.05.05-.1.09-.15.12-.06.04-.11.07-.17.09-.06.03-.13.05-.19.06-.07,0-.13.02-.2.02Z"/>
      <path class="cls-2" d="m13.92,22.55c-.26,0-.52-.11-.7-.29-.1-.1-.17-.21-.22-.33-.05-.12-.08-.25-.08-.38,0-.07,0-.13.02-.2.01-.06.03-.12.06-.18.02-.06.06-.12.09-.18.04-.05.08-.1.13-.15.23-.23.57-.34.9-.27.06,0,.12.03.18.06.06.02.12.05.18.09.05.03.1.08.15.12.05.05.09.1.12.15.04.06.07.12.1.18.02.06.04.12.05.18.02.07.02.13.02.2,0,.13-.02.26-.07.38-.06.12-.13.23-.22.33-.05.04-.1.08-.15.12-.06.04-.12.07-.18.09-.06.03-.12.05-.18.06-.07.01-.13.02-.2.02Z"/>
      <path class="cls-2" d="m12.49,26.6c-.27,0-.53-.1-.71-.29-.19-.19-.29-.44-.29-.7s.1-.53.29-.71c.37-.37,1.04-.37,1.41,0,.19.18.3.44.3.71s-.11.52-.3.7c-.18.19-.44.29-.7.29Z"/>
      <path class="cls-2" d="m12,30.88c-.27,0-.52-.11-.71-.29-.09-.1-.16-.2-.21-.33-.05-.12-.08-.25-.08-.38,0-.27.11-.52.29-.71.37-.37,1.04-.37,1.42,0,.04.05.08.1.12.15.04.06.07.12.09.18.03.06.05.12.06.18.01.07.02.13.02.2,0,.26-.11.52-.29.71-.19.18-.45.29-.71.29Z"/>
    </g>
  </g>
  <g>
    <path class="cls-1" d="m36.14,32.15c.03.6-.06,1.14-.27,1.64-.21.5-.51.93-.91,1.3-.4.37-.9.67-1.5.91-.59.24-1.26.39-2.01.46l-.14,2.44s-.02.09-.03.13c-.02.04-.05.08-.1.11-.05.03-.12.05-.22.07-.09.02-.21.03-.36.04-.17,0-.31,0-.41-.01-.1-.01-.18-.03-.24-.06-.06-.02-.1-.06-.12-.11-.02-.05-.03-.1-.01-.16l.15-2.43c-.36-.03-.69-.07-1-.13-.31-.06-.58-.12-.83-.19-.24-.07-.45-.15-.62-.23-.17-.08-.3-.16-.38-.24-.08-.07-.14-.17-.18-.3-.04-.13-.06-.3-.07-.52,0-.16,0-.3,0-.41.01-.11.03-.2.06-.27s.06-.12.11-.15c.05-.03.11-.04.17-.05.1,0,.24.04.42.14s.43.21.73.33c.3.12.67.22,1.1.32.43.09.94.13,1.54.1,1.06-.05,1.85-.29,2.38-.73.53-.44.78-1.02.75-1.74-.02-.44-.14-.8-.35-1.09-.21-.28-.49-.53-.83-.73-.34-.2-.73-.36-1.15-.5-.43-.13-.86-.27-1.31-.41-.44-.14-.88-.3-1.31-.48-.43-.18-.82-.42-1.16-.7-.34-.28-.62-.64-.84-1.05-.22-.42-.34-.94-.37-1.57-.02-.5.04-.97.2-1.41.15-.44.39-.83.72-1.17.33-.34.75-.62,1.26-.85.51-.23,1.12-.38,1.81-.45l.12-2.27s.02-.09.03-.13c.02-.04.05-.08.1-.11.05-.03.12-.06.21-.07.09-.01.21-.03.37-.03.16,0,.3,0,.41,0,.11.01.19.03.25.06.06.03.09.07.11.11.02.04.03.1.03.16l-.15,2.25c.22.01.46.04.7.09.24.05.48.1.69.16.22.06.41.13.59.21.18.08.3.15.36.2.06.06.11.11.14.16.03.05.05.11.07.18s.03.14.05.23c.02.09.03.19.03.3,0,.14,0,.26,0,.37,0,.1-.02.19-.04.25-.02.06-.05.11-.08.14-.04.03-.08.05-.13.05-.08,0-.21-.04-.4-.13-.18-.09-.41-.18-.69-.28-.28-.1-.6-.19-.96-.27-.36-.08-.76-.11-1.2-.09-.5.02-.92.09-1.27.2-.35.11-.63.26-.84.45-.21.18-.36.4-.45.65-.09.25-.13.52-.11.81.02.45.14.82.36,1.1s.5.53.84.73.73.36,1.16.49c.43.13.87.27,1.32.41.45.14.89.3,1.33.47.43.18.82.4,1.17.69.34.28.63.64.85,1.05.22.42.35.94.38,1.57Z"/>
    <path class="cls-2" d="m30.45,39.62c-.12,0-.22,0-.31-.02-.13-.02-.23-.04-.33-.08-.2-.08-.29-.21-.33-.31-.05-.11-.06-.24-.03-.38l.12-2.01c-.24-.03-.46-.06-.68-.1-.32-.06-.61-.13-.86-.2-.26-.08-.49-.16-.68-.25-.21-.1-.36-.2-.47-.3-.13-.12-.23-.28-.28-.48-.04-.16-.07-.36-.08-.61,0-.19,0-.34,0-.46.01-.14.04-.26.08-.36.06-.15.15-.27.26-.34.12-.07.23-.1.36-.1.17-.02.37.05.62.19.17.09.4.2.68.31.28.11.63.21,1.04.3.4.09.88.12,1.44.09.97-.04,1.7-.26,2.16-.65.44-.37.64-.83.61-1.43-.02-.36-.11-.65-.28-.88-.18-.24-.43-.45-.72-.63-.31-.18-.68-.34-1.08-.46l-1.31-.41c-.46-.14-.91-.31-1.35-.49-.46-.2-.88-.45-1.25-.76-.38-.31-.69-.71-.93-1.17-.25-.47-.38-1.05-.42-1.73-.02-.54.05-1.06.22-1.55.17-.49.44-.93.81-1.31.36-.37.82-.68,1.38-.93.47-.21,1.01-.36,1.6-.44l.11-1.96c.01-.11.03-.18.06-.25.03-.07.09-.19.25-.29.09-.06.2-.1.34-.12.11-.02.25-.03.42-.04.19,0,.34,0,.46,0,.16.01.29.05.4.11.13.07.23.18.28.31.03.08.05.17.05.27l-.12,1.93c.12.02.25.03.37.06.26.05.5.11.73.17.23.07.44.14.63.23.22.1.36.18.45.26.1.09.17.17.22.26.05.09.08.18.11.27.02.07.04.17.06.27.02.09.03.21.04.34,0,.16,0,.3,0,.41,0,.13-.03.24-.06.33-.04.13-.11.23-.2.31-.1.09-.22.14-.36.14-.14.01-.33-.04-.58-.17-.17-.08-.39-.17-.66-.27-.26-.09-.57-.18-.91-.26-.33-.07-.7-.1-1.1-.08-.46.02-.86.08-1.18.18-.3.1-.54.22-.71.37-.17.14-.28.31-.35.5-.07.2-.1.43-.09.67.02.37.11.67.28.9.19.25.43.46.73.62.31.18.68.33,1.08.45.43.13.87.27,1.33.41.46.14.91.3,1.36.48.46.19.89.44,1.27.75.38.31.7.71.95,1.17.25.47.39,1.05.42,1.73.03.65-.07,1.26-.3,1.8-.23.55-.57,1.03-1.01,1.43-.43.4-.97.73-1.61.98-.54.21-1.14.36-1.79.45l-.12,2.12c0,.09-.03.16-.06.24-.06.13-.14.23-.26.3-.1.05-.21.09-.33.11-.11.02-.25.04-.42.05-.06,0-.12,0-.17,0Zm-.25-.77s.03,0,.05,0c.08.01.2.01.34,0,.12,0,.22-.02.3-.03.02,0,.04,0,.05-.01l.16-2.71.32-.03c.71-.07,1.35-.21,1.91-.43.55-.22,1.01-.5,1.38-.83.36-.33.64-.72.82-1.17.18-.44.26-.94.24-1.48h0c-.02-.57-.14-1.04-.33-1.41-.2-.37-.46-.69-.76-.94-.32-.26-.68-.47-1.07-.63-.42-.17-.86-.33-1.3-.46-.45-.14-.89-.28-1.32-.41-.46-.14-.87-.31-1.24-.52-.38-.22-.71-.5-.95-.83-.26-.35-.41-.79-.43-1.31-.01-.33.03-.66.14-.95.12-.32.3-.59.56-.81.25-.22.58-.39.97-.52.38-.12.84-.2,1.37-.22.47-.02.91.01,1.3.1.38.08.71.18,1,.28.29.11.54.21.73.3.04.02.08.04.11.05,0-.01,0-.03,0-.04,0-.1,0-.21,0-.33,0-.09-.01-.17-.02-.25-.01-.08-.03-.15-.04-.2-.01-.04-.02-.07-.04-.1-.07-.06-.13-.11-.33-.2-.16-.07-.34-.13-.54-.19-.21-.06-.43-.11-.66-.15-.23-.04-.45-.07-.66-.08l-.38-.02.17-2.55s-.03,0-.04,0c-.1,0-.22-.01-.36,0-.14,0-.25.02-.33.03l-.17,2.55-.32.03c-.65.07-1.22.21-1.7.42-.47.21-.85.47-1.14.77-.29.3-.5.65-.64,1.03-.14.39-.2.82-.17,1.27.02.57.13,1.04.33,1.41.2.38.45.69.75.94.31.26.67.48,1.06.64.41.17.84.33,1.27.47l1.31.41c.45.14.86.32,1.23.53.38.22.7.5.95.82.26.35.4.79.43,1.3.04.83-.26,1.52-.88,2.04-.59.49-1.47.77-2.61.82-.63.03-1.18,0-1.64-.11-.46-.1-.84-.21-1.15-.33-.32-.12-.57-.24-.77-.35-.1-.06-.17-.08-.2-.09,0,.02,0,.06,0,.12,0,.1,0,.22,0,.36,0,.24.04.37.05.44.02.06.04.1.07.12.04.03.12.09.29.17.16.08.35.15.56.21.23.07.49.13.79.18.3.06.62.1.97.12l.37.03-.17,2.72Z"/>
  </g>
</svg>