<?xml version="1.0" encoding="UTF-8"?>
<svg id="Layer_1" data-name="Layer 1" xmlns="http://www.w3.org/2000/svg" viewBox="0 0 60 60">
  <defs>
    <style>
      .cls-1 {
        fill: #37464c;
        stroke-width: 0px;
      }
    </style>
  </defs>
  <path class="cls-1" d="m3.95,46.54c-.18,0-.36-.05-.53-.15-.47-.29-.61-.91-.32-1.38l15.96-25.62c.29-.47.91-.61,1.38-.32.47.29.61.91.32,1.38l-15.96,25.62c-.19.3-.52.47-.85.47Z"/>
  <path class="cls-1" d="m35.02,45.43c-.34,0-.66-.17-.85-.48l-15.1-24.5c-.29-.47-.14-1.09.33-1.38.47-.29,1.08-.14,1.38.33l15.1,24.5c.29.47.14,1.09-.33,1.38-.16.1-.34.15-.52.15Z"/>
  <path class="cls-1" d="m30.98,38.88c-.2,0-.4-.06-.58-.18-.45-.32-.56-.94-.24-1.39l10.88-15.34c.32-.45.94-.56,1.39-.24.45.32.56.94.24,1.39l-10.88,15.34c-.19.28-.5.42-.82.42Z"/>
  <path class="cls-1" d="m54.99,45.43c-.34,0-.67-.17-.86-.49l-13.13-21.89c-.28-.47-.13-1.09.34-1.37.47-.29,1.09-.13,1.37.34l13.13,21.89c.28.47.13,1.09-.34,1.37-.16.1-.34.14-.51.14Z"/>
  <path class="cls-1" d="m21.12,32.43c-.87,0-1.82-.11-2.66-.54-.57-.29-1.01-.68-1.4-1.02l-.29-.25c-.32-.27-.74-.59-1.18-.65-.07,0-.15,0-.23,0-.57.07-1.05-.31-1.12-.86-.07-.55.31-1.05.86-1.12.26-.03.52-.03.77,0,.94.14,1.66.66,2.19,1.1l.31.27c.33.29.65.57.99.74.78.39,1.84.35,3.04.26l3.26-.25c.55-.04,1.03.37,1.07.92s-.37,1.03-.92,1.07l-3.25.25c-.43.03-.92.07-1.43.07Z"/>
  <path class="cls-1" d="m42.75,32.42c-.28,0-.57-.04-.86-.12-.61-.17-1.08-.49-1.49-.78-.19-.13-.37-.26-.57-.37-.84-.45-2.05-.37-2.81.19-.44.33-1.07.24-1.4-.2s-.24-1.07.2-1.4c1.38-1.03,3.41-1.18,4.95-.35.27.14.52.31.76.48.33.23.61.42.89.5.83.23,1.81-.46,2.66-1.16.43-.35,1.06-.29,1.41.14.35.43.29,1.06-.14,1.41-.64.53-2.02,1.65-3.6,1.65Z"/>
</svg>