<svg width="151" height="151" xmlns="http://www.w3.org/2000/svg" xmlns:xlink="http://www.w3.org/1999/xlink" xml:space="preserve" overflow="hidden"><g transform="translate(-1005 -141)"><path d="M1088.05 241.138C1074.18 241.138 1062.88 229.838 1062.88 215.971 1062.88 202.105 1074.18 190.805 1088.05 190.805 1101.92 190.805 1113.22 202.105 1113.22 215.971 1113.22 229.838 1101.92 241.138 1088.05 241.138ZM1088.05 195.838C1076.95 195.838 1067.92 204.873 1067.92 215.971 1067.92 227.07 1076.95 236.105 1088.05 236.105 1099.15 236.105 1108.18 227.07 1108.18 215.971 1108.18 204.873 1099.15 195.838 1088.05 195.838Z" fill="#6100DC"/><path d="M1088.05 231.072C1079.72 231.072 1072.95 224.302 1072.95 215.971 1072.95 207.641 1079.72 200.872 1088.05 200.872 1096.38 200.872 1103.15 207.641 1103.15 215.971 1103.15 224.302 1096.38 231.072 1088.05 231.072ZM1088.05 205.905C1082.49 205.905 1077.98 210.41 1077.98 215.971 1077.98 221.533 1082.49 226.038 1088.05 226.038 1093.61 226.038 1098.12 221.533 1098.12 215.971 1098.12 210.41 1093.61 205.905 1088.05 205.905Z" fill="#6100DC"/><path d="M1055.33 271.338C1048.39 271.338 1042.75 265.701 1042.75 258.755 1042.75 251.809 1048.39 246.172 1055.33 246.172 1062.28 246.172 1067.92 251.809 1067.92 258.755 1067.92 265.701 1062.28 271.338 1055.33 271.338ZM1055.33 251.205C1051.18 251.205 1047.78 254.602 1047.78 258.755 1047.78 262.907 1051.18 266.305 1055.33 266.305 1059.49 266.305 1062.88 262.907 1062.88 258.755 1062.88 254.602 1059.49 251.205 1055.33 251.205Z" fill="#6100DC"/><path d="M1120.77 178.221C1113.82 178.221 1108.18 172.584 1108.18 165.638 1108.18 158.692 1113.82 153.055 1120.77 153.055 1127.71 153.055 1133.35 158.692 1133.35 165.638 1133.35 172.584 1127.71 178.221 1120.77 178.221ZM1120.77 158.088C1116.61 158.088 1113.22 161.486 1113.22 165.638 1113.22 169.791 1116.61 173.188 1120.77 173.188 1124.92 173.188 1128.32 169.791 1128.32 165.638 1128.32 161.486 1124.92 158.088 1120.77 158.088Z" fill="#6100DC"/><path d="M1025.13 228.555C1018.19 228.555 1012.55 222.917 1012.55 215.971 1012.55 209.026 1018.19 203.388 1025.13 203.388 1032.08 203.388 1037.72 209.026 1037.72 215.971 1037.72 222.917 1032.08 228.555 1025.13 228.555ZM1025.13 208.422C1020.98 208.422 1017.58 211.819 1017.58 215.971 1017.58 220.124 1020.98 223.521 1025.13 223.521 1029.29 223.521 1032.68 220.124 1032.68 215.971 1032.68 211.819 1029.29 208.422 1025.13 208.422Z" fill="#6100DC"/><path d="M1050.3 190.805C1043.35 190.805 1037.72 185.167 1037.72 178.221 1037.72 171.275 1043.35 165.638 1050.3 165.638 1057.25 165.638 1062.88 171.275 1062.88 178.221 1062.88 185.167 1057.25 190.805 1050.3 190.805ZM1050.3 170.671C1046.15 170.671 1042.75 174.069 1042.75 178.221 1042.75 182.374 1046.15 185.771 1050.3 185.771 1054.45 185.771 1057.85 182.374 1057.85 178.221 1057.85 174.069 1054.45 170.671 1050.3 170.671Z" fill="#6100DC"/><path d="M1128.32 283.922C1119.99 283.922 1113.22 277.152 1113.22 268.822 1113.22 260.491 1119.99 253.721 1128.32 253.721 1136.65 253.721 1143.42 260.491 1143.42 268.822 1143.42 277.152 1136.65 283.922 1128.32 283.922ZM1128.32 258.755C1122.75 258.755 1118.25 263.26 1118.25 268.822 1118.25 274.383 1122.75 278.888 1128.32 278.888 1133.88 278.888 1138.38 274.383 1138.38 268.822 1138.38 263.26 1133.88 258.755 1128.32 258.755Z" fill="#6100DC"/><path d="M1061.2 253.117C1060.69 253.117 1060.17 252.967 1059.74 252.639 1058.6 251.834 1058.35 250.249 1059.18 249.116L1071.59 231.927C1072.4 230.795 1073.98 230.543 1075.11 231.348 1076.25 232.154 1076.5 233.739 1075.67 234.872L1063.26 252.061C1062.76 252.74 1062 253.092 1061.22 253.092Z" fill="#6100DC"/><path d="M1062.88 215.971C1062.88 214.587 1064.02 213.455 1065.4 213.455L1065.4 213.455C1066.78 213.455 1067.92 214.587 1067.92 215.971L1067.92 215.971C1067.92 217.356 1066.78 218.488 1065.4 218.488L1065.4 218.488C1064.02 218.488 1062.88 217.356 1062.88 215.971ZM1052.82 215.971C1052.82 214.587 1053.95 213.455 1055.33 213.455L1055.33 213.455C1056.72 213.455 1057.85 214.587 1057.85 215.971L1057.85 215.971C1057.85 217.356 1056.72 218.488 1055.33 218.488L1055.33 218.488C1053.95 218.488 1052.82 217.356 1052.82 215.971ZM1042.75 215.971C1042.75 214.587 1043.88 213.455 1045.27 213.455L1045.27 213.455C1046.65 213.455 1047.78 214.587 1047.78 215.971L1047.78 215.971C1047.78 217.356 1046.65 218.488 1045.27 218.488L1045.27 218.488C1043.88 218.488 1042.75 217.356 1042.75 215.971ZM1032.68 215.971C1032.68 214.587 1033.82 213.455 1035.2 213.455L1035.2 213.455C1036.58 213.455 1037.72 214.587 1037.72 215.971L1037.72 215.971C1037.72 217.356 1036.58 218.488 1035.2 218.488L1035.2 218.488C1033.82 218.488 1032.68 217.356 1032.68 215.971Z" fill="#6100DC"/><path d="M1070.79 203.841C1070.08 203.841 1069.4 203.564 1068.9 202.986L1055.08 187.382C1054.15 186.35 1054.25 184.74 1055.31 183.834 1056.34 182.902 1057.93 183.003 1058.86 184.06L1072.67 199.663C1073.6 200.695 1073.5 202.306 1072.45 203.212 1071.97 203.64 1071.36 203.841 1070.79 203.841Z" fill="#6100DC"/><path d="M1118.05 259.51C1117.72 259.057 1117.55 258.528 1117.55 258L1117.55 258C1117.55 257.245 1117.87 256.49 1118.53 255.986L1118.53 255.986C1119.66 255.156 1121.22 255.357 1122.08 256.465L1122.08 256.465C1122.4 256.918 1122.58 257.446 1122.58 257.975L1122.58 257.975C1122.58 258.73 1122.25 259.485 1121.6 259.988L1121.6 259.988C1121.14 260.34 1120.59 260.491 1120.06 260.491L1120.06 260.491C1119.31 260.491 1118.55 260.164 1118.05 259.51ZM1111.96 251.507C1111.61 251.054 1111.45 250.525 1111.45 249.997L1111.45 249.997C1111.45 249.242 1111.78 248.487 1112.44 247.983L1112.44 247.983C1113.54 247.128 1115.13 247.354 1115.96 248.462L1115.96 248.462C1116.31 248.915 1116.46 249.443 1116.49 249.947L1116.49 249.947C1116.49 250.727 1116.14 251.482 1115.48 251.985L1115.48 251.985C1115.03 252.337 1114.5 252.488 1113.97 252.488L1113.97 252.488C1113.19 252.488 1112.46 252.161 1111.96 251.507ZM1105.87 243.504C1105.52 243.051 1105.34 242.522 1105.34 241.994L1105.34 241.994C1105.34 241.239 1105.69 240.459 1106.35 239.98L1106.35 239.98C1107.43 239.125 1109.01 239.351 1109.87 240.459L1109.87 240.459C1110.2 240.887 1110.37 241.415 1110.37 241.944L1110.37 241.944C1110.37 242.724 1110.05 243.479 1109.39 243.982L1109.39 243.982C1108.94 244.334 1108.38 244.485 1107.86 244.485L1107.86 244.485C1107.1 244.485 1106.35 244.158 1105.87 243.504ZM1099.75 235.501C1099.43 235.048 1099.25 234.519 1099.25 233.991L1099.25 233.991C1099.22 233.236 1099.58 232.456 1100.23 231.952L1100.23 231.952C1101.34 231.122 1102.92 231.323 1103.75 232.431L1103.75 232.431C1104.11 232.883 1104.28 233.412 1104.28 233.94L1104.28 233.94C1104.28 234.721 1103.93 235.476 1103.28 235.954L1103.28 235.954C1102.82 236.306 1102.29 236.482 1101.77 236.482L1101.77 236.482C1101.01 236.482 1100.26 236.13 1099.75 235.501Z" fill="#6100DC"/><path d="M1100.38 199.512C1099.9 199.512 1099.43 199.387 1099.02 199.11 1097.86 198.355 1097.54 196.794 1098.29 195.637L1113.19 172.71C1113.95 171.552 1115.51 171.225 1116.66 171.98 1117.82 172.735 1118.15 174.296 1117.39 175.453L1102.5 198.38C1102.02 199.11 1101.21 199.538 1100.38 199.538Z" fill="#6100DC"/><path d="M1131.01 236.281C1130.36 236.281 1129.73 236.029 1129.22 235.551 1128.24 234.57 1128.24 232.984 1129.22 232.003 1138.06 223.169 1138.06 208.799 1129.22 199.965 1128.24 198.984 1128.24 197.398 1129.22 196.417 1130.2 195.436 1131.79 195.436 1132.77 196.417 1143.57 207.214 1143.57 224.78 1132.77 235.576 1132.27 236.08 1131.64 236.306 1130.98 236.306Z" fill="#6100DC"/><path d="M1123.28 225.61C1122.7 225.61 1122.13 225.409 1121.65 225.006 1120.59 224.1 1120.46 222.515 1121.37 221.458 1123.91 218.488 1123.91 213.455 1121.37 210.485 1120.46 209.428 1120.59 207.843 1121.65 206.937 1122.7 206.031 1124.29 206.156 1125.2 207.214 1129.37 212.121 1129.37 219.797 1125.2 224.729 1124.69 225.308 1123.99 225.61 1123.28 225.61Z" fill="#6100DC"/><path d="M1139.16 246.952C1138.51 246.952 1137.88 246.7 1137.38 246.222 1136.4 245.24 1136.4 243.655 1137.38 242.673 1144.5 235.551 1148.42 226.063 1148.42 215.971 1148.42 205.88 1144.5 196.417 1137.38 189.27 1136.4 188.288 1136.4 186.703 1137.38 185.721 1138.36 184.74 1139.94 184.74 1140.93 185.721 1149 193.8 1153.46 204.546 1153.46 215.971 1153.46 227.397 1149 238.143 1140.93 246.222 1140.42 246.725 1139.79 246.952 1139.14 246.952Z" fill="#6100DC"/></g></svg>