<?xml version="1.0" encoding="UTF-8"?>
<svg id="Layer_1" data-name="Layer 1" xmlns="http://www.w3.org/2000/svg" viewBox="0 0 60 60">
  <defs>
    <style>
      .cls-1 {
        fill: #37464c;
        stroke-width: 0px;
      }
    </style>
  </defs>
  <g>
    <path class="cls-1" d="m45.46,58.13H15.99c-.32,0-.58-.24-.62-.55l-3.13-25.12c-.04-.34.2-.66.54-.7.34-.04.66.2.7.54l3.06,24.57h28.36l2.89-23.16c.04-.34.36-.59.7-.54.34.04.59.36.54.7l-2.96,23.71c-.04.31-.31.55-.62.55Z"/>
    <path class="cls-1" d="m45.46,58.51H15.99c-.5,0-.93-.38-.99-.88l-3.13-25.12c-.07-.55.32-1.05.87-1.12.55-.07,1.05.32,1.12.87l3.02,24.25h27.7l2.85-22.83c.07-.55.57-.93,1.12-.87.27.03.5.17.67.38.16.21.24.47.2.74l-2.96,23.71c-.06.5-.49.88-.99.88ZM12.86,32.13s-.02,0-.03,0c-.14.02-.23.14-.22.28l3.13,25.12c.02.13.12.22.25.22h29.47c.13,0,.23-.09.25-.22l2.96-23.71c0-.07,0-.13-.05-.19-.04-.05-.1-.09-.17-.1-.14-.01-.26.08-.28.22l-2.93,23.49h-29.03l-3.11-24.9c-.02-.13-.13-.22-.25-.22Z"/>
  </g>
  <g>
    <path class="cls-1" d="m49.67,23.74c-.35,0-.63-.28-.63-.63,0-6.77-3.71-12.97-9.69-16.16-.31-.16-.42-.54-.26-.85.16-.31.54-.42.85-.26,6.39,3.42,10.35,10.03,10.35,17.27,0,.35-.28.63-.63.63Z"/>
    <path class="cls-1" d="m49.67,24.12c-.55,0-1-.45-1-1,0-6.63-3.64-12.7-9.49-15.83-.49-.26-.67-.87-.41-1.36.13-.24.34-.41.59-.49.26-.08.53-.05.76.08,6.51,3.48,10.55,10.23,10.55,17.6,0,.55-.45,1-1,1Zm-10.02-17.97s-.05,0-.07.01c-.06.02-.12.06-.15.12-.07.12-.02.28.1.34,6.1,3.26,9.89,9.58,9.89,16.49,0,.28.5.28.5,0,0-7.1-3.89-13.59-10.16-16.94-.04-.02-.08-.03-.12-.03Z"/>
  </g>
  <g>
    <path class="cls-1" d="m11.78,23.74c-.35,0-.63-.28-.63-.63,0-7.18,3.92-13.78,10.24-17.21.3-.17.68-.05.85.25.17.3.05.68-.25.85-5.91,3.21-9.59,9.39-9.59,16.11,0,.35-.28.63-.63.63Z"/>
    <path class="cls-1" d="m11.78,24.12c-.55,0-1-.45-1-1,0-7.32,4-14.04,10.44-17.54.24-.13.5-.16.76-.08.26.08.47.25.6.48.26.49.08,1.1-.4,1.36-5.79,3.15-9.39,9.19-9.39,15.78,0,.55-.45,1-1,1ZM21.7,6.21s-.08,0-.12.03c-6.2,3.37-10.05,9.83-10.05,16.88,0,.28.5.28.5,0,0-6.86,3.75-13.16,9.78-16.44.12-.07.17-.22.1-.34-.03-.06-.09-.1-.15-.12-.02,0-.05,0-.07,0Z"/>
  </g>
  <g>
    <path class="cls-1" d="m39.29,7.75h-17.12c-.35,0-.63-.28-.63-.63v-3.77c0-.35.28-.63.63-.63h17.12c.35,0,.63.28.63.63v3.77c0,.35-.28.63-.63.63Zm-16.49-1.25h15.87v-2.52h-15.87v2.52Z"/>
    <path class="cls-1" d="m39.29,8.13h-17.12c-.55,0-1-.45-1-1v-3.77c0-.55.45-1,1-1h17.12c.55,0,1,.45,1,1v3.77c0,.55-.45,1-1,1ZM22.17,3.1c-.14,0-.25.11-.25.25v3.77c0,.14.11.25.25.25h17.12c.14,0,.25-.11.25-.25v-3.77c0-.14-.11-.25-.25-.25h-17.12Zm16.87,3.77h-16.62v-3.27h16.62v3.27Zm-15.87-.75h15.12v-1.77h-15.12v1.77Z"/>
  </g>
  <g>
    <path class="cls-1" d="m29.18,41.25c-1.29,0-2.36-1.01-2.44-2.3l-.54-9.25c-.04-.63-.56-1.12-1.19-1.12-.45,0-.86.25-1.07.66l-.67,1.35c-.44.89-1.33,1.44-2.32,1.44-1.15,0-2.18-.77-2.5-1.88l-1.4-4.84c-.16-.56-.68-.94-1.25-.94-.66,0-1.21.49-1.29,1.14l-.77,6.14c-.08.65-.63,1.13-1.28,1.13-.35,0-.67-.14-.92-.38s-.38-.57-.38-.92l.06-8.07c.01-1.48,1.22-2.68,2.7-2.68h33.62c1.48,0,2.69,1.2,2.7,2.68l.06,8.64c0,.58-.22,1.12-.63,1.54-.41.41-.95.64-1.53.64-1.13,0-2.05-.85-2.15-1.97l-.27-3.17c-.05-.56-.5-.97-1.06-.97s-1.03.44-1.06,1.01l-.32,6.04c-.09,1.66-1.46,2.96-3.12,2.96s-2.95-1.21-3.11-2.81l-.85-8.34c-.07-.7-.69-1.23-1.38-1.21-.65.02-1.19.5-1.29,1.14l-1.93,12.28c-.19,1.19-1.2,2.06-2.41,2.06Zm-4.16-13.92c1.29,0,2.37,1.01,2.44,2.3l.54,9.25c.04.63.56,1.12,1.19,1.12.59,0,1.08-.42,1.17-1l1.93-12.28c.19-1.23,1.24-2.16,2.49-2.2,1.36-.04,2.53.98,2.67,2.34l.85,8.34c.1.96.9,1.68,1.86,1.68s1.82-.78,1.87-1.78l.32-6.04c.06-1.23,1.08-2.2,2.32-2.2s2.21.91,2.31,2.12l.27,3.17c.04.47.43.83.9.83.24,0,.47-.09.64-.27.17-.17.26-.4.26-.64l-.06-8.64c0-.79-.65-1.43-1.44-1.43H13.92c-.79,0-1.44.64-1.44,1.43l-.06,8.07s0,.02.01.03c.01.01.03.01.03.01.02,0,.04-.02.04-.04l.77-6.14c.16-1.28,1.25-2.24,2.54-2.24,1.13,0,2.14.76,2.46,1.85l1.4,4.84c.17.57.7.97,1.29.97.51,0,.97-.29,1.2-.74l.67-1.35c.42-.84,1.26-1.35,2.19-1.35Z"/>
    <path class="cls-1" d="m29.18,41.63c-1.49,0-2.72-1.17-2.81-2.65l-.54-9.25c-.02-.43-.38-.77-.82-.77-.31,0-.59.17-.73.45l-.67,1.35c-.51,1.01-1.53,1.64-2.66,1.64-1.32,0-2.49-.88-2.86-2.15l-1.4-4.83c-.11-.4-.48-.67-.89-.67-.47,0-.86.35-.92.82l-.77,6.14c-.1.83-.82,1.46-1.66,1.46-.45,0-.87-.18-1.19-.49s-.49-.74-.48-1.19l.06-8.07c.01-1.68,1.39-3.05,3.07-3.05h33.62c1.68,0,3.06,1.37,3.07,3.05l.06,8.64c0,.68-.26,1.32-.74,1.8-.48.48-1.12.75-1.8.75-1.33,0-2.41-1-2.52-2.32l-.27-3.17c-.03-.36-.33-.63-.69-.63s-.67.29-.69.65l-.32,6.04c-.1,1.86-1.63,3.32-3.5,3.32s-3.3-1.35-3.48-3.15l-.85-8.34c-.05-.5-.5-.94-1-.87-.47.01-.86.36-.93.82l-1.93,12.28c-.22,1.38-1.39,2.38-2.78,2.38Zm-4.17-13.42c.83,0,1.52.65,1.57,1.48l.54,9.25c.06,1.09.97,1.95,2.06,1.95,1.02,0,1.88-.73,2.04-1.75l1.93-12.28c.13-.82.82-1.43,1.65-1.46.89.01,1.67.65,1.77,1.55l.85,8.34c.14,1.41,1.32,2.47,2.74,2.47s2.67-1.14,2.75-2.61l.32-6.04c.04-.77.67-1.37,1.44-1.37s1.37.57,1.43,1.32l.27,3.17c.08.93.84,1.63,1.78,1.63.48,0,.93-.19,1.27-.53.34-.34.52-.79.52-1.27l-.06-8.64c0-1.27-1.05-2.31-2.32-2.31H13.92c-1.27,0-2.31,1.03-2.32,2.31l-.06,8.07c0,.25.09.48.27.66.17.17.41.27.65.27.46,0,.85-.35.91-.81l.77-6.14c.1-.84.82-1.47,1.67-1.47.74,0,1.41.5,1.61,1.21l1.4,4.83c.27.95,1.15,1.61,2.14,1.61.85,0,1.61-.47,1.99-1.23l.67-1.35c.27-.54.8-.87,1.4-.87Zm4.17,12.17c-.83,0-1.51-.65-1.56-1.47l-.54-9.25c-.06-1.09-.97-1.95-2.07-1.95-.79,0-1.5.44-1.85,1.15l-.67,1.35c-.29.59-.88.95-1.54.95-.76,0-1.44-.51-1.65-1.24l-1.4-4.83c-.27-.93-1.13-1.58-2.1-1.58-1.1,0-2.03.82-2.17,1.91l-.81,6.47-.52.04-.25-.23v-.19s.05-8.07.05-8.07c0-1,.82-1.8,1.82-1.8h33.62c1,0,1.81.81,1.82,1.81l.06,8.64c0,.34-.13.67-.37.91s-.56.38-.91.38c-.67,0-1.22-.5-1.27-1.17l-.27-3.17c-.09-1.01-.92-1.78-1.94-1.78s-1.89.81-1.94,1.84l-.32,6.04c-.06,1.2-1.05,2.13-2.25,2.13s-2.12-.87-2.24-2.02l-.85-8.34c-.12-1.15-1.12-2.04-2.28-2-1.07.03-1.96.82-2.13,1.88l-1.93,12.28c-.12.76-.77,1.32-1.54,1.32Zm-4.17-13.42c1.49,0,2.73,1.17,2.82,2.66l.54,9.25c.02.43.38.76.81.76.4,0,.74-.29.8-.69l1.93-12.28c.22-1.41,1.42-2.47,2.85-2.51,1.54-.06,2.89,1.13,3.05,2.67l.85,8.34c.08.77.72,1.35,1.49,1.35s1.46-.62,1.5-1.42l.32-6.04c.08-1.43,1.26-2.55,2.69-2.55s2.56,1.06,2.68,2.46l.27,3.17c.04.42.61.62.9.33.1-.1.15-.23.15-.38l-.06-8.64c0-.59-.48-1.06-1.07-1.06H13.92c-.59,0-1.06.48-1.07,1.06l-.02,2.36.06-.48c.18-1.46,1.43-2.57,2.91-2.57,1.3,0,2.46.87,2.82,2.12l1.4,4.83c.12.41.5.7.93.7.37,0,.7-.21.87-.54l.67-1.35c.48-.96,1.45-1.56,2.52-1.56Z"/>
  </g>
</svg>