<?xml version="1.0" encoding="UTF-8"?>
<svg id="Layer_1" data-name="Layer 1" xmlns="http://www.w3.org/2000/svg" viewBox="0 0 60 60">
  <defs>
    <style>
      .cls-1 {
        fill: #37464c;
        stroke-width: 0px;
      }
    </style>
  </defs>
  <g>
    <path class="cls-1" d="m10.47,55.74c-1.14,0-2.2-.44-3-1.25-1.66-1.66-1.66-4.36,0-6.02l11.03-11.06c.8-.8,1.87-1.25,3-1.25s2.2.44,3,1.25c1.66,1.66,1.66,4.36,0,6.02l-11.03,11.06c-.8.8-1.87,1.25-3,1.25Zm-2.2-2.05c.59.59,1.37.91,2.2.91s1.61-.32,2.2-.91l11.03-11.06c1.21-1.22,1.21-3.2,0-4.41-.59-.59-1.37-.91-2.2-.91s-1.61.32-2.2.91l-11.03,11.06c-1.21,1.22-1.21,3.2,0,4.41l-.4.4.4-.4Z"/>
    <path class="cls-1" d="m10.47,56.12c-1.24,0-2.4-.48-3.27-1.36-1.8-1.8-1.8-4.74,0-6.55l11.03-11.06c.87-.88,2.04-1.36,3.27-1.36s2.4.48,3.27,1.36c1.8,1.8,1.8,4.74,0,6.55l-11.03,11.06c-.87.88-2.03,1.36-3.27,1.36Zm11.03-19.57c-1.03,0-2.01.4-2.74,1.14l-11.03,11.06c-1.51,1.51-1.51,3.98,0,5.49.73.73,1.7,1.14,2.74,1.14s2.01-.4,2.74-1.14l11.03-11.06c1.51-1.51,1.51-3.98,0-5.49-.73-.73-1.7-1.14-2.74-1.14Zm-11.03,18.43c-.8,0-1.57-.27-2.19-.77l-.15.15-.53-.53.15-.15c-1.1-1.37-1.02-3.39.25-4.66l11.03-11.06c1.32-1.32,3.61-1.32,4.93,0,1.36,1.36,1.36,3.58,0,4.94l-11.03,11.06c-.66.66-1.53,1.02-2.47,1.02Zm-1.93-1.55c1.03,1.03,2.83,1.03,3.87,0l11.03-11.06c1.07-1.07,1.07-2.81,0-3.88-1.03-1.04-2.83-1.04-3.87,0l-11.03,11.06c-1.07,1.07-1.07,2.81,0,3.88Z"/>
  </g>
  <g>
    <path class="cls-1" d="m48.48,41.3c-.84,0-1.63-.33-2.23-.93l-22.97-23.02c-1.23-1.23-1.23-3.23,0-4.47l4.88-4.89c.6-.6,1.39-.93,2.23-.93s1.63.33,2.23.93l22.97,23.02c1.23,1.23,1.23,3.23,0,4.47l-4.88,4.89c-.6.6-1.39.93-2.23.93ZM30.39,8.21c-.54,0-1.04.21-1.42.59l-4.88,4.89c-.79.79-.79,2.07,0,2.86l22.97,23.02c.38.38.89.59,1.42.59s1.04-.21,1.42-.59l4.88-4.89.4.4-.4-.4c.79-.79.79-2.07,0-2.86L31.81,8.8c-.38-.38-.89-.59-1.42-.59Z"/>
    <path class="cls-1" d="m48.48,41.68c-.94,0-1.83-.37-2.5-1.04l-22.98-23.02c-1.37-1.38-1.37-3.62,0-4.99l4.88-4.89c1.33-1.34,3.66-1.34,4.99,0l22.97,23.02c1.37,1.38,1.37,3.62,0,5l-4.88,4.89c-.67.67-1.55,1.04-2.5,1.04ZM30.39,7.45c-.74,0-1.44.29-1.96.82l-4.88,4.89c-1.08,1.08-1.08,2.85,0,3.94l22.98,23.02c1.05,1.05,2.88,1.05,3.93,0l4.88-4.89c1.08-1.08,1.08-2.85,0-3.94l-22.97-23.02c-.52-.53-1.22-.82-1.96-.82Zm18.09,33.09c-.64,0-1.24-.25-1.69-.7l-22.98-23.02c-.93-.93-.93-2.45,0-3.39l4.88-4.89c.9-.9,2.48-.9,3.38,0l22.98,23.02c.84.84.92,2.17.24,3.1l.16.16-.53.53-.14-.14-4.62,4.62c-.45.45-1.05.7-1.69.7ZM30.39,8.59c-.44,0-.85.17-1.16.48l-4.88,4.89c-.64.64-.64,1.69,0,2.33l22.98,23.02c.62.62,1.7.62,2.32,0l4.88-4.89c.64-.64.64-1.69,0-2.33L31.54,9.07c-.31-.31-.72-.48-1.16-.48Z"/>
  </g>
  <g>
    <path class="cls-1" d="m47.94,48.64c-1.68,0-3.26-.65-4.44-1.84l-8.55-8.57c-1.39-1.4-3.25-2.17-5.22-2.17-1.97,0-3.82.77-5.22,2.17-.22.22-.58.22-.8,0-.22-.22-.22-.58,0-.8,1.61-1.61,3.75-2.5,6.02-2.5h0c2.28,0,4.41.89,6.02,2.5l8.55,8.57c.97.97,2.26,1.51,3.64,1.51s2.67-.54,3.64-1.51l.77-.77c2.01-2.01,2.01-5.28,0-7.29-.22-.22-.22-.58,0-.8.22-.22.58-.22.8,0,2.45,2.45,2.45,6.45,0,8.9l-.77.77c-1.19,1.19-2.76,1.84-4.44,1.84Z"/>
    <path class="cls-1" d="m47.94,49.02c-1.78,0-3.45-.69-4.71-1.95l-8.55-8.57c-1.32-1.33-3.08-2.06-4.95-2.06s-3.63.73-4.95,2.06c-.18.18-.41.28-.67.28h0c-.25,0-.49-.1-.67-.28-.37-.37-.37-.97,0-1.33,1.68-1.68,3.91-2.61,6.29-2.61s4.61.93,6.29,2.61l8.55,8.57c.9.9,2.1,1.4,3.37,1.4s2.47-.5,3.37-1.4l.77-.77c1.86-1.87,1.86-4.9,0-6.76-.18-.18-.28-.42-.28-.67,0-.25.1-.49.28-.67.18-.18.41-.28.67-.28.28-.03.49.1.67.28,2.59,2.6,2.59,6.83,0,9.43l-.77.77c-1.26,1.26-2.93,1.95-4.71,1.95Zm-18.21-13.33c2.07,0,4.02.81,5.48,2.28l8.55,8.57c1.12,1.12,2.6,1.73,4.18,1.73s3.06-.62,4.18-1.73l.77-.77c2.3-2.31,2.3-6.06,0-8.37-.05-.05-.13-.06-.14-.06-.05,0-.1.02-.14.06-.08.08-.08.2,0,.27,2.15,2.16,2.15,5.67,0,7.82l-.77.77c-1.04,1.04-2.43,1.62-3.9,1.62s-2.86-.58-3.9-1.62l-8.55-8.57c-1.54-1.54-3.58-2.39-5.76-2.39s-4.22.85-5.76,2.39c-.06.06-.06.21,0,.27.04.04.09.06.14.06h0s.09,0,.14-.06c1.47-1.47,3.41-2.28,5.48-2.28Z"/>
  </g>
</svg>