<?xml version="1.0" encoding="UTF-8"?>
<svg id="Layer_1" data-name="Layer 1" xmlns="http://www.w3.org/2000/svg" viewBox="0 0 60 60">
  <defs>
    <style>
      .cls-1 {
        fill: #37464c;
        stroke-width: 0px;
      }
    </style>
  </defs>
  <g>
    <path class="cls-1" d="m43.78,50.56h-27.54c-3.56,0-6.46-2.9-6.46-6.46v-27.54c0-3.56,2.9-6.46,6.46-6.46h27.54c3.56,0,6.46,2.9,6.46,6.46v27.54c0,3.56-2.9,6.46-6.46,6.46ZM16.23,11.27c-2.92,0-5.3,2.38-5.3,5.3v27.54c0,2.92,2.38,5.3,5.3,5.3h27.54c2.92,0,5.3-2.38,5.3-5.3v-27.54c0-2.92-2.38-5.3-5.3-5.3h-27.54Z"/>
    <path class="cls-1" d="m43.78,50.94h-27.54c-3.77,0-6.83-3.07-6.83-6.83v-27.54c0-3.77,3.07-6.83,6.83-6.83h27.54c3.77,0,6.83,3.07,6.83,6.83v27.54c0,3.77-3.07,6.83-6.83,6.83ZM16.23,10.48c-3.35,0-6.08,2.73-6.08,6.08v27.54c0,3.35,2.73,6.08,6.08,6.08h27.54c3.35,0,6.08-2.73,6.08-6.08v-27.54c0-3.35-2.73-6.08-6.08-6.08h-27.54Zm27.54,39.3h-27.54c-3.13,0-5.67-2.54-5.67-5.67v-27.54c0-3.13,2.54-5.67,5.67-5.67h27.54c3.13,0,5.67,2.54,5.67,5.67v27.54c0,3.13-2.54,5.67-5.67,5.67ZM16.23,11.64c-2.71,0-4.92,2.21-4.92,4.92v27.54c0,2.71,2.21,4.92,4.92,4.92h27.54c2.71,0,4.92-2.21,4.92-4.92v-27.54c0-2.71-2.21-4.92-4.92-4.92h-27.54Z"/>
  </g>
  <g>
    <path class="cls-1" d="m41.17,42.08h-22.34c-.32,0-.58-.26-.58-.58v-22.34c0-.32.26-.58.58-.58h22.34c.32,0,.58.26.58.58v22.34c0,.32-.26.58-.58.58Zm-21.76-1.16h21.18v-21.18h-21.18v21.18Z"/>
    <path class="cls-1" d="m41.17,42.46h-22.34c-.53,0-.96-.43-.96-.96v-22.34c0-.53.43-.96.96-.96h22.34c.53,0,.96.43.96.96v22.34c0,.53-.43.96-.96.96Zm-22.34-23.5c-.11,0-.21.09-.21.21v22.34c0,.11.09.21.21.21h22.34c.11,0,.21-.09.21-.21v-22.34c0-.11-.09-.21-.21-.21h-22.34Zm22.13,22.34h-21.93v-21.93h21.93v21.93Zm-21.18-.75h20.43v-20.43h-20.43v20.43Z"/>
  </g>
  <g>
    <g>
      <g>
        <path class="cls-1" d="m18.84,13.39c-.32,0-.58-.26-.58-.58v-7.32c0-.32.26-.58.58-.58s.58.26.58.58v7.32c0,.32-.26.58-.58.58Z"/>
        <path class="cls-1" d="m18.84,13.77c-.53,0-.96-.43-.96-.96v-7.32c0-.53.43-.96.96-.96s.96.43.96.96v7.32c0,.53-.43.96-.96.96Zm0-8.48c-.11,0-.21.09-.21.21v7.32c0,.23.41.23.41,0v-7.32c0-.11-.09-.21-.21-.21Z"/>
      </g>
      <g>
        <path class="cls-1" d="m26.35,13.39c-.32,0-.58-.26-.58-.58v-7.32c0-.32.26-.58.58-.58s.58.26.58.58v7.32c0,.32-.26.58-.58.58Z"/>
        <path class="cls-1" d="m26.35,13.77c-.53,0-.96-.43-.96-.96v-7.32c0-.53.43-.96.96-.96s.96.43.96.96v7.32c0,.53-.43.96-.96.96Zm0-8.48c-.11,0-.21.09-.21.21v7.32c0,.23.41.23.41,0v-7.32c0-.11-.09-.21-.21-.21Z"/>
      </g>
      <g>
        <path class="cls-1" d="m33.85,13.39c-.32,0-.58-.26-.58-.58v-7.32c0-.32.26-.58.58-.58s.58.26.58.58v7.32c0,.32-.26.58-.58.58Z"/>
        <path class="cls-1" d="m33.85,13.77c-.53,0-.96-.43-.96-.96v-7.32c0-.53.43-.96.96-.96s.96.43.96.96v7.32c0,.53-.43.96-.96.96Zm0-8.48c-.11,0-.21.09-.21.21v7.32c0,.23.41.23.41,0v-7.32c0-.11-.09-.21-.21-.21Z"/>
      </g>
      <g>
        <path class="cls-1" d="m41.36,13.39c-.32,0-.58-.26-.58-.58v-7.32c0-.32.26-.58.58-.58s.58.26.58.58v7.32c0,.32-.26.58-.58.58Z"/>
        <path class="cls-1" d="m41.36,13.77c-.53,0-.96-.43-.96-.96v-7.32c0-.53.43-.96.96-.96s.96.43.96.96v7.32c0,.53-.43.96-.96.96Zm0-8.48c-.11,0-.21.09-.21.21v7.32c0,.23.41.23.41,0v-7.32c0-.11-.09-.21-.21-.21Z"/>
      </g>
    </g>
    <g>
      <g>
        <path class="cls-1" d="m18.84,55.76c-.32,0-.58-.26-.58-.58v-7.32c0-.32.26-.58.58-.58s.58.26.58.58v7.32c0,.32-.26.58-.58.58Z"/>
        <path class="cls-1" d="m18.84,56.14c-.53,0-.96-.43-.96-.96v-7.32c0-.53.43-.96.96-.96s.96.43.96.96v7.32c0,.53-.43.96-.96.96Zm0-8.48c-.11,0-.21.09-.21.21v7.32c0,.23.41.23.41,0v-7.32c0-.11-.09-.21-.21-.21Z"/>
      </g>
      <g>
        <path class="cls-1" d="m26.35,55.76c-.32,0-.58-.26-.58-.58v-7.32c0-.32.26-.58.58-.58s.58.26.58.58v7.32c0,.32-.26.58-.58.58Z"/>
        <path class="cls-1" d="m26.35,56.14c-.53,0-.96-.43-.96-.96v-7.32c0-.53.43-.96.96-.96s.96.43.96.96v7.32c0,.53-.43.96-.96.96Zm0-8.48c-.11,0-.21.09-.21.21v7.32c0,.23.41.23.41,0v-7.32c0-.11-.09-.21-.21-.21Z"/>
      </g>
      <g>
        <path class="cls-1" d="m33.85,55.76c-.32,0-.58-.26-.58-.58v-7.32c0-.32.26-.58.58-.58s.58.26.58.58v7.32c0,.32-.26.58-.58.58Z"/>
        <path class="cls-1" d="m33.85,56.14c-.53,0-.96-.43-.96-.96v-7.32c0-.53.43-.96.96-.96s.96.43.96.96v7.32c0,.53-.43.96-.96.96Zm0-8.48c-.11,0-.21.09-.21.21v7.32c0,.23.41.23.41,0v-7.32c0-.11-.09-.21-.21-.21Z"/>
      </g>
      <g>
        <path class="cls-1" d="m41.36,55.76c-.32,0-.58-.26-.58-.58v-7.32c0-.32.26-.58.58-.58s.58.26.58.58v7.32c0,.32-.26.58-.58.58Z"/>
        <path class="cls-1" d="m41.36,56.14c-.53,0-.96-.43-.96-.96v-7.32c0-.53.43-.96.96-.96s.96.43.96.96v7.32c0,.53-.43.96-.96.96Zm0-8.48c-.11,0-.21.09-.21.21v7.32c0,.23.41.23.41,0v-7.32c0-.11-.09-.21-.21-.21Z"/>
      </g>
    </g>
  </g>
  <g>
    <g>
      <g>
        <path class="cls-1" d="m12.57,42.18h-7.32c-.32,0-.58-.26-.58-.58s.26-.58.58-.58h7.32c.32,0,.58.26.58.58s-.26.58-.58.58Z"/>
        <path class="cls-1" d="m12.57,42.55h-7.32c-.53,0-.96-.43-.96-.96s.43-.96.96-.96h7.32c.53,0,.96.43.96.96s-.43.96-.96.96Zm-7.32-1.16c-.11,0-.21.09-.21.21s.09.21.21.21h7.32c.11,0,.21-.09.21-.21s-.09-.21-.21-.21h-7.32Z"/>
      </g>
      <g>
        <path class="cls-1" d="m12.57,34.67h-7.32c-.32,0-.58-.26-.58-.58s.26-.58.58-.58h7.32c.32,0,.58.26.58.58s-.26.58-.58.58Z"/>
        <path class="cls-1" d="m12.57,35.04h-7.32c-.53,0-.96-.43-.96-.96s.43-.96.96-.96h7.32c.53,0,.96.43.96.96s-.43.96-.96.96Zm-7.32-1.16c-.11,0-.21.09-.21.21s.09.21.21.21h7.32c.11,0,.21-.09.21-.21s-.09-.21-.21-.21h-7.32Z"/>
      </g>
      <g>
        <path class="cls-1" d="m12.57,27.16h-7.32c-.32,0-.58-.26-.58-.58s.26-.58.58-.58h7.32c.32,0,.58.26.58.58s-.26.58-.58.58Z"/>
        <path class="cls-1" d="m12.57,27.54h-7.32c-.53,0-.96-.43-.96-.96s.43-.96.96-.96h7.32c.53,0,.96.43.96.96s-.43.96-.96.96Zm-7.32-1.16c-.11,0-.21.09-.21.21s.09.21.21.21h7.32c.11,0,.21-.09.21-.21s-.09-.21-.21-.21h-7.32Z"/>
      </g>
      <g>
        <path class="cls-1" d="m12.57,19.65h-7.32c-.32,0-.58-.26-.58-.58s.26-.58.58-.58h7.32c.32,0,.58.26.58.58s-.26.58-.58.58Z"/>
        <path class="cls-1" d="m12.57,20.03h-7.32c-.53,0-.96-.43-.96-.96s.43-.96.96-.96h7.32c.53,0,.96.43.96.96s-.43.96-.96.96Zm-7.32-1.16c-.11,0-.21.09-.21.21s.09.21.21.21h7.32c.11,0,.21-.09.21-.21s-.09-.21-.21-.21h-7.32Z"/>
      </g>
    </g>
    <g>
      <g>
        <path class="cls-1" d="m54.95,42.18h-7.32c-.32,0-.58-.26-.58-.58s.26-.58.58-.58h7.32c.32,0,.58.26.58.58s-.26.58-.58.58Z"/>
        <path class="cls-1" d="m54.95,42.55h-7.32c-.53,0-.96-.43-.96-.96s.43-.96.96-.96h7.32c.53,0,.96.43.96.96s-.43.96-.96.96Zm-7.32-1.16c-.11,0-.21.09-.21.21s.09.21.21.21h7.32c.11,0,.21-.09.21-.21s-.09-.21-.21-.21h-7.32Z"/>
      </g>
      <g>
        <path class="cls-1" d="m54.95,34.67h-7.32c-.32,0-.58-.26-.58-.58s.26-.58.58-.58h7.32c.32,0,.58.26.58.58s-.26.58-.58.58Z"/>
        <path class="cls-1" d="m54.95,35.04h-7.32c-.53,0-.96-.43-.96-.96s.43-.96.96-.96h7.32c.53,0,.96.43.96.96s-.43.96-.96.96Zm-7.32-1.16c-.11,0-.21.09-.21.21s.09.21.21.21h7.32c.11,0,.21-.09.21-.21s-.09-.21-.21-.21h-7.32Z"/>
      </g>
      <g>
        <path class="cls-1" d="m54.95,27.16h-7.32c-.32,0-.58-.26-.58-.58s.26-.58.58-.58h7.32c.32,0,.58.26.58.58s-.26.58-.58.58Z"/>
        <path class="cls-1" d="m54.95,27.54h-7.32c-.53,0-.96-.43-.96-.96s.43-.96.96-.96h7.32c.53,0,.96.43.96.96s-.43.96-.96.96Zm-7.32-1.16c-.11,0-.21.09-.21.21s.09.21.21.21h7.32c.11,0,.21-.09.21-.21s-.09-.21-.21-.21h-7.32Z"/>
      </g>
      <g>
        <path class="cls-1" d="m54.95,19.65h-7.32c-.32,0-.58-.26-.58-.58s.26-.58.58-.58h7.32c.32,0,.58.26.58.58s-.26.58-.58.58Z"/>
        <path class="cls-1" d="m54.95,20.03h-7.32c-.53,0-.96-.43-.96-.96s.43-.96.96-.96h7.32c.53,0,.96.43.96.96s-.43.96-.96.96Zm-7.32-1.16c-.11,0-.21.09-.21.21s.09.21.21.21h7.32c.11,0,.21-.09.21-.21s-.09-.21-.21-.21h-7.32Z"/>
      </g>
    </g>
  </g>
</svg>