<?xml version="1.0" encoding="UTF-8"?>
<svg id="Layer_1" data-name="Layer 1" xmlns="http://www.w3.org/2000/svg" viewBox="0 0 60 60">
  <defs>
    <style>
      .cls-1 {
        fill: #37464c;
        stroke-width: 0px;
      }
    </style>
  </defs>
  <g>
    <g>
      <path class="cls-1" d="m23.97,32.94c-5.03,0-8.73-4.69-9.44-11.95-.45-4.59.33-8.02,2.3-10.19,1.63-1.79,4.03-2.7,7.14-2.7s5.6.92,7.24,2.75c1.96,2.19,2.7,5.61,2.2,10.15-.81,7.36-4.43,11.94-9.44,11.94Zm0-22.74c-2.49,0-4.37.68-5.58,2.01-1.55,1.71-2.15,4.6-1.76,8.57.59,6.1,3.48,10.05,7.34,10.05s6.66-3.86,7.35-10.06c.43-3.93-.13-6.79-1.68-8.52-1.22-1.36-3.12-2.05-5.67-2.05Z"/>
      <path class="cls-1" d="m15.42,18.29v-2c4.16,0,7.55-2.98,7.55-6.63h2c0,4.76-4.28,8.63-9.55,8.63Z"/>
      <path class="cls-1" d="m32.57,18.29c-5.29,0-9.6-3.87-9.6-8.63h2c0,3.66,3.41,6.63,7.6,6.63v2Z"/>
      <rect class="cls-1" x="35.77" y="13.47" width="2" height="10.04"/>
      <path class="cls-1" d="m37.77,13.98h-2c0-3.91-3.53-7.1-7.87-7.1v-2c5.44,0,9.87,4.08,9.87,9.1Z"/>
      <path class="cls-1" d="m25.45,8.66h-2c0-2.08,2-3.77,4.45-3.77v2c-1.33,0-2.45.81-2.45,1.77Z"/>
      <path class="cls-1" d="m12.75,36.62c-4.42,0-8.02-2.91-8.02-6.48h2c0,2.47,2.7,4.48,6.02,4.48v2Z"/>
      <path class="cls-1" d="m5.25,32.05v-2c2.78,0,5.13-1.45,5.13-3.16h2c0,2.9-3.13,5.16-7.13,5.16Z"/>
      <rect class="cls-1" x="10.38" y="13.25" width="2" height="14.12"/>
      <path class="cls-1" d="m12.38,13.76h-2c0-4.9,4.56-8.88,10.16-8.88v2c-4.5,0-8.16,3.09-8.16,6.88Z"/>
      <path class="cls-1" d="m24.99,8.66h-2c0-.96-1.12-1.77-2.45-1.77v-2c2.45,0,4.45,1.69,4.45,3.77Z"/>
    </g>
    <g>
      <path class="cls-1" d="m23.98,54.45h0c-.34,0-.64-.24-.72-.57l-4.96-20.98v-3.46h1v3.41l4.68,19.75,4.92-19.91-.13-3.42,1-.04.14,3.57-5.22,21.1c-.08.33-.38.56-.72.56Z"/>
      <path class="cls-1" d="m23.98,54.83h0c-.52,0-.96-.36-1.08-.86l-4.96-20.98v-3.92s1.74,0,1.74,0v3.78l4.31,18.16,4.54-18.35-.15-3.75,1.75-.07.16,3.99-5.23,21.15c-.12.5-.57.85-1.08.85Zm0-.64v.27s0-.27,0-.27h0Zm5.19-24.56l.12,3.1-5.28,21.35c.16-.01.29-.12.33-.28l5.21-21.05-.12-3.14h-.25Zm-10.49.19v3.09l4.95,20.89c.04.16.17.27.33.28l-5.01-21.14v-3.12h-.26Z"/>
    </g>
    <g>
      <path class="cls-1" d="m24.62,40.11c-2.44,0-4.67-3.37-5.43-8.2l1.05-.78c.61,3.87,2.41,6.58,4.38,6.58s3.75-2.89,4.35-7.02l1.06.72c-.74,5.13-2.96,8.71-5.41,8.71Z"/>
      <path class="cls-1" d="m24.62,40.36c-2.56,0-4.9-3.46-5.68-8.41l-.02-.15,1.5-1.12.06.41c.59,3.75,2.29,6.36,4.14,6.36s3.53-2.86,4.1-6.81l.06-.4,1.52,1.03-.02.16c-.76,5.25-3.08,8.93-5.65,8.93Zm-5.16-8.34c.76,4.63,2.88,7.84,5.16,7.84s4.39-3.42,5.13-8.34l-.6-.41c-.67,4.05-2.51,6.84-4.53,6.84s-3.87-2.6-4.56-6.38l-.6.45Z"/>
    </g>
    <g>
      <path class="cls-1" d="m2.68,53.4l-.11-10.47c.29-2.41,1.83-4.4,4.02-5.27l9.22-3.99,2.66-2.35.66.75-2.85,2.49-9.3,4.03c-1.87.74-3.17,2.42-3.41,4.4l.12,10.4h-1Z"/>
      <path class="cls-1" d="m2.14,53.96l-.12-11.01c.31-2.65,1.99-4.84,4.37-5.79l9.12-3.95,3.01-2.66,1.39,1.58-3.41,2.94-9.3,4.03c-1.69.67-2.86,2.18-3.08,3.96l.12,10.88-2.1.02Z"/>
    </g>
    <g>
      <g>
        <path class="cls-1" d="m34.86,34.81l-2.46-.99-2.48-2.49-.7.72,2.55,2.56,3.26,1.33c-.14-.36-.2-.75-.18-1.14Z"/>
        <path class="cls-1" d="m36.01,36.94l-4.62-1.93-2.93-2.94,1.46-1.52,2.79,2.81,2.71,1.09-.02.39c-.02.32.03.63.14.91l.46,1.19Z"/>
      </g>
      <g>
        <path class="cls-1" d="m45.38,42.27c-.2.05-.4.09-.59.09-.14,0-.27-.02-.4-.04.04.17.08.34.1.51l.16,9.35.99-.02-.16-9.4c-.02-.17-.06-.32-.09-.49Z"/>
        <path class="cls-1" d="m44.1,52.73l-.17-9.9c-.01-.08-.04-.22-.07-.35l-.18-.8.8.09c.21.04.42.05.77-.04l.56-.14.14.7c.03.13.05.26.07.39l.18,10-2.09.04Z"/>
      </g>
    </g>
    <path class="cls-1" d="m33.54,45.4h-1.7c0-1.29-.66-2.19-1.25-2.19v-1.7c1.65,0,2.94,1.71,2.94,3.89Z"/>
    <path class="cls-1" d="m30.59,43.21c-.47,0-.85-.38-.85-.85s.38-.85.85-.85c.74,0,1.37-.47,1.37-1.04,0-.47.38-.85.85-.85s.85.38.85.85c0,1.51-1.38,2.74-3.07,2.74Z"/>
    <rect class="cls-1" x="30.46" y="37.02" width="5.25" height="1.7" transform="translate(-7.97 66.9) rotate(-84.13)"/>
    <path class="cls-1" d="m28.4,55.11c-.15,0-.3-.04-.43-.12-.4-.24-.54-.76-.3-1.16l3.24-5.48c.24-.4.76-.54,1.16-.3.4.24.54.76.3,1.16l-3.24,5.48c-.16.27-.44.42-.73.42Z"/>
    <path class="cls-1" d="m32.13,49.55l-1.37-1.01c.7-.94,1.07-2.03,1.07-3.14h1.7c0,1.48-.49,2.92-1.41,4.15Z"/>
    <path class="cls-1" d="m16.25,45.29h-1.7c0-2.18,1.29-3.88,2.94-3.88v1.7c-.59,0-1.24.9-1.24,2.19Z"/>
    <path class="cls-1" d="m17.49,43.11c-1.69,0-3.07-1.23-3.07-2.74,0-.47.38-.85.85-.85s.85.38.85.85c0,.56.63,1.04,1.37,1.04.47,0,.85.38.85.85s-.38.85-.85.85Z"/>
    <rect class="cls-1" x="14.16" y="35.14" width="1.7" height="5.25" transform="translate(-3.79 1.74) rotate(-5.89)"/>
    <path class="cls-1" d="m19.86,55.3c-.29,0-.57-.15-.73-.42l-3.42-5.79c-.24-.4-.11-.93.3-1.16.41-.24.93-.11,1.16.3l3.42,5.79c.24.4.11.93-.3,1.16-.14.08-.29.12-.43.12Z"/>
    <path class="cls-1" d="m15.95,49.45c-.92-1.24-1.41-2.67-1.41-4.16h1.7c0,1.11.37,2.2,1.07,3.14l-1.37,1.01Z"/>
  </g>
  <g>
    <path class="cls-1" d="m44.28,36.55c-.17,0-.34-.07-.46-.19l-4.75-4.75c-.25-.25-.25-.67,0-.92l1.9-1.9c.25-.25.67-.25.92,0l2.39,2.39,6.19-6.19c.25-.25.67-.25.92,0l1.9,1.9c.12.12.19.29.19.46s-.07.34-.19.46l-8.55,8.55c-.12.12-.29.19-.46.19Zm-3.83-5.4l3.83,3.83,7.63-7.63-.98-.98-6.19,6.19c-.25.25-.67.25-.92,0l-2.39-2.39-.98.98Z"/>
    <path class="cls-1" d="m46.18,43.4c-7.02,0-12.73-5.71-12.73-12.73s5.71-12.73,12.73-12.73,12.73,5.71,12.73,12.73-5.71,12.73-12.73,12.73Zm0-23.75c-6.08,0-11.03,4.95-11.03,11.03s4.95,11.03,11.03,11.03,11.03-4.95,11.03-11.03-4.95-11.03-11.03-11.03Z"/>
  </g>
</svg>