<?xml version="1.0" encoding="UTF-8"?>
<svg id="Layer_1" data-name="Layer 1" xmlns="http://www.w3.org/2000/svg" viewBox="0 0 60 60">
  <defs>
    <style>
      .cls-1 {
        fill: #37464c;
        stroke-width: 0px;
      }
    </style>
  </defs>
  <path class="cls-1" d="m9,15c-2.76,0-5-2.24-5-5s2.24-5,5-5,5,2.24,5,5-2.24,5-5,5Zm0-8c-1.65,0-3,1.35-3,3s1.35,3,3,3,3-1.35,3-3-1.35-3-3-3Z"/>
  <path class="cls-1" d="m51,15c-2.76,0-5-2.24-5-5s2.24-5,5-5,5,2.24,5,5-2.24,5-5,5Zm0-8c-1.65,0-3,1.35-3,3s1.35,3,3,3,3-1.35,3-3-1.35-3-3-3Z"/>
  <path class="cls-1" d="m9,57c-2.76,0-5-2.24-5-5s2.24-5,5-5,5,2.24,5,5-2.24,5-5,5Zm0-8c-1.65,0-3,1.35-3,3s1.35,3,3,3,3-1.35,3-3-1.35-3-3-3Z"/>
  <path class="cls-1" d="m30,13c-2.76,0-5-2.24-5-5s2.24-5,5-5,5,2.24,5,5-2.24,5-5,5Zm0-8c-1.65,0-3,1.35-3,3s1.35,3,3,3,3-1.35,3-3-1.35-3-3-3Z"/>
  <path class="cls-1" d="m30,59c-2.76,0-5-2.24-5-5s2.24-5,5-5,5,2.24,5,5-2.24,5-5,5Zm0-8c-1.65,0-3,1.35-3,3s1.35,3,3,3,3-1.35,3-3-1.35-3-3-3Z"/>
  <path class="cls-1" d="m51,57c-2.76,0-5-2.24-5-5s2.24-5,5-5,5,2.24,5,5-2.24,5-5,5Zm0-8c-1.65,0-3,1.35-3,3s1.35,3,3,3,3-1.35,3-3-1.35-3-3-3Z"/>
  <path class="cls-1" d="m7,36c-2.76,0-5-2.24-5-5s2.24-5,5-5,5,2.24,5,5-2.24,5-5,5Zm0-8c-1.65,0-3,1.35-3,3s1.35,3,3,3,3-1.35,3-3-1.35-3-3-3Z"/>
  <path class="cls-1" d="m30,45c-7.72,0-14-6.28-14-14s6.28-14,14-14,14,6.28,14,14-6.28,14-14,14Zm0-26c-6.62,0-12,5.38-12,12s5.38,12,12,12,12-5.38,12-12-5.38-12-12-12Z"/>
  <path class="cls-1" d="m53,36c-2.76,0-5-2.24-5-5s2.24-5,5-5,5,2.24,5,5-2.24,5-5,5Zm0-8c-1.65,0-3,1.35-3,3s1.35,3,3,3,3-1.35,3-3-1.35-3-3-3Z"/>
  <rect class="cls-1" x="29" y="12" width="2" height="6"/>
  <rect class="cls-1" x="43" y="30" width="6" height="2"/>
  <rect class="cls-1" x="29" y="44" width="2" height="6"/>
  <rect class="cls-1" x="11" y="30" width="6" height="2"/>
  <rect class="cls-1" x="9.97" y="43.68" width="12.7" height="2" transform="translate(-26.82 24.63) rotate(-45)"/>
  <rect class="cls-1" x="15.32" y="10.97" width="2" height="12.7" transform="translate(-7.47 16.61) rotate(-45)"/>
  <rect class="cls-1" x="37.33" y="16.32" width="12.7" height="2" transform="translate(.55 35.96) rotate(-45)"/>
  <rect class="cls-1" x="42.68" y="38.33" width="2" height="12.7" transform="translate(-18.8 43.97) rotate(-45)"/>
  <path class="cls-1" d="m30,35c-3.31,0-6-2.69-6-6s2.69-6,6-6,6,2.69,6,6-2.69,6-6,6Zm0-10c-2.21,0-4,1.79-4,4s1.79,4,4,4,4-1.79,4-4-1.79-4-4-4Z"/>
  <path class="cls-1" d="m38,40.37v-.09c0-1.16-.66-2.2-1.71-2.71-1.47-.72-3.76-1.57-6.29-1.57s-4.82.85-6.29,1.57c-1.05.51-1.71,1.55-1.71,2.71l-2,.09c0-2.01,1.09-3.74,2.83-4.59,1.66-.81,4.25-1.77,7.17-1.77s5.5.96,7.16,1.77c1.75.85,2.84,2.58,2.84,4.51l-2,.09Z"/>
</svg>