<?xml version="1.0" encoding="UTF-8"?>
<svg id="Layer_1" data-name="Layer 1" xmlns="http://www.w3.org/2000/svg" viewBox="0 0 60 60">
  <defs>
    <style>
      .cls-1 {
        fill: #37464c;
        stroke-width: 0px;
      }
    </style>
  </defs>
  <path class="cls-1" d="m51.38,46c-.17,0-.34-.04-.5-.13l-6.93-4c-.48-.28-.64-.89-.37-1.37.28-.48.89-.64,1.37-.37l6.93,4c.48.28.64.89.37,1.37-.19.32-.52.5-.87.5Z"/>
  <path class="cls-1" d="m15.54,23c-.17,0-.34-.04-.5-.13l-6.93-4c-.48-.28-.64-.89-.37-1.37.28-.48.89-.64,1.37-.37l6.93,4c.48.28.64.89.37,1.37-.19.32-.52.5-.87.5Z"/>
  <path class="cls-1" d="m8.62,46c-.35,0-.68-.18-.87-.5-.28-.48-.11-1.09.37-1.37l6.93-4c.48-.28,1.09-.11,1.37.37.28.48.11,1.09-.37,1.37l-6.93,4c-.16.09-.33.13-.5.13Z"/>
  <path class="cls-1" d="m44.46,23c-.35,0-.68-.18-.87-.5-.28-.48-.11-1.09.37-1.37l6.93-4c.48-.28,1.09-.11,1.37.37.28.48.11,1.09-.37,1.37l-6.93,4c-.16.09-.33.13-.5.13Z"/>
  <path class="cls-1" d="m13,32.5H5c-.55,0-1-.45-1-1s.45-1,1-1h8c.55,0,1,.45,1,1s-.45,1-1,1Z"/>
  <path class="cls-1" d="m55,32.5h-8c-.55,0-1-.45-1-1s.45-1,1-1h8c.55,0,1,.45,1,1s-.45,1-1,1Z"/>
  <path class="cls-1" d="m50.22,38.45c-.09,0-.17-.01-.26-.03l-3.86-1.04c-.53-.14-.85-.69-.71-1.22.14-.53.69-.85,1.22-.71l3.86,1.04c.53.14.85.69.71,1.22-.12.45-.52.74-.97.74Z"/>
  <path class="cls-1" d="m13.65,27.58c-.09,0-.17-.01-.26-.03l-3.86-1.04c-.53-.14-.85-.69-.71-1.22s.69-.85,1.22-.71l3.86,1.04c.53.14.85.69.71,1.22-.12.45-.52.74-.97.74Z"/>
  <path class="cls-1" d="m44.26,48.76c-.26,0-.51-.1-.71-.29l-2.83-2.83c-.39-.39-.39-1.02,0-1.41s1.02-.39,1.41,0l2.83,2.83c.39.39.39,1.02,0,1.41-.2.2-.45.29-.71.29Z"/>
  <path class="cls-1" d="m15.74,48.76c-.26,0-.51-.1-.71-.29-.39-.39-.39-1.02,0-1.41l2.83-2.83c.39-.39,1.02-.39,1.41,0s.39,1.02,0,1.41l-2.83,2.83c-.2.2-.45.29-.71.29Z"/>
  <path class="cls-1" d="m9.78,38.45c-.44,0-.85-.29-.97-.74-.14-.53.17-1.08.71-1.22l3.86-1.04c.54-.15,1.08.17,1.22.71.14.53-.17,1.08-.71,1.22l-3.86,1.04c-.09.02-.17.03-.26.03Z"/>
  <path class="cls-1" d="m46.35,27.58c-.44,0-.85-.29-.97-.74-.14-.53.17-1.08.71-1.22l3.86-1.04c.53-.14,1.08.17,1.22.71.14.53-.17,1.08-.71,1.22l-3.86,1.04c-.09.02-.17.03-.26.03Z"/>
  <path class="cls-1" d="m30,56.5c-.55,0-1-.45-1-1v-18c0-.55.45-1,1-1s1,.45,1,1v18c0,.55-.45,1-1,1Z"/>
  <path class="cls-1" d="m35,56.5h-10c-1.1,0-2-.9-2-2v-31.65l-12.12-12.23c-.56-.56-.88-1.32-.88-2.12s.31-1.56.88-2.12c1.17-1.17,3.07-1.17,4.24,0l14.88,14.72,14.88-14.72c1.17-1.17,3.07-1.17,4.24,0,.57.57.88,1.32.88,2.12s-.31,1.55-.88,2.12l-12.12,12.23v31.65c0,1.1-.9,2-2,2ZM13,7.5c-.26,0-.51.1-.71.29s-.29.44-.29.71.1.52.29.71l12.42,12.53c.19.19.29.44.29.7v32.06h10V22.44c0-.26.1-.52.29-.7l12.41-12.53c.19-.19.3-.44.3-.71s-.1-.52-.29-.71c-.39-.39-1.02-.39-1.41,0l-15.59,15.42c-.39.39-1.02.39-1.41,0L13.71,7.8c-.2-.2-.46-.3-.71-.3Z"/>
  <path class="cls-1" d="m30,16.5c-3.31,0-6-2.69-6-6s2.69-6,6-6,6,2.69,6,6-2.69,6-6,6Zm0-10c-2.21,0-4,1.79-4,4s1.79,4,4,4,4-1.79,4-4-1.79-4-4-4Z"/>
</svg>