<?xml version="1.0" encoding="UTF-8"?>
<svg id="Layer_1" data-name="Layer 1" xmlns="http://www.w3.org/2000/svg" viewBox="0 0 60 60">
  <defs>
    <style>
      .cls-1 {
        fill: #37464c;
        stroke-width: 0px;
      }
    </style>
  </defs>
  <g>
    <path class="cls-1" d="m30.66,33.91c-5.28,0-9.17-4.93-9.91-12.56-.47-4.83.34-8.43,2.41-10.71,1.71-1.88,4.23-2.83,7.5-2.83s5.88.97,7.6,2.89c2.06,2.3,2.84,5.89,2.31,10.67-.85,7.74-4.65,12.55-9.91,12.55Zm0-23.95c-2.63,0-4.62.72-5.9,2.13-1.64,1.81-2.27,4.86-1.86,9.05.63,6.45,3.67,10.61,7.76,10.61s7.04-4.07,7.77-10.62c.46-4.14-.14-7.17-1.77-8.99-1.29-1.44-3.3-2.17-5.99-2.17Z"/>
    <path class="cls-1" d="m21.66,18.46v-2c4.41,0,8-3.16,8-7.04h2c0,4.98-4.49,9.04-10,9.04Z"/>
    <path class="cls-1" d="m39.72,18.46c-5.54,0-10.06-4.06-10.06-9.04h2c0,3.88,3.61,7.04,8.06,7.04v2Z"/>
    <path class="cls-1" d="m43.62,38.12l-.37-1.97c1.66-.31,3.13-1.04,4.14-2.06.91-.92,1.31-1.95,1.13-2.92l1.97-.37c.3,1.62-.29,3.29-1.67,4.69-1.29,1.3-3.13,2.23-5.19,2.62Z"/>
    <path class="cls-1" d="m50.31,32.95c-4.02,0-7.18-2.26-7.18-5.15h2c0,1.71,2.37,3.15,5.18,3.15v2Z"/>
    <rect class="cls-1" x="43.13" y="13.44" width="2" height="14.88"/>
    <path class="cls-1" d="m45.13,13.98h-2c0-4.15-3.74-7.53-8.34-7.53v-2c5.7,0,10.34,4.27,10.34,9.53Z"/>
    <path class="cls-1" d="m32.16,8.37h-2c0-2.16,2.08-3.92,4.63-3.92v2c-1.43,0-2.63.88-2.63,1.92Z"/>
    <path class="cls-1" d="m18.84,37.77c-4.63,0-8.39-3.04-8.39-6.77h2c0,2.63,2.87,4.77,6.39,4.77v2Z"/>
    <path class="cls-1" d="m10.94,32.95v-2c2.96,0,5.46-1.55,5.46-3.38h2c0,3.02-3.28,5.38-7.46,5.38Z"/>
    <rect class="cls-1" x="16.4" y="13.21" width="2" height="14.88"/>
    <path class="cls-1" d="m18.4,13.75h-2c0-5.13,4.78-9.3,10.64-9.3v2c-4.77,0-8.64,3.27-8.64,7.3Z"/>
    <path class="cls-1" d="m31.68,8.37h-2c0-1.04-1.21-1.92-2.63-1.92v-2c2.55,0,4.63,1.76,4.63,3.92Z"/>
  </g>
  <g>
    <path class="cls-1" d="m30.67,56.6h0c-.36,0-.67-.25-.75-.6l-5.22-22.09v-3.65h1.06v3.59l4.93,20.8,5.19-20.96-.14-3.61,1.06-.04.15,3.76-5.5,22.22c-.09.35-.4.59-.76.59Z"/>
    <path class="cls-1" d="m30.67,57.15h0c-.62,0-1.15-.42-1.29-1.02l-5.24-22.22v-4.2h2.16v4.07l4.39,18.52,4.62-18.68-.16-4.08,2.16-.09.17,4.38-5.51,22.3c-.15.6-.68,1.01-1.29,1.01Z"/>
  </g>
  <g>
    <path class="cls-1" d="m30.8,41.5c-2.33,0-4.46-1.48-5.18-3.6l1-.34c.58,1.7,2.3,2.89,4.18,2.89s3.58-1.27,4.15-3.08l1.01.32c-.7,2.25-2.83,3.83-5.16,3.83Z"/>
    <path class="cls-1" d="m30.8,42.04c-2.56,0-4.9-1.63-5.7-3.97l-.18-.52,2.04-.7.18.52c.51,1.48,2.01,2.51,3.66,2.51s3.13-1.11,3.62-2.7l.16-.53,2.06.64-.16.52c-.78,2.48-3.11,4.21-5.68,4.21Z"/>
  </g>
  <g>
    <path class="cls-1" d="m8.24,55.49l-.12-11.02c.3-2.54,1.92-4.64,4.24-5.55l9.71-4.2,2.8-2.48.7.79-3.01,2.62-9.8,4.24c-1.97.78-3.33,2.55-3.59,4.63l.12,10.95h-1.06Z"/>
    <path class="cls-1" d="m7.69,56.05l-.12-11.57c.33-2.78,2.08-5.08,4.58-6.07l9.61-4.16,3.15-2.78,1.43,1.62-3.57,3.08-9.8,4.24c-1.79.71-3.03,2.31-3.26,4.19l.13,11.43-2.16.02Z"/>
  </g>
  <g>
    <path class="cls-1" d="m52.43,54.2l-.17-9.85c-.25-2.05-1.6-3.85-3.53-4.62l-9.85-4.02-2.69-2.7.73-.76,2.61,2.62,9.58,3.86c2.29.92,3.89,3.05,4.19,5.55l.17,9.9-1.05.02Z"/>
    <path class="cls-1" d="m51.89,54.76l-.18-10.4c-.22-1.82-1.44-3.42-3.19-4.12l-10.04-4.14-3.07-3.08,1.5-1.55,2.93,2.94,9.48,3.82c2.47,1,4.21,3.29,4.53,5.99l.18,10.5-2.15.04Z"/>
  </g>
  <path class="cls-1" d="m40.69,47.07h-1.7c0-1.38-.71-2.35-1.36-2.35v-1.7c1.71,0,3.05,1.78,3.05,4.05Z"/>
  <path class="cls-1" d="m37.63,44.72c-.47,0-.85-.38-.85-.85s.38-.85.85-.85c.82,0,1.48-.51,1.48-1.14,0-.47.38-.85.85-.85s.85.38.85.85c0,1.56-1.43,2.84-3.18,2.84Z"/>
  <rect class="cls-1" x="37.49" y="38.28" width="5.53" height="1.7" transform="translate(-2.79 75.17) rotate(-84.13)"/>
  <path class="cls-1" d="m35.33,57.24c-.15,0-.3-.04-.43-.12-.4-.24-.54-.76-.3-1.16l3.41-5.77c.24-.4.76-.54,1.16-.3.4.24.54.76.3,1.16l-3.41,5.77c-.16.27-.44.42-.73.42Z"/>
  <path class="cls-1" d="m39.22,51.42l-1.37-1.01c.74-1,1.14-2.15,1.14-3.33h1.7c0,1.55-.51,3.05-1.47,4.35Z"/>
  <path class="cls-1" d="m22.48,46.95h-1.7c0-2.27,1.34-4.05,3.06-4.05v1.7c-.64,0-1.36.96-1.36,2.35Z"/>
  <path class="cls-1" d="m23.84,44.61c-1.76,0-3.18-1.27-3.18-2.84,0-.47.38-.85.85-.85s.85.38.85.85c0,.62.68,1.14,1.49,1.14.47,0,.85.38.85.85s-.38.85-.85.85Z"/>
  <rect class="cls-1" x="20.37" y="36.26" width="1.7" height="5.53" transform="translate(-3.89 2.38) rotate(-5.88)"/>
  <path class="cls-1" d="m26.34,57.45c-.29,0-.57-.15-.73-.42l-3.6-6.09c-.24-.4-.11-.93.3-1.16.41-.24.93-.1,1.16.3l3.6,6.09c.24.4.11.93-.3,1.16-.14.08-.29.12-.43.12Z"/>
  <path class="cls-1" d="m22.25,51.3c-.96-1.29-1.47-2.8-1.47-4.35h1.7c0,1.18.39,2.33,1.14,3.33l-1.36,1.01Z"/>
</svg>