<?xml version="1.0" encoding="UTF-8"?>
<svg id="Layer_1" data-name="Layer 1" xmlns="http://www.w3.org/2000/svg" viewBox="0 0 60 60">
  <defs>
    <style>
      .cls-1 {
        fill: #37464c;
        stroke-width: 0px;
      }
    </style>
  </defs>
  <g>
    <g>
      <g>
        <path class="cls-1" d="m29.86,30.2c-5.25,0-9.12-4.99-9.87-12.72-.48-4.92.33-8.57,2.4-10.84,1.68-1.86,4.2-2.8,7.48-2.8s5.89.96,7.58,2.85c2.06,2.3,2.83,5.93,2.29,10.8h0c-.86,7.84-4.65,12.71-9.87,12.71Zm0-25.25c-2.95,0-5.19.82-6.65,2.43-1.85,2.04-2.56,5.4-2.11,9.99.69,7.11,4.13,11.71,8.76,11.71s7.97-4.49,8.76-11.72h0c.5-4.54-.18-7.88-2.02-9.93-1.47-1.64-3.74-2.48-6.75-2.48Z"/>
        <path class="cls-1" d="m29.86,30.75c-5.55,0-9.64-5.19-10.42-13.21-.49-5.08.36-8.87,2.54-11.27,1.79-1.98,4.45-2.98,7.88-2.98s6.19,1.02,7.99,3.03c2.17,2.42,2.98,6.2,2.43,11.23-.9,8.14-4.89,13.2-10.42,13.2Zm0-26.36c-3.11,0-5.49.88-7.07,2.62-1.96,2.16-2.72,5.67-2.26,10.42.72,7.42,4.38,12.22,9.33,12.22s8.49-4.68,9.33-12.22c.52-4.71-.21-8.2-2.16-10.37-1.59-1.77-4-2.67-7.17-2.67Zm0,25.25c-4.93,0-8.59-4.79-9.31-12.21-.46-4.75.3-8.25,2.25-10.41,1.57-1.73,3.95-2.61,7.06-2.61s5.58.9,7.16,2.66c1.95,2.17,2.67,5.66,2.15,10.36-.83,7.53-4.4,12.21-9.31,12.21Zm0-24.13c-2.79,0-4.89.76-6.24,2.25-1.74,1.92-2.4,5.13-1.97,9.56.66,6.81,3.89,11.21,8.21,11.21s7.45-4.3,8.22-11.23c.48-4.38-.15-7.58-1.88-9.51-1.36-1.52-3.5-2.3-6.34-2.3Z"/>
      </g>
      <path class="cls-1" d="m29.97,13.02c-2.41,0-5.22-.59-5.22-2.26,0-.47.38-.85.85-.85.42,0,.77.31.84.71.29.26,1.55.7,3.54.7.47,0,.85.38.85.85s-.38.85-.85.85Zm-3.53-2.26h0s0,0,0,0Z"/>
      <path class="cls-1" d="m29.97,13.02c-.47,0-.85-.38-.85-.85s.38-.85.85-.85c2.18,0,3.48-.74,3.53-1.04,0-.47.38-.85.85-.85s.85.38.85.85c0,1.8-2.63,2.74-5.23,2.74Z"/>
      <path class="cls-1" d="m21.05,13.85c-.47,0-.85-.38-.85-.85s.38-.85.85-.85c2.29,0,3.69-.9,3.69-1.39s.38-.85.85-.85.85.38.85.85c0,1.76-2.32,3.09-5.39,3.09Z"/>
      <path class="cls-1" d="m38.9,13.49c-3.08,0-5.41-1.38-5.41-3.2,0-.47.38-.85.85-.85s.85.38.85.85c0,.6,1.48,1.5,3.71,1.5.47,0,.85.38.85.85s-.38.85-.85.85Z"/>
    </g>
    <g>
      <path class="cls-1" d="m29.89,34.19c-2.45,0-4.7-1.92-5.47-4.68l1.06-.45c.61,2.21,2.43,3.75,4.41,3.75s3.77-1.65,4.37-4l1.06.41c-.74,2.92-2.98,4.97-5.44,4.97Z"/>
      <path class="cls-1" d="m29.89,34.74c-2.7,0-5.16-2.09-6-5.08l-.13-.47,2.08-.88.17.6c.55,1.97,2.14,3.35,3.88,3.35s3.3-1.48,3.84-3.59l.15-.6,2.1.81-.12.47c-.81,3.17-3.26,5.38-5.97,5.38Zm-4.79-4.91c.81,2.27,2.72,3.81,4.79,3.81s3.98-1.66,4.77-4.08l-.04-.02c-.8,2.28-2.67,3.83-4.73,3.83s-3.92-1.44-4.75-3.56l-.04.02Z"/>
    </g>
    <g>
      <path class="cls-1" d="m6.21,52.53l-.12-11.62c.32-2.67,2.03-4.89,4.47-5.85l10.23-4.43,2.96-2.61.74.84-3.17,2.76-10.33,4.47c-2.07.82-3.52,2.69-3.78,4.88l.13,11.55h-1.12Z"/>
      <path class="cls-1" d="m5.67,53.08l-.13-12.17c.34-2.92,2.19-5.33,4.81-6.37l10.14-4.39,3.3-2.92,1.47,1.66-3.73,3.22-10.33,4.47c-1.9.75-3.21,2.45-3.45,4.44l.14,12.03-2.21.03Zm15.38-21.97l-10.28,4.45c-2.27.9-3.85,2.97-4.14,5.41l.14,11-.12-11c.29-2.47,1.87-4.51,4.13-5.4l10.28-4.46Zm2.64-2.32l-1.31,1.16,1.32-1.15h0Z"/>
    </g>
    <g>
      <path class="cls-1" d="m52.8,51.17l-.18-10.25c-.26-2.14-1.7-4-3.76-4.82l-10.49-4.19-2.86-2.81.78-.79,2.78,2.73,10.2,4.02c2.44.96,4.15,3.18,4.46,5.78l.18,10.31-1.12.02Z"/>
      <path class="cls-1" d="m52.26,51.73l-.19-10.8c-.24-1.9-1.54-3.58-3.41-4.31l-10.68-4.31-3.25-3.2,1.55-1.58,3.09,3.04,10.1,3.98c2.62,1.04,4.47,3.42,4.81,6.22l.2,10.92-2.21.04Zm-6.82-17.59l3.62,1.45c2.24.88,3.81,2.9,4.1,5.26l.19,9.76-.17-9.76c-.29-2.34-1.87-4.39-4.12-5.28l-3.62-1.43Zm-6.77-2.7h.03s-2.41-2.36-2.41-2.36h-.01s2.39,2.36,2.39,2.36Z"/>
    </g>
  </g>
  <g>
    <path class="cls-1" d="m29.78,57.04h0c-.46,0-.86-.25-.97-.6l-6.69-22.09v-3.65h1.36v3.59l6.32,20.8,6.65-20.96-.18-3.61,1.35-.04.19,3.76-7.04,22.22c-.11.35-.51.59-.97.59Z"/>
    <path class="cls-1" d="m29.78,57.59h0c-.7,0-1.32-.41-1.49-.99l-6.72-22.25v-4.2h2.46v4.05l5.78,19.02,6.08-19.18-.2-4.07,2.45-.08.22,4.39-.03.09-7.04,22.22c-.19.58-.79.98-1.5.98Zm0-.66v.11s0-.11,0-.11h0Zm7.05-25.88l.16,3.15-.03.09-7.04,22.19c.17-.03.28-.13.3-.2l7.01-22.13-.16-3.12h-.25Zm-14.17,3.22l6.67,22.02c.02.07.13.16.3.2l-6.72-22.19v-3.04h-.26v3.02Z"/>
  </g>
  <path class="cls-1" d="m20.38,46.77h-1.7c0-1.95,1.01-3.43,2.34-3.43v1.7c-.16,0-.65.61-.65,1.73Z"/>
  <path class="cls-1" d="m21.03,45.04c-2.15,0-3.84-1.25-3.84-2.84,0-.47.38-.85.85-.85s.85.38.85.85c0,.54.92,1.14,2.14,1.14.47,0,.85.38.85.85s-.38.85-.85.85Z"/>
  <rect class="cls-1" x="16.31" y="32.09" width="1.7" height="10.19" transform="translate(-6.18 3.53) rotate(-9.97)"/>
  <path class="cls-1" d="m24.76,57.67c-.29,0-.57-.15-.73-.41l-4.41-7.36c-.24-.4-.11-.92.29-1.17.4-.24.93-.11,1.17.29l4.41,7.36c.24.4.11.92-.29,1.17-.14.08-.29.12-.44.12Z"/>
  <path class="cls-1" d="m19.64,49.92c-.63-.99-.95-2.05-.95-3.15h1.7c0,.77.23,1.52.69,2.23l-1.44.91Z"/>
  <path class="cls-1" d="m40.85,46.99h-1.7c0-1.11-.49-1.73-.65-1.73v-1.7c1.34,0,2.34,1.47,2.34,3.43Z"/>
  <path class="cls-1" d="m38.5,45.26c-.47,0-.85-.38-.85-.85s.38-.85.85-.85c1.23,0,2.14-.6,2.14-1.14,0-.47.38-.85.85-.85s.85.38.85.85c0,1.59-1.69,2.84-3.84,2.84Z"/>
  <rect class="cls-1" x="37.28" y="36.56" width="10.19" height="1.7" transform="translate(-1.82 72.65) rotate(-80.01)"/>
  <path class="cls-1" d="m34.77,57.89c-.15,0-.3-.04-.44-.12-.4-.24-.53-.76-.29-1.17l4.41-7.36c.24-.4.76-.53,1.17-.29.4.24.53.76.29,1.17l-4.41,7.36c-.16.27-.44.41-.73.41Z"/>
  <path class="cls-1" d="m39.9,50.14l-1.44-.91c.46-.72.69-1.47.69-2.23h1.7c0,1.09-.32,2.15-.95,3.15Z"/>
  <path class="cls-1" d="m29.71,40.04c-.16,0-.32-.01-.49-.04-.85-.13-1.59-.58-2.1-1.27-.51-.69-.72-1.54-.59-2.38.26-1.75,1.9-2.96,3.65-2.7.85.13,1.6.58,2.11,1.27.51.69.72,1.54.59,2.38-.13.85-.58,1.59-1.27,2.1-.56.41-1.22.63-1.9.63Zm0-4.72c-.73,0-1.38.54-1.49,1.29h0c-.06.4.04.8.28,1.12s.59.54.99.6c.4.06.8-.04,1.12-.28s.54-.59.6-.99c.06-.4-.04-.8-.28-1.12-.24-.32-.59-.54-.99-.6-.08-.01-.15-.02-.22-.02Z"/>
  <rect class="cls-1" x="23.47" y="42.11" width="8.32" height="1.7" transform="translate(-20.85 59.06) rotate(-75.63)"/>
  <rect class="cls-1" x="31.52" y="38.84" width="1.7" height="8.24" transform="translate(-8.34 7.81) rotate(-12.19)"/>
</svg>