<?xml version="1.0" encoding="UTF-8"?>
<svg id="Layer_1" data-name="Layer 1" xmlns="http://www.w3.org/2000/svg" viewBox="0 0 60 60">
  <defs>
    <style>
      .cls-1 {
        fill: #37464c;
        stroke-width: 0px;
      }
    </style>
  </defs>
  <path class="cls-1" d="m19.15,57.2h-10c-1.1,0-2-.9-2-2v-15.1c-2.28-.46-4-2.48-4-4.9v-12.77c0-1.95,1.24-3.68,3.09-4.29l2.58-.89c.36-.12.76-.03,1.03.24l4.29,4.29,4.29-4.29c.19-.19.44-.29.71-.29h15.89c1.52,0,2.83,1.08,3.07,2.5.14.88-.1,1.77-.67,2.44-.57.67-1.4,1.06-2.29,1.06h-12c-1.1,0-2,.9-2,2v30c0,1.1-.9,2-2,2ZM8.15,24.2c.55,0,1,.45,1,1v30h10v-30c0-2.21,1.79-4,4-4h12c.29,0,.57-.13.76-.35.19-.23.27-.52.22-.82-.08-.46-.56-.82-1.09-.82h-15.48l-4.71,4.71c-.39.39-1.02.39-1.41,0l-4.56-4.56-2,.69c-1.04.34-1.73,1.3-1.73,2.39v12.77c0,1.3.84,2.42,2,2.83v-12.83c0-.55.45-1,1-1Z"/>
  <path class="cls-1" d="m14.15,57.2c-.55,0-1-.45-1-1v-18c0-.55.45-1,1-1s1,.45,1,1v18c0,.55-.45,1-1,1Z"/>
  <path class="cls-1" d="m14.15,17.2c-3.31,0-6-2.69-6-6s2.69-6,6-6,6,2.69,6,6-2.69,6-6,6Zm0-10c-2.21,0-4,1.79-4,4s1.79,4,4,4,4-1.79,4-4-1.79-4-4-4Z"/>
  <path class="cls-1" d="m51.15,57.2h-4c-1.1,0-2-.9-2-2v-24h-5c-.36,0-.68-.19-.86-.5s-.18-.69,0-1l9-16c.35-.63,1.39-.63,1.74,0l9,16c.17.31.17.69,0,1s-.51.5-.86.5h-5v24c0,1.1-.9,2-2,2Zm-9.29-28h4.29c.55,0,1,.45,1,1v25h4v-25c0-.55.45-1,1-1h4.29l-7.29-12.96-7.29,12.96Z"/>
  <path class="cls-1" d="m41.15,57.2h-4c-1.1,0-2-.9-2-2v-18c0-1.1.9-2,2-2h4c1.1,0,2,.9,2,2v18c0,1.1-.9,2-2,2Zm-4-20h0v18h4v-18h-4Z"/>
  <path class="cls-1" d="m31.15,57.2h-4c-1.1,0-2-.9-2-2v-8c0-1.1.9-2,2-2h4c1.1,0,2,.9,2,2v8c0,1.1-.9,2-2,2Zm-4-10h0v8h4v-8h-4Z"/>
</svg>