<?xml version="1.0" encoding="UTF-8"?>
<svg id="Layer_1" data-name="Layer 1" xmlns="http://www.w3.org/2000/svg" viewBox="0 0 60 60">
  <defs>
    <style>
      .cls-1 {
        fill: #37464c;
        stroke-width: 0px;
      }
    </style>
  </defs>
  <path class="cls-1" d="m11.5,15.53c-.52,0-.95-.4-1-.92l-.54-6.74c-.02-.29.08-.58.29-.79s.49-.31.79-.29l6.74.54c.55.04.96.53.92,1.08-.04.55-.53.96-1.08.92l-5.58-.44.44,5.57c.04.55-.37,1.03-.92,1.08-.03,0-.05,0-.08,0Z"/>
  <path class="cls-1" d="m49.56,47.38s-.05,0-.08,0l-6.74-.54c-.55-.04-.96-.53-.92-1.08.04-.55.54-.96,1.08-.92l5.57.44-.44-5.57c-.04-.55.37-1.03.92-1.08.57-.04,1.03.37,1.08.92l.54,6.74c.02.29-.08.58-.29.79-.19.19-.44.29-.71.29Z"/>
  <path class="cls-1" d="m49.56,47.38c-.26,0-.51-.1-.71-.29l-10.2-10.21c-.39-.39-.39-1.02,0-1.41s1.02-.39,1.41,0l10.2,10.21c.39.39.39,1.02,0,1.41-.2.2-.45.29-.71.29Z"/>
  <path class="cls-1" d="m20.89,18.72c-.26,0-.51-.1-.71-.29l-9.93-9.93c-.39-.39-.39-1.02,0-1.41s1.02-.39,1.41,0l9.93,9.93c.39.39.39,1.02,0,1.41-.2.2-.45.29-.71.29Z"/>
  <path class="cls-1" d="m8.12,32.48c-.23,0-.46-.08-.65-.24l-5.15-4.39c-.22-.19-.35-.47-.35-.76s.13-.57.35-.76l5.15-4.39c.42-.36,1.05-.31,1.41.11.36.42.31,1.05-.11,1.41l-4.25,3.63,4.25,3.63c.42.36.47.99.11,1.41-.2.23-.48.35-.76.35Z"/>
  <path class="cls-1" d="m52.4,32.48c-.28,0-.56-.12-.76-.35-.36-.42-.31-1.05.11-1.41l4.25-3.63-4.25-3.63c-.42-.36-.47-.99-.11-1.41.36-.42.99-.47,1.41-.11l5.15,4.39c.22.19.35.47.35.76s-.13.57-.35.76l-5.15,4.39c-.19.16-.42.24-.65.24Z"/>
  <path class="cls-1" d="m57.55,28.09h-16.3c-.55,0-1-.45-1-1s.45-1,1-1h16.3c.55,0,1,.45,1,1s-.45,1-1,1Z"/>
  <path class="cls-1" d="m19.68,28.09H2.98c-.55,0-1-.45-1-1s.45-1,1-1h16.71c.55,0,1,.45,1,1s-.45,1-1,1Z"/>
  <path class="cls-1" d="m10.97,47.38c-.26,0-.52-.1-.71-.29-.21-.21-.31-.49-.29-.79l.54-6.74c.04-.55.54-.96,1.08-.92.55.04.96.53.92,1.08l-.44,5.57,5.58-.44c.55-.04,1.03.37,1.08.92s-.37,1.03-.92,1.08l-6.74.54s-.05,0-.08,0Z"/>
  <path class="cls-1" d="m49.02,15.54s-.05,0-.08,0c-.55-.04-.96-.53-.92-1.08l.44-5.57-5.57.44c-.54.04-1.03-.37-1.08-.92-.04-.55.37-1.03.92-1.08l6.74-.54c.29-.02.58.08.79.29.21.21.31.49.29.79l-.54,6.74c-.04.52-.48.92-1,.92Z"/>
  <path class="cls-1" d="m39.63,18.72c-.26,0-.51-.1-.71-.29-.39-.39-.39-1.02,0-1.41l9.93-9.93c.39-.39,1.02-.39,1.41,0s.39,1.02,0,1.41l-9.93,9.93c-.2.2-.45.29-.71.29Z"/>
  <path class="cls-1" d="m10.97,47.38c-.26,0-.51-.1-.71-.29-.39-.39-.39-1.02,0-1.41l10.2-10.2c.39-.39,1.02-.39,1.41,0s.39,1.02,0,1.41l-10.2,10.2c-.2.2-.45.29-.71.29Z"/>
  <path class="cls-1" d="m30.26,14.08c-2.91,0-5.28-2.37-5.28-5.28s2.37-5.28,5.28-5.28,5.28,2.37,5.28,5.28-2.37,5.28-5.28,5.28Zm0-8.55c-1.81,0-3.28,1.47-3.28,3.28s1.47,3.28,3.28,3.28,3.28-1.47,3.28-3.28-1.47-3.28-3.28-3.28Z"/>
  <path class="cls-1" d="m33.51,57h-6.49c-.93,0-1.74-.77-1.81-1.71l-1.26-17.11c-1.9-.35-4.05-1.87-4.2-3.59l-.96-12.93c0-.14,0-.23,0-.28,0-2.82,2.25-5.19,5.01-5.26h12.94c2.78.07,5.04,2.43,5.04,5.27v.04s-.96,13.15-.96,13.15c-.15,1.76-2.26,3.25-4.21,3.61l-1.27,17.11c-.07.94-.88,1.71-1.81,1.71Zm3.2-39.89h-12.91c-2.21.05-4.02,1.97-4.02,4.28,0,.06,0,.11,0,.2l.96,12.92c.11,1.25,1.99,2.49,3.53,2.71.07,0,.13.02.19.02l.43.04,1.33,17.94c.03.43.4.79.81.79h6.49c.41,0,.78-.36.81-.79l1.33-17.94.43-.04c.06,0,.12-.01.19-.02,1.54-.23,3.42-1.47,3.53-2.73l.96-13.12c0-2.29-1.82-4.2-4.05-4.26Z"/>
  <path class="cls-1" d="m21.17,37.18c-.25,0-.5-.09-.69-.28-.74-.7-1.17-1.51-1.24-2.33l-.55-7.42c-.04-.55.37-1.03.92-1.07.56-.05,1.03.37,1.07.92l.55,7.4c.03.31.25.68.63,1.04.4.38.42,1.01.03,1.41-.2.21-.46.31-.72.31Z"/>
  <path class="cls-1" d="m33.51,57.45h-6.5c-1.2,0-2.22-.96-2.31-2.18l-1.24-16.74c-1.09-.28-2.2-.87-2.99-1.63-.4-.38-.41-1.01-.03-1.41.38-.4,1.02-.41,1.41-.03.63.6,1.62,1.09,2.47,1.21.05,0,.11.01.16.02.49.04.88.43.92.92l1.29,17.51c.01.18.18.32.31.32h6.5c.13,0,.3-.14.31-.32l1.29-17.51c.04-.49.42-.88.92-.92.05,0,.1-.01.16-.02,1.46-.22,3.02-1.36,3.1-2.28l.55-7.52c.04-.55.5-.96,1.07-.92.55.04.96.52.92,1.07l-.55,7.53c-.16,1.88-2.22,3.47-4.23,3.98l-1.24,16.74c-.09,1.22-1.1,2.18-2.31,2.18Z"/>
  <path class="cls-1" d="m40.84,27.95s-.05,0-.07,0c-.55-.04-.96-.52-.92-1.07l.41-5.61c0-1.02-.47-2.07-1.29-2.79-.41-.37-.45-1-.08-1.41.37-.41,1-.45,1.41-.08,1.25,1.1,1.96,2.69,1.96,4.36l-.41,5.69c-.04.53-.48.93-1,.93Z"/>
  <path class="cls-1" d="m19.68,28.09c-.52,0-.96-.4-1-.93l-.41-5.52c0-.18,0-.28,0-.34,0-3.07,2.46-5.66,5.5-5.73h12.95c1.32.03,2.58.53,3.57,1.41.41.37.45,1,.08,1.41-.37.41-1,.45-1.41.08-.64-.57-1.45-.89-2.27-.91h-12.9c-1.93.05-3.52,1.74-3.52,3.78,0,.07,0,.11,0,.17l.41,5.5c.04.55-.37,1.03-.92,1.07-.03,0-.05,0-.08,0Z"/>
  <path class="cls-1" d="m30.26,56.95c-.55,0-1-.45-1-1v-19.44c0-.55.45-1,1-1s1,.45,1,1v19.44c0,.55-.45,1-1,1Z"/>
  <path class="cls-1" d="m24.41,38.74c-.52,0-.96-.4-1-.93l-1.08-14.6c-.04-.55.37-1.03.92-1.07.56-.05,1.03.37,1.07.92l1.08,14.6c.04.55-.37,1.03-.92,1.07-.03,0-.05,0-.08,0Z"/>
  <path class="cls-1" d="m36.12,38.74s-.05,0-.08,0c-.55-.04-.96-.52-.92-1.07l1.08-14.6c.04-.55.5-.97,1.07-.92.55.04.96.52.92,1.07l-1.08,14.6c-.04.53-.48.93-1,.93Z"/>
</svg>