<?xml version="1.0" encoding="UTF-8"?>
<svg id="Layer_1" data-name="Layer 1" xmlns="http://www.w3.org/2000/svg" viewBox="0 0 60 60">
  <defs>
    <style>
      .cls-1 {
        fill: #37464c;
        stroke-width: 0px;
      }
    </style>
  </defs>
  <g>
    <g>
      <path class="cls-1" d="m20.6,38.31h-10.38c-.32,0-.58-.26-.58-.58v-1.89c0-1.9,1.54-3.44,3.44-3.44h4.66c1.9,0,3.44,1.54,3.44,3.44v1.89c0,.32-.26.58-.58.58Zm-9.8-1.16h9.22v-1.31c0-1.26-1.02-2.28-2.28-2.28h-4.66c-1.26,0-2.28,1.02-2.28,2.28v1.31Z"/>
      <path class="cls-1" d="m20.6,38.69h-10.38c-.53,0-.95-.43-.95-.96v-1.89c0-2.1,1.71-3.81,3.81-3.81h4.66c2.1,0,3.81,1.71,3.81,3.81v1.89c0,.53-.43.96-.96.96Zm-7.52-5.91c-1.69,0-3.06,1.38-3.06,3.06v1.89c0,.11.09.21.2.21h10.38c.11,0,.21-.09.21-.21v-1.89c0-1.69-1.37-3.06-3.06-3.06h-4.66Zm7.32,4.75h-9.97v-1.69c0-1.46,1.19-2.66,2.66-2.66h4.66c1.46,0,2.65,1.19,2.65,2.66v1.69Zm-9.22-.75h8.47v-.94c0-1.05-.85-1.91-1.9-1.91h-4.66c-1.05,0-1.91.85-1.91,1.91v.94Z"/>
    </g>
    <g>
      <path class="cls-1" d="m15.41,31.45c-1.92,0-3.48-1.56-3.48-3.48s1.56-3.48,3.48-3.48,3.48,1.56,3.48,3.48-1.56,3.48-3.48,3.48Zm0-5.81c-1.28,0-2.32,1.04-2.32,2.32s1.04,2.32,2.32,2.32,2.32-1.04,2.32-2.32-1.04-2.32-2.32-2.32Z"/>
      <path class="cls-1" d="m15.41,31.82c-2.13,0-3.86-1.73-3.86-3.86s1.73-3.86,3.86-3.86,3.86,1.73,3.86,3.86-1.73,3.86-3.86,3.86Zm0-6.97c-1.71,0-3.11,1.39-3.11,3.11s1.39,3.11,3.11,3.11,3.11-1.39,3.11-3.11-1.39-3.11-3.11-3.11Zm0,5.81c-1.49,0-2.7-1.21-2.7-2.7s1.21-2.7,2.7-2.7,2.7,1.21,2.7,2.7-1.21,2.7-2.7,2.7Zm0-4.65c-1.07,0-1.95.87-1.95,1.95s.87,1.95,1.95,1.95,1.95-.87,1.95-1.95-.87-1.95-1.95-1.95Z"/>
    </g>
  </g>
  <g>
    <path class="cls-1" d="m48.93,46.97H9.67c-3.33,0-6.05-2.71-6.05-6.05v-19.05c0-3.33,2.71-6.05,6.05-6.05h39.26c3.33,0,6.05,2.71,6.05,6.05v19.05c0,3.33-2.71,6.05-6.05,6.05ZM9.67,16.99c-2.69,0-4.89,2.19-4.89,4.89v19.05c0,2.69,2.19,4.89,4.89,4.89h39.26c2.69,0,4.89-2.19,4.89-4.89v-19.05c0-2.69-2.19-4.89-4.89-4.89H9.67Z"/>
    <path class="cls-1" d="m48.93,47.34H9.67c-3.54,0-6.42-2.88-6.42-6.42v-19.05c0-3.54,2.88-6.42,6.42-6.42h39.26c3.54,0,6.42,2.88,6.42,6.42v19.05c0,3.54-2.88,6.42-6.42,6.42ZM9.67,16.2c-3.13,0-5.67,2.54-5.67,5.67v19.05c0,3.13,2.54,5.67,5.67,5.67h39.26c3.13,0,5.67-2.54,5.67-5.67v-19.05c0-3.13-2.54-5.67-5.67-5.67H9.67Zm39.26,29.98H9.67c-2.9,0-5.26-2.36-5.26-5.26v-19.05c0-2.9,2.36-5.26,5.26-5.26h39.26c2.9,0,5.26,2.36,5.26,5.26v19.05c0,2.9-2.36,5.26-5.26,5.26ZM9.67,17.36c-2.49,0-4.51,2.02-4.51,4.51v19.05c0,2.49,2.02,4.51,4.51,4.51h39.26c2.49,0,4.51-2.02,4.51-4.51v-19.05c0-2.49-2.02-4.51-4.51-4.51H9.67Z"/>
  </g>
  <g>
    <path class="cls-1" d="m23.39,41.35H7.44c-.32,0-.58-.26-.58-.58v-18.74c0-.32.26-.58.58-.58h15.95c.32,0,.58.26.58.58v18.74c0,.32-.26.58-.58.58Zm-15.37-1.16h14.79v-17.58h-14.79v17.58Z"/>
    <path class="cls-1" d="m23.39,41.72H7.44c-.53,0-.96-.43-.96-.95v-18.74c0-.53.43-.95.96-.95h15.95c.53,0,.95.43.95.95v18.74c0,.53-.43.95-.95.95ZM7.44,21.82c-.11,0-.21.09-.21.2v18.74c0,.11.09.2.21.2h15.95c.11,0,.2-.09.2-.2v-18.74c0-.11-.09-.2-.2-.2H7.44Zm15.75,18.74H7.64v-18.33h15.54v18.33Zm-14.79-.75h14.04v-16.83h-14.04v16.83Z"/>
  </g>
  <g>
    <g>
      <path class="cls-1" d="m45.42,24.17h-14.17c-.32,0-.58-.26-.58-.58s.26-.58.58-.58h14.17c.32,0,.58.26.58.58s-.26.58-.58.58Z"/>
      <path class="cls-1" d="m45.42,24.54h-14.17c-.53,0-.95-.43-.95-.95s.43-.95.95-.95h14.17c.53,0,.96.43.96.95s-.43.95-.96.95Zm-14.17-1.16c-.11,0-.2.09-.2.2s.09.2.2.2h14.17c.11,0,.21-.09.21-.2s-.09-.2-.21-.2h-14.17Z"/>
    </g>
    <g>
      <path class="cls-1" d="m49.04,28.3h-21.42c-.32,0-.58-.26-.58-.58s.26-.58.58-.58h21.42c.32,0,.58.26.58.58s-.26.58-.58.58Z"/>
      <path class="cls-1" d="m49.04,28.67h-21.42c-.53,0-.95-.43-.95-.95s.43-.96.95-.96h21.42c.53,0,.95.43.95.96s-.43.95-.95.95Zm-21.42-1.16c-.11,0-.2.09-.2.21s.09.2.2.2h21.42c.11,0,.2-.09.2-.2s-.09-.21-.2-.21h-21.42Z"/>
    </g>
    <g>
      <path class="cls-1" d="m49.04,31.42h-21.42c-.32,0-.58-.26-.58-.58s.26-.58.58-.58h21.42c.32,0,.58.26.58.58s-.26.58-.58.58Z"/>
      <path class="cls-1" d="m49.04,31.79h-21.42c-.53,0-.95-.43-.95-.95s.43-.96.95-.96h21.42c.53,0,.95.43.95.96s-.43.95-.95.95Zm-21.42-1.16c-.11,0-.2.09-.2.21s.09.2.2.2h21.42c.11,0,.2-.09.2-.2s-.09-.21-.2-.21h-21.42Z"/>
    </g>
    <g>
      <path class="cls-1" d="m49.04,34.54h-21.42c-.32,0-.58-.26-.58-.58s.26-.58.58-.58h21.42c.32,0,.58.26.58.58s-.26.58-.58.58Z"/>
      <path class="cls-1" d="m49.04,34.92h-21.42c-.53,0-.95-.43-.95-.96s.43-.96.95-.96h21.42c.53,0,.95.43.95.96s-.43.96-.95.96Zm-21.42-1.16c-.11,0-.2.09-.2.21s.09.21.2.21h21.42c.11,0,.2-.09.2-.21s-.09-.21-.2-.21h-21.42Z"/>
    </g>
    <g>
      <path class="cls-1" d="m49.04,39.78h-5.35c-.32,0-.58-.26-.58-.58s.26-.58.58-.58h5.35c.32,0,.58.26.58.58s-.26.58-.58.58Z"/>
      <path class="cls-1" d="m49.04,40.16h-5.35c-.53,0-.95-.43-.95-.95s.43-.96.95-.96h5.35c.53,0,.95.43.95.96s-.43.95-.95.95Zm-5.35-1.16c-.11,0-.2.09-.2.21s.09.2.2.2h5.35c.11,0,.2-.09.2-.2s-.09-.21-.2-.21h-5.35Z"/>
    </g>
  </g>
</svg>