<?xml version="1.0" encoding="UTF-8"?>
<svg id="Layer_1" data-name="Layer 1" xmlns="http://www.w3.org/2000/svg" viewBox="0 0 60 60">
  <defs>
    <style>
      .cls-1 {
        fill: #37464c;
        stroke-width: 0px;
      }
    </style>
  </defs>
  <path class="cls-1" d="m30.05,17.69c-3.12,0-5.66-2.54-5.66-5.66s2.54-5.66,5.66-5.66,5.66,2.54,5.66,5.66-2.54,5.66-5.66,5.66Zm0-9.33c-2.02,0-3.66,1.64-3.66,3.66s1.64,3.66,3.66,3.66,3.66-1.64,3.66-3.66-1.64-3.66-3.66-3.66Z"/>
  <path class="cls-1" d="m34.71,55h-9.33c-1.07,0-1.93-.87-1.93-1.93v-27.98c0-.99-.81-1.8-1.8-1.8h-10.26c-1.58,0-2.87-1.29-2.87-2.87s1.29-2.87,2.87-2.87h13.99c.27,0,.52.11.71.29l3.96,3.96,3.96-3.96c.19-.19.44-.29.71-.29h13.99c1.58,0,2.87,1.29,2.87,2.87s-1.29,2.87-2.87,2.87h-10.26c-.99,0-1.8.81-1.8,1.8v27.98c0,1.07-.87,1.93-1.93,1.93ZM11.4,19.55c-.48,0-.87.39-.87.87s.39.87.87.87h10.26c2.09,0,3.8,1.7,3.8,3.8v27.98l9.26-.07-.07-27.92c0-2.09,1.7-3.8,3.8-3.8h10.26c.48,0,.87-.39.87-.87s-.39-.87-.87-.87h-13.58l-4.37,4.37c-.39.39-1.02.39-1.41,0l-4.37-4.37h-13.58Z"/>
  <path class="cls-1" d="m30.05,55c-.55,0-1-.45-1-1v-16.79c0-.55.45-1,1-1s1,.45,1,1v16.79c0,.55-.45,1-1,1Z"/>
  <path class="cls-1" d="m12.33,45.67c-5.7,0-10.33-4.63-10.33-10.33s4.63-10.33,10.33-10.33,10.33,4.63,10.33,10.33-4.63,10.33-10.33,10.33Zm0-18.66c-4.59,0-8.33,3.74-8.33,8.33s3.74,8.33,8.33,8.33,8.33-3.74,8.33-8.33-3.74-8.33-8.33-8.33Z"/>
  <path class="cls-1" d="m48.71,40.08h-3.73c-.55,0-1-.45-1-1s.45-1,1-1h3.73c.48,0,.87-.39.87-.87s-.39-.87-.87-.87h-1.87c-1.58,0-2.87-1.29-2.87-2.87s1.29-2.87,2.87-2.87h3.73c.55,0,1,.45,1,1s-.45,1-1,1h-3.73c-.48,0-.87.39-.87.87s.39.87.87.87h1.87c1.58,0,2.87,1.29,2.87,2.87s-1.29,2.87-2.87,2.87Z"/>
  <path class="cls-1" d="m47.77,32.61c-.55,0-1-.45-1-1v-1.87c0-.55.45-1,1-1s1,.45,1,1v1.87c0,.55-.45,1-1,1Z"/>
  <path class="cls-1" d="m47.77,41.94c-.55,0-1-.45-1-1v-1.87c0-.55.45-1,1-1s1,.45,1,1v1.87c0,.55-.45,1-1,1Z"/>
  <path class="cls-1" d="m47.77,45.67c-5.7,0-10.33-4.63-10.33-10.33s4.63-10.33,10.33-10.33,10.33,4.63,10.33,10.33-4.63,10.33-10.33,10.33Zm0-18.66c-4.59,0-8.33,3.74-8.33,8.33s3.74,8.33,8.33,8.33,8.33-3.74,8.33-8.33-3.74-8.33-8.33-8.33Z"/>
  <path class="cls-1" d="m15.13,39.14c-.26,0-.51-.1-.71-.29l-2.8-2.8c-.19-.19-.29-.44-.29-.71v-5.6c0-.55.45-1,1-1s1,.45,1,1v5.18l2.5,2.51c.39.39.39,1.02,0,1.41-.2.2-.45.29-.71.29Z"/>
  <path class="cls-1" d="m5.8,36.34c-.07,0-.13,0-.2-.02-.06,0-.12-.03-.18-.05-.06-.03-.12-.06-.18-.09-.05-.04-.1-.08-.15-.13-.18-.18-.29-.44-.29-.7,0-.14.02-.27.07-.39.06-.12.13-.23.22-.32.05-.05.1-.09.15-.13.06-.03.12-.06.18-.09.06-.02.12-.04.18-.05.34-.07.68.04.9.27.1.09.17.2.22.32.05.12.08.25.08.39,0,.26-.11.51-.3.7-.18.19-.44.29-.7.29Z"/>
  <path class="cls-1" d="m18.86,36.34c-.13,0-.26-.02-.39-.07-.12-.05-.23-.13-.32-.22-.05-.05-.09-.1-.12-.15-.04-.06-.07-.11-.1-.17-.02-.06-.04-.13-.05-.19-.02-.06-.02-.13-.02-.2,0-.26.1-.52.29-.7.09-.1.2-.17.32-.22.37-.15.81-.06,1.09.22.19.18.3.44.3.7s-.11.53-.3.71c-.18.19-.44.29-.7.29Z"/>
  <path class="cls-1" d="m12.33,42.87c-.27,0-.52-.1-.71-.29-.18-.18-.29-.44-.29-.71s.11-.52.29-.7c.28-.28.72-.37,1.09-.22.12.05.23.12.32.22.19.18.3.44.3.7s-.11.52-.3.71c-.18.19-.44.29-.7.29Z"/>
</svg>