<?xml version="1.0" encoding="UTF-8"?>
<svg id="Layer_1" data-name="Layer 1" xmlns="http://www.w3.org/2000/svg" viewBox="0 0 60 60">
  <defs>
    <style>
      .cls-1 {
        fill: #37464c;
        stroke-width: 0px;
      }
    </style>
  </defs>
  <g>
    <g>
      <path class="cls-1" d="m39.31,15.53c-3.07-.4-4.65-2.19-5.19-2.94-.56-.78-.81-1.54-.71-2.08.05-.23.04-.41.01-.54-2.54,1.5-10.02,2.08-12.64,2.04l.02-1.12c3.37.06,10.69-.76,12.28-2.04.25-.2.58-.21.86-.04.49.3.72,1.09.56,1.91-.02.12.07.58.52,1.21.45.63,1.79,2.14,4.43,2.48l-.14,1.11Z"/>
      <path class="cls-1" d="m39.79,16.14l-.54-.07c-3.28-.43-4.99-2.36-5.57-3.17-.52-.73-.8-1.44-.83-2.05-3.19,1.27-9.7,1.72-12.06,1.7h-.55s.03-2.22.03-2.22h.55c3.53.07,10.54-.8,11.93-1.91.43-.34,1.01-.37,1.49-.08.7.43,1.02,1.43.81,2.49.01,0,.1.33.43.78.41.57,1.63,1.94,4.05,2.26l.54.07-.29,2.2Zm-5.86-6.47l.04.19c.04.23.04.48-.01.75-.06.3.07.89.61,1.65.46.65,1.77,2.13,4.27,2.63h0c-2.49-.51-3.8-1.99-4.26-2.63-.45-.63-.69-1.26-.61-1.64.07-.37.05-.7-.04-.95Zm-12.58,1.77h0c3.22-.02,9.62-.67,11.8-1.95l.42-.25s-.09,0-.14.04c-1.69,1.35-8.53,2.13-12.08,2.16Z"/>
    </g>
    <g>
      <path class="cls-1" d="m29.9,30.38c-5.25,0-9.12-4.99-9.87-12.72-.48-4.92.33-8.57,2.4-10.84,1.68-1.86,4.2-2.8,7.48-2.8s5.89.96,7.58,2.85c2.06,2.3,2.83,5.93,2.29,10.8h0c-.86,7.84-4.65,12.71-9.87,12.71Zm0-25.25c-2.95,0-5.19.82-6.65,2.43-1.85,2.04-2.56,5.4-2.11,9.99.69,7.11,4.13,11.71,8.76,11.71s7.97-4.49,8.76-11.72h0c.5-4.54-.18-7.88-2.02-9.93-1.47-1.64-3.74-2.48-6.75-2.48Z"/>
      <path class="cls-1" d="m29.9,30.93c-5.55,0-9.64-5.19-10.42-13.22-.49-5.08.36-8.87,2.54-11.27,1.79-1.98,4.45-2.98,7.88-2.98s6.19,1.02,7.99,3.03c2.17,2.42,2.98,6.2,2.43,11.23-.9,8.14-4.89,13.2-10.42,13.2Zm0-26.36c-3.11,0-5.49.88-7.07,2.62-1.96,2.16-2.72,5.67-2.26,10.42.72,7.42,4.38,12.22,9.32,12.22s8.49-4.68,9.33-12.22c.52-4.71-.21-8.2-2.16-10.37-1.58-1.77-4-2.67-7.17-2.67Zm0,25.25c-4.93,0-8.59-4.79-9.31-12.21-.46-4.75.3-8.25,2.25-10.41,1.57-1.73,3.95-2.61,7.06-2.61s5.58.9,7.16,2.66c1.95,2.17,2.67,5.66,2.15,10.36-.83,7.53-4.4,12.21-9.31,12.21Zm0-24.13c-2.79,0-4.89.76-6.24,2.25-1.74,1.92-2.4,5.13-1.97,9.57.66,6.81,3.89,11.21,8.21,11.21s7.45-4.3,8.22-11.23c.48-4.38-.15-7.58-1.88-9.51-1.36-1.52-3.5-2.3-6.34-2.3Z"/>
    </g>
  </g>
  <g>
    <path class="cls-1" d="m29.93,34.19c-2.45,0-4.7-1.56-5.47-3.8l1.06-.36c.61,1.79,2.43,3.04,4.41,3.04s3.77-1.34,4.37-3.25l1.06.33c-.74,2.37-2.98,4.03-5.44,4.03Z"/>
    <path class="cls-1" d="m29.93,34.74c-2.68,0-5.14-1.71-5.99-4.17l-.18-.52,2.1-.72.18.52c.54,1.57,2.14,2.67,3.89,2.67s3.32-1.18,3.85-2.87l.16-.53,2.11.66-.17.52c-.81,2.6-3.27,4.42-5.96,4.42Zm-4.74-4.01c.84,1.74,2.71,2.92,4.74,2.92s3.91-1.26,4.72-3.13h-.01c-.81,1.86-2.67,3.12-4.71,3.12s-3.89-1.17-4.72-2.91h-.01Z"/>
  </g>
  <g>
    <path class="cls-1" d="m6.27,53.71l-.13-12.19c.33-2.81,2.12-5.13,4.66-6.14l10.68-4.64,3.08-2.74.77.88-3.31,2.9-10.78,4.69c-2.16.86-3.67,2.82-3.95,5.12l.13,12.11h-1.16Z"/>
    <path class="cls-1" d="m5.72,54.27l-.14-12.74c.36-3.05,2.27-5.57,5.01-6.65l10.58-4.6,3.43-3.05,1.5,1.71-3.86,3.35-10.78,4.69c-1.99.79-3.37,2.58-3.62,4.68l.14,12.59-2.26.02Zm18.79-25.49l-2.82,2.46-10.68,4.64c-2.38.94-4.03,3.12-4.33,5.7l.13,11.57h.06s-.13-11.56-.13-11.56c.31-2.57,1.95-4.71,4.29-5.64l10.69-4.65,2.83-2.48-.04-.05Z"/>
  </g>
  <g>
    <path class="cls-1" d="m52.81,52.35l-.18-10.92c-.27-2.28-1.76-4.26-3.88-5.13l-10.83-4.46-2.95-2.99.81-.85,2.87,2.91,10.53,4.29c2.52,1.02,4.28,3.38,4.61,6.15l.19,10.98-1.15.02Z"/>
    <path class="cls-1" d="m52.27,52.91l-.19-11.47c-.25-2.04-1.6-3.84-3.54-4.63l-11.01-4.58-3.33-3.37,1.57-1.64,3.19,3.23,10.42,4.24c2.7,1.1,4.6,3.63,4.94,6.6l.2,11.58-2.25.04Zm-14.04-21.53l10.73,4.42c2.3.94,3.92,3.07,4.22,5.57l.18,10.42h.05s-.18-10.43-.18-10.43c-.3-2.52-1.93-4.7-4.26-5.65l-10.71-4.41-2.47-2.5-.05.05,2.5,2.54Z"/>
  </g>
  <path class="cls-1" d="m30.12,39.76c-.16,0-.32-.01-.48-.04-.85-.13-1.59-.58-2.1-1.27-.51-.69-.72-1.54-.59-2.38h0c.13-.85.58-1.59,1.27-2.1.69-.51,1.54-.72,2.38-.59,1.75.26,2.96,1.9,2.7,3.65-.24,1.59-1.61,2.73-3.17,2.73Zm0-4.72c-.32,0-.63.1-.89.3-.33.24-.54.59-.6.99h0c-.12.82.44,1.59,1.27,1.72.83.13,1.59-.44,1.72-1.27.06-.4-.04-.8-.28-1.12-.24-.33-.59-.54-.99-.6-.08-.01-.15-.02-.23-.02Z"/>
  <rect class="cls-1" x="21.36" y="44.31" width="13.2" height="1.7" transform="translate(-21.29 65.03) rotate(-80.21)"/>
  <rect class="cls-1" x="32.11" y="38.57" width="1.7" height="12.26" transform="translate(-7.1 6.24) rotate(-9.76)"/>
  <g>
    <path class="cls-1" d="m29.85,56.95h0c-.71,0-1.33-.22-1.49-.54l-10.33-19.94v-3.29h2.09v3.24l9.75,18.77,10.26-18.92-.28-3.26,2.09-.04.29,3.39-10.87,20.06c-.17.32-.79.54-1.5.54Z"/>
    <path class="cls-1" d="m29.85,57.2h0c-.83,0-1.5-.27-1.71-.68l-10.36-20.06v-3.54h2.59v3.43l9.51,18.3,10-18.45-.29-3.45,2.59-.05.32,3.7-.04.07-10.88,20.06c-.22.4-.89.67-1.72.67Zm-11.58-20.8l10.3,19.89c.1.2.61.41,1.27.41v.25s0-.25,0-.25c.66,0,1.17-.21,1.28-.4l10.84-19.99-.26-3.08-1.59.03.26,3.06-.04.07-10.48,19.34-10-19.31v-2.99h-1.59v2.98Z"/>
  </g>
  <rect class="cls-1" x="19.91" y="34.28" width="8.26" height="1.7" transform="translate(-9.72 9.19) rotate(-18.08)"/>
  <rect class="cls-1" x="35.13" y="30.95" width="1.7" height="8.43" transform="translate(-9.03 57.65) rotate(-70.88)"/>
  <rect class="cls-1" x="41.32" y="43.44" width="6.02" height="1.7" transform="translate(-.41 .41) rotate(-.53)"/>
</svg>