<?xml version="1.0" encoding="UTF-8"?>
<svg xmlns="http://www.w3.org/2000/svg" version="1.1" viewBox="0 0 60 60">
  <defs>
    <style>
      .cls-1 {
        fill: #6100dc;
      }
    </style>
  </defs>
  <!-- Generator: Adobe Illustrator 28.6.0, SVG Export Plug-In . SVG Version: 1.2.0 Build 709)  -->
  <g>
    <g id="Layer_1">
      <path class="cls-1" d="M51.4,46c-.2,0-.3,0-.5-.1l-6.9-4c-.5-.3-.6-.9-.4-1.4.3-.5.9-.6,1.4-.4l6.9,4c.5.3.6.9.4,1.4-.2.3-.5.5-.9.5Z"/>
      <path class="cls-1" d="M15.5,23c-.2,0-.3,0-.5-.1l-6.9-4c-.5-.3-.6-.9-.4-1.4.3-.5.9-.6,1.4-.4l6.9,4c.5.3.6.9.4,1.4-.2.3-.5.5-.9.5Z"/>
      <path class="cls-1" d="M8.6,46c-.4,0-.7-.2-.9-.5-.3-.5-.1-1.1.4-1.4l6.9-4c.5-.3,1.1-.1,1.4.4s.1,1.1-.4,1.4l-6.9,4c-.2,0-.3.1-.5.1Z"/>
      <path class="cls-1" d="M44.5,23c-.3,0-.7-.2-.9-.5-.3-.5-.1-1.1.4-1.4l6.9-4c.5-.3,1.1-.1,1.4.4.3.5.1,1.1-.4,1.4l-6.9,4c-.2,0-.3.1-.5.1Z"/>
      <path class="cls-1" d="M13,32.5H5c-.6,0-1-.5-1-1s.4-1,1-1h8c.6,0,1,.5,1,1s-.4,1-1,1Z"/>
      <path class="cls-1" d="M55,32.5h-8c-.5,0-1-.5-1-1s.5-1,1-1h8c.5,0,1,.5,1,1s-.5,1-1,1Z"/>
      <path class="cls-1" d="M50.2,38.5c0,0-.2,0-.3,0l-3.9-1c-.5-.1-.8-.7-.7-1.2.1-.5.7-.8,1.2-.7l3.9,1c.5.1.8.7.7,1.2-.1.5-.5.7-1,.7h0Z"/>
      <path class="cls-1" d="M13.6,27.6c0,0-.2,0-.3,0l-3.9-1c-.5-.1-.9-.7-.7-1.2s.7-.9,1.2-.7l3.9,1c.5.1.9.7.7,1.2-.1.5-.5.7-1,.7h0Z"/>
      <path class="cls-1" d="M44.3,48.8c-.3,0-.5,0-.7-.3l-2.8-2.8c-.4-.4-.4-1,0-1.4s1-.4,1.4,0l2.8,2.8c.4.4.4,1,0,1.4s-.5.3-.7.3h0Z"/>
      <path class="cls-1" d="M15.7,48.8c-.3,0-.5,0-.7-.3-.4-.4-.4-1,0-1.4l2.8-2.8c.4-.4,1-.4,1.4,0s.4,1,0,1.4l-2.8,2.8c-.2.2-.4.3-.7.3h0Z"/>
      <path class="cls-1" d="M9.8,38.5c-.4,0-.9-.3-1-.7-.1-.5.2-1.1.7-1.2l3.9-1c.5-.2,1.1.2,1.2.7.1.5-.2,1.1-.7,1.2l-3.9,1c0,0-.2,0-.3,0h0Z"/>
      <path class="cls-1" d="M46.3,27.6c-.4,0-.8-.3-1-.7-.1-.5.2-1.1.7-1.2l3.9-1c.5-.1,1.1.2,1.2.7.1.5-.2,1.1-.7,1.2l-3.9,1c0,0-.2,0-.3,0h0Z"/>
      <path class="cls-1" d="M30,56.5c-.5,0-1-.5-1-1v-18c0-.5.5-1,1-1s1,.5,1,1v18c0,.5-.5,1-1,1Z"/>
      <path class="cls-1" d="M35,56.5h-10c-1.1,0-2-.9-2-2v-31.6l-12.1-12.2c-.6-.6-.9-1.3-.9-2.1s.3-1.6.9-2.1c1.2-1.2,3.1-1.2,4.2,0l14.9,14.7,14.9-14.7c1.2-1.2,3.1-1.2,4.2,0,.6.6.9,1.3.9,2.1s-.3,1.6-.9,2.1l-12.1,12.2v31.6c0,1.1-.9,2-2,2ZM13,7.5c-.3,0-.5,0-.7.3s-.3.4-.3.7.1.5.3.7l12.4,12.5c.2.2.3.4.3.7v32.1h10V22.4c0-.3,0-.5.3-.7l12.4-12.5c.2-.2.3-.4.3-.7s0-.5-.3-.7c-.4-.4-1-.4-1.4,0l-15.6,15.4c-.4.4-1,.4-1.4,0L13.7,7.8c-.2-.2-.5-.3-.7-.3Z"/>
      <path class="cls-1" d="M30,16.5c-3.3,0-6-2.7-6-6s2.7-6,6-6,6,2.7,6,6-2.7,6-6,6ZM30,6.5c-2.2,0-4,1.8-4,4s1.8,4,4,4,4-1.8,4-4-1.8-4-4-4Z"/>
    </g>
  </g>
</svg>