<?xml version="1.0" encoding="UTF-8"?>
<svg id="Layer_1" data-name="Layer 1" xmlns="http://www.w3.org/2000/svg" viewBox="0 0 60 60">
  <defs>
    <style>
      .cls-1 {
        fill: #37464c;
        stroke-width: 0px;
      }
    </style>
  </defs>
  <path class="cls-1" d="m32.5,8.41c-.26,0-.52-.1-.71-.29-.18-.18-.29-.44-.29-.7s.11-.53.29-.71c.38-.38,1.04-.38,1.42,0,.18.18.29.44.29.71s-.11.52-.29.7c-.19.19-.45.29-.71.29Z"/>
  <path class="cls-1" d="m47.33,43.91c-.98,0-1.96-.37-2.71-1.12-1.49-1.49-1.49-3.93,0-5.42l1.34-1.33c1.5-1.49,3.93-1.49,5.42,0,1.49,1.49,1.49,3.93,0,5.42l-1.33,1.34h0c-.75.75-1.73,1.12-2.71,1.12Zm2-1.83h0,0Zm-.67-5.17c-.47,0-.94.18-1.3.54l-1.34,1.33c-.71.71-.71,1.88,0,2.59.71.71,1.88.71,2.59,0l1.33-1.34c.71-.71.71-1.88,0-2.59-.36-.36-.83-.54-1.3-.54Z"/>
  <path class="cls-1" d="m46.33,37.41c-.98,0-1.96-.37-2.71-1.12-1.49-1.49-1.49-3.93,0-5.42l2.34-2.33c1.5-1.49,3.93-1.49,5.42,0,1.49,1.49,1.49,3.93,0,5.42l-2.33,2.34h0c-.75.75-1.73,1.12-2.71,1.12Zm2-1.83h0,0Zm.33-6.17c-.47,0-.94.18-1.3.54l-2.34,2.33c-.71.71-.71,1.88,0,2.59.71.71,1.88.71,2.59,0l2.33-2.34c.71-.71.71-1.88,0-2.59-.36-.36-.83-.54-1.3-.54Z"/>
  <path class="cls-1" d="m45.33,30.41c-.98,0-1.96-.37-2.71-1.12-1.49-1.49-1.49-3.93,0-5.42l3.34-3.33c1.49-1.5,3.93-1.49,5.42,0,1.49,1.49,1.49,3.93,0,5.42l-3.33,3.34h0c-.75.75-1.73,1.12-2.71,1.12Zm2-1.83h0,0Zm1.33-7.17c-.47,0-.94.18-1.3.54l-3.34,3.33c-.71.71-.71,1.88,0,2.59.71.71,1.88.71,2.59,0l3.33-3.34c.71-.71.71-1.88,0-2.59-.36-.36-.83-.54-1.3-.54Z"/>
  <path class="cls-1" d="m34.5,44.41h-4c-.55,0-1-.45-1-1s.45-1,1-1h4c.55,0,1,.45,1,1s-.45,1-1,1Z"/>
  <path class="cls-1" d="m7.5,46.41c-.26,0-.51-.1-.71-.29-.39-.39-.39-1.02,0-1.41l.24-.24c.94-.94,1.46-2.2,1.46-3.54v-5.09c0-2.76.82-5.35,2.38-7.49,1.75-2.41,3.94-6.57,4.45-12.68.09-1.06.71-1.99,1.65-2.48.88-.46,1.92-.45,2.77.05,4.19,2.42,4.43,9.32.7,20.51-.17.52-.74.81-1.27.63-.52-.17-.81-.74-.63-1.27,3.29-9.87,3.36-16.31.19-18.14-.35-.2-.68-.09-.84,0-.33.17-.55.51-.58.88-.55,6.58-2.93,11.08-4.83,13.69-1.3,1.8-1.99,3.98-1.99,6.32v5.09c0,1.87-.73,3.63-2.05,4.95l-.24.24c-.2.2-.45.29-.71.29Z"/>
  <path class="cls-1" d="m41.5,50.41h-18c-2.76,0-5-2.24-5-5v-12c0-.11.02-.21.05-.32,3.21-9.62,3.35-16.01.39-18-.28-.19-.44-.5-.44-.83v-6.86c0-2.76,2.24-5,5-5h18c2.76,0,5,2.24,5,5v6.22c0,.55-.45,1-1,1s-1-.45-1-1v-6.22c0-1.65-1.35-3-3-3h-18c-1.65,0-3,1.35-3,3v6.36c3.42,2.81,3.42,9.47,0,19.81v11.84c0,1.65,1.35,3,3,3h18c1.65,0,3-1.35,3-3v-3.17c0-.55.45-1,1-1s1,.45,1,1v3.17c0,2.76-2.24,5-5,5Z"/>
  <path class="cls-1" d="m45.5,23.41c-.55,0-1-.45-1-1v-8.78c0-.55.45-1,1-1s1,.45,1,1v8.78c0,.55-.45,1-1,1Z"/>
  <path class="cls-1" d="m22.5,58.41c-.26,0-.51-.1-.71-.29-.39-.39-.39-1.02,0-1.41l.4-.4c1.11-1.11,2.58-1.81,4.25-2.01,3.98-.48,7.62-2.45,10.24-5.53.36-.42.99-.47,1.41-.11.42.36.47.99.11,1.41-2.95,3.47-7.04,5.67-11.52,6.22-1.22.15-2.29.65-3.08,1.44l-.4.4c-.2.2-.45.29-.71.29Z"/>
  <path class="cls-1" d="m46.12,22.41c-.26,0-.51-.1-.71-.29-.39-.39-.39-1.02,0-1.41l3.05-3.05c.71-.71.71-1.88,0-2.59-.53-.53-1.31-.68-2-.4-.51.21-1.1-.03-1.31-.54-.21-.51.03-1.1.54-1.31,1.44-.59,3.07-.27,4.17.83,1.49,1.49,1.49,3.93,0,5.42l-3.05,3.05c-.2.2-.45.29-.71.29Z"/>
  <path class="cls-1" d="m45.66,14.96c-.33,0-.66-.16-.85-.47-.29-.47-.16-1.08.31-1.38.19-.12.38-.22.58-.3.51-.21,1.09.03,1.3.55.21.51-.04,1.1-.55,1.3-.09.04-.18.08-.27.14-.17.1-.35.15-.53.15Z"/>
</svg>