<?xml version="1.0" encoding="UTF-8"?>
<svg id="Layer_1" data-name="Layer 1" xmlns="http://www.w3.org/2000/svg" viewBox="0 0 60 60">
  <defs>
    <style>
      .cls-1 {
        fill: #37464c;
        stroke-width: 0px;
      }
    </style>
  </defs>
  <g>
    <path class="cls-1" d="m39.94,57.27h-19.41c-4.11,0-7.45-3.34-7.45-7.45V10.27c0-4.11,3.34-7.45,7.45-7.45h19.41c4.11,0,7.45,3.34,7.45,7.45v39.56c0,4.11-3.34,7.45-7.45,7.45ZM20.53,4.06c-3.42,0-6.21,2.78-6.21,6.21v39.56c0,3.42,2.78,6.21,6.21,6.21h19.41c3.42,0,6.21-2.78,6.21-6.21V10.27c0-3.42-2.78-6.21-6.21-6.21h-19.41Z"/>
    <path class="cls-1" d="m39.94,57.65h-19.41c-4.31,0-7.82-3.51-7.82-7.82V10.27c0-4.31,3.51-7.82,7.82-7.82h19.41c4.31,0,7.82,3.51,7.82,7.82v39.56c0,4.31-3.51,7.82-7.82,7.82ZM20.53,3.2c-3.9,0-7.07,3.17-7.07,7.07v39.56c0,3.9,3.17,7.07,7.07,7.07h19.41c3.9,0,7.07-3.17,7.07-7.07V10.27c0-3.9-3.17-7.07-7.07-7.07h-19.41Zm19.41,53.21h-19.41c-3.63,0-6.58-2.95-6.58-6.58V10.27c0-3.63,2.95-6.58,6.58-6.58h19.41c3.63,0,6.58,2.95,6.58,6.58v39.56c0,3.63-2.95,6.58-6.58,6.58ZM20.53,4.44c-3.21,0-5.83,2.62-5.83,5.83v39.56c0,3.21,2.62,5.83,5.83,5.83h19.41c3.21,0,5.83-2.62,5.83-5.83V10.27c0-3.21-2.62-5.83-5.83-5.83h-19.41Z"/>
  </g>
  <g>
    <path class="cls-1" d="m44.3,47.58h-28.12c-.34,0-.62-.28-.62-.62V13.14c0-.34.28-.62.62-.62h28.12c.34,0,.62.28.62.62v33.81c0,.34-.28.62-.62.62Zm-27.5-1.24h26.88V13.76h-26.88v32.57Z"/>
    <path class="cls-1" d="m44.3,47.95h-28.12c-.55,0-1-.45-1-1V13.14c0-.55.45-1,1-1h28.12c.55,0,1,.45,1,1v33.81c0,.55-.45,1-1,1ZM16.17,12.89c-.14,0-.25.11-.25.25v33.81c0,.14.11.25.25.25h28.12c.14,0,.25-.11.25-.25V13.14c0-.14-.11-.25-.25-.25h-28.12Zm27.88,33.81h-27.63V13.39h27.63v33.32Zm-26.88-.75h26.13V14.14h-26.13v31.82Z"/>
  </g>
</svg>