<?xml version="1.0" encoding="UTF-8"?>
<svg id="Layer_1" data-name="Layer 1" xmlns="http://www.w3.org/2000/svg" viewBox="0 0 60 60">
  <defs>
    <style>
      .cls-1 {
        fill: #37464c;
        stroke-width: 0px;
      }
    </style>
  </defs>
  <g>
    <g>
      <path class="cls-1" d="m31.1,18.31h0c-2.1,0-4.08-.82-5.56-2.31-3.07-3.07-3.07-8.06,0-11.13,1.49-1.49,3.46-2.3,5.56-2.3h0c2.1,0,4.08.82,5.56,2.31,3.07,3.07,3.07,8.06,0,11.13h0c-1.49,1.49-3.46,2.3-5.56,2.3Zm0-14.48c-1.76,0-3.42.69-4.67,1.94-2.58,2.58-2.58,6.77,0,9.35,1.25,1.25,2.91,1.94,4.67,1.94h0c1.76,0,3.42-.69,4.67-1.94,2.58-2.58,2.58-6.77,0-9.35-1.25-1.25-2.91-1.94-4.67-1.94h0Z"/>
      <path class="cls-1" d="m31.1,18.68c-2.2,0-4.27-.86-5.83-2.42-3.21-3.21-3.21-8.44,0-11.66,1.56-1.56,3.63-2.41,5.83-2.41s4.27.86,5.83,2.42c3.21,3.21,3.21,8.44,0,11.66-1.56,1.56-3.63,2.41-5.83,2.41Zm0-15.74c-2,0-3.88.78-5.3,2.19-2.92,2.92-2.92,7.68,0,10.6,1.41,1.42,3.29,2.2,5.3,2.2h0c2,0,3.88-.78,5.3-2.19,2.92-2.92,2.92-7.68,0-10.6-1.42-1.42-3.3-2.2-5.3-2.2Zm0,14.48c-1.87,0-3.62-.73-4.94-2.05-2.72-2.72-2.72-7.16,0-9.88,1.32-1.32,3.07-2.05,4.94-2.05s3.62.73,4.94,2.05c2.72,2.72,2.72,7.16,0,9.88-1.32,1.32-3.07,2.04-4.94,2.04Zm0-13.22c-1.66,0-3.23.65-4.41,1.83-2.43,2.43-2.43,6.39,0,8.82,1.18,1.18,2.74,1.83,4.41,1.83s3.23-.65,4.41-1.83c2.43-2.43,2.43-6.39,0-8.82-1.18-1.18-2.74-1.83-4.41-1.83h0Z"/>
    </g>
    <g>
      <g>
        <path class="cls-1" d="m31.03,14.49c-.5,0-1.07-.1-1.59-.44-1.12-.75-1.19-1.69-1.22-2.09v-.09c-.04-.35.21-.66.55-.69.34-.04.66.21.69.56,0,.04,0,.08.01.13.02.32.05.73.66,1.13.68.45,1.69.11,1.7.11.02,0,.05-.02.07-.02.01,0,.49-.13.72-.68.25-.59-.07-.97-.14-1.01-.23-.16-.71-.4-2.15-.67-1.6-.3-1.98-1.46-1.96-2.07,0-.21,0-1.03.62-1.67.49-.51,1.2-.75,2.1-.72.91.03,1.6.31,2.08.85.65.73.59,1.62.58,1.72-.03.35-.33.6-.68.57-.34-.03-.6-.33-.57-.67,0-.02.02-.47-.28-.8-.23-.26-.63-.4-1.17-.42-.54-.02-.92.09-1.15.33-.3.3-.28.76-.28.77,0,.02,0,.05,0,.08,0,.13.06.63.94.79,1.64.31,2.25.61,2.62.86.51.34,1.12,1.33.6,2.55-.38.89-1.15,1.3-1.57,1.4-.14.04-.61.18-1.19.18Z"/>
        <path class="cls-1" d="m31.03,14.62c-.63,0-1.19-.16-1.66-.46-1.18-.79-1.24-1.77-1.27-2.18v-.09c-.03-.2.03-.39.16-.55.13-.16.31-.25.51-.28.21-.02.4.04.55.16.16.13.26.31.28.51,0,.03,0,.07,0,.1v.03c.03.31.05.67.61,1.04.63.42,1.58.1,1.59.09.03,0,.06-.02.09-.03.01,0,.43-.12.64-.6.23-.55-.09-.86-.09-.86-.22-.15-.69-.38-2.11-.65-1.67-.31-2.08-1.53-2.06-2.19,0-.24.02-1.08.66-1.75.51-.53,1.25-.78,2.2-.76.94.03,1.67.33,2.17.89.68.77.62,1.71.61,1.82-.04.41-.4.71-.82.69-.41-.04-.72-.4-.69-.81,0-.07,0-.44-.25-.7-.21-.23-.58-.36-1.08-.37-.5-.03-.85.08-1.06.29-.25.26-.25.66-.24.67,0,.02,0,.06,0,.09,0,.08.04.51.84.67,1.66.31,2.28.62,2.67.87.54.36,1.19,1.42.64,2.71-.37.87-1.12,1.34-1.65,1.48-.17.05-.65.19-1.23.19Zm-2.19-3.32s-.04,0-.05,0c-.13.01-.25.08-.34.19-.08.1-.12.24-.11.37v.09c.04.38.1,1.28,1.17,2,.42.28.93.42,1.52.42.54,0,.99-.12,1.16-.18.11-.03,1.05-.29,1.49-1.33.49-1.15-.08-2.08-.55-2.4-.37-.24-.96-.53-2.58-.84-.99-.19-1.04-.8-1.04-.92,0-.02,0-.05,0-.07,0-.06,0-.53.32-.86.26-.26.69-.38,1.24-.36.57.02,1,.17,1.26.46.3.33.31.75.31.88-.02.29.18.53.46.55.01,0,.03,0,.04,0,.26,0,.48-.2.5-.46,0-.09.06-.94-.55-1.63-.45-.5-1.12-.78-1.99-.8-.87-.02-1.55.2-2.01.68-.58.6-.6,1.36-.59,1.58-.02.6.36,1.67,1.86,1.95,1.46.28,1.96.52,2.2.68.14.1.45.55.18,1.17-.25.58-.75.73-.8.75-.03,0-.04.01-.07.02,0,0-1.07.37-1.81-.12-.66-.44-.69-.9-.72-1.23v-.03s0-.07-.01-.1c-.01-.13-.08-.25-.18-.34-.09-.07-.2-.11-.32-.11Z"/>
      </g>
      <g>
        <path class="cls-1" d="m31.09,7.53h0c-.35,0-.63-.29-.62-.64v-1.03c.02-.35.31-.62.65-.62.35,0,.63.29.62.64v1.03c-.02.34-.3.62-.64.62Z"/>
        <path class="cls-1" d="m31.09,7.66h0c-.2,0-.39-.08-.53-.23-.14-.14-.22-.33-.21-.54v-1.04c.02-.41.36-.74.77-.74.2,0,.39.08.53.23.14.14.22.33.21.54v1.03c-.02.41-.36.74-.77.74Zm.02-2.29c-.27,0-.51.23-.51.5v1.03c-.01.13.04.26.13.36.09.1.22.15.35.15v.12s0-.12,0-.12c.27,0,.5-.22.5-.5v-1.04c.01-.13-.04-.26-.13-.36-.09-.1-.22-.15-.35-.15Z"/>
      </g>
      <g>
        <path class="cls-1" d="m31.07,15.63h0c-.35,0-.63-.29-.62-.64v-1.03c.02-.34.3-.62.64-.62h0c.35,0,.63.29.62.64v1.03c-.02.34-.3.62-.64.62Z"/>
        <path class="cls-1" d="m31.07,15.76h0c-.42,0-.75-.35-.75-.76v-1.04c.02-.41.36-.74.77-.74.21,0,.4.08.54.23.14.14.22.33.21.54v1.03c-.02.41-.36.74-.77.74Zm.02-2.29c-.28,0-.51.22-.51.5v1.03c-.02.28.21.51.49.51v.12s0-.12,0-.12c.27,0,.5-.22.5-.5v-1.04c.01-.13-.04-.26-.13-.36-.09-.1-.22-.15-.35-.15Z"/>
      </g>
    </g>
  </g>
  <g>
    <path class="cls-1" d="m31.1,55.72h0c-10.14,0-18.39-7.88-18.39-17.56,0-9.68,8.25-17.56,18.39-17.56h0c10.14,0,18.39,7.88,18.39,17.56h-.63.63c0,4.7-1.92,9.11-5.4,12.43-3.47,3.31-8.09,5.13-12.99,5.13Zm0-33.86c-9.45,0-17.13,7.31-17.13,16.3,0,8.99,7.68,16.3,17.13,16.3h0c4.58,0,8.89-1.7,12.12-4.78,3.23-3.08,5.01-7.17,5.01-11.52,0-8.99-7.68-16.3-17.13-16.3h0Z"/>
    <path class="cls-1" d="m31.1,56.1h0c-5,0-9.71-1.87-13.26-5.25-3.55-3.39-5.51-7.9-5.51-12.68,0-9.89,8.42-17.93,18.76-17.93,5,0,9.71,1.87,13.26,5.25,3.46,3.3,5.4,7.66,5.5,12.31h0v.38h0v.38c-.1,4.66-2.05,9.02-5.51,12.32-3.54,3.38-8.25,5.23-13.25,5.23Zm0-35.12c-9.93,0-18.02,7.71-18.02,17.18,0,4.58,1.87,8.89,5.28,12.14,3.41,3.25,7.93,5.05,12.74,5.05v.38s0-.38,0-.38c4.81,0,9.33-1.79,12.73-5.03,3.31-3.16,5.18-7.33,5.28-11.78h-.25v-.75h.25c-.1-4.44-1.96-8.6-5.27-11.76-3.41-3.25-7.93-5.05-12.74-5.05Zm0,33.86c-4.67,0-9.06-1.74-12.37-4.88-3.31-3.15-5.14-7.34-5.14-11.79,0-9.19,7.85-16.67,17.51-16.67h0c4.67,0,9.06,1.74,12.37,4.88,3.31,3.15,5.14,7.34,5.14,11.79s-1.82,8.64-5.12,11.79c-3.31,3.15-7.71,4.89-12.38,4.89Zm0-32.98v.38c-9.24,0-16.75,7.14-16.76,15.92,0,4.24,1.74,8.24,4.91,11.25,3.17,3.02,7.38,4.68,11.85,4.68s8.7-1.66,11.87-4.68c3.15-3.01,4.89-7,4.89-11.24s-1.74-8.24-4.91-11.25c-3.17-3.02-7.38-4.68-11.85-4.68v-.38Z"/>
  </g>
  <g>
    <path class="cls-1" d="m15.1,30.24c-.06-.08-1.49-2.09-2.37-4.68-1.22-3.56-.79-6.49,1.22-8.48,1.32-1.3,2.87-1.77,4.6-1.4,3.68.79,6.91,5.22,7.32,6.26l-1.17.45c-.29-.76-3.3-4.82-6.41-5.49-1.31-.28-2.44.07-3.46,1.07-4.04,3.98,1.24,11.46,1.29,11.53l-1.02.73Z"/>
    <path class="cls-1" d="m15.01,30.76l-.22-.3c-.06-.09-1.52-2.12-2.42-4.78-1.27-3.71-.81-6.77,1.31-8.87,1.42-1.4,3.08-1.9,4.95-1.5,3.81.82,7.11,5.26,7.59,6.49l.14.35-1.87.73-.14-.35c-.27-.7-3.22-4.63-6.14-5.26-1.19-.26-2.18.05-3.12.97-3.8,3.74,1.28,10.97,1.34,11.05l.22.3-1.63,1.17Zm2.42-14.83c-1.19,0-2.27.47-3.23,1.42-1.9,1.88-2.29,4.67-1.13,8.09.67,1.97,1.68,3.62,2.11,4.28l.41-.3c-.97-1.49-4.81-8-1.04-11.71,1.11-1.09,2.35-1.48,3.8-1.17,2.94.63,5.74,4.07,6.51,5.38l.48-.18c-.78-1.38-3.71-5.01-6.88-5.7-.35-.08-.7-.11-1.03-.11Z"/>
  </g>
  <g>
    <path class="cls-1" d="m47.09,30.24l-1.02-.73c.05-.07,5.33-7.55,1.3-11.53-1.02-1-2.15-1.35-3.46-1.07-3.1.67-6.12,4.73-6.41,5.49l-1.17-.45c.41-1.05,3.63-5.47,7.32-6.26,1.73-.37,3.28.1,4.6,1.4,2.01,1.98,2.44,4.92,1.22,8.48-.89,2.59-2.31,4.6-2.38,4.68Z"/>
    <path class="cls-1" d="m47.18,30.76l-1.63-1.17.22-.3c.05-.07,5.13-7.31,1.34-11.05-.93-.92-1.93-1.23-3.12-.97-2.92.63-5.87,4.56-6.14,5.26l-.14.35-1.87-.73.14-.35c.48-1.24,3.78-5.67,7.59-6.49,1.87-.41,3.53.1,4.95,1.5,2.12,2.09,2.58,5.16,1.31,8.87-.87,2.56-2.27,4.56-2.42,4.78l-.22.31Zm-.6-1.35l.42.3c.44-.67,1.44-2.3,2.11-4.28,1.17-3.42.78-6.21-1.13-8.09-1.23-1.21-2.66-1.64-4.26-1.3-3.17.68-6.1,4.31-6.88,5.69l.48.18c.76-1.31,3.57-4.75,6.51-5.38,1.44-.32,2.68.07,3.8,1.17,3.77,3.71-.08,10.21-1.05,11.71Z"/>
  </g>
  <g>
    <g>
      <path class="cls-1" d="m23.79,32.44c-.41,0-.79-.16-1.08-.45-.29-.29-.45-.67-.45-1.08,0-.84.69-1.53,1.53-1.53s1.53.69,1.53,1.53-.69,1.53-1.53,1.53Zm0-1.8c-.15,0-.27.12-.27.27,0,.1.05.16.08.19.03.03.09.08.19.08.15,0,.27-.12.27-.27s-.12-.27-.27-.27Z"/>
      <path class="cls-1" d="m23.79,32.81c-.51,0-.99-.2-1.35-.56-.36-.36-.56-.84-.56-1.35,0-1.05.85-1.9,1.9-1.9s1.9.85,1.9,1.9-.85,1.9-1.9,1.9Zm0-3.06c-.64,0-1.15.52-1.15,1.15,0,.31.12.6.34.82.22.22.51.34.82.34.64,0,1.15-.52,1.15-1.15s-.52-1.15-1.15-1.15Zm0,1.8c-.17,0-.34-.07-.46-.19-.12-.13-.19-.29-.19-.46,0-.36.29-.65.65-.65s.65.29.65.65-.29.65-.65.65Zm0-.75c-.06,0-.1.05-.1.1,0,.11.21.11.21,0l-.1-.1Z"/>
    </g>
    <g>
      <path class="cls-1" d="m38.4,32.44h0c-.84,0-1.53-.69-1.53-1.53s.69-1.53,1.53-1.53c.84,0,1.53.69,1.53,1.53,0,.41-.16.79-.45,1.08-.29.29-.67.45-1.08.45Zm0-1.8c-.15,0-.27.12-.27.27s.12.27.27.27h0c.1,0,.16-.05.19-.08.03-.03.08-.09.08-.19,0-.15-.12-.27-.27-.27Z"/>
      <path class="cls-1" d="m38.4,32.81c-1.05,0-1.9-.85-1.9-1.91s.85-1.9,1.9-1.9,1.9.85,1.9,1.91c0,.51-.2.99-.56,1.35-.36.36-.84.56-1.35.56Zm0-3.06c-.64,0-1.15.52-1.15,1.15s.52,1.16,1.15,1.16c.31,0,.6-.12.82-.34.22-.22.34-.51.34-.82,0-.64-.52-1.16-1.15-1.16Zm0,1.8c-.36,0-.65-.29-.65-.65s.29-.65.65-.65.65.29.65.65c0,.17-.07.34-.19.46-.11.11-.28.19-.45.19Zm0-.75l-.1.1c0,.12.21.11.21,0,0-.06-.05-.1-.1-.1Z"/>
    </g>
  </g>
  <g>
    <path class="cls-1" d="m31.1,45.81h0c-4.59,0-8.32-3.06-8.32-6.82,0-1.85.88-3.58,2.49-4.87,1.56-1.26,3.64-1.95,5.83-1.95h0c4.59,0,8.32,3.06,8.32,6.82h0c0,3.76-3.73,6.82-8.32,6.82Zm0-12.38c-1.91,0-3.7.59-5.04,1.67-1.3,1.05-2.02,2.43-2.02,3.89,0,3.07,3.17,5.56,7.06,5.56h0c3.89,0,7.06-2.49,7.06-5.56,0-3.07-3.17-5.56-7.06-5.56h0Z"/>
    <path class="cls-1" d="m31.1,46.18c-2.31,0-4.48-.74-6.12-2.08-1.66-1.36-2.58-3.18-2.58-5.11,0-1.96.93-3.79,2.63-5.16,1.63-1.31,3.79-2.04,6.07-2.04,4.79,0,8.7,3.23,8.7,7.2,0,3.97-3.9,7.19-8.7,7.19Zm0-13.64c-2.11,0-4.1.66-5.6,1.87-1.51,1.22-2.35,2.84-2.35,4.58s.82,3.31,2.3,4.53c1.51,1.24,3.51,1.92,5.64,1.92h0c4.38,0,7.94-2.89,7.95-6.44,0-3.55-3.56-6.45-7.95-6.45Zm0,12.38c-4.1,0-7.44-2.67-7.44-5.94,0-1.57.77-3.06,2.16-4.18,1.41-1.13,3.28-1.76,5.28-1.76h0c4.1,0,7.44,2.67,7.44,5.94,0,3.27-3.34,5.94-7.44,5.94Zm0-11.5v.38c-1.83,0-3.53.57-4.81,1.59-1.21.98-1.88,2.25-1.88,3.6,0,2.86,3,5.19,6.69,5.19,3.69,0,6.69-2.33,6.69-5.19,0-2.86-3-5.19-6.69-5.19v-.38Z"/>
  </g>
  <g>
    <g>
      <path class="cls-1" d="m28.37,41.03h0c-.55,0-1.06-.21-1.45-.6-.39-.39-.6-.9-.6-1.45,0-.55.21-1.06.6-1.45.39-.39.9-.6,1.45-.6h0c1.13,0,2.04.92,2.04,2.05,0,.55-.21,1.06-.6,1.45-.39.39-.9.6-1.45.6Zm0-2.83c-.21,0-.41.08-.56.23-.15.15-.23.35-.23.56s.08.41.23.56c.15.15.35.23.56.23h0c.21,0,.41-.08.56-.23.15-.15.23-.35.23-.56,0-.43-.35-.79-.79-.79h0Z"/>
      <path class="cls-1" d="m28.37,41.41c-.65,0-1.25-.25-1.71-.71-.46-.46-.71-1.07-.71-1.71s.25-1.25.71-1.71c.46-.46,1.06-.71,1.71-.71,1.33,0,2.42,1.09,2.42,2.42,0,.65-.25,1.25-.71,1.71-.46.46-1.07.71-1.71.71Zm0-4.09c-.45,0-.87.17-1.18.49-.32.32-.49.73-.49,1.18s.17.87.49,1.18c.63.63,1.73.63,2.36,0,.31-.32.49-.74.49-1.18,0-.92-.75-1.67-1.67-1.67Zm0,2.83c-.31,0-.6-.12-.82-.34-.22-.22-.34-.51-.34-.82s.12-.6.34-.82c.22-.22.51-.34.82-.34.64,0,1.16.52,1.16,1.16,0,.31-.12.6-.34.82-.22.22-.51.34-.82.34Zm0-1.58c-.11,0-.21.04-.29.12-.08.08-.12.18-.12.29s.04.21.12.29c.16.16.43.16.58,0,.08-.08.12-.18.12-.29,0-.23-.18-.41-.41-.41Z"/>
    </g>
    <g>
      <path class="cls-1" d="m33.82,41.03h0c-.55,0-1.06-.21-1.45-.6-.39-.39-.6-.9-.6-1.45,0-.55.21-1.06.6-1.45.39-.39.9-.6,1.45-.6h0c1.13,0,2.04.92,2.04,2.05,0,.55-.21,1.06-.6,1.45-.39.39-.9.6-1.45.6Zm0-2.83c-.21,0-.41.08-.56.23-.15.15-.23.35-.23.56s.08.41.23.56.35.23.56.23h0c.21,0,.41-.08.56-.23.15-.15.23-.35.23-.56,0-.43-.35-.79-.79-.79h0Z"/>
      <path class="cls-1" d="m33.82,41.41c-.65,0-1.25-.25-1.71-.71-.46-.46-.71-1.07-.71-1.71s.25-1.25.71-1.71c.46-.46,1.06-.71,1.71-.71,1.33,0,2.42,1.09,2.42,2.42,0,.65-.25,1.25-.71,1.71-.46.46-1.07.71-1.71.71Zm0-4.09c-.45,0-.87.17-1.18.49-.32.32-.49.73-.49,1.18s.17.87.49,1.18c.63.63,1.73.63,2.36,0,.32-.31.49-.73.49-1.18,0-.92-.75-1.67-1.67-1.67Zm0,2.83c-.31,0-.6-.12-.82-.34-.22-.22-.34-.51-.34-.82s.12-.6.34-.82c.22-.22.51-.34.82-.34.64,0,1.16.52,1.16,1.16,0,.31-.12.6-.34.82-.22.22-.51.34-.82.34Zm0-1.58c-.11,0-.21.04-.29.12-.08.08-.12.18-.12.29s.04.21.12.29c.15.16.43.16.58,0,.08-.08.12-.18.12-.29,0-.23-.18-.41-.41-.41Z"/>
    </g>
  </g>
  <g>
    <g>
      <path class="cls-1" d="m26.72,57.87h-9.07c-.18,0-.34-.07-.46-.2-.12-.13-.18-.3-.17-.48l.58-7.34c.03-.35.33-.61.68-.58.35.03.6.33.58.68l-.52,6.67h7.92s.6-2.04.6-2.04c.1-.33.45-.52.78-.43.33.1.52.45.43.78l-.73,2.49c-.08.27-.32.45-.6.45Z"/>
      <path class="cls-1" d="m26.72,58.25h-9.07c-.28,0-.55-.12-.74-.32s-.29-.48-.26-.76l.58-7.34c.02-.27.15-.51.35-.69.2-.17.46-.26.73-.24.55.04.96.53.92,1.08l-.49,6.26h7.23s.52-1.77.52-1.77c.16-.53.71-.84,1.25-.68.26.07.47.24.6.48.13.24.16.51.08.76l-.73,2.5c-.12.42-.52.72-.96.72Zm-8.5-8.6c-.06,0-.12.02-.16.06-.05.04-.08.11-.09.17l-.58,7.34c0,.07.02.14.07.19.05.05.12.08.19.08h9.07c.11,0,.21-.07.24-.18l.73-2.5c.02-.07.01-.13-.02-.19-.03-.06-.09-.1-.15-.12-.13-.04-.28.04-.32.17l-.68,2.31h-8.61s.55-7.07.55-7.07c0-.07-.02-.13-.06-.19-.04-.05-.11-.08-.17-.09,0,0-.01,0-.02,0Z"/>
    </g>
    <g>
      <path class="cls-1" d="m44.54,57.87h-9.07c-.28,0-.53-.19-.6-.45l-.73-2.49c-.1-.33.09-.68.43-.78.33-.1.68.09.78.43l.6,2.04h7.92s-.52-6.66-.52-6.66c-.03-.35.23-.65.58-.68.35-.03.65.23.68.58l.57,7.34c.01.17-.05.35-.17.48-.12.13-.29.2-.46.2Z"/>
      <path class="cls-1" d="m44.54,58.25h-9.07c-.44,0-.84-.3-.96-.72l-.73-2.5c-.16-.53.15-1.09.68-1.25.26-.08.53-.05.76.08.23.13.41.34.48.6l.52,1.77h7.23s-.49-6.26-.49-6.26c-.04-.55.37-1.04.92-1.08.26-.02.53.06.73.23.2.17.33.42.35.69l.58,7.34c.02.28-.08.55-.26.76-.19.2-.46.32-.74.32Zm-9.8-3.75s-.05,0-.07.01c-.13.04-.21.18-.17.31l.73,2.5c.03.11.13.18.24.18h9.07c.07,0,.14-.03.18-.08.05-.05.07-.12.07-.19l-.58-7.34c0-.07-.04-.13-.09-.18-.04-.03-.1-.07-.18-.06-.07,0-.13.04-.17.09-.04.05-.07.12-.06.19l.55,7.07h-8.61s-.68-2.31-.68-2.31c-.02-.07-.06-.12-.12-.15-.04-.02-.08-.03-.12-.03Z"/>
    </g>
  </g>
</svg>