<?xml version="1.0" encoding="UTF-8"?>
<svg id="Layer_1" data-name="Layer 1" xmlns="http://www.w3.org/2000/svg" viewBox="0 0 60 60">
  <defs>
    <style>
      .cls-1 {
        fill: #37464c;
        stroke-width: 0px;
      }
    </style>
  </defs>
  <path class="cls-1" d="m24.46,25.25c-.26,0-.51-.1-.71-.29-.39-.39-.39-1.02,0-1.41l9-9c1.13-1.13,2.64-1.76,4.24-1.76s3.11.62,4.24,1.76c.39.39.39,1.02,0,1.41s-1.02.39-1.41,0c-1.51-1.51-4.15-1.51-5.66,0l-9,9c-.2.2-.45.29-.71.29Z"/>
  <path class="cls-1" d="m44.82,47.5c-.35,0-.68-.18-.87-.5l-9.64-16.69c-.28-.48-.11-1.09.37-1.37.48-.28,1.09-.11,1.37.37l9.64,16.69c.28.48.11,1.09-.37,1.37-.16.09-.33.13-.5.13Z"/>
  <path class="cls-1" d="m40,52.79c-8.27,0-15-6.73-15-15s6.73-15,15-15,15,6.73,15,15-6.73,15-15,15Zm0-28c-7.17,0-13,5.83-13,13s5.83,13,13,13,13-5.83,13-13-5.83-13-13-13Z"/>
  <rect class="cls-1" x="21.79" y="22.7" width="2" height="11.76" transform="translate(-13.54 24.49) rotate(-45)"/>
  <path class="cls-1" d="m13,52.78c-2.56,0-5.12-.97-7.07-2.92-1.89-1.89-2.93-4.4-2.93-7.07s1.04-5.18,2.93-7.07L29.93,11.72c1.89-1.89,4.4-2.93,7.07-2.93s5.18,1.04,7.07,2.93c3.6,3.6,3.92,9.31.75,13.29-.25.32-.68.45-1.07.33-1.22-.37-2.49-.56-3.75-.56-7.17,0-13,5.83-13,13,0,1.3.19,2.58.57,3.82.11.35.01.74-.25,1l-7.25,7.25c-1.95,1.95-4.51,2.92-7.07,2.92ZM37,10.79c-2.14,0-4.15.83-5.66,2.34L7.34,37.13c-1.51,1.51-2.34,3.52-2.34,5.66s.83,4.15,2.34,5.66c3.12,3.12,8.19,3.12,11.31,0l6.84-6.84c-.33-1.25-.49-2.53-.49-3.82,0-8.27,6.73-15,15-15,1.23,0,2.45.15,3.64.45,2.12-3.14,1.74-7.38-.99-10.11-1.51-1.51-3.52-2.34-5.66-2.34Z"/>
</svg>