<?xml version="1.0" encoding="UTF-8"?>
<svg id="Layer_1" data-name="Layer 1" xmlns="http://www.w3.org/2000/svg" viewBox="0 0 60 60">
  <defs>
    <style>
      .cls-1 {
        fill: #37464c;
        stroke-width: 0px;
      }
    </style>
  </defs>
  <g>
    <path class="cls-1" d="m38.27,57h-16.53c-4.18,0-7.58-3.4-7.58-7.58v-27.6c0-4.18,3.4-7.58,7.58-7.58h16.53c4.18,0,7.58,3.4,7.58,7.58v27.6c0,4.18-3.4,7.58-7.58,7.58ZM21.74,15.46c-3.5,0-6.35,2.85-6.35,6.35v27.6c0,3.5,2.85,6.35,6.35,6.35h16.53c3.5,0,6.35-2.85,6.35-6.35v-27.6c0-3.5-2.85-6.35-6.35-6.35h-16.53Z"/>
    <path class="cls-1" d="m38.27,57.38h-16.53c-4.39,0-7.95-3.57-7.95-7.95v-27.6c0-4.39,3.57-7.95,7.95-7.95h16.53c4.39,0,7.95,3.57,7.95,7.95v27.6c0,4.39-3.57,7.95-7.95,7.95ZM21.74,14.62c-3.97,0-7.2,3.23-7.2,7.2v27.6c0,3.97,3.23,7.2,7.2,7.2h16.53c3.97,0,7.2-3.23,7.2-7.2v-27.6c0-3.97-3.23-7.2-7.2-7.2h-16.53Zm16.53,41.54h-16.53c-3.71,0-6.73-3.02-6.73-6.73v-27.6c0-3.71,3.02-6.73,6.73-6.73h16.53c3.71,0,6.73,3.02,6.73,6.73v27.6c0,3.71-3.02,6.73-6.73,6.73ZM21.74,15.84c-3.3,0-5.98,2.68-5.98,5.98v27.6c0,3.3,2.68,5.98,5.98,5.98h16.53c3.3,0,5.98-2.68,5.98-5.98v-27.6c0-3.3-2.68-5.98-5.98-5.98h-16.53Z"/>
  </g>
  <g>
    <path class="cls-1" d="m45.24,50.36H14.77c-.34,0-.61-.27-.61-.61v-28.26c0-.34.27-.61.61-.61h30.46c.34,0,.61.27.61.61v28.26c0,.34-.27.61-.61.61Zm-29.85-1.22h29.24v-27.03H15.39v27.03Z"/>
    <path class="cls-1" d="m45.24,50.74H14.77c-.54,0-.99-.44-.99-.99v-28.26c0-.54.44-.99.99-.99h30.46c.54,0,.99.44.99.99v28.26c0,.54-.44.99-.99.99ZM14.77,21.26c-.13,0-.24.11-.24.24v28.26c0,.13.11.24.24.24h30.46c.13,0,.24-.11.24-.24v-28.26c0-.13-.11-.24-.24-.24H14.77Zm30.23,28.26H15.01v-27.78h29.99v27.78Zm-29.24-.75h28.49v-26.28H15.76v26.28Z"/>
  </g>
  <g>
    <path class="cls-1" d="m38.92,15.46h-17.83c-.34,0-.61-.27-.61-.61v-2.28c0-.34.27-.61.61-.61h17.83c.34,0,.61.27.61.61v2.28c0,.34-.27.61-.61.61Zm-17.22-1.22h16.61v-1.06h-16.61v1.06Z"/>
    <path class="cls-1" d="m38.92,15.59h-17.83c-.41,0-.74-.33-.74-.74v-2.28c0-.41.33-.74.74-.74h17.83c.41,0,.74.33.74.74v2.28c0,.41-.33.74-.74.74Zm-17.83-3.51c-.27,0-.49.22-.49.49v2.28c0,.27.22.49.49.49h17.83c.27,0,.49-.22.49-.49v-2.28c0-.27-.22-.49-.49-.49h-17.83Zm17.34,2.28h-16.86v-1.31h16.86v1.31Zm-16.61-.25h16.36v-.81h-16.36v.81Z"/>
  </g>
  <g>
    <path class="cls-1" d="m33.1,45.6h-6.19c-.34,0-.61-.27-.61-.61v-5.67h-5.69c-.34,0-.61-.27-.61-.61v-6.18c0-.34.27-.61.61-.61h5.69v-5.67c0-.34.27-.61.61-.61h6.19c.34,0,.61.27.61.61v5.67h5.69c.34,0,.61.27.61.61v6.18c0,.34-.27.61-.61.61h-5.69v5.67c0,.34-.27.61-.61.61Zm-5.58-1.22h4.97v-5.67c0-.34.27-.61.61-.61h5.69v-4.95h-5.69c-.34,0-.61-.27-.61-.61v-5.67h-4.97v5.67c0,.34-.27.61-.61.61h-5.69v4.95h5.69c.34,0,.61.27.61.61v5.67Z"/>
    <path class="cls-1" d="m33.1,45.98h-6.19c-.54,0-.99-.44-.99-.99v-5.3h-5.31c-.54,0-.99-.44-.99-.99v-6.18c0-.54.44-.99.99-.99h5.31v-5.3c0-.54.44-.99.99-.99h6.19c.54,0,.99.44.99.99v5.3h5.31c.54,0,.99.44.99.99v6.18c0,.54-.44.99-.99.99h-5.31v5.3c0,.54-.44.99-.99.99Zm-12.49-13.68c-.13,0-.24.11-.24.24v6.18c0,.13.11.24.24.24h6.06v6.05c0,.13.11.24.24.24h6.19c.13,0,.24-.11.24-.24v-6.05h6.06c.13,0,.24-.11.24-.24v-6.18c0-.13-.11-.24-.24-.24h-6.06v-6.05c0-.13-.11-.24-.24-.24h-6.19c-.13,0-.24.11-.24.24v6.05h-6.06Zm12.25,12.46h-5.72v-6.05c0-.13-.11-.24-.24-.24h-6.06v-5.7h6.06c.13,0,.24-.11.24-.24v-6.05h5.72v6.05c0,.13.11.24.24.24h6.06v5.7h-6.06c-.13,0-.24.11-.24.24v6.05Zm-4.97-.75h4.22v-5.3c0-.54.44-.99.99-.99h5.31v-4.2h-5.31c-.54,0-.99-.44-.99-.99v-5.3h-4.22v5.3c0,.54-.44.99-.99.99h-5.31v4.2h5.31c.54,0,.99.44.99.99v5.3Z"/>
  </g>
  <g>
    <path class="cls-1" d="m41.25,13.04h-22.49c-.34,0-.61-.27-.61-.61v-6.55c0-1.53,1.24-2.77,2.77-2.77h18.18c1.53,0,2.77,1.24,2.77,2.77v6.55c0,.34-.27.61-.61.61Zm-21.88-1.22h21.27v-5.94c0-.85-.69-1.54-1.54-1.54h-18.18c-.85,0-1.54.69-1.54,1.54v5.94Z"/>
    <path class="cls-1" d="m41.25,13.42h-22.49c-.54,0-.99-.44-.99-.99v-6.55c0-1.73,1.41-3.14,3.14-3.14h18.18c1.73,0,3.14,1.41,3.14,3.14v6.55c0,.54-.44.99-.99.99ZM20.91,3.49c-1.32,0-2.39,1.07-2.39,2.39v6.55c0,.13.11.24.24.24h22.49c.13,0,.24-.11.24-.24v-6.55c0-1.32-1.07-2.39-2.39-2.39h-18.18Zm20.1,8.71h-22.02v-6.31c0-1.06.86-1.92,1.92-1.92h18.18c1.06,0,1.92.86,1.92,1.92v6.31Zm-21.27-.75h20.52v-5.56c0-.64-.52-1.17-1.17-1.17h-18.18c-.64,0-1.17.52-1.17,1.17v5.56Z"/>
  </g>
</svg>