<?xml version="1.0" encoding="UTF-8"?>
<svg id="Layer_1" data-name="Layer 1" xmlns="http://www.w3.org/2000/svg" viewBox="0 0 60 60">
  <defs>
    <style>
      .cls-1 {
        fill: #37464c;
        stroke-width: 0px;
      }
    </style>
  </defs>
  <g>
    <g>
      <g>
        <g>
          <path class="cls-1" d="m37.63,31.45c-.25,0-.48-.16-.57-.4-.1-.28-2.43-6.9,1.29-12.2,2.89-4.12,8.57-6.21,16.88-6.21.27,0,.5.18.58.43.08.29,2,7.05-1.98,12.37-2.99,3.99-8.44,6.01-16.2,6.01Zm17.13-17.6c-7.64.08-12.82,1.99-15.42,5.69-2.87,4.1-1.69,9.25-1.27,10.7,7.12-.07,12.1-1.93,14.79-5.51,3.08-4.1,2.23-9.35,1.9-10.88Z"/>
          <path class="cls-1" d="m37.62,31.82c-.41,0-.78-.26-.92-.64-.1-.29-2.49-7.09,1.34-12.54,2.96-4.22,8.75-6.37,17.18-6.37.43,0,.82.29.94.7.09.29,2.04,7.25-2.04,12.7-3.06,4.08-8.61,6.16-16.5,6.16Zm17.6-18.8c-8.18,0-13.75,2.04-16.57,6.05-3.6,5.13-1.34,11.58-1.24,11.86.03.09.12.15.21.15,7.64,0,12.99-1.97,15.9-5.86,3.86-5.15,2-11.76,1.92-12.04-.03-.09-.12-.16-.22-.16Zm-17.44,17.6l-.08-.27c-.44-1.52-1.64-6.8,1.32-11.02,2.67-3.81,7.96-5.78,15.72-5.85h.3s.07.29.07.29c.34,1.55,1.21,6.96-1.96,11.19-2.77,3.68-7.84,5.59-15.09,5.66h-.29Zm16.67-16.39c-7.34.12-12.32,1.98-14.81,5.53-2.62,3.73-1.75,8.39-1.29,10.11,6.85-.12,11.63-1.92,14.21-5.36,2.81-3.74,2.24-8.5,1.89-10.28Z"/>
        </g>
        <g>
          <path class="cls-1" d="m30.03,39.05c-.15,0-.31-.06-.43-.18-.23-.23-.23-.62,0-.85l17.65-17.65c.23-.23.62-.23.85,0,.23.23.23.62,0,.85l-17.65,17.65c-.12.12-.27.18-.43.18Z"/>
          <path class="cls-1" d="m30.03,39.42c-.26,0-.51-.1-.69-.29-.38-.38-.38-1,0-1.38l17.65-17.65c.37-.37,1.01-.37,1.38,0,.18.18.29.43.29.69s-.1.51-.29.69l-17.65,17.65c-.18.18-.43.29-.69.29Zm17.65-18.86c-.06,0-.12.02-.16.07l-17.65,17.65c-.09.09-.09.23,0,.32.07.07.16.16.32,0l17.65-17.66c.09-.09.09-.23,0-.32-.04-.04-.1-.07-.16-.07Z"/>
        </g>
      </g>
      <g>
        <g>
          <path class="cls-1" d="m22.43,31.45c-7.77,0-13.22-2.02-16.2-6.01-3.98-5.31-2.06-12.08-1.98-12.37.08-.26.31-.43.58-.43,8.31,0,13.99,2.09,16.88,6.21,3.72,5.3,1.39,11.92,1.29,12.2-.09.24-.31.4-.57.4ZM5.3,13.85c-.34,1.53-1.18,6.78,1.9,10.88,2.69,3.59,7.67,5.44,14.79,5.51.42-1.46,1.6-6.62-1.27-10.71-2.6-3.7-7.79-5.61-15.42-5.69Z"/>
          <path class="cls-1" d="m22.43,31.82c-7.89,0-13.44-2.07-16.5-6.16-4.08-5.45-2.12-12.4-2.04-12.7.12-.41.51-.7.94-.7,8.44,0,14.22,2.14,17.18,6.37,3.82,5.45,1.44,12.26,1.34,12.54-.14.39-.51.64-.92.64ZM4.83,13.02c-.1,0-.19.07-.22.16-.08.28-1.94,6.88,1.92,12.04,2.91,3.89,8.26,5.86,15.9,5.86.09,0,.18-.06.21-.15.1-.27,2.36-6.72-1.24-11.86-2.82-4.01-8.39-6.05-16.57-6.05Zm17.44,17.6h-.29c-7.25-.08-12.32-1.98-15.09-5.67-3.17-4.22-2.3-9.63-1.96-11.19l.07-.3h.3c7.76.08,13.05,2.05,15.72,5.85,2.96,4.21,1.77,9.51,1.33,11.03l-.08.27ZM5.6,14.23c-.35,1.78-.91,6.54,1.89,10.28,2.58,3.44,7.36,5.24,14.21,5.36.45-1.72,1.32-6.39-1.3-10.11-2.49-3.54-7.47-5.4-14.8-5.52Z"/>
        </g>
        <g>
          <path class="cls-1" d="m30.03,39.05c-.15,0-.31-.06-.43-.18L11.95,21.22c-.23-.23-.23-.62,0-.85.23-.23.62-.23.85,0l17.65,17.65c.23.23.23.62,0,.85-.12.12-.27.18-.43.18Z"/>
          <path class="cls-1" d="m30.03,39.42c-.26,0-.51-.1-.69-.29L11.68,21.48c-.18-.18-.29-.43-.29-.69s.1-.51.29-.69c.38-.38,1-.38,1.38,0l17.65,17.65c.38.38.38,1,0,1.38-.18.18-.43.29-.69.29ZM12.38,20.57c-.06,0-.12.02-.16.07-.09.09-.09.23,0,.32l17.65,17.65c.1.1.19.13.32,0,.09-.09.09-.23,0-.32L12.53,20.63s-.1-.07-.16-.07Z"/>
        </g>
      </g>
    </g>
    <g>
      <path class="cls-1" d="m40.57,52.01h-21.08c-.33,0-.6-.27-.6-.6v-2.19c0-6.14,5-11.14,11.14-11.14s11.14,5,11.14,11.14v2.19c0,.33-.27.6-.6.6Zm-20.48-1.2h19.88v-1.59c0-5.48-4.46-9.94-9.94-9.94s-9.94,4.46-9.94,9.94v1.59Z"/>
      <path class="cls-1" d="m40.57,52.38h-21.08c-.54,0-.98-.44-.98-.98v-2.19c0-6.35,5.17-11.52,11.52-11.52s11.52,5.17,11.52,11.52v2.19c0,.54-.44.98-.98.98Zm-10.54-13.93c-5.94,0-10.77,4.83-10.77,10.77v2.19c0,.12.1.23.23.23h21.08c.12,0,.23-.1.23-.23v-2.19c0-5.94-4.83-10.77-10.77-10.77Zm10.31,12.73h-20.63v-1.96c0-5.69,4.63-10.31,10.31-10.31s10.31,4.63,10.31,10.31v1.96Zm-19.88-.75h19.13v-1.21c0-5.27-4.29-9.56-9.56-9.56s-9.56,4.29-9.56,9.56v1.21Z"/>
    </g>
  </g>
  <g>
    <path class="cls-1" d="m18.19,27.21c-.33,0-.6-.27-.6-.6v-4.56c0-.33.27-.6.6-.6s.6.27.6.6v4.56c0,.33-.27.6-.6.6Z"/>
    <path class="cls-1" d="m18.19,27.58c-.54,0-.98-.44-.98-.98v-4.56c0-.54.44-.98.98-.98s.98.44.98.98v4.56c0,.54-.44.98-.98.98Zm0-5.76c-.12,0-.23.1-.23.23v4.56c0,.25.45.25.45,0v-4.56c0-.12-.1-.23-.23-.23Z"/>
  </g>
  <g>
    <path class="cls-1" d="m13.76,23.55h-3.56c-.33,0-.6-.27-.6-.6s.27-.6.6-.6h3.56c.33,0,.6.27.6.6s-.27.6-.6.6Z"/>
    <path class="cls-1" d="m13.76,23.92h-3.56c-.54,0-.98-.44-.98-.98s.44-.98.98-.98h3.56c.54,0,.98.44.98.98s-.44.98-.98.98Zm-3.56-1.2c-.12,0-.23.1-.23.23s.1.23.23.23h3.56c.12,0,.23-.1.23-.23s-.1-.23-.23-.23h-3.56Z"/>
  </g>
  <g>
    <path class="cls-1" d="m40.57,28.25s-.03,0-.05,0c-.33-.03-.58-.32-.55-.65l.39-4.7c.03-.33.32-.58.65-.55.33.03.58.32.55.65l-.39,4.7c-.03.31-.29.55-.6.55Z"/>
    <path class="cls-1" d="m40.57,28.62h-.07c-.27-.02-.51-.15-.68-.35-.17-.2-.25-.45-.23-.71l.39-4.7c.02-.26.14-.5.34-.67.2-.17.46-.24.71-.23.26.02.49.14.66.34s.25.45.23.71l-.39,4.7c-.04.5-.47.9-.97.9Zm.39-5.91c-.05,0-.1.02-.14.05-.05.04-.07.09-.08.16l-.39,4.7c0,.06.01.12.05.16s.09.07.15.08l.02.38v-.38c.12,0,.21-.09.22-.21l.39-4.7c0-.06-.01-.12-.05-.16s-.09-.07-.15-.08c0,0-.01,0-.02,0Z"/>
  </g>
  <g>
    <path class="cls-1" d="m48.93,23.97s-.05,0-.08,0l-3.4-.43c-.33-.04-.56-.34-.52-.67.04-.33.34-.56.67-.52l3.4.43c.33.04.56.34.52.67-.04.3-.3.53-.6.53Z"/>
    <path class="cls-1" d="m48.93,24.35h-.13s-3.39-.44-3.39-.44c-.53-.07-.91-.56-.85-1.09.03-.26.16-.49.37-.65.21-.16.47-.23.72-.2l3.4.43c.53.07.91.56.85,1.09-.06.49-.48.85-.97.85Zm-3.4-1.63s-.1.02-.14.05c-.05.04-.08.09-.08.15-.02.12.07.24.2.25l3.42.43c.11,0,.21-.08.22-.2.02-.12-.07-.24-.2-.25l-3.4-.43s-.02,0-.03,0Z"/>
  </g>
</svg>