<?xml version="1.0" encoding="UTF-8"?>
<svg id="Layer_1" data-name="Layer 1" xmlns="http://www.w3.org/2000/svg" viewBox="0 0 60 60">
  <defs>
    <style>
      .cls-1 {
        fill: #37464c;
        stroke-width: 0px;
      }
    </style>
  </defs>
  <g>
    <path class="cls-1" d="m30.47,53.56c-12.17,0-22.07-9.91-22.07-22.08S18.31,9.39,30.47,9.39s22.07,9.91,22.07,22.08-9.9,22.08-22.07,22.08Zm0-43.16c-11.61,0-21.06,9.45-21.06,21.08s9.45,21.08,21.06,21.08,21.06-9.45,21.06-21.08-9.45-21.08-21.06-21.08Z"/>
    <path class="cls-1" d="m30.47,54.06c-12.44,0-22.56-10.13-22.56-22.58S18.03,8.89,30.47,8.89s22.56,10.13,22.56,22.58-10.12,22.58-22.56,22.58Zm0-44.16c-11.89,0-21.56,9.68-21.56,21.58s9.67,21.58,21.56,21.58,21.56-9.68,21.56-21.58-9.67-21.58-21.56-21.58Zm0,43.16c-11.89,0-21.56-9.68-21.56-21.58S18.58,9.9,30.47,9.9s21.56,9.68,21.56,21.58-9.67,21.58-21.56,21.58Zm0-42.15c-11.34,0-20.56,9.23-20.56,20.58s9.22,20.58,20.56,20.58,20.56-9.23,20.56-20.58-9.22-20.58-20.56-20.58Z"/>
  </g>
  <g>
    <path class="cls-1" d="m25.91,40.05c-.08,0-.16-.02-.23-.06-.17-.09-.27-.26-.27-.44v-16.14c0-.18.1-.34.25-.43.15-.09.35-.09.5,0l12.78,7.31c.15.09.25.24.25.41s-.07.34-.22.43l-12.78,8.83c-.09.06-.19.09-.29.09Zm.5-15.77v14.32l11.34-7.83-11.34-6.49Z"/>
    <path class="cls-1" d="m25.91,40.55c-.16,0-.33-.04-.47-.12-.33-.17-.53-.51-.53-.89v-16.14c0-.36.19-.69.5-.87s.69-.18,1,0l12.78,7.31c.3.17.49.48.5.83.01.34-.15.67-.43.87l-12.78,8.83c-.17.12-.36.18-.57.18Zm0-17.14v16.14s0,0,0,0h0l12.78-8.83-12.78-7.32Zm0,16.14v-16.13l12.78,7.31-12.78,8.82Zm1-14.41v12.5l9.9-6.84-9.9-5.66Z"/>
  </g>
</svg>