<?xml version="1.0" encoding="UTF-8"?>
<svg id="Layer_1" data-name="Layer 1" xmlns="http://www.w3.org/2000/svg" viewBox="0 0 60 60">
  <defs>
    <style>
      .cls-1 {
        fill: #37464c;
        stroke-width: 0px;
      }
    </style>
  </defs>
  <g>
    <path class="cls-1" d="m41.57,51.91h-22.45c-.3,0-.55-.25-.55-.55v-22.45c0-.3.25-.55.55-.55h22.45c.3,0,.55.25.55.55v22.45c0,.3-.25.55-.55.55Zm-21.9-1.1h21.35v-21.35h-21.35v21.35Z"/>
    <path class="cls-1" d="m41.57,52.29h-22.45c-.51,0-.93-.42-.93-.93v-22.45c0-.51.42-.93.93-.93h22.45c.51,0,.93.42.93.93v22.45c0,.51-.42.93-.93.93Zm-22.45-23.55c-.1,0-.18.08-.18.18v22.45c0,.1.08.18.18.18h22.45c.1,0,.18-.08.18-.18v-22.45c0-.1-.08-.18-.18-.18h-22.45Zm22.28,22.45h-22.1v-22.1h22.1v22.1Zm-21.35-.75h20.6v-20.6h-20.6v20.6Z"/>
  </g>
  <g>
    <path class="cls-1" d="m19.12,51.91H6.21c-.3,0-.55-.25-.55-.55v-13.53c0-.3.25-.55.55-.55h12.91c.3,0,.55.25.55.55v13.53c0,.3-.25.55-.55.55Zm-12.36-1.1h11.81v-12.42H6.76v12.42Z"/>
    <path class="cls-1" d="m19.12,52.29H6.21c-.51,0-.92-.42-.92-.93v-13.52c0-.51.42-.93.92-.93h12.91c.51,0,.93.42.93.93v13.52c0,.51-.42.93-.93.93Zm-12.91-14.63c-.1,0-.17.08-.17.18v13.52c0,.1.08.18.17.18h12.91c.1,0,.18-.08.18-.18v-13.52c0-.1-.08-.18-.18-.18H6.21Zm12.74,13.53H6.38v-13.17h12.56v13.17Zm-11.81-.75h11.06v-11.67H7.13v11.67Z"/>
  </g>
  <g>
    <path class="cls-1" d="m54.49,51.91h-12.91c-.3,0-.55-.25-.55-.55v-13.53c0-.3.25-.55.55-.55h12.91c.3,0,.55.25.55.55v13.53c0,.3-.25.55-.55.55Zm-12.36-1.1h11.81v-12.42h-11.81v12.42Z"/>
    <path class="cls-1" d="m54.49,52.29h-12.91c-.51,0-.92-.42-.92-.93v-13.52c0-.51.42-.93.92-.93h12.91c.51,0,.93.42.93.93v13.52c0,.51-.42.93-.93.93Zm-12.91-14.63c-.1,0-.17.08-.17.18v13.52c0,.1.08.18.17.18h12.91c.1,0,.18-.08.18-.18v-13.52c0-.1-.08-.18-.18-.18h-12.91Zm12.74,13.53h-12.56v-13.17h12.56v13.17Zm-11.81-.75h11.06v-11.67h-11.06v11.67Z"/>
  </g>
  <g>
    <path class="cls-1" d="m30.35,20.41c-.3,0-.55-.25-.55-.55V7.84c0-.3.25-.55.55-.55s.55.25.55.55v12.02c0,.3-.25.55-.55.55Z"/>
    <path class="cls-1" d="m30.35,20.79c-.51,0-.93-.42-.93-.93V7.84c0-.51.42-.93.93-.93s.93.42.93.93v12.02c0,.51-.42.93-.93.93Zm0-13.12c-.1,0-.18.08-.18.18v12.02c0,.19.35.19.35,0V7.84c0-.1-.08-.18-.18-.18Z"/>
  </g>
  <g>
    <path class="cls-1" d="m15.28,25.09c-.14,0-.28-.05-.39-.16l-8.5-8.5c-.22-.21-.22-.56,0-.78.21-.22.56-.22.78,0l8.5,8.5c.22.22.22.56,0,.78-.11.11-.25.16-.39.16Z"/>
    <path class="cls-1" d="m15.28,25.46c-.25,0-.48-.1-.65-.27l-8.5-8.5c-.36-.36-.36-.95,0-1.31.36-.36.95-.36,1.31,0l8.5,8.5c.36.36.36.95,0,1.31-.17.17-.41.27-.66.27ZM6.79,15.87s-.09.02-.12.05c-.07.07-.07.18,0,.25l8.5,8.5c.1.1.17.08.25,0,.07-.07.07-.18,0-.25L6.91,15.92s-.08-.05-.12-.05Z"/>
  </g>
  <g>
    <path class="cls-1" d="m45.82,25.09c-.14,0-.28-.05-.39-.16-.22-.21-.22-.56,0-.78l8.5-8.5c.21-.22.56-.22.78,0,.22.21.22.56,0,.78l-8.5,8.5c-.11.11-.25.16-.39.16Z"/>
    <path class="cls-1" d="m45.82,25.46c-.25,0-.48-.1-.65-.27-.36-.36-.36-.95,0-1.31l8.5-8.5c.36-.36.95-.36,1.31,0,.36.36.36.95,0,1.31l-8.5,8.5c-.17.17-.41.27-.66.27Zm8.5-9.6s-.09.02-.12.05l-8.5,8.5c-.07.07-.07.18,0,.25.1.1.17.08.25,0l8.5-8.5c.07-.07.07-.18,0-.25-.03-.04-.08-.05-.12-.05Z"/>
  </g>
  <g>
    <path class="cls-1" d="m29.76,36.23h-.03l-1.82.98-.27-1.08,2.29-1.22h1.21v10.46h-1.37v-9.14Z"/>
    <path class="cls-1" d="m31.5,45.74h-2.12v-8.91l-1.72.93-.46-1.83,2.72-1.41h1.58v11.21Zm-1.37-.75h.62v-9.71h-.74l-1.94,1.04.08.33,1.57-.8h.38l.03.38v8.77Z"/>
  </g>
  <g>
    <path class="cls-1" d="m10.76,47.63v-.5l.63-.61c1.52-1.45,2.21-2.22,2.22-3.12,0-.61-.29-1.17-1.18-1.17-.54,0-.99.28-1.27.5l-.26-.57c.41-.35,1-.61,1.69-.61,1.28,0,1.83.88,1.83,1.73,0,1.1-.8,1.99-2.05,3.2l-.48.44v.02h2.68v.67h-3.81Z"/>
    <path class="cls-1" d="m14.94,48.01h-4.56v-1.03l.75-.73c1.48-1.41,2.1-2.12,2.11-2.85,0-.7-.46-.79-.81-.79-.46,0-.84.26-1.03.42l-.38.32-.58-1.28.22-.18c.53-.45,1.22-.69,1.93-.69,1.52,0,2.2,1.06,2.2,2.11,0,1.21-.84,2.18-1.98,3.29h2.12v1.42Zm-3.77-.75h.34v-.33l-.34.33Zm2.14-5.18c.43.25.67.71.67,1.32,0,.26-.05.51-.15.76.14-.29.2-.57.2-.86,0-.48-.2-.98-.73-1.22Z"/>
  </g>
  <g>
    <path class="cls-1" d="m46.39,46.65c.23.15.76.38,1.32.38,1.04,0,1.36-.66,1.35-1.16,0-.83-.76-1.19-1.54-1.19h-.45v-.61h.45c.59,0,1.33-.3,1.33-1.01,0-.48-.3-.9-1.05-.9-.48,0-.94.21-1.19.39l-.21-.59c.31-.23.92-.46,1.56-.46,1.17,0,1.71.7,1.71,1.42,0,.61-.37,1.14-1.1,1.4v.02c.73.15,1.33.7,1.33,1.53,0,.95-.74,1.79-2.17,1.79-.67,0-1.26-.21-1.55-.4l.22-.62Z"/>
    <path class="cls-1" d="m47.72,48.06c-.77,0-1.43-.25-1.76-.46l-.25-.16.48-1.35.4.26c.2.13.66.32,1.12.32.35,0,.61-.09.78-.26.18-.19.2-.42.2-.52,0-.77-.89-.83-1.17-.83h-.82v-1.36h.82c.37,0,.96-.17.96-.63,0-.35-.23-.52-.67-.52-.38,0-.76.17-.97.32l-.4.29-.47-1.32.22-.17c.33-.25,1-.53,1.78-.53,1.43,0,2.08.93,2.08,1.8,0,.55-.23,1.02-.64,1.36.54.35.87.93.87,1.59,0,1.04-.8,2.16-2.55,2.16Zm1.52-2.93c.13.21.2.46.2.74,0,.39-.14.78-.41,1.05h-.01c.33-.24.51-.59.51-1.03,0-.33-.11-.58-.28-.76Zm-1.12-.76s.05.01.07.02v-.04s-.05.01-.07.02Zm.58-2.34c.38.25.53.67.53,1.04,0,.12-.02.24-.04.34.07-.13.11-.29.11-.47,0-.35-.17-.72-.59-.91Z"/>
  </g>
</svg>