<?xml version="1.0" encoding="UTF-8"?>
<svg id="Layer_1" data-name="Layer 1" xmlns="http://www.w3.org/2000/svg" viewBox="0 0 60 60">
  <defs>
    <style>
      .cls-1 {
        fill: #37464c;
        stroke-width: 0px;
      }
    </style>
  </defs>
  <path class="cls-1" d="m28.53,37c-2.76,0-5-2.24-5-5s2.24-5,5-5,5,2.24,5,5-2.24,5-5,5Zm0-8c-1.65,0-3,1.35-3,3s1.35,3,3,3,3-1.35,3-3-1.35-3-3-3Z"/>
  <path class="cls-1" d="m28.53,13c-2.76,0-5-2.24-5-5s2.24-5,5-5,5,2.24,5,5-2.24,5-5,5Zm0-8c-1.65,0-3,1.35-3,3s1.35,3,3,3,3-1.35,3-3-1.35-3-3-3Z"/>
  <path class="cls-1" d="m9.53,37c-2.76,0-5-2.24-5-5s2.24-5,5-5,5,2.24,5,5-2.24,5-5,5Zm0-8c-1.65,0-3,1.35-3,3s1.35,3,3,3,3-1.35,3-3-1.35-3-3-3Z"/>
  <path class="cls-1" d="m19.53,47c-2.76,0-5-2.24-5-5s2.24-5,5-5,5,2.24,5,5-2.24,5-5,5Zm0-8c-1.65,0-3,1.35-3,3s1.35,3,3,3,3-1.35,3-3-1.35-3-3-3Z"/>
  <path class="cls-1" d="m37.53,47c-2.76,0-5-2.24-5-5s2.24-5,5-5,5,2.24,5,5-2.24,5-5,5Zm0-8c-1.65,0-3,1.35-3,3s1.35,3,3,3,3-1.35,3-3-1.35-3-3-3Z"/>
  <path class="cls-1" d="m47.53,37c-2.76,0-5-2.24-5-5s2.24-5,5-5,5,2.24,5,5-2.24,5-5,5Zm0-8c-1.65,0-3,1.35-3,3s1.35,3,3,3,3-1.35,3-3-1.35-3-3-3Z"/>
  <path class="cls-1" d="m36.53,20h-2v-3c0-1.1-.9-2-2-2h-.59l-2.71,2.71c-.39.39-1.02.39-1.41,0l-2.71-2.71h-.59c-1.1,0-2,.9-2,2v3h-2v-3c0-2.21,1.79-4,4-4h1c.27,0,.52.11.71.29l2.29,2.29,2.29-2.29c.19-.19.44-.29.71-.29h1c2.21,0,4,1.79,4,4v3Z"/>
  <path class="cls-1" d="m39.53,35c-.55,0-1-.45-1-1v-13h-20v13c0,.55-.45,1-1,1s-1-.45-1-1v-14c0-.55.45-1,1-1h22c.55,0,1,.45,1,1v14c0,.55-.45,1-1,1Z"/>
  <path class="cls-1" d="m3.53,47c-.55,0-1-.45-1-1v-5c0-2.21,1.79-4,4-4h6c2.21,0,4,1.79,4,4v1c0,.55-.45,1-1,1s-1-.45-1-1v-1c0-1.1-.9-2-2-2h-6c-1.1,0-2,.9-2,2v5c0,.55-.45,1-1,1Z"/>
  <path class="cls-1" d="m25.53,55c-.55,0-1-.45-1-1v-3c0-1.1-.9-2-2-2h-6c-1.1,0-2,.9-2,2v3c0,.55-.45,1-1,1s-1-.45-1-1v-3c0-2.21,1.79-4,4-4h6c2.21,0,4,1.79,4,4v3c0,.55-.45,1-1,1Z"/>
  <path class="cls-1" d="m43.53,55c-.55,0-1-.45-1-1v-3c0-1.1-.9-2-2-2h-6c-1.1,0-2,.9-2,2v3c0,.55-.45,1-1,1s-1-.45-1-1v-3c0-2.21,1.79-4,4-4h6c2.21,0,4,1.79,4,4v3c0,.55-.45,1-1,1Z"/>
  <path class="cls-1" d="m53.53,47c-.55,0-1-.45-1-1v-5c0-1.1-.9-2-2-2h-6c-1.1,0-2,.9-2,2v1c0,.55-.45,1-1,1s-1-.45-1-1v-1c0-2.21,1.79-4,4-4h6c2.21,0,4,1.79,4,4v5c0,.55-.45,1-1,1Z"/>
  <path class="cls-1" d="m33.33,40.16c-.33-.71-1.03-1.16-1.8-1.16h-6c-.77,0-1.47.45-1.8,1.16l-1.81-.85c.66-1.4,2.08-2.31,3.61-2.31h6c1.54,0,2.96.91,3.61,2.31l-1.81.85Z"/>
</svg>