<?xml version="1.0" encoding="UTF-8"?>
<svg id="Layer_1" data-name="Layer 1" xmlns="http://www.w3.org/2000/svg" viewBox="0 0 60 60">
  <defs>
    <style>
      .cls-1 {
        fill: #37464c;
        stroke-width: 0px;
      }
    </style>
  </defs>
  <path class="cls-1" d="m37.54,50.02c-.55,0-1-.45-1-1v-13h-12v13c0,.55-.45,1-1,1s-1-.45-1-1v-13c0-1.1.9-2,2-2h12c1.1,0,2,.9,2,2v13c0,.55-.45,1-1,1Z"/>
  <path class="cls-1" d="m23.54,50.02c-.55,0-1-.45-1-1v-9h-10v9c0,.55-.45,1-1,1s-1-.45-1-1v-9c0-1.1.9-2,2-2h11c.55,0,1,.45,1,1v10c0,.55-.45,1-1,1Z"/>
  <path class="cls-1" d="m49.54,50.02c-.55,0-1-.45-1-1v-7h-10v7c0,.55-.45,1-1,1s-1-.45-1-1v-8c0-.55.45-1,1-1h11c1.1,0,2,.9,2,2v7c0,.55-.45,1-1,1Z"/>
  <path class="cls-1" d="m30.54,46.02c-.55,0-1-.45-1-1v-4c0-.55.45-1,1-1s1,.45,1,1v4c0,.55-.45,1-1,1Z"/>
  <g>
    <path class="cls-1" d="m50.54,26.02h-4c-.55,0-1-.45-1-1s.45-1,1-1h4c.55,0,1,.45,1,1s-.45,1-1,1Z"/>
    <path class="cls-1" d="m14.54,26.02h-4c-.55,0-1-.45-1-1s.45-1,1-1h4c.55,0,1,.45,1,1s-.45,1-1,1Z"/>
    <path class="cls-1" d="m47.85,36.02c-.17,0-.34-.04-.5-.13l-3.46-2c-.48-.28-.64-.89-.37-1.37.28-.48.89-.64,1.37-.37l3.46,2c.48.28.64.89.37,1.37-.19.32-.52.5-.87.5Z"/>
    <path class="cls-1" d="m16.68,18.02c-.17,0-.34-.04-.5-.13l-3.46-2c-.48-.28-.64-.89-.37-1.37.28-.48.89-.64,1.37-.37l3.46,2c.48.28.64.89.37,1.37-.19.32-.52.5-.87.5Z"/>
    <path class="cls-1" d="m22.54,12.16c-.35,0-.68-.18-.87-.5l-2-3.46c-.28-.48-.11-1.09.37-1.37.48-.28,1.09-.11,1.37.37l2,3.46c.28.48.11,1.09-.37,1.37-.16.09-.33.13-.5.13Z"/>
    <path class="cls-1" d="m30.54,10.02c-.55,0-1-.45-1-1v-4c0-.55.45-1,1-1s1,.45,1,1v4c0,.55-.45,1-1,1Z"/>
    <path class="cls-1" d="m38.53,12.16c-.17,0-.34-.04-.5-.13-.48-.28-.64-.89-.37-1.37l2-3.46c.28-.48.89-.64,1.37-.37.48.28.64.89.37,1.37l-2,3.46c-.19.32-.52.5-.87.5Z"/>
    <path class="cls-1" d="m13.22,36.02c-.35,0-.68-.18-.87-.5-.28-.48-.11-1.09.37-1.37l3.46-2c.48-.28,1.09-.11,1.37.37.28.48.11,1.09-.37,1.37l-3.46,2c-.16.09-.33.13-.5.13Z"/>
    <path class="cls-1" d="m44.39,18.02c-.35,0-.68-.18-.87-.5-.28-.48-.11-1.09.37-1.37l3.46-2c.48-.28,1.09-.11,1.37.37.28.48.11,1.09-.37,1.37l-3.46,2c-.16.09-.33.13-.5.13Z"/>
    <path class="cls-1" d="m14.54,26.02h-4c-.55,0-1-.45-1-1s.45-1,1-1h4c.55,0,1,.45,1,1s-.45,1-1,1Z"/>
    <path class="cls-1" d="m50.54,26.02h-4c-.55,0-1-.45-1-1s.45-1,1-1h4c.55,0,1,.45,1,1s-.45,1-1,1Z"/>
  </g>
  <path class="cls-1" d="m25.82,32.02c-.46,0-.92-.14-1.32-.42-.73-.51-1.09-1.38-.95-2.26l.68-4.2c.02-.14-.02-.28-.12-.38l-2.92-3.01c-.61-.62-.81-1.52-.53-2.34.28-.82.98-1.41,1.84-1.55l3.91-.6c.14-.02.27-.12.33-.25l1.72-3.67c.38-.82,1.18-1.32,2.08-1.32h0c.9,0,1.7.51,2.08,1.33l1.72,3.67c.06.13.19.23.33.25l3.92.6c.86.13,1.56.72,1.84,1.54.28.82.07,1.72-.53,2.34l-2.93,3.01c-.1.1-.14.24-.12.38l.68,4.2c.14.88-.22,1.75-.95,2.26-.73.51-1.66.56-2.43.13l-3.38-1.88c-.13-.07-.29-.07-.43,0l-3.38,1.88c-.35.2-.73.29-1.12.29Zm4.71-18c-.09,0-.2.03-.27.17l-1.72,3.67c-.34.74-1.03,1.25-1.84,1.38l-3.91.6c-.16.02-.22.14-.24.21-.02.07-.04.2.07.31l2.92,3.01c.54.55.78,1.33.66,2.09l-.68,4.2c-.03.17.07.26.13.3.07.05.18.09.31.02l3.39-1.88h0c.74-.41,1.63-.41,2.37,0l3.38,1.88c.13.07.24.03.31-.02.06-.04.15-.14.13-.3l-.68-4.2c-.12-.76.12-1.54.66-2.09l2.93-3.01c.11-.12.09-.24.07-.31-.03-.08-.09-.18-.24-.2l-3.92-.6c-.81-.12-1.49-.64-1.84-1.38l-1.72-3.67c-.07-.14-.18-.17-.27-.17h0Z"/>
  <path class="cls-1" d="m49.54,56.02H11.54c-1.65,0-3-1.35-3-3v-2c0-1.65,1.35-3,3-3h38c1.65,0,3,1.35,3,3v2c0,1.65-1.35,3-3,3Zm-38-6c-.55,0-1,.45-1,1v2c0,.55.45,1,1,1h38c.55,0,1-.45,1-1v-2c0-.55-.45-1-1-1H11.54Z"/>
</svg>