<?xml version="1.0" encoding="UTF-8"?>
<svg id="Layer_1" data-name="Layer 1" xmlns="http://www.w3.org/2000/svg" viewBox="0 0 60 60">
  <defs>
    <style>
      .cls-1 {
        fill: #37464c;
        stroke-width: 0px;
      }
    </style>
  </defs>
  <path class="cls-1" d="m20.05,55.47h-10c-1.1,0-2-.9-2-2v-14.1c-2.28-.46-4-2.48-4-4.9v-13.77c0-1.95,1.24-3.68,3.1-4.29l2.58-.89c.36-.12.76-.03,1.03.24l4.29,4.29,4.29-4.29c.19-.19.44-.29.71-.29h16.89c1.52,0,2.83,1.08,3.07,2.5.14.88-.1,1.77-.67,2.44-.57.67-1.4,1.06-2.29,1.06h-13c-1.1,0-2,.9-2,2v30c0,1.1-.9,2-2,2Zm-10-17v15h10v-30c0-2.21,1.79-4,4-4h13c.29,0,.57-.13.76-.35.19-.23.27-.52.22-.82-.08-.46-.56-.82-1.09-.82h-16.48l-4.71,4.71c-.39.39-1.02.39-1.41,0l-4.56-4.56-2,.69c-1.04.34-1.73,1.3-1.73,2.39v13.77c0,1.3.84,2.42,2,2.83v-12.83c0-.55.45-1,1-1s1,.45,1,1v14Z"/>
  <path class="cls-1" d="m15.05,55.47c-.55,0-1-.45-1-1v-18c0-.55.45-1,1-1s1,.45,1,1v18c0,.55-.45,1-1,1Z"/>
  <path class="cls-1" d="m15.05,15.47c-3.31,0-6-2.69-6-6s2.69-6,6-6,6,2.69,6,6-2.69,6-6,6Zm0-10c-2.21,0-4,1.79-4,4s1.79,4,4,4,4-1.79,4-4-1.79-4-4-4Z"/>
  <path class="cls-1" d="m40.05,55.47c-8.82,0-16-7.18-16-16s7.18-16,16-16,16,7.18,16,16-7.18,16-16,16Zm0-30c-7.72,0-14,6.28-14,14s6.28,14,14,14,14-6.28,14-14-6.28-14-14-14Z"/>
  <g>
    <path class="cls-1" d="m44.4,40.83c.02.51-.05.97-.23,1.39-.18.42-.43.79-.77,1.1-.34.31-.76.57-1.27.77-.5.2-1.07.33-1.7.39l-.12,2.07s-.01.07-.03.11c-.02.04-.04.07-.09.09-.04.02-.1.04-.18.06-.08.02-.18.03-.31.03-.15,0-.26,0-.35,0-.09-.01-.16-.03-.21-.05-.05-.02-.09-.05-.1-.09-.02-.04-.02-.09-.01-.14l.13-2.06c-.31-.02-.59-.06-.85-.11-.26-.05-.5-.1-.7-.16-.21-.06-.38-.13-.53-.2-.15-.07-.25-.14-.32-.2-.07-.06-.12-.15-.15-.25-.03-.11-.05-.25-.06-.44,0-.14,0-.25,0-.35,0-.09.02-.17.05-.23s.05-.1.09-.13c.04-.02.09-.04.15-.04.08,0,.2.04.36.12s.36.18.61.28c.25.1.56.19.93.27.36.08.8.11,1.31.09.9-.04,1.57-.25,2.02-.62.45-.37.66-.87.63-1.47-.02-.37-.12-.68-.3-.92-.18-.24-.42-.45-.71-.61-.29-.17-.62-.31-.98-.42-.36-.11-.73-.23-1.11-.35-.37-.12-.75-.25-1.11-.41-.37-.15-.69-.35-.98-.59-.29-.24-.53-.54-.71-.89-.19-.36-.29-.8-.32-1.33-.02-.42.04-.82.17-1.19.13-.37.33-.7.61-.99.28-.29.64-.53,1.07-.72.43-.19.95-.32,1.53-.39l.11-1.92s.01-.07.03-.11c.01-.04.04-.07.09-.09.04-.03.1-.05.18-.06.08-.01.18-.02.31-.03.14,0,.25,0,.35,0,.09,0,.16.03.21.05.05.03.08.06.09.1.01.04.02.08.02.13l-.13,1.91c.19.01.39.04.6.07.21.04.4.08.58.14.18.05.35.11.5.18.15.07.25.12.31.17.05.05.09.09.12.14.02.04.04.09.06.15s.03.12.04.2c.01.08.02.16.03.26,0,.12,0,.22,0,.31,0,.09-.02.16-.03.21-.02.05-.04.09-.07.12-.03.03-.07.04-.11.04-.07,0-.18-.03-.34-.11-.16-.08-.35-.16-.59-.24-.23-.08-.51-.16-.81-.23-.31-.07-.65-.1-1.02-.08-.42.02-.78.08-1.08.17-.3.1-.53.22-.71.38-.18.16-.31.34-.39.55-.08.21-.11.44-.1.69.02.38.12.69.3.94s.42.45.71.61.62.3.98.41c.37.11.74.23,1.12.35.38.12.76.25,1.12.4.37.15.7.34.99.58.29.24.53.54.72.89.19.36.3.8.32,1.33Z"/>
    <path class="cls-1" d="m39.57,47.22c-.11,0-.19,0-.26-.02-.12-.02-.21-.04-.29-.07-.15-.06-.26-.16-.31-.3-.05-.1-.06-.23-.03-.36l.1-1.64c-.18-.02-.36-.05-.52-.08-.27-.05-.52-.11-.74-.17-.23-.07-.42-.14-.58-.22-.18-.09-.32-.17-.41-.26-.12-.11-.21-.25-.26-.43-.04-.14-.06-.31-.07-.53,0-.16,0-.29,0-.4.01-.13.03-.23.07-.32.05-.14.14-.25.25-.32.1-.06.21-.09.32-.09.17-.01.33.05.55.17.15.08.34.16.57.26.23.09.53.18.87.25.33.07.74.1,1.21.08.81-.04,1.41-.22,1.8-.53.36-.3.52-.68.5-1.17-.01-.3-.09-.53-.22-.72-.15-.2-.35-.37-.6-.52-.26-.15-.57-.28-.9-.39l-1.11-.34c-.39-.12-.77-.26-1.15-.42-.4-.17-.76-.39-1.08-.65-.33-.27-.6-.61-.81-1.01-.21-.4-.33-.9-.36-1.49-.02-.47.04-.92.19-1.33.15-.43.38-.81.7-1.13.31-.32.71-.59,1.19-.8.39-.17.83-.3,1.33-.37l.09-1.61c.01-.1.03-.17.06-.24.02-.05.08-.17.23-.26.08-.05.18-.09.31-.11.1-.02.21-.03.37-.03.16,0,.29,0,.4,0,.15.01.26.05.36.1.16.09.23.21.27.3.03.07.04.15.05.25l-.1,1.58c.09.01.18.03.27.04.22.04.43.09.62.15.2.06.38.12.54.19.19.09.31.16.4.23.09.08.16.16.2.24.04.07.07.15.09.23.02.07.04.15.05.24.02.08.03.18.03.3,0,.14,0,.26,0,.36,0,.11-.02.21-.05.3-.04.12-.1.21-.18.28-.09.08-.21.13-.34.14-.13,0-.3-.04-.52-.15-.14-.07-.33-.14-.55-.22-.22-.08-.48-.15-.77-.22-.27-.06-.59-.08-.92-.07-.39.02-.72.07-.98.15-.25.08-.44.18-.58.3-.13.12-.22.25-.28.4-.06.17-.08.35-.07.54.01.31.09.54.23.73.15.2.35.38.6.52.26.15.57.28.91.38.37.11.74.23,1.13.35.39.12.78.26,1.15.41.4.16.77.38,1.09.64.33.27.6.61.82,1.01.22.41.34.91.37,1.49h0c.02.56-.06,1.08-.26,1.55-.2.47-.49.89-.87,1.24-.37.34-.84.62-1.38.84-.45.18-.95.3-1.48.38l-.1,1.75c-.01.09-.03.16-.05.22-.04.09-.1.2-.25.28-.08.05-.18.08-.29.1-.09.02-.22.03-.37.04-.05,0-.1,0-.15,0Zm-.15-.76c.07,0,.16,0,.27,0,.1,0,.18-.01.25-.02,0,0,0,0,0,0l.13-2.3.32-.03c.59-.06,1.13-.18,1.6-.36.46-.18.85-.42,1.15-.7.3-.27.53-.6.68-.97.15-.37.22-.79.2-1.23h0c-.02-.47-.11-.86-.28-1.17-.17-.31-.38-.57-.63-.78-.26-.22-.56-.39-.89-.53-.36-.14-.72-.27-1.1-.39-.38-.12-.75-.23-1.12-.34-.39-.12-.75-.27-1.06-.45-.33-.19-.61-.43-.83-.71-.23-.3-.36-.69-.38-1.15-.01-.29.03-.57.12-.83.1-.28.27-.52.49-.71.21-.19.5-.34.84-.45.33-.1.72-.17,1.18-.19.41-.02.78.01,1.12.09.32.07.61.15.86.24.25.09.46.17.62.25,0,0,.01,0,.02,0,0-.07,0-.15,0-.23,0-.07,0-.14-.02-.2-.01-.07-.02-.13-.03-.17l.18-.39-.24.29s-.05-.04-.22-.12c-.13-.06-.28-.11-.45-.16-.17-.05-.36-.09-.55-.13-.19-.03-.37-.06-.55-.07l-.38-.02.14-2.16c-.1,0-.18,0-.28,0-.1,0-.18.01-.24.02l-.13,2.16-.32.03c-.54.06-1.02.18-1.42.35-.39.17-.71.39-.95.64-.24.25-.42.53-.53.85-.11.33-.16.68-.15,1.05.02.47.11.87.27,1.17.16.31.37.57.62.78.26.22.56.4.89.54.35.15.71.28,1.07.39l1.11.35c.39.12.74.28,1.05.45.33.19.61.44.82.71.23.3.35.68.37,1.13.03.73-.23,1.32-.77,1.78-.51.43-1.27.67-2.24.71-.54.02-1.01,0-1.4-.09-.39-.08-.71-.18-.99-.29-.27-.11-.49-.21-.66-.3-.04-.02-.06-.03-.09-.04,0,0,0,.02,0,.03,0,.08,0,.18,0,.29,0,.2.03.3.04.36.07.1.13.15.27.22.13.06.29.12.47.17.19.06.41.11.66.15.25.05.52.08.81.11l.37.03-.14,2.31Z"/>
  </g>
</svg>