<?xml version="1.0" encoding="UTF-8"?>
<svg id="Layer_1" data-name="Layer 1" xmlns="http://www.w3.org/2000/svg" viewBox="0 0 60 60">
  <defs>
    <style>
      .cls-1 {
        fill: #37464c;
        stroke-width: 0px;
      }
    </style>
  </defs>
  <path class="cls-1" d="m30.22,57c-2.76,0-5-2.24-5-5s2.24-5,5-5,5,2.24,5,5-2.24,5-5,5Zm0-8c-1.65,0-3,1.35-3,3s1.35,3,3,3,3-1.35,3-3-1.35-3-3-3Z"/>
  <path class="cls-1" d="m13.22,57c-2.76,0-5-2.24-5-5s2.24-5,5-5,5,2.24,5,5-2.24,5-5,5Zm0-8c-1.65,0-3,1.35-3,3s1.35,3,3,3,3-1.35,3-3-1.35-3-3-3Z"/>
  <path class="cls-1" d="m21.22,49c-2.76,0-5-2.24-5-5s2.24-5,5-5,5,2.24,5,5-2.24,5-5,5Zm0-8c-1.65,0-3,1.35-3,3s1.35,3,3,3,3-1.35,3-3-1.35-3-3-3Z"/>
  <path class="cls-1" d="m39.22,49c-2.76,0-5-2.24-5-5s2.24-5,5-5,5,2.24,5,5-2.24,5-5,5Zm0-8c-1.65,0-3,1.35-3,3s1.35,3,3,3,3-1.35,3-3-1.35-3-3-3Z"/>
  <path class="cls-1" d="m47.22,57c-2.76,0-5-2.24-5-5s2.24-5,5-5,5,2.24,5,5-2.24,5-5,5Zm0-8c-1.65,0-3,1.35-3,3s1.35,3,3,3,3-1.35,3-3-1.35-3-3-3Z"/>
  <path class="cls-1" d="m24.22,21c-2.76,0-5-2.24-5-5s2.24-5,5-5,5,2.24,5,5-2.24,5-5,5Zm0-8c-1.65,0-3,1.35-3,3s1.35,3,3,3,3-1.35,3-3-1.35-3-3-3Z"/>
  <path class="cls-1" d="m29.22,41c-.55,0-1-.45-1-1v-12c0-1.65,1.35-3,3-3h10c.55,0,1-.45,1-1s-.45-1-1-1h-12.59l-3.71,3.71c-.39.39-1.02.39-1.41,0l-3.53-3.53-1.87.75c-1.15.46-1.89,1.55-1.89,2.79v9.29c0,.55-.45,1-1,1h-3c-2.21,0-4-1.79-4-4V9c0-2.21,1.79-4,4-4h36c2.21,0,4,1.79,4,4v24c0,2.21-1.79,4-4,4h-15c-.55,0-1-.45-1-1s.45-1,1-1h15c1.1,0,2-.9,2-2V9c0-1.1-.9-2-2-2H12.22c-1.1,0-2,.9-2,2v24c0,1.1.9,2,2,2h2v-8.29c0-2.06,1.23-3.88,3.14-4.64l2.49-.99c.37-.15.79-.06,1.08.22l3.29,3.29,3.29-3.29c.19-.19.44-.29.71-.29h13c1.65,0,3,1.35,3,3s-1.35,3-3,3h-10c-.55,0-1,.45-1,1v12c0,.55-.45,1-1,1Z"/>
  <path class="cls-1" d="m19.22,37c-.55,0-1-.45-1-1v-8c0-.55.45-1,1-1s1,.45,1,1v8c0,.55-.45,1-1,1Z"/>
</svg>