<?xml version="1.0" encoding="UTF-8"?>
<svg id="Layer_1" data-name="Layer 1" xmlns="http://www.w3.org/2000/svg" viewBox="0 0 60 60">
  <defs>
    <style>
      .cls-1 {
        fill: #37464c;
        stroke-width: 0px;
      }
    </style>
  </defs>
  <g>
    <path class="cls-1" d="m20.28,37.53c-2.76,0-5-2.24-5-5s2.24-5,5-5,5,2.24,5,5-2.24,5-5,5Zm0-8c-1.65,0-3,1.35-3,3s1.35,3,3,3,3-1.35,3-3-1.35-3-3-3Z"/>
    <path class="cls-1" d="m44.28,53.53h-15c-.55,0-1-.45-1-1s.45-1,1-1h15c1.1,0,2-.9,2-2v-16.34c0-.55.45-1,1-1s1,.45,1,1v16.34c0,2.21-1.79,4-4,4Z"/>
    <path class="cls-1" d="m47.28,34.19c-.55,0-1-.45-1-1v-.66c0-.55.45-1,1-1s1,.45,1,1v.66c0,.55-.45,1-1,1Z"/>
    <path class="cls-1" d="m25.28,57.53c-.55,0-1-.45-1-1v-12c0-1.65,1.35-3,3-3h10c.55,0,1-.45,1-1s-.45-1-1-1h-12.59l-3.71,3.71c-.39.39-1.02.39-1.41,0l-3.53-3.53-1.87.75c-1.15.46-1.89,1.55-1.89,2.79v9.29c0,.55-.45,1-1,1h-3c-2.21,0-4-1.79-4-4v-22.66c0-.55.45-1,1-1s1,.45,1,1v22.66c0,1.1.9,2,2,2h2v-8.29c0-2.06,1.23-3.88,3.14-4.64l2.49-.99c.37-.15.79-.06,1.08.22l3.29,3.29,3.29-3.29c.19-.19.44-.29.71-.29h13c1.65,0,3,1.35,3,3s-1.35,3-3,3h-10c-.55,0-1,.45-1,1v12c0,.55-.45,1-1,1Z"/>
    <path class="cls-1" d="m5.28,27.26c-.55,0-1-.45-1-1v-8.39c0-2.21,1.79-4,4-4h14c.55,0,1,.45,1,1s-.45,1-1,1h-14c-1.1,0-2,.9-2,2v8.39c0,.55-.45,1-1,1Z"/>
    <path class="cls-1" d="m15.28,53.53c-.55,0-1-.45-1-1v-8c0-.55.45-1,1-1s1,.45,1,1v8c0,.55-.45,1-1,1Z"/>
  </g>
  <path class="cls-1" d="m28,28.24c-.55,0-1-.45-1-1V9.84c0-.55.45-1,1-1h17.4c.55,0,1,.45,1,1s-.45,1-1,1h-16.4v16.4c0,.55-.45,1-1,1Z"/>
  <path class="cls-1" d="m40.41,28.24s-.03,0-.04,0c-.33-.01-.63-.19-.81-.47l-5.91-9.56c-.29-.47-.14-1.09.33-1.38.47-.29,1.08-.15,1.38.33l5.14,8.31,12-16.22c.33-.45.96-.54,1.4-.21.44.33.54.96.21,1.4l-12.88,17.4c-.19.26-.49.41-.8.41Z"/>
</svg>