<?xml version="1.0" encoding="UTF-8"?>
<svg id="Layer_1" data-name="Layer 1" xmlns="http://www.w3.org/2000/svg" viewBox="0 0 60 60">
  <defs>
    <style>
      .cls-1 {
        fill: #37464c;
        stroke-width: 0px;
      }
    </style>
  </defs>
  <path class="cls-1" d="m45.85,56.02H13.85c-2.21,0-4-1.79-4-4v-19c0-.55.45-1,1-1s1,.45,1,1v19c0,1.1.9,2,2,2h32c1.1,0,2-.9,2-2v-19c0-.55.45-1,1-1s1,.45,1,1v19c0,2.21-1.79,4-4,4Z"/>
  <path class="cls-1" d="m50.85,30.02H8.85c-.55,0-1-.45-1-1v-7c0-2.21,1.79-4,4-4h36c2.21,0,4,1.79,4,4v7c0,.55-.45,1-1,1Zm-41-2h40v-6c0-1.1-.9-2-2-2H11.85c-1.1,0-2,.9-2,2v6Z"/>
  <path class="cls-1" d="m18.85,20.02c-4.41,0-8-3.59-8-8s3.59-8,8-8c6.62,0,12,5.38,12,12h-2c0-5.51-4.49-10-10-10-3.31,0-6,2.69-6,6s2.69,6,6,6v2Z"/>
  <path class="cls-1" d="m30.85,55.02h-2V16.02c0-6.62,5.38-12,12-12,4.41,0,8,3.59,8,8s-3.59,8-8,8v-2c3.31,0,6-2.69,6-6s-2.69-6-6-6c-5.51,0-10,4.49-10,10v39Z"/>
</svg>