<?xml version="1.0" encoding="UTF-8"?>
<svg id="Layer_1" data-name="Layer 1" xmlns="http://www.w3.org/2000/svg" viewBox="0 0 60 60">
  <defs>
    <style>
      .cls-1 {
        fill: #37464c;
        stroke-width: 0px;
      }
    </style>
  </defs>
  <path class="cls-1" d="m13.42,17.86c-3.03,0-5.5-2.47-5.5-5.5s2.47-5.5,5.5-5.5,5.5,2.47,5.5,5.5-2.47,5.5-5.5,5.5Zm0-9c-1.93,0-3.5,1.57-3.5,3.5s1.57,3.5,3.5,3.5,3.5-1.57,3.5-3.5-1.57-3.5-3.5-3.5Z"/>
  <path class="cls-1" d="m13.42,54.86c-.55,0-1-.45-1-1v-17c0-.55.45-1,1-1s1,.45,1,1v17c0,.55-.45,1-1,1Z"/>
  <path class="cls-1" d="m17.42,54.86h-8c-1.1,0-2-.9-2-2v-14.6c-2.28-.46-4-2.48-4-4.9v-9.5c0-4.12,4.11-7,10-7h17c1.65,0,3,1.35,3,3s-1.35,3-3,3h-10c-.55,0-1,.45-1,1v29c0,1.1-.9,2-2,2Zm-8-17.5v15.5h8v-29c0-1.65,1.35-3,3-3h10c.55,0,1-.45,1-1s-.45-1-1-1H13.42c-3.85,0-8,1.56-8,5v9.5c0,1.3.84,2.42,2,2.83v-11.33c0-.55.45-1,1-1s1,.45,1,1v12.5Z"/>
  <path class="cls-1" d="m54.42,40.86H22.42c-.55,0-1-.45-1-1s.45-1,1-1h31V12.86H21.42c-.55,0-1-.45-1-1s.45-1,1-1h33c.55,0,1,.45,1,1v28c0,.55-.45,1-1,1Z"/>
  <path class="cls-1" d="m34.42,54.86c-.55,0-1-.45-1-1v-14c0-.55.45-1,1-1s1,.45,1,1v14c0,.55-.45,1-1,1Z"/>
  <path class="cls-1" d="m41.42,54.86c-.26,0-.51-.1-.71-.29l-6.29-6.29-6.29,6.29c-.39.39-1.02.39-1.41,0s-.39-1.02,0-1.41l7-7c.39-.39,1.02-.39,1.41,0l7,7c.39.39.39,1.02,0,1.41-.2.2-.45.29-.71.29Z"/>
  <path class="cls-1" d="m24.42,34.86c-.26,0-.51-.1-.71-.29-.39-.39-.39-1.02,0-1.41l6-6c.39-.39,1.02-.39,1.41,0l3.29,3.29,11.29-11.29c.39-.39,1.02-.39,1.41,0s.39,1.02,0,1.41l-12,12c-.39.39-1.02.39-1.41,0l-3.29-3.29-5.29,5.29c-.2.2-.45.29-.71.29Z"/>
  <path class="cls-1" d="m46.42,26.86c-.55,0-1-.45-1-1v-5h-5c-.55,0-1-.45-1-1s.45-1,1-1h6c.55,0,1,.45,1,1v6c0,.55-.45,1-1,1Z"/>
</svg>