<?xml version="1.0" encoding="UTF-8"?>
<svg id="Layer_1" data-name="Layer 1" xmlns="http://www.w3.org/2000/svg" viewBox="0 0 60 60">
  <defs>
    <style>
      .cls-1 {
        fill: #37464c;
        stroke-width: 0px;
      }
    </style>
  </defs>
  <g>
    <g>
      <path class="cls-1" d="m44.06,24.35c-.31,0-.55-.25-.55-.55v-8.84l-6.92-6.32h-14.27c-1.43,0-2.6,1.16-2.6,2.6v12.57c0,.31-.25.55-.55.55s-.55-.25-.55-.55v-12.57c0-2.04,1.66-3.7,3.7-3.7h14.49c.14,0,.27.05.37.14l7.26,6.63c.11.1.18.25.18.41v9.09c0,.31-.25.55-.55.55Z"/>
      <path class="cls-1" d="m44.06,24.72c-.51,0-.93-.42-.93-.93v-8.68l-6.69-6.11h-14.13c-1.22,0-2.22,1-2.22,2.22v12.57c0,.51-.42.93-.93.93s-.93-.42-.93-.93v-12.57c0-2.25,1.83-4.08,4.08-4.08h14.49c.23,0,.45.09.63.24l7.26,6.63c.19.18.3.43.3.69v9.09c0,.51-.42.93-.93.93ZM22.31,8.26h14.42l7.15,6.53v9.01c0,.2.36.2.36,0v-9.09s-.02-.1-.06-.13l-7.26-6.63s-.08-.05-.12-.05h-14.49c-1.83,0-3.33,1.49-3.33,3.33v12.57c0,.2.36.2.36,0v-12.57c0-1.64,1.33-2.97,2.97-2.97Z"/>
    </g>
    <g>
      <g>
        <path class="cls-1" d="m37.56,18.24h-11.9c-.31,0-.55-.25-.55-.55s.25-.55.55-.55h11.9c.31,0,.55.25.55.55s-.25.55-.55.55Z"/>
        <path class="cls-1" d="m37.56,18.62h-11.9c-.51,0-.93-.42-.93-.93s.42-.93.93-.93h11.9c.51,0,.93.42.93.93s-.42.93-.93.93Zm-11.9-1.11c-.1,0-.18.08-.18.18s.08.18.18.18h11.9c.1,0,.18-.08.18-.18s-.08-.18-.18-.18h-11.9Z"/>
      </g>
      <g>
        <path class="cls-1" d="m40.67,22.17h-18.13c-.31,0-.55-.25-.55-.55s.25-.55.55-.55h18.13c.31,0,.55.25.55.55s-.25.55-.55.55Z"/>
        <path class="cls-1" d="m40.67,22.55h-18.13c-.51,0-.93-.42-.93-.93s.42-.93.93-.93h18.13c.51,0,.93.42.93.93s-.42.93-.93.93Zm-18.13-1.11c-.1,0-.18.08-.18.18s.08.18.18.18h18.13c.1,0,.18-.08.18-.18s-.08-.18-.18-.18h-18.13Z"/>
      </g>
    </g>
    <g>
      <path class="cls-1" d="m44.06,15.48h-7.26c-.31,0-.55-.25-.55-.55v-6.85c0-.22.13-.42.33-.51.2-.09.44-.05.6.11l7.26,6.85c.17.16.22.4.13.61-.08.21-.29.35-.51.35Zm-6.71-1.11h5.31l-5.31-5.01v5.01Z"/>
      <path class="cls-1" d="m44.06,15.85h-7.26c-.51,0-.93-.42-.93-.93v-6.85c0-.37.22-.71.56-.85.34-.15.73-.08,1,.18l7.26,6.84c.28.26.37.66.23,1.02-.14.36-.48.59-.86.59Zm-7.26-7.95s-.05,0-.07.01c-.07.03-.11.09-.11.16v6.85c0,.1.08.18.18.18h7.26c.07,0,.14-.04.17-.11.03-.07,0-.15-.04-.2l-7.26-6.85s-.08-.05-.12-.05Zm6.81,6.84h-6.63v-6.25l6.63,6.25Zm-5.88-.75h3.99l-3.99-3.76v3.76Z"/>
    </g>
  </g>
  <g>
    <path class="cls-1" d="m50.81,44.53h-6.24c-.31,0-.55-.25-.55-.55s.25-.55.55-.55h6.24c2.18,0,3.95-1.77,3.95-3.95v-10.9c0-2.18-1.77-3.95-3.95-3.95H12.4c-2.18,0-3.95,1.77-3.95,3.95v10.9c0,2.18,1.77,3.95,3.95,3.95h6.52c.31,0,.55.25.55.55s-.25.55-.55.55h-6.52c-2.79,0-5.06-2.27-5.06-5.06v-10.9c0-2.79,2.27-5.06,5.06-5.06h38.4c2.79,0,5.06,2.27,5.06,5.06v10.9c0,2.79-2.27,5.06-5.06,5.06Z"/>
    <path class="cls-1" d="m50.81,44.91h-6.24c-.51,0-.93-.42-.93-.93s.42-.93.93-.93h6.24c1.97,0,3.58-1.6,3.58-3.58v-10.9c0-1.97-1.6-3.58-3.58-3.58H12.4c-1.97,0-3.58,1.6-3.58,3.58v10.9c0,1.97,1.6,3.58,3.58,3.58h6.52c.51,0,.93.42.93.93s-.42.93-.93.93h-6.52c-3,0-5.43-2.44-5.43-5.43v-10.9c0-3,2.44-5.43,5.43-5.43h38.4c3,0,5.43,2.44,5.43,5.43v10.9c0,3-2.44,5.43-5.43,5.43Zm-6.24-1.11c-.1,0-.18.08-.18.18s.08.18.18.18h6.24c2.58,0,4.68-2.1,4.68-4.68v-10.9c0-2.58-2.1-4.68-4.68-4.68H12.4c-2.58,0-4.68,2.1-4.68,4.68v10.9c0,2.58,2.1,4.68,4.68,4.68h6.52c.1,0,.18-.08.18-.18s-.08-.18-.18-.18h-6.52c-2.39,0-4.33-1.94-4.33-4.33v-10.9c0-2.39,1.94-4.33,4.33-4.33h38.4c2.39,0,4.33,1.94,4.33,4.33v10.9c0,2.39-1.94,4.33-4.33,4.33h-6.24Z"/>
  </g>
  <g>
    <path class="cls-1" d="m47.94,42.15h-3.57c-.31,0-.55-.25-.55-.55s.25-.55.55-.55h3.01v-1.21H15.83v1.21h2.98c.31,0,.55.25.55.55s-.25.55-.55.55h-3.53c-.31,0-.55-.25-.55-.55v-2.32c0-.31.25-.55.55-.55h32.66c.31,0,.55.25.55.55v2.32c0,.31-.25.55-.55.55Z"/>
    <path class="cls-1" d="m47.94,42.52h-3.57c-.51,0-.93-.42-.93-.93s.42-.93.93-.93h2.64v-.46h-30.8v.46h2.6c.51,0,.93.42.93.93s-.42.93-.93.93h-3.53c-.51,0-.93-.42-.93-.93v-2.32c0-.51.42-.93.93-.93h32.66c.51,0,.93.42.93.93v2.32c0,.51-.42.93-.93.93Zm-3.57-1.11c-.1,0-.18.08-.18.18s.08.18.18.18h3.57c.1,0,.18-.08.18-.18v-2.32c0-.1-.08-.18-.18-.18H15.27c-.1,0-.18.08-.18.18v2.32c0,.1.08.18.18.18h3.53c.1,0,.18-.08.18-.18s-.08-.18-.18-.18h-3.35v-1.96h32.3v1.96h-3.39Z"/>
  </g>
  <g>
    <g>
      <path class="cls-1" d="m40.91,54.32h-18.6c-2.04,0-3.7-1.66-3.7-3.7v-10.71c0-.31.25-.55.55-.55s.55.25.55.55v10.71c0,1.43,1.16,2.6,2.6,2.6h18.6c1.43,0,2.6-1.16,2.6-2.6v-10.71c0-.31.25-.55.55-.55s.55.25.55.55v10.71c0,2.04-1.66,3.7-3.7,3.7Z"/>
      <path class="cls-1" d="m40.91,54.7h-18.6c-2.25,0-4.08-1.83-4.08-4.08v-10.71c0-.51.42-.93.93-.93s.93.42.93.93v10.71c0,1.22,1,2.22,2.22,2.22h18.6c1.22,0,2.22-1,2.22-2.22v-10.71c0-.51.42-.93.93-.93s.93.42.93.93v10.71c0,2.25-1.83,4.08-4.08,4.08Zm-21.75-14.97c-.1,0-.18.08-.18.18v10.71c0,1.83,1.49,3.33,3.33,3.33h18.6c1.84,0,3.33-1.49,3.33-3.33v-10.71c0-.2-.36-.2-.36,0v10.71c0,1.64-1.33,2.97-2.97,2.97h-18.6c-1.64,0-2.97-1.33-2.97-2.97v-10.71c0-.1-.08-.18-.18-.18Z"/>
    </g>
    <g>
      <g>
        <path class="cls-1" d="m40.67,41.63h-18.13c-.31,0-.55-.25-.55-.55s.25-.55.55-.55h18.13c.31,0,.55.25.55.55s-.25.55-.55.55Z"/>
        <path class="cls-1" d="m40.67,42.01h-18.13c-.51,0-.93-.42-.93-.93s.42-.93.93-.93h18.13c.51,0,.93.42.93.93s-.42.93-.93.93Zm-18.13-1.11c-.1,0-.18.08-.18.18s.08.18.18.18h18.13c.1,0,.18-.08.18-.18s-.08-.18-.18-.18h-18.13Z"/>
      </g>
      <g>
        <path class="cls-1" d="m40.67,44.25h-18.13c-.31,0-.55-.25-.55-.55s.25-.55.55-.55h18.13c.31,0,.55.25.55.55s-.25.55-.55.55Z"/>
        <path class="cls-1" d="m40.67,44.63h-18.13c-.51,0-.93-.42-.93-.93s.42-.93.93-.93h18.13c.51,0,.93.42.93.93s-.42.93-.93.93Zm-18.13-1.11c-.1,0-.18.08-.18.18s.08.18.18.18h18.13c.1,0,.18-.08.18-.18s-.08-.18-.18-.18h-18.13Z"/>
      </g>
      <g>
        <path class="cls-1" d="m40.67,47.77h-4.48c-.31,0-.55-.25-.55-.55s.25-.55.55-.55h4.48c.31,0,.55.25.55.55s-.25.55-.55.55Z"/>
        <path class="cls-1" d="m40.67,48.14h-4.48c-.51,0-.93-.42-.93-.93s.42-.93.93-.93h4.48c.51,0,.93.42.93.93s-.42.93-.93.93Zm-4.48-1.11c-.1,0-.18.08-.18.18s.08.18.18.18h4.48c.1,0,.18-.08.18-.18s-.08-.18-.18-.18h-4.48Z"/>
      </g>
    </g>
  </g>
  <g>
    <path class="cls-1" d="m16.28,36.69h-4.66c-.31,0-.55-.25-.55-.55s.25-.55.55-.55h4.66c.31,0,.55.25.55.55s-.25.55-.55.55Z"/>
    <path class="cls-1" d="m16.28,37.07h-4.66c-.51,0-.93-.42-.93-.93s.42-.93.93-.93h4.66c.51,0,.93.42.93.93s-.42.93-.93.93Zm-4.66-1.11c-.1,0-.18.08-.18.18s.08.18.18.18h4.66c.1,0,.18-.08.18-.18s-.08-.18-.18-.18h-4.66Z"/>
  </g>
  <g>
    <path class="cls-1" d="m20.7,36.69h-2.29c-.31,0-.55-.25-.55-.55s.25-.55.55-.55h2.29c.31,0,.55.25.55.55s-.25.55-.55.55Z"/>
    <path class="cls-1" d="m20.7,37.07h-2.29c-.51,0-.93-.42-.93-.93s.42-.93.93-.93h2.29c.51,0,.93.42.93.93s-.42.93-.93.93Zm-2.29-1.11c-.1,0-.18.08-.18.18s.08.18.18.18h2.29c.1,0,.18-.08.18-.18s-.08-.18-.18-.18h-2.29Z"/>
  </g>
</svg>