<?xml version="1.0" encoding="UTF-8"?>
<svg id="Layer_1" data-name="Layer 1" xmlns="http://www.w3.org/2000/svg" viewBox="0 0 60 60">
  <defs>
    <style>
      .cls-1 {
        fill: #37464c;
        stroke-width: 0px;
      }
    </style>
  </defs>
  <path class="cls-1" d="m54.29,31.47h-7.93c-.74,0-1.4-.45-1.68-1.14-.27-.68-.11-1.44.42-1.95.96-.92,1.37-2.21,1.12-3.54-.28-1.54-1.56-2.81-3.1-3.08-1.18-.21-2.33.08-3.24.84-.89.74-1.4,1.84-1.4,3,0,1.05.41,2.04,1.17,2.77.54.52.7,1.31.42,1.99-.27.68-.93,1.11-1.66,1.11h-7.93c-.27,0-.52-.11-.71-.29s-.29-.44-.29-.71v-7.46c-1.07.94-2.43,1.46-3.87,1.46-1.75,0-3.41-.77-4.53-2.12-1.12-1.35-1.59-3.12-1.27-4.87.42-2.34,2.35-4.28,4.69-4.71,1.81-.33,3.64.17,4.99,1.36v-7.46c0-.55.45-1,1-1h16.17c4.76,0,8.63,3.87,8.63,8.63v16.17c0,.55-.45,1-1,1Zm-7.46-2h6.46v-15.17c0-3.66-2.98-6.63-6.63-6.63h-15.17v6.93c0,.74-.45,1.4-1.14,1.68-.68.27-1.44.11-1.95-.42-.92-.96-2.21-1.37-3.54-1.12-1.54.28-2.81,1.56-3.08,3.1-.21,1.18.08,2.33.84,3.24.74.89,1.84,1.4,3,1.4,1.05,0,2.03-.41,2.77-1.17.52-.54,1.31-.7,2-.42.68.28,1.11.93,1.11,1.66v6.93s6.46,0,6.46,0c-.94-1.07-1.46-2.43-1.46-3.88,0-1.75.77-3.41,2.12-4.53,1.35-1.12,3.12-1.59,4.87-1.27,2.34.42,4.28,2.35,4.71,4.69.33,1.81-.17,3.64-1.36,4.99Z"/>
  <path class="cls-1" d="m18.58,41.24c-.36,0-.72-.03-1.08-.1-2.34-.42-4.28-2.35-4.71-4.69-.33-1.81.17-3.64,1.36-4.99h-7.46c-.55,0-1-.45-1-1V14.3c0-4.76,3.87-8.63,8.63-8.63h16.17c.55,0,1,.45,1,1v7.93c0,.74-.45,1.4-1.14,1.68-.68.27-1.44.11-1.95-.41-.92-.96-2.21-1.37-3.54-1.12-1.54.28-2.81,1.56-3.08,3.1-.21,1.18.08,2.33.84,3.24.74.89,1.84,1.4,3,1.4,1.05,0,2.04-.41,2.77-1.17.52-.54,1.31-.7,1.99-.42.68.27,1.11.93,1.11,1.66v7.93c0,.55-.45,1-1,1h-7.46c.95,1.07,1.46,2.43,1.46,3.88,0,1.75-.77,3.4-2.12,4.53-1.07.89-2.41,1.37-3.79,1.37Zm-10.89-11.78h6.93c.74,0,1.4.45,1.68,1.14.27.68.11,1.44-.42,1.95-.96.92-1.37,2.21-1.12,3.54.28,1.54,1.56,2.81,3.1,3.08,1.18.22,2.33-.08,3.24-.84.89-.74,1.4-1.84,1.4-3,0-1.05-.41-2.03-1.17-2.77-.54-.52-.7-1.31-.42-1.99.27-.68.93-1.11,1.66-1.11h6.93v-6.46c-1.07.94-2.43,1.46-3.88,1.46-1.75,0-3.41-.77-4.53-2.12-1.12-1.35-1.59-3.12-1.27-4.87.42-2.34,2.35-4.28,4.69-4.71,1.81-.33,3.64.17,4.99,1.36v-6.46h-15.17c-3.66,0-6.63,2.98-6.63,6.63v15.17Z"/>
  <path class="cls-1" d="m30.49,55.27H14.33c-4.76,0-8.63-3.87-8.63-8.63v-16.17c0-.55.45-1,1-1h7.93c.74,0,1.4.45,1.68,1.14.27.68.11,1.44-.42,1.95-.96.92-1.37,2.21-1.12,3.54.28,1.54,1.56,2.81,3.1,3.09,1.18.21,2.33-.09,3.24-.84.89-.74,1.4-1.84,1.4-3,0-1.05-.41-2.03-1.17-2.77-.54-.52-.7-1.3-.42-1.99.27-.68.93-1.11,1.66-1.11h7.93c.27,0,.52.11.71.29s.29.44.29.71v7.46c1.07-.95,2.43-1.46,3.87-1.46,1.75,0,3.41.77,4.53,2.12,1.12,1.35,1.59,3.12,1.27,4.87-.42,2.34-2.35,4.28-4.69,4.71-1.81.33-3.64-.17-4.99-1.36v7.46c0,.55-.45,1-1,1ZM7.69,31.47v15.17c0,3.66,2.98,6.63,6.63,6.63h15.17v-6.93c0-.74.45-1.4,1.14-1.68.68-.27,1.44-.11,1.95.42.92.96,2.21,1.37,3.54,1.12,1.54-.28,2.81-1.56,3.08-3.1.21-1.18-.08-2.33-.84-3.24-.75-.89-1.84-1.4-3-1.4-1.05,0-2.03.41-2.77,1.17-.52.54-1.31.7-1.99.42-.68-.27-1.11-.93-1.11-1.66v-6.93s-6.46,0-6.46,0c.95,1.07,1.46,2.43,1.46,3.88,0,1.75-.77,3.4-2.12,4.53-1.35,1.12-3.12,1.59-4.87,1.27-2.34-.42-4.28-2.35-4.71-4.69-.33-1.81.17-3.64,1.36-4.99h-6.46Z"/>
  <path class="cls-1" d="m46.66,55.27h-16.17c-.55,0-1-.45-1-1v-7.93c0-.74.45-1.4,1.14-1.68.68-.27,1.44-.11,1.95.42.92.96,2.21,1.37,3.54,1.12,1.54-.28,2.81-1.56,3.08-3.1.21-1.18-.08-2.33-.84-3.24-.74-.89-1.84-1.4-3-1.4-1.05,0-2.04.41-2.77,1.17-.52.54-1.31.7-1.99.42-.68-.27-1.11-.93-1.11-1.66v-7.93c0-.55.45-1,1-1h7.46c-.94-1.07-1.46-2.43-1.46-3.87,0-1.75.77-3.41,2.12-4.53,1.35-1.12,3.12-1.59,4.87-1.27,2.34.42,4.28,2.35,4.71,4.69.33,1.81-.17,3.64-1.36,4.99h7.46c.55,0,1,.45,1,1v16.17c0,4.76-3.87,8.63-8.63,8.63Zm-15.17-2h15.17c3.66,0,6.63-2.98,6.63-6.63v-15.17h-6.93c-.74,0-1.4-.45-1.68-1.14-.27-.68-.11-1.44.42-1.95.96-.92,1.37-2.21,1.12-3.54-.28-1.54-1.56-2.81-3.1-3.08-1.18-.21-2.33.08-3.24.84-.89.74-1.4,1.84-1.4,3,0,1.05.41,2.03,1.17,2.77.54.52.7,1.31.42,1.99-.27.68-.93,1.11-1.66,1.11h-6.93v6.46c1.07-.95,2.43-1.46,3.88-1.46,1.75,0,3.41.77,4.53,2.12,1.12,1.35,1.59,3.12,1.27,4.87-.42,2.34-2.35,4.28-4.69,4.71-1.81.33-3.64-.17-4.99-1.36v6.46Z"/>
</svg>