<?xml version="1.0" encoding="UTF-8"?>
<svg id="Layer_1" data-name="Layer 1" xmlns="http://www.w3.org/2000/svg" viewBox="0 0 60 60">
  <defs>
    <style>
      .cls-1 {
        fill: #37464c;
        stroke-width: 0px;
      }
    </style>
  </defs>
  <path class="cls-1" d="m30,23.79c-5.96,0-12-1.72-12-5s6.04-5,12-5,12,1.72,12,5-6.04,5-12,5Zm0-8c-6.01,0-10,1.81-10,3s3.99,3,10,3,10-1.81,10-3-3.99-3-10-3Z"/>
  <path class="cls-1" d="m30,37.79c-5.96,0-12-1.72-12-5h2c0,1.19,3.99,3,10,3s10-1.81,10-3h2c0,3.28-6.04,5-12,5Z"/>
  <path class="cls-1" d="m30,30.79c-5.96,0-12-1.72-12-5h2c0,1.19,3.99,3,10,3s10-1.81,10-3h2c0,3.28-6.04,5-12,5Z"/>
  <path class="cls-1" d="m30,45.79c-5.96,0-12-1.72-12-5v-22h2v22c0,1.19,3.99,3,10,3s10-1.81,10-3v-22h2v22c0,3.28-6.04,5-12,5Z"/>
  <path class="cls-1" d="m52,49.79h-6c-.55,0-1-.45-1-1v-6c0-.55.45-1,1-1s1,.45,1,1v5h5c.55,0,1,.45,1,1s-.45,1-1,1Z"/>
  <path class="cls-1" d="m14,17.79c-.55,0-1-.45-1-1v-5h-5c-.55,0-1-.45-1-1s.45-1,1-1h6c.55,0,1,.45,1,1v6c0,.55-.45,1-1,1Z"/>
  <path class="cls-1" d="m46.24,49.79c-.28,0-.56-.12-.76-.35-.36-.42-.31-1.05.11-1.41,5.35-4.57,8.41-11.22,8.41-18.24,0-13.23-10.77-24-24-24-.55,0-1-.45-1-1s.45-1,1-1c14.34,0,26,11.66,26,26,0,7.6-3.32,14.81-9.11,19.76-.19.16-.42.24-.65.24Z"/>
  <path class="cls-1" d="m30,55.79c-14.34,0-26-11.66-26-26,0-7.6,3.32-14.81,9.11-19.76.42-.36,1.05-.31,1.41.11.36.42.31,1.05-.11,1.41-5.35,4.57-8.41,11.22-8.41,18.24,0,13.23,10.77,24,24,24,.55,0,1,.45,1,1s-.45,1-1,1Z"/>
  <path class="cls-1" d="m29,54.79c0-.55.45-1,1-1h0c.55,0,1,.45,1,1h0c0,.55-.45,1-1,1h0c-.55,0-1-.45-1-1Zm4-.16c0-.05-.02-.1-.02-.15h0c0-.49.35-.92.84-1h0c.55-.08,1.06.29,1.15.83h0s0,.11,0,.16h0c0,.48-.35.91-.84.99h0s-.11,0-.16,0h0c-.48,0-.91-.35-.98-.84Zm3.91-.79c-.03-.11-.05-.22-.05-.32h0c.01-.42.27-.81.69-.94h0c.52-.18,1.09.11,1.26.63h0c.04.11.05.21.05.32h0c0,.42-.26.81-.68.94h0c-.1.04-.21.05-.31.05h0c-.43,0-.82-.26-.96-.68Zm3.75-1.41c-.08-.14-.12-.3-.12-.45h0c0-.37.2-.72.54-.9h0c.49-.25,1.09-.06,1.35.42h0c.08.15.11.31.11.46h0c0,.36-.19.71-.53.89h0c-.15.08-.31.12-.46.12h0c-.37,0-.71-.2-.89-.54Z"/>
  <path class="cls-1" d="m17.57,8.07c-.08-.14-.11-.3-.12-.45h0c0-.37.2-.72.54-.9h0c.49-.25,1.1-.06,1.35.43h0c.08.14.11.3.12.45h0c0,.36-.2.72-.54.9h0c-.15.07-.31.11-.46.11h0c-.36,0-.71-.2-.89-.54Zm3.62-1.7c-.04-.11-.06-.22-.05-.32h0c0-.42.26-.81.68-.95h0c.52-.17,1.09.11,1.26.64h0c.04.1.06.21.05.32h0c0,.42-.26.8-.68.94h0c-.1.04-.21.05-.31.05h0c-.42,0-.82-.26-.95-.68Zm3.84-1.11s-.01-.1-.01-.15h0c0-.48.34-.91.84-.99h0c.54-.09,1.06.28,1.14.83h0c0,.05.02.1.02.15h0c0,.48-.35.91-.85.99h0s-.1,0-.15,0h0c-.49,0-.91-.35-.99-.84Zm3.97-.47c0-.55.45-1,1-1h0c.55,0,1,.45,1,1h0c0,.55-.45,1-1,1h0c-.55,0-1-.45-1-1Z"/>
</svg>