<?xml version="1.0" encoding="UTF-8"?>
<svg id="Layer_1" data-name="Layer 1" xmlns="http://www.w3.org/2000/svg" viewBox="0 0 60 60">
  <defs>
    <style>
      .cls-1 {
        fill: #37464c;
        stroke-width: 0px;
      }
    </style>
  </defs>
  <g>
    <path class="cls-1" d="m38.78,56.18h-17.1c-2.44,0-4.42-1.98-4.42-4.42V8.78c0-2.44,1.98-4.42,4.42-4.42h17.1c2.44,0,4.42,1.98,4.42,4.42v42.98c0,2.44-1.98,4.42-4.42,4.42ZM21.68,5.55c-1.78,0-3.24,1.45-3.24,3.24v42.98c0,1.78,1.45,3.24,3.24,3.24h17.1c1.78,0,3.24-1.45,3.24-3.24V8.78c0-1.78-1.45-3.24-3.24-3.24h-17.1Z"/>
    <path class="cls-1" d="m38.78,56.55h-17.1c-2.64,0-4.79-2.15-4.79-4.79V8.78c0-2.64,2.15-4.79,4.79-4.79h17.1c2.64,0,4.79,2.15,4.79,4.79v42.98c0,2.64-2.15,4.79-4.79,4.79ZM21.68,4.74c-2.23,0-4.04,1.81-4.04,4.04v42.98c0,2.23,1.81,4.04,4.04,4.04h17.1c2.23,0,4.04-1.81,4.04-4.04V8.78c0-2.23-1.81-4.04-4.04-4.04h-17.1Zm17.1,50.63h-17.1c-1.99,0-3.61-1.62-3.61-3.61V8.78c0-1.99,1.62-3.61,3.61-3.61h17.1c1.99,0,3.61,1.62,3.61,3.61v42.98c0,1.99-1.62,3.61-3.61,3.61ZM21.68,5.92c-1.58,0-2.86,1.28-2.86,2.86v42.98c0,1.58,1.28,2.86,2.86,2.86h17.1c1.58,0,2.86-1.28,2.86-2.86V8.78c0-1.58-1.28-2.86-2.86-2.86h-17.1Z"/>
  </g>
  <g>
    <path class="cls-1" d="m24.61,13.43c-1.35,0-2.45-1.1-2.45-2.45s1.1-2.45,2.45-2.45,2.45,1.1,2.45,2.45-1.1,2.45-2.45,2.45Zm0-3.71c-.7,0-1.27.57-1.27,1.27s.57,1.27,1.27,1.27,1.27-.57,1.27-1.27-.57-1.27-1.27-1.27Z"/>
    <path class="cls-1" d="m24.61,13.8c-1.56,0-2.82-1.27-2.82-2.82s1.27-2.82,2.82-2.82,2.82,1.27,2.82,2.82-1.27,2.82-2.82,2.82Zm0-4.9c-1.14,0-2.07.93-2.07,2.07s.93,2.07,2.07,2.07,2.07-.93,2.07-2.07-.93-2.07-2.07-2.07Zm0,3.71c-.9,0-1.64-.74-1.64-1.64s.74-1.64,1.64-1.64,1.64.74,1.64,1.64-.74,1.64-1.64,1.64Zm0-2.53c-.49,0-.89.4-.89.89s.4.89.89.89.89-.4.89-.89-.4-.89-.89-.89Z"/>
  </g>
  <g>
    <g>
      <path class="cls-1" d="m24.61,39.05c-1.17,0-2.12-.95-2.12-2.12s.95-2.12,2.12-2.12,2.12.95,2.12,2.12-.95,2.12-2.12,2.12Zm0-3.07c-.52,0-.94.42-.94.94s.42.94.94.94.94-.42.94-.94-.42-.94-.94-.94Z"/>
      <path class="cls-1" d="m24.61,39.43c-1.38,0-2.5-1.12-2.5-2.5s1.12-2.5,2.5-2.5,2.5,1.12,2.5,2.5-1.12,2.5-2.5,2.5Zm0-4.25c-.96,0-1.75.78-1.75,1.75s.78,1.75,1.75,1.75,1.75-.78,1.75-1.75-.78-1.75-1.75-1.75Zm0,3.07c-.73,0-1.32-.59-1.32-1.32s.59-1.32,1.32-1.32,1.32.59,1.32,1.32-.59,1.32-1.32,1.32Zm0-1.88c-.31,0-.57.25-.57.57s.25.57.57.57.57-.25.57-.57-.25-.57-.57-.57Z"/>
    </g>
    <g>
      <path class="cls-1" d="m30.23,39.05c-1.17,0-2.12-.95-2.12-2.12s.95-2.12,2.12-2.12,2.12.95,2.12,2.12-.95,2.12-2.12,2.12Zm0-3.07c-.52,0-.94.42-.94.94s.42.94.94.94.94-.42.94-.94-.42-.94-.94-.94Z"/>
      <path class="cls-1" d="m30.23,39.43c-1.38,0-2.5-1.12-2.5-2.5s1.12-2.5,2.5-2.5,2.5,1.12,2.5,2.5-1.12,2.5-2.5,2.5Zm0-4.25c-.96,0-1.75.78-1.75,1.75s.78,1.75,1.75,1.75,1.75-.78,1.75-1.75-.78-1.75-1.75-1.75Zm0,3.07c-.73,0-1.32-.59-1.32-1.32s.59-1.32,1.32-1.32,1.32.59,1.32,1.32-.59,1.32-1.32,1.32Zm0-1.88c-.31,0-.57.25-.57.57s.25.57.57.57.57-.25.57-.57-.25-.57-.57-.57Z"/>
    </g>
    <g>
      <path class="cls-1" d="m35.85,39.05c-1.17,0-2.12-.95-2.12-2.12s.95-2.12,2.12-2.12,2.12.95,2.12,2.12-.95,2.12-2.12,2.12Zm0-3.07c-.52,0-.94.42-.94.94s.42.94.94.94.94-.42.94-.94-.42-.94-.94-.94Z"/>
      <path class="cls-1" d="m35.85,39.43c-1.38,0-2.5-1.12-2.5-2.5s1.12-2.5,2.5-2.5,2.5,1.12,2.5,2.5-1.12,2.5-2.5,2.5Zm0-4.25c-.96,0-1.75.78-1.75,1.75s.78,1.75,1.75,1.75,1.75-.78,1.75-1.75-.78-1.75-1.75-1.75Zm0,3.07c-.73,0-1.32-.59-1.32-1.32s.59-1.32,1.32-1.32,1.32.59,1.32,1.32-.59,1.32-1.32,1.32Zm0-1.88c-.31,0-.57.25-.57.57s.25.57.57.57.57-.25.57-.57-.25-.57-.57-.57Z"/>
    </g>
  </g>
  <g>
    <g>
      <path class="cls-1" d="m24.61,44.44c-1.17,0-2.12-.95-2.12-2.12s.95-2.12,2.12-2.12,2.12.95,2.12,2.12-.95,2.12-2.12,2.12Zm0-3.07c-.52,0-.94.42-.94.94s.42.94.94.94.94-.42.94-.94-.42-.94-.94-.94Z"/>
      <path class="cls-1" d="m24.61,44.81c-1.38,0-2.5-1.12-2.5-2.5s1.12-2.5,2.5-2.5,2.5,1.12,2.5,2.5-1.12,2.5-2.5,2.5Zm0-4.25c-.96,0-1.75.78-1.75,1.75s.78,1.75,1.75,1.75,1.75-.78,1.75-1.75-.78-1.75-1.75-1.75Zm0,3.06c-.73,0-1.32-.59-1.32-1.32s.59-1.32,1.32-1.32,1.32.59,1.32,1.32-.59,1.32-1.32,1.32Zm0-1.88c-.31,0-.57.25-.57.57s.25.57.57.57.57-.25.57-.57-.25-.57-.57-.57Z"/>
    </g>
    <g>
      <path class="cls-1" d="m30.23,44.44c-1.17,0-2.12-.95-2.12-2.12s.95-2.12,2.12-2.12,2.12.95,2.12,2.12-.95,2.12-2.12,2.12Zm0-3.07c-.52,0-.94.42-.94.94s.42.94.94.94.94-.42.94-.94-.42-.94-.94-.94Z"/>
      <path class="cls-1" d="m30.23,44.81c-1.38,0-2.5-1.12-2.5-2.5s1.12-2.5,2.5-2.5,2.5,1.12,2.5,2.5-1.12,2.5-2.5,2.5Zm0-4.25c-.96,0-1.75.78-1.75,1.75s.78,1.75,1.75,1.75,1.75-.78,1.75-1.75-.78-1.75-1.75-1.75Zm0,3.06c-.73,0-1.32-.59-1.32-1.32s.59-1.32,1.32-1.32,1.32.59,1.32,1.32-.59,1.32-1.32,1.32Zm0-1.88c-.31,0-.57.25-.57.57s.25.57.57.57.57-.25.57-.57-.25-.57-.57-.57Z"/>
    </g>
    <g>
      <path class="cls-1" d="m35.85,44.44c-1.17,0-2.12-.95-2.12-2.12s.95-2.12,2.12-2.12,2.12.95,2.12,2.12-.95,2.12-2.12,2.12Zm0-3.07c-.52,0-.94.42-.94.94s.42.94.94.94.94-.42.94-.94-.42-.94-.94-.94Z"/>
      <path class="cls-1" d="m35.85,44.81c-1.38,0-2.5-1.12-2.5-2.5s1.12-2.5,2.5-2.5,2.5,1.12,2.5,2.5-1.12,2.5-2.5,2.5Zm0-4.25c-.96,0-1.75.78-1.75,1.75s.78,1.75,1.75,1.75,1.75-.78,1.75-1.75-.78-1.75-1.75-1.75Zm0,3.06c-.73,0-1.32-.59-1.32-1.32s.59-1.32,1.32-1.32,1.32.59,1.32,1.32-.59,1.32-1.32,1.32Zm0-1.88c-.31,0-.57.25-.57.57s.25.57.57.57.57-.25.57-.57-.25-.57-.57-.57Z"/>
    </g>
  </g>
  <g>
    <g>
      <path class="cls-1" d="m24.61,49.83c-1.17,0-2.12-.95-2.12-2.12s.95-2.12,2.12-2.12,2.12.95,2.12,2.12-.95,2.12-2.12,2.12Zm0-3.07c-.52,0-.94.42-.94.94s.42.94.94.94.94-.42.94-.94-.42-.94-.94-.94Z"/>
      <path class="cls-1" d="m24.61,50.2c-1.38,0-2.5-1.12-2.5-2.5s1.12-2.5,2.5-2.5,2.5,1.12,2.5,2.5-1.12,2.5-2.5,2.5Zm0-4.25c-.96,0-1.75.78-1.75,1.75s.78,1.75,1.75,1.75,1.75-.78,1.75-1.75-.78-1.75-1.75-1.75Zm0,3.07c-.73,0-1.32-.59-1.32-1.32s.59-1.32,1.32-1.32,1.32.59,1.32,1.32-.59,1.32-1.32,1.32Zm0-1.88c-.31,0-.57.25-.57.57s.25.57.57.57.57-.25.57-.57-.25-.57-.57-.57Z"/>
    </g>
    <g>
      <path class="cls-1" d="m30.23,49.83c-1.17,0-2.12-.95-2.12-2.12s.95-2.12,2.12-2.12,2.12.95,2.12,2.12-.95,2.12-2.12,2.12Zm0-3.07c-.52,0-.94.42-.94.94s.42.94.94.94.94-.42.94-.94-.42-.94-.94-.94Z"/>
      <path class="cls-1" d="m30.23,50.2c-1.38,0-2.5-1.12-2.5-2.5s1.12-2.5,2.5-2.5,2.5,1.12,2.5,2.5-1.12,2.5-2.5,2.5Zm0-4.25c-.96,0-1.75.78-1.75,1.75s.78,1.75,1.75,1.75,1.75-.78,1.75-1.75-.78-1.75-1.75-1.75Zm0,3.07c-.73,0-1.32-.59-1.32-1.32s.59-1.32,1.32-1.32,1.32.59,1.32,1.32-.59,1.32-1.32,1.32Zm0-1.88c-.31,0-.57.25-.57.57s.25.57.57.57.57-.25.57-.57-.25-.57-.57-.57Z"/>
    </g>
    <g>
      <path class="cls-1" d="m35.85,49.83c-1.17,0-2.12-.95-2.12-2.12s.95-2.12,2.12-2.12,2.12.95,2.12,2.12-.95,2.12-2.12,2.12Zm0-3.07c-.52,0-.94.42-.94.94s.42.94.94.94.94-.42.94-.94-.42-.94-.94-.94Z"/>
      <path class="cls-1" d="m35.85,50.2c-1.38,0-2.5-1.12-2.5-2.5s1.12-2.5,2.5-2.5,2.5,1.12,2.5,2.5-1.12,2.5-2.5,2.5Zm0-4.25c-.96,0-1.75.78-1.75,1.75s.78,1.75,1.75,1.75,1.75-.78,1.75-1.75-.78-1.75-1.75-1.75Zm0,3.07c-.73,0-1.32-.59-1.32-1.32s.59-1.32,1.32-1.32,1.32.59,1.32,1.32-.59,1.32-1.32,1.32Zm0-1.88c-.31,0-.57.25-.57.57s.25.57.57.57.57-.25.57-.57-.25-.57-.57-.57Z"/>
    </g>
  </g>
  <g>
    <g>
      <path class="cls-1" d="m33.9,18.59c-.11,0-.23-.03-.33-.1-.99-.67-2.14-1.03-3.34-1.03s-2.35.35-3.34,1.03c-.27.18-.64.11-.82-.16-.18-.27-.11-.64.16-.82,1.18-.81,2.57-1.23,4-1.23s2.82.43,4,1.23c.27.18.34.55.16.82-.11.17-.3.26-.49.26Z"/>
      <path class="cls-1" d="m26.56,18.97c-.06,0-.12,0-.18-.02-.25-.05-.48-.19-.62-.41-.15-.21-.2-.47-.15-.73.05-.25.19-.47.41-.62,2.49-1.69,5.94-1.69,8.43,0,.21.15.36.37.41.62.05.25,0,.51-.15.72-.29.43-.92.55-1.34.26-1.85-1.26-4.41-1.26-6.26,0-.16.11-.35.17-.54.17Zm3.67-2.31c-1.36,0-2.67.4-3.79,1.17-.05.03-.08.08-.09.14-.01.06,0,.11.03.16.03.05.08.08.14.09.06.01.11,0,.16-.03,2.1-1.43,5-1.43,7.1,0,.1.07.24.04.3-.06.03-.05.04-.1.03-.16-.01-.06-.04-.11-.09-.14-1.12-.76-2.43-1.17-3.79-1.17Z"/>
    </g>
    <g>
      <path class="cls-1" d="m35.64,27.67c-.11,0-.23-.03-.33-.1-.27-.18-.34-.55-.16-.82.67-.99,1.03-2.14,1.03-3.34s-.35-2.35-1.03-3.34c-.18-.27-.11-.64.16-.82.27-.18.64-.11.82.16.8,1.18,1.23,2.57,1.23,4s-.43,2.82-1.23,4c-.11.17-.3.26-.49.26Z"/>
      <path class="cls-1" d="m35.64,28.05c-.19,0-.38-.06-.54-.17-.44-.3-.56-.9-.26-1.34.63-.92.96-2.01.96-3.13s-.33-2.2-.96-3.13c-.15-.21-.2-.47-.15-.72.05-.25.19-.47.41-.62.44-.3,1.04-.18,1.34.25.85,1.25,1.3,2.71,1.3,4.22s-.45,2.97-1.3,4.21c-.18.26-.48.42-.8.42Zm0-8.53s-.08.01-.12.04c-.05.03-.08.08-.09.14-.01.06,0,.11.03.16.71,1.05,1.09,2.28,1.09,3.55s-.38,2.5-1.09,3.55c-.07.1-.04.23.06.3.1.07.24.04.3-.06.76-1.12,1.17-2.43,1.17-3.79s-.4-2.67-1.17-3.79c-.04-.06-.11-.09-.18-.09Z"/>
    </g>
    <g>
      <path class="cls-1" d="m30.23,30.54c-1.44,0-2.82-.43-4-1.23-.27-.18-.34-.55-.16-.82.18-.27.55-.34.82-.16.99.67,2.14,1.03,3.34,1.03s2.35-.35,3.34-1.03c.27-.18.64-.11.82.16.18.27.11.64-.16.82-1.18.81-2.57,1.23-4,1.23Z"/>
      <path class="cls-1" d="m30.23,30.92c-1.51,0-2.97-.45-4.22-1.29-.44-.3-.56-.9-.26-1.34.15-.21.36-.36.62-.41.25-.05.51,0,.72.15,1.85,1.26,4.41,1.26,6.26,0,.21-.14.47-.2.72-.15.25.05.47.19.62.41.3.44.19,1.04-.26,1.34-1.25.85-2.7,1.29-4.21,1.29Zm-3.67-2.31s-.03,0-.04,0c-.06.01-.11.04-.14.09-.07.1-.04.23.06.3,2.24,1.53,5.35,1.52,7.59,0,.1-.07.12-.2.06-.3-.03-.05-.08-.08-.14-.09-.06-.01-.11,0-.16.03-2.1,1.43-5,1.43-7.1,0-.04-.03-.08-.04-.12-.04Z"/>
    </g>
    <g>
      <path class="cls-1" d="m24.82,27.67c-.19,0-.38-.09-.49-.26-.81-1.18-1.23-2.57-1.23-4s.43-2.82,1.23-4c.18-.27.55-.34.82-.16.27.18.34.55.16.82-.67.99-1.03,2.14-1.03,3.34s.35,2.35,1.03,3.34c.18.27.11.64-.16.82-.1.07-.22.1-.33.1Z"/>
      <path class="cls-1" d="m24.82,28.05c-.32,0-.62-.16-.8-.42-.85-1.25-1.3-2.71-1.3-4.22s.45-2.97,1.3-4.22c.3-.44.9-.55,1.34-.26.21.15.36.37.41.62.05.25,0,.51-.15.72-.63.92-.96,2.01-.96,3.13s.33,2.2.96,3.13c.3.44.18,1.04-.26,1.34-.16.11-.35.17-.54.17Zm0-8.53c-.07,0-.14.03-.18.1-.76,1.12-1.17,2.43-1.17,3.79s.4,2.67,1.17,3.79c.06.08.15.16.3.06.1-.07.12-.2.06-.3-.71-1.05-1.09-2.28-1.09-3.55s.38-2.5,1.09-3.55c.03-.05.04-.1.03-.16-.01-.06-.04-.11-.09-.14-.04-.03-.08-.04-.12-.04Z"/>
    </g>
  </g>
  <g>
    <path class="cls-1" d="m30.23,27.13c-2.05,0-3.71-1.67-3.71-3.71s1.67-3.71,3.71-3.71,3.71,1.67,3.71,3.71-1.67,3.71-3.71,3.71Zm0-6.24c-1.4,0-2.53,1.14-2.53,2.53s1.14,2.53,2.53,2.53,2.53-1.14,2.53-2.53-1.14-2.53-2.53-2.53Z"/>
    <path class="cls-1" d="m30.23,27.5c-2.25,0-4.09-1.83-4.09-4.09s1.83-4.09,4.09-4.09,4.09,1.83,4.09,4.09-1.83,4.09-4.09,4.09Zm0-7.43c-1.84,0-3.34,1.5-3.34,3.34s1.5,3.34,3.34,3.34,3.34-1.5,3.34-3.34-1.5-3.34-3.34-3.34Zm0,6.25c-1.6,0-2.91-1.3-2.91-2.91s1.3-2.91,2.91-2.91,2.91,1.3,2.91,2.91-1.3,2.91-2.91,2.91Zm0-5.06c-1.19,0-2.16.97-2.16,2.16s.97,2.16,2.16,2.16,2.16-.97,2.16-2.16-.97-2.16-2.16-2.16Z"/>
  </g>
</svg>