<?xml version="1.0" encoding="UTF-8"?>
<svg id="Layer_1" data-name="Layer 1" xmlns="http://www.w3.org/2000/svg" viewBox="0 0 60 60">
  <defs>
    <style>
      .cls-1 {
        fill: #37464c;
        stroke-width: 0px;
      }
    </style>
  </defs>
  <path class="cls-1" d="m28,43.17c-.8,0-1.55-.31-2.12-.88l-8.17-8.17c-.57-.57-.88-1.32-.88-2.12s.31-1.55.88-2.12l19.54-19.54c5.76-5.76,15.29-4.16,15.69-4.09.41.07.74.4.81.81.07.4,1.67,9.93-4.09,15.69l-19.54,19.54c-.57.57-1.32.88-2.12.88ZM49.52,8.01c-3.05,0-7.71.59-10.86,3.74l-19.54,19.54c-.19.19-.29.44-.29.71s.1.52.29.71l8.17,8.17c.38.38,1.04.38,1.41,0l19.54-19.54c4.18-4.18,3.86-10.99,3.62-13.21-.54-.06-1.36-.12-2.35-.12Z"/>
  <path class="cls-1" d="m31,54c-.13,0-.26-.02-.38-.08-.37-.15-.62-.52-.62-.92v-13c0-.27.11-.52.29-.71l10-10c.29-.29.72-.37,1.09-.22.37.15.62.52.62.92v13c0,.27-.11.52-.29.71l-10,10c-.19.19-.45.29-.71.29Zm1-13.59v10.17l8-8v-10.17l-8,8Z"/>
  <path class="cls-1" d="m20,30H7c-.4,0-.77-.24-.92-.62-.15-.37-.07-.8.22-1.09l10-10c.19-.19.44-.29.71-.29h13c.4,0,.77.24.92.62.15.37.07.8-.22,1.09l-10,10c-.19.19-.44.29-.71.29Zm-10.59-2h10.17l8-8h-10.17l-8,8Z"/>
  <path class="cls-1" d="m31,34c-2.76,0-5-2.24-5-5s2.24-5,5-5,5,2.24,5,5-2.24,5-5,5Zm0-8c-1.65,0-3,1.35-3,3s1.35,3,3,3,3-1.35,3-3-1.35-3-3-3Z"/>
  <path class="cls-1" d="m41,24c-2.76,0-5-2.24-5-5s2.24-5,5-5,5,2.24,5,5-2.24,5-5,5Zm0-8c-1.65,0-3,1.35-3,3s1.35,3,3,3,3-1.35,3-3-1.35-3-3-3Z"/>
  <path class="cls-1" d="m23,45c-.26,0-.52-.1-.71-.29l-7-7c-.23-.23-.33-.55-.28-.87.05-.32.25-.59.54-.73l4-2c.39-.19.85-.12,1.15.19l5,5c.3.3.38.77.19,1.15l-2,4c-.14.29-.42.49-.73.54-.05,0-.11.01-.16.01Zm-5.31-7.73l5.04,5.04,1.06-2.11-3.98-3.98-2.11,1.06Z"/>
  <path class="cls-1" d="m7,48c-.26,0-.51-.1-.71-.29-.39-.39-.39-1.02,0-1.41l6-6c.39-.39,1.02-.39,1.41,0s.39,1.02,0,1.41l-6,6c-.2.2-.45.29-.71.29Z"/>
  <path class="cls-1" d="m21,54c-.26,0-.51-.1-.71-.29-.39-.39-.39-1.02,0-1.41l6-6c.39-.39,1.02-.39,1.41,0s.39,1.02,0,1.41l-6,6c-.2.2-.45.29-.71.29Z"/>
  <path class="cls-1" d="m7,40c-.26,0-.51-.1-.71-.29-.39-.39-.39-1.02,0-1.41l6-6c.39-.39,1.02-.39,1.41,0s.39,1.02,0,1.41l-6,6c-.2.2-.45.29-.71.29Z"/>
  <path class="cls-1" d="m13,54c-.26,0-.51-.1-.71-.29-.39-.39-.39-1.02,0-1.41l6-6c.39-.39,1.02-.39,1.41,0s.39,1.02,0,1.41l-6,6c-.2.2-.45.29-.71.29Z"/>
</svg>