<?xml version="1.0" encoding="UTF-8"?>
<svg id="Layer_1" data-name="Layer 1" xmlns="http://www.w3.org/2000/svg" viewBox="0 0 60 60">
  <defs>
    <style>
      .cls-1 {
        fill: #37464c;
        stroke-width: 0px;
      }
    </style>
  </defs>
  <path class="cls-1" d="m43,17c-3.31,0-6-2.69-6-6s2.69-6,6-6,6,2.69,6,6-2.69,6-6,6Zm0-10c-2.21,0-4,1.79-4,4s1.79,4,4,4,4-1.79,4-4-1.79-4-4-4Z"/>
  <path class="cls-1" d="m32.6,57c-.65,0-1.3-.17-1.89-.51-1.88-1.08-2.67-3.55-1.76-5.52l3.45-7.37-6.4-5.98c-2.6-2.43-2.97-6.41-.86-9.27l3.94-5.35h-3.77l-3.9,5.2c-.99,1.32-2.88,1.59-4.2.6-1.32-.99-1.59-2.88-.6-4.2l4.2-5.6c.94-1.25,2.44-2,4-2h11.49c3.43,0,6.52,1.91,8.05,4.98l2.51,5.02h7.04c1.52,0,2.83,1.08,3.07,2.5h0c.14.88-.1,1.77-.67,2.44-.57.67-1.4,1.06-2.29,1.06h-8.65c-1.33,0-2.56-.65-3.31-1.75l-3.08-4.53-4.68,6.24,5.6,6.52c1.28,1.48,1.57,3.59.74,5.37l-4.64,9.96c-.45.98-1.26,1.7-2.26,2.02-.37.12-.75.18-1.13.18Zm-7.3-36h3.77c.76,0,1.44.42,1.79,1.1.34.68.27,1.48-.18,2.09l-3.94,5.35c-1.51,2.04-1.24,4.89.61,6.62l6.67,6.23c.48.45.61,1.14.33,1.73l-3.6,7.7c-.47,1.03-.04,2.37.94,2.94.45.26.95.32,1.42.17.46-.15.84-.49,1.06-.96l4.64-9.96c.5-1.07.32-2.33-.44-3.22l-5.6-6.52c-.62-.72-.65-1.75-.08-2.5l4.68-6.24c.39-.52,1-.82,1.65-.8.64.01,1.24.34,1.61.87l3.08,4.53c.37.55.99.87,1.65.87h8.65c.29,0,.57-.13.76-.35.19-.23.27-.52.22-.82h0c-.08-.46-.56-.83-1.09-.83h-7.04c-.76,0-1.45-.42-1.79-1.11l-2.51-5.02c-1.19-2.39-3.59-3.87-6.26-3.87h-11.49c-.94,0-1.84.45-2.4,1.2l-4.2,5.6c-.16.21-.23.48-.19.74s.18.5.39.66c.44.33,1.07.24,1.4-.2l3.9-5.2c.37-.5.97-.8,1.6-.8Z"/>
  <path class="cls-1" d="m19.17,47h-10.17c-2.21,0-4-1.79-4-4s1.79-4,4-4h8.94l7.16-10.62c.31-.46.93-.58,1.39-.27s.58.93.27,1.39l-7.16,10.62c-.37.55-.99.88-1.66.88h-8.94c-1.1,0-2,.9-2,2s.9,2,2,2h10.17c.87,0,1.7-.38,2.27-1.04l3.12-3.61c.36-.42.99-.46,1.41-.1.42.36.46.99.1,1.41l-3.12,3.61c-.95,1.1-2.33,1.73-3.78,1.73Z"/>
  <path class="cls-1" d="m17.88,40.72c-.58,0-1.16-.17-1.66-.51l-9.12-6.15c-1.37-.92-1.73-2.79-.81-4.17l3.35-4.97c.93-1.37,2.79-1.73,4.16-.81l9.12,6.15c.91.61,1.41,1.68,1.3,2.78l-1.99-.19c.04-.37-.13-.73-.43-.93l-9.12-6.15c-.46-.31-1.08-.19-1.39.27l-3.35,4.97c-.15.22-.2.49-.15.75s.2.49.42.64l9.12,6.15c.3.2.69.22,1.02.05l.92,1.77c-.44.23-.92.34-1.4.34Z"/>
</svg>