<?xml version="1.0" encoding="UTF-8"?>
<svg id="Layer_1" data-name="Layer 1" xmlns="http://www.w3.org/2000/svg" viewBox="0 0 60 60">
  <defs>
    <style>
      .cls-1 {
        fill: #37464c;
        stroke-width: 0px;
      }
    </style>
  </defs>
  <g>
    <path class="cls-1" d="m19.68,54.93h-2.15c-1.19,0-2.16-.97-2.16-2.17v-2.16c0-.31.25-.57.57-.57s.57.25.57.57v2.16c0,.57.46,1.04,1.03,1.04h2.15c.57,0,1.03-.47,1.03-1.04v-2.16c0-.31.25-.57.57-.57s.57.25.57.57v2.16c0,1.2-.97,2.17-2.16,2.17Z"/>
    <path class="cls-1" d="m19.68,55.18h-2.15c-1.33,0-2.41-1.09-2.41-2.42v-2.16c0-.45.37-.82.82-.82s.82.37.82.82v2.16c0,.44.35.79.78.79h2.15c.43,0,.78-.35.78-.79v-2.16c0-.45.37-.82.82-.82s.82.37.82.82v2.16c0,1.33-1.08,2.42-2.41,2.42Zm-3.75-4.9c-.17,0-.32.14-.32.32v2.16c0,1.06.86,1.92,1.91,1.92h2.15c1.05,0,1.91-.86,1.91-1.92v-2.16c0-.17-.14-.32-.32-.32s-.32.14-.32.32v2.16c0,.71-.57,1.29-1.28,1.29h-2.15c-.71,0-1.28-.58-1.28-1.29v-2.16c0-.17-.14-.32-.32-.32Z"/>
  </g>
  <g>
    <path class="cls-1" d="m42.91,54.93h-2.15c-1.19,0-2.16-.97-2.16-2.17v-2.16c0-.31.25-.57.57-.57s.57.25.57.57v2.16c0,.57.46,1.04,1.03,1.04h2.15c.57,0,1.03-.47,1.03-1.04v-2.16c0-.31.25-.57.57-.57s.57.25.57.57v2.16c0,1.2-.97,2.17-2.16,2.17Z"/>
    <path class="cls-1" d="m42.91,55.18h-2.15c-1.33,0-2.41-1.09-2.41-2.42v-2.16c0-.45.37-.82.82-.82s.82.37.82.82v2.16c0,.44.35.79.78.79h2.15c.43,0,.78-.35.78-.79v-2.16c0-.45.37-.82.82-.82s.82.37.82.82v2.16c0,1.33-1.08,2.42-2.41,2.42Zm-3.75-4.9c-.17,0-.32.14-.32.32v2.16c0,1.06.86,1.92,1.91,1.92h2.15c1.05,0,1.91-.86,1.91-1.92v-2.16c0-.17-.14-.32-.32-.32s-.32.14-.32.32v2.16c0,.71-.57,1.29-1.28,1.29h-2.15c-.71,0-1.28-.58-1.28-1.29v-2.16c0-.17-.14-.32-.32-.32Z"/>
  </g>
  <g>
    <path class="cls-1" d="m44.81,50.87H15.63c-4.39,0-7.96-3.57-7.96-7.96V13.53c0-4.39,3.57-7.96,7.96-7.96h29.18c4.39,0,7.96,3.57,7.96,7.96v29.39c0,4.39-3.57,7.96-7.96,7.96ZM15.63,6.7c-3.76,0-6.83,3.06-6.83,6.83v29.39c0,3.76,3.06,6.83,6.83,6.83h29.18c3.76,0,6.83-3.06,6.83-6.83V13.53c0-3.76-3.06-6.83-6.83-6.83H15.63Z"/>
    <path class="cls-1" d="m44.81,51.12H15.63c-4.53,0-8.21-3.68-8.21-8.21V13.53c0-4.53,3.68-8.21,8.21-8.21h29.18c4.53,0,8.21,3.68,8.21,8.21v29.38c0,4.53-3.68,8.21-8.21,8.21ZM15.63,5.82c-4.25,0-7.71,3.46-7.71,7.71v29.38c0,4.25,3.46,7.71,7.71,7.71h29.18c4.25,0,7.71-3.46,7.71-7.71V13.53c0-4.25-3.46-7.71-7.71-7.71H15.63Zm29.18,44.17H15.63c-3.9,0-7.08-3.17-7.08-7.08V13.53c0-3.9,3.17-7.08,7.08-7.08h29.18c3.9,0,7.08,3.17,7.08,7.08v29.38c0,3.9-3.17,7.08-7.08,7.08ZM15.63,6.95c-3.63,0-6.58,2.95-6.58,6.58v29.38c0,3.63,2.95,6.58,6.58,6.58h29.18c3.63,0,6.58-2.95,6.58-6.58V13.53c0-3.63-2.95-6.58-6.58-6.58H15.63Z"/>
  </g>
  <g>
    <path class="cls-1" d="m44.16,47.11h-27.88c-2.68,0-4.86-2.19-4.86-4.88v-1.51c0-.31.25-.57.57-.57s.57.25.57.57v1.51c0,2.07,1.67,3.75,3.73,3.75h27.88c2.06,0,3.73-1.68,3.73-3.75V14.22c0-2.07-1.67-3.75-3.73-3.75h-27.88c-2.06,0-3.73,1.68-3.73,3.75v1.37c0,.31-.25.57-.57.57s-.57-.25-.57-.57v-1.37c0-2.69,2.18-4.88,4.86-4.88h27.88c2.68,0,4.86,2.19,4.86,4.88v28.01c0,2.69-2.18,4.88-4.86,4.88Z"/>
    <path class="cls-1" d="m44.16,47.36h-27.88c-2.82,0-5.11-2.3-5.11-5.13v-1.51c0-.45.37-.82.82-.82s.82.37.82.82v1.51c0,1.93,1.56,3.5,3.48,3.5h27.88c1.92,0,3.48-1.57,3.48-3.5V14.22c0-1.93-1.56-3.5-3.48-3.5h-27.88c-1.92,0-3.48,1.57-3.48,3.5v1.37c0,.45-.37.82-.82.82s-.82-.37-.82-.82v-1.37c0-2.83,2.29-5.13,5.11-5.13h27.88c2.82,0,5.11,2.3,5.11,5.13v28.01c0,2.83-2.29,5.13-5.11,5.13Zm-32.17-6.96c-.17,0-.32.14-.32.32v1.51c0,2.56,2.07,4.63,4.61,4.63h27.88c2.54,0,4.61-2.08,4.61-4.63V14.22c0-2.55-2.07-4.63-4.61-4.63h-27.88c-2.54,0-4.61,2.08-4.61,4.63v1.37c0,.17.14.32.32.32s.32-.14.32-.32v-1.37c0-2.21,1.79-4,3.98-4h27.88c2.2,0,3.98,1.79,3.98,4v28.01c0,2.21-1.79,4-3.98,4h-27.88c-2.2,0-3.98-1.79-3.98-4v-1.51c0-.17-.14-.32-.32-.32Z"/>
  </g>
  <g>
    <path class="cls-1" d="m11.98,37.29c-.31,0-.57-.25-.57-.57v-16.99c0-.31.25-.57.57-.57s.57.25.57.57v16.99c0,.31-.25.57-.57.57Z"/>
    <path class="cls-1" d="m11.98,37.54c-.45,0-.82-.37-.82-.82v-16.99c0-.45.37-.82.82-.82s.82.37.82.82v16.99c0,.45-.37.82-.82.82Zm0-18.12c-.17,0-.32.14-.32.32v16.99c0,.17.14.32.32.32s.32-.14.32-.32v-16.99c0-.17-.14-.32-.32-.32Z"/>
  </g>
  <g>
    <g>
      <path class="cls-1" d="m31.49,25.59c-.31,0-.57-.25-.57-.57v-3.95c0-.39-.32-.72-.71-.72s-.71.32-.71.72v3.95c0,.31-.25.57-.57.57s-.57-.25-.57-.57v-3.95c0-1.02.83-1.85,1.84-1.85s1.84.83,1.84,1.85v3.95c0,.31-.25.57-.57.57Z"/>
      <path class="cls-1" d="m31.49,25.84c-.45,0-.82-.37-.82-.82v-3.95c0-.26-.21-.46-.46-.46s-.46.21-.46.46v3.95c0,.45-.37.82-.82.82s-.82-.37-.82-.82v-3.95c0-1.16.94-2.1,2.09-2.1s2.09.94,2.09,2.1v3.95c0,.45-.37.82-.82.82Zm-1.27-5.73c.53,0,.96.43.96.96v3.95c0,.17.14.32.32.32s.32-.14.32-.32v-3.95c0-.88-.71-1.6-1.59-1.6s-1.59.72-1.59,1.6v3.95c0,.17.14.32.32.32s.32-.14.32-.32v-3.95c0-.53.43-.96.96-.96Z"/>
    </g>
    <g>
      <path class="cls-1" d="m24.16,34.15c-.11,0-.23-.01-.34-.03-.49-.09-.91-.37-1.19-.78-.57-.85-.36-1.99.46-2.57l3.19-2.22c.26-.18.61-.12.79.14.18.26.12.61-.14.79l-3.19,2.22c-.32.22-.4.67-.18.99.12.17.28.28.47.31.19.03.38,0,.53-.11l2.88-1.9c.26-.17.61-.1.78.16.17.26.1.61-.16.78l-2.87,1.89c-.3.21-.66.32-1.03.32Z"/>
      <path class="cls-1" d="m24.16,34.4c-.13,0-.26-.01-.39-.04-.56-.1-1.04-.42-1.35-.89-.65-.95-.41-2.26.53-2.91l3.19-2.22c.37-.26.88-.17,1.14.2.12.18.17.4.13.61-.04.21-.16.4-.34.53l-3.19,2.22c-.21.15-.26.44-.12.65.08.11.18.18.31.21.12.03.24,0,.34-.07l2.88-1.91c.18-.12.4-.16.61-.12.21.04.4.17.52.35.25.38.14.88-.23,1.13l-2.87,1.9c-.34.24-.75.36-1.17.36Zm2.45-5.7c-.06,0-.13.02-.18.06l-3.19,2.22c-.71.5-.89,1.49-.4,2.22.24.36.6.6,1.03.67.42.08.85-.01,1.19-.25l2.87-1.9c.15-.1.19-.29.09-.44-.05-.07-.12-.12-.2-.14-.08-.02-.17,0-.24.05l-2.88,1.9c-.21.14-.46.2-.71.15-.26-.05-.47-.19-.63-.42-.3-.44-.18-1.04.25-1.34l3.19-2.22c.14-.1.18-.3.08-.44-.06-.09-.16-.13-.26-.13Z"/>
    </g>
    <g>
      <path class="cls-1" d="m36.28,34.15c-.37,0-.73-.11-1.05-.33l-2.85-1.89c-.26-.17-.33-.52-.16-.78.17-.26.52-.33.78-.16l2.87,1.89c.17.12.36.16.54.12.19-.03.35-.14.46-.3.23-.34.15-.78-.17-1.01l-3.19-2.22c-.26-.18-.32-.53-.14-.79.18-.26.53-.32.79-.14l3.19,2.22c.83.57,1.04,1.72.47,2.56-.29.43-.71.7-1.2.79-.11.02-.23.03-.34.03Z"/>
      <path class="cls-1" d="m36.28,34.4c-.42,0-.83-.13-1.19-.38l-2.85-1.88c-.38-.25-.48-.76-.23-1.13.12-.18.3-.31.52-.35.21-.04.43,0,.61.12l2.86,1.89c.12.08.23.11.36.09.12-.02.23-.09.3-.19.15-.22.1-.51-.11-.66l-3.19-2.22c-.18-.12-.3-.31-.34-.53-.04-.21,0-.43.13-.61.26-.37.77-.46,1.14-.2l3.19,2.22c.94.65,1.18,1.95.54,2.9-.32.48-.8.79-1.36.9-.13.02-.26.04-.39.04Zm-3.59-3.25s-.04,0-.06,0c-.08.02-.15.07-.2.14-.1.15-.06.34.09.44l2.85,1.89c.36.25.78.34,1.2.26.43-.08.78-.32,1.03-.69.49-.72.31-1.71-.41-2.21l-3.19-2.22c-.14-.1-.34-.06-.44.08-.1.14-.06.34.08.44l3.19,2.22c.43.3.54.91.24,1.35-.15.21-.36.36-.62.41-.26.05-.51,0-.73-.16l-2.86-1.89c-.05-.04-.11-.05-.17-.05Z"/>
    </g>
  </g>
  <g>
    <path class="cls-1" d="m30.22,32.48c-2.25,0-4.08-1.85-4.08-4.13s1.83-4.13,4.08-4.13,4.08,1.85,4.08,4.13-1.83,4.13-4.08,4.13Zm0-7.13c-1.63,0-2.95,1.34-2.95,3s1.32,3,2.95,3,2.95-1.34,2.95-3-1.32-3-2.95-3Z"/>
    <path class="cls-1" d="m30.22,32.73c-2.39,0-4.33-1.96-4.33-4.38s1.94-4.38,4.33-4.38,4.33,1.96,4.33,4.38-1.94,4.38-4.33,4.38Zm0-8.26c-2.11,0-3.83,1.74-3.83,3.88s1.72,3.88,3.83,3.88,3.83-1.74,3.83-3.88-1.72-3.88-3.83-3.88Zm0,7.13c-1.76,0-3.2-1.46-3.2-3.25s1.43-3.25,3.2-3.25,3.2,1.46,3.2,3.25-1.43,3.25-3.2,3.25Zm0-6c-1.49,0-2.7,1.23-2.7,2.75s1.21,2.75,2.7,2.75,2.7-1.23,2.7-2.75-1.21-2.75-2.7-2.75Z"/>
  </g>
  <g>
    <g>
      <path class="cls-1" d="m13.73,19.92h-3.48c-.31,0-.57-.25-.57-.57v-3.5c0-.31.25-.57.57-.57h3.48c.31,0,.57.25.57.57v3.5c0,.31-.25.57-.57.57Zm-2.92-1.13h2.35v-2.37h-2.35v2.37Z"/>
      <path class="cls-1" d="m13.73,20.17h-3.48c-.45,0-.82-.37-.82-.82v-3.5c0-.45.37-.82.82-.82h3.48c.45,0,.82.37.82.82v3.5c0,.45-.37.82-.82.82Zm-3.48-4.63c-.17,0-.32.14-.32.32v3.5c0,.17.14.32.32.32h3.48c.17,0,.32-.14.32-.32v-3.5c0-.17-.14-.32-.32-.32h-3.48Zm3.17,3.5h-2.85v-2.87h2.85v2.87Zm-2.35-.5h1.85v-1.87h-1.85v1.87Z"/>
    </g>
    <g>
      <path class="cls-1" d="m13.73,41.16h-3.48c-.31,0-.57-.25-.57-.57v-3.5c0-.31.25-.57.57-.57h3.48c.31,0,.57.25.57.57v3.5c0,.31-.25.57-.57.57Zm-2.92-1.13h2.35v-2.37h-2.35v2.37Z"/>
      <path class="cls-1" d="m13.73,41.41h-3.48c-.45,0-.82-.37-.82-.82v-3.5c0-.45.37-.82.82-.82h3.48c.45,0,.82.37.82.82v3.5c0,.45-.37.82-.82.82Zm-3.48-4.63c-.17,0-.32.14-.32.32v3.5c0,.17.14.32.32.32h3.48c.17,0,.32-.14.32-.32v-3.5c0-.17-.14-.32-.32-.32h-3.48Zm3.17,3.5h-2.85v-2.87h2.85v2.87Zm-2.35-.5h1.85v-1.87h-1.85v1.87Z"/>
    </g>
  </g>
</svg>