<?xml version="1.0" encoding="UTF-8"?>
<svg id="Layer_1" data-name="Layer 1" xmlns="http://www.w3.org/2000/svg" viewBox="0 0 92.854 93.453">
  <defs>
    <style>
      .cls-1 {
        fill: #37464c;
        stroke-width: 0px;
      }
    </style>
  </defs>
  <path class="cls-1" d="M46.904,68.35c-.065.009-.12.017-.213.03,0,0,.101-.014.213-.03Z"/>
  <path class="cls-1" d="M90.493,78.494l-18.513-18.513c4.526-7.095,6.836-15.735,5.909-24.945C76.018,16.456,60.831,1.603,42.216.126,17.556-1.83-2.842,19.278.325,44.146c2.23,17.505,16.333,31.518,33.85,33.65,9.209,1.121,17.892-.989,25.068-5.344l18.647,18.647c1.574,1.574,3.66,2.355,5.789,2.355,2.3,0,4.65-.911,6.454-2.717,1.667-1.666,2.631-3.845,2.715-6.135.085-2.335-.752-4.505-2.355-6.108ZM35.384,74.613c-16.715-1.672-30.234-15.192-31.904-31.907C1.222,20.126,20.127,1.222,42.707,3.479c16.716,1.671,30.235,15.191,31.905,31.907,2.256,22.581-16.649,41.485-39.228,39.227ZM87.802,88.406c-2.19,2.192-5.589,2.355-7.582.362l-18.187-18.187c3.039-2.221,5.744-4.869,8.03-7.856l18.099,18.099c.948.948,1.442,2.247,1.391,3.657-.052,1.455-.674,2.849-1.751,3.925Z"/>
  <path class="cls-1" d="M40.593,11.932c.91,0,1.648-.738,1.648-1.648s-.738-1.648-1.648-1.648c-16.768,0-30.41,13.642-30.41,30.41,0,.91.738,1.648,1.648,1.648s1.648-.738,1.648-1.648c0-14.95,12.164-27.114,27.114-27.114Z"/>
  <path class="cls-1" d="M60.145,22.142h-14.066c-.91,0-1.648.738-1.648,1.648v8.967h-12.419c-.91,0-1.648.738-1.648,1.648v9.186h-12.609c-.91,0-1.648.738-1.648,1.648v11.563c0,.911.738,1.648,1.648,1.648s1.648-.737,1.648-1.648v-9.915h10.961v19.601c0,.911.738,1.648,1.648,1.648s1.648-.737,1.648-1.648v-30.435h10.771v30.435c0,.911.738,1.648,1.648,1.648s1.648-.737,1.648-1.648V25.438h10.77v32.66c0,.911.737,1.648,1.648,1.648s1.648-.737,1.648-1.648V23.79c0-.91-.737-1.648-1.648-1.648Z"/>
</svg>