<?xml version="1.0" encoding="UTF-8"?>
<svg id="Layer_1" data-name="Layer 1" xmlns="http://www.w3.org/2000/svg" viewBox="0 0 60 60">
  <defs>
    <style>
      .cls-1 {
        fill: #37464c;
        stroke-width: 0px;
      }
    </style>
  </defs>
  <path class="cls-1" d="m30,50c-8.82,0-16-7.18-16-16s7.18-16,16-16,16,7.18,16,16-7.18,16-16,16Zm0-30c-7.72,0-14,6.28-14,14s6.28,14,14,14,14-6.28,14-14-6.28-14-14-14Z"/>
  <path class="cls-1" d="m47,56c-.27,0-.52-.11-.71-.29l-8.58-8.58,1.41-1.41,8.27,8.27c1.34-.17,2.41-1.24,2.59-2.59l-8.27-8.27,1.41-1.41,8.58,8.58c.19.19.29.44.29.71,0,2.76-2.24,5-5,5Z"/>
  <path class="cls-1" d="m30,35c-3.31,0-6-2.69-6-6s2.69-6,6-6,6,2.69,6,6-2.69,6-6,6Zm0-10c-2.21,0-4,1.79-4,4s1.79,4,4,4,4-1.79,4-4-1.79-4-4-4Z"/>
  <path class="cls-1" d="m30,42c-.26,0-.51-.1-.71-.29l-4.56-4.56c-.63.22-1.59.55-2.01.69-.52.18-1.73.74-1.73,2.16,0,.55-.45,1-1,1s-1-.45-1-1c0-1.86,1.18-3.41,3.09-4.06.65-.22,2.58-.89,2.58-.89.36-.12.76-.03,1.03.24l4.29,4.29,4.29-4.29c.27-.27.67-.36,1.03-.24,0,0,1.94.67,2.58.89,1.91.64,3.09,2.2,3.09,4.06,0,.55-.45,1-1,1s-1-.45-1-1c0-1.42-1.21-1.99-1.73-2.16-.42-.14-1.38-.47-2.01-.69l-4.56,4.56c-.2.2-.45.29-.71.29Z"/>
  <path class="cls-1" d="m13,24c-3.31,0-6-2.69-6-6s2.69-6,6-6,6,2.69,6,6-2.69,6-6,6Zm0-10c-2.21,0-4,1.79-4,4s1.79,4,4,4,4-1.79,4-4-1.79-4-4-4Z"/>
  <path class="cls-1" d="m47,24c-3.31,0-6-2.69-6-6s2.69-6,6-6,6,2.69,6,6-2.69,6-6,6Zm0-10c-2.21,0-4,1.79-4,4s1.79,4,4,4,4-1.79,4-4-1.79-4-4-4Z"/>
  <path class="cls-1" d="m11,36h-5c-2.21,0-4-1.79-4-4v-3c0-1.86,1.18-3.41,3.09-4.06.65-.22,2.58-.89,2.58-.89.36-.12.76-.03,1.03.24l4,4c.39.39.39,1.02,0,1.41s-1.02.39-1.41,0l-3.56-3.56c-.63.22-1.59.55-2.01.69-.52.18-1.73.74-1.73,2.16v3c0,1.1.9,2,2,2h5c.55,0,1,.45,1,1s-.45,1-1,1Z"/>
  <path class="cls-1" d="m54,36h-5c-.55,0-1-.45-1-1s.45-1,1-1h5c1.1,0,2-.9,2-2v-3c0-1.42-1.21-1.99-1.73-2.16-.42-.14-1.38-.47-2.01-.69l-3.56,3.56c-.39.39-1.02.39-1.41,0s-.39-1.02,0-1.41l4-4c.27-.27.67-.36,1.03-.24,0,0,1.94.67,2.58.89,1.91.64,3.09,2.2,3.09,4.06v3c0,2.21-1.79,4-4,4Z"/>
</svg>