<?xml version="1.0" encoding="UTF-8"?>
<svg id="Layer_1" data-name="Layer 1" xmlns="http://www.w3.org/2000/svg" viewBox="0 0 60 60">
  <defs>
    <style>
      .cls-1 {
        fill: #37464c;
        stroke-width: 0px;
      }
    </style>
  </defs>
  <path class="cls-1" d="m30,58c-1.65,0-3-1.35-3-3s1.35-3,3-3,3,1.35,3,3-1.35,3-3,3Zm0-4c-.55,0-1,.45-1,1s.45,1,1,1,1-.45,1-1-.45-1-1-1Z"/>
  <path class="cls-1" d="m45,54c-1.65,0-3-1.35-3-3s1.35-3,3-3,3,1.35,3,3-1.35,3-3,3Zm0-4c-.55,0-1,.45-1,1s.45,1,1,1,1-.45,1-1-.45-1-1-1Z"/>
  <path class="cls-1" d="m15,54c-1.65,0-3-1.35-3-3s1.35-3,3-3,3,1.35,3,3-1.35,3-3,3Zm0-4c-.55,0-1,.45-1,1s.45,1,1,1,1-.45,1-1-.45-1-1-1Z"/>
  <path class="cls-1" d="m55,32c-1.65,0-3-1.35-3-3s1.35-3,3-3,3,1.35,3,3-1.35,3-3,3Zm0-4c-.55,0-1,.45-1,1s.45,1,1,1,1-.45,1-1-.45-1-1-1Z"/>
  <path class="cls-1" d="m51,46c-1.65,0-3-1.35-3-3s1.35-3,3-3,3,1.35,3,3-1.35,3-3,3Zm0-4c-.55,0-1,.45-1,1s.45,1,1,1,1-.45,1-1-.45-1-1-1Z"/>
  <path class="cls-1" d="m51,18c-1.65,0-3-1.35-3-3s1.35-3,3-3,3,1.35,3,3-1.35,3-3,3Zm0-4c-.55,0-1,.45-1,1s.45,1,1,1,1-.45,1-1-.45-1-1-1Z"/>
  <path class="cls-1" d="m51,42c-.55,0-1-.45-1-1v-5h-3c-.55,0-1-.45-1-1s.45-1,1-1h4c.55,0,1,.45,1,1v6c0,.55-.45,1-1,1Z"/>
  <path class="cls-1" d="m5,32c-1.65,0-3-1.35-3-3s1.35-3,3-3,3,1.35,3,3-1.35,3-3,3Zm0-4c-.55,0-1,.45-1,1s.45,1,1,1,1-.45,1-1-.45-1-1-1Z"/>
  <path class="cls-1" d="m9,46c-1.65,0-3-1.35-3-3s1.35-3,3-3,3,1.35,3,3-1.35,3-3,3Zm0-4c-.55,0-1,.45-1,1s.45,1,1,1,1-.45,1-1-.45-1-1-1Z"/>
  <path class="cls-1" d="m30,32c-1.65,0-3-1.35-3-3s1.35-3,3-3,3,1.35,3,3-1.35,3-3,3Zm0-4c-.55,0-1,.45-1,1s.45,1,1,1,1-.45,1-1-.45-1-1-1Z"/>
  <path class="cls-1" d="m9,18c-1.65,0-3-1.35-3-3s1.35-3,3-3,3,1.35,3,3-1.35,3-3,3Zm0-4c-.55,0-1,.45-1,1s.45,1,1,1,1-.45,1-1-.45-1-1-1Z"/>
  <path class="cls-1" d="m13,24h-4c-.55,0-1-.45-1-1v-6c0-.55.45-1,1-1s1,.45,1,1v5h3c.55,0,1,.45,1,1s-.45,1-1,1Z"/>
  <path class="cls-1" d="m41,42h-7c-.55,0-1-.45-1-1s.45-1,1-1h7c.55,0,1-.45,1-1v-10c0-.55.45-1,1-1h10c.55,0,1,.45,1,1s-.45,1-1,1h-9v9c0,1.65-1.35,3-3,3Z"/>
  <path class="cls-1" d="m43,52h-6c-.55,0-1-.45-1-1v-9c0-.55.45-1,1-1s1,.45,1,1v8h5c.55,0,1,.45,1,1s-.45,1-1,1Z"/>
  <path class="cls-1" d="m17,30H7c-.55,0-1-.45-1-1s.45-1,1-1h9v-7c0-1.65,1.35-3,3-3h22c1.65,0,3,1.35,3,3v4c0,.55-.45,1-1,1s-1-.45-1-1v-4c0-.55-.45-1-1-1h-22c-.55,0-1,.45-1,1v8c0,.55-.45,1-1,1Z"/>
  <path class="cls-1" d="m51,24h-8c-.55,0-1-.45-1-1s.45-1,1-1h7v-5c0-.55.45-1,1-1s1,.45,1,1v6c0,.55-.45,1-1,1Z"/>
  <path class="cls-1" d="m30,54c-.55,0-1-.45-1-1v-11h-10c-1.65,0-3-1.35-3-3v-6c0-.55.45-1,1-1s1,.45,1,1v6c0,.55.45,1,1,1h11c.55,0,1,.45,1,1v12c0,.55-.45,1-1,1Z"/>
  <path class="cls-1" d="m9,42c-.55,0-1-.45-1-1v-6c0-.55.45-1,1-1h8c.55,0,1,.45,1,1s-.45,1-1,1h-7v5c0,.55-.45,1-1,1Z"/>
  <path class="cls-1" d="m23,52h-6c-.55,0-1-.45-1-1s.45-1,1-1h5v-5c0-.55.45-1,1-1s1,.45,1,1v6c0,.55-.45,1-1,1Z"/>
  <path class="cls-1" d="m38,20c-.55,0-1-.45-1-1v-8c0-3.86-3.14-7-7-7s-7,3.14-7,7v8c0,.55-.45,1-1,1s-1-.45-1-1v-8c0-4.96,4.04-9,9-9s9,4.04,9,9v8c0,.55-.45,1-1,1Z"/>
  <path class="cls-1" d="m30,36c-.55,0-1-.45-1-1v-4c0-.55.45-1,1-1s1,.45,1,1v4c0,.55-.45,1-1,1Z"/>
</svg>