<?xml version="1.0" encoding="UTF-8"?>
<svg id="Layer_1" data-name="Layer 1" xmlns="http://www.w3.org/2000/svg" viewBox="0 0 60 60">
  <defs>
    <style>
      .cls-1 {
        fill: #37464c;
        stroke-width: 0px;
      }
    </style>
  </defs>
  <path class="cls-1" d="m36.68,45.08c-.26,0-.51-.1-.71-.29l-7.11-7.11-7.11,7.11c-.39.39-1.02.39-1.41,0l-5.58-5.58c-.19-.19-.29-.44-.29-.71s.11-.52.29-.71l7.11-7.11-7.11-7.11c-.19-.19-.29-.44-.29-.71s.11-.52.29-.71l5.58-5.58c.39-.39,1.02-.39,1.41,0l7.11,7.11,7.11-7.11c.38-.38,1.04-.38,1.41,0l5.58,5.58c.39.39.39,1.02,0,1.41l-7.11,7.11,7.11,7.11c.39.39.39,1.02,0,1.41l-5.58,5.58c-.2.2-.45.29-.71.29Zm-19.81-6.58l4.17,4.17,7.11-7.11c.39-.39,1.02-.39,1.41,0l7.11,7.11,4.17-4.17-7.11-7.11c-.39-.39-.39-1.02,0-1.41l7.11-7.11-4.17-4.17-7.11,7.11c-.38.38-1.04.38-1.41,0l-7.11-7.11-4.17,4.17,7.11,7.11c.19.19.29.44.29.71s-.11.52-.29.71l-7.11,7.11Z"/>
  <path class="cls-1" d="m28.86,57.21c-14.63,0-26.53-11.9-26.53-26.53S14.23,4.15,28.86,4.15s26.53,11.9,26.53,26.53-11.9,26.53-26.53,26.53Zm0-51.06c-13.53,0-24.53,11-24.53,24.53s11,24.53,24.53,24.53,24.53-11,24.53-24.53S42.38,6.15,28.86,6.15Z"/>
</svg>