<?xml version="1.0" encoding="UTF-8"?>
<svg id="Layer_1" data-name="Layer 1" xmlns="http://www.w3.org/2000/svg" viewBox="0 0 60 60">
  <defs>
    <style>
      .cls-1 {
        fill: #424242;
        stroke-width: 0px;
      }
    </style>
  </defs>
  <g>
    <path class="cls-1" d="m8.93,56.68h-1.5v-13.16c0-2.62,1.54-5.02,3.91-6.11l6.29-2.9.63,1.36-6.29,2.9c-1.85.85-3.04,2.72-3.04,4.75v13.16Z"/>
    <path class="cls-1" d="m53.52,56.68h-1.5v-13.16c0-2.03-1.19-3.9-3.04-4.75l-3.08-1.42.63-1.36,3.08,1.42c2.38,1.1,3.91,3.5,3.91,6.11v13.16Z"/>
  </g>
  <g>
    <path class="cls-1" d="m41.11,20.56l-1.44-.44c.53-1.74.81-3.56.81-5.26,0-.28-.02-.62-.03-.9-.01-.23-.02-.42-.02-.53h1.5c0,.09,0,.26.02.45.02.31.04.68.04.98,0,1.84-.3,3.81-.88,5.7Z"/>
    <path class="cls-1" d="m20.95,23.4c-1.27-2.69-1.97-5.71-1.97-8.53v-.28c0-.21,0-.42,0-.63l1.5.08c0,.17,0,.35,0,.52v.31c0,2.6.65,5.4,1.83,7.89l-1.36.64Z"/>
    <path class="cls-1" d="m21.03,14.77c-.44,0-.89,0-1.34-.03l-.73-.03v-1.01c.02-1.95.04-6.44,4.02-7.76,1.62-3.75,6.72-4.06,9.55-3.63h0c5.8.88,9.14,4.81,9.39,11.09l.04.91-.9-.14c-2.37-.36-5.52-1.99-6.93-3.14-2.82,2.35-7.68,3.74-13.11,3.74Zm-.55-1.5c5.57.09,10.66-1.36,13.15-3.79l.6-.59.52.66c.46.59,3.23,2.28,5.62,2.94-.5-4.97-3.27-7.97-8.05-8.69-2.3-.35-6.94-.16-8.06,3.01l-.13.37-.38.1c-2.71.72-3.21,3.26-3.26,5.99Z"/>
  </g>
  <path class="cls-1" d="m32.15,41.25c-.67,0-1.4-.06-2.22-.17l.2-1.49c3.12.43,4.4.1,7.25-1.81,1.76-1.18,5.08-1.62,7.11-1.77-1.02-1.27-2.17-3.47-1.49-6.51.7-3.17.26-6.81-.34-8.77-.34.06-.79.16-1.26.27-1.78.41-4.21.96-6.58.51-2.38-.45-4.32.26-7,1.24-.48.18-.98.36-1.51.55-2.56.9-4.13.65-6.13.32-.39-.06-.81-.13-1.26-.19-.19,1.93,0,4.45.58,7.53l-1.47.28c-.68-3.65-.84-6.59-.49-8.77l.12-.71.71.08c.77.09,1.44.2,2.06.3,1.93.31,3.2.52,5.39-.26.52-.18,1.02-.37,1.5-.54,2.79-1.03,5-1.84,7.8-1.31,2.06.39,4.32-.12,5.96-.5.96-.22,1.65-.38,2.17-.34l.48.03.17.45c.69,1.81,1.46,6.17.58,10.16-.88,3.95,2.06,6.14,2.19,6.24l1.81,1.32-2.23.04c-1.6.03-6.17.37-8.01,1.61-2.38,1.6-3.93,2.23-6.06,2.23Z"/>
  <g>
    <path class="cls-1" d="m17.56,46.77l-1.42-.48c.66-1.94.72-3.01,1-8.12v-.26c.04-.46.09-3.87-.01-5.39-.08-1.08.67-2.03,1.74-2.2.56-.09,1.13.05,1.59.39.46.35.75.85.81,1.42l.38,3.67-1.49.16-.38-3.66c-.02-.15-.1-.29-.23-.39-.13-.1-.29-.14-.44-.11-.3.05-.51.31-.49.61.12,1.61.06,5.08.03,5.58v.26c-.3,5.16-.37,6.39-1.1,8.52Z"/>
    <path class="cls-1" d="m24.81,49.55l-1.25-.82,4.6-7c.98-1.49,2.48-4.39,4.22-8.15l.07-.15s.18-.5-.12-.66c-.09-.05-.21-.1-.29-.06-.08.04-.18.15-.27.31h0s-1.32-.71-1.32-.71h0s.92-1.7.92-1.7c.13-.24.04-.53-.2-.66-.12-.06-.25-.08-.37-.04-.12.04-.23.12-.29.23h0s-1.32-.71-1.32-.71c0,0,0,0,0,0l.8-1.48c.06-.12.08-.25.04-.37-.02-.08-.09-.23-.27-.31-.22-.1-.53.04-.67.3l-.76,1.4h0s-1.32-.71-1.32-.71c.06-.11.08-.25.04-.37-.02-.08-.09-.23-.27-.31-.22-.1-.53.04-.67.3l-4.53,8.36-1.32-.71,4.53-8.36c.51-.95,1.65-1.37,2.59-.96.21.09.4.22.57.38.57-.75,1.57-1.05,2.41-.68.54.24.94.69,1.11,1.25.13.43.11.89-.06,1.3.16.04.32.1.47.18.96.52,1.32,1.71.82,2.67.11.04.23.09.35.15,1.09.59,1.11,1.89.76,2.62l-.06.14c-1.03,2.22-2.95,6.26-4.33,8.35l-4.6,7Z"/>
    <rect class="cls-1" x="22.68" y="30.82" width="6.74" height="1.5" transform="translate(-14.11 39.45) rotate(-61.57)"/>
    <rect class="cls-1" x="24.86" y="32" width="6.74" height="1.5" transform="translate(-14.02 41.93) rotate(-61.5)"/>
    <rect class="cls-1" x="27.53" y="34.01" width="4.85" height="1.5" transform="translate(-14.9 44.39) rotate(-61.37)"/>
  </g>
  <g>
    <g>
      <rect class="cls-1" x="47.25" y="19.04" width="1.5" height="2.71" transform="translate(27.52 68.36) rotate(-89.91)"/>
      <rect class="cls-1" x="46.64" y="16.78" width="2.71" height="1.5" transform="translate(-2.35 26.28) rotate(-29.92)"/>
      <rect class="cls-1" x="47.25" y="21.91" width="1.5" height="2.71" transform="translate(3.9 53.26) rotate(-60.09)"/>
    </g>
    <g>
      <rect class="cls-1" x="11.5" y="19.64" width="2.71" height="1.5" transform="translate(-.03 .02) rotate(-.07)"/>
      <rect class="cls-1" x="12.1" y="16.17" width="1.5" height="2.71" transform="translate(-8.75 19.93) rotate(-60.09)"/>
      <rect class="cls-1" x="11.5" y="22.51" width="2.71" height="1.5" transform="translate(-9.89 9.51) rotate(-29.92)"/>
    </g>
  </g>
  <rect class="cls-1" x="42.47" y="49.45" width="1.5" height="7.23"/>
  <path class="cls-1" d="m12.51,56.73l-1.41-.51,3.56-9.92c.22-.61.9-.94,1.52-.73l9.09,3.14c.62.22.96.9.74,1.52l-2.21,6.48-1.42-.49,2.12-6.19-8.53-2.95-3.46,9.64Z"/>
  <rect class="cls-1" x="18.81" y="45.24" width="1.5" height="10.53" transform="translate(-34.56 52.5) rotate(-70.94)"/>
</svg>