<?xml version="1.0" encoding="UTF-8"?>
<svg id="Layer_1" data-name="Layer 1" xmlns="http://www.w3.org/2000/svg" viewBox="0 0 60 60">
  <defs>
    <style>
      .cls-1 {
        fill: #37464c;
        stroke-width: 0px;
      }
    </style>
  </defs>
  <g>
    <path class="cls-1" d="m35.13,37.73c-1.28,0-2.64-.02-4.08-.05-20.87-.51-21.82-.66-25.62-2.17-.22-.09-.36-.3-.36-.53,0-.09,0-2.22.55-4.91.74-3.66,2.07-6.46,3.95-8.34.13-.13.32-.19.5-.16.18.03.34.15.42.31,0,.01.64,1.26,1.83,2.34,1.54,1.4,3.25,1.88,5.08,1.44,3.29-.79,4.77-1.62,5.34-2.03-.26-.61-.26-1.56.77-2.59,1.36-1.36,1.79-1.78,1.79-1.78.02-.02.04-.04.06-.05.07-.05,1.74-1.24,4.02,1.54,1.92,2.34,12.72,9.15,15.09,9.76,2.45.63,5.78.97,6.09,1,.35,0,3.26.12,4.62,2.31.13.2.11.47-.03.66-.28.35-3.06,3.25-20.02,3.25Zm-28.9-3.14c3.2,1.26,4.37,1.44,24.85,1.94,16.57.4,21.58-1.74,22.82-2.51-1.2-1.33-3.34-1.36-3.37-1.36-.02,0-.04,0-.05,0-.15-.01-3.65-.35-6.3-1.04-2.88-.74-13.73-7.76-15.69-10.15-1.19-1.45-2.09-1.52-2.43-1.35-.14.14-.63.62-1.73,1.73-.88.88-.5,1.4-.42,1.49.21.21.22.53.03.76-.12.15-1.29,1.46-6.27,2.67-4.16,1-6.82-2.21-7.8-3.69-3.14,3.7-3.59,9.9-3.65,11.5Z"/>
    <path class="cls-1" d="m35.13,38.1c-1.28,0-2.64-.02-4.09-.05-20.93-.51-21.89-.67-25.75-2.19-.36-.14-.6-.5-.6-.88,0-.09,0-2.25.56-4.99.76-3.73,2.12-6.6,4.05-8.53.21-.21.51-.31.82-.27.31.05.57.24.7.51,0,.01.62,1.21,1.75,2.23,1.44,1.31,3.04,1.76,4.74,1.35,2.84-.69,4.29-1.39,4.98-1.82-.15-.57-.16-1.59.95-2.7,1.36-1.37,1.79-1.79,1.79-1.79l.1-.09c.08-.06,2.01-1.47,4.53,1.6,1.84,2.24,12.63,9.05,14.89,9.64,2.4.62,5.67.96,6.04.99.32,0,3.42.11,4.9,2.49.21.33.19.77-.06,1.09-.44.57-3.5,3.39-20.32,3.39ZM9.98,21.93c-.05,0-.11.02-.14.06-1.83,1.83-3.12,4.57-3.85,8.15-.54,2.66-.55,4.75-.55,4.84,0,.08.05.16.13.18,3.75,1.48,4.69,1.63,25.49,2.14,20.77.52,23.69-2.92,23.8-3.05.05-.07.06-.16.01-.23-1.27-2.04-4-2.13-4.31-2.14-.4-.04-3.73-.38-6.18-1.01-2.4-.62-13.34-7.51-15.28-9.89-2.04-2.49-3.45-1.52-3.5-1.47-.03.02-.45.44-1.81,1.8-.98.98-.85,1.78-.69,2.18l.12.28-.25.17c-.61.43-2.14,1.28-5.46,2.08-1.96.48-3.79-.04-5.42-1.52-1.25-1.14-1.91-2.44-1.92-2.45-.03-.06-.08-.1-.15-.11,0,0-.02,0-.03,0Zm25.08,15.02c-1.25,0-2.58-.02-4-.05-20.5-.5-21.71-.68-24.98-1.97l-.25-.1v-.27c.08-1.8.56-7.97,3.75-11.73l.32-.38.28.42c.91,1.38,3.47,4.48,7.4,3.53,4.94-1.19,6.02-2.48,6.06-2.54.07-.08.06-.19,0-.26-.14-.15-.71-.9.42-2.02s1.6-1.59,1.74-1.73l.09-.07c.2-.1,1.28-.52,2.89,1.44,1.93,2.36,12.65,9.29,15.49,10.02,2.65.68,6.2,1.02,6.24,1.03.04,0,2.35.02,3.67,1.48l.3.33-.38.24c-1.34.83-5.79,2.62-19.03,2.62Zm-28.45-2.62c2.98,1.15,4.64,1.33,24.47,1.82,15.01.37,20.45-1.38,22.18-2.22-1.11-.88-2.72-.9-2.74-.9h-.1s-3.6-.34-6.35-1.05c-2.92-.75-13.9-7.86-15.89-10.27-1-1.22-1.7-1.33-1.93-1.27-.19.19-.68.68-1.68,1.68-.53.53-.5.87-.4.98.33.32.35.86.05,1.24-.21.26-1.48,1.59-6.47,2.8-4.03.97-6.72-1.79-7.91-3.43-2.63,3.43-3.14,8.68-3.24,10.63Z"/>
  </g>
  <g>
    <path class="cls-1" d="m23.05,43.09c-17.38,0-17.75-1.3-17.96-2-.8-2.75-.04-6.1,0-6.24.07-.31.38-.5.69-.43.31.07.5.38.43.69,0,.03-.71,3.17-.02,5.62.34.33,2.71,1.29,18.7,1.21,8.8-.04,17.46-.39,17.55-.39.02,0,.04,0,.07,0,.09,0,9.25.66,12.47-3.1.13-.35.68-2.1-.73-3.97-.19-.25-.14-.61.12-.81.25-.19.62-.14.81.12,1.97,2.62.88,5.1.83,5.21-.02.05-.05.09-.08.13-3.48,4.21-12.72,3.64-13.46,3.58-.61.02-9.37.36-18.11.39-.44,0-.87,0-1.29,0Zm-16.85-2.32h0,0Zm-.03-.06h0Z"/>
    <path class="cls-1" d="m23.05,43.47c-17.66,0-18.04-1.31-18.32-2.27-.8-2.78-.1-6.07-.01-6.43.12-.51.63-.83,1.14-.71.25.06.46.21.59.42.13.21.18.47.12.72,0,.03-.66,2.99-.06,5.31.42.24,3.02,1.14,18.37,1.06,8.08-.04,16-.33,17.5-.39.08,0,.12,0,.15,0,.08,0,8.98.63,12.1-2.92.14-.41.53-1.92-.7-3.56-.31-.42-.23-1.02.19-1.33.42-.32,1.02-.23,1.33.19,2.11,2.82.92,5.48.87,5.59-.03.07-.08.14-.13.21-3.58,4.32-12.74,3.79-13.78,3.72-.05,0-9.05.36-18.08.39h-1.29Zm-17.41-8.69c-.09,0-.17.06-.2.16-.03.14-.76,3.42,0,6.05.21.74,2.27,1.73,17.6,1.73h1.29c9.02-.03,18-.39,18.09-.4.43.03,9.79.66,13.19-3.45.04-.07,1.09-2.41-.76-4.87-.06-.09-.19-.11-.28-.04-.09.07-.11.19-.04.28,1.53,2.04.92,3.97.78,4.33l-.07.11c-3.33,3.89-12.39,3.26-12.78,3.23-1.57.06-9.49.35-17.59.39-11.27.05-18.03-.41-18.96-1.32l-.07-.07-.03-.1c-.72-2.54.01-5.78.02-5.81.01-.04,0-.1-.03-.14-.03-.04-.07-.08-.12-.09-.02,0-.03,0-.05,0Z"/>
  </g>
  <g>
    <path class="cls-1" d="m8.73,30.12c-.62,0-1.24-.1-1.85-.29l-.63-.21c-.3-.1-.47-.42-.37-.73.1-.3.42-.47.73-.37l.63.21c2.07.68,4.35-.13,5.54-1.95l.74-1.13c.17-.27.53-.34.8-.17.27.17.34.53.17.8l-.74,1.13c-1.13,1.72-3.03,2.71-5.01,2.71Z"/>
    <path class="cls-1" d="m8.73,30.49c-.67,0-1.33-.11-1.96-.31l-.63-.21c-.5-.16-.77-.7-.61-1.2.16-.5.7-.77,1.2-.61l.63.21c1.91.62,4.01-.12,5.11-1.8l.74-1.13c.29-.44.88-.56,1.32-.27.44.29.56.88.27,1.31l-.74,1.13c-1.18,1.8-3.17,2.88-5.33,2.88Zm-2.3-1.62c-.08,0-.16.05-.19.14-.03.11.02.22.13.25l.63.21c.56.18,1.14.28,1.73.28,1.9,0,3.66-.95,4.7-2.54l.74-1.13c.06-.09.03-.22-.06-.28-.09-.06-.22-.04-.28.06l-.74,1.13c-1.28,1.96-3.73,2.83-5.97,2.1l-.63-.21s-.04,0-.06,0Z"/>
  </g>
  <g>
    <path class="cls-1" d="m28.51,25.43c-.14,0-.27-.05-.38-.15-.24-.21-.26-.57-.05-.81l2.02-2.26c.21-.24.57-.26.81-.05.24.21.26.57.05.81l-2.02,2.26c-.11.13-.27.19-.43.19Z"/>
    <path class="cls-1" d="m28.51,25.8c-.23,0-.46-.09-.63-.24-.39-.35-.43-.95-.08-1.34l2.01-2.26c.17-.19.4-.3.66-.32.25-.02.5.07.69.24.39.35.43.95.08,1.34l-2.01,2.26c-.18.2-.44.32-.71.32Zm2.02-3.41h-.01c-.05,0-.1.03-.14.07l-2.02,2.26c-.07.08-.07.21.02.28.08.07.21.06.28-.02l2.02-2.26c.07-.08.07-.21-.02-.28-.05-.04-.1-.05-.13-.05Z"/>
  </g>
  <g>
    <path class="cls-1" d="m31.83,27.21c-.15,0-.29-.05-.4-.16-.23-.22-.23-.59,0-.81l1.75-1.79c.22-.23.59-.23.81,0,.23.22.23.59,0,.81l-1.75,1.79c-.11.12-.26.17-.41.17Z"/>
    <path class="cls-1" d="m31.83,27.59c-.25,0-.49-.1-.67-.27-.18-.17-.28-.41-.28-.67s.09-.49.27-.68l1.75-1.79c.18-.18.42-.28.67-.29.22,0,.49.09.67.27.18.18.28.41.29.67,0,.25-.09.5-.27.68l-1.75,1.79c-.18.18-.42.29-.68.29Zm1.75-2.94h0c-.05,0-.1.02-.14.06l-1.75,1.79s-.06.09-.06.14c0,.05.02.1.06.14.09.09.17.11.28,0l1.75-1.79s.06-.09.06-.14c0-.03,0-.09-.06-.14-.04-.04-.09-.06-.14-.06Z"/>
  </g>
  <g>
    <path class="cls-1" d="m35.74,29.34c-.13,0-.27-.05-.38-.14-.24-.21-.27-.57-.06-.81l1.36-1.58c.21-.24.57-.27.81-.06.24.21.27.57.06.81l-1.36,1.58c-.11.13-.27.2-.44.2Z"/>
    <path class="cls-1" d="m35.74,29.71c-.23,0-.45-.08-.62-.23-.19-.17-.31-.4-.33-.65-.02-.25.06-.5.23-.69l1.36-1.58c.34-.4.94-.44,1.34-.1.19.17.31.4.33.65.02.25-.06.5-.23.69l-1.36,1.58c-.18.21-.44.33-.72.33Zm1.36-2.73c-.06,0-.11.02-.15.07l-1.36,1.58s-.05.09-.05.15.03.1.07.14c.06.05.16.12.28-.02l1.36-1.58s.05-.09.05-.15c0-.05-.03-.1-.07-.14-.04-.03-.08-.05-.13-.05Z"/>
  </g>
  <g>
    <path class="cls-1" d="m39.56,30.7c-.12,0-.23-.03-.33-.11-.26-.18-.32-.54-.13-.8l.73-1.02c.18-.26.54-.32.8-.13.26.18.32.54.13.8l-.73,1.02c-.11.16-.29.24-.47.24Z"/>
    <path class="cls-1" d="m39.56,31.08c-.2,0-.39-.06-.55-.18-.21-.15-.34-.37-.38-.62-.04-.25.02-.5.17-.71l.73-1.02c.15-.21.37-.34.62-.38.25-.04.5.02.71.17.43.3.52.9.22,1.33l-.73,1.02c-.18.25-.47.4-.77.4Zm.73-2.17s-.02,0-.03,0c-.05,0-.1.04-.13.08l-.73,1.02s-.04.1-.04.15c0,.05.04.1.08.13.14.1.22.03.28-.05l.73-1.02s.04-.1.03-.15-.04-.1-.08-.13c-.04-.03-.08-.04-.12-.04Z"/>
  </g>
</svg>