<?xml version="1.0" encoding="UTF-8"?>
<svg id="Layer_1" data-name="Layer 1" xmlns="http://www.w3.org/2000/svg" viewBox="0 0 60 60">
  <defs>
    <style>
      .cls-1 {
        fill: #37464c;
        stroke-width: 0px;
      }
    </style>
  </defs>
  <g>
    <g>
      <path class="cls-1" d="m52.48,47.8H10.64c-.17,0-.33-.07-.44-.2-.11-.13-.17-.29-.15-.46L14.43,5.32c.03-.3.29-.53.59-.53h33.07c.3,0,.56.23.59.53l4.38,41.82c.02.17-.04.33-.15.46-.11.12-.27.2-.44.2Zm-41.17-1.19h40.52l-4.26-40.64H15.56l-4.26,40.64Z"/>
      <path class="cls-1" d="m52.47,48.18H10.64c-.27,0-.54-.12-.72-.32-.18-.2-.27-.48-.24-.75L14.06,5.29c.05-.5.47-.87.96-.87h33.07c.5,0,.91.37.96.87l4.38,41.82c.03.27-.06.54-.24.75-.18.2-.45.32-.72.32ZM15.02,5.17c-.11,0-.21.08-.22.2l-4.38,41.82c0,.06.01.12.06.17.04.05.1.07.16.07h41.83c.06,0,.12-.03.16-.07.04-.04.06-.11.05-.17l-4.38-41.82c-.01-.11-.11-.2-.22-.2H15.02Zm37.21,41.82H10.88L15.22,5.6h32.68l4.33,41.39Zm-40.52-.75h39.68l-4.18-39.89H15.89l-4.18,39.89Z"/>
    </g>
    <g>
      <g>
        <path class="cls-1" d="m24.48,47.8s-.02,0-.03,0c-.33-.02-.58-.3-.56-.62l2.19-41.82c.02-.33.3-.58.62-.56.33.02.58.3.56.62l-2.19,41.82c-.02.32-.28.56-.59.56Z"/>
        <path class="cls-1" d="m24.48,48.18h-.07c-.24-.01-.48-.13-.65-.32-.17-.19-.26-.44-.25-.7l2.19-41.82c.01-.26.13-.5.32-.67.19-.17.44-.26.7-.24.25.01.49.13.67.32.17.19.26.44.25.7l-2.19,41.82c-.03.51-.45.92-.97.92Zm2.19-43.01c-.07,0-.12.03-.14.05-.03.02-.07.07-.08.15l-2.19,41.82c0,.06.02.11.06.16s.09.07.15.07v.38s.01-.38.01-.38c.12,0,.21-.09.22-.21l2.19-41.82c0-.06-.02-.11-.06-.16s-.09-.07-.15-.07c0,0,0,0-.01,0Z"/>
      </g>
      <g>
        <path class="cls-1" d="m38.64,47.8c-.31,0-.57-.25-.59-.56l-2.19-41.82c-.02-.33.23-.61.56-.62.33-.02.61.23.62.56l2.19,41.82c.02.33-.23.61-.56.62-.01,0-.02,0-.03,0Z"/>
        <path class="cls-1" d="m38.64,48.18c-.51,0-.94-.4-.97-.92l-2.19-41.82c-.01-.26.07-.51.25-.7.17-.19.41-.3.67-.32.52,0,.99.39,1.02.92l2.19,41.82c.01.26-.07.51-.25.7-.17.19-.41.31-.67.32h-.05Zm-2.19-43.01s0,0-.01,0c-.06,0-.11.03-.15.07-.04.04-.06.1-.06.16l2.19,41.82c0,.12.1.21.22.21v.38-.38c.07,0,.12-.03.16-.07s.06-.1.06-.16l-2.19-41.82c0-.12-.1-.21-.22-.21Z"/>
      </g>
    </g>
    <g>
      <g>
        <path class="cls-1" d="m49.41,19.81H13.71c-.33,0-.59-.27-.59-.59s.27-.59.59-.59h35.7c.33,0,.59.27.59.59s-.27.59-.59.59Z"/>
        <path class="cls-1" d="m49.41,20.18H13.71c-.53,0-.97-.43-.97-.97s.43-.97.97-.97h35.7c.53,0,.97.43.97.97s-.43.97-.97.97Zm-35.7-1.19c-.12,0-.22.1-.22.22s.1.22.22.22h35.7c.12,0,.22-.1.22-.22s-.1-.22-.22-.22H13.71Z"/>
      </g>
      <g>
        <path class="cls-1" d="m50.72,33.97H12.39c-.33,0-.59-.27-.59-.59s.27-.59.59-.59h38.33c.33,0,.59.27.59.59s-.27.59-.59.59Z"/>
        <path class="cls-1" d="m50.72,34.34H12.39c-.53,0-.97-.43-.97-.97s.43-.97.97-.97h38.33c.53,0,.97.43.97.97s-.43.97-.97.97Zm-38.33-1.19c-.12,0-.22.1-.22.22s.1.22.22.22h38.33c.12,0,.22-.1.22-.22s-.1-.22-.22-.22H12.39Z"/>
      </g>
    </g>
  </g>
  <g>
    <path class="cls-1" d="m31.56,56.68c-.33,0-.59-.27-.59-.59v-8.88c0-.33.27-.59.59-.59s.59.27.59.59v8.88c0,.33-.27.59-.59.59Z"/>
    <path class="cls-1" d="m31.56,57.05c-.53,0-.97-.43-.97-.97v-8.88c0-.53.43-.97.97-.97s.97.43.97.97v8.88c0,.53-.43.97-.97.97Zm0-10.06c-.12,0-.22.1-.22.22v8.88c0,.24.44.24.44,0v-8.88c0-.12-.1-.22-.22-.22Z"/>
  </g>
  <g>
    <path class="cls-1" d="m39.83,56.68h-16.54c-.33,0-.59-.27-.59-.59s.27-.59.59-.59h16.54c.33,0,.59.27.59.59s-.27.59-.59.59Z"/>
    <path class="cls-1" d="m39.83,57.05h-16.54c-.53,0-.97-.43-.97-.97s.43-.97.97-.97h16.54c.53,0,.97.43.97.97s-.43.97-.97.97Zm-16.54-1.19c-.12,0-.22.1-.22.22s.1.22.22.22h16.54c.12,0,.22-.1.22-.22s-.1-.22-.22-.22h-16.54Z"/>
  </g>
</svg>