<?xml version="1.0" encoding="UTF-8"?>
<svg id="Layer_1" data-name="Layer 1" xmlns="http://www.w3.org/2000/svg" viewBox="0 0 60 60">
  <defs>
    <style>
      .cls-1 {
        fill: #37464c;
        stroke-width: 0px;
      }
    </style>
  </defs>
  <path class="cls-1" d="m30,40.5c-2.76,0-5-2.24-5-5s2.24-5,5-5,5,2.24,5,5-2.24,5-5,5Zm0-8c-1.65,0-3,1.35-3,3s1.35,3,3,3,3-1.35,3-3-1.35-3-3-3Z"/>
  <path class="cls-1" d="m52.45,50.5c-.19,0-.38-.05-.56-.17-.46-.31-.58-.93-.27-1.39,2.87-4.28,4.38-9.27,4.38-14.44,0-14.34-11.66-26-26-26S4,20.16,4,34.5c0,5.17,1.51,10.16,4.38,14.44.31.46.18,1.08-.27,1.39-.46.31-1.08.18-1.39-.27-3.09-4.61-4.72-9.99-4.72-15.56C2,19.06,14.56,6.5,30,6.5s28,12.56,28,28c0,5.57-1.63,10.95-4.72,15.56-.19.29-.51.44-.83.44Z"/>
  <path class="cls-1" d="m37,50.5h-14c-.55,0-1-.45-1-1s.45-1,1-1h14c.55,0,1,.45,1,1s-.45,1-1,1Z"/>
  <path class="cls-1" d="m7.55,50.5c-.28,0-.56-.12-.75-.34-.36-.42-.32-1.05.1-1.41l4.59-4c.42-.36,1.05-.32,1.41.1.36.42.32,1.05-.1,1.41l-4.59,4c-.19.17-.42.25-.66.25Z"/>
  <path class="cls-1" d="m52.45,50.5c-.23,0-.47-.08-.66-.25l-4.59-4c-.42-.36-.46-.99-.1-1.41.37-.42,1-.46,1.41-.1l4.59,4c.42.36.46.99.1,1.41-.2.23-.48.34-.75.34Z"/>
  <path class="cls-1" d="m30,14.5c-.55,0-1-.45-1-1v-6c0-.55.45-1,1-1s1,.45,1,1v6c0,.55-.45,1-1,1Z"/>
  <path class="cls-1" d="m9,35.5H3c-.55,0-1-.45-1-1s.45-1,1-1h6c.55,0,1,.45,1,1s-.45,1-1,1Z"/>
  <path class="cls-1" d="m57,35.5h-6c-.55,0-1-.45-1-1s.45-1,1-1h6c.55,0,1,.45,1,1s-.45,1-1,1Z"/>
  <path class="cls-1" d="m48.19,25c-.35,0-.68-.18-.87-.5-.28-.48-.11-1.09.37-1.37l5.2-3c.48-.28,1.09-.11,1.37.37.28.48.11,1.09-.37,1.37l-5.2,3c-.16.09-.33.13-.5.13Z"/>
  <path class="cls-1" d="m11.81,25c-.17,0-.34-.04-.5-.13l-5.2-3c-.48-.28-.64-.89-.37-1.37.28-.48.89-.64,1.37-.37l5.2,3c.48.28.64.89.37,1.37-.19.32-.52.5-.87.5Z"/>
  <path class="cls-1" d="m40.5,17.31c-.17,0-.34-.04-.5-.13-.48-.28-.64-.89-.37-1.37l3-5.2c.28-.48.89-.64,1.37-.37.48.28.64.89.37,1.37l-3,5.2c-.19.32-.52.5-.87.5Z"/>
  <path class="cls-1" d="m19.5,17.31c-.35,0-.68-.18-.87-.5l-3-5.2c-.28-.48-.11-1.09.37-1.37.48-.28,1.09-.11,1.37.37l3,5.2c.28.48.11,1.09-.37,1.37-.16.09-.33.13-.5.13Z"/>
  <path class="cls-1" d="m32.83,33.67c-.26,0-.51-.1-.71-.29-.39-.39-.39-1.02,0-1.41l12.73-12.73c.39-.39,1.02-.39,1.41,0s.39,1.02,0,1.41l-12.73,12.73c-.2.2-.45.29-.71.29Z"/>
  <path class="cls-1" d="m24.34,42.16c-.26,0-.51-.1-.71-.29-.39-.39-.39-1.02,0-1.41l2.83-2.83c.39-.39,1.02-.39,1.41,0s.39,1.02,0,1.41l-2.83,2.83c-.2.2-.45.29-.71.29Z"/>
  <path class="cls-1" d="m15.7,43.65c-.37,0-.72-.2-.9-.55-3.28-6.55-2-14.44,3.18-19.61,5.48-5.48,13.97-6.55,20.64-2.61.48.28.63.89.35,1.37-.28.48-.9.63-1.37.35-5.89-3.47-13.38-2.53-18.21,2.3-4.57,4.57-5.69,11.52-2.8,17.31.25.49.05,1.09-.45,1.34-.14.07-.3.11-.45.11Z"/>
</svg>