<?xml version="1.0" encoding="UTF-8"?>
<svg id="Layer_1" data-name="Layer 1" xmlns="http://www.w3.org/2000/svg" viewBox="0 0 60 60">
  <defs>
    <style>
      .cls-1 {
        fill: #37464c;
        stroke-width: 0px;
      }
    </style>
  </defs>
  <g>
    <path class="cls-1" d="m52.01,44.34H7.99c-.28,0-.5-.22-.5-.5V14.68c0-.28.22-.5.5-.5h44.03c.28,0,.5.22.5.5v29.16c0,.28-.22.5-.5.5Zm-43.52-1h43.02V15.18H8.49v28.16Z"/>
    <path class="cls-1" d="m52.01,44.72H7.99c-.48,0-.88-.39-.88-.88V14.68c0-.48.39-.88.88-.88h44.03c.48,0,.88.39.88.88v29.16c0,.48-.39.88-.88.88ZM7.99,14.55c-.07,0-.13.06-.13.13v29.16c0,.07.06.13.13.13h44.03c.07,0,.13-.06.13-.13V14.68c0-.07-.06-.13-.13-.13H7.99Zm43.9,29.16H8.11V14.8h43.77v28.91Zm-43.02-.75h42.27V15.55H8.86v27.41Z"/>
  </g>
  <g>
    <path class="cls-1" d="m15.52,35.06h-7.53c-.28,0-.5-.22-.5-.5v-10.6c0-.28.22-.5.5-.5h7.53c.28,0,.5.22.5.5v10.6c0,.28-.22.5-.5.5Zm-7.03-1h6.52v-9.6h-6.52v9.6Z"/>
    <path class="cls-1" d="m15.52,35.44h-7.53c-.48,0-.88-.39-.88-.88v-10.6c0-.48.39-.88.88-.88h7.53c.48,0,.88.39.88.88v10.6c0,.48-.39.88-.88.88Zm-7.53-11.61c-.07,0-.13.06-.13.13v10.6c0,.07.06.13.13.13h7.53c.07,0,.13-.06.13-.13v-10.6c0-.07-.06-.13-.13-.13h-7.53Zm7.4,10.6h-7.27v-10.35h7.27v10.35Zm-6.52-.75h5.77v-8.85h-5.77v8.85Z"/>
  </g>
  <g>
    <path class="cls-1" d="m52.01,35.06h-7.53c-.28,0-.5-.22-.5-.5v-10.6c0-.28.22-.5.5-.5h7.53c.28,0,.5.22.5.5v10.6c0,.28-.22.5-.5.5Zm-7.03-1h6.52v-9.6h-6.52v9.6Z"/>
    <path class="cls-1" d="m52.01,35.44h-7.53c-.48,0-.88-.39-.88-.88v-10.6c0-.48.39-.88.88-.88h7.53c.48,0,.88.39.88.88v10.6c0,.48-.39.88-.88.88Zm-7.53-11.61c-.07,0-.13.06-.13.13v10.6c0,.07.06.13.13.13h7.53c.07,0,.13-.06.13-.13v-10.6c0-.07-.06-.13-.13-.13h-7.53Zm7.4,10.6h-7.27v-10.35h7.27v10.35Zm-6.52-.75h5.77v-8.85h-5.77v8.85Z"/>
  </g>
  <g>
    <path class="cls-1" d="m30,44.34c-.28,0-.5-.22-.5-.5V14.68c0-.28.22-.5.5-.5s.5.22.5.5v29.16c0,.28-.22.5-.5.5Z"/>
    <path class="cls-1" d="m30,44.72c-.48,0-.88-.39-.88-.88V14.68c0-.48.39-.88.88-.88s.88.39.88.88v29.16c0,.48-.39.88-.88.88Zm0-30.17c-.07,0-.13.06-.13.13v29.16c0,.14.25.14.25,0V14.68c0-.07-.06-.13-.13-.13Z"/>
  </g>
  <g>
    <path class="cls-1" d="m30,38.35c-5.01,0-9.09-4.08-9.09-9.09s4.08-9.09,9.09-9.09,9.09,4.08,9.09,9.09-4.08,9.09-9.09,9.09Zm0-17.17c-4.46,0-8.08,3.63-8.08,8.08s3.63,8.08,8.08,8.08,8.08-3.63,8.08-8.08-3.63-8.08-8.08-8.08Z"/>
    <path class="cls-1" d="m30,38.72c-5.22,0-9.46-4.24-9.46-9.46s4.25-9.46,9.46-9.46,9.46,4.25,9.46,9.46-4.25,9.46-9.46,9.46Zm0-18.18c-4.8,0-8.71,3.91-8.71,8.71s3.91,8.71,8.71,8.71,8.71-3.91,8.71-8.71-3.91-8.71-8.71-8.71Zm0,17.17c-4.66,0-8.46-3.79-8.46-8.46s3.79-8.46,8.46-8.46,8.46,3.79,8.46,8.46-3.79,8.46-8.46,8.46Zm0-16.17c-4.25,0-7.71,3.46-7.71,7.71s3.46,7.71,7.71,7.71,7.71-3.46,7.71-7.71-3.46-7.71-7.71-7.71Z"/>
  </g>
</svg>