<?xml version="1.0" encoding="UTF-8"?>
<svg id="Layer_1" data-name="Layer 1" xmlns="http://www.w3.org/2000/svg" viewBox="0 0 60 60">
  <defs>
    <style>
      .cls-1 {
        fill: #37464c;
        stroke-width: 0px;
      }
    </style>
  </defs>
  <path class="cls-1" d="m17.11,58.86h-8.41c-.55,0-1-.45-1-1s.45-1,1-1h7.41v-4.91c0-.55.45-1,1-1h7.41v-4.91c0-.55.45-1,1-1h7.41v-4.91c0-.55.45-1,1-1h7.41v-4.91c0-.55.45-1,1-1h4.73c4.74,0,8.59-3.86,8.59-8.59s-3.81-8.53-8.48-8.59c-.27,0-.52-.11-.71-.31-.19-.19-.29-.45-.28-.72v-.15c.01-5.06-4.04-9.12-9.02-9.12-4.53,0-8.38,3.39-8.95,7.88-.03.27-.18.52-.4.68-.22.16-.5.23-.77.18-.55-.1-1.06-.15-1.56-.15-4.6,0-8.45,3.59-8.78,8.18-.02.31-.19.59-.44.76-.26.17-.58.21-.87.11-.58-.2-1.1-.29-1.61-.29-2.79,0-5.06,2.27-5.06,5.06s2.27,5.06,5.06,5.06h12.25c.55,0,1,.45,1,1s-.45,1-1,1h-12.25c-3.89,0-7.06-3.17-7.06-7.06s3.17-7.06,7.06-7.06c.36,0,.71.03,1.08.09.92-5.05,5.38-8.86,10.62-8.86.3,0,.61.01.92.04,1.11-4.98,5.57-8.63,10.76-8.63,5.86,0,10.66,4.59,11.01,10.36,5.31.56,9.48,5.1,9.48,10.53,0,5.84-4.75,10.59-10.59,10.59h-3.73v4.91c0,.55-.45,1-1,1h-7.41v4.91c0,.55-.45,1-1,1h-7.41v4.91c0,.55-.45,1-1,1h-7.41v4.91c0,.55-.45,1-1,1Z"/>
  <path class="cls-1" d="m35.26,23.44c-.52,0-.96-.4-1-.93-.32-4.59-4.18-8.18-8.78-8.18-.55,0-1-.45-1-1s.45-1,1-1c5.64,0,10.37,4.41,10.77,10.04.04.55-.38,1.03-.93,1.07-.02,0-.05,0-.07,0Z"/>
</svg>