<?xml version="1.0" encoding="UTF-8"?>
<svg id="Layer_1" data-name="Layer 1" xmlns="http://www.w3.org/2000/svg" viewBox="0 0 60 60">
  <defs>
    <style>
      .cls-1 {
        fill: #37464c;
        stroke-width: 0px;
      }
    </style>
  </defs>
  <g>
    <path class="cls-1" d="m38.49,46.72h-13.43c-.41,0-.75-.34-.75-.75s.34-.75.75-.75h12.68v-3.97c0-.41.34-.75.75-.75h12.68v-3.97c0-.41.34-.75.75-.75h6.84c.41,0,.75.34.75.75s-.34.75-.75.75h-6.09v3.97c0,.41-.34.75-.75.75h-12.68v3.97c0,.41-.34.75-.75.75Z"/>
    <path class="cls-1" d="m11.42,56.12H1.56c-.41,0-.75-.34-.75-.75s.34-.75.75-.75h9.11v-3.97c0-.41.34-.75.75-.75h12.68v-3.97c0-.41.34-.75.75-.75h10.83c.41,0,.75.34.75.75s-.34.75-.75.75h-10.08v3.97c0,.41-.34.75-.75.75h-12.68v3.97c0,.41-.34.75-.75.75Z"/>
    <path class="cls-1" d="m38.79,16.02c-2.05,0-3.72-1.67-3.72-3.72s1.67-3.72,3.72-3.72,3.72,1.67,3.72,3.72-1.67,3.72-3.72,3.72Zm0-5.94c-1.22,0-2.22,1-2.22,2.22s1,2.22,2.22,2.22,2.22-.99,2.22-2.22-1-2.22-2.22-2.22Z"/>
    <path class="cls-1" d="m38.79,16.02c-2.05,0-3.72-1.67-3.72-3.72s1.67-3.72,3.72-3.72,3.72,1.67,3.72,3.72-1.67,3.72-3.72,3.72Zm0-5.94c-1.22,0-2.22,1-2.22,2.22s1,2.22,2.22,2.22,2.22-.99,2.22-2.22-1-2.22-2.22-2.22Z"/>
    <path class="cls-1" d="m38.79,16.02c-2.05,0-3.72-1.67-3.72-3.72s1.67-3.72,3.72-3.72,3.72,1.67,3.72,3.72-1.67,3.72-3.72,3.72Zm0-5.94c-1.22,0-2.22,1-2.22,2.22s1,2.22,2.22,2.22,2.22-.99,2.22-2.22-1-2.22-2.22-2.22Z"/>
    <path class="cls-1" d="m29.35,45.44c-.29,0-.59-.05-.87-.16-1.26-.48-1.9-1.89-1.42-3.15l6.03-20.9h-2.02l-2.72,4.81c-.64,1.13-2.2,1.57-3.33.92-.57-.32-.98-.84-1.15-1.47-.17-.63-.09-1.29.23-1.86l3.42-6.05c.43-.77,1.25-1.24,2.13-1.24h7.68c1.42,0,2.79.68,3.65,1.81l3.12,4.1,4.06-.88c.71-.15,1.43.02,2.01.46.57.43.91,1.1.95,1.81.06,1.18-.81,2.27-2.02,2.54l-5.49,1.18c-.91.19-1.9-.17-2.46-.91l-1.95-2.58-1.75,5.04,4.73.29c.06,0,.13.02.19.04.57.19.97.65,1.15,1.3l2.06,7.04c.43,1.24-.24,2.63-1.52,3.08-.26.09-.53.14-.81.14-1.04,0-1.97-.66-2.31-1.64l-1.87-4.87-3.85-.08-3.57,9.66c-.23.62-.69,1.1-1.28,1.37-.32.14-.66.22-1,.22Zm1.28-25.71h3.46c.24,0,.46.11.6.3.14.19.19.43.12.66l-6.32,21.91c-.11.29-.1.55,0,.78s.29.41.53.5c.24.09.49.08.72-.02s.41-.29.5-.53l3.75-10.16c.11-.3.36-.5.72-.49l4.89.1c.3,0,.58.2.68.48l2.06,5.36c.18.51.75.77,1.21.61.49-.17.75-.71.58-1.21l-2.08-7.1c-.04-.15-.09-.22-.13-.25l-5.58-.35c-.23-.01-.45-.14-.58-.33-.13-.19-.16-.44-.08-.66l2.53-7.3c.09-.26.32-.45.59-.49.28-.04.55.07.72.29l2.8,3.7c.22.28.61.43.95.35l5.49-1.18c.5-.11.87-.54.84-.99-.02-.28-.15-.53-.37-.7-.22-.17-.51-.23-.78-.18l-4.52.98c-.28.06-.58-.05-.75-.28l-3.4-4.48c-.58-.76-1.5-1.22-2.46-1.22h-7.68c-.34,0-.66.18-.82.48l-3.42,6.05c-.12.22-.16.48-.09.72s.23.45.45.57c.44.25,1.04.08,1.29-.36l2.94-5.19c.13-.24.38-.38.65-.38Z"/>
  </g>
  <g>
    <path class="cls-1" d="m13.65,23.66c-2.26,0-4.11-1.84-4.11-4.11s1.84-4.11,4.11-4.11,4.11,1.84,4.11,4.11-1.84,4.11-4.11,4.11Zm0-6.71c-1.44,0-2.61,1.17-2.61,2.61s1.17,2.61,2.61,2.61,2.61-1.17,2.61-2.61-1.17-2.61-2.61-2.61Z"/>
    <path class="cls-1" d="m17.68,50.51c-.05,0-.1,0-.15,0-1.47-.08-2.62-1.34-2.62-2.87v-5.46l-4.25-5.04c-.72-.86-1.12-1.95-1.12-3.07v-3.97l-1.21,1.21.02,3.69c0,1.15-.94,2.09-2.09,2.09s-2.09-.94-2.09-2.09v-4.26c0-.92.36-1.78,1.01-2.43l3.8-3.8c.65-.65,1.51-1.01,2.43-1.01h.9c2.26,0,4.11,1.84,4.11,4.11v7.56c0,.14.05.27.14.38l2.77,3.3h0c.72.86,1.12,1.95,1.12,3.07v5.82c0,.75-.31,1.49-.86,2.01-.52.49-1.19.76-1.9.76Zm-7.39-22.98c.1,0,.19.02.29.06.28.12.46.39.46.69v5.78c0,.77.27,1.52.77,2.11l4.27,5.09c.21.26.33.58.33.91v5.46c0,.72.54,1.34,1.2,1.38.36.01.69-.1.94-.34.25-.24.39-.57.39-.92v-5.82c0-.77-.27-1.52-.77-2.11l-2.77-3.3c-.32-.38-.49-.85-.49-1.35v-7.56c0-1.44-1.17-2.61-2.61-2.61h-.9c-.52,0-1,.2-1.37.57l-3.8,3.8c-.36.36-.57.86-.57,1.37v4.26c0,.33.27.59.59.59s.59-.27.59-.59v-3.75c0-.38.15-.74.42-1l2.49-2.49c.14-.14.33-.22.53-.22Z"/>
    <path class="cls-1" d="m19.17,31.77l-.85-1.24,5.35-3.66c.13-.09.22-.22.24-.37.02-.15-.02-.3-.12-.42-.23-.29-.69-.36-1-.15l-6.7,4.58-.85-1.24,6.7-4.58c.96-.65,2.31-.44,3.03.46.36.46.51,1.02.43,1.58-.08.56-.4,1.05-.88,1.38l-5.35,3.66Z"/>
    <path class="cls-1" d="m8.28,50.51c-.31,0-.63-.05-.94-.17-.69-.25-1.25-.76-1.56-1.43-.31-.67-.34-1.42-.09-2.11l4.19-11.52,1.41.51-4.19,11.52c-.12.32-.1.66.04.97.14.31.4.54.71.65.66.24,1.38-.1,1.62-.75l3.31-9.11,1.41.51-3.31,9.11c-.41,1.12-1.47,1.82-2.6,1.82Z"/>
    <rect class="cls-1" x="15.32" y="31.49" width="3.76" height="1.5" transform="translate(-15.39 15.72) rotate(-35.03)"/>
  </g>
</svg>