<?xml version="1.0" encoding="UTF-8"?>
<svg id="Layer_1" data-name="Layer 1" xmlns="http://www.w3.org/2000/svg" viewBox="0 0 60 60">
  <defs>
    <style>
      .cls-1 {
        fill: #37464c;
        stroke-width: 0px;
      }
    </style>
  </defs>
  <path class="cls-1" d="m35.71,48c-.38,0-.77-.1-1.12-.29l-3.38-1.88c-.13-.07-.29-.07-.43,0l-3.38,1.88c-.77.43-1.71.38-2.43-.13-.73-.51-1.09-1.38-.95-2.26l.68-4.2c.02-.14-.02-.28-.12-.38l-2.92-3.01c-.61-.62-.81-1.52-.53-2.34.28-.82.98-1.42,1.84-1.55l3.91-.6c.14-.02.27-.11.33-.25l1.72-3.67c.38-.82,1.18-1.32,2.08-1.32h0c.9,0,1.7.51,2.08,1.33l1.72,3.67c.06.13.19.23.33.25l3.92.6c.86.13,1.56.72,1.84,1.54.28.82.07,1.72-.53,2.34l-2.93,3.01c-.1.1-.14.24-.12.38l.68,4.2c.14.88-.22,1.75-.95,2.26-.4.28-.86.42-1.32.42Zm-4.71-4.23c.41,0,.81.1,1.19.31l3.38,1.88c.13.07.24.03.31-.02.06-.04.15-.14.13-.3l-.68-4.2c-.12-.76.12-1.54.66-2.09l2.93-3.01c.11-.12.09-.24.07-.31-.03-.08-.09-.18-.24-.2l-3.92-.6c-.81-.12-1.49-.64-1.84-1.38l-1.72-3.67c-.07-.14-.18-.17-.27-.17h0c-.09,0-.2.03-.27.17l-1.72,3.67c-.35.74-1.03,1.25-1.84,1.38l-3.91.6c-.16.02-.22.14-.25.21-.02.07-.04.2.07.31l2.92,3.01c.54.55.78,1.33.66,2.09l-.68,4.2c-.03.17.07.26.13.3.07.05.18.09.31.02l3.38-1.88h0c.37-.21.78-.31,1.18-.31Z"/>
  <path class="cls-1" d="m31,56c-9.92,0-18-8.07-18-18s8.08-18,18-18,18,8.07,18,18-8.08,18-18,18Zm0-34c-8.82,0-16,7.18-16,16s7.18,16,16,16,16-7.18,16-16-7.18-16-16-16Z"/>
  <path class="cls-1" d="m37,21.75h-2V6h-8v15.75h-2V5c0-.55.45-1,1-1h10c.55,0,1,.45,1,1v16.75Z"/>
  <path class="cls-1" d="m41.4,24.68l-1.49-1.33,4.84-5.45c.16-.18.25-.42.25-.66V7c0-.55-.45-1-1-1h-26c-.55,0-1,.45-1,1v10.24c0,.25.09.48.25.66l4.84,5.45-1.49,1.33-4.84-5.45c-.49-.55-.76-1.26-.76-1.99V7c0-1.65,1.35-3,3-3h26c1.65,0,3,1.35,3,3v10.24c0,.74-.27,1.44-.76,1.99l-4.84,5.45Z"/>
</svg>