<?xml version="1.0" encoding="UTF-8"?>
<svg id="Layer_1" data-name="Layer 1" xmlns="http://www.w3.org/2000/svg" viewBox="0 0 60 60">
  <defs>
    <style>
      .cls-1 {
        fill: #37464c;
        stroke-width: 0px;
      }
    </style>
  </defs>
  <path class="cls-1" d="m34.71,49.52c-.38,0-.77-.1-1.12-.29l-3.38-1.88c-.13-.07-.29-.07-.43,0l-3.38,1.88c-.77.43-1.71.38-2.43-.13-.73-.51-1.09-1.38-.95-2.26l.68-4.2c.02-.14-.02-.28-.12-.38l-2.92-3.01c-.61-.62-.81-1.52-.53-2.34.28-.82.98-1.42,1.84-1.55l3.91-.6c.14-.02.27-.12.33-.25l1.72-3.67c.38-.82,1.18-1.32,2.08-1.32h0c.9,0,1.7.51,2.08,1.33l1.72,3.67c.06.13.19.23.33.25l3.92.6c.86.13,1.56.72,1.84,1.54.28.82.07,1.72-.53,2.34l-2.93,3.01c-.1.1-.14.24-.12.38l.68,4.2c.14.88-.22,1.75-.95,2.26-.4.28-.86.42-1.32.42Zm-4.71-18c-.09,0-.2.03-.27.17l-1.72,3.67c-.34.74-1.03,1.25-1.84,1.38l-3.91.6c-.16.02-.22.14-.25.21-.02.07-.04.2.07.31l2.92,3.01c.54.55.78,1.33.66,2.09l-.68,4.2c-.03.17.07.26.13.3.07.05.18.09.31.02l3.39-1.88h0c.74-.41,1.63-.41,2.37,0l3.38,1.88c.13.07.24.03.31-.02.06-.04.15-.14.13-.3l-.68-4.2c-.12-.76.12-1.54.66-2.09l2.93-3.01c.11-.12.09-.24.07-.31-.03-.08-.09-.18-.24-.2l-3.92-.6c-.81-.12-1.49-.64-1.84-1.38l-1.72-3.67c-.07-.14-.18-.17-.27-.17h0Z"/>
  <path class="cls-1" d="m30,57.52c-9.92,0-18-8.07-18-18s8.08-18,18-18,18,8.07,18,18-8.08,18-18,18Zm0-34c-8.82,0-16,7.18-16,16s7.18,16,16,16,16-7.18,16-16-7.18-16-16-16Z"/>
  <path class="cls-1" d="m21.11,24.97L12.11,6.96c-.16-.31-.14-.68.04-.97.18-.29.5-.47.85-.47h14c.38,0,.72.21.89.55l8.46,16.91-1.79.89L26.38,7.52h-11.76l8.28,16.55-1.79.89Z"/>
  <path class="cls-1" d="m38.89,24.97l-1.79-.89,8.28-16.55h-11.76l-2.72,5.45-1.79-.89,3-6c.17-.34.52-.55.89-.55h14c.35,0,.67.18.85.47.18.29.2.66.04.97l-9,18Z"/>
  <path class="cls-1" d="m9.54,33.02c-.17,0-.34-.04-.5-.13l-3.46-2c-.48-.28-.64-.89-.37-1.37s.89-.64,1.37-.37l3.46,2c.48.28.64.89.37,1.37-.19.32-.52.5-.87.5Z"/>
  <path class="cls-1" d="m7,40.52H3c-.55,0-1-.45-1-1s.45-1,1-1h4c.55,0,1,.45,1,1s-.45,1-1,1Z"/>
  <path class="cls-1" d="m6.08,50.02c-.35,0-.68-.18-.87-.5-.28-.48-.11-1.09.37-1.37l3.46-2c.48-.28,1.09-.11,1.37.37.28.48.11,1.09-.37,1.37l-3.46,2c-.16.09-.33.13-.5.13Z"/>
  <path class="cls-1" d="m50.46,33.02c-.35,0-.68-.18-.87-.5-.28-.48-.11-1.09.37-1.37l3.46-2c.48-.28,1.09-.11,1.37.37.28.48.11,1.09-.37,1.37l-3.46,2c-.16.09-.33.13-.5.13Z"/>
  <path class="cls-1" d="m57,40.52h-4c-.55,0-1-.45-1-1s.45-1,1-1h4c.55,0,1,.45,1,1s-.45,1-1,1Z"/>
  <path class="cls-1" d="m53.92,50.02c-.17,0-.34-.04-.5-.13l-3.46-2c-.48-.28-.64-.89-.37-1.37.28-.48.89-.64,1.37-.37l3.46,2c.48.28.64.89.37,1.37-.19.32-.52.5-.87.5Z"/>
</svg>