<?xml version="1.0" encoding="UTF-8"?>
<svg id="Layer_1" data-name="Layer 1" xmlns="http://www.w3.org/2000/svg" viewBox="0 0 60 60">
  <defs>
    <style>
      .cls-1 {
        fill: #37464c;
        stroke-width: 0px;
      }
    </style>
  </defs>
  <path class="cls-1" d="m42.66,56.25c-.76,0-1.52-.19-2.22-.58l-9.33-5.18c-.9-.5-1.98-.5-2.88,0h0l-9.33,5.18c-1.54.86-3.4.76-4.84-.25-1.46-1.02-2.18-2.75-1.9-4.51l1.88-11.58c.15-.92-.15-1.88-.8-2.55l-8.06-8.29c-1.21-1.24-1.61-3.03-1.06-4.68.55-1.64,1.96-2.82,3.67-3.09l10.78-1.65c.98-.15,1.82-.78,2.24-1.68l4.73-10.11c.76-1.63,2.35-2.64,4.15-2.64s3.39,1.01,4.15,2.64l4.73,10.11c.42.9,1.26,1.53,2.24,1.68l10.79,1.66c1.71.26,3.11,1.44,3.66,3.08.55,1.64.14,3.43-1.06,4.67l-8.07,8.3c-.65.67-.95,1.62-.8,2.54l1.88,11.58c.29,1.76-.44,3.49-1.9,4.51-.79.55-1.7.83-2.62.83Zm-12.99-8.14c.83,0,1.66.21,2.41.63l9.33,5.18c.88.49,1.9.44,2.72-.14.83-.59,1.24-1.54,1.07-2.55l-1.88-11.58c-.25-1.54.25-3.14,1.34-4.26l8.07-8.3c.69-.71.92-1.7.6-2.64-.31-.94-1.09-1.59-2.07-1.74l-10.79-1.66c-1.64-.25-3.04-1.3-3.75-2.81l-4.73-10.11c-.44-.93-1.31-1.49-2.33-1.49s-1.9.56-2.34,1.49l-4.73,10.11c-.7,1.5-2.1,2.55-3.75,2.81l-10.78,1.65c-.98.15-1.76.8-2.07,1.75-.32.94-.09,1.93.6,2.65l8.06,8.29c1.09,1.12,1.59,2.71,1.34,4.26l-1.88,11.58c-.16,1.01.24,1.97,1.07,2.55.82.58,1.84.63,2.72.14l9.33-5.18c.76-.42,1.58-.63,2.41-.63Z"/>
</svg>