<?xml version="1.0" encoding="UTF-8"?>
<svg id="Layer_1" data-name="Layer 1" xmlns="http://www.w3.org/2000/svg" viewBox="0 0 60 60">
  <defs>
    <style>
      .cls-1 {
        fill: #37464c;
        stroke-width: 0px;
      }
    </style>
  </defs>
  <polygon class="cls-1" points="41.24 54.65 33.64 54.65 33.64 27.36 23.91 27.36 23.91 54.65 16.31 54.65 16.31 38.12 6.58 38.12 6.58 54.15 5.58 54.15 5.58 37.12 17.31 37.12 17.31 53.65 22.91 53.65 22.91 26.36 34.64 26.36 34.64 53.65 40.24 53.65 40.24 16.59 34.81 16.59 46.11 3.11 57.41 16.59 51.98 16.59 51.98 54.15 50.98 54.15 50.98 15.59 55.27 15.59 46.11 4.67 36.95 15.59 41.24 15.59 41.24 54.65"/>
  <path class="cls-1" d="m51.48,55.15c-.55,0-1-.45-1-1V16.09c0-.55.45-1,1-1h2.72l-8.09-9.65-8.09,9.65h2.72c.55,0,1,.45,1,1v38.06c0,.55-.45,1-1,1h-6.6c-.55,0-1-.45-1-1v-26.29h-8.73v26.29c0,.55-.45,1-1,1h-6.6c-.55,0-1-.45-1-1v-15.53H7.08v15.53c0,.55-.45,1-1,1s-1-.45-1-1v-16.53c0-.55.45-1,1-1h10.73c.55,0,1,.45,1,1v15.53h4.6v-26.29c0-.55.45-1,1-1h10.73c.55,0,1,.45,1,1v26.29h4.6V17.09h-3.86c-.39,0-.74-.23-.91-.58s-.11-.77.14-1.07l10.23-12.21c.38-.45,1.15-.45,1.53,0l10.23,12.21c.25.3.3.71.14,1.07s-.52.58-.91.58h-3.86v37.06c0,.55-.45,1-1,1Z"/>
</svg>