<?xml version="1.0" encoding="UTF-8"?>
<svg id="Layer_1" data-name="Layer 1" xmlns="http://www.w3.org/2000/svg" viewBox="0 0 60 60">
  <defs>
    <style>
      .cls-1 {
        fill: #37464c;
        stroke-width: 0px;
      }
    </style>
  </defs>
  <path class="cls-1" d="m21.98,37h-2c-6.62,0-12-5.38-12-12v-13c0-1.65,1.35-3,3-3h2c.55,0,1,.45,1,1s-.45,1-1,1h-2c-.55,0-1,.45-1,1v13c0,5.51,4.49,10,10,10h2c5.51,0,10-4.49,10-10v-13c0-.55-.45-1-1-1h-2c-.55,0-1-.45-1-1s.45-1,1-1h2c1.65,0,3,1.35,3,3v13c0,6.62-5.38,12-12,12Z"/>
  <path class="cls-1" d="m48.98,26c-3.86,0-7-3.14-7-7s3.14-7,7-7,7,3.14,7,7-3.14,7-7,7Zm0-12c-2.76,0-5,2.24-5,5s2.24,5,5,5,5-2.24,5-5-2.24-5-5-5Z"/>
  <path class="cls-1" d="m48.98,21c-1.1,0-2-.9-2-2s.9-2,2-2,2,.9,2,2-.9,2-2,2Zm0-2h0s0,0,0,0Z"/>
  <path class="cls-1" d="m26.98,13c-1.65,0-3-1.35-3-3s1.35-3,3-3,3,1.35,3,3-1.35,3-3,3Zm0-4c-.55,0-1,.45-1,1s.45,1,1,1,1-.45,1-1-.45-1-1-1Z"/>
  <path class="cls-1" d="m14.98,13c-1.65,0-3-1.35-3-3s1.35-3,3-3,3,1.35,3,3-1.35,3-3,3Zm0-4c-.55,0-1,.45-1,1s.45,1,1,1,1-.45,1-1-.45-1-1-1Z"/>
  <path class="cls-1" d="m50.98,55h-21c-5.51,0-10-4.49-10-10v-9c0-.55.45-1,1-1s1,.45,1,1v9c0,4.41,3.59,8,8,8h21c1.65,0,3-1.35,3-3s-1.35-3-3-3h-12.5c-2.48,0-4.5-2.02-4.5-4.5s2.02-4.5,4.5-4.5h6.5c1.65,0,3-1.35,3-3v-10c0-.55.45-1,1-1s1,.45,1,1v10c0,2.76-2.24,5-5,5h-6.5c-1.38,0-2.5,1.12-2.5,2.5s1.12,2.5,2.5,2.5h12.5c2.76,0,5,2.24,5,5s-2.24,5-5,5Z"/>
</svg>