<?xml version="1.0" encoding="UTF-8"?>
<svg id="Layer_1" data-name="Layer 1" xmlns="http://www.w3.org/2000/svg" viewBox="0 0 60 60">
  <defs>
    <style>
      .cls-1 {
        fill: #37464c;
        stroke-width: 0px;
      }
    </style>
  </defs>
  <g>
    <path class="cls-1" d="m28.8,48.21c-6.23,0-11.3-5.07-11.3-11.3v-13.31c0-1.46,1.19-2.64,2.64-2.64.6,0,1.15.2,1.6.54v-.86c0-1.6,1.3-2.9,2.9-2.9.7,0,1.35.25,1.85.67.04-1.83,1.54-3.3,3.37-3.3s3.38,1.51,3.38,3.38h0c.59-.55,1.38-.89,2.26-.89,1.82,0,3.3,1.48,3.3,3.3v12.63l1.52-1.52c1.29-1.29,3.4-1.29,4.69,0,.63.63.97,1.46.97,2.34s-.34,1.72-.97,2.34l-8.21,8.21c-2.14,2.14-4.97,3.31-7.99,3.31Zm-8.66-26.22c-.88,0-1.6.72-1.6,1.6v13.31c0,5.66,4.6,10.26,10.26,10.26,2.74,0,5.32-1.07,7.25-3l8.21-8.21c.43-.43.66-1,.66-1.6s-.24-1.18-.66-1.6c-.88-.88-2.32-.88-3.21,0l-1.77,1.77c-.26.26-.64.34-.98.2-.34-.14-.56-.47-.56-.83v-12.99c0-1.24-1.01-2.26-2.26-2.26s-2.26,1.01-2.26,2.26v8.45c0,.29-.23.52-.52.52s-.52-.23-.52-.52v-10.86c0-1.28-1.04-2.33-2.33-2.33s-2.33,1.04-2.33,2.33v10.75c0,.29-.23.52-.52.52s-.52-.23-.52-.52v-8.59c0-1.02-.83-1.85-1.85-1.85s-1.85.83-1.85,1.85v9.18c0,.29-.23.52-.52.52s-.52-.23-.52-.52v-6.22c0-.88-.72-1.6-1.6-1.6Z"/>
    <path class="cls-1" d="m28.8,48.58c-6.44,0-11.68-5.24-11.68-11.68v-13.31c0-1.66,1.35-3.02,3.02-3.02.43,0,.84.09,1.22.26v-.2c0-1.81,1.47-3.28,3.28-3.28.54,0,1.08.14,1.55.39.34-1.72,1.87-3.02,3.68-3.02s3.35,1.31,3.68,3.04c.58-.36,1.25-.56,1.95-.56,2.03,0,3.68,1.65,3.68,3.68v11.73l.88-.88c.7-.7,1.62-1.08,2.61-1.08s1.91.38,2.61,1.08c.7.7,1.08,1.62,1.08,2.61s-.38,1.91-1.08,2.61l-8.21,8.21c-2.21,2.21-5.14,3.42-8.26,3.42Zm-8.66-27.26c-1.25,0-2.27,1.02-2.27,2.27v13.31c0,6.03,4.9,10.93,10.93,10.93,2.92,0,5.66-1.14,7.73-3.2l8.21-8.21c.56-.55.86-1.29.86-2.08s-.31-1.52-.86-2.08c-1.11-1.11-3.05-1.11-4.16,0l-2.1,2.11c.19.07.4.02.54-.12l1.77-1.77c1.03-1.03,2.71-1.03,3.74,0,.5.5.77,1.16.77,1.87s-.27,1.37-.77,1.87l-8.21,8.21c-2.01,2.01-4.68,3.11-7.52,3.11-5.86,0-10.63-4.77-10.63-10.63v-13.31c0-1.09.88-1.97,1.97-1.97s1.97.88,1.97,1.97v6.22c0,.16.3.16.3,0v-9.18c0-1.23,1-2.23,2.23-2.23s2.23,1,2.23,2.23v8.59c0,.16.3.16.3,0v-10.75c0-1.49,1.21-2.7,2.7-2.7s2.7,1.21,2.7,2.7v10.86c0,.16.3.16.3,0v-8.45c0-1.45,1.18-2.63,2.63-2.63s2.63,1.18,2.63,2.63v12.99c0,.2.12.39.3.47v-13.46c0-1.61-1.31-2.93-2.93-2.93-.74,0-1.45.28-2,.79l-.63.59v-.87c0-1.66-1.35-3-3-3s-2.97,1.32-3,2.94l-.02.78-.6-.5c-.45-.38-1.03-.58-1.61-.58-1.39,0-2.53,1.13-2.53,2.53v1.61l-.6-.46c-.4-.3-.87-.46-1.37-.46Zm0,1.05c-.67,0-1.22.55-1.22,1.22v13.31c0,5.45,4.43,9.88,9.88,9.88,2.64,0,5.12-1.03,6.99-2.89l8.21-8.21c.36-.36.55-.83.55-1.34s-.2-.98-.55-1.34c-.74-.74-1.94-.74-2.68,0l-1.77,1.77c-.37.37-.91.47-1.39.28-.48-.2-.79-.66-.79-1.18v-12.99c0-1.04-.84-1.88-1.88-1.88s-1.88.84-1.88,1.88v8.45c0,.5-.4.9-.9.9s-.9-.4-.9-.9v-10.86c0-1.08-.88-1.95-1.95-1.95s-1.95.88-1.95,1.95v10.75c0,.5-.4.9-.9.9s-.9-.4-.9-.9v-8.59c0-.82-.66-1.48-1.48-1.48s-1.48.66-1.48,1.48v9.18c0,.5-.4.9-.9.9s-.9-.4-.9-.9v-6.22c0-.67-.55-1.22-1.22-1.22Z"/>
  </g>
  <g>
    <path class="cls-1" d="m39.95,54.6h-19.25c-.14,0-.27-.06-.37-.15l-12.78-12.78c-.1-.1-.15-.23-.15-.37v-19.3c0-.14.06-.27.15-.37l12.78-12.78c.1-.1.23-.15.37-.15h19.25c.14,0,.27.06.37.15l13.19,13.19c.1.1.15.23.15.37v18.48c0,.14-.06.27-.15.37l-13.19,13.19c-.1.1-.23.15-.37.15Zm-19.03-1.05h18.82l12.88-12.88v-18.04l-12.88-12.88h-18.82l-12.47,12.47v18.87l12.47,12.47Z"/>
    <path class="cls-1" d="m39.95,54.98h-19.25c-.24,0-.47-.1-.63-.26l-12.78-12.78c-.17-.17-.26-.4-.26-.64v-19.3c0-.24.09-.46.26-.63l12.78-12.78c.17-.17.4-.26.64-.26h19.25c.24,0,.46.09.63.26l13.19,13.19c.17.17.26.4.26.63v18.48c0,.24-.09.46-.26.63l-13.19,13.19c-.17.17-.4.26-.63.26ZM20.7,9.07s-.08.02-.11.04l-12.78,12.78s-.04.07-.04.1v19.3s.02.08.04.11l12.78,12.78s.07.04.1.04h19.25s.08-.02.1-.04l13.19-13.19s.04-.06.04-.1v-18.48s-.02-.08-.04-.1l-13.19-13.19s-.07-.04-.1-.04h-19.25Zm19.19,44.86h-19.13l-12.69-12.69v-19.18l12.69-12.69h19.13l13.1,13.1v18.36l-13.1,13.1Zm-18.82-.75h18.51l12.66-12.66v-17.73l-12.66-12.66h-18.51l-12.25,12.25v18.56l12.25,12.25Z"/>
  </g>
</svg>