<?xml version="1.0" encoding="UTF-8"?>
<svg id="Layer_1" data-name="Layer 1" xmlns="http://www.w3.org/2000/svg" viewBox="0 0 60 60">
  <defs>
    <style>
      .cls-1 {
        fill: #37464c;
        stroke-width: 0px;
      }
    </style>
  </defs>
  <path class="cls-1" d="m30,56c-12.13,0-22-9.87-22-22S17.87,12,30,12s22,9.87,22,22-9.87,22-22,22Zm0-42c-11.03,0-20,8.97-20,20s8.97,20,20,20,20-8.97,20-20-8.97-20-20-20Z"/>
  <path class="cls-1" d="m30,38c-2.21,0-4-1.79-4-4s1.79-4,4-4,4,1.79,4,4-1.79,4-4,4Zm0-6c-1.1,0-2,.9-2,2s.9,2,2,2,2-.9,2-2-.9-2-2-2Z"/>
  <path class="cls-1" d="m10.2,19.44c-.26,0-.51-.1-.71-.29-.39-.39-.39-1.02,0-1.41l4.24-4.24c.39-.39,1.02-.39,1.41,0s.39,1.02,0,1.41l-4.24,4.24c-.2.2-.45.29-.71.29Z"/>
  <path class="cls-1" d="m49.8,19.44c-.26,0-.51-.1-.71-.29l-4.24-4.24c-.39-.39-.39-1.02,0-1.41s1.02-.39,1.41,0l4.24,4.24c.39.39.39,1.02,0,1.41-.2.2-.45.29-.71.29Z"/>
  <rect class="cls-1" x="26" y="9" width="2" height="4.24"/>
  <path class="cls-1" d="m33,14.2c-.55,0-1-.45-1-1v-4.2c0-.55.45-1,1-1h3v-2h-12v2h5c.55,0,1,.45,1,1s-.45,1-1,1h-5c-1.1,0-2-.9-2-2v-2c0-1.1.9-2,2-2h12c1.1,0,2,.9,2,2v2c0,1.1-.9,2-2,2h-2v3.2c0,.55-.45,1-1,1Z"/>
  <path class="cls-1" d="m30,20c-.55,0-1-.45-1-1v-2c0-.55.45-1,1-1s1,.45,1,1v2c0,.55-.45,1-1,1Z"/>
  <path class="cls-1" d="m22.5,22.01c-.35,0-.68-.18-.87-.5l-1-1.73c-.28-.48-.11-1.09.37-1.37.48-.28,1.09-.11,1.37.37l1,1.73c.28.48.11,1.09-.37,1.37-.16.09-.33.13-.5.13Z"/>
  <path class="cls-1" d="m30,52c-.55,0-1-.45-1-1v-2c0-.55.45-1,1-1s1,.45,1,1v2c0,.55-.45,1-1,1Z"/>
  <path class="cls-1" d="m37.5,22.01c-.17,0-.34-.04-.5-.13-.48-.28-.64-.89-.37-1.37l1-1.73c.28-.48.89-.64,1.37-.37.48.28.64.89.37,1.37l-1,1.73c-.19.32-.52.5-.87.5Z"/>
  <path class="cls-1" d="m21.5,49.72c-.17,0-.34-.04-.5-.13-.48-.28-.64-.89-.37-1.37l1-1.73c.28-.48.89-.64,1.37-.37.48.28.64.89.37,1.37l-1,1.73c-.19.32-.52.5-.87.5Z"/>
  <path class="cls-1" d="m38.5,49.72c-.35,0-.68-.18-.87-.5l-1-1.73c-.28-.48-.11-1.09.37-1.37.48-.28,1.09-.11,1.37.37l1,1.73c.28.48.11,1.09-.37,1.37-.16.09-.33.13-.5.13Z"/>
  <path class="cls-1" d="m15,35h-2c-.55,0-1-.45-1-1s.45-1,1-1h2c.55,0,1,.45,1,1s-.45,1-1,1Z"/>
  <path class="cls-1" d="m15.28,43.5c-.35,0-.68-.18-.87-.5-.28-.48-.11-1.09.37-1.37l1.73-1c.48-.28,1.09-.11,1.37.37.28.48.11,1.09-.37,1.37l-1.73,1c-.16.09-.33.13-.5.13Z"/>
  <path class="cls-1" d="m47,35h-2c-.55,0-1-.45-1-1s.45-1,1-1h2c.55,0,1,.45,1,1s-.45,1-1,1Z"/>
  <path class="cls-1" d="m17.01,27.5c-.17,0-.34-.04-.5-.13l-1.73-1c-.48-.28-.64-.89-.37-1.37.28-.48.89-.64,1.37-.37l1.73,1c.48.28.64.89.37,1.37-.19.32-.52.5-.87.5Z"/>
  <path class="cls-1" d="m44.72,43.5c-.17,0-.34-.04-.5-.13l-1.73-1c-.48-.28-.64-.89-.37-1.37.28-.48.89-.64,1.37-.37l1.73,1c.48.28.64.89.37,1.37-.19.32-.52.5-.87.5Z"/>
  <path class="cls-1" d="m32.6,33.51c-.35,0-.68-.18-.87-.5-.28-.48-.11-1.09.37-1.37l12.12-7.01c.48-.28,1.09-.11,1.37.37.28.48.11,1.09-.37,1.37l-12.12,7.01c-.16.09-.33.13-.5.13Z"/>
</svg>