<?xml version="1.0" encoding="UTF-8"?>
<svg id="Layer_1" data-name="Layer 1" xmlns="http://www.w3.org/2000/svg" viewBox="0 0 60 60">
  <defs>
    <style>
      .cls-1 {
        fill: #37464c;
        stroke-width: 0px;
      }
    </style>
  </defs>
  <g>
    <g>
      <path class="cls-1" d="m30,54.83c-11.95,0-21.66-9.72-21.66-21.66S18.05,11.5,30,11.5s21.66,9.72,21.66,21.66-9.72,21.66-21.66,21.66Zm0-42.22c-11.33,0-20.55,9.22-20.55,20.55s9.22,20.55,20.55,20.55,20.55-9.22,20.55-20.55-9.22-20.55-20.55-20.55Z"/>
      <path class="cls-1" d="m30,55.2c-12.15,0-22.04-9.89-22.04-22.04S17.85,11.13,30,11.13s22.04,9.89,22.04,22.04-9.89,22.04-22.04,22.04Zm0-43.33c-11.74,0-21.29,9.55-21.29,21.29s9.55,21.29,21.29,21.29,21.29-9.55,21.29-21.29-9.55-21.29-21.29-21.29Zm0,42.22c-11.54,0-20.93-9.39-20.93-20.93S18.46,12.24,30,12.24s20.93,9.39,20.93,20.93-9.39,20.93-20.93,20.93Zm0-41.11c-11.13,0-20.18,9.05-20.18,20.18s9.05,20.18,20.18,20.18,20.18-9.05,20.18-20.18-9.05-20.18-20.18-20.18Z"/>
    </g>
    <g>
      <path class="cls-1" d="m30,52.02c-10.39,0-18.85-8.46-18.85-18.85S19.61,14.32,30,14.32s18.85,8.46,18.85,18.85-8.46,18.85-18.85,18.85Zm0-36.59c-9.78,0-17.74,7.96-17.74,17.74s7.96,17.74,17.74,17.74,17.74-7.96,17.74-17.74-7.96-17.74-17.74-17.74Z"/>
      <path class="cls-1" d="m30,52.39c-10.6,0-19.22-8.62-19.22-19.22S19.4,13.94,30,13.94s19.22,8.62,19.22,19.22-8.62,19.22-19.22,19.22Zm0-37.7c-10.19,0-18.47,8.29-18.47,18.47s8.29,18.47,18.47,18.47,18.47-8.29,18.47-18.47-8.29-18.47-18.47-18.47Zm0,36.59c-9.99,0-18.11-8.13-18.11-18.11S20.01,15.05,30,15.05s18.12,8.13,18.12,18.11-8.13,18.11-18.12,18.11Zm0-35.48c-9.57,0-17.36,7.79-17.36,17.36s7.79,17.36,17.36,17.36,17.37-7.79,17.37-17.36-7.79-17.36-17.37-17.36Z"/>
    </g>
    <g>
      <g>
        <path class="cls-1" d="m30,49.44c-.31,0-.55-.25-.55-.55v-2.25c0-.31.25-.55.55-.55s.55.25.55.55v2.25c0,.31-.25.55-.55.55Z"/>
        <path class="cls-1" d="m30,49.82c-.51,0-.93-.42-.93-.93v-2.25c0-.51.42-.93.93-.93s.93.42.93.93v2.25c0,.51-.42.93-.93.93Zm0-3.36c-.1,0-.18.08-.18.18v2.25c0,.2.36.2.36,0v-2.25c0-.1-.08-.18-.18-.18Z"/>
      </g>
      <g>
        <path class="cls-1" d="m30,20.25c-.31,0-.55-.25-.55-.55v-2.25c0-.31.25-.55.55-.55s.55.25.55.55v2.25c0,.31-.25.55-.55.55Z"/>
        <path class="cls-1" d="m30,20.63c-.51,0-.93-.42-.93-.93v-2.25c0-.51.42-.93.93-.93s.93.42.93.93v2.25c0,.51-.42.93-.93.93Zm0-3.36c-.1,0-.18.08-.18.18v2.25c0,.2.36.2.36,0v-2.25c0-.1-.08-.18-.18-.18Z"/>
      </g>
    </g>
    <g>
      <g>
        <path class="cls-1" d="m45.72,33.72h-2.25c-.31,0-.55-.25-.55-.55s.25-.55.55-.55h2.25c.31,0,.55.25.55.55s-.25.55-.55.55Z"/>
        <path class="cls-1" d="m45.72,34.1h-2.25c-.51,0-.93-.42-.93-.93s.42-.93.93-.93h2.25c.51,0,.93.42.93.93s-.42.93-.93.93Zm-2.25-1.11c-.1,0-.18.08-.18.18s.08.18.18.18h2.25c.1,0,.18-.08.18-.18s-.08-.18-.18-.18h-2.25Z"/>
      </g>
      <g>
        <path class="cls-1" d="m16.53,33.72h-2.25c-.31,0-.55-.25-.55-.55s.25-.55.55-.55h2.25c.31,0,.55.25.55.55s-.25.55-.55.55Z"/>
        <path class="cls-1" d="m16.53,34.1h-2.25c-.51,0-.93-.42-.93-.93s.42-.93.93-.93h2.25c.51,0,.93.42.93.93s-.42.93-.93.93Zm-2.25-1.11c-.1,0-.18.08-.18.18s.08.18.18.18h2.25c.1,0,.18-.08.18-.18s-.08-.18-.18-.18h-2.25Z"/>
      </g>
    </g>
    <g>
      <path class="cls-1" d="m30,35.36c-1.21,0-2.2-.99-2.2-2.2s.99-2.2,2.2-2.2,2.2.99,2.2,2.2-.99,2.2-2.2,2.2Zm0-3.28c-.6,0-1.09.49-1.09,1.09s.49,1.09,1.09,1.09,1.09-.49,1.09-1.09-.49-1.09-1.09-1.09Z"/>
      <path class="cls-1" d="m30,35.74c-1.42,0-2.57-1.15-2.57-2.57s1.15-2.57,2.57-2.57,2.57,1.15,2.57,2.57-1.15,2.57-2.57,2.57Zm0-4.39c-1,0-1.82.82-1.82,1.82s.82,1.82,1.82,1.82,1.82-.82,1.82-1.82-.82-1.82-1.82-1.82Zm0,3.28c-.81,0-1.46-.66-1.46-1.46s.66-1.46,1.46-1.46,1.46.66,1.46,1.46-.66,1.46-1.46,1.46Zm0-2.17c-.39,0-.71.32-.71.71s.32.71.71.71.71-.32.71-.71-.32-.71-.71-.71Z"/>
    </g>
    <g>
      <path class="cls-1" d="m30,32.08c-.31,0-.55-.25-.55-.55v-9.32c0-.31.25-.55.55-.55s.55.25.55.55v9.32c0,.31-.25.55-.55.55Z"/>
      <path class="cls-1" d="m30,32.45c-.51,0-.93-.42-.93-.93v-9.32c0-.51.42-.93.93-.93s.93.42.93.93v9.32c0,.51-.42.93-.93.93Zm0-10.43c-.1,0-.18.08-.18.18v9.32c0,.2.36.2.36,0v-9.32c0-.1-.08-.18-.18-.18Z"/>
    </g>
    <g>
      <path class="cls-1" d="m27.93,33.72h-6.15c-.31,0-.55-.25-.55-.55s.25-.55.55-.55h6.15c.31,0,.55.25.55.55s-.25.55-.55.55Z"/>
      <path class="cls-1" d="m27.93,34.1h-6.14c-.51,0-.93-.42-.93-.93s.42-.93.93-.93h6.14c.51,0,.93.42.93.93s-.42.93-.93.93Zm-6.14-1.11c-.1,0-.18.08-.18.18s.08.18.18.18h6.14c.1,0,.18-.08.18-.18s-.08-.18-.18-.18h-6.14Z"/>
    </g>
  </g>
  <g>
    <path class="cls-1" d="m30,12.61c-.31,0-.55-.25-.55-.55v-6.43c0-.31.25-.55.55-.55s.55.25.55.55v6.43c0,.31-.25.55-.55.55Z"/>
    <path class="cls-1" d="m30,12.99c-.51,0-.93-.42-.93-.93v-6.43c0-.51.42-.93.93-.93s.93.42.93.93v6.43c0,.51-.42.93-.93.93Zm0-7.54c-.1,0-.18.08-.18.18v6.43c0,.2.36.2.36,0v-6.43c0-.1-.08-.18-.18-.18Z"/>
  </g>
  <g>
    <path class="cls-1" d="m34.86,6.18h-9.72c-.31,0-.55-.25-.55-.55s.25-.55.55-.55h9.72c.31,0,.55.25.55.55s-.25.55-.55.55Z"/>
    <path class="cls-1" d="m34.86,6.55h-9.72c-.51,0-.93-.42-.93-.93s.42-.93.93-.93h9.72c.51,0,.93.42.93.93s-.42.93-.93.93Zm-9.72-1.11c-.1,0-.18.08-.18.18s.08.18.18.18h9.72c.1,0,.18-.08.18-.18s-.08-.18-.18-.18h-9.72Z"/>
  </g>
</svg>