<svg width="152" height="152" xmlns="http://www.w3.org/2000/svg" xmlns:xlink="http://www.w3.org/1999/xlink" xml:space="preserve" overflow="hidden"><g transform="translate(-117 -408)"><path d="M147.4 453.6C141.801 453.6 137.267 449.065 137.267 443.467 137.267 437.868 141.801 433.333 147.4 433.333 152.999 433.333 157.533 437.868 157.533 443.467 157.533 449.065 152.999 453.6 147.4 453.6ZM147.4 438.4C144.613 438.4 142.333 440.68 142.333 443.467 142.333 446.253 144.613 448.533 147.4 448.533 150.187 448.533 152.467 446.253 152.467 443.467 152.467 440.68 150.187 438.4 147.4 438.4Z" fill="#6100DC"/><path d="M238.6 473.867C233.001 473.867 228.467 469.332 228.467 463.733 228.467 458.135 233.001 453.6 238.6 453.6 244.199 453.6 248.733 458.135 248.733 463.733 248.733 469.332 244.199 473.867 238.6 473.867ZM238.6 458.667C235.813 458.667 233.533 460.947 233.533 463.733 233.533 466.52 235.813 468.8 238.6 468.8 241.387 468.8 243.667 466.52 243.667 463.733 243.667 460.947 241.387 458.667 238.6 458.667Z" fill="#6100DC"/><path d="M147.4 534.667C141.801 534.667 137.267 530.132 137.267 524.533 137.267 518.935 141.801 514.4 147.4 514.4 152.999 514.4 157.533 518.935 157.533 524.533 157.533 530.132 152.999 534.667 147.4 534.667ZM147.4 519.467C144.613 519.467 142.333 521.747 142.333 524.533 142.333 527.32 144.613 529.6 147.4 529.6 150.187 529.6 152.467 527.32 152.467 524.533 152.467 521.747 150.187 519.467 147.4 519.467Z" fill="#6100DC"/><path d="M238.6 514.4C233.001 514.4 228.467 509.865 228.467 504.267 228.467 498.668 233.001 494.133 238.6 494.133 244.199 494.133 248.733 498.668 248.733 504.267 248.733 509.865 244.199 514.4 238.6 514.4ZM238.6 499.2C235.813 499.2 233.533 501.48 233.533 504.267 233.533 507.053 235.813 509.333 238.6 509.333 241.387 509.333 243.667 507.053 243.667 504.267 243.667 501.48 241.387 499.2 238.6 499.2Z" fill="#6100DC"/><path d="M147.4 494.133C141.801 494.133 137.267 489.599 137.267 484 137.267 478.401 141.801 473.867 147.4 473.867 152.999 473.867 157.533 478.401 157.533 484 157.533 489.599 152.999 494.133 147.4 494.133ZM147.4 478.933C144.613 478.933 142.333 481.213 142.333 484 142.333 486.787 144.613 489.067 147.4 489.067 150.187 489.067 152.467 486.787 152.467 484 152.467 481.213 150.187 478.933 147.4 478.933Z" fill="#6100DC"/><path d="M193 433.333C187.401 433.333 182.867 428.799 182.867 423.2 182.867 417.601 187.401 413.067 193 413.067 198.599 413.067 203.133 417.601 203.133 423.2 203.133 428.799 198.599 433.333 193 433.333ZM193 418.133C190.213 418.133 187.933 420.413 187.933 423.2 187.933 425.987 190.213 428.267 193 428.267 195.787 428.267 198.067 425.987 198.067 423.2 198.067 420.413 195.787 418.133 193 418.133Z" fill="#6100DC"/><path d="M193 514.4C187.401 514.4 182.867 509.865 182.867 504.267 182.867 498.668 187.401 494.133 193 494.133 198.599 494.133 203.133 498.668 203.133 504.267 203.133 509.865 198.599 514.4 193 514.4ZM193 499.2C190.213 499.2 187.933 501.48 187.933 504.267 187.933 507.053 190.213 509.333 193 509.333 195.787 509.333 198.067 507.053 198.067 504.267 198.067 501.48 195.787 499.2 193 499.2Z" fill="#6100DC"/><path d="M193 554.933C187.401 554.933 182.867 550.399 182.867 544.8 182.867 539.201 187.401 534.667 193 534.667 198.599 534.667 203.133 539.201 203.133 544.8 203.133 550.399 198.599 554.933 193 554.933ZM193 539.733C190.213 539.733 187.933 542.013 187.933 544.8 187.933 547.587 190.213 549.867 193 549.867 195.787 549.867 198.067 547.587 198.067 544.8 198.067 542.013 195.787 539.733 193 539.733Z" fill="#6100DC"/><path d="M193 473.867C187.401 473.867 182.867 469.332 182.867 463.733 182.867 458.135 187.401 453.6 193 453.6 198.599 453.6 203.133 458.135 203.133 463.733 203.133 469.332 198.599 473.867 193 473.867ZM193 458.667C190.213 458.667 187.933 460.947 187.933 463.733 187.933 466.52 190.213 468.8 193 468.8 195.787 468.8 198.067 466.52 198.067 463.733 198.067 460.947 195.787 458.667 193 458.667Z" fill="#6100DC"/><path d="M184.007 465.836 153.607 445.569C152.897 445.088 152.467 444.303 152.467 443.467 152.467 442.631 152.897 441.82 153.607 441.364L184.007 421.097 186.819 425.303 159.585 443.467 186.819 461.631 184.007 465.836Z" fill="#6100DC"/><path d="M228.973 465.253C228.619 464.797 228.467 464.265 228.467 463.733L228.467 463.733C228.467 462.973 228.821 462.213 229.48 461.707L229.48 461.707C230.595 460.871 232.191 461.099 233.027 462.213L233.027 462.213C233.381 462.669 233.533 463.201 233.533 463.733L233.533 463.733C233.533 464.493 233.179 465.253 232.52 465.76L232.52 465.76C232.064 466.115 231.532 466.267 231 466.267L231 466.267C230.24 466.267 229.48 465.912 228.973 465.253ZM222.893 457.147C222.539 456.691 222.387 456.159 222.387 455.627L222.387 455.627C222.387 454.867 222.741 454.107 223.4 453.6L223.4 453.6C224.515 452.764 226.111 452.992 226.947 454.107L226.947 454.107C227.276 454.563 227.453 455.095 227.453 455.627L227.453 455.627C227.453 456.387 227.099 457.147 226.44 457.653L226.44 457.653C225.984 457.983 225.452 458.16 224.92 458.16L224.92 458.16C224.16 458.16 223.4 457.805 222.893 457.147ZM216.813 449.04C216.459 448.584 216.307 448.052 216.307 447.52L216.307 447.52C216.307 446.76 216.661 446 217.32 445.493L217.32 445.493C218.435 444.657 220.031 444.885 220.867 446L220.867 446C221.196 446.456 221.373 446.988 221.373 447.52L221.373 447.52C221.373 448.28 221.019 449.04 220.36 449.547L220.36 449.547C219.904 449.876 219.372 450.053 218.84 450.053L218.84 450.053C218.08 450.053 217.32 449.699 216.813 449.04ZM210.733 440.933C210.379 440.477 210.227 439.945 210.227 439.413L210.227 439.413C210.227 438.653 210.581 437.893 211.24 437.387L211.24 437.387C212.355 436.551 213.951 436.779 214.787 437.893L214.787 437.893C215.116 438.349 215.293 438.881 215.293 439.413L215.293 439.413C215.293 440.173 214.939 440.933 214.28 441.44L214.28 441.44C213.824 441.769 213.292 441.947 212.76 441.947L212.76 441.947C212 441.947 211.24 441.592 210.733 440.933ZM204.653 432.827C204.299 432.371 204.147 431.839 204.147 431.307L204.147 431.307C204.147 430.547 204.501 429.787 205.16 429.28L205.16 429.28C206.275 428.444 207.871 428.672 208.707 429.787L208.707 429.787C209.036 430.243 209.213 430.775 209.213 431.307L209.213 431.307C209.213 432.067 208.859 432.827 208.2 433.333L208.2 433.333C207.744 433.663 207.212 433.84 206.68 433.84L206.68 433.84C205.92 433.84 205.16 433.485 204.653 432.827ZM198.573 424.72C198.219 424.264 198.067 423.732 198.067 423.2L198.067 423.2C198.067 422.44 198.421 421.68 199.08 421.173L199.08 421.173C200.195 420.337 201.791 420.565 202.627 421.68L202.627 421.68C202.956 422.136 203.133 422.668 203.133 423.2L203.133 423.2C203.133 423.96 202.779 424.72 202.12 425.227L202.12 425.227C201.664 425.581 201.132 425.733 200.6 425.733L200.6 425.733C199.84 425.733 199.08 425.379 198.573 424.72Z" fill="#6100DC"/><path d="M200.6 501.733 231 501.733 231 506.8 200.6 506.8Z" fill="#6100DC"/><path d="M200.6 461.2 231 461.2 231 466.267 200.6 466.267Z" fill="#6100DC"/><path d="M198.572 543.279 228.979 502.751 233.032 505.791 202.624 546.319Z" fill="#6100DC"/><path d="M178.889 543.508C178.155 543.027 177.749 542.216 177.749 541.405L177.749 541.405C177.749 540.924 177.901 540.417 178.18 539.987L178.18 539.987C178.965 538.821 180.536 538.517 181.701 539.277L181.701 539.277C182.436 539.784 182.816 540.569 182.816 541.38L182.816 541.38C182.841 541.861 182.689 542.368 182.411 542.799L182.411 542.799C181.904 543.533 181.119 543.939 180.283 543.939L180.283 543.939C179.801 543.939 179.32 543.787 178.889 543.508ZM170.453 537.884C169.719 537.403 169.339 536.592 169.339 535.781L169.339 535.781C169.313 535.3 169.465 534.819 169.744 534.363L169.744 534.363C170.529 533.197 172.1 532.893 173.265 533.653L173.265 533.653C174 534.16 174.38 534.945 174.405 535.756L174.405 535.756C174.405 536.263 174.253 536.744 173.975 537.175L173.975 537.175C173.493 537.909 172.683 538.315 171.872 538.315L171.872 538.315C171.365 538.315 170.884 538.163 170.453 537.884ZM162.017 532.26C161.308 531.779 160.903 530.993 160.903 530.157L160.903 530.157C160.903 529.676 161.029 529.195 161.333 528.739L161.333 528.739C162.093 527.573 163.664 527.269 164.829 528.055L164.829 528.055C165.564 528.536 165.969 529.321 165.969 530.132L165.969 530.132C165.969 530.639 165.817 531.12 165.539 531.551L165.539 531.551C165.057 532.285 164.247 532.691 163.436 532.691L163.436 532.691C162.955 532.691 162.448 532.564 162.017 532.26ZM153.607 526.636C152.872 526.155 152.467 525.369 152.467 524.559L152.467 524.559C152.467 524.052 152.593 523.571 152.897 523.14L152.897 523.14C153.657 521.975 155.253 521.645 156.393 522.431L156.393 522.431C157.128 522.912 157.533 523.697 157.533 524.533L157.533 524.533C157.533 525.015 157.407 525.496 157.103 525.927L157.103 525.927C156.621 526.661 155.811 527.067 155 527.067L155 527.067C154.519 527.067 154.037 526.94 153.607 526.636Z" fill="#6100DC"/><path d="M153.598 522.417 183.994 502.154 186.804 506.37 156.409 526.633Z" fill="#6100DC"/><path d="M152.897 485.393C152.593 484.963 152.467 484.481 152.467 483.975L152.467 483.975C152.467 483.164 152.872 482.379 153.607 481.897L153.607 481.897C154.747 481.112 156.317 481.441 157.103 482.607L157.103 482.607C157.407 483.037 157.533 483.519 157.533 484.025L157.533 484.025C157.533 484.836 157.128 485.621 156.393 486.103L156.393 486.103C155.963 486.381 155.481 486.533 155 486.533L155 486.533C154.189 486.533 153.379 486.128 152.897 485.393ZM161.333 479.795C161.029 479.339 160.903 478.857 160.903 478.376L160.903 478.376C160.903 477.54 161.308 476.755 162.017 476.273L162.017 476.273C163.183 475.488 164.753 475.817 165.539 476.983L165.539 476.983C165.817 477.413 165.969 477.895 165.969 478.401L165.969 478.401C165.969 479.212 165.564 479.997 164.829 480.479L164.829 480.479C164.399 480.783 163.917 480.909 163.436 480.909L163.436 480.909C162.625 480.909 161.815 480.504 161.333 479.795ZM169.744 474.171C169.465 473.715 169.313 473.233 169.339 472.752L169.339 472.752C169.339 471.941 169.719 471.131 170.453 470.649L170.453 470.649C171.619 469.864 173.189 470.193 173.975 471.359L173.975 471.359C174.253 471.789 174.405 472.271 174.405 472.777L174.405 472.777C174.38 473.588 174 474.373 173.265 474.88L173.265 474.88C172.835 475.159 172.353 475.285 171.872 475.285L171.872 475.285C171.036 475.285 170.251 474.905 169.744 474.171ZM178.18 468.547C177.901 468.116 177.749 467.609 177.749 467.128L177.749 467.128C177.749 466.317 178.155 465.507 178.889 465.025L178.889 465.025C180.055 464.24 181.625 464.569 182.411 465.735L182.411 465.735C182.689 466.165 182.841 466.672 182.816 467.153L182.816 467.153C182.816 467.964 182.436 468.749 181.701 469.256L181.701 469.256C181.271 469.535 180.789 469.661 180.283 469.661L180.283 469.661C179.472 469.661 178.661 469.281 178.18 468.547Z" fill="#6100DC"/><path d="M153.593 486.101 156.404 481.885 186.799 502.149 183.988 506.365Z" fill="#6100DC"/><path d="M199.08 506.293C198.421 505.787 198.067 505.027 198.067 504.267L198.067 504.267C198.067 503.735 198.219 503.203 198.573 502.747L198.573 502.747C199.409 501.632 201.005 501.404 202.12 502.24L202.12 502.24C202.779 502.747 203.133 503.507 203.133 504.267L203.133 504.267C203.133 504.799 202.956 505.331 202.627 505.787L202.627 505.787C202.12 506.445 201.36 506.8 200.6 506.8L200.6 506.8C200.068 506.8 199.536 506.648 199.08 506.293ZM205.16 498.187C204.501 497.68 204.147 496.92 204.147 496.16L204.147 496.16C204.147 495.628 204.299 495.096 204.653 494.64L204.653 494.64C205.489 493.525 207.085 493.297 208.2 494.133L208.2 494.133C208.859 494.64 209.213 495.4 209.213 496.16L209.213 496.16C209.213 496.692 209.036 497.224 208.707 497.68L208.707 497.68C208.2 498.339 207.44 498.693 206.68 498.693L206.68 498.693C206.148 498.693 205.616 498.541 205.16 498.187ZM211.24 490.08C210.581 489.573 210.227 488.813 210.227 488.053L210.227 488.053C210.227 487.521 210.379 486.989 210.733 486.533L210.733 486.533C211.569 485.419 213.165 485.191 214.28 486.027L214.28 486.027C214.939 486.533 215.293 487.293 215.293 488.053L215.293 488.053C215.293 488.585 215.116 489.117 214.787 489.573L214.787 489.573C214.28 490.232 213.52 490.587 212.76 490.587L212.76 490.587C212.228 490.587 211.696 490.409 211.24 490.08ZM217.32 481.973C216.661 481.467 216.307 480.707 216.307 479.947L216.307 479.947C216.307 479.415 216.459 478.883 216.813 478.427L216.813 478.427C217.649 477.312 219.245 477.084 220.36 477.92L220.36 477.92C221.019 478.427 221.373 479.187 221.373 479.947L221.373 479.947C221.373 480.479 221.196 481.011 220.867 481.467L220.867 481.467C220.36 482.125 219.6 482.48 218.84 482.48L218.84 482.48C218.308 482.48 217.776 482.303 217.32 481.973ZM223.4 473.867C222.741 473.36 222.387 472.6 222.387 471.84L222.387 471.84C222.387 471.308 222.539 470.776 222.893 470.32L222.893 470.32C223.729 469.205 225.325 468.977 226.44 469.813L226.44 469.813C227.099 470.32 227.453 471.08 227.453 471.84L227.453 471.84C227.453 472.372 227.276 472.904 226.947 473.36L226.947 473.36C226.44 474.019 225.68 474.373 224.92 474.373L224.92 474.373C224.388 474.373 223.856 474.221 223.4 473.867ZM229.48 465.76C228.821 465.253 228.467 464.493 228.467 463.733L228.467 463.733C228.467 463.201 228.619 462.669 228.973 462.213L228.973 462.213C229.809 461.099 231.405 460.871 232.52 461.707L232.52 461.707C233.179 462.213 233.533 462.973 233.533 463.733L233.533 463.733C233.533 464.265 233.381 464.797 233.027 465.253L233.027 465.253C232.52 465.912 231.76 466.267 231 466.267L231 466.267C230.468 466.267 229.936 466.115 229.48 465.76Z" fill="#6100DC"/></g></svg>