<?xml version="1.0" encoding="UTF-8"?>
<svg id="Layer_1" data-name="Layer 1" xmlns="http://www.w3.org/2000/svg" viewBox="0 0 60 60">
  <defs>
    <style>
      .cls-1 {
        fill: #37464c;
        stroke-width: 0px;
      }
    </style>
  </defs>
  <path class="cls-1" d="m14.18,42.16H6.18c-.55,0-1-.45-1-1v-14c0-.55.45-1,1-1h8c.55,0,1,.45,1,1v14c0,.55-.45,1-1,1Zm-7-2h6v-12h-6v12Z"/>
  <path class="cls-1" d="m28.18,36.16h-8c-.55,0-1-.45-1-1V9.16c0-.55.45-1,1-1h8c.55,0,1,.45,1,1v26c0,.55-.45,1-1,1Zm-7-2h6V10.16h-6v24Z"/>
  <path class="cls-1" d="m56.18,36.16h-8c-.55,0-1-.45-1-1V15.16c0-.55.45-1,1-1h8c.55,0,1,.45,1,1v20c0,.55-.45,1-1,1Zm-7-2h6v-18h-6v18Z"/>
  <path class="cls-1" d="m42.18,50.16h-8c-.55,0-1-.45-1-1v-18c0-.55.45-1,1-1h8c.55,0,1,.45,1,1v18c0,.55-.45,1-1,1Zm-7-2h6v-16h-6v16Z"/>
  <path class="cls-1" d="m24.18,10.16c-.55,0-1-.45-1-1v-4c0-.55.45-1,1-1s1,.45,1,1v4c0,.55-.45,1-1,1Z"/>
  <path class="cls-1" d="m10.18,28.16c-.55,0-1-.45-1-1v-12c0-.55.45-1,1-1s1,.45,1,1v12c0,.55-.45,1-1,1Z"/>
  <path class="cls-1" d="m24.18,46.16c-.55,0-1-.45-1-1v-10c0-.55.45-1,1-1s1,.45,1,1v10c0,.55-.45,1-1,1Z"/>
  <path class="cls-1" d="m52.18,16.16c-.55,0-1-.45-1-1v-6c0-.55.45-1,1-1s1,.45,1,1v6c0,.55-.45,1-1,1Z"/>
  <path class="cls-1" d="m38.18,56.16c-.55,0-1-.45-1-1v-6c0-.55.45-1,1-1s1,.45,1,1v6c0,.55-.45,1-1,1Z"/>
  <path class="cls-1" d="m10.18,48.16c-.55,0-1-.45-1-1v-6c0-.55.45-1,1-1s1,.45,1,1v6c0,.55-.45,1-1,1Z"/>
  <path class="cls-1" d="m52.18,46.16c-.55,0-1-.45-1-1v-10c0-.55.45-1,1-1s1,.45,1,1v10c0,.55-.45,1-1,1Z"/>
  <path class="cls-1" d="m38.18,32.16c-.55,0-1-.45-1-1V15.16c0-.55.45-1,1-1s1,.45,1,1v16c0,.55-.45,1-1,1Z"/>
</svg>