<?xml version="1.0" encoding="UTF-8"?>
<svg id="Layer_1" data-name="Layer 1" xmlns="http://www.w3.org/2000/svg" viewBox="0 0 60 60">
  <defs>
    <style>
      .cls-1 {
        fill: #37464c;
        stroke-width: 0px;
      }
    </style>
  </defs>
  <g>
    <path class="cls-1" d="m47.5,56.19h-.03l-33.35-.19c-2.38-.01-4.3-1.96-4.28-4.33l.25-43.36c0-1.15.46-2.23,1.28-3.04.81-.8,1.89-1.24,3.03-1.24h.03l33.35.19c2.38.01,4.3,1.96,4.28,4.33l-.25,43.36c0,1.15-.46,2.23-1.28,3.04-.81.8-1.89,1.24-3.03,1.24ZM14.4,5.21c-.83,0-1.6.32-2.19.9-.59.59-.92,1.37-.93,2.2l-.25,43.36c0,1.72,1.38,3.13,3.1,3.14l33.35.19h.02c.83,0,1.6-.32,2.19-.9.59-.59.92-1.37.93-2.2l.25-43.36c0-1.72-1.38-3.13-3.1-3.14l-33.35-.19h-.02Z"/>
    <path class="cls-1" d="m47.5,56.56h-.03l-33.35-.19c-2.58-.01-4.67-2.13-4.66-4.71l.25-43.36c0-1.25.5-2.42,1.39-3.3.88-.87,2.05-1.35,3.29-1.35l33.38.19c2.58.01,4.67,2.13,4.66,4.71l-.25,43.36c0,1.25-.5,2.42-1.39,3.3-.88.87-2.05,1.35-3.29,1.35ZM14.42,4.4c-1.06,0-2.05.4-2.79,1.14-.75.74-1.16,1.72-1.17,2.77l-.25,43.36c-.01,2.17,1.74,3.94,3.91,3.96l33.35.19.02.38v-.38c1.04,0,2.02-.4,2.76-1.14.75-.74,1.16-1.72,1.17-2.77l.25-43.36c.01-2.17-1.74-3.94-3.91-3.96l-33.35-.19Zm33.08,50.97l-33.37-.19c-1.93-.01-3.48-1.59-3.47-3.51l.25-43.36c0-.93.37-1.81,1.04-2.46.66-.65,1.53-1.01,2.45-1.01h.02l33.35.19c.93,0,1.81.37,2.46,1.04.66.66,1.02,1.54,1.01,2.47l-.25,43.36c0,.93-.37,1.81-1.04,2.46-.66.65-1.53,1.01-2.45,1.01ZM14.4,5.21v.38c-.73,0-1.41.28-1.93.79-.52.52-.81,1.2-.81,1.93l-.25,43.36c0,1.51,1.21,2.75,2.73,2.76l33.35.19c.74,0,1.43-.28,1.94-.79.52-.52.81-1.2.81-1.93l.25-43.36c0-1.51-1.21-2.75-2.73-2.76l-33.35-.19-.02-.38Z"/>
  </g>
  <g>
    <path class="cls-1" d="m48.64,50.29h0l-35.59-.2c-.33,0-.59-.27-.59-.6l.22-38.97c0-.16.06-.31.18-.42.11-.11.26-.17.42-.17l35.59.2c.33,0,.59.27.59.6l-.22,38.97c0,.16-.06.31-.18.42-.11.11-.26.17-.42.17Zm-34.99-1.39l34.4.2.22-37.78-34.4-.2-.22,37.78Z"/>
    <path class="cls-1" d="m48.64,50.66h0l-35.59-.2c-.53,0-.97-.44-.96-.98l.22-38.97c0-.25.11-.5.29-.68.18-.18.41-.27.68-.28l35.6.2c.53,0,.97.44.96.98l-.22,38.97c0,.26-.1.5-.29.68-.18.18-.43.28-.68.28ZM13.27,10.3c-.06,0-.11.02-.16.06-.04.04-.06.1-.06.15l-.22,38.97c0,.12.1.22.22.22l35.59.2v.38s0-.38,0-.38c.06,0,.11-.02.16-.06.04-.04.06-.1.06-.16l.22-38.97c0-.12-.1-.22-.22-.22l-35.59-.2Zm35.15,39.17l-35.15-.2.22-38.53,35.15.2-.22,38.53Zm-34.4-.95l33.65.19.21-37.03-33.65-.19-.21,37.03Z"/>
  </g>
</svg>