<?xml version="1.0" encoding="UTF-8"?>
<svg id="Layer_1" data-name="Layer 1" xmlns="http://www.w3.org/2000/svg" viewBox="0 0 60 60">
  <defs>
    <style>
      .cls-1 {
        fill: #37464c;
        stroke-width: 0px;
      }
    </style>
  </defs>
  <g>
    <path class="cls-1" d="m27.8,56.59c-4.5,0-8.16-3.66-8.16-8.15,0-2.23.92-4.36,2.53-5.9V9.67c0-3.1,2.53-5.63,5.63-5.63s5.63,2.52,5.63,5.63v32.87c1.61,1.54,2.53,3.67,2.53,5.9,0,4.49-3.66,8.15-8.16,8.15Zm0-51.34c-2.44,0-4.43,1.99-4.43,4.43v33.13c0,.17-.07.33-.2.45-1.48,1.32-2.33,3.21-2.33,5.19,0,3.83,3.12,6.95,6.96,6.95s6.96-3.12,6.96-6.95c0-1.98-.85-3.87-2.33-5.19-.13-.11-.2-.28-.2-.45V9.67c0-2.44-1.99-4.43-4.43-4.43Z"/>
    <path class="cls-1" d="m27.79,56.96c-4.71,0-8.54-3.83-8.54-8.53,0-2.26.92-4.46,2.53-6.05V9.67c0-3.31,2.7-6,6.01-6s6.01,2.69,6.01,6v32.71c1.61,1.59,2.53,3.79,2.53,6.05,0,4.7-3.83,8.53-8.54,8.53Zm0-52.54c-2.9,0-5.26,2.36-5.26,5.25v33.03l-.12.11c-1.53,1.46-2.41,3.51-2.41,5.62,0,4.29,3.49,7.78,7.79,7.78s7.79-3.49,7.79-7.78c0-2.11-.88-4.16-2.41-5.62l-.12-.11V9.67c0-2.9-2.36-5.25-5.26-5.25Zm0,51.34c-4.04,0-7.33-3.29-7.33-7.33,0-2.08.89-4.08,2.45-5.47.05-.04.08-.1.08-.17V9.67c0-2.65,2.16-4.8,4.81-4.8s4.81,2.15,4.81,4.8v33.13c0,.06.03.12.08.17,1.56,1.39,2.45,3.38,2.45,5.46,0,4.04-3.29,7.33-7.33,7.33Zm0-50.14c-2.24,0-4.06,1.82-4.06,4.05v33.13c0,.28-.12.54-.33.73-1.4,1.25-2.2,3.04-2.2,4.91,0,3.63,2.95,6.58,6.58,6.58s6.58-2.95,6.58-6.58c0-1.87-.8-3.66-2.2-4.91-.21-.19-.33-.45-.33-.73V9.67c0-2.23-1.82-4.05-4.06-4.05Z"/>
  </g>
  <g>
    <path class="cls-1" d="m27.8,52.46c-2.22,0-4.03-1.81-4.03-4.03s1.81-4.03,4.03-4.03,4.03,1.81,4.03,4.03-1.81,4.03-4.03,4.03Zm0-6.85c-1.56,0-2.83,1.27-2.83,2.83s1.27,2.83,2.83,2.83,2.83-1.27,2.83-2.83-1.27-2.83-2.83-2.83Z"/>
    <path class="cls-1" d="m27.79,52.84c-2.43,0-4.41-1.97-4.41-4.4s1.98-4.4,4.41-4.4,4.41,1.97,4.41,4.4-1.98,4.4-4.41,4.4Zm0-8.05c-2.02,0-3.66,1.64-3.66,3.65s1.64,3.65,3.66,3.65,3.66-1.64,3.66-3.65-1.64-3.65-3.66-3.65Zm0,6.85c-1.77,0-3.21-1.44-3.21-3.2s1.44-3.2,3.21-3.2,3.21,1.44,3.21,3.2-1.44,3.2-3.21,3.2Zm0-5.65c-1.35,0-2.46,1.1-2.46,2.45s1.1,2.45,2.46,2.45,2.46-1.1,2.46-2.45-1.1-2.45-2.46-2.45Z"/>
  </g>
  <g>
    <path class="cls-1" d="m28.55,45.1h-1.51V12.52c0-.42.34-.76.76-.76h0c.42,0,.76.34.76.76v32.58Z"/>
    <path class="cls-1" d="m28.93,45.47h-2.26V12.52c0-.62.51-1.13,1.13-1.13s1.13.51,1.13,1.13v32.96Zm-1.51-.75h.76V12.52c0-.21-.17-.38-.38-.38s-.38.17-.38.38v32.21Z"/>
  </g>
  <g>
    <path class="cls-1" d="m42.69,15.55h-5.71c-.33,0-.6-.27-.6-.6s.27-.6.6-.6h5.71c.33,0,.6.27.6.6s-.27.6-.6.6Z"/>
    <path class="cls-1" d="m42.69,15.92h-5.71c-.54,0-.98-.44-.98-.98s.44-.98.98-.98h5.71c.54,0,.98.44.98.98s-.44.98-.98.98Zm-5.71-1.2c-.12,0-.23.1-.23.23s.1.23.23.23h5.71c.12,0,.23-.1.23-.23s-.1-.23-.23-.23h-5.71Z"/>
  </g>
  <g>
    <path class="cls-1" d="m42.69,21.59h-5.71c-.33,0-.6-.27-.6-.6s.27-.6.6-.6h5.71c.33,0,.6.27.6.6s-.27.6-.6.6Z"/>
    <path class="cls-1" d="m42.69,21.97h-5.71c-.54,0-.98-.44-.98-.98s.44-.97.98-.97h5.71c.54,0,.98.44.98.97s-.44.98-.98.98Zm-5.71-1.2c-.12,0-.23.1-.23.22s.1.23.23.23h5.71c.12,0,.23-.1.23-.23s-.1-.22-.23-.22h-5.71Z"/>
  </g>
  <g>
    <path class="cls-1" d="m42.69,27.64h-5.71c-.33,0-.6-.27-.6-.6s.27-.6.6-.6h5.71c.33,0,.6.27.6.6s-.27.6-.6.6Z"/>
    <path class="cls-1" d="m42.69,28.02h-5.71c-.54,0-.98-.44-.98-.98s.44-.98.98-.98h5.71c.54,0,.98.44.98.98s-.44.98-.98.98Zm-5.71-1.2c-.12,0-.23.1-.23.23s.1.23.23.23h5.71c.12,0,.23-.1.23-.23s-.1-.23-.23-.23h-5.71Z"/>
  </g>
  <g>
    <path class="cls-1" d="m42.69,33.69h-5.71c-.33,0-.6-.27-.6-.6s.27-.6.6-.6h5.71c.33,0,.6.27.6.6s-.27.6-.6.6Z"/>
    <path class="cls-1" d="m42.69,34.06h-5.71c-.54,0-.98-.44-.98-.98s.44-.98.98-.98h5.71c.54,0,.98.44.98.98s-.44.98-.98.98Zm-5.71-1.2c-.12,0-.23.1-.23.23s.1.23.23.23h5.71c.12,0,.23-.1.23-.23s-.1-.23-.23-.23h-5.71Z"/>
  </g>
</svg>