<?xml version="1.0" encoding="UTF-8"?>
<svg id="Layer_1" data-name="Layer 1" xmlns="http://www.w3.org/2000/svg" viewBox="0 0 60 60">
  <defs>
    <style>
      .cls-1 {
        fill: #37464c;
        stroke-width: 0px;
      }
    </style>
  </defs>
  <path class="cls-1" d="m43.81,48.05h-14.43c-3.64,0-6.59-2.79-6.59-6.23,0-.55.45-1,1-1s1,.45,1,1c0,2.33,2.06,4.23,4.59,4.23h14.43c.79,0,1.58-.33,2.12-.88.29-.29.63-.78.62-1.43,0-.46-.18-.9-.49-1.29-.25-.31-.29-.74-.11-1.1.19-.35.57-.56.97-.53.78.08,1.51-.22,1.87-.73,1.08-1.52.31-2.62-.07-3.02-.24-.25-.33-.6-.25-.93s.32-.6.65-.71c.97-.33,1.62-1.18,1.62-2.11,0-.76-.43-1.47-1.14-1.9-.43-.25-.61-.78-.42-1.24.2-.48.22-.93.06-1.39-.33-.98-1.42-1.66-2.66-1.66h-7.42c-1.32,0-2.4-1.03-2.4-2.31v-7.84c0-1.61-1.43-2.92-3.19-2.92h-.4v4.23c0,4.87-4.21,8.84-9.39,8.84-.55,0-1-.45-1-1s.45-1,1-1c4.07,0,7.39-3.07,7.39-6.84v-5.23c0-.55.45-1,1-1h1.4c2.86,0,5.19,2.21,5.19,4.92v7.84c0,.17.18.31.4.31h7.42c2.09,0,3.96,1.25,4.56,3.03.22.66.26,1.33.13,2,.93.8,1.47,1.93,1.47,3.15,0,1.37-.7,2.63-1.83,3.42.7,1.39.54,3.05-.49,4.5-.48.68-1.21,1.17-2.03,1.41.1.34.15.68.16,1.04.02,1.04-.4,2.06-1.19,2.87-.92.94-2.22,1.48-3.55,1.48Z"/>
  <path class="cls-1" d="m20.98,48.05h-5.59c-.55,0-1-.45-1-1s.45-1,1-1h5.59c.99,0,1.8-.72,1.8-1.61v-17.29h-12.98c-.55,0-1-.45-1-1s.45-1,1-1h13.98c.55,0,1,.45,1,1v18.29c0,1.99-1.7,3.61-3.8,3.61Z"/>
</svg>