<?xml version="1.0" encoding="UTF-8"?>
<svg id="Layer_1" data-name="Layer 1" xmlns="http://www.w3.org/2000/svg" viewBox="0 0 60 60">
  <defs>
    <style>
      .cls-1 {
        fill: #37464c;
        stroke-width: 0px;
      }
    </style>
  </defs>
  <path class="cls-1" d="m45,21.1h-24c-.55,0-1-.45-1-1s.45-1,1-1h24c.55,0,1,.45,1,1s-.45,1-1,1Z"/>
  <path class="cls-1" d="m45,33.1h-12c-.55,0-1-.45-1-1s.45-1,1-1h12c.55,0,1,.45,1,1s-.45,1-1,1Z"/>
  <path class="cls-1" d="m45,27.1h-16c-.55,0-1-.45-1-1s.45-1,1-1h16c.55,0,1,.45,1,1s-.45,1-1,1Z"/>
  <path class="cls-1" d="m29.32,53.1h-10.32c-2.76,0-5-2.24-5-5,0-.55.45-1,1-1s1,.45,1,1c0,1.65,1.35,3,3,3h10.32c.45,0,.92-.2,1.25-.54.28-.29.43-.64.42-.99,0-.39-.17-.69-.31-.87-.24-.32-.27-.75-.07-1.1s.59-.54.99-.49c.42.04.83-.13,1.03-.44.7-1.05.21-1.79-.03-2.06-.22-.25-.31-.59-.23-.91.08-.32.31-.58.63-.7.59-.22.99-.78.99-1.4,0-.51-.26-.99-.7-1.26-.4-.25-.57-.76-.4-1.2.12-.32.14-.63.04-.94-.2-.64-.87-1.09-1.63-1.09h-5.31c-1.1,0-2-.9-2-2v-6c0-1.1-.9-2-2-2v3c0,3.86-3.14,7-7,7-.55,0-1-.45-1-1s.45-1,1-1c2.76,0,5-2.24,5-5v-4c0-.55.45-1,1-1h1c2.21,0,4,1.79,4,4v6h5.31c1.62,0,3.08,1.03,3.54,2.5.16.5.19,1.01.11,1.52.66.65,1.04,1.54,1.04,2.48,0,1.05-.48,2.03-1.26,2.68.45,1.09.31,2.37-.43,3.49-.34.51-.82.89-1.38,1.11.05.21.07.43.07.65.02.89-.34,1.76-1,2.43-.71.72-1.69,1.14-2.68,1.14Z"/>
  <path class="cls-1" d="m41,51.1c-.13,0-.26-.02-.38-.08-.37-.15-.62-.52-.62-.92v-7h-1c-.55,0-1-.45-1-1s.45-1,1-1h2c.55,0,1,.45,1,1v5.59l6.29-6.29c.19-.19.44-.29.71-.29h3c1.1,0,2-.9,2-2V13.1c0-1.1-.9-2-2-2H14c-1.1,0-2,.9-2,2v23c0,.55-.45,1-1,1s-1-.45-1-1V13.1c0-2.21,1.79-4,4-4h38c2.21,0,4,1.79,4,4v26c0,2.21-1.79,4-4,4h-2.59l-7.71,7.71c-.19.19-.45.29-.71.29Z"/>
  <path class="cls-1" d="m13,53.1h-4c-.55,0-1-.45-1-1s.45-1,1-1h4c.55,0,1-.45,1-1v-13H5c-.55,0-1-.45-1-1s.45-1,1-1h10c.55,0,1,.45,1,1v14c0,1.65-1.35,3-3,3Z"/>
</svg>