<?xml version="1.0" encoding="UTF-8"?>
<svg id="Layer_1" data-name="Layer 1" xmlns="http://www.w3.org/2000/svg" viewBox="0 0 60 60">
  <defs>
    <style>
      .cls-1 {
        fill: #37464c;
        stroke-width: 0px;
      }
    </style>
  </defs>
  <path class="cls-1" d="m41.51,55.95H8.55c-1.29,0-2.33-1.05-2.33-2.33V10.16c0-1.29,1.05-2.33,2.33-2.33h32.96c1.29,0,2.33,1.05,2.33,2.33v11.18c0,.55-.45,1-1,1s-1-.45-1-1v-11.18c0-.18-.15-.33-.33-.33H8.55c-.18,0-.33.15-.33.33v43.46c0,.18.15.33.33.33h32.96c.18,0,.33-.15.33-.33v-5.75c0-.55.45-1,1-1s1,.45,1,1v5.75c0,1.29-1.05,2.33-2.33,2.33Z"/>
  <path class="cls-1" d="m13.69,23.97c-.55,0-1-.45-1-1v-7.83c0-.55.45-1,1-1h7.82c.55,0,1,.45,1,1s-.45,1-1,1h-6.82v6.83c0,.55-.45,1-1,1Z"/>
  <path class="cls-1" d="m20.48,24.78s-.03,0-.04,0c-.33-.01-.63-.19-.81-.47l-2.66-4.3c-.29-.47-.15-1.09.32-1.38.47-.29,1.09-.14,1.38.32l1.88,3.04,4.92-6.64c.33-.44.95-.54,1.4-.21.44.33.54.96.21,1.4l-5.79,7.83c-.19.26-.49.4-.8.4Z"/>
  <path class="cls-1" d="m13.69,37.61c-.55,0-1-.45-1-1v-7.83c0-.55.45-1,1-1h7.82c.55,0,1,.45,1,1s-.45,1-1,1h-6.82v6.83c0,.55-.45,1-1,1Z"/>
  <path class="cls-1" d="m20.48,38.43s-.03,0-.04,0c-.33-.01-.63-.19-.81-.47l-2.66-4.3c-.29-.47-.15-1.09.32-1.38.47-.29,1.09-.14,1.38.32l1.88,3.04,4.92-6.64c.33-.44.95-.54,1.4-.21.44.33.54.96.21,1.4l-5.79,7.83c-.19.26-.49.4-.8.4Z"/>
  <path class="cls-1" d="m13.69,51.26c-.55,0-1-.45-1-1v-7.83c0-.55.45-1,1-1h7.82c.55,0,1,.45,1,1s-.45,1-1,1h-6.82v6.83c0,.55-.45,1-1,1Z"/>
  <path class="cls-1" d="m42.44,48.86c-7.74,0-14.05-6.3-14.05-14.05s6.3-14.05,14.05-14.05,14.05,6.3,14.05,14.05-6.3,14.05-14.05,14.05Zm0-26.09c-6.64,0-12.05,5.4-12.05,12.05s5.4,12.05,12.05,12.05,12.05-5.4,12.05-12.05-5.4-12.05-12.05-12.05Z"/>
  <path class="cls-1" d="m40.5,35.06c-.26,0-.51-.1-.71-.29l-5.46-5.46c-.39-.39-.39-1.02,0-1.41.39-.39,1.02-.39,1.41,0l5.46,5.46c.39.39.39,1.02,0,1.41-.2.2-.45.29-.71.29Z"/>
  <path class="cls-1" d="m44.54,34.9c-.26,0-.51-.1-.71-.29-.39-.39-.39-1.02,0-1.41l3.45-3.45c.39-.39,1.02-.39,1.41,0,.39.39.39,1.02,0,1.41l-3.45,3.45c-.2.2-.45.29-.71.29Z"/>
  <path class="cls-1" d="m42.84,38.99c-1.87,0-3.39-1.52-3.39-3.39s1.52-3.4,3.39-3.4,3.39,1.52,3.39,3.4-1.52,3.39-3.39,3.39Zm0-4.79c-.77,0-1.39.63-1.39,1.4s.63,1.39,1.39,1.39,1.39-.63,1.39-1.39-.63-1.4-1.39-1.4Z"/>
  <rect class="cls-1" x="32.93" y="35.09" width="1.64" height="1"/>
  <path class="cls-1" d="m34.57,36.59h-1.64c-.55,0-1-.45-1-1s.45-1,1-1h1.64c.55,0,1,.45,1,1s-.45,1-1,1Z"/>
  <rect class="cls-1" x="51.12" y="35.09" width="1.64" height="1"/>
  <path class="cls-1" d="m52.76,36.59h-1.64c-.55,0-1-.45-1-1s.45-1,1-1h1.64c.55,0,1,.45,1,1s-.45,1-1,1Z"/>
  <rect class="cls-1" x="42.35" y="43.87" width="1" height="1.64"/>
  <path class="cls-1" d="m42.85,46.51c-.55,0-1-.45-1-1v-1.64c0-.55.45-1,1-1s1,.45,1,1v1.64c0,.55-.45,1-1,1Z"/>
  <path class="cls-1" d="m42.66,27.23c-.55,0-1-.45-1-1v-1.64c0-.55.45-1,1-1s1,.45,1,1v1.64c0,.55-.45,1-1,1Z"/>
</svg>