<?xml version="1.0" encoding="UTF-8"?>
<svg id="Layer_1" data-name="Layer 1" xmlns="http://www.w3.org/2000/svg" viewBox="0 0 60 60">
  <defs>
    <style>
      .cls-1 {
        fill: #37464c;
        stroke-width: 0px;
      }
    </style>
  </defs>
  <g>
    <path class="cls-1" d="m52.39,51.6H8.67c-1.86,0-3.41-1.46-3.53-3.32l-1.22-19.78c-.01-.17.05-.33.16-.45.11-.12.27-.19.44-.19h52c.17,0,.32.07.44.19.11.12.17.28.16.45l-1.22,19.78c-.11,1.86-1.66,3.32-3.53,3.32ZM5.17,29.06l1.18,19.14c.08,1.23,1.1,2.19,2.33,2.19h43.72c1.23,0,2.25-.96,2.33-2.19l1.18-19.14H5.17Z"/>
    <path class="cls-1" d="m52.39,51.97H8.67c-2.06,0-3.77-1.61-3.9-3.67l-1.22-19.78c-.02-.27.08-.53.26-.73.18-.2.44-.31.71-.31h52c.27,0,.53.11.71.31.18.2.28.46.26.73l-1.22,19.78c-.13,2.06-1.84,3.67-3.9,3.67ZM4.53,28.23c-.06,0-.12.03-.17.07-.04.05-.06.11-.06.17l1.22,19.78c.1,1.66,1.49,2.96,3.15,2.96h43.72c1.67,0,3.05-1.3,3.15-2.96l1.22-19.78c0-.06-.02-.12-.06-.17-.04-.05-.1-.07-.17-.07H4.53Zm47.86,22.54H8.67c-1.43,0-2.61-1.12-2.7-2.54l-1.2-19.54h51.52l-1.2,19.54c-.09,1.42-1.27,2.54-2.7,2.54ZM5.56,29.44l1.15,18.75c.06,1.03.92,1.84,1.95,1.84h43.72c1.03,0,1.89-.81,1.95-1.84l1.15-18.75H5.56Z"/>
  </g>
  <g>
    <path class="cls-1" d="m56.53,29.06H4.53c-.18,0-.34-.08-.46-.21-.11-.13-.17-.31-.14-.48l.91-6.13c.32-2.14,2.18-3.75,4.34-3.75h42.69c2.16,0,4.03,1.61,4.34,3.75l.91,6.13c.03.17-.03.35-.14.48-.11.13-.28.21-.46.21Zm-51.31-1.2h50.61l-.81-5.44c-.23-1.55-1.58-2.72-3.15-2.72H9.18c-1.57,0-2.92,1.17-3.15,2.72l-.81,5.44Z"/>
    <path class="cls-1" d="m56.53,29.44H4.53c-.28,0-.55-.12-.74-.34-.19-.22-.27-.5-.23-.78l.91-6.13c.34-2.32,2.37-4.07,4.71-4.07h42.69c2.34,0,4.37,1.75,4.71,4.07l.91,6.13c.04.28-.04.57-.23.78-.19.22-.46.34-.74.34ZM9.18,18.87c-1.97,0-3.68,1.47-3.97,3.43l-.91,6.13c0,.07,0,.13.05.18.04.05.11.08.17.08h52c.07,0,.13-.03.17-.08.04-.05.06-.12.05-.18l-.91-6.13c-.29-1.95-2-3.43-3.97-3.43H9.18Zm47.09,9.36H4.79l.87-5.87c.26-1.73,1.77-3.04,3.52-3.04h42.69c1.75,0,3.27,1.31,3.52,3.04l.87,5.87Zm-50.61-.75h49.74l-.74-5.01c-.2-1.37-1.4-2.4-2.78-2.4H9.18c-1.38,0-2.58,1.03-2.78,2.4l-.74,5.01Z"/>
  </g>
  <g>
    <path class="cls-1" d="m35.21,39.11h-9.36c-.31,0-.57-.23-.6-.54l-1.04-10.05c-.02-.17.04-.34.15-.47.11-.13.28-.2.45-.2h11.44c.17,0,.33.07.45.2.11.13.17.3.15.47l-1.04,10.05c-.03.31-.29.54-.6.54Zm-8.82-1.2h8.28l.92-8.85h-10.11l.92,8.85Z"/>
    <path class="cls-1" d="m35.21,39.49h-9.36c-.5,0-.92-.38-.97-.88l-1.04-10.06c-.03-.27.06-.55.25-.75.19-.21.45-.32.73-.32h11.44c.28,0,.54.12.72.32.19.21.28.48.25.76l-1.04,10.05c-.05.5-.47.88-.97.88Zm-10.4-11.26c-.06,0-.13.03-.17.08-.04.05-.06.11-.06.17l1.04,10.06c.01.12.11.2.23.2h9.36c.12,0,.21-.09.23-.2l1.04-10.05c0-.06-.01-.13-.06-.17-.04-.05-.1-.07-.17-.07h-11.44Zm10.2,10.05h-8.95l-.99-9.6h10.94l-.99,9.6Zm-8.28-.75h7.6l.84-8.1h-9.27l.84,8.1Z"/>
  </g>
  <g>
    <path class="cls-1" d="m43.01,19.7h-24.96c-.33,0-.6-.27-.6-.6v-4.87c0-1.73,1.4-3.13,3.13-3.13h19.91c1.73,0,3.13,1.4,3.13,3.13v4.87c0,.33-.27.6-.6.6Zm-24.36-1.2h23.76v-4.27c0-1.06-.86-1.93-1.93-1.93h-19.91c-1.06,0-1.93.86-1.93,1.93v4.27Z"/>
    <path class="cls-1" d="m43.01,20.08h-24.96c-.54,0-.98-.44-.98-.98v-4.87c0-1.93,1.57-3.5,3.5-3.5h19.91c1.93,0,3.5,1.57,3.5,3.5v4.87c0,.54-.44.98-.98.98Zm-22.43-8.6c-1.52,0-2.75,1.24-2.75,2.75v4.87c0,.12.1.23.23.23h24.96c.12,0,.23-.1.23-.23v-4.87c0-1.52-1.24-2.75-2.75-2.75h-19.91Zm22.21,7.4h-24.51v-4.64c0-1.27,1.03-2.3,2.3-2.3h19.91c1.27,0,2.3,1.03,2.3,2.3v4.64Zm-23.76-.75h23.01v-3.89c0-.86-.7-1.55-1.55-1.55h-19.91c-.85,0-1.55.7-1.55,1.55v3.89Z"/>
  </g>
  <g>
    <path class="cls-1" d="m32.95,35.88h-4.85c-.31,0-.57-.24-.6-.54l-.35-3.58c-.02-.17.04-.34.15-.46.11-.13.28-.2.45-.2h5.55c.17,0,.33.07.45.2.11.13.17.29.15.46l-.35,3.58c-.03.31-.29.54-.6.54Zm-4.31-1.2h3.76l.23-2.38h-4.22l.23,2.38Z"/>
    <path class="cls-1" d="m32.95,36.25h-4.85c-.51,0-.92-.38-.97-.88l-.35-3.58c-.03-.27.06-.55.25-.75.19-.21.45-.32.72-.32h5.55c.27,0,.54.12.72.32.19.2.28.48.25.75l-.35,3.58c-.05.5-.47.88-.97.88Zm-5.2-4.79c-.06,0-.12.03-.17.08-.04.05-.06.11-.06.17l.35,3.58c.01.12.11.21.23.21h4.85c.12,0,.21-.09.23-.21l.35-3.58c0-.06-.02-.13-.06-.17-.04-.05-.1-.07-.17-.07h-5.55Zm4.99,3.58h-4.44l-.3-3.13h5.05l-.3,3.13Zm-3.76-.75h3.08l.16-1.63h-3.4l.16,1.63Z"/>
  </g>
  <g>
    <g>
      <path class="cls-1" d="m23.29,51.6c-.3,0-.56-.22-.6-.52l-2.95-22.54c-.04-.33.19-.63.52-.67.33-.04.63.19.68.52l2.95,22.53c.04.33-.19.63-.52.68-.03,0-.05,0-.08,0Z"/>
      <path class="cls-1" d="m23.29,51.97c-.49,0-.9-.37-.97-.85l-2.95-22.54c-.07-.53.31-1.03.84-1.1.53-.07,1.03.31,1.1.84l2.95,22.54c.07.54-.31,1.03-.84,1.1h-.13Zm-2.95-23.74s-.02,0-.03,0c-.12.02-.21.13-.19.25l2.95,22.54c.01.11.11.2.22.2v.38l.04-.38c.12-.01.2-.13.19-.25l-2.95-22.53c-.01-.12-.11-.2-.23-.2Z"/>
    </g>
    <g>
      <path class="cls-1" d="m37.77,51.6s-.05,0-.08,0c-.33-.04-.56-.35-.52-.68l2.95-22.53c.04-.33.34-.56.67-.52.33.04.56.35.52.67l-2.95,22.54c-.04.3-.3.52-.6.52Z"/>
      <path class="cls-1" d="m37.77,51.97h-.12c-.27-.04-.5-.17-.66-.38-.16-.21-.23-.46-.19-.72l2.95-22.54c.07-.53.56-.91,1.09-.84.54.07.91.56.84,1.1l-2.95,22.54c-.06.48-.48.85-.97.85Zm2.95-23.74c-.11,0-.21.08-.23.2l-2.95,22.54c0,.06,0,.12.04.17.04.05.09.08.15.09h.03c.11,0,.21-.08.22-.2l2.95-22.54c.02-.12-.07-.24-.19-.25-.01,0-.02,0-.03,0Z"/>
    </g>
  </g>
  <g>
    <path class="cls-1" d="m39.24,19.7h-17.43c-.33,0-.6-.27-.6-.6v-3.7c0-.33.27-.6.6-.6h17.43c.33,0,.6.27.6.6v3.7c0,.33-.27.6-.6.6Zm-16.82-1.2h16.22v-2.49h-16.22v2.49Z"/>
    <path class="cls-1" d="m39.24,20.08h-17.43c-.54,0-.98-.44-.98-.98v-3.7c0-.54.44-.98.98-.98h17.43c.54,0,.98.44.98.98v3.7c0,.54-.44.98-.98.98Zm-17.43-4.9c-.12,0-.23.1-.23.23v3.7c0,.12.1.23.23.23h17.43c.12,0,.23-.1.23-.23v-3.7c0-.12-.1-.23-.23-.23h-17.43Zm17.2,3.7h-16.97v-3.25h16.97v3.25Zm-16.22-.75h15.47v-1.75h-15.47v1.75Z"/>
  </g>
</svg>