<?xml version="1.0" encoding="UTF-8"?>
<svg id="Layer_1" data-name="Layer 1" xmlns="http://www.w3.org/2000/svg" viewBox="0 0 60 60">
  <defs>
    <style>
      .cls-1 {
        fill: #37464c;
        stroke-width: 0px;
      }
    </style>
  </defs>
  <g>
    <path class="cls-1" d="m40.3,55.71h-20.16c-1.77,0-3.24-1.39-3.33-3.15l-1.72-31.63c0-.16.05-.32.16-.43.11-.12.26-.18.42-.18h29.09c.16,0,.31.07.42.18.11.12.17.27.16.43l-1.72,31.63c-.1,1.77-1.56,3.15-3.33,3.15ZM16.29,21.48l1.68,31.01c.06,1.15,1.02,2.05,2.17,2.05h20.16c1.15,0,2.11-.9,2.17-2.05l1.68-31.01h-27.86Z"/>
    <path class="cls-1" d="m40.3,56.08h-20.16c-1.97,0-3.6-1.54-3.71-3.51l-1.72-31.62c-.01-.26.08-.52.26-.71.18-.19.43-.3.7-.3h29.09c.26,0,.51.11.69.3.18.19.28.45.26.71l-1.72,31.62c-.11,1.97-1.74,3.51-3.71,3.51ZM15.67,20.69c-.06,0-.11.02-.15.06-.04.04-.06.1-.06.15l1.72,31.62c.08,1.57,1.38,2.8,2.96,2.8h20.16c1.57,0,2.87-1.23,2.96-2.8l1.72-31.62c0-.06-.02-.11-.06-.15-.04-.04-.09-.06-.15-.06H15.67Zm24.62,34.23h-20.16c-1.35,0-2.47-1.06-2.54-2.41l-1.71-31.41h28.66l-1.7,31.41c-.07,1.35-1.19,2.41-2.54,2.41ZM16.68,21.85l1.66,30.62c.05.95.84,1.7,1.8,1.7h20.16c.96,0,1.75-.75,1.8-1.7l1.66-30.62h-27.07Z"/>
  </g>
  <g>
    <path class="cls-1" d="m45.91,21.62H14.53c-.32,0-.58-.26-.58-.58v-7.78c0-.32.26-.58.58-.58h31.38c.32,0,.58.26.58.58v7.78c0,.32-.26.58-.58.58Zm-30.8-1.16h30.22v-6.61H15.11v6.61Z"/>
    <path class="cls-1" d="m45.91,22H14.53c-.53,0-.96-.43-.96-.96v-7.78c0-.53.43-.96.96-.96h31.38c.53,0,.96.43.96.96v7.78c0,.53-.43.96-.96.96ZM14.53,13.06c-.11,0-.21.09-.21.21v7.78c0,.11.09.21.21.21h31.38c.11,0,.21-.09.21-.21v-7.78c0-.11-.09-.21-.21-.21H14.53Zm31.18,7.78H14.74v-7.36h30.97v7.36Zm-30.22-.75h29.47v-5.86H15.49v5.86Z"/>
  </g>
  <g>
    <path class="cls-1" d="m38.48,13.84c-.32,0-.58-.26-.58-.58,0-4.03-3.28-7.31-7.31-7.31s-7.31,3.28-7.31,7.31c0,.32-.26.58-.58.58s-.58-.26-.58-.58c0-4.67,3.8-8.47,8.48-8.47s8.48,3.8,8.48,8.47c0,.32-.26.58-.58.58Z"/>
    <path class="cls-1" d="m38.48,14.22c-.53,0-.96-.43-.96-.96,0-3.82-3.11-6.93-6.94-6.93s-6.94,3.11-6.94,6.93c0,.53-.43.96-.96.96s-.96-.43-.96-.96c0-4.88,3.97-8.84,8.85-8.84s8.85,3.97,8.85,8.84c0,.53-.43.96-.96.96Zm-7.9-8.64c4.24,0,7.69,3.45,7.69,7.68,0,.23.41.23.41,0,0-4.46-3.63-8.09-8.1-8.09s-8.1,3.63-8.1,8.09c0,.23.41.23.41,0,0-4.24,3.45-7.68,7.69-7.68Z"/>
  </g>
  <g>
    <path class="cls-1" d="m35.14,13.61c-.32,0-.58-.26-.58-.58,0-2.19-1.78-3.96-3.97-3.96s-3.97,1.78-3.97,3.96c0,.32-.26.58-.58.58s-.58-.26-.58-.58c0-2.83,2.3-5.13,5.13-5.13s5.13,2.3,5.13,5.13c0,.32-.26.58-.58.58Z"/>
    <path class="cls-1" d="m35.14,13.98c-.53,0-.96-.43-.96-.96,0-1.98-1.61-3.59-3.59-3.59s-3.59,1.61-3.59,3.59c0,.53-.43.96-.96.96s-.96-.43-.96-.96c0-3.03,2.47-5.5,5.51-5.5s5.51,2.47,5.51,5.5c0,.53-.43.96-.96.96Zm-4.55-5.29c2.39,0,4.34,1.95,4.34,4.34,0,.23.41.23.41,0,0-2.62-2.13-4.75-4.76-4.75s-4.76,2.13-4.76,4.75c0,.23.41.23.41,0,0-2.39,1.95-4.34,4.34-4.34Z"/>
  </g>
  <g>
    <path class="cls-1" d="m21.3,55.71c-.32,0-.58-.26-.58-.58V21.04c0-.32.26-.58.58-.58s.58.26.58.58v34.09c0,.32-.26.58-.58.58Z"/>
    <path class="cls-1" d="m21.3,56.08c-.53,0-.96-.43-.96-.96V21.04c0-.53.43-.96.96-.96s.96.43.96.96v34.08c0,.53-.43.96-.96.96Zm0-35.25c-.11,0-.21.09-.21.21v34.08c0,.23.41.23.41,0V21.04c0-.11-.09-.21-.21-.21Z"/>
  </g>
  <g>
    <path class="cls-1" d="m27.06,55.71c-.32,0-.58-.26-.58-.58V21.04c0-.32.26-.58.58-.58s.58.26.58.58v34.09c0,.32-.26.58-.58.58Z"/>
    <path class="cls-1" d="m27.06,56.08c-.53,0-.96-.43-.96-.96V21.04c0-.53.43-.96.96-.96s.96.43.96.96v34.08c0,.53-.43.96-.96.96Zm0-35.25c-.11,0-.21.09-.21.21v34.08c0,.23.41.23.41,0V21.04c0-.11-.09-.21-.21-.21Z"/>
  </g>
  <g>
    <path class="cls-1" d="m32.82,55.71c-.32,0-.58-.26-.58-.58V21.04c0-.32.26-.58.58-.58s.58.26.58.58v34.09c0,.32-.26.58-.58.58Z"/>
    <path class="cls-1" d="m32.82,56.08c-.53,0-.96-.43-.96-.96V21.04c0-.53.43-.96.96-.96s.96.43.96.96v34.08c0,.53-.43.96-.96.96Zm0-35.25c-.11,0-.21.09-.21.21v34.08c0,.23.41.23.41,0V21.04c0-.11-.09-.21-.21-.21Z"/>
  </g>
  <g>
    <path class="cls-1" d="m38.57,55.71c-.32,0-.58-.26-.58-.58V21.04c0-.32.26-.58.58-.58s.58.26.58.58v34.09c0,.32-.26.58-.58.58Z"/>
    <path class="cls-1" d="m38.58,56.08c-.53,0-.96-.43-.96-.96V21.04c0-.53.43-.96.96-.96s.96.43.96.96v34.08c0,.53-.43.96-.96.96Zm0-35.25c-.11,0-.21.09-.21.21v34.08c0,.23.41.23.41,0V21.04c0-.11-.09-.21-.21-.21Z"/>
  </g>
</svg>