<?xml version="1.0" encoding="UTF-8"?>
<svg id="Layer_1" data-name="Layer 1" xmlns="http://www.w3.org/2000/svg" viewBox="0 0 60 60">
  <defs>
    <style>
      .cls-1 {
        fill: #37464c;
        stroke-width: 0px;
      }
    </style>
  </defs>
  <g>
    <path class="cls-1" d="m50.73,56.38H13.94c-.33,0-.6-.27-.6-.6s.27-.6.6-.6h36.79c.33,0,.6.27.6.6s-.27.6-.6.6Z"/>
    <path class="cls-1" d="m50.73,56.76H13.94c-.54,0-.98-.44-.98-.98s.44-.98.98-.98h36.79c.54,0,.98.44.98.98s-.44.98-.98.98Zm-36.79-1.21c-.13,0-.23.1-.23.23s.1.23.23.23h36.79c.13,0,.23-.1.23-.23s-.1-.23-.23-.23H13.94Z"/>
  </g>
  <g>
    <g>
      <path class="cls-1" d="m22.58,56.38c-.33,0-.6-.27-.6-.6V12.34c0-.33.27-.6.6-.6s.6.27.6.6v43.45c0,.33-.27.6-.6.6Z"/>
      <path class="cls-1" d="m22.58,56.76c-.54,0-.98-.44-.98-.98V12.34c0-.54.44-.98.98-.98s.98.44.98.98v43.45c0,.54-.44.98-.98.98Zm0-44.65c-.13,0-.23.1-.23.23v43.45c0,.25.46.25.46,0V12.34c0-.13-.1-.23-.23-.23Z"/>
    </g>
    <g>
      <path class="cls-1" d="m22.58,34.66c-.15,0-.31-.06-.43-.18-.24-.24-.24-.62,0-.85l8.11-8.11c.24-.24.62-.24.85,0,.24.24.24.62,0,.85l-8.11,8.11c-.12.12-.27.18-.43.18Z"/>
      <path class="cls-1" d="m22.58,35.04c-.26,0-.51-.1-.69-.29-.38-.38-.38-1,0-1.38l8.11-8.11c.18-.18.43-.29.69-.29h0c.26,0,.51.1.69.29.38.38.38,1,0,1.38l-8.11,8.11c-.18.18-.43.29-.69.29Zm8.11-9.32c-.06,0-.12.02-.16.07l-8.11,8.11c-.09.09-.09.23,0,.32.09.09.24.09.32,0l8.11-8.11c.09-.09.09-.23,0-.32-.04-.04-.1-.07-.16-.07h0Z"/>
    </g>
    <g>
      <path class="cls-1" d="m22.58,24.78c-.15,0-.31-.06-.43-.18l-4.81-4.81c-.24-.24-.24-.62,0-.85.24-.24.62-.24.85,0l4.81,4.81c.24.24.24.62,0,.85-.12.12-.27.18-.43.18Z"/>
      <path class="cls-1" d="m22.58,25.15c-.26,0-.51-.1-.69-.29l-4.81-4.81c-.19-.18-.29-.43-.29-.69,0-.26.1-.51.29-.69.37-.37,1.01-.37,1.38,0l4.81,4.81c.19.19.29.43.29.69s-.1.51-.29.69c-.19.18-.43.29-.69.29Zm-4.81-6.01c-.06,0-.12.02-.16.07-.04.04-.07.1-.07.16,0,.06.02.12.07.16l4.81,4.81c.09.09.24.09.32,0,.09-.09.09-.23,0-.32l-4.81-4.81s-.1-.07-.16-.07Z"/>
    </g>
    <g>
      <path class="cls-1" d="m22.58,42.81c-8.09,0-14.68-6.58-14.68-14.67,0-4.14,1.68-10.23,4.19-15.16,1.78-3.51,5.51-9.39,10.49-9.39s8.71,5.88,10.49,9.39c2.5,4.93,4.19,11.02,4.19,15.16,0,8.09-6.58,14.67-14.68,14.67Zm0-38.01c-7.24,0-13.47,15.66-13.47,23.34s6.04,13.47,13.47,13.47,13.47-6.04,13.47-13.47c0-3.96-1.63-9.84-4.06-14.61-2.82-5.55-6.25-8.73-9.41-8.73Z"/>
      <path class="cls-1" d="m22.58,43.18c-8.3,0-15.05-6.75-15.05-15.05,0-4.19,1.7-10.35,4.23-15.33,1.82-3.58,5.64-9.59,10.82-9.59s9,6.01,10.83,9.59c2.53,4.98,4.23,11.14,4.23,15.33,0,8.3-6.75,15.05-15.05,15.05Zm0-39.22c-4.78,0-8.41,5.75-10.16,9.18-2.48,4.89-4.15,10.91-4.15,14.99,0,7.88,6.42,14.3,14.3,14.3s14.3-6.41,14.3-14.3c0-4.08-1.67-10.11-4.15-14.99-1.74-3.43-5.38-9.18-10.16-9.18Zm0,38.01c-7.63,0-13.85-6.21-13.85-13.84S15.14,4.42,22.58,4.42c3.31,0,6.87,3.26,9.75,8.93,2.45,4.83,4.1,10.77,4.1,14.78,0,7.63-6.21,13.84-13.85,13.84Zm0-36.81c-7.03,0-13.1,15.4-13.1,22.97s5.88,13.09,13.1,13.09,13.1-5.87,13.1-13.09c0-3.91-1.61-9.71-4.02-14.44-2.75-5.42-6.06-8.52-9.08-8.52Z"/>
    </g>
  </g>
  <g>
    <g>
      <path class="cls-1" d="m42.89,55.3c-.33,0-.6-.27-.6-.6v-29.76c0-.33.27-.6.6-.6s.6.27.6.6v29.76c0,.33-.27.6-.6.6Z"/>
      <path class="cls-1" d="m42.89,55.68c-.54,0-.98-.44-.98-.98v-29.76c0-.54.44-.98.98-.98s.98.44.98.98v29.76c0,.54-.44.98-.98.98Zm0-30.96c-.12,0-.23.1-.23.23v29.76c0,.25.46.25.46,0v-29.76c0-.13-.1-.23-.23-.23Z"/>
    </g>
    <g>
      <path class="cls-1" d="m42.89,40.43c-.15,0-.31-.06-.43-.18-.24-.24-.24-.62,0-.85l5.56-5.55c.24-.24.62-.24.85,0s.24.62,0,.85l-5.56,5.55c-.12.12-.27.18-.43.18Z"/>
      <path class="cls-1" d="m42.89,40.8c-.26,0-.51-.1-.69-.29-.18-.19-.29-.43-.29-.69,0-.26.1-.51.29-.69l5.56-5.55c.37-.37,1.01-.37,1.38,0,.18.18.29.43.29.69s-.1.51-.29.69l-5.56,5.55c-.18.18-.43.29-.69.29Zm5.56-6.76c-.06,0-.12.02-.16.07l-5.56,5.56s-.07.1-.07.16.02.12.07.16c.09.09.24.09.32,0l5.56-5.55s.07-.1.07-.16-.02-.12-.07-.16-.1-.07-.16-.07Z"/>
    </g>
    <g>
      <path class="cls-1" d="m42.89,33.65c-.15,0-.31-.06-.43-.18l-3.29-3.29c-.24-.24-.24-.62,0-.85.24-.24.62-.24.85,0l3.29,3.29c.24.24.24.62,0,.85-.12.12-.27.18-.43.18Z"/>
      <path class="cls-1" d="m42.89,34.03c-.26,0-.51-.1-.69-.29l-3.29-3.29c-.38-.38-.38-1,0-1.38.38-.38,1-.38,1.38,0l3.29,3.29c.19.18.29.43.29.69s-.1.51-.29.69c-.18.18-.43.29-.69.29Zm-3.29-4.5c-.06,0-.12.02-.16.07-.09.09-.09.23,0,.32l3.29,3.29c.07.07.17.16.32,0,.04-.04.07-.1.07-.16s-.02-.12-.07-.16l-3.29-3.29s-.1-.07-.16-.07Z"/>
    </g>
    <g>
      <path class="cls-1" d="m42.89,46c-4.85,0-9.07-3.44-10.04-8.18-.07-.33.14-.65.47-.71.33-.07.65.14.71.47.86,4.18,4.58,7.21,8.85,7.21,4.98,0,9.04-4.05,9.04-9.03,0-2.69-1.11-6.67-2.76-9.92-1.9-3.73-4.18-5.87-6.28-5.87-1.82,0-3.78,1.6-5.53,4.51-.17.29-.54.38-.83.21-.29-.17-.38-.54-.21-.83,2-3.34,4.27-5.1,6.56-5.1,2.6,0,5.21,2.32,7.35,6.53,1.73,3.4,2.89,7.61,2.89,10.47,0,5.65-4.6,10.24-10.24,10.24Z"/>
      <path class="cls-1" d="m42.89,46.38c-5.02,0-9.4-3.57-10.4-8.48-.05-.26,0-.52.14-.74.14-.22.37-.37.62-.42.25-.05.51,0,.73.14.22.14.37.37.42.62.82,4.01,4.39,6.91,8.49,6.91,4.78,0,8.66-3.88,8.66-8.66,0-2.63-1.09-6.55-2.72-9.75-1.83-3.6-4-5.67-5.95-5.67-1.68,0-3.53,1.54-5.21,4.33-.28.46-.88.61-1.34.34-.46-.28-.61-.88-.34-1.34,2.07-3.46,4.45-5.28,6.89-5.28,2.75,0,5.48,2.39,7.69,6.74,1.75,3.45,2.93,7.73,2.93,10.64,0,5.85-4.76,10.62-10.62,10.62Zm-9.44-8.9s-.03,0-.05,0c-.06.01-.11.05-.15.1-.03.05-.04.11-.03.17.93,4.56,5,7.88,9.67,7.88,5.44,0,9.87-4.43,9.87-9.87,0-2.81-1.14-6.94-2.85-10.3-2.07-4.08-4.57-6.33-7.02-6.33-2.16,0-4.31,1.7-6.24,4.92-.06.11-.03.25.08.31.11.06.25.03.31-.08,1.81-3.03,3.89-4.7,5.85-4.7,2.24,0,4.65,2.22,6.61,6.08,1.67,3.3,2.8,7.35,2.8,10.09,0,5.19-4.22,9.41-9.41,9.41-4.45,0-8.33-3.16-9.22-7.51-.01-.06-.05-.11-.1-.15-.04-.02-.08-.04-.12-.04Z"/>
    </g>
  </g>
</svg>