<svg width="151" height="151" xmlns="http://www.w3.org/2000/svg" xmlns:xlink="http://www.w3.org/1999/xlink" xml:space="preserve" overflow="hidden"><g transform="translate(-426 -416)"><path d="M503.513 559.45 467.273 559.45C462.542 559.45 458.717 555.599 458.717 550.893L458.717 472.373C458.717 467.642 462.567 463.817 467.273 463.817L485.393 463.817C486.777 463.817 487.91 464.949 487.91 466.333 487.91 467.717 486.777 468.85 485.393 468.85L467.273 468.85C465.336 468.85 463.75 470.435 463.75 472.373L463.75 550.893C463.75 552.831 465.336 554.417 467.273 554.417L503.513 554.417C505.451 554.417 507.037 552.831 507.037 550.893L507.037 490.493C507.037 489.109 508.169 487.977 509.553 487.977 510.938 487.977 512.07 489.109 512.07 490.493L512.07 550.893C512.07 555.625 508.219 559.45 503.513 559.45Z" fill="#6100DC"/><path d="M527.673 480.93C526.289 480.93 525.157 479.797 525.157 478.413 525.157 463.137 512.75 450.73 497.473 450.73 496.089 450.73 494.957 449.598 494.957 448.213 494.957 446.829 496.089 445.697 497.473 445.697 515.518 445.697 530.19 460.369 530.19 478.413 530.19 479.797 529.057 480.93 527.673 480.93Z" fill="#6100DC"/><path d="M509.553 480.93C508.169 480.93 507.037 479.797 507.037 478.413 507.037 473.128 502.758 468.85 497.473 468.85 496.089 468.85 494.957 467.717 494.957 466.333 494.957 464.949 496.089 463.817 497.473 463.817 505.527 463.817 512.07 470.36 512.07 478.413 512.07 479.797 510.938 480.93 509.553 480.93Z" fill="#6100DC"/><path d="M542.975 473.254 542.975 472.977 542.975 472.977C542.95 471.719 543.906 470.612 545.189 470.461L545.189 470.461C546.573 470.31 547.832 471.291 547.983 472.675L547.983 472.675C547.983 472.675 548.008 472.852 548.008 472.952L548.008 472.952C548.008 474.211 547.052 475.318 545.768 475.469L545.491 475.469C544.208 475.469 543.126 474.538 542.975 473.254ZM540.936 463.943 540.936 463.943C540.836 463.691 540.81 463.414 540.81 463.137L540.81 463.137C540.81 462.08 541.465 461.124 542.522 460.772L542.522 460.772C543.856 460.319 545.265 461.023 545.718 462.357L545.718 462.357C545.793 462.634 545.844 462.885 545.844 463.162L545.844 463.162C545.844 464.219 545.164 465.176 544.107 465.553L544.107 465.553C543.856 465.629 543.579 465.679 543.327 465.679L543.327 465.679C542.27 465.679 541.289 465 540.936 463.943ZM537.01 455.285C536.784 454.883 536.658 454.455 536.658 454.027L536.658 454.027C536.658 453.146 537.086 452.315 537.891 451.837L537.891 451.837C539.099 451.133 540.634 451.535 541.339 452.718L541.339 452.718C541.565 453.121 541.691 453.549 541.691 453.977L541.691 453.977C541.691 454.857 541.263 455.688 540.458 456.166L540.458 456.166C540.055 456.418 539.602 456.518 539.174 456.518L539.174 456.518C538.319 456.518 537.463 456.065 537.01 455.285ZM531.348 447.609C530.92 447.131 530.693 446.502 530.693 445.898L530.693 445.898C530.693 445.219 530.97 444.539 531.524 444.036L531.524 444.036C532.556 443.104 534.141 443.18 535.072 444.212L535.072 444.212C535.525 444.69 535.727 445.294 535.727 445.898L535.727 445.898C535.727 446.603 535.45 447.282 534.921 447.76L534.921 447.76C534.418 448.213 533.814 448.415 533.21 448.415L533.21 448.415C532.531 448.415 531.851 448.163 531.348 447.609ZM524.251 441.242C523.571 440.764 523.219 440.009 523.219 439.254L523.219 439.254C523.219 438.725 523.37 438.197 523.697 437.744L523.697 437.744C524.502 436.612 526.088 436.36 527.195 437.165L527.195 437.165C527.875 437.668 528.227 438.398 528.252 439.178L528.252 439.178C528.252 439.707 528.101 440.236 527.774 440.689L527.774 440.689C527.271 441.368 526.516 441.72 525.735 441.72L525.735 441.72C525.207 441.72 524.704 441.569 524.251 441.242ZM515.996 436.511 515.996 436.511C515.065 436.108 514.511 435.177 514.486 434.221L514.486 434.221C514.486 433.893 514.562 433.516 514.713 433.189L514.713 433.189C515.266 431.931 516.776 431.352 518.034 431.905L518.034 431.905C518.966 432.333 519.519 433.239 519.544 434.195L519.544 434.195C519.544 434.548 519.469 434.9 519.318 435.227L519.318 435.227C518.89 436.159 517.984 436.737 517.003 436.737L517.003 436.737C516.675 436.737 516.323 436.662 515.996 436.511ZM506.936 433.591C505.753 433.34 504.923 432.283 504.948 431.125L504.948 431.125C504.948 430.949 504.948 430.773 504.998 430.597L504.998 430.597C505.275 429.238 506.609 428.382 507.968 428.659L507.968 428.659C509.176 428.91 509.981 429.967 509.981 431.125L509.981 431.125C509.981 431.301 509.981 431.478 509.906 431.654L509.906 431.654C509.679 432.836 508.622 433.642 507.465 433.642L507.465 433.642C507.288 433.642 507.112 433.617 506.936 433.591ZM494.957 430.093C494.957 428.709 496.064 427.577 497.473 427.577L497.473 427.577C498.857 427.577 499.99 428.709 499.99 430.093L499.99 430.093C499.99 431.478 498.857 432.61 497.473 432.61L497.473 432.61C496.064 432.61 494.957 431.478 494.957 430.093Z" fill="#6100DC"/><path d="M488.413 547.37 482.373 547.37C480.989 547.37 479.857 546.237 479.857 544.853 479.857 543.469 480.989 542.337 482.373 542.337L488.413 542.337C489.797 542.337 490.93 543.469 490.93 544.853 490.93 546.237 489.797 547.37 488.413 547.37Z" fill="#6100DC"/></g></svg>