<?xml version="1.0" encoding="UTF-8"?>
<svg id="Layer_1" data-name="Layer 1" xmlns="http://www.w3.org/2000/svg" viewBox="0 0 60 60">
  <defs>
    <style>
      .cls-1 {
        fill: #37464c;
        stroke-width: 0px;
      }
    </style>
  </defs>
  <path class="cls-1" d="m26,57.5c-3.86,0-7-3.14-7-7,0-1.65,1.35-3,3-3s3,1.35,3,3c0,.55.45,1,1,1s1-.45,1-1v-7c0-1.1.9-2,2-2h2c1.1,0,2,.9,2,2v7c0,3.86-3.14,7-7,7Zm-4-8c-.55,0-1,.45-1,1,0,2.76,2.24,5,5,5s5-2.24,5-5v-7h-2v7c0,1.65-1.35,3-3,3s-3-1.35-3-3c0-.55-.45-1-1-1Z"/>
  <rect class="cls-1" x="29" y="30.5" width="2" height="12"/>
  <path class="cls-1" d="m55,35.5c-.29,0-.57-.13-.76-.35-1.98-2.35-4.55-3.65-7.24-3.65s-5.25,1.29-7.24,3.65c-.19.22-.46.35-.75.35-.27.02-.57-.12-.76-.33-2.1-2.33-5.11-3.67-8.26-3.67s-6.16,1.34-8.26,3.67c-.19.21-.46.35-.76.33-.29,0-.56-.13-.75-.35-1.98-2.35-4.55-3.65-7.24-3.65s-5.25,1.29-7.24,3.65c-.27.32-.71.44-1.11.29-.39-.14-.66-.52-.66-.94v-3c0-14.34,11.66-26,26-26s26,11.66,26,26v3c0,.42-.26.79-.66.94-.11.04-.23.06-.34.06Zm-25-6c3.34,0,6.56,1.28,8.97,3.55,2.26-2.29,5.08-3.55,8.03-3.55,2.52,0,4.94.91,7,2.61v-.61c0-13.23-10.77-24-24-24S6,18.27,6,31.5v.61c2.06-1.69,4.48-2.61,7-2.61,2.95,0,5.77,1.25,8.03,3.55,2.42-2.27,5.63-3.55,8.97-3.55Z"/>
  <path class="cls-1" d="m30,7.5c-.55,0-1-.45-1-1V2.5c0-.55.45-1,1-1s1,.45,1,1v4c0,.55-.45,1-1,1Z"/>
  <path class="cls-1" d="m28,27.5c-.26,0-.51-.1-.71-.29l-7-7c-.39-.39-.39-1.02,0-1.41l3-3c.39-.39,1.02-.39,1.41,0l3.29,3.29,7.29-7.29c.39-.39,1.02-.39,1.41,0l3,3c.39.39.39,1.02,0,1.41l-11,11c-.2.2-.45.29-.71.29Zm-5.59-8l5.59,5.59,9.59-9.59-1.59-1.59-7.29,7.29c-.39.39-1.02.39-1.41,0l-3.29-3.29-1.59,1.59Z"/>
</svg>