<?xml version="1.0" encoding="UTF-8"?>
<svg id="Layer_1" data-name="Layer 1" xmlns="http://www.w3.org/2000/svg" viewBox="0 0 60 60">
  <defs>
    <style>
      .cls-1 {
        fill: #37464c;
        stroke-width: 0px;
      }
    </style>
  </defs>
  <path class="cls-1" d="m21.69,56.46H4.39c-.55,0-1-.45-1-1s.45-1,1-1h16.3v-5.09c0-.55.45-1,1-1h16.3v-5.09c0-.55.45-1,1-1h15.71V5.73c0-.55.45-1,1-1s1,.45,1,1v37.55c0,.55-.45,1-1,1h-15.71v5.09c0,.55-.45,1-1,1h-16.3v5.09c0,.55-.45,1-1,1Z"/>
  <path class="cls-1" d="m24.62,13.88c-2.38,0-4.32-1.94-4.32-4.32s1.94-4.32,4.32-4.32,4.32,1.94,4.32,4.32-1.94,4.32-4.32,4.32Zm0-7.65c-1.83,0-3.32,1.49-3.32,3.32s1.49,3.32,3.32,3.32,3.32-1.49,3.32-3.32-1.49-3.32-3.32-3.32Z"/>
  <path class="cls-1" d="m24.62,14.38c-2.66,0-4.82-2.16-4.82-4.82s2.16-4.82,4.82-4.82,4.82,2.16,4.82,4.82-2.16,4.82-4.82,4.82Zm0-7.65c-1.56,0-2.82,1.27-2.82,2.82s1.27,2.82,2.82,2.82,2.82-1.27,2.82-2.82-1.27-2.82-2.82-2.82Z"/>
  <path class="cls-1" d="m24.62,14.38c-2.66,0-4.82-2.16-4.82-4.82s2.16-4.82,4.82-4.82,4.82,2.16,4.82,4.82-2.16,4.82-4.82,4.82Zm0-7.65c-1.56,0-2.82,1.27-2.82,2.82s1.27,2.82,2.82,2.82,2.82-1.27,2.82-2.82-1.27-2.82-2.82-2.82Z"/>
  <path class="cls-1" d="m12.45,52.29c-.37,0-.75-.07-1.12-.21-1.64-.62-2.47-2.46-1.85-4.11l7.76-26.88h-2.54l-3.5,6.18c-.56,1-1.63,1.62-2.77,1.62-.55,0-1.09-.14-1.56-.41-.74-.42-1.28-1.1-1.5-1.92s-.12-1.68.3-2.42l4.41-7.8c.57-1,1.63-1.62,2.77-1.62h9.89c1.85,0,3.62.88,4.74,2.35l4,5.26,5.21-1.12c.92-.19,1.87.02,2.61.59.74.57,1.19,1.43,1.24,2.36.08,1.54-1.05,2.96-2.63,3.3l-7.07,1.52c-1.19.26-2.47-.22-3.21-1.19l-2.48-3.28-2.22,6.39,6.05.37c.08,0,.17.02.25.05.74.24,1.27.84,1.51,1.69l2.66,9.08c.56,1.61-.32,3.43-1.98,4.01-.34.12-.69.18-1.05.18-1.35,0-2.56-.86-3.01-2.14l-2.4-6.25-4.92-.1-4.59,12.43c-.48,1.28-1.7,2.06-2.99,2.06Zm1.66-33.19h4.45c.31,0,.61.15.8.4s.25.58.16.88l-8.15,28.23c-.26.69.05,1.37.66,1.61.61.23,1.3-.08,1.53-.69l4.84-13.09c.15-.4.52-.67.96-.65l6.3.13c.41,0,.77.26.91.64l2.65,6.91c.22.64.93.97,1.52.76.62-.22.95-.89.73-1.51l-2.68-9.14c-.04-.15-.09-.25-.14-.3l-7.17-.44c-.31-.02-.6-.18-.77-.44s-.21-.59-.11-.88l3.26-9.4c.12-.35.42-.6.79-.66.37-.06.73.09.95.39l3.6,4.77c.27.36.75.54,1.19.44l7.07-1.52c.62-.13,1.09-.68,1.06-1.24-.02-.36-.18-.67-.46-.88-.28-.21-.64-.29-.98-.22l-5.83,1.26c-.38.08-.77-.06-1.01-.37l-4.38-5.77c-.74-.98-1.92-1.56-3.14-1.56h-9.89c-.43,0-.82.23-1.03.6l-4.41,7.8c-.16.27-.19.59-.11.9.08.31.28.56.56.71.55.31,1.3.1,1.62-.45l3.79-6.69c.18-.31.51-.51.87-.51Z"/>
  <path class="cls-1" d="m55.71,16.19c-.1,0-.19-.01-.29-.04l-15.81-4.73c-.42-.13-.71-.52-.71-.96s.29-.83.71-.96l15.81-4.73c.3-.09.63-.03.88.16.25.19.4.49.4.8v9.46c0,.32-.15.61-.4.8-.17.13-.38.2-.6.2Zm-12.32-5.73l11.32,3.39v-6.77l-11.32,3.39Z"/>
</svg>