<?xml version="1.0" encoding="UTF-8"?>
<svg id="Layer_1" data-name="Layer 1" xmlns="http://www.w3.org/2000/svg" viewBox="0 0 60 60">
  <defs>
    <style>
      .cls-1 {
        fill: #37464c;
        stroke-width: 0px;
      }
    </style>
  </defs>
  <path class="cls-1" d="m32.32,45.17h-12.74c-.55,0-1-.45-1-1s.45-1,1-1h12.74c.55,0,1,.45,1,1s-.45,1-1,1Z"/>
  <path class="cls-1" d="m32.97,39.09H9.26c-2.61,0-4.74-2.13-4.74-4.74V11.51c0-2.61,2.13-4.74,4.74-4.74h35.02c2.61,0,4.74,2.13,4.74,4.74v11.42c0,.55-.45,1-1,1s-1-.45-1-1v-11.42c0-1.51-1.23-2.74-2.74-2.74H9.26c-1.51,0-2.74,1.23-2.74,2.74v22.85c0,1.51,1.23,2.74,2.74,2.74h23.71c.55,0,1,.45,1,1s-.45,1-1,1Z"/>
  <path class="cls-1" d="m47.38,37.44c-.19,0-.39-.06-.56-.17-.46-.31-.58-.93-.27-1.39.31-.45.47-.98.47-1.53v-1.12c0-.55.45-1,1-1s1,.45,1,1v1.12c0,.95-.28,1.86-.81,2.65-.19.29-.51.44-.83.44Z"/>
  <path class="cls-1" d="m41.16,33.84H5.52c-.55,0-1-.45-1-1s.45-1,1-1h35.64c.55,0,1,.45,1,1s-.45,1-1,1Z"/>
  <path class="cls-1" d="m26.77,45.17c-.55,0-1-.45-1-1v-6.08c0-.55.45-1,1-1s1,.45,1,1v6.08c0,.55-.45,1-1,1Z"/>
  <path class="cls-1" d="m26.77,20.3c-2.52,0-4.57-2.05-4.57-4.57s2.05-4.57,4.57-4.57,4.57,2.05,4.57,4.57-2.05,4.57-4.57,4.57Zm0-7.15c-1.42,0-2.57,1.15-2.57,2.57s1.16,2.57,2.57,2.57,2.57-1.15,2.57-2.57-1.16-2.57-2.57-2.57Z"/>
  <path class="cls-1" d="m35.27,30.54h-2v-5.58c0-1.05-.85-1.9-1.9-1.9h-9.2c-1.05,0-1.9.85-1.9,1.9v5.58h-2v-5.58c0-2.15,1.75-3.9,3.9-3.9h9.2c2.15,0,3.9,1.75,3.9,3.9v5.58Z"/>
  <path class="cls-1" d="m23.39,30.54c-.55,0-1-.45-1-1v-2.84c0-.55.45-1,1-1s1,.45,1,1v2.84c0,.55-.45,1-1,1Z"/>
  <path class="cls-1" d="m30.15,30.54c-.55,0-1-.45-1-1v-2.84c0-.55.45-1,1-1s1,.45,1,1v2.84c0,.55-.45,1-1,1Z"/>
  <rect class="cls-1" x="22.39" y="26.74" width="2" height="3.8"/>
  <rect class="cls-1" x="29.15" y="26.74" width="2" height="3.8"/>
  <path class="cls-1" d="m44.7,35.05c-3.53,0-6.4-2.87-6.4-6.4s2.87-6.4,6.4-6.4,6.4,2.87,6.4,6.4-2.87,6.4-6.4,6.4Zm0-11.8c-2.98,0-5.4,2.42-5.4,5.4s2.42,5.4,5.4,5.4,5.4-2.42,5.4-5.4-2.42-5.4-5.4-5.4Z"/>
  <path class="cls-1" d="m57.58,54.5h-1v-11.75c0-2.36-1.92-4.28-4.28-4.28h-15.18c-2.36,0-4.28,1.92-4.28,4.28v11.75h-1v-11.75c0-2.91,2.37-5.28,5.28-5.28h15.18c2.91,0,5.28,2.37,5.28,5.28v11.75Z"/>
  <path class="cls-1" d="m44.7,35.02c-3.8,0-6.9-3.09-6.9-6.9s3.09-6.9,6.9-6.9,6.9,3.09,6.9,6.9c0,2.37-1.2,4.55-3.2,5.82h0c-1.1.7-2.38,1.07-3.7,1.07Zm3.16-1.92h0,0Zm-3.16-9.88c-2.7,0-4.9,2.2-4.9,4.9s2.2,4.9,4.9,4.9c.93,0,1.84-.26,2.62-.76h0c1.42-.91,2.27-2.45,2.27-4.14,0-2.7-2.2-4.9-4.9-4.9Z"/>
  <path class="cls-1" d="m33.32,53.98h-2v-12.75c0-1.47.55-2.87,1.56-3.95l.68-.73,1.46,1.37-.68.73c-.66.7-1.02,1.62-1.02,2.58v12.75Z"/>
  <path class="cls-1" d="m58.08,53.98h-2v-12.75c0-2.09-1.7-3.78-3.78-3.78h-15.19c-1.06,0-2.04.43-2.77,1.2l-.68.73-1.46-1.37.68-.73c1.09-1.17,2.63-1.84,4.23-1.84h15.19c3.19,0,5.78,2.59,5.78,5.78v12.75Z"/>
  <path class="cls-1" d="m37.93,54.68c-.55,0-1-.45-1-1v-8.88c0-.55.45-1,1-1s1,.45,1,1v8.88c0,.55-.45,1-1,1Z"/>
  <path class="cls-1" d="m51.47,53.85c-.55,0-1-.45-1-1v-8.88c0-.55.45-1,1-1s1,.45,1,1v8.88c0,.55-.45,1-1,1Z"/>
</svg>