<?xml version="1.0" encoding="UTF-8"?>
<svg id="Layer_1" data-name="Layer 1" xmlns="http://www.w3.org/2000/svg" viewBox="0 0 60 60">
  <defs>
    <style>
      .cls-1 {
        fill: #37464c;
        stroke-width: 0px;
      }
    </style>
  </defs>
  <g>
    <path class="cls-1" d="m47.55,54.11H7.62c-2.38,0-4.32-1.94-4.32-4.32v-27.45c0-1.15.45-2.24,1.27-3.05.82-.82,1.9-1.26,3.05-1.26h39.94c2.38,0,4.32,1.94,4.32,4.32v7.62c0,.32-.26.58-.58.58h0c-.32,0-.58-.26-.58-.58v-7.62c0-1.74-1.41-3.15-3.15-3.15H7.62s0,0,0,0c-.84,0-1.63.33-2.23.92-.59.6-.92,1.39-.92,2.23v27.45c0,1.74,1.41,3.15,3.15,3.15h39.94c1.74,0,3.15-1.41,3.15-3.15v-7.82c0-.32.26-.58.58-.58h0c.32,0,.58.26.58.58v7.82c0,2.38-1.94,4.32-4.32,4.32Z"/>
    <path class="cls-1" d="m47.55,54.49H7.62c-2.59,0-4.69-2.11-4.69-4.7v-27.45c0-1.25.49-2.43,1.38-3.32.89-.89,2.06-1.37,3.32-1.37h39.94c2.59,0,4.69,2.11,4.69,4.7v7.62c0,.53-.43.96-.96.96s-.96-.43-.96-.96v-7.62c0-1.53-1.24-2.78-2.77-2.78H7.62c-.74,0-1.44.28-1.96.81-.52.52-.81,1.22-.81,1.96v27.45c0,1.53,1.24,2.78,2.77,2.78h39.94c1.53,0,2.77-1.24,2.77-2.77v-7.82c0-.53.43-.96.96-.96s.96.43.96.96v7.82c0,2.59-2.11,4.69-4.69,4.69ZM7.62,18.39c-1.05,0-2.04.41-2.79,1.16-.75.74-1.16,1.73-1.16,2.79v27.45c0,2.17,1.76,3.94,3.94,3.94h39.94c2.17,0,3.94-1.76,3.94-3.94v-7.82c0-.23-.42-.23-.42,0v7.82c0,1.94-1.58,3.53-3.53,3.53H7.62c-1.94,0-3.52-1.59-3.52-3.53v-27.45c0-.94.37-1.83,1.04-2.49.67-.67,1.55-1.03,2.49-1.03h39.94c1.94,0,3.52,1.59,3.52,3.53v7.62c0,.23.42.23.42,0v-7.62c0-2.17-1.77-3.94-3.94-3.94H7.62Z"/>
  </g>
  <g>
    <path class="cls-1" d="m50.38,42.68h-13.38c-3.7,0-6.71-3.01-6.71-6.71,0-1.79.7-3.48,1.96-4.74,1.27-1.27,2.95-1.96,4.74-1.96h13.38c1.13,0,2.18.44,2.98,1.24.8.8,1.23,1.85,1.23,2.98v4.99c0,1.13-.44,2.18-1.23,2.98-.8.8-1.85,1.23-2.98,1.23Zm-13.38-12.25c-1.48,0-2.87.58-3.92,1.62-1.05,1.05-1.62,2.44-1.62,3.92,0,3.06,2.48,5.54,5.54,5.54h13.38s0,0,0,0c.81,0,1.58-.32,2.15-.89.58-.58.89-1.34.89-2.15v-4.99c0-.81-.32-1.58-.89-2.15-.57-.58-1.34-.89-2.15-.89h-13.38s0,0,0,0Z"/>
    <path class="cls-1" d="m50.38,43.05h-13.38c-1.89,0-3.67-.74-5.01-2.08s-2.08-3.12-2.08-5.01c0-1.89.74-3.67,2.07-5.01s3.12-2.07,5.01-2.07h13.38c1.23,0,2.38.48,3.24,1.35.87.87,1.34,2.02,1.34,3.24v4.99c0,1.23-.48,2.38-1.34,3.25-.87.87-2.02,1.34-3.24,1.34Zm-13.38-13.42c-1.69,0-3.28.66-4.48,1.86-1.2,1.2-1.86,2.79-1.86,4.48s.66,3.28,1.86,4.48c1.2,1.2,2.79,1.86,4.47,1.86h13.38v.38-.38c1.03,0,1.99-.4,2.71-1.12.72-.72,1.12-1.69,1.12-2.71v-4.99c0-1.03-.4-1.99-1.12-2.71-.72-.73-1.69-1.12-2.71-1.12h-13.38Zm13.38,12.25h-13.38c-3.26,0-5.92-2.66-5.92-5.92,0-1.58.62-3.07,1.73-4.18,1.12-1.12,2.6-1.73,4.18-1.73h13.38c.91,0,1.77.36,2.42,1,.65.65,1,1.51,1,2.42v4.99c0,.91-.36,1.77-1,2.42-.65.65-1.5,1-2.42,1Zm-13.38-11.09c-1.38,0-2.68.54-3.65,1.51-.98.98-1.51,2.27-1.51,3.65,0,2.85,2.32,5.17,5.17,5.17h13.38c.71,0,1.38-.28,1.89-.78.5-.5.78-1.18.78-1.89v-4.99c0-.71-.28-1.38-.78-1.89-.5-.5-1.17-.78-1.89-.78h-13.38Z"/>
  </g>
  <g>
    <path class="cls-1" d="m37.23,39.04h0c-1.7,0-3.08-1.38-3.08-3.08,0-.82.32-1.6.9-2.18.58-.58,1.35-.9,2.18-.9h0c1.7,0,3.08,1.38,3.08,3.08h0c0,1.7-1.38,3.08-3.08,3.08Zm0-4.99c-.51,0-.99.2-1.35.56-.36.36-.56.84-.56,1.35,0,1.05.86,1.91,1.91,1.91h0c1.05,0,1.91-.86,1.91-1.91,0-1.05-.86-1.91-1.91-1.91h0Z"/>
    <path class="cls-1" d="m37.23,39.42c-1.9,0-3.45-1.55-3.45-3.45,0-.92.36-1.79,1.01-2.44.65-.65,1.52-1.01,2.44-1.01,1.9,0,3.45,1.55,3.45,3.45,0,1.9-1.55,3.45-3.45,3.45Zm0-6.16c-.72,0-1.4.28-1.91.79-.51.51-.79,1.19-.79,1.91,0,1.49,1.21,2.7,2.7,2.7h0c1.49,0,2.7-1.21,2.7-2.7,0-1.49-1.21-2.7-2.7-2.7Zm0,4.99c-1.26,0-2.29-1.03-2.29-2.29,0-.61.24-1.19.67-1.62.43-.43,1.01-.67,1.62-.67,1.26,0,2.29,1.03,2.29,2.29s-1.03,2.29-2.29,2.29Zm0-3.83c-.41,0-.8.16-1.09.45-.29.29-.45.68-.45,1.09,0,.85.69,1.54,1.54,1.54s1.54-.69,1.54-1.54-.69-1.54-1.54-1.54Z"/>
  </g>
  <g>
    <path class="cls-1" d="m45.51,18.9H9.37c-.31,0-.56-.24-.58-.54-.02-.3.19-.57.49-.62l36.14-5.44c.17-.03.34.02.47.13.13.11.2.27.2.44v5.45c0,.15-.06.3-.17.41s-.26.17-.41.17Zm-28.35-1.17h27.77s0-4.18,0-4.18l-27.77,4.18Z"/>
    <path class="cls-1" d="m45.51,19.28H9.37c-.5,0-.92-.39-.96-.89-.04-.5.32-.94.81-1.02l36.14-5.44c.27-.04.56.04.77.22.21.18.33.45.33.73v5.45c0,.25-.1.5-.28.68-.18.18-.43.28-.68.28Zm0-6.61s-.02,0-.03,0l-36.14,5.44c-.11.02-.18.11-.18.22,0,.11.1.19.21.19h36.14c.05,0,.11-.02.15-.06.04-.04.06-.09.06-.15v-5.45c0-.06-.03-.12-.07-.16-.04-.03-.08-.05-.13-.05Zm-.21,5.45h-28.14s-.06-.75-.06-.75l28.2-4.25v4.99Zm-23.14-.75h22.39s0-3.37,0-3.37l-22.39,3.37Z"/>
  </g>
  <g>
    <path class="cls-1" d="m7.86,18.9c-.26,0-.49-.17-.56-.43-.08-.28.07-.58.34-.69l29.37-12.1c.18-.07.38-.05.55.05.16.11.26.29.26.48v7.84c0,.29-.21.54-.5.58l-29.37,4.26s-.06,0-.08,0Zm28.79-11.81l-24.22,9.97,24.22-3.51v-6.46Z"/>
    <path class="cls-1" d="m7.86,19.27c-.43,0-.81-.29-.92-.71-.13-.46.11-.95.56-1.14l29.37-12.1c.3-.12.63-.09.9.09s.43.48.43.8v7.84c0,.47-.35.88-.82.95l-29.51,4.27Zm29.37-13.26s-.06,0-.08.02L7.78,18.12c-.1.04-.15.15-.12.25.03.09.11.15.2.15v.38l.03-.38,29.37-4.26c.1-.01.18-.1.18-.21v-7.84c0-.07-.03-.13-.09-.17-.04-.02-.08-.04-.12-.04Zm-27.74,11.86l27.53-11.34v7.35s-27.53,3.99-27.53,3.99Zm26.78-10.22l-20.9,8.61,20.9-3.03v-5.58Z"/>
  </g>
</svg>