<?xml version="1.0" encoding="UTF-8"?>
<svg id="Layer_1" data-name="Layer 1" xmlns="http://www.w3.org/2000/svg" viewBox="0 0 60 60">
  <defs>
    <style>
      .cls-1 {
        fill: #37464c;
        stroke-width: 0px;
      }
    </style>
  </defs>
  <g>
    <path class="cls-1" d="m37.42,45.74h-16.97c-3.56,0-6.45-2.89-6.45-6.45v-20.32c0-3.56,2.89-6.45,6.45-6.45h16.97c3.56,0,6.45,2.89,6.45,6.45v20.32c0,3.56-2.89,6.45-6.45,6.45ZM20.45,13.72c-2.89,0-5.25,2.35-5.25,5.25v20.32c0,2.89,2.35,5.25,5.25,5.25h16.97c2.89,0,5.25-2.35,5.25-5.25v-20.32c0-2.89-2.35-5.25-5.25-5.25h-16.97Z"/>
    <path class="cls-1" d="m37.42,46.12h-16.97c-3.76,0-6.83-3.06-6.83-6.83v-20.32c0-3.76,3.06-6.83,6.83-6.83h16.97c3.76,0,6.83,3.06,6.83,6.83v20.32c0,3.76-3.06,6.83-6.83,6.83ZM20.45,12.89c-3.35,0-6.08,2.73-6.08,6.08v20.32c0,3.35,2.73,6.08,6.08,6.08h16.97c3.35,0,6.08-2.73,6.08-6.08v-20.32c0-3.35-2.73-6.08-6.08-6.08h-16.97Zm16.97,32.02h-16.97c-3.1,0-5.62-2.52-5.62-5.62v-20.32c0-3.1,2.52-5.62,5.62-5.62h16.97c3.1,0,5.62,2.52,5.62,5.62v20.32c0,3.1-2.52,5.62-5.62,5.62ZM20.45,14.09c-2.69,0-4.87,2.19-4.87,4.88v20.32c0,2.69,2.19,4.87,4.87,4.87h16.97c2.69,0,4.87-2.19,4.87-4.87v-20.32c0-2.69-2.19-4.88-4.87-4.88h-16.97Z"/>
  </g>
  <g>
    <path class="cls-1" d="m39.61,13.72h-21.34c-.21,0-.4-.11-.51-.29-.11-.18-.12-.4-.02-.59l5.05-9.7c.1-.2.31-.32.53-.32h11.24c.22,0,.43.12.53.32l5.05,9.7c.1.19.09.41-.02.59-.11.18-.3.29-.51.29Zm-20.35-1.2h19.36l-4.43-8.5h-10.51l-4.43,8.5Z"/>
    <path class="cls-1" d="m39.61,14.09h-21.34c-.34,0-.66-.18-.83-.47-.18-.29-.19-.65-.03-.95l5.05-9.7c.17-.32.5-.53.87-.53h11.24c.36,0,.7.2.86.52l5.05,9.7c.16.3.15.67-.03.96-.18.29-.5.47-.83.47ZM23.32,3.2c-.08,0-.16.05-.2.12l-5.05,9.7c-.04.07-.03.15,0,.22.04.07.11.11.19.11h21.34c.08,0,.15-.04.19-.11.04-.07.04-.15,0-.22l-5.05-9.7c-.04-.07-.12-.12-.2-.12h-11.24Zm15.92,9.7h-20.59l4.82-9.25h10.96l4.82,9.25Zm-19.36-.75h18.12l-4.03-7.75h-10.05l-4.04,7.75Z"/>
  </g>
  <g>
    <path class="cls-1" d="m34.56,55.44h-11.24c-.22,0-.43-.12-.53-.32l-5.05-9.7c-.1-.19-.09-.41.02-.59.11-.18.3-.29.51-.29h21.34c.21,0,.4.11.51.29.11.18.12.4.02.59l-5.05,9.7c-.1.2-.31.32-.53.32Zm-10.87-1.2h10.51l4.43-8.5h-19.36l4.43,8.5Z"/>
    <path class="cls-1" d="m34.56,55.81h-11.24c-.37,0-.7-.2-.87-.53l-5.05-9.7c-.16-.3-.14-.67.03-.96.17-.29.49-.47.83-.47h21.34c.34,0,.66.18.83.47.18.29.19.66.03.96l-5.05,9.69c-.17.32-.5.53-.87.53Zm-16.29-10.9c-.08,0-.15.04-.19.11-.04.07-.04.15,0,.22l5.05,9.7c.04.08.11.12.2.12h11.24c.08,0,.16-.05.2-.12l5.05-9.7c.04-.07.03-.15,0-.22-.04-.07-.11-.11-.19-.11h-21.34Zm16.15,9.7h-10.96l-4.82-9.25h20.59l-4.82,9.25Zm-10.51-.75h10.05l4.03-7.75h-18.12l4.04,7.75Z"/>
  </g>
  <g>
    <path class="cls-1" d="m44.11,28.98h-.83c-.33,0-.6-.27-.6-.6v-8.51c0-.33.27-.6.6-.6h.83c1.04,0,1.89.85,1.89,1.89v5.93c0,1.04-.85,1.89-1.89,1.89Zm-.23-1.2h.23c.38,0,.69-.31.69-.69v-5.93c0-.38-.31-.69-.69-.69h-.23v7.31Z"/>
    <path class="cls-1" d="m43.92,38.99c-.69,0-1.24-.56-1.24-1.24v-7.46c0-.69.56-1.24,1.24-1.24s1.24.56,1.24,1.24v7.46c0,.69-.56,1.24-1.24,1.24Zm0-8.75s-.04.02-.04.04v7.46s.09.05.09,0v-7.46s-.02-.04-.04-.04Z"/>
  </g>
</svg>