<?xml version="1.0" encoding="UTF-8"?>
<svg id="Layer_1" data-name="Layer 1" xmlns="http://www.w3.org/2000/svg" viewBox="0 0 60 60">
  <defs>
    <style>
      .cls-1 {
        fill: #37464c;
        stroke-width: 0px;
      }
    </style>
  </defs>
  <g>
    <path class="cls-1" d="m40.4,34.32h-20.8c-.28,0-.5-.22-.5-.5v-5.81c0-.28.22-.5.5-.5h20.8c.28,0,.5.22.5.5v5.81c0,.28-.22.5-.5.5Zm-20.29-1h19.79v-4.81h-19.79v4.81Z"/>
    <path class="cls-1" d="m40.4,34.69h-20.79c-.48,0-.88-.39-.88-.88v-5.81c0-.48.39-.88.88-.88h20.79c.48,0,.88.39.88.88v5.81c0,.48-.39.88-.88.88Zm-20.79-6.82c-.07,0-.13.06-.13.13v5.81c0,.07.06.13.13.13h20.79c.07,0,.13-.06.13-.13v-5.81c0-.07-.06-.13-.13-.13h-20.79Zm20.67,5.81h-20.54v-5.56h20.54v5.56Zm-19.79-.75h19.04v-4.06h-19.04v4.06Z"/>
  </g>
  <g>
    <g>
      <path class="cls-1" d="m43.3,43.04c-1.88,0-3.41-1.53-3.41-3.41v-17.43c0-1.88,1.53-3.41,3.41-3.41s3.41,1.53,3.41,3.41v17.43c0,1.88-1.53,3.41-3.41,3.41Zm0-23.25c-1.32,0-2.4,1.08-2.4,2.4v17.43c0,1.33,1.08,2.4,2.4,2.4s2.4-1.08,2.4-2.4v-17.43c0-1.33-1.08-2.4-2.4-2.4Z"/>
      <path class="cls-1" d="m43.3,43.41c-2.08,0-3.78-1.7-3.78-3.78v-17.43c0-2.09,1.7-3.78,3.78-3.78s3.78,1.7,3.78,3.78v17.43c0,2.09-1.7,3.78-3.78,3.78Zm0-24.25c-1.67,0-3.03,1.36-3.03,3.03v17.43c0,1.67,1.36,3.03,3.03,3.03s3.03-1.36,3.03-3.03v-17.43c0-1.67-1.36-3.03-3.03-3.03Zm0,23.25c-1.53,0-2.78-1.25-2.78-2.78v-17.43c0-1.53,1.25-2.78,2.78-2.78s2.78,1.25,2.78,2.78v17.43c0,1.53-1.25,2.78-2.78,2.78Zm0-22.24c-1.12,0-2.03.91-2.03,2.03v17.43c0,1.12.91,2.03,2.03,2.03s2.03-.91,2.03-2.03v-17.43c0-1.12-.91-2.03-2.03-2.03Z"/>
    </g>
    <g>
      <path class="cls-1" d="m49.11,38.68c-1.88,0-3.41-1.53-3.41-3.41v-8.72c0-1.88,1.53-3.41,3.41-3.41s3.41,1.53,3.41,3.41v8.72c0,1.88-1.53,3.41-3.41,3.41Zm0-14.53c-1.32,0-2.4,1.08-2.4,2.4v8.72c0,1.33,1.08,2.4,2.4,2.4s2.4-1.08,2.4-2.4v-8.72c0-1.33-1.08-2.4-2.4-2.4Z"/>
      <path class="cls-1" d="m49.11,39.05c-2.08,0-3.78-1.7-3.78-3.78v-8.72c0-2.09,1.7-3.78,3.78-3.78s3.78,1.7,3.78,3.78v8.72c0,2.09-1.7,3.78-3.78,3.78Zm0-15.53c-1.67,0-3.03,1.36-3.03,3.03v8.72c0,1.67,1.36,3.03,3.03,3.03s3.03-1.36,3.03-3.03v-8.72c0-1.67-1.36-3.03-3.03-3.03Zm0,14.53c-1.53,0-2.78-1.25-2.78-2.78v-8.72c0-1.53,1.25-2.78,2.78-2.78s2.78,1.25,2.78,2.78v8.72c0,1.53-1.25,2.78-2.78,2.78Zm0-13.52c-1.12,0-2.03.91-2.03,2.03v8.72c0,1.12.91,2.03,2.03,2.03s2.03-.91,2.03-2.03v-8.72c0-1.12-.91-2.03-2.03-2.03Z"/>
    </g>
  </g>
  <g>
    <g>
      <path class="cls-1" d="m16.7,43.04c-1.88,0-3.41-1.53-3.41-3.41v-17.43c0-1.88,1.53-3.41,3.41-3.41s3.41,1.53,3.41,3.41v17.43c0,1.88-1.53,3.41-3.41,3.41Zm0-23.25c-1.32,0-2.4,1.08-2.4,2.4v17.43c0,1.33,1.08,2.4,2.4,2.4s2.4-1.08,2.4-2.4v-17.43c0-1.33-1.08-2.4-2.4-2.4Z"/>
      <path class="cls-1" d="m16.7,43.41c-2.08,0-3.78-1.7-3.78-3.78v-17.43c0-2.09,1.7-3.78,3.78-3.78s3.78,1.7,3.78,3.78v17.43c0,2.09-1.7,3.78-3.78,3.78Zm0-24.25c-1.67,0-3.03,1.36-3.03,3.03v17.43c0,1.67,1.36,3.03,3.03,3.03s3.03-1.36,3.03-3.03v-17.43c0-1.67-1.36-3.03-3.03-3.03Zm0,23.25c-1.53,0-2.78-1.25-2.78-2.78v-17.43c0-1.53,1.25-2.78,2.78-2.78s2.78,1.25,2.78,2.78v17.43c0,1.53-1.25,2.78-2.78,2.78Zm0-22.24c-1.12,0-2.03.91-2.03,2.03v17.43c0,1.12.91,2.03,2.03,2.03s2.03-.91,2.03-2.03v-17.43c0-1.12-.91-2.03-2.03-2.03Z"/>
    </g>
    <g>
      <path class="cls-1" d="m10.89,38.68c-1.88,0-3.41-1.53-3.41-3.41v-8.72c0-1.88,1.53-3.41,3.41-3.41s3.41,1.53,3.41,3.41v8.72c0,1.88-1.53,3.41-3.41,3.41Zm0-14.53c-1.32,0-2.4,1.08-2.4,2.4v8.72c0,1.33,1.08,2.4,2.4,2.4s2.4-1.08,2.4-2.4v-8.72c0-1.33-1.08-2.4-2.4-2.4Z"/>
      <path class="cls-1" d="m10.89,39.05c-2.08,0-3.78-1.7-3.78-3.78v-8.72c0-2.09,1.7-3.78,3.78-3.78s3.78,1.7,3.78,3.78v8.72c0,2.09-1.7,3.78-3.78,3.78Zm0-15.53c-1.67,0-3.03,1.36-3.03,3.03v8.72c0,1.67,1.36,3.03,3.03,3.03s3.03-1.36,3.03-3.03v-8.72c0-1.67-1.36-3.03-3.03-3.03Zm0,14.53c-1.53,0-2.78-1.25-2.78-2.78v-8.72c0-1.53,1.25-2.78,2.78-2.78s2.78,1.25,2.78,2.78v8.72c0,1.53-1.25,2.78-2.78,2.78Zm0-13.52c-1.12,0-2.03.91-2.03,2.03v8.72c0,1.12.91,2.03,2.03,2.03s2.03-.91,2.03-2.03v-8.72c0-1.12-.91-2.03-2.03-2.03Z"/>
    </g>
  </g>
</svg>