<?xml version="1.0" encoding="UTF-8"?>
<svg id="Layer_1" data-name="Layer 1" xmlns="http://www.w3.org/2000/svg" viewBox="0 0 60 60">
  <defs>
    <style>
      .cls-1 {
        fill: #37464c;
        stroke-width: 0px;
      }
    </style>
  </defs>
  <g>
    <path class="cls-1" d="m31.46,56.45h-1.99c-.32,0-.58-.26-.58-.58v-24.85c0-.32.26-.58.58-.58h1.99c.32,0,.58.26.58.58v24.85c0,.32-.26.58-.58.58Zm-1.41-1.17h.83v-23.69h-.83v23.69Z"/>
    <path class="cls-1" d="m31.46,56.7h-1.99c-.46,0-.83-.37-.83-.83v-24.85c0-.46.37-.83.83-.83h1.99c.46,0,.83.37.83.83v24.85c0,.46-.37.83-.83.83Zm-1.99-26.02c-.18,0-.33.15-.33.33v24.85c0,.18.15.33.33.33h1.99c.18,0,.33-.15.33-.33v-24.85c0-.18-.15-.33-.33-.33h-1.99Zm1.66,24.85h-1.33v-24.19h1.33v24.19Zm-.83-.5h.33v-23.19h-.33v23.19Z"/>
  </g>
  <g>
    <path class="cls-1" d="m30.46,31.53c-1.92,0-3.48-1.56-3.48-3.48s1.56-3.48,3.48-3.48,3.48,1.56,3.48,3.48-1.56,3.48-3.48,3.48Zm0-5.79c-1.28,0-2.31,1.04-2.31,2.31s1.04,2.31,2.31,2.31,2.31-1.04,2.31-2.31-1.04-2.31-2.31-2.31Z"/>
    <path class="cls-1" d="m30.46,31.91c-2.13,0-3.86-1.73-3.86-3.85s1.73-3.85,3.86-3.85,3.86,1.73,3.86,3.85-1.73,3.85-3.86,3.85Zm0-6.96c-1.71,0-3.11,1.39-3.11,3.1s1.39,3.1,3.11,3.1,3.11-1.39,3.11-3.1-1.39-3.1-3.11-3.1Zm0,5.79c-1.48,0-2.69-1.21-2.69-2.69s1.21-2.69,2.69-2.69,2.69,1.21,2.69,2.69-1.21,2.69-2.69,2.69Zm0-4.62c-1.07,0-1.94.87-1.94,1.94s.87,1.94,1.94,1.94,1.94-.87,1.94-1.94-.87-1.94-1.94-1.94Z"/>
  </g>
  <g>
    <path class="cls-1" d="m32.35,25.74h-3.78c-.16,0-.32-.07-.43-.19-.11-.12-.17-.28-.16-.44l1.3-18.42c.04-.61.56-1.09,1.17-1.09s1.13.48,1.17,1.09l1.3,18.42c.01.16-.04.32-.16.44-.11.12-.27.19-.43.19Zm-3.15-1.17h2.52l-1.26-17.79-1.27,17.79Z"/>
    <path class="cls-1" d="m32.35,25.99h-3.78c-.23,0-.45-.1-.61-.26-.16-.17-.24-.4-.22-.63l1.3-18.42c.05-.74.68-1.32,1.42-1.32s1.37.58,1.42,1.32l1.3,18.42c.02.23-.07.46-.22.63-.16.17-.38.26-.61.26Zm-1.89-20.13c-.48,0-.89.38-.92.86l-1.3,18.42c0,.09.03.18.09.25.06.07.15.11.24.11h3.78c.09,0,.18-.04.25-.11.06-.07.09-.16.09-.25l-1.3-18.42c-.03-.48-.44-.86-.92-.86Zm1.53,18.97h-3.06l1.29-18.06h.5l1.28,18.06Zm-2.52-.5h1.99l-.99-14.01-1,14.01Z"/>
  </g>
  <g>
    <path class="cls-1" d="m10,34.95c-.52,0-1-.35-1.14-.87-.16-.59.17-1.21.75-1.41l17.46-6.02c.15-.05.32-.04.46.04.14.08.25.21.29.36l.98,3.65c.04.16.02.32-.07.46-.09.14-.22.23-.38.26l-18.13,3.51c-.07.01-.15.02-.22.02Zm16.86-7l-16.86,5.82,17.52-3.38-.65-2.44Z"/>
    <path class="cls-1" d="m10,35.2c-.64,0-1.21-.43-1.38-1.06-.19-.72.21-1.47.91-1.71l17.46-6.02c.22-.07.46-.06.66.05.2.11.35.3.41.52l.98,3.65c.06.22.02.46-.1.66-.12.2-.32.33-.55.38l-18.13,3.51c-.09.02-.18.03-.27.03Zm17.26-8.34s-.07,0-.11.02l-17.46,6.02c-.46.16-.72.65-.59,1.11.12.46.59.75,1.07.67l18.13-3.51c.09-.02.17-.07.22-.15s.06-.17.04-.26l-.98-3.65c-.02-.09-.08-.16-.17-.21-.05-.03-.1-.04-.16-.04Zm-17.22,7.15l-.13-.48,17.12-5.91.79,2.96-17.78,3.43Zm16.64-5.74l-13.28,4.58,13.79-2.66-.51-1.92Z"/>
  </g>
  <g>
    <path class="cls-1" d="m50.92,34.95c-.07,0-.15,0-.22-.02l-18.13-3.51c-.16-.03-.3-.13-.38-.26-.09-.14-.11-.3-.07-.46l.98-3.65c.04-.16.15-.29.29-.36.14-.08.31-.09.46-.04l17.46,6.02c.58.2.91.82.75,1.41-.14.52-.61.87-1.14.87Zm-17.51-4.56l17.51,3.39-16.86-5.83-.65,2.44Z"/>
    <path class="cls-1" d="m50.92,35.2c-.09,0-.18,0-.27-.03l-18.13-3.51c-.23-.04-.42-.18-.55-.38-.12-.2-.16-.44-.1-.66l.98-3.65c.06-.22.21-.41.41-.52.21-.11.45-.13.66-.05l17.46,6.02c.7.24,1.1,1,.91,1.71-.17.62-.73,1.06-1.38,1.06Zm-17.26-8.34c-.05,0-.11.01-.16.04-.08.04-.14.12-.17.21l-.98,3.65c-.02.09,0,.19.04.26s.13.13.22.15l18.13,3.51c.46.08.94-.21,1.07-.67.12-.47-.13-.96-.59-1.11l-17.46-6.02s-.07-.02-.11-.02Zm17.21,7.17l-17.78-3.44.79-2.96,17.12,5.92-.13.48Zm-17.16-3.83l13.79,2.67-13.28-4.59-.51,1.92Z"/>
  </g>
  <g>
    <path class="cls-1" d="m27.57,50.86s-.05,0-.08,0c-7.78-1-14.65-6.07-17.93-13.21-.13-.29,0-.64.29-.77.29-.13.64,0,.77.29,3.12,6.78,9.64,11.59,17.02,12.54.32.04.55.33.5.65-.04.29-.29.51-.58.51Z"/>
    <path class="cls-1" d="m27.57,51.23h-.12c-7.91-1.03-14.89-6.17-18.23-13.43-.22-.48,0-1.05.47-1.27.48-.22,1.05-.01,1.27.47,3.06,6.67,9.47,11.39,16.73,12.33.25.03.48.16.64.37.16.2.22.45.19.71-.06.48-.47.84-.95.84Zm-17.48-14.04s-.06,0-.09.02c-.1.05-.15.17-.1.28,3.23,7.03,9.99,12.01,17.64,13h.03c.1,0,.19-.08.21-.18,0-.06,0-.11-.04-.15s-.08-.07-.14-.08c-7.51-.97-14.14-5.86-17.32-12.76-.04-.08-.11-.12-.19-.12Z"/>
  </g>
  <g>
    <path class="cls-1" d="m33.03,50.9c-.29,0-.55-.22-.58-.52-.04-.32.19-.61.51-.65,7.47-.85,14.1-5.63,17.29-12.46.14-.29.48-.42.78-.28.29.14.42.48.28.78-3.36,7.2-10.34,12.23-18.22,13.13-.02,0-.04,0-.07,0Z"/>
    <path class="cls-1" d="m33.03,51.27c-.49,0-.9-.37-.95-.85-.06-.53.32-1,.84-1.06,7.35-.84,13.86-5.53,16.99-12.25.22-.48.8-.68,1.27-.46.48.22.69.8.46,1.28-3.42,7.32-10.51,12.43-18.51,13.34h-.11Zm17.76-13.97c-.08,0-.16.04-.19.12-3.25,6.95-9.98,11.81-17.59,12.68-.11.01-.2.12-.18.23.01.1.1.18.21.18v.38l.02-.38c7.75-.88,14.62-5.83,17.93-12.92.05-.1,0-.23-.1-.28-.03-.01-.06-.02-.09-.02Z"/>
  </g>
  <g>
    <path class="cls-1" d="m52.76,30.93s-.04,0-.06,0c-.32-.03-.55-.32-.52-.64.07-.74.11-1.49.11-2.23,0-10.72-7.67-19.78-18.23-21.53-.32-.05-.53-.35-.48-.67.05-.32.35-.53.67-.48,5.31.88,10.17,3.63,13.69,7.74,3.56,4.16,5.52,9.46,5.52,14.94,0,.78-.04,1.58-.12,2.35-.03.3-.28.52-.58.52Z"/>
    <path class="cls-1" d="m52.76,31.3h-.12c-.24-.03-.47-.15-.63-.35-.16-.2-.24-.45-.21-.7.07-.72.11-1.46.11-2.19,0-10.54-7.54-19.44-17.92-21.16-.25-.04-.47-.18-.62-.39-.15-.21-.21-.46-.17-.72.04-.25.18-.47.39-.62s.46-.21.71-.17c5.4.89,10.34,3.69,13.91,7.87,3.62,4.22,5.61,9.62,5.61,15.19,0,.8-.04,1.61-.12,2.39-.05.49-.46.86-.95.86ZM34.15,5.74s-.08.01-.12.04c-.05.03-.08.08-.08.14,0,.05,0,.11.04.16.03.04.08.07.13.08,10.75,1.78,18.55,10.99,18.55,21.9,0,.76-.04,1.52-.12,2.27,0,.06.01.11.05.15.04.04.08.07.14.08l.02.38v-.38c.11,0,.2-.08.21-.19.08-.76.12-1.53.12-2.31,0-5.39-1.93-10.61-5.43-14.7-3.46-4.04-8.24-6.75-13.47-7.61-.01,0-.02,0-.04,0Z"/>
  </g>
  <g>
    <path class="cls-1" d="m8.24,31.6c-.29,0-.54-.21-.58-.51-.13-1-.2-2.02-.2-3.04,0-5.48,1.96-10.79,5.52-14.94,3.52-4.11,8.38-6.86,13.69-7.74.32-.05.62.16.67.48.05.32-.16.62-.48.67-10.56,1.75-18.23,10.81-18.23,21.53,0,.97.06,1.94.19,2.89.04.32-.18.61-.5.66-.03,0-.05,0-.08,0Z"/>
    <path class="cls-1" d="m8.24,31.97c-.48,0-.89-.36-.95-.83-.13-1.02-.2-2.06-.2-3.09,0-5.57,1.99-10.96,5.61-15.19,3.58-4.18,8.52-6.97,13.91-7.87.26-.04.51.02.71.17.21.15.35.37.39.62s-.02.51-.17.71c-.15.21-.37.35-.62.39-10.38,1.72-17.92,10.62-17.92,21.16,0,.95.06,1.9.19,2.84.03.25-.03.5-.19.71-.16.2-.38.33-.64.37h-.13ZM26.77,5.74s-.02,0-.04,0c-5.22.87-10.01,3.57-13.47,7.61-3.5,4.09-5.43,9.31-5.43,14.7,0,1,.07,2,.2,2.99.01.1.1.18.21.18v.38l.02-.38c.06,0,.11-.04.14-.08.03-.04.05-.1.04-.15-.13-.97-.19-1.96-.19-2.94,0-10.91,7.8-20.12,18.54-21.9.11-.02.19-.13.17-.24,0-.06-.04-.1-.08-.14-.04-.03-.08-.04-.12-.04Z"/>
  </g>
  <g>
    <path class="cls-1" d="m22.66,44.5c-.09,0-.17-.02-.26-.06-3.59-1.77-6.54-4.71-8.32-8.29-.14-.29-.02-.64.26-.78.29-.14.64-.03.78.26,1.66,3.35,4.43,6.11,7.79,7.77.29.14.41.49.27.78-.1.21-.31.33-.52.33Z"/>
    <path class="cls-1" d="m22.66,44.88c-.15,0-.29-.03-.42-.1-3.66-1.8-6.68-4.81-8.49-8.46-.11-.23-.13-.49-.05-.73s.25-.44.48-.55c.23-.11.49-.13.73-.05.24.08.44.25.55.48,1.63,3.28,4.33,5.98,7.62,7.59.47.23.67.81.44,1.29-.16.33-.49.53-.86.53Zm-8.05-9.2s-.06,0-.09.02c-.05.02-.09.07-.11.12s-.01.11.01.16c1.74,3.51,4.63,6.4,8.15,8.12l.09.02c.06,0,.15-.03.19-.12.05-.1,0-.23-.1-.28-3.43-1.69-6.26-4.51-7.96-7.94-.02-.05-.07-.09-.12-.1-.02,0-.04-.01-.07-.01Z"/>
  </g>
  <g>
    <path class="cls-1" d="m33.03,46.12c-.29,0-.53-.21-.58-.5-.05-.32.17-.62.49-.66,4.26-.62,8.1-2.82,10.82-6.18.2-.25.57-.29.82-.09.25.2.29.57.09.82-2.91,3.6-7.01,5.94-11.56,6.61-.03,0-.06,0-.08,0Z"/>
    <path class="cls-1" d="m33.03,46.5c-.47,0-.88-.35-.95-.82-.04-.25.03-.51.18-.71.15-.21.38-.34.63-.38,4.17-.61,7.93-2.75,10.59-6.05.33-.41.94-.47,1.35-.14.2.16.32.39.35.64s-.05.5-.21.71c-2.96,3.67-7.15,6.06-11.8,6.74h-.14Zm11.2-7.56c-.06,0-.12.03-.16.08-2.78,3.44-6.71,5.69-11.06,6.32-.05,0-.1.04-.14.08-.03.04-.05.1-.04.16.01.1.1.18.21.18v.38l.03-.38c4.46-.65,8.48-2.95,11.32-6.47.04-.04.05-.1.05-.15s-.03-.1-.08-.14c-.04-.03-.09-.05-.13-.05Z"/>
  </g>
  <g>
    <path class="cls-1" d="m48.14,28.64c-.32,0-.58-.26-.58-.58,0-5.19-2.32-10.04-6.36-13.3-.25-.2-.29-.57-.09-.82.2-.25.57-.29.82-.09,4.32,3.49,6.8,8.67,6.8,14.21,0,.32-.26.58-.58.58Z"/>
    <path class="cls-1" d="m48.14,29.01c-.53,0-.96-.43-.96-.96,0-5.08-2.27-9.82-6.22-13.01-.2-.16-.32-.39-.35-.65-.03-.25.05-.5.21-.7.16-.2.39-.32.64-.35.25-.03.5.05.7.21,4.41,3.56,6.94,8.85,6.94,14.5,0,.53-.43.96-.96.96Zm-6.58-14.93s-.01,0-.02,0c-.05,0-.1.03-.14.08-.04.04-.05.1-.05.15,0,.06.03.11.08.14,4.13,3.33,6.5,8.29,6.5,13.59,0,.23.42.23.42,0,0-5.43-2.43-10.51-6.66-13.92-.04-.03-.08-.05-.13-.05Z"/>
  </g>
  <g>
    <path class="cls-1" d="m18.82,15.33c-.16,0-.32-.07-.44-.2-.21-.24-.19-.61.05-.82,2.28-1.99,5.03-3.4,7.97-4.06.31-.07.63.13.7.44.07.31-.13.63-.44.7-2.75.62-5.33,1.94-7.46,3.8-.11.1-.25.14-.38.14Z"/>
    <path class="cls-1" d="m18.82,15.71c-.27,0-.54-.12-.72-.33-.35-.4-.31-1.01.09-1.36,2.32-2.03,5.14-3.47,8.14-4.15.24-.06.5-.01.72.12.22.14.37.35.43.6.06.25.01.51-.12.72-.14.22-.35.37-.6.42-2.69.61-5.21,1.9-7.3,3.72-.17.15-.4.24-.63.24Zm7.72-5.1s-.03,0-.05,0c-2.88.65-5.58,2.03-7.81,3.98-.09.08-.09.21-.02.3.07.08.21.09.29.02,2.18-1.91,4.82-3.25,7.62-3.89.05-.01.1-.04.13-.09.03-.05.04-.1.03-.16-.01-.06-.05-.1-.09-.13-.02-.01-.06-.03-.11-.03Z"/>
  </g>
  <g>
    <path class="cls-1" d="m26.95,39.16c-.06,0-.12,0-.18-.03-1.23-.41-2.38-1.02-3.41-1.81-.26-.2-.3-.56-.11-.82.2-.26.56-.3.82-.11.93.71,1.96,1.26,3.07,1.63.31.1.47.43.37.74-.08.24-.31.4-.55.4Z"/>
    <path class="cls-1" d="m26.95,39.54c-.1,0-.2-.02-.3-.05-1.27-.42-2.46-1.05-3.52-1.87-.42-.32-.5-.92-.18-1.34.32-.42.93-.5,1.35-.18.9.69,1.89,1.22,2.96,1.57.24.08.44.25.55.48s.13.49.05.73c-.13.39-.5.66-.91.66Zm-3.24-2.89c-.06,0-.12.03-.17.08-.07.09-.05.22.04.29,1,.77,2.11,1.36,3.3,1.75h.07c.09.01.17-.05.2-.13.02-.05.01-.11-.01-.16-.02-.05-.07-.09-.12-.11-1.14-.38-2.21-.95-3.18-1.69-.04-.03-.08-.04-.13-.04Z"/>
  </g>
  <g>
    <path class="cls-1" d="m34.72,38.88c-.23,0-.45-.14-.54-.36-.12-.3.02-.64.31-.76,1.73-.72,3.24-1.89,4.37-3.4.19-.26.56-.31.82-.12.26.19.31.56.12.82-1.26,1.67-2.94,2.98-4.86,3.78-.07.03-.15.04-.22.04Z"/>
    <path class="cls-1" d="m34.72,39.26c-.39,0-.74-.23-.89-.59-.2-.49.03-1.05.52-1.25,1.67-.69,3.13-1.83,4.22-3.28.32-.42.92-.51,1.34-.19.21.15.34.38.37.63.04.25-.03.51-.18.71-1.3,1.72-3.03,3.07-5.01,3.9-.12.05-.24.07-.37.07Zm4.62-4.75c-.06,0-.13.03-.17.08-1.17,1.56-2.74,2.77-4.53,3.52-.11.04-.16.17-.11.27.04.1.17.16.27.11,1.86-.77,3.49-2.04,4.7-3.65.03-.04.05-.1.04-.15,0-.05-.04-.1-.08-.14-.04-.03-.08-.04-.13-.04Z"/>
  </g>
  <g>
    <path class="cls-1" d="m40.19,23.3c-.21,0-.41-.11-.51-.3-1.14-2.07-2.97-3.72-5.14-4.63-.3-.13-.44-.47-.31-.76.13-.3.47-.44.76-.31,2.42,1.02,4.45,2.85,5.71,5.15.16.28.05.64-.23.79-.09.05-.19.07-.28.07Z"/>
    <path class="cls-1" d="m40.19,23.67c-.35,0-.67-.19-.84-.5-1.1-2-2.86-3.58-4.96-4.47-.49-.21-.72-.77-.51-1.26.21-.49.76-.72,1.26-.51,2.5,1.05,4.59,2.94,5.9,5.31.12.22.15.48.08.73-.07.25-.23.45-.46.57-.14.08-.3.12-.46.12Zm-5.43-6.06c-.08,0-.16.05-.19.13-.04.11,0,.23.11.27,2.25.95,4.15,2.65,5.33,4.8.05.1.18.14.28.08.05-.03.08-.07.1-.12s0-.11-.02-.16c-1.23-2.23-3.19-4-5.53-4.98-.03-.01-.05-.02-.08-.02Z"/>
  </g>
  <g>
    <path class="cls-1" d="m19.4,27.76s-.03,0-.05,0c-.32-.03-.56-.31-.54-.63.25-3.25,1.88-6.28,4.46-8.29.25-.2.62-.15.82.1.2.25.15.62-.1.82-2.32,1.81-3.79,4.53-4.02,7.46-.02.31-.28.54-.58.54Z"/>
    <path class="cls-1" d="m19.4,28.14h-.07c-.26-.02-.49-.14-.66-.34-.17-.2-.25-.44-.23-.7.26-3.36,1.94-6.48,4.61-8.56.2-.16.45-.23.71-.2.25.03.48.16.64.36.16.2.23.45.2.71-.03.25-.16.48-.36.64-2.24,1.75-3.65,4.37-3.87,7.19-.04.5-.46.88-.96.88Zm4.24-9.04s-.09.01-.13.04c-2.5,1.95-4.08,4.88-4.32,8.02,0,.06.01.11.05.15.04.04.09.07.14.07l.02.38v-.38c.11,0,.2-.08.21-.19.24-3.03,1.75-5.85,4.16-7.73.04-.03.07-.08.08-.14,0-.06,0-.11-.04-.15s-.08-.07-.14-.08c0,0-.02,0-.03,0Z"/>
  </g>
</svg>