<?xml version="1.0" encoding="UTF-8"?>
<svg id="Layer_1" data-name="Layer 1" xmlns="http://www.w3.org/2000/svg" viewBox="0 0 60 60">
  <defs>
    <style>
      .cls-1 {
        fill: #37464c;
        stroke-width: 0px;
      }
    </style>
  </defs>
  <path class="cls-1" d="m28,26c-1.1,0-2-.9-2-2s.9-2,2-2,2,.9,2,2-.9,2-2,2Zm0-2h0s0,0,0,0Z"/>
  <path class="cls-1" d="m57,25h-29c-.55,0-1-.45-1-1s.45-1,1-1h29c.55,0,1,.45,1,1s-.45,1-1,1Z"/>
  <path class="cls-1" d="m59,29h-7c-.31,0-.61-.15-.8-.4l-3-4c-.27-.36-.27-.84,0-1.2l3-4c.19-.25.48-.4.8-.4h7c.35,0,.67.18.85.47.18.29.2.66.04.97l-1.78,3.55,1.78,3.55c.15.31.14.68-.04.97-.18.29-.5.47-.85.47Zm-6.5-2h4.88l-1.28-2.55c-.14-.28-.14-.61,0-.89l1.28-2.55h-4.88l-2.25,3,2.25,3Z"/>
  <path class="cls-1" d="m19,56c-.55,0-1-.45-1-1v-5h-7c-2.76,0-5-2.24-5-5v-9h-2.94c-1.26,0-2.34-.72-2.82-1.89-.49-1.17-.24-2.46.66-3.35l7.11-7.16c.22-10.86,9.11-19.6,19.99-19.6s20,8.97,20,20c0,.55-.45,1-1,1s-1-.45-1-1c0-9.93-8.07-18-18-18S10,14.07,10,24c0,.26-.1.54-.29.72l-7.39,7.45c-.47.47-.29,1.02-.23,1.18.06.15.32.65.97.65h3.94c.55,0,1,.45,1,1v10c0,1.65,1.35,3,3,3h8c.55,0,1,.45,1,1v6c0,.55-.45,1-1,1Z"/>
  <path class="cls-1" d="m41,56c-.55,0-1-.45-1-1v-17.17c0-.28.11-.54.31-.73,2.67-2.51,4.49-5.73,5.26-9.31.12-.54.65-.88,1.19-.77.54.12.88.65.77,1.19-.82,3.83-2.73,7.3-5.53,10.05v16.74c0,.55-.45,1-1,1Z"/>
  <path class="cls-1" d="m28,38c-7.72,0-14-6.28-14-14s6.28-14,14-14,14,6.28,14,14c0,.55-.45,1-1,1s-1-.45-1-1c0-6.62-5.38-12-12-12s-12,5.38-12,12,5.38,12,12,12c5.22,0,9.81-3.34,11.41-8.31.17-.52.73-.81,1.26-.64.53.17.81.73.64,1.26-1.87,5.8-7.23,9.69-13.32,9.69Z"/>
  <path class="cls-1" d="m28,32c-4.41,0-8-3.59-8-8s3.59-8,8-8,8,3.59,8,8c0,.55-.45,1-1,1s-1-.45-1-1c0-3.31-2.69-6-6-6s-6,2.69-6,6,2.69,6,6,6c1.96,0,3.8-.96,4.92-2.57.32-.45.94-.56,1.39-.25.45.32.56.94.25,1.39-1.5,2.15-3.95,3.43-6.56,3.43Z"/>
</svg>