<?xml version="1.0" encoding="UTF-8"?>
<svg id="Layer_1" data-name="Layer 1" xmlns="http://www.w3.org/2000/svg" viewBox="0 0 60 60">
  <defs>
    <style>
      .cls-1 {
        fill: #37464c;
        stroke-width: 0px;
      }
    </style>
  </defs>
  <path class="cls-1" d="m51.51,52.98H8.62c-1.37,0-2.48-1.09-2.48-2.44V8.9c0-1.34,1.11-2.44,2.48-2.44h42.89c1.37,0,2.48,1.09,2.48,2.44v41.65c0,1.34-1.11,2.44-2.48,2.44ZM8.62,8.46c-.26,0-.48.2-.48.44v41.65c0,.24.21.44.48.44h42.89c.26,0,.48-.2.48-.44V8.9c0-.24-.21-.44-.48-.44H8.62Z"/>
  <path class="cls-1" d="m30.07,52.98c-13.19,0-23.92-10.43-23.92-23.26S16.87,6.46,30.07,6.46s23.92,10.43,23.92,23.26-10.73,23.26-23.92,23.26Zm0-44.52c-12.09,0-21.92,9.54-21.92,21.26s9.83,21.26,21.92,21.26,21.92-9.54,21.92-21.26-9.83-21.26-21.92-21.26Z"/>
  <path class="cls-1" d="m30.06,13.62c-.55,0-1-.45-1-1V2.29c0-.55.45-1,1-1s1,.45,1,1v10.33c0,.55-.45,1-1,1Z"/>
  <path class="cls-1" d="m30.06,58.15c-.55,0-1-.45-1-1v-10.33c0-.55.45-1,1-1s1,.45,1,1v10.33c0,.55-.45,1-1,1Z"/>
  <path class="cls-1" d="m12.46,30.72H1.82c-.55,0-1-.45-1-1s.45-1,1-1h10.64c.55,0,1,.45,1,1s-.45,1-1,1Z"/>
  <path class="cls-1" d="m58.31,30.72h-10.64c-.55,0-1-.45-1-1s.45-1,1-1h10.64c.55,0,1,.45,1,1s-.45,1-1,1Z"/>
  <path class="cls-1" d="m30.06,41.86c-6.88,0-12.47-5.44-12.47-12.14s5.59-12.14,12.47-12.14,12.47,5.44,12.47,12.14-5.59,12.14-12.47,12.14Zm0-22.27c-5.77,0-10.47,4.55-10.47,10.14s4.7,10.14,10.47,10.14,10.47-4.55,10.47-10.14-4.7-10.14-10.47-10.14Z"/>
  <path class="cls-1" d="m27.47,36.18c-.31,0-.61-.14-.81-.41l-3.74-5.12c-.33-.45-.23-1.07.22-1.4.45-.32,1.07-.23,1.4.22l3.74,5.12c.33.45.23,1.07-.22,1.4-.18.13-.38.19-.59.19Z"/>
  <path class="cls-1" d="m27.88,36.18c-.21,0-.42-.07-.6-.2-.44-.33-.53-.96-.2-1.4l8.51-11.26c.33-.44.96-.53,1.4-.19.44.33.53.96.2,1.4l-8.51,11.26c-.2.26-.5.4-.8.4Z"/>
</svg>