<?xml version="1.0" encoding="UTF-8"?>
<svg id="Layer_1" data-name="Layer 1" xmlns="http://www.w3.org/2000/svg" viewBox="0 0 60 60">
  <defs>
    <style>
      .cls-1 {
        fill: #37464c;
        stroke-width: 0px;
      }
    </style>
  </defs>
  <g>
    <path class="cls-1" d="m30.49,54.21c-.65,0-1.22-.42-1.42-1.03l-.92-2.88c-1.48-4.63-2.23-9.45-2.23-14.31V11.01c0-2.52,2.05-4.56,4.57-4.56s4.57,2.05,4.57,4.56v25.02c0,4.91-.77,9.77-2.28,14.45l-.87,2.71c-.2.62-.77,1.03-1.42,1.03Zm0-46.62c-1.88,0-3.42,1.53-3.42,3.41v24.99c0,4.74.73,9.44,2.18,13.96l.92,2.88c.04.14.17.23.32.23s.28-.09.32-.23l.87-2.71c1.47-4.56,2.22-9.3,2.22-14.09V11.01c0-1.88-1.53-3.41-3.42-3.41Z"/>
    <path class="cls-1" d="m30.49,54.59c-.82,0-1.53-.52-1.78-1.29l-.92-2.88c-1.49-4.67-2.25-9.52-2.25-14.42V11.01c0-2.72,2.22-4.94,4.94-4.94s4.94,2.21,4.94,4.94v25.02c0,4.95-.77,9.85-2.29,14.56l-.88,2.71c-.25.77-.96,1.29-1.77,1.29Zm0-47.77c-2.31,0-4.19,1.88-4.19,4.19v24.99c0,4.82.75,9.6,2.21,14.19l.92,2.88c.15.46.57.77,1.06.77s.91-.31,1.06-.77l.88-2.71c1.5-4.64,2.26-9.46,2.26-14.33V11.01c0-2.31-1.88-4.19-4.19-4.19Zm0,46.62c-.31,0-.58-.2-.68-.49l-.92-2.88c-1.46-4.56-2.2-9.29-2.2-14.07V11.01c0-2.09,1.7-3.78,3.79-3.78s3.79,1.7,3.79,3.78v25.02c0,4.83-.75,9.61-2.24,14.21l-.87,2.71c-.09.29-.37.49-.68.49Zm0-45.46c-1.68,0-3.04,1.36-3.04,3.03v24.99c0,4.7.73,9.36,2.16,13.84l.92,2.88.8-2.71c1.46-4.52,2.2-9.23,2.2-13.98V11.01c0-1.67-1.36-3.03-3.04-3.03Z"/>
  </g>
  <g>
    <path class="cls-1" d="m22.71,53.5c-1.17,0-2.18-.67-2.63-1.75-.45-1.08-.21-2.26.62-3.09l5.94-5.93c.23-.22.59-.22.81,0,.22.23.22.59,0,.81l-5.94,5.93c-.59.59-.57,1.33-.37,1.83.2.49.7,1.01,1.49,1.04l6.23-1.77c.31-.09.62.09.71.4s-.09.62-.4.71l-6.31,1.79c-.05.01-.1.02-.16.02Z"/>
    <path class="cls-1" d="m22.71,53.88c-1.33,0-2.47-.76-2.97-1.99-.51-1.22-.24-2.56.7-3.5l5.94-5.93c.18-.18.42-.28.67-.28h0c.25,0,.49.1.67.28.18.18.28.42.28.67,0,.25-.1.49-.28.67l-5.94,5.93c-.46.46-.45,1.04-.28,1.43.15.36.52.76,1.1.81l6.17-1.75c.51-.14,1.03.15,1.17.66.07.24.04.5-.08.72s-.33.38-.57.45l-6.31,1.79c-.08.02-.17.04-.26.04Zm4.34-10.94c-.05,0-.1.02-.14.06l-5.94,5.93c-.72.72-.92,1.75-.54,2.68.39.94,1.26,1.52,2.28,1.52.02,0,.04,0,.05,0l6.31-1.79c.05-.02.1-.05.12-.1.03-.05.03-.1.02-.15-.03-.11-.15-.17-.25-.14l-6.29,1.78h-.06c-.97-.04-1.58-.68-1.82-1.27-.25-.61-.27-1.53.45-2.24l5.94-5.93s.06-.09.06-.14-.02-.1-.06-.14c-.04-.04-.09-.06-.14-.06h0Z"/>
  </g>
  <g>
    <path class="cls-1" d="m38.56,53.5c-.05,0-.11,0-.16-.02l-6.31-1.79c-.31-.09-.48-.41-.4-.71.09-.31.41-.48.71-.4l6.23,1.77c.79-.03,1.28-.55,1.49-1.04.21-.5.22-1.25-.37-1.83l-5.94-5.93c-.23-.22-.23-.59,0-.81.22-.23.59-.23.81,0l5.94,5.93c.83.83,1.06,2.01.62,3.09-.45,1.08-1.45,1.75-2.63,1.75Z"/>
    <path class="cls-1" d="m38.56,53.88c-.09,0-.18-.01-.26-.04l-6.31-1.79c-.24-.07-.45-.23-.57-.45s-.15-.48-.08-.72c.07-.24.23-.45.45-.57.22-.12.48-.15.72-.08l6.17,1.75c.58-.05.95-.44,1.1-.81.16-.39.17-.97-.29-1.43l-5.94-5.93c-.18-.18-.28-.42-.28-.67,0-.25.1-.49.28-.67.18-.18.42-.28.67-.28h0c.25,0,.49.1.67.28l5.94,5.93c.94.94,1.2,2.28.7,3.5-.51,1.22-1.65,1.99-2.97,1.99Zm-6.31-2.94c-.09,0-.17.06-.19.15-.01.05,0,.11.02.15.03.05.07.08.12.1l6.37,1.8c1.02,0,1.89-.58,2.28-1.52.39-.94.18-1.96-.54-2.68l-5.94-5.93s-.09-.06-.14-.06h0c-.05,0-.1.02-.14.06s-.06.09-.06.14.02.1.06.14l5.94,5.93c.72.72.7,1.63.45,2.24-.24.59-.85,1.23-1.82,1.27h-.06s-6.29-1.78-6.29-1.78c-.02,0-.04,0-.05,0Z"/>
  </g>
  <g>
    <path class="cls-1" d="m26.49,32.3H8.03c-.84,0-1.62-.33-2.2-.93-.58-.6-.88-1.39-.86-2.22.05-1.38,1.01-2.56,2.36-2.87l19.03-4.46c.31-.07.62.12.69.43.07.31-.12.62-.43.69l-19.03,4.46c-.84.2-1.44.93-1.47,1.79-.02.52.17,1.01.53,1.38.36.37.85.58,1.37.58h18.46c.32,0,.58.26.58.58s-.26.58-.58.58Z"/>
    <path class="cls-1" d="m26.5,32.68H8.03c-.94,0-1.82-.37-2.47-1.05-.65-.67-.99-1.56-.96-2.5.05-1.55,1.14-2.87,2.65-3.23l19.03-4.46c.51-.12,1.02.2,1.14.71.12.51-.2,1.02-.71,1.14l-19.03,4.46c-.67.16-1.16.75-1.18,1.44-.01.42.14.81.43,1.11.29.3.68.47,1.1.47h18.46c.52,0,.95.43.95.95s-.43.95-.95.95Zm0-10.51s-.03,0-.05,0l-19.03,4.46c-1.18.28-2.03,1.31-2.07,2.52-.02.73.24,1.42.75,1.95.51.53,1.2.82,1.93.82h18.46c.11,0,.2-.09.2-.2s-.09-.2-.2-.2H8.03c-.62,0-1.21-.25-1.64-.69-.43-.45-.66-1.04-.64-1.66.03-1.03.76-1.91,1.76-2.14l19.03-4.46c.11-.03.18-.13.15-.24-.02-.09-.1-.15-.2-.15Z"/>
  </g>
  <g>
    <path class="cls-1" d="m52.94,32.3h-18.46c-.32,0-.58-.26-.58-.58s.26-.58.58-.58h18.46c.52,0,1.01-.21,1.37-.58.36-.37.55-.86.53-1.38-.03-.86-.63-1.59-1.47-1.79l-19.03-4.46c-.31-.07-.5-.38-.43-.69.07-.31.38-.5.69-.43l19.03,4.46c1.34.32,2.31,1.5,2.36,2.87.03.83-.28,1.62-.86,2.22-.58.6-1.36.93-2.2.93Z"/>
    <path class="cls-1" d="m52.94,32.68h-18.46c-.52,0-.95-.43-.95-.95s.43-.95.95-.95h18.46c.42,0,.81-.17,1.1-.47.29-.3.44-.69.43-1.11-.02-.69-.51-1.28-1.18-1.44l-19.03-4.46c-.51-.12-.83-.63-.71-1.14.06-.25.21-.46.42-.59.22-.13.47-.18.72-.12l19.03,4.46c1.51.35,2.59,1.68,2.65,3.23.03.93-.31,1.82-.96,2.49-.65.67-1.53,1.05-2.47,1.05Zm-18.46-1.15c-.11,0-.2.09-.2.2s.09.2.2.2h18.46c.73,0,1.42-.29,1.93-.82.51-.53.78-1.22.75-1.95-.04-1.21-.89-2.24-2.07-2.52l-19.03-4.46c-.05-.01-.11,0-.15.02-.04.03-.08.07-.09.12-.03.11.04.22.15.24l19.03,4.46c1,.23,1.72,1.12,1.76,2.14.02.62-.21,1.21-.64,1.66-.43.45-1.02.69-1.64.69h-18.46Z"/>
  </g>
  <g>
    <path class="cls-1" d="m9.08,49.12c-.32,0-.58-.26-.58-.58v-16.82c0-.32.26-.58.58-.58s.58.26.58.58v16.82c0,.32-.26.58-.58.58Z"/>
    <path class="cls-1" d="m9.08,49.5c-.52,0-.95-.43-.95-.95v-16.82c0-.52.43-.95.95-.95s.95.43.95.95v16.82c0,.52-.43.95-.95.95Zm0-17.97c-.11,0-.2.09-.2.2v16.82c0,.22.4.22.4,0v-16.82c0-.11-.09-.2-.2-.2Z"/>
  </g>
  <g>
    <path class="cls-1" d="m16.02,43.03c-.32,0-.58-.26-.58-.58v-10.73c0-.32.26-.58.58-.58s.58.26.58.58v10.73c0,.32-.26.58-.58.58Z"/>
    <path class="cls-1" d="m16.02,43.41c-.52,0-.95-.43-.95-.95v-10.73c0-.52.43-.95.95-.95s.95.43.95.95v10.73c0,.52-.43.95-.95.95Zm0-11.88c-.11,0-.2.09-.2.2v10.73c0,.22.4.22.4,0v-10.73c0-.11-.09-.2-.2-.2Z"/>
  </g>
  <g>
    <path class="cls-1" d="m51.89,49.12c-.32,0-.58-.26-.58-.58v-16.82c0-.32.26-.58.58-.58s.58.26.58.58v16.82c0,.32-.26.58-.58.58Z"/>
    <path class="cls-1" d="m51.89,49.5c-.52,0-.95-.43-.95-.95v-16.82c0-.52.43-.95.95-.95s.95.43.95.95v16.82c0,.52-.43.95-.95.95Zm0-17.97c-.11,0-.2.09-.2.2v16.82c0,.22.4.22.4,0v-16.82c0-.11-.09-.2-.2-.2Z"/>
  </g>
  <g>
    <path class="cls-1" d="m44.95,43.03c-.32,0-.58-.26-.58-.58v-10.73c0-.32.26-.58.58-.58s.58.26.58.58v10.73c0,.32-.26.58-.58.58Z"/>
    <path class="cls-1" d="m44.95,43.41c-.52,0-.95-.43-.95-.95v-10.73c0-.52.43-.95.95-.95s.95.43.95.95v10.73c0,.52-.43.95-.95.95Zm0-11.88c-.11,0-.2.09-.2.2v10.73c0,.22.4.22.4,0v-10.73c0-.11-.09-.2-.2-.2Z"/>
  </g>
</svg>