<?xml version="1.0" encoding="UTF-8"?>
<svg id="Layer_1" data-name="Layer 1" xmlns="http://www.w3.org/2000/svg" viewBox="0 0 60 60">
  <defs>
    <style>
      .cls-1 {
        fill: #37464c;
        stroke-width: 0px;
      }
    </style>
  </defs>
  <g>
    <g>
      <path class="cls-1" d="m29.55,51.56c-10.61,0-19.25-8.63-19.25-19.25S18.94,13.07,29.55,13.07s19.25,8.63,19.25,19.25-8.63,19.25-19.25,19.25Zm0-37.29c-9.95,0-18.05,8.09-18.05,18.04s8.09,18.05,18.05,18.05,18.05-8.09,18.05-18.05-8.09-18.04-18.05-18.04Z"/>
      <path class="cls-1" d="m29.55,51.81c-10.75,0-19.5-8.75-19.5-19.5S18.8,12.82,29.55,12.82s19.5,8.75,19.5,19.5-8.75,19.5-19.5,19.5Zm0-38.49c-10.47,0-19,8.52-19,19s8.52,19,19,19,19-8.52,19-19-8.52-19-19-19Zm0,37.29c-10.09,0-18.29-8.21-18.29-18.29S19.46,14.02,29.55,14.02s18.3,8.21,18.3,18.29-8.21,18.29-18.3,18.29Zm0-36.09c-9.81,0-17.79,7.98-17.79,17.79s7.98,17.79,17.79,17.79,17.8-7.98,17.8-17.79-7.98-17.79-17.8-17.79Z"/>
    </g>
    <g>
      <path class="cls-1" d="m29.55,49.07c-9.24,0-16.76-7.52-16.76-16.76s7.52-16.76,16.76-16.76,16.76,7.52,16.76,16.76-7.52,16.76-16.76,16.76Zm0-32.32c-8.58,0-15.56,6.98-15.56,15.56s6.98,15.56,15.56,15.56,15.56-6.98,15.56-15.56-6.98-15.56-15.56-15.56Z"/>
      <path class="cls-1" d="m29.55,49.33c-9.38,0-17.01-7.63-17.01-17.01s7.63-17.01,17.01-17.01,17.01,7.63,17.01,17.01-7.63,17.01-17.01,17.01Zm0-33.52c-9.1,0-16.51,7.41-16.51,16.51s7.41,16.51,16.51,16.51,16.51-7.41,16.51-16.51-7.41-16.51-16.51-16.51Zm0,32.32c-8.72,0-15.81-7.09-15.81-15.81s7.09-15.81,15.81-15.81,15.81,7.09,15.81,15.81-7.09,15.81-15.81,15.81Zm0-31.12c-8.44,0-15.31,6.87-15.31,15.31s6.87,15.31,15.31,15.31,15.31-6.87,15.31-15.31-6.87-15.31-15.31-15.31Z"/>
    </g>
    <g>
      <g>
        <path class="cls-1" d="m29.55,46.8c-.33,0-.6-.27-.6-.6v-1.99c0-.33.27-.6.6-.6s.6.27.6.6v1.99c0,.33-.27.6-.6.6Z"/>
        <path class="cls-1" d="m29.55,47.05c-.47,0-.85-.38-.85-.85v-1.99c0-.47.38-.85.85-.85s.85.38.85.85v1.99c0,.47-.38.85-.85.85Zm0-3.19c-.19,0-.35.16-.35.35v1.99c0,.19.16.35.35.35s.35-.16.35-.35v-1.99c0-.19-.16-.35-.35-.35Z"/>
      </g>
      <g>
        <path class="cls-1" d="m29.55,21.02c-.33,0-.6-.27-.6-.6v-1.99c0-.33.27-.6.6-.6s.6.27.6.6v1.99c0,.33-.27.6-.6.6Z"/>
        <path class="cls-1" d="m29.55,21.27c-.47,0-.85-.38-.85-.85v-1.99c0-.47.38-.85.85-.85s.85.38.85.85v1.99c0,.47-.38.85-.85.85Zm0-3.19c-.19,0-.35.16-.35.35v1.99c0,.19.16.35.35.35s.35-.16.35-.35v-1.99c0-.19-.16-.35-.35-.35Z"/>
      </g>
    </g>
    <g>
      <g>
        <path class="cls-1" d="m43.44,32.92h-1.99c-.33,0-.6-.27-.6-.6s.27-.6.6-.6h1.99c.33,0,.6.27.6.6s-.27.6-.6.6Z"/>
        <path class="cls-1" d="m43.44,33.17h-1.99c-.47,0-.85-.38-.85-.85s.38-.85.85-.85h1.99c.47,0,.85.38.85.85s-.38.85-.85.85Zm-1.99-1.2c-.19,0-.35.16-.35.35s.16.35.35.35h1.99c.19,0,.35-.16.35-.35s-.16-.35-.35-.35h-1.99Z"/>
      </g>
      <g>
        <path class="cls-1" d="m17.65,32.92h-1.99c-.33,0-.6-.27-.6-.6s.27-.6.6-.6h1.99c.33,0,.6.27.6.6s-.27.6-.6.6Z"/>
        <path class="cls-1" d="m17.65,33.17h-1.99c-.47,0-.85-.38-.85-.85s.38-.85.85-.85h1.99c.47,0,.85.38.85.85s-.38.85-.85.85Zm-1.99-1.2c-.19,0-.35.16-.35.35s.16.35.35.35h1.99c.19,0,.35-.16.35-.35s-.16-.35-.35-.35h-1.99Z"/>
      </g>
    </g>
    <g>
      <path class="cls-1" d="m29.55,34.37c-1.13,0-2.05-.92-2.05-2.05s.92-2.05,2.05-2.05,2.05.92,2.05,2.05-.92,2.05-2.05,2.05Zm0-2.9c-.47,0-.85.38-.85.85s.38.85.85.85.85-.38.85-.85-.38-.85-.85-.85Z"/>
      <path class="cls-1" d="m29.55,34.62c-1.27,0-2.3-1.03-2.3-2.3s1.03-2.3,2.3-2.3,2.3,1.03,2.3,2.3-1.03,2.3-2.3,2.3Zm0-4.1c-.99,0-1.8.81-1.8,1.8s.81,1.8,1.8,1.8,1.8-.81,1.8-1.8-.81-1.8-1.8-1.8Zm0,2.9c-.61,0-1.1-.49-1.1-1.1s.49-1.1,1.1-1.1,1.1.49,1.1,1.1-.49,1.1-1.1,1.1Zm0-1.7c-.33,0-.6.27-.6.6s.27.6.6.6.6-.27.6-.6-.27-.6-.6-.6Z"/>
    </g>
    <g>
      <path class="cls-1" d="m29.55,31.47c-.33,0-.6-.27-.6-.6v-8.23c0-.33.27-.6.6-.6s.6.27.6.6v8.23c0,.33-.27.6-.6.6Z"/>
      <path class="cls-1" d="m29.55,31.71c-.47,0-.85-.38-.85-.85v-8.23c0-.47.38-.85.85-.85s.85.38.85.85v8.23c0,.47-.38.85-.85.85Zm0-9.43c-.19,0-.35.16-.35.35v8.23c0,.19.16.35.35.35s.35-.16.35-.35v-8.23c0-.19-.16-.35-.35-.35Z"/>
    </g>
    <g>
      <path class="cls-1" d="m27.72,32.92h-5.43c-.33,0-.6-.27-.6-.6s.27-.6.6-.6h5.43c.33,0,.6.27.6.6s-.27.6-.6.6Z"/>
      <path class="cls-1" d="m27.72,33.17h-5.43c-.47,0-.85-.38-.85-.85s.38-.85.85-.85h5.43c.47,0,.85.38.85.85s-.38.85-.85.85Zm-5.43-1.2c-.19,0-.35.16-.35.35s.16.35.35.35h5.43c.19,0,.35-.16.35-.35s-.16-.35-.35-.35h-5.43Z"/>
    </g>
  </g>
  <g>
    <path class="cls-1" d="m15.79,53.53c-.15,0-.31-.06-.42-.18-.23-.23-.23-.61,0-.85l4.46-4.46c.23-.23.61-.23.85,0,.23.23.23.61,0,.85l-4.46,4.46c-.12.12-.27.18-.42.18Z"/>
    <path class="cls-1" d="m15.79,53.91c-.26,0-.51-.1-.69-.29-.38-.38-.38-1,0-1.38l4.46-4.46c.18-.18.43-.29.69-.29h0c.26,0,.51.1.69.29.38.38.38,1,0,1.38l-4.46,4.46c-.18.18-.43.29-.69.29Zm4.46-5.66h0c-.06,0-.12.02-.16.07l-4.46,4.46s-.07.1-.07.16.02.12.07.16c.08.09.23.09.32,0l4.46-4.46c.09-.09.09-.23,0-.32-.04-.04-.1-.07-.16-.07Z"/>
  </g>
  <g>
    <path class="cls-1" d="m43.31,53.53c-.15,0-.31-.06-.42-.18l-4.46-4.46c-.23-.23-.23-.61,0-.85.23-.23.61-.23.85,0l4.46,4.46c.23.23.23.61,0,.85-.12.12-.27.18-.42.18Z"/>
    <path class="cls-1" d="m43.31,53.91c-.26,0-.51-.1-.69-.29l-4.46-4.46c-.38-.38-.38-1,0-1.38.18-.18.43-.29.69-.29h0c.26,0,.51.1.69.29l4.46,4.46c.38.38.38,1,0,1.38-.18.18-.43.29-.69.29Zm-4.46-5.66h0c-.06,0-.12.02-.16.07-.09.09-.09.23,0,.32l4.46,4.46c.09.09.23.09.32,0,.04-.04.07-.1.07-.16s-.02-.12-.07-.16l-4.46-4.46s-.1-.07-.16-.07Z"/>
  </g>
  <g>
    <g>
      <path class="cls-1" d="m6.73,26.01c-.15,0-.31-.06-.42-.18-2.15-2.15-3.34-5.02-3.34-8.06s1.19-5.91,3.34-8.06c2.15-2.15,5.02-3.34,8.06-3.34s5.91,1.19,8.06,3.34c.23.23.23.61,0,.85l-15.28,15.28c-.12.12-.27.18-.42.18ZM14.37,7.57c-2.73,0-5.29,1.06-7.21,2.99-1.93,1.93-2.99,4.49-2.99,7.21,0,2.52.91,4.91,2.58,6.78l14.4-14.4c-1.87-1.67-4.25-2.58-6.78-2.58Z"/>
      <path class="cls-1" d="m6.73,26.38c-.26,0-.51-.1-.69-.29-2.22-2.22-3.45-5.18-3.45-8.33s1.23-6.1,3.45-8.33,5.18-3.45,8.33-3.45,6.1,1.23,8.33,3.45c.38.38.38,1,0,1.38l-15.28,15.28c-.18.18-.43.29-.69.29ZM14.37,6.74c-2.95,0-5.72,1.15-7.8,3.23-2.08,2.08-3.23,4.85-3.23,7.8s1.15,5.71,3.23,7.8c.08.09.23.08.32,0l15.28-15.28s.07-.1.07-.16-.02-.12-.07-.16c-2.08-2.08-4.85-3.23-7.8-3.23Zm-7.64,18.35l-.26-.3c-1.72-1.93-2.67-4.43-2.67-7.03,0-2.83,1.1-5.48,3.1-7.48s4.65-3.1,7.48-3.1c2.6,0,5.09.95,7.03,2.67l.3.26-14.97,14.97ZM14.37,7.94c-2.63,0-5.09,1.02-6.95,2.88-1.86,1.86-2.88,4.33-2.88,6.95,0,2.28.79,4.48,2.22,6.23l13.83-13.83c-1.75-1.44-3.94-2.22-6.23-2.22Z"/>
    </g>
    <g>
      <path class="cls-1" d="m52.37,26.01c-.16,0-.31-.06-.42-.18l-15.28-15.28c-.23-.23-.23-.61,0-.85,2.15-2.15,5.02-3.34,8.06-3.34s5.91,1.19,8.06,3.34c2.15,2.15,3.34,5.02,3.34,8.06s-1.19,5.91-3.34,8.06c-.11.11-.27.18-.42.18Zm-14.42-15.87l14.4,14.4c1.67-1.87,2.58-4.25,2.58-6.78,0-2.73-1.06-5.29-2.99-7.21-1.93-1.93-4.49-2.99-7.21-2.99-2.52,0-4.91.91-6.78,2.58Z"/>
      <path class="cls-1" d="m52.37,26.38c-.26,0-.51-.1-.69-.29l-15.28-15.28c-.18-.18-.29-.43-.29-.69s.1-.51.29-.69c2.22-2.22,5.18-3.45,8.33-3.45s6.1,1.23,8.33,3.45c2.22,2.22,3.45,5.18,3.45,8.33s-1.23,6.1-3.45,8.33c-.18.18-.43.29-.69.29Zm-7.64-19.64c-2.95,0-5.71,1.15-7.8,3.23-.04.04-.07.1-.07.16s.02.12.07.16l15.28,15.28c.09.09.23.08.32,0,2.08-2.08,3.23-4.85,3.23-7.8s-1.15-5.72-3.23-7.8c-2.08-2.08-4.85-3.23-7.8-3.23Zm7.64,18.35l-14.97-14.97.3-.26c1.93-1.72,4.43-2.67,7.03-2.67,2.83,0,5.48,1.1,7.48,3.1,2,2,3.1,4.65,3.1,7.48,0,2.6-.95,5.09-2.67,7.03l-.26.3Zm-13.87-14.93l13.83,13.83c1.44-1.75,2.22-3.95,2.22-6.23,0-2.62-1.02-5.09-2.88-6.95-1.86-1.86-4.32-2.88-6.95-2.88-2.28,0-4.48.79-6.23,2.22Z"/>
    </g>
  </g>
  <g>
    <path class="cls-1" d="m16.28,19.82c-.15,0-.31-.06-.42-.18l-1.68-1.68c-.23-.23-.23-.61,0-.85.23-.23.61-.23.85,0l1.68,1.68c.23.23.23.61,0,.85-.12.12-.27.18-.42.18Z"/>
    <path class="cls-1" d="m16.28,20.07c-.23,0-.44-.09-.6-.25l-1.68-1.68c-.16-.16-.25-.37-.25-.6s.09-.44.25-.6.37-.25.6-.25h0c.23,0,.44.09.6.25l1.68,1.68c.33.33.33.87,0,1.2-.16.16-.37.25-.6.25Zm-1.68-2.88c-.09,0-.18.04-.25.1-.14.14-.14.36,0,.5l1.68,1.68c.13.13.36.13.5,0,.07-.07.1-.15.1-.25s-.04-.18-.1-.25l-1.68-1.68c-.07-.07-.15-.1-.25-.1h0Z"/>
  </g>
  <g>
    <path class="cls-1" d="m42.82,19.82c-.15,0-.31-.06-.42-.18-.23-.23-.23-.61,0-.85l1.68-1.68c.23-.23.61-.23.85,0,.23.23.23.61,0,.85l-1.68,1.68c-.12.12-.27.18-.42.18Z"/>
    <path class="cls-1" d="m42.82,20.07c-.23,0-.44-.09-.6-.25-.33-.33-.33-.87,0-1.2l1.68-1.68c.16-.16.37-.25.6-.25h0c.23,0,.44.09.6.25.33.33.33.87,0,1.2l-1.68,1.68c-.16.16-.37.25-.6.25Zm1.68-2.88h0c-.09,0-.18.04-.25.1l-1.68,1.68c-.14.14-.14.36,0,.5.13.13.36.13.5,0l1.68-1.68c.14-.14.14-.36,0-.5-.07-.07-.15-.1-.25-.1Z"/>
  </g>
  <g>
    <path class="cls-1" d="m29.55,14.27c-.33,0-.6-.27-.6-.6v-5.68c0-.33.27-.6.6-.6s.6.27.6.6v5.68c0,.33-.27.6-.6.6Z"/>
    <path class="cls-1" d="m29.55,14.52c-.47,0-.85-.38-.85-.85v-5.68c0-.47.38-.85.85-.85s.85.38.85.85v5.68c0,.47-.38.85-.85.85Zm0-6.88c-.19,0-.35.16-.35.35v5.68c0,.19.16.35.35.35s.35-.16.35-.35v-5.68c0-.19-.16-.35-.35-.35Z"/>
  </g>
  <g>
    <path class="cls-1" d="m33.84,8.59h-8.59c-.33,0-.6-.27-.6-.6s.27-.6.6-.6h8.59c.33,0,.6.27.6.6s-.27.6-.6.6Z"/>
    <path class="cls-1" d="m33.84,8.96h-8.58c-.54,0-.98-.44-.98-.97s.44-.98.98-.98h8.58c.54,0,.98.44.98.98s-.44.97-.98.97Zm-8.58-1.2c-.12,0-.23.1-.23.23s.1.22.23.22h8.58c.12,0,.23-.1.23-.22s-.1-.23-.23-.23h-8.58Z"/>
  </g>
</svg>