<?xml version="1.0" encoding="UTF-8"?>
<svg id="Layer_1" data-name="Layer 1" xmlns="http://www.w3.org/2000/svg" viewBox="0 0 60 60">
  <defs>
    <style>
      .cls-1 {
        fill: #37464c;
        stroke-width: 0px;
      }
    </style>
  </defs>
  <path class="cls-1" d="m19.06,24.6c-2.76,0-5-2.24-5-5s2.24-5,5-5,5,2.24,5,5-2.24,5-5,5Zm0-8c-1.65,0-3,1.35-3,3s1.35,3,3,3,3-1.35,3-3-1.35-3-3-3Z"/>
  <path class="cls-1" d="m19.06,58.6c-.55,0-1-.45-1-1v-15c0-.55.45-1,1-1s1,.45,1,1v15c0,.55-.45,1-1,1Z"/>
  <path class="cls-1" d="m24.06,58.6h-10c-.55,0-1-.45-1-1v-26.59L3.97,21.93c-1.22-1.22-1.22-3.2,0-4.41,1.19-1.18,3.24-1.18,4.42,0l10.67,10.67,10.67-10.67c1.22-1.22,3.2-1.22,4.41,0,.59.59.92,1.38.92,2.21s-.32,1.62-.91,2.21l-9.09,9.09v26.59c0,.55-.45,1-1,1Zm-9-2h8v-26c0-.27.11-.52.29-.71l9.38-9.38c.21-.21.33-.49.33-.79s-.12-.58-.33-.79c-.44-.44-1.15-.44-1.59,0l-11.38,11.38c-.38.38-1.04.38-1.41,0l-11.38-11.38c-.42-.42-1.16-.42-1.58,0-.44.44-.44,1.15,0,1.59l9.38,9.38c.19.19.29.44.29.71v26Z"/>
  <path class="cls-1" d="m46.06,50.6c-.55,0-1-.45-1-1s.45-1,1-1,1,.45,1,1-.45,1-1,1Zm0-4c-.55,0-1-.45-1-1v-2c0-.55.45-1,1-1s1,.45,1,1v2c0,.55-.45,1-1,1Zm0-6c-.55,0-1-.45-1-1v-8c0-.55.45-1,1-1s1,.45,1,1v8c0,.55-.45,1-1,1Z"/>
  <path class="cls-1" d="m32.06,44.6c-.55,0-1-.45-1-1v-2c0-.55.45-1,1-1s1,.45,1,1v2c0,.55-.45,1-1,1Zm0-6c-.55,0-1-.45-1-1v-8c0-.55.45-1,1-1s1,.45,1,1v8c0,.55-.45,1-1,1Z"/>
  <path class="cls-1" d="m40.06,58.6c-.55,0-1-.45-1-1s.45-1,1-1,1,.45,1,1-.45,1-1,1Zm0-4c-.55,0-1-.44-1-1v-28c0-.26.11-.52.29-.7.19-.19.45-.3.71-.3h7.82L31.06,5.13l-7.14,8.27c-.35.4-1.01.45-1.41.1-.2-.17-.33-.41-.35-.68-.01-.27.07-.52.25-.73l7.89-9.14c.38-.44,1.14-.44,1.52,0l19,22c.25.3.31.71.15,1.07-.16.35-.52.58-.91.58h-9v26.99h0c0,.57-.45,1.01-1,1.01Z"/>
</svg>