<?xml version="1.0" encoding="UTF-8"?>
<svg id="Layer_1" data-name="Layer 1" xmlns="http://www.w3.org/2000/svg" viewBox="0 0 60 60">
  <defs>
    <style>
      .cls-1 {
        fill: #37464c;
        stroke-width: 0px;
      }
    </style>
  </defs>
  <path class="cls-1" d="m42.38,59.41c-.36,0-.69-.19-.86-.5l-6.11-10.5c-.28-.48-.12-1.09.36-1.37.48-.28,1.09-.12,1.37.36l5.24,9.02,2.45-4.22c.18-.31.51-.5.86-.5h4.91l-5.23-9c-.28-.48-.12-1.09.36-1.37.48-.28,1.09-.12,1.37.36l6.11,10.5c.18.31.18.69,0,1-.18.31-.51.5-.87.5h-6.07l-3.03,5.21c-.18.31-.51.5-.86.5Z"/>
  <path class="cls-1" d="m19.35,59.41h0c-.36,0-.69-.19-.87-.5l-3.03-5.21h-6.07c-.36,0-.69-.19-.87-.5-.18-.31-.18-.69,0-1l6.11-10.5c.28-.48.89-.64,1.37-.36.48.28.64.89.36,1.37l-5.23,9h4.91c.36,0,.69.19.87.5l2.45,4.22,5.24-9.02c.28-.48.89-.64,1.37-.36.48.28.64.89.36,1.37l-6.11,10.5c-.18.31-.51.5-.86.5Z"/>
  <path class="cls-1" d="m30.87,51.25h0c-2.84,0-5.31-1.6-6.46-4.18l-.44-1c-1.07-2.41-3.57-3.84-6.2-3.55l-1.1.12c-2.85.3-5.48-1.03-6.89-3.5-1.4-2.44-1.23-5.36.44-7.62l.65-.88c1.57-2.12,1.57-4.98,0-7.1l-.65-.88c-1.67-2.26-1.84-5.18-.44-7.62,1.42-2.46,4.05-3.8,6.9-3.5l1.1.12c2.64.28,5.13-1.14,6.2-3.55l.44-1c1.15-2.58,3.62-4.18,6.46-4.18,2.84,0,5.31,1.6,6.46,4.18l.44,1c1.07,2.41,3.56,3.83,6.2,3.55l1.1-.12c2.83-.31,5.48,1.03,6.89,3.5,1.4,2.44,1.23,5.36-.44,7.62l-.65.88c-1.57,2.12-1.57,4.98,0,7.1l.65.88c1.67,2.26,1.84,5.19.44,7.62-1.42,2.46-4.05,3.8-6.89,3.5l-1.1-.12c-2.62-.28-5.13,1.14-6.2,3.55l-.44,1c-1.15,2.58-3.62,4.18-6.46,4.18Zm-12.44-9.77c2.78,0,5.3,1.61,6.45,4.18l.44,1c.98,2.21,3.11,3.59,5.54,3.59h0c2.44,0,4.56-1.38,5.55-3.59l.44-1c1.25-2.81,4.16-4.48,7.22-4.14l1.1.12c2.44.26,4.7-.89,5.92-3,1.2-2.09,1.06-4.59-.37-6.53l-.65-.88c-1.83-2.48-1.83-5.81,0-8.29l.65-.88c1.43-1.94,1.57-4.44.37-6.53-1.21-2.11-3.48-3.26-5.92-3l-1.1.12c-3.07.34-5.98-1.33-7.22-4.14l-.44-1c-.98-2.21-3.11-3.59-5.55-3.59-2.44,0-4.56,1.38-5.54,3.59l-.44,1c-1.25,2.81-4.16,4.48-7.22,4.14l-1.1-.12c-2.44-.26-4.71.89-5.92,3-1.2,2.09-1.05,4.59.38,6.53l.65.88c1.83,2.48,1.83,5.81,0,8.29l-.65.88c-1.43,1.94-1.57,4.44-.37,6.53,1.22,2.11,3.5,3.26,5.92,3l1.1-.12c.26-.03.52-.04.78-.04Z"/>
  <path class="cls-1" d="m31.46,50.95h0c-3.04,0-5.69-1.72-6.92-4.48l-.45-1c-.98-2.21-3.28-3.52-5.69-3.26l-1.1.12c-3.04.33-5.87-1.11-7.38-3.75-1.5-2.61-1.32-5.74.47-8.17l.65-.88c1.44-1.95,1.44-4.56,0-6.51l-.65-.88c-1.79-2.43-1.97-5.56-.47-8.17,1.52-2.64,4.34-4.07,7.38-3.74l1.09.12c2.43.26,4.71-1.05,5.69-3.26h0s.45-1,.45-1c1.23-2.76,3.88-4.48,6.92-4.48,3.04,0,5.69,1.72,6.92,4.48l.44,1c.98,2.21,3.27,3.52,5.69,3.26l1.1-.12c3.03-.33,5.86,1.11,7.38,3.74,1.5,2.61,1.32,5.74-.47,8.17l-.65.88c-1.44,1.95-1.44,4.56,0,6.51l.65.88c1.79,2.43,1.97,5.55.47,8.17-1.52,2.64-4.34,4.07-7.38,3.74l-1.1-.12c-2.42-.26-4.71,1.05-5.69,3.26l-.44,1c-1.23,2.76-3.88,4.48-6.92,4.48Zm-12.44-10.77c2.97,0,5.68,1.73,6.9,4.48l.45,1c.9,2.03,2.85,3.29,5.09,3.29h0c2.24,0,4.19-1.26,5.09-3.29l.44-1c1.34-3.01,4.44-4.8,7.73-4.44l1.1.12c2.23.24,4.32-.81,5.43-2.75,1.1-1.91.97-4.21-.34-5.98l-.65-.88c-1.96-2.66-1.96-6.23,0-8.88l.65-.88c1.31-1.78,1.44-4.07.34-5.98-1.11-1.94-3.19-2.99-5.43-2.75l-1.1.12c-3.29.36-6.4-1.43-7.73-4.44l-.44-1c-.9-2.03-2.85-3.29-5.09-3.29-2.24,0-4.19,1.26-5.09,3.29l-.45,1c-1.34,3.01-4.44,4.79-7.73,4.43l-1.09-.12c-2.24-.24-4.32.81-5.43,2.75-1.1,1.91-.97,4.21.34,5.98l.65.88c1.96,2.66,1.96,6.23,0,8.88l-.65.88c-1.31,1.78-1.44,4.07-.34,5.98,1.12,1.94,3.2,3,5.43,2.75l1.1-.12c.28-.03.56-.04.83-.04Z"/>
  <path class="cls-1" d="m36.07,36.16c-.4,0-.8-.12-1.14-.37l-4.05-2.94-4.05,2.94c-.69.5-1.61.5-2.29,0-.69-.51-.97-1.36-.7-2.17l1.56-4.72-4.06-2.91c-.7-.5-.98-1.35-.72-2.17.26-.81,1-1.35,1.85-1.35h5.02s1.54-4.72,1.54-4.72c.26-.82.99-1.34,1.85-1.34s1.59.53,1.85,1.34l1.54,4.73h5.01s0-.01,0-.01c.85,0,1.59.54,1.85,1.35.26.82-.02,1.67-.72,2.17l-4.05,2.91,1.56,4.72c.27.81,0,1.66-.7,2.17-.34.25-.75.38-1.15.38Zm-13.41-11.69l4.5,3.23c.36.25.5.71.37,1.13l-1.73,5.25,4.5-3.26c.35-.25.82-.25,1.17,0l4.5,3.26-1.73-5.25c-.14-.41.01-.87.37-1.13l4.49-3.23h-5.55s0,.01,0,.01c-.43,0-.82-.28-.95-.69l-1.71-5.27-1.71,5.27c-.13.41-.52.69-.95.69h-5.56Z"/>
  <path class="cls-1" d="m30.81,42.3c-8.45,0-15.32-6.83-15.32-15.22s6.87-15.22,15.32-15.22,15.32,6.83,15.32,15.22-6.87,15.22-15.32,15.22Zm0-28.44c-7.35,0-13.32,5.93-13.32,13.22s5.98,13.22,13.32,13.22,13.32-5.93,13.32-13.22-5.98-13.22-13.32-13.22Z"/>
</svg>