<?xml version="1.0" encoding="UTF-8"?>
<svg id="Layer_1" data-name="Layer 1" xmlns="http://www.w3.org/2000/svg" viewBox="0 0 60 60">
  <defs>
    <style>
      .cls-1 {
        fill: #37464c;
        stroke-width: 0px;
      }
    </style>
  </defs>
  <path class="cls-1" d="m31,43c-1.26,0-2.26-.81-3.15-1.52-.53-.43-1.09-.87-1.54-.99-.49-.13-1.21-.02-1.92.08-1.1.17-2.35.36-3.4-.25-1.07-.62-1.53-1.8-1.93-2.85-.25-.65-.52-1.33-.86-1.67-.35-.35-1.02-.61-1.67-.86-1.05-.41-2.24-.87-2.85-1.93-.61-1.05-.42-2.3-.25-3.4.11-.7.22-1.43.09-1.91-.12-.45-.57-1-.99-1.54-.71-.89-1.52-1.89-1.52-3.15s.81-2.26,1.52-3.15c.43-.54.87-1.09,1-1.54.13-.49.02-1.21-.09-1.91-.17-1.1-.36-2.35.25-3.4.62-1.07,1.8-1.53,2.85-1.93.65-.25,1.33-.52,1.67-.86s.61-1.02.86-1.67c.41-1.05.87-2.24,1.93-2.85,1.05-.61,2.3-.42,3.4-.25.7.11,1.43.22,1.91.09.45-.12,1-.56,1.54-.99.89-.71,1.89-1.52,3.15-1.52s2.26.81,3.15,1.52c.53.43,1.09.87,1.54.99.49.13,1.21.02,1.92-.08,1.1-.17,2.35-.36,3.4.25,1.07.62,1.53,1.8,1.93,2.85.25.65.52,1.33.86,1.67.35.35,1.02.61,1.67.86,1.05.41,2.24.87,2.85,1.93.61,1.05.42,2.3.25,3.4-.11.7-.22,1.43-.09,1.91.12.45.57,1,.99,1.54.71.89,1.52,1.89,1.52,3.15s-.81,2.26-1.52,3.15c-.43.54-.87,1.09-1,1.54-.13.49-.02,1.21.09,1.91.17,1.1.36,2.35-.25,3.4-.62,1.06-1.8,1.53-2.85,1.93-.65.25-1.33.52-1.67.86-.35.35-.61,1.02-.86,1.67-.41,1.05-.87,2.23-1.93,2.85-1.05.61-2.3.42-3.4.25-.7-.11-1.42-.22-1.91-.09-.45.12-1,.56-1.54.99-.89.71-1.89,1.52-3.15,1.52Zm-5.23-4.57c.36,0,.71.04,1.06.13.86.23,1.58.81,2.27,1.37.66.53,1.34,1.08,1.89,1.08s1.24-.55,1.89-1.08c.7-.56,1.42-1.14,2.28-1.37.89-.24,1.83-.1,2.73.04.82.12,1.66.25,2.1,0,.46-.26.77-1.07,1.07-1.84.33-.85.67-1.72,1.31-2.36.64-.64,1.52-.98,2.36-1.31.78-.3,1.58-.62,1.85-1.07.26-.44.13-1.29,0-2.1-.14-.9-.28-1.84-.04-2.73.23-.86.81-1.58,1.37-2.28.53-.66,1.08-1.34,1.08-1.89s-.55-1.24-1.08-1.89c-.56-.7-1.14-1.42-1.37-2.27-.24-.89-.1-1.83.04-2.73.12-.82.25-1.66,0-2.1-.26-.46-1.07-.77-1.85-1.07-.84-.33-1.72-.67-2.36-1.31s-.98-1.52-1.31-2.36c-.3-.78-.62-1.58-1.07-1.85-.44-.26-1.29-.13-2.1,0-.91.14-1.84.28-2.73.04-.86-.23-1.58-.81-2.27-1.37-.66-.53-1.34-1.08-1.89-1.08s-1.24.55-1.89,1.08c-.7.56-1.42,1.14-2.28,1.37-.89.24-1.82.1-2.73-.04-.82-.12-1.66-.25-2.1,0-.46.26-.77,1.07-1.07,1.85-.33.84-.67,1.72-1.31,2.36-.64.64-1.52.98-2.36,1.31-.78.3-1.58.62-1.85,1.07-.25.44-.13,1.29,0,2.1.14.9.28,1.84.04,2.73-.23.86-.81,1.58-1.37,2.28-.53.66-1.08,1.34-1.08,1.89s.55,1.24,1.08,1.89c.56.7,1.14,1.42,1.37,2.27.24.89.1,1.83-.04,2.73-.12.82-.25,1.66,0,2.1.26.46,1.07.77,1.85,1.07.84.33,1.72.67,2.36,1.31s.98,1.52,1.31,2.36c.3.78.62,1.58,1.07,1.85.44.26,1.29.13,2.1,0,.55-.08,1.11-.17,1.67-.17Z"/>
  <path class="cls-1" d="m25.1,59c-.78,0-1.48-.44-1.81-1.15l-2.09-4.48-4.69,2.19c-.73.34-1.57.22-2.17-.32-.61-.54-.82-1.35-.57-2.12l5.33-16.16c.17-.53.73-.81,1.26-.64.52.17.81.74.64,1.26l-5.33,16.16,4.69-2.18c.48-.23,1.03-.25,1.53-.07s.9.55,1.13,1.03l2.09,4.48,4.94-15.31c.17-.52.73-.81,1.26-.64.53.17.81.73.64,1.26l-4.94,15.31c-.25.79-.95,1.33-1.78,1.38-.04,0-.08,0-.13,0Z"/>
  <path class="cls-1" d="m36.9,59s-.08,0-.13,0c-.83-.05-1.53-.59-1.78-1.38l-4.94-15.31c-.17-.53.12-1.09.64-1.26.53-.17,1.09.12,1.26.64l4.94,15.31,2.09-4.48c.23-.48.63-.85,1.13-1.03.5-.19,1.05-.16,1.53.07l4.69,2.19-5.33-16.17c-.17-.52.11-1.09.64-1.26.53-.17,1.09.11,1.26.64l5.33,16.16c.25.77.04,1.58-.57,2.12-.61.54-1.44.66-2.17.32l-4.69-2.19-2.09,4.48c-.33.71-1.03,1.15-1.81,1.15Z"/>
  <path class="cls-1" d="m35.71,33c-.38,0-.77-.1-1.12-.29l-3.38-1.88c-.13-.07-.29-.07-.43,0l-3.38,1.88c-.77.43-1.71.38-2.43-.13-.73-.51-1.09-1.38-.95-2.26l.68-4.2c.02-.14-.02-.28-.12-.38l-2.92-3.01c-.61-.62-.81-1.52-.53-2.34.28-.82.98-1.42,1.84-1.55l3.91-.6c.14-.02.27-.11.33-.25l1.72-3.67c.38-.82,1.18-1.32,2.08-1.32h0c.9,0,1.7.51,2.08,1.33l1.72,3.67c.06.13.19.23.33.25l3.92.6c.86.13,1.56.72,1.84,1.54.28.82.07,1.72-.53,2.34l-2.93,3.01c-.1.1-.14.24-.12.38l.68,4.2c.14.88-.22,1.75-.95,2.26-.4.28-.86.42-1.32.42Zm-4.71-4.23c.41,0,.81.1,1.19.31l3.38,1.88c.13.07.24.03.31-.02.06-.04.15-.14.13-.3l-.68-4.2c-.12-.76.12-1.54.66-2.09l2.93-3.01c.11-.12.09-.24.07-.31-.03-.08-.09-.18-.24-.2l-3.92-.6c-.81-.12-1.49-.64-1.84-1.38l-1.72-3.67c-.07-.14-.18-.17-.27-.17h0c-.09,0-.2.03-.27.17l-1.72,3.67c-.35.74-1.03,1.25-1.84,1.38l-3.91.6c-.16.02-.22.14-.25.21-.02.07-.04.2.07.31l2.92,3.01c.54.55.78,1.33.66,2.09l-.68,4.2c-.03.17.07.26.13.3.07.05.18.09.31.02l3.38-1.88h0c.37-.21.78-.31,1.18-.31Z"/>
</svg>