<?xml version="1.0" encoding="UTF-8"?>
<svg id="Layer_1" data-name="Layer 1" xmlns="http://www.w3.org/2000/svg" viewBox="0 0 60 60">
  <defs>
    <style>
      .cls-1 {
        fill: #37464c;
        stroke-width: 0px;
      }
    </style>
  </defs>
  <g>
    <path class="cls-1" d="m11.44,54.29H2.37c-.55,0-1-.45-1-1v-9.07c0-.55.45-1,1-1h9.07c.55,0,1,.45,1,1v9.07c0,.55-.45,1-1,1Zm-8.07-2h7.07v-7.07H3.37v7.07Z"/>
    <path class="cls-1" d="m25.05,54.29h-9.07c-.55,0-1-.45-1-1v-20.41c0-.55.45-1,1-1h9.07c.55,0,1,.45,1,1v20.41c0,.55-.45,1-1,1Zm-8.07-2h7.07v-18.41h-7.07v18.41Z"/>
    <path class="cls-1" d="m52.26,54.29h-9.07c-.55,0-1-.45-1-1v-27.21c0-.55.45-1,1-1h9.07c.55,0,1,.45,1,1v27.21c0,.55-.45,1-1,1Zm-8.07-2h7.07v-25.21h-7.07v25.21Z"/>
    <path class="cls-1" d="m38.65,54.29h-9.07c-.55,0-1-.45-1-1v-15.87c0-.55.45-1,1-1h9.07c.55,0,1,.45,1,1v15.87c0,.55-.45,1-1,1Zm-8.07-2h7.07v-13.87h-7.07v13.87Z"/>
    <path class="cls-1" d="m6.9,38.42c-2.43,0-4.4-1.97-4.4-4.4s1.97-4.4,4.4-4.4,4.4,1.97,4.4,4.4-1.97,4.4-4.4,4.4Zm0-6.8c-1.32,0-2.4,1.08-2.4,2.4s1.08,2.4,2.4,2.4,2.4-1.08,2.4-2.4-1.08-2.4-2.4-2.4Z"/>
    <path class="cls-1" d="m20.51,27.08c-2.43,0-4.4-1.97-4.4-4.4s1.97-4.4,4.4-4.4,4.4,1.97,4.4,4.4-1.97,4.4-4.4,4.4Zm0-6.8c-1.32,0-2.4,1.08-2.4,2.4s1.08,2.4,2.4,2.4,2.4-1.08,2.4-2.4-1.08-2.4-2.4-2.4Z"/>
    <path class="cls-1" d="m34.12,31.62c-2.43,0-4.4-1.97-4.4-4.4s1.97-4.4,4.4-4.4,4.4,1.97,4.4,4.4-1.97,4.4-4.4,4.4Zm0-6.8c-1.32,0-2.4,1.08-2.4,2.4s1.08,2.4,2.4,2.4,2.4-1.08,2.4-2.4-1.08-2.4-2.4-2.4Z"/>
    <path class="cls-1" d="m36.72,26.05c-.29,0-.57-.12-.77-.36-.35-.42-.3-1.05.13-1.41l8.4-7c.43-.35,1.06-.3,1.41.13.35.42.3,1.05-.13,1.41l-8.4,7c-.19.16-.41.23-.64.23Z"/>
    <path class="cls-1" d="m30.9,27.14c-.1,0-.21-.02-.32-.05l-7.18-2.39c-.52-.17-.81-.74-.63-1.27s.74-.81,1.26-.63l7.18,2.39c.52.17.81.74.63,1.27-.14.42-.53.68-.95.68Z"/>
    <path class="cls-1" d="m9.51,32.85c-.29,0-.57-.12-.77-.36-.35-.42-.3-1.05.13-1.41l8.4-7c.43-.35,1.06-.3,1.41.13.35.42.3,1.05-.13,1.41l-8.4,7c-.19.16-.41.23-.64.23Z"/>
  </g>
  <g>
    <path class="cls-1" d="m50.36,21.14c-4.76,0-8.63-3.87-8.63-8.63s3.87-8.63,8.63-8.63,8.63,3.87,8.63,8.63-3.87,8.63-8.63,8.63Zm0-15.26c-3.66,0-6.63,2.98-6.63,6.63s2.97,6.63,6.63,6.63,6.63-2.97,6.63-6.63-2.97-6.63-6.63-6.63Z"/>
    <g>
      <path class="cls-1" d="m51.56,16.13h-2.4c-.16,0-.29-.13-.29-.29v-2.16h-2.16c-.16,0-.29-.13-.29-.29v-2.4c0-.16.13-.29.29-.29h2.16v-2.16c0-.16.13-.29.29-.29h2.4c.16,0,.29.13.29.29v2.16h2.16c.16,0,.29.13.29.29v2.4c0,.16-.13.29-.29.29h-2.16v2.16c0,.16-.13.29-.29.29Zm-2.12-.57h1.83v-2.16c0-.16.13-.29.29-.29h2.16v-1.83h-2.16c-.16,0-.29-.13-.29-.29v-2.16h-1.83v2.16c0,.16-.13.29-.29.29h-2.16v1.83h2.16c.16,0,.29.13.29.29v2.16Z"/>
      <path class="cls-1" d="m51.56,16.38h-2.41c-.29,0-.54-.24-.54-.54v-1.91h-1.91c-.3,0-.54-.24-.54-.54v-2.4c0-.3.24-.54.54-.54h1.91v-1.91c0-.3.24-.54.54-.54h2.41c.29,0,.54.24.54.54v1.91h1.91c.3,0,.54.24.54.54v2.4c0,.3-.24.54-.54.54h-1.91v1.91c0,.3-.24.54-.54.54Zm-4.85-5.42l-.04,2.44,2.45.04v2.41l2.44.04s.04-.02.04-.04v-2.41h2.41l.04-2.44-2.45-.04v-2.41l-2.44-.04-.04,2.45h-2.41Zm4.81,4.85h-2.33v-2.41l-2.45-.04v-2.33h2.41l.04-2.45h2.33v2.41l2.45.04v2.33h-2.41l-.04,2.45Zm-1.83-.5h1.33v-1.91c0-.3.24-.54.54-.54h1.91v-1.33h-1.91c-.3,0-.54-.24-.54-.54v-1.91h-1.33v1.91c0,.3-.24.54-.54.54h-1.91v1.33h1.91c.3,0,.54.24.54.54v1.91Z"/>
    </g>
  </g>
</svg>