<svg width="152" height="151" xmlns="http://www.w3.org/2000/svg" xmlns:xlink="http://www.w3.org/1999/xlink" xml:space="preserve" overflow="hidden"><g transform="translate(-123 -141)"><path d="M33.7988 122.511 10.7713 122.511C9.38717 122.511 8.25467 121.379 8.25467 119.995L8.25467 96.9672C8.25467 95.583 9.38717 94.4505 10.7713 94.4505L33.7988 94.4505C35.183 94.4505 36.3155 95.583 36.3155 96.9672L36.3155 119.995C36.3155 121.379 35.183 122.511 33.7988 122.511ZM13.288 117.478 31.2822 117.478 31.2822 99.4838 13.288 99.4838 13.288 117.478Z" fill="#6100DC" transform="matrix(1.00662 0 0 1 123 141)"/><path d="M68.3275 122.511 45.3 122.511C43.9158 122.511 42.7833 121.379 42.7833 119.995L42.7833 68.1765C42.7833 66.7923 43.9158 65.6598 45.3 65.6598L68.3275 65.6598C69.7117 65.6598 70.8442 66.7923 70.8442 68.1765L70.8442 119.995C70.8442 121.379 69.7117 122.511 68.3275 122.511ZM47.8167 117.478 65.8108 117.478 65.8108 70.6932 47.8167 70.6932 47.8167 117.478Z" fill="#6100DC" transform="matrix(1.00662 0 0 1 123 141)"/><path d="M137.41 122.511 114.382 122.511C112.998 122.511 111.866 121.379 111.866 119.995L111.866 50.9122C111.866 49.528 112.998 48.3955 114.382 48.3955L137.41 48.3955C138.794 48.3955 139.927 49.528 139.927 50.9122L139.927 119.995C139.927 121.379 138.794 122.511 137.41 122.511ZM116.899 117.478 134.893 117.478 134.893 53.4288 116.899 53.4288 116.899 117.478Z" fill="#6100DC" transform="matrix(1.00662 0 0 1 123 141)"/><path d="M102.881 122.511 79.8538 122.511C78.4697 122.511 77.3372 121.379 77.3372 119.995L77.3372 79.7028C77.3372 78.3187 78.4697 77.1862 79.8538 77.1862L102.881 77.1862C104.266 77.1862 105.398 78.3187 105.398 79.7028L105.398 119.995C105.398 121.379 104.266 122.511 102.881 122.511ZM82.3705 117.478 100.365 117.478 100.365 82.2195 82.3705 82.2195 82.3705 117.478Z" fill="#6100DC" transform="matrix(1.00662 0 0 1 123 141)"/><path d="M22.2977 82.2195C16.157 82.2195 11.1488 77.2113 11.1488 71.0707 11.1488 64.93 16.157 59.9218 22.2977 59.9218 28.4383 59.9218 33.4465 64.93 33.4465 71.0707 33.4465 77.2113 28.4383 82.2195 22.2977 82.2195ZM22.2977 64.9552C18.9253 64.9552 16.1822 67.6983 16.1822 71.0707 16.1822 74.443 18.9253 77.1862 22.2977 77.1862 25.67 77.1862 28.4132 74.443 28.4132 71.0707 28.4132 67.6983 25.67 64.9552 22.2977 64.9552Z" fill="#6100DC" transform="matrix(1.00662 0 0 1 123 141)"/><path d="M56.8263 53.4288C50.6857 53.4288 45.6775 48.4207 45.6775 42.28 45.6775 36.1393 50.6857 31.1312 56.8263 31.1312 62.967 31.1312 67.9752 36.1393 67.9752 42.28 67.9752 48.4207 62.967 53.4288 56.8263 53.4288ZM56.8263 36.1645C53.454 36.1645 50.7108 38.9077 50.7108 42.28 50.7108 45.6523 53.454 48.3955 56.8263 48.3955 60.1987 48.3955 62.9418 45.6523 62.9418 42.28 62.9418 38.9077 60.1987 36.1645 56.8263 36.1645Z" fill="#6100DC" transform="matrix(1.00662 0 0 1 123 141)"/><path d="M91.3802 64.9552C85.2395 64.9552 80.2313 59.947 80.2313 53.8063 80.2313 47.6657 85.2395 42.6575 91.3802 42.6575 97.5208 42.6575 102.529 47.6657 102.529 53.8063 102.529 59.947 97.5208 64.9552 91.3802 64.9552ZM91.3802 47.6908C88.0078 47.6908 85.2647 50.434 85.2647 53.8063 85.2647 57.1787 88.0078 59.9218 91.3802 59.9218 94.7525 59.9218 97.4957 57.1787 97.4957 53.8063 97.4957 50.434 94.7525 47.6908 91.3802 47.6908Z" fill="#6100DC" transform="matrix(1.00662 0 0 1 123 141)"/><path d="M125.909 36.1645C119.768 36.1645 114.76 31.1563 114.76 25.0157 114.76 18.875 119.768 13.8668 125.909 13.8668 132.049 13.8668 137.058 18.875 137.058 25.0157 137.058 31.1563 132.049 36.1645 125.909 36.1645ZM125.909 18.9002C122.536 18.9002 119.793 21.6433 119.793 25.0157 119.793 28.388 122.536 31.1312 125.909 31.1312 129.281 31.1312 132.024 28.388 132.024 25.0157 132.024 21.6433 129.281 18.9002 125.909 18.9002Z" fill="#6100DC" transform="matrix(1.00662 0 0 1 123 141)"/><path d="M97.9738 50.8115C97.244 50.8115 96.5393 50.5095 96.036 49.9055 95.1552 48.8485 95.281 47.263 96.3632 46.357L117.704 28.5893C118.787 27.7085 120.347 27.8343 121.253 28.9165 122.134 29.9735 122.008 31.559 120.926 32.465L99.5845 50.2327C99.1063 50.6353 98.5527 50.8115 97.9738 50.8115Z" fill="#6100DC" transform="matrix(1.00662 0 0 1 123 141)"/><path d="M83.201 53.605C82.9493 53.605 82.6725 53.5547 82.3957 53.4792L64.175 47.414C62.8663 46.9862 62.1365 45.5517 62.5895 44.2178 63.0173 42.9092 64.4518 42.1793 65.7605 42.6323L83.9812 48.6975C85.2898 49.1253 86.0197 50.5598 85.5667 51.8937 85.2143 52.9507 84.2328 53.605 83.1758 53.605Z" fill="#6100DC" transform="matrix(1.00662 0 0 1 123 141)"/><path d="M28.8913 68.0758C28.1615 68.0758 27.4568 67.7738 26.9535 67.1698 26.0727 66.1128 26.1985 64.5273 27.2807 63.6213L48.622 45.8537C49.7042 44.9728 51.2645 45.0987 52.1705 46.1808 53.0513 47.2378 52.9255 48.8233 51.8433 49.7293L30.502 67.497C30.0238 67.8997 29.4702 68.0758 28.8913 68.0758Z" fill="#6100DC" transform="matrix(1.00662 0 0 1 123 141)"/></g></svg>