<?xml version="1.0" encoding="UTF-8"?>
<svg id="Layer_1" data-name="Layer 1" xmlns="http://www.w3.org/2000/svg" viewBox="0 0 60 60">
  <defs>
    <style>
      .cls-1 {
        fill: #37464c;
        stroke-width: 0px;
      }
    </style>
  </defs>
  <path class="cls-1" d="m13.43,48.68H4.28c-.55,0-1-.45-1-1v-9.15c0-.55.45-1,1-1h9.15c.55,0,1,.45,1,1v9.15c0,.55-.45,1-1,1Zm-8.15-2h7.15v-7.15h-7.15v7.15Z"/>
  <path class="cls-1" d="m27.15,48.68h-9.15c-.55,0-1-.45-1-1v-20.59c0-.55.45-1,1-1h9.15c.55,0,1,.45,1,1v20.59c0,.55-.45,1-1,1Zm-8.15-2h7.15v-18.59h-7.15v18.59Z"/>
  <path class="cls-1" d="m54.6,48.68h-9.15c-.55,0-1-.45-1-1v-27.45c0-.55.45-1,1-1h9.15c.55,0,1,.45,1,1v27.45c0,.55-.45,1-1,1Zm-8.15-2h7.15v-25.45h-7.15v25.45Z"/>
  <path class="cls-1" d="m40.88,48.68h-9.15c-.55,0-1-.45-1-1v-16.01c0-.55.45-1,1-1h9.15c.55,0,1,.45,1,1v16.01c0,.55-.45,1-1,1Zm-8.15-2h7.15v-14.01h-7.15v14.01Z"/>
  <path class="cls-1" d="m8.86,32.67c-2.44,0-4.43-1.99-4.43-4.43s1.99-4.43,4.43-4.43,4.43,1.99,4.43,4.43-1.99,4.43-4.43,4.43Zm0-6.86c-1.34,0-2.43,1.09-2.43,2.43s1.09,2.43,2.43,2.43,2.43-1.09,2.43-2.43-1.09-2.43-2.43-2.43Z"/>
  <path class="cls-1" d="m22.58,21.23c-2.44,0-4.43-1.99-4.43-4.43s1.99-4.43,4.43-4.43,4.43,1.99,4.43,4.43-1.99,4.43-4.43,4.43Zm0-6.86c-1.34,0-2.43,1.09-2.43,2.43s1.09,2.43,2.43,2.43,2.43-1.09,2.43-2.43-1.09-2.43-2.43-2.43Z"/>
  <path class="cls-1" d="m36.31,25.81c-2.44,0-4.43-1.99-4.43-4.43s1.99-4.43,4.43-4.43,4.43,1.99,4.43,4.43-1.99,4.43-4.43,4.43Zm0-6.86c-1.34,0-2.43,1.09-2.43,2.43s1.09,2.43,2.43,2.43,2.43-1.09,2.43-2.43-1.09-2.43-2.43-2.43Z"/>
  <path class="cls-1" d="m50.03,14.37c-2.44,0-4.43-1.99-4.43-4.43s1.99-4.43,4.43-4.43,4.43,1.99,4.43,4.43-1.99,4.43-4.43,4.43Zm0-6.86c-1.34,0-2.43,1.09-2.43,2.43s1.09,2.43,2.43,2.43,2.43-1.09,2.43-2.43-1.09-2.43-2.43-2.43Z"/>
  <path class="cls-1" d="m38.93,20.19c-.29,0-.57-.12-.77-.36-.35-.42-.3-1.05.13-1.41l8.48-7.06c.43-.35,1.05-.3,1.41.13.35.42.3,1.05-.13,1.41l-8.48,7.06c-.19.16-.41.23-.64.23Z"/>
  <path class="cls-1" d="m33.06,21.3c-.1,0-.21-.02-.32-.05l-7.24-2.41c-.52-.17-.81-.74-.63-1.27.17-.52.74-.81,1.26-.63l7.24,2.41c.52.17.81.74.63,1.27-.14.42-.53.68-.95.68Z"/>
  <path class="cls-1" d="m11.48,27.05c-.29,0-.57-.12-.77-.36-.35-.42-.3-1.05.13-1.41l8.48-7.06c.43-.35,1.05-.3,1.41.13.35.42.3,1.05-.13,1.41l-8.48,7.06c-.19.16-.41.23-.64.23Z"/>
</svg>