<?xml version="1.0" encoding="UTF-8"?>
<svg id="Layer_1" data-name="Layer 1" xmlns="http://www.w3.org/2000/svg" viewBox="0 0 60 60">
  <defs>
    <style>
      .cls-1 {
        fill: #37464c;
        stroke-width: 0px;
      }
    </style>
  </defs>
  <g>
    <path class="cls-1" d="m30.43,42.91c-.32,0-.59-.26-.6-.58-.01-.33.25-.61.58-.62l3.34-.11c.34-.01.61.25.62.58.01.33-.25.61-.58.62l-3.34.11s-.01,0-.02,0Z"/>
    <path class="cls-1" d="m30.43,43.28c-.53,0-.96-.42-.98-.94,0-.26.09-.51.26-.7s.42-.3.68-.31l3.34-.11c.55,0,.99.4,1.01.94.02.54-.41.99-.94,1.01l-3.37.11Zm3.34-1.31h0l-3.34.11c-.12,0-.22.11-.22.23,0,.12.1.22.23.22v.38-.38s3.35-.11,3.35-.11c.12,0,.22-.11.22-.23,0-.12-.1-.22-.23-.22Z"/>
  </g>
  <g>
    <g>
      <path class="cls-1" d="m29.29,40.49c-.05,0-.1,0-.15-.02-.22-.06-.38-.23-.43-.44l-3.28-13.78c-.04-.17,0-.36.1-.5.11-.14.27-.23.45-.24l16.54-.77c.24,0,.47.12.57.35.1.22.06.48-.1.66l-13.26,14.56c-.12.13-.28.2-.44.2Zm-2.53-13.82l2.85,11.97,11.52-12.64-14.37.67Z"/>
      <path class="cls-1" d="m29.29,40.86c-.08,0-.16-.01-.24-.03-.35-.09-.62-.37-.71-.72l-3.28-13.78c-.07-.28,0-.58.17-.81.17-.23.44-.37.73-.39l16.54-.77c.41,0,.76.2.93.56.17.36.1.78-.16,1.07l-13.26,14.56c-.19.2-.45.32-.72.32Zm13.26-15.76h0l-16.54.77c-.07,0-.13.04-.17.09-.04.05-.06.12-.04.19l3.28,13.78c.02.08.08.15.16.17h.06c.06,0,.12-.02.17-.07l13.26-14.56c.06-.07.08-.17.04-.25-.04-.08-.12-.13-.21-.13Zm-13.14,14.31l-3.12-13.1,15.72-.73-12.6,13.84Zm-2.18-12.4l2.58,10.84,10.43-11.45-13.01.61Z"/>
    </g>
    <g>
      <path class="cls-1" d="m29.29,40.49s-.02,0-.03,0l-15.22-.68c-.23-.01-.44-.15-.53-.37-.09-.22-.05-.46.11-.64l11.93-13.1c.22-.25.6-.26.85-.04.25.22.26.6.04.85l-11.07,12.15,13.93.63c.33.01.59.3.57.63-.01.32-.28.57-.6.57Z"/>
      <path class="cls-1" d="m29.29,40.86h-.03s-15.23-.68-15.23-.68c-.38-.02-.71-.25-.86-.6-.14-.35-.07-.75.18-1.03l11.93-13.1c.18-.19.42-.31.68-.32.25,0,.51.08.7.25.4.36.43.98.06,1.38l-10.53,11.56,13.13.59c.54.02.96.48.93,1.02-.02.52-.45.93-.98.93Zm-3.28-14.99h-.01c-.06,0-.12.03-.16.07l-11.93,13.1c-.06.06-.08.16-.04.24.03.08.11.13.2.14l15.21.68v.38s.01-.38.01-.38c.12,0,.22-.09.23-.22,0-.12-.09-.23-.22-.24l-14.73-.66,11.61-12.74c.08-.09.08-.24-.02-.32-.04-.04-.1-.06-.15-.06Z"/>
    </g>
    <g>
      <path class="cls-1" d="m46.51,39.68c-.26,0-.5-.17-.58-.44l-3.96-13.75c-.09-.32.09-.65.41-.74.32-.09.65.09.74.41l3.96,13.75c.09.32-.09.65-.41.74-.06.02-.11.02-.17.02Z"/>
      <path class="cls-1" d="m46.51,40.06c-.43,0-.82-.29-.94-.71l-3.96-13.75c-.15-.52.15-1.06.67-1.21.25-.07.52-.04.74.08.23.13.39.33.47.59l3.96,13.75c.07.25.04.51-.08.74-.13.23-.33.39-.58.47-.09.03-.18.04-.27.04Zm-3.96-14.96s-.04,0-.06,0c-.12.03-.19.16-.16.28l3.96,13.75c.03.12.16.19.28.16.06-.02.11-.06.14-.11.03-.05.04-.11.02-.17l-3.96-13.75c-.02-.06-.06-.11-.11-.14-.03-.02-.07-.03-.11-.03Z"/>
    </g>
    <g>
      <path class="cls-1" d="m23.17,24.02c-.32,0-.59-.25-.6-.57-.02-.33.24-.61.57-.63l4.41-.21c.33-.02.61.24.63.57.02.33-.24.61-.57.63l-4.41.21s-.02,0-.03,0Z"/>
      <path class="cls-1" d="m23.17,24.4c-.52,0-.95-.41-.97-.93-.01-.26.08-.51.25-.7s.42-.31.68-.32l4.41-.21c.25-.02.51.08.7.25.19.18.31.42.32.68.01.26-.08.51-.25.7-.18.19-.42.31-.68.32l-4.46.21Zm0-.69v.31s0-.38,0-.38l4.42-.21c.06,0,.12-.03.16-.07.04-.04.06-.1.06-.16s-.03-.12-.07-.16c-.04-.04-.1-.06-.16-.06l-4.41.21c-.06,0-.12.03-.16.07-.04.04-.06.1-.06.16,0,.12.1.22.23.22v.06Z"/>
    </g>
    <g>
      <path class="cls-1" d="m46.95,23.39c-.32,0-.59-.25-.6-.57-.04-.82-.32-1.44-.86-1.89-1.13-.94-3.18-.88-3.88-.78-.33.04-.63-.18-.68-.51-.05-.33.18-.63.51-.68.12-.02,3.05-.41,4.82,1.05.8.67,1.24,1.59,1.29,2.76.02.33-.24.61-.57.63,0,0-.02,0-.03,0Z"/>
      <path class="cls-1" d="m46.95,23.76c-.52,0-.95-.41-.97-.93-.03-.72-.26-1.23-.72-1.61-1.02-.85-2.98-.79-3.59-.7-.54.07-1.03-.3-1.1-.83-.08-.53.3-1.03.83-1.1.13-.02,3.21-.44,5.11,1.13.89.74,1.37,1.75,1.43,3.03.02.54-.39,1-.93,1.02h-.05Zm0-.7v.33s0-.38,0-.38c.13,0,.23-.11.22-.24-.05-1.05-.44-1.89-1.16-2.48-1.64-1.36-4.41-.98-4.52-.97-.12.02-.21.13-.19.26.02.12.13.21.26.19.02,0,2.68-.37,4.17.87.63.52.95,1.22,1,2.16,0,.12.1.22.23.22v.05Z"/>
    </g>
    <g>
      <path class="cls-1" d="m32.1,42.85c-.14,0-.29-.05-.4-.16l-5.57-5.08c-.25-.22-.26-.6-.04-.85.22-.25.6-.26.85-.04l5.57,5.08c.25.22.26.6.04.85-.12.13-.28.2-.44.2Z"/>
      <path class="cls-1" d="m32.1,43.23c-.24,0-.48-.09-.66-.26l-5.57-5.08c-.4-.36-.43-.98-.06-1.38.18-.19.42-.31.68-.32.26-.01.51.08.7.25l5.57,5.07c.4.36.43.98.06,1.38-.19.2-.45.32-.72.32Zm-5.57-6.28h-.01c-.06,0-.12.03-.16.07-.08.09-.08.24.01.32l5.57,5.08c.14.13.25.06.32-.01.08-.09.08-.24-.02-.32l-5.57-5.08s-.1-.06-.15-.06Z"/>
    </g>
    <g>
      <path class="cls-1" d="m25.01,37.85c-.32,0-.59-.25-.6-.57-.02-.33.24-.61.57-.63l2.91-.14c.34-.01.61.24.63.57.02.33-.24.61-.57.63l-2.91.14s-.02,0-.03,0Z"/>
      <path class="cls-1" d="m25.05,38.22h-.04c-.52,0-.95-.41-.97-.93-.01-.26.08-.51.25-.7.18-.19.42-.31.68-.32l2.91-.14c.56,0,1,.39,1.02.93.02.54-.39,1-.93,1.02l-2.92.14Zm2.86-1.34h0l-2.9.14c-.06,0-.12.03-.16.07-.04.04-.06.1-.06.16,0,.12.1.22.23.22h.03l2.89-.14c.12,0,.22-.11.22-.24,0-.12-.11-.22-.23-.22Z"/>
    </g>
    <g>
      <path class="cls-1" d="m14.07,49.62c-5.53,0-10.15-4.36-10.41-9.94-.13-2.78.83-5.45,2.71-7.5,1.88-2.06,4.44-3.26,7.22-3.39,5.74-.27,10.63,4.18,10.9,9.93h0c.13,2.78-.83,5.45-2.71,7.5-1.87,2.06-4.44,3.26-7.22,3.39-.16,0-.33.01-.49.01Zm.01-19.64c-.14,0-.29,0-.44.01-2.46.11-4.73,1.18-6.39,3-1.66,1.82-2.51,4.18-2.39,6.64.24,5.08,4.57,9.02,9.64,8.78,2.46-.11,4.73-1.18,6.39-3,1.66-1.82,2.51-4.18,2.39-6.64h0c-.23-4.93-4.32-8.79-9.21-8.79Z"/>
      <path class="cls-1" d="m14.07,50c-5.78,0-10.51-4.52-10.78-10.29-.13-2.88.86-5.64,2.8-7.77,1.94-2.13,4.6-3.38,7.48-3.51,5.94-.28,11.01,4.34,11.29,10.28.13,2.88-.86,5.64-2.8,7.77-1.94,2.13-4.6,3.38-7.48,3.51-.17,0-.34.01-.51.01Zm0-20.84c-.16,0-.31,0-.47.01-2.68.13-5.15,1.29-6.96,3.27-1.81,1.98-2.73,4.55-2.61,7.23.26,5.53,4.95,9.84,10.51,9.57,2.68-.12,5.15-1.29,6.96-3.27,1.81-1.98,2.73-4.55,2.61-7.23-.25-5.38-4.71-9.58-10.03-9.58Zm-.01,19.64c-2.39,0-4.66-.88-6.45-2.5-1.9-1.73-3.01-4.09-3.13-6.64-.12-2.56.77-5.01,2.49-6.91,1.73-1.89,4.09-3,6.65-3.12,5.31-.26,9.79,3.86,10.03,9.14.12,2.56-.77,5.01-2.49,6.91-1.73,1.89-4.09,3-6.65,3.12-.15,0-.31.01-.46.01Zm.02-18.44c-.14,0-.28,0-.42,0-2.36.11-4.54,1.13-6.13,2.88-1.59,1.75-2.41,4.01-2.3,6.37.11,2.36,1.13,4.53,2.88,6.12,1.75,1.59,4.01,2.4,6.36,2.3,2.36-.11,4.54-1.13,6.13-2.88,1.59-1.75,2.41-4.01,2.3-6.37-.22-4.73-4.1-8.43-8.83-8.43Z"/>
    </g>
    <g>
      <path class="cls-1" d="m46.5,49.5c-5.53,0-10.15-4.36-10.41-9.94-.13-2.78.83-5.45,2.71-7.5,1.88-2.06,4.44-3.26,7.22-3.39,5.74-.26,10.63,4.19,10.9,9.93.13,2.78-.83,5.45-2.71,7.5-1.87,2.06-4.44,3.26-7.22,3.39-.16,0-.33.01-.49.01Zm.01-19.64c-.14,0-.29,0-.43.01-2.46.11-4.73,1.18-6.39,3-1.66,1.82-2.51,4.18-2.39,6.64.24,5.08,4.56,9.01,9.64,8.78,2.46-.11,4.73-1.18,6.39-3,1.66-1.82,2.51-4.18,2.39-6.64-.23-4.93-4.32-8.79-9.21-8.79Z"/>
      <path class="cls-1" d="m46.5,49.88c-5.78,0-10.51-4.52-10.78-10.29-.13-2.88.86-5.64,2.8-7.77,1.94-2.13,4.6-3.38,7.48-3.51,5.97-.28,11.01,4.34,11.29,10.28.13,2.88-.86,5.64-2.8,7.77-1.94,2.13-4.6,3.38-7.48,3.51-.17,0-.34.01-.51.01Zm0-20.84c-.15,0-.31,0-.47.01-2.68.12-5.15,1.29-6.96,3.27-1.81,1.98-2.73,4.55-2.61,7.23.26,5.53,4.93,9.86,10.51,9.57,2.68-.12,5.15-1.29,6.96-3.27,1.81-1.98,2.73-4.55,2.61-7.23-.25-5.37-4.71-9.58-10.04-9.58Zm0,19.64c-5.09,0-9.35-4.02-9.59-9.15-.12-2.56.77-5.01,2.49-6.91,1.73-1.89,4.09-3,6.65-3.12,5.32-.26,9.79,3.86,10.03,9.14.12,2.56-.77,5.01-2.49,6.91-1.73,1.89-4.09,3-6.65,3.12-.15,0-.3,0-.45,0Zm0-18.44c-.14,0-.28,0-.42,0-2.36.11-4.54,1.13-6.13,2.88-1.59,1.75-2.41,4.01-2.3,6.37.23,4.87,4.39,8.67,9.25,8.42,2.36-.11,4.54-1.13,6.13-2.88,1.59-1.75,2.41-4.01,2.3-6.37-.22-4.73-4.1-8.43-8.83-8.43Z"/>
    </g>
  </g>
</svg>