<?xml version="1.0" encoding="UTF-8"?>
<svg id="Layer_1" data-name="Layer 1" xmlns="http://www.w3.org/2000/svg" viewBox="0 0 60 60">
  <defs>
    <style>
      .cls-1 {
        fill: #37464c;
        stroke-width: 0px;
      }
    </style>
  </defs>
  <g>
    <path class="cls-1" d="m26.08,43.49c-1.27,0-2.48-.5-3.39-1.38-.02,0-.03,0-.05,0-2.6,0-4.73-2.05-4.87-4.61-1.67-.81-2.76-2.51-2.76-4.39,0-.43.06-.85.17-1.26-.99-.92-1.54-2.19-1.54-3.55,0-.99.3-1.94.85-2.75-.55-.81-.85-1.76-.85-2.75,0-1.45.63-2.79,1.72-3.71-.23-.57-.34-1.18-.34-1.79,0-1.92,1.13-3.65,2.85-4.43.46-2.24,2.44-3.88,4.77-3.88.02,0,.03,0,.05,0,.91-.88,2.12-1.38,3.39-1.38,2.69,0,4.88,2.19,4.88,4.88h-1.5c0-1.86-1.51-3.38-3.38-3.38-.96,0-1.88.42-2.52,1.14-.16.18-.38.27-.62.25-.1,0-.19-.02-.29-.02-1.72,0-3.17,1.29-3.35,3-.03.29-.23.53-.5.63-1.36.47-2.27,1.75-2.27,3.19,0,.58.15,1.15.44,1.66.2.35.09.79-.25,1-.98.63-1.56,1.69-1.56,2.84,0,.83.31,1.63.87,2.25.25.29.25.72,0,1-.56.62-.87,1.42-.87,2.25,0,1.07.5,2.06,1.36,2.7.27.2.37.56.25.88-.16.4-.24.81-.24,1.23,0,1.43.91,2.71,2.26,3.18.31.11.52.41.5.75v.2c-.01,1.86,1.5,3.38,3.37,3.38.1,0,.19,0,.29-.02.24-.02.47.07.62.25.64.73,1.56,1.14,2.52,1.14,1.86,0,3.38-1.51,3.38-3.38h1.5c0,2.69-2.19,4.88-4.88,4.88Z"/>
    <path class="cls-1" d="m23,42.09c-.19,0-.38-.07-.53-.22-.92-.92-1.37-2.1-1.26-3.34.04-.41.39-.72.81-.68.41.04.72.4.68.81-.07.8.22,1.54.83,2.15.29.29.29.77,0,1.06-.15.15-.34.22-.53.22Z"/>
    <path class="cls-1" d="m25.39,20.79c-.41,0-.75-.34-.75-.75,0-1.86-1.51-3.38-3.38-3.38-.41,0-.75-.34-.75-.75s.34-.75.75-.75c2.69,0,4.88,2.19,4.88,4.88,0,.41-.34.75-.75.75Z"/>
    <path class="cls-1" d="m26.08,39.36c-.41,0-.75-.34-.75-.75,0-1.86-1.51-3.38-3.38-3.38-.41,0-.75-.34-.75-.75s.34-.75.75-.75c2.69,0,4.88,2.19,4.88,4.88,0,.41-.34.75-.75.75Z"/>
    <path class="cls-1" d="m26.08,26.98c-.41,0-.75-.34-.75-.75s.34-.75.75-.75c1.86,0,3.38-1.52,3.38-3.38,0-.41.34-.75.75-.75s.75.34.75.75c0,2.69-2.19,4.88-4.88,4.88Z"/>
    <path class="cls-1" d="m19.72,25.25c-.19,0-.38-.07-.53-.22-1.9-1.9-1.9-5,0-6.9.29-.29.77-.29,1.06,0,.29.29.29.77,0,1.06-1.32,1.32-1.32,3.46,0,4.78.29.29.29.77,0,1.06-.15.15-.34.22-.53.22Z"/>
    <path class="cls-1" d="m19.2,33.86c-.41,0-.75-.34-.75-.75,0-2.54,1.98-4.67,4.52-4.86.41-.02.77.28.8.69s-.28.77-.69.8c-1.75.13-3.13,1.61-3.13,3.36,0,.41-.34.75-.75.75Z"/>
    <path class="cls-1" d="m23.34,17.22s-.01,0-.02,0c-.41-.01-.74-.36-.73-.77.08-2.65,2.22-4.73,4.87-4.73.41,0,.75.34.75.75s-.34.75-.75.75c-1.83,0-3.31,1.44-3.37,3.27-.01.41-.35.73-.75.73Z"/>
    <path class="cls-1" d="m34.34,43.49c-2.69,0-4.88-2.19-4.88-4.88V12.47c0-2.69,2.19-4.88,4.88-4.88,1.27,0,2.48.5,3.39,1.38.02,0,.03,0,.05,0,2.33,0,4.31,1.64,4.77,3.88,1.72.79,2.85,2.51,2.85,4.43,0,.61-.12,1.22-.34,1.79,1.09.92,1.72,2.27,1.72,3.71,0,.99-.3,1.94-.85,2.75.55.81.85,1.76.85,2.75,0,1.37-.56,2.63-1.54,3.55.11.41.17.83.17,1.26,0,1.88-1.09,3.58-2.76,4.39-.14,2.57-2.27,4.61-4.87,4.61-.02,0-.03,0-.05,0-.91.88-2.12,1.38-3.39,1.38Zm0-34.39c-1.86,0-3.38,1.51-3.38,3.38v26.14c0,1.86,1.51,3.38,3.38,3.38.96,0,1.88-.42,2.52-1.14.16-.18.38-.27.62-.25.1,0,.19.02.29.02,1.86,0,3.38-1.51,3.38-3.38v-.13c-.03-.34.17-.7.49-.81,1.35-.47,2.26-1.75,2.26-3.18,0-.42-.08-.84-.24-1.23-.12-.31-.02-.67.25-.88.87-.65,1.36-1.63,1.36-2.7,0-.83-.31-1.63-.87-2.25-.25-.29-.25-.72,0-1,.56-.62.87-1.42.87-2.25,0-1.16-.58-2.22-1.56-2.84-.34-.21-.44-.65-.25-1,.29-.5.44-1.08.44-1.66,0-1.44-.91-2.72-2.27-3.19-.27-.09-.47-.34-.5-.63-.19-1.71-1.63-3-3.35-3-.1,0-.19,0-.29.02-.24.02-.47-.07-.62-.25-.64-.73-1.56-1.14-2.52-1.14Z"/>
    <path class="cls-1" d="m37.42,42.09c-.19,0-.38-.07-.53-.22-.29-.29-.29-.77,0-1.06.61-.61.89-1.35.82-2.15-.04-.41.27-.78.68-.81.41-.04.78.27.81.68.11,1.23-.34,2.42-1.26,3.34-.15.15-.34.22-.53.22Z"/>
    <path class="cls-1" d="m34.34,39.36c-.41,0-.75-.34-.75-.75,0-2.69,2.19-4.88,4.88-4.88.41,0,.75.34.75.75s-.34.75-.75.75c-1.86,0-3.38,1.52-3.38,3.38,0,.41-.34.75-.75.75Z"/>
    <path class="cls-1" d="m34.34,26.98c-2.69,0-4.88-2.19-4.88-4.88,0-.41.34-.75.75-.75s.75.34.75.75c0,1.86,1.51,3.38,3.38,3.38.41,0,.75.34.75.75s-.34.75-.75.75Z"/>
    <path class="cls-1" d="m40.69,25.25c-.19,0-.38-.07-.53-.22-.29-.29-.29-.77,0-1.06,1.32-1.32,1.32-3.46,0-4.78-.29-.29-.29-.77,0-1.06.29-.29.77-.29,1.06,0,1.9,1.9,1.9,5,0,6.9-.15.15-.34.22-.53.22Z"/>
    <path class="cls-1" d="m34.34,31.11c-.41,0-.75-.34-.75-.75s.34-.75.75-.75c1.86,0,3.38-1.52,3.38-3.38,0-.41.34-.75.75-.75s.75.34.75.75c0,2.69-2.19,4.88-4.88,4.88Z"/>
    <path class="cls-1" d="m41.21,33.86c-.41,0-.75-.34-.75-.75,0-1.76-1.37-3.23-3.13-3.36-.41-.03-.72-.39-.69-.8s.39-.72.8-.69c2.53.19,4.52,2.32,4.52,4.86,0,.41-.34.75-.75.75Z"/>
    <path class="cls-1" d="m37.08,17.22c-.4,0-.74-.32-.75-.73-.06-1.83-1.54-3.27-3.37-3.27-.41,0-.75-.34-.75-.75s.34-.75.75-.75c2.65,0,4.79,2.08,4.87,4.73.01.41-.31.76-.73.77,0,0-.02,0-.02,0Z"/>
    <path class="cls-1" d="m26.08,31.11c-2.69,0-4.88-2.19-4.88-4.88,0-2.5,1.72-3.39,1.79-3.42.37-.19.82-.03,1.01.34.18.37.04.81-.33,1-.06.03-.97.56-.97,2.08,0,1.86,1.51,3.38,3.38,3.38.41,0,.75.34.75.75s-.34.75-.75.75Z"/>
    <path class="cls-1" d="m36.39,23.54c-.11,0-.22-.03-.33-.08-.07-.04-1.79-.92-1.79-3.42,0-2.69,2.19-4.88,4.88-4.88.41,0,.75.34.75.75s-.34.75-.75.75c-1.86,0-3.38,1.52-3.38,3.38,0,1.54.93,2.06.97,2.09.36.2.5.65.31,1.01-.13.26-.39.41-.66.41Z"/>
  </g>
  <g>
    <path class="cls-1" d="m29.96,56.94c-1.6,0-2.9-1.3-2.9-2.9s1.3-2.9,2.9-2.9,2.9,1.3,2.9,2.9-1.3,2.9-2.9,2.9Zm0-4.1c-.66,0-1.2.54-1.2,1.2s.54,1.2,1.2,1.2,1.2-.54,1.2-1.2-.54-1.2-1.2-1.2Z"/>
    <path class="cls-1" d="m45.33,52.84c-1.6,0-2.9-1.3-2.9-2.9s1.3-2.9,2.9-2.9,2.9,1.3,2.9,2.9-1.3,2.9-2.9,2.9Zm0-4.1c-.66,0-1.2.54-1.2,1.2s.54,1.2,1.2,1.2,1.2-.54,1.2-1.2-.54-1.2-1.2-1.2Z"/>
    <path class="cls-1" d="m14.58,52.84c-1.6,0-2.9-1.3-2.9-2.9s1.3-2.9,2.9-2.9,2.9,1.3,2.9,2.9-1.3,2.9-2.9,2.9Zm0-4.1c-.66,0-1.2.54-1.2,1.2s.54,1.2,1.2,1.2,1.2-.54,1.2-1.2-.54-1.2-1.2-1.2Z"/>
    <path class="cls-1" d="m55.57,30.3c-1.6,0-2.9-1.3-2.9-2.9s1.3-2.9,2.9-2.9,2.9,1.3,2.9,2.9-1.3,2.9-2.9,2.9Zm0-4.1c-.66,0-1.2.54-1.2,1.2s.54,1.2,1.2,1.2,1.2-.54,1.2-1.2-.54-1.2-1.2-1.2Z"/>
    <path class="cls-1" d="m51.47,44.64c-1.6,0-2.9-1.3-2.9-2.9s1.3-2.9,2.9-2.9,2.9,1.3,2.9,2.9-1.3,2.9-2.9,2.9Zm0-4.1c-.66,0-1.2.54-1.2,1.2s.54,1.2,1.2,1.2,1.2-.54,1.2-1.2-.54-1.2-1.2-1.2Z"/>
    <path class="cls-1" d="m51.47,40.54c-.47,0-.85-.38-.85-.85v-5.3h-5.51c-.47,0-.85-.38-.85-.85s.38-.85.85-.85h6.36c.47,0,.85.38.85.85v6.15c0,.47-.38.85-.85.85Z"/>
    <path class="cls-1" d="m4.34,30.3c-1.6,0-2.9-1.3-2.9-2.9s1.3-2.9,2.9-2.9,2.9,1.3,2.9,2.9-1.3,2.9-2.9,2.9Zm0-4.1c-.66,0-1.2.54-1.2,1.2s.54,1.2,1.2,1.2,1.2-.54,1.2-1.2-.54-1.2-1.2-1.2Z"/>
    <path class="cls-1" d="m8.43,44.64c-1.6,0-2.9-1.3-2.9-2.9s1.3-2.9,2.9-2.9,2.9,1.3,2.9,2.9-1.3,2.9-2.9,2.9Zm0-4.1c-.66,0-1.2.54-1.2,1.2s.54,1.2,1.2,1.2,1.2-.54,1.2-1.2-.54-1.2-1.2-1.2Z"/>
    <path class="cls-1" d="m8.43,15.95c-1.6,0-2.9-1.3-2.9-2.9s1.3-2.9,2.9-2.9,2.9,1.3,2.9,2.9-1.3,2.9-2.9,2.9Zm0-4.1c-.66,0-1.2.54-1.2,1.2s.54,1.2,1.2,1.2,1.2-.54,1.2-1.2-.54-1.2-1.2-1.2Z"/>
    <path class="cls-1" d="m14.39,22.1h-5.96c-.47,0-.85-.38-.85-.85v-6.15c0-.47.38-.85.85-.85s.85.38.85.85v5.3h5.11c.47,0,.85.38.85.85s-.38.85-.85.85Z"/>
    <path class="cls-1" d="m53.52,28.25h-7.31c-.47,0-.85-.38-.85-.85s.38-.85.85-.85h7.31c.47,0,.85.38.85.85s-.38.85-.85.85Z"/>
    <path class="cls-1" d="m43.28,50.79h-6.15c-.47,0-.85-.38-.85-.85v-7.86c0-.47.38-.85.85-.85s.85.38.85.85v7.01h5.3c.47,0,.85.38.85.85s-.38.85-.85.85Z"/>
    <path class="cls-1" d="m14.39,28.25H6.39c-.47,0-.85-.38-.85-.85s.38-.85.85-.85h8c.47,0,.85.38.85.85s-.38.85-.85.85Z"/>
    <path class="cls-1" d="m29.96,52.84c-.47,0-.85-.38-.85-.85v-10.25c0-.47.38-.85.85-.85s.85.38.85.85v10.25c0,.47-.38.85-.85.85Z"/>
    <path class="cls-1" d="m8.43,40.54c-.47,0-.85-.38-.85-.85v-6.15c0-.47.38-.85.85-.85h7.21c.47,0,.85.38.85.85s-.38.85-.85.85h-6.36v5.3c0,.47-.38.85-.85.85Z"/>
    <path class="cls-1" d="m22.78,50.79h-6.15c-.47,0-.85-.38-.85-.85s.38-.85.85-.85h5.3v-7.01c0-.47.38-.85.85-.85s.85.38.85.85v7.86c0,.47-.38.85-.85.85Z"/>
  </g>
</svg>