<?xml version="1.0" encoding="UTF-8"?>
<svg id="Layer_1" data-name="Layer 1" xmlns="http://www.w3.org/2000/svg" viewBox="0 0 60 60">
  <defs>
    <style>
      .cls-1 {
        fill: #37464c;
        stroke-width: 0px;
      }
    </style>
  </defs>
  <g>
    <g>
      <path class="cls-1" d="m50.59,20.76h-10.02v1.06h10.02c1.4,0,2.54,1.14,2.54,2.54v22.71c0,1.4-1.14,2.54-2.54,2.54H11.46c-1.4,0-2.54-1.14-2.54-2.54v-22.71c0-1.4,1.14-2.54,2.54-2.54h11.11v-1.06h-11.11c-1.98,0-3.59,1.61-3.59,3.59v22.71c0,1.98,1.61,3.59,3.59,3.59h39.13c1.98,0,3.59-1.61,3.59-3.59v-22.71c0-1.98-1.61-3.59-3.59-3.59Z"/>
      <path class="cls-1" d="m50.59,51.03H11.46c-2.19,0-3.97-1.78-3.97-3.97v-22.71c0-2.19,1.78-3.97,3.97-3.97h11.49v1.81h-11.49c-1.19,0-2.16.97-2.16,2.16v22.71c0,1.19.97,2.16,2.16,2.16h39.13c1.19,0,2.16-.97,2.16-2.16v-22.71c0-1.19-.97-2.16-2.16-2.16h-10.39v-1.81h10.39c2.19,0,3.97,1.78,3.97,3.97v22.71c0,2.19-1.78,3.97-3.97,3.97ZM11.46,21.14c-1.77,0-3.22,1.44-3.22,3.22v22.71c0,1.78,1.44,3.22,3.22,3.22h39.13c1.77,0,3.22-1.44,3.22-3.22v-22.71c0-1.77-1.44-3.22-3.22-3.22h-9.64v.31h9.64c1.61,0,2.91,1.31,2.91,2.91v22.71c0,1.61-1.31,2.91-2.91,2.91H11.46c-1.61,0-2.91-1.31-2.91-2.91v-22.71c0-1.61,1.31-2.91,2.91-2.91h10.74v-.31h-10.74Z"/>
    </g>
    <g>
      <path class="cls-1" d="m39.43,57.24h-16.82c-.97,0-1.76-.79-1.76-1.76s.79-1.76,1.76-1.76h16.82c.97,0,1.76.79,1.76,1.76s-.79,1.76-1.76,1.76Zm-16.82-2.46c-.39,0-.7.32-.7.7s.31.7.7.7h16.82c.39,0,.7-.32.7-.7s-.31-.7-.7-.7h-16.82Z"/>
      <path class="cls-1" d="m39.43,57.61h-16.82c-1.18,0-2.13-.96-2.13-2.13s.96-2.14,2.13-2.14h16.82c1.18,0,2.13.96,2.13,2.14s-.96,2.13-2.13,2.13Zm-16.82-3.52c-.76,0-1.38.62-1.38,1.39s.62,1.38,1.38,1.38h16.82c.76,0,1.38-.62,1.38-1.38s-.62-1.39-1.38-1.39h-16.82Zm16.82,2.46h-16.82c-.59,0-1.08-.48-1.08-1.08s.48-1.08,1.08-1.08h16.82c.59,0,1.08.48,1.08,1.08s-.48,1.08-1.08,1.08Zm-16.82-1.41c-.18,0-.33.15-.33.33s.15.33.33.33h16.82c.18,0,.33-.15.33-.33s-.15-.33-.33-.33h-16.82Z"/>
    </g>
    <g>
      <path class="cls-1" d="m31.03,54.78c-.29,0-.53-.24-.53-.53v-4.12c0-.29.24-.53.53-.53s.53.24.53.53v4.12c0,.29-.24.53-.53.53Z"/>
      <path class="cls-1" d="m31.03,55.15c-.5,0-.9-.41-.9-.9v-4.12c0-.5.41-.9.9-.9s.9.41.9.9v4.12c0,.5-.41.9-.9.9Zm0-5.18c-.08,0-.15.07-.15.15v4.12c0,.17.31.17.31,0v-4.12c0-.08-.07-.15-.15-.15Z"/>
    </g>
  </g>
  <path class="cls-1" d="m49.04,47.55H12.91c-1.39,0-2.53-1.09-2.53-2.42v-18.83c0-1.34,1.13-2.42,2.53-2.42h10.16v1.6h-10.16c-.51,0-.93.37-.93.82v18.83c0,.45.42.82.93.82h36.13c.51,0,.93-.37.93-.82v-18.83c0-.45-.42-.82-.93-.82h-8.45v-1.6h8.45c1.39,0,2.53,1.09,2.53,2.42v18.83c0,1.34-1.13,2.42-2.53,2.42Z"/>
  <g>
    <path class="cls-1" d="m29.56,7.27c-1.51,0-2.75-1.23-2.75-2.75s1.23-2.75,2.75-2.75,2.75,1.23,2.75,2.75-1.23,2.75-2.75,2.75Zm0-3.99c-.69,0-1.25.56-1.25,1.25s.56,1.25,1.25,1.25,1.25-.56,1.25-1.25-.56-1.25-1.25-1.25Z"/>
    <path class="cls-1" d="m38.21,9.93c-1.51,0-2.75-1.23-2.75-2.75s1.23-2.75,2.75-2.75,2.75,1.23,2.75,2.75-1.23,2.75-2.75,2.75Zm0-3.99c-.69,0-1.25.56-1.25,1.25s.56,1.25,1.25,1.25,1.25-.56,1.25-1.25-.56-1.25-1.25-1.25Z"/>
    <path class="cls-1" d="m42.2,16.59c-1.51,0-2.75-1.23-2.75-2.75s1.23-2.75,2.75-2.75,2.75,1.23,2.75,2.75-1.23,2.75-2.75,2.75Zm0-3.99c-.69,0-1.25.56-1.25,1.25s.56,1.25,1.25,1.25,1.25-.56,1.25-1.25-.56-1.25-1.25-1.25Z"/>
    <path class="cls-1" d="m20.91,15.25c-1.51,0-2.75-1.23-2.75-2.75s1.23-2.75,2.75-2.75,2.75,1.23,2.75,2.75-1.23,2.75-2.75,2.75Zm0-3.99c-.69,0-1.25.56-1.25,1.25s.56,1.25,1.25,1.25,1.25-.56,1.25-1.25-.56-1.25-1.25-1.25Z"/>
    <path class="cls-1" d="m25.57,47.2c-.41,0-.75-.34-.75-.75V13.26h-1.91c-.41,0-.75-.34-.75-.75s.34-.75.75-.75h2.66c.41,0,.75.34.75.75v33.94c0,.41-.34.75-.75.75Z"/>
    <path class="cls-1" d="m33.55,47.2c-.41,0-.75-.34-.75-.75V7.19c0-.41.34-.75.75-.75h2.66c.41,0,.75.34.75.75s-.34.75-.75.75h-1.91v38.51c0,.41-.34.75-.75.75Z"/>
    <path class="cls-1" d="m37.54,47.2c-.41,0-.75-.34-.75-.75V13.84c0-.41.34-.75.75-.75h2.66c.41,0,.75.34.75.75s-.34.75-.75.75h-1.91v31.86c0,.41-.34.75-.75.75Z"/>
    <path class="cls-1" d="m29.56,47.2c-.41,0-.75-.34-.75-.75V6.52c0-.41.34-.75.75-.75s.75.34.75.75v39.93c0,.41-.34.75-.75.75Z"/>
  </g>
</svg>