<?xml version="1.0" encoding="UTF-8"?>
<svg id="Layer_1" data-name="Layer 1" xmlns="http://www.w3.org/2000/svg" viewBox="0 0 60 60">
  <defs>
    <style>
      .cls-1 {
        fill: #37464c;
        stroke-width: 0px;
      }
    </style>
  </defs>
  <rect class="cls-1" x="24" y="46" width="2" height="6"/>
  <path class="cls-1" d="m39,53h-18c-.55,0-1-.45-1-1s.45-1,1-1h18c.55,0,1,.45,1,1s-.45,1-1,1Z"/>
  <rect class="cls-1" x="34" y="46" width="2" height="6"/>
  <path class="cls-1" d="m55,47H5c-1.65,0-3-1.35-3-3V12c0-1.65,1.35-3,3-3h24c.55,0,1,.45,1,1s-.45,1-1,1H5c-.55,0-1,.45-1,1v32c0,.55.45,1,1,1h50c.55,0,1-.45,1-1V12c0-.55-.45-1-1-1h-8c-.55,0-1-.45-1-1s.45-1,1-1h8c1.65,0,3,1.35,3,3v32c0,1.65-1.35,3-3,3Z"/>
  <path class="cls-1" d="m8,40c0-.55.45-1,1-1h0c.55,0,1,.45,1,1h0c0,.55-.45,1-1,1h0c-.55,0-1-.45-1-1Zm0-4c0-.55.45-1,1-1h0c.55,0,1,.45,1,1h0c0,.55-.45,1-1,1h0c-.55,0-1-.45-1-1Zm0-4c0-.55.45-1,1-1h0c.55,0,1,.45,1,1h0c0,.55-.45,1-1,1h0c-.55,0-1-.45-1-1Zm0-4c0-.55.45-1,1-1h0c.55,0,1,.45,1,1h0c0,.55-.45,1-1,1h0c-.55,0-1-.45-1-1Zm0-4c0-.55.45-1,1-1h0c.55,0,1,.45,1,1h0c0,.55-.45,1-1,1h0c-.55,0-1-.45-1-1Zm0-4c0-.55.45-1,1-1h0c.55,0,1,.45,1,1h0c0,.55-.45,1-1,1h0c-.55,0-1-.45-1-1Zm0-4c0-.55.45-1,1-1h0c.55,0,1,.45,1,1h0c0,.55-.45,1-1,1h0c-.55,0-1-.45-1-1Z"/>
  <path class="cls-1" d="m57,41H3c-.55,0-1-.45-1-1s.45-1,1-1h54c.55,0,1,.45,1,1s-.45,1-1,1Z"/>
  <path class="cls-1" d="m53,21h-6c-.55,0-1-.45-1-1s.45-1,1-1h6c.55,0,1,.45,1,1s-.45,1-1,1Z"/>
  <path class="cls-1" d="m53,25h-6c-.55,0-1-.45-1-1s.45-1,1-1h6c.55,0,1,.45,1,1s-.45,1-1,1Z"/>
  <path class="cls-1" d="m53,29h-6c-.55,0-1-.45-1-1s.45-1,1-1h6c.55,0,1,.45,1,1s-.45,1-1,1Z"/>
  <path class="cls-1" d="m21,37c-.55,0-1-.45-1-1v-7h-4v7c0,.55-.45,1-1,1s-1-.45-1-1v-8c0-.55.45-1,1-1h6c.55,0,1,.45,1,1v8c0,.55-.45,1-1,1Z"/>
  <path class="cls-1" d="m41,37c-.55,0-1-.45-1-1V14c0-.55.45-1,1-1h2.26l-5.26-9.02-5.26,9.02h2.26c.55,0,1,.45,1,1v22c0,.55-.45,1-1,1s-1-.45-1-1V15h-3c-.36,0-.69-.19-.87-.5s-.18-.69,0-1l7-12c.36-.61,1.37-.61,1.73,0l7,12c.18.31.18.69,0,1s-.51.5-.87.5h-3v21c0,.55-.45,1-1,1Z"/>
  <path class="cls-1" d="m31,37c-.55,0-1-.45-1-1v-13h-4v13c0,.55-.45,1-1,1s-1-.45-1-1v-14c0-.55.45-1,1-1h6c.55,0,1,.45,1,1v14c0,.55-.45,1-1,1Z"/>
</svg>