<?xml version="1.0" encoding="UTF-8"?>
<svg id="Layer_1" data-name="Layer 1" xmlns="http://www.w3.org/2000/svg" viewBox="0 0 60 60">
  <defs>
    <style>
      .cls-1 {
        fill: #37464c;
        stroke-width: 0px;
      }
    </style>
  </defs>
  <g>
    <rect class="cls-1" x="6.3" y="16.1" width="49.16" height="2"/>
    <path class="cls-1" d="m51.83,14.41c-.53,0-.96-.43-.96-.96s.43-.96.96-.96.96.43.96.96-.43.96-.96.96Zm-.04-.96s.02.04.04.04l-.04-.04Z"/>
    <path class="cls-1" d="m48.18,14.41c-.53,0-.96-.43-.96-.96s.43-.96.96-.96.96.43.96.96-.43.96-.96.96Zm-.04-.96s.02.04.04.04l-.04-.04Z"/>
    <path class="cls-1" d="m44.54,14.41c-.53,0-.96-.43-.96-.96s.43-.96.96-.96.96.43.96.96-.43.96-.96.96Zm-.04-.96s.02.04.04.04l-.04-.04Z"/>
    <path class="cls-1" d="m52.74,45.41h-6.24v-2h6.24c.95,0,1.73-.78,1.73-1.73V12.55c0-.96-.78-1.73-1.73-1.73H9.04c-.96,0-1.73.78-1.73,1.73v29.13c0,.96.78,1.73,1.73,1.73h25.74v2H9.04c-2.06,0-3.73-1.67-3.73-3.73V12.55c0-2.06,1.67-3.73,3.73-3.73h43.7c2.06,0,3.73,1.67,3.73,3.73v29.13c0,2.06-1.67,3.73-3.73,3.73Z"/>
  </g>
  <path class="cls-1" d="m46.94,53.38h0c-.27,0-.52-.11-.71-.29l-5.73-5.73-2.05,4.79c-.16.38-.52.63-.94.61-.41,0-.77-.27-.91-.65l-7.53-20.07c-.14-.37-.05-.78.23-1.06.28-.28.69-.37,1.06-.23l20.07,7.53c.38.14.64.5.65.91,0,.41-.23.78-.61.94l-4.79,2.05,5.73,5.73c.39.39.39,1.02,0,1.41l-3.76,3.76c-.19.19-.44.29-.71.29Zm-6.77-8.78c.26,0,.52.1.71.29l6.07,6.07,2.35-2.35-6.07-6.07c-.23-.23-.34-.57-.28-.9.06-.33.28-.6.59-.73l3.86-1.65-15.68-5.88,5.88,15.68,1.65-3.86c.13-.31.4-.53.73-.59.06-.01.13-.02.19-.02Z"/>
  <path class="cls-1" d="m28.23,40.23c-.13,0-.26-.03-.38-.09-2.33-1.24-3.92-3.62-4.24-6.36-.32-2.74.67-5.43,2.66-7.18,2-1.77,4.69-2.4,7.38-1.74,2.71.67,4.9,2.56,5.86,5.08.16.41-.05.88-.46,1.03-.41.16-.88-.05-1.03-.46-.78-2.03-2.55-3.56-4.75-4.1-2.17-.53-4.33-.03-5.94,1.38-1.59,1.41-2.39,3.58-2.13,5.8.26,2.22,1.53,4.14,3.4,5.13.39.21.54.69.33,1.08-.14.27-.42.42-.71.42Z"/>
</svg>