<?xml version="1.0" encoding="UTF-8"?>
<svg id="Layer_1" data-name="Layer 1" xmlns="http://www.w3.org/2000/svg" viewBox="0 0 60 60">
  <defs>
    <style>
      .cls-1 {
        fill: #37464c;
        stroke-width: 0px;
      }
    </style>
  </defs>
  <path class="cls-1" d="m54,49H6c-2.21,0-4-1.79-4-4V15c0-2.21,1.79-4,4-4h22c.55,0,1,.45,1,1s-.45,1-1,1H6c-1.1,0-2,.9-2,2v30c0,1.1.9,2,2,2h48c1.1,0,2-.9,2-2V15c0-1.1-.9-2-2-2h-2c-.55,0-1-.45-1-1s.45-1,1-1h2c2.21,0,4,1.79,4,4v30c0,2.21-1.79,4-4,4Z"/>
  <path class="cls-1" d="m18.01,31c-.32,0-.64-.02-.96-.07-2.54-.39-4.59-2.45-4.98-4.99-.29-1.93.32-3.82,1.69-5.18s3.26-1.98,5.19-1.68c2.54.39,4.59,2.45,4.98,4.99.29,1.93-.32,3.82-1.69,5.18-1.14,1.14-2.64,1.75-4.23,1.75Zm0-10c-1.06,0-2.06.41-2.83,1.17-.91.91-1.32,2.17-1.13,3.47.25,1.66,1.64,3.06,3.31,3.32,1.29.2,2.56-.21,3.47-1.12s1.32-2.17,1.13-3.47h0c-.25-1.66-1.64-3.06-3.31-3.32-.22-.03-.43-.05-.64-.05Z"/>
  <path class="cls-1" d="m27,43c-.55,0-1-.45-1-1v-5.29c0-1.23-.74-2.33-1.89-2.79l-1.87-.75-3.53,3.53c-.39.39-1.02.39-1.41,0l-3.53-3.53-1.87.75c-1.15.46-1.89,1.55-1.89,2.79v5.29c0,.55-.45,1-1,1s-1-.45-1-1v-5.29c0-2.06,1.23-3.88,3.14-4.64l2.48-.99c.37-.15.8-.06,1.08.22l3.29,3.29,3.29-3.29c.28-.28.71-.37,1.08-.22l2.49.99c1.91.76,3.14,2.59,3.14,4.64v5.29c0,.55-.45,1-1,1Z"/>
  <path class="cls-1" d="m57,43H3c-.55,0-1-.45-1-1s.45-1,1-1h54c.55,0,1,.45,1,1s-.45,1-1,1Z"/>
  <path class="cls-1" d="m40,31h-13c-.4,0-.77-.24-.92-.62s-.07-.8.22-1.09l3.12-3.13c-2.21-2.54-3.42-5.76-3.42-9.17,0-3.84,1.52-7.42,4.29-10.09,2.77-2.66,6.4-4.05,10.25-3.9,7.26.28,13.17,6.18,13.44,13.45.15,3.85-1.24,7.49-3.9,10.25-2.66,2.77-6.25,4.29-10.09,4.29Zm-10.59-2h10.59c3.29,0,6.36-1.31,8.65-3.68,2.28-2.37,3.47-5.49,3.34-8.79-.23-6.12-5.4-11.29-11.52-11.52-3.29-.13-6.42,1.06-8.79,3.34-2.37,2.28-3.68,5.35-3.68,8.65s1.25,6.22,3.51,8.48c.39.39.39,1.02,0,1.41l-2.1,2.1Z"/>
  <path class="cls-1" d="m45,15h-10c-.55,0-1-.45-1-1s.45-1,1-1h10c.55,0,1,.45,1,1s-.45,1-1,1Z"/>
  <path class="cls-1" d="m45,21h-10c-.55,0-1-.45-1-1s.45-1,1-1h10c.55,0,1,.45,1,1s-.45,1-1,1Z"/>
  <path class="cls-1" d="m23,43c-.55,0-1-.45-1-1v-4c0-.55.45-1,1-1s1,.45,1,1v4c0,.55-.45,1-1,1Z"/>
  <path class="cls-1" d="m13,43c-.55,0-1-.45-1-1v-4c0-.55.45-1,1-1s1,.45,1,1v4c0,.55-.45,1-1,1Z"/>
  <rect class="cls-1" x="21.46" y="50" width="6.08" height="2" transform="translate(-29.84 66.77) rotate(-80.53)"/>
  <path class="cls-1" d="m39,55h-18c-.55,0-1-.45-1-1s.45-1,1-1h18c.55,0,1,.45,1,1s-.45,1-1,1Z"/>
  <rect class="cls-1" x="34.5" y="47.96" width="2" height="6.08" transform="translate(-7.9 6.53) rotate(-9.46)"/>
</svg>