<?xml version="1.0" encoding="UTF-8"?>
<svg id="Layer_1" data-name="Layer 1" xmlns="http://www.w3.org/2000/svg" viewBox="0 0 60 60">
  <defs>
    <style>
      .cls-1 {
        fill: #37464c;
        stroke-width: 0px;
      }
    </style>
  </defs>
  <path class="cls-1" d="m47.08,18.79H3.08c-.55,0-1-.45-1-1s.45-1,1-1h44c.55,0,1,.45,1,1s-.45,1-1,1Z"/>
  <path class="cls-1" d="m41.08,24.79h-8c-.55,0-1-.45-1-1s.45-1,1-1h8c.55,0,1,.45,1,1s-.45,1-1,1Zm-12,0h-14c-.55,0-1-.45-1-1s.45-1,1-1h14c.55,0,1,.45,1,1s-.45,1-1,1Zm-18,0h-2c-.55,0-1-.45-1-1s.45-1,1-1h2c.55,0,1,.45,1,1s-.45,1-1,1Z"/>
  <path class="cls-1" d="m41.08,32.79h-8c-.55,0-1-.45-1-1s.45-1,1-1h8c.55,0,1,.45,1,1s-.45,1-1,1Zm-12,0h-14c-.55,0-1-.45-1-1s.45-1,1-1h14c.55,0,1,.45,1,1s-.45,1-1,1Zm-18,0h-2c-.55,0-1-.45-1-1s.45-1,1-1h2c.55,0,1,.45,1,1s-.45,1-1,1Z"/>
  <path class="cls-1" d="m45.08,28.79h-2c-.55,0-1-.45-1-1s.45-1,1-1h2c.55,0,1,.45,1,1s-.45,1-1,1Zm-6,0h-14c-.55,0-1-.45-1-1s.45-1,1-1h14c.55,0,1,.45,1,1s-.45,1-1,1Zm-18,0h-8c-.55,0-1-.45-1-1s.45-1,1-1h8c.55,0,1,.45,1,1s-.45,1-1,1Z"/>
  <path class="cls-1" d="m45.08,40.79h-2c-.55,0-1-.45-1-1s.45-1,1-1h2c.55,0,1,.45,1,1s-.45,1-1,1Zm-6,0h-6c-.55,0-1-.45-1-1s.45-1,1-1h6c.55,0,1,.45,1,1s-.45,1-1,1Zm-10,0h-14c-.55,0-1-.45-1-1s.45-1,1-1h14c.55,0,1,.45,1,1s-.45,1-1,1Zm-18,0h-2c-.55,0-1-.45-1-1s.45-1,1-1h2c.55,0,1,.45,1,1s-.45,1-1,1Z"/>
  <path class="cls-1" d="m45.08,36.79h-6c-.55,0-1-.45-1-1s.45-1,1-1h6c.55,0,1,.45,1,1s-.45,1-1,1Zm-10,0h-4c-.55,0-1-.45-1-1s.45-1,1-1h4c.55,0,1,.45,1,1s-.45,1-1,1Zm-8,0h-8c-.55,0-1-.45-1-1s.45-1,1-1h8c.55,0,1,.45,1,1s-.45,1-1,1Zm-12,0h-6c-.55,0-1-.45-1-1s.45-1,1-1h6c.55,0,1,.45,1,1s-.45,1-1,1Z"/>
  <path class="cls-1" d="m7.08,14.79c-.26,0-.52-.11-.71-.29-.18-.19-.29-.45-.29-.71s.11-.52.29-.71c.37-.37,1.05-.37,1.42,0,.18.19.29.44.29.71s-.11.52-.29.71c-.19.18-.45.29-.71.29Z"/>
  <path class="cls-1" d="m11.08,14.79c-.13,0-.26-.03-.38-.08-.13-.05-.23-.12-.33-.21-.18-.19-.29-.45-.29-.71s.11-.52.29-.71c.1-.09.2-.16.33-.21.37-.16.81-.07,1.09.21.18.19.29.44.29.71s-.11.52-.29.71c-.05.04-.1.08-.16.12-.05.04-.11.07-.17.09-.06.03-.12.05-.19.06-.06,0-.12.02-.19.02Z"/>
  <path class="cls-1" d="m15.08,14.79c-.06,0-.13-.01-.19-.02-.07-.01-.13-.03-.19-.06-.06-.02-.12-.05-.18-.09-.05-.04-.1-.08-.15-.12-.18-.19-.29-.45-.29-.71s.11-.52.29-.71c.05-.05.1-.09.15-.12.06-.04.12-.07.18-.09.06-.03.12-.05.19-.06.32-.07.67.04.9.27.18.19.29.44.29.71s-.11.52-.29.71c-.19.18-.45.29-.71.29Z"/>
  <path class="cls-1" d="m47.08,46.79H7.08c-2.76,0-5-2.24-5-5V13.79c0-2.76,2.24-5,5-5h40c2.76,0,5,2.24,5,5v28c0,2.76-2.24,5-5,5ZM7.08,10.79c-1.65,0-3,1.35-3,3v28c0,1.65,1.35,3,3,3h40c1.65,0,3-1.35,3-3V13.79c0-1.65-1.35-3-3-3H7.08Z"/>
  <path class="cls-1" d="m53.08,52.79H13.08c-2.76,0-5-2.24-5-5v-2h2v2c0,1.65,1.35,3,3,3h40c1.65,0,3-1.35,3-3v-28c0-1.65-1.35-3-3-3h-2v-2h2c2.76,0,5,2.24,5,5v28c0,2.76-2.24,5-5,5Z"/>
</svg>