<?xml version="1.0" encoding="UTF-8"?>
<svg id="Layer_1" data-name="Layer 1" xmlns="http://www.w3.org/2000/svg" viewBox="0 0 60 60">
  <defs>
    <style>
      .cls-1 {
        fill: #37464c;
        stroke-width: 0px;
      }
    </style>
  </defs>
  <path class="cls-1" d="m24.5,57.87c-.05,0-.11,0-.17-.01-.54-.09-.91-.61-.82-1.15l1-6c.09-.54.6-.91,1.15-.82.54.09.91.61.82,1.15l-1,6c-.08.49-.51.84-.99.84Z"/>
  <path class="cls-1" d="m39.5,57.87h-18c-.55,0-1-.45-1-1s.45-1,1-1h18c.55,0,1,.45,1,1s-.45,1-1,1Z"/>
  <path class="cls-1" d="m36.5,57.87c-.48,0-.9-.35-.99-.84l-1-6c-.09-.54.28-1.06.82-1.15.55-.09,1.06.28,1.15.82l1,6c.09.54-.28,1.06-.82,1.15-.06,0-.11.01-.17.01Z"/>
  <rect class="cls-1" x="3.5" y="43.87" width="54" height="2"/>
  <path class="cls-1" d="m54.5,51.87H6.5c-2.21,0-4-1.79-4-4V15.87c0-2.21,1.79-4,4-4h21c.55,0,1,.45,1,1s-.45,1-1,1H6.5c-1.1,0-2,.9-2,2v32c0,1.1.9,2,2,2h48c1.1,0,2-.9,2-2V15.87c0-1.1-.9-2-2-2h-1c-.55,0-1-.45-1-1s.45-1,1-1h1c2.21,0,4,1.79,4,4v32c0,2.21-1.79,4-4,4Z"/>
  <path class="cls-1" d="m15.5,19.87h-6c-.55,0-1-.45-1-1s.45-1,1-1h6c.55,0,1,.45,1,1s-.45,1-1,1Z"/>
  <path class="cls-1" d="m13.5,23.87h-4c-.55,0-1-.45-1-1s.45-1,1-1h4c.55,0,1,.45,1,1s-.45,1-1,1Z"/>
  <path class="cls-1" d="m43.5,41.87c-.55,0-1-.45-1-1v-12c0-.55.45-1,1-1s1,.45,1,1v12c0,.55-.45,1-1,1Z"/>
  <path class="cls-1" d="m47.5,41.87c-.55,0-1-.45-1-1v-12c0-.55.45-1,1-1s1,.45,1,1v12c0,.55-.45,1-1,1Z"/>
  <path class="cls-1" d="m39.5,41.87c-.55,0-1-.45-1-1v-12c0-.55.45-1,1-1s1,.45,1,1v12c0,.55-.45,1-1,1Z"/>
  <path class="cls-1" d="m11.5,41.87c-.55,0-1-.45-1-1v-9c0-.55.45-1,1-1s1,.45,1,1v9c0,.55-.45,1-1,1Z"/>
  <path class="cls-1" d="m31.5,41.87c-.55,0-1-.45-1-1v-15c0-.55.45-1,1-1s1,.45,1,1v15c0,.55-.45,1-1,1Z"/>
  <path class="cls-1" d="m35.5,41.87c-.55,0-1-.45-1-1v-13c0-.55.45-1,1-1s1,.45,1,1v13c0,.55-.45,1-1,1Z"/>
  <path class="cls-1" d="m23.5,41.87c-.55,0-1-.45-1-1v-20c0-.55.45-1,1-1s1,.45,1,1v20c0,.55-.45,1-1,1Z"/>
  <path class="cls-1" d="m19.5,41.87c-.55,0-1-.45-1-1v-16c0-.55.45-1,1-1s1,.45,1,1v16c0,.55-.45,1-1,1Z"/>
  <path class="cls-1" d="m27.5,41.87c-.55,0-1-.45-1-1v-22c0-.55.45-1,1-1s1,.45,1,1v22c0,.55-.45,1-1,1Z"/>
  <path class="cls-1" d="m15.5,41.87c-.55,0-1-.45-1-1v-12c0-.55.45-1,1-1s1,.45,1,1v12c0,.55-.45,1-1,1Z"/>
  <path class="cls-1" d="m40.5,25.87c-5.51,0-10-4.49-10-10s4.49-10,10-10,10,4.49,10,10-4.49,10-10,10Zm0-18c-4.41,0-8,3.59-8,8s3.59,8,8,8,8-3.59,8-8-3.59-8-8-8Z"/>
  <path class="cls-1" d="m53.5,29.87c-.26,0-.51-.1-.71-.29l-6.63-6.63c-.39-.39-.39-1.02,0-1.41s1.02-.39,1.41,0l6.63,6.63c.39.39.39,1.02,0,1.41-.2.2-.45.29-.71.29Z"/>
</svg>