<?xml version="1.0" encoding="UTF-8"?>
<svg id="Layer_1" data-name="Layer 1" xmlns="http://www.w3.org/2000/svg" viewBox="0 0 60 60">
  <defs>
    <style>
      .cls-1 {
        fill: #37464c;
        stroke-width: 0px;
      }
    </style>
  </defs>
  <g>
    <path class="cls-1" d="m51.12,15.41H5.12c-.55,0-1-.45-1-1s.45-1,1-1h46c.55,0,1,.45,1,1s-.45,1-1,1Z"/>
    <path class="cls-1" d="m9.12,11.41c-.27,0-.52-.11-.71-.3-.09-.09-.17-.2-.22-.32-.05-.12-.07-.25-.07-.38s.02-.26.08-.38c.05-.13.12-.23.21-.33.1-.09.2-.16.33-.21.24-.11.52-.1.76,0,.13.05.23.12.33.21.09.09.16.2.21.33.05.12.08.25.08.38s-.03.26-.08.38-.12.23-.21.32c-.19.19-.44.3-.71.3Z"/>
    <path class="cls-1" d="m13.12,11.41c-.13,0-.26-.03-.38-.08s-.23-.12-.33-.21c-.09-.1-.16-.21-.21-.33s-.08-.25-.08-.38.03-.26.08-.38c.05-.12.12-.23.21-.33.05-.04.1-.09.15-.12.06-.04.12-.07.18-.09.06-.03.12-.05.19-.06.32-.07.66.04.9.27.09.1.16.21.21.33.05.12.08.25.08.38,0,.27-.1.52-.29.71-.1.09-.21.16-.33.21s-.25.08-.38.08Z"/>
    <path class="cls-1" d="m17.12,11.41c-.13,0-.26-.03-.38-.08s-.23-.12-.33-.21c-.09-.1-.16-.21-.22-.33-.05-.12-.07-.25-.07-.38s.02-.26.08-.38c.05-.13.12-.23.21-.33.1-.09.2-.16.33-.21.24-.1.52-.11.76,0,.13.05.23.12.33.21.09.1.16.2.21.33.06.12.08.25.08.38,0,.26-.1.51-.29.71-.1.09-.21.16-.33.21s-.25.08-.38.08Z"/>
    <path class="cls-1" d="m51.12,49.41h-.94c-.55,0-1-.45-1-1s.45-1,1-1h.94c1.65,0,3-1.35,3-3V10.41c0-1.65-1.35-3-3-3H9.12c-1.65,0-3,1.35-3,3v34c0,1.65,1.35,3,3,3h7.63c.55,0,1,.45,1,1s-.45,1-1,1h-7.63c-2.76,0-5-2.24-5-5V10.41c0-2.76,2.24-5,5-5h42c2.76,0,5,2.24,5,5v34c0,2.76-2.24,5-5,5Z"/>
  </g>
  <g>
    <path class="cls-1" d="m28.68,38.77s-.04,0-.05,0c-.44-.03-.77-.41-.74-.85.2-2.96,2.78-5.22,5.73-5,.44.03.77.41.74.85-.03.44-.44.78-.85.74-2.1-.15-3.88,1.43-4.02,3.51-.03.42-.38.75-.8.75Z"/>
    <path class="cls-1" d="m35.14,55.58c-.31,0-.59-.17-.72-.46l-1.2-2.55c-.32,0-.63-.01-.94-.03-.31-.02-.62-.05-.94-.09l-1.53,2.36c-.2.31-.58.44-.93.32l-2.51-.86c-.35-.12-.57-.46-.54-.82l.24-2.81c-.53-.31-1.05-.66-1.55-1.05l-2.52,1.29c-.32.17-.72.09-.97-.19l-1.74-2c-.24-.28-.26-.68-.05-.98l1.62-2.32c-.31-.54-.59-1.1-.83-1.68l-2.82-.14c-.37-.02-.67-.28-.74-.64l-.51-2.6c-.07-.36.11-.72.45-.88l2.55-1.2c0-.32.01-.63.03-.94.02-.31.05-.62.09-.94l-2.36-1.53c-.31-.2-.44-.58-.32-.93l.86-2.51c.12-.35.47-.57.82-.54l2.81.24c.31-.54.66-1.05,1.05-1.55l-1.29-2.52c-.17-.33-.09-.73.19-.97l2-1.74c.28-.24.68-.26.98-.05l2.32,1.62c.54-.31,1.1-.59,1.68-.83l.14-2.82c.02-.37.28-.67.64-.74l2.6-.51c.36-.07.72.11.88.45l1.2,2.55c.31,0,.63.01.94.03s.62.05.94.09l1.53-2.36c.2-.31.58-.44.93-.32l2.51.86c.35.12.57.46.54.82l-.24,2.81c.54.31,1.06.66,1.55,1.05l2.52-1.29c.33-.17.72-.09.97.19l1.74,2c.24.28.26.68.05.98l-1.62,2.32c.31.54.59,1.1.83,1.68l2.82.14c.37.02.67.28.75.64l.51,2.6c.07.36-.11.72-.45.88l-2.55,1.2c0,.31-.01.63-.03.94-.02.32-.05.63-.09.94l2.36,1.53c.31.2.44.58.32.93l-.86,2.51c-.12.35-.46.57-.82.54l-3.33-.28c-.44-.04-.77-.42-.73-.86.04-.44.43-.77.86-.73l2.71.23.45-1.33-2.27-1.47c-.27-.17-.41-.49-.35-.81.07-.42.12-.86.16-1.3.03-.44.04-.88.02-1.31-.01-.32.17-.62.46-.75l2.45-1.15-.27-1.37-2.71-.14c-.32-.02-.6-.22-.71-.52-.3-.8-.69-1.59-1.15-2.33-.17-.27-.16-.62.02-.88l1.55-2.23-.92-1.05-2.42,1.24c-.29.15-.63.11-.88-.1-.67-.56-1.4-1.05-2.16-1.46-.28-.15-.45-.46-.42-.77l.23-2.71-1.33-.45-1.47,2.27c-.17.27-.49.4-.81.35-.43-.07-.87-.13-1.3-.16-.43-.03-.87-.03-1.31-.02-.32,0-.62-.17-.75-.46l-1.15-2.45-1.37.27-.14,2.71c-.02.32-.22.6-.52.71-.8.3-1.59.69-2.33,1.15-.27.17-.62.16-.88-.02l-2.23-1.55-1.05.92,1.24,2.42c.15.29.11.63-.1.88-.56.67-1.05,1.4-1.46,2.16-.15.28-.45.45-.77.42l-2.71-.23-.45,1.33,2.27,1.47c.27.17.41.49.35.81-.07.43-.13.87-.16,1.3-.03.43-.04.87-.02,1.31.01.32-.17.62-.46.75l-2.45,1.15.27,1.37,2.71.14c.32.02.6.22.71.52.3.81.68,1.59,1.15,2.33.17.27.16.62-.02.88l-1.55,2.23.92,1.05,2.42-1.24c.29-.15.63-.11.88.1.68.56,1.4,1.05,2.16,1.46.28.15.45.46.42.77l-.23,2.71,1.33.45,1.47-2.27c.17-.27.49-.4.81-.35.43.07.87.13,1.3.16.43.03.87.04,1.31.02.34,0,.62.17.75.46l1.15,2.45,1.37-.27.14-2.71c.02-.44.42-.79.84-.76.44.02.78.4.76.84l-.17,3.34c-.02.37-.28.67-.64.75l-2.6.51c-.05,0-.1.01-.15.01Z"/>
    <path class="cls-1" d="m33.25,47.58c-.21,0-.42,0-.63-.02-5.11-.35-8.99-4.79-8.65-9.9.35-5.12,4.81-8.99,9.9-8.65,2.48.17,4.74,1.29,6.38,3.16,1.63,1.87,2.44,4.26,2.27,6.74h0c-.33,4.9-4.43,8.67-9.27,8.67Zm-.02-16.99c-1.86,0-3.64.66-5.05,1.9-1.55,1.35-2.48,3.23-2.62,5.28-.14,2.05.53,4.03,1.88,5.58,1.35,1.55,3.23,2.48,5.28,2.62,4.24.28,7.91-2.92,8.2-7.16.14-2.05-.53-4.03-1.88-5.58-1.35-1.55-3.23-2.48-5.28-2.62-.18-.01-.36-.02-.53-.02Z"/>
    <path class="cls-1" d="m46.29,56.53c-.09,0-.17,0-.26,0-.21-.01-.4-.11-.54-.26l-6.77-7.58,1.19-1.07,6.54,7.32c.45-.03.88-.2,1.22-.5.33-.29.56-.66.66-1.08l-6.53-7.3,1.19-1.07,6.77,7.58c.14.16.22.37.2.59-.07.97-.51,1.86-1.26,2.5-.68.58-1.53.89-2.41.89Z"/>
    <rect class="cls-1" x="42.1" y="41.65" width="1.6" height="8.81" transform="translate(-19.76 40.14) rotate(-41.64)"/>
    <rect class="cls-1" x="40.45" y="44.25" width="1.6" height="12.05" transform="translate(-22.98 40.08) rotate(-41.62)"/>
  </g>
</svg>