<?xml version="1.0" encoding="UTF-8"?>
<svg id="Layer_1" data-name="Layer 1" xmlns="http://www.w3.org/2000/svg" viewBox="0 0 60 60">
  <defs>
    <style>
      .cls-1 {
        fill: #37464c;
        stroke-width: 0px;
      }
    </style>
  </defs>
  <path class="cls-1" d="m24,53.44c-.05,0-.11,0-.17-.01-.54-.09-.91-.61-.82-1.15l1-6c.09-.54.61-.91,1.15-.82.54.09.91.61.82,1.15l-1,6c-.08.49-.51.84-.99.84Z"/>
  <path class="cls-1" d="m39,53.44h-18c-.55,0-1-.45-1-1s.45-1,1-1h18c.55,0,1,.45,1,1s-.45,1-1,1Z"/>
  <path class="cls-1" d="m36,53.44c-.48,0-.9-.35-.99-.84l-1-6c-.09-.54.28-1.06.82-1.15.55-.09,1.06.28,1.15.82l1,6c.09.54-.28,1.06-.82,1.15-.06,0-.11.01-.17.01Z"/>
  <path class="cls-1" d="m53,47.44H7c-1.65,0-3-1.35-3-3V12.44c0-1.65,1.35-3,3-3h46c1.65,0,3,1.35,3,3v32c0,1.65-1.35,3-3,3ZM7,11.44c-.55,0-1,.45-1,1v32c0,.55.45,1,1,1h46c.55,0,1-.45,1-1V12.44c0-.55-.45-1-1-1H7Z"/>
  <rect class="cls-1" x="5" y="37.44" width="50" height="2"/>
  <path class="cls-1" d="m32,43.44h-4c-.55,0-1-.45-1-1s.45-1,1-1h4c.55,0,1,.45,1,1s-.45,1-1,1Z"/>
  <path class="cls-1" d="m42,33.44s-.02,0-.02,0c-.45-.01-.84-.32-.95-.76l-3.12-12.47-1.95,6.51c-.13.42-.52.71-.96.71h-14c-.55,0-1-.45-1-1s.45-1,1-1h13.26l2.79-9.29c.13-.43.52-.75.98-.71.45.01.84.32.95.76l3.12,12.47,1.95-6.51c.12-.39.46-.67.87-.71.41-.04.8.18.98.55l1.72,3.45h3.38c.55,0,1,.45,1,1s-.45,1-1,1h-4c-.38,0-.73-.21-.89-.55l-.87-1.74-2.28,7.58c-.13.42-.52.71-.96.71Z"/>
  <path class="cls-1" d="m20,35.44c-.25,0-.51-.1-.7-.29l-9.24-9.11c-2.72-2.89-2.72-7.55-.03-10.42,1.32-1.41,3.09-2.18,4.97-2.18s3.65.78,4.97,2.18c0,.01.02.02.03.03.01-.01.02-.02.03-.03,1.32-1.41,3.09-2.18,4.97-2.18s3.65.78,4.97,2.18c2.7,2.87,2.7,7.53,0,10.39l-1.15,1.14c-.39.39-1.03.38-1.41-.01-.39-.39-.38-1.03.01-1.41l1.13-1.11c1.96-2.08,1.96-5.51-.03-7.62-.94-1-2.19-1.55-3.51-1.55s-2.57.55-3.51,1.55c-.24.25-.45.53-.64.83-.37.59-1.33.59-1.7,0-.19-.3-.4-.58-.64-.83-.94-1-2.19-1.55-3.51-1.55s-2.57.55-3.51,1.55c-1.98,2.11-1.98,5.54,0,7.65l8.51,8.39,3.36-3.31c.39-.39,1.03-.38,1.41.01.39.39.38,1.03-.01,1.41l-4.06,4c-.19.19-.45.29-.7.29Z"/>
</svg>