<?xml version="1.0" encoding="UTF-8"?>
<svg id="Layer_1" data-name="Layer 1" xmlns="http://www.w3.org/2000/svg" viewBox="0 0 60 60">
  <defs>
    <style>
      .cls-1 {
        fill: #37464c;
        stroke-width: 0px;
      }
    </style>
  </defs>
  <g>
    <path class="cls-1" d="m48.97,44.54H10.66c-.34,0-.62-.28-.62-.62V11.3c0-3.47,2.83-6.3,6.3-6.3h26.94c3.47,0,6.3,2.83,6.3,6.3v32.62c0,.34-.28.62-.62.62Zm-37.69-1.23h37.07V11.3c0-2.79-2.27-5.07-5.07-5.07h-26.94c-2.79,0-5.07,2.27-5.07,5.07v32Z"/>
    <path class="cls-1" d="m48.97,44.91H10.66c-.55,0-.99-.44-.99-.99V11.3c0-3.68,3-6.68,6.68-6.68h26.94c3.68,0,6.68,3,6.68,6.68v32.62c0,.55-.44.99-.99.99ZM16.35,5.38c-3.27,0-5.93,2.66-5.93,5.93v32.62c0,.13.11.24.24.24h38.31c.13,0,.24-.11.24-.24V11.3c0-3.27-2.66-5.93-5.93-5.93h-26.94Zm32.38,38.31H10.9V11.3c0-3,2.44-5.44,5.44-5.44h26.94c3,0,5.44,2.44,5.44,5.44v32.38Zm-37.07-.75h36.32V11.3c0-2.59-2.11-4.69-4.69-4.69h-26.94c-2.59,0-4.69,2.11-4.69,4.69v31.63Z"/>
  </g>
  <g>
    <path class="cls-1" d="m48.97,30.23H10.66c-.34,0-.62-.28-.62-.62v-12.93c0-.34.28-.62.62-.62h38.31c.34,0,.62.28.62.62v12.93c0,.34-.28.62-.62.62Zm-37.69-1.23h37.07v-11.7H11.28v11.7Z"/>
    <path class="cls-1" d="m48.97,30.6H10.66c-.55,0-.99-.44-.99-.99v-12.93c0-.55.45-.99.99-.99h38.31c.55,0,.99.44.99.99v12.93c0,.55-.44.99-.99.99ZM10.66,16.44c-.13,0-.24.11-.24.24v12.93c0,.13.11.24.24.24h38.31c.13,0,.24-.11.24-.24v-12.93c0-.13-.11-.24-.24-.24H10.66Zm38.06,12.93H10.9v-12.45h37.82v12.45Zm-37.07-.75h36.32v-10.95H11.65v10.95Z"/>
  </g>
  <g>
    <path class="cls-1" d="m36.86,39.61h-14.1c-.34,0-.62-.28-.62-.62v-2.8c0-.34.28-.62.62-.62h14.1c.34,0,.62.28.62.62v2.8c0,.34-.28.62-.62.62Zm-13.48-1.23h12.87v-1.56h-12.87v1.56Z"/>
    <path class="cls-1" d="m36.86,39.98h-14.1c-.55,0-.99-.45-.99-.99v-2.8c0-.55.44-.99.99-.99h14.1c.55,0,.99.44.99.99v2.8c0,.55-.45.99-.99.99Zm-14.1-4.03c-.13,0-.24.11-.24.24v2.8c0,.13.11.24.24.24h14.1c.13,0,.24-.11.24-.24v-2.8c0-.13-.11-.24-.24-.24h-14.1Zm13.86,2.8h-13.62v-2.31h13.62v2.31Zm-12.87-.75h12.12v-.81h-12.12v.81Z"/>
  </g>
  <g>
    <path class="cls-1" d="m47.65,49.47H11.98c-1.31,0-2.38-1.07-2.38-2.38v-1.27c0-1.31,1.07-2.38,2.38-2.38h35.67c1.31,0,2.38,1.07,2.38,2.38v1.27c0,1.31-1.07,2.38-2.38,2.38Zm-35.67-4.8c-.63,0-1.15.52-1.15,1.15v1.27c0,.63.52,1.15,1.15,1.15h35.67c.63,0,1.15-.52,1.15-1.15v-1.27c0-.63-.52-1.15-1.15-1.15H11.98Z"/>
    <path class="cls-1" d="m47.65,49.85H11.98c-1.52,0-2.76-1.24-2.76-2.76v-1.27c0-1.52,1.24-2.76,2.76-2.76h35.67c1.52,0,2.76,1.24,2.76,2.76v1.27c0,1.52-1.24,2.76-2.76,2.76Zm-35.67-6.03c-1.11,0-2.01.9-2.01,2.01v1.27c0,1.11.9,2.01,2.01,2.01h35.67c1.11,0,2.01-.9,2.01-2.01v-1.27c0-1.11-.9-2.01-2.01-2.01H11.98Zm35.67,4.8H11.98c-.84,0-1.53-.68-1.53-1.53v-1.27c0-.84.68-1.53,1.53-1.53h35.67c.84,0,1.53.68,1.53,1.53v1.27c0,.84-.68,1.53-1.53,1.53Zm-35.67-3.57c-.43,0-.78.35-.78.78v1.27c0,.43.35.78.78.78h35.67c.43,0,.78-.35.78-.78v-1.27c0-.43-.35-.78-.78-.78H11.98Z"/>
  </g>
  <g>
    <path class="cls-1" d="m44.49,14.5H15.14c-.34,0-.62-.28-.62-.62v-5.11c0-.34.28-.62.62-.62h29.36c.34,0,.62.28.62.62v5.11c0,.34-.28.62-.62.62Zm-28.74-1.23h28.12v-3.88H15.75v3.88Z"/>
    <path class="cls-1" d="m44.49,14.87H15.14c-.55,0-.99-.44-.99-.99v-5.11c0-.55.45-.99.99-.99h29.36c.55,0,.99.44.99.99v5.11c0,.55-.44.99-.99.99Zm-29.36-6.35c-.13,0-.24.11-.24.24v5.11c0,.13.11.24.24.24h29.36c.13,0,.24-.11.24-.24v-5.11c0-.13-.11-.24-.24-.24H15.14Zm29.11,5.11H15.38v-4.63h28.87v4.63Zm-28.12-.75h27.37v-3.13h-27.37v3.13Z"/>
  </g>
  <g>
    <g>
      <path class="cls-1" d="m18.18,56.14h-4.6c-.96,0-1.73-.78-1.73-1.73v-5.55c0-.34.28-.62.62-.62h6.83c.34,0,.62.28.62.62v5.55c0,.96-.78,1.73-1.73,1.73Zm-5.1-6.67v4.93c0,.28.22.5.5.5h4.6c.28,0,.5-.22.5-.5v-4.93h-5.6Z"/>
      <path class="cls-1" d="m18.18,56.51h-4.6c-1.16,0-2.11-.95-2.11-2.11v-5.55c0-.55.44-.99.99-.99h6.83c.55,0,.99.44.99.99v5.55c0,1.16-.95,2.11-2.11,2.11Zm-5.71-7.9c-.13,0-.24.11-.24.24v5.55c0,.75.61,1.36,1.36,1.36h4.6c.75,0,1.36-.61,1.36-1.36v-5.55c0-.13-.11-.24-.24-.24h-6.83Zm5.71,6.67h-4.6c-.48,0-.88-.39-.88-.88v-5.31h6.35v5.31c0,.48-.39.88-.88.88Zm-4.72-5.43v4.56c0,.07.06.12.12.12h4.6c.07,0,.12-.06.12-.12v-4.56h-4.85Z"/>
    </g>
    <g>
      <path class="cls-1" d="m46.04,56.14h-4.6c-.96,0-1.73-.78-1.73-1.73v-5.55c0-.34.28-.62.62-.62h6.83c.34,0,.62.28.62.62v5.55c0,.96-.78,1.73-1.73,1.73Zm-5.1-6.67v4.93c0,.28.22.5.5.5h4.6c.28,0,.5-.22.5-.5v-4.93h-5.6Z"/>
      <path class="cls-1" d="m46.04,56.51h-4.6c-1.16,0-2.11-.95-2.11-2.11v-5.55c0-.55.44-.99.99-.99h6.83c.55,0,.99.44.99.99v5.55c0,1.16-.95,2.11-2.11,2.11Zm-5.71-7.9c-.13,0-.24.11-.24.24v5.55c0,.75.61,1.36,1.36,1.36h4.6c.75,0,1.36-.61,1.36-1.36v-5.55c0-.13-.11-.24-.24-.24h-6.83Zm5.71,6.67h-4.6c-.48,0-.88-.39-.88-.88v-5.31h6.35v5.31c0,.48-.39.88-.88.88Zm-4.72-5.43v4.56c0,.07.06.12.12.12h4.6c.07,0,.12-.06.12-.12v-4.56h-4.85Z"/>
    </g>
  </g>
  <g>
    <g>
      <path class="cls-1" d="m42.58,40.64c-1.68,0-3.05-1.37-3.05-3.05s1.37-3.05,3.05-3.05,3.05,1.37,3.05,3.05-1.37,3.05-3.05,3.05Zm0-4.86c-1,0-1.81.81-1.81,1.81s.81,1.81,1.81,1.81,1.81-.81,1.81-1.81-.81-1.81-1.81-1.81Z"/>
      <path class="cls-1" d="m42.58,41.01c-1.89,0-3.42-1.54-3.42-3.42s1.53-3.42,3.42-3.42,3.42,1.54,3.42,3.42-1.54,3.42-3.42,3.42Zm0-6.09c-1.47,0-2.67,1.2-2.67,2.67s1.2,2.67,2.67,2.67,2.67-1.2,2.67-2.67-1.2-2.67-2.67-2.67Zm0,4.86c-1.21,0-2.19-.98-2.19-2.19s.98-2.19,2.19-2.19,2.19.98,2.19,2.19-.98,2.19-2.19,2.19Zm0-3.63c-.79,0-1.44.65-1.44,1.44s.64,1.44,1.44,1.44,1.44-.65,1.44-1.44-.65-1.44-1.44-1.44Z"/>
    </g>
    <g>
      <path class="cls-1" d="m17.05,40.64c-1.68,0-3.05-1.37-3.05-3.05s1.37-3.05,3.05-3.05,3.05,1.37,3.05,3.05-1.37,3.05-3.05,3.05Zm0-4.86c-1,0-1.81.81-1.81,1.81s.81,1.81,1.81,1.81,1.81-.81,1.81-1.81-.81-1.81-1.81-1.81Z"/>
      <path class="cls-1" d="m17.04,41.01c-1.89,0-3.42-1.54-3.42-3.42s1.53-3.42,3.42-3.42,3.42,1.54,3.42,3.42-1.54,3.42-3.42,3.42Zm0-6.09c-1.47,0-2.67,1.2-2.67,2.67s1.2,2.67,2.67,2.67,2.67-1.2,2.67-2.67-1.2-2.67-2.67-2.67Zm0,4.86c-1.21,0-2.19-.98-2.19-2.19s.98-2.19,2.19-2.19,2.19.98,2.19,2.19-.98,2.19-2.19,2.19Zm0-3.63c-.79,0-1.44.65-1.44,1.44s.65,1.44,1.44,1.44,1.44-.65,1.44-1.44-.65-1.44-1.44-1.44Z"/>
    </g>
  </g>
  <g>
    <g>
      <path class="cls-1" d="m6.69,26.49h-2.58c-.89,0-1.61-.72-1.61-1.61v-9.26c0-.89.72-1.61,1.61-1.61h2.58c.89,0,1.61.72,1.61,1.61v9.26c0,.89-.72,1.61-1.61,1.61Zm-2.58-11.24c-.21,0-.37.17-.37.37v9.26c0,.21.17.37.37.37h2.58c.21,0,.37-.17.37-.37v-9.26c0-.21-.17-.37-.37-.37h-2.58Z"/>
      <path class="cls-1" d="m6.69,26.87h-2.58c-1.09,0-1.98-.89-1.98-1.98v-9.26c0-1.09.89-1.98,1.98-1.98h2.58c1.09,0,1.98.89,1.98,1.98v9.26c0,1.09-.89,1.98-1.98,1.98Zm-2.58-12.47c-.68,0-1.23.55-1.23,1.23v9.26c0,.68.55,1.23,1.23,1.23h2.58c.68,0,1.23-.55,1.23-1.23v-9.26c0-.68-.55-1.23-1.23-1.23h-2.58Zm2.58,11.24h-2.58c-.41,0-.75-.34-.75-.75v-9.26c0-.41.33-.75.75-.75h2.58c.41,0,.75.34.75.75v9.26c0,.41-.34.75-.75.75Zm-2.58-10.01v9.26s2.58,0,2.58,0v-9.26s-2.58,0-2.58,0Zm0-.38v.38h0v-.38Z"/>
    </g>
    <g>
      <path class="cls-1" d="m5.4,15.25c-.34,0-.62-.28-.62-.62,0-1.67,1.36-3.04,3.04-3.04h2.84c.34,0,.62.28.62.62s-.28.62-.62.62h-2.84c-.99,0-1.8.81-1.8,1.8,0,.34-.28.62-.62.62Z"/>
      <path class="cls-1" d="m5.4,15.63c-.55,0-.99-.44-.99-.99,0-1.88,1.53-3.41,3.41-3.41h2.84c.55,0,.99.44.99.99s-.44.99-.99.99h-2.84c-.79,0-1.43.64-1.43,1.43,0,.55-.44.99-.99.99Zm2.42-3.65c-1.47,0-2.66,1.19-2.66,2.66,0,.27.48.27.48,0,0-1.2.98-2.18,2.18-2.18h2.84c.13,0,.24-.11.24-.24s-.11-.24-.24-.24h-2.84Z"/>
    </g>
  </g>
  <g>
    <g>
      <path class="cls-1" d="m55.52,26.49h-2.58c-.89,0-1.61-.72-1.61-1.61v-9.26c0-.89.72-1.61,1.61-1.61h2.58c.89,0,1.61.72,1.61,1.61v9.26c0,.89-.72,1.61-1.61,1.61Zm-2.58-11.24c-.21,0-.37.17-.37.37v9.26c0,.21.17.37.37.37h2.58c.21,0,.37-.17.37-.37v-9.26c0-.21-.17-.37-.37-.37h-2.58Z"/>
      <path class="cls-1" d="m55.52,26.87h-2.58c-1.09,0-1.98-.89-1.98-1.98v-9.26c0-1.09.89-1.98,1.98-1.98h2.58c1.09,0,1.98.89,1.98,1.98v9.26c0,1.09-.89,1.98-1.98,1.98Zm-2.58-12.47c-.68,0-1.23.55-1.23,1.23v9.26c0,.68.55,1.23,1.23,1.23h2.58c.68,0,1.23-.55,1.23-1.23v-9.26c0-.68-.55-1.23-1.23-1.23h-2.58Zm2.58,11.24h-2.58c-.41,0-.75-.34-.75-.75v-9.26c0-.41.33-.75.75-.75h2.58c.41,0,.75.34.75.75v9.26c0,.41-.33.75-.75.75Zm-2.58-10.01v9.26s2.58,0,2.58,0v-9.26s-2.58,0-2.58,0Zm0-.38v.38h0v-.38Z"/>
    </g>
    <g>
      <path class="cls-1" d="m54.23,15.25c-.34,0-.62-.28-.62-.62,0-.99-.81-1.8-1.8-1.8h-2.84c-.34,0-.62-.28-.62-.62s.28-.62.62-.62h2.84c1.67,0,3.04,1.36,3.04,3.04,0,.34-.28.62-.62.62Z"/>
      <path class="cls-1" d="m54.23,15.63c-.55,0-.99-.44-.99-.99,0-.79-.64-1.43-1.43-1.43h-2.84c-.55,0-.99-.44-.99-.99s.44-.99.99-.99h2.84c1.88,0,3.41,1.53,3.41,3.41,0,.55-.45.99-.99.99Zm-5.26-3.65c-.13,0-.24.11-.24.24s.11.24.24.24h2.84c1.2,0,2.18.98,2.18,2.18,0,.27.48.27.48,0,0-1.47-1.19-2.66-2.66-2.66h-2.84Z"/>
    </g>
  </g>
</svg>