<?xml version="1.0" encoding="UTF-8"?>
<svg id="Layer_1" data-name="Layer 1" xmlns="http://www.w3.org/2000/svg" viewBox="0 0 60 60">
  <defs>
    <style>
      .cls-1 {
        fill: #37464c;
        stroke-width: 0px;
      }
    </style>
  </defs>
  <path class="cls-1" d="m30,15c-2.76,0-5-2.24-5-5s2.24-5,5-5,5,2.24,5,5-2.24,5-5,5Zm0-8c-1.65,0-3,1.35-3,3s1.35,3,3,3,3-1.35,3-3-1.35-3-3-3Z"/>
  <path class="cls-1" d="m30,57c-.55,0-1-.45-1-1V14c0-.55.45-1,1-1s1,.45,1,1v42c0,.55-.45,1-1,1Z"/>
  <path class="cls-1" d="m19,21h-5c-2.76,0-5-2.24-5-5,0-.55.45-1,1-1s1,.45,1,1c0,1.65,1.35,3,3,3h5c.55,0,1,.45,1,1s-.45,1-1,1Z"/>
  <path class="cls-1" d="m30,25h-10c-2.76,0-5-2.24-5-5,0-.55.45-1,1-1s1,.45,1,1c0,1.65,1.35,3,3,3h10c.55,0,1,.45,1,1s-.45,1-1,1Z"/>
  <path class="cls-1" d="m30,19c-3.37,0-6.43-1.87-7.99-4.87-.36-.7-1.05-1.13-1.8-1.13H6.17c.41,1.16,1.52,2,2.83,2h4c.55,0,1,.45,1,1s-.45,1-1,1h-4c-2.76,0-5-2.24-5-5,0-.55.45-1,1-1h15.22c1.5,0,2.87.85,3.57,2.21,1.21,2.34,3.59,3.79,6.21,3.79.55,0,1,.45,1,1s-.45,1-1,1Z"/>
  <path class="cls-1" d="m46,21h-5c-.55,0-1-.45-1-1s.45-1,1-1h5c1.65,0,3-1.35,3-3,0-.55.45-1,1-1s1,.45,1,1c0,2.76-2.24,5-5,5Z"/>
  <path class="cls-1" d="m40,25h-10c-.55,0-1-.45-1-1s.45-1,1-1h10c1.65,0,3-1.35,3-3,0-.55.45-1,1-1s1,.45,1,1c0,2.76-2.24,5-5,5Z"/>
  <path class="cls-1" d="m30,19c-.55,0-1-.45-1-1s.45-1,1-1c2.62,0,5-1.45,6.21-3.79.71-1.37,2.08-2.21,3.57-2.21h15.22c.55,0,1,.45,1,1,0,2.76-2.24,5-5,5h-4c-.55,0-1-.45-1-1s.45-1,1-1h4c1.3,0,2.42-.84,2.83-2h-14.05c-.75,0-1.44.43-1.8,1.13-1.55,3-4.61,4.87-7.99,4.87Z"/>
  <path class="cls-1" d="m37,56c-.45,0-.85-.3-.97-.75-.04-.15-.92-3.25-5.03-3.25-4.96,0-9-3.14-9-7s4.04-7,9-7c2.71,0,9-.49,9-5,0-.34-.04-.68-.11-1h-4.62c-.71,0-1.38-.39-1.74-1-.36-.61-.36-1.35-.02-1.96.71-1.24,2.04-2.02,3.48-2.04.94-.01,1.8.29,2.5.87,1.59,1.31,2.51,3.18,2.51,5.13,0,4.38-4.11,7-11,7-3.86,0-7,2.24-7,5s3.14,5,7,5c4.57,0,6.56,3.11,6.97,4.76.13.54-.19,1.08-.73,1.21-.08.02-.16.03-.24.03Zm.03-27h-.02c-.72,0-1.41.41-1.76,1.02l3.59-.02c-.19-.21-.39-.41-.62-.59-.33-.27-.74-.41-1.19-.41Z"/>
  <path class="cls-1" d="m23,56c-.08,0-.16,0-.24-.03-.54-.13-.86-.68-.73-1.21.41-1.65,2.4-4.76,6.97-4.76,3.86,0,7-2.24,7-5s-3.14-5-7-5c-6.89,0-11-2.62-11-7,0-1.96.91-3.83,2.51-5.13.7-.58,1.57-.89,2.5-.87,1.44.01,2.77.79,3.48,2.04.35.61.34,1.34-.02,1.96-.36.62-1.03,1-1.74,1h-4.62c-.08.32-.11.66-.11,1,0,4.51,6.29,5,9,5,4.96,0,9,3.14,9,7s-4.04,7-9,7c-4.17,0-5.02,3.21-5.03,3.24-.11.45-.52.76-.97.76Zm-1.84-26h3.57c-.33-.59-1.02-.99-1.74-1-.47.02-.88.13-1.22.41-.22.18-.43.38-.61.59Z"/>
</svg>