<?xml version="1.0" encoding="UTF-8"?>
<svg id="Layer_1" data-name="Layer 1" xmlns="http://www.w3.org/2000/svg" viewBox="0 0 60 60">
  <defs>
    <style>
      .cls-1 {
        fill: #37464c;
        stroke-width: 0px;
      }
    </style>
  </defs>
  <g>
    <path class="cls-1" d="m44.22,54.84h-26.08c-2.57,0-4.66-2.09-4.66-4.67V9.41c0-1.25.49-2.42,1.37-3.3.88-.88,2.05-1.37,3.3-1.37h26.08c2.57,0,4.66,2.09,4.66,4.67v40.76c0,2.57-2.1,4.66-4.67,4.66ZM18.15,5.89c-.94,0-1.83.37-2.49,1.03-.67.67-1.03,1.55-1.03,2.49v40.76c0,1.94,1.58,3.52,3.52,3.52h26.08s0,0,0,0c1.94,0,3.52-1.58,3.52-3.52V9.42c0-1.94-1.58-3.52-3.52-3.52h-26.08s0,0,0,0Z"/>
    <path class="cls-1" d="m44.22,55.21h-26.08c-1.34,0-2.61-.53-3.56-1.48-.95-.95-1.48-2.22-1.48-3.56V9.41c0-1.35.53-2.61,1.48-3.56.95-.95,2.21-1.47,3.56-1.47h26.08c2.78,0,5.04,2.26,5.04,5.04v40.76c0,2.78-2.26,5.04-5.04,5.04ZM18.15,5.13c-1.15,0-2.22.45-3.03,1.25-.81.81-1.26,1.89-1.26,3.03v40.76c0,1.14.44,2.22,1.25,3.03.81.81,1.89,1.26,3.03,1.26h26.08c2.36,0,4.29-1.92,4.29-4.28V9.42c0-2.36-1.92-4.29-4.28-4.29h-26.08Zm26.07,48.95h-26.08c-2.15,0-3.9-1.75-3.9-3.9V9.41c0-1.04.41-2.02,1.15-2.76.74-.74,1.72-1.14,2.76-1.14h26.08c1.04,0,2.02.41,2.75,1.15.74.74,1.14,1.72,1.14,2.75v40.76c0,2.15-1.75,3.9-3.9,3.9ZM18.15,6.26c-.84,0-1.63.33-2.23.92-.59.59-.92,1.38-.92,2.23v40.76c0,1.74,1.41,3.15,3.14,3.15h26.08c1.74,0,3.15-1.41,3.15-3.15V9.42c0-.84-.32-1.63-.92-2.22-.59-.6-1.39-.92-2.22-.92h-26.08Z"/>
  </g>
  <g>
    <path class="cls-1" d="m41.79,22.86h-21.2c-1.74,0-3.15-1.41-3.15-3.15v-8.5c0-.84.33-1.63.92-2.23s1.38-.92,2.22-.92h21.2c.84,0,1.63.33,2.23.92.59.59.92,1.39.92,2.23v8.5c0,.84-.33,1.63-.92,2.23-.59.59-1.38.92-2.22.92Zm-21.2-13.66c-.54,0-1.04.21-1.42.59-.38.38-.59.88-.59,1.42v8.5c0,1.11.9,2.01,2.01,2.01h21.2s0,0,0,0c.54,0,1.04-.21,1.42-.59.38-.38.59-.88.59-1.42v-8.5c0-.54-.21-1.04-.59-1.42-.38-.38-.88-.59-1.42-.59h-21.2s0,0,0,0Z"/>
    <path class="cls-1" d="m41.79,23.24h-21.2c-1.94,0-3.52-1.58-3.52-3.52v-8.5c0-.94.37-1.83,1.03-2.49.67-.67,1.55-1.03,2.49-1.03h21.2c.94,0,1.83.37,2.49,1.04.67.66,1.03,1.55,1.03,2.49v8.5c0,.94-.37,1.83-1.03,2.49-.67.67-1.55,1.03-2.49,1.03Zm-21.2-14.79c-.74,0-1.44.29-1.96.81-.52.52-.81,1.22-.81,1.96v8.5c0,1.53,1.24,2.77,2.77,2.77h21.2v.38-.38c.74,0,1.44-.29,1.96-.81.52-.52.81-1.22.81-1.96v-8.5c0-.74-.29-1.44-.81-1.96-.52-.52-1.22-.81-1.96-.81h-21.2Zm21.2,13.66h-21.2c-1.31,0-2.38-1.07-2.38-2.39v-8.5c0-.64.25-1.24.7-1.69.45-.45,1.05-.7,1.68-.7h21.2c.64,0,1.23.25,1.68.7.45.45.7,1.05.7,1.69v8.5c0,.64-.25,1.23-.7,1.69-.45.45-1.05.7-1.68.7Zm-21.2-12.89v.38c-.44,0-.85.17-1.15.48-.31.31-.48.72-.48,1.15v8.5c0,.9.73,1.63,1.63,1.63h21.2c.44,0,.85-.17,1.15-.48.31-.31.48-.72.48-1.15v-8.5c0-.44-.17-.85-.48-1.16-.31-.31-.72-.48-1.15-.48h-21.2v-.38Z"/>
  </g>
  <g>
    <path class="cls-1" d="m27.19,37.19h-7.25c-.67,0-1.3-.26-1.77-.73-.47-.47-.73-1.1-.73-1.77v-7.25c0-.67.26-1.3.73-1.77.47-.47,1.1-.73,1.77-.73h7.25c.67,0,1.3.26,1.77.73.47.47.73,1.1.73,1.77v7.25c0,1.38-1.12,2.5-2.5,2.5Zm-7.25-11.11c-.36,0-.71.14-.96.4-.26.26-.4.6-.4.96v7.25c0,.36.14.71.4.96s.6.4.96.4h7.25c.75,0,1.36-.61,1.36-1.36v-7.25c0-.36-.14-.71-.4-.96s-.6-.4-.96-.4h-7.25s0,0,0,0Z"/>
    <path class="cls-1" d="m27.19,37.57h-7.25c-.77,0-1.49-.3-2.03-.84-.54-.54-.84-1.27-.84-2.04v-7.25c0-.77.3-1.49.84-2.03.54-.54,1.27-.84,2.03-.84h7.25c.77,0,1.49.3,2.04.84.54.54.84,1.27.84,2.04v7.25c0,1.59-1.29,2.88-2.88,2.88Zm-7.25-12.25c-.57,0-1.1.22-1.5.62-.4.4-.62.94-.62,1.5v7.25c0,.57.22,1.1.62,1.5.4.4.94.62,1.5.62h7.25c1.17,0,2.13-.95,2.13-2.13v-7.25c0-.57-.22-1.1-.62-1.5-.4-.4-.94-.62-1.5-.62h-7.25Zm7.25,11.11h-7.25c-.46,0-.9-.18-1.23-.51-.33-.33-.51-.76-.51-1.23v-7.25c0-.46.18-.9.51-1.23.33-.33.76-.51,1.23-.51h7.25c.47,0,.9.18,1.23.51.33.33.51.76.51,1.23v7.25c0,.96-.78,1.74-1.74,1.74Zm-7.25-10.35v.38c-.26,0-.51.1-.7.29-.19.19-.29.44-.29.7v7.25c0,.26.1.51.29.7.19.19.44.29.7.29h7.25c.54,0,.99-.44.99-.99v-7.25c0-.26-.1-.51-.29-.7-.19-.19-.43-.29-.7-.29h-7.25v-.38Z"/>
  </g>
  <g>
    <path class="cls-1" d="m42.43,37.19h-7.25c-1.38,0-2.5-1.12-2.5-2.5v-7.25c0-.67.26-1.3.73-1.77.47-.47,1.1-.73,1.77-.73h7.25c1.38,0,2.5,1.12,2.5,2.5v7.25c0,1.38-1.12,2.5-2.5,2.5Zm-7.25-11.11c-.36,0-.71.14-.96.4-.26.26-.4.6-.4.96v7.25c0,.75.61,1.36,1.36,1.36h7.25c.75,0,1.36-.61,1.36-1.36v-7.25c0-.75-.61-1.36-1.36-1.36h-7.25s0,0,0,0Z"/>
    <path class="cls-1" d="m42.43,37.57h-7.25c-1.59,0-2.88-1.29-2.88-2.88v-7.25c0-.77.3-1.49.84-2.03.54-.54,1.27-.84,2.03-.84h7.25c1.59,0,2.88,1.29,2.88,2.88v7.25c0,1.59-1.29,2.88-2.88,2.88Zm-7.25-12.25c-.57,0-1.1.22-1.5.62-.4.4-.62.93-.62,1.5v7.25c0,1.17.95,2.13,2.13,2.13h7.25c1.17,0,2.13-.95,2.13-2.13v-7.25c0-1.17-.95-2.13-2.13-2.13h-7.25Zm7.25,11.11h-7.25c-.96,0-1.74-.78-1.74-1.74v-7.25c0-.46.18-.9.51-1.23.33-.33.76-.51,1.23-.51h7.25c.96,0,1.74.78,1.74,1.74v7.25c0,.96-.78,1.74-1.74,1.74Zm-7.25-9.97c-.26,0-.51.1-.7.29-.19.19-.29.43-.29.7v7.25c0,.54.44.99.99.99h7.25c.54,0,.99-.44.99-.99v-7.25c0-.55-.44-.99-.99-.99h-7.25Z"/>
  </g>
  <g>
    <path class="cls-1" d="m27.19,51.52h-7.25c-1.38,0-2.5-1.12-2.5-2.5v-7.25c0-.67.26-1.3.73-1.77.47-.47,1.1-.73,1.77-.73h7.25c1.38,0,2.5,1.12,2.5,2.5v7.25c0,.67-.26,1.3-.73,1.77-.47.47-1.1.73-1.77.73Zm-7.25-11.11c-.36,0-.71.14-.96.4-.26.26-.4.6-.4.96v7.25c0,.75.61,1.36,1.36,1.36h7.25s0,0,0,0h0c.36,0,.71-.14.96-.4s.4-.6.4-.96v-7.25c0-.75-.61-1.36-1.36-1.36h-7.25Z"/>
    <path class="cls-1" d="m27.19,51.9h-7.25c-1.59,0-2.88-1.29-2.88-2.88v-7.25c0-.77.3-1.49.84-2.04.54-.54,1.27-.84,2.04-.84h7.25c1.59,0,2.88,1.29,2.88,2.88v7.25c0,.77-.3,1.49-.84,2.03-.54.54-1.26.84-2.03.84Zm-7.25-12.25c-.57,0-1.1.22-1.5.62-.4.4-.62.94-.62,1.5v7.25c0,1.17.95,2.13,2.13,2.13h7.25v.38-.38c.57,0,1.1-.22,1.5-.62s.62-.94.62-1.5v-7.25c0-1.17-.95-2.13-2.13-2.13h-7.25Zm7.25,11.11h-7.25c-.96,0-1.74-.78-1.74-1.74v-7.25c0-.47.18-.9.51-1.23.33-.33.76-.51,1.23-.51h7.25c.96,0,1.74.78,1.74,1.74v7.25c0,.46-.18.9-.51,1.23-.33.33-.77.51-1.23.51Zm-7.25-9.97c-.26,0-.51.1-.7.29-.19.19-.29.43-.29.7v7.25c0,.54.44.99.99.99h7.25c.26,0,.51-.1.7-.29.19-.19.29-.44.29-.7v-7.25c0-.54-.44-.99-.99-.99h-7.25Z"/>
  </g>
  <g>
    <path class="cls-1" d="m42.43,51.52h-7.25c-.67,0-1.3-.26-1.77-.73-.47-.47-.73-1.1-.73-1.77v-7.25c0-.67.26-1.3.73-1.77.47-.47,1.1-.73,1.77-.73h7.25c.67,0,1.3.26,1.77.73.47.47.73,1.1.73,1.77v7.25c0,.67-.26,1.3-.73,1.77-.47.47-1.1.73-1.77.73Zm-7.25-11.11c-.36,0-.71.14-.96.4s-.4.6-.4.96v7.25c0,.36.14.71.4.96s.6.4.96.4h7.25s0,0,0,0h0c.36,0,.71-.14.96-.4.26-.26.4-.6.4-.96v-7.25c0-.36-.14-.71-.4-.96-.26-.26-.6-.4-.96-.4h-7.25Z"/>
    <path class="cls-1" d="m42.43,51.9h-7.25c-.77,0-1.49-.3-2.04-.84-.54-.54-.84-1.27-.84-2.04v-7.25c0-.77.3-1.49.84-2.03.54-.54,1.27-.84,2.03-.84h7.25c.77,0,1.49.3,2.03.84.54.54.84,1.27.84,2.03v7.25c0,.77-.3,1.49-.84,2.04-.54.54-1.27.84-2.03.84Zm-7.25-12.25c-.57,0-1.1.22-1.5.62-.4.4-.62.93-.62,1.5v7.25c0,.57.22,1.1.62,1.5.4.4.94.62,1.5.62h7.25c.57,0,1.1-.22,1.5-.62.4-.4.62-.94.62-1.5v-7.25c0-.57-.22-1.1-.62-1.5-.4-.4-.93-.62-1.5-.62h-7.25Zm7.25,11.11h-7.25c-.46,0-.9-.18-1.23-.51-.33-.33-.51-.76-.51-1.23v-7.25c0-.46.18-.9.51-1.23.33-.33.76-.51,1.23-.51h7.25c.46,0,.9.18,1.23.51.33.33.51.76.51,1.23v7.25c0,.46-.18.9-.51,1.23-.33.33-.77.51-1.23.51Zm-7.25-9.97c-.26,0-.51.1-.7.29-.19.19-.29.43-.29.7v7.25c0,.26.1.51.29.7.19.19.44.29.7.29h7.25c.26,0,.51-.1.7-.29.19-.19.29-.43.29-.7v-7.25c0-.26-.1-.51-.29-.7-.19-.19-.44-.29-.7-.29h-7.25Z"/>
  </g>
  <g>
    <path class="cls-1" d="m23.56,33.95h0c-.31,0-.57-.26-.57-.57v-5c0-.31.26-.57.57-.57h0c.31,0,.57.25.57.57v5c0,.31-.26.57-.57.57Z"/>
    <path class="cls-1" d="m23.56,34.33c-.52,0-.94-.42-.94-.94v-5c0-.52.42-.94.94-.94s.94.42.94.94v5c0,.52-.42.94-.94.94Zm0-6.14c-.11,0-.19.09-.19.19v5c0,.21.39.21.39,0v-5c0-.11-.09-.19-.19-.19Z"/>
  </g>
  <g>
    <path class="cls-1" d="m26.07,31.45h-5c-.31,0-.57-.26-.57-.57s.25-.57.57-.57h5c.31,0,.57.26.57.57s-.26.57-.57.57Z"/>
    <path class="cls-1" d="m26.07,31.83h-5c-.52,0-.94-.42-.94-.95s.42-.94.94-.94h5c.52,0,.94.42.94.94s-.42.95-.94.95Zm-5-1.14c-.11,0-.19.09-.19.19s.09.19.19.19h5c.11,0,.19-.09.19-.19s-.09-.19-.19-.19h-5Z"/>
  </g>
  <g>
    <g>
      <path class="cls-1" d="m41.31,30.36h-5c-.31,0-.57-.26-.57-.57s.26-.57.57-.57h5c.31,0,.57.26.57.57s-.26.57-.57.57Z"/>
      <path class="cls-1" d="m41.31,30.73h-5c-.52,0-.94-.42-.94-.94s.42-.95.94-.95h5c.52,0,.94.42.94.95s-.42.94-.94.94Zm-5-1.14c-.11,0-.19.09-.19.2s.09.19.19.19h5c.11,0,.19-.09.19-.19s-.09-.19-.19-.19h-5Z"/>
    </g>
    <g>
      <path class="cls-1" d="m41.31,32.91h-5c-.31,0-.57-.26-.57-.57s.26-.57.57-.57h5c.31,0,.57.26.57.57s-.25.57-.57.57Z"/>
      <path class="cls-1" d="m41.31,33.29h-5c-.52,0-.94-.42-.94-.95s.42-.94.94-.94h5c.52,0,.94.42.94.95s-.42.94-.94.94Zm-5-1.14c-.11,0-.19.09-.19.19s.09.19.19.19h5c.11,0,.19-.09.19-.19s-.09-.19-.19-.19h-5Z"/>
    </g>
  </g>
  <g>
    <g>
      <path class="cls-1" d="m25.33,47.73c-.15,0-.29-.06-.4-.17l-3.54-3.54c-.22-.22-.22-.58,0-.81.22-.22.58-.22.81,0l3.54,3.54c.22.22.22.58,0,.81-.11.11-.26.17-.4.17Z"/>
      <path class="cls-1" d="m25.33,48.11c-.25,0-.49-.1-.67-.28l-3.54-3.54c-.37-.37-.37-.97,0-1.34.37-.37.97-.37,1.34,0l3.54,3.54c.18.18.28.42.28.67s-.1.49-.28.67c-.18.18-.42.28-.67.28Zm-3.54-4.68c-.05,0-.1.02-.14.06-.08.08-.08.2,0,.27l3.54,3.54c.11.11.21.06.27,0,.05-.05.06-.11.06-.14s0-.09-.06-.14l-3.54-3.54s-.09-.06-.14-.06Z"/>
    </g>
    <g>
      <path class="cls-1" d="m21.79,47.73c-.15,0-.29-.06-.4-.17-.22-.22-.22-.58,0-.81l3.54-3.54c.22-.22.58-.22.81,0,.22.22.22.58,0,.81l-3.54,3.54c-.11.11-.26.17-.4.17Z"/>
      <path class="cls-1" d="m21.79,48.11c-.25,0-.49-.1-.67-.28-.37-.37-.37-.97,0-1.34l3.54-3.54c.37-.37.97-.37,1.34,0,.37.37.37.97,0,1.34l-3.54,3.54c-.18.18-.42.28-.67.28Zm3.54-4.68c-.05,0-.1.02-.14.06l-3.54,3.54c-.08.08-.08.2,0,.27.11.11.21.06.27,0l3.54-3.54c.06-.06.06-.21,0-.27-.04-.04-.09-.06-.14-.06Z"/>
    </g>
  </g>
  <g>
    <path class="cls-1" d="m37.03,47.73c-.15,0-.29-.06-.4-.17-.22-.22-.22-.58,0-.81l3.54-3.54c.22-.22.58-.22.81,0,.22.22.22.58,0,.81l-3.54,3.54c-.11.11-.26.17-.4.17Z"/>
    <path class="cls-1" d="m37.04,48.11c-.25,0-.49-.1-.67-.27-.18-.18-.28-.42-.28-.67s.1-.49.28-.67l3.54-3.54c.37-.37.97-.37,1.34,0,.37.37.37.97,0,1.34l-3.54,3.54c-.18.18-.42.28-.67.28Zm3.54-4.68c-.05,0-.1.02-.14.06l-3.54,3.54s-.06.11-.06.14,0,.09.06.14c.07.07.2.07.28,0l3.54-3.54c.08-.08.08-.2,0-.27-.04-.04-.09-.06-.14-.06Z"/>
  </g>
  <g>
    <path class="cls-1" d="m41.36,47.16c0,.43-.35.79-.79.79s-.79-.35-.79-.79c0-.43.35-.79.79-.79.43,0,.79.35.79.79Z"/>
    <path class="cls-1" d="m40.57,48.33c-.64,0-1.16-.52-1.16-1.16s.52-1.16,1.16-1.16,1.16.52,1.16,1.16-.52,1.16-1.16,1.16Zm0-1.58c-.23,0-.41.18-.41.41s.18.41.41.41.41-.18.41-.41-.18-.41-.41-.41Z"/>
  </g>
  <g>
    <path class="cls-1" d="m37.82,43.63c0,.43-.35.79-.79.79s-.79-.35-.79-.79c0-.43.35-.79.79-.79.43,0,.79.35.79.79Z"/>
    <path class="cls-1" d="m37.04,44.79c-.64,0-1.16-.52-1.16-1.16s.52-1.16,1.16-1.16,1.16.52,1.16,1.16-.52,1.16-1.16,1.16Zm0-1.58c-.23,0-.41.18-.41.41s.18.41.41.41.41-.19.41-.41-.18-.41-.41-.41Z"/>
  </g>
</svg>