<?xml version="1.0" encoding="UTF-8"?>
<svg id="Layer_1" data-name="Layer 1" xmlns="http://www.w3.org/2000/svg" viewBox="0 0 60 60">
  <defs>
    <style>
      .cls-1 {
        fill: #37464c;
        stroke-width: 0px;
      }
    </style>
  </defs>
  <path class="cls-1" d="m53.47,53.41H6.93c-1.18,0-2.14-.96-2.14-2.14V12.67c0-1.18.96-2.14,2.14-2.14h5.68c.55,0,1,.45,1,1s-.45,1-1,1h-5.68c-.07,0-.14.06-.14.14v38.6c0,.07.06.14.14.14h46.54c.07,0,.14-.06.14-.14V12.67c0-.07-.06-.14-.14-.14h-5.68c-.55,0-1-.45-1-1s.45-1,1-1h5.68c1.18,0,2.14.96,2.14,2.14v38.6c0,1.18-.96,2.14-2.14,2.14Z"/>
  <rect class="cls-1" x="5.79" y="19.62" width="48.81" height="2"/>
  <path class="cls-1" d="m44.39,14.81c-.55,0-1-.45-1-1v-5.68c0-.55.45-1,1-1s1,.45,1,1v5.68c0,.55-.45,1-1,1Z"/>
  <path class="cls-1" d="m40.98,12.54h-21.57c-.55,0-1-.45-1-1s.45-1,1-1h21.57c.55,0,1,.45,1,1s-.45,1-1,1Z"/>
  <path class="cls-1" d="m16.01,14.81c-.55,0-1-.45-1-1v-5.68c0-.55.45-1,1-1s1,.45,1,1v5.68c0,.55-.45,1-1,1Z"/>
  <rect class="cls-1" x="22.82" y="28.7" width="3.41" height="2"/>
  <rect class="cls-1" x="28.5" y="28.7" width="3.41" height="2"/>
  <rect class="cls-1" x="34.17" y="28.7" width="3.41" height="2"/>
  <rect class="cls-1" x="39.85" y="28.7" width="3.41" height="2"/>
  <rect class="cls-1" x="17.14" y="34.38" width="3.41" height="2"/>
  <rect class="cls-1" x="22.82" y="34.38" width="3.41" height="2"/>
  <rect class="cls-1" x="28.5" y="34.38" width="3.41" height="2"/>
  <rect class="cls-1" x="34.17" y="34.38" width="3.41" height="2"/>
  <rect class="cls-1" x="39.85" y="34.38" width="3.41" height="2"/>
  <rect class="cls-1" x="17.14" y="40.05" width="3.41" height="2"/>
  <rect class="cls-1" x="22.82" y="40.05" width="3.41" height="2"/>
  <rect class="cls-1" x="28.5" y="40.05" width="3.41" height="2"/>
  <rect class="cls-1" x="34.17" y="40.05" width="3.41" height="2"/>
</svg>