<?xml version="1.0" encoding="UTF-8"?>
<svg id="Layer_1" data-name="Layer 1" xmlns="http://www.w3.org/2000/svg" viewBox="0 0 60 60">
  <defs>
    <style>
      .cls-1 {
        fill: #37464c;
        stroke-width: 0px;
      }
    </style>
  </defs>
  <path class="cls-1" d="m46.02,26.91c-.55,0-1-.45-1-1v-13h-4c-.55,0-1-.45-1-1s.45-1,1-1h4c1.1,0,2,.9,2,2v13c0,.55-.45,1-1,1Z"/>
  <path class="cls-1" d="m28.02,42.91H10.02c-1.1,0-2-.9-2-2V12.91c0-1.1.9-2,2-2h4c.55,0,1,.45,1,1s-.45,1-1,1h-4v28h18c.55,0,1,.45,1,1s-.45,1-1,1Z"/>
  <path class="cls-1" d="m43.02,52.91c-6.62,0-12-5.38-12-12s5.38-12,12-12,12,5.38,12,12-5.38,12-12,12Zm0-22c-5.51,0-10,4.49-10,10s4.49,10,10,10,10-4.49,10-10-4.49-10-10-10Z"/>
  <rect class="cls-1" x="9.02" y="18.91" width="37" height="2"/>
  <path class="cls-1" d="m43.02,42.91c-.21,0-.42-.07-.6-.2l-4-3,1.2-1.6,3.24,2.43,4.39-5.27,1.54,1.28-5,6c-.2.24-.48.36-.77.36Z"/>
  <path class="cls-1" d="m38.02,14.91c-.55,0-1-.45-1-1v-4c0-.55.45-1,1-1s1,.45,1,1v4c0,.55-.45,1-1,1Z"/>
  <path class="cls-1" d="m35.02,12.91h-15c-.55,0-1-.45-1-1s.45-1,1-1h15c.55,0,1,.45,1,1s-.45,1-1,1Z"/>
  <path class="cls-1" d="m17.02,14.91c-.55,0-1-.45-1-1v-4c0-.55.45-1,1-1s1,.45,1,1v4c0,.55-.45,1-1,1Z"/>
  <rect class="cls-1" x="20.02" y="24.91" width="3" height="2"/>
  <rect class="cls-1" x="25.02" y="24.91" width="3" height="2"/>
  <rect class="cls-1" x="30.02" y="24.91" width="3" height="2"/>
  <rect class="cls-1" x="35.02" y="24.91" width="3" height="2"/>
  <rect class="cls-1" x="15.02" y="29.91" width="3" height="2"/>
  <rect class="cls-1" x="20.02" y="29.91" width="3" height="2"/>
  <rect class="cls-1" x="25.02" y="29.91" width="3" height="2"/>
  <rect class="cls-1" x="30.02" y="29.91" width="3" height="2"/>
  <rect class="cls-1" x="15.02" y="34.91" width="3" height="2"/>
  <rect class="cls-1" x="20.02" y="34.91" width="3" height="2"/>
  <rect class="cls-1" x="25.02" y="34.91" width="3" height="2"/>
</svg>