<?xml version="1.0" encoding="UTF-8"?>
<svg id="Layer_1" data-name="Layer 1" xmlns="http://www.w3.org/2000/svg" viewBox="0 0 60 60">
  <defs>
    <style>
      .cls-1 {
        fill: #37464c;
        stroke-width: 0px;
      }
    </style>
  </defs>
  <path class="cls-1" d="m14.05,19.15c-3,0-5.36-2.49-5.36-5.67v-1.56c0-3.18,2.35-5.67,5.36-5.67s5.36,2.49,5.36,5.67v1.56c0,3.18-2.35,5.67-5.36,5.67Zm0-10.9c-1.88,0-3.36,1.61-3.36,3.67v1.56c0,2.06,1.48,3.67,3.36,3.67s3.36-1.61,3.36-3.67v-1.56c0-2.06-1.48-3.67-3.36-3.67Z"/>
  <path class="cls-1" d="m20.49,55.2h-2v-28.33c0-.47.32-.87.78-.98l4.87-1.09c1.81-.34,2.71-1.04,2.98-2.38H9.69c-3.01,0-4.45.83-4.45,5.54v7.63c0,1.25.29,3.36,2.27,3.36h1.09v2h-1.09c-2.63,0-4.27-2.05-4.27-5.36v-7.63c0-5.35,1.87-7.54,6.45-7.54h18.52c.55,0,1,.45,1,1,0,2.96-1.57,4.76-4.66,5.34l-4.05.91v27.53Z"/>
  <rect class="cls-1" x="13.05" y="36.67" width="2" height="18.52"/>
  <rect class="cls-1" x="7.6" y="27.96" width="2" height="27.24"/>
  <path class="cls-1" d="m23.85,19.15c-.55,0-1-.45-1-1v-7.63c0-1.15.94-2.09,2.09-2.09h2.18c.55,0,1,.45,1,1s-.45,1-1,1h-2.18s-.09.04-.09.09v7.63c0,.55-.45,1-1,1Z"/>
  <path class="cls-1" d="m53.27,39.85h-28.33c-1.15,0-2.09-.94-2.09-2.09v-7.63c0-.55.45-1,1-1s1,.45,1,1v7.63s.04.09.09.09h28.33s.09-.04.09-.09V10.52s-.04-.09-.09-.09h-2.18c-.55,0-1-.45-1-1s.45-1,1-1h2.18c1.15,0,2.09.94,2.09,2.09v27.24c0,1.15-.94,2.09-2.09,2.09Z"/>
  <path class="cls-1" d="m47.82,11.52c-.55,0-1-.45-1-1v-3.27c0-.55.45-1,1-1s1,.45,1,1v3.27c0,.55-.45,1-1,1Z"/>
  <path class="cls-1" d="m44.56,10.43h-10.9c-.55,0-1-.45-1-1s.45-1,1-1h10.9c.55,0,1,.45,1,1s-.45,1-1,1Z"/>
  <path class="cls-1" d="m30.39,11.52c-.55,0-1-.45-1-1v-3.27c0-.55.45-1,1-1s1,.45,1,1v3.27c0,.55-.45,1-1,1Z"/>
  <rect class="cls-1" x="34.75" y="20.42" width="3.27" height="2"/>
  <rect class="cls-1" x="40.2" y="20.42" width="3.27" height="2"/>
  <rect class="cls-1" x="45.64" y="20.42" width="3.27" height="2"/>
  <rect class="cls-1" x="29.3" y="25.87" width="3.27" height="2"/>
  <rect class="cls-1" x="34.75" y="25.87" width="3.27" height="2"/>
  <rect class="cls-1" x="40.2" y="25.87" width="3.27" height="2"/>
  <rect class="cls-1" x="45.64" y="25.87" width="3.27" height="2"/>
  <rect class="cls-1" x="29.3" y="31.31" width="3.27" height="2"/>
  <rect class="cls-1" x="34.75" y="31.31" width="3.27" height="2"/>
  <rect class="cls-1" x="40.2" y="31.31" width="3.27" height="2"/>
  <rect class="cls-1" x="23.85" y="14.97" width="30.51" height="2"/>
</svg>