<?xml version="1.0" encoding="UTF-8"?>
<svg id="Layer_1" data-name="Layer 1" xmlns="http://www.w3.org/2000/svg" viewBox="0 0 60 60">
  <defs>
    <style>
      .cls-1 {
        fill: #37464c;
        stroke-width: 0px;
      }
    </style>
  </defs>
  <g>
    <g>
      <path class="cls-1" d="m12.77,51.64h-5.74c-1.09,0-1.99-.89-1.99-1.99v-4.54c0-.33.27-.59.59-.59s.59.27.59.59v4.54c0,.44.36.8.8.8h5.74c.44,0,.8-.36.8-.8v-2.49c0-.33.27-.59.59-.59s.59.27.59.59v2.49c0,1.09-.89,1.99-1.98,1.99Z"/>
      <path class="cls-1" d="m12.77,52.01h-5.74c-1.3,0-2.36-1.06-2.36-2.36v-4.54c0-.53.43-.97.97-.97s.97.43.97.97v4.54c0,.23.19.43.43.43h5.74c.23,0,.43-.19.43-.43v-2.49c0-.53.43-.97.97-.97s.97.43.97.97v2.49c0,1.3-1.06,2.36-2.36,2.36Zm-7.13-7.11c-.12,0-.22.1-.22.22v4.54c0,.89.72,1.61,1.61,1.61h5.74c.89,0,1.61-.72,1.61-1.61v-2.49c0-.24-.43-.24-.43,0v2.49c0,.65-.53,1.18-1.18,1.18h-5.74c-.65,0-1.18-.53-1.18-1.18v-4.54c0-.12-.1-.22-.22-.22Z"/>
    </g>
    <g>
      <path class="cls-1" d="m52.02,51.64h-5.74c-1.09,0-1.99-.89-1.99-1.99v-2.49c0-.33.27-.59.59-.59s.59.27.59.59v2.49c0,.44.36.8.8.8h5.74c.44,0,.8-.36.8-.8v-4.19c0-.33.27-.59.59-.59s.59.27.59.59v4.19c0,1.09-.89,1.99-1.99,1.99Z"/>
      <path class="cls-1" d="m52.02,52.01h-5.74c-1.3,0-2.36-1.06-2.36-2.36v-2.49c0-.53.43-.97.97-.97s.97.43.97.97v2.49c0,.23.19.43.43.43h5.74c.23,0,.43-.19.43-.43v-4.19c0-.53.43-.97.97-.97s.97.43.97.97v4.19c0,1.3-1.06,2.36-2.36,2.36Zm-7.13-5.07c-.12,0-.22.1-.22.22v2.49c0,.89.72,1.61,1.61,1.61h5.74c.89,0,1.61-.72,1.61-1.61v-4.19c0-.24-.43-.24-.43,0v4.19c0,.65-.53,1.18-1.18,1.18h-5.74c-.65,0-1.18-.53-1.18-1.18v-2.49c0-.12-.1-.22-.22-.22Z"/>
    </g>
  </g>
  <g>
    <path class="cls-1" d="m48.83,47.48H10.22c-3.82,0-6.92-3.1-6.92-6.92v-4.02c0-5.75,4.68-10.44,10.44-10.44h31.58c5.75,0,10.44,4.68,10.44,10.44v4.02c0,3.82-3.1,6.92-6.92,6.92ZM13.74,27.29c-5.1,0-9.25,4.15-9.25,9.25v4.02c0,3.16,2.57,5.74,5.74,5.74h38.61c3.16,0,5.74-2.57,5.74-5.74v-4.02c0-5.1-4.15-9.25-9.25-9.25H13.74Z"/>
    <path class="cls-1" d="m48.83,47.85H10.22c-4.02,0-7.3-3.27-7.3-7.3v-4.02c0-5.96,4.85-10.81,10.81-10.81h31.58c5.96,0,10.81,4.85,10.81,10.81v4.02c0,4.02-3.27,7.3-7.3,7.3ZM13.74,26.48c-5.55,0-10.06,4.51-10.06,10.06v4.02c0,3.61,2.94,6.55,6.55,6.55h38.61c3.61,0,6.55-2.94,6.55-6.55v-4.02c0-5.55-4.51-10.06-10.06-10.06H13.74Zm35.1,20.19H10.22c-3.37,0-6.11-2.74-6.11-6.11v-4.02c0-5.31,4.32-9.63,9.63-9.63h31.58c5.31,0,9.63,4.32,9.63,9.63v4.02c0,3.37-2.74,6.11-6.11,6.11ZM13.74,27.66c-4.89,0-8.88,3.98-8.88,8.88v4.02c0,2.96,2.41,5.36,5.36,5.36h38.61c2.96,0,5.36-2.41,5.36-5.36v-4.02c0-4.89-3.98-8.88-8.88-8.88H13.74Z"/>
  </g>
  <g>
    <path class="cls-1" d="m47.09,27.29H11.97c-.18,0-.36-.09-.47-.23-.11-.15-.15-.34-.1-.52l2.4-8.81c.48-2.27,2.51-3.92,4.84-3.92h21.78c2.32,0,4.36,1.65,4.84,3.92l2.4,8.81c.05.18.01.37-.1.52-.11.15-.29.23-.47.23Zm-34.34-1.18h33.57l-2.2-8.08s0-.02,0-.04c-.36-1.74-1.91-2.99-3.68-2.99h-21.78c-1.77,0-3.32,1.26-3.68,2.99,0,.01,0,.02,0,.04l-2.2,8.08Z"/>
    <path class="cls-1" d="m47.09,27.66H11.97c-.3,0-.59-.14-.77-.38-.18-.24-.24-.55-.17-.84l2.4-8.81c.51-2.42,2.7-4.2,5.2-4.2h21.78c2.5,0,4.69,1.77,5.21,4.22l2.4,8.79c.08.29.02.6-.16.84s-.47.38-.77.38Zm-28.45-13.48c-2.15,0-4.03,1.52-4.47,3.62l-2.41,8.83c-.02.06,0,.14.04.19.04.05.1.08.17.08h35.12c.07,0,.13-.03.17-.09s.05-.12.04-.19l-2.4-8.81c-.45-2.12-2.33-3.64-4.48-3.64h-21.78Zm28.16,12.29H12.25l2.33-8.55c.4-1.92,2.1-3.31,4.05-3.31h21.78c1.95,0,3.65,1.38,4.05,3.29l2.33,8.57Zm-33.57-.75h32.58l-2.07-7.6c-.34-1.62-1.73-2.75-3.33-2.75h-21.78c-1.6,0-2.99,1.13-3.32,2.7l-2.09,7.66Z"/>
  </g>
  <g>
    <g>
      <path class="cls-1" d="m39.17,40.71h-19.29c-.33,0-.59-.27-.59-.59v-3.83c0-.33.27-.59.59-.59h19.29c.33,0,.59.27.59.59v3.83c0,.33-.27.59-.59.59Zm-18.7-1.18h18.11v-2.64h-18.11v2.64Z"/>
      <path class="cls-1" d="m39.17,41.08h-19.29c-.53,0-.97-.43-.97-.97v-3.83c0-.53.43-.97.97-.97h19.29c.53,0,.97.43.97.97v3.83c0,.53-.43.97-.97.97Zm-19.29-5.01c-.12,0-.22.1-.22.22v3.83c0,.12.1.22.22.22h19.29c.12,0,.22-.1.22-.22v-3.83c0-.12-.1-.22-.22-.22h-19.29Zm19.08,3.83h-18.86v-3.39h18.86v3.39Zm-18.11-.75h17.36v-1.89h-17.36v1.89Z"/>
    </g>
    <g>
      <g>
        <path class="cls-1" d="m47,42.12c-2.16,0-3.92-1.76-3.92-3.92s1.76-3.92,3.92-3.92,3.92,1.76,3.92,3.92-1.76,3.92-3.92,3.92Zm0-6.65c-1.51,0-2.73,1.23-2.73,2.73s1.23,2.73,2.73,2.73,2.73-1.23,2.73-2.73-1.23-2.73-2.73-2.73Z"/>
        <path class="cls-1" d="m47,42.49c-2.37,0-4.29-1.93-4.29-4.29s1.93-4.29,4.29-4.29,4.29,1.92,4.29,4.29-1.93,4.29-4.29,4.29Zm0-7.83c-1.95,0-3.54,1.59-3.54,3.54s1.59,3.54,3.54,3.54,3.54-1.59,3.54-3.54-1.59-3.54-3.54-3.54Zm0,6.65c-1.71,0-3.11-1.39-3.11-3.11s1.39-3.11,3.11-3.11,3.11,1.39,3.11,3.11-1.39,3.11-3.11,3.11Zm0-5.47c-1.3,0-2.36,1.06-2.36,2.36s1.06,2.36,2.36,2.36,2.36-1.06,2.36-2.36-1.06-2.36-2.36-2.36Z"/>
      </g>
      <g>
        <path class="cls-1" d="m12.06,42.12c-2.16,0-3.92-1.76-3.92-3.92s1.76-3.92,3.92-3.92,3.92,1.76,3.92,3.92-1.76,3.92-3.92,3.92Zm0-6.65c-1.51,0-2.73,1.23-2.73,2.73s1.23,2.73,2.73,2.73,2.73-1.23,2.73-2.73-1.23-2.73-2.73-2.73Z"/>
        <path class="cls-1" d="m12.06,42.49c-2.37,0-4.29-1.93-4.29-4.29s1.93-4.29,4.29-4.29,4.29,1.92,4.29,4.29-1.93,4.29-4.29,4.29Zm0-7.83c-1.95,0-3.54,1.59-3.54,3.54s1.59,3.54,3.54,3.54,3.54-1.59,3.54-3.54-1.59-3.54-3.54-3.54Zm0,6.65c-1.71,0-3.11-1.39-3.11-3.11s1.39-3.11,3.11-3.11,3.11,1.39,3.11,3.11-1.39,3.11-3.11,3.11Zm0-5.47c-1.3,0-2.36,1.06-2.36,2.36s1.06,2.36,2.36,2.36,2.36-1.06,2.36-2.36-1.06-2.36-2.36-2.36Z"/>
      </g>
    </g>
  </g>
  <g>
    <g>
      <path class="cls-1" d="m18.57,31.34c-.15,0-.3-.06-.42-.17-.23-.23-.23-.61,0-.84l3.79-3.79c.23-.23.61-.23.84,0,.23.23.23.61,0,.84l-3.79,3.79c-.12.12-.27.17-.42.17Z"/>
      <path class="cls-1" d="m18.57,31.72c-.26,0-.5-.1-.68-.28-.18-.18-.28-.43-.28-.69s.1-.5.28-.68l3.79-3.79c.18-.18.43-.28.68-.28h0c.26,0,.5.1.68.28.18.18.28.42.28.68s-.1.5-.28.68l-3.79,3.79c-.18.18-.43.28-.68.28Zm3.79-4.97c-.06,0-.11.02-.15.06l-3.79,3.79s-.06.1-.06.15.02.11.06.15c.08.08.22.08.31,0l3.79-3.79s.06-.1.06-.15-.02-.11-.06-.15c-.04-.04-.1-.06-.15-.06h0Z"/>
    </g>
    <g>
      <path class="cls-1" d="m40.49,31.34c-.15,0-.3-.06-.42-.17l-3.79-3.79c-.23-.23-.23-.61,0-.84.23-.23.61-.23.84,0l3.79,3.79c.23.23.23.61,0,.84-.12.12-.27.17-.42.17Z"/>
      <path class="cls-1" d="m40.49,31.72c-.26,0-.5-.1-.68-.28l-3.79-3.79c-.18-.18-.28-.43-.28-.68s.1-.5.28-.68c.18-.18.42-.28.68-.28h0c.26,0,.5.1.68.28l3.79,3.79c.18.18.28.42.28.68s-.1.5-.28.69c-.18.18-.43.28-.68.28Zm-3.79-4.97c-.06,0-.11.02-.15.06-.04.04-.06.1-.06.15s.02.11.06.15l3.79,3.79c.08.08.22.08.31,0,.04-.04.06-.1.06-.15s-.02-.11-.06-.15l-3.79-3.79s-.09-.06-.15-.06h0Z"/>
    </g>
  </g>
  <g>
    <path class="cls-1" d="m36.66,14.99h-14.27c-.18,0-.36-.09-.47-.23-.11-.15-.15-.34-.1-.52l1.38-5.01c.26-.96,1.15-1.64,2.15-1.64h8.36c1,0,1.88.67,2.15,1.64l1.38,5.01c.05.18.01.37-.1.52-.11.15-.29.23-.47.23Zm-13.49-1.18h12.71l-1.17-4.26c-.12-.45-.54-.77-1-.77h-8.36c-.47,0-.88.31-1,.77l-1.17,4.26Z"/>
    <path class="cls-1" d="m36.66,15.37h-14.27c-.3,0-.59-.14-.77-.38-.18-.24-.24-.55-.16-.84l1.38-5.01c.31-1.13,1.34-1.91,2.51-1.91h8.36c1.17,0,2.2.79,2.51,1.91l1.38,5.01c.08.29.02.6-.16.84-.18.24-.47.38-.77.38Zm-11.31-7.4c-.83,0-1.56.56-1.79,1.36l-1.38,5.01c-.02.06,0,.14.04.19.04.05.1.09.17.09h14.27c.07,0,.13-.03.17-.09.04-.05.05-.12.04-.19l-1.38-5.01c-.22-.8-.95-1.36-1.79-1.36h-8.36Zm11.03,6.21h-13.7l1.3-4.74c.17-.61.73-1.04,1.37-1.04h8.36c.64,0,1.2.43,1.37,1.04l1.3,4.74Zm-12.71-.75h11.73l-1.04-3.79c-.08-.29-.34-.49-.64-.49h-8.36c-.3,0-.56.2-.64.49l-1.04,3.79Z"/>
  </g>
</svg>