<?xml version="1.0" encoding="UTF-8"?>
<svg id="Layer_1" data-name="Layer 1" xmlns="http://www.w3.org/2000/svg" viewBox="0 0 60 60">
  <defs>
    <style>
      .cls-1 {
        fill: #37464c;
        stroke-width: 0px;
      }
    </style>
  </defs>
  <g>
    <path class="cls-1" d="m30,59.23c-1.6,0-2.9-1.3-2.9-2.9s1.3-2.9,2.9-2.9,2.9,1.3,2.9,2.9-1.3,2.9-2.9,2.9Zm0-4.1c-.66,0-1.2.54-1.2,1.2s.54,1.2,1.2,1.2,1.2-.54,1.2-1.2-.54-1.2-1.2-1.2Z"/>
    <path class="cls-1" d="m45.37,55.13c-1.6,0-2.9-1.3-2.9-2.9s1.3-2.9,2.9-2.9,2.9,1.3,2.9,2.9-1.3,2.9-2.9,2.9Zm0-4.1c-.66,0-1.2.54-1.2,1.2s.54,1.2,1.2,1.2,1.2-.54,1.2-1.2-.54-1.2-1.2-1.2Z"/>
    <path class="cls-1" d="m14.63,55.13c-1.6,0-2.9-1.3-2.9-2.9s1.3-2.9,2.9-2.9,2.9,1.3,2.9,2.9-1.3,2.9-2.9,2.9Zm0-4.1c-.66,0-1.2.54-1.2,1.2s.54,1.2,1.2,1.2,1.2-.54,1.2-1.2-.54-1.2-1.2-1.2Z"/>
    <path class="cls-1" d="m55.62,32.59c-1.6,0-2.9-1.3-2.9-2.9s1.3-2.9,2.9-2.9,2.9,1.3,2.9,2.9-1.3,2.9-2.9,2.9Zm0-4.1c-.66,0-1.2.54-1.2,1.2s.54,1.2,1.2,1.2,1.2-.54,1.2-1.2-.54-1.2-1.2-1.2Z"/>
    <path class="cls-1" d="m51.52,46.93c-1.6,0-2.9-1.3-2.9-2.9s1.3-2.9,2.9-2.9,2.9,1.3,2.9,2.9-1.3,2.9-2.9,2.9Zm0-4.1c-.66,0-1.2.54-1.2,1.2s.54,1.2,1.2,1.2,1.2-.54,1.2-1.2-.54-1.2-1.2-1.2Z"/>
    <path class="cls-1" d="m51.52,42.84c-.47,0-.85-.38-.85-.85v-5.3h-5.51c-.47,0-.85-.38-.85-.85s.38-.85.85-.85h6.36c.47,0,.85.38.85.85v6.15c0,.47-.38.85-.85.85Z"/>
    <path class="cls-1" d="m4.38,32.59c-1.6,0-2.9-1.3-2.9-2.9s1.3-2.9,2.9-2.9,2.9,1.3,2.9,2.9-1.3,2.9-2.9,2.9Zm0-4.1c-.66,0-1.2.54-1.2,1.2s.54,1.2,1.2,1.2,1.2-.54,1.2-1.2-.54-1.2-1.2-1.2Z"/>
    <path class="cls-1" d="m8.48,46.93c-1.6,0-2.9-1.3-2.9-2.9s1.3-2.9,2.9-2.9,2.9,1.3,2.9,2.9-1.3,2.9-2.9,2.9Zm0-4.1c-.66,0-1.2.54-1.2,1.2s.54,1.2,1.2,1.2,1.2-.54,1.2-1.2-.54-1.2-1.2-1.2Z"/>
    <path class="cls-1" d="m8.48,18.24c-1.6,0-2.9-1.3-2.9-2.9s1.3-2.9,2.9-2.9,2.9,1.3,2.9,2.9-1.3,2.9-2.9,2.9Zm0-4.1c-.66,0-1.2.54-1.2,1.2s.54,1.2,1.2,1.2,1.2-.54,1.2-1.2-.54-1.2-1.2-1.2Z"/>
    <path class="cls-1" d="m14.43,24.39h-5.96c-.47,0-.85-.38-.85-.85v-6.15c0-.47.38-.85.85-.85s.85.38.85.85v5.3h5.11c.47,0,.85.38.85.85s-.38.85-.85.85Z"/>
    <path class="cls-1" d="m53.57,30.54h-7.31c-.47,0-.85-.38-.85-.85s.38-.85.85-.85h7.31c.47,0,.85.38.85.85s-.38.85-.85.85Z"/>
    <path class="cls-1" d="m43.32,53.08h-6.15c-.47,0-.85-.38-.85-.85v-7.86c0-.47.38-.85.85-.85s.85.38.85.85v7.01h5.3c.47,0,.85.38.85.85s-.38.85-.85.85Z"/>
    <path class="cls-1" d="m14.43,30.54H6.43c-.47,0-.85-.38-.85-.85s.38-.85.85-.85h8c.47,0,.85.38.85.85s-.38.85-.85.85Z"/>
    <path class="cls-1" d="m30,55.13c-.47,0-.85-.38-.85-.85v-9.54c0-.47.38-.85.85-.85s.85.38.85.85v9.54c0,.47-.38.85-.85.85Z"/>
    <path class="cls-1" d="m8.48,42.84c-.47,0-.85-.38-.85-.85v-6.15c0-.47.38-.85.85-.85h7.21c.47,0,.85.38.85.85s-.38.85-.85.85h-6.36v5.3c0,.47-.38.85-.85.85Z"/>
    <path class="cls-1" d="m22.83,53.08h-6.15c-.47,0-.85-.38-.85-.85s.38-.85.85-.85h5.3v-8.58c0-.47.38-.85.85-.85s.85.38.85.85v9.43c0,.47-.38.85-.85.85Z"/>
    <path class="cls-1" d="m35.12,6.86c-1.6,0-2.9-1.3-2.9-2.9s1.3-2.9,2.9-2.9,2.9,1.3,2.9,2.9-1.3,2.9-2.9,2.9Zm0-4.1c-.66,0-1.2.54-1.2,1.2s.54,1.2,1.2,1.2,1.2-.54,1.2-1.2-.54-1.2-1.2-1.2Z"/>
    <path class="cls-1" d="m49.47,10.96c-1.6,0-2.9-1.3-2.9-2.9s1.3-2.9,2.9-2.9,2.9,1.3,2.9,2.9-1.3,2.9-2.9,2.9Zm0-4.1c-.66,0-1.2.54-1.2,1.2s.54,1.2,1.2,1.2,1.2-.54,1.2-1.2-.54-1.2-1.2-1.2Z"/>
    <path class="cls-1" d="m41.27,17.28c-.47,0-.85-.38-.85-.85v-8.37c0-.47.38-.85.85-.85h6.15c.47,0,.85.38.85.85s-.38.85-.85.85h-5.3v7.52c0,.47-.38.85-.85.85Z"/>
    <path class="cls-1" d="m35.12,14.17c-.47,0-.85-.38-.85-.85v-7.31c0-.47.38-.85.85-.85s.85.38.85.85v7.31c0,.47-.38.85-.85.85Z"/>
    <path class="cls-1" d="m15.6,11.46c-1.6,0-2.9-1.3-2.9-2.9s1.3-2.9,2.9-2.9,2.9,1.3,2.9,2.9-1.3,2.9-2.9,2.9Zm0-4.1c-.66,0-1.2.54-1.2,1.2s.54,1.2,1.2,1.2,1.2-.54,1.2-1.2-.54-1.2-1.2-1.2Z"/>
    <path class="cls-1" d="m23.8,15.33c-.47,0-.85-.38-.85-.85v-5.08h-5.3c-.47,0-.85-.38-.85-.85s.38-.85.85-.85h6.15c.47,0,.85.38.85.85v5.93c0,.47-.38.85-.85.85Z"/>
  </g>
  <path class="cls-1" d="m30.44,45.37c-9.27,0-16.82-7.54-16.82-16.82s7.54-16.82,16.82-16.82,16.82,7.54,16.82,16.82-7.54,16.82-16.82,16.82Zm0-31.63c-8.17,0-14.82,6.65-14.82,14.82s6.65,14.82,14.82,14.82,14.82-6.65,14.82-14.82-6.65-14.82-14.82-14.82Z"/>
</svg>