<?xml version="1.0" encoding="UTF-8"?>
<svg id="Layer_1" data-name="Layer 1" xmlns="http://www.w3.org/2000/svg" viewBox="0 0 60 60">
  <defs>
    <style>
      .cls-1 {
        fill: #37464c;
        stroke-width: 0px;
      }
    </style>
  </defs>
  <path class="cls-1" d="m24.01,50.18c-.27,0-.52-.11-.71-.29L5.39,31.99c-.19-.19-.29-.44-.29-.71s.11-.52.29-.71l7.67-7.67c.39-.39,1.02-.39,1.41,0l9.52,9.52,22.31-22.31c.38-.38,1.04-.38,1.41,0l7.67,7.67c.39.39.39,1.02,0,1.41l-30.69,30.69c-.19.19-.44.29-.71.29ZM7.52,31.28l16.49,16.49,29.28-29.28-6.26-6.26-22.31,22.31c-.39.39-1.02.39-1.41,0l-9.52-9.52-6.26,6.26Z"/>
</svg>