<?xml version="1.0" encoding="UTF-8"?>
<svg id="Layer_1" data-name="Layer 1" xmlns="http://www.w3.org/2000/svg" viewBox="0 0 60 60">
  <defs>
    <style>
      .cls-1 {
        fill: #37464c;
        stroke-width: 0px;
      }
    </style>
  </defs>
  <path class="cls-1" d="m51,18H5c-.55,0-1-.45-1-1s.45-1,1-1h46c.55,0,1,.45,1,1s-.45,1-1,1Z"/>
  <path class="cls-1" d="m9,14c-.26,0-.52-.11-.71-.29-.18-.19-.29-.45-.29-.71s.11-.52.29-.71c.1-.09.2-.16.33-.21.36-.15.81-.07,1.09.21.18.19.29.45.29.71s-.11.52-.29.71c-.19.18-.45.29-.71.29Z"/>
  <path class="cls-1" d="m13,14c-.06,0-.13-.01-.2-.02-.06-.01-.12-.03-.18-.06-.06-.02-.12-.05-.18-.09-.05-.04-.1-.08-.15-.12-.18-.19-.29-.45-.29-.71s.11-.52.29-.71c.37-.37,1.04-.37,1.42,0,.18.19.29.45.29.71s-.11.52-.29.71c-.19.18-.45.29-.71.29Z"/>
  <path class="cls-1" d="m17,14c-.26,0-.52-.11-.71-.29-.18-.19-.29-.45-.29-.71s.11-.52.29-.71c.1-.09.21-.16.33-.21.37-.16.81-.07,1.09.21.18.19.29.45.29.71s-.11.52-.29.71c-.19.18-.45.29-.71.29Z"/>
  <path class="cls-1" d="m51,52H9c-2.76,0-5-2.24-5-5V13c0-2.76,2.24-5,5-5h42c2.76,0,5,2.24,5,5v34c0,2.76-2.24,5-5,5ZM9,10c-1.65,0-3,1.35-3,3v34c0,1.65,1.35,3,3,3h42c1.65,0,3-1.35,3-3V13c0-1.65-1.35-3-3-3H9Z"/>
  <path class="cls-1" d="m35.73,44c-.26,0-.51-.1-.71-.29l-4.85-4.85-1.71,3.99c-.16.38-.52.64-.94.61-.41,0-.77-.27-.91-.65l-6.55-17.45c-.14-.37-.05-.78.23-1.06s.69-.37,1.06-.23l17.45,6.55c.38.14.64.51.65.91,0,.41-.23.78-.61.94l-3.99,1.71,4.85,4.85c.39.39.39,1.02,0,1.41l-3.27,3.27c-.2.2-.45.29-.71.29Zm-5.89-7.89c.26,0,.52.1.71.29l5.18,5.18,1.86-1.86-5.18-5.18c-.23-.23-.34-.57-.27-.9.06-.33.28-.6.59-.73l3.06-1.31-13.06-4.9,4.9,13.06,1.31-3.06c.13-.3.4-.53.73-.59.06-.01.13-.02.19-.02Z"/>
</svg>