<?xml version="1.0" encoding="UTF-8"?>
<svg id="Layer_1" data-name="Layer 1" xmlns="http://www.w3.org/2000/svg" viewBox="0 0 60 60">
  <defs>
    <style>
      .cls-1 {
        fill: #37464c;
        stroke-width: 0px;
      }
    </style>
  </defs>
  <g>
    <g>
      <g>
        <path class="cls-1" d="m43.88,39.41c-.2,0-.39-.1-.51-.28-.18-.28-.1-.66.18-.84,2.77-1.79,4.43-4.83,4.43-8.12,0-5.33-4.34-9.67-9.68-9.67-3.64,0-6.94,2.01-8.61,5.24-.15.3-.52.42-.82.26-.3-.15-.41-.52-.26-.82,1.88-3.64,5.59-5.9,9.69-5.9,6.01,0,10.9,4.88,10.9,10.88,0,3.71-1.86,7.12-4.98,9.14-.1.07-.22.1-.33.1Z"/>
        <path class="cls-1" d="m43.88,39.79c-.33,0-.64-.17-.83-.45-.29-.46-.16-1.06.29-1.36,2.66-1.72,4.25-4.64,4.25-7.81,0-5.12-4.18-9.29-9.31-9.29-3.5,0-6.67,1.93-8.28,5.04-.12.23-.33.41-.58.49-.25.08-.52.06-.75-.06-.23-.12-.4-.32-.48-.57-.08-.25-.06-.52.06-.75,1.94-3.76,5.78-6.1,10.02-6.1,6.21,0,11.27,5.05,11.27,11.26,0,3.83-1.93,7.37-5.15,9.45-.16.1-.34.16-.53.16Zm-5.59-19.66c5.55,0,10.06,4.51,10.06,10.04,0,3.42-1.72,6.57-4.6,8.43-.11.07-.14.21-.07.32.06.09.16.18.32.07,3.01-1.95,4.81-5.25,4.81-8.83,0-5.79-4.72-10.51-10.52-10.51-3.96,0-7.54,2.18-9.36,5.69-.03.06-.03.12-.01.18.02.06.06.11.11.14.06.03.12.03.18.02.06-.02.11-.06.14-.11,1.74-3.36,5.16-5.44,8.94-5.44Z"/>
      </g>
      <g>
        <path class="cls-1" d="m38.29,17.17c-.34,0-.61-.27-.61-.61v-5.72c0-.34.27-.61.61-.61s.61.27.61.61v5.72c0,.34-.27.61-.61.61Z"/>
        <path class="cls-1" d="m38.29,17.54c-.54,0-.98-.44-.98-.98v-5.72c0-.54.44-.98.98-.98s.98.44.98.98v5.72c0,.54-.44.98-.98.98Zm0-6.93c-.13,0-.23.1-.23.23v5.72c0,.26.46.26.46,0v-5.72c0-.13-.1-.23-.23-.23Z"/>
      </g>
      <g>
        <path class="cls-1" d="m47.93,21.15c-.16,0-.31-.06-.43-.18-.24-.24-.24-.62,0-.86l4.05-4.05c.24-.24.62-.24.86,0,.24.24.24.62,0,.86l-4.05,4.05c-.12.12-.27.18-.43.18Z"/>
        <path class="cls-1" d="m47.93,21.53c-.26,0-.51-.1-.69-.29-.38-.39-.38-1.01,0-1.39l4.05-4.04c.38-.38,1-.38,1.39,0,.18.19.29.43.29.7,0,.26-.1.51-.29.69l-4.05,4.04c-.18.18-.43.29-.69.29Zm4.05-5.26c-.06,0-.12.02-.16.07l-4.05,4.04c-.09.09-.09.24,0,.33.09.09.24.09.33,0l4.05-4.04s.07-.1.07-.16-.02-.12-.07-.17-.1-.07-.16-.07Z"/>
      </g>
      <g>
        <path class="cls-1" d="m57.65,30.78h-5.73c-.34,0-.61-.27-.61-.61s.27-.61.61-.61h5.73c.34,0,.61.27.61.61s-.27.61-.61.61Z"/>
        <path class="cls-1" d="m57.65,31.15h-5.73c-.54,0-.98-.44-.98-.98s.44-.98.98-.98h5.73c.54,0,.98.44.98.98s-.44.98-.98.98Zm-5.73-1.21c-.13,0-.23.1-.23.23s.1.23.23.23h5.73c.13,0,.23-.1.23-.23s-.1-.23-.23-.23h-5.73Z"/>
      </g>
      <g>
        <g>
          <path class="cls-1" d="m51.98,44.45c-.16,0-.31-.06-.43-.18l-4.05-4.05c-.24-.24-.24-.62,0-.86.24-.24.62-.24.86,0l4.05,4.05c.24.24.24.62,0,.86-.12.12-.27.18-.43.18Z"/>
          <path class="cls-1" d="m51.98,44.83c-.26,0-.51-.1-.69-.29l-4.05-4.05c-.19-.18-.29-.43-.29-.69,0-.26.1-.51.29-.7.19-.19.43-.29.69-.29h0c.26,0,.51.1.69.29l4.05,4.05c.19.18.29.43.29.69,0,.26-.1.51-.29.7s-.43.29-.7.29Zm-4.05-5.26h0c-.06,0-.12.02-.16.07s-.07.1-.07.16.02.12.07.16l4.05,4.05c.09.09.24.09.33,0,.04-.04.07-.1.07-.17s-.02-.12-.07-.16l-4.05-4.05s-.1-.07-.16-.07Z"/>
        </g>
        <g>
          <path class="cls-1" d="m28.65,21.15c-.16,0-.31-.06-.43-.18l-4.05-4.05c-.24-.24-.24-.62,0-.86.24-.24.62-.24.86,0l4.05,4.05c.24.24.24.62,0,.86-.12.12-.27.18-.43.18Z"/>
          <path class="cls-1" d="m28.65,21.53c-.26,0-.51-.1-.69-.29l-4.05-4.04c-.19-.18-.29-.43-.29-.69,0-.26.1-.51.29-.69.38-.38,1-.38,1.39,0l4.05,4.04c.38.38.38,1,0,1.39-.19.19-.43.29-.7.29Zm-4.05-5.26c-.06,0-.12.02-.16.07-.04.04-.07.1-.07.16s.02.12.07.16l4.05,4.04c.09.09.24.09.33,0s.09-.24,0-.33l-4.05-4.04s-.11-.07-.17-.07Z"/>
        </g>
      </g>
    </g>
    <g>
      <path class="cls-1" d="m36.92,50.52c-.34,0-.61-.27-.61-.61s.27-.61.61-.61c3.84,0,6.96-3.12,6.96-6.95s-3.12-6.95-6.96-6.95h-1.87c-.34,0-.61-.27-.61-.61,0-5.14-4.18-9.31-9.33-9.31s-9.33,4.18-9.33,9.31c0,.34-.27.61-.61.61h-1.87c-3.84,0-6.96,3.12-6.96,6.95s3.12,6.95,6.96,6.95c.34,0,.61.27.61.61s-.27.61-.61.61c-4.51,0-8.17-3.66-8.17-8.16s3.67-8.16,8.17-8.16h1.28c.32-5.52,4.92-9.92,10.52-9.92s10.21,4.4,10.52,9.92h1.28c4.51,0,8.17,3.66,8.17,8.16s-3.67,8.16-8.17,8.16Z"/>
      <path class="cls-1" d="m36.92,50.89c-.54,0-.98-.44-.98-.98s.44-.98.98-.98c3.63,0,6.58-2.95,6.58-6.57s-2.95-6.57-6.58-6.57h-1.87c-.54,0-.98-.44-.98-.98,0-4.93-4.02-8.94-8.95-8.94s-8.95,4.01-8.95,8.94c0,.54-.44.98-.98.98h-1.87c-3.63,0-6.58,2.95-6.58,6.57s2.95,6.57,6.58,6.57c.54,0,.98.44.98.98s-.44.98-.98.98c-4.71,0-8.54-3.83-8.54-8.53s3.83-8.54,8.54-8.54h.93c.5-5.59,5.21-9.92,10.87-9.92s10.37,4.33,10.87,9.92h.93c4.71,0,8.54,3.83,8.54,8.54s-3.83,8.53-8.54,8.53Zm-11.8-25.78c5.35,0,9.7,4.35,9.7,9.69,0,.13.1.23.23.23h1.87c4.04,0,7.33,3.28,7.33,7.32s-3.29,7.32-7.33,7.32c-.13,0-.23.1-.23.23s.1.23.23.23c4.3,0,7.79-3.49,7.79-7.78s-3.5-7.79-7.79-7.79h-1.63l-.02-.35c-.31-5.36-4.77-9.57-10.15-9.57s-9.84,4.2-10.15,9.57l-.02.35h-1.63c-4.3,0-7.79,3.49-7.79,7.79s3.5,7.78,7.79,7.78c.13,0,.23-.1.23-.23s-.1-.23-.23-.23c-4.04,0-7.33-3.28-7.33-7.32s3.29-7.32,7.33-7.32h1.87c.13,0,.23-.1.23-.23,0-5.34,4.35-9.69,9.7-9.69Z"/>
    </g>
  </g>
  <path class="cls-1" d="m27.97,54.8c-7.77,0-15.64-1.89-15.64-5.5h2c0,1.19,4.82,3.5,13.64,3.5v2Z"/>
  <path class="cls-1" d="m27.97,54.8v-2c4.69,0,7.96-1.84,7.96-3.5h2c0,3.08-4.37,5.5-9.96,5.5Z"/>
</svg>