<?xml version="1.0" encoding="UTF-8"?>
<svg id="Layer_1" data-name="Layer 1" xmlns="http://www.w3.org/2000/svg" viewBox="0 0 60 60">
  <defs>
    <style>
      .cls-1 {
        fill: #37464c;
        stroke-width: 0px;
      }
    </style>
  </defs>
  <path class="cls-1" d="m20,55.79c-1.65,0-3-1.35-3-3s1.35-3,3-3,3,1.35,3,3-1.35,3-3,3Zm0-4c-.55,0-1,.45-1,1s.45,1,1,1,1-.45,1-1-.45-1-1-1Z"/>
  <path class="cls-1" d="m12,47.79c-1.65,0-3-1.35-3-3s1.35-3,3-3,3,1.35,3,3-1.35,3-3,3Zm0-4c-.55,0-1,.45-1,1s.45,1,1,1,1-.45,1-1-.45-1-1-1Z"/>
  <path class="cls-1" d="m13,33.79c-1.65,0-3-1.35-3-3s1.35-3,3-3,3,1.35,3,3-1.35,3-3,3Zm0-4c-.55,0-1,.45-1,1s.45,1,1,1,1-.45,1-1-.45-1-1-1Z"/>
  <path class="cls-1" d="m45,25.79c-1.65,0-3-1.35-3-3s1.35-3,3-3,3,1.35,3,3-1.35,3-3,3Zm0-4c-.55,0-1,.45-1,1s.45,1,1,1,1-.45,1-1-.45-1-1-1Z"/>
  <path class="cls-1" d="m48,47.79c-1.65,0-3-1.35-3-3s1.35-3,3-3,3,1.35,3,3-1.35,3-3,3Zm0-4c-.55,0-1,.45-1,1s.45,1,1,1,1-.45,1-1-.45-1-1-1Z"/>
  <path class="cls-1" d="m41,15.79c-1.65,0-3-1.35-3-3s1.35-3,3-3,3,1.35,3,3-1.35,3-3,3Zm0-4c-.55,0-1,.45-1,1s.45,1,1,1,1-.45,1-1-.45-1-1-1Z"/>
  <path class="cls-1" d="m19,23.79c-1.65,0-3-1.35-3-3s1.35-3,3-3,3,1.35,3,3-1.35,3-3,3Zm0-4c-.55,0-1,.45-1,1s.45,1,1,1,1-.45,1-1-.45-1-1-1Z"/>
  <path class="cls-1" d="m46,45.79h-13c-.55,0-1-.45-1-1v-8c0-.55.45-1,1-1s1,.45,1,1v7h12c.55,0,1,.45,1,1s-.45,1-1,1Z"/>
  <g>
    <path class="cls-1" d="m14,45.79c-.26,0-.52-.11-.71-.29-.09-.1-.16-.21-.21-.33-.06-.12-.08-.25-.08-.38s.02-.26.08-.38c.05-.13.12-.24.21-.33.1-.09.21-.16.33-.22.37-.15.81-.06,1.09.22.18.19.29.45.29.71s-.11.52-.29.71c-.05.04-.1.08-.16.12-.05.04-.11.07-.17.09-.06.03-.12.05-.19.06-.06,0-.13.02-.19.02Z"/>
    <path class="cls-1" d="m13,44.79c0-.55.45-1,1-1h0c.55,0,1,.45,1,1h0c0,.55-.45,1-1,1h0c-.55,0-1-.45-1-1Z"/>
    <path class="cls-1" d="m20.33,44.79c0-.55.45-1,1-1h0c.55,0,1,.45,1,1h0c0,.55-.45,1-1,1h0c-.55,0-1-.45-1-1Zm-3.66,0c0-.55.44-1,1-1h0c.55,0,1,.45,1,1h0c0,.55-.45,1-1,1h0c-.56,0-1-.45-1-1Z"/>
    <path class="cls-1" d="m25,45.79c-.07,0-.13-.01-.2-.02-.06-.01-.12-.03-.18-.06-.06-.02-.12-.05-.18-.09-.05-.04-.1-.08-.15-.12-.09-.1-.16-.21-.21-.33-.06-.12-.08-.25-.08-.38,0-.27.11-.52.29-.71.23-.23.58-.34.9-.27.07,0,.13.03.19.05.06.03.12.06.18.1.05.03.1.07.15.12.18.19.29.45.29.71,0,.13-.02.26-.08.38-.05.12-.12.23-.21.33-.05.04-.1.08-.15.12-.06.04-.12.07-.18.09-.06.03-.12.05-.19.06-.06,0-.13.02-.19.02Z"/>
    <path class="cls-1" d="m24,44.79c0-.55.45-1,1-1h0c.55,0,1,.45,1,1h0c0,.55-.45,1-1,1h0c-.55,0-1-.45-1-1Z"/>
    <path class="cls-1" d="m24,40.79c0-.55.45-1,1-1h0c.55,0,1,.45,1,1h0c0,.55-.45,1-1,1h0c-.55,0-1-.45-1-1Z"/>
    <path class="cls-1" d="m25,37.79c-.07,0-.13-.01-.2-.02-.06-.01-.12-.03-.18-.06-.06-.02-.12-.05-.18-.09-.05-.04-.1-.08-.15-.12-.09-.1-.16-.21-.21-.33-.06-.12-.08-.25-.08-.38,0-.27.11-.52.29-.71.23-.23.58-.34.9-.27.07,0,.13.03.19.05.06.03.12.06.18.1.05.03.1.07.15.12.18.19.29.45.29.71,0,.13-.02.26-.08.38-.05.12-.12.23-.21.33-.05.04-.1.08-.15.12-.06.04-.12.07-.18.09-.06.03-.12.05-.19.06-.06,0-.13.02-.19.02Z"/>
  </g>
  <path class="cls-1" d="m39,55.79c-1.65,0-3-1.35-3-3s1.35-3,3-3,3,1.35,3,3-1.35,3-3,3Zm0-4c-.55,0-1,.45-1,1s.45,1,1,1,1-.45,1-1-.45-1-1-1Z"/>
  <path class="cls-1" d="m45.74,37.79h-6.74c-.55,0-1-.45-1-1s.45-1,1-1h6.74c4.55,0,8.26-3.77,8.26-8.41,0-3.4-1.99-6.45-5.07-7.76-.41-.18-.66-.61-.6-1.05.08-.59.12-1.08.12-1.54,0-6.19-4.95-11.23-11.04-11.23-4.8,0-9.02,3.13-10.49,7.8-.09.3-.32.54-.62.64-.3.1-.62.06-.89-.11-1.31-.87-2.84-1.33-4.41-1.33-4.41,0-8,3.59-8,8,0,.5-.37,1-.87,1.06-3.49.44-6.13,3.42-6.13,6.94,0,3.86,3.14,7,7,7h6c.55,0,1,.45,1,1s-.45,1-1,1h-6c-4.96,0-9-4.04-9-9,0-4.24,2.97-7.87,7.03-8.78.4-5.15,4.72-9.22,9.97-9.22,1.55,0,3.06.36,4.44,1.04,2.03-4.85,6.7-8.04,11.97-8.04,7.19,0,13.04,5.94,13.04,13.23,0,.34-.02.7-.05,1.07,3.43,1.77,5.61,5.33,5.61,9.28,0,5.74-4.6,10.41-10.26,10.41Z"/>
  <path class="cls-1" d="m34,37.79h-10c-1.1,0-2-.9-2-2v-10c0-1.1.9-2,2-2h10c1.1,0,2,.9,2,2v10c0,1.1-.9,2-2,2Zm-10-12v10h10v-10h-10Z"/>
  <path class="cls-1" d="m27,25.79c-.55,0-1-.45-1-1v-3h-5c-.55,0-1-.45-1-1s.45-1,1-1h6c.55,0,1,.45,1,1v4c0,.55-.45,1-1,1Z"/>
  <path class="cls-1" d="m45,29.79h-10c-.55,0-1-.45-1-1s.45-1,1-1h9v-3c0-.55.45-1,1-1s1,.45,1,1v4c0,.55-.45,1-1,1Z"/>
  <g>
    <path class="cls-1" d="m33,25.79c-.26,0-.52-.11-.71-.29-.18-.19-.29-.45-.29-.71,0-.13.02-.26.08-.38.05-.13.12-.24.21-.33.09-.09.2-.16.33-.21.37-.16.81-.07,1.09.21.09.09.16.2.21.33.05.12.08.25.08.38,0,.26-.11.52-.29.71-.19.18-.45.29-.71.29Z"/>
    <path class="cls-1" d="m32,24.79c0-.56.45-1,1-1h0c.55,0,1,.44,1,1h0c0,.55-.45,1-1,1h0c-.55,0-1-.45-1-1Z"/>
    <path class="cls-1" d="m32,20.79c0-.55.45-1,1-1h0c.55,0,1,.45,1,1h0c0,.55-.45,1-1,1h0c-.55,0-1-.45-1-1Zm0-4c0-.55.45-1,1-1h0c.55,0,1,.45,1,1h0c0,.55-.45,1-1,1h0c-.55,0-1-.45-1-1Z"/>
    <path class="cls-1" d="m33,13.79c-.26,0-.52-.11-.71-.29-.18-.19-.29-.45-.29-.71s.11-.52.29-.71c.38-.37,1.04-.37,1.42,0,.18.19.29.45.29.71s-.11.52-.29.71c-.19.18-.45.29-.71.29Z"/>
    <path class="cls-1" d="m32,12.79c0-.55.45-1,1-1h0c.55,0,1,.45,1,1h0c0,.55-.45,1-1,1h0c-.55,0-1-.45-1-1Z"/>
    <path class="cls-1" d="m35,12.79c0-.55.45-1,1-1h0c.55,0,1,.45,1,1h0c0,.55-.45,1-1,1h0c-.55,0-1-.45-1-1Z"/>
    <path class="cls-1" d="m39,13.79c-.27,0-.52-.11-.71-.29-.09-.1-.16-.21-.21-.33s-.08-.25-.08-.38c0-.26.11-.52.29-.71.37-.37,1.05-.37,1.42,0,.18.19.29.45.29.71,0,.13-.02.26-.08.38-.05.12-.12.23-.21.33-.19.18-.44.29-.71.29Z"/>
  </g>
  <path class="cls-1" d="m23,31.79h-8c-.55,0-1-.45-1-1s.45-1,1-1h8c.55,0,1,.45,1,1s-.45,1-1,1Z"/>
  <path class="cls-1" d="m46,32.79c0-.55.45-1,1-1h0c.55,0,1,.45,1,1h0c0,.55-.45,1-1,1h0c-.55,0-1-.45-1-1Zm-4,0c0-.55.45-1,1-1h0c.55,0,1,.45,1,1h0c0,.55-.45,1-1,1h0c-.55,0-1-.45-1-1Zm-4,0c0-.55.45-1,1-1h0c.55,0,1,.45,1,1h0c0,.55-.45,1-1,1h0c-.55,0-1-.45-1-1Zm-4,0c0-.55.45-1,1-1h0c.55,0,1,.45,1,1h0c0,.55-.45,1-1,1h0c-.55,0-1-.45-1-1Z"/>
  <path class="cls-1" d="m29,53.79h-7c-.55,0-1-.45-1-1s.45-1,1-1h6v-15c0-.55.45-1,1-1s1,.45,1,1v16c0,.55-.45,1-1,1Z"/>
  <path class="cls-1" d="m36,52.79c0-.55.45-1,1-1h0c.55,0,1,.45,1,1h0c0,.55-.45,1-1,1h0c-.55,0-1-.45-1-1Zm-4,0c0-.55.45-1,1-1h0c.55,0,1,.45,1,1h0c0,.55-.45,1-1,1h0c-.55,0-1-.45-1-1Zm-4,0c0-.55.45-1,1-1h0c.55,0,1,.45,1,1h0c0,.55-.45,1-1,1h0c-.55,0-1-.45-1-1Z"/>
</svg>