<?xml version="1.0" encoding="UTF-8"?>
<svg id="Layer_1" data-name="Layer 1" xmlns="http://www.w3.org/2000/svg" viewBox="0 0 60 60">
  <defs>
    <style>
      .cls-1 {
        fill: #37464c;
        stroke-width: 0px;
      }
    </style>
  </defs>
  <g>
    <path class="cls-1" d="m12.79,43.16c-.55,0-1-.45-1-1V7.34c0-2.42.94-4.87,2.72-4.87h13.8c.55,0,1,.45,1,1s-.45,1-1,1h-13.8c-.16.11-.72,1.1-.72,2.87v34.81c0,.55-.45,1-1,1Z"/>
    <path class="cls-1" d="m27.58,48.84h-7.74c-.55,0-1-.45-1-1s.45-1,1-1h7.74c.55,0,1,.45,1,1s-.45,1-1,1Z"/>
    <path class="cls-1" d="m45.66,58.31c-.24,0-.49-.09-.68-.26l-1.83-1.68c-.21-.19-.32-.46-.32-.74s.12-.55.32-.74l10.04-9.26c.38-.35.97-.35,1.36,0l1.83,1.68c.41.38.43,1.01.06,1.41-.38.41-1.01.43-1.41.06l-1.15-1.06-8.57,7.9,1.03.95c.41.38.43,1.01.06,1.41-.2.21-.47.32-.74.32Z"/>
    <path class="cls-1" d="m52.91,48.01c-.44,0-.85-.29-.96-.74l-2.58-9.63c-.19-.72-.91-1.22-1.75-1.22h-1.05c-.55,0-1-.45-1-1s.45-1,1-1h1.05c1.74,0,3.25,1.11,3.68,2.7l2.58,9.63c.14.53-.17,1.08-.71,1.22-.09.02-.17.03-.26.03Z"/>
    <path class="cls-1" d="m39.34,48.84h-11.15c-.55,0-1-.45-1-1s.45-1,1-1h11.15c.55,0,1,.45,1,1s-.45,1-1,1Z"/>
    <path class="cls-1" d="m45.66,43.16c-.55,0-1-.45-1-1V7.34c0-1.77-.57-2.76-.8-2.88h-15.55c-.55.01-1-.44-1-.99s.45-1,1-1h15.61c1.79,0,2.73,2.45,2.73,4.87v34.81c0,.55-.45,1-1,1Z"/>
    <path class="cls-1" d="m45.66,54.94c-4.16,0-6.82-4.04-7.3-6.77-.06-.35-.22-.65-.47-.87l-3.11-2.87c-.7-.64-1.08-1.5-1.08-2.42,0-.92.38-1.78,1.08-2.42,1.38-1.27,3.63-1.27,5.01,0l3.35,3.09c.23.21.56.28.88.19.13-.04.45-.16.54-.5l.13-.48c.14-.53.69-.85,1.23-.7.53.14.85.69.7,1.23l-.13.48c-.25.91-.96,1.62-1.91,1.9-.98.28-2.05.04-2.79-.64l-3.35-3.09c-.62-.57-1.67-.57-2.3,0-.28.26-.43.59-.43.95s.15.69.43.95l3.11,2.87c.57.52.94,1.21,1.08,2,.37,2.09,2.48,5.12,5.33,5.12.55,0,1,.45,1,1s-.45,1-1,1Z"/>
    <path class="cls-1" d="m12.79,58.31c-.27,0-.54-.11-.74-.32-.37-.41-.35-1.04.06-1.41l1.03-.95-8.57-7.9-1.15,1.06c-.41.37-1.04.35-1.41-.06-.37-.41-.35-1.04.06-1.41l1.83-1.68c.38-.35.97-.35,1.36,0l10.04,9.26c.21.19.32.46.32.74s-.12.55-.32.74l-1.83,1.68c-.19.18-.43.26-.68.26Z"/>
    <path class="cls-1" d="m5.54,48.01c-.09,0-.17-.01-.26-.03-.53-.14-.85-.69-.71-1.22l2.58-9.63c.43-1.59,1.94-2.7,3.68-2.7h1.05c.55,0,1,.45,1,1s-.45,1-1,1h-1.05c-.84,0-1.56.5-1.75,1.22l-2.58,9.63c-.12.45-.52.74-.96.74Z"/>
    <path class="cls-1" d="m12.79,54.94c-.55,0-1-.45-1-1s.45-1,1-1c2.85,0,4.96-3.03,5.33-5.12.14-.78.51-1.47,1.08-1.99l3.11-2.87c.28-.26.43-.6.43-.95s-.15-.69-.43-.95c-.62-.57-1.67-.57-2.3,0l-3.35,3.09c-.74.68-1.81.92-2.79.64-.95-.27-1.67-.98-1.91-1.9l-.13-.48c-.14-.53.17-1.08.7-1.23.53-.15,1.08.17,1.23.7l.13.48c.09.34.41.46.54.5.32.09.65.02.88-.19l3.35-3.09c1.38-1.27,3.63-1.27,5.01,0,.69.64,1.08,1.5,1.08,2.42,0,.92-.38,1.78-1.08,2.42l-3.11,2.87c-.24.22-.4.53-.47.87-.48,2.73-3.14,6.77-7.3,6.77Z"/>
  </g>
  <path class="cls-1" d="m39.11,34.44h-19.76c-.39,0-.7-.31-.7-.7s.31-.7.7-.7h19.76c.39,0,.7.31.7.7s-.31.7-.7.7Z"/>
  <path class="cls-1" d="m38.96,37.23h-14.65c-.39,0-.7-.31-.7-.7s.31-.7.7-.7h14.65c.39,0,.7.31.7.7s-.31.7-.7.7Z"/>
  <path class="cls-1" d="m21.58,37.23h-2.23c-.39,0-.7-.31-.7-.7s.31-.7.7-.7h2.23c.39,0,.7.31.7.7s-.31.7-.7.7Z"/>
  <path class="cls-1" d="m33.03,40.33h-7.62c-.39,0-.7-.31-.7-.7s.31-.7.7-.7h7.62c.39,0,.7.31.7.7s-.31.7-.7.7Z"/>
  <g>
    <path class="cls-1" d="m27.67,24.65c-.17,0-.33-.06-.46-.19l-3.89-3.89c-.25-.25-.25-.67,0-.92l1.56-1.56c.25-.25.67-.25.92,0l1.88,1.88,4.99-4.99c.25-.25.67-.25.92,0l1.56,1.56c.25.25.25.67,0,.92l-7.01,7.01c-.13.13-.29.19-.46.19Zm-2.97-4.54l2.97,2.97,6.09-6.09-.64-.64-4.99,4.99c-.25.25-.67.25-.92,0l-1.88-1.88-.64.64Z"/>
    <path class="cls-1" d="m29.23,30.25c-5.81,0-10.53-4.73-10.53-10.53s4.73-10.53,10.53-10.53,10.53,4.73,10.53,10.53-4.73,10.53-10.53,10.53Zm0-19.47c-4.93,0-8.93,4.01-8.93,8.93s4.01,8.93,8.93,8.93,8.93-4.01,8.93-8.93-4.01-8.93-8.93-8.93Z"/>
  </g>
</svg>