<?xml version="1.0" encoding="UTF-8"?>
<svg id="Layer_1" data-name="Layer 1" xmlns="http://www.w3.org/2000/svg" viewBox="0 0 60 60">
  <defs>
    <style>
      .cls-1 {
        fill: #37464c;
        stroke-width: 0px;
      }
    </style>
  </defs>
  <path class="cls-1" d="m29.66,11.1c-2.21,0-4.01-1.8-4.01-4.01s1.8-4.01,4.01-4.01,4.01,1.8,4.01,4.01-1.8,4.01-4.01,4.01Zm0-7.01c-1.66,0-3.01,1.35-3.01,3.01s1.35,3.01,3.01,3.01,3.01-1.35,3.01-3.01-1.35-3.01-3.01-3.01Z"/>
  <path class="cls-1" d="m29.66,11.6c-2.49,0-4.51-2.02-4.51-4.51s2.02-4.51,4.51-4.51,4.51,2.02,4.51,4.51-2.02,4.51-4.51,4.51Zm0-7.01c-1.38,0-2.51,1.12-2.51,2.51s1.12,2.51,2.51,2.51,2.51-1.12,2.51-2.51-1.12-2.51-2.51-2.51Z"/>
  <path class="cls-1" d="m37.15,20.32h-1v-4.18c0-1.21-.99-2.2-2.2-2.2h-8.58c-1.21,0-2.2.99-2.2,2.2v4.18h-1v-4.18c0-1.77,1.44-3.2,3.2-3.2h8.58c1.77,0,3.2,1.44,3.2,3.2v4.18Z"/>
  <path class="cls-1" d="m36.65,21.32c-.55,0-1-.45-1-1v-4.18c0-.94-.76-1.7-1.7-1.7h-8.58c-.94,0-1.7.76-1.7,1.7v4.18c0,.55-.45,1-1,1s-1-.45-1-1v-4.18c0-2.04,1.66-3.7,3.7-3.7h8.58c2.04,0,3.7,1.66,3.7,3.7v4.18c0,.55-.45,1-1,1Z"/>
  <path class="cls-1" d="m29.66,46.48c-2.21,0-4.01-1.8-4.01-4.01s1.8-4.01,4.01-4.01,4.01,1.8,4.01,4.01-1.8,4.01-4.01,4.01Zm0-7.01c-1.66,0-3.01,1.35-3.01,3.01s1.35,3.01,3.01,3.01,3.01-1.35,3.01-3.01-1.35-3.01-3.01-3.01Z"/>
  <path class="cls-1" d="m29.66,46.98c-2.49,0-4.51-2.02-4.51-4.51s2.02-4.51,4.51-4.51,4.51,2.02,4.51,4.51-2.02,4.51-4.51,4.51Zm0-7.01c-1.38,0-2.51,1.12-2.51,2.51s1.12,2.51,2.51,2.51,2.51-1.12,2.51-2.51-1.12-2.51-2.51-2.51Z"/>
  <path class="cls-1" d="m37.15,55.7h-1v-4.18c0-1.21-.99-2.2-2.2-2.2h-8.58c-1.21,0-2.2.99-2.2,2.2v4.18h-1v-4.18c0-1.77,1.44-3.2,3.2-3.2h8.58c1.77,0,3.2,1.44,3.2,3.2v4.18Z"/>
  <path class="cls-1" d="m36.65,56.7c-.55,0-1-.45-1-1v-4.18c0-.94-.76-1.7-1.7-1.7h-8.58c-.94,0-1.7.76-1.7,1.7v4.18c0,.55-.45,1-1,1s-1-.45-1-1v-4.18c0-2.04,1.66-3.7,3.7-3.7h8.58c2.04,0,3.7,1.66,3.7,3.7v4.18c0,.55-.45,1-1,1Z"/>
  <path class="cls-1" d="m10.96,46.48c-2.21,0-4.01-1.8-4.01-4.01s1.8-4.01,4.01-4.01,4.01,1.8,4.01,4.01-1.8,4.01-4.01,4.01Zm0-7.01c-1.66,0-3.01,1.35-3.01,3.01s1.35,3.01,3.01,3.01,3.01-1.35,3.01-3.01-1.35-3.01-3.01-3.01Z"/>
  <path class="cls-1" d="m10.96,46.98c-2.48,0-4.51-2.02-4.51-4.51s2.02-4.51,4.51-4.51,4.51,2.02,4.51,4.51-2.02,4.51-4.51,4.51Zm0-7.01c-1.38,0-2.51,1.12-2.51,2.51s1.12,2.51,2.51,2.51,2.51-1.12,2.51-2.51-1.12-2.51-2.51-2.51Z"/>
  <path class="cls-1" d="m18.45,55.7h-1v-4.18c0-1.21-.99-2.2-2.2-2.2H6.67c-1.21,0-2.2.99-2.2,2.2v4.18h-1v-4.18c0-1.77,1.44-3.2,3.2-3.2h8.58c1.77,0,3.2,1.44,3.2,3.2v4.18Z"/>
  <path class="cls-1" d="m17.95,56.7c-.55,0-1-.45-1-1v-4.18c0-.94-.76-1.7-1.7-1.7H6.67c-.94,0-1.7.76-1.7,1.7v4.18c0,.55-.45,1-1,1s-1-.45-1-1v-4.18c0-2.04,1.66-3.7,3.7-3.7h8.58c2.04,0,3.7,1.66,3.7,3.7v4.18c0,.55-.45,1-1,1Z"/>
  <path class="cls-1" d="m48.35,46.48c-2.21,0-4.01-1.8-4.01-4.01s1.8-4.01,4.01-4.01,4.01,1.8,4.01,4.01-1.8,4.01-4.01,4.01Zm0-7.01c-1.66,0-3.01,1.35-3.01,3.01s1.35,3.01,3.01,3.01,3.01-1.35,3.01-3.01-1.35-3.01-3.01-3.01Z"/>
  <path class="cls-1" d="m48.35,46.98c-2.48,0-4.51-2.02-4.51-4.51s2.02-4.51,4.51-4.51,4.51,2.02,4.51,4.51-2.02,4.51-4.51,4.51Zm0-7.01c-1.38,0-2.51,1.12-2.51,2.51s1.12,2.51,2.51,2.51,2.51-1.12,2.51-2.51-1.12-2.51-2.51-2.51Z"/>
  <path class="cls-1" d="m55.84,55.7h-1v-4.18c0-1.21-.99-2.2-2.2-2.2h-8.58c-1.21,0-2.2.99-2.2,2.2v4.18h-1v-4.18c0-1.77,1.44-3.2,3.2-3.2h8.58c1.77,0,3.2,1.44,3.2,3.2v4.18Z"/>
  <path class="cls-1" d="m55.34,56.7c-.55,0-1-.45-1-1v-4.18c0-.94-.76-1.7-1.7-1.7h-8.58c-.94,0-1.7.76-1.7,1.7v4.18c0,.55-.45,1-1,1s-1-.45-1-1v-4.18c0-2.04,1.66-3.7,3.7-3.7h8.58c2.04,0,3.7,1.66,3.7,3.7v4.18c0,.55-.45,1-1,1Z"/>
  <rect class="cls-1" x="29.16" y="20.32" width="1" height="15.02"/>
  <path class="cls-1" d="m29.66,36.35c-.55,0-1-.45-1-1v-15.02c0-.55.45-1,1-1s1,.45,1,1v15.02c0,.55-.45,1-1,1Z"/>
  <path class="cls-1" d="m48.35,36.35c-.55,0-1-.45-1-1v-6.42H11.96v6.42c0,.55-.45,1-1,1s-1-.45-1-1v-7.42c0-.55.45-1,1-1h37.39c.55,0,1,.45,1,1v7.42c0,.55-.45,1-1,1Z"/>
</svg>