<?xml version="1.0" encoding="UTF-8"?>
<svg id="Layer_1" data-name="Layer 1" xmlns="http://www.w3.org/2000/svg" viewBox="0 0 60 60">
  <defs>
    <style>
      .cls-1 {
        fill: #37464c;
        stroke-width: 0px;
      }
    </style>
  </defs>
  <path class="cls-1" d="m30,18.1c-3.86,0-7-3.14-7-7s3.14-7,7-7,7,3.14,7,7-3.14,7-7,7Zm0-12c-2.76,0-5,2.24-5,5s2.24,5,5,5,5-2.24,5-5-2.24-5-5-5Z"/>
  <path class="cls-1" d="m30.99,56.1c-.84,0-1.7-.21-2.48-.65h0c-1.17-.66-2-1.73-2.34-3.01-.34-1.27-.16-2.58.51-3.72l6-10.17c1.38-2.34,4.44-3.14,6.82-1.8,1.17.66,2,1.73,2.34,3.01.34,1.27.16,2.58-.51,3.72l-6,10.17c-.93,1.57-2.61,2.45-4.34,2.45Zm6.01-18c-1.04,0-2.05.53-2.61,1.47l-6,10.17c-.39.67-.5,1.44-.3,2.18.2.76.7,1.39,1.4,1.79h0c1.44.81,3.28.33,4.11-1.07l6-10.17c.39-.67.5-1.44.3-2.18-.2-.76-.7-1.39-1.4-1.79-.47-.27-.99-.4-1.51-.4Z"/>
  <path class="cls-1" d="m11,56.1c-.55,0-1-.45-1-1v-4c0-.55.45-1,1-1s1,.45,1,1v4c0,.55-.45,1-1,1Z"/>
  <path class="cls-1" d="m49,56.1c-.55,0-1-.45-1-1v-4c0-.55.45-1,1-1s1,.45,1,1v4c0,.55-.45,1-1,1Z"/>
  <path class="cls-1" d="m30,32.1c-.26,0-.52-.1-.71-.29-.18-.18-.29-.44-.29-.71s.11-.52.29-.7c.38-.38,1.05-.37,1.42,0,.18.18.29.44.29.7,0,.07-.01.13-.02.2-.01.06-.03.13-.06.19-.02.06-.05.11-.09.17-.04.05-.08.1-.12.15-.19.19-.45.29-.71.29Z"/>
  <path class="cls-1" d="m23.25,50.26c-.34,0-.68-.18-.86-.49l-3.71-6.29c-.67-1.13-.85-2.45-.51-3.72.34-1.28,1.18-2.35,2.34-3.01,2.38-1.34,5.44-.54,6.82,1.8l1.23,2.08c.28.48.12,1.09-.35,1.37-.48.28-1.09.12-1.37-.35l-1.23-2.08c-.83-1.4-2.67-1.88-4.11-1.07-.7.39-1.19,1.03-1.4,1.79-.2.74-.09,1.52.3,2.18l3.71,6.29c.28.48.12,1.09-.35,1.37-.16.09-.33.14-.51.14Z"/>
  <path class="cls-1" d="m38,38.1h-16c-1.1,0-2-.9-2-2v-10c0-1.1.9-2,2-2h16c1.1,0,2,.9,2,2v10c0,1.1-.9,2-2,2Zm-16-12v10h16v-10h-16Z"/>
  <path class="cls-1" d="m9,32.2c-.55,0-1-.45-1-1v-6.1c0-2.76,2.24-5,5-5h1c.55,0,1,.45,1,1s-.45,1-1,1h-1c-1.65,0-3,1.35-3,3v6.1c0,.55-.45,1-1,1Z"/>
  <path class="cls-1" d="m51,32.2c-.55,0-1-.45-1-1v-6.1c0-1.65-1.35-3-3-3h-1c-.55,0-1-.45-1-1s.45-1,1-1h1c2.76,0,5,2.24,5,5v6.1c0,.55-.45,1-1,1Z"/>
  <path class="cls-1" d="m50,52.1h-10c-.55,0-1-.45-1-1s.45-1,1-1h10c1.1,0,2-.9,2-2v-7.1c0-.48.33-.89.8-.98,2.13-.43,3.51-2.47,3.14-4.63-.27-1.56-1.53-2.87-3.07-3.2-1.24-.26-2.44.03-3.39.8-.94.76-1.48,1.9-1.48,3.11v6c0,1.1-.9,2-2,2h-5.61c-.55,0-1-.45-1-1s.45-1,1-1h5.61v-6c0-1.81.81-3.51,2.22-4.66,1.41-1.15,3.25-1.59,5.06-1.21,2.36.49,4.22,2.43,4.63,4.82.5,2.96-1.18,5.75-3.91,6.71v6.34c0,2.21-1.79,4-4,4Z"/>
  <path class="cls-1" d="m20,52.1h-10c-2.21,0-4-1.79-4-4v-6.34c-2.36-.84-4-3.1-4-5.66,0-1.69.72-3.31,1.96-4.44,1.25-1.13,2.94-1.69,4.62-1.53,3.04.29,5.41,3.01,5.41,6.19v5.79h5.61c.55,0,1,.45,1,1s-.45,1-1,1h-5.61c-1.1,0-2-.9-2-2v-5.79c0-2.16-1.58-4-3.6-4.2-1.14-.11-2.24.25-3.09,1.02-.83.76-1.31,1.84-1.31,2.96,0,1.89,1.35,3.54,3.2,3.92.47.09.8.5.8.98v7.1c0,1.1.9,2,2,2h10c.55,0,1,.45,1,1s-.45,1-1,1Z"/>
  <path class="cls-1" d="m38,26.1c-.55,0-1-.45-1-1v-.64c0-.8.31-1.55.88-2.12l12.68-12.68c.3-.3.46-.71.44-1.14-.02-.43-.22-.82-.56-1.09-.58-.48-1.51-.39-2.1.21l-10.41,10.41c-1.32,1.32-3.08,2.05-4.95,2.05h-5.96c-1.87,0-3.63-.73-4.95-2.05L11.66,7.64c-.6-.6-1.52-.69-2.1-.21-.34.28-.53.66-.56,1.09-.02.42.14.84.44,1.14l12.68,12.68c.57.57.88,1.32.88,2.12v.64c0,.55-.45,1-1,1s-1-.45-1-1v-.64c0-.27-.1-.52-.29-.71l-12.68-12.68c-.7-.7-1.07-1.66-1.02-2.65.05-.99.52-1.91,1.29-2.54,1.37-1.12,3.47-.97,4.79.34l10.41,10.41c.94.94,2.2,1.46,3.54,1.46h5.96c1.34,0,2.59-.52,3.54-1.46l10.41-10.41c1.31-1.31,3.41-1.46,4.79-.34.77.63,1.24,1.55,1.29,2.54.05.99-.32,1.95-1.02,2.65l-12.68,12.68c-.19.19-.29.44-.29.71v.64c0,.55-.45,1-1,1Z"/>
</svg>