<?xml version="1.0" encoding="UTF-8"?>
<svg id="Layer_1" data-name="Layer 1" xmlns="http://www.w3.org/2000/svg" viewBox="0 0 60 60">
  <defs>
    <style>
      .cls-1 {
        fill: #37464c;
        stroke-width: 0px;
      }
    </style>
  </defs>
  <g>
    <path class="cls-1" d="m24.95,19.43h-14.02c-.33,0-.6-.27-.6-.6V4.82c0-.33.27-.6.6-.6h7.01c.16,0,.31.06.42.18l7.01,7.01c.11.11.18.26.18.42v7.01c0,.33-.27.6-.6.6Zm-13.42-1.2h12.82v-6.16l-6.66-6.66h-6.16v12.82Z"/>
    <path class="cls-1" d="m24.95,19.81h-14.02c-.54,0-.97-.44-.97-.97V4.82c0-.54.44-.97.97-.97h7.01c.26,0,.5.1.69.29l7.01,7.01c.18.18.29.43.29.69v7.01c0,.54-.44.97-.97.97ZM10.93,4.59c-.12,0-.22.1-.22.22v14.02c0,.12.1.22.22.22h14.02c.12,0,.22-.1.22-.22v-7.01c0-.06-.02-.12-.07-.16l-7.01-7.01s-.1-.07-.16-.07h-7.01Zm13.8,14.02h-13.57V5.04h6.69l6.88,6.88v6.69Zm-12.82-.75h12.07v-5.63l-6.44-6.44h-5.63v12.07Z"/>
  </g>
  <g>
    <path class="cls-1" d="m21.75,49.8h-7.61c-.33,0-.6-.27-.6-.6v-30.17c0-.33.27-.6.6-.6h7.61c.33,0,.6.27.6.6v30.17c0,.33-.27.6-.6.6Zm-7.01-1.2h6.41v-28.97h-6.41v28.97Z"/>
    <path class="cls-1" d="m21.75,50.17h-7.61c-.54,0-.97-.44-.97-.97v-30.17c0-.54.44-.97.97-.97h7.61c.54,0,.97.44.97.97v30.17c0,.54-.44.97-.97.97Zm-7.61-31.37c-.12,0-.22.1-.22.22v30.17c0,.12.1.22.22.22h7.61c.12,0,.22-.1.22-.22v-30.17c0-.12-.1-.22-.22-.22h-7.61Zm7.39,30.17h-7.16v-29.72h7.16v29.72Zm-6.41-.75h5.66v-28.22h-5.66v28.22Z"/>
  </g>
  <g>
    <g>
      <path class="cls-1" d="m27.35,57.17H8.53c-.33,0-.6-.27-.6-.6v-2.9c0-.33.27-.6.6-.6h18.83c.33,0,.6.27.6.6v2.9c0,.33-.27.6-.6.6Zm-18.23-1.2h17.63v-1.71H9.12v1.71Z"/>
      <path class="cls-1" d="m27.35,57.55H8.53c-.54,0-.97-.44-.97-.97v-2.9c0-.54.44-.97.97-.97h18.83c.54,0,.97.44.97.97v2.9c0,.54-.44.97-.97.97Zm-18.83-4.1c-.12,0-.22.1-.22.22v2.9c0,.12.1.22.22.22h18.83c.12,0,.22-.1.22-.22v-2.9c0-.12-.1-.22-.22-.22H8.53Zm18.6,2.9H8.75v-2.46h18.38v2.46Zm-17.63-.75h16.88v-.96H9.5v.96Z"/>
    </g>
    <g>
      <path class="cls-1" d="m26.05,52.07H9.63c-.33,0-.6-.27-.6-.6s.27-.6.6-.6h16.42c.33,0,.6.27.6.6s-.27.6-.6.6Z"/>
      <path class="cls-1" d="m26.05,52.44H9.63c-.54,0-.97-.44-.97-.97s.44-.97.97-.97h16.42c.54,0,.97.44.97.97s-.44.97-.97.97Zm-16.42-1.2c-.12,0-.22.1-.22.22s.1.22.22.22h16.42c.12,0,.22-.1.22-.22s-.1-.22-.22-.22H9.63Z"/>
    </g>
  </g>
  <g>
    <path class="cls-1" d="m14.2,49.46c-.15,0-.31-.06-.42-.18-.23-.23-.23-.61,0-.85l6.96-6.96-6.89-6.88c-.23-.23-.23-.6-.01-.84l6.72-7.09-6.85-7.23c-.23-.24-.22-.62.02-.85.24-.23.62-.22.85.02l7.24,7.64c.22.23.22.59,0,.82l-6.7,7.08,6.9,6.9c.11.11.18.26.18.42s-.06.31-.18.42l-7.38,7.38c-.12.12-.27.18-.42.18Z"/>
    <path class="cls-1" d="m14.2,49.59c-.19,0-.38-.08-.51-.21-.14-.14-.21-.32-.21-.51s.08-.38.21-.51l6.87-6.87-6.8-6.8c-.28-.28-.29-.72-.01-1.01l6.63-7.01-6.77-7.14c-.27-.29-.26-.75.03-1.02.29-.27.75-.26,1.02.03l7.24,7.64c.26.28.27.72,0,1l-6.62,6.99,6.81,6.81c.14.14.21.32.21.51s-.08.38-.21.51l-7.38,7.38c-.14.14-.32.21-.51.21Zm-.07-31.03c-.12,0-.23.04-.33.13-.19.18-.2.48-.02.67l6.93,7.32-.08.09-6.71,7.09c-.18.19-.17.48,0,.66l6.98,6.97-7.05,7.04c-.09.09-.14.21-.14.33s.05.25.14.33c.18.18.49.18.67,0l7.38-7.38c.09-.09.14-.21.14-.33s-.05-.25-.14-.33l-6.98-6.98.08-.09,6.71-7.08c.17-.18.17-.47,0-.65l-7.24-7.64c-.09-.1-.22-.15-.34-.15Z"/>
  </g>
  <g>
    <path class="cls-1" d="m21.78,49.46c-.15,0-.31-.06-.42-.18l-7.58-7.58c-.11-.11-.18-.26-.18-.42s.06-.31.18-.42l7.02-7.02-6.95-6.95c-.11-.11-.18-.26-.18-.42s.06-.31.18-.42l7.46-7.46c.23-.23.61-.23.85,0s.23.61,0,.85l-7.04,7.03,6.95,6.95c.11.11.18.26.18.42s-.06.31-.18.42l-7.02,7.02,7.15,7.15c.23.23.23.61,0,.85-.12.12-.27.18-.42.18Z"/>
    <path class="cls-1" d="m21.78,49.59c-.19,0-.37-.08-.51-.21l-7.58-7.58c-.14-.14-.21-.32-.21-.51s.08-.38.21-.51l6.93-6.93-6.87-6.86c-.14-.14-.21-.32-.21-.51s.08-.38.21-.51l7.46-7.46c.28-.28.74-.28,1.02,0,.28.28.28.74,0,1.02l-6.95,6.95,6.87,6.86c.14.14.21.32.21.51s-.08.38-.21.51l-6.93,6.93,7.07,7.06c.14.14.21.32.21.51s-.08.38-.21.51c-.14.14-.32.21-.51.21Zm-.05-31.05h0c-.13,0-.25.05-.33.14l-7.46,7.46c-.09.09-.14.21-.14.33s.05.25.14.33l7.04,7.04-.09.09-7.02,7.02c-.09.09-.14.21-.14.33s.05.25.14.33l7.58,7.58c.18.18.49.18.67,0,.09-.09.14-.21.14-.33s-.05-.25-.14-.33l-7.24-7.24.09-.09,7.02-7.02c.09-.09.14-.21.14-.33s-.05-.25-.14-.33l-7.04-7.04,7.13-7.12c.18-.18.18-.48,0-.67-.09-.09-.21-.14-.33-.14Z"/>
  </g>
  <g>
    <path class="cls-1" d="m53.46,18.4c-1.62,0-2.94-1.32-2.94-2.93s1.32-2.94,2.94-2.94,2.94,1.32,2.94,2.94-1.32,2.93-2.94,2.93Zm0-4.67c-.96,0-1.74.78-1.74,1.74s.78,1.74,1.74,1.74,1.74-.78,1.74-1.74-.78-1.74-1.74-1.74Z"/>
    <path class="cls-1" d="m53.46,18.77c-1.83,0-3.31-1.49-3.31-3.31s1.49-3.31,3.31-3.31,3.31,1.48,3.31,3.31-1.49,3.31-3.31,3.31Zm0-5.87c-1.41,0-2.56,1.15-2.56,2.56s1.15,2.56,2.56,2.56,2.56-1.15,2.56-2.56-1.15-2.56-2.56-2.56Zm0,4.67c-1.17,0-2.11-.95-2.11-2.11s.95-2.11,2.11-2.11,2.11.95,2.11,2.11-.95,2.11-2.11,2.11Zm0-3.47c-.75,0-1.36.61-1.36,1.36s.61,1.36,1.36,1.36,1.36-.61,1.36-1.36-.61-1.36-1.36-1.36Z"/>
  </g>
  <g>
    <path class="cls-1" d="m53.46,32.45c-.33,0-.6-.27-.6-.6v-13.86c0-.33.27-.6.6-.6s.6.27.6.6v13.86c0,.33-.27.6-.6.6Z"/>
    <path class="cls-1" d="m53.46,32.82c-.54,0-.97-.44-.97-.97v-13.86c0-.54.44-.97.97-.97s.97.44.97.97v13.86c0,.54-.44.97-.97.97Zm0-15.06c-.12,0-.22.1-.22.22v13.86c0,.25.45.25.45,0v-13.86c0-.12-.1-.22-.22-.22Z"/>
  </g>
  <g>
    <path class="cls-1" d="m50.79,35.12c-1.8,0-3.27-1.47-3.27-3.27,0-.33.27-.6.6-.6s.6.27.6.6c0,1.14.93,2.07,2.07,2.07s2.07-.93,2.07-2.07c0-.33.27-.6.6-.6s.6.27.6.6c0,1.8-1.47,3.27-3.27,3.27Z"/>
    <path class="cls-1" d="m50.79,35.49c-2.01,0-3.64-1.63-3.64-3.64,0-.54.44-.97.97-.97s.97.44.97.97c0,.93.76,1.7,1.7,1.7s1.7-.76,1.7-1.7c0-.54.44-.97.97-.97s.97.44.97.97c0,2.01-1.64,3.64-3.65,3.64Zm-2.67-3.87c-.12,0-.22.1-.22.22,0,1.6,1.3,2.89,2.89,2.89s2.9-1.3,2.9-2.89c0-.24-.45-.25-.45,0,0,1.35-1.1,2.45-2.45,2.45s-2.45-1.1-2.45-2.45c0-.12-.1-.22-.22-.22Z"/>
  </g>
  <g>
    <path class="cls-1" d="m22.3,13.87c-.15,0-.31-.06-.42-.18l-5.86-5.86c-.23-.23-.23-.61,0-.85.23-.23.61-.23.85,0l5.86,5.86c.23.23.23.61,0,.85-.12.12-.27.18-.42.18Z"/>
    <path class="cls-1" d="m22.3,14.25c-.26,0-.51-.1-.69-.29l-5.86-5.85c-.38-.38-.38-1,0-1.38s1-.38,1.38,0l5.86,5.86c.18.18.29.43.29.69s-.1.5-.29.69c-.18.18-.43.28-.69.28Zm-5.86-7.05c-.06,0-.12.02-.16.07-.09.09-.09.23,0,.32l5.86,5.86c.11.12.21.11.32,0,.09-.09.09-.23,0-.32l-5.86-5.86s-.1-.07-.16-.07Z"/>
  </g>
  <g>
    <g>
      <path class="cls-1" d="m52.12,18.03h-27.17c-.33,0-.6-.27-.6-.6s.27-.6.6-.6h27.17c.33,0,.6.27.6.6s-.27.6-.6.6Z"/>
      <path class="cls-1" d="m52.12,18.4h-27.17c-.54,0-.97-.44-.97-.97s.44-.97.97-.97h27.17c.54,0,.97.44.97.97s-.44.97-.97.97Zm-27.17-1.2c-.12,0-.22.1-.22.22s.1.22.22.22h27.17c.12,0,.22-.1.22-.22s-.1-.22-.22-.22h-27.17Z"/>
    </g>
    <g>
      <path class="cls-1" d="m52.12,14.09h-27.17c-.33,0-.6-.27-.6-.6s.27-.6.6-.6h27.17c.33,0,.6.27.6.6s-.27.6-.6.6Z"/>
      <path class="cls-1" d="m52.12,14.47h-27.17c-.54,0-.97-.44-.97-.97s.44-.97.97-.97h27.17c.54,0,.97.44.97.97s-.44.97-.97.97Zm-27.17-1.2c-.12,0-.22.1-.22.22s.1.22.22.22h27.17c.12,0,.22-.1.22-.22s-.1-.22-.22-.22h-27.17Z"/>
    </g>
  </g>
  <g>
    <path class="cls-1" d="m10.93,18.03h-6.01c-.33,0-.6-.27-.6-.6v-3.94c0-.33.27-.6.6-.6h6.01c.33,0,.6.27.6.6s-.27.6-.6.6h-5.41v2.74h5.41c.33,0,.6.27.6.6s-.27.6-.6.6Z"/>
    <path class="cls-1" d="m10.93,18.4h-6.01c-.54,0-.97-.44-.97-.97v-3.94c0-.54.44-.97.97-.97h6.01c.54,0,.97.44.97.97s-.44.97-.97.97h-5.04v1.99h5.04c.54,0,.97.44.97.97s-.44.97-.97.97Zm-6.01-5.14c-.12,0-.22.1-.22.22v3.94c0,.12.1.22.22.22h6.01c.12,0,.22-.1.22-.22s-.1-.22-.22-.22h-5.79v-3.49h5.79c.12,0,.22-.1.22-.22s-.1-.22-.22-.22h-6.01Z"/>
  </g>
</svg>