<?xml version="1.0" encoding="UTF-8"?>
<svg id="Layer_1" data-name="Layer 1" xmlns="http://www.w3.org/2000/svg" viewBox="0 0 60 60">
  <defs>
    <style>
      .cls-1 {
        fill: #37464c;
        stroke-width: 0px;
      }
    </style>
  </defs>
  <path class="cls-1" d="m47.13,52.62H13.17c-2.28,0-4.36-1.21-5.57-3.24-1.3-2.18-1.35-4.92-.14-7.15L24.44,10.9c1.19-2.19,3.32-3.5,5.71-3.5s4.53,1.31,5.71,3.5l16.98,31.33c1.21,2.23,1.15,4.97-.14,7.15-1.21,2.03-3.29,3.24-5.57,3.24ZM26.2,11.85l-16.98,31.33c-.89,1.64-.85,3.57.1,5.17.86,1.44,2.26,2.27,3.85,2.27h33.96c1.59,0,2.99-.83,3.85-2.27.95-1.6.99-3.53.1-5.17l-16.98-31.33c-.83-1.53-2.31-2.45-3.95-2.45s-3.12.92-3.95,2.45h0Z"/>
  <path class="cls-1" d="m12.42,56.26c-3.74,0-6.81-1.72-8.44-4.71-1.75-3.22-1.48-7.3.71-10.66l1.09.71c-1.93,2.96-2.18,6.53-.66,9.33,1.39,2.56,4.05,4.03,7.3,4.03h.02v1.3h-.02Z"/>
  <path class="cls-1" d="m36.29,8.7c-1.28-2.25-3.5-3.61-5.94-3.66-2.48-.06-4.74,1.25-6.11,3.45l-1.11-.69c1.58-2.55,4.22-4.07,7.09-4.07.05,0,.1,0,.15,0,2.9.05,5.53,1.66,7.04,4.31l-1.13.64Z"/>
  <path class="cls-1" d="m47.75,56.26h-.02v-1.3h.02c3.24,0,5.9-1.47,7.3-4.03,1.52-2.8,1.27-6.38-.66-9.33l1.09-.71c2.19,3.36,2.46,7.44.71,10.66-1.63,3-4.7,4.71-8.44,4.71Z"/>
  <g>
    <path class="cls-1" d="m30.21,39.7c-1.79,0-2.95-1.21-2.95-3.09l-1.49-14.33c0-2.14,2.84-3.18,4.44-3.18,1.76,0,4.56.75,4.56,2.77l-1.51,14.9c0,1.72-1.22,2.93-3.05,2.93Zm0-19c-1.17,0-2.84.77-2.84,1.5l1.49,14.33c0,1.07.46,1.57,1.35,1.57.96,0,1.45-.48,1.45-1.41l1.51-14.9c0-.54-1.66-1.09-2.97-1.09Z"/>
    <path class="cls-1" d="m30.27,47.15c-1.76,0-3.2-1.43-3.2-3.2s1.43-3.2,3.2-3.2,3.2,1.43,3.2,3.2-1.43,3.2-3.2,3.2Zm0-4.79c-.88,0-1.6.72-1.6,1.6s.72,1.6,1.6,1.6,1.6-.72,1.6-1.6-.72-1.6-1.6-1.6Z"/>
  </g>
</svg>