<?xml version="1.0" encoding="UTF-8"?>
<svg id="Layer_1" data-name="Layer 1" xmlns="http://www.w3.org/2000/svg" viewBox="0 0 60 60">
  <defs>
    <style>
      .cls-1 {
        fill: #37464c;
        stroke-width: 0px;
      }
    </style>
  </defs>
  <path class="cls-1" d="m32.45,55.44c-.55,0-1-.45-1-1,0-5.12-5.55-7.78-11.43-10.6-6.18-2.96-12.57-6.02-12.57-12.4s6.39-9.44,12.57-12.4c5.88-2.82,11.43-5.48,11.43-10.6,0-.55.45-1,1-1s1,.45,1,1c0,6.38-6.39,9.44-12.57,12.4-5.88,2.82-11.43,5.48-11.43,10.6s5.55,7.78,11.43,10.6c6.18,2.96,12.57,6.02,12.57,12.4,0,.55-.45,1-1,1Z"/>
  <path class="cls-1" d="m8.45,55.44c-.55,0-1-.45-1-1,0-6.38,6.39-9.44,12.57-12.4,5.88-2.82,11.43-5.48,11.43-10.6s-5.55-7.78-11.43-10.6c-6.18-2.96-12.57-6.02-12.57-12.4,0-.55.45-1,1-1s1,.45,1,1c0,5.12,5.55,7.78,11.43,10.6,6.18,2.96,12.57,6.02,12.57,12.4s-6.39,9.44-12.57,12.4c-5.88,2.82-11.43,5.48-11.43,10.6,0,.55-.45,1-1,1Z"/>
  <path class="cls-1" d="m26.45,13.44h-12c-.55,0-1-.45-1-1s.45-1,1-1h12c.55,0,1,.45,1,1s-.45,1-1,1Z"/>
  <path class="cls-1" d="m26.45,29.44h-12c-.55,0-1-.45-1-1s.45-1,1-1h12c.55,0,1,.45,1,1s-.45,1-1,1Z"/>
  <path class="cls-1" d="m26.45,35.44h-12c-.55,0-1-.45-1-1s.45-1,1-1h12c.55,0,1,.45,1,1s-.45,1-1,1Z"/>
  <path class="cls-1" d="m26.45,51.44h-12c-.55,0-1-.45-1-1s.45-1,1-1h12c.55,0,1,.45,1,1s-.45,1-1,1Z"/>
  <path class="cls-1" d="m52.59,23.7c-.1,0-.2-.01-.3-.05-.08-.02-1.93-.62-3.08-2.21-1.16-1.59-1.15-3.53-1.15-3.61,0-.55.45-.99,1-.99h.01c.55,0,1,.46.99,1.01,0,0,0,1.37.76,2.42.76,1.04,2.05,1.47,2.07,1.47.52.17.81.73.65,1.25-.14.43-.53.7-.95.7Z"/>
  <path class="cls-1" d="m45.97,24.8c-.31,0-.61-.14-.81-.41-.33-.45-.23-1.07.22-1.4l4.04-2.94c.45-.33,1.07-.23,1.4.22.33.45.23,1.07-.22,1.4l-4.04,2.94c-.18.13-.38.19-.59.19Z"/>
  <path class="cls-1" d="m49.06,46.03c-.55,0-.99-.44-1-.99,0-.08,0-2.02,1.15-3.61,1.15-1.59,3-2.18,3.08-2.21.52-.16,1.09.13,1.25.66.17.53-.13,1.09-.66,1.25,0,0-1.3.43-2.06,1.47-.76,1.04-.76,2.41-.76,2.42,0,.55-.44,1-.99,1h0Z"/>
  <path class="cls-1" d="m50.01,43.02c-.2,0-.41-.06-.59-.19l-4.04-2.94c-.45-.32-.55-.95-.22-1.4.32-.45.95-.55,1.4-.22l4.04,2.94c.45.32.55.95.22,1.4-.2.27-.5.41-.81.41Z"/>
  <path class="cls-1" d="m42.49,15.54c-.55,0-1.16-.07-1.78-.27-1.87-.61-3-2.18-3.05-2.25-.32-.45-.21-1.07.24-1.39.45-.32,1.08-.21,1.39.24,0,0,.81,1.11,2.04,1.5,1.23.4,2.53-.02,2.54-.02.52-.17,1.09.11,1.26.63.17.52-.1,1.09-.63,1.26-.05.02-.9.3-2.01.3Z"/>
  <path class="cls-1" d="m39.47,20.08c-.1,0-.21-.02-.31-.05-.53-.17-.81-.73-.64-1.26l1.54-4.76c.17-.52.74-.81,1.26-.64.53.17.81.73.64,1.26l-1.54,4.76c-.14.42-.53.69-.95.69Z"/>
  <path class="cls-1" d="m54.45,35.44c-.3,0-.6-.14-.8-.4-.05-.07-1.2-1.63-1.2-3.6s1.15-3.53,1.2-3.6c.33-.44.96-.54,1.4-.21.44.33.54.96.21,1.4,0,0-.8,1.11-.8,2.4s.8,2.4.8,2.41c.33.44.23,1.07-.21,1.4-.18.13-.39.2-.59.2Z"/>
  <path class="cls-1" d="m53.45,32.44h-5c-.55,0-1-.45-1-1s.45-1,1-1h5c.55,0,1,.45,1,1s-.45,1-1,1Z"/>
  <path class="cls-1" d="m38.47,51.44c-.2,0-.4-.06-.58-.18-.45-.32-.56-.94-.24-1.39.05-.07,1.18-1.64,3.05-2.25,1.87-.61,3.71,0,3.79.03.52.18.8.74.63,1.27-.18.52-.74.8-1.27.63,0,0-1.31-.42-2.53-.02-1.23.4-2.03,1.49-2.04,1.5-.2.27-.5.42-.82.42Z"/>
  <path class="cls-1" d="m41.01,49.56c-.42,0-.81-.27-.95-.69l-1.54-4.76c-.17-.53.12-1.09.64-1.26.52-.17,1.09.12,1.26.64l1.54,4.76c.17.53-.12,1.09-.64,1.26-.1.03-.21.05-.31.05Z"/>
  <path class="cls-1" d="m35.45,45.44c-2.36,0-4.71-.6-6.77-1.75-.48-.27-.66-.88-.39-1.36.27-.48.88-.66,1.36-.39,1.77.98,3.78,1.5,5.8,1.5,6.62,0,12-5.38,12-12s-5.38-12-12-12c-2.03,0-4.03.52-5.8,1.5-.48.27-1.09.09-1.36-.39-.27-.48-.09-1.09.39-1.36,2.07-1.15,4.41-1.75,6.77-1.75,7.72,0,14,6.28,14,14s-6.28,14-14,14Z"/>
  <path class="cls-1" d="m37.45,29.44c-2.21,0-4-1.79-4-4s1.79-4,4-4,4,1.79,4,4-1.79,4-4,4Zm0-6c-1.1,0-2,.9-2,2s.9,2,2,2,2-.9,2-2-.9-2-2-2Z"/>
  <path class="cls-1" d="m41.45,37.44c-1.65,0-3-1.35-3-3s1.35-3,3-3,3,1.35,3,3-1.35,3-3,3Zm0-4c-.55,0-1,.45-1,1s.45,1,1,1,1-.45,1-1-.45-1-1-1Z"/>
</svg>