<?xml version="1.0" encoding="UTF-8"?>
<svg id="Layer_1" data-name="Layer 1" xmlns="http://www.w3.org/2000/svg" viewBox="0 0 60 60">
  <defs>
    <style>
      .cls-1 {
        fill: #37464c;
        stroke-width: 0px;
      }
    </style>
  </defs>
  <g>
    <path class="cls-1" d="m45.11,31.94c-.55,0-1-.45-1-1v-8.33c0-.55.45-1,1-1s1,.45,1,1v8.33c0,.55-.45,1-1,1Z"/>
    <path class="cls-1" d="m31,54.51h-1.41c-.55,0-1-.45-1-1s.45-1,1-1h1.41c.55,0,1,.45,1,1s-.45,1-1,1Z"/>
    <path class="cls-1" d="m29.59,54.51h-15.61c-1.56,0-2.73-1.76-2.73-4.09v-27.81c0-.55.45-1,1-1s1,.45,1,1v27.81c0,1.37.56,2.07.74,2.09h15.61c.55,0,1,.45,1,1s-.45,1-1,1Z"/>
  </g>
  <g>
    <path class="cls-1" d="m39.13,51.11h0c-.17,0-.34-.07-.46-.19l-5.39-5.39c-.25-.25-.25-.67,0-.92l2.16-2.16c.12-.12.29-.19.46-.19h0c.17,0,.34.07.46.19l2.77,2.78,7.09-7.09c.25-.25.67-.25.92,0l2.16,2.16c.25.25.25.67,0,.92l-9.7,9.7c-.12.12-.29.19-.46.19Zm-4.47-6.04l4.47,4.47,8.78-8.78-1.24-1.24-7.09,7.09c-.12.12-.29.19-.46.19h0c-.17,0-.34-.07-.46-.19l-2.77-2.78-1.24,1.24Z"/>
    <path class="cls-1" d="m41.29,58.81c-4.89,0-9.39-2.46-12.03-6.59l1.35-.86c2.35,3.67,6.34,5.85,10.69,5.85,6.99,0,12.68-5.69,12.68-12.68,0-5.6-3.59-10.47-8.94-12.12l.47-1.53c6.02,1.86,10.07,7.34,10.07,13.65,0,7.87-6.4,14.28-14.28,14.28Z"/>
    <path class="cls-1" d="m29.26,52.22c-1.47-2.29-2.24-4.95-2.24-7.68,0-7.87,6.4-14.28,14.28-14.28,1.43,0,2.85.21,4.21.63l-.47,1.53c-1.21-.37-2.46-.56-3.74-.56-6.99,0-12.68,5.69-12.68,12.68,0,2.43.69,4.79,1.99,6.82l-1.35.86Z"/>
  </g>
  <path class="cls-1" d="m39.55,16.22h-21.59c-.39,0-.7-.31-.7-.7s.31-.7.7-.7h21.59c.39,0,.7.31.7.7s-.31.7-.7.7Z"/>
  <path class="cls-1" d="m39.55,19.43h-14.8c-.39,0-.7-.31-.7-.7s.31-.7.7-.7h14.8c.39,0,.7.31.7.7s-.31.7-.7.7Z"/>
  <path class="cls-1" d="m21.26,19.43h-3.3c-.39,0-.7-.31-.7-.7s.31-.7.7-.7h3.3c.39,0,.7.31.7.7s-.31.7-.7.7Z"/>
  <path class="cls-1" d="m39.55,23.59h-10.14c-.39,0-.7-.31-.7-.7s.31-.7.7-.7h10.14c.39,0,.7.31.7.7s-.31.7-.7.7Z"/>
  <path class="cls-1" d="m26.3,23.59h-8.34c-.39,0-.7-.31-.7-.7s.31-.7.7-.7h8.34c.39,0,.7.31.7.7s-.31.7-.7.7Z"/>
  <path class="cls-1" d="m39.73,26.69h-4.34c-.39,0-.7-.31-.7-.7s.31-.7.7-.7h4.34c.39,0,.7.31.7.7s-.31.7-.7.7Z"/>
  <path class="cls-1" d="m32.84,26.69h-14.88c-.39,0-.7-.31-.7-.7s.31-.7.7-.7h14.88c.39,0,.7.31.7.7s-.31.7-.7.7Z"/>
  <path class="cls-1" d="m28.15,42.23h-10.1c-.39,0-.7-.31-.7-.7s.31-.7.7-.7h10.1c.39,0,.7.31.7.7s-.31.7-.7.7Z"/>
  <path class="cls-1" d="m29.19,39.02h-11.05c-.39,0-.7-.31-.7-.7s.31-.7.7-.7h11.05c.39,0,.7.31.7.7s-.31.7-.7.7Z"/>
  <path class="cls-1" d="m28.19,34.85h-10.06c-.39,0-.7-.31-.7-.7s.31-.7.7-.7h10.06c.39,0,.7.31.7.7s-.31.7-.7.7Z"/>
  <path class="cls-1" d="m22.26,31.76h-4.3c-.39,0-.7-.31-.7-.7s.31-.7.7-.7h4.3c.39,0,.7.31.7.7s-.31.7-.7.7Z"/>
  <path class="cls-1" d="m33.42,31.76h-8.62c-.39,0-.7-.31-.7-.7s.31-.7.7-.7h8.62c.39,0,.7.31.7.7s-.31.7-.7.7Z"/>
  <g>
    <path class="cls-1" d="m12.24,31.94c-.55,0-1-.45-1-1v-6.26c0-.55.45-1,1-1s1,.45,1,1v6.26c0,.55-.45,1-1,1Z"/>
    <path class="cls-1" d="m27.76,8.71h-1.41c-.55,0-1-.45-1-1s.45-1,1-1h1.41c.55,0,1,.45,1,1s-.45,1-1,1Z"/>
    <path class="cls-1" d="m45.11,31.94c-.55,0-1-.45-1-1V10.03c0-.81-.44-1.32-.74-1.32h-15.61c-.55,0-1-.45-1-1s.45-1,1-1h15.61c1.53,0,2.74,1.46,2.74,3.32v20.91c0,.55-.45,1-1,1Z"/>
  </g>
  <g>
    <path class="cls-1" d="m45.19,31.94c-.55,0-1-.45-1-1v-6.26c0-.55.45-1,1-1s1,.45,1,1v6.26c0,.55-.45,1-1,1Z"/>
    <path class="cls-1" d="m31.08,8.71h-1.41c-.55,0-1-.45-1-1s.45-1,1-1h1.41c.55,0,1,.45,1,1s-.45,1-1,1Z"/>
    <path class="cls-1" d="m12.32,31.94c-.55,0-1-.45-1-1V10.03c0-1.86,1.2-3.32,2.73-3.32h15.61c.55,0,1,.45,1,1s-.45,1-1,1h-15.61c-.3,0-.73.52-.73,1.32v20.91c0,.55-.45,1-1,1Z"/>
  </g>
</svg>