<?xml version="1.0" encoding="UTF-8"?>
<svg id="Layer_1" data-name="Layer 1" xmlns="http://www.w3.org/2000/svg" viewBox="0 0 60 60">
  <defs>
    <style>
      .cls-1 {
        fill: #37464c;
        stroke-width: 0px;
      }
    </style>
  </defs>
  <path class="cls-1" d="m21.86,53.55c-2.63,0-4.77-2.14-4.77-4.77V12.95c0-1.53-1.24-2.77-2.77-2.77-.55,0-1-.45-1-1s.45-1,1-1h29.23c3.15,0,5.71,2.56,5.71,5.71v.94c0,.55-.45,1-1,1s-1-.45-1-1v-.94c0-2.05-1.67-3.71-3.71-3.71h-25.34c.56.78.89,1.74.89,2.77v35.83c0,1.53,1.24,2.77,2.77,2.77.55,0,1,.45,1,1s-.45,1-1,1Z"/>
  <path class="cls-1" d="m14.31,36.58h-7.54c-.55,0-1-.45-1-1s.45-1,1-1c1.53,0,2.77-1.24,2.77-2.77V12.95c0-2.63,2.14-4.77,4.77-4.77.55,0,1,.45,1,1s-.45,1-1,1c-1.53,0-2.77,1.24-2.77,2.77v18.86c0,1.03-.33,1.99-.89,2.77h3.66c.55,0,1,.45,1,1s-.45,1-1,1Z"/>
  <path class="cls-1" d="m6.77,36.58c-2.63,0-4.77-2.14-4.77-4.77v-9.43c0-.55.45-1,1-1h3.77c.55,0,1,.45,1,1s-.45,1-1,1h-2.77v8.43c0,1.53,1.24,2.77,2.77,2.77.55,0,1,.45,1,1s-.45,1-1,1Z"/>
  <path class="cls-1" d="m50.14,53.55h-28.28c-.55,0-1-.45-1-1s.45-1,1-1c1.53,0,2.77-1.24,2.77-2.77v-1.89c0-.55.45-1,1-1h28.28c.55,0,1,.45,1,1v1.89c0,2.63-2.14,4.77-4.77,4.77Zm-24.4-2h24.4c1.53,0,2.77-1.24,2.77-2.77v-.89h-26.28v.89c0,1.03-.33,1.99-.89,2.77Z"/>
  <path class="cls-1" d="m33.17,27.15h-3.43c-.55,0-1-.45-1-1s.45-1,1-1h3.43c.55,0,1,.45,1,1s-.45,1-1,1Zm-7.43,0h-2c-.55,0-1-.45-1-1s.45-1,1-1h2c.55,0,1,.45,1,1s-.45,1-1,1Z"/>
  <path class="cls-1" d="m35.06,34.69h-5.31c-.55,0-1-.45-1-1s.45-1,1-1h5.31c.55,0,1,.45,1,1s-.45,1-1,1Zm-9.31,0h-2c-.55,0-1-.45-1-1s.45-1,1-1h2c.55,0,1,.45,1,1s-.45,1-1,1Z"/>
  <path class="cls-1" d="m36.94,19.61h-7.2c-.55,0-1-.45-1-1s.45-1,1-1h7.2c.55,0,1,.45,1,1s-.45,1-1,1Zm-11.2,0h-2c-.55,0-1-.45-1-1s.45-1,1-1h2c.55,0,1,.45,1,1s-.45,1-1,1Z"/>
  <path class="cls-1" d="m29.74,30.92h-6c-.55,0-1-.45-1-1s.45-1,1-1h6c.55,0,1,.45,1,1s-.45,1-1,1Z"/>
  <path class="cls-1" d="m34.11,23.38h-.37c-.55,0-1-.45-1-1s.45-1,1-1h.37c.55,0,1,.45,1,1s-.45,1-1,1Zm-4.37,0h-6c-.55,0-1-.45-1-1s.45-1,1-1h6c.55,0,1,.45,1,1s-.45,1-1,1Z"/>
  <path class="cls-1" d="m42.6,42.24h-12.86c-.55,0-1-.45-1-1s.45-1,1-1h12.86c.55,0,1,.45,1,1s-.45,1-1,1Zm-16.86,0h-2c-.55,0-1-.45-1-1s.45-1,1-1h2c.55,0,1,.45,1,1s-.45,1-1,1Z"/>
  <path class="cls-1" d="m38.83,38.46h-2c-.55,0-1-.45-1-1s.45-1,1-1h2c.55,0,1,.45,1,1s-.45,1-1,1Zm-6,0h-9.08c-.55,0-1-.45-1-1s.45-1,1-1h9.08c.55,0,1,.45,1,1s-.45,1-1,1Z"/>
  <path class="cls-1" d="m42.6,15.84h-2c-.55,0-1-.45-1-1s.45-1,1-1h2c.55,0,1,.45,1,1s-.45,1-1,1Zm-6,0h-12.86c-.55,0-1-.45-1-1s.45-1,1-1h12.86c.55,0,1,.45,1,1s-.45,1-1,1Z"/>
  <path class="cls-1" d="m45.43,36.58c-5.23,0-9.49-4.25-9.49-9.49s4.25-9.49,9.49-9.49,9.49,4.25,9.49,9.49-4.25,9.49-9.49,9.49Zm0-16.97c-4.13,0-7.49,3.36-7.49,7.49s3.36,7.49,7.49,7.49,7.49-3.36,7.49-7.49-3.36-7.49-7.49-7.49Z"/>
  <path class="cls-1" d="m57.68,40.35c-.26,0-.51-.1-.71-.29l-6.26-6.26c-.39-.39-.39-1.02,0-1.41s1.02-.39,1.41,0l6.26,6.26c.39.39.39,1.02,0,1.41-.2.2-.45.29-.71.29Z"/>
  <path class="cls-1" d="m48.25,47.89c-.55,0-1-.45-1-1v-7.54c0-.55.45-1,1-1s1,.45,1,1v7.54c0,.55-.45,1-1,1Z"/>
</svg>