<?xml version="1.0" encoding="UTF-8"?>
<svg id="Layer_1" data-name="Layer 1" xmlns="http://www.w3.org/2000/svg" viewBox="0 0 60 60">
  <defs>
    <style>
      .cls-1 {
        fill: #37464c;
        stroke-width: 0px;
      }
    </style>
  </defs>
  <g>
    <g>
      <path class="cls-1" d="m25.06,33.17c-5.11,0-8.88-4.77-9.6-12.16-.45-4.67.33-8.16,2.34-10.37,1.65-1.82,4.1-2.75,7.26-2.75s5.7.94,7.36,2.8c2,2.23,2.75,5.71,2.24,10.33-.83,7.49-4.51,12.15-9.6,12.15Zm0-23.15c-2.54,0-4.46.69-5.69,2.05-1.59,1.75-2.19,4.69-1.8,8.74.6,6.22,3.54,10.24,7.49,10.24s6.79-3.93,7.49-10.26c.44-4-.13-6.92-1.71-8.68-1.24-1.39-3.19-2.09-5.78-2.09Z"/>
      <path class="cls-1" d="m16.36,18.24v-2c4.25,0,7.71-3.04,7.71-6.77h2c0,4.84-4.35,8.77-9.71,8.77Z"/>
      <path class="cls-1" d="m33.82,18.24c-5.38,0-9.76-3.94-9.76-8.77h2c0,3.74,3.48,6.77,7.76,6.77v2Z"/>
      <rect class="cls-1" x="37.09" y="13.36" width="2" height="10.32"/>
      <path class="cls-1" d="m39.09,13.88h-2c0-4-3.6-7.25-8.03-7.25v-2c5.53,0,10.03,4.15,10.03,9.25Z"/>
      <path class="cls-1" d="m26.55,8.46h-2c0-2.11,2.02-3.83,4.51-3.83v2c-1.36,0-2.51.84-2.51,1.83Z"/>
      <path class="cls-1" d="m13.63,36.92c-4.49,0-8.14-2.95-8.14-6.58h2c0,2.53,2.76,4.58,6.14,4.58v2Z"/>
      <path class="cls-1" d="m5.99,32.26v-2c2.84,0,5.25-1.48,5.25-3.24h2c0,2.94-3.18,5.24-7.25,5.24Z"/>
      <rect class="cls-1" x="11.24" y="13.13" width="2" height="14.39"/>
      <path class="cls-1" d="m13.24,13.66h-2c0-4.98,4.63-9.02,10.33-9.02v2c-4.59,0-8.33,3.15-8.33,7.02Z"/>
      <path class="cls-1" d="m26.08,8.46h-2c0-.99-1.15-1.83-2.51-1.83v-2c2.49,0,4.51,1.72,4.51,3.83Z"/>
    </g>
    <g>
      <path class="cls-1" d="m25.07,55.1h0c-.35,0-.65-.24-.73-.58l-5.05-21.36v-3.53h1.02v3.47l4.77,20.11,5.01-20.27-.14-3.49,1.02-.04.14,3.63-5.31,21.49c-.08.34-.38.57-.73.57Z"/>
      <path class="cls-1" d="m25.07,55.65h0c-.61,0-1.13-.42-1.26-1l-5.06-21.49v-4.08h2.12v3.95l4.23,17.84,4.45-17.99-.16-3.96,2.12-.08.17,4.26-5.33,21.56c-.14.58-.67.99-1.27.99Z"/>
    </g>
    <g>
      <path class="cls-1" d="m25.2,40.49c-2.25,0-4.31-1.43-5.01-3.48l.97-.33c.56,1.64,2.23,2.79,4.05,2.79s3.46-1.23,4.01-2.98l.98.31c-.68,2.18-2.73,3.7-4.99,3.7Z"/>
      <path class="cls-1" d="m25.2,41.04c-2.48,0-4.76-1.58-5.53-3.85l-.18-.52,2.01-.69.18.52c.49,1.42,1.94,2.42,3.53,2.42s3.01-1.07,3.49-2.6l.16-.53,2.03.63-.17.52c-.75,2.41-3.02,4.08-5.51,4.08Z"/>
    </g>
    <g>
      <path class="cls-1" d="m3.38,54.02l-.11-10.66c.29-2.45,1.86-4.48,4.1-5.36l9.39-4.06,2.71-2.39.68.77-2.91,2.53-9.48,4.1c-1.9.75-3.22,2.46-3.47,4.48l.12,10.59h-1.02Z"/>
      <path class="cls-1" d="m2.83,54.58l-.12-11.21c.32-2.7,2.02-4.92,4.44-5.88l9.29-4.02,3.06-2.7,1.41,1.59-3.47,2.99-9.48,4.1c-1.72.68-2.92,2.22-3.14,4.04l.13,11.07-2.12.02Z"/>
    </g>
    <g>
      <g>
        <path class="cls-1" d="m34.34,35.07c-.08-.27-.16-.53-.23-.8l-.47-.19-2.52-2.54-.71.74,2.6,2.61,1.43.58c-.03-.14-.06-.27-.1-.41Z"/>
        <path class="cls-1" d="m35.21,36.34l-.97-.35-1.62-.71-2.98-2.99,1.47-1.53,2.84,2.85.62.25.07.27c.05.21.12.42.18.62l.05.16c.04.13.07.26.1.38l.24,1.04Z"/>
      </g>
      <g>
        <path class="cls-1" d="m45.95,43.25s0,0,0,0l.16,9.52,1.01-.02-.16-9.52c-.34.06-.66.07-1.01.01Z"/>
        <path class="cls-1" d="m45.57,53.33l-.17-9.98-.28-.79.91.14c.27.04.54.04.84-.01l.63-.1.18,10.71-2.11.04Z"/>
      </g>
    </g>
    <g>
      <g>
        <path class="cls-1" d="m12.54,42.09c-.5-4.98,3.71-7.83,3.89-7.94l.56.85s-3.88,2.63-3.44,6.99l-1.02.1Z"/>
        <path class="cls-1" d="m12.05,42.69l-.05-.55c-.53-5.32,3.95-8.33,4.14-8.46l.46-.3,1.17,1.77-.46.3s-3.59,2.47-3.19,6.47l.05.55-2.11.21Z"/>
      </g>
      <g>
        <path class="cls-1" d="m15.09,53.46h-.78v-1.02h.78c.45,0,.86-.2,1.15-.54.28-.34.4-.79.32-1.23l-1.12-6.03c-.1-1.2-1.07-2.09-2.22-2.09s-2.12.9-2.21,2.04l-1.13,6.09c-.08.43.03.88.32,1.22.28.34.7.53,1.14.53h.86v1.02h-.86c-.75,0-1.45-.33-1.93-.9-.48-.57-.67-1.32-.54-2.06l1.12-6.04c.13-1.62,1.55-2.93,3.23-2.93s3.1,1.31,3.23,2.98l1.11,5.98c.14.74-.06,1.49-.54,2.07-.48.58-1.18.91-1.93.91Z"/>
        <path class="cls-1" d="m15.09,54.01h-1.33v-2.12h1.33c.28,0,.54-.12.72-.34.18-.22.25-.5.2-.77l-1.12-6.03c-.08-.96-.8-1.64-1.68-1.64s-1.59.67-1.66,1.54l-1.13,6.15c-.05.27.02.55.2.76.18.21.44.34.72.34h1.41v2.12h-1.41c-.91,0-1.77-.4-2.35-1.1-.58-.7-.82-1.62-.65-2.51l1.12-6.04c.14-1.87,1.8-3.38,3.77-3.38s3.62,1.53,3.78,3.49l1.1,5.92c.17.9-.07,1.82-.66,2.52-.58.7-1.44,1.11-2.36,1.11Z"/>
      </g>
      <g>
        <path class="cls-1" d="m37.06,47.75h-1.02v-6.09c0-1.31-.35-2.6-1.01-3.73l-1.66-2.83.88-.52,1.66,2.83c.75,1.29,1.15,2.75,1.15,4.24v6.09Z"/>
        <path class="cls-1" d="m37.61,48.3h-2.12v-6.64c0-1.21-.32-2.41-.94-3.45l-1.94-3.31,1.83-1.07,1.94,3.31c.8,1.37,1.23,2.93,1.23,4.52v6.64Z"/>
      </g>
      <g>
        <path class="cls-1" d="m36.55,53.46c-1.79,0-3.25-1.46-3.25-3.25s1.46-3.26,3.25-3.26,3.26,1.46,3.26,3.26-1.46,3.25-3.26,3.25Zm0-5.49c-1.23,0-2.23,1-2.23,2.23s1,2.23,2.23,2.23,2.23-1,2.23-2.23-1-2.23-2.23-2.23Z"/>
        <path class="cls-1" d="m36.55,54.01c-2.1,0-3.8-1.71-3.8-3.81s1.71-3.8,3.8-3.8,3.8,1.71,3.8,3.8-1.71,3.81-3.8,3.81Zm0-5.49c-.93,0-1.68.75-1.68,1.68s.75,1.68,1.68,1.68,1.68-.75,1.68-1.68-.75-1.68-1.68-1.68Z"/>
      </g>
    </g>
  </g>
  <g>
    <path class="cls-1" d="m45.29,43.74c-5.75,0-10.63-4.11-11.6-9.76-.11-.66-.17-1.34-.17-2.01,0-6.49,5.28-11.77,11.77-11.77s11.77,5.28,11.77,11.77-5.28,11.77-11.77,11.77Zm0-21.95c-5.61,0-10.17,4.56-10.17,10.17,0,.58.05,1.17.15,1.74h0c.84,4.89,5.06,8.44,10.03,8.44,5.61,0,10.17-4.56,10.17-10.17s-4.56-10.17-10.17-10.17Z"/>
    <path class="cls-1" d="m48.41,37.82c-.13,0-.26-.05-.35-.15l-2.77-2.77-2.77,2.77c-.09.09-.22.15-.35.15h0c-.13,0-.26-.05-.35-.15l-2.23-2.23c-.2-.2-.2-.51,0-.71l2.77-2.77-2.77-2.77c-.2-.2-.2-.51,0-.71l2.23-2.23c.2-.2.51-.2.71,0l2.77,2.77,2.77-2.77c.2-.2.51-.2.71,0l2.23,2.23c.2.2.2.51,0,.71l-2.77,2.77,2.77,2.77c.2.2.2.51,0,.71l-2.23,2.23c-.09.09-.22.15-.35.15Zm-3.12-4.12c.13,0,.26.05.35.15l2.77,2.77,1.52-1.53-2.77-2.77c-.2-.2-.2-.51,0-.71l2.77-2.77-1.52-1.52-2.77,2.77c-.2.2-.51.2-.71,0l-2.77-2.77-1.52,1.52,2.77,2.77c.09.09.15.22.15.35s-.05.26-.15.35l-2.77,2.77,1.52,1.53,2.77-2.77c.1-.1.23-.15.35-.15Z"/>
  </g>
</svg>