<?xml version="1.0" encoding="UTF-8"?>
<svg id="Layer_1" data-name="Layer 1" xmlns="http://www.w3.org/2000/svg" viewBox="0 0 60 60">
  <defs>
    <style>
      .cls-1 {
        fill: #37464c;
        stroke-width: 0px;
      }
    </style>
  </defs>
  <g>
    <g>
      <g>
        <path class="cls-1" d="m25.27,32.38c-4.8,0-8.34-4.57-9.03-11.63-.44-4.5.3-7.83,2.19-9.92,1.54-1.7,3.84-2.56,6.84-2.56s5.38.88,6.93,2.61c1.88,2.1,2.59,5.42,2.1,9.88h0c-.79,7.17-4.25,11.62-9.03,11.62Zm0-23.09c-2.7,0-4.74.75-6.08,2.22-1.69,1.86-2.34,4.93-1.93,9.13.63,6.51,3.78,10.71,8.01,10.71s7.29-4.11,8.01-10.72h0c.46-4.15-.16-7.21-1.84-9.08-1.35-1.5-3.42-2.27-6.17-2.27Z"/>
        <path class="cls-1" d="m25.27,32.93c-5.1,0-8.86-4.76-9.58-12.13-.45-4.66.33-8.14,2.33-10.34,1.65-1.82,4.08-2.74,7.24-2.74s5.68.94,7.34,2.79c1.99,2.22,2.74,5.69,2.23,10.3-.82,7.47-4.49,12.11-9.58,12.11Zm0-23.09c-2.54,0-4.44.69-5.67,2.04-1.58,1.74-2.18,4.67-1.79,8.71.6,6.2,3.53,10.21,7.47,10.21s6.77-3.92,7.47-10.23c.44-3.99-.13-6.9-1.71-8.66-1.24-1.38-3.18-2.08-5.76-2.08Z"/>
      </g>
      <path class="cls-1" d="m25.37,16.74c-2.24,0-4.85-.56-4.85-2.14,0-.47.38-.85.85-.85.41,0,.76.29.83.68.29.23,1.43.61,3.17.61.47,0,.85.38.85.85s-.38.85-.85.85Zm-3.15-2.14h0s0,0,0,0Z"/>
      <path class="cls-1" d="m25.37,16.74c-.47,0-.85-.38-.85-.85s.38-.85.85-.85c1.97,0,3.07-.65,3.15-.9,0-.47.38-.84.85-.84s.85.39.85.86c0,1.69-2.44,2.58-4.85,2.58Z"/>
      <path class="cls-1" d="m17.21,17.5c-.47,0-.85-.38-.85-.85s.38-.85.85-.85c2.02,0,3.3-.79,3.3-1.2,0-.47.38-.85.85-.85s.85.38.85.85c0,1.65-2.15,2.89-5,2.89Z"/>
      <path class="cls-1" d="m33.54,17.17c-2.86,0-5.02-1.29-5.02-3,0-.47.38-.85.85-.85s.85.38.85.85c0,.44,1.17,1.3,3.32,1.3.47,0,.85.38.85.85s-.38.85-.85.85Z"/>
    </g>
    <g>
      <path class="cls-1" d="m25.27,54.78h0c-.35,0-.65-.24-.73-.58l-5.03-21.3v-3.52h1.02v3.46l4.75,20.05,5-20.21-.14-3.48,1.02-.04.14,3.62-5.3,21.42c-.08.34-.38.57-.73.57Z"/>
      <path class="cls-1" d="m25.27,55.33h0c-.61,0-1.12-.42-1.26-1l-5.05-21.43v-4.07h2.12v3.94l4.21,17.78,4.43-17.93-.15-3.95,2.12-.08.17,4.25-5.32,21.5c-.15.58-.67.99-1.26.99Z"/>
    </g>
    <g>
      <path class="cls-1" d="m25.4,40.22c-2.24,0-4.3-1.43-5-3.47l.96-.33c.56,1.64,2.22,2.78,4.03,2.78s3.45-1.22,4-2.97l.97.3c-.68,2.17-2.72,3.69-4.97,3.69Z"/>
      <path class="cls-1" d="m25.4,40.77c-2.47,0-4.74-1.58-5.52-3.84l-.18-.52,2-.69.18.52c.49,1.42,1.93,2.41,3.51,2.41s3-1.06,3.47-2.59l.16-.53,2.02.63-.17.52c-.75,2.4-3.01,4.07-5.5,4.07Z"/>
    </g>
    <g>
      <path class="cls-1" d="m3.65,53.71l-.11-10.63c.29-2.45,1.85-4.47,4.08-5.35l9.36-4.05,2.7-2.39.68.76-2.9,2.53-9.45,4.09c-1.9.75-3.21,2.46-3.46,4.46l.12,10.56h-1.02Z"/>
      <path class="cls-1" d="m3.1,54.27l-.12-11.18c.32-2.69,2.01-4.91,4.43-5.87l9.26-4.01,3.05-2.69,1.41,1.59-3.46,2.98-9.45,4.09c-1.72.68-2.91,2.22-3.13,4.02l.13,11.04-2.12.02Z"/>
    </g>
    <g>
      <g>
        <path class="cls-1" d="m34.52,34.38l-.83-.33-2.54-2.5-.72.73,2.61,2.57,1.67.67c-.11-.37-.17-.75-.2-1.14Z"/>
        <path class="cls-1" d="m35.56,36.45l-2.9-1.2-3.01-2.96,1.49-1.51,2.85,2.8,1.05.42.03.34c.03.36.09.71.18,1.03l.31,1.08Z"/>
      </g>
      <g>
        <path class="cls-1" d="m47.04,42.69c-.32.08-.66.12-1,.12,0,0,0,0,0,0,.02.09.04.19.05.28l.16,9.38,1.02-.02-.17-9.43c-.01-.11-.04-.22-.06-.33Z"/>
        <path class="cls-1" d="m45.71,53.03l-.17-9.93s0,0,0,0c0,0-.01-.04-.02-.08l-.21-1.12.83.34c.27,0,.53-.04.77-.1l.57-.14.12.69c.02.08.04.17.04.25l.18,10.04-2.12.04Z"/>
      </g>
    </g>
    <g>
      <g>
        <path class="cls-1" d="m12.78,41.81c-.5-4.97,3.7-7.8,3.88-7.92l.56.85s-3.86,2.63-3.43,6.97l-1.01.1Z"/>
        <path class="cls-1" d="m12.29,42.41l-.05-.55c-.53-5.31,3.94-8.31,4.13-8.43l.46-.3,1.17,1.76-.45.31s-3.59,2.48-3.19,6.46l.05.55-2.11.21Z"/>
      </g>
      <g>
        <path class="cls-1" d="m15.32,53.15h-.78v-1.02h.78c.44,0,.86-.2,1.14-.54.28-.34.4-.79.32-1.22l-1.12-6.01c-.1-1.19-1.07-2.09-2.21-2.09s-2.11.89-2.21,2.04l-1.12,6.08c-.08.43.03.88.32,1.21.28.34.7.53,1.14.53h.86v1.02h-.86c-.74,0-1.44-.33-1.92-.9-.48-.57-.67-1.32-.54-2.05l1.12-6.02c.13-1.62,1.54-2.92,3.22-2.92s3.09,1.31,3.22,2.97l1.11,5.96c.14.74-.06,1.49-.54,2.06-.48.58-1.18.9-1.93.9Z"/>
        <path class="cls-1" d="m15.32,53.7h-1.33v-2.12h1.33c.28,0,.54-.12.72-.34.18-.22.25-.5.2-.77l-1.12-6.01c-.08-.96-.8-1.64-1.67-1.64s-1.59.67-1.66,1.53l-1.13,6.13c-.05.27.02.55.2.76s.44.33.71.33h1.41v2.12h-1.41c-.91,0-1.76-.4-2.34-1.1-.58-.7-.82-1.61-.65-2.5l1.12-6.02c.14-1.87,1.8-3.37,3.76-3.37s3.61,1.53,3.77,3.48l1.1,5.9c.17.9-.07,1.81-.66,2.51s-1.44,1.1-2.35,1.1Z"/>
      </g>
      <g>
        <path class="cls-1" d="m37.23,47.46h-1.02v-6.07c0-1.31-.35-2.59-1.01-3.72l-1.66-2.82.88-.52,1.66,2.82c.75,1.28,1.15,2.74,1.15,4.23v6.07Z"/>
        <path class="cls-1" d="m37.78,48.01h-2.12v-6.62c0-1.21-.32-2.4-.93-3.44l-1.93-3.3,1.83-1.07,1.93,3.3c.8,1.37,1.22,2.92,1.22,4.51v6.62Z"/>
      </g>
      <g>
        <path class="cls-1" d="m36.72,53.15c-1.79,0-3.25-1.46-3.25-3.25s1.46-3.25,3.25-3.25,3.25,1.46,3.25,3.25-1.46,3.25-3.25,3.25Zm0-5.47c-1.23,0-2.23,1-2.23,2.23s1,2.23,2.23,2.23,2.23-1,2.23-2.23-1-2.23-2.23-2.23Z"/>
        <path class="cls-1" d="m36.72,53.7c-2.09,0-3.8-1.7-3.8-3.79s1.7-3.8,3.8-3.8,3.79,1.7,3.79,3.8-1.7,3.79-3.79,3.79Zm0-5.47c-.92,0-1.68.75-1.68,1.68s.75,1.68,1.68,1.68,1.68-.75,1.68-1.68-.75-1.68-1.68-1.68Z"/>
      </g>
    </g>
  </g>
  <g>
    <path class="cls-1" d="m45.51,43.32c-6.49,0-11.77-5.28-11.77-11.77s5.28-11.77,11.77-11.77,11.77,5.28,11.77,11.77-5.28,11.77-11.77,11.77Zm0-21.95c-5.61,0-10.17,4.56-10.17,10.17s4.56,10.17,10.17,10.17,10.17-4.56,10.17-10.17-4.56-10.17-10.17-10.17Z"/>
    <path class="cls-1" d="m48.64,37.4h0c-.13,0-.26-.05-.35-.15l-2.77-2.77-2.77,2.77c-.09.09-.22.15-.35.15h0c-.13,0-.26-.05-.35-.15l-2.23-2.23c-.2-.2-.2-.51,0-.71l2.77-2.77-2.77-2.77c-.2-.2-.2-.51,0-.71l2.23-2.23c.2-.2.51-.2.71,0l2.77,2.77,2.77-2.77c.2-.2.51-.2.71,0l2.23,2.23c.09.09.15.22.15.35s-.05.26-.15.35l-2.77,2.77,2.77,2.77c.09.09.15.22.15.35s-.05.26-.15.35l-2.23,2.23c-.09.09-.22.15-.35.15Zm-3.12-4.12h0c.13,0,.26.05.35.15l2.77,2.77,1.53-1.53-2.77-2.77c-.09-.09-.15-.22-.15-.35s.05-.26.15-.35l2.77-2.77-1.53-1.52-2.77,2.77c-.2.2-.51.2-.71,0l-2.77-2.77-1.52,1.52,2.77,2.77c.2.2.2.51,0,.71l-2.77,2.77,1.52,1.53,2.77-2.77c.09-.09.22-.15.35-.15Z"/>
  </g>
</svg>