<?xml version="1.0" encoding="UTF-8"?>
<svg id="Layer_1" data-name="Layer 1" xmlns="http://www.w3.org/2000/svg" viewBox="0 0 60 60">
  <defs>
    <style>
      .cls-1 {
        fill: #37464c;
        stroke-width: 0px;
      }
    </style>
  </defs>
  <g>
    <g>
      <path class="cls-1" d="m30.12,30.64c-5.25,0-9.12-4.99-9.87-12.72-.48-4.92.33-8.57,2.4-10.84,1.68-1.86,4.2-2.8,7.48-2.8s5.89.96,7.58,2.85c2.06,2.3,2.83,5.93,2.29,10.8h0c-.86,7.84-4.65,12.71-9.87,12.71Zm0-25.25c-2.95,0-5.19.82-6.65,2.43-1.85,2.04-2.56,5.4-2.11,9.99.69,7.11,4.13,11.71,8.76,11.71s7.97-4.49,8.76-11.72h0c.5-4.54-.18-7.88-2.02-9.93-1.47-1.64-3.74-2.48-6.75-2.48Z"/>
      <path class="cls-1" d="m30.12,31.19c-5.55,0-9.64-5.19-10.42-13.21-.49-5.08.36-8.87,2.54-11.27,1.79-1.98,4.45-2.98,7.88-2.98s6.19,1.02,7.99,3.03c2.17,2.42,2.98,6.2,2.43,11.23-.9,8.14-4.89,13.2-10.42,13.2Zm0-26.36c-3.11,0-5.49.88-7.07,2.62-1.96,2.16-2.72,5.67-2.26,10.42.72,7.42,4.38,12.22,9.33,12.22s8.49-4.68,9.33-12.22c.52-4.71-.21-8.2-2.15-10.37-1.59-1.77-4-2.67-7.17-2.67Zm0,25.25c-4.93,0-8.59-4.79-9.31-12.21-.46-4.75.3-8.25,2.25-10.41,1.57-1.73,3.95-2.61,7.06-2.61s5.58.9,7.16,2.66c1.95,2.17,2.67,5.66,2.15,10.36-.83,7.53-4.4,12.21-9.31,12.21Zm0-24.13c-2.79,0-4.89.76-6.24,2.25-1.74,1.92-2.4,5.13-1.97,9.56.66,6.81,3.89,11.21,8.21,11.21s7.45-4.3,8.22-11.23c.48-4.38-.15-7.58-1.88-9.51-1.36-1.52-3.5-2.3-6.34-2.3Z"/>
    </g>
    <path class="cls-1" d="m30.23,13.47c-2.41,0-5.22-.59-5.22-2.26,0-.47.38-.85.85-.85.42,0,.77.31.84.71.29.26,1.55.7,3.54.7.47,0,.85.38.85.85s-.38.85-.85.85Zm-3.53-2.26h0s0,0,0,0Z"/>
    <path class="cls-1" d="m30.23,13.47c-.47,0-.85-.38-.85-.85s.38-.85.85-.85c2.18,0,3.48-.74,3.53-1.04,0-.47.38-.85.85-.85s.85.38.85.85c0,1.8-2.63,2.74-5.23,2.74Z"/>
    <path class="cls-1" d="m21.32,14.3c-.47,0-.85-.38-.85-.85s.38-.85.85-.85c2.29,0,3.69-.9,3.69-1.39s.38-.85.85-.85.85.38.85.85c0,1.76-2.32,3.09-5.39,3.09Z"/>
    <path class="cls-1" d="m39.17,13.93c-3.08,0-5.41-1.38-5.41-3.2,0-.47.38-.85.85-.85s.85.38.85.85c0,.6,1.48,1.5,3.71,1.5.47,0,.85.38.85.85s-.38.85-.85.85Z"/>
  </g>
  <g>
    <path class="cls-1" d="m30.13,55.15h0c-.38,0-.71-.26-.8-.63l-5.51-23.29v-3.85h1.12v3.78l5.2,21.93,5.47-22.1-.15-3.8,1.11-.04.16,3.96-5.79,23.43c-.09.37-.42.63-.8.63Z"/>
    <path class="cls-1" d="m30.13,55.7h0c-.64,0-1.18-.44-1.33-1.06l-5.52-23.42v-4.4h2.21v4.27l4.66,19.65,4.9-19.82-.17-4.28,2.21-.08.18,4.59-5.81,23.5c-.15.61-.7,1.04-1.33,1.04Zm5.9-27.99l.13,3.33-5.8,23.44s.03-.05.04-.08l5.78-23.35-.13-3.33h-.01Zm-11.65,3.45l5.49,23.23s.02.06.04.08l-5.51-23.32-.02-3.23v3.23Z"/>
  </g>
  <g>
    <path class="cls-1" d="m30.27,39.22c-2.45,0-4.7-1.56-5.47-3.8l1.06-.36c.61,1.79,2.43,3.04,4.41,3.04s3.77-1.34,4.37-3.25l1.06.33c-.74,2.37-2.98,4.03-5.44,4.03Z"/>
    <path class="cls-1" d="m30.27,39.77c-2.68,0-5.14-1.71-5.99-4.17l-.18-.52,2.09-.72.18.52c.54,1.57,2.14,2.67,3.89,2.67s3.32-1.18,3.85-2.87l.16-.53,2.11.66-.17.52c-.81,2.6-3.27,4.42-5.96,4.42Zm-4.74-4.02c.84,1.74,2.71,2.92,4.74,2.92s3.91-1.26,4.72-3.13h-.01c-.81,1.86-2.67,3.12-4.71,3.12s-3.89-1.17-4.72-2.91h-.01Z"/>
  </g>
  <g>
    <path class="cls-1" d="m6.48,53.98l-.12-11.62c.32-2.67,2.03-4.89,4.47-5.85l10.23-4.43,2.96-2.61.74.84-3.17,2.76-10.33,4.47c-2.07.82-3.52,2.69-3.78,4.88l.13,11.55h-1.12Z"/>
    <path class="cls-1" d="m5.94,54.53l-.13-12.17c.34-2.92,2.19-5.33,4.81-6.37l10.14-4.39,3.3-2.92,1.47,1.66-3.73,3.22-10.33,4.47c-1.9.75-3.21,2.45-3.45,4.44l.14,12.02-2.21.02Zm15.38-21.97l-10.28,4.45c-2.27.89-3.85,2.96-4.14,5.41l.14,11-.12-11c.29-2.47,1.87-4.51,4.13-5.4l10.28-4.46Zm2.64-2.32l-1.34,1.19,1.35-1.18h0Z"/>
  </g>
  <g>
    <path class="cls-1" d="m53.06,52.61l-.18-10.25c-.26-2.14-1.7-4-3.76-4.82l-10.49-4.19-2.86-2.81.78-.79,2.78,2.73,10.2,4.02c2.44.96,4.15,3.18,4.46,5.78l.18,10.31-1.12.02Z"/>
    <path class="cls-1" d="m52.52,53.17l-.19-10.8c-.24-1.9-1.54-3.58-3.41-4.31l-10.68-4.31-3.25-3.2,1.55-1.58,3.09,3.04,10.1,3.98c2.62,1.04,4.47,3.42,4.81,6.22l.2,10.92-2.21.04Zm-6.82-17.59l3.62,1.45c2.24.88,3.81,2.9,4.1,5.26l.19,9.76-.17-9.76c-.29-2.34-1.87-4.39-4.12-5.28l-3.63-1.43Zm-6.77-2.7h.03s-2.41-2.36-2.41-2.36h-.01s2.39,2.36,2.39,2.36Z"/>
  </g>
  <g>
    <g>
      <path class="cls-1" d="m16.47,40.96c-.54-5.43,4.05-8.53,4.25-8.66l.62.93s-4.23,2.87-3.75,7.62l-1.11.11Z"/>
      <path class="cls-1" d="m15.97,41.56l-.05-.55c-.58-5.76,4.28-9.04,4.49-9.17l.46-.3,1.22,1.85-.46.3s-3.95,2.72-3.51,7.11l.05.55-2.2.22Zm4.6-8.48c-1.08.86-3.73,3.38-3.6,7.27h.01c-.12-3.83,2.52-6.38,3.59-7.25v-.02Z"/>
    </g>
    <g>
      <path class="cls-1" d="m19.24,53.36h-.85v-1.12h.85c.49,0,.94-.21,1.25-.59.31-.37.44-.86.35-1.34l-1.22-6.57c-.11-1.31-1.17-2.28-2.42-2.28s-2.31.98-2.41,2.23l-1.23,6.64c-.09.47.04.96.35,1.33.31.37.76.58,1.24.58h.94v1.12h-.94c-.81,0-1.58-.36-2.1-.98-.52-.63-.73-1.44-.59-2.24l1.22-6.59c.14-1.77,1.69-3.19,3.52-3.19s3.38,1.43,3.52,3.25l1.21,6.51c.15.8-.07,1.63-.59,2.25-.52.63-1.29.99-2.11.99Z"/>
      <path class="cls-1" d="m19.24,53.91h-1.4v-2.21h1.4c.32,0,.62-.14.83-.39.21-.25.29-.57.23-.89l-1.22-6.57c-.09-1.07-.9-1.83-1.88-1.83s-1.79.76-1.86,1.72l-1.24,6.7c-.06.31.03.63.23.87.2.25.5.39.82.39h1.49v2.21h-1.49c-.98,0-1.9-.43-2.52-1.18-.62-.75-.88-1.74-.7-2.7l1.22-6.59c.16-2.02,1.94-3.64,4.06-3.64s3.9,1.65,4.07,3.76l1.21,6.46c.18.97-.08,1.95-.71,2.71-.63.75-1.55,1.19-2.53,1.19Zm-.3-1.1h.3c.65,0,1.27-.29,1.69-.79s.59-1.16.47-1.8l-1.21-6.51c-.13-1.6-1.44-2.8-2.98-2.8s-2.85,1.21-2.97,2.69l-1.23,6.64c-.12.64.05,1.29.47,1.79.42.5,1.03.79,1.68.79l.39-.02h-.39c-.65,0-1.25-.28-1.67-.78-.41-.49-.58-1.14-.46-1.78l1.23-6.64c.12-1.48,1.42-2.68,2.95-2.68s2.84,1.2,2.97,2.79l1.21,6.52c.12.64-.05,1.29-.47,1.79-.41.5-1.02.79-1.67.79l-.3.02Z"/>
    </g>
    <g>
      <path class="cls-1" d="m43.2,47.14h-1.12v-6.64c0-1.43-.38-2.83-1.1-4.06l-1.81-3.09.96-.56,1.81,3.09c.82,1.4,1.26,3,1.26,4.63v6.64Z"/>
      <path class="cls-1" d="m43.75,47.69h-2.21v-7.19c0-1.33-.36-2.64-1.03-3.79l-2.09-3.56,1.91-1.12,2.09,3.56c.87,1.49,1.33,3.18,1.33,4.91v7.19Zm-1.12-1.1h.02v-6.09c0-1.53-.41-3.03-1.18-4.35l-1.53-2.61h-.01s1.53,2.62,1.53,2.62c.77,1.32,1.18,2.82,1.18,4.34v6.09Z"/>
    </g>
    <g>
      <path class="cls-1" d="m42.64,53.36c-1.96,0-3.55-1.59-3.55-3.55s1.59-3.55,3.55-3.55,3.55,1.59,3.55,3.55-1.59,3.55-3.55,3.55Zm0-5.98c-1.34,0-2.43,1.09-2.43,2.43s1.09,2.43,2.43,2.43,2.43-1.09,2.43-2.43-1.09-2.43-2.43-2.43Z"/>
      <path class="cls-1" d="m42.64,53.91c-2.26,0-4.1-1.84-4.1-4.1s1.84-4.1,4.1-4.1,4.1,1.84,4.1,4.1-1.84,4.1-4.1,4.1Zm0-7.1c-1.65,0-3,1.35-3,3s1.35,3,3,3,3-1.35,3-3-1.35-3-3-3Zm0,5.98c-1.65,0-2.98-1.34-2.98-2.98s1.34-2.98,2.98-2.98,2.98,1.34,2.98,2.98-1.34,2.98-2.98,2.98Zm0-4.87c-1.04,0-1.88.85-1.88,1.88s.84,1.88,1.88,1.88,1.88-.84,1.88-1.88-.85-1.88-1.88-1.88Z"/>
    </g>
  </g>
</svg>