<?xml version="1.0" encoding="UTF-8"?>
<svg id="Layer_1" data-name="Layer 1" xmlns="http://www.w3.org/2000/svg" viewBox="0 0 60 60">
  <defs>
    <style>
      .cls-1 {
        fill: #37464c;
        stroke-width: 0px;
      }
    </style>
  </defs>
  <g>
    <g>
      <path class="cls-1" d="m7.5,53.39c-.23-2.31,1.73-3.63,1.81-3.69l.26.4s-1.8,1.22-1.6,3.24l-.47.05Z"/>
      <path class="cls-1" d="m7.39,53.53v-.12c-.25-2.33,1.64-3.66,1.85-3.8l.1-.07.4.6-.1.07c-.07.05-1.74,1.21-1.54,3.13v.12s-.71.07-.71.07Zm1.89-3.65c-.4.3-1.79,1.49-1.66,3.37l.22-.02c-.11-1.74,1.19-2.87,1.56-3.16l-.12-.19Z"/>
    </g>
    <g>
      <path class="cls-1" d="m9.83,57.29l-.61-2.77c-.07-.78-.85-1.38-1.78-1.38s-1.7.61-1.77,1.36l-.62,2.8c-.07.34.03.69.29.96.23.24.57.37.93.39,0-.03,0-.06,0-.08,0-.13.02-.26.04-.38-.21-.02-.4-.09-.53-.23-.16-.16-.22-.36-.17-.56l.62-2.83c.05-.53.58-.95,1.22-.95s1.17.42,1.22.97l.61,2.8c.04.2-.02.41-.18.57-.07.07-.17.12-.27.16.04.16.04.32.02.48.26-.06.51-.16.68-.34.26-.27.37-.62.3-.96Z"/>
      <path class="cls-1" d="m6.4,58.78h-.13c-.41-.04-.77-.2-1.01-.44-.29-.3-.41-.69-.33-1.07l.62-2.8c.08-.81.91-1.46,1.89-1.46s1.82.66,1.9,1.5l.61,2.76c.08.38-.04.78-.33,1.07-.17.18-.42.3-.74.37l-.18.04.03-.18c.02-.15.02-.29-.02-.43l-.03-.11.1-.04c.08-.03.16-.07.23-.13.13-.13.18-.29.14-.46l-.62-2.8c-.05-.5-.52-.87-1.1-.87s-1.05.37-1.09.83l-.62,2.84c-.04.16.02.32.14.45.11.11.27.18.46.19h.13s-.03.25-.03.25c-.01.09-.02.17-.02.26v.22Zm1.04-5.52c-.84,0-1.58.56-1.65,1.25l-.62,2.82c-.07.3.03.61.26.84.17.18.42.29.72.34,0-.07.01-.15.02-.22-.2-.04-.36-.12-.48-.25-.19-.19-.26-.44-.21-.68l.62-2.83c.05-.58.64-1.05,1.34-1.05s1.28.47,1.34,1.08l.61,2.78c.05.25-.02.49-.21.68-.06.07-.14.11-.22.15.01.08.02.16.02.24.19-.06.34-.15.45-.26.23-.24.33-.54.26-.85l-.61-2.77c-.07-.73-.8-1.29-1.65-1.29Z"/>
    </g>
  </g>
  <path class="cls-1" d="m11.14,46.78c-2.72,0-4.93-2.12-4.93-4.73s2.21-4.73,4.93-4.73,4.93,2.12,4.93,4.73-2.21,4.73-4.93,4.73Zm0-8.45c-2.17,0-3.93,1.67-3.93,3.73s1.76,3.73,3.93,3.73,3.93-1.67,3.93-3.73-1.76-3.73-3.93-3.73Z"/>
  <path class="cls-1" d="m11.14,46.98c-2.83,0-5.13-2.21-5.13-4.93s2.3-4.93,5.13-4.93,5.13,2.21,5.13,4.93-2.3,4.93-5.13,4.93Zm0-8.45c-2.06,0-3.73,1.58-3.73,3.53s1.67,3.53,3.73,3.53,3.73-1.58,3.73-3.53-1.67-3.53-3.73-3.53Z"/>
  <path class="cls-1" d="m20.47,58h-1v-5.04c0-1.52-1.31-2.76-2.91-2.76H5.73c-1.61,0-2.91,1.24-2.91,2.76v5.04h-1v-5.04c0-2.07,1.76-3.76,3.91-3.76h10.83c2.16,0,3.91,1.68,3.91,3.76v5.04Z"/>
  <path class="cls-1" d="m19.97,58.7c-.39,0-.7-.31-.7-.7v-5.04c0-1.41-1.22-2.56-2.71-2.56H5.73c-1.5,0-2.71,1.15-2.71,2.56v5.04c0,.39-.31.7-.7.7s-.7-.31-.7-.7v-5.04c0-2.18,1.85-3.96,4.11-3.96h10.83c2.27,0,4.11,1.77,4.11,3.96v5.04c0,.39-.31.7-.7.7Z"/>
  <g>
    <g>
      <path class="cls-1" d="m15.24,55.67h-.48v-2.76c0-.59-.16-1.18-.47-1.69l-.77-1.28.41-.23.77,1.28c.35.58.54,1.25.54,1.93v2.76Z"/>
      <path class="cls-1" d="m15.36,55.8h-.73v-2.89c0-.57-.16-1.13-.45-1.63l-.84-1.39.63-.36.83,1.39c.36.6.55,1.29.55,1.99v2.89Zm-.48-.25h.23v-2.64c0-.65-.18-1.3-.52-1.86l-.71-1.18-.19.11.71,1.17c.32.53.49,1.14.49,1.75v2.64Z"/>
    </g>
    <g>
      <path class="cls-1" d="m15,58.26c-.83,0-1.51-.66-1.51-1.48s.68-1.48,1.51-1.48,1.51.66,1.51,1.48-.68,1.48-1.51,1.48Zm0-2.49c-.57,0-1.04.45-1.04,1.01s.47,1.01,1.04,1.01,1.04-.45,1.04-1.01-.47-1.01-1.04-1.01Z"/>
      <path class="cls-1" d="m15,58.39c-.9,0-1.64-.72-1.64-1.6s.73-1.6,1.64-1.6,1.64.72,1.64,1.6-.73,1.6-1.64,1.6Zm0-2.95c-.76,0-1.39.61-1.39,1.35s.62,1.35,1.39,1.35,1.39-.61,1.39-1.35-.62-1.35-1.39-1.35Zm0,2.49c-.64,0-1.16-.51-1.16-1.14s.52-1.14,1.16-1.14,1.16.51,1.16,1.14-.52,1.14-1.16,1.14Zm0-2.03c-.5,0-.91.4-.91.89s.41.89.91.89.91-.4.91-.89-.41-.89-.91-.89Z"/>
    </g>
  </g>
  <g>
    <g>
      <path class="cls-1" d="m46.01,17.12c-.23-2.31,1.73-3.63,1.81-3.69l.26.4s-1.8,1.22-1.6,3.24l-.47.05Z"/>
      <path class="cls-1" d="m45.9,17.25v-.12c-.25-2.39,1.77-3.75,1.85-3.8l.1-.07.4.61-.11.07s-1.74,1.18-1.54,3.12v.12s-.71.07-.71.07Zm1.89-3.65c-.4.3-1.79,1.48-1.66,3.37l.22-.02c-.11-1.72,1.18-2.87,1.56-3.16l-.13-.19Z"/>
    </g>
    <g>
      <path class="cls-1" d="m48.34,21.01l-.61-2.77c-.07-.78-.85-1.38-1.78-1.38s-1.7.61-1.77,1.36l-.62,2.8c-.07.34.03.69.29.96.23.24.57.37.93.39,0-.03,0-.06,0-.08,0-.13.02-.26.04-.38-.21-.02-.4-.09-.53-.23-.16-.16-.22-.36-.17-.56l.62-2.83c.05-.53.58-.95,1.22-.95s1.17.42,1.22.97l.61,2.8c.04.2-.02.41-.18.57-.07.07-.17.12-.27.16.04.16.04.32.02.48.26-.06.51-.16.68-.34.26-.27.37-.62.3-.96Z"/>
      <path class="cls-1" d="m44.92,22.5h-.14c-.41-.04-.77-.2-1.01-.44-.29-.3-.41-.69-.33-1.07l.62-2.8c.08-.81.91-1.46,1.89-1.46s1.82.66,1.9,1.5l.61,2.76c.08.38-.04.78-.33,1.07-.17.17-.42.3-.74.37l-.18.04.03-.18c.02-.15.02-.29-.02-.43l-.03-.11.11-.04c.11-.04.17-.08.23-.13.13-.13.18-.29.14-.45l-.62-2.8c-.05-.5-.52-.87-1.1-.87s-1.05.37-1.09.83l-.62,2.84c-.04.16.02.33.14.45.13.14.32.18.46.19h.13s-.03.24-.03.24c-.01.09-.03.18-.03.27v.22Zm1.03-5.52c-.84,0-1.58.56-1.65,1.25l-.62,2.82c-.07.3.03.61.26.84.17.18.42.29.72.34,0-.08.01-.15.02-.22-.2-.04-.36-.12-.48-.25-.19-.19-.26-.44-.21-.68l.62-2.83c.05-.58.64-1.05,1.34-1.05s1.28.47,1.34,1.08l.61,2.78c.05.25-.02.49-.21.68-.07.07-.14.11-.22.15.01.08.02.16.02.24.2-.06.34-.15.45-.26.23-.24.33-.54.26-.85l-.61-2.77c-.07-.73-.8-1.29-1.65-1.29Z"/>
    </g>
  </g>
  <path class="cls-1" d="m49.65,10.51c-2.72,0-4.93-2.12-4.93-4.73s2.21-4.73,4.93-4.73,4.93,2.12,4.93,4.73-2.21,4.73-4.93,4.73Zm0-8.45c-2.17,0-3.93,1.67-3.93,3.73s1.76,3.73,3.93,3.73,3.93-1.67,3.93-3.73-1.76-3.73-3.93-3.73Z"/>
  <path class="cls-1" d="m49.65,10.71c-2.83,0-5.13-2.21-5.13-4.93s2.3-4.93,5.13-4.93,5.13,2.21,5.13,4.93-2.3,4.93-5.13,4.93Zm0-8.45c-2.06,0-3.73,1.58-3.73,3.53s1.67,3.53,3.73,3.53,3.73-1.58,3.73-3.53-1.67-3.53-3.73-3.53Z"/>
  <path class="cls-1" d="m58.98,21.73h-1v-5.04c0-1.52-1.31-2.75-2.91-2.75h-10.83c-1.61,0-2.91,1.24-2.91,2.75v5.04h-1v-5.04c0-2.07,1.76-3.75,3.91-3.75h10.83c2.16,0,3.91,1.68,3.91,3.75v5.04Z"/>
  <path class="cls-1" d="m58.48,22.43c-.39,0-.7-.31-.7-.7v-5.04c0-1.41-1.22-2.55-2.71-2.55h-10.83c-1.5,0-2.71,1.15-2.71,2.55v5.04c0,.39-.31.7-.7.7s-.7-.31-.7-.7v-5.04c0-2.18,1.85-3.96,4.11-3.96h10.83c2.27,0,4.11,1.77,4.11,3.96v5.04c0,.39-.31.7-.7.7Z"/>
  <g>
    <g>
      <path class="cls-1" d="m53.74,19.4h-.48v-2.76c0-.59-.16-1.18-.47-1.69l-.77-1.28.41-.23.77,1.28c.35.58.54,1.25.54,1.93v2.76Z"/>
      <path class="cls-1" d="m53.87,19.52h-.73v-2.89c0-.57-.16-1.13-.45-1.63l-.84-1.39.63-.36.83,1.39c.36.6.55,1.29.55,1.99v2.89Zm-.48-.25h.23v-2.64c0-.65-.18-1.3-.52-1.86l-.71-1.18-.19.11.71,1.17c.32.53.49,1.14.49,1.75v2.64Z"/>
    </g>
    <g>
      <path class="cls-1" d="m53.5,21.99c-.83,0-1.51-.66-1.51-1.48s.68-1.48,1.51-1.48,1.51.66,1.51,1.48-.68,1.48-1.51,1.48Zm0-2.49c-.57,0-1.04.45-1.04,1.01s.47,1.01,1.04,1.01,1.04-.45,1.04-1.01-.47-1.01-1.04-1.01Z"/>
      <path class="cls-1" d="m53.51,22.11c-.9,0-1.64-.72-1.64-1.6s.73-1.6,1.64-1.6,1.64.72,1.64,1.6-.73,1.6-1.64,1.6Zm0-2.95c-.77,0-1.39.61-1.39,1.35s.62,1.35,1.39,1.35,1.39-.61,1.39-1.35-.62-1.35-1.39-1.35Zm0,2.49c-.64,0-1.16-.51-1.16-1.14s.52-1.14,1.16-1.14,1.16.51,1.16,1.14-.52,1.14-1.16,1.14Zm0-2.03c-.5,0-.91.4-.91.89s.41.89.91.89.91-.4.91-.89-.41-.89-.91-.89Z"/>
    </g>
  </g>
  <path class="cls-1" d="m28.47,35.96c-1.5,0-2.73-1.22-2.73-2.73s1.22-2.73,2.73-2.73,2.73,1.22,2.73,2.73-1.22,2.73-2.73,2.73Zm0-4.46c-.95,0-1.73.78-1.73,1.73s.78,1.73,1.73,1.73,1.73-.78,1.73-1.73-.78-1.73-1.73-1.73Z"/>
  <path class="cls-1" d="m17.55,42.94c-.13-.14-.2-.32-.2-.49h0c0-.18.07-.36.2-.5h0c.28-.27.72-.27,1,0h0c.13.14.2.32.2.5h0c0,.17-.07.35-.2.49h0c-.14.14-.32.21-.5.21h0c-.18,0-.36-.07-.5-.21Zm2.83-2.83c-.13-.14-.2-.31-.2-.49h0c0-.18.07-.36.2-.5h0c.28-.27.72-.27.99,0h0c.14.14.21.32.21.5h0c0,.18-.07.35-.21.49h0c-.13.14-.31.21-.49.21h0c-.18,0-.36-.07-.5-.21Zm2.83-2.83c-.13-.13-.2-.31-.2-.49h0c0-.18.07-.36.2-.49h0c.27-.28.72-.28.99,0h0c.14.13.21.31.21.49h0c0,.18-.07.36-.21.49h0c-.14.14-.31.21-.49.21h0c-.18,0-.36-.07-.5-.21Z"/>
  <path class="cls-1" d="m32.55,30.36c-.13-.13-.2-.31-.2-.49h0c0-.18.07-.36.2-.5h0c.27-.27.72-.27.99,0h0c.14.14.21.32.21.5h0c0,.18-.07.36-.21.49h0c-.14.14-.31.21-.49.21h0c-.18,0-.36-.07-.5-.21Zm2.83-2.83c-.14-.13-.21-.31-.21-.49h0c0-.18.07-.36.21-.5h0c.27-.27.72-.27.99,0h0c.14.14.2.32.2.5h0c0,.18-.06.36-.2.49h0c-.14.14-.32.21-.5.21h0c-.17,0-.35-.07-.49-.21Zm2.83-2.83c-.14-.13-.21-.31-.21-.49h0c0-.18.07-.36.21-.5h0c.27-.27.71-.27.99,0h0c.13.14.2.32.2.5h0c0,.18-.07.36-.2.49h0c-.14.14-.32.21-.5.21h0c-.18,0-.36-.07-.49-.21Z"/>
  <path class="cls-1" d="m22.57,35.05c-.18,0-.34-.12-.39-.31-.12-.49-.18-1-.18-1.51,0-3.56,2.9-6.46,6.46-6.46,1.18,0,2.34.32,3.34.93.19.11.25.36.13.55-.12.19-.36.25-.55.13-.88-.53-1.89-.82-2.93-.82-3.12,0-5.66,2.54-5.66,5.66,0,.45.05.89.16,1.32.05.21-.08.43-.29.48-.03,0-.06.01-.09.01Z"/>
  <path class="cls-1" d="m28.47,39.69c-1.02,0-1.99-.23-2.89-.68-.2-.1-.28-.34-.18-.54.1-.2.34-.28.54-.18.79.4,1.65.6,2.54.6,3.12,0,5.66-2.54,5.66-5.66,0-.4-.04-.79-.12-1.18-.05-.22.09-.43.31-.47.21-.05.43.09.47.31.09.44.14.89.14,1.35,0,3.56-2.9,6.46-6.46,6.46Z"/>
  <path class="cls-1" d="m28.47,41.91c-1.67,0-3.3-.48-4.7-1.38-.23-.15-.3-.46-.15-.69.15-.23.46-.3.69-.15,1.24.8,2.67,1.22,4.15,1.22,4.24,0,7.68-3.45,7.68-7.68,0-1.28-.32-2.55-.93-3.66-.13-.24-.04-.55.2-.68.24-.13.55-.04.68.2.69,1.26,1.05,2.69,1.05,4.14,0,4.79-3.89,8.68-8.68,8.68Z"/>
  <path class="cls-1" d="m20.85,36.72c-.2,0-.39-.12-.47-.32-.4-1.01-.6-2.08-.6-3.17,0-4.79,3.89-8.68,8.68-8.68,1.83,0,3.58.56,5.07,1.63.22.16.28.47.11.7-.16.22-.48.27-.7.11-1.31-.94-2.86-1.44-4.48-1.44-4.24,0-7.68,3.45-7.68,7.68,0,.97.18,1.91.53,2.81.1.26-.03.55-.28.65-.06.02-.12.03-.18.03Z"/>
</svg>