<?xml version="1.0" encoding="UTF-8"?>
<svg id="Layer_1" data-name="Layer 1" xmlns="http://www.w3.org/2000/svg" viewBox="0 0 60 60">
  <defs>
    <style>
      .cls-1 {
        fill: #37464c;
        stroke-width: 0px;
      }
    </style>
  </defs>
  <g>
    <path class="cls-1" d="m28.92,47.1c-2.21,0-4.01-1.8-4.01-4.01s1.8-4.01,4.01-4.01,4.01,1.8,4.01,4.01-1.8,4.01-4.01,4.01Zm0-7.01c-1.66,0-3.01,1.35-3.01,3.01s1.35,3.01,3.01,3.01,3.01-1.35,3.01-3.01-1.35-3.01-3.01-3.01Z"/>
    <path class="cls-1" d="m28.92,47.6c-2.49,0-4.51-2.02-4.51-4.51s2.02-4.51,4.51-4.51,4.51,2.02,4.51,4.51-2.02,4.51-4.51,4.51Zm0-7.01c-1.38,0-2.51,1.12-2.51,2.51s1.12,2.51,2.51,2.51,2.51-1.12,2.51-2.51-1.12-2.51-2.51-2.51Z"/>
    <path class="cls-1" d="m36.41,56.32h-1v-4.18c0-1.21-.99-2.2-2.2-2.2h-8.58c-1.21,0-2.2.99-2.2,2.2v4.18h-1v-4.18c0-1.76,1.44-3.2,3.2-3.2h8.58c1.77,0,3.2,1.44,3.2,3.2v4.18Z"/>
    <path class="cls-1" d="m35.91,57.32c-.55,0-1-.45-1-1v-4.18c0-.94-.76-1.7-1.7-1.7h-8.58c-.94,0-1.7.76-1.7,1.7v4.18c0,.55-.45,1-1,1s-1-.45-1-1v-4.18c0-2.04,1.66-3.7,3.7-3.7h8.58c2.04,0,3.7,1.66,3.7,3.7v4.18c0,.55-.45,1-1,1Z"/>
    <path class="cls-1" d="m10.23,47.1c-2.21,0-4.01-1.8-4.01-4.01s1.8-4.01,4.01-4.01,4.01,1.8,4.01,4.01-1.8,4.01-4.01,4.01Zm0-7.01c-1.66,0-3.01,1.35-3.01,3.01s1.35,3.01,3.01,3.01,3.01-1.35,3.01-3.01-1.35-3.01-3.01-3.01Z"/>
    <path class="cls-1" d="m10.23,47.6c-2.49,0-4.51-2.02-4.51-4.51s2.02-4.51,4.51-4.51,4.51,2.02,4.51,4.51-2.02,4.51-4.51,4.51Zm0-7.01c-1.38,0-2.51,1.12-2.51,2.51s1.12,2.51,2.51,2.51,2.51-1.12,2.51-2.51-1.12-2.51-2.51-2.51Z"/>
    <path class="cls-1" d="m17.72,56.32h-1v-4.18c0-1.21-.99-2.2-2.2-2.2H5.94c-1.21,0-2.2.99-2.2,2.2v4.18h-1v-4.18c0-1.76,1.44-3.2,3.2-3.2h8.58c1.77,0,3.2,1.44,3.2,3.2v4.18Z"/>
    <path class="cls-1" d="m17.22,57.32c-.55,0-1-.45-1-1v-4.18c0-.94-.76-1.7-1.7-1.7H5.94c-.94,0-1.7.76-1.7,1.7v4.18c0,.55-.45,1-1,1s-1-.45-1-1v-4.18c0-2.04,1.66-3.7,3.7-3.7h8.58c2.04,0,3.7,1.66,3.7,3.7v4.18c0,.55-.45,1-1,1Z"/>
    <path class="cls-1" d="m47.61,47.1c-2.21,0-4.01-1.8-4.01-4.01s1.8-4.01,4.01-4.01,4.01,1.8,4.01,4.01-1.8,4.01-4.01,4.01Zm0-7.01c-1.66,0-3.01,1.35-3.01,3.01s1.35,3.01,3.01,3.01,3.01-1.35,3.01-3.01-1.35-3.01-3.01-3.01Z"/>
    <path class="cls-1" d="m47.61,47.6c-2.49,0-4.51-2.02-4.51-4.51s2.02-4.51,4.51-4.51,4.51,2.02,4.51,4.51-2.02,4.51-4.51,4.51Zm0-7.01c-1.38,0-2.51,1.12-2.51,2.51s1.12,2.51,2.51,2.51,2.51-1.12,2.51-2.51-1.12-2.51-2.51-2.51Z"/>
    <path class="cls-1" d="m55.1,56.32h-1v-4.18c0-1.21-.99-2.2-2.2-2.2h-8.58c-1.21,0-2.2.99-2.2,2.2v4.18h-1v-4.18c0-1.76,1.44-3.2,3.2-3.2h8.58c1.77,0,3.2,1.44,3.2,3.2v4.18Z"/>
    <path class="cls-1" d="m54.6,57.32c-.55,0-1-.45-1-1v-4.18c0-.94-.76-1.7-1.7-1.7h-8.58c-.94,0-1.7.76-1.7,1.7v4.18c0,.55-.45,1-1,1s-1-.45-1-1v-4.18c0-2.04,1.66-3.7,3.7-3.7h8.58c2.04,0,3.7,1.66,3.7,3.7v4.18c0,.55-.45,1-1,1Z"/>
    <rect class="cls-1" x="28.42" y="24.2" width="1" height="11.76"/>
    <path class="cls-1" d="m28.92,36.96c-.55,0-1-.45-1-1v-11.76c0-.55.45-1,1-1s1,.45,1,1v11.76c0,.55-.45,1-1,1Z"/>
    <path class="cls-1" d="m47.61,36.96c-.55,0-1-.45-1-1v-6.42H11.23v6.42c0,.55-.45,1-1,1s-1-.45-1-1v-7.42c0-.55.45-1,1-1h37.39c.55,0,1,.45,1,1v7.42c0,.55-.45,1-1,1Z"/>
  </g>
  <g>
    <g>
      <path class="cls-1" d="m25.11,16c-.21-2.2,1.56-3.46,1.63-3.51l.24.38s-1.63,1.16-1.44,3.09l-.43.04Z"/>
      <path class="cls-1" d="m24.84,16.33l-.03-.3c-.22-2.36,1.68-3.73,1.76-3.78l.26-.18.55.88-.22.17c-.06.05-1.49,1.11-1.32,2.82l.03.3-1.02.11Z"/>
    </g>
    <g>
      <path class="cls-1" d="m27.22,19.71l-.55-2.64c-.07-.74-.77-1.32-1.6-1.32s-1.54.58-1.6,1.29l-.56,2.67c-.07.32.03.66.27.91.21.23.52.35.84.38,0-.03,0-.05,0-.08,0-.12.02-.24.03-.36-.19-.02-.36-.09-.48-.22-.14-.15-.2-.35-.16-.54l.56-2.69c.05-.51.53-.9,1.1-.9s1.05.4,1.1.92l.56,2.66c.04.19-.02.39-.16.54-.07.07-.15.12-.24.15.04.15.04.3.02.46.24-.06.46-.15.62-.32.24-.25.34-.59.27-.91Z"/>
      <path class="cls-1" d="m25.97,21.33l.06-.44c.02-.12.01-.23-.01-.34l-.06-.25.24-.1c.07-.03.11-.05.14-.08.07-.08.1-.18.08-.28l-.56-2.66c-.04-.4-.39-.69-.81-.69s-.77.28-.8.63l-.56,2.73c-.02.1,0,.19.08.27.08.09.21.12.3.13l.3.03-.05.38c-.01.08-.02.17-.02.25v.33s-.33.05-.33.05c-.42-.04-.78-.2-1.03-.47-.3-.32-.43-.75-.34-1.18l.56-2.67c.07-.84.91-1.53,1.9-1.53s1.82.7,1.9,1.59l.55,2.61c.09.42-.04.85-.34,1.18-.18.19-.43.33-.77.41l-.43.1Z"/>
    </g>
  </g>
  <path class="cls-1" d="m28.41,10.33c-2.48,0-4.5-1.94-4.5-4.32s2.02-4.32,4.5-4.32,4.5,1.94,4.5,4.32-2.02,4.32-4.5,4.32Zm0-7.64c-1.93,0-3.5,1.49-3.5,3.32s1.57,3.32,3.5,3.32,3.5-1.49,3.5-3.32-1.57-3.32-3.5-3.32Z"/>
  <path class="cls-1" d="m28.41,10.83c-2.76,0-5-2.16-5-4.82s2.24-4.82,5-4.82,5,2.16,5,4.82-2.24,4.82-5,4.82Zm0-7.64c-1.66,0-3,1.26-3,2.82s1.35,2.82,3,2.82,3-1.26,3-2.82-1.35-2.82-3-2.82Z"/>
  <path class="cls-1" d="m36.88,20.42h-1v-4.56c0-1.35-1.16-2.44-2.58-2.44h-9.79c-1.42,0-2.58,1.09-2.58,2.44v4.56h-1v-4.56c0-1.9,1.61-3.44,3.58-3.44h9.79c1.98,0,3.58,1.54,3.58,3.44v4.56Z"/>
  <path class="cls-1" d="m36.38,21.42c-.55,0-1-.45-1-1v-4.56c0-1.07-.93-1.94-2.08-1.94h-9.79c-1.15,0-2.08.87-2.08,1.94v4.56c0,.55-.45,1-1,1s-1-.45-1-1v-4.56c0-2.17,1.83-3.94,4.08-3.94h9.79c2.25,0,4.08,1.77,4.08,3.94v4.56c0,.55-.45,1-1,1Z"/>
  <g>
    <g>
      <path class="cls-1" d="m32.1,18.13h-.43v-2.69c0-.58-.15-1.15-.42-1.65l-.7-1.25.37-.23.7,1.25c.32.57.48,1.22.48,1.87v2.69Z"/>
      <path class="cls-1" d="m32.4,18.43h-1.03v-2.99c0-.53-.13-1.05-.39-1.5l-.84-1.5.88-.54.85,1.52c.34.61.52,1.31.52,2.02v2.99Z"/>
    </g>
    <g>
      <path class="cls-1" d="m31.89,20.65c-.75,0-1.37-.64-1.37-1.44s.61-1.44,1.37-1.44,1.37.64,1.37,1.44-.61,1.44-1.37,1.44Zm0-2.42c-.52,0-.94.44-.94.99s.42.99.94.99.94-.44.94-.99-.42-.99-.94-.99Z"/>
      <path class="cls-1" d="m31.89,20.95c-.92,0-1.67-.78-1.67-1.74s.75-1.74,1.67-1.74,1.67.78,1.67,1.74-.75,1.74-1.67,1.74Zm0-2.42c-.35,0-.64.31-.64.69s.29.69.64.69.64-.31.64-.69-.29-.69-.64-.69Z"/>
    </g>
  </g>
</svg>