<?xml version="1.0" encoding="UTF-8"?>
<svg id="Layer_1" data-name="Layer 1" xmlns="http://www.w3.org/2000/svg" viewBox="0 0 60 60">
  <defs>
    <style>
      .cls-1 {
        fill: #37464c;
        stroke-width: 0px;
      }
    </style>
  </defs>
  <path class="cls-1" d="m17.52,34.73c-4.41,0-8-3.59-8-8v-3h2v3c0,3.31,2.69,6,6,6s6-2.69,6-6v-3h2v3c0,4.41-3.59,8-8,8Z"/>
  <path class="cls-1" d="m30.52,52.73c-.55,0-1-.45-1-1v-10.23c0-1.24-.78-2.37-1.95-2.81l-4.8-1.8-4.54,4.54c-.39.39-1.02.39-1.41,0l-4.54-4.54-4.8,1.8c-1.17.44-1.95,1.56-1.95,2.81v10.23c0,.55-.45,1-1,1s-1-.45-1-1v-10.23c0-2.07,1.3-3.95,3.25-4.68l5.4-2.03c.37-.14.78-.05,1.06.23l4.29,4.29,4.29-4.29c.28-.28.69-.37,1.06-.23l5.41,2.03c1.94.73,3.24,2.61,3.24,4.68v10.23c0,.55-.45,1-1,1Z"/>
  <path class="cls-1" d="m17.52,52.73c-.55,0-1-.45-1-1v-11c0-.55.45-1,1-1s1,.45,1,1v11c0,.55-.45,1-1,1Z"/>
  <path class="cls-1" d="m42.52,42.73c-.13,0-.26-.02-.38-.08-.37-.15-.62-.52-.62-.92v-5h-19v-2h20c.55,0,1,.45,1,1v3.59l4.29-4.29c.19-.19.44-.29.71-.29h3c1.1,0,2-.9,2-2V12.73c0-1.1-.9-2-2-2h-28c-1.1,0-2,.9-2,2v1h-2v-1c0-2.21,1.79-4,4-4h28c2.21,0,4,1.79,4,4v20c0,2.21-1.79,4-4,4h-2.59l-5.71,5.71c-.19.19-.45.29-.71.29Z"/>
  <path class="cls-1" d="m26.52,44.73h-4c-.55,0-1-.45-1-1s.45-1,1-1h4c.55,0,1,.45,1,1s-.45,1-1,1Z"/>
  <path class="cls-1" d="m24.52,24.73h-14c-.55,0-1-.45-1-1v-9c0-1.1.9-2,2-2h12c1.1,0,2,.9,2,2v9c0,.55-.45,1-1,1Zm-13-2h12v-8h-12v8Z"/>
  <path class="cls-1" d="m17.52,21.73c-.55,0-1-.45-1-1v-4c0-.55.45-1,1-1s1,.45,1,1v4c0,.55-.45,1-1,1Z"/>
  <path class="cls-1" d="m19.52,19.73h-4c-.55,0-1-.45-1-1s.45-1,1-1h4c.55,0,1,.45,1,1s-.45,1-1,1Z"/>
  <path class="cls-1" d="m29.52,24.73c-1.1,0-2-.9-2-2s.9-2,2-2,2,.9,2,2-.9,2-2,2Zm0-2h0s0,0,0,0Z"/>
  <path class="cls-1" d="m37.52,24.73c-1.1,0-2-.9-2-2s.9-2,2-2,2,.9,2,2-.9,2-2,2Zm0-2h0s0,0,0,0Z"/>
  <path class="cls-1" d="m45.52,24.73c-1.1,0-2-.9-2-2s.9-2,2-2,2,.9,2,2-.9,2-2,2Zm0-2h0s0,0,0,0Z"/>
</svg>