<?xml version="1.0" encoding="UTF-8"?>
<svg id="Layer_1" data-name="Layer 1" xmlns="http://www.w3.org/2000/svg" viewBox="0 0 58.17 59.67">
  <defs>
    <style>
      .cls-1 {
        fill: #37464c;
        stroke-width: 0px;
      }
    </style>
  </defs>
  <g>
    <g>
      <g>
        <path class="cls-1" d="m44.98,25.17c-2.65-.35-4.01-1.89-4.48-2.54-.48-.67-.7-1.32-.61-1.79.04-.2.03-.35.01-.46-2.19,1.29-8.64,1.79-10.9,1.76v-.96c2.92.05,9.23-.65,10.61-1.76.21-.17.5-.18.74-.03.43.26.62.94.48,1.65-.02.11.06.5.45,1.04.39.55,1.54,1.85,3.82,2.14l-.12.95Z"/>
        <path class="cls-1" d="m45.45,25.78l-.54-.07c-2.86-.37-4.35-2.05-4.85-2.76-.43-.6-.67-1.18-.72-1.7-2.8,1.07-8.33,1.46-10.33,1.43h-.55s.03-2.07.03-2.07h.55c3.03.08,9.06-.68,10.24-1.63.39-.31.93-.34,1.37-.08.63.38.93,1.28.74,2.23,0-.02.09.24.36.61.35.49,1.38,1.65,3.44,1.92l.55.07-.27,2.04Z"/>
      </g>
      <g>
        <path class="cls-1" d="m36.86,37.98c-4.52,0-7.87-4.31-8.52-10.97-.41-4.24.28-7.39,2.07-9.35,1.45-1.6,3.62-2.41,6.45-2.41s5.08.83,6.54,2.46c1.78,1.98,2.44,5.12,1.98,9.32h0c-.75,6.76-4.01,10.96-8.52,10.96Zm0-21.78c-2.54,0-4.47.71-5.74,2.1-1.59,1.76-2.21,4.65-1.82,8.61.6,6.14,3.56,10.1,7.56,10.1s6.87-3.87,7.56-10.11h0c.43-3.92-.15-6.8-1.74-8.57-1.27-1.42-3.23-2.14-5.82-2.14Z"/>
        <path class="cls-1" d="m36.86,38.53c-4.83,0-8.39-4.5-9.06-11.47-.43-4.4.32-7.69,2.21-9.78,1.56-1.72,3.87-2.59,6.86-2.59s5.38.89,6.95,2.64c1.88,2.1,2.6,5.38,2.12,9.74-.78,7.07-4.25,11.45-9.06,11.45Zm0-21.78c-2.38,0-4.17.65-5.33,1.92-1.49,1.64-2.05,4.39-1.68,8.19.57,5.83,3.32,9.6,7.01,9.6s6.36-3.69,7.01-9.62c.41-3.75-.13-6.49-1.6-8.14-1.16-1.3-2.98-1.96-5.41-1.96Z"/>
      </g>
    </g>
    <g>
      <path class="cls-1" d="m36.87,59.11h0c-.33,0-.61-.23-.69-.55l-4.75-20.09v-3.32h.96v3.26l4.48,18.91,4.72-19.06-.13-3.28.96-.04.13,3.42-5,20.21c-.08.32-.36.54-.69.54Z"/>
      <path class="cls-1" d="m36.86,59.67h0c-.58-.01-1.08-.41-1.22-.98l-4.76-20.22v-3.87h2.06v3.75l3.95,16.64,4.15-16.78-.15-3.75,2.06-.08.16,4.04-5.02,20.28c-.14.56-.64.96-1.22.96h0Z"/>
    </g>
    <g>
      <path class="cls-1" d="m36.99,45.38c-2.11,0-4.05-1.35-4.71-3.28l.91-.31c.53,1.55,2.09,2.63,3.8,2.63s3.26-1.15,3.77-2.8l.92.29c-.64,2.05-2.57,3.48-4.69,3.48Z"/>
      <path class="cls-1" d="m36.99,45.92c-2.35,0-4.5-1.5-5.24-3.65l-.18-.52,1.95-.67.18.52c.46,1.33,1.81,2.25,3.28,2.25s2.8-.99,3.25-2.42l.17-.53,1.97.62-.16.52c-.71,2.28-2.86,3.86-5.21,3.86Z"/>
    </g>
    <g>
      <path class="cls-1" d="m16.47,58.1l-.11-10.02c.27-2.31,1.75-4.22,3.85-5.05l8.83-3.82,2.55-2.25.64.72-2.73,2.38-8.91,3.86c-1.79.71-3.03,2.32-3.26,4.21l.11,9.96h-.96Z"/>
      <path class="cls-1" d="m15.92,58.66l-.11-10.57c.3-2.55,1.91-4.66,4.2-5.56l8.73-3.78,2.9-2.56,1.37,1.55-3.29,2.84-8.91,3.86c-1.61.64-2.73,2.08-2.93,3.77l.12,10.44-2.06.02Z"/>
    </g>
    <g>
      <path class="cls-1" d="m56.65,56.93l-.15-8.84c-.23-1.84-1.47-3.45-3.24-4.15l-9.05-3.61-2.47-2.42.67-.69,2.4,2.36,8.8,3.47c2.1.83,3.58,2.74,3.85,4.98l.16,8.89-.96.02Z"/>
      <path class="cls-1" d="m56.11,57.49l-.16-9.39c-.2-1.61-1.31-3.03-2.9-3.65l-9.24-3.73-2.86-2.81,1.45-1.47,2.71,2.66,8.7,3.43c2.29.9,3.9,2.98,4.19,5.43l.17,9.5-2.06.04Z"/>
    </g>
    <g>
      <g>
        <path class="cls-1" d="m25.08,46.88c-.47-4.68,3.49-7.36,3.66-7.47l.53.8s-3.65,2.48-3.24,6.57l-.96.1Z"/>
        <path class="cls-1" d="m24.59,47.48l-.05-.55c-.5-5.02,3.73-7.87,3.91-7.99l.46-.3,1.14,1.72-.46.3s-3.37,2.32-2.99,6.06l.05.55-2.05.21Z"/>
      </g>
      <g>
        <path class="cls-1" d="m27.48,57.57h-.74v-.96h.74c.42,0,.81-.18,1.08-.51.27-.32.38-.74.3-1.15l-1.05-5.67c-.09-1.13-1.01-1.97-2.09-1.97s-1.99.84-2.08,1.92l-1.06,5.73c-.08.41.03.83.3,1.15.27.32.66.5,1.07.5h.81v.96h-.81c-.7,0-1.36-.31-1.81-.85-.45-.54-.63-1.25-.5-1.94l1.05-5.68c.12-1.52,1.46-2.75,3.03-2.75s2.91,1.23,3.04,2.8l1.05,5.62c.13.69-.06,1.4-.51,1.94-.45.54-1.11.85-1.82.85Z"/>
        <path class="cls-1" d="m27.48,58.12h-1.29v-2.06h1.29c.25,0,.49-.11.66-.31.16-.2.23-.45.18-.7l-1.05-5.67c-.08-.89-.74-1.52-1.55-1.52s-1.47.62-1.53,1.41l-1.07,5.79c-.05.25.02.5.18.69.16.19.4.3.65.3h1.36v2.06h-1.36c-.87,0-1.68-.38-2.23-1.05s-.78-1.54-.62-2.39l1.05-5.68c.14-1.77,1.71-3.2,3.57-3.2s3.44,1.45,3.59,3.31l1.04,5.56c.16.85-.07,1.73-.62,2.4s-1.37,1.05-2.24,1.05Z"/>
      </g>
      <g>
        <path class="cls-1" d="m48.14,52.21h-.96v-5.73c0-1.23-.33-2.44-.95-3.5l-1.56-2.66.83-.49,1.56,2.66c.71,1.21,1.08,2.59,1.08,3.99v5.73Z"/>
        <path class="cls-1" d="m48.69,52.76h-2.06v-6.28c0-1.13-.3-2.25-.88-3.23l-1.84-3.14,1.78-1.04,1.84,3.14c.76,1.29,1.16,2.77,1.16,4.27v6.28Z"/>
      </g>
      <g>
        <path class="cls-1" d="m47.66,57.57c-1.69,0-3.06-1.37-3.06-3.06s1.37-3.06,3.06-3.06,3.06,1.37,3.06,3.06-1.37,3.06-3.06,3.06Zm0-5.16c-1.16,0-2.1.94-2.1,2.1s.94,2.1,2.1,2.1,2.1-.94,2.1-2.1-.94-2.1-2.1-2.1Z"/>
        <path class="cls-1" d="m47.66,58.12c-1.99,0-3.61-1.62-3.61-3.61s1.62-3.61,3.61-3.61,3.61,1.62,3.61,3.61-1.62,3.61-3.61,3.61Zm0-5.16c-.85,0-1.55.7-1.55,1.55s.7,1.55,1.55,1.55,1.55-.7,1.55-1.55-.7-1.55-1.55-1.55Z"/>
      </g>
    </g>
  </g>
  <path class="cls-1" d="m23.96,29.64c-.75,0-1.44-.3-1.83-.8l-7.65-8.07H4.57c-2.52,0-4.57-1.57-4.57-3.5V3.5C0,1.57,2.05,0,4.57,0h35.22c2.52,0,4.57,1.57,4.57,3.5v13.76c0,.48-.12.94-.36,1.38-.24.44-.79.59-1.22.35-.44-.24-.59-.79-.35-1.22.09-.17.14-.33.14-.51V3.5c0-.91-1.29-1.7-2.77-1.7H4.57c-1.47,0-2.77.8-2.77,1.7v13.76c0,.81,1.14,1.7,2.77,1.7h10.31c.25,0,.48.1.65.28l7.95,8.39s.06.06.08.1c.07.07.3.11.49.1l-1.5-7.8c-.05-.26.02-.54.19-.74s.42-.33.69-.33h6.12c.5,0,.9.4.9.9s-.4.9-.9.9h-5.03l1.4,7.32c.04.21,0,.44-.11.62-.32.55-.96.89-1.73.92-.04,0-.08,0-.12,0Z"/>
</svg>