<?xml version="1.0" encoding="UTF-8"?>
<svg id="Layer_1" data-name="Layer 1" xmlns="http://www.w3.org/2000/svg" viewBox="0 0 60 60">
  <defs>
    <style>
      .cls-1 {
        fill: #37464c;
        stroke-width: 0px;
      }
    </style>
  </defs>
  <g>
    <path class="cls-1" d="m28.92,52.24c-8.82,0-16-7.18-16-16s7.18-16,16-16,16,7.18,16,16-7.18,16-16,16Zm0-30c-7.72,0-14,6.28-14,14s6.28,14,14,14,14-6.28,14-14-6.28-14-14-14Z"/>
    <path class="cls-1" d="m45.92,58.24c-.27,0-.52-.11-.71-.29l-8.58-8.58,1.41-1.41,8.27,8.27c1.34-.17,2.41-1.24,2.59-2.59l-8.27-8.27,1.41-1.41,8.58,8.58c.19.19.29.44.29.71,0,2.76-2.24,5-5,5Z"/>
    <path class="cls-1" d="m26.49,43.56h0c-.17,0-.34-.07-.46-.19l-6.06-6.06c-.25-.25-.25-.67,0-.92l2.42-2.42c.12-.12.29-.19.46-.19h0c.17,0,.34.07.46.19l3.18,3.18,8.03-8.03c.25-.25.67-.25.92,0l2.42,2.42c.25.25.25.67,0,.92l-10.91,10.91c-.12.12-.29.19-.46.19Zm-5.14-6.71l5.14,5.14,9.99-9.99-1.51-1.51-8.03,8.03c-.12.12-.29.19-.46.19h0c-.17,0-.34-.07-.46-.19l-3.18-3.18-1.51,1.51Z"/>
  </g>
  <g>
    <g>
      <path class="cls-1" d="m42.7,22.12c-.25-2.64,1.87-4.16,1.96-4.22l.28.45s-1.96,1.4-1.74,3.71l-.51.05Z"/>
      <path class="cls-1" d="m42.43,22.45l-.03-.3c-.27-2.83,2-4.43,2.09-4.49l.26-.18.6.96-.23.17s-1.81,1.32-1.61,3.44l.03.3-1.11.12Z"/>
    </g>
    <g>
      <path class="cls-1" d="m42.63,21.82c-1,0-1.85.7-1.93,1.56l-.04.19c.17.17.34.34.51.51l.13-.64c.06-.61.64-1.08,1.32-1.08s1.27.48,1.32,1.11l.38,1.82c.23.09.46.19.68.29l-.46-2.18c-.08-.89-.93-1.58-1.93-1.58Z"/>
      <path class="cls-1" d="m45.44,26.1l-.54-.25c-.19-.09-.38-.17-.58-.25l-.24-.1-.41-1.97c-.05-.51-.49-.87-1.03-.87s-.98.36-1.02.81l-.25,1.21-1.02-1.02.07-.35c.09-.99,1.06-1.8,2.22-1.8s2.13.82,2.23,1.86l.57,2.73Zm-.84-1.03s0,0,0,0l-.34-1.61c-.01-.14-.05-.28-.1-.4.05.12.08.25.09.38l.34,1.62Zm-3.61-1.6h0s.02-.09.02-.09c.01-.12.04-.24.09-.36-.05.12-.09.24-.1.37v.07Z"/>
    </g>
  </g>
  <path class="cls-1" d="m46.66,15.2c-2.93,0-5.31-2.28-5.31-5.09s2.38-5.09,5.31-5.09,5.31,2.28,5.31,5.09-2.38,5.09-5.31,5.09Zm0-9.18c-2.38,0-4.31,1.83-4.31,4.09s1.93,4.09,4.31,4.09,4.31-1.83,4.31-4.09-1.93-4.09-4.31-4.09Z"/>
  <path class="cls-1" d="m46.66,15.7c-3.2,0-5.81-2.51-5.81-5.59s2.61-5.59,5.81-5.59,5.81,2.51,5.81,5.59-2.61,5.59-5.81,5.59Zm0-9.18c-2.1,0-3.81,1.61-3.81,3.59s1.71,3.59,3.81,3.59,3.81-1.61,3.81-3.59-1.71-3.59-3.81-3.59Z"/>
  <path class="cls-1" d="m56.75,27.43h-1v-5.48c0-1.67-1.44-3.04-3.21-3.04h-11.77c-.62,0-1.22.17-1.73.48l-.52-.85c.67-.41,1.45-.63,2.25-.63h11.77c2.32,0,4.21,1.81,4.21,4.04v5.48Z"/>
  <path class="cls-1" d="m56.54,28.17c-.55,0-1-.45-1-1v-5.48c0-1.4-1.21-2.54-2.71-2.54h-11.77c-.71,0-1.39.26-1.9.73-.41.37-1.04.35-1.41-.06-.37-.41-.35-1.04.06-1.41.88-.81,2.04-1.26,3.26-1.26h11.77c2.6,0,4.71,2.04,4.71,4.54v5.48c0,.55-.45,1-1,1Z"/>
  <g>
    <g>
      <path class="cls-1" d="m51.1,24.68h-.52v-3.06c0-.66-.18-1.31-.51-1.87l-.84-1.42.44-.26.84,1.42c.38.65.58,1.38.58,2.13v3.06Z"/>
      <path class="cls-1" d="m51.4,24.98h-1.12v-3.36c0-.6-.16-1.2-.47-1.72l-.99-1.68.96-.56.99,1.68c.41.69.62,1.48.62,2.28v3.36Z"/>
    </g>
    <g>
      <path class="cls-1" d="m50.84,27.71c-.91,0-1.64-.78-1.64-1.73s.74-1.73,1.64-1.73,1.64.78,1.64,1.73-.74,1.73-1.64,1.73Zm0-2.91c-.62,0-1.13.53-1.13,1.19s.51,1.19,1.13,1.19,1.13-.53,1.13-1.19-.51-1.19-1.13-1.19Z"/>
      <path class="cls-1" d="m50.84,28.01c-1.07,0-1.94-.91-1.94-2.03s.87-2.03,1.94-2.03,1.94.91,1.94,2.03-.87,2.03-1.94,2.03Zm0-2.91c-.46,0-.83.4-.83.89s.37.89.83.89.83-.4.83-.89-.37-.89-.83-.89Z"/>
    </g>
  </g>
  <g>
    <g>
      <path class="cls-1" d="m10.78,18.25c-.25-2.64,1.87-4.16,1.96-4.22l.28.45s-1.96,1.4-1.74,3.71l-.51.05Z"/>
      <path class="cls-1" d="m10.51,18.58l-.03-.3c-.27-2.83,2-4.43,2.09-4.49l.26-.18.6.96-.23.17s-1.81,1.32-1.61,3.44l.03.3-1.11.12Z"/>
    </g>
    <g>
      <path class="cls-1" d="m12.64,19.53c-.08-.89-.93-1.58-1.93-1.58s-1.85.7-1.93,1.56l-.52,2.49h.62l.5-2.42c.06-.61.64-1.08,1.32-1.08s1.27.48,1.32,1.11l.5,2.4h.62l-.52-2.47Z"/>
      <path class="cls-1" d="m13.53,22.3h-1.23l-.55-2.63c-.05-.51-.49-.87-1.03-.87s-.98.36-1.02.81l-.56,2.7h-1.23l.6-2.86c.09-.99,1.06-1.79,2.22-1.79s2.12.81,2.23,1.84l.59,2.81Zm-.75-.6h0l-.45-2.14c-.02-.18-.07-.35-.16-.5.08.16.13.33.15.52l.44,2.12Zm-4.14,0h0l.45-2.18c.01-.12.04-.24.09-.36-.05.12-.09.24-.1.37l-.45,2.17Z"/>
    </g>
  </g>
  <path class="cls-1" d="m14.74,11.33c-2.93,0-5.31-2.28-5.31-5.09S11.81,1.15,14.74,1.15s5.31,2.28,5.31,5.09-2.38,5.09-5.31,5.09Zm0-9.18c-2.38,0-4.31,1.83-4.31,4.09s1.93,4.09,4.31,4.09,4.31-1.83,4.31-4.09-1.93-4.09-4.31-4.09Z"/>
  <path class="cls-1" d="m14.74,11.83c-3.21,0-5.81-2.51-5.81-5.59S11.53.65,14.74.65s5.81,2.51,5.81,5.59-2.61,5.59-5.81,5.59Zm0-9.18c-2.1,0-3.81,1.61-3.81,3.59s1.71,3.59,3.81,3.59,3.81-1.61,3.81-3.59-1.71-3.59-3.81-3.59Z"/>
  <path class="cls-1" d="m5.64,23.56h-1v-5.48c0-2.23,1.89-4.04,4.21-4.04h11.77c2.32,0,4.21,1.81,4.21,4.04v.71h-1v-.71c0-1.67-1.44-3.04-3.21-3.04h-11.77c-1.77,0-3.21,1.36-3.21,3.04v5.48Z"/>
  <path class="cls-1" d="m5.14,24.56c-.55,0-1-.45-1-1v-5.48c0-2.5,2.11-4.54,4.71-4.54h11.77c2.6,0,4.71,2.04,4.71,4.54v.51c0,.55-.45,1-1,1s-1-.45-1-1v-.51c0-1.4-1.21-2.54-2.71-2.54h-11.77c-1.49,0-2.71,1.14-2.71,2.54v5.48c0,.55-.45,1-1,1Z"/>
  <g>
    <g>
      <path class="cls-1" d="m17.76,14.4l-.45.25.84,1.38c.33.55.51,1.18.51,1.82v2.97h.52v-2.97c0-.73-.2-1.44-.58-2.07l-.84-1.38Z"/>
      <path class="cls-1" d="m19.48,21.12h-1.12v-3.26c0-.58-.16-1.16-.47-1.66l-1-1.64.97-.55.99,1.63c.41.67.62,1.44.62,2.22v3.26Z"/>
    </g>
    <g>
      <path class="cls-1" d="m17.79,22.12c0-.65.51-1.19,1.13-1.19.3,0,.57.13.77.33.13-.09.3-.18.47-.26-.3-.37-.74-.61-1.24-.61-.91,0-1.64.78-1.64,1.73,0,.27.13-.03.24.2.12-.2.17.1.29-.11,0-.03-.02-.06-.02-.09Z"/>
      <path class="cls-1" d="m17.48,22.89l-.17-.34-.18-.08c-.14-.11-.14-.29-.14-.35,0-1.12.87-2.03,1.94-2.03.56,0,1.1.26,1.47.72l.24.29-.33.17c-.15.08-.31.15-.43.24l-.21.15-.18-.18c-.16-.16-.35-.24-.56-.24-.45,0-.82.39-.83.86l.02.18-.04.08c-.09.16-.22.25-.38.23l-.22.31Z"/>
    </g>
  </g>
  <path class="cls-1" d="m44.82,26.77c-.28,0-.53-.2-.59-.48l-.44-2.23c-.06-.33.15-.64.47-.71.32-.06.64.15.71.47l.44,2.23c.06.33-.15.64-.47.71-.04,0-.08.01-.12.01Z"/>
  <path class="cls-1" d="m17.54,23.07h-.03c-.33-.02-.59-.3-.57-.63l.03-.56c.02-.33.29-.57.63-.57.33.02.59.3.57.63l-.03.56c-.02.32-.28.57-.6.57Z"/>
  <path class="cls-1" d="m8.41,23.53s-.08,0-.12-.01c-.32-.07-.53-.38-.47-.71l.27-1.35c.07-.33.39-.54.71-.47.32.07.53.38.47.71l-.27,1.35c-.06.28-.31.48-.59.48Z"/>
  <path class="cls-1" d="m13.03,23.6c-.28,0-.53-.2-.59-.49l-.39-2.08c-.06-.33.15-.64.48-.7.33-.06.64.15.7.48l.39,2.08c.06.33-.15.64-.48.7-.04,0-.08.01-.11.01Z"/>
</svg>