<?xml version="1.0" encoding="UTF-8"?>
<svg id="Layer_1" data-name="Layer 1" xmlns="http://www.w3.org/2000/svg" viewBox="0 0 60 60">
  <defs>
    <style>
      .cls-1 {
        fill: #37464c;
        stroke-width: 0px;
      }
    </style>
  </defs>
  <g>
    <g>
      <g>
        <path class="cls-1" d="m10.49,47.22c-.24-2.48,1.76-3.9,1.84-3.96l.27.42s-1.83,1.31-1.63,3.48l-.48.05Z"/>
        <path class="cls-1" d="m10.22,47.55l-.03-.3c-.25-2.67,1.88-4.17,1.97-4.23l.26-.18.58.93-.23.16c-.07.05-1.69,1.24-1.5,3.21l.03.3-1.08.11Z"/>
      </g>
      <g>
        <path class="cls-1" d="m12.86,51.4l-.62-2.97c-.08-.83-.87-1.48-1.81-1.48s-1.73.65-1.81,1.46l-.63,3.01c-.08.37.03.74.3,1.02.24.25.58.39.95.42,0-.03,0-.06,0-.09,0-.14.02-.27.04-.41-.21-.02-.41-.1-.54-.25-.16-.17-.22-.39-.18-.61l.63-3.03c.05-.57.6-1.02,1.24-1.02s1.19.45,1.24,1.04l.63,3c.05.22-.02.44-.18.61-.07.08-.17.13-.28.17.04.17.05.34.02.51.27-.06.51-.17.7-.36.27-.29.38-.66.3-1.03Z"/>
        <path class="cls-1" d="m11.5,53.18l.06-.44c.02-.14.02-.28-.01-.4l-.06-.25.24-.1c.08-.03.14-.06.17-.1.09-.1.13-.22.1-.34l-.63-3c-.05-.47-.45-.8-.95-.8s-.9.33-.94.74l-.64,3.07c-.03.12.01.24.1.34.08.08.21.14.36.15l.3.03-.05.41c-.01.09-.02.18-.02.27v.33l-.32.06c-.46-.04-.86-.22-1.14-.52-.33-.36-.47-.83-.38-1.29l.63-3.01c.08-.94,1.01-1.7,2.1-1.7s2.02.77,2.11,1.76l.62,2.94c.1.46-.04.94-.38,1.29-.2.21-.47.36-.84.45l-.43.1Z"/>
      </g>
    </g>
    <path class="cls-1" d="m14.2,40.77c-2.76,0-5.01-2.16-5.01-4.8s2.25-4.8,5.01-4.8,5.01,2.16,5.01,4.8-2.25,4.8-5.01,4.8Zm0-8.61c-2.21,0-4.01,1.71-4.01,3.8s1.8,3.8,4.01,3.8,4.01-1.71,4.01-3.8-1.8-3.8-4.01-3.8Z"/>
    <path class="cls-1" d="m14.2,41.27c-3.04,0-5.51-2.38-5.51-5.3s2.47-5.3,5.51-5.3,5.51,2.38,5.51,5.3-2.47,5.3-5.51,5.3Zm0-8.61c-1.94,0-3.51,1.48-3.51,3.3s1.58,3.3,3.51,3.3,3.51-1.48,3.51-3.3-1.58-3.3-3.51-3.3Z"/>
    <path class="cls-1" d="m5.71,52.2h-1v-5.13c0-2.1,1.78-3.82,3.98-3.82h11.03c2.19,0,3.98,1.71,3.98,3.82v2.16h-1v-2.16c0-1.55-1.33-2.82-2.98-2.82h-11.03c-1.64,0-2.98,1.26-2.98,2.82v5.13Z"/>
    <path class="cls-1" d="m5.21,53.2c-.55,0-1-.45-1-1v-5.13c0-2.38,2.01-4.32,4.48-4.32h11.03c2.47,0,4.48,1.94,4.48,4.32v2.51c0,.55-.45,1-1,1s-1-.45-1-1v-2.51c0-1.28-1.11-2.32-2.48-2.32h-11.03c-1.37,0-2.48,1.04-2.48,2.32v5.13c0,.55-.45,1-1,1Z"/>
    <g>
      <g>
        <path class="cls-1" d="m18.37,49.63h-.48v-3.03c0-.65-.17-1.29-.48-1.86l-.79-1.41.42-.26.79,1.41c.36.64.55,1.37.55,2.11v3.03Z"/>
        <path class="cls-1" d="m18.67,49.93h-1.08v-3.33c0-.6-.15-1.19-.44-1.71l-.92-1.66.93-.57.94,1.68c.38.69.58,1.47.58,2.26v3.33Z"/>
      </g>
      <g>
        <path class="cls-1" d="m18.12,52.47c-.85,0-1.54-.73-1.54-1.62s.69-1.62,1.54-1.62,1.54.73,1.54,1.62-.69,1.62-1.54,1.62Zm0-2.73c-.58,0-1.06.5-1.06,1.11s.47,1.11,1.06,1.11,1.06-.5,1.06-1.11-.47-1.11-1.06-1.11Z"/>
        <path class="cls-1" d="m18.12,52.77c-1.01,0-1.84-.86-1.84-1.92s.83-1.92,1.84-1.92,1.84.86,1.84,1.92-.83,1.92-1.84,1.92Zm0-2.73c-.42,0-.76.36-.76.81s.34.81.76.81.76-.36.76-.81-.34-.81-.76-.81Z"/>
      </g>
    </g>
    <g>
      <g>
        <path class="cls-1" d="m44.71,17.38c-.21-2.2,1.56-3.46,1.63-3.51l.24.38s-1.63,1.16-1.44,3.09l-.43.04Z"/>
        <path class="cls-1" d="m44.44,17.71l-.03-.3c-.22-2.36,1.68-3.73,1.76-3.78l.26-.18.56.89-.24.16s-1.48,1.08-1.31,2.81l.03.3-1.02.11Z"/>
      </g>
      <g>
        <path class="cls-1" d="m46.81,21.09l-.55-2.64c-.07-.74-.77-1.32-1.6-1.32s-1.54.58-1.6,1.29l-.56,2.67c-.07.32.03.66.27.91.21.23.52.35.84.38,0-.03,0-.05,0-.08,0-.12.02-.24.03-.36-.19-.02-.36-.09-.48-.22-.14-.15-.2-.35-.16-.54l.56-2.69c.05-.51.53-.9,1.1-.9s1.05.4,1.1.92l.56,2.66c.04.19-.02.39-.16.54-.07.07-.15.12-.24.15.04.15.04.3.02.46.24-.06.46-.15.62-.32.24-.25.34-.59.27-.91Z"/>
        <path class="cls-1" d="m45.57,22.71l.06-.44c.02-.12.01-.24-.01-.34l-.06-.25.24-.1c.07-.03.11-.05.13-.08.08-.08.11-.18.08-.28l-.56-2.66c-.04-.41-.38-.69-.81-.69s-.77.28-.8.63l-.56,2.73c-.02.1,0,.19.08.27.06.07.17.11.3.13l.3.03-.05.4c0,.08-.02.16-.02.23v.34s-.32.04-.32.04c-.42-.04-.78-.2-1.03-.47-.3-.33-.43-.75-.34-1.18l.56-2.67c.07-.84.91-1.53,1.9-1.53s1.82.7,1.9,1.59l.55,2.6c.09.42-.04.85-.34,1.18-.18.2-.43.33-.77.41l-.43.1Z"/>
      </g>
    </g>
    <path class="cls-1" d="m48,11.71c-2.48,0-4.5-1.94-4.5-4.32s2.02-4.32,4.5-4.32,4.5,1.94,4.5,4.32-2.02,4.32-4.5,4.32Zm0-7.64c-1.93,0-3.5,1.49-3.5,3.32s1.57,3.32,3.5,3.32,3.5-1.49,3.5-3.32-1.57-3.32-3.5-3.32Z"/>
    <path class="cls-1" d="m48,12.21c-2.76,0-5-2.16-5-4.82s2.24-4.82,5-4.82,5,2.16,5,4.82-2.24,4.82-5,4.82Zm0-7.64c-1.66,0-3,1.26-3,2.82s1.35,2.82,3,2.82,3-1.26,3-2.82-1.35-2.82-3-2.82Z"/>
    <path class="cls-1" d="m40.52,21.8h-1v-4.56c0-1.9,1.61-3.44,3.58-3.44h9.79c1.98,0,3.58,1.54,3.58,3.44v3h-1v-3c0-1.35-1.16-2.44-2.58-2.44h-9.79c-1.42,0-2.58,1.09-2.58,2.44v4.56Z"/>
    <path class="cls-1" d="m40.02,22.8c-.55,0-1-.45-1-1v-4.56c0-2.17,1.83-3.94,4.08-3.94h9.79c2.25,0,4.08,1.77,4.08,3.94v3c0,.55-.45,1-1,1s-1-.45-1-1v-3c0-1.07-.93-1.94-2.08-1.94h-9.79c-1.15,0-2.08.87-2.08,1.94v4.56c0,.55-.45,1-1,1Z"/>
    <g>
      <g>
        <path class="cls-1" d="m51.69,19.51h-.43v-2.69c0-.58-.15-1.15-.42-1.65l-.7-1.25.37-.23.7,1.25c.32.57.48,1.22.48,1.87v2.69Z"/>
        <path class="cls-1" d="m52,19.81h-1.03v-2.99c0-.53-.13-1.05-.39-1.5l-.84-1.5.88-.54.85,1.52c.34.61.52,1.31.52,2.02v2.99Z"/>
      </g>
      <g>
        <path class="cls-1" d="m51.48,22.03c-.75,0-1.37-.64-1.37-1.44s.61-1.44,1.37-1.44,1.37.64,1.37,1.44-.61,1.44-1.37,1.44Zm0-2.42c-.52,0-.94.44-.94.99s.42.99.94.99.94-.44.94-.99-.42-.99-.94-.99Z"/>
        <path class="cls-1" d="m51.48,22.33c-.92,0-1.67-.78-1.67-1.74s.75-1.74,1.67-1.74,1.67.78,1.67,1.74-.75,1.74-1.67,1.74Zm0-2.42c-.35,0-.64.31-.64.69s.29.69.64.69.64-.31.64-.69-.29-.69-.64-.69Z"/>
      </g>
    </g>
  </g>
  <path class="cls-1" d="m30.25,35.18s-.06,0-.09,0c-.55-.05-.96-.54-.91-1.09.26-2.93-.63-5.78-2.51-8.04-1.88-2.26-4.53-3.64-7.46-3.91-.55-.05-.96-.54-.91-1.09s.54-.96,1.09-.91c3.46.31,6.59,1.95,8.81,4.62,2.22,2.67,3.28,6.04,2.96,9.5-.05.52-.48.91-1,.91Z"/>
  <path class="cls-1" d="m23.08,34.53s-.06,0-.09,0c-.55-.05-.96-.54-.91-1.09.09-1.01-.22-2-.87-2.78s-1.57-1.26-2.58-1.35c-.55-.05-.96-.54-.91-1.09.05-.55.54-.96,1.09-.91,1.54.14,2.94.87,3.93,2.06.99,1.19,1.46,2.7,1.32,4.24-.05.52-.48.91-1,.91Z"/>
  <path class="cls-1" d="m36.49,32.68h0v-.03h0c0-.54.44-.98.98-.99h0c.55-.02,1.01.42,1.02.98h0v.02h0c0,.54-.43.98-.97.99h-.03c-.54,0-.99-.43-1-.97Zm-.47-3.76c-.02-.07-.03-.15-.03-.22h0c0-.46.31-.87.77-.98h0c.54-.12,1.08.21,1.21.75h0c.01.07.02.15.02.22h0c0,.46-.31.87-.77.98h0c-.08.02-.15.03-.23.03h0c-.45,0-.87-.31-.97-.78Zm-1.25-3.57c-.07-.14-.1-.28-.09-.43h0c0-.37.21-.73.57-.9h0c.5-.23,1.09-.02,1.33.48h0c.07.14.1.29.1.44h0c0,.37-.22.72-.58.89h0c-.14.07-.28.1-.42.1h0c-.38,0-.74-.22-.91-.58Zm-1.96-3.23c-.13-.18-.2-.39-.2-.6h0c0-.31.13-.61.4-.8h0c.44-.34,1.06-.25,1.4.19h0c.13.18.2.39.2.6h0c0,.3-.14.6-.4.8h0c-.18.14-.39.2-.6.2h0c-.3,0-.6-.14-.8-.39Zm-2.58-2.77c-.22-.19-.34-.46-.35-.73h0c0-.24.08-.49.25-.68h0c.36-.42.99-.46,1.41-.1h0c.22.19.34.46.34.73h0c0,.24-.07.49-.24.68h0c-.2.23-.48.35-.76.35h0c-.23,0-.46-.08-.65-.25Zm-3.1-2.17c-.33-.19-.52-.53-.52-.89h0c0-.16.05-.32.13-.47h0c.27-.49.88-.66,1.36-.39h0c.33.18.52.53.52.88h0c0,.16-.05.33-.13.48h0c-.18.33-.52.51-.88.51h0c-.16,0-.33-.04-.48-.12Zm-3.48-1.48c-.43-.14-.71-.53-.71-.95h0c0-.1.02-.2.05-.3h0c.16-.53.72-.83,1.24-.67h0c.43.14.71.53.71.96h0c0,.09-.01.2-.04.29h0c-.14.43-.53.71-.96.71h0c-.1,0-.19-.01-.29-.04Zm-3.72-.73h.01c-.52-.04-.91-.48-.92-.98h0s0-.07,0-.1h0c.05-.55.53-.96,1.08-.91h0c.53.04.92.49.91,1.01h0v.07h0c-.05.52-.49.91-1,.91h-.09Z"/>
</svg>