<?xml version="1.0" encoding="UTF-8"?>
<svg id="Layer_1" data-name="Layer 1" xmlns="http://www.w3.org/2000/svg" viewBox="0 0 60 60">
  <defs>
    <style>
      .cls-1 {
        fill: #37464c;
        stroke-width: 0px;
      }
    </style>
  </defs>
  <g>
    <path class="cls-1" d="m55.38,36.12H6.62c-.15,0-.29-.07-.4-.17s-.17-.25-.17-.4V14.1c0-.31.26-.57.57-.57h48.76c.15,0,.29.07.4.17s.17.25.17.4v21.45c0,.31-.26.57-.57.57Zm-48.19-1.14h47.62s0-20.31,0-20.31H7.19s0,20.31,0,20.31Z"/>
    <path class="cls-1" d="m55.38,36.5H6.62c-.25,0-.49-.1-.67-.28-.17-.18-.28-.42-.28-.67V14.09c0-.52.42-.94.94-.94h48.76c.25,0,.49.11.67.28.17.17.28.42.28.67v21.45c0,.52-.43.94-.95.94ZM6.62,13.9c-.11,0-.19.09-.19.19v21.45c0,.05.02.1.05.14.04.04.08.06.14.06h48.76c.11,0,.19-.08.19-.19V14.1s-.02-.1-.05-.14c-.04-.04-.08-.06-.13-.06H6.62Zm48.56,21.46H6.81s0-21.07,0-21.07h48.37s0,21.07,0,21.07Zm-47.62-.75h46.87s0-19.56,0-19.56H7.56s0,19.56,0,19.56Z"/>
  </g>
  <g>
    <path class="cls-1" d="m55.38,41H6.62c-.31,0-.57-.26-.57-.57s.25-.57.57-.57h48.76c.31,0,.57.26.57.57s-.25.57-.57.57Z"/>
    <path class="cls-1" d="m55.38,41.37H6.62c-.52,0-.94-.43-.94-.95s.42-.94.94-.94h48.76c.52,0,.94.43.94.95s-.42.94-.94.94Zm-48.76-1.14c-.11,0-.19.09-.19.19s.09.19.19.19h48.76c.11,0,.19-.08.19-.19s-.09-.19-.19-.19H6.62Z"/>
  </g>
  <g>
    <path class="cls-1" d="m55.38,45.87H6.62c-.31,0-.57-.26-.57-.57s.25-.57.57-.57h48.76c.31,0,.57.26.57.57s-.25.57-.57.57Z"/>
    <path class="cls-1" d="m55.38,46.25H6.62c-.52,0-.94-.43-.94-.95s.42-.94.94-.94h48.76c.52,0,.94.43.94.95s-.42.94-.94.94Zm-48.76-1.14c-.11,0-.19.09-.19.19s.09.19.19.19h48.76c.11,0,.19-.08.19-.19s-.09-.19-.19-.19H6.62Z"/>
  </g>
  <g>
    <path class="cls-1" d="m55.37,50.75H6.62c-.31,0-.57-.26-.57-.57s.25-.57.57-.57h48.76c.31,0,.57.26.57.57s-.25.57-.57.57Z"/>
    <path class="cls-1" d="m55.38,51.12H6.62c-.52,0-.94-.43-.94-.95s.42-.94.94-.94h48.76c.52,0,.94.43.94.95s-.42.94-.94.94Zm-48.76-1.14c-.11,0-.19.09-.19.19s.09.19.19.19h48.76c.11,0,.19-.08.19-.19s-.09-.19-.19-.19H6.62Z"/>
  </g>
  <g>
    <path class="cls-1" d="m31,30.59h0c-3.18,0-5.77-2.59-5.77-5.77,0-1.54.6-2.99,1.69-4.08,1.09-1.09,2.54-1.69,4.08-1.69h0c1.54,0,2.99.6,4.08,1.69,1.09,1.09,1.69,2.54,1.69,4.08h0c0,3.18-2.59,5.77-5.77,5.77Zm0-10.4c-1.24,0-2.4.48-3.28,1.36-.88.88-1.36,2.04-1.36,3.28,0,2.55,2.08,4.63,4.63,4.63,2.55,0,4.63-2.08,4.63-4.63,0-1.24-.48-2.4-1.36-3.28-.87-.88-2.04-1.36-3.28-1.36h0Zm5.2,4.63h0,0Z"/>
    <path class="cls-1" d="m31,30.97h0c-3.39,0-6.14-2.76-6.14-6.14,0-1.64.64-3.18,1.8-4.34,1.16-1.16,2.7-1.8,4.34-1.8s3.18.64,4.35,1.8c1.16,1.16,1.8,2.7,1.8,4.34,0,3.39-2.76,6.14-6.14,6.14Zm0-11.54c-1.44,0-2.79.56-3.81,1.58-1.02,1.02-1.58,2.37-1.58,3.81,0,2.97,2.42,5.39,5.39,5.39v.38-.38c2.97,0,5.39-2.42,5.39-5.39,0-1.44-.56-2.79-1.58-3.81-1.02-1.02-2.37-1.58-3.81-1.58Zm0,10.4c-2.76,0-5.01-2.25-5.01-5.01,0-1.34.52-2.6,1.47-3.54.95-.95,2.2-1.47,3.54-1.47s2.6.52,3.54,1.47c.95.95,1.47,2.2,1.47,3.54,0,2.76-2.25,5.01-5.01,5.01Zm0-9.27c-1.14,0-2.21.44-3.01,1.25-.8.8-1.25,1.87-1.25,3.01,0,2.35,1.91,4.26,4.26,4.26,2.35,0,4.26-1.91,4.26-4.26,0-1.14-.44-2.21-1.25-3.01-.8-.8-1.87-1.25-3.01-1.25h0Zm5.2,4.63v-.75s0,0,0,0v.75Z"/>
  </g>
  <g>
    <path class="cls-1" d="m14.66,35.79h-7.72c-.15,0-.29-.06-.4-.17-.11-.11-.17-.25-.17-.4v-7.72c0-.31.25-.57.57-.57h0c2.21,0,4.3.86,5.86,2.43s2.43,3.65,2.43,5.86c0,.15-.06.29-.17.4s-.25.17-.4.17Zm-7.15-1.14h6.56c-.13-1.7-.86-3.27-2.07-4.49-1.22-1.22-2.79-1.94-4.49-2.07v6.56Z"/>
    <path class="cls-1" d="m14.67,36.17h-7.72c-.25,0-.49-.1-.67-.28-.17-.18-.28-.42-.28-.67v-7.72c0-.52.42-.94.94-.94,2.31,0,4.49.9,6.13,2.54,1.64,1.64,2.54,3.81,2.54,6.13,0,.25-.1.49-.28.67-.18.18-.42.28-.67.28Zm-7.72-8.86c-.11,0-.19.09-.19.19v7.72s.02.1.06.13c.04.04.09.06.14.06h7.72s.1-.02.14-.06c.04-.04.06-.08.06-.13,0-2.11-.82-4.1-2.32-5.6-1.49-1.49-3.48-2.32-5.6-2.32Zm7.54,7.72h-7.34s0-7.35,0-7.35l.4.03c1.78.14,3.46.91,4.73,2.18,1.27,1.27,2.04,2.95,2.18,4.73l.03.4Zm-6.59-.75h5.77c-.2-1.45-.87-2.81-1.92-3.85-1.05-1.05-2.4-1.72-3.85-1.92v5.77Z"/>
  </g>
  <g>
    <path class="cls-1" d="m6.95,22.71h0c-.15,0-.29-.06-.4-.17s-.17-.25-.17-.4v-7.72c0-.31.25-.57.57-.57h7.72c.15,0,.29.06.4.17.11.11.17.25.17.4,0,4.57-3.72,8.29-8.29,8.29Zm.57-7.72v6.56c3.49-.27,6.29-3.07,6.56-6.56h-6.56Z"/>
    <path class="cls-1" d="m6.95,23.08c-.25,0-.49-.1-.67-.28-.18-.18-.28-.42-.28-.67v-7.72c0-.52.42-.94.94-.94h7.72c.25,0,.49.1.67.28.17.18.28.42.28.67,0,4.78-3.89,8.66-8.66,8.66Zm0-8.86c-.11,0-.19.09-.19.19v7.72c0,.05.02.1.06.13.04.04.09.06.14.06h0c4.36,0,7.91-3.55,7.91-7.91,0-.05-.02-.1-.06-.14-.04-.04-.08-.06-.14-.06h-7.72Zm.19,7.73v-7.34s7.34,0,7.34,0l-.03.4c-.29,3.65-3.26,6.62-6.91,6.91l-.4.03Zm.75-6.59v5.77c2.96-.42,5.35-2.8,5.77-5.77h-5.77Z"/>
  </g>
  <g>
    <path class="cls-1" d="m55.05,35.8h-7.72c-.31,0-.57-.25-.57-.57,0-4.57,3.72-8.29,8.29-8.29h0c.15,0,.29.06.4.17.11.11.17.25.17.4v7.72c0,.15-.06.29-.17.4s-.25.17-.4.17Zm-7.13-1.14h6.56s0-6.56,0-6.56c-3.49.27-6.29,3.07-6.56,6.56Z"/>
    <path class="cls-1" d="m55.05,36.17h-7.72c-.52,0-.94-.42-.94-.94,0-4.78,3.89-8.66,8.66-8.66.25,0,.49.1.67.28.17.18.28.42.28.67v7.72c0,.25-.1.49-.28.67-.18.18-.42.28-.67.28Zm0-8.86c-4.36,0-7.91,3.55-7.91,7.91,0,.11.09.19.19.19h7.72v.38-.38c.05,0,.1-.02.14-.06.04-.04.06-.08.06-.14v-7.72c0-.05-.02-.1-.06-.14-.04-.04-.08-.06-.14-.06Zm-.19,7.72h-7.34s.03-.41.03-.41c.29-3.65,3.26-6.62,6.91-6.91l.4-.03v7.34Zm-6.52-.75h5.77s0-5.77,0-5.77c-2.97.42-5.35,2.8-5.77,5.77Z"/>
  </g>
  <g>
    <path class="cls-1" d="m55.05,22.71h0c-4.57,0-8.29-3.72-8.29-8.29,0-.31.25-.57.57-.57h7.72c.31,0,.57.25.57.57v7.72c0,.15-.06.29-.17.4-.11.11-.25.17-.4.17Zm-7.13-7.72c.27,3.49,3.07,6.29,6.56,6.56v-6.56s-6.56,0-6.56,0Z"/>
    <path class="cls-1" d="m55.05,23.09h0c-4.78,0-8.66-3.89-8.66-8.67,0-.52.42-.94.94-.94h7.72c.52,0,.94.42.94.94v7.72c0,.25-.1.49-.28.67-.18.17-.42.28-.67.28Zm-7.72-8.86c-.11,0-.19.09-.19.19,0,4.36,3.55,7.91,7.91,7.92.05,0,.1-.02.14-.06.04-.04.06-.08.06-.14v-7.72c0-.11-.08-.19-.19-.19h-7.72Zm7.53,7.73l-.4-.03c-3.65-.29-6.62-3.26-6.91-6.91l-.03-.4h7.34v7.34Zm-6.52-6.59c.42,2.97,2.8,5.35,5.77,5.77v-5.77s-5.77,0-5.77,0Z"/>
  </g>
  <g>
    <g>
      <path class="cls-1" d="m20.43,27.18h0c-1.3,0-2.35-1.06-2.35-2.36,0-1.3,1.06-2.35,2.35-2.35h0c.63,0,1.22.25,1.67.69.44.44.69,1.04.69,1.67,0,1.3-1.06,2.35-2.35,2.35Zm0-3.58c-.33,0-.63.13-.86.36s-.36.54-.36.86c0,.67.55,1.22,1.22,1.22h0c.67,0,1.22-.55,1.22-1.22,0-.33-.13-.63-.36-.86-.23-.23-.54-.36-.86-.36h0Z"/>
      <path class="cls-1" d="m20.43,27.55h0c-1.51,0-2.73-1.23-2.73-2.73s1.22-2.73,2.73-2.73c.73,0,1.42.28,1.93.8.52.51.8,1.2.8,1.93,0,1.51-1.23,2.73-2.73,2.73Zm0-4.71c-1.09,0-1.98.89-1.98,1.98s.89,1.98,1.98,1.98c1.09,0,1.98-.89,1.98-1.98,0-.53-.21-1.03-.58-1.4-.37-.38-.87-.58-1.4-.58Zm0,3.58c-.88,0-1.6-.72-1.6-1.6,0-.43.17-.83.47-1.13.6-.6,1.65-.6,2.26,0,.3.3.47.7.47,1.13,0,.88-.72,1.6-1.6,1.6Zm0-2.44c-.23,0-.44.09-.6.25-.16.16-.25.37-.25.6,0,.47.38.85.85.85s.85-.38.85-.85c0-.23-.09-.44-.25-.6-.16-.16-.37-.25-.6-.25Z"/>
    </g>
    <g>
      <path class="cls-1" d="m41.56,27.18c-1.3,0-2.35-1.06-2.35-2.36,0-1.3,1.06-2.35,2.36-2.35h0c1.3,0,2.35,1.06,2.35,2.36h-.57s.57,0,.57,0c0,1.3-1.06,2.35-2.36,2.35Zm0-3.58c-.67,0-1.22.55-1.22,1.22,0,.67.55,1.22,1.22,1.22.67,0,1.22-.55,1.22-1.22,0-.33-.13-.63-.36-.86-.23-.23-.54-.36-.86-.36h0Z"/>
      <path class="cls-1" d="m41.56,27.56c-1.5,0-2.73-1.22-2.73-2.73s1.22-2.73,2.73-2.73c1.38,0,2.52,1.03,2.71,2.36h.03l-.03.75c-.18,1.33-1.33,2.35-2.71,2.35Zm0-4.71c-1.09,0-1.98.89-1.98,1.98s.89,1.98,1.98,1.98c.96,0,1.77-.69,1.95-1.61h-.16v-.75h.16c-.18-.91-.98-1.6-1.94-1.6Zm0,3.58c-.88,0-1.6-.72-1.6-1.6,0-.88.72-1.59,1.6-1.59.43,0,.83.17,1.13.47.3.3.47.7.47,1.13,0,.88-.72,1.6-1.6,1.6Zm0-2.44c-.47,0-.84.38-.85.85,0,.47.38.84.85.84s.85-.38.85-.85c0-.23-.09-.44-.25-.6-.16-.16-.37-.25-.6-.25Z"/>
    </g>
  </g>
</svg>