<?xml version="1.0" encoding="UTF-8"?>
<svg id="Layer_1" data-name="Layer 1" xmlns="http://www.w3.org/2000/svg" viewBox="0 0 60 60">
  <defs>
    <style>
      .cls-1 {
        fill: #37464c;
        stroke-width: 0px;
      }
    </style>
  </defs>
  <g>
    <path class="cls-1" d="m31.12,35.28c-12.91,0-23.02-3.84-23.02-8.75s10.11-8.75,23.02-8.75,23.02,3.84,23.02,8.75-10.11,8.75-23.02,8.75Zm0-16.39c-11.88,0-21.92,3.5-21.92,7.64s10.04,7.64,21.92,7.64,21.92-3.5,21.92-7.64-10.04-7.64-21.92-7.64Z"/>
    <path class="cls-1" d="m31.12,35.78c-13.41,0-23.52-3.98-23.52-9.25s10.11-9.25,23.52-9.25,23.52,3.98,23.52,9.25-10.11,9.25-23.52,9.25Zm0-17.5c-12.42,0-22.52,3.7-22.52,8.25s10.1,8.25,22.52,8.25,22.52-3.7,22.52-8.25-10.1-8.25-22.52-8.25Zm0,16.39c-12.36,0-22.42-3.65-22.42-8.14s10.06-8.14,22.42-8.14,22.42,3.65,22.42,8.14-10.06,8.14-22.42,8.14Zm0-15.29c-12.62,0-21.42,3.77-21.42,7.14s8.8,7.14,21.42,7.14,21.42-3.77,21.42-7.14-8.8-7.14-21.42-7.14Z"/>
  </g>
  <g>
    <path class="cls-1" d="m31.12,54.42c-9.89,0-20.11-2.88-20.11-7.69v-10.01c0-.31.25-.55.55-.55s.55.25.55.55v10.01c0,3.18,7.64,6.58,19.01,6.58s19.01-3.4,19.01-6.58v-10.02c0-.31.25-.55.55-.55s.55.25.55.55v10.02c0,4.81-10.23,7.69-20.11,7.69Z"/>
    <path class="cls-1" d="m31.12,54.92c-9.99,0-20.61-2.87-20.61-8.19v-10.02c0-.58.47-1.05,1.05-1.05s1.05.47,1.05,1.05v10.02c0,2.49,6.59,6.08,18.51,6.08s18.51-3.6,18.51-6.08v-10.02c0-.58.47-1.05,1.05-1.05s1.05.47,1.05,1.05v10.02c0,5.32-10.62,8.19-20.61,8.19Zm-19.61-18.2v10.02c0,4.44,10.18,7.19,19.61,7.19s19.61-2.75,19.61-7.19v-10.02h-.1v10.02c0,3.9-8.75,7.08-19.51,7.08s-19.51-3.18-19.51-7.08v-10.02h-.1Z"/>
  </g>
  <g>
    <path class="cls-1" d="m31.12,41.43c-12.91,0-23.02-3.84-23.02-8.75v-6.15c0-.31.25-.55.55-.55s.55.25.55.55v6.15c0,4.14,10.04,7.64,21.92,7.64s21.92-3.5,21.92-7.64v-6.15c0-.31.25-.55.55-.55s.55.25.55.55v6.15c0,4.91-10.11,8.75-23.02,8.75Z"/>
    <path class="cls-1" d="m31.12,41.93c-13.41,0-23.52-3.98-23.52-9.25v-6.15c0-.58.47-1.05,1.05-1.05s1.05.47,1.05,1.05v6.15c0,3.38,8.8,7.14,21.42,7.14s21.42-3.77,21.42-7.14v-6.15c0-.58.47-1.05,1.05-1.05s1.05.47,1.05,1.05v6.15c0,5.27-10.11,9.25-23.52,9.25Zm-22.52-15.4v6.15c0,4.55,10.1,8.25,22.52,8.25s22.52-3.7,22.52-8.25v-6.15h-.1v6.15c0,4.49-10.06,8.14-22.42,8.14s-22.42-3.65-22.42-8.14v-6.15h-.1Z"/>
  </g>
  <g>
    <path class="cls-1" d="m31.08,27.82c-.14,0-.28-.05-.39-.16-.22-.22-.22-.57,0-.78l16.31-16.31c.22-.22.57-.22.78,0,.22.22.22.57,0,.78l-16.31,16.31c-.11.11-.25.16-.39.16Z"/>
    <path class="cls-1" d="m31.08,28.32c-.28,0-.55-.11-.74-.31-.41-.41-.41-1.08,0-1.49l16.31-16.31c.2-.2.46-.31.74-.31h0c.28,0,.54.11.74.31.41.41.41,1.08,0,1.49l-16.31,16.31c-.2.2-.46.31-.74.31Zm16.27-17.4l-16.31,16.31.04.09s.02,0,.04-.02l16.31-16.31-.07-.07Z"/>
  </g>
  <g>
    <path class="cls-1" d="m29.54,23.24c-.14,0-.28-.05-.39-.16L12.84,6.77c-.22-.22-.22-.57,0-.78.22-.22.57-.22.78,0l16.31,16.31c.22.22.22.57,0,.78-.11.11-.25.16-.39.16Z"/>
    <path class="cls-1" d="m29.54,23.74c-.28,0-.55-.11-.74-.31L12.48,7.12c-.41-.41-.41-1.08,0-1.49s1.08-.41,1.49,0l16.31,16.31c.41.41.41,1.08,0,1.49-.2.2-.46.31-.74.31ZM13.19,6.41l16.35,16.33s.03,0,.04-.02L13.26,6.34l-.43.43.35-.35Z"/>
  </g>
  <g>
    <path class="cls-1" d="m31.37,35.28c-11.16,0-19.9-3.34-19.9-7.61s8.74-7.61,19.9-7.61,19.9,3.34,19.9,7.61-8.74,7.61-19.9,7.61Zm0-14.11c-11.24,0-18.79,3.36-18.79,6.5s7.55,6.5,18.79,6.5,18.79-3.36,18.79-6.5-7.55-6.5-18.79-6.5Z"/>
    <path class="cls-1" d="m31.37,35.78c-11.63,0-20.4-3.49-20.4-8.11s8.77-8.11,20.4-8.11,20.4,3.49,20.4,8.11-8.77,8.11-20.4,8.11Zm0-15.22c-10.7,0-19.4,3.19-19.4,7.11s8.7,7.11,19.4,7.11,19.4-3.19,19.4-7.11-8.7-7.11-19.4-7.11Zm0,14.11c-10.64,0-19.29-3.14-19.29-7s8.65-7,19.29-7,19.29,3.14,19.29,7-8.65,7-19.29,7Zm0-13.01c-11.78,0-18.29,3.55-18.29,6s6.51,6,18.29,6,18.29-3.55,18.29-6-6.51-6-18.29-6Z"/>
  </g>
</svg>