<?xml version="1.0" encoding="UTF-8"?>
<svg id="Layer_1" data-name="Layer 1" xmlns="http://www.w3.org/2000/svg" viewBox="0 0 60 60">
  <defs>
    <style>
      .cls-1 {
        fill: #37464c;
        stroke-width: 0px;
      }
    </style>
  </defs>
  <g>
    <path class="cls-1" d="m37.95,49.92H13.29c-.32,0-.58-.26-.58-.58s.26-.58.58-.58h24.66c.32,0,.58.26.58.58s-.26.58-.58.58Z"/>
    <path class="cls-1" d="m37.95,50.3H13.29c-.53,0-.96-.43-.96-.96s.43-.96.96-.96h24.66c.53,0,.96.43.96.96s-.43.96-.96.96Zm-24.66-1.17c-.11,0-.21.09-.21.21s.09.21.21.21h24.66c.11,0,.21-.09.21-.21s-.09-.21-.21-.21H13.29Z"/>
  </g>
  <g>
    <path class="cls-1" d="m36.57,46.56H14.67c-.32,0-.58-.26-.58-.58v-29.42c0-6.35,5.17-11.51,11.53-11.51s11.53,5.16,11.53,11.51v29.42c0,.32-.26.58-.58.58Zm-21.31-1.17h20.73v-28.84c0-5.7-4.65-10.34-10.37-10.34s-10.37,4.64-10.37,10.34v28.84Z"/>
    <path class="cls-1" d="m36.57,46.93H14.67c-.53,0-.96-.43-.96-.96v-29.42c0-6.55,5.34-11.88,11.91-11.88s11.91,5.33,11.91,11.88v29.42c0,.53-.43.96-.96.96ZM25.62,5.42c-6.15,0-11.16,5-11.16,11.13v29.42c0,.11.09.21.21.21h21.9c.11,0,.21-.09.21-.21v-29.42c0-6.14-5-11.13-11.16-11.13Zm10.74,40.35H14.88v-29.21c0-5.91,4.82-10.72,10.74-10.72s10.74,4.81,10.74,10.72v29.21Zm-20.73-.75h19.98v-28.46c0-5.5-4.48-9.97-9.99-9.97s-9.99,4.47-9.99,9.97v28.46Z"/>
  </g>
  <g>
    <path class="cls-1" d="m32.58,29.14h-13.91c-.32,0-.58-.26-.58-.58v-11.48c0-.32.26-.58.58-.58h13.91c.32,0,.58.26.58.58v11.48c0,.32-.26.58-.58.58Zm-13.33-1.17h12.75v-10.32h-12.75v10.32Z"/>
    <path class="cls-1" d="m32.58,29.51h-13.91c-.53,0-.96-.43-.96-.96v-11.48c0-.53.43-.96.96-.96h13.91c.53,0,.96.43.96.96v11.48c0,.53-.43.96-.96.96Zm-13.91-12.65c-.11,0-.21.09-.21.21v11.48c0,.12.09.21.21.21h13.91c.12,0,.21-.09.21-.21v-11.48c0-.11-.09-.21-.21-.21h-13.91Zm13.71,11.48h-13.5v-11.07h13.5v11.07Zm-12.75-.75h12v-9.57h-12v9.57Z"/>
  </g>
  <g>
    <path class="cls-1" d="m42.6,56.11H13.65c-3.11,0-5.64-2.52-5.64-5.63v-21.61c0-3.66,2.98-6.64,6.65-6.64.32,0,.58.26.58.58s-.26.58-.58.58c-3.03,0-5.49,2.46-5.49,5.47v21.61c0,2.46,2,4.46,4.47,4.46h28.94c2.46,0,4.47-2,4.47-4.46v-18.26c0-.32.26-.58.58-.58s.58.26.58.58v18.26c0,3.1-2.53,5.63-5.64,5.63Z"/>
    <path class="cls-1" d="m42.6,56.48H13.65c-3.31,0-6.01-2.69-6.01-6v-21.61c0-3.87,3.15-7.02,7.03-7.02.53,0,.96.43.96.96s-.43.96-.96.96c-2.82,0-5.11,2.29-5.11,5.1v21.61c0,2.25,1.84,4.08,4.09,4.08h28.94c2.26,0,4.09-1.83,4.09-4.08v-18.26c0-.53.43-.96.96-.96s.96.43.96.96v18.26c0,3.31-2.7,6-6.01,6ZM14.67,22.6c-3.46,0-6.28,2.81-6.28,6.27v21.61c0,2.89,2.36,5.25,5.26,5.25h28.94c2.9,0,5.26-2.36,5.26-5.25v-18.26c0-.23-.42-.23-.42,0v18.26c0,2.67-2.17,4.83-4.84,4.83H13.65c-2.67,0-4.84-2.17-4.84-4.83v-21.61c0-3.23,2.63-5.85,5.86-5.85.11,0,.21-.09.21-.21s-.09-.21-.21-.21Z"/>
  </g>
  <g>
    <g>
      <path class="cls-1" d="m47.66,29.63c-.08,0-.17-.02-.25-.06-.23-.11-5.71-2.77-6.64-8.31-.72-4.29,1.5-9.03,6.61-14.07.18-.18.47-.22.69-.09.23.13,5.54,3.13,6.32,8.82.58,4.27-1.54,8.82-6.32,13.53-.11.11-.26.17-.41.17Zm.22-21.27c-4.59,4.63-6.6,8.9-5.96,12.71.7,4.16,4.45,6.59,5.63,7.26,4.29-4.32,6.2-8.44,5.68-12.23-.58-4.29-4.18-6.97-5.36-7.74Z"/>
      <path class="cls-1" d="m47.66,30c-.14,0-.28-.03-.41-.09-.24-.12-5.89-2.88-6.85-8.58-.75-4.42,1.52-9.26,6.72-14.4.3-.3.77-.36,1.14-.16.23.13,5.7,3.22,6.51,9.1.6,4.39-1.56,9.05-6.43,13.85-.18.18-.42.28-.67.28Zm.13-22.6c-.05,0-.11.02-.15.06-5.02,4.95-7.21,9.57-6.51,13.74.9,5.32,6.21,7.92,6.43,8.03.07.03.17.02.24-.04,4.69-4.62,6.78-9.07,6.21-13.21-.76-5.51-5.91-8.42-6.13-8.55-.03-.02-.07-.03-.1-.03Zm-.18,21.39l-.25-.14c-1.18-.67-5.09-3.19-5.82-7.53-.66-3.93,1.38-8.32,6.06-13.04l.22-.22.26.17c1.14.75,4.92,3.53,5.53,8,.53,3.91-1.42,8.13-5.79,12.55l-.2.2Zm.31-19.96c-4.35,4.45-6.25,8.54-5.64,12.16.63,3.75,3.88,6.06,5.2,6.85,4.06-4.16,5.87-8.1,5.37-11.71-.53-3.87-3.64-6.41-4.94-7.31Z"/>
    </g>
    <g>
      <path class="cls-1" d="m47.63,33.88h0c-.32,0-.58-.27-.58-.59l.1-16.49c0-.32.26-.58.58-.58h0c.32,0,.58.26.58.59l-.1,16.49c0,.32-.26.58-.58.58Z"/>
      <path class="cls-1" d="m47.63,34.25h0c-.26,0-.5-.1-.68-.29-.18-.18-.28-.42-.28-.68l.1-16.49c0-.53.43-.95.96-.95.26,0,.5.1.68.29.18.18.28.42.28.68l-.1,16.49c0,.53-.43.95-.96.95Zm.1-17.66c-.12,0-.21.09-.21.21l-.1,16.49c0,.06.02.11.06.15.04.04.09.06.15.06v.38s0-.38,0-.38c.11,0,.21-.09.21-.21l.1-16.49c0-.06-.02-.11-.06-.15-.04-.04-.09-.06-.15-.06Z"/>
    </g>
  </g>
</svg>