<?xml version="1.0" encoding="UTF-8"?>
<svg id="Layer_1" data-name="Layer 1" xmlns="http://www.w3.org/2000/svg" viewBox="0 0 60 60">
  <defs>
    <style>
      .cls-1 {
        fill: #37464c;
        stroke-width: 0px;
      }
    </style>
  </defs>
  <path class="cls-1" d="m30.99,13.55c-.55,0-1-.45-1-1V4.35c0-.55.45-1,1-1s1,.45,1,1v8.2c0,.55-.45,1-1,1Z"/>
  <path class="cls-1" d="m30.99,56.21c-.55,0-1-.45-1-1v-8.2c0-.55.45-1,1-1s1,.45,1,1v8.2c0,.55-.45,1-1,1Z"/>
  <path class="cls-1" d="m17.94,53.38c-.17,0-.34-.04-.5-.13-.48-.28-.64-.89-.37-1.37l3.79-6.56c.28-.48.89-.64,1.37-.37.48.28.64.89.37,1.37l-3.79,6.56c-.19.32-.52.5-.87.5Z"/>
  <path class="cls-1" d="m40.25,14.74c-.17,0-.34-.04-.5-.13-.48-.28-.64-.89-.37-1.37l3.79-6.56c.28-.48.89-.64,1.37-.37.48.28.64.89.37,1.37l-3.79,6.56c-.19.32-.52.5-.87.5Z"/>
  <path class="cls-1" d="m50.91,19.28c-.35,0-.68-.18-.87-.5-.28-.48-.11-1.09.37-1.37l5.61-3.24c.48-.28,1.09-.11,1.37.37.28.48.11,1.09-.37,1.37l-5.61,3.24c-.16.09-.33.13-.5.13Z"/>
  <path class="cls-1" d="m5.46,45.52c-.35,0-.68-.18-.87-.5-.28-.48-.11-1.09.37-1.37l5.61-3.24c.48-.28,1.09-.11,1.37.37.28.48.11,1.09-.37,1.37l-5.61,3.24c-.16.09-.33.13-.5.13Z"/>
  <path class="cls-1" d="m44.04,53.38c-.35,0-.68-.18-.87-.5l-3.79-6.56c-.28-.48-.11-1.09.37-1.37.48-.28,1.09-.11,1.37.37l3.79,6.56c.28.48.11,1.09-.37,1.37-.16.09-.33.13-.5.13Z"/>
  <path class="cls-1" d="m21.73,14.74c-.35,0-.68-.18-.87-.5l-3.79-6.56c-.28-.48-.11-1.09.37-1.37.48-.28,1.09-.11,1.37.37l3.79,6.56c.28.48.11,1.09-.37,1.37-.16.09-.33.13-.5.13Z"/>
  <path class="cls-1" d="m56.52,45.52c-.17,0-.34-.04-.5-.13l-5.61-3.24c-.48-.28-.64-.89-.37-1.37.28-.48.89-.64,1.37-.37l5.61,3.24c.48.28.64.89.37,1.37-.19.32-.52.5-.87.5Z"/>
  <path class="cls-1" d="m11.06,19.28c-.17,0-.34-.04-.5-.13l-5.61-3.24c-.48-.28-.64-.89-.37-1.37.28-.48.89-.64,1.37-.37l5.61,3.24c.48.28.64.89.37,1.37-.19.32-.52.5-.87.5Z"/>
  <path class="cls-1" d="m30.99,42.7c-7.12,0-12.91-5.79-12.91-12.92s5.79-12.92,12.91-12.92,12.92,5.79,12.92,12.92-5.79,12.92-12.92,12.92Zm0-23.83c-6.02,0-10.91,4.9-10.91,10.92s4.9,10.92,10.91,10.92,10.92-4.9,10.92-10.92-4.9-10.92-10.92-10.92Z"/>
  <path class="cls-1" d="m30.99,42.7c-9.55,0-18.65-4.12-24.97-11.31-.8-.92-.8-2.3,0-3.21,6.32-7.19,15.42-11.31,24.97-11.31s18.65,4.12,24.97,11.31c.8.92.8,2.3,0,3.21-6.32,7.19-15.42,11.31-24.97,11.31Zm0-23.83c-8.97,0-17.53,3.87-23.46,10.63-.14.16-.14.42,0,.58,5.94,6.75,14.49,10.63,23.46,10.63s17.53-3.87,23.46-10.63c.14-.16.14-.42,0-.58-5.94-6.75-14.49-10.63-23.46-10.63Z"/>
  <path class="cls-1" d="m30.99,36.21c-3.8,0-6.88-3.09-6.88-6.88s3.09-6.88,6.88-6.88,6.88,3.09,6.88,6.88-3.09,6.88-6.88,6.88Zm0-11.77c-2.69,0-4.88,2.19-4.88,4.88s2.19,4.88,4.88,4.88,4.88-2.19,4.88-4.88-2.19-4.88-4.88-4.88Z"/>
</svg>