<?xml version="1.0" encoding="UTF-8"?>
<svg id="Layer_1" data-name="Layer 1" xmlns="http://www.w3.org/2000/svg" viewBox="0 0 60 60">
  <defs>
    <style>
      .cls-1 {
        fill: #37464c;
        stroke-width: 0px;
      }
    </style>
  </defs>
  <g>
    <g>
      <path class="cls-1" d="m19.73,54.31H4.2c-.33,0-.6-.27-.6-.61v-22.03c0-.24.13-.45.34-.55l15.53-7.55c.19-.09.4-.08.58.03.17.11.28.31.28.52v29.59c0,.34-.27.61-.6.61Zm-14.93-1.22h14.33v-28.01l-14.33,6.97v21.04Z"/>
      <path class="cls-1" d="m19.73,54.68H4.2c-.54,0-.97-.44-.97-.99v-22.03c0-.38.22-.72.55-.89l15.53-7.55c.3-.15.66-.13.94.06.28.18.45.49.45.83v29.59c0,.54-.44.99-.97.99Zm0-30.81s-.06,0-.09.02l-15.53,7.55c-.08.04-.13.12-.13.21v22.03c0,.13.1.24.22.24h15.53c.12,0,.22-.11.22-.24v-29.59c0-.08-.04-.16-.11-.2-.04-.02-.08-.03-.12-.03Zm-.22,29.59H4.42v-21.65l15.08-7.34v28.98Zm-14.33-.75h13.58v-27.04l-13.58,6.61v20.43Z"/>
    </g>
    <g>
      <path class="cls-1" d="m35.6,54.31h-15.53c-.33,0-.6-.27-.6-.61v-22.03c0-.24.13-.45.34-.55l15.53-7.55c.19-.09.4-.08.58.03.17.11.28.31.28.52v29.59c0,.34-.27.61-.6.61Zm-14.93-1.22h14.33v-28.01l-14.33,6.97v21.04Z"/>
      <path class="cls-1" d="m35.6,54.68h-15.53c-.54,0-.97-.44-.97-.99v-22.03c0-.38.22-.72.55-.89l15.53-7.55c.3-.15.66-.13.95.06.28.18.45.49.45.83v29.59c0,.54-.44.99-.97.99Zm0-30.81s-.06,0-.09.02l-15.53,7.55c-.08.04-.13.12-.13.21v22.03c0,.13.1.24.22.24h15.53c.12,0,.22-.11.22-.24v-29.59c0-.08-.04-.16-.11-.2-.04-.02-.08-.03-.12-.03Zm-.22,29.59h-15.08v-21.65l15.08-7.34v28.98Zm-14.33-.75h13.58v-27.04l-13.58,6.61v20.43Z"/>
    </g>
    <g>
      <path class="cls-1" d="m51.14,54.31h-15.53c-.33,0-.6-.27-.6-.61v-22.03c0-.24.13-.45.34-.55l15.53-7.55c.19-.09.4-.08.58.03.17.11.28.31.28.52v29.59c0,.34-.27.61-.6.61Zm-14.93-1.22h14.33v-28.01l-14.33,6.97v21.04Z"/>
      <path class="cls-1" d="m51.13,54.68h-15.53c-.54,0-.97-.44-.97-.99v-22.03c0-.38.22-.72.55-.89l15.53-7.55c.3-.15.66-.13.95.06.28.18.45.49.45.83v29.59c0,.54-.44.99-.97.99Zm0-30.81s-.06,0-.09.02l-15.53,7.55c-.08.04-.13.12-.13.21v22.03c0,.13.1.24.22.24h15.53c.12,0,.22-.11.22-.24v-29.59c0-.08-.04-.16-.11-.2-.04-.02-.08-.03-.12-.03Zm-.22,29.59h-15.08v-21.65l15.08-7.34v28.98Zm-14.33-.75h13.58v-27.04l-13.58,6.61v20.43Z"/>
    </g>
  </g>
  <g>
    <path class="cls-1" d="m51.14,56.57H4.2c-.33,0-.6-.27-.6-.61s.27-.61.6-.61h46.94c.33,0,.6.27.6.61s-.27.61-.6.61Z"/>
    <path class="cls-1" d="m51.13,56.7H4.2c-.4,0-.72-.33-.72-.74s.32-.73.72-.73h46.94c.4,0,.72.33.72.73s-.33.74-.72.74Zm-46.94-1.22c-.26,0-.47.22-.47.48s.21.49.47.49h46.94c.26,0,.47-.22.47-.49s-.21-.48-.47-.48H4.2Z"/>
  </g>
  <g>
    <path class="cls-1" d="m9.12,29.38c-.33,0-.6-.27-.6-.61v-14.66c0-.34.27-.61.6-.61h5.67c.33,0,.6.27.6.61v12.01c0,.34-.27.61-.6.61s-.6-.27-.6-.61v-11.4h-4.48v14.05c0,.34-.27.61-.6.61Z"/>
    <path class="cls-1" d="m9.12,29.76c-.54,0-.97-.44-.97-.99v-14.66c0-.54.44-.99.97-.99h5.67c.54,0,.97.44.97.99v12.01c0,.54-.44.99-.97.99s-.97-.44-.97-.99v-11.03h-3.73v13.67c0,.54-.44.99-.97.99Zm0-15.88c-.12,0-.22.11-.22.24v14.66c0,.26.45.26.45,0v-14.42h5.23v11.78c0,.26.45.26.45,0v-12.01c0-.13-.1-.24-.22-.24h-5.67Z"/>
  </g>
  <g>
    <path class="cls-1" d="m25,29.38c-.33,0-.6-.27-.6-.61v-14.66c0-.34.27-.61.6-.61h5.67c.33,0,.6.27.6.61v12.01c0,.34-.27.61-.6.61s-.6-.27-.6-.61v-11.4h-4.48v14.05c0,.34-.27.61-.6.61Z"/>
    <path class="cls-1" d="m25,29.76c-.54,0-.97-.44-.97-.99v-14.66c0-.54.44-.99.97-.99h5.67c.54,0,.97.44.97.99v12.01c0,.54-.44.99-.97.99s-.97-.44-.97-.99v-11.03h-3.73v13.67c0,.54-.44.99-.97.99Zm0-15.88c-.12,0-.22.11-.22.24v14.66c0,.26.45.26.45,0v-14.42h5.23v11.78c0,.26.45.26.45,0v-12.01c0-.13-.1-.24-.22-.24h-5.67Z"/>
  </g>
  <g>
    <path class="cls-1" d="m40.53,29.38c-.33,0-.6-.27-.6-.61v-14.66c0-.34.27-.61.6-.61h5.67c.33,0,.6.27.6.61v12.01c0,.34-.27.61-.6.61s-.6-.27-.6-.61v-11.4h-4.48v14.05c0,.34-.27.61-.6.61Z"/>
    <path class="cls-1" d="m40.53,29.76c-.54,0-.97-.44-.97-.99v-14.66c0-.54.44-.99.97-.99h5.67c.54,0,.97.44.97.99v12.01c0,.54-.44.99-.97.99s-.97-.44-.97-.99v-11.03h-3.73v13.67c0,.54-.44.99-.97.99Zm0-15.88c-.12,0-.22.11-.22.24v14.66c0,.26.45.26.45,0v-14.42h5.23v11.78c0,.26.45.26.45,0v-12.01c0-.13-.1-.24-.22-.24h-5.67Z"/>
  </g>
  <g>
    <path class="cls-1" d="m43.62,14.72c-.33,0-.6-.27-.6-.61,0-.55.23-1.07.67-1.49,1.02-.98,3.33-1.57,6.86-1.75,2.55-.13,4.79,0,4.89,0,.33.02.58.31.56.64-.02.34-.31.59-.63.57-2.46-.15-9.2-.18-10.86,1.41-.26.25-.29.46-.29.6,0,.34-.27.61-.6.61Z"/>
    <path class="cls-1" d="m43.62,15.1c-.54,0-.97-.44-.97-.99,0-.66.27-1.26.78-1.76,1.11-1.06,3.43-1.67,7.1-1.86,2.63-.13,4.91,0,4.93,0,.53.03.95.5.91,1.04-.01.26-.13.51-.33.68-.19.17-.44.27-.7.24-3.36-.2-9.19-.02-10.58,1.31-.18.17-.18.28-.18.33,0,.54-.44.99-.97.99Zm9.29-3.91c-.7,0-1.5.01-2.34.06-4.28.22-5.96,1.01-6.62,1.65-.36.35-.55.77-.55,1.22,0,.26.45.26.45,0,0-.32.13-.61.41-.87,2.11-2.03,11.05-1.52,11.14-1.52.04,0,.11-.02.16-.06.05-.04.08-.1.08-.16,0-.13-.09-.24-.21-.25-.02,0-1.04-.06-2.51-.06Z"/>
  </g>
  <g>
    <path class="cls-1" d="m12.08,14.37c-.08,0-.15-.01-.23-.05-.31-.13-.45-.48-.33-.8.12-.29,3-7.18,14.43-7.18h29.44c.33,0,.6.27.6.61s-.27.61-.6.61h-29.44c-10.64,0-13.3,6.35-13.32,6.42-.09.24-.32.38-.56.38Z"/>
    <path class="cls-1" d="m12.08,14.74c-.12,0-.25-.02-.37-.07-.5-.21-.74-.78-.54-1.28.12-.3,3.12-7.42,14.78-7.42h29.44c.54,0,.97.44.97.98s-.44.99-.97.99h-29.44c-10.29,0-12.95,6.12-12.98,6.19-.15.37-.5.61-.9.61ZM55.4,6.72h-29.44c-11.16,0-13.97,6.66-14.09,6.95-.05.12,0,.26.12.31l.08.02c.09,0,.17-.06.21-.14.03-.07,2.85-6.65,13.67-6.65h29.44c.12,0,.22-.11.22-.24s-.1-.24-.22-.24Z"/>
  </g>
  <g>
    <path class="cls-1" d="m28.33,14.72c-.31,0-.57-.25-.6-.57,0-.11-.04-1.12,1.09-2.36,2.27-2.49,8.73-5.45,26.58-5.45.33,0,.6.27.6.61s-.27.61-.6.61c-18.33,0-23.97,3.17-25.7,5.06-.77.84-.78,1.44-.78,1.44.02.34-.23.63-.56.65-.01,0-.03,0-.04,0Z"/>
    <path class="cls-1" d="m28.33,15.1c-.51,0-.94-.4-.97-.92-.01-.21-.03-1.31,1.19-2.64,2.33-2.54,8.87-5.57,26.85-5.57.54,0,.97.44.97.99s-.44.99-.97.99c-18.19,0-23.74,3.09-25.42,4.94-.64.7-.68,1.2-.68,1.2.04.5-.37.98-.9,1.01h-.07Zm27.07-8.38c-17.71,0-24.08,2.9-26.3,5.33-1.05,1.15-1,2.04-1,2.08,0,.12.11.22.22.22.14,0,.23-.12.22-.25,0-.1.02-.79.87-1.72,1.77-1.94,7.5-5.18,25.98-5.18.12,0,.22-.11.22-.24s-.1-.24-.22-.24Z"/>
  </g>
</svg>