<?xml version="1.0" encoding="UTF-8"?>
<svg id="Layer_1" data-name="Layer 1" xmlns="http://www.w3.org/2000/svg" viewBox="0 0 60 60">
  <defs>
    <style>
      .cls-1 {
        fill: #37464c;
        stroke-width: 0px;
      }
    </style>
  </defs>
  <g>
    <path class="cls-1" d="m55.41,50.86H5.66c-.51,0-.93-.42-.93-.93V14.64c0-.51.42-.93.93-.93h49.76c.51,0,.93.42.93.93v35.29c0,.51-.42.93-.93.93Zm-49.55-1.13h49.34V14.84H5.86v34.88Z"/>
    <path class="cls-1" d="m55.41,51.36H5.66c-.79,0-1.43-.64-1.43-1.43V14.64c0-.79.64-1.43,1.43-1.43h49.76c.79,0,1.43.64,1.43,1.43v35.29c0,.79-.64,1.43-1.43,1.43ZM5.66,14.21c-.24,0-.43.19-.43.43v35.29c0,.24.19.43.43.43h49.76c.24,0,.43-.19.43-.43V14.64c0-.24-.19-.43-.43-.43H5.66Zm50.05,36.01H5.36V14.34h50.34v35.88Zm-49.34-1h48.34V15.34H6.36v33.88Z"/>
  </g>
  <g>
    <path class="cls-1" d="m45.2,11.46h-1.13v-3.29c0-1.52-1.24-2.75-2.75-2.75h-22.04c-1.52,0-2.75,1.24-2.75,2.75v3.29h-1.13v-3.29c0-2.14,1.74-3.89,3.89-3.89h22.04c2.14,0,3.89,1.74,3.89,3.89v3.29Z"/>
    <path class="cls-1" d="m45.7,11.96h-2.13v-3.79c0-1.24-1.01-2.25-2.25-2.25h-22.04c-1.24,0-2.25,1.01-2.25,2.25v3.79h-2.13v-3.79c0-2.42,1.97-4.39,4.39-4.39h22.04c2.42,0,4.39,1.97,4.39,4.39v3.79Zm-1.13-1h.13v-2.79c0-1.87-1.52-3.39-3.39-3.39h-22.04c-1.87,0-3.39,1.52-3.39,3.39v2.79h.13v-2.79c0-1.79,1.46-3.25,3.25-3.25h22.04c1.79,0,3.25,1.46,3.25,3.25v2.79Z"/>
  </g>
  <g>
    <path class="cls-1" d="m19.85,14.84h-7.79v-2.48c0-1.12.91-2.02,2.02-2.02h3.74c1.12,0,2.02.91,2.02,2.02v2.48Zm-6.66-1.13h5.52v-1.35c0-.49-.4-.89-.89-.89h-3.74c-.49,0-.89.4-.89.89v1.35Z"/>
    <path class="cls-1" d="m20.35,15.34h-8.79v-2.98c0-1.39,1.13-2.52,2.52-2.52h3.74c1.39,0,2.52,1.13,2.52,2.52v2.98Zm-7.79-1h6.79v-1.98c0-.84-.68-1.52-1.52-1.52h-3.74c-.84,0-1.52.68-1.52,1.52v1.98Zm6.66-.13h-6.52v-1.85c0-.77.62-1.39,1.39-1.39h3.74c.77,0,1.39.62,1.39,1.39v1.85Zm-5.52-1h4.52v-.85c0-.22-.17-.39-.39-.39h-3.74c-.22,0-.39.18-.39.39v.85Z"/>
  </g>
  <g>
    <path class="cls-1" d="m49.02,14.84h-7.79v-2.48c0-1.12.91-2.02,2.02-2.02h3.74c1.12,0,2.02.91,2.02,2.02v2.48Zm-6.66-1.13h5.52v-1.35c0-.49-.4-.89-.89-.89h-3.74c-.49,0-.89.4-.89.89v1.35Z"/>
    <path class="cls-1" d="m49.52,15.34h-8.79v-2.98c0-1.39,1.13-2.52,2.52-2.52h3.74c1.39,0,2.52,1.13,2.52,2.52v2.98Zm-7.79-1h6.79v-1.98c0-.84-.68-1.52-1.52-1.52h-3.74c-.84,0-1.52.68-1.52,1.52v1.98Zm6.66-.13h-6.52v-1.85c0-.77.62-1.39,1.39-1.39h3.74c.77,0,1.39.62,1.39,1.39v1.85Zm-5.52-1h4.52v-.85c0-.22-.17-.39-.39-.39h-3.74c-.21,0-.39.18-.39.39v.85Z"/>
  </g>
  <g>
    <path class="cls-1" d="m30.54,45.02c-7.03,0-12.74-5.72-12.74-12.74s5.72-12.74,12.74-12.74,12.74,5.72,12.74,12.74-5.72,12.74-12.74,12.74Zm0-24.35c-6.4,0-11.61,5.21-11.61,11.61s5.21,11.61,11.61,11.61,11.61-5.21,11.61-11.61-5.21-11.61-11.61-11.61Z"/>
    <path class="cls-1" d="m30.54,45.52c-7.3,0-13.24-5.94-13.24-13.24s5.94-13.24,13.24-13.24,13.24,5.94,13.24,13.24-5.94,13.24-13.24,13.24Zm0-25.48c-6.75,0-12.24,5.49-12.24,12.24s5.49,12.24,12.24,12.24,12.24-5.49,12.24-12.24-5.49-12.24-12.24-12.24Zm0,24.35c-6.68,0-12.11-5.43-12.11-12.11s5.43-12.11,12.11-12.11,12.11,5.43,12.11,12.11-5.43,12.11-12.11,12.11Zm0-23.21c-6.12,0-11.11,4.98-11.11,11.11s4.98,11.11,11.11,11.11,11.11-4.98,11.11-11.11-4.98-11.11-11.11-11.11Z"/>
  </g>
  <g>
    <path class="cls-1" d="m32.43,39.43h-3.79c-.57,0-1.03-.46-1.03-1.03v-3.19h-3.17c-.58,0-1.05-.47-1.05-1.05v-3.75c0-.58.47-1.05,1.05-1.05h3.17v-3.18c0-.57.46-1.04,1.04-1.04h3.77c.57,0,1.04.47,1.04,1.04v3.18h3.17c.58,0,1.05.47,1.05,1.05v3.75c0,.58-.47,1.05-1.05,1.05h-3.17v3.19c0,.57-.46,1.03-1.03,1.03Zm-3.69-1.13h3.58v-4.22h4.22v-3.58h-4.22v-4.22h-3.58v4.22h-4.22v3.58h4.22v4.22Z"/>
    <path class="cls-1" d="m32.43,39.93h-3.79c-.84,0-1.53-.69-1.53-1.53v-2.69h-2.67c-.85,0-1.55-.69-1.55-1.55v-3.75c0-.85.69-1.55,1.55-1.55h2.67v-2.68c0-.85.69-1.54,1.54-1.54h3.77c.85,0,1.54.69,1.54,1.54v2.68h2.67c.85,0,1.55.69,1.55,1.55v3.75c0,.85-.69,1.55-1.55,1.55h-2.67v2.69c0,.84-.69,1.53-1.53,1.53Zm-4.14-1.13c.09.08.22.13.35.13h3.79c.13,0,.26-.05.35-.13h-4.5Zm-4.2-4.22c.1.08.22.13.36.13h3.67v3.69c0,.13.05.26.13.35v-4.17h-4.16Zm8.74,0v4.17c.08-.09.13-.22.13-.35v-3.69h3.67c.14,0,.26-.05.36-.13h-4.16Zm-3.58,3.22h2.58v-4.22h4.22v-2.58h-4.22v-4.22h-2.58v4.22h-4.22v2.58h4.22v4.22Zm7.8-7.74v4.47c.08-.1.13-.22.13-.36v-3.75c0-.14-.05-.26-.13-.36Zm-13.02,0c-.08.1-.13.22-.13.36v3.75c0,.14.05.26.13.36v-4.47Zm8.8-.06h4.16c-.1-.08-.22-.13-.36-.13h-3.67v-3.68c0-.14-.05-.26-.13-.35v4.17Zm-8.74,0h4.16v-4.17c-.08.09-.13.22-.13.35v3.68h-3.67c-.14,0-.26.05-.36.13Zm4.21-4.22h4.48c-.09-.08-.22-.13-.36-.13h-3.77c-.14,0-.26.05-.35.13Z"/>
  </g>
</svg>