<?xml version="1.0" encoding="UTF-8"?>
<svg id="Layer_1" data-name="Layer 1" xmlns="http://www.w3.org/2000/svg" viewBox="0 0 60 60">
  <defs>
    <style>
      .cls-1 {
        fill: #37464c;
        stroke-width: 0px;
      }
    </style>
  </defs>
  <g>
    <g>
      <path class="cls-1" d="m34.41,57.53h-9.54c-.24,0-.45-.14-.55-.36l-2.95-6.44c-.09-.19-.07-.41.04-.58.11-.17.31-.28.51-.28h15.45c.21,0,.4.11.51.28.11.17.13.39.04.58l-2.95,6.44c-.1.22-.32.36-.55.36Zm-9.15-1.22h8.76l2.39-5.22h-13.55l2.39,5.22Z"/>
      <path class="cls-1" d="m34.41,57.91h-9.54c-.38,0-.73-.23-.89-.57l-2.95-6.44c-.14-.31-.12-.66.07-.94.18-.28.49-.45.83-.45h15.45c.34,0,.65.17.83.45.18.29.21.64.07.94l-2.95,6.43c-.16.35-.51.57-.89.57Zm-12.5-7.66c-.08,0-.15.04-.2.11-.04.07-.05.15-.01.22l2.95,6.44c.04.08.12.14.21.14h9.54c.09,0,.17-.05.21-.14l2.95-6.44c.03-.07.03-.16-.02-.23-.04-.07-.12-.11-.2-.11h-15.45Zm12.34,6.44h-9.24l-2.74-5.97h14.72l-2.74,5.97Zm-8.76-.75h8.28l2.05-4.47h-12.38l2.05,4.47Z"/>
    </g>
    <g>
      <path class="cls-1" d="m37.66,48.52h-16.04c-.99,0-1.8-.81-1.8-1.8v-1.01c0-.99.81-1.8,1.8-1.8h16.04c.99,0,1.8.81,1.8,1.8v1.01c0,.99-.81,1.8-1.8,1.8Zm-16.04-3.4c-.32,0-.58.26-.58.58v1.01c0,.32.26.58.58.58h16.04c.32,0,.58-.26.58-.58v-1.01c0-.32-.26-.58-.58-.58h-16.04Z"/>
      <path class="cls-1" d="m37.66,48.89h-16.04c-1.2,0-2.18-.98-2.18-2.18v-1.01c0-1.2.98-2.18,2.18-2.18h16.04c1.2,0,2.18.98,2.18,2.18v1.01c0,1.2-.98,2.18-2.18,2.18Zm-16.04-4.62c-.79,0-1.43.64-1.43,1.43v1.01c0,.79.64,1.43,1.43,1.43h16.04c.79,0,1.43-.64,1.43-1.43v-1.01c0-.79-.64-1.43-1.43-1.43h-16.04Zm16.04,3.4h-16.04c-.53,0-.96-.43-.96-.96v-1.01c0-.53.43-.96.96-.96h16.04c.53,0,.96.43.96.96v1.01c0,.53-.43.96-.96.96Zm-16.04-2.18c-.12,0-.21.09-.21.21v1.01c0,.12.09.21.21.21h16.04c.12,0,.21-.09.21-.21v-1.01c0-.12-.09-.21-.21-.21h-16.04Z"/>
    </g>
    <g>
      <g>
        <path class="cls-1" d="m36.9,41.03c-.88,0-1.84-.08-2.85-.24-.25-.04-.45-.24-.5-.49-.03-.15-.7-3.8,1.69-6.26,1.84-1.9,4.93-2.53,9.18-1.85.27.04.47.26.51.52.02.16.46,3.84-2.06,6.28-1.4,1.36-3.4,2.04-5.97,2.04Zm-2.21-1.38c3.34.46,5.8-.06,7.32-1.53,1.61-1.56,1.75-3.84,1.73-4.8-3.58-.49-6.14.03-7.62,1.56-1.52,1.57-1.51,3.84-1.43,4.77Z"/>
        <path class="cls-1" d="m36.9,41.41c-.9,0-1.88-.08-2.91-.25-.41-.06-.73-.38-.81-.79-.03-.16-.72-4,1.79-6.59,1.93-2,5.14-2.65,9.51-1.96.44.07.77.41.82.85.02.17.47,4.03-2.17,6.6-1.47,1.42-3.56,2.14-6.23,2.14Zm4.43-9.11c-2.58,0-4.54.67-5.83,2-2.25,2.32-1.62,5.79-1.59,5.93.02.1.1.17.19.19,3.85.61,6.72.03,8.5-1.7,2.37-2.3,1.97-5.81,1.95-5.96-.01-.1-.09-.18-.2-.2-1.09-.17-2.1-.26-3.03-.26Zm-4.43,7.89c-.71,0-1.46-.05-2.26-.17l-.3-.04-.03-.3c-.08-.96-.1-3.38,1.53-5.06,1.57-1.62,4.24-2.18,7.94-1.67l.32.04v.32c.03.97-.11,3.41-1.84,5.08-1.23,1.19-3.04,1.79-5.37,1.79Zm-1.86-.87c3.06.37,5.32-.12,6.71-1.46,1.35-1.31,1.59-3.19,1.62-4.2-3.29-.4-5.63.1-6.98,1.49-1.28,1.31-1.39,3.19-1.34,4.17Z"/>
      </g>
      <g>
        <path class="cls-1" d="m29.64,44.07c-.19,0-.37-.09-.49-.25-.2-.27-.14-.65.14-.85l4.5-3.27c.27-.2.65-.14.85.14.2.27.14.65-.13.85l-4.5,3.27c-.11.08-.23.12-.36.12Z"/>
        <path class="cls-1" d="m29.64,44.44c-.31,0-.61-.15-.8-.41-.15-.21-.22-.47-.18-.73.04-.26.18-.49.39-.64l4.5-3.27c.21-.15.47-.21.73-.18.26.04.49.18.64.39.15.21.22.47.18.73-.04.26-.18.49-.39.64l-4.5,3.27c-.17.12-.37.19-.58.19Zm4.5-4.49s-.1.01-.14.04l-4.5,3.27c-.05.04-.08.09-.09.15-.01.06,0,.12.04.17.07.1.23.13.33.05l4.5-3.27c.05-.04.08-.09.09-.15.01-.06,0-.12-.04-.17-.04-.06-.12-.1-.19-.1Z"/>
      </g>
    </g>
    <g>
      <g>
        <path class="cls-1" d="m22.72,39.52c-1.75,0-3.23-.43-4.42-1.29-2.84-2.06-2.94-5.76-2.94-5.92,0-.27.17-.51.43-.59,4.11-1.28,7.26-1.11,9.35.51,2.72,2.1,2.58,5.8,2.57,5.95-.01.26-.18.48-.43.55-1.68.52-3.21.79-4.57.79Zm-6.1-6.78c.12.95.58,3.19,2.4,4.5,1.72,1.24,4.23,1.39,7.47.46-.05-.93-.37-3.18-2.1-4.51-1.69-1.3-4.3-1.45-7.77-.45Zm10.49,5.41h0,0Zm0,0h0,0Z"/>
        <path class="cls-1" d="m22.72,39.9c-1.83,0-3.38-.46-4.64-1.37-2.99-2.16-3.09-6.05-3.09-6.21,0-.43.28-.83.69-.96,4.23-1.32,7.49-1.13,9.69.57,2.86,2.21,2.73,6.1,2.72,6.27-.02.41-.3.77-.69.9-1.71.53-3.29.8-4.68.8Zm-2.06-8.65c-1.39,0-2.98.28-4.76.83-.1.03-.17.12-.17.23,0,.15.1,3.68,2.78,5.62,2,1.45,4.92,1.6,8.59.47v-.62s0,0,0,0v.62s.04-.01.07-.02c.09-.03.16-.12.16-.21,0-.15.13-3.66-2.43-5.64-1.1-.85-2.53-1.28-4.25-1.28Zm2.07,7.43c-1.56,0-2.88-.38-3.92-1.13-1.95-1.4-2.44-3.8-2.56-4.76l-.04-.32.31-.09c3.59-1.04,6.32-.86,8.1.51,1.86,1.43,2.19,3.83,2.25,4.79l.02.3-.29.08c-1.42.41-2.72.62-3.87.62Zm-5.69-5.66c.17,1,.68,2.83,2.2,3.93,1.57,1.13,3.87,1.29,6.85.48-.1-.99-.48-2.82-1.93-3.94-1.54-1.18-3.93-1.34-7.12-.47Z"/>
      </g>
      <g>
        <path class="cls-1" d="m29.22,39.87c-.1,0-.19-.02-.28-.07l-2.11-1.11c-.3-.16-.41-.53-.26-.82.16-.3.53-.41.82-.26l2.11,1.11c.3.16.41.53.26.82-.11.21-.32.33-.54.33Z"/>
        <path class="cls-1" d="m29.22,40.25c-.16,0-.31-.04-.46-.11l-2.11-1.11c-.48-.25-.67-.85-.41-1.33.25-.48.85-.67,1.33-.42l2.11,1.11c.23.12.4.33.48.58.08.25.05.52-.07.75-.17.32-.5.53-.87.53Zm-2.1-2.33c-.08,0-.17.05-.21.13-.06.11-.02.26.1.32l2.1,1.11c.11.06.26.01.32-.1.03-.06.04-.12.02-.18-.02-.06-.06-.11-.12-.14l-2.11-1.11s-.07-.03-.11-.03Z"/>
      </g>
    </g>
    <g>
      <path class="cls-1" d="m29.64,45.12c-.34,0-.61-.27-.61-.61v-9.7c0-.34.27-.61.61-.61s.61.27.61.61v9.7c0,.34-.27.61-.61.61Z"/>
      <path class="cls-1" d="m29.64,45.49c-.54,0-.98-.44-.98-.98v-9.7c0-.54.44-.98.98-.98s.98.44.98.98v9.7c0,.54-.44.98-.98.98Zm0-10.92c-.13,0-.23.11-.23.23v9.7c0,.26.47.26.47,0v-9.7c0-.13-.11-.23-.23-.23Z"/>
    </g>
  </g>
  <g>
    <g>
      <path class="cls-1" d="m29.64,22.03c-1.86,0-3.37-1.51-3.37-3.37s1.51-3.37,3.37-3.37,3.37,1.51,3.37,3.37-1.51,3.37-3.37,3.37Zm0-5.51c-1.18,0-2.15.96-2.15,2.15s.96,2.15,2.15,2.15,2.15-.96,2.15-2.15-.96-2.15-2.15-2.15Z"/>
      <path class="cls-1" d="m29.64,22.41c-2.06,0-3.74-1.68-3.74-3.74s1.68-3.74,3.74-3.74,3.74,1.68,3.74,3.74-1.68,3.74-3.74,3.74Zm0-6.73c-1.65,0-2.99,1.34-2.99,2.99s1.34,2.99,2.99,2.99,2.99-1.34,2.99-2.99-1.34-2.99-2.99-2.99Zm0,5.51c-1.39,0-2.52-1.13-2.52-2.52s1.13-2.52,2.52-2.52,2.52,1.13,2.52,2.52-1.13,2.52-2.52,2.52Zm0-4.29c-.98,0-1.77.79-1.77,1.77s.79,1.77,1.77,1.77,1.77-.79,1.77-1.77-.79-1.77-1.77-1.77Z"/>
    </g>
    <g>
      <path class="cls-1" d="m29.64,33.15c-3.32,0-5.99-4.04-5.99-7.38,0-.53.07-1.04.2-1.54-.7.28-1.46.43-2.23.43-3.34,0-7.38-2.68-7.38-6s4.04-6,7.38-6c.77,0,1.53.15,2.23.43-.13-.5-.2-1.01-.2-1.54,0-3.34,2.67-7.38,5.99-7.38s5.99,4.04,5.99,7.38c0,.52-.07,1.04-.2,1.54.7-.28,1.46-.43,2.23-.43,3.34,0,7.38,2.68,7.38,6s-4.04,6-7.38,6c-.77,0-1.53-.15-2.23-.43.13.5.2,1.01.2,1.54,0,3.34-2.67,7.38-5.99,7.38Zm-4.34-11.18c.14,0,.29.05.4.15.24.21.27.56.09.82-.61.83-.93,1.8-.93,2.82,0,2.72,2.25,6.16,4.77,6.16s4.78-3.45,4.78-6.16c0-1.02-.32-2-.93-2.82-.19-.25-.15-.61.09-.82s.59-.2.82.01c.89.84,2.05,1.3,3.27,1.3,2.71,0,6.16-2.25,6.16-4.78s-3.44-4.78-6.16-4.78c-1.22,0-2.38.46-3.27,1.3-.23.22-.59.22-.82.01-.24-.21-.27-.56-.09-.82.61-.83.93-1.8.93-2.82,0-2.72-2.25-6.16-4.78-6.16s-4.77,3.45-4.77,6.16c0,1.02.32,2,.93,2.82.19.25.15.61-.09.82-.24.21-.59.2-.82-.01-.89-.84-2.05-1.3-3.27-1.3-2.71,0-6.16,2.25-6.16,4.78s3.44,4.78,6.16,4.78c1.22,0,2.38-.46,3.27-1.3.12-.11.27-.17.42-.17Z"/>
      <path class="cls-1" d="m29.64,33.53c-3.53,0-6.37-4.24-6.37-7.76,0-.33.02-.65.07-.97-.56.16-1.14.24-1.73.24-3.51,0-7.75-2.84-7.75-6.37s4.24-6.37,7.75-6.37c.59,0,1.17.08,1.73.24-.05-.32-.07-.64-.07-.97,0-3.51,2.84-7.76,6.37-7.76s6.37,4.24,6.37,7.76c0,.33-.02.65-.07.97.56-.16,1.14-.24,1.73-.24,3.51,0,7.75,2.84,7.75,6.37s-4.24,6.37-7.75,6.37c-.59,0-1.17-.08-1.73-.24.05.32.07.64.07.97,0,3.51-2.84,7.76-6.37,7.76Zm-5.24-9.92l-.19.73c-.12.47-.19.95-.19,1.44,0,3.17,2.51,7.01,5.62,7.01s5.62-3.83,5.62-7.01c0-.49-.06-.98-.19-1.44l-.19-.73.7.28c.66.27,1.37.4,2.09.4,3.17,0,7-2.51,7-5.62s-3.83-5.62-7-5.62c-.72,0-1.42.14-2.09.4l-.7.28.19-.73c.12-.47.19-.95.19-1.44,0-3.17-2.51-7.01-5.62-7.01s-5.62,3.83-5.62,7.01c0,.49.06.98.19,1.44l.19.73-.7-.28c-.66-.27-1.37-.4-2.09-.4-3.17,0-7,2.51-7,5.62s3.83,5.62,7,5.62c.72,0,1.43-.14,2.09-.4l.7-.28Zm5.24,8.7c-2.77,0-5.15-3.59-5.15-6.54,0-1.1.35-2.15,1-3.05.07-.1.06-.23-.03-.31-.09-.08-.23-.08-.32,0-.96.91-2.21,1.4-3.53,1.4-2.94,0-6.53-2.38-6.53-5.15s3.59-5.15,6.53-5.15c1.31,0,2.57.5,3.53,1.4.09.08.23.09.32,0,.09-.08.11-.22.03-.31-.66-.89-1-1.95-1-3.05,0-2.94,2.38-6.54,5.15-6.54s5.15,3.59,5.15,6.54c0,1.1-.35,2.15-1,3.05-.07.1-.06.23.03.31.09.08.23.08.32,0,.96-.91,2.21-1.41,3.53-1.41,2.94,0,6.53,2.38,6.53,5.15s-3.59,5.15-6.53,5.15c-1.31,0-2.56-.5-3.53-1.4-.09-.08-.23-.09-.32,0-.09.08-.11.22-.03.31.66.89,1,1.95,1,3.05,0,2.94-2.38,6.54-5.15,6.54Zm-4.34-10.71c.24,0,.47.09.65.25.38.34.44.91.14,1.32-.56.76-.86,1.66-.86,2.6,0,2.53,2.13,5.79,4.4,5.79s4.4-3.26,4.4-5.79c0-.94-.3-1.84-.86-2.6-.3-.41-.24-.98.14-1.32.38-.34.96-.33,1.33.02.82.77,1.89,1.2,3.01,1.2,2.53,0,5.78-2.14,5.78-4.4s-3.26-4.4-5.78-4.4c-1.12,0-2.19.43-3.01,1.2-.37.35-.94.36-1.33.02-.38-.34-.44-.91-.14-1.32.56-.76.86-1.66.86-2.6,0-2.53-2.13-5.79-4.4-5.79s-4.4,3.26-4.4,5.79c0,.94.3,1.84.86,2.6.3.41.24.98-.14,1.32-.38.34-.96.33-1.33-.02-.82-.77-1.89-1.2-3.01-1.2-2.53,0-5.78,2.14-5.78,4.4s3.26,4.4,5.78,4.4c1.12,0,2.19-.43,3.01-1.2.18-.17.42-.27.67-.27Z"/>
    </g>
  </g>
</svg>