<?xml version="1.0" encoding="UTF-8"?>
<svg id="Layer_1" data-name="Layer 1" xmlns="http://www.w3.org/2000/svg" viewBox="0 0 60 60">
  <defs>
    <style>
      .cls-1 {
        fill: #37464c;
        stroke-width: 0px;
      }
    </style>
  </defs>
  <g>
    <path class="cls-1" d="m13.31,34.04c-5.89,0-10.69-4.8-10.69-10.69s4.8-10.69,10.69-10.69,10.69,4.8,10.69,10.69-4.8,10.69-10.69,10.69Zm0-20.15c-5.21,0-9.45,4.24-9.45,9.45s4.24,9.45,9.45,9.45,9.45-4.24,9.45-9.45-4.24-9.45-9.45-9.45Z"/>
    <path class="cls-1" d="m13.31,34.41c-6.1,0-11.07-4.97-11.07-11.07s4.96-11.07,11.07-11.07,11.07,4.96,11.07,11.07-4.96,11.07-11.07,11.07Zm0-21.39c-5.69,0-10.32,4.63-10.32,10.32s4.63,10.32,10.32,10.32,10.32-4.63,10.32-10.32-4.63-10.32-10.32-10.32Zm0,20.15c-5.42,0-9.82-4.41-9.82-9.83s4.41-9.83,9.82-9.83,9.82,4.41,9.82,9.83-4.41,9.83-9.82,9.83Zm0-18.9c-5,0-9.07,4.07-9.07,9.08s4.07,9.08,9.07,9.08,9.07-4.07,9.07-9.08-4.07-9.08-9.07-9.08Z"/>
  </g>
  <g>
    <path class="cls-1" d="m46.33,34.04c-5.89,0-10.69-4.8-10.69-10.69s4.8-10.69,10.69-10.69,10.69,4.8,10.69,10.69-4.8,10.69-10.69,10.69Zm0-20.15c-5.21,0-9.45,4.24-9.45,9.45s4.24,9.45,9.45,9.45,9.45-4.24,9.45-9.45-4.24-9.45-9.45-9.45Z"/>
    <path class="cls-1" d="m46.33,34.41c-6.1,0-11.07-4.97-11.07-11.07s4.96-11.07,11.07-11.07,11.07,4.96,11.07,11.07-4.96,11.07-11.07,11.07Zm0-21.39c-5.69,0-10.32,4.63-10.32,10.32s4.63,10.32,10.32,10.32,10.32-4.63,10.32-10.32-4.63-10.32-10.32-10.32Zm0,20.15c-5.42,0-9.82-4.41-9.82-9.83s4.41-9.83,9.82-9.83,9.82,4.41,9.82,9.83-4.41,9.83-9.82,9.83Zm0-18.9c-5,0-9.07,4.07-9.07,9.08s4.07,9.08,9.07,9.08,9.07-4.07,9.07-9.08-4.07-9.08-9.07-9.08Z"/>
  </g>
  <g>
    <path class="cls-1" d="m39.92,16.2h-20.2c-.34,0-.62-.28-.62-.62s.28-.62.62-.62h20.2c.34,0,.62.28.62.62s-.28.62-.62.62Z"/>
    <path class="cls-1" d="m39.92,16.57h-20.2c-.55,0-1-.45-1-1s.45-1,1-1h20.2c.55,0,1,.45,1,1s-.45,1-1,1Zm-20.2-1.24c-.14,0-.25.11-.25.25s.11.25.25.25h20.2c.14,0,.25-.11.25-.25s-.11-.25-.25-.25h-20.2Z"/>
  </g>
  <g>
    <path class="cls-1" d="m39.92,31.73h-20.2c-.34,0-.62-.28-.62-.62s.28-.62.62-.62h20.2c.34,0,.62.28.62.62s-.28.62-.62.62Z"/>
    <path class="cls-1" d="m39.92,32.11h-20.2c-.55,0-1-.45-1-1s.45-1,1-1h20.2c.55,0,1,.45,1,1s-.45,1-1,1Zm-20.2-1.24c-.14,0-.25.11-.25.25s.11.25.25.25h20.2c.14,0,.25-.11.25-.25s-.11-.25-.25-.25h-20.2Z"/>
  </g>
  <g>
    <path class="cls-1" d="m13.31,52.23c-3.38,0-6.15-2.54-6.43-5.91l-1.33-15.62c-.03-.34.22-.64.57-.67.34-.03.64.22.67.57l1.33,15.62c.23,2.72,2.47,4.77,5.19,4.77s4.96-2.05,5.19-4.77l1.33-15.62c.03-.34.33-.59.67-.57.34.03.6.33.57.67l-1.33,15.62c-.29,3.37-3.05,5.91-6.43,5.91Z"/>
    <path class="cls-1" d="m13.31,52.6c-3.58,0-6.5-2.69-6.81-6.25l-1.33-15.62c-.05-.55.36-1.03.91-1.08.27-.02.52.06.73.23.2.17.33.41.35.68l1.33,15.62c.22,2.53,2.29,4.43,4.82,4.43s4.61-1.9,4.82-4.43l1.33-15.62c.05-.54.53-.95,1.07-.91.55.05.96.53.91,1.08l-1.33,15.62c-.3,3.56-3.23,6.25-6.81,6.25Zm-7.14-22.21s-.01,0-.02,0c-.14.01-.24.13-.22.27l1.33,15.62c.27,3.17,2.88,5.57,6.06,5.57s5.79-2.39,6.06-5.57l1.33-15.62c.01-.13-.09-.25-.22-.27-.14-.02-.25.09-.27.22l-1.33,15.62c-.25,2.92-2.64,5.12-5.57,5.12s-5.32-2.2-5.57-5.12l-1.33-15.62c0-.07-.04-.12-.09-.17-.04-.04-.1-.06-.16-.06Z"/>
  </g>
  <g>
    <path class="cls-1" d="m46.33,52.23c-3.38,0-6.15-2.54-6.43-5.91l-1.33-15.62c-.03-.34.22-.64.57-.67.34-.03.64.22.67.57l1.33,15.62c.23,2.72,2.47,4.77,5.2,4.77s4.96-2.05,5.19-4.77l1.33-15.62c.03-.34.33-.59.67-.57.34.03.59.33.57.67l-1.33,15.62c-.29,3.37-3.05,5.91-6.43,5.91Z"/>
    <path class="cls-1" d="m46.33,52.6c-3.58,0-6.5-2.69-6.81-6.25l-1.33-15.62c-.05-.55.36-1.03.91-1.08.27-.01.52.06.73.23s.33.41.35.68l1.33,15.62c.22,2.53,2.29,4.43,4.82,4.43s4.61-1.9,4.82-4.43l1.33-15.62c.05-.54.53-.95,1.07-.91.55.05.96.53.91,1.08l-1.33,15.62c-.3,3.56-3.23,6.25-6.81,6.25Zm-7.14-22.21s-.01,0-.02,0c-.14.01-.24.13-.22.27l1.33,15.62c.27,3.17,2.87,5.57,6.06,5.57s5.79-2.39,6.06-5.57l1.33-15.62c.01-.13-.09-.25-.22-.27-.14-.03-.25.09-.27.22l-1.33,15.62c-.25,2.92-2.64,5.12-5.57,5.12s-5.32-2.2-5.57-5.12l-1.33-15.62c0-.07-.04-.12-.09-.17-.04-.04-.1-.06-.16-.06Z"/>
  </g>
  <g>
    <g>
      <path class="cls-1" d="m27.68,27.39h-1.79c-.34,0-.62-.28-.62-.62s.28-.62.62-.62h1.79c.34,0,.62.28.62.62s-.28.62-.62.62Z"/>
      <path class="cls-1" d="m27.68,27.77h-1.79c-.55,0-1-.45-1-1s.45-1,1-1h1.79c.55,0,1,.45,1,1s-.45,1-1,1Zm-1.79-1.24c-.14,0-.25.11-.25.25s.11.25.25.25h1.79c.14,0,.25-.11.25-.25s-.11-.25-.25-.25h-1.79Z"/>
    </g>
    <g>
      <path class="cls-1" d="m33.75,27.39h-1.79c-.34,0-.62-.28-.62-.62s.28-.62.62-.62h1.79c.34,0,.62.28.62.62s-.28.62-.62.62Z"/>
      <path class="cls-1" d="m33.75,27.77h-1.79c-.55,0-1-.45-1-1s.45-1,1-1h1.79c.55,0,1,.45,1,1s-.45,1-1,1Zm-1.79-1.24c-.14,0-.25.11-.25.25s.11.25.25.25h1.79c.14,0,.25-.11.25-.25s-.11-.25-.25-.25h-1.79Z"/>
    </g>
  </g>
  <g>
    <g>
      <path class="cls-1" d="m13.31,22.24c-1.52,0-2.76-1.24-2.76-2.76s1.24-2.76,2.76-2.76,2.76,1.24,2.76,2.76-1.24,2.76-2.76,2.76Zm0-4.29c-.84,0-1.52.68-1.52,1.52s.68,1.52,1.52,1.52,1.52-.68,1.52-1.52-.68-1.52-1.52-1.52Z"/>
      <path class="cls-1" d="m13.31,22.62c-1.73,0-3.14-1.41-3.14-3.14s1.41-3.14,3.14-3.14,3.14,1.41,3.14,3.14-1.41,3.14-3.14,3.14Zm0-5.53c-1.32,0-2.39,1.07-2.39,2.39s1.07,2.39,2.39,2.39,2.39-1.07,2.39-2.39-1.07-2.39-2.39-2.39Zm0,4.29c-1.05,0-1.9-.85-1.9-1.9s.85-1.9,1.9-1.9,1.9.85,1.9,1.9-.85,1.9-1.9,1.9Zm0-3.05c-.63,0-1.15.51-1.15,1.15s.51,1.15,1.15,1.15,1.15-.52,1.15-1.15-.51-1.15-1.15-1.15Z"/>
    </g>
    <g>
      <path class="cls-1" d="m13.31,29.98c-1.52,0-2.76-1.24-2.76-2.76s1.24-2.76,2.76-2.76,2.76,1.24,2.76,2.76-1.24,2.76-2.76,2.76Zm0-4.29c-.84,0-1.52.68-1.52,1.52s.68,1.52,1.52,1.52,1.52-.68,1.52-1.52-.68-1.52-1.52-1.52Z"/>
      <path class="cls-1" d="m13.31,30.35c-1.73,0-3.14-1.41-3.14-3.14s1.41-3.14,3.14-3.14,3.14,1.41,3.14,3.14-1.41,3.14-3.14,3.14Zm0-5.53c-1.32,0-2.39,1.07-2.39,2.39s1.07,2.39,2.39,2.39,2.39-1.07,2.39-2.39-1.07-2.39-2.39-2.39Zm0,4.29c-1.05,0-1.9-.85-1.9-1.9s.85-1.9,1.9-1.9,1.9.85,1.9,1.9-.85,1.9-1.9,1.9Zm0-3.05c-.63,0-1.15.52-1.15,1.15s.51,1.15,1.15,1.15,1.15-.52,1.15-1.15-.51-1.15-1.15-1.15Z"/>
    </g>
    <g>
      <path class="cls-1" d="m9.44,26.11c-1.52,0-2.76-1.24-2.76-2.76s1.24-2.76,2.76-2.76,2.76,1.24,2.76,2.76-1.24,2.76-2.76,2.76Zm0-4.29c-.84,0-1.52.68-1.52,1.52s.68,1.52,1.52,1.52,1.52-.68,1.52-1.52-.68-1.52-1.52-1.52Z"/>
      <path class="cls-1" d="m9.44,26.48c-1.73,0-3.14-1.41-3.14-3.14s1.41-3.14,3.14-3.14,3.14,1.41,3.14,3.14-1.41,3.14-3.14,3.14Zm0-5.53c-1.32,0-2.39,1.07-2.39,2.39s1.07,2.39,2.39,2.39,2.39-1.07,2.39-2.39-1.07-2.39-2.39-2.39Zm0,4.29c-1.05,0-1.9-.85-1.9-1.9s.85-1.9,1.9-1.9,1.9.85,1.9,1.9-.85,1.9-1.9,1.9Zm0-3.05c-.63,0-1.15.51-1.15,1.15s.52,1.15,1.15,1.15,1.15-.52,1.15-1.15-.51-1.15-1.15-1.15Z"/>
    </g>
    <g>
      <path class="cls-1" d="m17.18,26.11c-1.52,0-2.76-1.24-2.76-2.76s1.24-2.76,2.76-2.76,2.76,1.24,2.76,2.76-1.24,2.76-2.76,2.76Zm0-4.29c-.84,0-1.52.68-1.52,1.52s.68,1.52,1.52,1.52,1.52-.68,1.52-1.52-.68-1.52-1.52-1.52Z"/>
      <path class="cls-1" d="m17.18,26.48c-1.73,0-3.14-1.41-3.14-3.14s1.41-3.14,3.14-3.14,3.14,1.41,3.14,3.14-1.41,3.14-3.14,3.14Zm0-5.53c-1.32,0-2.39,1.07-2.39,2.39s1.07,2.39,2.39,2.39,2.39-1.07,2.39-2.39-1.07-2.39-2.39-2.39Zm0,4.29c-1.05,0-1.9-.85-1.9-1.9s.85-1.9,1.9-1.9,1.9.85,1.9,1.9-.85,1.9-1.9,1.9Zm0-3.05c-.63,0-1.15.51-1.15,1.15s.52,1.15,1.15,1.15,1.15-.52,1.15-1.15-.51-1.15-1.15-1.15Z"/>
    </g>
  </g>
  <g>
    <g>
      <path class="cls-1" d="m46.33,22.24c-1.52,0-2.76-1.24-2.76-2.76s1.24-2.76,2.76-2.76,2.76,1.24,2.76,2.76-1.24,2.76-2.76,2.76Zm0-4.29c-.84,0-1.52.68-1.52,1.52s.68,1.52,1.52,1.52,1.52-.68,1.52-1.52-.68-1.52-1.52-1.52Z"/>
      <path class="cls-1" d="m46.33,22.62c-1.73,0-3.14-1.41-3.14-3.14s1.41-3.14,3.14-3.14,3.14,1.41,3.14,3.14-1.41,3.14-3.14,3.14Zm0-5.53c-1.32,0-2.39,1.07-2.39,2.39s1.07,2.39,2.39,2.39,2.39-1.07,2.39-2.39-1.07-2.39-2.39-2.39Zm0,4.29c-1.05,0-1.9-.85-1.9-1.9s.85-1.9,1.9-1.9,1.9.85,1.9,1.9-.85,1.9-1.9,1.9Zm0-3.05c-.63,0-1.15.51-1.15,1.15s.52,1.15,1.15,1.15,1.15-.52,1.15-1.15-.51-1.15-1.15-1.15Z"/>
    </g>
    <g>
      <path class="cls-1" d="m46.33,29.98c-1.52,0-2.76-1.24-2.76-2.76s1.24-2.76,2.76-2.76,2.76,1.24,2.76,2.76-1.24,2.76-2.76,2.76Zm0-4.29c-.84,0-1.52.68-1.52,1.52s.68,1.52,1.52,1.52,1.52-.68,1.52-1.52-.68-1.52-1.52-1.52Z"/>
      <path class="cls-1" d="m46.33,30.35c-1.73,0-3.14-1.41-3.14-3.14s1.41-3.14,3.14-3.14,3.14,1.41,3.14,3.14-1.41,3.14-3.14,3.14Zm0-5.53c-1.32,0-2.39,1.07-2.39,2.39s1.07,2.39,2.39,2.39,2.39-1.07,2.39-2.39-1.07-2.39-2.39-2.39Zm0,4.29c-1.05,0-1.9-.85-1.9-1.9s.85-1.9,1.9-1.9,1.9.85,1.9,1.9-.85,1.9-1.9,1.9Zm0-3.05c-.63,0-1.15.52-1.15,1.15s.52,1.15,1.15,1.15,1.15-.52,1.15-1.15-.51-1.15-1.15-1.15Z"/>
    </g>
    <g>
      <path class="cls-1" d="m42.47,26.11c-1.52,0-2.76-1.24-2.76-2.76s1.24-2.76,2.76-2.76,2.76,1.24,2.76,2.76-1.24,2.76-2.76,2.76Zm0-4.29c-.84,0-1.52.68-1.52,1.52s.68,1.52,1.52,1.52,1.52-.68,1.52-1.52-.68-1.52-1.52-1.52Z"/>
      <path class="cls-1" d="m42.47,26.48c-1.73,0-3.14-1.41-3.14-3.14s1.41-3.14,3.14-3.14,3.14,1.41,3.14,3.14-1.41,3.14-3.14,3.14Zm0-5.53c-1.32,0-2.39,1.07-2.39,2.39s1.07,2.39,2.39,2.39,2.39-1.07,2.39-2.39-1.07-2.39-2.39-2.39Zm0,4.29c-1.05,0-1.9-.85-1.9-1.9s.85-1.9,1.9-1.9,1.9.85,1.9,1.9-.85,1.9-1.9,1.9Zm0-3.05c-.63,0-1.15.51-1.15,1.15s.51,1.15,1.15,1.15,1.15-.52,1.15-1.15-.51-1.15-1.15-1.15Z"/>
    </g>
    <g>
      <path class="cls-1" d="m50.2,26.11c-1.52,0-2.76-1.24-2.76-2.76s1.24-2.76,2.76-2.76,2.76,1.24,2.76,2.76-1.24,2.76-2.76,2.76Zm0-4.29c-.84,0-1.52.68-1.52,1.52s.68,1.52,1.52,1.52,1.52-.68,1.52-1.52-.68-1.52-1.52-1.52Z"/>
      <path class="cls-1" d="m50.2,26.48c-1.73,0-3.14-1.41-3.14-3.14s1.41-3.14,3.14-3.14,3.14,1.41,3.14,3.14-1.41,3.14-3.14,3.14Zm0-5.53c-1.32,0-2.39,1.07-2.39,2.39s1.07,2.39,2.39,2.39,2.39-1.07,2.39-2.39-1.07-2.39-2.39-2.39Zm0,4.29c-1.05,0-1.9-.85-1.9-1.9s.85-1.9,1.9-1.9,1.9.85,1.9,1.9-.85,1.9-1.9,1.9Zm0-3.05c-.63,0-1.15.51-1.15,1.15s.51,1.15,1.15,1.15,1.15-.52,1.15-1.15-.51-1.15-1.15-1.15Z"/>
    </g>
  </g>
</svg>