<?xml version="1.0" encoding="UTF-8"?>
<svg id="Layer_1" data-name="Layer 1" xmlns="http://www.w3.org/2000/svg" viewBox="0 0 60 60">
  <defs>
    <style>
      .cls-1 {
        fill: #37464c;
        stroke-width: 0px;
      }
    </style>
  </defs>
  <path class="cls-1" d="m30.5,37c-4.41,0-8-3.59-8-8s3.59-8,8-8,8,3.59,8,8-3.59,8-8,8Zm0-14c-3.31,0-6,2.69-6,6s2.69,6,6,6,6-2.69,6-6-2.69-6-6-6Z"/>
  <path class="cls-1" d="m43.5,55c-.55,0-1-.45-1-1v-10.5c0-1.54-.98-2.91-2.45-3.39l-3.27-.98-5.58,5.58c-.39.39-1.02.39-1.41,0l-5.58-5.58-3.3.99c-1.44.48-2.42,1.84-2.42,3.38v10.5c0,.55-.45,1-1,1s-1-.45-1-1v-10.5c0-2.41,1.53-4.54,3.82-5.29l3.9-1.17c.35-.11.73,0,.99.25l5.29,5.29,5.29-5.29c.26-.26.64-.36.99-.25l3.87,1.16c2.31.76,3.84,2.89,3.84,5.3v10.5c0,.55-.45,1-1,1Z"/>
  <path class="cls-1" d="m22.5,55c-.55,0-1-.45-1-1v-8c0-.55.45-1,1-1s1,.45,1,1v8c0,.55-.45,1-1,1Z"/>
  <path class="cls-1" d="m38.5,55c-.55,0-1-.45-1-1v-8c0-.55.45-1,1-1s1,.45,1,1v8c0,.55-.45,1-1,1Z"/>
  <path class="cls-1" d="m43.58,37.32c-.17,0-.33-.04-.49-.13-.48-.27-.65-.88-.38-1.36,1.17-2.09,1.79-4.45,1.79-6.83,0-7.72-6.28-14-14-14s-14,6.28-14,14c0,2.38.62,4.75,1.79,6.83.27.48.1,1.09-.38,1.36-.48.27-1.09.1-1.36-.38-1.34-2.39-2.05-5.09-2.05-7.81,0-8.82,7.18-16,16-16s16,7.18,16,16c0,2.73-.71,5.43-2.05,7.81-.18.33-.52.51-.87.51Z"/>
  <path class="cls-1" d="m47.5,48.83c-.26,0-.51-.1-.71-.29-.39-.39-.39-1.02,0-1.41l1.8-1.8-1.9-3.17c-.4-.66-.37-1.51.07-2.15.53-.78,1.01-1.6,1.41-2.43.34-.7,1.08-1.14,1.83-1.13l3.69.06.65-2.41-3.21-1.78c-.67-.38-1.07-1.12-1.02-1.9.03-.47.05-.94.05-1.42s-.02-.95-.05-1.42c-.06-.78.34-1.52,1.02-1.89l3.21-1.78-.65-2.41-3.69.06c-.77,0-1.49-.43-1.83-1.13-.41-.83-.88-1.65-1.41-2.43-.44-.65-.47-1.49-.07-2.15l1.9-3.17-1.76-1.76-3.17,1.9c-.66.4-1.51.37-2.15-.07-.78-.53-1.6-1.01-2.43-1.41-.7-.34-1.14-1.06-1.13-1.83l.06-3.69-2.41-.65-1.78,3.21c-.38.67-1.12,1.08-1.9,1.02-.93-.07-1.9-.07-2.83,0-.77.06-1.52-.34-1.89-1.02l-1.78-3.21-2.41.65.06,3.69c.01.77-.43,1.49-1.13,1.83-.83.41-1.65.88-2.43,1.41-.65.44-1.49.47-2.15.07l-3.17-1.9-1.76,1.76,1.9,3.17c.4.66.37,1.51-.07,2.15-.53.78-1.01,1.6-1.41,2.43-.34.7-1.06,1.14-1.83,1.13l-3.69-.06-.65,2.41,3.21,1.78c.67.37,1.07,1.12,1.02,1.9-.03.47-.05.94-.05,1.42s.02.95.05,1.42c.06.78-.34,1.52-1.02,1.89l-3.21,1.78.65,2.41,3.69-.06c.76,0,1.49.43,1.83,1.13.41.83.88,1.65,1.41,2.43.44.65.47,1.49.07,2.15l-1.9,3.17,1.8,1.8c.39.39.39,1.02,0,1.41s-1.02.39-1.41,0l-2.35-2.35c-.32-.32-.39-.83-.15-1.22l2.3-3.84c-.59-.86-1.12-1.76-1.56-2.68l-4.47.07c-.44.02-.86-.3-.98-.74l-1.05-3.92c-.12-.44.08-.91.48-1.13l3.9-2.16c-.04-.52-.06-1.04-.06-1.56s.02-1.04.06-1.56l-3.89-2.17c-.4-.22-.6-.69-.48-1.13l1.05-3.92c.12-.44.55-.73.98-.74l4.47.08c.44-.93.97-1.83,1.55-2.69l-2.29-3.84c-.24-.39-.17-.9.15-1.22l2.87-2.87c.32-.32.83-.39,1.22-.15l3.84,2.3c.86-.59,1.76-1.12,2.68-1.56l-.07-4.47c0-.46.3-.86.74-.98l3.92-1.05c.44-.12.91.08,1.13.48l2.16,3.9c1.04-.09,2.09-.08,3.12,0l2.17-3.89c.22-.4.69-.6,1.13-.48l3.92,1.05c.44.12.75.52.74.98l-.08,4.47c.93.44,1.83.97,2.69,1.55l3.84-2.29c.4-.24.9-.17,1.22.15l2.87,2.87c.32.32.39.83.15,1.22l-2.3,3.84c.59.86,1.12,1.76,1.56,2.68l4.47-.07c.48,0,.86.3.98.74l1.05,3.92c.12.44-.08.91-.48,1.13l-3.9,2.16c.04.52.06,1.04.06,1.56s-.02,1.04-.06,1.56l3.89,2.17c.4.22.6.69.48,1.13l-1.05,3.92c-.12.44-.49.77-.98.74l-4.47-.08c-.44.93-.97,1.83-1.55,2.69l2.29,3.84c.24.39.17.9-.15,1.22l-2.35,2.35c-.2.2-.45.29-.71.29Z"/>
</svg>