<?xml version="1.0" encoding="UTF-8"?>
<svg id="Layer_1" data-name="Layer 1" xmlns="http://www.w3.org/2000/svg" viewBox="0 0 60 60">
  <defs>
    <style>
      .cls-1 {
        fill: #37464c;
        stroke-width: 0px;
      }
    </style>
  </defs>
  <path class="cls-1" d="m10.46,15c-2.76,0-5-2.24-5-5s2.24-5,5-5,5,2.24,5,5-2.24,5-5,5Zm0-8c-1.65,0-3,1.35-3,3s1.35,3,3,3,3-1.35,3-3-1.35-3-3-3Z"/>
  <path class="cls-1" d="m50.46,15c-2.76,0-5-2.24-5-5s2.24-5,5-5,5,2.24,5,5-2.24,5-5,5Zm0-8c-1.65,0-3,1.35-3,3s1.35,3,3,3,3-1.35,3-3-1.35-3-3-3Z"/>
  <path class="cls-1" d="m10.46,55c-2.76,0-5-2.24-5-5s2.24-5,5-5,5,2.24,5,5-2.24,5-5,5Zm0-8c-1.65,0-3,1.35-3,3s1.35,3,3,3,3-1.35,3-3-1.35-3-3-3Z"/>
  <path class="cls-1" d="m30.46,12c-2.76,0-5-2.24-5-5s2.24-5,5-5,5,2.24,5,5-2.24,5-5,5Zm0-8c-1.65,0-3,1.35-3,3s1.35,3,3,3,3-1.35,3-3-1.35-3-3-3Z"/>
  <path class="cls-1" d="m30.46,58c-2.76,0-5-2.24-5-5s2.24-5,5-5,5,2.24,5,5-2.24,5-5,5Zm0-8c-1.65,0-3,1.35-3,3s1.35,3,3,3,3-1.35,3-3-1.35-3-3-3Z"/>
  <path class="cls-1" d="m50.46,55c-2.76,0-5-2.24-5-5s2.24-5,5-5,5,2.24,5,5-2.24,5-5,5Zm0-8c-1.65,0-3,1.35-3,3s1.35,3,3,3,3-1.35,3-3-1.35-3-3-3Z"/>
  <path class="cls-1" d="m7.46,35c-2.76,0-5-2.24-5-5s2.24-5,5-5,5,2.24,5,5-2.24,5-5,5Zm0-8c-1.65,0-3,1.35-3,3s1.35,3,3,3,3-1.35,3-3-1.35-3-3-3Z"/>
  <path class="cls-1" d="m53.46,35c-2.76,0-5-2.24-5-5s2.24-5,5-5,5,2.24,5,5-2.24,5-5,5Zm0-8c-1.65,0-3,1.35-3,3s1.35,3,3,3,3-1.35,3-3-1.35-3-3-3Z"/>
  <rect class="cls-1" x="29.46" y="11" width="2" height="6"/>
  <rect class="cls-1" x="43.46" y="29" width="6" height="2"/>
  <rect class="cls-1" x="29.46" y="43" width="2" height="6"/>
  <rect class="cls-1" x="11.46" y="29" width="6" height="2"/>
  <path class="cls-1" d="m17.75,18.71c-.19-.2-.29-.45-.29-.71h0c0-.26.1-.51.29-.71h0c.39-.39,1.03-.39,1.42,0h0c.19.2.29.45.29.71h0c0,.26-.1.51-.29.71h0c-.2.19-.46.29-.71.29h0c-.26,0-.51-.1-.71-.29Zm-2.83-2.83c-.19-.2-.29-.45-.29-.71h0c0-.25.1-.51.29-.71h0c.39-.39,1.03-.39,1.42,0h0c.19.2.29.46.29.71h0c0,.26-.1.51-.29.71h0c-.2.19-.45.29-.71.29h0c-.26,0-.51-.1-.71-.29Z"/>
  <path class="cls-1" d="m41.75,18.71c-.19-.2-.29-.45-.29-.71h0c0-.26.1-.51.29-.71h0c.39-.39,1.03-.39,1.42,0h0c.19.2.29.45.29.71h0c0,.26-.1.51-.29.71h0c-.2.19-.46.29-.71.29h0c-.26,0-.51-.1-.71-.29Zm2.83-2.83c-.2-.2-.29-.45-.29-.71h0c0-.26.09-.51.29-.71h0c.39-.39,1.02-.39,1.41,0h0c.2.2.3.45.3.71h0c0,.26-.1.51-.3.71h0c-.19.19-.45.29-.7.29h0c-.26,0-.52-.1-.71-.29Z"/>
  <path class="cls-1" d="m14.92,45.54c-.19-.2-.29-.46-.29-.71h0c0-.26.1-.51.29-.71h0c.39-.39,1.03-.39,1.42,0h0c.19.2.29.45.29.71h0c0,.25-.1.51-.29.71h0c-.2.19-.45.29-.71.29h0c-.26,0-.51-.1-.71-.29Zm2.83-2.83c-.19-.2-.29-.45-.29-.71h0c0-.26.1-.51.29-.71h0c.39-.39,1.03-.39,1.42,0h0c.19.2.29.45.29.71h0c0,.26-.1.51-.29.71h0c-.2.19-.46.29-.71.29h0c-.26,0-.51-.1-.71-.29Z"/>
  <path class="cls-1" d="m44.58,45.54c-.2-.2-.29-.46-.29-.71h0c0-.26.09-.51.29-.71h0c.39-.39,1.02-.39,1.41,0h0c.2.2.3.45.3.71h0c0,.25-.1.51-.3.71h0c-.19.19-.45.29-.7.29h0c-.26,0-.52-.1-.71-.29Zm-2.83-2.83c-.19-.2-.29-.45-.29-.71h0c0-.26.1-.51.29-.71h0c.39-.39,1.03-.39,1.42,0h0c.19.2.29.45.29.71h0c0,.26-.1.51-.29.71h0c-.2.19-.46.29-.71.29h0c-.26,0-.51-.1-.71-.29Z"/>
  <path class="cls-1" d="m30.46,36c-3.31,0-6-2.69-6-6s2.69-6,6-6,6,2.69,6,6-2.69,6-6,6Zm0-10c-2.21,0-4,1.79-4,4s1.79,4,4,4,4-1.79,4-4-1.79-4-4-4Z"/>
  <path class="cls-1" d="m30.46,44c-.67,0-1.35-.05-2.02-.15-.44-.06-.78-.41-.85-.85l-.29-2.01c-.83-.24-1.63-.57-2.39-.99l-1.62,1.22c-.36.27-.84.27-1.2,0-.54-.41-1.06-.85-1.53-1.32-.47-.47-.92-.99-1.32-1.53-.27-.36-.27-.84,0-1.2l1.22-1.62c-.42-.76-.75-1.56-.99-2.39l-2.01-.29c-.44-.06-.78-.41-.85-.85-.2-1.34-.2-2.7,0-4.04.06-.44.41-.78.85-.85l2.01-.29c.24-.83.57-1.63.99-2.39l-1.22-1.62c-.27-.35-.27-.84,0-1.2.41-.55.86-1.06,1.32-1.53.47-.47.99-.92,1.53-1.32.35-.27.84-.27,1.2,0l1.62,1.22c.76-.42,1.56-.75,2.39-.99l.29-2.01c.06-.44.41-.78.85-.85,1.34-.19,2.7-.19,4.04,0,.44.06.78.41.85.85l.29,2.01c.83.24,1.63.57,2.39.99l1.62-1.22c.36-.27.84-.27,1.2,0,.54.41,1.06.85,1.53,1.32.47.47.92.99,1.32,1.53.27.36.27.84,0,1.2l-1.22,1.62c.42.76.75,1.56.99,2.39l2.01.29c.44.06.78.41.85.85.2,1.34.2,2.7,0,4.04-.06.44-.41.78-.85.85l-2.01.29c-.24.83-.57,1.63-.99,2.39l1.22,1.62c.27.35.27.84,0,1.2-.41.54-.85,1.06-1.32,1.53-.47.47-.99.92-1.53,1.33-.36.27-.84.26-1.2,0l-1.62-1.22c-.76.42-1.56.75-2.39.99l-.29,2.01c-.06.44-.41.78-.85.85-.67.1-1.35.15-2.02.15Zm-.99-2.04c.66.05,1.33.06,1.99,0l.27-1.91c.06-.41.37-.75.78-.83,1.07-.23,2.09-.65,3.03-1.25.35-.22.8-.21,1.14.04l1.54,1.15c.26-.22.5-.44.74-.68.23-.23.46-.48.67-.73l-1.15-1.54c-.25-.33-.27-.78-.04-1.13.6-.94,1.02-1.96,1.25-3.03.09-.41.42-.72.83-.78l1.91-.27c.05-.66.05-1.33,0-1.99l-1.91-.27c-.41-.06-.75-.37-.83-.77-.24-1.08-.66-2.1-1.25-3.03-.22-.35-.21-.8.04-1.14l1.15-1.54c-.22-.26-.44-.5-.67-.73-.23-.23-.48-.46-.73-.67l-1.54,1.15c-.33.25-.79.27-1.14.04-.93-.59-1.95-1.01-3.03-1.25-.41-.09-.72-.42-.78-.84l-.27-1.91c-.66-.05-1.33-.05-1.99,0l-.27,1.91c-.06.41-.37.75-.78.84-1.07.23-2.09.65-3.03,1.25-.35.22-.8.21-1.14-.04l-1.54-1.15c-.26.22-.5.44-.73.67s-.46.48-.67.73l1.15,1.54c.25.33.27.78.04,1.13-.6.94-1.02,1.96-1.25,3.03-.09.41-.42.72-.83.78l-1.91.27c-.05.66-.05,1.33,0,1.99l1.91.27c.41.06.75.37.83.77.24,1.08.66,2.1,1.25,3.03.22.35.21.8-.04,1.14l-1.15,1.54c.22.26.44.5.67.73.23.23.48.46.73.67l1.54-1.15c.33-.25.78-.27,1.14-.04.93.59,1.95,1.01,3.03,1.25.41.09.72.42.78.83l.27,1.91Z"/>
</svg>