<?xml version="1.0" encoding="UTF-8"?>
<svg id="Layer_1" data-name="Layer 1" xmlns="http://www.w3.org/2000/svg" viewBox="0 0 60 60">
  <defs>
    <style>
      .cls-1 {
        fill: #37464c;
        stroke-width: 0px;
      }
    </style>
  </defs>
  <path class="cls-1" d="m17.13,28.32H6.78c-.55,0-1-.45-1-1s.45-1,1-1h10.35c.55,0,1,.45,1,1s-.45,1-1,1Z"/>
  <path class="cls-1" d="m55.49,28.32h-10.41c-.55,0-1-.45-1-1s.45-1,1-1h10.41c.55,0,1,.45,1,1s-.45,1-1,1Z"/>
  <path class="cls-1" d="m13.91,45.54c-.26,0-.51-.1-.71-.29-.39-.39-.39-1.02,0-1.41l7.48-7.48c.39-.39,1.02-.39,1.41,0s.39,1.02,0,1.41l-7.48,7.48c-.2.2-.45.29-.71.29Z"/>
  <path class="cls-1" d="m40.82,18.64c-.26,0-.51-.1-.71-.29-.39-.39-.39-1.02,0-1.41l7.54-7.54c.39-.39,1.02-.39,1.41,0s.39,1.02,0,1.41l-7.54,7.54c-.2.2-.45.29-.71.29Z"/>
  <path class="cls-1" d="m31.13,14.33c-.55,0-1-.45-1-1V2.97c0-.55.45-1,1-1s1,.45,1,1v10.36c0,.55-.45,1-1,1Z"/>
  <path class="cls-1" d="m48.35,45.54c-.26,0-.51-.1-.71-.29l-7.28-7.28c-.39-.39-.39-1.02,0-1.41s1.02-.39,1.41,0l7.28,7.28c.39.39.39,1.02,0,1.41-.2.2-.45.29-.71.29Z"/>
  <path class="cls-1" d="m21.45,18.64c-.26,0-.51-.1-.71-.29l-7.54-7.54c-.39-.39-.39-1.02,0-1.41s1.02-.39,1.41,0l7.54,7.54c.39.39.39,1.02,0,1.41-.2.2-.45.29-.71.29Z"/>
  <path class="cls-1" d="m36.98,51.38h-11.69c-.55,0-1-.45-1-1s.45-1,1-1h11.69c.55,0,1,.45,1,1s-.45,1-1,1Z"/>
  <path class="cls-1" d="m36.98,54.85h-11.69c-.55,0-1-.45-1-1s.45-1,1-1h11.69c.55,0,1,.45,1,1s-.45,1-1,1Z"/>
  <path class="cls-1" d="m21.38,38.06c-.29,0-.58-.13-.78-.38-2.21-2.77-4.19-5.64-4.19-10.33,0-3.93,1.53-7.63,4.31-10.41.39-.39,1.02-.39,1.41,0,.39.39.39,1.02,0,1.41-2.4,2.4-3.72,5.6-3.72,8.99,0,4.05,1.7,6.51,3.75,9.08.34.43.27,1.06-.16,1.41-.18.15-.4.22-.62.22Z"/>
  <path class="cls-1" d="m31.1,47.91h-5.82c-.55,0-1-.45-1-1v-1.65c0-2.98-1.56-4.93-3.37-7.18l-.32-.4c-.34-.43-.27-1.06.16-1.41.43-.34,1.06-.27,1.41.16l.31.39c1.87,2.33,3.81,4.75,3.81,8.43v.65h4.82c.55,0,1,.45,1,1s-.45,1-1,1Z"/>
  <path class="cls-1" d="m36.98,47.91h-5.88c-.55,0-1-.45-1-1s.45-1,1-1h4.88v-.65c0-3.68,1.93-6.1,3.8-8.43l.35-.44c.35-.43.97-.5,1.41-.16.43.34.5.97.16,1.41l-.35.44c-1.81,2.25-3.36,4.2-3.36,7.18v1.65c0,.55-.45,1-1,1Z"/>
  <path class="cls-1" d="m40.91,38.02c-.22,0-.44-.07-.62-.22-.43-.34-.5-.97-.16-1.41,2.03-2.55,3.72-4.99,3.72-9.04,0-3.4-1.33-6.6-3.74-9.01-.39-.39-.39-1.02,0-1.41.39-.39,1.02-.39,1.41,0,2.79,2.78,4.32,6.48,4.32,10.42,0,4.69-1.96,7.54-4.15,10.29-.2.25-.49.38-.78.38Z"/>
  <path class="cls-1" d="m21.43,18.65c-.26,0-.51-.1-.71-.29-.39-.39-.39-1.02,0-1.41,2.78-2.78,6.48-4.31,10.41-4.31s7.61,1.53,10.39,4.3c.39.39.39,1.02,0,1.41-.39.39-1.02.39-1.41,0-2.4-2.39-5.59-3.71-8.98-3.71s-6.59,1.32-8.99,3.73c-.2.2-.45.29-.71.29Z"/>
  <path class="cls-1" d="m34.13,58.33h-5.99c-.55,0-1-.45-1-1s.45-1,1-1h5.99c.55,0,1,.45,1,1s-.45,1-1,1Z"/>
  <path class="cls-1" d="m29.73,37.9c-.67,0-1.27-.49-1.4-1.15l-.49-2.3-1.43-.82-2.24.73c-.62.21-1.35-.06-1.69-.64l-1.41-2.44c-.34-.58-.21-1.35.3-1.79l1.74-1.56v-1.65s-1.75-1.58-1.75-1.58c-.49-.43-.62-1.2-.29-1.78l1.41-2.43c.33-.58,1.06-.85,1.7-.64l2.23.72,1.43-.83.49-2.3c.13-.64.73-1.14,1.4-1.14h2.8c.67,0,1.27.49,1.4,1.15l.49,2.3,1.43.82,2.24-.73c.62-.21,1.34.06,1.68.63l1.41,2.44c.33.58.21,1.34-.29,1.78l-1.75,1.57v1.65s1.75,1.58,1.75,1.58c.5.43.62,1.2.28,1.78l-1.4,2.43c-.34.58-1.06.85-1.7.64l-2.23-.72-1.43.83-.49,2.3c-.13.64-.73,1.14-1.4,1.14h-2.8Zm2.25-1.56s0,.01,0,.02v-.02Zm-1.69-.01v.02s0-.01,0-.02Zm-3.86-4.72c.35,0,.72.1,1,.3l1.48.85c.39.18.77.66.87,1.17l.42,1.97h1.88s.42-1.98.42-1.98c.1-.49.48-.98.95-1.2l1.48-.86c.35-.25.96-.34,1.45-.17l1.92.62.94-1.63-1.51-1.36c-.38-.33-.61-.91-.56-1.42v-1.71c-.05-.42.18-1,.57-1.34l1.5-1.35-.94-1.63-1.92.63c-.47.16-1.08.08-1.51-.22l-1.48-.85c-.39-.18-.78-.67-.87-1.18l-.42-1.96h-1.88s-.42,1.98-.42,1.98c-.1.49-.48.98-.95,1.2l-1.47.86c-.35.25-.96.34-1.45.17l-1.91-.62-.94,1.63,1.51,1.36c.38.33.61.91.56,1.42v1.7c.05.43-.18,1-.57,1.34l-1.49,1.34.94,1.63,1.92-.63c.16-.05.33-.08.51-.08Zm1.47,2.88s.05.03.09.05l-.09-.05Zm6.5,0h-.02s.02,0,.02,0Zm-6.57-.14s0,.01,0,.02v-.02Zm6.64-.02v.03s0-.02,0-.03Zm-8.11-.72s.01.01.02.01h-.02Zm9.65-.04l-.08.05s.05-.03.08-.05Zm-.25.04s0,0,.01,0h-.01Zm-9.2,0h-.02s.02,0,.02,0Zm-2.99-1.13s-.01,0-.02,0h.02Zm15.15,0h.02s-.01,0-.02,0Zm.86-1.46h.01s-.01,0-.01,0Zm-16.84-.02l-.02.02s.01-.01.02-.02Zm16.73-.69s0,0,0,0h0Zm-16.34-2.3s0,.06,0,.1v-.1Zm16.03-.02v.03s0-.02,0-.03Zm-15.94-.13s-.01,0-.02.01h.02Zm15.84,0l.02.02s-.01-.01-.02-.02Zm-15.85-1.49s.01.01.02.02l-.02-.02Zm15.87,0h-.02s.01,0,.02,0Zm-15.96-.14s0,.02,0,.03v-.03Zm16.03-.09v.1s0-.06,0-.1Zm-16.45-2.91h.01s0,0-.01,0Zm.86-1.46s.01,0,.02,0h-.02Zm15.18,0h-.02s.01,0,.02,0Zm-12.38-1.13s-.05.03-.08.05l.08-.05Zm9.39,0s-.02,0-.03,0h.03Zm-9.24,0h.02s-.01,0-.02,0Zm9.39-.01h.02s-.01,0-.02,0Zm-8.08-.74s0,.01,0,.02v-.02Zm6.63-.02v.02s0-.02,0-.02Zm-6.55-.13s-.02,0-.02.01h.02Zm6.39-.04l.08.05s-.05-.03-.08-.05Zm-2.31-1.81s0,.01,0,.02v-.02Zm-1.69-.01v.02s0-.01,0-.02Z"/>
  <path class="cls-1" d="m31.13,31.1c-2.21,0-4-1.8-4-4s1.8-4,4-4,4,1.8,4,4-1.8,4-4,4Zm0-6.06c-1.14,0-2.06.92-2.06,2.06s.92,2.06,2.06,2.06,2.06-.92,2.06-2.06-.92-2.06-2.06-2.06Z"/>
</svg>