<?xml version="1.0" encoding="UTF-8"?>
<svg id="Layer_1" data-name="Layer 1" xmlns="http://www.w3.org/2000/svg" viewBox="0 0 60 60">
  <defs>
    <style>
      .cls-1 {
        fill: #37464c;
        stroke-width: 0px;
      }
    </style>
  </defs>
  <path class="cls-1" d="m23,32c-.55,0-1-.45-1-1,0-4.41,3.59-8,8-8,.55,0,1,.45,1,1s-.45,1-1,1c-3.31,0-6,2.69-6,6,0,.55-.45,1-1,1Z"/>
  <path class="cls-1" d="m34.6,57c-.36,0-.69-.19-.87-.51l-2.16-3.89c-1.05.08-2.08.08-3.13,0l-2.16,3.89c-.22.4-.69.6-1.13.48l-3.92-1.05c-.44-.12-.75-.52-.74-.98l.08-4.46c-.93-.45-1.83-.98-2.7-1.56l-3.83,2.3c-.39.24-.9.17-1.22-.15l-2.87-2.87c-.32-.32-.39-.83-.15-1.22l2.3-3.83c-.59-.87-1.11-1.77-1.56-2.7l-4.46.08c-.46.03-.86-.3-.98-.74l-1.05-3.92c-.12-.44.08-.91.48-1.13l3.89-2.16c-.04-.52-.06-1.05-.06-1.57s.02-1.04.06-1.57l-3.89-2.16c-.4-.22-.6-.69-.48-1.13l1.05-3.92c.12-.44.53-.73.98-.74l4.46.08c.45-.93.98-1.83,1.56-2.7l-2.3-3.83c-.24-.39-.17-.9.15-1.22l2.87-2.87c.32-.32.83-.39,1.22-.15l3.83,2.3c.87-.59,1.77-1.11,2.7-1.56l-.08-4.46c0-.46.3-.86.74-.98l3.92-1.05c.44-.12.91.08,1.13.48l2.16,3.89c1.05-.08,2.08-.08,3.13,0l2.16-3.89c.22-.4.69-.6,1.13-.48l3.92,1.05c.44.12.75.52.74.98l-.08,4.46c.93.45,1.83.98,2.7,1.56l3.83-2.3c.39-.24.9-.17,1.22.15l2.87,2.87c.32.32.39.83.15,1.22l-2.3,3.83c.59.87,1.11,1.77,1.56,2.7l4.46-.08c.46,0,.86.3.98.74l1.05,3.92c.12.44-.08.91-.48,1.13l-3.89,2.16c.04.52.06,1.05.06,1.57s-.02,1.04-.06,1.57l3.89,2.16c.4.22.6.69.48,1.13l-1.05,3.92c-.12.44-.52.77-.98.74l-5.11-.09c-.55,0-.99-.46-.98-1.02,0-.55.46-.98,1-.98h.02l4.33.07.65-2.41-3.77-2.09c-.35-.19-.55-.58-.51-.98.07-.67.1-1.36.1-2.02s-.03-1.35-.1-2.02c-.04-.4.16-.78.51-.98l3.77-2.09-.65-2.41-4.33.07c-.37.02-.77-.23-.93-.59-.54-1.21-1.22-2.38-2.02-3.49-.24-.32-.25-.76-.05-1.1l2.23-3.72-1.76-1.76-3.72,2.23c-.34.21-.78.19-1.1-.05-1.1-.8-2.27-1.48-3.49-2.02-.37-.16-.6-.53-.59-.93l.07-4.33-2.41-.65-2.09,3.77c-.19.35-.58.56-.98.51-1.35-.14-2.7-.14-4.05,0-.4.05-.78-.16-.98-.51l-2.09-3.77-2.41.65.07,4.33c0,.4-.23.77-.59.93-1.21.54-2.38,1.22-3.49,2.02-.32.24-.76.25-1.1.05l-3.72-2.23-1.76,1.76,2.23,3.72c.21.34.19.78-.05,1.1-.8,1.1-1.48,2.27-2.02,3.49-.16.37-.5.61-.93.59l-4.33-.07-.65,2.41,3.77,2.09c.35.19.55.58.51.98-.07.67-.1,1.36-.1,2.02s.03,1.35.1,2.02c.04.4-.16.78-.51.98l-3.77,2.09.65,2.41,4.33-.07c.43.03.77.23.93.59.54,1.21,1.22,2.38,2.02,3.49.24.32.25.76.05,1.1l-2.23,3.72,1.76,1.76,3.72-2.23c.34-.21.78-.19,1.1.05,1.1.8,2.27,1.48,3.49,2.02.37.16.6.53.59.93l-.07,4.33,2.41.65,2.09-3.77c.19-.35.58-.55.98-.51,1.35.14,2.7.14,4.05,0,.4-.05.78.16.98.51l2.09,3.77,2.41-.65-.07-4.33c0-.55.43-1.01.98-1.02h.02c.54,0,.99.44,1,.98l.09,5.11c0,.46-.3.86-.74.98l-3.92,1.05c-.09.02-.17.03-.26.03Z"/>
  <path class="cls-1" d="m30,45c-7.72,0-14-6.28-14-14s6.28-14,14-14,14,6.28,14,14-6.28,14-14,14Zm0-26c-6.62,0-12,5.38-12,12s5.38,12,12,12,12-5.38,12-12-5.38-12-12-12Z"/>
  <path class="cls-1" d="m47,53c-.27,0-.52-.11-.71-.29l-10.04-10.04,1.41-1.41,9.72,9.72c1.34-.17,2.41-1.24,2.59-2.59l-9.72-9.72,1.41-1.41,10.04,10.04c.19.19.29.44.29.71,0,2.76-2.24,5-5,5Z"/>
</svg>