<?xml version="1.0" encoding="UTF-8"?>
<svg id="Layer_1" data-name="Layer 1" xmlns="http://www.w3.org/2000/svg" viewBox="0 0 60 60">
  <defs>
    <style>
      .cls-1 {
        fill: #37464c;
        stroke-width: 0px;
      }
    </style>
  </defs>
  <rect class="cls-1" x="3" y="18" width="54" height="2"/>
  <path class="cls-1" d="m53,16c-.55,0-1-.45-1-1s.45-1,1-1,1,.45,1,1-.45,1-1,1Zm0-1s0,0,0,0h.5s-.5,0-.5,0Z"/>
  <path class="cls-1" d="m49,16c-.55,0-1-.45-1-1s.45-1,1-1,1,.45,1,1-.45,1-1,1Zm0-1s0,0,0,0h.5s-.5,0-.5,0Z"/>
  <path class="cls-1" d="m45,16c-.55,0-1-.45-1-1s.45-1,1-1,1,.45,1,1-.45,1-1,1Zm0-1s0,0,0,0h.5s-.5,0-.5,0Z"/>
  <path class="cls-1" d="m54,50H6c-2.21,0-4-1.79-4-4V14c0-2.21,1.79-4,4-4h48c2.21,0,4,1.79,4,4v32c0,2.21-1.79,4-4,4ZM6,12c-1.1,0-2,.9-2,2v32c0,1.1.9,2,2,2h48c1.1,0,2-.9,2-2V14c0-1.1-.9-2-2-2H6Z"/>
  <path class="cls-1" d="m39.8,46c-.07,0-.13,0-.2-.02-.54-.11-.89-.64-.78-1.18.6-2.97-.31-6.03-2.45-8.17-3.51-3.51-9.22-3.51-12.73,0-2.14,2.14-3.06,5.19-2.45,8.17.11.54-.24,1.07-.78,1.18-.54.11-1.07-.24-1.18-.78-.74-3.63.38-7.36,3-9.98,4.29-4.29,11.27-4.29,15.56,0,2.61,2.61,3.74,6.34,3,9.98-.1.47-.51.8-.98.8Z"/>
  <path class="cls-1" d="m33.44,46c-.17,0-.34-.04-.5-.14-.48-.28-.64-.89-.36-1.37.28-.48.42-.98.42-1.5,0-1.65-1.35-3-3-3s-3,1.35-3,3c0,.52.14,1.02.42,1.5.28.48.12,1.09-.36,1.37-.48.28-1.09.12-1.37-.36-.46-.79-.69-1.63-.69-2.5,0-2.76,2.24-5,5-5s5,2.24,5,5c0,.87-.23,1.71-.69,2.5-.19.32-.52.5-.87.5Z"/>
  <path class="cls-1" d="m48.4,46c-.45,0-.86-.3-.97-.76-.13-.54.19-1.08.73-1.21l.84-.21v-1.64l-3.16-.79c-.39-.1-.68-.42-.74-.81-.17-1.05-.44-2.07-.81-3.03-.14-.37-.05-.8.24-1.07l2.34-2.26-.82-1.42-3.12.89c-.38.11-.8-.02-1.05-.33-.33-.41-.69-.8-1.06-1.17s-.76-.72-1.17-1.06c-.31-.25-.44-.67-.33-1.05l.89-3.12-1.42-.82-2.26,2.34c-.28.29-.7.38-1.07.24-.97-.37-1.99-.64-3.03-.81-.4-.06-.72-.36-.81-.74l-.79-3.16h-1.64l-.79,3.16c-.1.39-.42.68-.81.74-1.05.17-2.07.44-3.03.81-.37.14-.8.05-1.07-.24l-2.26-2.34-1.42.82.89,3.12c.11.38-.02.8-.33,1.05-.41.33-.8.69-1.17,1.06-.37.37-.72.76-1.06,1.17-.25.31-.67.44-1.05.33l-3.12-.89-.82,1.42,2.34,2.26c.29.28.38.7.24,1.07-.37.97-.64,1.99-.81,3.03-.06.4-.36.72-.74.81l-3.16.79v1.64l.84.21c.54.13.86.68.73,1.21s-.68.86-1.21.73l-1.6-.4c-.44-.11-.76-.51-.76-.97v-3.2c0-.46.31-.86.76-.97l3.29-.82c.15-.73.34-1.45.57-2.15l-2.44-2.36c-.33-.32-.4-.82-.17-1.22l1.6-2.77c.23-.4.7-.59,1.14-.46l3.25.93c.25-.28.5-.55.77-.82.26-.26.53-.52.81-.76l-.93-3.25c-.13-.44.06-.91.46-1.14l2.77-1.6c.4-.23.9-.16,1.22.17l2.36,2.44c.7-.23,1.42-.43,2.15-.57l.82-3.29c.11-.44.51-.76.97-.76h3.2c.46,0,.86.31.97.76l.82,3.29c.73.15,1.45.34,2.15.57l2.36-2.44c.32-.33.82-.4,1.22-.17l2.77,1.6c.4.23.59.7.46,1.14l-.93,3.25c.28.25.55.5.82.77.26.26.52.53.76.81l3.25-.93c.44-.13.91.06,1.14.46l1.6,2.77c.23.4.16.9-.17,1.22l-2.44,2.36c.23.7.43,1.42.57,2.15l3.29.82c.44.11.76.51.76.97v3.2c0,.46-.31.86-.76.97l-1.6.4c-.08.02-.16.03-.24.03Z"/>
</svg>