<?xml version="1.0" encoding="UTF-8"?>
<svg id="Layer_1" data-name="Layer 1" xmlns="http://www.w3.org/2000/svg" viewBox="0 0 60 60">
  <defs>
    <style>
      .cls-1 {
        fill: #37464c;
        stroke-width: 0px;
      }
    </style>
  </defs>
  <path class="cls-1" d="m49.5,53.86c-1.2,0-2.33-.47-3.18-1.32l-13.99-13.99c-.76.21-1.54.31-2.33.31-4.96,0-9-4.04-9-9,0-.37.04-.73.08-1.08.03-.22.13-.43.29-.58l1.48-1.48c.38-.38,1.04-.38,1.41,0l4.03,4.03c.38.38,1.04.38,1.41,0l1.17-1.17c.19-.19.29-.44.29-.71s-.1-.52-.29-.71l-4.03-4.03c-.39-.39-.39-1.02,0-1.41l1.48-1.48c.16-.16.36-.26.59-.29.36-.04.71-.08,1.08-.08,4.96,0,9,4.04,9,9,0,.78-.1,1.56-.31,2.33l13.99,13.99c.85.85,1.32,1.98,1.32,3.18s-.47,2.33-1.32,3.18c-.85.85-1.98,1.32-3.18,1.32Zm-16.89-17.44c.26,0,.52.1.71.29l14.42,14.42c.94.94,2.59.94,3.54,0,.47-.47.73-1.1.73-1.77s-.26-1.3-.73-1.77h0l-14.42-14.42c-.27-.27-.36-.67-.24-1.03.26-.75.39-1.52.39-2.28,0-3.86-3.14-7-7-7-.17,0-.34.01-.5.03l-.53.53,3.32,3.32c1.17,1.17,1.17,3.07,0,4.24l-1.17,1.17c-1.17,1.17-3.07,1.17-4.24,0l-3.32-3.32-.53.53c-.02.17-.03.33-.03.5,0,3.86,3.14,7,7,7,.77,0,1.53-.13,2.28-.39.11-.04.22-.05.33-.05Z"/>
  <path class="cls-1" d="m32.76,55.86h-5.76c-.96,0-2-.73-2-2.33v-3.09c0-.13-.11-.21-.21-.23-1.92-.49-3.77-1.26-5.49-2.28-.09-.05-.23-.07-.32.02l-2.25,2.25c-.87.87-2.29.88-3.17,0l-3.9-3.9c-.79-.79-.96-2.21.23-3.4l2.03-2.03c.09-.09.07-.23.02-.31-1.02-1.72-1.79-3.57-2.28-5.49-.03-.1-.11-.21-.24-.21h-3.17c-1.24,0-2.24-1.01-2.24-2.24v-5.52c0-1.11.88-2.24,2.56-2.24h2.86c.13,0,.21-.11.23-.21.49-1.92,1.26-3.77,2.28-5.49.05-.09.07-.23-.02-.32l-2.25-2.25c-.87-.87-.87-2.29,0-3.17l3.9-3.9c.79-.79,2.21-.96,3.4.23l2.03,2.03c.09.09.23.07.31.02,1.72-1.02,3.57-1.79,5.49-2.28.1-.03.21-.11.21-.24v-3.17c0-1.24,1.01-2.24,2.24-2.24h5.52c1.11,0,2.24.88,2.24,2.56v2.86c0,.13.11.21.21.23,1.92.49,3.77,1.26,5.49,2.28.09.06.23.07.32-.02l2.25-2.25c.87-.87,2.29-.87,3.17,0l3.9,3.9c.79.79.96,2.21-.23,3.4l-2.03,2.03c-.09.09-.07.23-.02.31,1.02,1.72,1.79,3.57,2.28,5.49.03.1.11.21.24.21h3.17c1.24,0,2.24,1.01,2.24,2.24v5.52c0,1.11-.88,2.24-2.56,2.24h-2.86c-.13,0-.21.11-.23.21-.25.99-.59,2-1.02,2.99-.22.51-.8.75-1.31.53-.51-.22-.75-.8-.53-1.31.38-.9.69-1.8.92-2.7.26-1.01,1.15-1.71,2.17-1.71h2.86s.56,0,.56-.24v-5.52c0-.13-.11-.24-.24-.24h-3.17c-1.02,0-1.92-.7-2.17-1.71-.44-1.74-1.14-3.41-2.06-4.96-.53-.9-.4-2.03.32-2.75l2.03-2.03s.39-.4.23-.57l-3.9-3.9c-.09-.09-.25-.09-.34,0l-2.25,2.25c-.72.73-1.86.86-2.75.33-1.56-.92-3.23-1.62-4.96-2.06-1.01-.26-1.71-1.15-1.71-2.17v-2.86s0-.56-.24-.56h-5.52c-.13,0-.24.11-.24.24v3.17c0,1.02-.7,1.92-1.71,2.17-1.74.44-3.41,1.14-4.96,2.06-.9.53-2.03.4-2.75-.32l-2.02-2.02s-.4-.4-.57-.23l-3.9,3.9c-.09.09-.09.25,0,.34l2.25,2.25c.72.73.86,1.86.33,2.75-.92,1.56-1.62,3.23-2.06,4.96-.26,1.01-1.15,1.71-2.17,1.71h-2.86s-.56,0-.56.24v5.52c0,.13.11.24.24.24h3.17c1.02,0,1.92.7,2.17,1.71.44,1.74,1.14,3.41,2.06,4.97.53.9.4,2.03-.32,2.75l-2.02,2.02s-.39.4-.23.57l3.9,3.9c.12.11.22.12.34,0l2.25-2.25c.72-.72,1.85-.86,2.75-.33,1.56.92,3.23,1.62,4.96,2.06,1.01.26,1.71,1.15,1.71,2.17v3.09c0,.27.07.36.07.36l5.69-.04c.13,0,.24-.11.24-.24v-3.17c0-1.02.7-1.92,1.71-2.17.9-.23,1.81-.54,2.7-.92.51-.22,1.09.02,1.31.53.22.51-.02,1.1-.53,1.31-.99.42-1.99.76-2.99,1.02-.1.03-.21.11-.21.24v3.17c0,1.24-1.01,2.24-2.24,2.24Z"/>
  <path class="cls-1" d="m30,44.86c-8.27,0-15-6.73-15-15,0-.55.45-1,1-1s1,.45,1,1c0,7.17,5.83,13,13,13,.55,0,1,.45,1,1s-.45,1-1,1Z"/>
  <path class="cls-1" d="m44,30.86c-.55,0-1-.45-1-1,0-7.17-5.83-13-13-13-.55,0-1-.45-1-1s.45-1,1-1c8.27,0,15,6.73,15,15,0,.55-.45,1-1,1Z"/>
  <g>
    <path class="cls-1" d="m16,30.86c-.26,0-.52-.1-.71-.29-.09-.09-.16-.2-.21-.32-.05-.13-.08-.26-.08-.39,0-.26.11-.52.29-.7.23-.24.58-.34.9-.28.07.02.13.03.19.06.06.02.12.06.17.09.06.04.11.08.16.13.18.18.29.44.29.7,0,.13-.03.26-.08.39-.05.12-.12.23-.21.32-.05.05-.1.09-.16.12-.05.04-.11.07-.17.1-.06.02-.12.04-.19.05-.06.02-.13.02-.19.02Z"/>
    <path class="cls-1" d="m15,29.86h0c0-.55.45-1,1-1h0c.55,0,1,.45,1,1h0c0,.55-.45,1-1,1h0c-.55,0-1-.45-1-1Z"/>
    <path class="cls-1" d="m16.22,27.2c-.45-.12-.75-.53-.75-.97h0c0-.09,0-.17.04-.25h0c.14-.54.69-.85,1.22-.71h0c.45.12.75.53.75.97h0c0,.09-.02.17-.04.26h0c-.12.44-.52.74-.97.74h0c-.08,0-.17,0-.25-.04Zm1.15-3.47c-.32-.19-.5-.53-.5-.87h0c0-.17.05-.34.14-.5h0c.28-.48.89-.64,1.36-.36h0c.33.18.5.52.5.86h0c0,.17-.04.34-.13.5h0c-.19.32-.52.5-.87.5h0c-.17,0-.34-.04-.5-.13Zm2.02-3.06c-.19-.19-.29-.45-.29-.71h0c0-.25.1-.51.29-.7h0c.39-.39,1.03-.39,1.42,0h0c.19.19.29.45.29.7h0c0,.26-.1.51-.29.71h0c-.2.2-.45.29-.71.29h0c-.26,0-.51-.09-.71-.29Zm2.74-2.43c-.09-.16-.13-.33-.13-.5h0c0-.34.17-.68.5-.87h0c.47-.28,1.09-.11,1.36.37h0c.09.15.14.32.14.49h0c0,.35-.18.69-.5.87h0c-.16.09-.33.14-.5.14h0c-.35,0-.68-.18-.87-.5Zm3.27-1.64c-.02-.09-.03-.17-.03-.25h0c0-.45.29-.86.74-.98h0c.53-.14,1.08.18,1.23.71h0c.02.08.03.17.03.25h0c0,.44-.29.85-.74.97h0c-.09.03-.17.04-.26.04h0c-.44,0-.85-.3-.97-.74Z"/>
    <path class="cls-1" d="m30,16.86c-.26,0-.52-.1-.71-.29-.18-.18-.29-.44-.29-.71,0-.13.03-.26.08-.38.05-.12.12-.23.21-.33.23-.23.58-.33.9-.27.07,0,.13.03.19.06.06.02.12.05.18.09.05.04.1.08.15.12.18.19.29.45.29.71s-.11.52-.29.71c-.05.05-.1.09-.15.12-.06.04-.12.07-.18.1-.06.02-.12.04-.19.05-.06.02-.13.02-.19.02Z"/>
  </g>
</svg>