<?xml version="1.0" encoding="UTF-8"?>
<svg id="Layer_1" data-name="Layer 1" xmlns="http://www.w3.org/2000/svg" viewBox="0 0 60 60">
  <defs>
    <style>
      .cls-1 {
        fill: #37464c;
        stroke-width: 0px;
      }
    </style>
  </defs>
  <path class="cls-1" d="m15.62,47.98c-3.29-6.59.68-10.65,3.88-13.92,2.08-2.13,4.05-4.13,4.01-6.52l2-.03c.04,3.21-2.31,5.62-4.58,7.94-3.18,3.25-6.18,6.31-3.52,11.62l-1.79.89Z"/>
  <path class="cls-1" d="m22.52,17.53c-.26,0-.51-.1-.71-.29-.39-.39-.39-1.02,0-1.41l1-1c.39-.39,1.02-.39,1.41,0s.39,1.02,0,1.41l-1,1c-.2.2-.45.29-.71.29Z"/>
  <path class="cls-1" d="m41.52,41.53c-2.76,0-5-2.24-5-5s2.24-5,5-5,5,2.24,5,5-2.24,5-5,5Zm0-8c-1.65,0-3,1.35-3,3s1.35,3,3,3,3-1.35,3-3-1.35-3-3-3Z"/>
  <path class="cls-1" d="m43.02,48.53h-3c-.83,0-1.5-.67-1.5-1.5v-.97c-.56-.18-1.1-.4-1.62-.67l-.68.68c-.58.58-1.54.58-2.12,0l-2.12-2.12c-.58-.58-.58-1.54,0-2.12l.68-.68c-.27-.52-.5-1.06-.67-1.62h-.97c-.83,0-1.5-.67-1.5-1.5v-3c0-.83.67-1.5,1.5-1.5h.97c.18-.56.4-1.1.67-1.62l-.68-.68c-.58-.58-.58-1.54,0-2.12l2.12-2.12c.58-.58,1.54-.58,2.12,0l.68.68c.52-.27,1.06-.5,1.62-.67v-.97c0-.83.67-1.5,1.5-1.5h3c.83,0,1.5.67,1.5,1.5v.97c.56.18,1.1.4,1.62.67l.68-.68c.58-.58,1.54-.58,2.12,0l2.12,2.12c.58.58.58,1.54,0,2.12l-.68.68c.27.52.5,1.06.67,1.62h.97c.83,0,1.5.67,1.5,1.5v3c0,.83-.67,1.5-1.5,1.5h-.97c-.17.56-.4,1.1-.67,1.62l.68.68c.58.58.58,1.54,0,2.12l-2.12,2.12c-.58.58-1.54.58-2.12,0l-.68-.68c-.52.27-1.06.5-1.62.67v.97c0,.83-.67,1.5-1.5,1.5Zm-2.5-2h2v-.85c0-.67.46-1.26,1.11-1.44.64-.18,1.27-.44,1.85-.77.59-.33,1.33-.24,1.8.24l.6.6,1.41-1.41-.6-.6c-.47-.48-.57-1.22-.23-1.8.33-.58.59-1.21.77-1.85.18-.65.77-1.11,1.44-1.11h.85v-2h-.85c-.67,0-1.26-.46-1.44-1.11-.18-.65-.43-1.27-.77-1.85-.34-.59-.24-1.33.23-1.8l.6-.6-1.41-1.41-.6.6c-.47.48-1.22.57-1.8.23-.58-.33-1.21-.59-1.85-.77-.65-.18-1.11-.77-1.11-1.44v-.85h-2v.85c0,.67-.46,1.26-1.11,1.44-.65.18-1.27.44-1.85.77-.59.34-1.33.24-1.8-.24l-.6-.6-1.41,1.41.6.6c.47.48.57,1.22.23,1.8-.33.58-.59,1.21-.77,1.85-.18.65-.77,1.11-1.44,1.11h-.85v2h.85c.67,0,1.26.46,1.44,1.11.18.65.43,1.27.77,1.85.34.59.24,1.33-.23,1.8l-.6.6,1.41,1.41.6-.6c.47-.47,1.21-.57,1.8-.23.58.33,1.21.59,1.85.77.65.18,1.11.77,1.11,1.44v.85Zm-3.95-18.68s0,0,0,0c0,0,0,0,0,0Zm9.91,0s0,0,0,0c0,0,0,0,0,0Z"/>
  <path class="cls-1" d="m14.43,32.87c-.21,0-.42-.07-.6-.2l-2.07-1.55c-1.21-.91-1.98-2.23-2.19-3.72-.21-1.5.19-2.98,1.1-4.18,5.73-7.5,8.83-11.65,9.75-12.88l-1.87-6.53c-.09-.3-.03-.63.16-.88.19-.25.49-.4.8-.4,3.7,0,5.66,1.33,6.42,2,10.14.18,18.08,7.07,19.37,16.87.07.55-.31,1.05-.86,1.12-.56.07-1.05-.31-1.12-.86-1.17-8.91-8.49-15.13-17.8-15.13-.31,0-.59-.14-.78-.38-.04-.05-1.08-1.24-3.87-1.55l1.62,5.65c.08.3.03.62-.16.87-.03.04-3.12,4.22-10.06,13.3-.59.77-.84,1.73-.71,2.69.13.96.63,1.81,1.41,2.4l1.52,1.14,5.79-3.55c.63-.38,1.35-.58,2.08-.58h2.16c1.65,0,3-1.35,3-3,0-.55.45-1,1-1s1,.45,1,1c0,2.76-2.24,5-5,5h-2.16c-.37,0-.73.1-1.04.29l-6.37,3.9c-.16.1-.34.15-.52.15Z"/>
  <path class="cls-1" d="m43.83,58.53H13.21c-.96,0-1.83-.44-2.41-1.21-.57-.77-.74-1.74-.47-2.65l1.59-5.29c.51-1.71,2.05-2.85,3.83-2.85h15.77c.55,0,1,.45,1,1s-.45,1-1,1h-15.77c-.89,0-1.66.57-1.92,1.43l-1.59,5.29c-.09.31-.04.63.16.88.19.26.48.4.8.4h30.62c.32,0,.61-.15.8-.4.19-.26.25-.58.16-.88l-.81-2.71h-25.46c-.55,0-1-.45-1-1s.45-1,1-1h26.2c.44,0,.83.29.96.71l1.03,3.43c.28.92.1,1.88-.47,2.65-.57.77-1.45,1.21-2.41,1.21Z"/>
</svg>