<?xml version="1.0" encoding="UTF-8"?>
<svg id="Layer_1" data-name="Layer 1" xmlns="http://www.w3.org/2000/svg" viewBox="0 0 60 60">
  <defs>
    <style>
      .cls-1 {
        fill: #2e2d2c;
        stroke-width: 0px;
      }
    </style>
  </defs>
  <path class="cls-1" d="m15.4,51.5c-.77,0-1.46-.57-1.6-1.32l-.76-3.58s-.04-.04-.06-.06l-2.34-1.35c-.06-.04-.12-.04-.14-.04l-3.46,1.13c-.71.24-1.54-.07-1.93-.73l-2.08-3.61c-.38-.67-.24-1.54.34-2.05l2.72-2.44v-.05s.02-.08.02-.08v-2.65c0-.08-.02-.13-.04-.15l-2.71-2.44c-.56-.49-.71-1.37-.33-2.04l2.08-3.6c.38-.66,1.22-.98,1.94-.73l3.48,1.13s.05,0,.08-.02l2.34-1.36c.07-.04.1-.08.11-.1l.76-3.57c.14-.74.83-1.3,1.6-1.3h4.15s0,0,0,0c.76,0,1.45.57,1.6,1.32l.76,3.58s.04.04.06.06l2.34,1.35c.06.04.12.04.14.04l3.47-1.13c.71-.24,1.54.07,1.93.73l2.08,3.6c.38.66.24,1.54-.33,2.04l-2.73,2.45s-.02.05-.02.08v2.7c0,.07.02.12.04.14l2.71,2.44c.56.49.71,1.37.33,2.04l-2.08,3.6c-.38.66-1.21.98-1.94.73l-3.48-1.13s-.06.01-.08.02l-2.34,1.36c-.06.04-.1.08-.11.1l-.76,3.57c-.14.74-.83,1.3-1.6,1.3h-4.15Zm3.79-1.72s0,.01,0,.02v-.02Zm-3.44-.01h0s0,0,0,0Zm-5.25-6.61c.43,0,.87.12,1.21.36l2.23,1.28c.47.22.94.81,1.06,1.41l.7,3.3h3.55s.71-3.31.71-3.31c.11-.58.58-1.18,1.14-1.44l2.22-1.29c.42-.3,1.17-.41,1.75-.21l3.21,1.04,1.78-3.08-2.52-2.26c-.45-.39-.73-1.09-.68-1.7v-2.57c-.05-.52.23-1.23.69-1.62l2.5-2.25-1.78-3.09-3.22,1.05c-.56.19-1.31.09-1.81-.26l-2.23-1.28c-.47-.22-.94-.81-1.06-1.41l-.7-3.29h-3.55s-.71,3.31-.71,3.31c-.12.59-.59,1.18-1.14,1.44l-2.22,1.29c-.43.3-1.18.41-1.75.21l-3.2-1.04-1.78,3.08,2.52,2.27c.45.39.73,1.1.68,1.7v2.57c.06.52-.23,1.22-.69,1.63l-2.5,2.25,1.78,3.09,3.22-1.05c.19-.06.39-.09.61-.09Zm17.62,1.4s0,0,0,0h0Zm-21.72-.17s0,0-.01,0h.01Zm22.13,0h.01s0,0-.01,0Zm1.73-2.98s0,0,.01,0h-.01Zm-25.58-.01h0s0,0,0,0Zm-.02-10.8h.01s0,0-.01,0Zm1.73-2.97s0,0,.01,0h-.01Zm22.15,0h-.01s0,0,.01,0Zm-9.01-5.11h0,0Zm-.36-.28s0,0,0,.01h0Zm-3.43-.02v.02s0-.01,0-.02Zm1.72,20.11c-.65,0-1.31-.1-1.92-.3-.79-.25-1.51-.65-2.15-1.19-.64-.54-1.16-1.19-1.54-1.93-.38-.73-.61-1.55-.68-2.37-.07-.82.02-1.67.27-2.45.25-.79.65-1.52,1.2-2.16.54-.64,1.19-1.16,1.93-1.54.73-.38,1.55-.61,2.37-.68.82-.07,1.67.02,2.45.27.78.25,1.57.79,1.66.85.28.2.68.53.92.77.07.08.74.77,1.12,1.5.38.73.61,1.55.68,2.37h0c.07.82-.03,1.67-.27,2.45-.25.79-.65,1.51-1.19,2.15-.54.64-1.19,1.16-1.93,1.54-.73.38-1.55.61-2.37.68-.18.02-.35.02-.53.02Zm0-10.64c-.12,0-.24,0-.36.02-.56.05-1.12.21-1.62.47-.5.26-.94.61-1.32,1.05-.37.44-.64.93-.82,1.47-.17.53-.23,1.11-.18,1.68.05.57.21,1.13.46,1.62.26.5.61.94,1.05,1.32.44.37.93.64,1.47.81.53.17,1.11.24,1.68.19.57-.05,1.13-.21,1.62-.47.5-.26.94-.61,1.32-1.05.37-.44.64-.94.82-1.47.17-.53.23-1.11.19-1.68-.05-.56-.21-1.12-.47-1.62-.2-.39-.63-.87-.77-1.02-.15-.15-.44-.4-.62-.52-.17-.12-.71-.45-1.13-.59-.42-.13-.87-.2-1.31-.2Z"/>
  <path class="cls-1" d="m47.85,34.19c-.44,0-.89-.18-1.19-.53l-2.26-2.72-2.27.06-2.22,2.64c-.5.57-1.34.71-1.97.35l-3.19-1.84c-.63-.36-.93-1.16-.7-1.85l1.23-3.32-1.19-1.93-3.4-.59c-.75-.15-1.29-.81-1.29-1.54v-3.69c0-.73.54-1.39,1.26-1.53l3.49-.59,1.08-1.99-1.18-3.24c-.25-.72.05-1.52.69-1.88l3.19-1.84c.64-.37,1.48-.23,1.96.33l2.26,2.72,2.27-.06,2.22-2.64c.5-.57,1.34-.71,1.97-.35l3.19,1.84c.64.37.93,1.17.7,1.86l-1.23,3.32,1.19,1.93,3.4.59c.75.15,1.29.81,1.29,1.54v3.69c0,.74-.54,1.39-1.26,1.53l-3.48.59-1.08,1.99,1.18,3.24c.25.72-.06,1.52-.69,1.88l-3.19,1.84c-.24.14-.5.2-.77.2Zm-11.77-3.59l2.55,1.47,1.99-2.41c.39-.45,1.04-.71,1.6-.66h2.2c.47-.05,1.13.21,1.5.64l2.01,2.43,2.55-1.47-1.09-2.93c-.19-.56-.09-1.26.23-1.72l1.1-1.91c.2-.44.76-.87,1.31-.98l3.11-.53v-2.95s-3.08-.52-3.08-.52c-.58-.11-1.14-.55-1.38-1.06l-1.1-1.9c-.28-.39-.38-1.09-.19-1.62l1.09-2.96-2.55-1.47-1.99,2.41c-.39.45-1.05.71-1.61.66h-2.2c-.47.05-1.13-.21-1.5-.64l-2.01-2.43-2.55,1.47,1.09,2.93c.19.56.09,1.26-.23,1.72l-1.09,1.9c-.2.43-.75.87-1.31.98l-3.11.53v2.95s3.08.52,3.08.52c.58.11,1.14.55,1.38,1.07l1.1,1.9c.28.39.38,1.09.19,1.62l-1.09,2.96Zm7.2-3.96c-.08,0-.17,0-.25,0-.73-.03-1.46-.22-2.12-.53-.66-.31-1.27-.75-1.75-1.29-.49-.54-.87-1.17-1.12-1.86-.25-.7-.36-1.43-.33-2.15.03-.72.21-1.45.52-2.11.31-.66.75-1.27,1.29-1.76.54-.49,1.16-.87,1.86-1.12.7-.25,1.43-.36,2.15-.33.72.03,1.45.21,2.11.52.66.31,1.27.76,1.76,1.29.49.54.86,1.29.9,1.38.13.27.28.7.36.99.02.1.23.92.19,1.64-.03.72-.21,1.45-.52,2.11h0c-.31.66-.76,1.27-1.29,1.76-.54.49-1.17.87-1.86,1.12-.61.22-1.25.34-1.9.34Zm0-9.17c-.41,0-.82.07-1.22.21-.45.16-.85.41-1.19.72-.34.31-.63.7-.83,1.13-.2.43-.32.9-.34,1.36-.02.47.05.93.21,1.38.16.45.4.85.72,1.19.31.34.7.63,1.12.83.43.2.9.32,1.36.34.46.02.93-.05,1.38-.21.45-.16.85-.4,1.2-.72.34-.31.63-.7.83-1.13h0c.2-.43.32-.89.34-1.36.02-.37-.09-.9-.13-1.05-.04-.17-.16-.48-.23-.63-.07-.15-.32-.62-.57-.89-.31-.34-.7-.63-1.13-.83-.42-.2-.89-.32-1.36-.34-.06,0-.11,0-.17,0Z"/>
</svg>