<?xml version="1.0" encoding="UTF-8"?>
<svg id="Layer_1" data-name="Layer 1" xmlns="http://www.w3.org/2000/svg" viewBox="0 0 60 60">
  <defs>
    <style>
      .cls-1 {
        fill: #37464c;
        stroke-width: 0px;
      }
    </style>
  </defs>
  <path class="cls-1" d="m30.32,15.46c-.55,0-1-.45-1-1v-4c0-.55.45-1,1-1s1,.45,1,1v4c0,.55-.45,1-1,1Z"/>
  <path class="cls-1" d="m7.32,39.46c-.55,0-1-.45-1-1v-7c0-.55.45-1,1-1h6c.55,0,1,.45,1,1s-.45,1-1,1h-5v6c0,.55-.45,1-1,1Z"/>
  <path class="cls-1" d="m41.32,19.46c-.26,0-.51-.1-.71-.29-.39-.39-.39-1.02,0-1.41l.71-.71v-6.59c0-.55.45-1,1-1s1,.45,1,1v7c0,.27-.11.52-.29.71l-1,1c-.2.2-.45.29-.71.29Z"/>
  <path class="cls-1" d="m31.88,45.46h-3c-.91,0-1.65-.74-1.65-1.65v-1.38c-.87-.24-1.71-.59-2.5-1.04l-.86.86c-.84.84-1.87.7-2.45.12l-2.03-2.03c-.64-.64-.64-1.69,0-2.33l.98-.98c-.45-.79-.8-1.63-1.04-2.5h-1.21c-1.03,0-1.81-.71-1.81-1.65v-2.87c0-.91.74-1.65,1.65-1.65h1.38c.24-.87.59-1.71,1.04-2.5l-.86-.86c-.84-.84-.7-1.87-.12-2.45l2.03-2.03c.62-.62,1.71-.62,2.33,0l.98.98c.79-.45,1.63-.8,2.5-1.04v-1.21c0-1.03.71-1.81,1.65-1.81h2.87c.91,0,1.65.74,1.65,1.65v1.38c.87.24,1.71.59,2.5,1.04l.86-.86c.35-.35.76-.55,1.19-.58.46-.04.93.13,1.26.46l2.03,2.03c.64.64.64,1.69,0,2.33l-.98.98c.45.79.79,1.63,1.04,2.5h1.21c1.19,0,1.81.83,1.81,1.65v2.87c0,.91-.74,1.65-1.65,1.65h-1.38c-.25.87-.59,1.71-1.04,2.5l.86.86c.73.73.78,1.78.12,2.45l-2.03,2.03c-.64.64-1.69.64-2.33,0l-.98-.98c-.79.45-1.63.8-2.5,1.04v1.33c0,1.11-.76,1.69-1.52,1.69Zm-2.64-2h2.16v-1.3c0-.75.52-1.4,1.25-1.59.86-.22,1.69-.56,2.46-1.02.66-.39,1.49-.29,2.02.24l.92.92,1.53-1.53-.92-.92c-.53-.53-.63-1.36-.24-2.01.46-.77.8-1.6,1.02-2.46.19-.74.84-1.25,1.6-1.25h1.3v-2.16h-1.3c-.75,0-1.4-.52-1.59-1.25-.22-.86-.56-1.69-1.02-2.46-.39-.65-.29-1.48.24-2.01l.92-.92-1.53-1.53-.92.92c-.53.53-1.36.63-2.01.24-.77-.46-1.6-.8-2.46-1.02-.74-.19-1.25-.84-1.25-1.6v-1.3h-2.16v1.3c0,.75-.52,1.4-1.26,1.59-.86.22-1.68.56-2.45,1.02-.65.39-1.48.29-2.02-.24l-.92-.92-1.53,1.53.92.92c.53.53.63,1.36.24,2.01-.46.77-.8,1.6-1.02,2.46-.19.74-.84,1.25-1.6,1.25h-1.3v2.16h1.3c.75,0,1.4.52,1.59,1.25.22.86.56,1.68,1.02,2.45.39.66.29,1.48-.24,2.02l-.92.92,1.53,1.53.92-.92c.53-.53,1.36-.63,2.01-.24.77.46,1.59.8,2.45,1.02.74.19,1.25.85,1.25,1.6v1.3Zm-4.73-2.19s0,0,0,0c0,0,0,0,0,0Zm.42-19.55h0s0,0,0,0Z"/>
  <path class="cls-1" d="m30.32,37.46c-3.31,0-6-2.69-6-6s2.69-6,6-6,6,2.69,6,6-2.69,6-6,6Zm0-10c-2.21,0-4,1.79-4,4s1.79,4,4,4,4-1.79,4-4-1.79-4-4-4Z"/>
  <path class="cls-1" d="m32.32,11.46h-4c-.55,0-1-.45-1-1v-4c0-.55.45-1,1-1h4c.55,0,1,.45,1,1v4c0,.55-.45,1-1,1Zm-3-2h2v-2h-2v2Z"/>
  <path class="cls-1" d="m44.32,11.46h-4c-.55,0-1-.45-1-1v-4c0-.55.45-1,1-1h4c.55,0,1,.45,1,1v4c0,.55-.45,1-1,1Zm-3-2h2v-2h-2v2Z"/>
  <path class="cls-1" d="m19.32,19.46c-.26,0-.51-.1-.71-.29l-1-1c-.19-.19-.29-.44-.29-.71v-7c0-.55.45-1,1-1s1,.45,1,1v6.59l.71.71c.39.39.39,1.02,0,1.41-.2.2-.45.29-.71.29Z"/>
  <path class="cls-1" d="m20.32,11.46h-4c-.55,0-1-.45-1-1v-4c0-.55.45-1,1-1h4c.55,0,1,.45,1,1v4c0,.55-.45,1-1,1Zm-3-2h2v-2h-2v2Z"/>
  <path class="cls-1" d="m30.32,53.46c-.55,0-1-.45-1-1v-4c0-.55.45-1,1-1s1,.45,1,1v4c0,.55-.45,1-1,1Z"/>
  <path class="cls-1" d="m42.32,53.46c-.55,0-1-.45-1-1v-6.59l-.71-.71c-.39-.39-.39-1.02,0-1.41s1.02-.39,1.41,0l1,1c.19.19.29.44.29.71v7c0,.55-.45,1-1,1Z"/>
  <path class="cls-1" d="m32.32,57.46h-4c-.55,0-1-.45-1-1v-4c0-.55.45-1,1-1h4c.55,0,1,.45,1,1v4c0,.55-.45,1-1,1Zm-3-2h2v-2h-2v2Z"/>
  <path class="cls-1" d="m44.32,57.46h-4c-.55,0-1-.45-1-1v-4c0-.55.45-1,1-1h4c.55,0,1,.45,1,1v4c0,.55-.45,1-1,1Zm-3-2h2v-2h-2v2Z"/>
  <path class="cls-1" d="m18.32,53.46c-.55,0-1-.45-1-1v-7c0-.27.11-.52.29-.71l1-1c.39-.39,1.02-.39,1.41,0s.39,1.02,0,1.41l-.71.71v6.59c0,.55-.45,1-1,1Z"/>
  <path class="cls-1" d="m20.32,57.46h-4c-.55,0-1-.45-1-1v-4c0-.55.45-1,1-1h4c.55,0,1,.45,1,1v4c0,.55-.45,1-1,1Zm-3-2h2v-2h-2v2Z"/>
  <path class="cls-1" d="m9.32,43.46h-4c-.55,0-1-.45-1-1v-4c0-.55.45-1,1-1h4c.55,0,1,.45,1,1v4c0,.55-.45,1-1,1Zm-3-2h2v-2h-2v2Z"/>
  <path class="cls-1" d="m53.32,32.46h-6c-.55,0-1-.45-1-1s.45-1,1-1h5v-6c0-.55.45-1,1-1s1,.45,1,1v7c0,.55-.45,1-1,1Z"/>
  <path class="cls-1" d="m55.32,25.46h-4c-.55,0-1-.45-1-1v-4c0-.55.45-1,1-1h4c.55,0,1,.45,1,1v4c0,.55-.45,1-1,1Zm-3-2h2v-2h-2v2Z"/>
  <path class="cls-1" d="m13.32,22.46H5.32c-.55,0-1-.45-1-1s.45-1,1-1h8c.55,0,1,.45,1,1s-.45,1-1,1Z"/>
  <path class="cls-1" d="m13.32,18.46H5.32c-.55,0-1-.45-1-1s.45-1,1-1h8c.55,0,1,.45,1,1s-.45,1-1,1Z"/>
  <path class="cls-1" d="m9.32,26.46h-4c-.55,0-1-.45-1-1s.45-1,1-1h4c.55,0,1,.45,1,1s-.45,1-1,1Z"/>
  <path class="cls-1" d="m51.32,46.46h-4c-.55,0-1-.45-1-1s.45-1,1-1h4c.55,0,1,.45,1,1s-.45,1-1,1Z"/>
  <path class="cls-1" d="m55.32,38.46h-8c-.55,0-1-.45-1-1s.45-1,1-1h8c.55,0,1,.45,1,1s-.45,1-1,1Z"/>
  <path class="cls-1" d="m55.32,42.46h-8c-.55,0-1-.45-1-1s.45-1,1-1h8c.55,0,1,.45,1,1s-.45,1-1,1Z"/>
</svg>