<?xml version="1.0" encoding="UTF-8"?>
<svg id="Layer_1" data-name="Layer 1" xmlns="http://www.w3.org/2000/svg" viewBox="0 0 60 60">
  <defs>
    <style>
      .cls-1 {
        fill: #37464c;
        stroke-width: 0px;
      }
    </style>
  </defs>
  <g>
    <g>
      <path class="cls-1" d="m43.42,33.81c-.19,0-.37-.09-.49-.25-.41-.56-9.98-13.9-10.1-19.31-.12-5.61,4.34-10.27,9.94-10.39,2.71-.06,5.29.94,7.25,2.82,1.96,1.88,3.08,4.41,3.14,7.12h0c.12,5.41-8.86,19.15-9.24,19.73-.11.17-.29.27-.49.27,0,0,0,0-.01,0Zm-.42-28.75c-.07,0-.14,0-.2,0-4.94.11-8.88,4.22-8.77,9.17.1,4.36,7.36,15.04,9.37,17.91,1.88-2.96,8.66-13.94,8.56-18.31h0c-.05-2.4-1.04-4.63-2.77-6.28-1.68-1.61-3.87-2.49-6.19-2.49Z"/>
      <path class="cls-1" d="m43.44,34.18h-.02c-.31,0-.61-.15-.79-.41-.41-.57-10.05-13.96-10.17-19.52-.13-5.81,4.5-10.65,10.31-10.78,2.85-.07,5.49.98,7.52,2.92,2.04,1.95,3.19,4.57,3.25,7.39.12,5.53-8.92,19.36-9.3,19.95-.18.27-.47.43-.79.44h0Zm-.43-29.95c-.08,0-.15,0-.23,0-5.4.12-9.69,4.61-9.57,10.01.12,5.33,9.93,18.96,10.03,19.09.04.06.11.09.18.09h.01c.07,0,.13-.04.17-.1.38-.58,9.3-14.22,9.18-19.52-.06-2.62-1.13-5.05-3.02-6.86-1.84-1.76-4.23-2.72-6.76-2.72Zm.4,28.58l-.32-.46c-2.19-3.13-9.33-13.68-9.43-18.12-.11-5.15,3.98-9.44,9.13-9.55h.21c2.41,0,4.71.92,6.45,2.59,1.8,1.73,2.83,4.05,2.88,6.55.1,4.44-6.58,15.29-8.62,18.52l-.3.47Zm-.41-27.38h-.2c-4.74.11-8.5,4.05-8.4,8.79.07,3.27,4.62,10.96,8.98,17.24,4.07-6.46,8.28-14.34,8.21-17.62-.05-2.29-.99-4.43-2.65-6.02-1.61-1.54-3.71-2.38-5.93-2.38Z"/>
    </g>
    <g>
      <path class="cls-1" d="m43,20.36c-1.64,0-3.18-.62-4.37-1.76-1.22-1.17-1.91-2.74-1.95-4.43-.08-3.49,2.7-6.39,6.18-6.47,1.7-.04,3.29.59,4.51,1.75,1.22,1.17,1.91,2.74,1.95,4.43.04,1.69-.59,3.29-1.75,4.51-1.17,1.22-2.74,1.91-4.43,1.95-.05,0-.1,0-.14,0Zm0-11.45s-.08,0-.12,0c-2.82.06-5.07,2.41-5.01,5.24.03,1.37.59,2.64,1.58,3.59.99.95,2.29,1.46,3.66,1.42,1.37-.03,2.64-.59,3.59-1.58.95-.99,1.45-2.29,1.42-3.66-.03-1.37-.59-2.64-1.58-3.59-.96-.92-2.21-1.42-3.54-1.42Z"/>
      <path class="cls-1" d="m43,20.73c-1.73,0-3.38-.66-4.63-1.86-1.29-1.24-2.03-2.91-2.07-4.69-.08-3.69,2.86-6.77,6.55-6.85,1.77-.04,3.49.62,4.78,1.86,1.29,1.24,2.03,2.9,2.07,4.69.04,1.79-.62,3.49-1.86,4.78-1.24,1.29-2.9,2.03-4.69,2.07h-.15Zm0-12.65s-.09,0-.13,0c-3.28.07-5.89,2.8-5.82,6.08.04,1.59.69,3.07,1.84,4.17,1.11,1.06,2.57,1.65,4.11,1.65h.14c1.59-.04,3.07-.69,4.17-1.84,1.1-1.15,1.68-2.66,1.65-4.25-.04-1.59-.69-3.07-1.83-4.17-1.12-1.07-2.57-1.65-4.11-1.65Zm-.02,11.45c-1.41,0-2.75-.54-3.78-1.53-1.06-1.02-1.66-2.38-1.7-3.85-.07-3.03,2.34-5.56,5.38-5.62h.12c1.42,0,2.77.54,3.8,1.52,1.06,1.02,1.66,2.38,1.7,3.85.03,1.47-.51,2.86-1.52,3.93-1.01,1.06-2.38,1.66-3.85,1.7-.05,0-.09,0-.14,0Zm.02-10.25h-.11c-2.62.06-4.7,2.24-4.64,4.86.03,1.27.55,2.45,1.47,3.33.92.88,2.13,1.35,3.39,1.32,1.27-.03,2.45-.55,3.33-1.47.88-.92,1.34-2.12,1.32-3.39-.03-1.27-.55-2.45-1.47-3.33-.89-.85-2.05-1.32-3.28-1.32Z"/>
    </g>
  </g>
  <g>
    <g>
      <path class="cls-1" d="m30.34,57c-6.05,0-11.76-2.29-16.15-6.49-4.51-4.32-7.07-10.14-7.21-16.38-.29-12.89,9.97-23.61,22.85-23.9,1.31-.03,2.62.05,3.9.24.33.05.56.35.51.68-.05.33-.35.55-.68.51-1.22-.18-2.46-.25-3.7-.23-12.22.27-21.95,10.44-21.68,22.67.13,5.93,2.56,11.44,6.84,15.54,4.28,4.1,9.9,6.28,15.82,6.15,12.23-.27,21.95-10.44,21.68-22.67-.08-3.79-1.14-7.51-3.05-10.76-.17-.29-.07-.65.21-.82.29-.17.65-.07.82.21,2.02,3.42,3.13,7.34,3.22,11.34.29,12.89-9.97,23.61-22.85,23.9-.18,0-.35,0-.53,0Z"/>
      <path class="cls-1" d="m30.34,57.38c-6.14,0-11.96-2.34-16.41-6.59-4.58-4.39-7.19-10.3-7.33-16.64-.29-13.1,10.13-23.99,23.22-24.28,1.32-.03,2.66.05,3.97.24.26.04.49.17.64.38.16.21.22.47.18.72-.08.53-.57.9-1.1.82-1.2-.17-2.42-.25-3.64-.22-12.02.27-21.58,10.27-21.31,22.29.13,5.82,2.52,11.25,6.73,15.28,4.21,4.03,9.71,6.19,15.55,6.04,12.02-.27,21.58-10.27,21.31-22.29-.08-3.73-1.12-7.38-3-10.57-.13-.22-.17-.49-.1-.74.07-.25.23-.46.45-.59.22-.13.48-.17.74-.1.25.07.46.22.6.45,2.05,3.48,3.18,7.46,3.27,11.52.29,13.1-10.13,23.99-23.22,24.28-.18,0-.36,0-.54,0Zm.03-46.77c-.17,0-.35,0-.52,0-12.68.28-22.77,10.83-22.49,23.52.14,6.14,2.66,11.87,7.09,16.12,4.3,4.12,9.94,6.38,15.89,6.38.17,0,.35,0,.52,0,12.68-.28,22.77-10.83,22.49-23.52-.09-3.93-1.18-7.79-3.16-11.15-.03-.05-.08-.09-.14-.1-.06-.02-.12,0-.17.02-.05.03-.09.08-.11.14-.01.06,0,.12.02.17,1.94,3.3,3.02,7.08,3.1,10.94.28,12.44-9.62,22.78-22.05,23.06-6.02.15-11.74-2.09-16.09-6.25-4.35-4.17-6.82-9.78-6.96-15.8-.28-12.44,9.62-22.78,22.05-23.06,1.26-.03,2.53.05,3.77.23.06,0,.12,0,.17-.04.05-.04.08-.09.09-.15,0-.06,0-.12-.04-.17-.04-.05-.09-.08-.15-.09-1.1-.16-2.21-.24-3.32-.24Z"/>
    </g>
    <g>
      <path class="cls-1" d="m30.85,56.58c-.08,0-.16-.01-.23-.05-8.91-3.73-14.58-12.39-14.81-22.59-.22-10.04,5.1-19.24,13.55-23.45.3-.15.66-.03.8.27.15.3.03.66-.27.8-8.04,4-13.1,12.77-12.89,22.35.22,9.73,5.61,17.97,14.07,21.51.31.13.45.48.32.78-.1.23-.32.37-.55.37Z"/>
      <path class="cls-1" d="m30.85,56.95c-.13,0-.25-.03-.37-.08-9.05-3.79-14.81-12.58-15.04-22.93-.23-10.18,5.17-19.52,13.76-23.79.23-.12.5-.13.74-.05.25.08.45.26.56.49.24.48.04,1.07-.44,1.31-7.91,3.93-12.89,12.57-12.68,22,.21,9.58,5.52,17.69,13.84,21.18.24.1.43.29.53.53.1.24.1.51,0,.75-.15.36-.5.6-.9.6Zm-1.22-46.15s-.07,0-.1.02c-8.33,4.14-13.56,13.21-13.34,23.1.22,10.06,5.81,18.59,14.58,22.26l.09.02c.09,0,.17-.05.21-.14.02-.06.02-.12,0-.17-.02-.05-.06-.1-.12-.12-8.61-3.6-14.09-11.98-14.3-21.85-.21-9.72,4.92-18.63,13.09-22.69.11-.06.16-.19.1-.3-.03-.05-.07-.09-.13-.11-.02,0-.05-.01-.07-.01Z"/>
    </g>
    <g>
      <path class="cls-1" d="m30.85,56.58c-.22,0-.44-.13-.54-.34-.14-.3-.02-.66.28-.8,8.39-4.04,13.48-12.52,13.26-22.12-.01-.53-.04-1.08-.09-1.61-.03-.33.22-.62.55-.65.33-.03.62.22.65.55.05.56.08,1.13.09,1.69.22,10.08-5.12,18.98-13.94,23.23-.08.04-.17.06-.26.06Z"/>
      <path class="cls-1" d="m30.85,56.95c-.37,0-.72-.22-.88-.55-.23-.49-.03-1.07.46-1.3,8.26-3.98,13.26-12.32,13.05-21.78-.01-.53-.04-1.06-.09-1.59-.02-.26.06-.51.23-.71.17-.2.4-.32.66-.34.53-.05,1.01.35,1.05.89.05.57.08,1.14.09,1.71.23,10.23-5.2,19.27-14.15,23.58-.13.06-.28.1-.42.1Zm13.51-25.52s-.01,0-.02,0c-.12,0-.21.12-.2.24.05.54.08,1.09.09,1.64.21,9.75-4.95,18.36-13.48,22.47-.11.05-.16.19-.11.3.05.11.18.16.3.1,8.69-4.18,13.95-12.95,13.73-22.88-.01-.55-.04-1.11-.09-1.66,0-.12-.11-.21-.22-.21Z"/>
    </g>
    <g>
      <path class="cls-1" d="m33.1,13.32c-.11,0-.22-.03-.33-.1-1.01-.65-2.08-1.23-3.16-1.71-.3-.13-.44-.49-.31-.79.13-.3.49-.44.79-.31,1.15.51,2.27,1.11,3.33,1.8.28.18.36.55.18.83-.11.18-.31.27-.5.27Z"/>
      <path class="cls-1" d="m33.1,13.69c-.19,0-.37-.05-.53-.16-1-.64-2.04-1.21-3.11-1.68-.49-.22-.72-.79-.5-1.29.22-.49.79-.71,1.29-.5,1.16.51,2.3,1.13,3.38,1.83.45.29.58.9.29,1.35-.18.28-.49.45-.82.45Zm-3.25-2.96c-.09,0-.17.05-.21.13-.05.11,0,.25.12.3,1.1.49,2.19,1.07,3.22,1.74.16.11.25.02.31-.07.03-.05.04-.11.03-.17-.01-.06-.05-.11-.1-.14-1.05-.68-2.15-1.28-3.28-1.77-.03-.01-.06-.02-.09-.02Z"/>
    </g>
    <g>
      <path class="cls-1" d="m30.86,56.69c-.33,0-.59-.26-.6-.59l-.99-44.65c0-.33.26-.61.59-.61.32,0,.61.26.61.59l.99,44.65c0,.33-.26.61-.59.61,0,0,0,0-.01,0Z"/>
      <path class="cls-1" d="m30.87,57.07h-.02c-.53,0-.96-.42-.97-.95l-.99-44.65c0-.26.09-.51.27-.7.18-.19.42-.3.68-.3.5,0,.98.42,1,.95l.99,44.65c.01.54-.42.98-.95,1h0Zm-1.01-45.85h0c-.06,0-.12.03-.16.07-.04.04-.06.1-.06.16l.99,44.65c0,.12.1.22.22.22h.01c.12,0,.21-.11.21-.23l-.99-44.65c0-.12-.11-.22-.23-.22Z"/>
    </g>
    <g>
      <path class="cls-1" d="m13.21,48.82c-.21,0-.42-.11-.53-.31-.16-.29-.05-.66.24-.81,5.19-2.84,11.29-4.42,17.64-4.56,6.35-.14,12.52,1.16,17.83,3.77.3.15.42.51.27.8-.15.3-.51.42-.8.27-5.14-2.52-11.11-3.79-17.27-3.65-6.16.14-12.07,1.66-17.1,4.41-.09.05-.19.07-.29.07Z"/>
      <path class="cls-1" d="m13.21,49.19c-.36,0-.69-.19-.86-.51-.26-.47-.08-1.06.39-1.32,5.24-2.87,11.4-4.46,17.82-4.6,6.39-.14,12.64,1.18,18,3.81.48.24.68.82.45,1.31-.12.23-.31.41-.56.49-.25.08-.51.07-.75-.05-5.09-2.5-11-3.75-17.1-3.61-6.1.14-11.96,1.64-16.92,4.37-.14.08-.3.12-.47.12Zm18.29-5.7c-.31,0-.61,0-.92.01-6.29.14-12.34,1.7-17.47,4.51-.11.06-.15.2-.09.31.08.14.22.14.3.09,5.07-2.78,11.04-4.32,17.27-4.46,6.22-.14,12.25,1.13,17.45,3.69.05.03.12.03.17.01.06-.02.1-.06.13-.11.06-.11,0-.25-.1-.3-5-2.46-10.77-3.74-16.73-3.74Z"/>
    </g>
    <g>
      <path class="cls-1" d="m29.22,23.64c-5.89,0-11.46-1.27-16.57-3.77-.3-.15-.42-.51-.27-.8.15-.3.51-.42.8-.27,5.2,2.55,10.9,3.77,16.94,3.64,1.97-.04,3.93-.23,5.84-.56.33-.06.64.16.69.49.06.33-.16.64-.49.69-1.97.34-3.99.53-6.02.57-.31,0-.61.01-.92.01Z"/>
      <path class="cls-1" d="m29.22,24.01c-5.95,0-11.58-1.28-16.74-3.81-.23-.11-.41-.31-.49-.56-.08-.25-.07-.51.05-.74.24-.48.82-.68,1.3-.45,5.15,2.52,10.81,3.74,16.76,3.6,1.95-.04,3.9-.23,5.79-.55.54-.09,1.04.27,1.13.8.09.53-.27,1.03-.8,1.12-1.99.34-4.03.53-6.07.58-.31,0-.62.01-.92.01Zm-16.31-4.91c-.08,0-.16.05-.2.13-.03.05-.03.11-.01.17s.06.1.11.13c5.32,2.61,11.15,3.87,17.32,3.72,2.01-.04,4.01-.24,5.96-.57.12-.02.21-.14.18-.26-.02-.12-.14-.2-.26-.18-1.92.33-3.91.52-5.89.56-6.07.15-11.85-1.1-17.11-3.68-.03-.02-.07-.02-.1-.02Z"/>
    </g>
    <g>
      <path class="cls-1" d="m7.89,34.71c-.33,0-.59-.26-.6-.59,0-.33.26-.61.59-.61l44.93-1c.33,0,.61.26.61.59,0,.33-.26.61-.59.61l-44.93,1s0,0-.01,0Z"/>
      <path class="cls-1" d="m7.91,35.08h-.02c-.53,0-.96-.43-.97-.95,0-.26.09-.51.27-.7.18-.19.42-.29.68-.3l44.93-1c.26,0,.5.09.69.27s.3.42.3.69c0,.26-.09.51-.27.7-.18.19-.42.29-.68.3l-44.94,1Zm44.92-2.19h0l-44.94,1c-.06,0-.12.03-.16.07-.04.04-.06.1-.06.16,0,.12.1.22.22.22h.01l44.93-1c.06,0,.12-.03.16-.07.04-.04.06-.1.06-.16,0-.08-.04-.13-.07-.16-.02-.02-.08-.06-.15-.06Z"/>
    </g>
  </g>
</svg>