<?xml version="1.0" encoding="UTF-8"?>
<svg id="Layer_1" data-name="Layer 1" xmlns="http://www.w3.org/2000/svg" viewBox="0 0 60 60">
  <defs>
    <style>
      .cls-1 {
        fill: #37464c;
        stroke-width: 0px;
      }
    </style>
  </defs>
  <g>
    <path class="cls-1" d="m42.31,57.04h-21.17c-1.22,0-2.22-.99-2.22-2.22s1-2.22,2.22-2.22h21.17c1.22,0,2.22.99,2.22,2.22s-1,2.22-2.22,2.22Zm-21.17-3.23c-.56,0-1.02.46-1.02,1.02s.46,1.02,1.02,1.02h21.17c.56,0,1.02-.46,1.02-1.02s-.46-1.02-1.02-1.02h-21.17Z"/>
    <path class="cls-1" d="m42.31,57.42h-21.17c-1.43,0-2.59-1.16-2.59-2.59s1.16-2.59,2.59-2.59h21.17c1.43,0,2.59,1.16,2.59,2.59s-1.16,2.59-2.59,2.59Zm-21.17-4.43c-1.02,0-1.84.83-1.84,1.84s.83,1.84,1.84,1.84h21.17c1.02,0,1.84-.83,1.84-1.84s-.83-1.84-1.84-1.84h-21.17Zm21.17,3.23h-21.17c-.77,0-1.4-.62-1.4-1.39s.63-1.39,1.4-1.39h21.17c.77,0,1.4.62,1.4,1.39s-.63,1.39-1.4,1.39Zm-21.17-2.04c-.36,0-.65.29-.65.64s.29.64.65.64h21.17c.36,0,.65-.29.65-.64s-.29-.64-.65-.64h-21.17Z"/>
  </g>
  <g>
    <path class="cls-1" d="m42.85,51.23h-22.24c-.33,0-.6-.27-.6-.6s.27-.6.6-.6h22.24c.33,0,.6.27.6.6s-.27.6-.6.6Z"/>
    <path class="cls-1" d="m42.85,51.6h-22.24c-.54,0-.97-.44-.97-.97s.44-.97.97-.97h22.24c.54,0,.97.44.97.97s-.44.97-.97.97Zm-22.24-1.2c-.12,0-.22.1-.22.22s.1.22.22.22h22.24c.12,0,.22-.1.22-.22s-.1-.22-.22-.22h-22.24Z"/>
  </g>
  <g>
    <path class="cls-1" d="m33.53,51.23h-3.6c-.33,0-.6-.27-.6-.6v-7.45c0-.33.27-.6.6-.6s.6.27.6.6v6.85h2.4v-6.85c0-.33.27-.6.6-.6s.6.27.6.6v7.45c0,.33-.27.6-.6.6Z"/>
    <path class="cls-1" d="m33.53,51.6h-3.6c-.54,0-.97-.44-.97-.97v-7.45c0-.54.44-.97.97-.97s.97.44.97.97v6.48h1.65v-6.48c0-.54.44-.97.97-.97s.97.44.97.97v7.45c0,.54-.44.97-.97.97Zm-3.6-8.65c-.12,0-.22.1-.22.22v7.45c0,.12.1.22.22.22h3.6c.12,0,.22-.1.22-.22v-7.45c0-.25-.45-.25-.45,0v7.23h-3.15v-7.23c0-.12-.1-.22-.22-.22Z"/>
  </g>
  <g>
    <path class="cls-1" d="m31.73,43.65c-12.12,0-21.99-9.85-21.99-21.96,0-.33.27-.6.6-.6s.6.27.6.6c0,11.45,9.32,20.76,20.79,20.76,3.13,0,6.13-.68,8.93-2.01.3-.14.66-.02.8.28.14.3.02.66-.28.8-2.96,1.41-6.14,2.12-9.45,2.12Z"/>
    <path class="cls-1" d="m31.73,44.02c-12.33,0-22.36-10.02-22.36-22.33,0-.54.44-.97.97-.97s.97.44.97.97c0,11.24,9.16,20.38,20.41,20.38,3.07,0,6.02-.66,8.77-1.97.49-.23,1.07-.02,1.3.46.11.23.13.5.04.75-.09.25-.26.44-.5.55-3.01,1.43-6.24,2.16-9.61,2.16ZM10.34,21.47c-.12,0-.22.1-.22.22,0,11.9,9.69,21.58,21.61,21.58,3.25,0,6.38-.7,9.28-2.09.05-.03.1-.07.12-.13.02-.06.02-.12,0-.17-.05-.11-.19-.16-.3-.11-2.85,1.36-5.91,2.04-9.09,2.04-11.67,0-21.16-9.48-21.16-21.13,0-.12-.1-.22-.22-.22Z"/>
  </g>
  <g>
    <g>
      <path class="cls-1" d="m31.92,39.43c-4.55,0-9.1-1.73-12.56-5.19-3.36-3.35-5.2-7.81-5.2-12.55s1.85-9.2,5.2-12.55c6.93-6.92,18.2-6.92,25.13,0,3.36,3.35,5.2,7.81,5.2,12.55s-1.85,9.2-5.2,12.55c-3.46,3.46-8.01,5.19-12.56,5.19Zm0-34.28c-4.24,0-8.49,1.61-11.72,4.84-3.13,3.13-4.85,7.28-4.85,11.7s1.72,8.57,4.85,11.7c3.23,3.23,7.47,4.84,11.72,4.84,4.24,0,8.49-1.61,11.72-4.84,3.13-3.13,4.85-7.28,4.85-11.7s-1.72-8.57-4.85-11.7c-3.23-3.23-7.47-4.84-11.72-4.84Z"/>
      <path class="cls-1" d="m31.92,39.8c-4.85,0-9.41-1.88-12.83-5.3-3.43-3.42-5.31-7.97-5.31-12.81s1.89-9.39,5.31-12.81c7.07-7.07,18.58-7.06,25.66,0,3.43,3.42,5.31,7.97,5.31,12.81s-1.89,9.39-5.31,12.81c-3.42,3.42-7.98,5.3-12.83,5.3Zm0-35.47c-4.45,0-8.91,1.69-12.3,5.08-3.29,3.28-5.09,7.64-5.09,12.28s1.81,9,5.09,12.28c3.28,3.28,7.65,5.08,12.3,5.08s9.02-1.8,12.3-5.08c3.29-3.28,5.09-7.64,5.09-12.28s-1.81-9-5.09-12.28c-3.39-3.39-7.84-5.08-12.3-5.08Zm0,34.28c-4.53,0-8.79-1.76-11.98-4.95-3.2-3.2-4.96-7.45-4.96-11.97s1.76-8.77,4.96-11.96c3.2-3.19,7.45-4.95,11.98-4.95s8.79,1.76,11.98,4.95c3.2,3.2,4.96,7.45,4.96,11.96s-1.76,8.77-4.96,11.97c-3.2,3.19-7.45,4.95-11.98,4.95Zm0-33.08c-4.33,0-8.4,1.68-11.45,4.73-3.06,3.05-4.74,7.11-4.74,11.43s1.68,8.38,4.74,11.43c3.05,3.05,7.12,4.73,11.45,4.73s8.4-1.68,11.45-4.73c3.06-3.05,4.74-7.12,4.74-11.43s-1.68-8.38-4.74-11.43c-3.05-3.05-7.12-4.73-11.45-4.73Z"/>
    </g>
    <g>
      <path class="cls-1" d="m37.62,35.35c-4.9,0-9.75-2.01-13.55-5.81-5.39-5.38-7.3-13.22-4.87-19.95.11-.31.46-.47.77-.36.31.11.47.46.36.77-2.31,6.4-.56,13.57,4.58,18.7,5.14,5.14,12.31,6.8,18.71,4.34.31-.12.66.04.77.34.12.31-.04.66-.34.77-2.1.81-4.27,1.2-6.44,1.2Z"/>
      <path class="cls-1" d="m37.62,35.73c-5.09,0-9.99-2.1-13.82-5.92-5.49-5.49-7.44-13.47-4.95-20.35.09-.25.27-.44.5-.55s.5-.12.75-.03c.51.18.77.74.59,1.25-2.26,6.26-.54,13.28,4.5,18.31,5.04,5.03,12.05,6.66,18.31,4.26.24-.09.51-.09.75.02.24.11.42.3.51.54.19.5-.06,1.06-.56,1.26-2.11.81-4.33,1.22-6.57,1.22ZM19.76,9.57s-.06,0-.1.02c-.05.03-.09.07-.11.13-2.39,6.6-.51,14.28,4.78,19.56,3.68,3.68,8.4,5.7,13.29,5.7,2.16,0,4.28-.39,6.3-1.17.12-.04.17-.17.13-.29-.02-.06-.06-.1-.12-.12-.05-.03-.11-.03-.17,0-6.54,2.51-13.87.81-19.11-4.43-5.24-5.24-7.03-12.55-4.67-19.09.04-.12-.02-.25-.14-.29-.02,0-.05-.01-.08-.01Z"/>
    </g>
    <g>
      <path class="cls-1" d="m43.84,34.19c-.07,0-.14-.01-.21-.04-.31-.12-.47-.46-.35-.77,2.45-6.51.81-13.7-4.26-18.77-5.03-5.02-12.47-6.75-18.96-4.41-.31.11-.66-.05-.77-.36-.11-.31.05-.66.36-.77,6.92-2.5,14.86-.66,20.21,4.69,5.41,5.41,7.15,13.09,4.54,20.04-.09.24-.32.39-.56.39Z"/>
      <path class="cls-1" d="m43.84,34.57c-.12,0-.23-.02-.34-.06-.24-.09-.44-.27-.54-.51-.11-.24-.12-.5-.02-.75,2.39-6.37.79-13.41-4.18-18.38-4.93-4.92-12.21-6.62-18.56-4.32-.24.09-.51.08-.75-.03-.24-.11-.41-.31-.5-.55-.18-.5.08-1.06.58-1.25,7.06-2.55,15.15-.68,20.6,4.77,5.52,5.51,7.29,13.34,4.62,20.44-.14.38-.51.63-.91.63ZM25.98,8.8c4.85,0,9.68,1.94,13.3,5.55,5.18,5.18,6.85,12.52,4.35,19.17-.02.06-.02.12,0,.17.02.05.07.1.13.12l.08.02c.09,0,.18-.06.21-.15,2.56-6.82.86-14.34-4.45-19.65-5.25-5.25-13.03-7.05-19.82-4.6-.12.04-.18.17-.13.29.02.06.06.1.12.13.05.02.11.03.17,0,1.96-.71,4.01-1.05,6.05-1.05Z"/>
    </g>
    <g>
      <path class="cls-1" d="m43.9,34.25c-.15,0-.31-.06-.42-.18L19.68,10.32c-.23-.23-.23-.61,0-.85s.61-.23.85,0l23.79,23.76c.23.23.23.61,0,.85-.12.12-.27.18-.42.18Z"/>
      <path class="cls-1" d="m43.9,34.63c-.26,0-.51-.1-.69-.29L19.42,10.58c-.18-.19-.29-.43-.29-.69,0-.26.1-.5.29-.69.18-.18.43-.29.69-.29h0c.26,0,.5.1.69.28l23.79,23.76c.18.18.29.43.29.69s-.1.5-.29.69c-.18.18-.43.29-.69.29ZM20.11,9.67c-.06,0-.12.02-.16.07-.04.04-.07.1-.07.16,0,.06.02.12.07.16l23.79,23.76c.08.09.23.09.32,0,.04-.04.07-.1.07-.16s-.02-.12-.07-.16L20.27,9.73s-.1-.07-.16-.07Z"/>
    </g>
    <g>
      <path class="cls-1" d="m30.19,39.15c-.06,0-.12,0-.18-.03-.32-.1-.49-.44-.39-.75,1.35-4.27,3.87-8.32,7.27-11.72,3.4-3.4,7.46-5.91,11.74-7.26.31-.1.65.08.75.39.1.32-.08.65-.39.75-4.09,1.29-7.98,3.7-11.25,6.97-3.27,3.26-5.68,7.15-6.98,11.23-.08.26-.32.42-.57.42Z"/>
      <path class="cls-1" d="m30.19,39.53c-.1,0-.2-.02-.3-.05-.25-.08-.45-.25-.57-.48-.12-.23-.14-.5-.06-.74,1.37-4.33,3.92-8.43,7.37-11.87,3.45-3.44,7.56-5.99,11.89-7.35.51-.16,1.06.12,1.22.63.16.51-.12,1.06-.63,1.22-4.03,1.28-7.87,3.65-11.1,6.88-3.23,3.22-5.61,7.05-6.88,11.08-.13.41-.5.68-.93.68Zm18.62-19.79s-.04,0-.07.01c-4.22,1.33-8.22,3.81-11.58,7.17s-5.84,7.36-7.18,11.57c-.02.06-.01.12.01.17.03.05.07.09.13.11h.07c.1.01.18-.05.21-.15,1.31-4.14,3.76-8.08,7.07-11.39,3.31-3.31,7.25-5.75,11.4-7.06.12-.04.18-.16.15-.28-.03-.1-.12-.16-.21-.16Z"/>
    </g>
    <g>
      <path class="cls-1" d="m14.98,23.6c-.25,0-.49-.16-.57-.42-.1-.32.07-.65.39-.75,4.14-1.31,7.86-3.6,11.06-6.8,3.17-3.16,5.54-6.92,6.86-10.87.1-.31.44-.48.76-.38.31.1.48.44.38.76-1.38,4.12-3.85,8.05-7.15,11.34-3.34,3.33-7.22,5.72-11.55,7.09-.06.02-.12.03-.18.03Z"/>
      <path class="cls-1" d="m14.98,23.98c-.43,0-.8-.27-.93-.68-.16-.51.12-1.06.63-1.22,4.08-1.3,7.75-3.55,10.91-6.71,3.12-3.12,5.46-6.83,6.77-10.72.08-.25.26-.45.49-.56.23-.12.5-.13.74-.05.25.08.45.26.56.49.12.23.13.5.05.74-1.4,4.18-3.9,8.15-7.24,11.48-3.38,3.38-7.31,5.79-11.7,7.18-.09.03-.19.05-.29.05ZM33.29,4.73s-.07,0-.1.02c-.05.03-.09.07-.11.13-1.34,4-3.74,7.81-6.95,11.02-3.24,3.24-7.02,5.56-11.21,6.89-.12.04-.18.16-.15.28.04.12.17.18.28.15,4.27-1.36,8.1-3.71,11.4-7,3.25-3.25,5.69-7.12,7.06-11.19.02-.06.01-.12-.01-.17s-.07-.09-.13-.11c-.02,0-.05-.01-.07-.01Z"/>
    </g>
    <g>
      <path class="cls-1" d="m19.95,34.25c-.15,0-.31-.06-.42-.18-.23-.23-.23-.61,0-.85l23.96-23.92c.23-.23.61-.23.85,0,.23.23.23.61,0,.85l-23.96,23.92c-.12.12-.27.18-.42.18Z"/>
      <path class="cls-1" d="m19.95,34.63c-.26,0-.51-.1-.69-.29-.18-.18-.28-.43-.28-.69s.1-.51.29-.69l23.96-23.92c.38-.38,1-.38,1.38,0,.38.38.38,1,0,1.38l-23.96,23.92c-.18.18-.43.29-.69.29Zm23.96-25.12c-.06,0-.11.02-.16.07l-23.96,23.92s-.07.1-.07.16.02.12.06.16c.09.09.23.09.32,0l23.96-23.93c.09-.09.09-.23,0-.32-.04-.04-.1-.07-.16-.07Z"/>
    </g>
  </g>
</svg>