<?xml version="1.0" encoding="UTF-8"?>
<svg id="Layer_1" data-name="Layer 1" xmlns="http://www.w3.org/2000/svg" viewBox="0 0 60 60">
  <defs>
    <style>
      .cls-1 {
        fill: #37464c;
        stroke-width: 0px;
      }
    </style>
  </defs>
  <g>
    <path class="cls-1" d="m30.38,48.77c-2.25,0-4.07-1.83-4.07-4.07s1.83-4.07,4.07-4.07,4.07,1.83,4.07,4.07-1.83,4.07-4.07,4.07Zm0-6.35c-1.25,0-2.27,1.02-2.27,2.27s1.02,2.27,2.27,2.27,2.27-1.02,2.27-2.27-1.02-2.27-2.27-2.27Z"/>
    <path class="cls-1" d="m37.94,58.97h-1.8v-5.7c0-.92-.75-1.67-1.67-1.67h-8.17c-.92,0-1.67.75-1.67,1.67v5.7h-1.8v-5.7c0-1.92,1.56-3.47,3.47-3.47h8.17c1.92,0,3.47,1.56,3.47,3.47v5.7Z"/>
    <path class="cls-1" d="m27.21,58.76c-.5,0-.9-.4-.9-.9v-3.25c0-.5.4-.9.9-.9s.9.4.9.9v3.25c0,.5-.4.9-.9.9Z"/>
    <path class="cls-1" d="m33.71,58.76c-.5,0-.9-.4-.9-.9v-3.25c0-.5.4-.9.9-.9s.9.4.9.9v3.25c0,.5-.4.9-.9.9Z"/>
    <path class="cls-1" d="m37.04,58.97h-13.31c-.5,0-.9-.4-.9-.9s.4-.9.9-.9h13.31c.5,0,.9.4.9.9s-.4.9-.9.9Z"/>
  </g>
  <path class="cls-1" d="m22.14,52.1c-.13,0-.25-.03-.38-.08-4.16-1.91-7.61-5.2-9.73-9.27-.23-.44-.06-.98.38-1.21.44-.23.98-.06,1.21.38,1.93,3.71,5.08,6.72,8.88,8.46.45.21.65.74.44,1.19-.15.33-.48.52-.82.52Z"/>
  <path class="cls-1" d="m38.81,52.01c-.34,0-.66-.19-.81-.52-.21-.45-.02-.99.43-1.2,4.21-1.99,7.53-5.44,9.34-9.73.19-.46.72-.67,1.18-.48.46.19.67.72.48,1.18-1.98,4.69-5.62,8.48-10.23,10.66-.12.06-.25.09-.38.09Z"/>
  <path class="cls-1" d="m46.61,22.84c-.28,0-.56-.13-.74-.39-1.89-2.72-4.47-4.9-7.46-6.3-.45-.21-.64-.75-.43-1.2.21-.45.75-.64,1.2-.43,3.27,1.54,6.1,3.93,8.17,6.9.28.41.18.97-.22,1.25-.16.11-.34.16-.51.16Z"/>
  <path class="cls-1" d="m14.05,22.99c-.17,0-.35-.05-.51-.16-.41-.28-.52-.84-.24-1.25,2.08-3.05,4.95-5.49,8.28-7.06.45-.21.99-.02,1.2.43.21.45.02.99-.43,1.2-3.05,1.43-5.66,3.66-7.56,6.45-.17.25-.46.39-.74.39Z"/>
  <g>
    <path class="cls-1" d="m49.38,29.83c-2.25,0-4.07-1.83-4.07-4.07s1.83-4.07,4.07-4.07,4.07,1.83,4.07,4.07-1.83,4.07-4.07,4.07Zm0-6.35c-1.25,0-2.27,1.02-2.27,2.27s1.02,2.27,2.27,2.27,2.27-1.02,2.27-2.27-1.02-2.27-2.27-2.27Z"/>
    <path class="cls-1" d="m56.94,40.03h-1.8v-5.7c0-.92-.75-1.67-1.67-1.67h-8.17c-.92,0-1.67.75-1.67,1.67v5.7h-1.8v-5.7c0-1.92,1.56-3.47,3.47-3.47h8.17c1.92,0,3.47,1.56,3.47,3.47v5.7Z"/>
    <path class="cls-1" d="m46.21,39.82c-.5,0-.9-.4-.9-.9v-3.25c0-.5.4-.9.9-.9s.9.4.9.9v3.25c0,.5-.4.9-.9.9Z"/>
    <path class="cls-1" d="m52.71,39.82c-.5,0-.9-.4-.9-.9v-3.25c0-.5.4-.9.9-.9s.9.4.9.9v3.25c0,.5-.4.9-.9.9Z"/>
    <path class="cls-1" d="m56.04,40.03h-13.31c-.5,0-.9-.4-.9-.9s.4-.9.9-.9h13.31c.5,0,.9.4.9.9s-.4.9-.9.9Z"/>
  </g>
  <g>
    <path class="cls-1" d="m10.62,30.38c-2.25,0-4.07-1.83-4.07-4.07s1.83-4.07,4.07-4.07,4.07,1.83,4.07,4.07-1.83,4.07-4.07,4.07Zm0-6.35c-1.25,0-2.27,1.02-2.27,2.27s1.02,2.27,2.27,2.27,2.27-1.02,2.27-2.27-1.02-2.27-2.27-2.27Z"/>
    <path class="cls-1" d="m18.17,40.58h-1.8v-5.7c0-.92-.75-1.67-1.67-1.67H6.53c-.92,0-1.67.75-1.67,1.67v5.7h-1.8v-5.7c0-1.92,1.56-3.47,3.47-3.47h8.17c1.92,0,3.47,1.56,3.47,3.47v5.7Z"/>
    <path class="cls-1" d="m7.44,40.37c-.5,0-.9-.4-.9-.9v-3.25c0-.5.4-.9.9-.9s.9.4.9.9v3.25c0,.5-.4.9-.9.9Z"/>
    <path class="cls-1" d="m13.94,40.37c-.5,0-.9-.4-.9-.9v-3.25c0-.5.4-.9.9-.9s.9.4.9.9v3.25c0,.5-.4.9-.9.9Z"/>
    <path class="cls-1" d="m17.27,40.58H3.96c-.5,0-.9-.4-.9-.9s.4-.9.9-.9h13.31c.5,0,.9.4.9.9s-.4.9-.9.9Z"/>
  </g>
  <g>
    <path class="cls-1" d="m30.38,8.82c-2.25,0-4.07-1.83-4.07-4.07s1.83-4.07,4.07-4.07,4.07,1.83,4.07,4.07-1.83,4.07-4.07,4.07Zm0-6.35c-1.25,0-2.27,1.02-2.27,2.27s1.02,2.27,2.27,2.27,2.27-1.02,2.27-2.27-1.02-2.27-2.27-2.27Z"/>
    <path class="cls-1" d="m37.94,19.03h-1.8v-5.7c0-.92-.75-1.67-1.67-1.67h-8.17c-.92,0-1.67.75-1.67,1.67v5.7h-1.8v-5.7c0-1.92,1.56-3.47,3.47-3.47h8.17c1.92,0,3.47,1.56,3.47,3.47v5.7Z"/>
    <path class="cls-1" d="m27.21,18.81c-.5,0-.9-.4-.9-.9v-3.25c0-.5.4-.9.9-.9s.9.4.9.9v3.25c0,.5-.4.9-.9.9Z"/>
    <path class="cls-1" d="m33.71,18.81c-.5,0-.9-.4-.9-.9v-3.25c0-.5.4-.9.9-.9s.9.4.9.9v3.25c0,.5-.4.9-.9.9Z"/>
    <path class="cls-1" d="m37.04,19.03h-13.31c-.5,0-.9-.4-.9-.9s.4-.9.9-.9h13.31c.5,0,.9.4.9.9s-.4.9-.9.9Z"/>
  </g>
</svg>