<?xml version="1.0" encoding="UTF-8"?>
<svg id="Layer_1" data-name="Layer 1" xmlns="http://www.w3.org/2000/svg" viewBox="0 0 60 60">
  <defs>
    <style>
      .cls-1 {
        fill: #37464c;
        stroke-width: 0px;
      }
    </style>
  </defs>
  <g>
    <path class="cls-1" d="m51.42,42.12c-.91,0-1.77-.36-2.42-1.03l-7.63-7.81.72-.7,7.63,7.81c.46.47,1.06.72,1.7.72h0c.64,0,1.25-.26,1.7-.72.95-.97.95-2.55,0-3.52l-7.63-7.82.72-.7,7.62,7.82c1.33,1.35,1.33,3.56,0,4.92-.64.66-1.5,1.02-2.41,1.02h0Z"/>
    <path class="cls-1" d="m51.42,42.62c-1.05,0-2.04-.42-2.78-1.18l-7.62-7.81c-.39-.4-.38-1.03.02-1.41.4-.38,1.03-.38,1.41.02l7.63,7.81c.36.37.84.57,1.34.57h0c.51,0,.98-.2,1.34-.57.76-.78.76-2.05,0-2.82l-7.63-7.82c-.39-.4-.38-1.03.02-1.41.4-.38,1.03-.38,1.41.02l7.62,7.82c1.52,1.55,1.52,4.07,0,5.62-.74.76-1.72,1.17-2.77,1.18h0Z"/>
    <path class="cls-1" d="m33.43,36.05c-8.52,0-15.45-7.1-15.45-15.82s6.93-15.82,15.45-15.82,15.45,7.1,15.45,15.82-6.93,15.82-15.45,15.82Zm0-30.64c-7.97,0-14.45,6.65-14.45,14.82s6.48,14.82,14.45,14.82,14.45-6.65,14.45-14.82-6.48-14.82-14.45-14.82Z"/>
    <path class="cls-1" d="m33.43,36.55c-8.8,0-15.95-7.32-15.95-16.32S24.64,3.91,33.43,3.91s15.95,7.32,15.95,16.32-7.16,16.32-15.95,16.32Zm0-30.64c-7.69,0-13.95,6.42-13.95,14.32s6.26,14.32,13.95,14.32,13.95-6.42,13.95-14.32-6.26-14.32-13.95-14.32Z"/>
  </g>
  <g>
    <path class="cls-1" d="m12.53,45.64c-2.26,0-4.1-1.87-4.1-4.18s1.84-4.18,4.1-4.18,4.1,1.87,4.1,4.18-1.84,4.18-4.1,4.18Zm0-6.35c-1.16,0-2.1.98-2.1,2.18s.94,2.18,2.1,2.18,2.1-.98,2.1-2.18-.94-2.18-2.1-2.18Z"/>
    <path class="cls-1" d="m20.39,54.62h-2v-3.95c0-1.24-1.01-2.25-2.25-2.25h-7.23c-1.24,0-2.25,1.01-2.25,2.25v3.95h-2v-3.95c0-2.34,1.91-4.25,4.25-4.25h7.23c2.34,0,4.25,1.91,4.25,4.25v3.95Z"/>
    <path class="cls-1" d="m26.25,45.64c-2.26,0-4.1-1.87-4.1-4.18s1.84-4.18,4.1-4.18,4.1,1.87,4.1,4.18-1.84,4.18-4.1,4.18Zm0-6.35c-1.16,0-2.1.98-2.1,2.18s.94,2.18,2.1,2.18,2.1-.98,2.1-2.18-.94-2.18-2.1-2.18Z"/>
    <path class="cls-1" d="m34.12,54.62h-2v-3.95c0-1.24-1.01-2.25-2.25-2.25h-7.23c-1.24,0-2.25,1.01-2.25,2.25v3.95h-2v-3.95c0-2.34,1.91-4.25,4.25-4.25h7.23c2.34,0,4.25,1.91,4.25,4.25v3.95Z"/>
    <path class="cls-1" d="m39.98,45.64c-2.26,0-4.1-1.87-4.1-4.18s1.84-4.18,4.1-4.18,4.1,1.87,4.1,4.18-1.84,4.18-4.1,4.18Zm0-6.35c-1.16,0-2.1.98-2.1,2.18s.94,2.18,2.1,2.18,2.1-.98,2.1-2.18-.94-2.18-2.1-2.18Z"/>
    <path class="cls-1" d="m47.85,54.62h-2v-3.95c0-1.24-1.01-2.25-2.25-2.25h-7.23c-1.24,0-2.25,1.01-2.25,2.25v3.95h-2v-3.95c0-2.34,1.91-4.25,4.25-4.25h7.23c2.34,0,4.25,1.91,4.25,4.25v3.95Z"/>
  </g>
</svg>