<?xml version="1.0" encoding="UTF-8"?>
<svg id="Layer_1" data-name="Layer 1" xmlns="http://www.w3.org/2000/svg" viewBox="0 0 60 60">
  <defs>
    <style>
      .cls-1 {
        fill: #37464c;
        stroke-width: 0px;
      }
    </style>
  </defs>
  <g>
    <path class="cls-1" d="m27.09,31.9c-.36,0-.72-.13-1.01-.39-.54-.49-.65-1.26-.27-1.88l2.13-4.55-2.2.02c-.35,0-.61-.16-.78-.43s-.18-.61-.03-.89l3.38-6.39c.23-.44.78-.61,1.22-.37.44.23.61.78.37,1.22l-2.67,5.05,2.12-.02c.34.03.6.15.77.41.17.26.19.59.06.87l-2.25,4.8,8.27-6.79-2.32.02c-.34,0-.63-.17-.79-.46-.16-.29-.16-.64.02-.92l2.38-3.87c.26-.42.81-.56,1.24-.29.42.26.55.81.29,1.24l-1.53,2.48,3.25-.04c.39,0,.72.23.86.59.13.36.02.76-.27,1l-11.28,9.25c-.29.22-.62.33-.95.33Zm.31-1.43h0s0,0,0,0Z"/>
    <path class="cls-1" d="m42.98,18.7h-6.73c-.5,0-.9-.4-.9-.9s.4-.9.9-.9h6.73c1.71,0,3.11-1.37,3.11-3.05s-1.4-3.05-3.11-3.05c-.42,0-.83.08-1.22.24-.26.11-.56.09-.81-.06-.25-.15-.41-.4-.44-.68-.19-1.93-1.82-3.39-3.78-3.39-.92,0-1.79.33-2.51.95-.24.2-.56.27-.86.18-.3-.1-.53-.34-.6-.64-.5-2.03-2.33-3.44-4.45-3.44-2.53,0-4.58,2.02-4.58,4.5,0,.09,0,.17.01.26.02.33-.13.67-.4.85-.28.18-.62.22-.91.07-.58-.31-1.23-.47-1.89-.47-2.18,0-3.95,1.74-3.95,3.87s1.77,3.87,3.95,3.87h4.7c.5,0,.9.4.9.9s-.4.9-.9.9h-4.7c-3.17,0-5.75-2.54-5.75-5.67s2.58-5.67,5.75-5.67c.49,0,.99.06,1.46.19.45-3.04,3.11-5.39,6.32-5.39,2.52,0,4.75,1.44,5.78,3.63.81-.43,1.72-.67,2.64-.67,2.53,0,4.67,1.64,5.37,3.96.29-.05.58-.08.88-.08,2.71,0,4.91,2.18,4.91,4.85s-2.2,4.85-4.91,4.85Z"/>
    <path class="cls-1" d="m23.77,12.37c-.29,0-.57-.14-.74-.39-.72-1.04-1.09-2.26-1.09-3.53,0-.5.4-.9.9-.9s.9.4.9.9c0,.9.27,1.77.78,2.51.28.41.18.97-.23,1.25-.16.11-.33.16-.51.16Z"/>
    <path class="cls-1" d="m32.29,10.07c-.1,0-.2-.02-.29-.05-.47-.16-.72-.67-.56-1.14.77-2.24,2.9-3.75,5.29-3.75.5,0,.9.4.9.9s-.4.9-.9.9c-1.62,0-3.07,1.02-3.59,2.54-.13.37-.48.61-.85.61Z"/>
    <path class="cls-1" d="m22.48,14.83s-.06,0-.09,0c-.49-.05-.86-.49-.81-.98.24-2.37,2.22-4.16,4.62-4.16.5,0,.9.4.9.9s-.4.9-.9.9c-1.47,0-2.69,1.09-2.83,2.54-.05.46-.44.81-.89.81Z"/>
    <path class="cls-1" d="m39.3,13.17c-.12,0-.25-.03-.37-.08-.45-.2-.66-.73-.46-1.19.78-1.76,2.55-2.9,4.5-2.9.5,0,.9.4.9.9s-.4.9-.9.9c-1.24,0-2.36.72-2.85,1.83-.15.34-.48.53-.82.53Z"/>
  </g>
  <g>
    <path class="cls-1" d="m8.49,54.09c-.47,0-.86-.36-.9-.83l-.56-7.46c0-2.67,2.09-4.84,4.67-4.9h11.24c2.59.06,4.68,2.23,4.68,4.84,0,.01,0,.1,0,.23l-.1,1.33c-.04.5-.48.87-.97.83-.5-.04-.87-.47-.83-.97l.1-1.3v-.08c0-1.67-1.31-3.04-2.91-3.08h-11.2c-1.59.04-2.89,1.4-2.89,3.03l.55,7.39c.04.5-.33.93-.83.96-.02,0-.05,0-.07,0Z"/>
    <path class="cls-1" d="m17.33,39.79c-2.47,0-4.48-1.98-4.48-4.42s2.01-4.42,4.48-4.42,4.48,1.98,4.48,4.42-2.01,4.42-4.48,4.42Zm0-7.05c-1.48,0-2.68,1.18-2.68,2.62s1.2,2.62,2.68,2.62,2.68-1.18,2.68-2.62-1.2-2.62-2.68-2.62Z"/>
    <path class="cls-1" d="m12.24,54.66c-.47,0-.86-.36-.9-.83l-.5-6.59c-.04-.5.33-.93.83-.96.5-.04.93.33.96.83l.5,6.59c.04.5-.33.93-.83.96-.02,0-.05,0-.07,0Z"/>
    <path class="cls-1" d="m50.06,55.38s-.04,0-.07,0c-.5-.04-.87-.47-.83-.96l.65-8.75c0-1.57-1.31-2.93-2.92-2.97h-11.2c-1.58.04-2.88,1.4-2.88,3.04v.14l.1,1.26c.04.5-.33.93-.83.97-.49.04-.93-.33-.97-.83l-.1-1.28c0-.15,0-.24,0-.29,0-2.57,2.09-4.74,4.66-4.8h11.24c2.6.06,4.69,2.23,4.69,4.83l-.65,8.81c-.04.47-.43.83-.9.83Z"/>
    <path class="cls-1" d="m41.32,39.79c-2.47,0-4.48-1.98-4.48-4.42s2.01-4.42,4.48-4.42,4.48,1.98,4.48,4.42-2.01,4.42-4.48,4.42Zm0-7.05c-1.48,0-2.68,1.18-2.68,2.62s1.2,2.62,2.68,2.62,2.68-1.18,2.68-2.62-1.2-2.62-2.68-2.62Z"/>
    <path class="cls-1" d="m46.31,55.93s-.05,0-.07,0c-.5-.04-.87-.47-.83-.96l.59-7.86c.04-.5.46-.87.96-.83.5.04.87.47.83.96l-.59,7.86c-.04.47-.43.83-.9.83Z"/>
    <path class="cls-1" d="m29.33,45.66c-2.47,0-4.48-1.98-4.48-4.42s2.01-4.42,4.48-4.42,4.48,1.98,4.48,4.42-2.01,4.42-4.48,4.42Zm0-7.05c-1.48,0-2.68,1.18-2.68,2.62s1.2,2.62,2.68,2.62,2.68-1.18,2.68-2.62-1.2-2.62-2.68-2.62Z"/>
    <path class="cls-1" d="m20.21,56.44c-.47,0-.86-.36-.9-.83l-.28-3.75c0-.15,0-.24,0-.29,0-2.57,2.09-4.74,4.66-4.8h2.91c.5,0,.9.4.9.9s-.4.9-.9.9h-2.89c-1.58.04-2.88,1.4-2.88,3.04v.14s.28,3.73.28,3.73c.04.5-.33.93-.83.97-.02,0-.05,0-.07,0Z"/>
    <path class="cls-1" d="m38.39,56.95s-.04,0-.07,0c-.5-.04-.87-.47-.83-.96l.33-4.46c0-1.57-1.31-2.93-2.92-2.97h-2.86c-.5,0-.9-.4-.9-.9s.4-.9.9-.9h2.88c2.6.06,4.69,2.23,4.69,4.83l-.33,4.52c-.04.47-.43.83-.9.83Z"/>
    <path class="cls-1" d="m32.05,48.56h-5.45c-.5,0-.9-.4-.9-.9s.4-.9.9-.9h5.45c.5,0,.9.4.9.9s-.4.9-.9.9Z"/>
    <path class="cls-1" d="m24.2,59.37c-.47,0-.86-.36-.9-.83l-.46-6.16c-.04-.5.33-.93.83-.96.5-.04.93.33.96.83l.46,6.16c.04.5-.33.93-.83.96-.02,0-.05,0-.07,0Z"/>
    <path class="cls-1" d="m34.46,59.23s-.05,0-.07,0c-.5-.04-.87-.47-.83-.96l.45-6.02c.04-.5.47-.87.96-.83.5.04.87.47.83.96l-.45,6.02c-.04.47-.43.83-.9.83Z"/>
  </g>
</svg>