<?xml version="1.0" encoding="UTF-8"?>
<svg id="Layer_1" data-name="Layer 1" xmlns="http://www.w3.org/2000/svg" viewBox="0 0 60 60">
  <defs>
    <style>
      .cls-1 {
        fill: #37464c;
        stroke-width: 0px;
      }
    </style>
  </defs>
  <path class="cls-1" d="m24,40.5v-2c1.65,0,3-1.35,3-3v-12.77c0-1.08-.69-2.04-1.73-2.39-.42-.14-1.38-.47-2.01-.69l-4.56,4.56c-.39.39-1.02.39-1.41,0l-4.56-4.56c-.63.22-1.59.55-2.01.69-1.03.35-1.73,1.31-1.73,2.39v12.77c0,1.65,1.35,3,3,3v2c-2.76,0-5-2.24-5-5v-12.77c0-1.94,1.24-3.66,3.09-4.29.65-.22,2.58-.89,2.58-.89.36-.13.76-.03,1.03.24l4.29,4.29,4.29-4.29c.27-.27.67-.36,1.03-.24,0,0,1.94.67,2.58.89,1.85.62,3.09,2.35,3.09,4.29v12.77c0,2.76-2.24,5-5,5Z"/>
  <path class="cls-1" d="m50,40.5c-.55,0-1-.45-1-1s.45-1,1-1c1.65,0,3-1.35,3-3v-12.77c0-1.08-.69-2.04-1.73-2.39-.42-.14-1.38-.47-2.01-.69l-3.56,3.56c-.39.39-1.02.39-1.41,0s-.39-1.02,0-1.41l4-4c.27-.27.67-.36,1.03-.24,0,0,1.94.67,2.58.89,1.85.62,3.09,2.35,3.09,4.29v12.77c0,2.76-2.24,5-5,5Z"/>
  <path class="cls-1" d="m18,17.5c-3.31,0-6-2.69-6-6s2.69-6,6-6,6,2.69,6,6-2.69,6-6,6Zm0-10c-2.21,0-4,1.79-4,4s1.79,4,4,4,4-1.79,4-4-1.79-4-4-4Z"/>
  <path class="cls-1" d="m44,17.5c-3.31,0-6-2.69-6-6s2.69-6,6-6,6,2.69,6,6-2.69,6-6,6Zm0-10c-2.21,0-4,1.79-4,4s1.79,4,4,4,4-1.79,4-4-1.79-4-4-4Z"/>
  <path class="cls-1" d="m23,57.5h-10c-1.1,0-2-.9-2-2v-29c0-.55.45-1,1-1s1,.45,1,1v29h10v-29c0-.55.45-1,1-1s1,.45,1,1v29c0,1.1-.9,2-2,2Z"/>
  <path class="cls-1" d="m49,57.5h-9c-.55,0-1-.45-1-1s.45-1,1-1h9v-29c0-.55.45-1,1-1s1,.45,1,1v29c0,1.1-.9,2-2,2Z"/>
  <path class="cls-1" d="m18,57.5c-.55,0-1-.45-1-1v-18c0-.55.45-1,1-1s1,.45,1,1v18c0,.55-.45,1-1,1Z"/>
  <path class="cls-1" d="m44,57.5c-.55,0-1-.45-1-1v-18c0-.55.45-1,1-1s1,.45,1,1v18c0,.55-.45,1-1,1Z"/>
  <path class="cls-1" d="m31,17.5c-3.31,0-6-2.69-6-6s2.69-6,6-6,6,2.69,6,6-2.69,6-6,6Zm0-10c-2.21,0-4,1.79-4,4s1.79,4,4,4,4-1.79,4-4-1.79-4-4-4Z"/>
  <path class="cls-1" d="m30,57.5c-.55,0-1-.45-1-1v-14c0-.55.45-1,1-1s1,.45,1,1v14c0,.55-.45,1-1,1Z"/>
  <path class="cls-1" d="m39.03,37.92c-.44,0-.85-.29-.96-.74-.14-.53.17-1.08.71-1.22.77-.21,1.42-.7,1.82-1.4.4-.69.51-1.5.3-2.28l-2.83-10.56c-.33-1.23-1.41-2.12-2.66-2.21l-2.7,2.7c-.39.39-1.02.39-1.41,0s-.39-1.02,0-1.41l3-3c.19-.19.44-.29.71-.29h.17c2.26,0,4.25,1.52,4.83,3.71l2.83,10.56c.35,1.29.17,2.64-.5,3.79s-1.75,1.98-3.04,2.33c-.09.02-.17.03-.26.03Z"/>
  <path class="cls-1" d="m35,57.5h-7c-.55,0-1-.45-1-1s.45-1,1-1h7v-13c0-.55.45-1,1-1h3.23l-4.49-16.74c-.14-.53.17-1.08.71-1.22.53-.14,1.08.17,1.22.71l4.49,16.74c.16.61.04,1.24-.35,1.74-.38.5-.96.78-1.59.78h-2.23v12c0,1.1-.9,2-2,2Z"/>
</svg>