<?xml version="1.0" encoding="UTF-8"?>
<svg id="Layer_1" data-name="Layer 1" xmlns="http://www.w3.org/2000/svg" viewBox="0 0 60 60">
  <defs>
    <style>
      .cls-1 {
        fill: #37464c;
        stroke-width: 0px;
      }
    </style>
  </defs>
  <g>
    <path class="cls-1" d="m31.95,33.24c-.56,0-1.06-.31-1.31-.81l-2.43-4.79h-8.02c-1.5,0-2.73-1.22-2.73-2.73v-9.65c0-1.5,1.22-2.73,2.73-2.73h17.53c1.5,0,2.73,1.22,2.73,2.73v9.65c0,1.5-1.22,2.73-2.73,2.73h-2.46l-1.95,4.69c-.23.54-.73.89-1.31.91-.02,0-.04,0-.05,0Zm.29-1.62h0s0,0,0,0c0,0,0,0,0,0Zm-12.05-17.28c-.51,0-.93.42-.93.93v9.65c0,.51.42.93.93.93h8.57c.34,0,.65.19.8.49l2.36,4.66,1.91-4.6c.14-.34.47-.56.83-.56h3.06c.51,0,.93-.42.93-.93v-9.65c0-.51-.42-.93-.93-.93h-17.53Z"/>
    <path class="cls-1" d="m13.82,27.64c-.42,0-.83-.16-1.13-.47-.03-.03-.06-.06-.08-.1l-3.71-4.96h-3.12c-1.5,0-2.73-1.22-2.73-2.73v-9.65c0-1.5,1.22-2.73,2.73-2.73h17.54c1.5,0,2.73,1.22,2.73,2.73v3.32c0,.5-.4.9-.9.9s-.9-.4-.9-.9v-3.32c0-.51-.42-.93-.93-.93H5.77c-.51,0-.93.42-.93.93v9.65c0,.51.42.93.93.93h3.57c.28,0,.55.13.72.36l3.57,4.77v-4.23c0-.5.4-.9.9-.9h3.83c.5,0,.9.4.9.9s-.4.9-.9.9h-2.93v3.92c0,.65-.39,1.24-.99,1.48-.2.08-.41.12-.62.12Z"/>
    <path class="cls-1" d="m46.6,24.75c-.21,0-.41-.04-.61-.12-.6-.25-.99-.83-.99-1.49v-3.92h-5.45c-.5,0-.9-.4-.9-.9s.4-.9.9-.9h6.35c.5,0,.9.4.9.9v4.31l4.33-4.91c.17-.19.42-.3.67-.3h2.88c.51,0,.93-.42.93-.93V6.85c0-.51-.42-.93-.93-.93h-17.53c-.51,0-.93.42-.93.93v6.21c0,.5-.4.9-.9.9s-.9-.4-.9-.9v-6.21c0-1.5,1.22-2.73,2.73-2.73h17.53c1.5,0,2.73,1.22,2.73,2.73v9.65c0,1.5-1.22,2.73-2.73,2.73h-2.47l-4.42,5.02c-.34.34-.76.51-1.18.51Z"/>
  </g>
  <g>
    <path class="cls-1" d="m9.84,52.32c-.47,0-.86-.36-.9-.83l-.56-7.46c0-2.67,2.09-4.84,4.67-4.9h11.24c2.59.06,4.68,2.23,4.68,4.84,0,.01,0,.1,0,.23l-.1,1.33c-.04.5-.47.88-.97.83-.5-.04-.87-.47-.83-.97l.1-1.3v-.08c0-1.67-1.31-3.04-2.91-3.08h-11.2c-1.59.04-2.89,1.4-2.89,3.03l.55,7.39c.04.5-.33.93-.83.96-.02,0-.05,0-.07,0Z"/>
    <path class="cls-1" d="m18.68,38.03c-2.47,0-4.48-1.98-4.48-4.42s2.01-4.42,4.48-4.42,4.48,1.98,4.48,4.42-2.01,4.42-4.48,4.42Zm0-7.05c-1.48,0-2.68,1.18-2.68,2.62s1.2,2.62,2.68,2.62,2.68-1.18,2.68-2.62-1.2-2.62-2.68-2.62Z"/>
    <path class="cls-1" d="m13.59,52.9c-.47,0-.86-.36-.9-.83l-.5-6.59c-.04-.5.33-.93.83-.96.5-.04.93.33.96.83l.5,6.59c.04.5-.33.93-.83.96-.02,0-.05,0-.07,0Z"/>
    <path class="cls-1" d="m51.41,53.61s-.04,0-.07,0c-.5-.04-.87-.47-.83-.96l.65-8.75c0-1.57-1.31-2.93-2.92-2.97h-11.2c-1.58.04-2.88,1.4-2.88,3.04v.14l.1,1.26c.04.5-.33.93-.83.97-.49.04-.93-.33-.97-.83l-.1-1.28c0-.15,0-.24,0-.29,0-2.57,2.09-4.74,4.66-4.8h11.24c2.6.06,4.69,2.23,4.69,4.83l-.65,8.81c-.04.47-.43.83-.9.83Z"/>
    <path class="cls-1" d="m42.67,38.03c-2.47,0-4.48-1.98-4.48-4.42s2.01-4.42,4.48-4.42,4.48,1.98,4.48,4.42-2.01,4.42-4.48,4.42Zm0-7.05c-1.48,0-2.68,1.18-2.68,2.62s1.2,2.62,2.68,2.62,2.68-1.18,2.68-2.62-1.2-2.62-2.68-2.62Z"/>
    <path class="cls-1" d="m47.66,54.16s-.05,0-.07,0c-.5-.04-.87-.47-.83-.96l.59-7.86c.04-.5.47-.87.96-.83.5.04.87.47.83.96l-.59,7.86c-.04.47-.43.83-.9.83Z"/>
    <path class="cls-1" d="m30.68,43.9c-2.47,0-4.48-1.98-4.48-4.42s2.01-4.42,4.48-4.42,4.48,1.98,4.48,4.42-2.01,4.42-4.48,4.42Zm0-7.05c-1.48,0-2.68,1.18-2.68,2.62s1.2,2.62,2.68,2.62,2.68-1.18,2.68-2.62-1.2-2.62-2.68-2.62Z"/>
    <path class="cls-1" d="m21.56,54.67c-.47,0-.86-.36-.9-.83l-.28-3.75c0-.15,0-.24,0-.29,0-2.57,2.09-4.74,4.66-4.8h2.91c.5,0,.9.4.9.9s-.4.9-.9.9h-2.89c-1.58.04-2.88,1.4-2.88,3.04v.14s.28,3.73.28,3.73c.04.5-.33.93-.83.97-.02,0-.05,0-.07,0Z"/>
    <path class="cls-1" d="m39.74,55.19s-.04,0-.07,0c-.5-.04-.87-.47-.83-.96l.33-4.46c0-1.57-1.31-2.93-2.92-2.97h-2.86c-.5,0-.9-.4-.9-.9s.4-.9.9-.9h2.88c2.6.06,4.69,2.23,4.69,4.83l-.33,4.52c-.04.47-.43.83-.9.83Z"/>
    <path class="cls-1" d="m33.4,46.8h-5.45c-.5,0-.9-.4-.9-.9s.4-.9.9-.9h5.45c.5,0,.9.4.9.9s-.4.9-.9.9Z"/>
    <path class="cls-1" d="m25.55,57.61c-.47,0-.86-.36-.9-.83l-.46-6.16c-.04-.5.33-.93.83-.96.5-.05.93.33.96.83l.46,6.16c.04.5-.33.93-.83.96-.02,0-.05,0-.07,0Z"/>
    <path class="cls-1" d="m35.81,57.46s-.05,0-.07,0c-.5-.04-.87-.47-.83-.96l.45-6.02c.04-.5.47-.88.96-.83.5.04.87.47.83.96l-.45,6.02c-.04.47-.43.83-.9.83Z"/>
  </g>
</svg>