<?xml version="1.0" encoding="UTF-8"?>
<svg id="Layer_1" data-name="Layer 1" xmlns="http://www.w3.org/2000/svg" viewBox="0 0 60 60">
  <defs>
    <style>
      .cls-1 {
        fill: #37464c;
        stroke-width: 0px;
      }
    </style>
  </defs>
  <path class="cls-1" d="m29.35,18.6c-3.31,0-6-2.69-6-6s2.69-6,6-6,6,2.69,6,6-2.69,6-6,6Zm0-10c-2.21,0-4,1.79-4,4s1.79,4,4,4,4-1.79,4-4-1.79-4-4-4Z"/>
  <path class="cls-1" d="m29.35,58.6c-.55,0-1-.45-1-1v-14c0-.55.45-1,1-1s1,.45,1,1v14c0,.55-.45,1-1,1Z"/>
  <path class="cls-1" d="m38.65,38.99l-.52-1.93c1.6-.43,2.55-2.08,2.12-3.67l-2.83-10.56c-.33-1.23-1.41-2.12-2.66-2.21l-4.7,4.7c-.39.39-1.02.39-1.41,0l-4.7-4.7c-1.26.1-2.33.98-2.66,2.21l-2.83,10.56c-.43,1.6.52,3.25,2.12,3.67l-.52,1.93c-2.66-.71-4.25-3.46-3.54-6.12l2.83-10.56c.58-2.18,2.57-3.71,4.83-3.71h.17c.27,0,.52.11.71.29l4.29,4.29,4.29-4.29c.19-.19.44-.29.71-.29h.17c2.26,0,4.25,1.52,4.83,3.71l2.83,10.56c.71,2.66-.87,5.41-3.54,6.12Z"/>
  <path class="cls-1" d="m33.35,58.6h-8c-1.1,0-2-.9-2-2v-13c0-.55.45-1,1-1s1,.45,1,1v13h8v-13c0-.55.45-1,1-1s1,.45,1,1v13c0,1.1-.9,2-2,2Z"/>
  <path class="cls-1" d="m38.58,44.6h-18.45c-.63,0-1.21-.29-1.59-.78-.38-.5-.51-1.13-.35-1.73l4.49-16.74c.14-.53.69-.85,1.22-.71.53.14.85.69.71,1.22l-4.49,16.74h18.45l-4.49-16.74c-.14-.53.17-1.08.71-1.22.53-.15,1.08.17,1.22.71l4.49,16.74c.16.61.04,1.24-.35,1.74-.38.5-.96.78-1.59.78Z"/>
  <path class="cls-1" d="m50.35,39.6c-.55,0-1-.45-1-1s.45-1,1-1c1.65,0,3-1.35,3-3v-12c0-1.09-.69-2.05-1.72-2.39l-1.97-.5-3.6,3.6c-.39.39-1.02.39-1.41,0l-4-4c-.39-.39-.39-1.02,0-1.41s1.02-.39,1.41,0l3.29,3.29,3.29-3.29c.25-.25.61-.35.95-.26l2.59.66c1.92.63,3.16,2.35,3.16,4.31v12c0,2.76-2.24,5-5,5Z"/>
  <path class="cls-1" d="m45.35,17.6c-3.03,0-5.5-2.47-5.5-5.5s2.47-5.5,5.5-5.5,5.5,2.47,5.5,5.5-2.47,5.5-5.5,5.5Zm0-9c-1.93,0-3.5,1.57-3.5,3.5s1.57,3.5,3.5,3.5,3.5-1.57,3.5-3.5-1.57-3.5-3.5-3.5Z"/>
  <path class="cls-1" d="m49.35,54.6h-8c-1.1,0-2-.9-2-2v-5c0-.55.45-1,1-1s1,.45,1,1v5h8v-28c0-.55.45-1,1-1s1,.45,1,1v28c0,1.1-.9,2-2,2Z"/>
  <path class="cls-1" d="m45.35,54.6c-.55,0-1-.45-1-1v-17c0-.55.45-1,1-1s1,.45,1,1v17c0,.55-.45,1-1,1Z"/>
  <path class="cls-1" d="m8.35,39.6c-2.76,0-5-2.24-5-5v-12c0-1.95,1.24-3.68,3.09-4.29l2.66-.68c.34-.09.7.01.95.26l3.29,3.29,3.29-3.29c.39-.39,1.02-.39,1.41,0s.39,1.02,0,1.41l-4,4c-.39.39-1.02.39-1.41,0l-3.6-3.6-2.04.52c-.96.32-1.66,1.28-1.66,2.37v12c0,1.65,1.35,3,3,3,.55,0,1,.45,1,1s-.45,1-1,1Z"/>
  <path class="cls-1" d="m13.35,17.6c-3.03,0-5.5-2.47-5.5-5.5s2.47-5.5,5.5-5.5,5.5,2.47,5.5,5.5-2.47,5.5-5.5,5.5Zm0-9c-1.93,0-3.5,1.57-3.5,3.5s1.57,3.5,3.5,3.5,3.5-1.57,3.5-3.5-1.57-3.5-3.5-3.5Z"/>
  <path class="cls-1" d="m17.35,54.6h-8c-1.1,0-2-.9-2-2v-28c0-.55.45-1,1-1s1,.45,1,1v28h8v-5c0-.55.45-1,1-1s1,.45,1,1v5c0,1.1-.9,2-2,2Z"/>
  <path class="cls-1" d="m13.35,54.6c-.55,0-1-.45-1-1v-17c0-.55.45-1,1-1s1,.45,1,1v17c0,.55-.45,1-1,1Z"/>
</svg>