<?xml version="1.0" encoding="UTF-8"?>
<svg id="Layer_1" data-name="Layer 1" xmlns="http://www.w3.org/2000/svg" viewBox="0 0 60 60">
  <defs>
    <style>
      .cls-1 {
        fill: #37464c;
        stroke-width: 0px;
      }
    </style>
  </defs>
  <g>
    <path class="cls-1" d="m44.13,27.88l-.91-.41.21-.46c.99-2.17,1.49-4.48,1.49-6.88,0-9.15-7.45-16.6-16.6-16.6S11.72,10.98,11.72,20.13c0,2.28.45,4.49,1.35,6.57l.2.46-.92.4-.2-.46c-.95-2.2-1.43-4.55-1.43-6.96,0-9.7,7.89-17.6,17.6-17.6s17.6,7.89,17.6,17.6c0,2.54-.53,5-1.58,7.3l-.21.46Z"/>
    <path class="cls-1" d="m44.38,28.54l-1.82-.83.41-.91c.96-2.1,1.45-4.35,1.45-6.68,0-8.88-7.22-16.1-16.1-16.1S12.22,11.25,12.22,20.13c0,2.21.44,4.36,1.31,6.37l.4.92-1.84.79-.4-.92c-.98-2.26-1.47-4.67-1.47-7.16C10.22,10.15,18.34,2.03,28.32,2.03s18.1,8.12,18.1,18.1c0,2.62-.55,5.14-1.62,7.5l-.41.91Zm-.5-1.33h0c.13-.29.26-.59.38-.89-.12.3-.24.59-.38.89Zm-32.64-6.31s0,0,0,0c0,0,0,0,0,0Zm0-.01h0s0,0,0,0Zm0-.06s0,0,0,.01c0,0,0,0,0-.01Zm0-.12v.02-.02Zm0,0s0,0,0,0c0,0,0,0,0,0Zm0,0h0s0,0,0,0Zm0-.03h0s0,0,0,0Zm0-.03s0,0,0,0c0,0,0,0,0,0Zm0-.07h0s0,0,0,0Zm0-.01s0,0,0,0c0,0,0,0,0,0Zm0,0h0s0,0,0,0Zm0-.06h0s0,0,0,0Zm0-.03h0s0,0,0,0Zm0-.12h0s0,0,0,0Zm0-.02h0s0,0,0,0Zm0-.03h0s0,0,0,0Zm0-.07h0s0,0,0,0Zm0-.1v.03-.03ZM28.32,3.03c9.43,0,17.1,7.67,17.1,17.1,0-9.43-7.67-17.1-17.1-17.1S11.22,10.7,11.22,20.13c0-9.43,7.67-17.1,17.1-17.1Z"/>
  </g>
  <g>
    <g>
      <path class="cls-1" d="m12.99,56.5h-1v-6.69h-2.7v-8.57c0-2.16,1.75-3.91,3.91-3.91h4.48v1h-4.48c-1.6,0-2.91,1.31-2.91,2.91v7.57h2.7v7.69Z"/>
      <path class="cls-1" d="m13.49,57h-2v-6.69h-2.7v-9.07c0-2.43,1.98-4.41,4.41-4.41h4.98v2h-4.98c-1.33,0-2.41,1.08-2.41,2.41v7.07h2.7v8.69Zm-3.7-7.69h2.7-2.7Z"/>
    </g>
    <g>
      <path class="cls-1" d="m44.65,56.5h-1v-7.69h2.7v-7.57c0-1.6-1.31-2.91-2.91-2.91h-4.48v-1h4.48c2.16,0,3.91,1.75,3.91,3.91v8.57h-2.7v6.69Z"/>
      <path class="cls-1" d="m45.15,57h-2v-8.69h2.7v-7.07c0-1.33-1.08-2.41-2.41-2.41h-4.98v-2h4.98c2.43,0,4.41,1.98,4.41,4.41v9.07h-2.7v6.69Zm-5.69-19.17h3.98c1.88,0,3.41,1.53,3.41,3.41,0-1.88-1.53-3.41-3.41-3.41h-3.98Z"/>
    </g>
    <g>
      <path class="cls-1" d="m34.21,58.26h-1v-8.85h3.39v-8.95c0-2-1.63-3.62-3.62-3.62h-9.32c-2,0-3.62,1.63-3.62,3.62v8.95h3.29v8.85h-1v-7.85h-3.29v-9.95c0-2.55,2.07-4.62,4.62-4.62h9.32c2.55,0,4.62,2.07,4.62,4.62v9.95h-3.39v7.85Z"/>
      <path class="cls-1" d="m34.71,58.76h-2v-9.85h3.39v-8.45c0-1.72-1.4-3.12-3.12-3.12h-9.32c-1.72,0-3.12,1.4-3.12,3.12v8.45h3.29v9.85h-2v-7.85h-3.29v-10.45c0-2.83,2.3-5.12,5.12-5.12h9.32c2.83,0,5.12,2.3,5.12,5.12v10.45h-3.39v7.85Zm-11.88-1v-7.85,7.85Zm-3.29-7.85v-9.45c0-2.27,1.85-4.12,4.12-4.12h9.32c2.27,0,4.12,1.85,4.12,4.12,0-2.27-1.85-4.12-4.12-4.12h-9.32c-2.27,0-4.12,1.85-4.12,4.12v9.45Z"/>
    </g>
    <g>
      <rect class="cls-1" x="27.87" y="51.76" width="1" height="6.5"/>
      <rect class="cls-1" x="27.37" y="51.26" width="2" height="7.5"/>
    </g>
    <g>
      <rect class="cls-1" x="27.82" y="41.65" width="1" height="2.91"/>
      <rect class="cls-1" x="27.32" y="41.15" width="2" height="3.91"/>
    </g>
    <g>
      <path class="cls-1" d="m14.94,35.29c-1.44,0-2.61-1.17-2.61-2.61s1.17-2.61,2.61-2.61,2.61,1.17,2.61,2.61-1.17,2.61-2.61,2.61Zm0-4.23c-.89,0-1.61.72-1.61,1.61s.72,1.61,1.61,1.61,1.61-.72,1.61-1.61-.72-1.61-1.61-1.61Z"/>
      <path class="cls-1" d="m14.94,35.79c-1.72,0-3.11-1.4-3.11-3.11s1.4-3.11,3.11-3.11,3.11,1.4,3.11,3.11-1.4,3.11-3.11,3.11Zm-2.11-3.11c0,1.17.95,2.11,2.11,2.11s2.11-.95,2.11-2.11c0,1.17-.95,2.11-2.11,2.11s-2.11-.95-2.11-2.11Zm2.11-1.11c-.61,0-1.11.5-1.11,1.11s.5,1.11,1.11,1.11,1.11-.5,1.11-1.11-.5-1.11-1.11-1.11Z"/>
    </g>
    <g>
      <path class="cls-1" d="m41.7,35.29c-1.44,0-2.61-1.17-2.61-2.61s1.17-2.61,2.61-2.61,2.61,1.17,2.61,2.61-1.17,2.61-2.61,2.61Zm0-4.23c-.89,0-1.61.72-1.61,1.61s.72,1.61,1.61,1.61,1.61-.72,1.61-1.61-.72-1.61-1.61-1.61Z"/>
      <path class="cls-1" d="m41.7,35.79c-1.72,0-3.11-1.4-3.11-3.11s1.4-3.11,3.11-3.11,3.11,1.4,3.11,3.11-1.4,3.11-3.11,3.11Zm-2.11-3.11c0,1.17.95,2.11,2.11,2.11s2.11-.95,2.11-2.11c0,1.17-.95,2.11-2.11,2.11s-2.11-.95-2.11-2.11Zm2.11-1.11c-.61,0-1.11.5-1.11,1.11s.5,1.11,1.11,1.11,1.11-.5,1.11-1.11-.5-1.11-1.11-1.11Z"/>
    </g>
    <g>
      <path class="cls-1" d="m28.37,33.35c-1.83,0-3.32-1.49-3.32-3.32s1.49-3.32,3.32-3.32,3.32,1.49,3.32,3.32-1.49,3.32-3.32,3.32Zm0-5.64c-1.28,0-2.32,1.04-2.32,2.32s1.04,2.32,2.32,2.32,2.32-1.04,2.32-2.32-1.04-2.32-2.32-2.32Z"/>
      <path class="cls-1" d="m28.37,33.85c-2.1,0-3.82-1.71-3.82-3.82s1.71-3.82,3.82-3.82,3.82,1.71,3.82,3.82-1.71,3.82-3.82,3.82Zm-2.82-3.82c0,1.55,1.26,2.82,2.82,2.82s2.82-1.26,2.82-2.82c0,1.55-1.26,2.82-2.82,2.82s-2.82-1.26-2.82-2.82Zm2.82-1.82c-1,0-1.82.82-1.82,1.82s.82,1.82,1.82,1.82,1.82-.82,1.82-1.82-.82-1.82-1.82-1.82Z"/>
    </g>
  </g>
  <g>
    <path class="cls-1" d="m29.8,21.55h-2.96c-.51,0-.93-.42-.93-.93v-2.25h-2.24c-.52,0-.94-.42-.94-.94v-2.95c0-.52.42-.94.94-.94h2.24v-2.25c0-.51.41-.92.92-.92h2.98c.51,0,.92.41.92.92v2.25h2.25c.51,0,.93.42.93.93v2.96c0,.51-.42.93-.93.93h-2.25v2.25c0,.51-.42.93-.93.93Zm-3.4-4.18h.5v3.25l2.9-.07-.07-3.18h3.25l-.07-2.83h-3.18v-3.18h-2.83v3.18h-3.24l.06,2.89,2.68-.06Zm6.58-2.83h0,0Z"/>
    <path class="cls-1" d="m29.8,22.05h-2.96c-.79,0-1.43-.64-1.43-1.43v-1.75h-1.74c-.79,0-1.44-.64-1.44-1.44v-2.95c0-.79.64-1.44,1.44-1.44h1.74v-1.75c0-.79.64-1.42,1.42-1.42h2.98c.79,0,1.42.64,1.42,1.42v1.75h1.75c.79,0,1.43.64,1.43,1.43v2.96c0,.79-.64,1.43-1.43,1.43h-1.75v1.75c0,.79-.64,1.43-1.43,1.43Zm-3.4-5.18h1.01v3.24l1.88-.04-.07-3.19h3.25l-.04-1.83h-3.19v-3.18h-1.83v3.18h-3.23l.04,1.88,2.19-.05Zm3.84,1h2.74-2.74Zm-.01-3.83v-2.75,2.75Z"/>
  </g>
</svg>