<?xml version="1.0" encoding="UTF-8"?>
<svg id="Layer_1" data-name="Layer 1" xmlns="http://www.w3.org/2000/svg" viewBox="0 0 60 60">
  <defs>
    <style>
      .cls-1 {
        fill: #37464c;
        stroke-width: 0px;
      }
    </style>
  </defs>
  <path class="cls-1" d="m18.36,58c-.26,0-.51-.1-.71-.29-.39-.39-.39-1.02,0-1.41l2.29-2.29-11.59-11.59-2.29,2.29c-.39.39-1.02.39-1.41,0s-.39-1.02,0-1.41l3-3c.39-.39,1.02-.39,1.41,0l13,13c.39.39.39,1.02,0,1.41l-3,3c-.2.2-.45.29-.71.29Z"/>
  <path class="cls-1" d="m21.36,55c-.26,0-.51-.1-.71-.29-.39-.39-.39-1.02,0-1.41.83-.83,1.94-1.29,3.12-1.29h11.28c1.32,0,2.61-.37,3.72-1.07l14.61-9.18c.51-.32.85-.84.94-1.43.09-.6-.08-1.19-.49-1.66-.6-.69-1.68-.86-2.56-.41l-7.53,4.01c-.49.26-1.09.08-1.35-.41-.26-.49-.08-1.09.41-1.35l7.54-4.02c1.71-.88,3.81-.51,5,.87.78.91,1.13,2.1.95,3.27-.18,1.17-.86,2.2-1.86,2.82l-14.61,9.18c-1.44.9-3.09,1.38-4.79,1.38h-11.28c-.64,0-1.25.25-1.71.71-.2.19-.45.29-.71.29Z"/>
  <path class="cls-1" d="m40.19,46h-12.83c-.55,0-1-.45-1-1s.45-1,1-1h12.83c1.14,0,2.11-.85,2.17-1.89.03-.56-.16-1.08-.54-1.48-.38-.4-.9-.62-1.45-.62h-9.73c-.9,0-1.78-.25-2.57-.71-.81-.48-2.62-1.29-5.69-1.29-6.43,0-11.19,5.58-11.23,5.64-.36.42-.99.48-1.41.13-.42-.35-.48-.98-.13-1.41.22-.26,5.38-6.36,12.77-6.36,3.37,0,5.51.85,6.72,1.57.48.28,1.01.43,1.55.43h9.73c1.09,0,2.15.45,2.9,1.25.76.8,1.15,1.86,1.09,2.97-.11,2.12-1.94,3.79-4.17,3.79Z"/>
  <path class="cls-1" d="m41.17,34c-.48,0-.96-.12-1.4-.36l-4.89-2.72c-.33-.18-.72-.18-1.05,0l-4.89,2.72c-.97.54-2.13.48-3.04-.16-.91-.64-1.37-1.73-1.19-2.83l.98-6.07c.05-.34-.05-.68-.29-.93l-4.22-4.35c-.76-.78-1.01-1.9-.67-2.93s1.23-1.77,2.3-1.94l5.65-.87c.36-.05.66-.28.81-.61l2.48-5.3c.48-1.02,1.48-1.66,2.61-1.66s2.13.64,2.6,1.66l2.48,5.3c.15.33.46.56.81.61l5.66.87c1.07.16,1.95.91,2.3,1.93.34,1.03.09,2.15-.67,2.93l-4.23,4.35c-.24.24-.35.59-.29.93l.98,6.07c.18,1.1-.28,2.19-1.19,2.83-.5.35-1.07.52-1.65.52Zm-6.81-5.22c.51,0,1.03.13,1.5.39l4.89,2.72c.43.24.79.05.92-.05.11-.08.45-.36.37-.87l-.98-6.07c-.15-.96.16-1.95.83-2.64l4.23-4.35c.34-.35.26-.75.2-.9-.05-.15-.22-.52-.7-.59l-5.66-.87c-1.02-.16-1.89-.81-2.32-1.74l-2.48-5.3c-.22-.47-.66-.5-.79-.5s-.57.04-.79.5l-2.48,5.3c-.44.93-1.3,1.58-2.32,1.74l-5.65.87c-.48.07-.66.44-.71.6s-.14.55.21.9l4.22,4.35c.68.7.99,1.68.83,2.64l-.98,6.07c-.08.51.26.8.37.87.13.09.49.29.92.05l4.89-2.72h0c.47-.26.98-.39,1.5-.39Z"/>
</svg>