<?xml version="1.0" encoding="UTF-8"?>
<svg id="Layer_1" data-name="Layer 1" xmlns="http://www.w3.org/2000/svg" viewBox="0 0 60 60">
  <defs>
    <style>
      .cls-1 {
        fill: #37464c;
        stroke-width: 0px;
      }
    </style>
  </defs>
  <g>
    <path class="cls-1" d="m33.11,29.91c-.55,0-1-.45-1-1v-9.2h-5.18v9.2c0,.55-.45,1-1,1s-1-.45-1-1v-10.2c0-.55.45-1,1-1h7.18c.55,0,1,.45,1,1v10.2c0,.55-.45,1-1,1Z"/>
    <path class="cls-1" d="m40.29,29.91c-.55,0-1-.45-1-1v-15.37h-5.18v15.37c0,.55-.45,1-1,1s-1-.45-1-1V12.54c0-.55.45-1,1-1h7.18c.55,0,1,.45,1,1v16.37c0,.55-.45,1-1,1Z"/>
    <path class="cls-1" d="m47.46,29.91c-.55,0-1-.45-1-1V7.37h-5.18v21.54c0,.55-.45,1-1,1s-1-.45-1-1V6.37c0-.55.45-1,1-1h7.18c.55,0,1,.45,1,1v22.54c0,.55-.45,1-1,1Z"/>
  </g>
  <g>
    <path class="cls-1" d="m41.32,45.46h-21.63c-.55,0-1-.45-1-1s.45-1,1-1h21.22l15.63-15.09c-2.06-1.72-4.05-1.68-6.35.09-3.32,2.56-8.66,6.76-8.66,6.76l-1.24-1.57s5.35-4.21,8.68-6.77c3.4-2.61,6.67-2.35,9.73.79.19.19.29.45.28.71,0,.27-.11.52-.31.7l-16.68,16.1c-.19.18-.44.28-.69.28Z"/>
    <path class="cls-1" d="m41.01,38.04h-13.05c-.55,0-1-.45-1-1s.45-1,1-1h12c-.35-3.06-2.33-3.42-3.23-3.42h-6.2c-.2,0-.4-.06-.57-.18-2.74-1.88-4.35-2.22-7.51-2.22-3.78,0-6.75,1.93-10.61,6.89-.34.44-.97.51-1.4.17-.44-.34-.51-.97-.17-1.4,4.23-5.44,7.77-7.66,12.19-7.66,3.3,0,5.33.35,8.39,2.4h5.89c2.44,0,5.28,1.68,5.28,6.42,0,.55-.45,1-1,1Z"/>
    <path class="cls-1" d="m17.33,54.29c-.25,0-.5-.09-.7-.28-.4-.39-.4-1.02-.02-1.41l4.21-4.32-12.49-12.8-4.18,4.28c-.39.4-1.02.4-1.41.02-.4-.39-.4-1.02-.02-1.41l4.89-5.01c.38-.39,1.05-.39,1.43,0l13.89,14.23c.38.39.38,1.01,0,1.4l-4.89,5.01c-.2.2-.46.3-.72.3Z"/>
    <path class="cls-1" d="m14.79,49.66h0c-.48,0-.92-.19-1.26-.53-.69-.7-.69-1.85,0-2.55h0c.34-.34.78-.53,1.26-.53h0c.48,0,.92.19,1.26.53.69.7.69,1.85,0,2.55-.34.34-.78.53-1.26.53Zm-.55-2.39c-.31.32-.31.84,0,1.15.15.15.34.23.54.23h0c.21,0,.4-.08.55-.23.31-.32.31-.83,0-1.15-.29-.3-.8-.3-1.09,0h0Z"/>
  </g>
</svg>