<?xml version="1.0" encoding="UTF-8"?>
<svg id="Layer_1" data-name="Layer 1" xmlns="http://www.w3.org/2000/svg" viewBox="0 0 60 60">
  <defs>
    <style>
      .cls-1 {
        fill: #4d4d4d;
      }

      .cls-1, .cls-2 {
        stroke-width: 0px;
      }

      .cls-2 {
        fill: #37464c;
      }
    </style>
  </defs>
  <g>
    <path class="cls-1" d="m15.05,39.97H3.46c-.35,0-.64-.29-.64-.64v-20.31c0-.35.29-.64.64-.64h11.59c.35,0,.64.29.64.64v20.31c0,.35-.29.64-.64.64Zm-10.95-1.27h10.32v-19.04H4.1v19.04Z"/>
    <path class="cls-2" d="m15.05,40.35H3.46c-.56,0-1.01-.45-1.01-1.01v-20.31c0-.56.45-1.01,1.01-1.01h11.59c.56,0,1.01.45,1.01,1.01v20.31c0,.56-.45,1.01-1.01,1.01ZM3.46,18.76c-.14,0-.26.12-.26.26v20.31c0,.14.12.26.26.26h11.59c.14,0,.26-.12.26-.26v-20.31c0-.14-.12-.26-.26-.26H3.46Zm11.33,20.31H3.72v-19.79h11.07v19.79Zm-10.32-.75h9.57v-18.29H4.47v18.29Z"/>
  </g>
  <g>
    <path class="cls-1" d="m57.71,39.97h-10.73c-.35,0-.64-.29-.64-.64v-20.31c0-.35.29-.64.64-.64h10.73c.35,0,.64.29.64.64v20.31c0,.35-.29.64-.64.64Zm-10.09-1.27h9.45v-19.04h-9.45v19.04Z"/>
    <path class="cls-2" d="m57.71,40.35h-10.73c-.56,0-1.01-.45-1.01-1.01v-20.31c0-.56.45-1.01,1.01-1.01h10.73c.56,0,1.01.45,1.01,1.01v20.31c0,.56-.45,1.01-1.01,1.01Zm-10.73-21.59c-.14,0-.26.12-.26.26v20.31c0,.14.12.26.26.26h10.73c.14,0,.26-.12.26-.26v-20.31c0-.14-.12-.26-.26-.26h-10.73Zm10.47,20.31h-10.2v-19.79h10.2v19.79Zm-9.45-.75h8.7v-18.29h-8.7v18.29Z"/>
  </g>
  <g>
    <path class="cls-1" d="m29.59,48.7c-.63,0-1.26-.21-1.77-.63l-13.41-11.13v-17.21h11.12c.83,0,1.64.23,2.35.66l-.66,1.09c-.51-.31-1.09-.47-1.68-.47h-9.85v15.34l12.95,10.74c.47.39,1.15.45,1.68.15.41-.23.67-.62.74-1.08.06-.45-.09-.89-.41-1.22l-5.75-5.71.9-.9,5.74,5.69s.01.01.02.02l1.8,1.78c.69.68,1.81.68,2.49,0,.33-.33.51-.77.51-1.23s-.18-.89-.5-1.22l-7.26-7.2.9-.9,7.24,7.19s.01.01.02.02l2.42,2.4c.67.67,1.76.67,2.43,0,.32-.32.5-.75.5-1.2s-.18-.87-.5-1.19l-9.44-9.37.9-.9,9.43,9.36h0s.61.61.61.61c.7.7,1.85.7,2.56,0,.34-.34.53-.78.53-1.26s-.19-.92-.53-1.26l-14.06-13.95.9-.9,14.06,13.95c.58.58.9,1.35.9,2.17s-.32,1.59-.9,2.17c-.86.86-2.11,1.1-3.19.72-.03.75-.34,1.44-.87,1.97-1.16,1.16-3.06,1.16-4.23,0l-.69-.68c-.1.62-.4,1.18-.85,1.63-1.18,1.17-3.11,1.17-4.29,0l-.17-.17c-.17.76-.64,1.4-1.33,1.79-.42.24-.89.35-1.35.35Z"/>
    <path class="cls-2" d="m29.59,49.08c-.74,0-1.45-.26-2.01-.72l-13.54-11.24v-17.76h11.5c.9,0,1.77.25,2.54.71l.32.19-1.05,1.73-.32-.2c-.45-.27-.96-.42-1.49-.42h-9.47v14.79l12.81,10.63c.35.29.86.34,1.26.11.3-.17.5-.46.55-.8.05-.33-.06-.66-.3-.9l-6.01-5.97,1.43-1.44,7.82,7.76c.54.54,1.42.54,1.97,0,.26-.26.4-.6.4-.96s-.14-.7-.39-.95l-7.52-7.46,1.43-1.44,9.95,9.87c.53.52,1.38.52,1.9,0,.25-.25.39-.58.39-.93s-.14-.68-.39-.93l-9.7-9.63,1.43-1.44,10.32,10.24c.56.56,1.47.56,2.03,0,.27-.27.42-.62.42-1s-.15-.73-.42-1l-14.32-14.21,1.43-1.44,14.32,14.21c.65.65,1.01,1.51,1.01,2.43s-.36,1.78-1.01,2.43c-.82.81-2.01,1.16-3.14.93-.12.66-.45,1.28-.93,1.76-1.31,1.3-3.44,1.3-4.75,0l-.23-.23c-.17.44-.43.84-.78,1.18-1.24,1.24-3.22,1.31-4.55.24-.27.61-.72,1.11-1.32,1.44-.47.26-1,.4-1.54.4Zm-14.8-12.31l13.27,11.01c.74.61,1.86.71,2.7.24.6-.33,1-.88,1.15-1.54l.15-.67.66.66c1.04,1.03,2.72,1.03,3.76,0,.4-.39.65-.89.74-1.43l.12-.71,1.2,1.2c1.02,1.01,2.68,1.01,3.7,0,.46-.46.74-1.07.76-1.72l.02-.5.48.17c.98.34,2.08.09,2.81-.63.51-.51.79-1.18.79-1.9s-.28-1.39-.79-1.9l-13.79-13.68-.37.37,13.79,13.69c.41.41.64.95.64,1.53s-.23,1.12-.64,1.53c-.85.84-2.23.84-3.08,0l-9.78-9.71-.37.37,9.17,9.1c.39.39.61.91.61,1.46s-.22,1.07-.61,1.47c-.82.81-2.14.81-2.96,0l-9.41-9.34-.37.37,6.99,6.94c.4.4.61.93.61,1.48s-.22,1.1-.62,1.5c-.83.83-2.19.83-3.02,0l-7.29-7.23-.37.37,5.48,5.44c.4.41.59.97.51,1.53-.08.58-.41,1.07-.92,1.36-.67.38-1.52.3-2.11-.19l-13.08-10.86v-15.89h10.22c.54,0,1.07.12,1.55.35l.27-.45c-.57-.28-1.19-.42-1.82-.42h-10.75v16.66Z"/>
  </g>
  <g>
    <path class="cls-1" d="m47.62,38.63h-3l-12.56-12.47-3.56,3.53c-1.47,1.46-3.87,1.46-5.34,0-.71-.71-1.11-1.65-1.11-2.65s.39-1.95,1.11-2.65l6.63-6.58c1.66-1.64,4.36-1.64,6.01,0,.93.93,2.17,1.44,3.5,1.44h8.31v19.38Zm-2.47-1.27h1.2v-16.84h-7.04c-1.66,0-3.22-.64-4.39-1.81-1.16-1.16-3.06-1.15-4.22,0l-6.63,6.58c-.47.47-.73,1.09-.73,1.75s.26,1.28.73,1.75c.98.97,2.57.97,3.54,0l4.46-4.42,13.09,12.99Z"/>
    <path class="cls-2" d="m48,39h-3.52l-.11-.11-12.3-12.2-3.29,3.27c-1.62,1.6-4.25,1.6-5.86,0-.79-.78-1.22-1.82-1.22-2.92s.43-2.14,1.22-2.92l6.63-6.58c1.8-1.79,4.74-1.79,6.54,0,.86.86,2.01,1.33,3.23,1.33h8.69v20.13Zm-3.22-.75h2.47v-18.63h-7.94c-1.42,0-2.76-.55-3.76-1.55-1.51-1.5-3.97-1.5-5.49,0l-6.63,6.58c-.64.64-1,1.49-1,2.39s.35,1.75,1,2.39c1.33,1.32,3.48,1.32,4.81,0l3.82-3.79,12.72,12.62Zm1.94-.52h-1.73l-.11-.11-12.82-12.72-4.19,4.16c-1.12,1.11-2.95,1.11-4.07,0-.54-.54-.84-1.25-.84-2.02s.3-1.48.84-2.02l6.63-6.58c1.31-1.3,3.44-1.3,4.75,0,1.1,1.09,2.57,1.7,4.13,1.7h7.42v17.59Zm-1.42-.75h.67v-16.09h-6.67c-1.76,0-3.41-.68-4.66-1.91-1.02-1.01-2.67-1.01-3.69,0l-6.63,6.58c-.4.4-.62.92-.62,1.48s.22,1.09.62,1.48c.83.83,2.18.83,3.01,0l4.72-4.68,13.24,13.14Z"/>
  </g>
</svg>