<?xml version="1.0" encoding="UTF-8"?>
<svg id="Layer_1" data-name="Layer 1" xmlns="http://www.w3.org/2000/svg" viewBox="0 0 60 60">
  <defs>
    <style>
      .cls-1 {
        fill: #37464c;
        stroke-width: 0px;
      }
    </style>
  </defs>
  <g>
    <path class="cls-1" d="m17.19,54.66c-2.92,0-5.85-1.11-8.07-3.34h0c-2.16-2.16-3.34-5.02-3.34-8.07s1.19-5.92,3.34-8.07L31.23,13.08c.22-.22.59-.22.81,0l15.34,15.33c.11.11.17.25.17.4s-.06.3-.17.4l-22.11,22.1c-2.23,2.23-5.15,3.34-8.08,3.34ZM31.63,14.29l-21.71,21.7c-1.94,1.94-3.01,4.52-3.01,7.26s1.07,5.32,3.01,7.26h0c4.01,4,10.52,4.01,14.53,0l21.71-21.7-14.53-14.53Z"/>
    <path class="cls-1" d="m17.19,55.04c-3.15,0-6.12-1.22-8.34-3.45-2.23-2.23-3.45-5.19-3.45-8.34s1.23-6.11,3.45-8.34L30.96,12.81c.36-.36.98-.36,1.34,0l15.34,15.33c.18.18.28.42.28.67s-.1.49-.28.67l-22.11,22.1c-2.22,2.22-5.19,3.45-8.34,3.45ZM31.63,13.29c-.05,0-.11.02-.14.05l-22.11,22.1c-2.09,2.08-3.23,4.86-3.23,7.81s1.15,5.72,3.23,7.81c2.08,2.08,4.86,3.23,7.81,3.23s5.73-1.15,7.81-3.23l22.11-22.1s.06-.09.06-.14-.02-.1-.06-.14l-15.34-15.33s-.09-.05-.14-.05Zm-14.44,40.6c-2.73,0-5.45-1.04-7.53-3.11-2.01-2.01-3.12-4.69-3.12-7.53s1.11-5.52,3.12-7.53L31.63,13.76l15.06,15.06-21.97,21.96c-2.08,2.08-4.8,3.11-7.53,3.11ZM31.63,14.82l-21.44,21.43c-1.87,1.87-2.9,4.35-2.9,7s1.03,5.13,2.9,7c3.86,3.86,10.14,3.86,14,0l21.44-21.43-14-14Z"/>
  </g>
  <g>
    <path class="cls-1" d="m17.34,50.57c-1.91,0-3.83-.73-5.29-2.19-1.41-1.41-2.19-3.29-2.19-5.28s.78-3.87,2.19-5.28l18.58-18.58c.22-.22.59-.22.81,0l9.76,9.76c.11.11.17.25.17.4s-.06.3-.17.4l-18.58,18.58c-1.46,1.46-3.37,2.19-5.29,2.19Zm13.7-30.12l-18.18,18.17c-1.2,1.2-1.85,2.78-1.85,4.48s.66,3.28,1.85,4.48c2.47,2.47,6.49,2.47,8.95,0l18.18-18.17-8.95-8.95Z"/>
    <path class="cls-1" d="m17.34,50.95c-2.1,0-4.07-.81-5.55-2.29-1.48-1.48-2.3-3.46-2.3-5.55s.82-4.07,2.3-5.55l18.58-18.58c.18-.18.42-.28.67-.28h0c.25,0,.49.1.67.28l9.76,9.76c.18.18.28.42.28.67s-.1.49-.28.67l-18.58,18.58c-1.48,1.48-3.45,2.29-5.55,2.29Zm13.7-31.5c-.05,0-.1.02-.14.06l-18.58,18.58c-1.34,1.34-2.08,3.12-2.08,5.02s.74,3.68,2.08,5.02c1.34,1.34,3.12,2.08,5.02,2.08s3.68-.74,5.02-2.08l18.58-18.58s.06-.09.06-.14-.02-.1-.06-.14l-9.76-9.76s-.09-.06-.14-.06Zm-13.7,30.36c-1.72,0-3.44-.65-4.74-1.96-1.27-1.27-1.96-2.95-1.96-4.74s.7-3.47,1.96-4.74l18.44-18.44,9.48,9.48-18.44,18.44c-1.31,1.31-3.02,1.96-4.74,1.96Zm13.7-28.82l-17.91,17.91c-1.12,1.12-1.74,2.62-1.74,4.21s.62,3.09,1.74,4.21c2.32,2.32,6.1,2.32,8.42,0l17.91-17.91-8.42-8.42Z"/>
  </g>
  <g>
    <path class="cls-1" d="m44.65,27.07c-.15,0-.29-.06-.4-.17l-10.7-10.69c-.11-.11-.17-.25-.17-.4s.06-.3.17-.4l10.7-10.69c.22-.22.59-.22.81,0l10.7,10.69c.11.11.17.25.17.4s-.06.3-.17.4l-10.7,10.69c-.11.11-.26.17-.4.17Zm-9.89-11.26l9.89,9.88,9.89-9.88-9.89-9.88-9.89,9.88Z"/>
    <path class="cls-1" d="m44.65,27.44c-.25,0-.49-.1-.67-.28l-10.7-10.69c-.18-.18-.28-.42-.28-.67s.1-.5.28-.67l10.69-10.69c.36-.36.98-.36,1.34,0l10.7,10.69c.18.17.28.42.28.67s-.1.49-.28.67l-10.7,10.69c-.18.18-.42.28-.67.28Zm0-22.52c-.05,0-.11.02-.14.05l-10.7,10.69s-.06.09-.06.14.02.1.06.14l10.7,10.69c.08.08.2.08.28,0l10.69-10.69s.06-.09.06-.14-.02-.1-.06-.14l-10.7-10.69s-.09-.05-.14-.05Zm0,21.29l-10.42-10.41,10.42-10.41,10.42,10.41-10.42,10.41Zm-9.36-10.41l9.36,9.35,9.36-9.35-9.36-9.35-9.36,9.35Z"/>
  </g>
  <g>
    <g>
      <path class="cls-1" d="m42.48,16.61c-.15,0-.29-.06-.4-.17l-2.41-2.41c-.11-.11-.17-.25-.17-.4s.06-.3.17-.4l2.41-2.41c.22-.22.59-.22.81,0l2.41,2.41c.11.11.17.25.17.4s-.06.3-.17.4l-2.41,2.41c-.11.11-.26.17-.4.17Zm-1.6-2.98l1.6,1.6,1.6-1.6-1.6-1.6-1.6,1.6Z"/>
      <path class="cls-1" d="m42.48,16.99c-.25,0-.49-.1-.67-.28l-2.41-2.41c-.18-.18-.28-.42-.28-.67s.1-.49.28-.67l2.41-2.41c.36-.36.98-.36,1.34,0l2.41,2.41c.18.18.28.42.28.67s-.1.49-.28.67l-2.41,2.41c-.18.18-.42.28-.67.28Zm0-5.96c-.05,0-.1.02-.14.06l-2.41,2.41s-.06.09-.06.14.02.1.06.14l2.41,2.41c.08.08.2.08.28,0l2.41-2.41s.06-.09.06-.14-.02-.1-.06-.14l-2.41-2.41s-.09-.06-.14-.06Zm0,4.73l-2.13-2.13,2.13-2.13,2.13,2.13-2.13,2.13Zm-1.07-2.13l1.07,1.07,1.07-1.07-1.07-1.07-1.07,1.07Z"/>
    </g>
    <g>
      <path class="cls-1" d="m46.82,20.96c-.15,0-.29-.06-.4-.17l-2.41-2.41c-.11-.11-.17-.25-.17-.4s.06-.3.17-.4l2.41-2.41c.22-.22.59-.22.81,0l2.41,2.41c.11.11.17.25.17.4s-.06.3-.17.4l-2.41,2.41c-.11.11-.26.17-.4.17Zm-1.6-2.98l1.6,1.6,1.6-1.6-1.6-1.6-1.6,1.6Z"/>
      <path class="cls-1" d="m46.82,21.33c-.25,0-.49-.1-.67-.28l-2.41-2.4c-.18-.18-.28-.42-.28-.67s.1-.49.28-.67l2.41-2.41c.37-.37.97-.37,1.34,0l2.41,2.41c.18.18.28.42.28.67s-.1.49-.28.67l-2.41,2.41c-.18.18-.42.28-.67.28Zm0-5.96c-.05,0-.1.02-.14.06l-2.41,2.41s-.06.09-.06.14.02.1.06.14l2.41,2.41c.09.09.17.11.28,0l2.41-2.41s.06-.09.06-.14-.02-.1-.06-.14l-2.41-2.41s-.09-.06-.14-.06Zm0,4.73l-2.13-2.13,2.13-2.13,2.13,2.13-2.13,2.13Zm-1.07-2.13l1.07,1.07,1.07-1.07-1.07-1.07-1.07,1.07Z"/>
    </g>
  </g>
</svg>