<?xml version="1.0" encoding="UTF-8"?>
<svg id="Layer_1" data-name="Layer 1" xmlns="http://www.w3.org/2000/svg" viewBox="0 0 60 60">
  <defs>
    <style>
      .cls-1 {
        fill: #37464c;
        stroke-width: 0px;
      }
    </style>
  </defs>
  <g>
    <path class="cls-1" d="m13.57,43.39c-.55,0-1-.45-1-1V7.58c0-2.42.94-4.87,2.72-4.87h13.8c.55,0,1,.45,1,1s-.45,1-1,1h-13.8c-.16.11-.72,1.1-.72,2.87v34.81c0,.55-.45,1-1,1Z"/>
    <path class="cls-1" d="m28.35,49.07h-7.74c-.55,0-1-.45-1-1s.45-1,1-1h7.74c.55,0,1,.45,1,1s-.45,1-1,1Z"/>
    <path class="cls-1" d="m46.44,58.54c-.24,0-.49-.09-.68-.26l-1.83-1.68c-.21-.19-.32-.46-.32-.74s.12-.55.32-.74l10.04-9.26c.38-.35.97-.35,1.36,0l1.83,1.68c.41.38.43,1.01.06,1.41-.38.41-1.01.43-1.41.06l-1.15-1.06-8.57,7.9,1.03.95c.41.37.43,1.01.06,1.41-.2.21-.47.32-.74.32Z"/>
    <path class="cls-1" d="m53.69,48.24c-.44,0-.85-.29-.96-.74l-2.58-9.63c-.19-.72-.91-1.22-1.74-1.22h-1.05c-.55,0-1-.45-1-1s.45-1,1-1h1.05c1.74,0,3.25,1.11,3.67,2.7l2.58,9.63c.14.53-.17,1.08-.71,1.22-.09.02-.17.03-.26.03Z"/>
    <path class="cls-1" d="m40.12,49.07h-11.15c-.55,0-1-.45-1-1s.45-1,1-1h11.15c.55,0,1,.45,1,1s-.45,1-1,1Z"/>
    <path class="cls-1" d="m46.44,43.39c-.55,0-1-.45-1-1V7.58c0-1.77-.57-2.76-.8-2.88h-15.55c-.55.01-1-.44-1-.99s.45-1,1-1h15.61c1.58,0,2.74,2.05,2.74,4.87v34.81c0,.55-.45,1-1,1Z"/>
    <path class="cls-1" d="m46.44,55.17c-4.16,0-6.82-4.04-7.3-6.77-.06-.35-.22-.65-.47-.87l-3.11-2.87c-.7-.64-1.08-1.5-1.08-2.42,0-.92.38-1.78,1.08-2.42,1.38-1.27,3.63-1.27,5.01,0l3.35,3.09c.23.21.56.28.88.19.13-.04.45-.16.54-.5l.13-.48c.14-.53.69-.85,1.23-.7.53.14.85.69.7,1.23l-.13.48c-.25.91-.96,1.62-1.91,1.9-.99.28-2.06.04-2.79-.64l-3.35-3.09c-.62-.57-1.67-.57-2.3,0-.28.26-.43.59-.43.95s.15.69.43.95l3.11,2.87c.57.52.94,1.21,1.08,1.99.37,2.09,2.48,5.12,5.33,5.12.55,0,1,.45,1,1s-.45,1-1,1Z"/>
    <path class="cls-1" d="m13.57,58.54c-.27,0-.54-.11-.74-.32-.37-.41-.35-1.04.06-1.41l1.03-.95-8.57-7.9-1.15,1.06c-.41.37-1.04.35-1.41-.06-.37-.41-.35-1.04.06-1.41l1.83-1.68c.38-.35.97-.35,1.36,0l10.04,9.26c.21.19.32.46.32.74s-.12.55-.32.74l-1.83,1.68c-.19.18-.44.26-.68.26Z"/>
    <path class="cls-1" d="m6.32,48.24c-.09,0-.17-.01-.26-.03-.53-.14-.85-.69-.71-1.22l2.58-9.63c.42-1.59,1.93-2.7,3.67-2.7h1.05c.55,0,1,.45,1,1s-.45,1-1,1h-1.05c-.84,0-1.55.5-1.75,1.22l-2.58,9.63c-.12.45-.52.74-.96.74Z"/>
    <path class="cls-1" d="m13.57,55.17c-.55,0-1-.45-1-1s.45-1,1-1c2.85,0,4.96-3.03,5.33-5.12.14-.78.51-1.47,1.08-1.99l3.11-2.87c.28-.26.43-.6.43-.95s-.15-.69-.43-.95c-.62-.57-1.67-.57-2.3,0l-3.35,3.09c-.74.68-1.81.92-2.79.64-.95-.27-1.67-.98-1.91-1.9l-.13-.48c-.14-.53.17-1.08.7-1.23.54-.15,1.08.17,1.23.7l.13.48c.09.34.41.46.54.5.32.09.65.02.88-.19l3.35-3.09c1.38-1.27,3.63-1.27,5.01,0,.7.64,1.08,1.5,1.08,2.42,0,.92-.38,1.78-1.08,2.42l-3.11,2.87c-.24.22-.4.52-.46.87-.48,2.73-3.14,6.77-7.3,6.77Z"/>
  </g>
  <g>
    <g>
      <path class="cls-1" d="m30.6,22.69c-2.02,0-3.92-.79-5.34-2.21-1.43-1.43-2.21-3.32-2.21-5.34s.79-3.92,2.21-5.34c1.43-1.43,3.32-2.21,5.34-2.21s3.92.79,5.34,2.21c1.43,1.43,2.21,3.32,2.21,5.34s-.79,3.92-2.21,5.34h0c-1.43,1.43-3.32,2.21-5.34,2.21Zm0-14.54c-1.87,0-3.62.73-4.94,2.05-1.32,1.32-2.05,3.07-2.05,4.94s.73,3.62,2.05,4.94c1.32,1.32,3.07,2.05,4.94,2.05s3.62-.73,4.94-2.05h0c1.32-1.32,2.05-3.07,2.05-4.94s-.73-3.62-2.05-4.94c-1.32-1.32-3.07-2.05-4.94-2.05Z"/>
      <path class="cls-1" d="m30.6,23.19c-2.15,0-4.17-.84-5.7-2.36-1.52-1.52-2.36-3.54-2.36-5.7s.84-4.17,2.36-5.7c1.52-1.52,3.54-2.36,5.7-2.36s4.17.84,5.7,2.36,2.36,3.54,2.36,5.7-.84,4.17-2.36,5.7-3.54,2.36-5.7,2.36Zm0-14.54c-1.73,0-3.36.67-4.58,1.9s-1.9,2.85-1.9,4.58.67,3.36,1.9,4.58,2.85,1.9,4.58,1.9,3.36-.67,4.58-1.9c1.22-1.23,1.9-2.85,1.9-4.58s-.67-3.36-1.9-4.58c-1.23-1.22-2.85-1.9-4.58-1.9Z"/>
    </g>
    <g>
      <path class="cls-1" d="m31.8,19.07h-2.4c-.16,0-.29-.13-.29-.29v-2.16h-2.16c-.16,0-.29-.13-.29-.29v-2.4c0-.16.13-.29.29-.29h2.16v-2.16c0-.16.13-.29.29-.29h2.4c.16,0,.29.13.29.29v2.16h2.16c.16,0,.29.13.29.29v2.4c0,.16-.13.29-.29.29h-2.16v2.16c0,.16-.13.29-.29.29Zm-2.12-.57h1.83v-2.16c0-.16.13-.29.29-.29h2.16v-1.83h-2.16c-.16,0-.29-.13-.29-.29v-2.16h-1.83v2.16c0,.16-.13.29-.29.29h-2.16v1.83h2.16c.16,0,.29.13.29.29v2.16Z"/>
      <path class="cls-1" d="m31.8,19.32h-2.4c-.3,0-.54-.24-.54-.54v-1.91h-1.91c-.29,0-.54-.24-.54-.54v-2.4c0-.3.24-.54.54-.54h1.91v-1.91c0-.3.24-.54.54-.54h2.4c.3,0,.54.24.54.54v1.91h1.91c.3,0,.54.24.54.54v2.4c0,.3-.24.54-.54.54h-1.91v1.91c0,.3-.24.54-.54.54Zm-4.85-5.42l-.04,2.44,2.45.04v2.41l2.44.04s.04-.02.04-.04v-2.41h2.41l.04-2.44-2.45-.04v-2.41l-2.44-.04-.04,2.45h-2.41Zm4.82,4.85h-2.33v-2.41l-2.45-.04v-2.33h2.41l.04-2.45h2.33v2.41l2.45.04v2.33h-2.41l-.04,2.45Zm-1.83-.5h1.33v-1.91c0-.3.24-.54.54-.54h1.91v-1.33h-1.91c-.29,0-.54-.24-.54-.54v-1.91h-1.33v1.91c0,.29-.24.54-.54.54h-1.91v1.33h1.91c.3,0,.54.24.54.54v1.91Z"/>
    </g>
  </g>
  <path class="cls-1" d="m39.88,26.91h-19.76c-.39,0-.7-.31-.7-.7s.31-.7.7-.7h19.76c.39,0,.7.31.7.7s-.31.7-.7.7Z"/>
  <path class="cls-1" d="m39.88,30.12h-13.54c-.39,0-.7-.31-.7-.7s.31-.7.7-.7h13.54c.39,0,.7.31.7.7s-.31.7-.7.7Z"/>
  <path class="cls-1" d="m23.14,30.12h-3.02c-.39,0-.7-.31-.7-.7s.31-.7.7-.7h3.02c.39,0,.7.31.7.7s-.31.7-.7.7Z"/>
  <path class="cls-1" d="m39.88,34.29h-9.28c-.39,0-.7-.31-.7-.7s.31-.7.7-.7h9.28c.39,0,.7.31.7.7s-.31.7-.7.7Z"/>
  <path class="cls-1" d="m27.75,34.29h-7.63c-.39,0-.7-.31-.7-.7s.31-.7.7-.7h7.63c.39,0,.7.31.7.7s-.31.7-.7.7Z"/>
  <path class="cls-1" d="m40.04,37.38h-3.97c-.39,0-.7-.31-.7-.7s.31-.7.7-.7h3.97c.39,0,.7.31.7.7s-.31.7-.7.7Z"/>
  <path class="cls-1" d="m33.74,37.38h-13.62c-.39,0-.7-.31-.7-.7s.31-.7.7-.7h13.62c.39,0,.7.31.7.7s-.31.7-.7.7Z"/>
  <path class="cls-1" d="m33.56,40.56h-7.62c-.39,0-.7-.31-.7-.7s.31-.7.7-.7h7.62c.39,0,.7.31.7.7s-.31.7-.7.7Z"/>
</svg>