<?xml version="1.0" encoding="UTF-8"?>
<svg id="Layer_1" data-name="Layer 1" xmlns="http://www.w3.org/2000/svg" viewBox="0 0 60 60">
  <defs>
    <style>
      .cls-1 {
        fill: #37464c;
        stroke-width: 0px;
      }
    </style>
  </defs>
  <path class="cls-1" d="m38.98,54.61h-15.88c-.55,0-1-.45-1-1v-14.88H7.21c-.55,0-1-.45-1-1v-15.88c0-.55.45-1,1-1h14.88V5.96c0-.55.45-1,1-1h15.88c.55,0,1,.45,1,1v14.88h14.88c.55,0,1,.45,1,1v15.88c0,.55-.45,1-1,1h-14.88v14.88c0,.55-.45,1-1,1Zm-14.88-2h13.88v-14.88c0-.55.45-1,1-1h14.88v-13.88h-14.88c-.55,0-1-.45-1-1V6.96h-13.88v14.88c0,.55-.45,1-1,1h-14.88v13.88h14.88c.55,0,1,.45,1,1v14.88Z"/>
</svg>