<?xml version="1.0" encoding="UTF-8"?>
<svg id="Layer_1" data-name="Layer 1" xmlns="http://www.w3.org/2000/svg" viewBox="0 0 60 60">
  <defs>
    <style>
      .cls-1 {
        fill: #37464c;
        stroke-width: 0px;
      }
    </style>
  </defs>
  <g>
    <path class="cls-1" d="m16.27,57.8c-2.07,0-3.75-1.54-3.75-3.44s1.68-3.44,3.75-3.44,3.75,1.54,3.75,3.44-1.68,3.44-3.75,3.44Zm0-4.87c-.96,0-1.75.64-1.75,1.44s.78,1.44,1.75,1.44,1.75-.64,1.75-1.44-.78-1.44-1.75-1.44Z"/>
    <path class="cls-1" d="m5.29,48.06c-2.07,0-3.75-1.54-3.75-3.44s1.68-3.44,3.75-3.44,3.75,1.54,3.75,3.44-1.68,3.44-3.75,3.44Zm0-4.87c-.96,0-1.75.64-1.75,1.44s.78,1.44,1.75,1.44,1.75-.64,1.75-1.44-.78-1.44-1.75-1.44Z"/>
    <path class="cls-1" d="m6.66,31c-2.07,0-3.75-1.54-3.75-3.44s1.68-3.44,3.75-3.44,3.75,1.54,3.75,3.44-1.68,3.44-3.75,3.44Zm0-4.87c-.96,0-1.75.64-1.75,1.44s.78,1.44,1.75,1.44,1.75-.64,1.75-1.44-.78-1.44-1.75-1.44Z"/>
    <path class="cls-1" d="m50.59,21.25c-2.07,0-3.75-1.54-3.75-3.44s1.68-3.44,3.75-3.44,3.75,1.54,3.75,3.44-1.68,3.44-3.75,3.44Zm0-4.87c-.96,0-1.75.64-1.75,1.44s.78,1.44,1.75,1.44,1.75-.64,1.75-1.44-.78-1.44-1.75-1.44Z"/>
    <path class="cls-1" d="m54.71,48.06c-2.07,0-3.75-1.54-3.75-3.44s1.68-3.44,3.75-3.44,3.75,1.54,3.75,3.44-1.68,3.44-3.75,3.44Zm0-4.87c-.96,0-1.75.64-1.75,1.44s.78,1.44,1.75,1.44,1.75-.64,1.75-1.44-.78-1.44-1.75-1.44Z"/>
    <path class="cls-1" d="m45.1,9.07c-2.07,0-3.75-1.54-3.75-3.44s1.68-3.44,3.75-3.44,3.75,1.54,3.75,3.44-1.68,3.44-3.75,3.44Zm0-4.87c-.96,0-1.75.64-1.75,1.44s.78,1.44,1.75,1.44,1.75-.64,1.75-1.44-.78-1.44-1.75-1.44Z"/>
    <path class="cls-1" d="m14.9,18.82c-2.07,0-3.75-1.54-3.75-3.44s1.68-3.44,3.75-3.44,3.75,1.54,3.75,3.44-1.68,3.44-3.75,3.44Zm0-4.87c-.96,0-1.75.64-1.75,1.44s.78,1.44,1.75,1.44,1.75-.64,1.75-1.44-.78-1.44-1.75-1.44Z"/>
    <path class="cls-1" d="m51.96,45.62h-17.85c-.55,0-1-.45-1-1v-2.44c0-.55.45-1,1-1s1,.45,1,1v1.44h16.85c.55,0,1,.45,1,1s-.45,1-1,1Z"/>
    <g>
      <path class="cls-1" d="m8.03,45.62c-.13,0-.26-.02-.38-.07s-.23-.13-.32-.22c-.1-.1-.17-.21-.22-.33s-.08-.25-.08-.38.03-.26.08-.38c.05-.12.12-.23.22-.32.09-.1.2-.17.32-.22.37-.16.81-.07,1.09.22.09.09.17.2.22.32.05.12.07.25.07.38s-.02.26-.07.38-.13.23-.22.33c-.1.09-.2.17-.32.22s-.25.07-.39.07Z"/>
      <path class="cls-1" d="m7.03,44.62c0-.55.45-1,1-1h0c.55,0,1,.45,1,1h0c0,.55-.45,1-1,1h0c-.55,0-1-.45-1-1Z"/>
      <path class="cls-1" d="m19.4,44.62c0-.55.45-1,1-1h0c.55,0,1,.45,1,1h0c0,.55-.45,1-1,1h0c-.55,0-1-.45-1-1Zm-3.67,0c0-.55.45-1,1-1h0c.55,0,1,.45,1,1h0c0,.55-.45,1-1,1h0c-.55,0-1-.45-1-1Zm-3.67,0c0-.55.45-1,1.01-1h0c.55,0,1,.45,1,1h0c0,.55-.45,1-1,1h0c-.56,0-1.01-.45-1.01-1Z"/>
      <path class="cls-1" d="m23.13,45.62c-.27,0-.52-.1-.7-.29-.1-.1-.17-.2-.22-.33-.05-.12-.08-.25-.08-.38s.03-.26.08-.38c.05-.12.12-.23.22-.33.09-.09.2-.16.32-.21.37-.15.82-.06,1.09.21.19.19.29.45.29.71,0,.13-.02.26-.07.38-.05.13-.13.23-.22.33-.09.09-.2.17-.32.22-.13.05-.26.07-.39.07Z"/>
      <path class="cls-1" d="m22.13,44.62c0-.55.45-1,1-1h0c.55,0,1,.45,1,1h0c0,.55-.45,1-1,1h0c-.55,0-1-.45-1-1Z"/>
      <path class="cls-1" d="m22.13,41.77c0-.55.45-1,1-1h0c.55,0,1,.45,1,1h0c0,.55-.45,1-1,1h0c-.55,0-1-.45-1-1Z"/>
      <path class="cls-1" d="m23.13,39.92c-.13,0-.26-.02-.38-.07s-.23-.13-.32-.22c-.19-.19-.3-.44-.3-.71,0-.13.03-.26.08-.38s.12-.23.22-.32c.23-.24.57-.35.9-.28.06.02.12.03.18.06.07.02.12.06.18.09.05.04.1.08.15.13.09.09.17.2.22.32.05.12.07.25.07.38,0,.27-.1.52-.29.71s-.44.29-.71.29Z"/>
    </g>
    <path class="cls-1" d="m42.35,57.8c-2.07,0-3.75-1.54-3.75-3.44s1.68-3.44,3.75-3.44,3.75,1.54,3.75,3.44-1.68,3.44-3.75,3.44Zm0-4.87c-.96,0-1.75.64-1.75,1.44s.78,1.44,1.75,1.44,1.75-.64,1.75-1.44-.78-1.44-1.75-1.44Z"/>
    <path class="cls-1" d="m25.88,20.03c-.55,0-1-.45-1-1v-2.66h-7.24c-.55,0-1-.45-1-1s.45-1,1-1h8.24c.55,0,1,.45,1,1v3.66c0,.55-.45,1-1,1Z"/>
    <path class="cls-1" d="m50.59,26.13h-7.91c-.55,0-1-.45-1-1s.45-1,1-1h6.91v-3.87c0-.55.45-1,1-1s1,.45,1,1v4.87c0,.55-.45,1-1,1Z"/>
    <g>
      <path class="cls-1" d="m34.11,19.78c-.13,0-.26-.02-.38-.07-.12-.05-.23-.13-.32-.22-.1-.1-.17-.2-.22-.32-.05-.13-.08-.25-.08-.39,0-.26.11-.52.3-.7.37-.38,1.04-.38,1.41,0,.19.18.29.44.29.7,0,.13-.02.26-.07.39-.05.12-.13.22-.22.32-.09.09-.2.17-.32.22s-.25.07-.39.07Z"/>
      <path class="cls-1" d="m33.12,18.78c0-.55.44-1,.99-1h0c.56,0,1,.45,1,1h0c0,.56-.44,1-1,1h0c-.55,0-.99-.44-.99-1Z"/>
      <path class="cls-1" d="m33.12,14.4c0-.55.44-1,.99-1h0c.56,0,1,.45,1,1h0c0,.55-.44,1-1,1h0c-.55,0-.99-.45-.99-1Zm0-4c0-.55.44-1,.99-1h0c.56,0,1,.45,1,1h0c0,.55-.44,1-1,1h0c-.55,0-.99-.45-.99-1Z"/>
      <path class="cls-1" d="m34.11,6.63c-.13,0-.26-.02-.38-.07-.12-.05-.23-.13-.32-.22-.1-.1-.17-.21-.22-.33-.05-.12-.08-.25-.08-.38,0-.26.11-.52.3-.71.37-.37,1.04-.37,1.41,0,.19.19.29.45.29.71,0,.13-.02.26-.07.38s-.13.23-.22.33c-.09.09-.2.17-.32.22s-.25.07-.39.07Z"/>
      <path class="cls-1" d="m33.12,5.63c0-.55.44-1,.99-1h0c.56,0,1,.45,1,1h0c0,.56-.44,1-1,1h0c-.55,0-.99-.44-.99-1Z"/>
      <path class="cls-1" d="m37.23,5.63c0-.55.45-1,1-1h0c.56,0,1,.45,1,1h0c0,.56-.44,1-1,1h0c-.55,0-1-.44-1-1Z"/>
      <path class="cls-1" d="m42.35,6.63c-.13,0-.26-.02-.38-.07s-.23-.13-.33-.22c-.18-.19-.29-.44-.29-.71,0-.13.03-.26.08-.38.05-.12.12-.23.21-.33.37-.37,1.05-.36,1.42,0,.09.1.16.21.22.33.05.12.07.25.07.38,0,.27-.1.52-.29.71-.09.09-.2.17-.33.22-.12.05-.25.07-.38.07Z"/>
    </g>
    <path class="cls-1" d="m19.02,28.56h-9.61c-.55,0-1-.45-1-1s.45-1,1-1h9.61c.55,0,1,.45,1,1s-.45,1-1,1Z"/>
    <path class="cls-1" d="m52.33,30c0-.55.45-1,1-1h0c.56,0,1,.45,1,1h0c0,.55-.44,1-1,1h0c-.55,0-1-.45-1-1Zm-4,0c0-.55.45-1,1-1h0c.56,0,1,.45,1,1h0c0,.55-.44,1-1,1h0c-.55,0-1-.45-1-1Zm-4,0c0-.55.45-1,1-1h0c.56,0,1,.45,1,1h0c0,.55-.44,1-1,1h0c-.55,0-1-.45-1-1Z"/>
    <path class="cls-1" d="m28.63,55.37h-9.61c-.55,0-1-.45-1-1s.45-1,1-1h8.61v-10.74c0-.55.45-1,1-1s1,.45,1,1v11.74c0,.55-.45,1-1,1Z"/>
    <path class="cls-1" d="m38.6,54.37c0-.55.45-1,1-1h0c.56,0,1.01.45,1.01,1h0c0,.55-.45,1-1.01,1h0c-.55,0-1-.45-1-1Zm-3.99,0c0-.55.44-1,1-1h0c.55,0,1,.45,1,1h0c0,.55-.45,1-1,1h0c-.56,0-1-.45-1-1Zm-4,0c0-.55.44-1,1-1h0c.55,0,1,.45,1,1h0c0,.55-.45,1-1,1h0c-.56,0-1-.45-1-1Z"/>
  </g>
  <path class="cls-1" d="m19.02,25.6c-.55,0-1-.45-1-1v-2.98c0-.36.2-.69.51-.87.23-.13,5.6-3.11,12.32-3.11,1.12,0,2.27.08,3.43.25.55.08.93.59.85,1.13-.08.55-.57.93-1.13.85-1.06-.15-2.12-.23-3.15-.23-5.05,0-9.39,1.88-10.83,2.59v2.37c0,.55-.45,1-1,1Z"/>
  <path class="cls-1" d="m42.68,26.13c-.55,0-1-.45-1-1v-2.89c-1.13-.55-4.05-1.83-7.68-2.36-.55-.08-.93-.59-.85-1.13.08-.55.59-.92,1.13-.85,5.06.73,8.73,2.77,8.89,2.85.31.18.51.51.51.87v3.5c0,.55-.45,1-1,1Z"/>
  <path class="cls-1" d="m30.85,44.46c-.11,0-.23-.02-.33-.06-.24-.08-5.94-2.14-9.56-6.24-.37-.41-.33-1.05.09-1.41.42-.37,1.05-.33,1.41.09,2.81,3.18,7.16,5.06,8.39,5.55,1.86-.74,10.83-4.66,10.83-11.34v-5.93c0-.55.45-1,1-1s1,.45,1,1v5.93c0,8.83-11.99,13.17-12.5,13.35-.11.04-.22.06-.33.06Z"/>
  <path class="cls-1" d="m22.11,39.08c-.29,0-.58-.12-.77-.37-2.05-2.5-3.32-7.9-3.32-14.11,0-.55.45-1,1-1s1,.45,1,1c0,5.59,1.15,10.75,2.87,12.84.35.43.29,1.06-.14,1.41-.19.15-.41.23-.63.23Z"/>
  <g>
    <path class="cls-1" d="m32.74,36.25h-3.79c-.25,0-.45-.2-.45-.45v-3.4h-3.4c-.25,0-.45-.2-.45-.45v-3.79c0-.25.2-.45.45-.45h3.4v-3.4c0-.25.2-.45.45-.45h3.79c.25,0,.45.2.45.45v3.4h3.4c.25,0,.45.2.45.45v3.79c0,.25-.2.45-.45.45h-3.4v3.4c0,.25-.2.45-.45.45Zm-3.34-.9h2.89v-3.4c0-.25.2-.45.45-.45h3.4v-2.89h-3.4c-.25,0-.45-.2-.45-.45v-3.4h-2.89v3.4c0,.25-.2.45-.45.45h-3.4v2.89h3.4c.25,0,.45.2.45.45v3.4Z"/>
    <path class="cls-1" d="m32.74,36.5h-3.79c-.39,0-.7-.31-.7-.7v-3.15h-3.15c-.39,0-.7-.31-.7-.7v-3.79c0-.39.31-.7.7-.7h3.15v-3.15c0-.39.31-.7.7-.7h3.79c.39,0,.7.31.7.7v3.15h3.15c.39,0,.7.31.7.7v3.79c0,.39-.31.7-.7.7h-3.15v3.15c0,.39-.31.7-.7.7Zm-7.64-8.54c-.11,0-.2.09-.2.2v3.79c0,.11.09.2.2.2h3.65v3.65c0,.11.09.2.2.2h3.79c.11,0,.2-.09.2-.2v-3.65h3.65c.11,0,.2-.09.2-.2v-3.79c0-.11-.09-.2-.2-.2h-3.65v-3.65c0-.11-.09-.2-.2-.2h-3.79c-.11,0-.2.09-.2.2v3.65h-3.65Zm7.44,7.64h-3.39v-3.65c0-.11-.09-.2-.2-.2h-3.65v-3.39h3.65c.11,0,.2-.09.2-.2v-3.65h3.39v3.65c0,.11.09.2.2.2h3.65v3.39h-3.65c-.11,0-.2.09-.2.2v3.65Zm-2.89-.5h2.39v-3.15c0-.39.31-.7.7-.7h3.15v-2.39h-3.15c-.39,0-.7-.31-.7-.7v-3.15h-2.39v3.15c0,.39-.31.7-.7.7h-3.15v2.39h3.15c.39,0,.7.31.7.7v3.15Z"/>
  </g>
</svg>