<?xml version="1.0" encoding="UTF-8"?>
<svg id="Layer_1" data-name="Layer 1" xmlns="http://www.w3.org/2000/svg" viewBox="0 0 60 60">
  <defs>
    <style>
      .cls-1 {
        fill: #424242;
        stroke-width: 0px;
      }
    </style>
  </defs>
  <g>
    <g>
      <path class="cls-1" d="m14.53,52.16c0-1.32-.33-1.74-1.2-2.85l-5.95-7.77c-2.12-2.87-3.23-6.26-3.23-9.8v-12.2c0-2.09,1.7-3.78,3.78-3.78,1.01,0,1.97.4,2.68,1.12.72.72,1.11,1.68,1.1,2.69l-.06,9.6c0,.39.02.78.07,1.16.74-.89,1.82-1.41,2.97-1.44,1.11-.02,2.27.43,3.05,1.28l6.36,5.68c2.07,1.85,3.26,4.5,3.26,7.28v9.04h-2v-9.04c0-2.21-.95-4.32-2.59-5.79l-6.48-5.79c-.39-.44-.97-.67-1.55-.66-.6.02-1.14.29-1.52.76-.52.64-.53,1.59-.07,2.35.08.12.17.24.27.36l6.35,7.07-2.25.49-.41-.43-4.83-5.38c-.14-.15-.27-.31-.39-.47-.15-.17-.28-.34-.39-.52-1.21-1.74-1.86-3.81-1.85-5.96l.06-9.6c0-.48-.18-.93-.52-1.27-.34-.34-.79-.53-1.26-.53-.98,0-1.78.8-1.78,1.78v12.2c0,3.12.98,6.09,2.83,8.6l5.93,7.74c.94,1.2,1.61,2.06,1.62,4.06h-2Z"/>
      <path class="cls-1" d="m25.46,57.63h-9.31c-1.79,0-3.24-1.45-3.24-3.24s1.45-3.24,3.24-3.24h9.31c1.78,0,3.24,1.45,3.24,3.24s-1.45,3.24-3.24,3.24Zm-9.31-4.47c-.68,0-1.24.55-1.24,1.24s.55,1.24,1.24,1.24h9.31c.68,0,1.24-.55,1.24-1.24s-.55-1.24-1.24-1.24h-9.31Z"/>
    </g>
    <g>
      <path class="cls-1" d="m44.56,52.16h-2c.01-2.01.69-2.88,1.63-4.08l.34-.44,5.6-7.31c1.84-2.5,2.82-5.47,2.82-8.59v-12.2c0-.98-.8-1.78-1.78-1.78-.48,0-.93.19-1.26.53-.34.34-.52.79-.52,1.27l.06,9.6c.01,2.14-.64,4.22-1.85,5.96-.12.18-.25.36-.39.53-.13.16-.26.31-.39.47l-5.22,5.81-2.25-.49,1.13-1.28,5.2-5.79c.09-.12.18-.24.27-.36.46-.76.45-1.7-.07-2.35-.38-.48-.92-.75-1.52-.76-.59-.02-1.16.23-1.55.66l-.08.08-6.4,5.71c-1.65,1.47-2.59,3.58-2.59,5.79v9.04h-2v-9.04c0-2.78,1.19-5.43,3.26-7.28l6.36-5.68c.79-.85,1.94-1.31,3.05-1.28,1.15.03,2.22.56,2.97,1.44.05-.38.08-.77.07-1.16l-.06-9.6c0-1.02.38-1.97,1.1-2.69.72-.72,1.67-1.12,2.68-1.12,2.09,0,3.78,1.7,3.78,3.78v12.2c0,3.55-1.11,6.93-3.22,9.79l-5.96,7.78c-.87,1.11-1.19,1.53-1.2,2.85Z"/>
      <path class="cls-1" d="m42.93,57.63h-9.31c-1.78,0-3.24-1.45-3.24-3.24s1.45-3.24,3.24-3.24h9.31c1.78,0,3.24,1.45,3.24,3.24s-1.45,3.24-3.24,3.24Zm-9.31-4.47c-.68,0-1.24.55-1.24,1.24s.55,1.24,1.24,1.24h9.31c.68,0,1.24-.55,1.24-1.24s-.55-1.24-1.24-1.24h-9.31Z"/>
    </g>
  </g>
  <g>
    <path class="cls-1" d="m29.55,36.61l-.66-.59c-1.65-1.47-3.23-2.83-4.71-4.11-8.32-7.19-13.81-11.94-13.81-18.81,0-6.33,4.34-11.11,10.09-11.11,4.63,0,7.73,2.39,9.09,3.72,1.37-1.33,4.46-3.72,9.09-3.72h0c5.75,0,10.09,4.78,10.09,11.11,0,6.87-5.5,11.62-13.81,18.81-1.48,1.28-3.05,2.64-4.71,4.11l-.66.59ZM20.45,4c-4.61,0-8.09,3.92-8.09,9.11,0,5.96,5.22,10.47,13.12,17.3,1.29,1.11,2.64,2.29,4.06,3.54,1.42-1.25,2.78-2.43,4.06-3.54,7.9-6.83,13.12-11.34,13.12-17.3,0-5.19-3.48-9.11-8.09-9.11-5.27,0-8.27,3.77-8.3,3.81l-.79,1.02-.79-1.02s-3.03-3.81-8.3-3.81Z"/>
    <path class="cls-1" d="m32.82,25.36h-6.55v-4.42h-4.42v-6.55h4.42v-4.42h6.55v4.42h4.42v6.55h-4.42v4.42Zm-4.55-2h2.55v-4.42h4.42v-2.55h-4.42v-4.42h-2.55v4.42h-4.42v2.55h4.42v4.42Z"/>
  </g>
</svg>