<?xml version="1.0" encoding="UTF-8"?>
<svg id="Layer_1" data-name="Layer 1" xmlns="http://www.w3.org/2000/svg" viewBox="0 0 60 60">
  <defs>
    <style>
      .cls-1 {
        fill: #37464c;
        stroke-width: 0px;
      }
    </style>
  </defs>
  <path class="cls-1" d="m31.24,56c-.64,0-1.28-.09-1.91-.27l-15.22-5.34c-.83-.26-1.73-.39-2.63-.39h-.48c-.55,0-1-.45-1-1s.45-1,1-1h.48c1.11,0,2.2.17,3.26.49l15.19,5.33c1.29.36,2.75.16,3.94-.58l19.17-11.51c.49-.31.84-.83.93-1.42.09-.6-.08-1.19-.49-1.66-.6-.69-1.67-.86-2.56-.41l-7.53,4.01c-.49.26-1.09.07-1.35-.41-.26-.49-.08-1.09.41-1.35l7.54-4.02c1.71-.88,3.81-.51,5,.87.78.91,1.13,2.1.95,3.27-.18,1.17-.86,2.2-1.86,2.82l-19.17,11.51c-1.11.69-2.39,1.05-3.68,1.05Z"/>
  <path class="cls-1" d="m39.83,46h-14.83c-.55,0-1-.45-1-1s.45-1,1-1h14.83c1.14,0,2.11-.85,2.17-1.89.03-.56-.17-1.08-.55-1.49-.38-.4-.9-.62-1.45-.62h-10.18c-1.31,0-2.53-.49-3.43-1.37-1.69-1.65-4.45-2.63-7.39-2.63-2.15,0-4.16.51-5.81,1.47-.59.35-1.31.53-2.07.53h-.12c-.55,0-1-.45-1-1s.45-1,1-1h.12c.41,0,.77-.09,1.06-.26,1.96-1.14,4.31-1.74,6.82-1.74,3.5,0,6.7,1.17,8.78,3.2.53.52,1.25.8,2.03.8h10.18c1.09,0,2.15.45,2.9,1.25.76.8,1.15,1.86,1.09,2.97-.11,2.12-1.94,3.79-4.17,3.79Z"/>
  <path class="cls-1" d="m34,36c-8.82,0-16-7.18-16-16S25.18,4,34,4s16,7.18,16,16-7.18,16-16,16Zm0-30c-7.72,0-14,6.28-14,14s6.28,14,14,14,14-6.28,14-14-6.28-14-14-14Z"/>
  <path class="cls-1" d="m11,54h-4c-.55,0-1-.45-1-1s.45-1,1-1h3v-16h-5c-.55,0-1-.45-1-1s.45-1,1-1h6c.55,0,1,.45,1,1v18c0,.55-.45,1-1,1Z"/>
  <path class="cls-1" d="m6,42c-1.1,0-2-.9-2-2s.9-2,2-2,2,.9,2,2-.9,2-2,2Zm0-2h0,0Zm0,0h0,0Zm0,0h0,0Zm0,0h0,0Zm0,0h0,0Zm0,0h0,0Zm0,0h0,0Zm0,0h0,0Z"/>
  <path class="cls-1" d="m37,30h-6c-.55,0-1-.45-1-1v-5h-5c-.55,0-1-.45-1-1v-6c0-.55.45-1,1-1h5v-5c0-.55.45-1,1-1h6c.55,0,1,.45,1,1v5h5c.55,0,1,.45,1,1v6c0,.55-.45,1-1,1h-5v5c0,.55-.45,1-1,1Zm-5-2h4v-5c0-.55.45-1,1-1h5v-4h-5c-.55,0-1-.45-1-1v-5h-4v5c0,.55-.45,1-1,1h-5v4h5c.55,0,1,.45,1,1v5Z"/>
</svg>