<?xml version="1.0" encoding="UTF-8"?>
<svg id="Layer_1" data-name="Layer 1" xmlns="http://www.w3.org/2000/svg" viewBox="0 0 60 60">
  <defs>
    <style>
      .cls-1 {
        fill: #37464c;
        stroke-width: 0px;
      }
    </style>
  </defs>
  <g>
    <path class="cls-1" d="m30.19,54.26c-6.49,0-12.6-2.53-17.19-7.12-4.59-4.59-7.12-10.7-7.12-17.19s2.53-12.6,7.12-17.19c4.59-4.59,10.7-7.12,17.19-7.12s12.6,2.53,17.19,7.12c4.59,4.59,7.12,10.7,7.12,17.19s-2.53,12.6-7.12,17.19h0c-4.59,4.59-10.7,7.12-17.19,7.12Zm0-46.78c-6,0-11.64,2.34-15.89,6.58-4.24,4.24-6.58,9.89-6.58,15.89s2.34,11.64,6.58,15.89c4.24,4.24,9.89,6.58,15.89,6.58s11.64-2.34,15.89-6.58h0c4.24-4.24,6.58-9.89,6.58-15.89s-2.34-11.64-6.58-15.89c-4.24-4.24-9.89-6.58-15.89-6.58Z"/>
    <path class="cls-1" d="m30.19,54.51c-6.56,0-12.73-2.55-17.37-7.19-4.64-4.64-7.19-10.8-7.19-17.37s2.55-12.73,7.19-17.37c4.64-4.64,10.8-7.19,17.37-7.19s12.73,2.55,17.37,7.19c4.64,4.64,7.19,10.81,7.19,17.37s-2.55,12.73-7.19,17.37c-4.64,4.64-10.8,7.19-17.37,7.19Zm0-48.62c-6.43,0-12.47,2.5-17.01,7.05-4.54,4.54-7.05,10.58-7.05,17.01s2.5,12.47,7.05,17.01c4.54,4.54,10.58,7.05,17.01,7.05s12.47-2.5,17.01-7.05c4.54-4.54,7.05-10.59,7.05-17.01s-2.5-12.47-7.05-17.01c-4.54-4.54-10.58-7.05-17.01-7.05Zm0,46.78c-6.07,0-11.77-2.36-16.07-6.65-4.29-4.29-6.66-10-6.66-16.07s2.36-11.78,6.66-16.07c4.29-4.29,10-6.65,16.07-6.65s11.77,2.36,16.07,6.65,6.65,10,6.65,16.07-2.36,11.77-6.65,16.07-10,6.65-16.07,6.65Zm0-44.94c-5.94,0-11.52,2.31-15.71,6.51-4.2,4.2-6.51,9.78-6.51,15.71s2.31,11.52,6.51,15.71c4.2,4.2,9.78,6.51,15.71,6.51s11.52-2.31,15.71-6.51,6.51-9.78,6.51-15.71-2.31-11.52-6.51-15.71-9.78-6.51-15.71-6.51Z"/>
  </g>
  <g>
    <path class="cls-1" d="m34.06,42.61h-7.74c-.51,0-.92-.41-.92-.92v-6.95h-6.95c-.51,0-.92-.41-.92-.92v-7.74c0-.51.41-.92.92-.92h6.95v-6.95c0-.51.41-.92.92-.92h7.74c.51,0,.92.41.92.92v6.95h6.95c.51,0,.92.41.92.92v7.74c0,.51-.41.92-.92.92h-6.95v6.95c0,.51-.41.92-.92.92Zm-6.82-1.84h5.9v-6.95c0-.51.41-.92.92-.92h6.95v-5.9h-6.95c-.51,0-.92-.41-.92-.92v-6.95h-5.9v6.95c0,.51-.41.92-.92.92h-6.95v5.9h6.95c.51,0,.92.41.92.92v6.95Z"/>
    <path class="cls-1" d="m34.06,42.86h-7.74c-.64,0-1.17-.52-1.17-1.17v-6.7h-6.7c-.65,0-1.17-.52-1.17-1.17v-7.74c0-.64.52-1.17,1.17-1.17h6.7v-6.7c0-.65.52-1.17,1.17-1.17h7.74c.65,0,1.17.52,1.17,1.17v6.7h6.7c.65,0,1.17.52,1.17,1.17v7.74c0,.65-.52,1.17-1.17,1.17h-6.7v6.7c0,.65-.52,1.17-1.17,1.17Zm-15.61-17.45c-.37,0-.67.3-.67.67v7.74c0,.37.3.67.67.67h7.2v7.2c0,.37.3.67.67.67h7.74c.37,0,.67-.3.67-.67v-7.2h7.2c.37,0,.67-.3.67-.67v-7.74c0-.37-.3-.67-.67-.67h-7.2v-7.2c0-.37-.3-.67-.67-.67h-7.74c-.37,0-.67.3-.67.67v7.2h-7.2Zm14.94,15.61h-6.4v-7.2c0-.37-.3-.67-.67-.67h-7.2v-6.4h7.2c.37,0,.67-.3.67-.67v-7.2h6.4v7.2c0,.37.3.67.67.67h7.2v6.4h-7.2c-.37,0-.67.3-.67.67v7.2Zm-5.9-.5h5.4v-6.7c0-.65.52-1.17,1.17-1.17h6.7v-5.4h-6.7c-.65,0-1.17-.52-1.17-1.17v-6.7h-5.4v6.7c0,.65-.52,1.17-1.17,1.17h-6.7v5.4h6.7c.65,0,1.17.52,1.17,1.17v6.7Z"/>
  </g>
</svg>