<?xml version="1.0" encoding="UTF-8"?>
<svg id="Layer_1" data-name="Layer 1" xmlns="http://www.w3.org/2000/svg" viewBox="0 0 60 60">
  <defs>
    <style>
      .cls-1 {
        fill: #37464c;
        stroke-width: 0px;
      }
    </style>
  </defs>
  <g>
    <polygon class="cls-1" points="29.9 55.14 12.22 37.73 13.07 36.88 29.9 53.45 48.37 35.35 49.21 36.21 29.9 55.14"/>
    <path class="cls-1" d="m29.9,55.84l-18.38-18.1,1.55-1.57,16.84,16.58,18.48-18.11,1.54,1.57-20.02,19.63Zm-16.97-18.11l16.97,16.71,18.61-18.24-.14-.15-18.46,18.1-16.83-16.57-.14.15Z"/>
  </g>
  <g>
    <path class="cls-1" d="m6.09,31.47c-1.72-2.43-2.62-5.29-2.62-8.28,0-7.93,6.46-14.39,14.39-14.39,4.86,0,9.39,2.47,12.04,6.51,2.65-4.04,7.17-6.51,12.04-6.51,7.93,0,14.39,6.46,14.39,14.39,0,2.15-.47,4.22-1.38,6.15l-1.09-.52c.84-1.77,1.27-3.66,1.27-5.64,0-7.27-5.92-13.19-13.19-13.19-4.77,0-9.18,2.59-11.51,6.76l-.53.94-.53-.94c-2.33-4.17-6.74-6.76-11.51-6.76-7.27,0-13.19,5.92-13.19,13.19,0,2.73.83,5.36,2.4,7.58l-.98.69Z"/>
    <path class="cls-1" d="m5.97,32.17l-.29-.41c-1.78-2.52-2.71-5.48-2.71-8.56,0-8.21,6.68-14.89,14.89-14.89,4.79,0,9.23,2.28,12.04,6.13,2.8-3.85,7.25-6.13,12.04-6.13,8.21,0,14.89,6.68,14.89,14.89,0,2.23-.48,4.37-1.43,6.37l-.21.45-1.99-.95.22-.45c.81-1.7,1.22-3.52,1.22-5.42,0-6.99-5.69-12.69-12.69-12.69-4.59,0-8.83,2.49-11.07,6.51l-.96,1.72-.96-1.72c-2.25-4.01-6.49-6.51-11.08-6.51-7,0-12.69,5.69-12.69,12.69,0,2.63.8,5.15,2.31,7.3l.29.41-1.8,1.27Zm11.89-22.86c-7.66,0-13.89,6.23-13.89,13.89,0,2.71.78,5.32,2.25,7.58l.17-.12c-1.45-2.22-2.21-4.79-2.21-7.46,0-7.55,6.14-13.69,13.69-13.69,4.95,0,9.53,2.69,11.95,7.02l.09.16.09-.16c2.42-4.33,7-7.02,11.95-7.02,7.55,0,13.69,6.14,13.69,13.69,0,1.88-.37,3.69-1.11,5.4l.18.09c.75-1.73,1.13-3.57,1.13-5.48,0-7.66-6.23-13.89-13.89-13.89-4.7,0-9.04,2.35-11.62,6.29l-.42.64-.42-.64c-2.58-3.94-6.92-6.29-11.62-6.29Z"/>
  </g>
  <g>
    <path class="cls-1" d="m27.62,43.22c-.32,0-.59-.23-.65-.54l-2.54-13.53-4.35,5.9H6.12v-1.2h13.36l4.92-6.68.47.05c.27.06.47.27.53.54l2.24,11.97,3.93-19.55.57-.03c.33,0,.59.25.64.57l1.81,14.08,3.42-3.5.4.04c.23.05.42.21.5.42l1.16,3.01,2.25-2.35h14.04v1.2h-13.52l-2.69,2.81-.4-.04c-.23-.05-.42-.21-.51-.43l-1.16-3.01-3.64,3.73-.45-.1c-.25-.08-.43-.3-.47-.56l-1.53-11.88-3.83,19.05-.56.05Zm-2.48-15.03h0s0,0,0,0Zm7.51-7.28h0s0,0,0,0Z"/>
    <path class="cls-1" d="m27.64,43.72h-.02c-.56,0-1.04-.4-1.14-.95l-2.33-12.4-3.82,5.18H5.62v-2.2h13.61l4.95-6.71.76.09c.52.11.87.48.96.95l1.77,9.44,3.5-17.4.95-.06c.1,0,.21.02.3.04l.74-3.33v3.9c.06.12.11.25.12.39l1.68,13.06,2.87-2.94.64.06c.45.09.77.36.92.74l.88,2.28,1.86-1.94h14.75v2.2h-13.81l-2.71,2.83-.65-.07c-.45-.09-.78-.37-.92-.75l-.88-2.28-3.29,3.37-.72-.16c-.49-.16-.79-.53-.85-.99l-1.14-8.87-3.31,16.44-.95.08Zm-2.92-15.8l2.75,14.66c.01.07.07.13.14.13h.15s3.9-19.42,3.9-19.42l-.08.12.61-2.76s-.04-.02-.07-.02h-.14s-4.36,21.7-4.36,21.7l-2.68-14.31-.19-.17.18.13h0s-.15-.16-.15-.16l.15.15-.03-.14c-.01-.07-.07-.13-.14-.15h-.13s-4.9,6.64-4.9,6.64H6.62v.2h13.21l4.88-6.62Zm7.57-5.56l1.75,13.58c0,.07.06.13.13.15l.12.03,3.99-4.09,1.44,3.74c.02.06.07.11.14.12h.11s2.67-2.78,2.67-2.78h13.24v-.2h-13.32l-2.65,2.77-1.44-3.75c-.02-.06-.07-.1-.14-.11h-.11s-3.98,4.06-3.98,4.06l-1.77-13.78-.17.26Z"/>
  </g>
  <g>
    <path class="cls-1" d="m52.84,23.54h-1.2c0-5.54-4.51-10.05-10.05-10.05v-1.2c6.2,0,11.25,5.05,11.25,11.25Z"/>
    <path class="cls-1" d="m53.34,24.04h-2.2v-.5c0-5.27-4.28-9.55-9.55-9.55h-.5v-2.2h.5c6.48,0,11.75,5.27,11.75,11.75v.5Zm-1.22-1h.2c-.25-5.53-4.71-9.99-10.24-10.24v.2c5.42.25,9.78,4.62,10.04,10.04Z"/>
  </g>
</svg>