<?xml version="1.0" encoding="UTF-8"?>
<svg id="Layer_1" data-name="Layer 1" xmlns="http://www.w3.org/2000/svg" viewBox="0 0 60 60">
  <defs>
    <style>
      .cls-1 {
        fill: #37464c;
        stroke-width: 0px;
      }
    </style>
  </defs>
  <g>
    <g>
      <path class="cls-1" d="m30.53,50.33c-.15,0-.3-.06-.4-.17l-11.43-11.59c-.22-.22-.22-.58,0-.8.22-.22.58-.22.8,0l11.03,11.18,10.75-10.89c.22-.22.58-.22.8,0s.22.58,0,.8l-11.15,11.3c-.11.11-.25.17-.4.17Z"/>
      <path class="cls-1" d="m30.53,50.7c-.25,0-.49-.1-.67-.28l-11.43-11.59c-.18-.18-.27-.42-.27-.67,0-.25.1-.49.28-.66.37-.36.97-.36,1.33,0l10.76,10.91,10.48-10.62c.17-.18.41-.28.66-.28,0,0,0,0,0,0,.25,0,.48.1.66.27.18.18.28.41.28.66,0,.25-.09.49-.27.67l-11.15,11.3c-.18.18-.42.28-.67.28Zm-11.43-12.72s-.1.02-.13.05c-.06.06-.06.21,0,.27l11.43,11.59c.07.07.2.07.27,0l11.15-11.3c.07-.07.07-.2,0-.27-.05-.05-.11-.05-.13-.05-.03,0-.08,0-.13.06l-11.01,11.16-11.3-11.45s-.09-.06-.14-.06Z"/>
    </g>
    <g>
      <path class="cls-1" d="m51.24,26.33s-.06,0-.1,0c-.31-.05-.51-.35-.46-.65.11-.64.17-1.3.17-1.96,0-6.33-5.15-11.48-11.47-11.48-3.19,0-6.26,1.35-8.43,3.72-.21.23-.62.23-.83,0-2.17-2.36-5.25-3.72-8.43-3.72-6.33,0-11.47,5.15-11.47,11.48,0,.58.04,1.17.13,1.74.05.31-.17.6-.47.64-.31.05-.6-.17-.64-.47-.1-.63-.14-1.27-.14-1.91,0-6.95,5.65-12.61,12.6-12.61,3.3,0,6.5,1.32,8.85,3.65,2.35-2.33,5.55-3.65,8.85-3.65,6.95,0,12.6,5.66,12.6,12.61,0,.72-.06,1.45-.18,2.16-.05.27-.29.47-.56.47Z"/>
      <path class="cls-1" d="m51.24,26.7s-.1,0-.15-.01c-.52-.09-.86-.58-.78-1.09.11-.62.16-1.26.16-1.9,0-6.12-4.98-11.11-11.1-11.11-3.08,0-6.06,1.31-8.16,3.6-.35.38-1.04.38-1.38,0-2.1-2.29-5.08-3.6-8.16-3.6-6.12,0-11.1,4.98-11.1,11.11,0,.56.04,1.13.13,1.68.08.51-.28.99-.79,1.07-.25.04-.5-.02-.7-.17-.2-.15-.33-.37-.37-.62-.1-.65-.15-1.31-.15-1.96,0-7.16,5.82-12.99,12.98-12.99,3.25,0,6.46,1.27,8.85,3.51,2.39-2.23,5.6-3.51,8.85-3.51,7.16,0,12.98,5.83,12.98,12.99,0,.74-.06,1.49-.19,2.22-.08.45-.47.78-.93.78Zm-11.86-14.85c6.53,0,11.85,5.32,11.85,11.86,0,.68-.06,1.36-.17,2.03-.02.1.05.2.16.22h.03c.09,0,.17-.06.19-.15.12-.69.18-1.39.18-2.09,0-6.75-5.49-12.24-12.23-12.24-3.18,0-6.31,1.29-8.59,3.54l-.26.26-.26-.26c-2.28-2.25-5.41-3.54-8.59-3.54-6.74,0-12.23,5.49-12.23,12.24,0,.62.05,1.24.14,1.85.01.09.14.17.22.16.09-.01.17-.13.16-.22-.09-.59-.13-1.19-.13-1.79,0-6.54,5.32-11.86,11.85-11.86,3.29,0,6.47,1.4,8.71,3.84.06.07.22.07.28,0,2.25-2.44,5.42-3.84,8.71-3.84Z"/>
    </g>
  </g>
  <g>
    <g>
      <path class="cls-1" d="m25.1,35.53c-.19,0-.37-.09-.47-.25l-4.95-7.45-3.28,4.01c-.11.13-.27.21-.44.21H5.05c-.31,0-.57-.25-.57-.57s.25-.57.57-.57h10.64l3.6-4.4c.11-.14.29-.22.47-.21.18,0,.34.1.44.25l4.85,7.3,8.01-14.72c.15-.27.49-.38.77-.23.27.15.38.49.23.77l-8.46,15.54c-.09.17-.27.29-.47.29,0,0-.02,0-.02,0Z"/>
      <path class="cls-1" d="m25.1,35.91c-.31,0-.61-.16-.78-.42l-4.67-7.02-2.96,3.62c-.18.22-.44.34-.73.34H5.05c-.52,0-.94-.42-.94-.94s.42-.94.94-.94h10.47l3.49-4.26c.19-.24.5-.37.78-.34.29.01.57.17.73.42l4.51,6.78,7.72-14.17c.12-.22.32-.38.56-.45.24-.07.5-.04.72.08.22.12.38.32.45.56.07.24.04.5-.08.72l-8.46,15.54c-.16.29-.46.47-.78.49h-.04Zm-5.39-8.71l5.23,7.87c.04.05.09.08.16.08v.38-.38c.08,0,.14-.04.17-.1l8.46-15.54c.04-.08,0-.22-.08-.26-.06-.03-.12-.02-.14-.01s-.08.03-.11.09l-8.31,15.26-5.2-7.82s-.09-.08-.15-.08c-.06-.02-.12.02-.16.07l-3.71,4.54H5.05c-.11,0-.19.08-.19.19s.08.19.19.19h10.91c.06,0,.11-.03.15-.07l3.61-4.41Z"/>
    </g>
    <g>
      <path class="cls-1" d="m54.62,33.79h-14.02c-.21,0-.41-.12-.51-.31l-6.87-13.8c-.14-.28-.03-.62.25-.76.28-.14.62-.03.76.25l6.71,13.49h13.67c.31,0,.57.25.57.57s-.25.57-.57.57Z"/>
      <path class="cls-1" d="m54.62,34.17h-14.02c-.36,0-.68-.2-.84-.52l-6.87-13.8c-.11-.22-.13-.48-.05-.72s.25-.43.47-.54c.23-.11.48-.13.72-.05.24.08.43.25.54.47l6.61,13.28h13.44c.52,0,.94.42.94.94s-.42.94-.94.94Zm-20.89-14.93s-.06,0-.08.02c-.06.03-.09.08-.1.11,0,.03-.02.08,0,.14l6.87,13.8c.03.06.1.1.17.1h14.02c.11,0,.19-.08.19-.19s-.08-.19-.19-.19h-13.9l-6.82-13.7s-.06-.08-.11-.1c-.02,0-.04,0-.06,0Z"/>
    </g>
  </g>
</svg>