<?xml version="1.0" encoding="UTF-8"?>
<svg id="Layer_1" data-name="Layer 1" xmlns="http://www.w3.org/2000/svg" viewBox="0 0 60 60">
  <defs>
    <style>
      .cls-1 {
        fill: #37464c;
        stroke-width: 0px;
      }
    </style>
  </defs>
  <g>
    <path class="cls-1" d="m50.96,39.14l-8.49-8.49c-.1-.1-.23-.15-.37-.15h-19.15c-1.67,0-3.02,1.36-3.02,3.02s1.36,3.02,3.02,3.02h12.4v1h-12.4c-2.22,0-4.02-1.81-4.02-4.02s1.81-4.02,4.02-4.02h19.15c.4,0,.79.16,1.07.44l8.49,8.49-.71.71Z"/>
    <path class="cls-1" d="m50.96,39.85l-8.84-8.84h-19.16c-1.39,0-2.52,1.13-2.52,2.52s1.13,2.52,2.52,2.52h12.9v2h-12.9c-2.5,0-4.52-2.03-4.52-4.52s2.03-4.52,4.52-4.52h19.15c.53,0,1.05.22,1.43.59l8.84,8.84-1.41,1.41Zm-8.37-9.72c.09.05.17.1.23.17l5.72,5.72-5.72-5.72c-.07-.07-.15-.13-.23-.17Zm-19.63-.12c-1.94,0-3.52,1.58-3.52,3.52,0-1.94,1.58-3.52,3.52-3.52h19.15-19.15Zm19.63.12s0,0,0,0c0,0,0,0,0,0Zm-.47-.12h0Z"/>
  </g>
  <g>
    <path class="cls-1" d="m43.4,46.4l-4.03-4.03c-.1-.1-.24-.15-.37-.15h-20.91c-.4,0-.8-.16-1.08-.45l-12.55-12.55c-1.57-1.57-1.57-4.12,0-5.69,1.57-1.57,4.12-1.57,5.69,0l9.71,9.7-.71.71-9.7-9.7c-1.18-1.18-3.1-1.18-4.28,0-1.18,1.18-1.18,3.1,0,4.28l12.55,12.55c.1.1.24.16.38.16h20.91c.41,0,.79.16,1.08.45l4.03,4.03-.71.71Z"/>
    <path class="cls-1" d="m43.4,47.11l-4.38-4.38h-20.93c-.54,0-1.06-.23-1.44-.61l-12.55-12.55c-1.76-1.76-1.76-4.63,0-6.4.85-.85,1.99-1.32,3.2-1.32h0c1.21,0,2.35.47,3.2,1.32l10.06,10.06-1.41,1.41-10.06-10.06c-.98-.98-2.59-.98-3.57,0-.98.98-.98,2.59,0,3.57l12.55,12.55h20.93c.54,0,1.05.22,1.43.6l4.38,4.38-1.41,1.41Zm-4.4-5.39c.27,0,.53.11.72.3l2.8,2.8-2.79-2.8c-.19-.19-.45-.3-.72-.3Zm0,0h0,0Zm-21.43-.14c.16.09.34.14.52.14h20.91-20.91c-.18,0-.36-.05-.52-.14ZM7.29,22.85h0c-.9,0-1.75.33-2.4.94,1.34-1.24,3.41-1.26,4.77-.03-.65-.59-1.48-.91-2.37-.91Z"/>
  </g>
  <g>
    <path class="cls-1" d="m44.9,53.96l-3.92-3.92c-.59-.59-.59-1.55,0-2.14l12.02-12.02.71.71-12.02,12.02c-.2.2-.2.52,0,.72l3.92,3.92-.71.71Z"/>
    <path class="cls-1" d="m44.9,54.67l-4.27-4.27c-.38-.38-.59-.88-.59-1.42s.21-1.04.59-1.42l12.38-12.38,1.41,1.41-12.38,12.38,4.27,4.29-1.41,1.41Zm-3.83-5.45c.03.13.09.26.17.37-.08-.11-.14-.24-.17-.37Z"/>
  </g>
  <g>
    <g>
      <path class="cls-1" d="m16.58,20.64c-.15,0-.3-.07-.4-.2-2.72-3.55-2.38-8.61.78-11.78,1.69-1.69,3.94-2.62,6.34-2.62s4.64.93,6.34,2.62c.32.32.62.68.9,1.06.28-.39.58-.74.9-1.06,1.69-1.69,3.94-2.62,6.34-2.62s4.64.93,6.34,2.62c3.12,3.12,3.52,7.99.94,11.56-.16.22-.48.27-.7.11-.22-.16-.28-.47-.11-.7,2.29-3.18,1.94-7.5-.84-10.27-1.5-1.5-3.5-2.33-5.63-2.33s-4.12.83-5.63,2.33c-.44.44-.83.95-1.18,1.52l-.43.71-.43-.71c-.34-.57-.74-1.08-1.18-1.52-1.5-1.5-3.5-2.33-5.63-2.33s-4.13.83-5.63,2.33c-2.81,2.81-3.11,7.31-.7,10.46.17.22.13.53-.09.7-.09.07-.2.1-.3.1Z"/>
      <path class="cls-1" d="m16.58,21.14c-.31,0-.6-.14-.79-.39-2.87-3.75-2.51-9.09.83-12.43,1.79-1.79,4.16-2.77,6.69-2.77s4.9.98,6.69,2.77c.19.19.37.39.55.6.18-.21.36-.41.55-.6,1.79-1.79,4.16-2.77,6.69-2.77s4.9.98,6.69,2.77c3.3,3.3,3.71,8.43,1,12.21-.33.45-.95.55-1.4.23-.22-.15-.36-.39-.4-.65s.02-.53.17-.75c2.14-2.98,1.81-7.03-.79-9.63-1.41-1.41-3.28-2.19-5.28-2.19s-3.87.78-5.28,2.19c-.41.41-.78.89-1.11,1.43l-.86,1.42-.85-1.42c-.32-.54-.7-1.02-1.11-1.43-1.41-1.41-3.28-2.19-5.28-2.19s-3.87.78-5.28,2.19c-2.63,2.64-2.92,6.85-.65,9.8.16.21.23.48.2.74-.04.26-.17.5-.38.66-.18.13-.39.21-.61.21Zm27.95-11.25c2.23,2.93,2.33,6.99.13,10.05,2.2-3.06,2.1-7.12-.13-10.05Zm-28.21.35c-.7,1.02-1.15,2.17-1.35,3.35.2-1.19.65-2.33,1.35-3.35Zm13.86-.16c.13.18.25.37.37.56.35-.58.75-1.1,1.19-1.55-.28.29-.54.6-.79.94l-.41.56-.37-.51Zm7.6-3.54c-2.04,0-3.97.72-5.5,2.03,1.53-1.31,3.46-2.03,5.5-2.03Zm-14.48,0c-1.99,0-3.87.68-5.39,1.93,1.51-1.25,3.4-1.93,5.39-1.93Zm5.32,1.88s0,0,0,0c0,0,0,0,0,0Zm-5.32-1.88c1.96,0,3.82.66,5.32,1.88-1.5-1.22-3.36-1.88-5.32-1.88Zm19.79,1.87s0,0,0,0c0,0,0,0,0,0Zm-5.31-1.87c1.96,0,3.81.66,5.31,1.87-1.5-1.21-3.35-1.87-5.31-1.87Z"/>
    </g>
    <g>
      <path class="cls-1" d="m35.69,30.31c-.13,0-.26-.05-.35-.15-.2-.2-.2-.51,0-.71l6.81-6.81c.2-.2.51-.2.71,0s.2.51,0,.71l-6.81,6.81c-.1.1-.23.15-.35.15Z"/>
      <path class="cls-1" d="m35.69,30.81c-.27,0-.52-.1-.71-.29-.39-.39-.39-1.02,0-1.41l6.81-6.81c.39-.39,1.02-.39,1.41,0,.39.39.39,1.02,0,1.41l-6.81,6.81c-.19.19-.44.29-.71.29Zm0-1v.5-.5h0Z"/>
    </g>
    <g>
      <path class="cls-1" d="m25.17,30.09c-.13,0-.26-.05-.35-.15l-6.68-6.68c-.2-.2-.2-.51,0-.71.2-.2.51-.2.71,0l6.68,6.68c.2.2.2.51,0,.71-.1.1-.23.15-.35.15Z"/>
      <path class="cls-1" d="m25.17,30.59c-.27,0-.52-.1-.71-.29l-6.68-6.68c-.39-.39-.39-1.02,0-1.41.39-.39,1.02-.39,1.41,0l6.68,6.68c.39.39.39,1.02,0,1.41-.19.19-.44.29-.71.29Zm0-1v.5-.5h0Z"/>
    </g>
    <g>
      <path class="cls-1" d="m32.18,26.67s-.03,0-.04,0c-.18-.01-.33-.12-.41-.28l-5.04-10.2-2.89,5.44c-.09.16-.26.27-.44.27h-9.31c-.28,0-.5-.22-.5-.5s.22-.5.5-.5h9.01l3.21-6.04c.09-.16.24-.23.45-.27.19,0,.36.11.44.28l5.1,10.32,2.86-4.08c.09-.13.25-.21.41-.21h11.5c.28,0,.5.22.5.5s-.22.5-.5.5h-11.24l-3.2,4.56c-.09.13-.25.21-.41.21Z"/>
      <path class="cls-1" d="m32.18,27.17h-.08c-.35-.03-.67-.24-.82-.56l-4.61-9.32-2.43,4.58c-.17.33-.51.53-.88.53h-9.31c-.55,0-1-.45-1-1s.45-1,1-1h8.71l3.06-5.77c.23-.43.67-.5.81-.52h0c.46,0,.8.21.97.55l4.73,9.56,2.38-3.39c.19-.27.49-.43.82-.43h11.5c.55,0,1,.45,1,1s-.45,1-1,1h-10.98l-3.05,4.34c-.19.27-.49.43-.82.43Zm0-1v.5-.5h0Zm0,0h0s1.57-2.23,1.57-2.23l-1.57,2.23Zm-18.13-4.77h9.31l3.34-6.29s-.01,0-.01,0l-3.33,6.28h-9.31Z"/>
    </g>
  </g>
</svg>