<?xml version="1.0" encoding="UTF-8"?>
<svg id="Layer_1" data-name="Layer 1" xmlns="http://www.w3.org/2000/svg" viewBox="0 0 60 60">
  <defs>
    <style>
      .cls-1 {
        fill: #37464c;
        stroke-width: 0px;
      }
    </style>
  </defs>
  <g>
    <path class="cls-1" d="m40.6,46.25h-5.98c-1,0-1.81-.81-1.81-1.81v-8.49h-5.99v8.49c0,1-.81,1.81-1.81,1.81h-5.98c-1,0-1.81-.81-1.81-1.81v-25.51c0-1,.81-1.81,1.81-1.81h5.98c1,0,1.81.81,1.81,1.81v8.49h5.99v-8.49c0-1,.81-1.81,1.81-1.81h5.98c1,0,1.81.81,1.81,1.81v25.51c0,1-.81,1.81-1.81,1.81Zm-15.01-11.53h8.45v9.72c0,.32.26.58.58.58h5.98c.32,0,.58-.26.58-.58v-25.51c0-.32-.26-.58-.58-.58h-5.98c-.32,0-.58.26-.58.58v9.72h-8.45v-9.72c0-.32-.26-.58-.58-.58h-5.98c-.32,0-.58.26-.58.58v25.51c0,.32.26.58.58.58h5.98c.32,0,.58-.26.58-.58v-9.72Z"/>
    <path class="cls-1" d="m40.6,46.75h-5.98c-1.28,0-2.31-1.04-2.31-2.31v-7.99h-4.99v7.99c0,1.28-1.04,2.31-2.31,2.31h-5.98c-1.28,0-2.31-1.04-2.31-2.31v-25.51c0-1.28,1.04-2.31,2.31-2.31h5.98c1.28,0,2.31,1.04,2.31,2.31v7.99h4.99v-7.99c0-1.28,1.04-2.31,2.31-2.31h5.98c1.28,0,2.31,1.04,2.31,2.31v25.51c0,1.28-1.04,2.31-2.31,2.31Zm-14.28-11.3h6.99v8.99c0,.72.59,1.31,1.31,1.31h5.98c.72,0,1.31-.59,1.31-1.31v-25.51c0-.72-.59-1.31-1.31-1.31h-5.98c-.72,0-1.31.59-1.31,1.31v8.99h-6.99v-8.99c0-.72-.59-1.31-1.31-1.31h-5.98c-.72,0-1.31.59-1.31,1.31v25.51c0,.72.59,1.31,1.31,1.31h5.98c.72,0,1.31-.59,1.31-1.31v-8.99Zm14.28,10.07h-5.98c-.6,0-1.08-.48-1.08-1.08v-9.22h-7.45v9.22c0,.6-.49,1.08-1.08,1.08h-5.98c-.6,0-1.08-.48-1.08-1.08v-25.51c0-.6.49-1.08,1.08-1.08h5.98c.6,0,1.08.49,1.08,1.08v9.22h7.45v-9.22c0-.6.49-1.08,1.08-1.08h5.98c.6,0,1.08.49,1.08,1.08v25.51c0,.6-.49,1.08-1.08,1.08Zm-15.51-11.3h9.45v10.22s.04.08.08.08h5.98s.08-.04.08-.08v-25.51s-.04-.08-.08-.08h-5.98s-.08.04-.08.08v10.22h-9.45v-10.22s-.04-.08-.08-.08h-5.98s-.08.04-.08.08v25.51s.04.08.08.08h5.98s.08-.04.08-.08v-10.22Z"/>
  </g>
  <g>
    <path class="cls-1" d="m49.38,54.34H10.24c-1.7,0-3.08-1.38-3.08-3.08V12.12c0-1.7,1.38-3.08,3.08-3.08h39.14c1.7,0,3.08,1.38,3.08,3.08v39.14c0,1.7-1.38,3.08-3.08,3.08ZM10.24,10.27c-1.02,0-1.85.83-1.85,1.85v39.14c0,1.02.83,1.85,1.85,1.85h39.14c1.02,0,1.85-.83,1.85-1.85V12.12c0-1.02-.83-1.85-1.85-1.85H10.24Z"/>
    <path class="cls-1" d="m49.38,54.84H10.24c-1.98,0-3.58-1.61-3.58-3.58V12.12c0-1.98,1.61-3.58,3.58-3.58h39.14c1.98,0,3.58,1.61,3.58,3.58v39.14c0,1.98-1.61,3.58-3.58,3.58ZM10.24,9.53c-1.42,0-2.58,1.16-2.58,2.58v39.14c0,1.43,1.16,2.58,2.58,2.58h39.14c1.43,0,2.58-1.16,2.58-2.58V12.12c0-1.43-1.16-2.58-2.58-2.58H10.24Zm39.14,44.07H10.24c-1.3,0-2.35-1.06-2.35-2.35V12.12c0-1.3,1.06-2.35,2.35-2.35h39.14c1.3,0,2.35,1.06,2.35,2.35v39.14c0,1.3-1.06,2.35-2.35,2.35ZM10.24,10.77c-.75,0-1.35.61-1.35,1.35v39.14c0,.75.61,1.35,1.35,1.35h39.14c.75,0,1.35-.61,1.35-1.35V12.12c0-.75-.61-1.35-1.35-1.35H10.24Z"/>
  </g>
</svg>