<?xml version="1.0" encoding="UTF-8"?>
<svg id="Layer_1" data-name="Layer 1" xmlns="http://www.w3.org/2000/svg" viewBox="0 0 60 60">
  <defs>
    <style>
      .cls-1 {
        fill: #424242;
        stroke-width: 0px;
      }
    </style>
  </defs>
  <g>
    <path class="cls-1" d="m30.82,53.75h-13.28v-11.49h13.28v11.49Zm-11.88-1.4h10.48v-8.68h-10.48v8.68Z"/>
    <path class="cls-1" d="m23.29,39.25h-5.54v-5.54h5.54v5.54Zm-4.54-1h3.54v-3.54h-3.54v3.54Z"/>
    <path class="cls-1" d="m30.62,39.25h-5.54v-5.54h5.54v5.54Zm-4.54-1h3.54v-3.54h-3.54v3.54Z"/>
    <path class="cls-1" d="m23.29,30.49h-5.54v-5.54h5.54v5.54Zm-4.54-1h3.54v-3.54h-3.54v3.54Z"/>
    <path class="cls-1" d="m30.62,30.49h-5.54v-5.54h5.54v5.54Zm-4.54-1h3.54v-3.54h-3.54v3.54Z"/>
    <path class="cls-1" d="m35.37,53.75H13V16.37c0-1.06.86-1.92,1.92-1.92h1.48v1.4h-1.48c-.29,0-.52.23-.52.52v35.98h19.57V16.37c0-.29-.23-.52-.52-.52h-1.48v-1.4h1.48c1.06,0,1.92.86,1.92,1.92v37.38Z"/>
    <g>
      <path class="cls-1" d="m10.71,39.25h-5.54v-5.54h5.54v5.54Zm-4.54-1h3.54v-3.54h-3.54v3.54Z"/>
      <path class="cls-1" d="m10.71,48.01h-5.54v-5.54h5.54v5.54Zm-4.54-1h3.54v-3.54h-3.54v3.54Z"/>
      <path class="cls-1" d="m14.4,53.75H1.49v-22.03c0-6.73,5.48-12.21,12.21-12.21h.7v34.24Zm-11.51-1.4h10.11v-31.41c-5.63.36-10.11,5.06-10.11,10.78v20.63Z"/>
    </g>
    <g>
      <path class="cls-1" d="m43.19,39.25h-5.54v-5.54h5.54v5.54Zm-4.54-1h3.54v-3.54h-3.54v3.54Z"/>
      <path class="cls-1" d="m43.19,48.01h-5.54v-5.54h5.54v5.54Zm-4.54-1h3.54v-3.54h-3.54v3.54Z"/>
      <path class="cls-1" d="m46.88,53.75h-12.91V19.52h.7c1.21,0,2.4.18,3.55.52l-.41,1.34c-.79-.24-1.61-.39-2.44-.44v31.41h10.11v-18.72h1.4v20.12Z"/>
    </g>
    <g>
      <path class="cls-1" d="m24.18,21.79c-3.66,0-6.64-2.98-6.64-6.64s2.98-6.64,6.64-6.64,6.64,2.98,6.64,6.64-2.98,6.64-6.64,6.64Zm0-11.88c-2.89,0-5.24,2.35-5.24,5.24s2.35,5.24,5.24,5.24,5.24-2.35,5.24-5.24-2.35-5.24-5.24-5.24Z"/>
      <path class="cls-1" d="m25.89,19.19h-3.41v-2.34h-2.34v-3.41h2.34v-2.34h3.41v2.34h2.34v3.41h-2.34v2.34Zm-2.41-1h1.41v-2.34h2.34v-1.41h-2.34v-2.34h-1.41v2.34h-2.34v1.41h2.34v2.34Z"/>
    </g>
    <rect class="cls-1" x="23.48" y="42.97" width="1.4" height="10.08"/>
  </g>
  <g>
    <path class="cls-1" d="m46.24,28.54c-.13,0-.26-.05-.35-.15l-4.1-4.1c-.2-.2-.2-.51,0-.71l1.64-1.64c.09-.09.22-.15.35-.15h0c.13,0,.26.05.35.15l2.11,2.11,5.39-5.39c.09-.09.22-.15.35-.15h0c.13,0,.26.05.35.15l1.64,1.64c.2.2.2.51,0,.71l-7.38,7.38c-.1.1-.23.15-.35.15Zm-3.39-4.6l3.39,3.39,6.67-6.67-.93-.93-5.39,5.39c-.09.09-.22.15-.35.15h0c-.13,0-.26-.05-.35-.15l-2.11-2.11-.93.93Z"/>
    <path class="cls-1" d="m47.88,34.58c-6.09,0-11.05-4.96-11.05-11.05s4.96-11.05,11.05-11.05,11.05,4.96,11.05,11.05-4.96,11.05-11.05,11.05Zm0-20.5c-5.21,0-9.45,4.24-9.45,9.45s4.24,9.45,9.45,9.45,9.45-4.24,9.45-9.45-4.24-9.45-9.45-9.45Z"/>
  </g>
</svg>