<?xml version="1.0" encoding="UTF-8"?>
<svg id="Layer_1" data-name="Layer 1" xmlns="http://www.w3.org/2000/svg" viewBox="0 0 60 60">
  <defs>
    <style>
      .cls-1 {
        fill: #424242;
        stroke-width: 0px;
      }
    </style>
  </defs>
  <path class="cls-1" d="m37.77,55.26h-15.47v-13.4h15.47v13.4Zm-13.67-1.8h11.87v-9.8h-11.87v9.8Z"/>
  <path class="cls-1" d="m29.33,38.8h-7.03v-7.03h7.03v7.03Zm-5.23-1.8h3.43v-3.43h-3.43v3.43Z"/>
  <path class="cls-1" d="m37.77,38.8h-7.03v-7.03h7.03v7.03Zm-5.23-1.8h3.43v-3.43h-3.43v3.43Z"/>
  <path class="cls-1" d="m29.33,28.72h-7.03v-7.03h7.03v7.03Zm-5.23-1.8h3.43v-3.43h-3.43v3.43Z"/>
  <path class="cls-1" d="m37.77,28.72h-7.03v-7.03h7.03v7.03Zm-5.23-1.8h3.43v-3.43h-3.43v3.43Z"/>
  <path class="cls-1" d="m43,55.26h-25.93V12.16c0-1.27,1.03-2.31,2.31-2.31h1.7v1.8h-1.7c-.28,0-.51.23-.51.51v41.3h22.33V12.16c0-.28-.23-.51-.51-.51h-1.7v-1.8h1.7c1.27,0,2.31,1.03,2.31,2.31v43.1Z"/>
  <g>
    <path class="cls-1" d="m14.87,38.8h-7.03v-7.03h7.03v7.03Zm-5.23-1.8h3.43v-3.43h-3.43v3.43Z"/>
    <path class="cls-1" d="m14.87,28.72h-7.03v-7.03h7.03v7.03Zm-5.23-1.8h3.43v-3.43h-3.43v3.43Z"/>
    <path class="cls-1" d="m14.87,48.88h-7.03v-7.03h7.03v7.03Zm-5.23-1.8h3.43v-3.43h-3.43v3.43Z"/>
    <path class="cls-1" d="m18.87,55.26H3.83v-25.44c0-7.8,6.34-14.14,14.14-14.14h.9v39.58Zm-13.24-1.8h11.44V17.51c-6.38.46-11.44,5.8-11.44,12.31v23.64Z"/>
  </g>
  <g>
    <path class="cls-1" d="m52.23,38.8h-7.03v-7.03h7.03v7.03Zm-5.23-1.8h3.43v-3.43h-3.43v3.43Z"/>
    <path class="cls-1" d="m52.23,28.72h-7.03v-7.03h7.03v7.03Zm-5.23-1.8h3.43v-3.43h-3.43v3.43Z"/>
    <path class="cls-1" d="m52.23,48.88h-7.03v-7.03h7.03v7.03Zm-5.23-1.8h3.43v-3.43h-3.43v3.43Z"/>
    <path class="cls-1" d="m56.24,55.26h-15.04V15.68h.9c7.8,0,14.14,6.34,14.14,14.14v25.44Zm-13.24-1.8h11.44v-23.64c0-6.5-5.05-11.84-11.44-12.31v35.95Z"/>
  </g>
  <g>
    <path class="cls-1" d="m30.04,18.58c-4.32,0-7.83-3.51-7.83-7.83s3.51-7.83,7.83-7.83,7.83,3.51,7.83,7.83-3.51,7.83-7.83,7.83Zm0-13.67c-3.22,0-5.83,2.62-5.83,5.83s2.62,5.83,5.83,5.83,5.83-2.62,5.83-5.83-2.62-5.83-5.83-5.83Z"/>
    <path class="cls-1" d="m32.07,15.47h-4.07v-2.69h-2.69v-4.07h2.69v-2.69h4.07v2.69h2.69v4.07h-2.69v2.69Zm-2.77-1.3h1.47v-2.69h2.69v-1.47h-2.69v-2.69h-1.47v2.69h-2.69v1.47h2.69v2.69Z"/>
  </g>
  <rect class="cls-1" x="29.13" y="42.76" width="1.8" height="11.6"/>
</svg>