<?xml version="1.0" encoding="UTF-8"?>
<svg id="Layer_1" data-name="Layer 1" xmlns="http://www.w3.org/2000/svg" viewBox="0 0 60 60">
  <defs>
    <style>
      .cls-1 {
        fill: #37464c;
        stroke-width: 0px;
      }
    </style>
  </defs>
  <g>
    <path class="cls-1" d="m30.67,37.89c-9.11,0-16.53-7.41-16.53-16.52S21.56,4.86,30.67,4.86s16.53,7.41,16.53,16.52-7.41,16.52-16.53,16.52Zm0-31.86c-8.46,0-15.35,6.88-15.35,15.34s6.89,15.34,15.35,15.34,15.35-6.88,15.35-15.34-6.89-15.34-15.35-15.34Z"/>
    <path class="cls-1" d="m30.67,38.26c-9.32,0-16.9-7.58-16.9-16.89S21.35,4.48,30.67,4.48s16.9,7.58,16.9,16.89-7.58,16.89-16.9,16.89Zm0-33.03c-8.91,0-16.15,7.24-16.15,16.14s7.25,16.14,16.15,16.14,16.15-7.24,16.15-16.14S39.58,5.23,30.67,5.23Zm0,31.86c-8.67,0-15.73-7.05-15.73-15.72s7.05-15.72,15.73-15.72,15.73,7.05,15.73,15.72-7.05,15.72-15.73,15.72Zm0-30.68c-8.26,0-14.98,6.71-14.98,14.97s6.72,14.97,14.98,14.97,14.98-6.71,14.98-14.97-6.72-14.97-14.98-14.97Z"/>
  </g>
  <g>
    <path class="cls-1" d="m36.92,56.92h-12.5c-1.13,0-2.05-.92-2.05-2.05v-5.68c0-1.13.92-2.05,2.05-2.05h12.5c1.13,0,2.05.92,2.05,2.05v5.68c0,1.13-.92,2.05-2.05,2.05Zm-12.5-8.61c-.48,0-.88.39-.88.88v5.68c0,.48.39.88.88.88h12.5c.48,0,.88-.39.88-.88v-5.68c0-.48-.39-.88-.88-.88h-12.5Z"/>
    <path class="cls-1" d="m36.92,57.29h-12.5c-1.34,0-2.43-1.09-2.43-2.43v-5.68c0-1.34,1.09-2.43,2.43-2.43h12.5c1.34,0,2.43,1.09,2.43,2.43v5.68c0,1.34-1.09,2.43-2.43,2.43Zm-12.5-9.79c-.92,0-1.68.75-1.68,1.68v5.68c0,.92.75,1.68,1.68,1.68h12.5c.92,0,1.68-.75,1.68-1.68v-5.68c0-.92-.75-1.68-1.68-1.68h-12.5Zm12.5,8.61h-12.5c-.69,0-1.25-.56-1.25-1.25v-5.68c0-.69.56-1.25,1.25-1.25h12.5c.69,0,1.25.56,1.25,1.25v5.68c0,.69-.56,1.25-1.25,1.25Zm-12.5-7.43c-.28,0-.5.22-.5.5v5.68c0,.28.23.5.5.5h12.5c.28,0,.5-.23.5-.5v-5.68c0-.28-.23-.5-.5-.5h-12.5Z"/>
  </g>
  <g>
    <g>
      <path class="cls-1" d="m24.41,48.31c-.27,0-.51-.18-.57-.45l-3.23-13.54c-.08-.32.12-.63.44-.71.32-.08.63.12.71.44l3.23,13.54c.08.32-.12.63-.44.71-.05.01-.09.02-.14.02Z"/>
      <path class="cls-1" d="m24.41,48.68c-.45,0-.83-.3-.94-.74l-3.23-13.54c-.06-.25-.02-.51.12-.73.13-.22.35-.37.6-.43s.51-.02.73.12c.22.13.37.35.43.6l3.23,13.54c.12.52-.2,1.04-.71,1.16-.08.02-.15.03-.22.03Zm-3.23-14.72s-.03,0-.05,0c-.06.01-.1.05-.13.1-.03.05-.04.11-.03.16l3.23,13.54c.03.11.11.19.26.16.11-.03.18-.14.15-.26l-3.23-13.54c-.01-.06-.05-.1-.1-.13-.03-.02-.07-.03-.11-.03Z"/>
    </g>
    <g>
      <path class="cls-1" d="m36.94,48.31s-.09,0-.14-.02c-.32-.08-.51-.39-.44-.71l3.23-13.54c.08-.32.39-.51.71-.44.32.08.51.39.44.71l-3.23,13.54c-.06.27-.31.45-.57.45Z"/>
      <path class="cls-1" d="m36.94,48.68c-.07,0-.15,0-.22-.03-.52-.12-.84-.64-.71-1.16l3.23-13.54c.12-.52.65-.84,1.16-.71.25.06.46.21.6.43.13.22.18.48.12.73l-3.23,13.54c-.1.44-.49.74-.94.74Zm3.23-14.72c-.1,0-.18.07-.21.16l-3.23,13.54c-.03.11.04.23.16.26h.05c.1,0,.18-.06.21-.16l3.23-13.54c.01-.06,0-.11-.03-.16-.03-.05-.08-.08-.13-.09-.02,0-.03,0-.05,0Z"/>
    </g>
  </g>
  <g>
    <path class="cls-1" d="m30.67,48.31c-.32,0-.59-.26-.59-.59v-10.42c0-.32.26-.59.59-.59s.59.26.59.59v10.42c0,.32-.26.59-.59.59Z"/>
    <path class="cls-1" d="m30.67,48.68c-.53,0-.96-.43-.96-.96v-10.42c0-.53.43-.96.96-.96s.96.43.96.96v10.42c0,.53-.43.96-.96.96Zm0-11.59c-.12,0-.21.1-.21.21v10.42c0,.23.43.23.43,0v-10.42c0-.12-.1-.21-.21-.21Z"/>
  </g>
  <g>
    <path class="cls-1" d="m30.67,34.56c-7.27,0-13.19-5.91-13.19-13.18s5.92-13.18,13.19-13.18,13.19,5.91,13.19,13.18-5.92,13.18-13.19,13.18Zm0-25.19c-6.63,0-12.02,5.39-12.02,12.01s5.39,12.01,12.02,12.01,12.02-5.39,12.02-12.01-5.39-12.01-12.02-12.01Z"/>
    <path class="cls-1" d="m30.67,34.93c-7.48,0-13.57-6.08-13.57-13.56s6.09-13.56,13.57-13.56,13.57,6.08,13.57,13.56-6.09,13.56-13.57,13.56Zm0-26.37c-7.07,0-12.82,5.75-12.82,12.81s5.75,12.81,12.82,12.81,12.82-5.75,12.82-12.81-5.75-12.81-12.82-12.81Zm0,25.19c-6.83,0-12.39-5.55-12.39-12.38s5.56-12.38,12.39-12.38,12.39,5.55,12.39,12.38-5.56,12.38-12.39,12.38Zm0-24.01c-6.42,0-11.64,5.22-11.64,11.63s5.22,11.63,11.64,11.63,11.64-5.22,11.64-11.63-5.22-11.63-11.64-11.63Z"/>
  </g>
</svg>