<?xml version="1.0" encoding="UTF-8"?>
<svg id="Layer_1" data-name="Layer 1" xmlns="http://www.w3.org/2000/svg" viewBox="0 0 56 52">
  <defs>
    <style>
      .cls-1 {
        fill: #37464c;
        stroke-width: 0px;
      }
    </style>
  </defs>
  <path class="cls-1" d="M30,35c5.514,0,10-4.486,10-10,0-3.147-1.464-5.955-3.744-7.789l4.919-7.567c.567.224,1.18.356,1.825.356,2.757,0,5-2.243,5-5s-2.243-5-5-5-5,2.243-5,5c0,1.392.574,2.65,1.495,3.557l-4.916,7.563c-1.374-.711-2.928-1.12-4.579-1.12-2.642,0-5.04,1.037-6.83,2.716l-4.187-4.727c.629-.836,1.016-1.864,1.016-2.989,0-2.757-2.243-5-5-5s-5,2.243-5,5,2.243,5,5,5c.908,0,1.749-.262,2.484-.687l4.359,4.922c-1.156,1.631-1.843,3.617-1.843,5.765h0s0,.002,0,.002c0,2.759,1.124,5.259,2.937,7.07l-3.885,5.38c-.628-.284-1.319-.452-2.052-.452-2.757,0-5,2.243-5,5s2.243,5,5,5,5-2.243,5-5c0-1.303-.513-2.48-1.332-3.371l3.822-5.292c1.581,1.049,3.474,1.663,5.51,1.663ZM43,2c1.654,0,3,1.346,3,3s-1.346,3-3,3c-.602,0-1.161-.182-1.631-.488,0,0,0,0,0,0,0,0-.002,0-.002,0-.82-.536-1.366-1.459-1.366-2.51,0-1.654,1.346-3,3-3ZM17,45c-1.654,0-3-1.346-3-3s1.346-3,3-3c.651,0,1.249.213,1.741.567.004.003.005.007.009.01.002.002.005.002.007.004.75.546,1.243,1.424,1.243,2.42,0,1.654-1.346,3-3,3ZM12,10c0-1.654,1.346-3,3-3s3,1.346,3,3c0,.886-.394,1.676-1.007,2.225-.004.004-.01.005-.015.008-.003.003-.004.007-.007.009-.529.465-1.214.757-1.971.757-1.654,0-3-1.346-3-3ZM22,25c0-4.411,3.589-8,8-8s8,3.589,8,8c0,2.585-1.238,4.881-3.146,6.344-.004.003-.01.004-.014.007-.003.003-.004.007-.008.01-1.344,1.024-3.016,1.639-4.832,1.639-4.411,0-8-3.589-8-8Z"/>
  <path class="cls-1" d="M30,31c3.309,0,6-2.691,6-6s-2.691-6-6-6-6,2.691-6,6,2.691,6,6,6ZM30,21c2.206,0,4,1.794,4,4s-1.794,4-4,4-4-1.794-4-4,1.794-4,4-4Z"/>
  <path class="cls-1" d="M5,20c-2.757,0-5,2.243-5,5s2.243,5,5,5,4.998-2.242,5-4.997c0,0,0,0,0-.001,0,0,0,0,0,0,0,0,0,0,0,0,0-2.757-2.243-5-5-5ZM5,28c-1.654,0-3-1.346-3-3s1.346-3,3-3,3,1.346,3,3-1.346,3-3,3Z"/>
  <path class="cls-1" d="M46,40c-1.069,0-2.071.284-2.941.776-.309-.111-.662-.086-.95.126-.26.2-.39.5-.39.8,0,.029.011.057.014.086-1.071,1.084-1.734,2.572-1.734,4.213,0,3.309,2.691,6,6,6s6-2.691,6-6-2.691-6-6-6ZM46,50c-2.206,0-4-1.794-4-4s1.794-4,4-4,4,1.794,4,4-1.794,4-4,4Z"/>
  <circle class="cls-1" cx="13" cy="25.001" r="1"/>
  <circle class="cls-1" cx="17" cy="25.001" r="1"/>
  <path class="cls-1" d="M37.27,34.541c-.26.19-.399.5-.399.8,0,.21.069.42.21.6.189.26.489.39.79.39.21,0,.43-.06.609-.2.261-.2.391-.5.391-.81,0-.21-.07-.42-.2-.59-.34-.44-.97-.53-1.4-.19Z"/>
  <path class="cls-1" d="M40.899,39.311c.261-.2.4-.5.4-.81-.01-.2-.07-.41-.21-.59-.33-.44-.96-.53-1.4-.19-.26.2-.399.5-.39.8,0,.21.06.42.2.6.2.26.49.39.8.39.21,0,.42-.06.6-.2Z"/>
  <path class="cls-1" d="M46.364,32.778c.195.195.451.293.707.293s.512-.098.707-.293c4.289-4.289,4.289-11.268,0-15.557-.391-.391-1.023-.391-1.414,0s-.391,1.023,0,1.414c3.509,3.509,3.509,9.219,0,12.729-.391.391-.391,1.023,0,1.414Z"/>
  <path class="cls-1" d="M43.351,28.589c.188.161.419.239.649.239.282,0,.562-.119.761-.351,1.664-1.95,1.664-5.005,0-6.955-.36-.422-.991-.47-1.41-.112-.42.358-.47.99-.111,1.41,1.008,1.182,1.008,3.178,0,4.359-.358.42-.309,1.051.111,1.41Z"/>
  <path class="cls-1" d="M54,25c0,4.007-1.561,7.773-4.394,10.607-.391.391-.391,1.023,0,1.414.195.195.451.293.707.293s.512-.098.707-.293c3.211-3.211,4.979-7.48,4.979-12.021s-1.769-8.81-4.979-12.021c-.391-.391-1.023-.391-1.414,0s-.391,1.024,0,1.414c2.833,2.833,4.394,6.6,4.394,10.606Z"/>
</svg>