<?xml version="1.0" encoding="UTF-8"?>
<svg id="Layer_1" data-name="Layer 1" xmlns="http://www.w3.org/2000/svg" viewBox="0 0 60 60">
  <defs>
    <style>
      .cls-1 {
        fill: #37464c;
        stroke-width: 0px;
      }
    </style>
  </defs>
  <g>
    <path class="cls-1" d="m33.86,17.72c-.55,0-1-.45-1-1v-6.58c0-.55.45-1,1-1s1,.45,1,1v6.58c0,.55-.45,1-1,1Z"/>
    <path class="cls-1" d="m43.73,11.13h-19.75c-.55,0-1-.45-1-1V3.55c0-.55.45-1,1-1h19.75c.55,0,1,.45,1,1v6.58c0,.55-.45,1-1,1Zm-18.75-2h17.75v-4.58h-17.75v4.58Z"/>
    <path class="cls-1" d="m49.12,28.03h-2v-10.31h-24.28v-2h25.28c.55,0,1,.45,1,1v11.31Z"/>
    <path class="cls-1" d="m19.59,20.07c-.55,0-1-.45-1-1v-2.35c0-.55.45-1,1-1h3.25c.55,0,1,.45,1,1s-.45,1-1,1h-2.25v1.35c0,.55-.45,1-1,1Z"/>
    <path class="cls-1" d="m19.59,41.86c-.55,0-1-.45-1-1v-6.58c0-.55.45-1,1-1s1,.45,1,1v6.58c0,.55-.45,1-1,1Z"/>
    <path class="cls-1" d="m48.12,41.86c-.55,0-1-.45-1-1v-6.58c0-.55.45-1,1-1s1,.45,1,1v6.58c0,.55-.45,1-1,1Z"/>
    <path class="cls-1" d="m10.81,48.44c-.55,0-1-.45-1-1v-6.58c0-.55.45-1,1-1h10.97c.55,0,1,.45,1,1s-.45,1-1,1h-9.97v5.58c0,.55-.45,1-1,1Z"/>
    <path class="cls-1" d="m28.37,35.27H10.81c-.55,0-1-.45-1-1v-6.58c0-.55.45-1,1-1h2.05c.55,0,1,.45,1,1s-.45,1-1,1h-1.05v4.58h15.56v-4.58h-1.42c-.55,0-1-.45-1-1s.45-1,1-1h2.42c.55,0,1,.45,1,1v6.58c0,.55-.45,1-1,1Z"/>
    <path class="cls-1" d="m19.59,55.03H2.03c-.55,0-1-.45-1-1v-6.58c0-.55.45-1,1-1h17.56c.55,0,1,.45,1,1v6.58c0,.55-.45,1-1,1Zm-16.56-2h15.56v-4.58H3.03v4.58Z"/>
    <path class="cls-1" d="m56.9,48.44h-8.78c-.55,0-1-.45-1-1s.45-1,1-1h7.78v-4.58h-9.97c-.55,0-1-.45-1-1s.45-1,1-1h10.97c.55,0,1,.45,1,1v6.58c0,.55-.45,1-1,1Z"/>
    <path class="cls-1" d="m56.9,35.27h-17.56c-.55,0-1-.45-1-1v-6.58c0-.55.45-1,1-1h17.56c.55,0,1,.45,1,1v6.58c0,.55-.45,1-1,1Zm-16.56-2h15.56v-4.58h-15.56v4.58Z"/>
  </g>
  <polygon class="cls-1" points="21.04 26.52 23.07 24.49 21.62 23.04 19.59 25.07 17.56 23.04 16.11 24.49 18.14 26.52 16.11 28.55 17.56 30 19.59 27.97 21.62 30 23.07 28.55 21.04 26.52"/>
  <polygon class="cls-1" points="43.9 46.23 45.93 44.2 44.48 42.76 42.45 44.78 40.42 42.76 38.97 44.2 41 46.23 38.97 48.26 40.42 49.71 42.45 47.68 44.48 49.71 45.93 48.26 43.9 46.23"/>
</svg>