<?xml version="1.0" encoding="UTF-8"?>
<svg id="Layer_1" data-name="Layer 1" xmlns="http://www.w3.org/2000/svg" viewBox="0 0 60 60">
  <defs>
    <style>
      .cls-1 {
        fill: #37464c;
        stroke-width: 0px;
      }
    </style>
  </defs>
  <path class="cls-1" d="m44,31c-2.21,0-4-1.79-4-4s1.79-4,4-4,4,1.79,4,4-1.79,4-4,4Zm0-6c-1.1,0-2,.9-2,2s.9,2,2,2,2-.9,2-2-.9-2-2-2Z"/>
  <path class="cls-1" d="m40,44c-2.21,0-4-1.79-4-4s1.79-4,4-4,4,1.79,4,4-1.79,4-4,4Zm0-6c-1.1,0-2,.9-2,2s.9,2,2,2,2-.9,2-2-.9-2-2-2Z"/>
  <path class="cls-1" d="m30,50c-2.21,0-4-1.79-4-4s1.79-4,4-4,4,1.79,4,4-1.79,4-4,4Zm0-6c-1.1,0-2,.9-2,2s.9,2,2,2,2-.9,2-2-.9-2-2-2Z"/>
  <path class="cls-1" d="m32,18c-2.21,0-4-1.79-4-4s1.79-4,4-4,4,1.79,4,4-1.79,4-4,4Zm0-6c-1.1,0-2,.9-2,2s.9,2,2,2,2-.9,2-2-.9-2-2-2Z"/>
  <path class="cls-1" d="m32,22H10c-.55,0-1-.45-1-1s.45-1,1-1h21v-3c0-.55.45-1,1-1s1,.45,1,1v4c0,.55-.45,1-1,1Z"/>
  <path class="cls-1" d="m40,38c-.55,0-1-.45-1-1v-3H10c-.55,0-1-.45-1-1s.45-1,1-1h30c.55,0,1,.45,1,1v4c0,.55-.45,1-1,1Z"/>
  <path class="cls-1" d="m30,44c-.55,0-1-.45-1-1v-3H10c-.55,0-1-.45-1-1s.45-1,1-1h20c.55,0,1,.45,1,1v4c0,.55-.45,1-1,1Z"/>
  <path class="cls-1" d="m41,28H10c-.55,0-1-.45-1-1s.45-1,1-1h31c.55,0,1,.45,1,1s-.45,1-1,1Z"/>
  <path class="cls-1" d="m31,56c-.13,0-.25-.02-.37-.07-.42-.17-10.36-4.23-16.65-12.31-.34-.44-.26-1.06.17-1.4.44-.34,1.06-.26,1.4.18,5.29,6.8,13.59,10.71,15.44,11.53,2.77-1.22,20-9.41,20-23.91V11.57c-2-1.16-10.26-5.57-20-5.57s-18,4.41-20,5.57v5.43c0,.55-.45,1-1,1s-1-.45-1-1v-6c0-.34.17-.66.46-.84.39-.25,9.78-6.16,21.54-6.16s21.14,5.91,21.54,6.16c.29.18.46.5.46.84v19c0,17.05-20.74,25.57-21.63,25.93-.12.05-.25.07-.37.07Z"/>
</svg>