<?xml version="1.0" encoding="UTF-8"?>
<svg id="Layer_1" data-name="Layer 1" xmlns="http://www.w3.org/2000/svg" viewBox="0 0 60 60">
  <defs>
    <style>
      .cls-1 {
        fill: #37464c;
        stroke-width: 0px;
      }
    </style>
  </defs>
  <path class="cls-1" d="m43,54.6c-.55,0-1-.45-1-1v-13c0-.55.45-1,1-1s1,.45,1,1v13c0,.55-.45,1-1,1Z"/>
  <path class="cls-1" d="m21,54.6c-.55,0-1-.45-1-1v-5h-7c-2.76,0-5-2.24-5-5v-9h-2.94c-1.26,0-2.34-.72-2.82-1.89-.49-1.17-.24-2.46.66-3.35l6.1-6.16s0-.07,0-.1C9,11.8,18.2,2.6,29.5,2.6c2.72,0,5.38.53,7.89,1.58.51.21.75.8.54,1.31-.21.51-.8.75-1.31.54-2.26-.94-4.66-1.42-7.11-1.42-10.2,0-18.5,8.3-18.5,18.5,0,.07,0,.13.01.2,0,.09.01.18.01.26,0,.27-.1.53-.29.73l-6.42,6.48c-.47.47-.29,1.02-.23,1.18.06.15.32.65.97.65h3.94c.55,0,1,.45,1,1v10c0,1.65,1.35,3,3,3h8c.55,0,1,.45,1,1v6c0,.55-.45,1-1,1Z"/>
  <g>
    <path class="cls-1" d="m42.5,36.6h-3c-1.93,0-3.5-1.57-3.5-3.5v-3.5c0-.55.45-1,1-1h8c.55,0,1,.45,1,1v3.5c0,1.93-1.57,3.5-3.5,3.5Zm-4.5-6v2.5c0,.83.67,1.5,1.5,1.5h3c.83,0,1.5-.67,1.5-1.5v-2.5h-6Z"/>
    <path class="cls-1" d="m30.61,16.6c-.17,0-.34-.04-.5-.13l-3.46-2c-.48-.28-.64-.89-.37-1.37.28-.48.89-.64,1.37-.37l3.46,2c.48.28.64.89.37,1.37-.19.32-.52.5-.87.5Z"/>
    <path class="cls-1" d="m54.86,30.6c-.17,0-.34-.04-.5-.13l-3.46-2c-.48-.28-.64-.89-.37-1.37.28-.48.89-.64,1.37-.37l3.46,2c.48.28.64.89.37,1.37-.19.32-.52.5-.87.5Z"/>
    <path class="cls-1" d="m35,12.21c-.35,0-.68-.18-.87-.5l-2-3.46c-.28-.48-.11-1.09.37-1.37.48-.28,1.09-.11,1.37.37l2,3.46c.28.48.11,1.09-.37,1.37-.16.09-.33.13-.5.13Z"/>
    <path class="cls-1" d="m41,10.6c-.55,0-1-.45-1-1v-4c0-.55.45-1,1-1s1,.45,1,1v4c0,.55-.45,1-1,1Z"/>
    <path class="cls-1" d="m47,12.21c-.17,0-.34-.04-.5-.13-.48-.28-.64-.89-.37-1.37l2-3.46c.28-.48.89-.64,1.37-.37.48.28.64.89.37,1.37l-2,3.46c-.19.32-.52.5-.87.5Z"/>
    <path class="cls-1" d="m51.39,16.6c-.35,0-.68-.18-.87-.5-.28-.48-.11-1.09.37-1.37l3.46-2c.48-.28,1.09-.11,1.37.37.28.48.11,1.09-.37,1.37l-3.46,2c-.16.09-.33.13-.5.13Z"/>
    <path class="cls-1" d="m27.14,30.6c-.35,0-.68-.18-.87-.5-.28-.48-.11-1.09.37-1.37l3.46-2c.48-.28,1.09-.11,1.37.37.28.48.11,1.09-.37,1.37l-3.46,2c-.16.09-.33.13-.5.13Z"/>
    <path class="cls-1" d="m57,22.6h-4c-.55,0-1-.45-1-1s.45-1,1-1h4c.55,0,1,.45,1,1s-.45,1-1,1Z"/>
    <path class="cls-1" d="m29,22.6h-4c-.55,0-1-.45-1-1s.45-1,1-1h4c.55,0,1,.45,1,1s-.45,1-1,1Z"/>
    <path class="cls-1" d="m45,30.6h-8c-.32,0-.62-.15-.81-.41-.29-.39-.61-.78-.94-1.19-1.45-1.76-3.25-3.96-3.25-7.4,0-4.96,4.04-9,9-9s9,4.04,9,9c0,3.44-1.8,5.64-3.25,7.4-.33.4-.65.79-.94,1.19-.19.26-.49.41-.81.41Zm-7.5-2h7.01c.22-.29.46-.57.7-.86,1.38-1.68,2.8-3.41,2.8-6.14,0-3.86-3.14-7-7-7s-7,3.14-7,7c0,2.73,1.42,4.46,2.8,6.14.24.29.48.58.7.86Z"/>
    <path class="cls-1" d="m41,38.1c-1.38,0-2.5-1.12-2.5-2.5,0-.55.45-1,1-1s1,.45,1,1c0,.28.22.5.5.5s.5-.22.5-.5c0-.55.45-1,1-1s1,.45,1,1c0,1.38-1.12,2.5-2.5,2.5Z"/>
  </g>
</svg>