<?xml version="1.0" encoding="UTF-8"?>
<svg id="Layer_1" data-name="Layer 1" xmlns="http://www.w3.org/2000/svg" viewBox="0 0 60 60">
  <defs>
    <style>
      .cls-1 {
        fill: #37464c;
        stroke-width: 0px;
      }
    </style>
  </defs>
  <path class="cls-1" d="m46,17c-2.76,0-5-2.24-5-5s2.24-5,5-5,5,2.24,5,5-2.24,5-5,5Zm0-8c-1.65,0-3,1.35-3,3s1.35,3,3,3,3-1.35,3-3-1.35-3-3-3Z"/>
  <path class="cls-1" d="m33,31H5c-.55,0-1-.45-1-1s.45-1,1-1h28c.55,0,1,.45,1,1s-.45,1-1,1Z"/>
  <path class="cls-1" d="m7,43c-.55,0-1-.45-1-1v-12c0-.55.45-1,1-1s1,.45,1,1v12c0,.55-.45,1-1,1Z"/>
  <path class="cls-1" d="m50,55h-8c-1.1,0-2-.9-2-2v-28c0-.55.45-1,1-1s1,.45,1,1v28h8v-28c0-.55.45-1,1-1s1,.45,1,1v28c0,1.1-.9,2-2,2Z"/>
  <path class="cls-1" d="m23,55c-6.07,0-11-4.93-11-11s4.93-11,11-11,11,4.93,11,11-4.93,11-11,11Zm0-20c-4.96,0-9,4.04-9,9s4.04,9,9,9,9-4.04,9-9-4.04-9-9-9Z"/>
  <path class="cls-1" d="m23,49c-.55,0-1-.45-1-1v-4h-1c-.55,0-1-.45-1-1s.45-1,1-1h2c.55,0,1,.45,1,1v5c0,.55-.45,1-1,1Z"/>
  <path class="cls-1" d="m25,49h-4c-.55,0-1-.45-1-1s.45-1,1-1h4c.55,0,1,.45,1,1s-.45,1-1,1Z"/>
  <path class="cls-1" d="m22.5,41c-.83,0-1.5-.67-1.5-1.5s.67-1.5,1.5-1.5,1.5.67,1.5,1.5-.67,1.5-1.5,1.5Zm0-2c-.28,0-.5.22-.5.5s.22.5.5.5.5-.22.5-.5-.22-.5-.5-.5Z"/>
  <path class="cls-1" d="m46,55c-.55,0-1-.45-1-1v-16c0-.55.45-1,1-1s1,.45,1,1v16c0,.55-.45,1-1,1Z"/>
  <path class="cls-1" d="m51,39c-.55,0-1-.45-1-1s.45-1,1-1c1.65,0,3-1.35,3-3v-10c0-2.21-1.79-4-4-4h-8c-2.21,0-4,1.79-4,4v10c0,1.65,1.35,3,3,3,.55,0,1,.45,1,1s-.45,1-1,1c-2.76,0-5-2.24-5-5v-10c0-3.31,2.69-6,6-6h8c3.31,0,6,2.69,6,6v10c0,2.76-2.24,5-5,5Z"/>
  <path class="cls-1" d="m30,30h-2v-8c0-1.09-.69-2.05-1.72-2.39l-1.97-.5-3.6,3.6c-.39.39-1.02.39-1.41,0l-3.6-3.6-2.04.52c-.96.32-1.66,1.28-1.66,2.37v8h-2v-8c0-1.95,1.24-3.68,3.09-4.29l2.66-.68c.34-.09.7.01.95.26l3.29,3.29,3.29-3.29c.25-.25.61-.35.95-.26l2.59.66c1.92.63,3.16,2.35,3.16,4.31v8Z"/>
  <path class="cls-1" d="m20,17c-2.76,0-5-2.24-5-5s2.24-5,5-5,5,2.24,5,5-2.24,5-5,5Zm0-8c-1.65,0-3,1.35-3,3s1.35,3,3,3,3-1.35,3-3-1.35-3-3-3Z"/>
  <path class="cls-1" d="m25,31c-.55,0-1-.45-1-1v-6c0-.55.45-1,1-1s1,.45,1,1v6c0,.55-.45,1-1,1Z"/>
  <path class="cls-1" d="m15,31c-.55,0-1-.45-1-1v-6c0-.55.45-1,1-1s1,.45,1,1v6c0,.55-.45,1-1,1Z"/>
</svg>