<?xml version="1.0" encoding="UTF-8"?>
<svg id="Layer_1" data-name="Layer 1" xmlns="http://www.w3.org/2000/svg" viewBox="0 0 60 60">
  <defs>
    <style>
      .cls-1 {
        fill: #37464c;
        stroke-width: 0px;
      }
    </style>
  </defs>
  <path class="cls-1" d="m47.32,36.14c-.81,0-1.58-.28-2.21-.81-1.46-1.22-1.65-3.41-.43-4.87,1.22-1.46,3.41-1.65,4.87-.43,1.46,1.22,1.65,3.41.43,4.87-.59.71-1.42,1.14-2.34,1.22-.1,0-.21.01-.31.01Zm0-5.91c-.7,0-1.4.3-1.88.88-.87,1.04-.73,2.59.31,3.46.5.42,1.14.62,1.79.56.65-.06,1.24-.37,1.66-.87h0c.87-1.04.73-2.59-.31-3.46-.46-.38-1.02-.57-1.57-.57Z"/>
  <path class="cls-1" d="m32.71,32.88v-.03h0c0-.54.44-.98.98-.99h0c.56-.01,1.01.43,1.02.98h0v.03h0c0,.54-.44.98-.99.99h0c-.55,0-.99-.44-1-.98Zm4-.07v-.02h0c0-.55.44-.99.98-.99h0c.55-.01,1.01.43,1.02.98h0v.02h0c0,.54-.44.99-.99.99h0s0,.01,0,.01h0c-.55,0-.99-.44-1-.99Zm4-.07v-.02h0c0-.54.44-.98.98-.99h0c.55,0,1.01.43,1.02.98h0v.03h0c0,.54-.44.98-.99.99h0c-.55,0-.99-.44-1-.99Z"/>
  <path class="cls-1" d="m3.57,33.35v-.02h0c0-.54.44-.98.98-.99h0c.55-.01,1.01.43,1.02.98h0v.03h0c0,.54-.44.98-.99.99h0c-.55,0-.99-.44-1-.99Zm4-.06v-.03h0c0-.54.44-.98.98-.99h0c.55,0,1.01.44,1.01.99h0v.02h0c0,.54-.43.98-.98.99h-.02c-.54,0-.99-.43-.99-.98Zm4-.07v-.02h0c0-.54.43-.98.98-.99h0c.55-.01,1,.43,1.01.98h0v.03h0c0,.54-.44.98-.98.99h-.02c-.54,0-.99-.44-.99-.99Zm4-.06v-.03h0c0-.54.43-.98.98-.99h0c.55,0,1,.43,1.01.99h0v.02h0c0,.54-.44.98-.98.99h-.02c-.54,0-.99-.44-.99-.98Zm3.99-.07v-.02h0c0-.54.44-.99.99-1h0c.55,0,1,.44,1.01.99h0v.03h0c0,.54-.44.98-.98.99h-.02c-.54,0-.99-.44-1-.99Z"/>
  <path class="cls-1" d="m47.13,40.84c-1.82,0-3.57-.63-4.98-1.82-1.02-.85-1.8-1.96-2.27-3.19-.1-.26.03-.55.29-.65.26-.1.55.03.64.29.41,1.07,1.09,2.03,1.98,2.78,1.39,1.16,3.14,1.72,4.95,1.56,1.8-.16,3.44-1.01,4.6-2.4,2.4-2.87,2.02-7.15-.85-9.55-1.39-1.16-3.14-1.71-4.95-1.56-1.8.16-3.44,1.01-4.6,2.4-.56.67-.98,1.42-1.25,2.23-.08.26-.37.41-.63.32-.26-.09-.41-.37-.32-.63.31-.94.79-1.8,1.43-2.56,1.33-1.59,3.21-2.57,5.28-2.75,2.07-.18,4.09.45,5.68,1.79,3.29,2.75,3.72,7.67.97,10.96-1.33,1.59-3.21,2.57-5.28,2.75-.23.02-.47.03-.7.03Z"/>
  <path class="cls-1" d="m47.27,43.7c-2.57,0-5.04-.89-7.03-2.56-1.48-1.24-2.61-2.85-3.26-4.65-.09-.26.04-.55.3-.64.26-.09.55.04.64.3.6,1.64,1.62,3.1,2.97,4.22,2.04,1.71,4.63,2.53,7.28,2.29,2.66-.23,5.06-1.49,6.77-3.53,1.71-2.04,2.53-4.63,2.29-7.28-.24-2.65-1.49-5.06-3.53-6.77-2.04-1.71-4.63-2.52-7.28-2.29-2.66.23-5.06,1.49-6.77,3.53-.9,1.07-1.55,2.29-1.93,3.62-.08.26-.35.42-.62.34-.26-.08-.42-.35-.34-.62.42-1.46,1.14-2.8,2.13-3.98,1.88-2.25,4.53-3.63,7.45-3.89,2.91-.26,5.77.64,8.01,2.52,2.25,1.88,3.63,4.53,3.89,7.45.26,2.92-.64,5.77-2.52,8.01-1.88,2.25-4.53,3.63-7.45,3.89-.33.03-.66.04-.99.04Z"/>
  <circle class="cls-1" cx="27.05" cy="33.19" r="2.95"/>
  <circle class="cls-1" cx="6.4" cy="33.19" r="2.95"/>
</svg>