<?xml version="1.0" encoding="UTF-8"?>
<svg id="Layer_1" data-name="Layer 1" xmlns="http://www.w3.org/2000/svg" viewBox="0 0 60 60">
  <defs>
    <style>
      .cls-1 {
        fill: #37464c;
        stroke-width: 0px;
      }
    </style>
  </defs>
  <g>
    <path class="cls-1" d="m40.37,56.19h-21.71c-2.24,0-4.06-1.82-4.06-4.06V6.88c0-2.24,1.82-4.06,4.06-4.06h21.71c2.24,0,4.06,1.82,4.06,4.06v45.24c0,2.24-1.82,4.06-4.06,4.06ZM18.66,4.04c-1.57,0-2.84,1.28-2.84,2.84v45.24c0,1.57,1.28,2.84,2.84,2.84h21.71c1.57,0,2.84-1.28,2.84-2.84V6.88c0-1.57-1.28-2.84-2.84-2.84h-21.71Z"/>
    <path class="cls-1" d="m40.37,56.56h-21.71c-2.45,0-4.44-1.99-4.44-4.44V6.88c0-2.45,1.99-4.44,4.44-4.44h21.71c2.45,0,4.44,1.99,4.44,4.44v45.24c0,2.45-1.99,4.44-4.44,4.44ZM18.66,3.2c-2.03,0-3.69,1.65-3.69,3.69v45.24c0,2.03,1.65,3.69,3.69,3.69h21.71c2.03,0,3.69-1.65,3.69-3.69V6.88c0-2.03-1.65-3.69-3.69-3.69h-21.71Zm21.71,52.15h-21.71c-1.78,0-3.22-1.44-3.22-3.22V6.88c0-1.78,1.44-3.22,3.22-3.22h21.71c1.78,0,3.22,1.44,3.22,3.22v45.24c0,1.78-1.44,3.22-3.22,3.22ZM18.66,4.42c-1.36,0-2.47,1.11-2.47,2.47v45.24c0,1.36,1.11,2.47,2.47,2.47h21.71c1.36,0,2.47-1.11,2.47-2.47V6.88c0-1.36-1.11-2.47-2.47-2.47h-21.71Z"/>
  </g>
  <g>
    <path class="cls-1" d="m40.1,32h-21.17c-.34,0-.61-.27-.61-.61V7.4c0-.34.27-.61.61-.61h21.17c.34,0,.61.27.61.61v23.99c0,.34-.27.61-.61.61Zm-20.56-1.22h19.95V8.01h-19.95v22.77Z"/>
    <path class="cls-1" d="m40.1,32.37h-21.17c-.54,0-.98-.44-.98-.98V7.4c0-.54.44-.98.98-.98h21.17c.54,0,.98.44.98.98v23.99c0,.54-.44.98-.98.98ZM18.93,7.17c-.13,0-.23.11-.23.23v23.99c0,.13.1.23.23.23h21.17c.13,0,.23-.11.23-.23V7.4c0-.13-.1-.23-.23-.23h-21.17Zm20.94,23.99h-20.7V7.64h20.7v23.52Zm-19.95-.75h19.2V8.39h-19.2v22.02Z"/>
  </g>
  <g>
    <path class="cls-1" d="m29.52,52.7c-4.99,0-9.04-4.06-9.04-9.04s4.06-9.04,9.04-9.04,9.04,4.06,9.04,9.04-4.06,9.04-9.04,9.04Zm0-16.87c-4.31,0-7.83,3.51-7.83,7.82s3.51,7.82,7.83,7.82,7.83-3.51,7.83-7.82-3.51-7.82-7.83-7.82Z"/>
    <path class="cls-1" d="m29.52,53.08c-5.19,0-9.42-4.22-9.42-9.42s4.23-9.42,9.42-9.42,9.42,4.22,9.42,9.42-4.23,9.42-9.42,9.42Zm0-18.08c-4.78,0-8.67,3.89-8.67,8.67s3.89,8.67,8.67,8.67,8.67-3.89,8.67-8.67-3.89-8.67-8.67-8.67Zm0,16.87c-4.52,0-8.2-3.68-8.2-8.2s3.68-8.2,8.2-8.2,8.2,3.68,8.2,8.2-3.68,8.2-8.2,8.2Zm0-15.65c-4.11,0-7.45,3.34-7.45,7.45s3.34,7.45,7.45,7.45,7.45-3.34,7.45-7.45-3.34-7.45-7.45-7.45Z"/>
  </g>
  <g>
    <path class="cls-1" d="m29.52,48.17c-2.32,0-4.22-1.89-4.22-4.21s1.89-4.21,4.22-4.21,4.22,1.89,4.22,4.21-1.89,4.21-4.22,4.21Zm0-7.21c-1.65,0-3,1.34-3,3s1.34,3,3,3,3-1.34,3-3-1.34-3-3-3Z"/>
    <path class="cls-1" d="m29.52,48.54c-2.53,0-4.59-2.06-4.59-4.59s2.06-4.59,4.59-4.59,4.59,2.06,4.59,4.59-2.06,4.59-4.59,4.59Zm0-8.43c-2.12,0-3.84,1.72-3.84,3.84s1.72,3.84,3.84,3.84,3.84-1.72,3.84-3.84-1.72-3.84-3.84-3.84Zm0,7.21c-1.86,0-3.37-1.51-3.37-3.37s1.51-3.37,3.37-3.37,3.37,1.51,3.37,3.37-1.51,3.37-3.37,3.37Zm0-5.99c-1.45,0-2.62,1.18-2.62,2.62s1.18,2.62,2.62,2.62,2.62-1.18,2.62-2.62-1.18-2.62-2.62-2.62Z"/>
  </g>
</svg>