<?xml version="1.0" encoding="UTF-8"?>
<svg id="Layer_1" data-name="Layer 1" xmlns="http://www.w3.org/2000/svg" viewBox="0 0 60 60">
  <defs>
    <style>
      .cls-1 {
        fill: #37464c;
        stroke-width: 0px;
      }
    </style>
  </defs>
  <g>
    <path class="cls-1" d="m16.5,53.93c-2.35,0-4.71-.81-6.63-2.46-2.05-1.77-3.29-4.23-3.49-6.94-.2-2.7.67-5.32,2.44-7.37,3.66-4.23,10.08-4.7,14.32-1.04,2.05,1.77,3.29,4.23,3.49,6.94.2,2.7-.67,5.32-2.44,7.37-2,2.32-4.84,3.51-7.69,3.51Zm.01-19.23c-2.56,0-5.1,1.07-6.89,3.14-1.59,1.84-2.37,4.18-2.19,6.61.18,2.42,1.29,4.63,3.13,6.22,3.8,3.28,9.56,2.86,12.84-.94h0c1.59-1.84,2.37-4.18,2.19-6.61-.18-2.42-1.29-4.63-3.13-6.22-1.72-1.48-3.84-2.21-5.95-2.21Z"/>
    <path class="cls-1" d="m16.5,54.3c-2.52,0-4.97-.91-6.87-2.55-2.13-1.84-3.41-4.39-3.62-7.19s.7-5.51,2.53-7.64c3.79-4.39,10.45-4.87,14.85-1.08,2.13,1.84,3.41,4.39,3.62,7.19.2,2.8-.7,5.51-2.53,7.64-2,2.31-4.9,3.64-7.97,3.64Zm.01-20.27c-2.74,0-5.47,1.14-7.4,3.38-1.71,1.97-2.54,4.49-2.35,7.1s1.38,4.97,3.36,6.68c1.77,1.53,4.04,2.37,6.38,2.37,2.85,0,5.55-1.23,7.4-3.38,1.71-1.97,2.54-4.49,2.35-7.1s-1.38-4.97-3.36-6.68c-1.84-1.59-4.12-2.37-6.38-2.37Zm-.01,19.23c-2.2,0-4.4-.76-6.19-2.3-1.92-1.65-3.07-3.95-3.26-6.48-.18-2.52.63-4.97,2.28-6.88,1.8-2.08,4.42-3.27,7.18-3.27,2.27,0,4.47.82,6.19,2.3,1.92,1.65,3.07,3.95,3.26,6.48.18,2.52-.63,4.97-2.28,6.88-1.87,2.16-4.52,3.27-7.18,3.27Zm.01-18.18c-2.54,0-4.95,1.1-6.61,3.01-1.52,1.76-2.27,4.01-2.1,6.33.17,2.32,1.23,4.44,3,5.96,3.64,3.14,9.17,2.74,12.31-.9,1.52-1.76,2.27-4.01,2.1-6.33s-1.23-4.44-3-5.96c-1.58-1.37-3.61-2.12-5.7-2.12Z"/>
  </g>
  <g>
    <path class="cls-1" d="m16.5,50.09c-1.46,0-2.93-.5-4.12-1.53-1.28-1.1-2.05-2.63-2.17-4.31-.12-1.68.42-3.31,1.52-4.58,2.27-2.63,6.27-2.92,8.9-.65,1.28,1.1,2.04,2.63,2.17,4.31.12,1.68-.42,3.31-1.52,4.58h0c-1.25,1.44-3.01,2.18-4.78,2.18Zm0-11.56c-1.48,0-2.95.62-3.99,1.82-.92,1.06-1.37,2.42-1.27,3.82.1,1.4.74,2.68,1.81,3.6,2.2,1.9,5.53,1.65,7.42-.54h0c.92-1.06,1.37-2.42,1.27-3.82-.1-1.4-.74-2.68-1.81-3.6-.99-.86-2.22-1.28-3.44-1.28Z"/>
    <path class="cls-1" d="m16.5,50.47c-1.6,0-3.15-.58-4.37-1.62-1.35-1.17-2.17-2.79-2.3-4.57-.13-1.78.44-3.5,1.61-4.85,2.41-2.79,6.64-3.09,9.43-.69,1.35,1.17,2.17,2.79,2.3,4.57s-.44,3.5-1.61,4.85c-1.27,1.47-3.11,2.31-5.06,2.31Zm0-12.6c-1.67,0-3.32.7-4.49,2.05-1.04,1.2-1.54,2.73-1.43,4.31.12,1.58.84,3.02,2.04,4.05,1.08.93,2.45,1.44,3.88,1.44,1.73,0,3.37-.75,4.49-2.05,1.04-1.2,1.54-2.73,1.43-4.31-.12-1.58-.84-3.02-2.04-4.05-1.12-.97-2.5-1.44-3.88-1.44Zm0,11.56c-1.31,0-2.62-.45-3.68-1.37-1.14-.98-1.83-2.35-1.94-3.85-.11-1.5.37-2.95,1.36-4.09,1.07-1.24,2.63-1.95,4.27-1.95,1.35,0,2.66.49,3.68,1.37,1.14.98,1.83,2.35,1.94,3.85.11,1.5-.37,2.95-1.36,4.09-1.11,1.29-2.69,1.95-4.27,1.95Zm0-10.51c-1.42,0-2.77.62-3.7,1.69-.85.99-1.27,2.25-1.18,3.55.1,1.3.69,2.49,1.68,3.34,2.04,1.76,5.13,1.54,6.89-.5.85-.99,1.27-2.25,1.18-3.55-.09-1.3-.69-2.49-1.68-3.34-.89-.77-2.02-1.19-3.19-1.19Z"/>
  </g>
  <g>
    <path class="cls-1" d="m24.49,38.5c-.12,0-.24-.04-.34-.13l-2.69-2.32c-.11-.09-.17-.22-.18-.36-.01-.14.04-.28.13-.38l21.75-25.15c.83-.96,2.28-1.06,3.24-.24h0c.46.4.75.96.79,1.57.04.61-.15,1.2-.55,1.67l-21.75,25.15c-.1.12-.25.18-.4.18Zm-1.95-2.9l1.9,1.64,21.41-24.76c.22-.25.33-.58.3-.91-.02-.33-.18-.64-.43-.86,0,0,0,0,0,0-.52-.45-1.31-.39-1.77.13l-21.41,24.76Z"/>
    <path class="cls-1" d="m24.49,38.88c-.22,0-.42-.08-.59-.22l-2.69-2.32c-.18-.16-.29-.38-.31-.62-.02-.24.06-.47.22-.65l21.75-25.15c.96-1.12,2.65-1.24,3.77-.28.54.47.87,1.12.92,1.83.05.71-.18,1.4-.64,1.94l-21.75,25.15c-.17.2-.42.31-.68.31Zm20.41-29.13c-.54,0-1.08.23-1.46.67l-21.75,25.15s-.04.07-.04.11.02.08.05.1l2.69,2.32c.07.06.13.07.21-.01l21.75-25.15c.34-.39.5-.88.46-1.4-.04-.51-.27-.98-.66-1.31-.36-.31-.81-.47-1.26-.47Zm-20.43,28.03l-2.46-2.12,21.66-25.04c.59-.68,1.62-.75,2.3-.17.33.28.53.68.56,1.11.03.43-.11.85-.39,1.18l-21.66,25.04Zm-1.4-2.2l1.33,1.15,21.17-24.48c.15-.18.23-.4.21-.64-.02-.23-.12-.45-.3-.6-.37-.32-.92-.28-1.24.09l-21.17,24.47Z"/>
  </g>
  <g>
    <path class="cls-1" d="m50.01,22.75c-.44,0-.88-.15-1.24-.46l-6.52-5.63,3.2-3.7,6.52,5.63c.38.33.62.79.65,1.3.04.51-.13,1-.46,1.38l-.72.83c-.37.43-.9.66-1.44.66Zm-6.29-6.2l5.73,4.95c.35.31.89.27,1.2-.09l.72-.83c.15-.17.22-.39.2-.62-.02-.23-.12-.43-.29-.58l-5.73-4.95-1.83,2.11Z"/>
    <path class="cls-1" d="m50.01,23.12c-.54,0-1.07-.2-1.48-.55l-6.81-5.88,3.69-4.26,6.81,5.87c.46.4.74.95.78,1.55.04.61-.15,1.19-.55,1.65l-.71.83c-.43.5-1.06.79-1.72.79Zm-7.23-6.5l6.24,5.39c.61.53,1.62.45,2.15-.16l.71-.83c.27-.31.4-.7.37-1.11-.03-.41-.22-.78-.52-1.04l-6.24-5.38-2.71,3.13Zm7.23,5.46c-.29,0-.58-.1-.8-.3l-6.01-5.19,2.32-2.68,6.01,5.19c.25.21.4.51.42.84s-.08.64-.3.89l-.71.83c-.21.25-.51.4-.84.42-.03,0-.06,0-.09,0Zm-5.76-5.57l5.45,4.7c.1.08.21.13.34.12.13,0,.24-.07.33-.16l.72-.83c.08-.1.12-.22.11-.35s-.07-.24-.16-.33l-5.45-4.7-1.34,1.55Z"/>
  </g>
  <g>
    <path class="cls-1" d="m44.13,26.14c-.47,0-.94-.16-1.32-.49l-4.78-4.12,3.2-3.7,4.77,4.12c.41.35.66.85.7,1.39.04.54-.13,1.06-.49,1.47l-.55.63c-.4.46-.97.7-1.54.7Zm-4.62-4.72l3.98,3.44c.41.35,1.03.31,1.38-.1l.55-.63c.17-.2.26-.45.24-.71-.02-.26-.14-.5-.34-.67h0l-3.98-3.44-1.83,2.11Z"/>
    <path class="cls-1" d="m44.13,26.51c-.58,0-1.13-.21-1.57-.58l-5.06-4.37,3.69-4.27,5.06,4.36c.49.42.78,1,.83,1.64.05.64-.16,1.26-.58,1.75l-.55.63c-.46.53-1.12.83-1.82.83Zm-5.57-5.03l4.49,3.88c.66.57,1.76.49,2.33-.17l.54-.63c.29-.33.43-.76.4-1.2-.03-.44-.23-.84-.57-1.13l-4.49-3.88-2.71,3.13Zm5.57,3.98c-.31,0-.63-.11-.88-.33l-4.27-3.68,2.32-2.68,4.26,3.68c.27.24.44.57.47.93.03.36-.09.71-.33.99l-.54.63c-.27.31-.65.47-1.03.47Zm-4.09-4.09l3.7,3.19c.25.22.64.19.85-.06l.54-.63c.11-.12.16-.28.15-.44-.01-.16-.09-.31-.21-.42l-3.7-3.19-1.34,1.55Z"/>
  </g>
</svg>