<?xml version="1.0" encoding="UTF-8"?>
<svg id="Layer_1" data-name="Layer 1" xmlns="http://www.w3.org/2000/svg" viewBox="0 0 60 60">
  <defs>
    <style>
      .cls-1 {
        fill: #37464c;
        stroke-width: 0px;
      }
    </style>
  </defs>
  <path class="cls-1" d="m20.41,14.98c-2.7,0-4.89-2.19-4.89-4.89s2.19-4.89,4.89-4.89,4.89,2.19,4.89,4.89-2.19,4.89-4.89,4.89Zm0-8.78c-2.14,0-3.89,1.74-3.89,3.89s1.74,3.89,3.89,3.89,3.89-1.74,3.89-3.89-1.74-3.89-3.89-3.89Z"/>
  <path class="cls-1" d="m20.41,15.48c-2.97,0-5.39-2.42-5.39-5.39s2.42-5.39,5.39-5.39,5.39,2.42,5.39,5.39-2.42,5.39-5.39,5.39Zm0-8.78c-1.87,0-3.39,1.52-3.39,3.39s1.52,3.39,3.39,3.39,3.39-1.52,3.39-3.39-1.52-3.39-3.39-3.39Z"/>
  <path class="cls-1" d="m23.74,59.55h-6.67c-.94,0-1.77-.78-1.84-1.75l-1.3-17.58c-1.82-.33-4.4-1.78-4.56-3.68l-.99-13.27c0-.14,0-.23,0-.28,0-2.9,2.3-5.32,5.13-5.39h30.89v.5c0,2.64-2.14,4.78-4.78,4.78h-11.43l-2.6,34.92c-.07.96-.9,1.75-1.84,1.75ZM13.52,18.61c-2.28.06-4.14,2.03-4.14,4.41,0,.06,0,.12,0,.2l.99,13.26c.11,1.24,2.21,2.55,3.88,2.8l.62.07,1.36,18.4c.03.45.42.82.85.82h6.67c.42,0,.81-.38.84-.82l2.67-35.85h12.36c1.92,0,3.5-1.43,3.75-3.28H13.52Z"/>
  <path class="cls-1" d="m23.74,60.05h-6.67c-1.22,0-2.25-.97-2.34-2.21l-1.27-17.2c-1.98-.48-4.41-2-4.59-4.04l-.99-13.28c0-.17,0-.27,0-.33,0-3.15,2.52-5.8,5.62-5.88h30.4c.55,0,1,.45,1,1,0,2.91-2.37,5.28-5.28,5.28h-10.97l-2.57,34.46c-.09,1.24-1.12,2.21-2.34,2.21ZM13.52,19.11c-2,.05-3.64,1.8-3.64,3.91,0,.06,0,.11,0,.17l.99,13.25c.08.88,1.89,2.11,3.46,2.34l.18.02c.48.05.86.44.9.92l1.33,17.98c.01.18.18.36.35.36h6.67c.16,0,.33-.17.35-.36l2.64-35.38c.04-.52.47-.93,1-.93h11.89c1.46,0,2.7-.96,3.12-2.28H13.52Z"/>
  <path class="cls-1" d="m20.41,15.48c-2.97,0-5.39-2.42-5.39-5.39s2.42-5.39,5.39-5.39,5.39,2.42,5.39,5.39-2.42,5.39-5.39,5.39Zm0-8.78c-1.87,0-3.39,1.52-3.39,3.39s1.52,3.39,3.39,3.39,3.39-1.52,3.39-3.39-1.52-3.39-3.39-3.39Z"/>
  <path class="cls-1" d="m23.74,59.55h-6.67c-.94,0-1.77-.78-1.84-1.75l-1.3-17.58c-1.82-.33-4.4-1.78-4.56-3.68l-.99-13.27c0-.14,0-.23,0-.28,0-2.9,2.3-5.32,5.13-5.39h30.89v.5c0,2.64-2.14,4.78-4.78,4.78h-11.43l-2.6,34.92c-.07.96-.9,1.75-1.84,1.75ZM13.52,18.61c-2.28.06-4.14,2.03-4.14,4.41,0,.06,0,.12,0,.2l.99,13.26c.11,1.24,2.21,2.55,3.88,2.8l.62.07,1.36,18.4c.03.45.42.82.85.82h6.67c.42,0,.81-.38.84-.82l2.67-35.85h12.36c1.92,0,3.5-1.43,3.75-3.28H13.52Z"/>
  <path class="cls-1" d="m23.74,60.05h-6.67c-1.22,0-2.25-.97-2.34-2.21l-1.27-17.2c-1.98-.48-4.41-2-4.59-4.04l-.99-13.28c0-.17,0-.27,0-.33,0-3.15,2.52-5.8,5.62-5.88h30.4c.55,0,1,.45,1,1,0,2.91-2.37,5.28-5.28,5.28h-10.97l-2.57,34.46c-.09,1.24-1.12,2.21-2.34,2.21ZM13.52,19.11c-2,.05-3.64,1.8-3.64,3.91,0,.06,0,.11,0,.17l.99,13.25c.08.88,1.89,2.11,3.46,2.34l.18.02c.48.05.86.44.9.92l1.33,17.98c.01.18.18.36.35.36h6.67c.16,0,.33-.17.35-.36l2.64-35.38c.04-.52.47-.93,1-.93h11.89c1.46,0,2.7-.96,3.12-2.28H13.52Z"/>
  <path class="cls-1" d="m20.41,59.49c-.55,0-1-.45-1-1v-19.96c0-.55.45-1,1-1s1,.45,1,1v19.96c0,.55-.45,1-1,1Z"/>
  <path class="cls-1" d="m14.4,40.79c-.52,0-.96-.4-1-.93l-1.11-14.99c-.04-.55.37-1.03.92-1.07.54-.04,1.03.37,1.07.92l1.11,14.99c.04.55-.37,1.03-.92,1.07-.02,0-.05,0-.07,0Z"/>
  <path class="cls-1" d="m46.92,33.49h-6c-2.49,0-4.52-2.03-4.52-4.52s2.03-4.52,4.52-4.52h6c2.49,0,4.52,2.03,4.52,4.52s-2.03,4.52-4.52,4.52Zm-6-7.04c-1.39,0-2.52,1.13-2.52,2.52s1.13,2.52,2.52,2.52h6c1.39,0,2.52-1.13,2.52-2.52s-1.13-2.52-2.52-2.52h-6Z"/>
  <path class="cls-1" d="m43.92,60.06c-.55,0-1-.45-1-1v-26.56c0-.55.45-1,1-1s1,.45,1,1v26.56c0,.55-.45,1-1,1Z"/>
  <path class="cls-1" d="m43.9,57.86h-7.78c-.55,0-1-.45-1-1s.45-1,1-1h6.78v-4.69h-6.78c-.55,0-1-.45-1-1s.45-1,1-1h7.78c.55,0,1,.45,1,1v6.69c0,.55-.45,1-1,1Z"/>
  <path class="cls-1" d="m37.87,57.86c-.55,0-1-.45-1-1v-6.69c0-.55.45-1,1-1s1,.45,1,1v6.69c0,.55-.45,1-1,1Z"/>
</svg>