<?xml version="1.0" encoding="UTF-8"?>
<svg id="Layer_1" data-name="Layer 1" xmlns="http://www.w3.org/2000/svg" viewBox="0 0 60 60">
  <defs>
    <style>
      .cls-1 {
        fill: #37464c;
        stroke-width: 0px;
      }
    </style>
  </defs>
  <g>
    <path class="cls-1" d="m55.38,49.53H8c-.33,0-.59-.26-.59-.59V10.68c0-.33.26-.59.59-.59s.59.26.59.59v37.67h46.78c.33,0,.59.26.59.59s-.26.59-.59.59Z"/>
    <path class="cls-1" d="m55.38,49.9H8c-.53,0-.97-.43-.97-.97V10.68c0-.53.43-.97.97-.97s.97.43.97.97v37.29h46.41c.53,0,.97.43.97.97s-.43.97-.97.97ZM8,10.46c-.12,0-.22.1-.22.22v38.26c0,.12.1.22.22.22h47.37c.12,0,.22-.1.22-.22s-.1-.22-.22-.22H8.22V10.68c0-.12-.1-.22-.22-.22Z"/>
  </g>
  <g>
    <path class="cls-1" d="m8,49.53c-.15,0-.3-.06-.42-.17-.23-.23-.23-.61,0-.84l6.69-6.64c.11-.11.26-.17.42-.17h8.43l5.7-5.66c.11-.11.26-.17.42-.17h6.31l9.27-9.2c.23-.23.61-.23.84,0,.23.23.23.61,0,.84l-9.45,9.38c-.11.11-.26.17-.42.17h-6.31l-5.7,5.66c-.11.11-.26.17-.42.17h-8.43l-6.52,6.47c-.12.11-.27.17-.42.17Z"/>
    <path class="cls-1" d="m8,49.9c-.26,0-.5-.1-.69-.29-.18-.18-.28-.43-.28-.68,0-.26.1-.5.29-.68l6.69-6.64c.18-.18.42-.28.68-.28h8.28l5.59-5.55c.18-.18.42-.28.68-.28h6.15l9.16-9.1c.38-.37.99-.37,1.37,0,.18.18.28.43.28.68s-.1.5-.29.68l-9.45,9.38c-.18.18-.42.28-.68.28h-6.15l-5.59,5.55c-.18.18-.42.28-.68.28h-8.28l-6.41,6.36c-.18.18-.42.28-.68.28Zm6.69-7.83c-.06,0-.11.02-.15.06l-6.69,6.65s-.06.09-.06.15c0,.06.02.11.06.15.15.15.24.06.31,0l6.63-6.58h8.59c.06,0,.11-.02.15-.06l5.81-5.77h6.46c.06,0,.11-.02.15-.06l9.45-9.38s.06-.09.06-.15c0-.06-.02-.11-.06-.15-.08-.09-.22-.09-.31,0l-9.38,9.31h-6.46c-.06,0-.11.02-.15.06l-5.81,5.77h-8.59Z"/>
  </g>
  <g>
    <g>
      <path class="cls-1" d="m5.03,14.23c-.15,0-.3-.06-.42-.17-.23-.23-.23-.61,0-.84l2.98-2.96c.23-.23.61-.23.84,0,.23.23.23.61,0,.84l-2.98,2.96c-.12.11-.27.17-.42.17Z"/>
      <path class="cls-1" d="m5.03,14.6c-.26,0-.5-.1-.69-.29-.18-.18-.28-.43-.28-.68,0-.26.1-.5.29-.68l2.98-2.96c.38-.37.99-.37,1.37,0,.38.38.37.99,0,1.37l-2.98,2.96c-.18.18-.42.28-.68.28Zm2.98-4.14c-.06,0-.11.02-.15.06l-2.98,2.96s-.06.09-.06.15c0,.06.02.11.06.15.15.15.24.06.31,0l2.98-2.96c.08-.08.08-.22,0-.31-.04-.04-.1-.06-.15-.06Z"/>
    </g>
    <g>
      <path class="cls-1" d="m10.98,14.23c-.15,0-.3-.06-.42-.17l-2.98-2.96c-.23-.23-.23-.6,0-.84.23-.23.6-.23.84,0l2.98,2.96c.23.23.23.6,0,.84-.12.12-.27.17-.42.17Z"/>
      <path class="cls-1" d="m10.98,14.6c-.26,0-.5-.1-.68-.28l-2.98-2.96c-.38-.38-.38-.99,0-1.37.38-.38.99-.38,1.37,0l2.98,2.96c.18.18.28.42.29.68,0,.26-.1.5-.28.68-.18.18-.43.29-.69.29Zm-2.98-4.14c-.06,0-.11.02-.15.06-.08.08-.08.22,0,.31l2.98,2.96c.07.07.18.12.31,0,.04-.04.06-.1.06-.15,0-.06-.02-.11-.06-.15l-2.98-2.96s-.1-.06-.15-.06Z"/>
    </g>
  </g>
  <g>
    <g>
      <path class="cls-1" d="m55.38,49.53c-.15,0-.3-.06-.42-.17l-2.98-2.96c-.23-.23-.23-.6,0-.84.23-.23.6-.23.84,0l2.98,2.96c.23.23.23.6,0,.84-.12.12-.27.17-.42.17Z"/>
      <path class="cls-1" d="m55.38,49.9c-.26,0-.5-.1-.68-.28l-2.98-2.96c-.38-.37-.38-.99,0-1.37.37-.38.99-.38,1.37,0l2.98,2.96c.18.18.28.42.29.68,0,.26-.1.5-.28.68-.18.18-.43.29-.69.29Zm-2.98-4.14c-.06,0-.11.02-.15.06-.08.08-.08.22,0,.3l2.98,2.96c.07.07.18.12.31,0,.04-.04.06-.1.06-.15,0-.06-.02-.11-.06-.15l-2.98-2.96s-.1-.06-.15-.06Z"/>
    </g>
    <g>
      <path class="cls-1" d="m52.4,52.48c-.15,0-.3-.06-.42-.17-.23-.23-.23-.61,0-.84l2.98-2.96c.23-.23.61-.23.84,0,.23.23.23.61,0,.84l-2.98,2.96c-.12.11-.27.17-.42.17Z"/>
      <path class="cls-1" d="m52.4,52.86c-.26,0-.5-.1-.69-.29-.18-.18-.28-.43-.28-.69,0-.26.1-.5.29-.68l2.98-2.96c.38-.38.99-.37,1.37,0,.38.38.37.99,0,1.37l-2.98,2.96c-.18.18-.42.28-.68.28Zm2.98-4.14c-.06,0-.11.02-.15.06l-2.98,2.96s-.06.09-.06.15c0,.06.02.11.06.15.08.08.22.08.31,0l2.98-2.96c.08-.08.08-.22,0-.31-.04-.04-.1-.06-.15-.06Z"/>
    </g>
  </g>
  <g>
    <g>
      <path class="cls-1" d="m45.59,27.25h-4.21c-.33,0-.59-.26-.59-.59s.26-.59.59-.59h4.21c.33,0,.59.26.59.59s-.26.59-.59.59Z"/>
      <path class="cls-1" d="m45.59,27.63h-4.21c-.53,0-.97-.43-.97-.97s.43-.97.97-.97h4.21c.53,0,.97.43.97.97s-.43.97-.97.97Zm-4.21-1.18c-.12,0-.22.1-.22.22s.1.22.22.22h4.21c.12,0,.22-.1.22-.22s-.1-.22-.22-.22h-4.21Z"/>
    </g>
    <g>
      <path class="cls-1" d="m45.59,31.43c-.33,0-.59-.26-.59-.59v-4.18c0-.33.26-.59.59-.59s.59.26.59.59v4.18c0,.33-.26.59-.59.59Z"/>
      <path class="cls-1" d="m45.59,31.81c-.53,0-.97-.43-.97-.97v-4.18c0-.53.43-.97.97-.97s.97.43.97.97v4.18c0,.53-.43.97-.97.97Zm0-5.36c-.12,0-.22.1-.22.22v4.18c0,.24.43.24.43,0v-4.18c0-.12-.1-.22-.22-.22Z"/>
    </g>
  </g>
</svg>