<?xml version="1.0" encoding="UTF-8"?>
<svg id="Layer_1" data-name="Layer 1" xmlns="http://www.w3.org/2000/svg" viewBox="0 0 60 60">
  <defs>
    <style>
      .cls-1 {
        fill: #37464c;
        stroke-width: 0px;
      }
    </style>
  </defs>
  <path class="cls-1" d="m42.91,54.74H9.95c-1.29,0-2.33-1.05-2.33-2.33V8.95c0-1.29,1.05-2.33,2.33-2.33h32.96c1.29,0,2.33,1.05,2.33,2.33v11.18c0,.55-.45,1-1,1s-1-.45-1-1v-11.18c0-.18-.15-.33-.33-.33H9.95c-.18,0-.33.15-.33.33v43.46c0,.18.15.33.33.33h32.96c.18,0,.33-.15.33-.33v-5.75c0-.55.45-1,1-1s1,.45,1,1v5.75c0,1.29-1.04,2.33-2.33,2.33Z"/>
  <path class="cls-1" d="m15.09,22.76c-.55,0-1-.45-1-1v-7.83c0-.55.45-1,1-1h7.82c.55,0,1,.45,1,1s-.45,1-1,1h-6.82v6.83c0,.55-.45,1-1,1Z"/>
  <path class="cls-1" d="m21.88,23.57s-.03,0-.04,0c-.33-.01-.63-.19-.81-.47l-2.66-4.3c-.29-.47-.15-1.09.32-1.38.47-.29,1.09-.15,1.38.32l1.88,3.04,4.92-6.64c.33-.44.96-.54,1.4-.21.44.33.54.95.21,1.4l-5.79,7.83c-.19.25-.49.4-.8.4Z"/>
  <path class="cls-1" d="m15.09,36.41c-.55,0-1-.45-1-1v-7.83c0-.55.45-1,1-1h7.82c.55,0,1,.45,1,1s-.45,1-1,1h-6.82v6.83c0,.55-.45,1-1,1Z"/>
  <path class="cls-1" d="m21.88,37.22s-.03,0-.04,0c-.33-.01-.63-.19-.81-.47l-2.66-4.3c-.29-.47-.15-1.09.32-1.38.47-.29,1.09-.15,1.38.32l1.88,3.05,4.92-6.64c.33-.44.96-.54,1.4-.21.44.33.54.95.21,1.4l-5.79,7.83c-.19.26-.49.41-.8.41Z"/>
  <path class="cls-1" d="m15.09,50.05c-.55,0-1-.45-1-1v-7.83c0-.55.45-1,1-1h7.82c.55,0,1,.45,1,1s-.45,1-1,1h-6.82v6.83c0,.55-.45,1-1,1Z"/>
  <path class="cls-1" d="m43.84,47.65c-7.75,0-14.05-6.3-14.05-14.05s6.3-14.05,14.05-14.05,14.04,6.3,14.04,14.05-6.3,14.05-14.04,14.05Zm0-26.09c-6.64,0-12.05,5.4-12.05,12.05s5.4,12.05,12.05,12.05,12.04-5.4,12.04-12.05-5.4-12.05-12.04-12.05Z"/>
  <path class="cls-1" d="m41.79,40.29c-.22,0-.44-.08-.6-.25l-5.13-5.13c-.16-.16-.25-.38-.25-.6s.09-.44.25-.6l2.05-2.05c.33-.33.87-.33,1.2,0l2.48,2.48,6.58-6.58c.16-.16.38-.25.6-.25h0c.23,0,.44.09.6.25l2.05,2.05c.33.33.33.87,0,1.2l-9.24,9.23c-.17.17-.38.25-.6.25Zm-3.93-5.98l3.93,3.93,8.03-8.03-.85-.85-6.58,6.58c-.33.33-.87.33-1.2,0l-2.48-2.48-.85.85Z"/>
</svg>