<?xml version="1.0" encoding="UTF-8"?>
<svg id="Layer_1" data-name="Layer 1" xmlns="http://www.w3.org/2000/svg" viewBox="0 0 60 60">
  <defs>
    <style>
      .cls-1 {
        fill: #37464c;
        stroke-width: 0px;
      }
    </style>
  </defs>
  <g>
    <path class="cls-1" d="m30,52.51c-9.7,0-17.01-6.91-17.01-16.08,0-4.53,1.77-8.75,4.99-11.88,3.19-3.11,7.46-4.82,12.02-4.82s8.83,1.71,12.02,4.82c3.22,3.13,4.99,7.35,4.99,11.88,0,9.17-7.31,16.08-17.01,16.08Zm0-31.77c-8.98,0-16.01,6.89-16.01,15.7s6.88,15.07,16.01,15.07,16.01-6.48,16.01-15.07-7.03-15.7-16.01-15.7Z"/>
    <path class="cls-1" d="m30,52.89c-9.91,0-17.38-7.07-17.38-16.45,0-4.63,1.81-8.94,5.1-12.15,3.26-3.18,7.63-4.93,12.29-4.93s9.02,1.75,12.29,4.93c3.29,3.2,5.1,7.52,5.1,12.15,0,9.38-7.47,16.45-17.38,16.45Zm0-32.78c-4.46,0-8.64,1.67-11.76,4.72-3.14,3.06-4.87,7.18-4.87,11.61,0,8.95,7.15,15.7,16.63,15.7s16.63-6.75,16.63-15.7c0-4.43-1.73-8.55-4.87-11.61-3.12-3.04-7.3-4.72-11.76-4.72Zm0,31.77c-9.34,0-16.38-6.64-16.38-15.45s7.2-16.07,16.38-16.07,16.38,7.06,16.38,16.07-7.04,15.45-16.38,15.45Zm0-30.77c-8.76,0-15.63,6.73-15.63,15.32s6.72,14.7,15.63,14.7,15.63-6.32,15.63-14.7-6.87-15.32-15.63-15.32Z"/>
  </g>
  <g>
    <path class="cls-1" d="m42.61,25.87c-.28,0-.5-.22-.5-.5v-10.3c0-3.63-2.95-6.58-6.58-6.58h-11.05c-3.63,0-6.58,2.95-6.58,6.58v10.3c0,.28-.22.5-.5.5s-.5-.22-.5-.5v-10.3c0-4.18,3.4-7.59,7.59-7.59h11.05c4.18,0,7.59,3.4,7.59,7.59v10.3c0,.28-.22.5-.5.5Z"/>
    <path class="cls-1" d="m42.61,26.25c-.48,0-.88-.39-.88-.88v-10.3c0-3.42-2.78-6.21-6.21-6.21h-11.05c-3.42,0-6.21,2.79-6.21,6.21v10.3c0,.48-.39.88-.88.88s-.88-.39-.88-.88v-10.3c0-4.39,3.57-7.96,7.96-7.96h11.05c4.39,0,7.96,3.57,7.96,7.96v10.3c0,.48-.39.88-.88.88ZM24.47,8.11h11.05c3.84,0,6.96,3.12,6.96,6.96v10.3c0,.14.25.14.25,0v-10.3c0-3.98-3.23-7.21-7.21-7.21h-11.05c-3.98,0-7.21,3.24-7.21,7.21v10.3c0,.14.25.14.25,0v-10.3c0-3.84,3.12-6.96,6.96-6.96Z"/>
  </g>
  <g>
    <path class="cls-1" d="m36.74,21.83c-.28,0-.5-.22-.5-.5v-4.28c0-1.63-1.32-2.95-2.95-2.95h-6.57c-1.63,0-2.95,1.32-2.95,2.95v4.28c0,.28-.22.5-.5.5s-.5-.22-.5-.5v-4.28c0-2.18,1.77-3.95,3.95-3.95h6.57c2.18,0,3.95,1.77,3.95,3.95v4.28c0,.28-.22.5-.5.5Z"/>
    <path class="cls-1" d="m36.74,22.2c-.48,0-.88-.39-.88-.88v-4.28c0-1.42-1.16-2.58-2.57-2.58h-6.57c-1.42,0-2.58,1.16-2.58,2.58v4.28c0,.48-.39.88-.88.88s-.88-.39-.88-.88v-4.28c0-2.39,1.94-4.33,4.33-4.33h6.57c2.39,0,4.33,1.94,4.33,4.33v4.28c0,.48-.39.88-.88.88Zm-10.02-8.48h6.57c1.83,0,3.32,1.49,3.32,3.33v4.28c0,.14.25.14.25,0v-4.28c0-1.97-1.61-3.58-3.58-3.58h-6.57c-1.97,0-3.58,1.61-3.58,3.58v4.28c0,.14.25.14.25,0v-4.28c0-1.83,1.49-3.33,3.33-3.33Z"/>
  </g>
  <g>
    <path class="cls-1" d="m30,42.65c-3.6,0-6.52-2.93-6.52-6.52s2.93-6.52,6.52-6.52,6.52,2.93,6.52,6.52-2.93,6.52-6.52,6.52Zm0-12.04c-3.04,0-5.52,2.48-5.52,5.52s2.48,5.52,5.52,5.52,5.52-2.48,5.52-5.52-2.48-5.52-5.52-5.52Z"/>
    <path class="cls-1" d="m30,43.03c-3.8,0-6.9-3.09-6.9-6.9s3.09-6.9,6.9-6.9,6.9,3.09,6.9,6.9-3.09,6.9-6.9,6.9Zm0-13.05c-3.39,0-6.15,2.76-6.15,6.15s2.76,6.15,6.15,6.15,6.15-2.76,6.15-6.15-2.76-6.15-6.15-6.15Zm0,12.04c-3.25,0-5.89-2.64-5.89-5.9s2.64-5.89,5.89-5.89,5.89,2.64,5.89,5.89-2.64,5.9-5.89,5.9Zm0-11.04c-2.84,0-5.14,2.31-5.14,5.14s2.31,5.15,5.14,5.15,5.14-2.31,5.14-5.15-2.31-5.14-5.14-5.14Z"/>
  </g>
</svg>