<?xml version="1.0" encoding="UTF-8"?>
<svg id="Layer_1" data-name="Layer 1" xmlns="http://www.w3.org/2000/svg" viewBox="0 0 60 60">
  <defs>
    <style>
      .cls-1 {
        fill: #37464c;
        stroke-width: 0px;
      }
    </style>
  </defs>
  <g>
    <g>
      <path class="cls-1" d="m19.77,53.81h-11.57c-2.53,0-4.59-2.06-4.59-4.59v-23.05c0-2.53,2.06-4.59,4.59-4.59h16.56c2.53,0,4.59,2.06,4.59,4.59v17.41c0,.34-.27.61-.61.61s-.61-.27-.61-.61v-17.41c0-1.86-1.51-3.37-3.37-3.37H8.2c-1.86,0-3.37,1.51-3.37,3.37v23.05c0,1.86,1.51,3.37,3.37,3.37h11.57c.34,0,.61.27.61.61s-.27.61-.61.61Z"/>
      <path class="cls-1" d="m19.77,54.18h-11.57c-2.74,0-4.96-2.22-4.96-4.96v-23.05c0-2.73,2.22-4.96,4.96-4.96h16.56c2.74,0,4.96,2.23,4.96,4.96v17.41c0,.54-.44.98-.98.98s-.98-.44-.98-.98v-17.41c0-1.65-1.34-3-3-3H8.2c-1.65,0-3,1.34-3,3v23.05c0,1.65,1.34,3,3,3h11.57c.54,0,.98.44.98.98s-.44.98-.98.98ZM8.2,21.96c-2.32,0-4.21,1.89-4.21,4.21v23.05c0,2.32,1.89,4.21,4.21,4.21h11.57c.13,0,.23-.1.23-.23s-.1-.23-.23-.23h-11.57c-2.07,0-3.75-1.68-3.75-3.75v-23.05c0-2.07,1.68-3.75,3.75-3.75h16.56c2.07,0,3.75,1.68,3.75,3.75v17.41c0,.26.46.26.46,0v-17.41c0-2.32-1.89-4.21-4.21-4.21H8.2Z"/>
    </g>
    <g>
      <path class="cls-1" d="m20.5,22.8h-8.05c-.34,0-.61-.27-.61-.61v-12.61c0-.34.27-.61.61-.61h8.05c.34,0,.61.27.61.61v12.61c0,.34-.27.61-.61.61Zm-7.44-1.21h6.83v-11.4h-6.83v11.4Z"/>
      <path class="cls-1" d="m20.5,23.18h-8.05c-.54,0-.98-.44-.98-.98v-12.61c0-.54.44-.98.98-.98h8.05c.54,0,.98.44.98.98v12.61c0,.54-.44.98-.98.98Zm-8.05-13.83c-.13,0-.23.1-.23.23v12.61c0,.13.1.23.23.23h8.05c.13,0,.23-.1.23-.23v-12.61c0-.13-.1-.23-.23-.23h-8.05Zm7.82,12.61h-7.58v-12.15h7.58v12.15Zm-6.83-.75h6.08v-10.65h-6.08v10.65Z"/>
    </g>
    <g>
      <path class="cls-1" d="m23.72,10.19h-14.47c-.34,0-.61-.27-.61-.61s.27-.61.61-.61h14.47c.34,0,.61.27.61.61s-.27.61-.61.61Z"/>
      <path class="cls-1" d="m23.72,10.57h-14.47c-.54,0-.98-.44-.98-.98s.44-.98.98-.98h14.47c.54,0,.98.44.98.98s-.44.98-.98.98Zm-14.47-1.21c-.13,0-.23.1-.23.23s.1.23.23.23h14.47c.13,0,.23-.1.23-.23s-.1-.23-.23-.23h-14.47Z"/>
    </g>
    <g>
      <g>
        <path class="cls-1" d="m10.21,46.79c-.34,0-.61-.27-.61-.61v-16.97c0-.34.27-.61.61-.61s.61.27.61.61v16.97c0,.34-.27.61-.61.61Z"/>
        <path class="cls-1" d="m10.21,47.17c-.54,0-.98-.44-.98-.98v-16.97c0-.54.44-.98.98-.98s.98.44.98.98v16.97c0,.54-.44.98-.98.98Zm0-18.18c-.13,0-.23.1-.23.23v16.97c0,.26.46.26.46,0v-16.97c0-.13-.1-.23-.23-.23Z"/>
      </g>
      <g>
        <path class="cls-1" d="m16.48,46.79c-.34,0-.61-.27-.61-.61v-16.97c0-.34.27-.61.61-.61s.61.27.61.61v16.97c0,.34-.27.61-.61.61Z"/>
        <path class="cls-1" d="m16.48,47.17c-.54,0-.98-.44-.98-.98v-16.97c0-.54.44-.98.98-.98s.98.44.98.98v16.97c0,.54-.44.98-.98.98Zm0-18.18c-.13,0-.23.1-.23.23v16.97c0,.26.46.26.46,0v-16.97c0-.13-.1-.23-.23-.23Z"/>
      </g>
      <g>
        <path class="cls-1" d="m22.75,44.19c-.34,0-.61-.27-.61-.61v-14.37c0-.34.27-.61.61-.61s.61.27.61.61v14.37c0,.34-.27.61-.61.61Z"/>
        <path class="cls-1" d="m22.75,44.57c-.54,0-.98-.44-.98-.98v-14.37c0-.54.44-.98.98-.98s.98.44.98.98v14.37c0,.54-.44.98-.98.98Zm0-15.58c-.13,0-.23.1-.23.23v14.37c0,.26.46.26.46,0v-14.37c0-.13-.1-.23-.23-.23Z"/>
      </g>
    </g>
    <g>
      <path class="cls-1" d="m9.81,56.39c-.34,0-.61-.27-.61-.61v-2.15c0-.34.27-.61.61-.61s.61.27.61.61v2.15c0,.34-.27.61-.61.61Z"/>
      <path class="cls-1" d="m9.81,56.76c-.54,0-.98-.44-.98-.98v-2.15c0-.54.44-.98.98-.98s.98.44.98.98v2.15c0,.54-.44.98-.98.98Zm0-3.37c-.13,0-.23.1-.23.23v2.15c0,.26.46.26.46,0v-2.15c0-.13-.1-.23-.23-.23Z"/>
    </g>
  </g>
  <g>
    <g>
      <path class="cls-1" d="m50.71,56.39h-25.68c-3.7,0-6.71-3.01-6.71-6.71s3.01-6.71,6.71-6.71h25.68c3.7,0,6.71,3.01,6.71,6.71s-3.01,6.71-6.71,6.71Zm-25.68-12.2c-3.03,0-5.49,2.46-5.49,5.49s2.46,5.49,5.49,5.49h25.68c3.03,0,5.49-2.46,5.49-5.49s-2.46-5.49-5.49-5.49h-25.68Z"/>
      <path class="cls-1" d="m50.71,56.76h-25.68c-3.9,0-7.08-3.18-7.08-7.08s3.18-7.08,7.08-7.08h25.68c3.9,0,7.08,3.18,7.08,7.08s-3.18,7.08-7.08,7.08Zm-25.68-13.41c-3.49,0-6.33,2.84-6.33,6.33s2.84,6.33,6.33,6.33h25.68c3.49,0,6.33-2.84,6.33-6.33s-2.84-6.33-6.33-6.33h-25.68Zm25.68,12.2h-25.68c-3.24,0-5.87-2.63-5.87-5.87s2.63-5.87,5.87-5.87h25.68c3.23,0,5.87,2.63,5.87,5.87s-2.63,5.87-5.87,5.87Zm-25.68-10.98c-2.82,0-5.12,2.29-5.12,5.12s2.3,5.12,5.12,5.12h25.68c2.82,0,5.12-2.29,5.12-5.12s-2.29-5.12-5.12-5.12h-25.68Z"/>
    </g>
    <g>
      <g>
        <path class="cls-1" d="m29.04,56.39h-3.6c-.34,0-.61-.27-.61-.61v-12.2c0-.34.27-.61.61-.61h3.6c.34,0,.61.27.61.61v12.2c0,.34-.27.61-.61.61Zm-2.99-1.21h2.38v-10.98h-2.38v10.98Z"/>
        <path class="cls-1" d="m29.04,56.76h-3.6c-.54,0-.98-.44-.98-.98v-12.2c0-.54.44-.98.98-.98h3.6c.54,0,.98.44.98.98v12.2c0,.54-.44.98-.98.98Zm-3.6-13.41c-.13,0-.23.1-.23.23v12.2c0,.13.1.23.23.23h3.6c.13,0,.23-.1.23-.23v-12.2c0-.13-.1-.23-.23-.23h-3.6Zm3.36,12.2h-3.13v-11.73h3.13v11.73Zm-2.38-.75h1.63v-10.23h-1.63v10.23Z"/>
      </g>
      <g>
        <path class="cls-1" d="m50.29,56.39h-3.6c-.34,0-.61-.27-.61-.61v-12.2c0-.34.27-.61.61-.61h3.6c.34,0,.61.27.61.61v12.2c0,.34-.27.61-.61.61Zm-2.99-1.21h2.38v-10.98h-2.38v10.98Z"/>
        <path class="cls-1" d="m50.29,56.76h-3.6c-.54,0-.98-.44-.98-.98v-12.2c0-.54.44-.98.98-.98h3.6c.54,0,.98.44.98.98v12.2c0,.54-.44.98-.98.98Zm-3.6-13.41c-.13,0-.23.1-.23.23v12.2c0,.13.1.23.23.23h3.6c.13,0,.23-.1.23-.23v-12.2c0-.13-.1-.23-.23-.23h-3.6Zm3.36,12.2h-3.13v-11.73h3.13v11.73Zm-2.38-.75h1.63v-10.23h-1.63v10.23Z"/>
      </g>
    </g>
    <g>
      <path class="cls-1" d="m43.23,44.19c-.34,0-.61-.27-.61-.61v-4.67c0-2.62-2.14-4.76-4.76-4.76s-4.76,2.13-4.76,4.76v4.67c0,.34-.27.61-.61.61s-.61-.27-.61-.61v-4.67c0-3.29,2.68-5.97,5.97-5.97s5.97,2.68,5.97,5.97v4.67c0,.34-.27.61-.61.61Z"/>
      <path class="cls-1" d="m43.23,44.57c-.54,0-.98-.44-.98-.98v-4.67c0-2.42-1.97-4.38-4.39-4.38s-4.38,1.97-4.38,4.38v4.67c0,.54-.44.98-.98.98s-.98-.44-.98-.98v-4.67c0-3.5,2.85-6.35,6.35-6.35s6.35,2.85,6.35,6.35v4.67c0,.54-.44.98-.98.98Zm-5.37-10.79c2.83,0,5.14,2.3,5.14,5.13v4.67c0,.26.46.26.46,0v-4.67c0-3.09-2.51-5.6-5.6-5.6s-5.6,2.51-5.6,5.6v4.67c0,.26.46.26.46,0v-4.67c0-2.83,2.3-5.13,5.13-5.13Z"/>
    </g>
    <g>
      <path class="cls-1" d="m39.9,41.37c-.34,0-.61-.27-.61-.61v-1.76c0-.78-.64-1.42-1.42-1.42s-1.42.64-1.42,1.42v1.76c0,.34-.27.61-.61.61s-.61-.27-.61-.61v-1.76c0-1.45,1.18-2.63,2.64-2.63s2.64,1.18,2.64,2.63v1.76c0,.34-.27.61-.61.61Z"/>
      <path class="cls-1" d="m39.9,41.75c-.54,0-.98-.44-.98-.98v-1.76c0-.58-.47-1.04-1.05-1.04s-1.04.47-1.04,1.04v1.76c0,.54-.44.98-.98.98s-.98-.44-.98-.98v-1.76c0-1.66,1.35-3.01,3.01-3.01s3.01,1.35,3.01,3.01v1.76c0,.54-.44.98-.98.98Zm-2.03-4.54c.99,0,1.8.81,1.8,1.79v1.76c0,.26.46.26.46,0v-1.76c0-1.25-1.01-2.26-2.26-2.26s-2.26,1.01-2.26,2.26v1.76c0,.26.46.26.46,0v-1.76c0-.99.81-1.79,1.79-1.79Z"/>
    </g>
  </g>
</svg>