<?xml version="1.0" encoding="UTF-8"?>
<svg id="Layer_1" data-name="Layer 1" xmlns="http://www.w3.org/2000/svg" viewBox="0 0 60 60">
  <defs>
    <style>
      .cls-1 {
        fill: #37464c;
        stroke-width: 0px;
      }
    </style>
  </defs>
  <path class="cls-1" d="m49.42,47H9.98c-2.57,0-4.67-2.09-4.67-4.67v-25.75c0-2.57,2.09-4.67,4.67-4.67h39.44c2.57,0,4.67,2.09,4.67,4.67v25.75c0,2.57-2.09,4.67-4.67,4.67ZM9.98,13.91c-1.47,0-2.67,1.2-2.67,2.67v25.75c0,1.47,1.2,2.67,2.67,2.67h39.44c1.47,0,2.67-1.2,2.67-2.67v-25.75c0-1.47-1.2-2.67-2.67-2.67H9.98Z"/>
  <path class="cls-1" d="m29.05,30.43c-.76,0-1.53-.26-2.17-.77-.43-.34-.51-.97-.16-1.41.34-.43.97-.51,1.41-.16.48.38,1.08.45,1.6.17.49-.26,1.09-.07,1.35.41.26.49.07,1.09-.41,1.35-.51.27-1.06.41-1.61.41Z"/>
  <path class="cls-1" d="m27.5,29.87c-.2,0-.41-.06-.58-.19L7.36,15.56c-.45-.32-.55-.95-.22-1.4.32-.45.95-.55,1.4-.22l19.56,14.13c.45.32.55.95.22,1.4-.2.27-.5.41-.81.41Z"/>
  <path class="cls-1" d="m30.19,30.1c-.33,0-.65-.16-.84-.45-.3-.46-.17-1.08.29-1.38l21.84-14.22c.46-.3,1.08-.17,1.38.29.3.46.17,1.08-.29,1.38l-21.84,14.22c-.17.11-.36.16-.54.16Z"/>
</svg>