<?xml version="1.0" encoding="UTF-8"?>
<svg id="Layer_1" data-name="Layer 1" xmlns="http://www.w3.org/2000/svg" viewBox="0 0 60 60">
  <defs>
    <style>
      .cls-1 {
        fill: #37464c;
        stroke-width: 0px;
      }
    </style>
  </defs>
  <g>
    <g>
      <path class="cls-1" d="m45.33,55.22c-.18,0-.35-.09-.46-.24-.44-.61-10.88-15.12-11.01-20.99-.07-2.94,1.02-5.72,3.05-7.85,2.03-2.12,4.77-3.33,7.71-3.39,6.07-.12,11.12,4.69,11.25,10.75h0c.13,5.87-9.65,20.82-10.07,21.45-.1.16-.28.25-.46.26h-.01Zm-.46-31.33c-.07,0-.15,0-.22,0-2.64.06-5.09,1.14-6.92,3.04-1.82,1.9-2.79,4.4-2.74,7.03.11,4.83,8.23,16.7,10.31,19.67,1.95-3.06,9.54-15.27,9.43-20.1h0c-.12-5.36-4.52-9.64-9.87-9.64Z"/>
      <path class="cls-1" d="m45.35,55.59h-.02c-.3,0-.59-.15-.76-.39-1.12-1.55-10.95-15.34-11.08-21.2-.07-3.04,1.05-5.92,3.16-8.11s4.93-3.44,7.97-3.51c6.26-.13,11.5,4.86,11.63,11.12.13,6-9.71,21.03-10.13,21.67-.17.26-.46.42-.77.43h0Zm-.49-32.47c-.07,0-.15,0-.22,0-2.84.06-5.49,1.23-7.45,3.28-1.96,2.05-3.01,4.74-2.95,7.58.13,5.73,10.5,20.17,10.94,20.78.04.05.09.08.16.08h.01c.05,0,.11-.03.15-.09,3.51-5.33,10.11-16.63,10.01-21.24-.13-5.77-4.88-10.39-10.65-10.39Zm.47,31.18l-.32-.46c-2.41-3.43-10.27-15-10.38-19.87-.06-2.73.95-5.33,2.84-7.3,1.89-1.98,4.44-3.1,7.18-3.16h.23c5.53,0,10.12,4.49,10.24,10.01.11,4.88-7.24,16.78-9.49,20.31l-.3.47Zm-.45-30.04h-.21c-2.54.06-4.9,1.1-6.65,2.93-1.75,1.83-2.69,4.23-2.63,6.77.1,4.53,7.68,15.78,9.92,19,2.09-3.32,9.17-14.89,9.07-19.42-.11-5.11-4.37-9.28-9.49-9.28Z"/>
    </g>
    <g>
      <path class="cls-1" d="m44.87,40.56c-3.69,0-6.73-2.96-6.81-6.66-.04-1.82.63-3.54,1.89-4.86,1.26-1.31,2.95-2.06,4.77-2.1,3.77-.08,6.88,2.9,6.96,6.66.04,1.82-.63,3.54-1.89,4.86-1.26,1.31-2.95,2.06-4.77,2.1-.05,0-.1,0-.15,0Zm0-12.48s-.08,0-.13,0c-1.52.03-2.93.66-3.98,1.75-1.05,1.09-1.61,2.53-1.57,4.05.07,3.08,2.6,5.55,5.68,5.55.04,0,.08,0,.13,0,1.52-.03,2.93-.66,3.98-1.75,1.05-1.09,1.61-2.53,1.57-4.05h0c-.07-3.08-2.6-5.55-5.68-5.55Z"/>
      <path class="cls-1" d="m44.87,40.93c-3.88,0-7.1-3.15-7.19-7.02-.04-1.92.67-3.74,1.99-5.13,1.33-1.39,3.12-2.17,5.04-2.22,3.95-.08,7.26,3.07,7.35,7.02.04,1.92-.67,3.74-1.99,5.12-1.33,1.39-3.12,2.17-5.04,2.21h-.16Zm0-13.62s-.09,0-.14,0c-1.72.04-3.32.74-4.51,1.98-1.19,1.24-1.82,2.87-1.79,4.59.08,3.47,2.96,6.29,6.44,6.29h.14c1.73-.04,3.33-.74,4.52-1.99,1.19-1.24,1.82-2.87,1.79-4.59-.08-3.5-2.96-6.29-6.44-6.29Zm0,12.48c-3.26,0-5.98-2.65-6.05-5.91-.04-1.62.56-3.15,1.68-4.31,1.12-1.17,2.62-1.83,4.24-1.87h.14c3.26,0,5.98,2.65,6.05,5.91.04,1.62-.56,3.15-1.68,4.31-1.12,1.17-2.62,1.83-4.24,1.86h-.14Zm0-11.34h-.12c-1.42.03-2.74.61-3.71,1.64-.98,1.02-1.5,2.36-1.47,3.78.06,2.86,2.44,5.18,5.3,5.18h.12c1.42-.03,2.74-.61,3.72-1.64.98-1.02,1.5-2.36,1.47-3.78-.06-2.86-2.44-5.18-5.3-5.18Z"/>
    </g>
  </g>
  <g>
    <g>
      <path class="cls-1" d="m14.9,28.54c-.18,0-.35-.09-.46-.24-.32-.44-7.86-10.92-7.95-15.19-.05-2.16.75-4.2,2.24-5.76,1.49-1.56,3.5-2.44,5.66-2.49,2.16-.04,4.21.75,5.77,2.24,1.56,1.49,2.45,3.5,2.49,5.66h0c.09,4.27-6.97,15.07-7.27,15.53-.1.16-.28.25-.46.26,0,0,0,0-.01,0Zm-.33-22.55c-.05,0-.11,0-.16,0-1.85.04-3.58.8-4.87,2.14-1.28,1.34-1.97,3.1-1.92,4.95.02,1.11.72,3.52,3.87,8.7,1.34,2.2,2.69,4.17,3.38,5.17.65-1.03,1.91-3.06,3.15-5.31,2.92-5.31,3.51-7.75,3.48-8.86h0c-.04-1.85-.8-3.58-2.14-4.86-1.3-1.24-3-1.92-4.8-1.92Z"/>
      <path class="cls-1" d="m14.92,28.91h-.02c-.3,0-.59-.15-.76-.39-.81-1.12-7.93-11.1-8.02-15.41-.05-2.26.78-4.4,2.34-6.03,1.56-1.63,3.67-2.56,5.92-2.61,2.27-.04,4.41.79,6.03,2.34,1.63,1.56,2.56,3.66,2.61,5.92.1,4.41-7.03,15.28-7.33,15.74-.17.26-.46.42-.77.43h0Zm-.38-23.68s-.1,0-.15,0c-2.06.05-3.97.89-5.4,2.37-1.42,1.49-2.18,3.44-2.14,5.49.09,4.15,7.56,14.54,7.88,14.98.04.05.09.08.16.08h.01c.06,0,.11-.03.15-.09,2.53-3.84,7.29-11.98,7.21-15.32-.04-2.06-.89-3.97-2.38-5.39-1.44-1.38-3.34-2.13-5.35-2.13Zm.35,22.4l-.32-.46c-.69-.99-2.05-2.97-3.4-5.19-2.53-4.16-3.89-7.23-3.93-8.89-.04-1.95.68-3.81,2.03-5.22,1.35-1.41,3.17-2.21,5.13-2.26h.17c1.89,0,3.69.72,5.06,2.03,1.41,1.35,2.21,3.17,2.26,5.12.04,1.66-1.18,4.79-3.53,9.05-1.25,2.27-2.52,4.32-3.16,5.33l-.3.48Zm-.32-21.26h-.15c-1.76.04-3.39.76-4.6,2.03s-1.86,2.93-1.82,4.68c.02.87.54,3.14,3.82,8.51,1.15,1.89,2.31,3.62,3.05,4.68.69-1.1,1.77-2.87,2.84-4.81,3.03-5.52,3.45-7.8,3.44-8.68-.04-1.75-.76-3.38-2.03-4.6-1.23-1.17-2.84-1.82-4.54-1.82Z"/>
    </g>
    <g>
      <path class="cls-1" d="m14.57,17.99c-2.74,0-5-2.2-5.06-4.95-.03-1.35.47-2.63,1.4-3.61.93-.98,2.19-1.53,3.55-1.56,2.78-.07,5.11,2.16,5.17,4.95.03,1.35-.47,2.63-1.4,3.61-.94.98-2.19,1.53-3.55,1.56-.04,0-.08,0-.11,0Zm0-8.98s-.06,0-.09,0c-1.05.02-2.03.45-2.75,1.21-.72.76-1.11,1.75-1.09,2.8.05,2.13,1.8,3.84,3.92,3.84.03,0,.06,0,.09,0,1.05-.02,2.03-.45,2.75-1.21.73-.76,1.11-1.75,1.09-2.8-.05-2.13-1.8-3.84-3.93-3.84Z"/>
      <path class="cls-1" d="m14.57,18.36c-2.93,0-5.37-2.38-5.44-5.31-.03-1.45.5-2.83,1.51-3.88,1-1.05,2.36-1.64,3.81-1.68,1.46-.04,2.82.5,3.87,1.5,1.05,1.01,1.65,2.36,1.69,3.81.03,1.45-.5,2.83-1.51,3.88-1.01,1.05-2.36,1.64-3.81,1.68h-.12Zm.02-10.12s-.08,0-.12,0c-1.25.03-2.42.54-3.29,1.44-.87.9-1.33,2.09-1.3,3.34.06,2.53,2.16,4.58,4.69,4.58h.1c1.25-.03,2.42-.54,3.29-1.45.87-.9,1.33-2.09,1.3-3.34-.03-1.25-.54-2.42-1.45-3.28-.88-.84-2.02-1.3-3.22-1.3Zm-.01,8.98c-2.32,0-4.25-1.89-4.3-4.2-.02-1.15.4-2.24,1.19-3.06.79-.83,1.86-1.3,3.01-1.33h.1c2.32,0,4.25,1.88,4.3,4.2.02,1.15-.4,2.24-1.19,3.07-.79.83-1.86,1.3-3.01,1.33h-.1Zm0-8.22l-.08.38c-.95.02-1.83.41-2.49,1.09s-1.01,1.58-.98,2.53c.04,1.91,1.64,3.47,3.55,3.47,1.03-.02,1.91-.41,2.57-1.1s1.01-1.58.98-2.53c-.04-1.91-1.64-3.47-3.55-3.47v-.38Z"/>
    </g>
  </g>
  <g>
    <path class="cls-1" d="m16.04,31.59c2.7-.24,5.7-.51,8.05,1.13.9.63,1.62,1.54,1.87,2.62.28,1.19-.11,2.42-.55,3.52-.49,1.21-1.1,2.37-1.46,3.63-.34,1.2-.38,2.45-.12,3.67.5,2.42,2.14,4.52,4.39,5.54,1.49.68,3.11.99,4.71,1.34,1.79.39,3.59.75,5.39,1.08.34.06.69-.09.79-.45.09-.31-.11-.72-.45-.79-1.59-.29-3.18-.61-4.77-.95-1.46-.31-2.96-.59-4.37-1.09-1.19-.42-2.23-1.08-3.04-2.04-.73-.87-1.21-1.94-1.43-3.04-.23-1.14-.1-2.28.27-3.37.42-1.26,1.05-2.43,1.51-3.67.44-1.22.67-2.54.34-3.82-.3-1.16-1.04-2.19-1.98-2.94-2.61-2.09-6-1.93-9.15-1.65-.34.03-.64.27-.64.64,0,.32.29.67.64.64h0Z"/>
    <path class="cls-1" d="m38.46,54.51c-.07,0-.15,0-.22-.02-1.82-.33-3.64-.7-5.4-1.08l-.42-.09c-1.46-.32-2.96-.64-4.36-1.27-2.35-1.07-4.08-3.24-4.61-5.81-.27-1.3-.22-2.59.13-3.85.24-.87.61-1.69.96-2.49.17-.39.35-.79.51-1.18.43-1.06.79-2.2.53-3.29-.21-.92-.82-1.77-1.72-2.4-2.22-1.55-5.16-1.3-7.75-1.07l-.08-.37.03.37c-.25.02-.5-.07-.7-.25-.22-.2-.35-.48-.35-.76,0-.54.41-.96.98-1.01,3.45-.3,6.76-.39,9.42,1.73,1.05.84,1.8,1.96,2.1,3.14.31,1.19.19,2.55-.35,4.04-.21.58-.47,1.16-.71,1.71-.28.63-.57,1.29-.79,1.95-.37,1.11-.46,2.18-.26,3.18.22,1.09.68,2.08,1.35,2.87.72.86,1.69,1.51,2.88,1.93,1.17.41,2.43.68,3.64.93l.68.14c1.54.33,3.14.65,4.76.94.25.05.46.2.61.43.16.25.21.56.13.83-.12.45-.52.74-1,.74Zm-19.38-23.47c1.83,0,3.65.28,5.22,1.38,1.05.73,1.77,1.74,2.02,2.84.3,1.3-.12,2.62-.57,3.74-.16.41-.34.81-.52,1.21-.34.77-.7,1.57-.93,2.38-.32,1.14-.36,2.31-.12,3.49.48,2.34,2.04,4.31,4.18,5.28,1.33.6,2.79.92,4.21,1.22l.42.09c1.75.38,3.56.74,5.37,1.08.11.02.31,0,.36-.18.02-.07,0-.16-.04-.23-.02-.03-.06-.08-.11-.09-1.62-.3-3.23-.62-4.78-.95l-.68-.14c-1.24-.26-2.52-.53-3.74-.96-1.31-.46-2.39-1.19-3.2-2.16-.74-.89-1.26-2-1.51-3.21-.23-1.13-.13-2.33.28-3.57.23-.7.53-1.37.82-2.02.24-.54.49-1.1.69-1.66.49-1.35.6-2.56.33-3.6-.26-1.03-.92-2-1.85-2.74-2.44-1.95-5.6-1.86-8.88-1.57-.11,0-.3.08-.3.27,0,.07.04.15.1.21.03.02.07.07.13.06l.03.37v-.38c.99-.08,2.02-.17,3.04-.17Z"/>
  </g>
</svg>