<?xml version="1.0" encoding="UTF-8"?>
<svg id="Layer_1" data-name="Layer 1" xmlns="http://www.w3.org/2000/svg" viewBox="0 0 60 60">
  <defs>
    <style>
      .cls-1 {
        fill: #424242;
        stroke-width: 0px;
      }
    </style>
  </defs>
  <g>
    <g>
      <path class="cls-1" d="m8.63,56.76h-1.5v-12.23c0-3.56,2.14-6.7,5.46-8l6.94-2.71c2.39-.93,3.96-3.18,4-5.71l1.5.02c-.05,3.15-1.99,5.93-4.95,7.09l-6.94,2.71c-2.74,1.07-4.51,3.66-4.51,6.6v12.23Z"/>
      <path class="cls-1" d="m52.57,56.76h-1.5v-12.23c0-2.94-1.77-5.53-4.51-6.6l-6.94-2.71c-2.96-1.16-4.9-3.94-4.95-7.09l1.5-.02c.04,2.54,1.61,4.78,4,5.71l6.94,2.71c3.32,1.3,5.46,4.44,5.46,8v12.23Z"/>
    </g>
    <polygon class="cls-1" points="29.86 42.89 21.73 33.37 22.87 32.4 29.86 40.58 36.82 32.42 37.96 33.39 29.86 42.89"/>
    <path class="cls-1" d="m42.46,38.29h-1.5v-1.49c0-2.97-2.21-5.71-5.76-7.15l.57-1.39c4.13,1.68,6.69,4.95,6.69,8.54v1.49Z"/>
    <path class="cls-1" d="m18.73,45.9h-1.5v-9.11c0-3.59,2.56-6.86,6.69-8.54l.57,1.39c-3.55,1.44-5.76,4.19-5.76,7.15v9.11Z"/>
    <path class="cls-1" d="m17.98,51.76c-1.82,0-3.3-1.48-3.3-3.3s1.48-3.3,3.3-3.3,3.3,1.48,3.3,3.3-1.48,3.3-3.3,3.3Zm0-5.11c-1,0-1.8.81-1.8,1.8s.81,1.8,1.8,1.8,1.8-.81,1.8-1.8-.81-1.8-1.8-1.8Z"/>
    <rect class="cls-1" x="29.11" y="41.74" width="1.5" height="15.02"/>
    <g>
      <rect class="cls-1" x="26.33" y="47.3" width="1.5" height=".74"/>
      <rect class="cls-1" x="26.33" y="53.47" width="1.5" height=".74"/>
    </g>
    <path class="cls-1" d="m44.57,50.23l-.82-1.26c.4-.26,1.53-1.2,1.52-2.07-.04-3.21-1.31-7.74-3.61-7.86-2.21.13-3.49,4.65-3.53,7.86,0,.88,1.12,1.81,1.52,2.07l-.82,1.26c-.23-.15-2.22-1.5-2.2-3.34.04-3.51,1.44-9.14,5.03-9.35,3.67.2,5.07,5.84,5.11,9.35.02,1.85-1.98,3.2-2.2,3.34Z"/>
    <g>
      <path class="cls-1" d="m39.66,51.57c-.75,0-1.36-.61-1.36-1.36s.61-1.36,1.36-1.36,1.36.61,1.36,1.36-.61,1.36-1.36,1.36Zm0-1.5c-.08,0-.14.06-.14.14,0,.15.28.15.28,0,0-.08-.06-.14-.14-.14Z"/>
      <path class="cls-1" d="m43.76,51.57c-.75,0-1.36-.61-1.36-1.36s.61-1.36,1.36-1.36,1.36.61,1.36,1.36-.61,1.36-1.36,1.36Zm0-1.5c-.08,0-.14.06-.14.14,0,.15.28.15.28,0,0-.08-.06-.14-.14-.14Z"/>
    </g>
  </g>
  <g>
    <path class="cls-1" d="m29.83,31.66c-4.94,0-8.66-5.46-9.79-10.79-1.25-.51-1.36-3.08-1.34-4.22.02-1.55.3-3.43,1.5-3.54l.14,1.49c.13-.01.21-.08.23-.1-.52.61-.46,4.2.05,4.94l.66-.17.14.79c.89,4.96,4.28,10.09,8.42,10.09s7.52-5.18,8.42-10.06l.11-.61h.55s.05-.01.08-.02c.5-.53.72-4.19.22-4.82,0,.01.03.03.07.05l-.26-1.41c.2-.04.38-.05.56-.03.75.07,1.2.79,1.35,2.14.14,1.24.07,4.7-1.3,5.43-1.13,5.34-4.87,10.83-9.8,10.83Z"/>
    <path class="cls-1" d="m23.71,15.1c-1.27,0-2.48-.17-3.63-.52l-.33-.1-.17-.32c-.6-1.32-.43-3.64.38-5.39.68-1.47,1.74-2.49,3.08-2.97,1.18-2.34,4.19-3.29,8.52-2.69,2.8.39,5.37,1.87,6.89,3.97,1.43,1.97,1.92,4.43,1.44,7.09l-.12.63-.64-.02c-1.81-.05-3.76-1.9-4.75-3.05-3.88,2.25-7.45,3.37-10.68,3.37Zm-2.87-1.87c3.77.99,8.25-.06,13.34-3.13l.59-.35.41.55c.57.78,2.06,2.36,3.35,2.84.21-1.98-.22-3.72-1.29-5.19-1.28-1.77-3.48-3.03-5.88-3.36h0c-2.19-.3-6.03-.44-7.08,2.1l-.14.34-.35.1c-1.35.38-2.09,1.44-2.47,2.27-.63,1.34-.73,2.93-.48,3.84Z"/>
    <path class="cls-1" d="m37.45,26.34l-1.49-.19c.23-1.87,0-4.29-.26-5.74-2.02-.48-9.36-.56-11.71,0-.25,1.44-.49,3.87-.26,5.73l-1.49.19c-.3-2.42.1-5.41.36-6.65l.08-.4.38-.15c2.36-.92,11.87-.75,13.59.01l.35.16.08.38c.26,1.24.66,4.23.36,6.65Z"/>
    <path class="cls-1" d="m22.86,20.42c-2-1.64-3.12-5.42-3.3-6.26l1.47-.3c.19.96,1.25,4.15,2.78,5.4l-.95,1.16Z"/>
    <path class="cls-1" d="m36.79,20.42l-.95-1.16c1.31-1.07,2.28-3.87,2.59-5.39l1.47.3c-.04.18-.92,4.46-3.11,6.25Z"/>
  </g>
</svg>