<?xml version="1.0" encoding="UTF-8"?>
<svg id="Layer_1" data-name="Layer 1" xmlns="http://www.w3.org/2000/svg" viewBox="0 0 60 60">
  <defs>
    <style>
      .cls-1 {
        fill: #37464c;
        stroke-width: 0px;
      }
    </style>
  </defs>
  <path class="cls-1" d="m17.33,13.58c-2.46,0-4.46-2-4.46-4.46s2-4.46,4.46-4.46,4.46,2,4.46,4.46-2,4.46-4.46,4.46Zm0-7.91c-1.91,0-3.46,1.55-3.46,3.46s1.55,3.46,3.46,3.46,3.46-1.55,3.46-3.46-1.55-3.46-3.46-3.46Z"/>
  <path class="cls-1" d="m17.33,14.08c-2.73,0-4.96-2.22-4.96-4.96s2.22-4.96,4.96-4.96,4.96,2.22,4.96,4.96-2.22,4.96-4.96,4.96Zm0-7.91c-1.63,0-2.96,1.33-2.96,2.96s1.33,2.96,2.96,2.96,2.96-1.33,2.96-2.96-1.33-2.96-2.96-2.96Z"/>
  <path class="cls-1" d="m41.64,13.58c-2.46,0-4.46-2-4.46-4.46s2-4.46,4.46-4.46,4.46,2,4.46,4.46-2,4.46-4.46,4.46Zm0-7.91c-1.91,0-3.46,1.55-3.46,3.46s1.55,3.46,3.46,3.46,3.46-1.55,3.46-3.46-1.55-3.46-3.46-3.46Z"/>
  <path class="cls-1" d="m41.64,14.08c-2.73,0-4.96-2.22-4.96-4.96s2.22-4.96,4.96-4.96,4.96,2.22,4.96,4.96-2.22,4.96-4.96,4.96Zm0-7.91c-1.63,0-2.96,1.33-2.96,2.96s1.33,2.96,2.96,2.96,2.96-1.33,2.96-2.96-1.33-2.96-2.96-2.96Z"/>
  <path class="cls-1" d="m9.95,26.84h-1v-7.51c0-1.96,1.59-3.55,3.55-3.55h9.67c1.96,0,3.55,1.59,3.55,3.55v2.6h-1v-2.6c0-1.41-1.14-2.55-2.55-2.55h-9.67c-1.4,0-2.55,1.14-2.55,2.55v7.51Z"/>
  <path class="cls-1" d="m9.45,27.84c-.55,0-1-.45-1-1v-7.51c0-2.23,1.82-4.05,4.05-4.05h9.67c2.23,0,4.05,1.82,4.05,4.05v2.6c0,.55-.45,1-1,1s-1-.45-1-1v-2.6c0-1.13-.92-2.05-2.05-2.05h-9.67c-1.13,0-2.05.92-2.05,2.05v7.51c0,.55-.45,1-1,1Z"/>
  <path class="cls-1" d="m50.02,26.72h-1v-7.39c0-1.4-1.14-2.55-2.55-2.55h-9.67c-1.4,0-2.55,1.14-2.55,2.55v2.58h-1v-2.58c0-1.96,1.59-3.55,3.55-3.55h9.67c1.96,0,3.55,1.59,3.55,3.55v7.39Z"/>
  <path class="cls-1" d="m49.52,27.72c-.55,0-1-.45-1-1v-7.39c0-1.13-.92-2.05-2.05-2.05h-9.67c-1.13,0-2.05.92-2.05,2.05v2.58c0,.55-.45,1-1,1s-1-.45-1-1v-2.58c0-2.23,1.82-4.05,4.05-4.05h9.67c2.23,0,4.05,1.82,4.05,4.05v7.39c0,.55-.45,1-1,1Z"/>
  <path class="cls-1" d="m29.59,57.5c-1.39,0-2.83-.08-4.42-.24l-.45-.05v-9.84c0-1.41-1.14-2.55-2.55-2.55h-9.67c-1.4,0-2.55,1.14-2.55,2.55v4.89l-.79-.57c-4.14-2.99-6.42-6.8-6.42-10.74,0-9.13,12.04-16.55,26.85-16.55s26.85,7.42,26.85,16.55c0,4-2.35,7.87-6.63,10.88l-.79.56v-5.01c0-1.41-1.14-2.55-2.55-2.55h-9.67c-1.4,0-2.55,1.14-2.55,2.55v9.86l-.45.04c-1.53.15-2.91.22-4.21.22Zm-3.87-1.19c2.67.25,4.8.26,7.53.02v-8.95c0-1.96,1.59-3.55,3.55-3.55h9.67c1.96,0,3.55,1.59,3.55,3.55v3.06c3.5-2.72,5.42-6.06,5.42-9.48,0-8.57-11.6-15.55-25.85-15.55S3.74,32.38,3.74,40.95c0,3.36,1.84,6.64,5.21,9.33v-2.91c0-1.96,1.59-3.55,3.55-3.55h9.67c1.96,0,3.55,1.59,3.55,3.55v8.93Zm15.92-14.68c-2.46,0-4.46-2-4.46-4.46s2-4.46,4.46-4.46,4.46,2,4.46,4.46-2,4.46-4.46,4.46Zm0-7.91c-1.91,0-3.46,1.55-3.46,3.46s1.55,3.46,3.46,3.46,3.46-1.55,3.46-3.46-1.55-3.46-3.46-3.46Zm-24.3,7.91c-2.46,0-4.46-2-4.46-4.46s2-4.46,4.46-4.46,4.46,2,4.46,4.46-2,4.46-4.46,4.46Zm0-7.91c-1.91,0-3.46,1.55-3.46,3.46s1.55,3.46,3.46,3.46,3.46-1.55,3.46-3.46-1.55-3.46-3.46-3.46Z"/>
  <path class="cls-1" d="m29.59,58c-1.4,0-2.86-.08-4.47-.24-.51-.05-.9-.48-.9-.99v-9.38c0-1.13-.92-2.05-2.05-2.05h-9.67c-1.13,0-2.05.92-2.05,2.05v3.91c0,.38-.21.72-.54.89-.33.17-.74.14-1.04-.08-4.27-3.08-6.63-7.04-6.63-11.15,0-9.4,12.27-17.05,27.35-17.05s27.35,7.65,27.35,17.05c0,4.17-2.43,8.18-6.84,11.29-.31.22-.71.24-1.04.07-.33-.17-.54-.51-.54-.89v-4.05c0-1.13-.92-2.05-2.05-2.05h-9.67c-1.13,0-2.05.92-2.05,2.05v9.4c0,.51-.39.95-.9,1-1.55.15-2.94.22-4.26.22Zm-3.37-2.15c2.3.19,4.19.2,6.53.01v-8.49c0-2.23,1.82-4.05,4.05-4.05h9.67c2.23,0,4.05,1.82,4.05,4.05v2c2.86-2.49,4.42-5.43,4.42-8.42,0-8.3-11.37-15.05-25.35-15.05s-25.35,6.75-25.35,15.05c0,2.92,1.48,5.8,4.21,8.25v-1.83c0-2.23,1.82-4.05,4.05-4.05h9.67c2.23,0,4.05,1.82,4.05,4.05v8.47Zm15.42-13.72c-2.73,0-4.96-2.22-4.96-4.96s2.22-4.96,4.96-4.96,4.96,2.22,4.96,4.96-2.22,4.96-4.96,4.96Zm0-7.91c-1.63,0-2.96,1.33-2.96,2.96s1.33,2.96,2.96,2.96,2.96-1.33,2.96-2.96-1.33-2.96-2.96-2.96Zm-24.3,7.91c-2.73,0-4.96-2.22-4.96-4.96s2.22-4.96,4.96-4.96,4.96,2.22,4.96,4.96-2.22,4.96-4.96,4.96Zm0-7.91c-1.63,0-2.96,1.33-2.96,2.96s1.33,2.96,2.96,2.96,2.96-1.33,2.96-2.96-1.33-2.96-2.96-2.96Z"/>
</svg>