<?xml version="1.0" encoding="UTF-8"?>
<svg id="Layer_1" data-name="Layer 1" xmlns="http://www.w3.org/2000/svg" viewBox="0 0 60 60">
  <defs>
    <style>
      .cls-1 {
        fill: #37464c;
        stroke-width: 0px;
      }
    </style>
  </defs>
  <path class="cls-1" d="m47,50.58c-2.21,0-4-1.79-4-4V10.58c0-2.21,1.79-4,4-4s4,1.79,4,4v36c0,2.21-1.79,4-4,4Zm0-42c-1.1,0-2,.9-2,2v36c0,1.1.9,2,2,2s2-.9,2-2V10.58c0-1.1-.9-2-2-2Z"/>
  <path class="cls-1" d="m52,33.58h-2v-2h2c1.65,0,3-1.35,3-3s-1.35-3-3-3h-2v-2h2c2.76,0,5,2.24,5,5s-2.24,5-5,5Z"/>
  <path class="cls-1" d="m20,38.58h-9c-5.51,0-10-4.49-10-10s4.49-10,10-10h9c.55,0,1,.45,1,1v18c0,.55-.45,1-1,1Zm-9-18c-4.41,0-8,3.59-8,8s3.59,8,8,8h8v-16h-8Z"/>
  <path class="cls-1" d="m43.29,47.28c-.09-.09-8.8-8.71-19.29-8.71h-4v-2h4c11.33,0,20.33,8.92,20.71,9.29l-1.42,1.41Z"/>
  <path class="cls-1" d="m24,20.58h-4v-2h4c10.49,0,19.21-8.62,19.29-8.71l1.42,1.41c-.38.38-9.38,9.29-20.71,9.29Z"/>
  <path class="cls-1" d="m18,54.58c-3.86,0-7-3.14-7-7v-10c0-.55.45-1,1-1h8c.55,0,1,.45,1,1v14c0,1.65-1.35,3-3,3Zm-5-16v9c0,2.76,2.24,5,5,5,.55,0,1-.45,1-1v-13h-6Z"/>
  <path class="cls-1" d="m22,42.58h-2v-2h2c.55,0,1-.45,1-1v-2h2v2c0,1.65-1.35,3-3,3Z"/>
  <path class="cls-1" d="m6,29.58c-.55,0-1-.45-1-1,0-3.31,2.69-6,6-6,.55,0,1,.45,1,1s-.45,1-1,1c-2.21,0-4,1.79-4,4,0,.55-.45,1-1,1Z"/>
</svg>