<?xml version="1.0" encoding="UTF-8"?>
<svg id="Layer_1" data-name="Layer 1" xmlns="http://www.w3.org/2000/svg" viewBox="0 0 60 60">
  <defs>
    <style>
      .cls-1 {
        fill: #37464c;
        stroke-width: 0px;
      }
    </style>
  </defs>
  <path class="cls-1" d="m50,57H12c-.55,0-1-.45-1-1v-2c0-2.76,2.24-5,5-5h15v-4c0-3.31,2.69-6,6-6s6,2.69,6,6v4h1c3.86,0,7,3.14,7,7,0,.55-.45,1-1,1Zm-37-2h35.9c-.46-2.28-2.48-4-4.9-4h-2c-.55,0-1-.45-1-1v-5c0-2.21-1.79-4-4-4s-4,1.79-4,4v5c0,.55-.45,1-1,1h-16c-1.65,0-3,1.35-3,3v1Z"/>
  <path class="cls-1" d="m37,47c-1.1,0-2-.9-2-2s.9-2,2-2,2,.9,2,2-.9,2-2,2Zm0-2h0s0,0,0,0Z"/>
  <path class="cls-1" d="m32,45h-13c-.55,0-1-.45-1-1s.45-1,1-1h13c.55,0,1,.45,1,1s-.45,1-1,1Z"/>
  <path class="cls-1" d="m30,25c-2.76,0-5-2.24-5-5s2.24-5,5-5,5,2.24,5,5-2.24,5-5,5Zm0-8c-1.65,0-3,1.35-3,3s1.35,3,3,3,3-1.35,3-3-1.35-3-3-3Z"/>
  <path class="cls-1" d="m30,33h-10c-.55,0-1-.45-1-1V12c0-.55.45-1,1-1h10c.55,0,1,.45,1,1v4h-2v-3h-8v18h8v-7h2v8c0,.55-.45,1-1,1Z"/>
  <path class="cls-1" d="m39.42,40.71l-1.78-.91c.89-1.74,1.36-3.74,1.36-5.79,0-4.83-2.54-9.05-6.32-10.5l.72-1.87c4.55,1.75,7.6,6.72,7.6,12.36,0,2.36-.55,4.68-1.58,6.7Z"/>
  <rect class="cls-1" x="27" y="6" width="2" height="6"/>
  <path class="cls-1" d="m29.5,7h-9c-.55,0-1-.45-1-1s.45-1,1-1h9c.55,0,1,.45,1,1s-.45,1-1,1Z"/>
  <rect class="cls-1" x="21" y="6" width="2" height="6"/>
  <path class="cls-1" d="m27,39h-4c-1.1,0-2-.9-2-2v-5h2v5h4v-5h2v5c0,1.1-.9,2-2,2Z"/>
  <path class="cls-1" d="m42.43,43.5l-1.72-1.03c1.5-2.51,2.29-5.44,2.29-8.47,0-6.73-3.94-12.67-9.57-14.45l.6-1.91c6.46,2.04,10.97,8.77,10.97,16.36,0,3.4-.89,6.68-2.57,9.5Z"/>
</svg>