<?xml version="1.0" encoding="UTF-8"?>
<svg id="Layer_1" data-name="Layer 1" xmlns="http://www.w3.org/2000/svg" viewBox="0 0 60 60">
  <defs>
    <style>
      .cls-1 {
        fill: #37464c;
        stroke-width: 0px;
      }
    </style>
  </defs>
  <path class="cls-1" d="m31.88,9c-.26,0-.52-.11-.71-.29-.09-.1-.16-.21-.21-.33-.05-.12-.08-.25-.08-.38,0-.26.11-.52.29-.71.24-.23.58-.34.91-.27.06,0,.12.03.18.06.06.02.12.05.17.09.06.04.11.08.16.12.18.19.29.45.29.71,0,.13-.03.26-.08.38s-.12.23-.21.33c-.19.18-.45.29-.71.29Z"/>
  <path class="cls-1" d="m46.71,44.5c-.98,0-1.96-.37-2.71-1.12-.72-.72-1.12-1.69-1.12-2.71s.4-1.99,1.12-2.71l1.33-1.34c1.49-1.49,3.92-1.49,5.42,0,1.49,1.49,1.49,3.93,0,5.42l-1.34,1.33c-.75.75-1.73,1.12-2.71,1.12Zm1.34-7c-.47,0-.94.18-1.3.54l-1.33,1.34c-.35.35-.54.81-.54,1.3s.19.95.54,1.3c.71.71,1.88.71,2.59,0h0l1.34-1.33c.71-.71.71-1.88,0-2.59-.36-.36-.83-.54-1.3-.54Z"/>
  <path class="cls-1" d="m45.71,38c-.98,0-1.96-.37-2.71-1.12-.72-.72-1.12-1.69-1.12-2.71s.4-1.99,1.12-2.71l2.33-2.34c1.49-1.49,3.92-1.49,5.42,0,1.49,1.49,1.49,3.93,0,5.42l-2.34,2.33c-.75.75-1.73,1.12-2.71,1.12Zm2.34-8c-.47,0-.94.18-1.3.54l-2.33,2.34c-.35.35-.54.81-.54,1.3s.19.95.54,1.3c.71.71,1.88.71,2.59,0h0l2.34-2.33c.71-.71.71-1.88,0-2.59-.36-.36-.83-.54-1.3-.54Z"/>
  <path class="cls-1" d="m44.71,31c-.98,0-1.96-.37-2.71-1.12-.72-.72-1.12-1.69-1.12-2.71s.4-1.99,1.12-2.71l3.33-3.34c1.49-1.49,3.92-1.49,5.42,0,1.49,1.49,1.49,3.93,0,5.42l-3.34,3.33c-.75.75-1.73,1.12-2.71,1.12Zm3.34-9c-.47,0-.94.18-1.3.54l-3.33,3.34c-.35.35-.54.81-.54,1.3s.19.95.54,1.3c.71.71,1.88.71,2.59,0h0l3.34-3.33c.71-.71.71-1.88,0-2.59-.36-.36-.83-.54-1.3-.54Z"/>
  <path class="cls-1" d="m44.88,22c-.26,0-.51-.1-.71-.29-.39-.39-.39-1.02,0-1.41l7.17-7.17c.35-.35.54-.81.54-1.29s-.19-.95-.54-1.29c-.71-.71-1.88-.71-2.59,0l-3.17,3.17c-.39.39-1.02.39-1.41,0-.39-.39-.39-1.02,0-1.41l3.17-3.17c1.49-1.49,3.92-1.49,5.42,0,.72.72,1.12,1.69,1.12,2.71s-.4,1.99-1.12,2.71l-7.17,7.17c-.2.2-.45.29-.71.29Z"/>
  <path class="cls-1" d="m33.88,45h-4c-.55,0-1-.45-1-1s.45-1,1-1h4c.55,0,1,.45,1,1s-.45,1-1,1Z"/>
  <path class="cls-1" d="m6.88,47c-.26,0-.51-.1-.71-.29-.39-.39-.39-1.02,0-1.41l.24-.24c.95-.94,1.47-2.2,1.47-3.54v-5.09c0-2.76.82-5.35,2.38-7.49,1.75-2.41,3.94-6.56,4.45-12.68.09-1.06.71-1.99,1.65-2.48.88-.46,1.92-.45,2.77.05,4.19,2.42,4.43,9.32.7,20.51-.17.52-.74.81-1.27.63-.52-.17-.81-.74-.63-1.27,3.29-9.87,3.36-16.31.19-18.14-.35-.2-.68-.09-.84,0-.33.17-.55.51-.58.88-.55,6.58-2.93,11.08-4.83,13.69-1.3,1.8-1.99,3.98-1.99,6.32v5.09c0,1.87-.73,3.63-2.05,4.95l-.24.24c-.2.2-.45.29-.71.29Z"/>
  <path class="cls-1" d="m40.88,51h-18c-2.76,0-5-2.24-5-5v-12c0-.11.02-.21.05-.32,3.21-9.62,3.35-16.01.39-18-.28-.19-.44-.5-.44-.83v-6.86c0-2.76,2.24-5,5-5h18c2.76,0,5,2.24,5,5v15c0,.55-.45,1-1,1s-1-.45-1-1v-15c0-1.65-1.35-3-3-3h-18c-1.65,0-3,1.35-3,3v6.36c3.42,2.81,3.42,9.47,0,19.81v11.84c0,1.65,1.35,3,3,3h18c1.65,0,3-1.35,3-3v-3.17c0-.55.45-1,1-1s1,.45,1,1v3.17c0,2.76-2.24,5-5,5Z"/>
  <path class="cls-1" d="m21.88,59c-.26,0-.51-.1-.71-.29-.39-.39-.39-1.02,0-1.41l.4-.4c1.11-1.11,2.58-1.81,4.25-2.01,3.98-.48,7.62-2.45,10.24-5.53.36-.42.99-.47,1.41-.11.42.36.47.99.11,1.41-2.95,3.47-7.04,5.67-11.52,6.22-1.22.15-2.29.65-3.08,1.44l-.4.4c-.2.2-.45.29-.71.29Z"/>
  <g>
    <path class="cls-1" d="m35.82,27.9c.02.51-.05.97-.23,1.39-.18.42-.43.79-.77,1.1-.34.31-.76.57-1.27.77-.5.2-1.07.33-1.7.39l-.12,2.06s-.01.07-.03.11c-.02.04-.04.07-.09.09-.04.02-.1.04-.18.06-.08.02-.18.03-.31.03-.15,0-.26,0-.35,0-.09-.01-.16-.03-.21-.05-.05-.02-.09-.05-.1-.09-.02-.04-.02-.09-.01-.14l.13-2.06c-.3-.02-.59-.06-.85-.11-.26-.05-.49-.1-.7-.16-.21-.06-.38-.13-.53-.2-.15-.07-.25-.14-.32-.2-.07-.06-.12-.15-.15-.25-.03-.11-.05-.25-.06-.44,0-.14,0-.25,0-.35,0-.09.02-.17.05-.23s.05-.1.09-.13c.04-.02.09-.04.15-.04.08,0,.2.04.36.12s.36.18.61.28c.25.1.56.19.93.27.36.08.8.11,1.3.08.9-.04,1.57-.25,2.02-.62.45-.37.66-.86.63-1.47-.02-.37-.12-.68-.3-.92-.18-.24-.42-.45-.71-.61-.29-.17-.61-.31-.98-.42-.36-.11-.73-.23-1.11-.35-.37-.12-.74-.25-1.11-.41-.37-.15-.69-.35-.98-.59-.29-.24-.53-.54-.71-.89-.19-.36-.29-.8-.31-1.33-.02-.42.04-.82.17-1.19.13-.37.33-.7.61-.99.28-.29.63-.53,1.07-.72.43-.19.94-.32,1.53-.38l.11-1.92s.01-.07.03-.11c.01-.04.04-.07.09-.09.04-.03.1-.05.18-.06.08-.01.18-.02.31-.03.14,0,.25,0,.35,0,.09,0,.16.03.21.05.05.03.08.06.09.09.01.04.02.08.02.13l-.12,1.9c.19.01.39.04.6.07.21.04.4.08.58.14.18.05.35.11.5.18.15.07.25.12.31.17.05.05.09.09.12.14.02.04.04.09.06.15s.03.12.04.2c.01.08.02.16.03.26,0,.12,0,.22,0,.31,0,.09-.02.16-.03.21-.02.05-.04.09-.07.12-.03.03-.07.04-.11.04-.07,0-.18-.03-.34-.11-.16-.08-.35-.16-.59-.24-.23-.08-.5-.16-.81-.23-.31-.07-.65-.09-1.02-.08-.42.02-.78.08-1.08.17-.3.1-.53.22-.71.38-.18.16-.31.34-.38.55-.08.21-.11.44-.1.69.02.38.12.69.3.94s.42.45.71.61.62.3.98.41c.37.11.74.23,1.12.34.38.12.76.25,1.12.4.37.15.7.34.99.58.29.24.53.54.72.89.19.36.3.8.32,1.33Z"/>
    <path class="cls-1" d="m31,34.29c-.11,0-.2,0-.27-.02-.11-.01-.2-.04-.29-.07-.15-.06-.26-.16-.32-.3-.05-.1-.06-.22-.03-.35l.1-1.64c-.18-.02-.36-.05-.52-.08-.27-.05-.52-.11-.74-.17-.23-.07-.42-.14-.58-.22-.18-.09-.31-.17-.41-.26-.12-.11-.21-.26-.26-.43-.04-.13-.06-.31-.07-.53,0-.16,0-.29,0-.4.01-.12.03-.23.07-.33.05-.14.13-.25.25-.32.11-.06.21-.09.33-.1.15-.01.33.05.55.17.14.08.33.16.57.26.23.09.53.18.87.25.33.07.73.1,1.21.08.81-.04,1.41-.22,1.79-.53.36-.3.52-.68.5-1.17-.01-.3-.09-.53-.22-.71-.15-.2-.35-.37-.59-.51-.26-.15-.57-.28-.9-.39l-1.11-.34c-.39-.12-.77-.26-1.14-.42-.4-.17-.76-.39-1.07-.65-.33-.27-.6-.61-.81-1.01-.21-.4-.33-.9-.36-1.49-.02-.47.04-.92.19-1.33.15-.42.38-.8.7-1.13.31-.32.71-.59,1.18-.8.39-.17.83-.3,1.33-.37l.09-1.61c.01-.1.03-.17.06-.24.04-.1.12-.19.23-.27.08-.05.18-.09.31-.11.1-.01.21-.03.36-.03.16,0,.29,0,.4,0,.15.01.26.05.36.1.16.09.23.21.26.29.03.07.04.16.05.25l-.1,1.58c.09.01.17.03.27.04.22.04.43.09.62.15.2.06.38.12.54.19.19.09.31.16.4.23.09.08.16.16.2.23.05.08.08.16.1.24.02.07.04.15.05.24.02.08.02.18.03.3,0,.14,0,.26,0,.36,0,.11-.02.21-.05.3-.04.12-.1.21-.18.28-.1.08-.21.13-.34.13-.14.01-.3-.04-.52-.15-.15-.07-.33-.14-.55-.22-.22-.08-.48-.15-.77-.22-.27-.06-.58-.08-.92-.07-.39.02-.72.07-.98.15-.25.08-.44.18-.58.3-.13.11-.22.25-.28.4-.06.16-.08.35-.08.54.01.3.09.54.23.73.15.2.35.38.6.51.26.15.57.28.9.38.37.11.74.23,1.12.35.39.12.78.26,1.15.41.4.16.77.38,1.09.64.33.27.6.61.81,1.01.22.41.34.91.36,1.49.02.56-.06,1.08-.26,1.55-.2.47-.49.89-.87,1.23-.37.34-.84.62-1.38.84-.45.18-.94.3-1.48.38l-.1,1.75c0,.09-.03.15-.05.22-.04.09-.11.2-.25.28-.09.05-.18.08-.3.1-.09.02-.21.03-.36.04-.05,0-.1,0-.15,0Zm-.15-.76c.07,0,.16,0,.27,0,.1,0,.18-.01.25-.03,0,0,0,0,0,0l.13-2.3.32-.03c.59-.06,1.13-.18,1.6-.36.46-.18.85-.42,1.15-.69.3-.28.52-.59.68-.97.15-.37.22-.78.2-1.23h0c-.02-.47-.11-.86-.28-1.17-.17-.31-.38-.57-.63-.78-.26-.21-.56-.39-.89-.52-.36-.14-.72-.27-1.09-.39-.38-.12-.75-.23-1.12-.34-.39-.12-.75-.27-1.06-.44-.33-.19-.61-.43-.82-.71-.23-.3-.36-.69-.38-1.14-.01-.29.03-.57.12-.83.1-.28.27-.51.49-.71.22-.19.5-.34.84-.45.33-.1.72-.17,1.18-.19.4-.02.78.01,1.12.09.32.07.61.15.86.24.25.09.46.18.62.26,0,0,.01,0,.02,0,0-.07,0-.15,0-.23,0-.07,0-.14-.02-.2-.01-.07-.02-.12-.03-.17l.18-.38-.24.29s-.05-.04-.22-.12c-.13-.06-.28-.11-.44-.16-.17-.05-.36-.09-.55-.13-.19-.03-.37-.06-.55-.07l-.38-.02.14-2.16c-.1,0-.19,0-.28,0-.1,0-.18.01-.24.02l-.12,2.16-.32.03c-.54.06-1.02.18-1.42.35-.39.17-.71.39-.95.64-.24.25-.42.53-.53.85-.11.33-.16.68-.15,1.05.02.47.11.87.27,1.17.16.31.37.57.62.78.26.22.56.4.89.54.35.15.71.28,1.07.39l1.11.35c.39.12.74.27,1.05.45.33.19.61.43.82.71.23.3.35.68.37,1.13.03.73-.23,1.32-.77,1.77-.51.43-1.27.66-2.24.71-.54.02-1.01,0-1.4-.09-.38-.08-.71-.18-.99-.28-.27-.11-.49-.21-.66-.3-.03-.02-.06-.03-.09-.04,0,0,0,.02,0,.02,0,.08,0,.18,0,.3,0,.2.03.3.04.36.06.1.13.15.27.22.13.06.29.12.47.17.19.06.41.11.66.15.25.05.52.08.81.11l.37.03-.14,2.3Z"/>
  </g>
</svg>