<?xml version="1.0" encoding="UTF-8"?>
<svg id="Layer_1" data-name="Layer 1" xmlns="http://www.w3.org/2000/svg" viewBox="0 0 60 60">
  <defs>
    <style>
      .cls-1 {
        fill: #31353f;
      }

      .cls-1, .cls-2 {
        stroke-width: 0px;
      }

      .cls-2 {
        fill: #424242;
      }
    </style>
  </defs>
  <g>
    <path class="cls-2" d="m40.1,30.46h-1.5V7.93c0-.33-.27-.6-.6-.6H10.6c-.33,0-.6.27-.6.6h-1.5c0-1.16.94-2.1,2.1-2.1h27.4c1.16,0,2.1.94,2.1,2.1v22.53Z"/>
    <path class="cls-2" d="m15.22,49.98h-7.75c-1.16,0-2.1-.94-2.1-2.1V11.02c0-1.16.94-2.1,2.1-2.1h27.4c1.16,0,2.1.94,2.1,2.1v20.52h-1.5V11.02c0-.33-.27-.6-.6-.6H7.47c-.33,0-.6.27-.6.6v36.87c0,.33.27.6.6.6h7.75v1.5Z"/>
  </g>
  <path class="cls-2" d="m17.36,24.58h-5.29v-3.67h-3.68v-5.29h3.68v-3.68h5.29v3.68h3.68v5.29h-3.68v3.67Zm-3.79-1.5h2.29v-3.67h3.68v-2.29h-3.68v-3.68h-2.29v3.68h-3.68v2.29h3.68v3.67Z"/>
  <polygon class="cls-2" points="48.75 55.68 16.66 55.68 16.66 46.2 18.16 46.2 18.16 54.18 47.25 54.18 47.25 44.58 48.75 44.58 48.75 55.68"/>
  <path class="cls-2" d="m32.71,54.13c-1.74,0-3.41-.73-4.59-2l1.1-1.02c.91.97,2.2,1.55,3.53,1.52,2.53-.02,4.62-2.01,4.75-4.53l1.5.08c-.17,3.32-2.91,5.94-6.23,5.96h-.04Z"/>
  <path class="cls-2" d="m20.02,55.57l-5.36-14.71,30.16-10.98,5.35,14.71-30.16,10.98Zm-3.43-13.82l4.33,11.9,27.34-9.95-4.33-11.9-27.34,9.95Z"/>
  <path class="cls-2" d="m32.43,49c-2.57,0-4.98-1.59-5.91-4.13-1.18-3.26.5-6.87,3.76-8.05,1.58-.57,3.28-.5,4.8.21,1.52.71,2.67,1.97,3.25,3.55,1.18,3.26-.5,6.87-3.75,8.05-.71.26-1.43.38-2.14.38Zm0-11.07c-.55,0-1.11.1-1.64.29-1.2.44-2.16,1.32-2.7,2.47-.54,1.16-.6,2.46-.16,3.66.9,2.48,3.65,3.76,6.13,2.86,2.48-.9,3.76-3.65,2.86-6.13-.44-1.2-1.31-2.16-2.47-2.7-.64-.3-1.33-.45-2.02-.45Z"/>
  <g>
    <path class="cls-1" d="m34.39,43.18c.07.2.1.4.09.6-.02.19-.07.38-.17.55-.1.17-.24.33-.42.48-.18.15-.39.27-.64.38l.22.86s0,.03,0,.05c0,.02,0,.03-.02.05-.01.01-.04.03-.07.05-.03.02-.07.03-.12.05-.06.02-.11.03-.14.04-.04,0-.07,0-.09,0-.02,0-.04,0-.05-.02-.01-.01-.02-.03-.02-.05l-.21-.85c-.13.03-.25.05-.36.06-.11.01-.21.02-.31.02-.09,0-.17,0-.24-.01-.07,0-.12-.02-.16-.04-.04-.02-.07-.05-.09-.08-.03-.04-.05-.1-.08-.17-.02-.06-.03-.1-.04-.14,0-.04-.01-.07-.01-.1s0-.05.02-.06c.01-.01.03-.03.05-.03.03-.01.09-.01.16,0s.17.03.29.03c.12,0,.25,0,.41-.01.16-.01.34-.06.54-.13.36-.13.61-.3.74-.51.13-.21.16-.44.07-.68-.05-.15-.13-.26-.24-.34-.1-.07-.23-.13-.37-.16-.14-.03-.29-.05-.45-.05-.16,0-.33,0-.5,0-.17,0-.34,0-.5-.02-.17-.02-.33-.05-.48-.12-.15-.06-.28-.15-.41-.27-.12-.12-.22-.29-.3-.5-.06-.17-.09-.34-.09-.51,0-.17.05-.33.12-.48.08-.15.19-.3.34-.43.15-.13.34-.25.57-.35l-.2-.8s0-.03,0-.05c0-.02,0-.03.02-.05.01-.02.04-.03.06-.05.03-.01.07-.03.12-.05.06-.02.1-.03.14-.04.04,0,.07-.01.09,0,.02,0,.04.01.05.03.01.01.02.03.03.05l.19.79c.08-.02.16-.04.25-.05.09-.01.17-.02.26-.02.08,0,.16,0,.23,0,.07,0,.12.02.15.03.03.01.05.03.07.04.01.01.03.03.04.05s.03.05.04.08c.02.03.03.06.04.1.02.05.03.09.04.13,0,.04.01.07.01.09,0,.02,0,.04-.01.06,0,.01-.02.03-.04.03-.03.01-.08,0-.15,0-.07-.01-.16-.02-.27-.02-.11,0-.23,0-.36.01-.13.01-.28.04-.43.1-.17.06-.31.13-.42.21-.11.08-.19.16-.24.25-.05.09-.08.18-.09.27,0,.1.01.19.05.29.06.15.14.27.24.34s.23.13.37.16.29.04.45.04c.16,0,.33,0,.5,0,.17,0,.34,0,.51.02.17.01.33.05.48.11.15.06.29.15.41.27.12.12.22.29.3.5Z"/>
    <path class="cls-2" d="m33.03,46.53s-.02,0-.03,0h-.11s-.12-.11-.12-.11c-.04-.04-.07-.11-.08-.18l-.15-.6s-.1.02-.15.02c-.12.02-.23.02-.33.03-.1,0-.2,0-.28-.01-.09-.01-.17-.03-.23-.06-.08-.04-.14-.09-.19-.17-.04-.06-.07-.14-.11-.23-.02-.07-.04-.12-.05-.17-.01-.07-.02-.12-.02-.16,0-.09.03-.16.08-.22.05-.05.1-.09.16-.11.08-.03.17-.03.3,0,.07.01.15.02.25.03.1,0,.23,0,.37,0,.13-.01.3-.05.48-.12.31-.11.51-.25.62-.41.09-.14.11-.29.04-.46-.04-.1-.09-.17-.15-.22-.08-.05-.17-.09-.28-.12-.12-.03-.25-.04-.4-.04h-.5c-.15,0-.35,0-.53-.02-.19-.02-.38-.06-.55-.13-.18-.07-.34-.18-.49-.33-.15-.15-.27-.34-.36-.59-.07-.2-.11-.4-.1-.6,0-.21.06-.4.15-.59.09-.18.22-.35.4-.51.13-.11.28-.21.45-.3l-.17-.64v-.1c0-.05.03-.12.08-.18.04-.04.08-.08.14-.11.04-.02.09-.04.16-.07.07-.03.13-.04.17-.05.07-.02.13-.02.2,0l.09.02.11.1s.05.08.07.13l.14.58s.02,0,.03,0c.1-.01.19-.02.28-.02.09,0,.18,0,.26,0,.1.01.17.03.22.05.06.03.1.05.14.09.04.04.06.07.08.1.02.03.04.06.06.1.02.03.04.08.05.13.02.06.04.11.05.15.01.05.02.1.02.15v.07l-.05.12c-.04.06-.1.11-.17.14-.07.02-.16.03-.27.01-.06,0-.15-.02-.24-.02-.1,0-.21,0-.33,0-.11,0-.23.04-.36.08-.15.05-.27.11-.36.18-.08.06-.14.11-.17.17-.03.05-.05.1-.05.15,0,.06,0,.13.03.2.04.1.09.18.15.22.08.06.17.1.28.12.12.03.26.04.4.04h.5c.17,0,.35,0,.53.02.19.01.38.06.55.13.18.07.34.18.49.32.15.15.27.34.36.59h0c.09.24.12.47.1.7-.02.23-.09.45-.21.65-.11.2-.27.38-.48.54-.15.12-.32.23-.51.32l.18.78c0,.08-.04.15-.09.2-.04.04-.08.07-.13.09-.04.02-.09.05-.16.07-.08.03-.14.04-.19.05-.04,0-.08.01-.12.01Zm-.12-1.48l.24.95s0,0,.01,0c.01,0,.02,0,.03-.01l-.25-.95.2-.08c.22-.09.42-.21.58-.34.16-.13.28-.26.36-.41.08-.14.13-.29.14-.45.01-.16-.01-.32-.07-.49h0c-.07-.18-.15-.31-.24-.41-.1-.1-.21-.17-.33-.22-.13-.05-.26-.08-.4-.09-.16-.01-.33-.02-.49-.02h-.5c-.17,0-.35-.01-.51-.04-.17-.04-.33-.1-.46-.2-.15-.1-.26-.26-.33-.46-.05-.13-.07-.26-.06-.39,0-.14.05-.27.12-.4.07-.11.17-.22.31-.32.13-.09.28-.17.48-.24.17-.06.34-.1.49-.11.14-.01.27-.02.39-.01.06,0,.11,0,.16,0,0,0,0-.02-.01-.02l-.03-.06s-.03,0-.07,0c-.05,0-.12,0-.19,0-.08,0-.15,0-.23.02-.08,0-.15.02-.22.04l-.24.06-.22-.9s-.01,0-.02,0h-.03s.23.9.23.9l-.19.09c-.21.09-.38.19-.51.31-.13.11-.22.23-.28.35-.06.12-.09.24-.1.38,0,.14.02.27.07.42.06.18.15.31.24.41.1.1.21.17.32.22.12.05.26.08.41.1.16.02.35.03.48.02h.5c.18,0,.35.02.51.05.17.04.33.11.46.2.15.11.26.26.33.46.11.32.08.63-.09.9-.16.26-.46.46-.87.61-.22.08-.43.13-.6.15-.18.02-.33.02-.45.01-.08,0-.15-.01-.21-.02.03.07.04.1.05.11,0,0,.03,0,.07.01.06,0,.12,0,.2,0,.08,0,.18,0,.28-.02.11-.01.22-.03.34-.06l.24-.05Z"/>
  </g>
  <rect class="cls-2" x="24.99" y="15.37" width="6.68" height="1.5"/>
  <rect class="cls-2" x="24.99" y="19.22" width="6.68" height="1.5"/>
  <rect class="cls-2" x="24.99" y="23.08" width="6.68" height="1.5"/>
  <rect class="cls-2" x="9.25" y="26.93" width="22.42" height="1.5"/>
  <rect class="cls-2" x="9.25" y="30.79" width="22.42" height="1.5"/>
  <rect class="cls-2" x="9.25" y="34.64" width="12.88" height="1.5"/>
  <rect class="cls-2" x="9.25" y="38.5" width="3.57" height="1.5"/>
</svg>