<?xml version="1.0" encoding="UTF-8"?>
<svg id="Layer_1" data-name="Layer 1" xmlns="http://www.w3.org/2000/svg" viewBox="0 0 60 60">
  <defs>
    <style>
      .cls-1 {
        fill: #37464c;
        stroke-width: 0px;
      }
    </style>
  </defs>
  <path class="cls-1" d="m14.4,49.36c-.55,0-1-.45-1-1v-.16c0-.23-.09-.46-.26-.62l-7.75-7.75c-.9-.9-1.39-2.09-1.39-3.37v-14.3c0-1.66,1.35-3,3-3,1.5,0,2.78,1.12,2.98,2.61l1.12,8.53c.07.55-.31,1.05-.86,1.12-.55.07-1.05-.31-1.12-.86l-1.12-8.53c-.07-.5-.49-.87-.99-.87-.55,0-1,.45-1,1v14.3c0,.74.29,1.43.81,1.95l7.75,7.75c.54.54.84,1.27.84,2.04v.16c0,.55-.45,1-1,1Z"/>
  <path class="cls-1" d="m27.56,49.36c-.55,0-1-.45-1-1v-3.59c0-3.54-2.47-6.61-5.88-7.29-.53-.11-1.1-.19-1.69-.24-1.13-.1-2.18-.59-2.96-1.37l-4.08-4.08c-.54-.54-1.37-.62-1.9-.19-.3.25-.48.6-.5.98-.02.39.12.75.39,1.02l6.54,6.54c.39.39.39,1.02,0,1.41s-1.02.39-1.41,0l-6.54-6.54c-.67-.67-1.02-1.59-.98-2.54.05-.94.5-1.83,1.23-2.43,1.31-1.07,3.32-.93,4.58.32l4.08,4.08c.45.45,1.06.73,1.72.79.66.06,1.3.15,1.9.27,4.34.87,7.49,4.77,7.49,9.26v3.59c0,.55-.45,1-1,1Z"/>
  <path class="cls-1" d="m27.56,55h-15.04c-.55,0-1-.45-1-1v-5.64c0-.55.45-1,1-1h15.04c.55,0,1,.45,1,1v5.64c0,.55-.45,1-1,1Zm-14.04-2h13.04v-3.64h-13.04v3.64Z"/>
  <path class="cls-1" d="m48.24,55h-15.04c-.55,0-1-.45-1-1v-5.64c0-.55.45-1,1-1h15.04c.55,0,1,.45,1,1v5.64c0,.55-.45,1-1,1Zm-14.04-2h13.04v-3.64h-13.04v3.64Z"/>
  <path class="cls-1" d="m46.36,49.36c-.55,0-1-.45-1-1v-.16c0-.77.3-1.49.84-2.04l7.75-7.75c.52-.52.81-1.21.81-1.95v-14.3c0-.55-.45-1-1-1-.5,0-.93.37-1,.87l-1.12,8.53c-.07.55-.57.92-1.12.86-.55-.07-.93-.57-.86-1.12l1.12-8.53c.2-1.49,1.47-2.61,2.98-2.61,1.66,0,3,1.35,3,3v14.3c0,1.27-.5,2.47-1.39,3.37l-7.75,7.75c-.17.17-.26.39-.26.62v.16c0,.55-.45,1-1,1Z"/>
  <path class="cls-1" d="m33.2,49.36c-.55,0-1-.45-1-1v-3.59c0-4.49,3.15-8.38,7.49-9.26.6-.12,1.24-.21,1.9-.27.66-.06,1.27-.34,1.72-.79l4.08-4.08c1.26-1.26,3.27-1.4,4.58-.32.74.6,1.18,1.49,1.23,2.43.05.94-.31,1.87-.98,2.54l-6.54,6.54c-.39.39-1.02.39-1.41,0s-.39-1.02,0-1.41l6.54-6.54c.27-.27.41-.64.39-1.02-.02-.39-.2-.73-.5-.98-.53-.43-1.36-.35-1.9.19l-4.08,4.08c-.78.78-1.83,1.27-2.96,1.37-.59.05-1.16.14-1.69.24-3.41.69-5.88,3.75-5.88,7.29v3.59c0,.55-.45,1-1,1Z"/>
  <path class="cls-1" d="m30.38,36.2c-8.33,0-15.1-6.77-15.1-15.1s6.77-15.1,15.1-15.1,15.1,6.77,15.1,15.1-6.77,15.1-15.1,15.1Zm0-28.2c-7.22,0-13.1,5.88-13.1,13.1s5.88,13.1,13.1,13.1,13.1-5.88,13.1-13.1-5.88-13.1-13.1-13.1Z"/>
  <g>
    <path class="cls-1" d="m33.55,22.49c.02.41-.04.78-.18,1.12-.14.34-.35.63-.62.88-.27.25-.61.46-1.02.62-.4.16-.86.26-1.37.31l-.09,1.66s-.01.06-.02.09c-.01.03-.03.05-.07.07-.03.02-.08.04-.15.05-.06.01-.14.02-.25.03-.12,0-.21,0-.28,0-.07,0-.12-.02-.17-.04-.04-.02-.07-.04-.08-.07-.01-.03-.02-.07,0-.11l.1-1.65c-.24-.02-.47-.05-.68-.09-.21-.04-.4-.08-.56-.13-.16-.05-.31-.1-.42-.16-.12-.06-.2-.11-.26-.16-.05-.05-.09-.12-.12-.2-.02-.09-.04-.2-.05-.36,0-.11,0-.2,0-.28,0-.07.02-.14.04-.18s.04-.08.08-.1c.03-.02.07-.03.12-.03.07,0,.16.03.29.1s.29.14.49.22c.2.08.45.15.75.21.29.06.64.09,1.05.07.72-.03,1.26-.2,1.62-.5.36-.3.53-.69.51-1.18-.01-.3-.09-.55-.24-.74-.15-.19-.33-.36-.57-.49-.23-.13-.49-.25-.78-.34-.29-.09-.59-.18-.89-.28-.3-.09-.6-.2-.89-.33-.29-.12-.56-.28-.79-.48-.23-.19-.42-.43-.57-.72-.15-.29-.23-.64-.25-1.07-.01-.34.03-.66.13-.96.1-.3.27-.56.49-.79.22-.23.51-.42.86-.58.35-.15.76-.26,1.23-.31l.08-1.54s.01-.06.02-.09c.01-.03.03-.05.07-.08.03-.02.08-.04.14-.05.06,0,.14-.02.25-.02.11,0,.2,0,.28,0,.07,0,.13.02.17.04.04.02.06.05.08.08.01.03.02.07.02.11l-.1,1.53c.15,0,.31.03.48.06.17.03.32.07.47.11.15.04.28.09.4.14.12.05.2.1.25.14.04.04.08.08.1.11.02.03.03.07.05.12s.02.1.03.16c.01.06.02.13.02.2,0,.1,0,.18,0,.25,0,.07-.01.13-.03.17-.01.04-.03.07-.06.09-.02.02-.05.03-.09.03-.06,0-.15-.03-.27-.09-.12-.06-.28-.12-.47-.19-.19-.07-.41-.13-.65-.18-.25-.06-.52-.08-.82-.06-.34.01-.63.06-.87.14-.24.08-.43.18-.57.3-.15.13-.25.27-.31.44-.06.17-.09.35-.08.55.01.3.09.55.24.75s.34.36.57.49.49.24.79.33c.29.09.59.18.9.28.31.1.61.2.9.32.29.12.56.28.79.47.23.19.43.43.58.72.15.29.24.64.26,1.07Z"/>
    <path class="cls-1" d="m29.68,27.69c-.09,0-.17,0-.22-.01-.09-.01-.18-.03-.25-.06-.14-.05-.24-.15-.29-.28-.04-.1-.06-.21-.03-.33l.07-1.23c-.12-.02-.24-.03-.36-.06-.22-.04-.42-.09-.6-.14-.19-.05-.35-.11-.48-.18-.15-.07-.26-.14-.35-.22-.11-.1-.18-.23-.23-.38-.03-.11-.05-.25-.06-.44,0-.13,0-.24,0-.33,0-.1.03-.2.06-.28.05-.13.13-.23.23-.3.1-.06.2-.08.3-.09.13,0,.29.04.48.14.12.06.27.13.45.2.19.07.42.14.69.2.26.06.58.08.95.06.63-.03,1.1-.17,1.4-.41.27-.23.39-.5.37-.88,0-.22-.06-.4-.16-.53-.11-.15-.27-.28-.46-.39-.21-.12-.44-.22-.71-.3l-.89-.28c-.31-.1-.62-.21-.93-.34-.33-.14-.62-.32-.88-.53-.27-.22-.49-.5-.66-.83-.17-.33-.27-.75-.3-1.23-.02-.39.04-.75.15-1.1.12-.35.32-.67.58-.93.25-.26.58-.49.97-.66.3-.13.65-.23,1.02-.3l.12-1.46c.03-.08.11-.17.21-.24.08-.05.17-.08.28-.1.08-.01.18-.02.3-.03.13,0,.24,0,.33,0,.13.01.23.04.32.09.11.06.2.15.24.27.03.07.04.14.05.23l-.08,1.21s.1.02.15.02c.18.03.35.07.5.12.17.05.31.1.45.16.16.07.26.13.34.19.08.07.14.14.18.2.04.08.07.14.09.21.02.06.03.13.04.2.01.07.02.15.03.25,0,.11,0,.21,0,.3,0,.09-.02.18-.04.26-.04.11-.09.19-.17.26-.09.08-.2.12-.32.13-.12,0-.27-.03-.46-.12-.11-.06-.26-.11-.43-.18-.18-.06-.38-.12-.61-.17-.21-.05-.46-.06-.72-.05-.3.01-.56.05-.77.12-.19.06-.33.14-.44.23-.1.08-.16.18-.2.29-.04.12-.06.26-.06.41,0,.23.06.41.17.54.12.16.27.29.46.39.21.12.44.22.71.3.29.09.59.18.9.28.32.1.63.21.93.33.33.13.63.31.89.53.27.22.5.5.67.83.18.34.28.75.3,1.23h0c.02.46-.05.89-.21,1.28-.16.39-.4.73-.71,1.02-.31.28-.69.51-1.13.69-.35.14-.73.24-1.15.3l-.12,1.54c-.03.08-.1.18-.23.26-.09.05-.17.07-.26.09-.08.02-.18.03-.3.03-.04,0-.08,0-.12,0Zm-.04-.75s.09,0,.13,0c.05,0,.1,0,.14-.01l.1-1.85.32-.03c.47-.04.89-.14,1.26-.29.36-.14.66-.33.9-.54.23-.21.41-.46.53-.75.12-.29.17-.61.15-.96-.02-.37-.09-.67-.21-.91-.13-.24-.29-.44-.49-.6-.21-.17-.44-.31-.7-.41-.29-.12-.58-.22-.87-.31-.31-.1-.6-.19-.9-.28-.32-.1-.61-.22-.87-.36-.28-.16-.51-.36-.68-.59-.19-.26-.3-.58-.32-.96-.01-.25.02-.48.1-.69.08-.23.22-.43.42-.6.18-.16.42-.29.7-.38.27-.09.59-.14.97-.15.33-.02.64,0,.92.07.26.06.5.13.7.2.16.06.3.11.42.17,0-.02,0-.04,0-.07,0-.06,0-.11-.01-.15,0-.05-.02-.09-.03-.13-.02-.04-.06-.06-.18-.12-.1-.04-.22-.09-.35-.12-.14-.04-.28-.07-.44-.1-.15-.03-.29-.05-.43-.05l-.38-.02.11-1.74s-.09,0-.14,0-.09,0-.13,0l-.09,1.73-.32.03c-.43.05-.8.14-1.12.28-.3.14-.55.3-.74.5-.19.19-.32.41-.41.66-.09.25-.13.53-.11.82.02.37.09.67.21.91.13.24.29.44.48.6.2.17.44.31.69.42.28.12.57.22.86.31l.89.28c.32.1.6.22.86.37.28.16.5.36.68.59.19.26.3.57.31.95.03.61-.19,1.11-.64,1.49-.42.35-1.04.55-1.84.58-.44.02-.82,0-1.14-.08-.32-.07-.58-.15-.8-.23-.2-.08-.37-.15-.5-.22,0,.04,0,.09,0,.13,0,.16.02.24.03.27.02.04.07.08.18.13.1.05.22.09.37.13.15.05.33.09.52.12.2.04.41.07.64.08l.37.03-.12,1.85Z"/>
  </g>
</svg>