<?xml version="1.0" encoding="UTF-8"?>
<svg id="Layer_1" data-name="Layer 1" xmlns="http://www.w3.org/2000/svg" viewBox="0 0 60 60">
  <defs>
    <style>
      .cls-1 {
        fill: #37464c;
        stroke-width: 0px;
      }
    </style>
  </defs>
  <g>
    <path class="cls-1" d="m22.21,47.07c-3.31,0-6.51-.43-9.09-.91-5.09-.96-8.9-2.35-8.94-2.36-.3-.11-.45-.44-.34-.74.11-.3.44-.45.74-.34.15.05,14.93,5.4,25.46,2.16,3.52-1.08,5.89-2.28,7.98-3.34,4.3-2.18,7.41-3.76,16.52-2.23.32.05.53.35.48.67-.05.31-.35.53-.67.48-8.74-1.46-11.55-.03-15.81,2.12-2.13,1.08-4.54,2.3-8.16,3.42-2.6.8-5.42,1.09-8.17,1.09Z"/>
    <path class="cls-1" d="m22.21,47.45c-2.84,0-5.92-.31-9.16-.92-5-.94-8.84-2.32-9-2.38-.5-.18-.75-.73-.57-1.23.09-.24.26-.43.5-.54.23-.11.49-.12.73-.03.6.22,14.92,5.32,25.22,2.15,3.5-1.08,5.85-2.27,7.92-3.32,4.36-2.21,7.51-3.81,16.75-2.27.25.04.47.18.62.38.15.21.21.46.17.71-.09.52-.58.87-1.1.78-8.62-1.44-11.39-.04-15.58,2.09-2.15,1.09-4.57,2.32-8.22,3.44-2.39.74-5.18,1.11-8.28,1.11Zm-17.83-4.39s-.06,0-.08.02c-.05.02-.09.06-.11.11-.04.11.02.22.12.26.16.06,3.93,1.42,8.88,2.34,6.64,1.25,12.62,1.2,17.08-.17,3.59-1.1,5.98-2.32,8.1-3.39,4.33-2.19,7.18-3.64,16.04-2.16.11.02.22-.06.23-.17,0-.05,0-.11-.04-.15-.03-.04-.08-.07-.13-.08-9-1.5-12.06.05-16.29,2.2-2.1,1.07-4.48,2.27-8.04,3.37-10.54,3.24-25.09-1.94-25.7-2.17-.02,0-.05-.01-.07-.01Z"/>
  </g>
  <g>
    <path class="cls-1" d="m5.1,44.08c-.11,0-.22-.03-.32-.1-.27-.18-.34-.54-.16-.8l14.1-21.11c.1-.15.27-.25.45-.26.18-.01.36.06.47.2l17.41,20.49c.21.24.18.61-.07.82-.24.21-.61.18-.82-.07l-16.91-19.9-13.67,20.47c-.11.17-.29.26-.48.26Z"/>
    <path class="cls-1" d="m5.1,44.46c-.19,0-.37-.06-.53-.16-.21-.14-.35-.36-.4-.61s0-.5.14-.72l14.1-21.11c.17-.25.44-.4.74-.42.3-.02.59.1.78.33l17.41,20.49c.17.19.24.44.22.7-.02.25-.14.48-.33.65s-.44.24-.69.22c-.25-.02-.48-.14-.65-.33l-16.59-19.53-13.4,20.06c-.18.27-.47.42-.79.42Zm14.1-22.26s0,0-.01,0c-.06,0-.12.04-.16.09l-14.1,21.11s-.04.1-.03.15c.01.05.04.1.09.13.1.06.22.04.28-.05l13.95-20.88,17.23,20.28s.08.07.14.07c.06,0,.11-.01.15-.05.04-.04.07-.08.07-.14s-.01-.11-.05-.15l-17.41-20.49s-.1-.07-.15-.07Z"/>
  </g>
  <g>
    <path class="cls-1" d="m26.76,31.88c-.11,0-.22-.03-.32-.1-.27-.18-.34-.54-.16-.8l13.5-20.21c.1-.15.27-.25.45-.26.18,0,.36.07.47.2l14.18,16.7c.21.24.18.61-.07.82-.24.21-.61.18-.82-.07l-13.69-16.11-13.07,19.57c-.11.17-.29.26-.48.26Z"/>
    <path class="cls-1" d="m26.76,32.25c-.19,0-.37-.06-.53-.16-.21-.14-.36-.36-.41-.61-.05-.25,0-.5.14-.72l13.5-20.21c.16-.25.44-.4.74-.42.29,0,.59.11.78.33l14.18,16.7c.17.19.24.44.22.69-.02.25-.14.48-.33.65-.4.34-1,.29-1.34-.11l-13.37-15.73-12.8,19.16c-.18.27-.47.42-.79.42Zm13.5-21.37h-.01c-.06,0-.12.04-.15.09l-13.5,20.21s-.04.1-.03.15c.01.05.04.1.09.13.1.07.22.04.28-.05l13.35-19.99,14.01,16.49c.07.09.2.1.29.02.04-.04.07-.08.07-.14s-.01-.11-.05-.15l-14.18-16.7s-.1-.07-.16-.07Z"/>
  </g>
  <g>
    <path class="cls-1" d="m26.76,31.88h-13.51c-.32,0-.58-.26-.58-.58s.26-.58.58-.58h13.51c.32,0,.58.26.58.58s-.26.58-.58.58Z"/>
    <path class="cls-1" d="m26.76,32.25h-13.51c-.53,0-.95-.43-.95-.95s.43-.95.95-.95h13.51c.53,0,.95.43.95.95s-.43.95-.95.95Zm-13.51-1.16c-.11,0-.2.09-.2.2s.09.2.2.2h13.51c.11,0,.2-.09.2-.2s-.09-.2-.2-.2h-13.51Z"/>
  </g>
  <g>
    <path class="cls-1" d="m48.12,21.08h-13.51c-.32,0-.58-.26-.58-.58s.26-.58.58-.58h13.51c.32,0,.58.26.58.58s-.26.58-.58.58Z"/>
    <path class="cls-1" d="m48.12,21.46h-13.51c-.53,0-.95-.43-.95-.95s.43-.95.95-.95h13.51c.53,0,.95.43.95.95s-.43.95-.95.95Zm-13.51-1.16c-.11,0-.2.09-.2.2s.09.2.2.2h13.51c.11,0,.2-.09.2-.2s-.09-.2-.2-.2h-13.51Z"/>
  </g>
</svg>