<?xml version="1.0" encoding="UTF-8"?>
<svg id="Layer_1" data-name="Layer 1" xmlns="http://www.w3.org/2000/svg" viewBox="0 0 60 60">
  <defs>
    <style>
      .cls-1 {
        fill: #37464c;
        stroke-width: 0px;
      }
    </style>
  </defs>
  <g>
    <path class="cls-1" d="m35.27,55.74h-8.05c-6.35,0-11.51-5.16-11.51-11.51v-17.72c0-6.35,5.16-11.51,11.51-11.51h8.05c6.35,0,11.51,5.16,11.51,11.51v17.72c0,6.35-5.16,11.51-11.51,11.51Zm-8.05-39.57c-5.7,0-10.34,4.64-10.34,10.34v17.72c0,5.7,4.64,10.34,10.34,10.34h8.05c5.7,0,10.34-4.64,10.34-10.34v-17.72c0-5.7-4.64-10.34-10.34-10.34h-8.05Z"/>
    <path class="cls-1" d="m35.27,56.12h-8.05c-6.55,0-11.89-5.33-11.89-11.89v-17.72c0-6.55,5.33-11.89,11.89-11.89h8.05c6.55,0,11.89,5.33,11.89,11.89v17.72c0,6.55-5.33,11.89-11.89,11.89ZM27.23,15.38c-6.14,0-11.14,5-11.14,11.14v17.72c0,6.14,5,11.14,11.14,11.14h8.05c6.14,0,11.14-5,11.14-11.14v-17.72c0-6.14-5-11.14-11.14-11.14h-8.05Zm8.05,39.57h-8.05c-5.91,0-10.71-4.81-10.71-10.71v-17.72c0-5.91,4.81-10.71,10.71-10.71h8.05c5.91,0,10.71,4.81,10.71,10.71v17.72c0,5.91-4.81,10.71-10.71,10.71Zm-8.05-38.4c-5.49,0-9.96,4.47-9.96,9.96v17.72c0,5.49,4.47,9.96,9.96,9.96h8.05c5.49,0,9.96-4.47,9.96-9.96v-17.72c0-5.49-4.47-9.96-9.96-9.96h-8.05Z"/>
  </g>
  <g>
    <path class="cls-1" d="m31.25,32.06c-.32,0-.59-.26-.59-.59v-1.64c0-.32.26-.59.59-.59s.59.26.59.59v1.64c0,.32-.26.59-.59.59Z"/>
    <path class="cls-1" d="m31.25,32.43c-.53,0-.96-.43-.96-.96v-1.64c0-.53.43-.96.96-.96s.96.43.96.96v1.64c0,.53-.43.96-.96.96Zm0-2.81c-.12,0-.21.09-.21.21v1.64c0,.23.42.23.42,0v-1.64c0-.12-.09-.21-.21-.21Z"/>
  </g>
  <g>
    <path class="cls-1" d="m31.25,21.37c-.32,0-.59-.26-.59-.59v-8.37c0-2.38,1.94-4.32,4.32-4.32h.75c1.74,0,3.15-1.41,3.15-3.15,0-.32.26-.59.59-.59s.59.26.59.59c0,2.38-1.94,4.32-4.32,4.32h-.75c-1.74,0-3.15,1.41-3.15,3.15v8.37c0,.32-.26.59-.59.59Z"/>
    <path class="cls-1" d="m31.25,21.74c-.53,0-.96-.43-.96-.96v-8.37c0-2.59,2.11-4.69,4.7-4.69h.75c1.53,0,2.78-1.24,2.78-2.77,0-.53.43-.96.96-.96s.96.43.96.96c0,2.59-2.11,4.69-4.7,4.69h-.75c-1.53,0-2.78,1.24-2.78,2.77v8.37c0,.53-.43.96-.96.96Zm3.74-13.27c-2.18,0-3.95,1.77-3.95,3.94v8.37c0,.23.42.23.42,0v-8.37c0-1.94,1.58-3.52,3.53-3.52h.75c2.18,0,3.95-1.77,3.95-3.94,0-.23-.42-.23-.42,0,0,1.94-1.58,3.52-3.53,3.52h-.75Z"/>
  </g>
  <g>
    <path class="cls-1" d="m31.25,30.18c-1.56,0-2.83-1.27-2.83-2.83v-4.11c0-1.56,1.27-2.83,2.83-2.83s2.83,1.27,2.83,2.83v4.11c0,1.56-1.27,2.83-2.83,2.83Zm0-8.59c-.91,0-1.66.74-1.66,1.65v4.11c0,.91.74,1.65,1.66,1.65s1.66-.74,1.66-1.65v-4.11c0-.91-.74-1.65-1.66-1.65Z"/>
    <path class="cls-1" d="m31.25,30.55c-1.77,0-3.2-1.44-3.2-3.2v-4.11c0-1.76,1.44-3.2,3.2-3.2s3.2,1.44,3.2,3.2v4.11c0,1.76-1.44,3.2-3.2,3.2Zm0-9.76c-1.35,0-2.45,1.1-2.45,2.45v4.11c0,1.35,1.1,2.45,2.45,2.45s2.45-1.1,2.45-2.45v-4.11c0-1.35-1.1-2.45-2.45-2.45Zm0,8.58c-1.12,0-2.03-.91-2.03-2.03v-4.11c0-1.12.91-2.03,2.03-2.03s2.03.91,2.03,2.03v4.11c0,1.12-.91,2.03-2.03,2.03Zm0-7.41c-.71,0-1.28.57-1.28,1.28v4.11c0,.71.57,1.28,1.28,1.28s1.28-.57,1.28-1.28v-4.11c0-.71-.57-1.28-1.28-1.28Z"/>
  </g>
</svg>