<?xml version="1.0" encoding="UTF-8"?>
<svg id="Layer_1" data-name="Layer 1" xmlns="http://www.w3.org/2000/svg" viewBox="0 0 60 60">
  <defs>
    <style>
      .cls-1 {
        fill: #37464c;
        stroke-width: 0px;
      }
    </style>
  </defs>
  <g>
    <path class="cls-1" d="m40.66,33.8c-.34,0-.62-.28-.62-.62,0-3.78-3.08-6.86-6.86-6.86s-6.86,3.08-6.86,6.86c0,.34-.28.62-.62.62s-.62-.28-.62-.62c0-4.47,3.64-8.11,8.11-8.11s8.11,3.64,8.11,8.11c0,.34-.28.62-.62.62Z"/>
    <path class="cls-1" d="m40.66,34.3c-.62,0-1.12-.5-1.12-1.12,0-3.51-2.85-6.36-6.36-6.36s-6.36,2.85-6.36,6.36c0,.62-.5,1.12-1.12,1.12s-1.12-.5-1.12-1.12c0-4.75,3.86-8.61,8.61-8.61s8.61,3.86,8.61,8.61c0,.62-.5,1.12-1.12,1.12Zm-7.48-8.48c4.06,0,7.36,3.3,7.36,7.36,0,.13.25.13.25,0,0-4.2-3.41-7.61-7.61-7.61s-7.61,3.41-7.61,7.61c0,.13.25.13.25,0,0-4.06,3.3-7.36,7.36-7.36Z"/>
  </g>
  <g>
    <path class="cls-1" d="m33.39,51.7c-.34,0-.62-.28-.62-.62V18.9c-.91.57-2.02,1.1-3.18,1.66-1.59.76-3.22,1.54-4.38,2.45-3.31,2.62-5.2,6.32-5.2,10.16,0,.34-.28.62-.62.62s-.62-.28-.62-.62c0-4.22,2.07-8.28,5.67-11.14,1.26-1,2.97-1.82,4.62-2.6,1.45-.69,2.83-1.35,3.72-2.05V4.51c0-1,.57-1.88,1.49-2.29.89-.4,1.9-.25,2.63.39.97.86,3.11,3.33,2.05,7.71-1.06,4.38-2.43,5.53-4.33,7.14-.19.16-.39.33-.59.5v33.11c0,.34-.28.62-.62.62Zm1.89-48.45c-.17,0-.34.04-.51.11-.36.16-.75.55-.75,1.15v11.81c1.66-1.41,2.78-2.48,3.71-6.3.9-3.72-.87-5.77-1.67-6.48-.22-.2-.49-.3-.78-.3Z"/>
    <path class="cls-1" d="m33.39,52.2c-.62,0-1.12-.5-1.12-1.12v-31.29c-.75.42-1.59.82-2.46,1.24-1.56.74-3.17,1.51-4.28,2.4-3.19,2.52-5.01,6.08-5.01,9.77,0,.62-.5,1.12-1.12,1.12s-1.12-.5-1.12-1.12c0-4.37,2.14-8.57,5.86-11.53,1.31-1.04,3.04-1.86,4.71-2.66,1.33-.64,2.59-1.24,3.44-1.85V4.51c0-1.2.68-2.25,1.78-2.75,1.07-.48,2.29-.3,3.16.47,1.04.92,3.33,3.56,2.21,8.2-1.1,4.53-2.6,5.8-4.49,7.4l-.41.35v32.88c0,.62-.5,1.12-1.12,1.12Zm-.12-34.2v33.08c0,.14.25.14.25,0V17.73l.77-.65c1.89-1.6,3.15-2.66,4.17-6.88,1-4.11-1-6.42-1.9-7.22-.58-.51-1.38-.63-2.09-.31-.74.33-1.19,1.03-1.19,1.83v13.12l-.19.15c-.93.73-2.33,1.4-3.8,2.1-1.63.78-3.31,1.58-4.53,2.55-3.49,2.76-5.48,6.68-5.48,10.74,0,.13.25.13.25,0,0-3.99,1.97-7.84,5.39-10.55,1.2-.95,2.86-1.75,4.47-2.51,1.16-.55,2.25-1.07,3.13-1.63l.77-.48Zm.25-.59V4.51c0-.84.54-1.38,1.05-1.61.63-.28,1.32-.17,1.82.27.87.77,2.79,2.99,1.82,6.97-.93,3.85-2.08,5.05-3.87,6.56l-.82.7Zm1.76-13.66c-.1,0-.21.02-.31.07-.1.05-.46.24-.46.7v10.71c1.2-1.12,1.99-2.31,2.72-5.31.84-3.45-.78-5.34-1.51-5.99-.13-.11-.28-.17-.44-.17Z"/>
  </g>
  <g>
    <path class="cls-1" d="m28.27,56.82c-3.17,0-5.75-2.58-5.75-5.75,0-.34.28-.62.62-.62s.62.28.62.62c0,2.48,2.02,4.5,4.5,4.5s4.5-2.02,4.5-4.5c0-.34.28-.62.62-.62s.62.28.62.62c0,3.17-2.58,5.75-5.75,5.75Z"/>
    <path class="cls-1" d="m28.27,57.32c-3.44,0-6.25-2.8-6.25-6.25,0-.62.5-1.12,1.12-1.12s1.12.5,1.12,1.12c0,2.21,1.79,4,4,4s4-1.79,4-4c0-.62.5-1.12,1.12-1.12s1.12.5,1.12,1.12c0,3.45-2.8,6.25-6.25,6.25Zm-5.12-6.37c-.07,0-.12.06-.12.12,0,2.89,2.35,5.25,5.25,5.25s5.25-2.35,5.25-5.25c0-.13-.25-.14-.25,0,0,2.76-2.24,5-5,5s-5-2.24-5-5c0-.07-.06-.12-.12-.12Z"/>
  </g>
  <g>
    <path class="cls-1" d="m31.43,45.06c-.87,0-1.78-.1-2.71-.3-4.96-1.08-9.96-5.08-9.96-11.59,0-.34.28-.62.62-.62s.62.28.62.62c0,3.88,2.35,8.93,8.98,10.37,3,.65,5.63.16,7.6-1.43,2.26-1.82,3.45-4.91,3.45-8.94,0-.34.28-.62.62-.62s.62.28.62.62c0,4.42-1.35,7.85-3.92,9.91-1.62,1.3-3.67,1.98-5.94,1.98Z"/>
    <path class="cls-1" d="m31.43,45.56c-.91,0-1.86-.11-2.81-.31-5.16-1.12-10.36-5.29-10.36-12.08,0-.62.5-1.12,1.12-1.12s1.12.5,1.12,1.12c0,3.7,2.25,8.5,8.59,9.88,2.85.62,5.33.16,7.18-1.33,2.14-1.72,3.27-4.68,3.27-8.55,0-.62.5-1.12,1.12-1.12s1.12.5,1.12,1.12c0,4.58-1.42,8.14-4.1,10.3-1.69,1.36-3.85,2.08-6.25,2.08Zm-12.05-12.51c-.07,0-.12.06-.12.12,0,6.23,4.81,10.06,9.57,11.1,3.17.68,6.13.12,8.23-1.58,2.44-1.97,3.73-5.26,3.73-9.52,0-.14-.25-.13-.25,0,0,4.19-1.26,7.41-3.64,9.33-2.09,1.68-4.86,2.21-8.02,1.53-6.92-1.5-9.38-6.79-9.38-10.86,0-.07-.06-.12-.12-.12Z"/>
  </g>
</svg>