<?xml version="1.0" encoding="UTF-8"?>
<svg id="Layer_1" data-name="Layer 1" xmlns="http://www.w3.org/2000/svg" version="1.1" viewBox="0 0 60 60">
  <defs>
    <style>
      .cls-1 {
        fill: #37464c;
        stroke-width: 0px;
      }
    </style>
  </defs>
  <path class="cls-1" d="M52.6,12.5h-16.2v2.2h16.2c1.3,0,2.4,1.1,2.4,2.4v26.2c0,1.3-1.1,2.4-2.4,2.4H7.5c-1.3,0-2.4-1.1-2.4-2.4v-26.2c0-1.3,1.1-2.4,2.4-2.4h4.9v-2.2h-4.9c-2.6,0-4.6,2.1-4.6,4.6v26.2c0,2.6,2.1,4.6,4.6,4.6h21.4v2.5h-8.6c-1.4,0-2.5,1.1-2.5,2.5s1.1,2.5,2.5,2.5h19.4c1.4,0,2.5-1.1,2.5-2.5s-1.1-2.5-2.5-2.5h-8.6v-2.5h21.5c2.6,0,4.6-2.1,4.6-4.6v-26.2c0-2.6-2.1-4.6-4.6-4.6ZM39.7,52.7c.2,0,.3.1.3.3s-.1.3-.3.3h-19.4c-.2,0-.3-.1-.3-.3s.1-.3.3-.3h19.4Z"/>
  <path class="cls-1" d="M11.5,29.8h-.3c-1.7.8-2.9,2.4-3.2,4.3v8.1c0,0,0,0,0,0h1.2v-8c0-1.4,1-2.6,2.3-3.1l4.8-2.1c-.5,1-1,2.2-.9,3.7-1.4,0-2.5,1-2.6,2.3l-.8,4.3c-.1.6,0,1.2.5,1.7.4.5,1,.7,1.6.7h.9v-1.2h-.9c-.3,0-.5-.1-.7-.3-.2-.2-.2-.4-.2-.7l.9-4.4c0-.7.7-1.2,1.4-1.2s1.3.5,1.4,1.3l.8,4.3c0,.2,0,.5-.2.7-.2.2-.4.3-.7.3h-.8v1.2h.8c.6,0,1.2-.3,1.6-.8.4-.5.6-1.1.5-1.7l-.8-4.2c0-.9-.6-1.6-1.4-2-.2-3.5,2.8-5.7,2.8-5.7h.2c0-.1.5,2,.5,2h0s0,.2,0,.2c0,0,0,0,0,0l3,12.8c0,.4.4.6.8.6.4,0,.7-.3.8-.6l3.3-13.2h0c0,0,0,0,0,0l.5-1.9,1,1,.8.3,1.2,2c.5.8.7,1.7.7,2.5v3.6c-1.2.3-2.1,1.3-2.1,2.5s1.2,2.6,2.7,2.6,2.7-1.2,2.7-2.6-.9-2.2-2.1-2.5v-3.6c0-1.1-.3-2.2-.9-3.2l-.3-.5,4.4,1.8c1.3.5,2.2,1.7,2.4,3v7.1h1.4s-.1-7.2-.1-7.2c-.2-1.8-1.3-3.3-2.9-4-1.1-1.2-2.6-6.1-2.6-13.9v-1.2h0c-.4-4.9-3.6-8.8-7.5-9.3h0s-.5,0-.5,0c0,0,0,0,0,0,0,0-.2,0-.2,0h-.5c-1,.2-1.8.5-2.5.9-.4-.4-.9-.7-1.5-.8h0c0-.1-.5-.1-.5-.1,0,0-.2,0-.3,0,0,0,0,0,0,0h-.5c-4,.6-7.2,4.8-7.4,10.1h-.1v.5c0,8.3-1.3,12.3-1.7,13.3l-.2.4ZM15.4,16.6v-.5c0-4.6,2.7-8.3,6-8.5.5,0,.9.3,1.1.7-1.5.3-2.7.9-3.5,1.8-1.5,1.6-2,4.2-1.7,7.6.3,2.9,1.2,5.2,2.5,6.7v1l-.9.8c-.2.1-.5.4-.8.7h0s-4,1.7-4,1.7c1-3.4,1.4-8.3,1.4-12.1h0ZM26.9,7.6c3.4.2,6.2,3.9,6.2,8.5v.5h0c0,5,.7,9.5,1.8,12.3l-4.2-1.7-1.7-1.7v-1.2c1.2-1.5,2.1-3.8,2.4-6.6.4-3.4-.2-5.9-1.6-7.6-1.1-1.2-2.8-1.9-4.8-2,.4-.3,1-.6,2.1-.6ZM27.7,26.5l-.6,2.6c-.4,1.2-1.5,2-2.7,2s-2.3-.8-2.7-1.9h0c0,0-.6-2.5-.6-2.5v-1c1,.7,2,1,3.2,1h0c1.3,0,2.4-.4,3.4-1.1v.9ZM26.4,31.7l-2.1,8.6-2-8.6c.6.4,1.4.6,2.1.6.7,0,1.4-.2,2-.6ZM18.7,14.4c.5.5,1.3.9,2.1.9v-.2h.7c0-.8.4-1.6,1-1.9l.3,2.4h.1s0,.2,0,.2c2.7,0,5.5-.5,6.9-1.4.1.9.1,2,0,3.2-.5,4.7-2.6,7.5-5.5,7.5s-5.1-3-5.5-7.5c-.1-1.2-.1-2.3,0-3.2ZM24.2,9.6c1.9,0,3.3.5,4.3,1.5.5.6.8,1.3,1.1,2.1-.6.6-2.8,1.4-5.9,1.5l-.3-2.6h-.1s0-.2,0-.2c-1.2,0-2.3,1-2.6,2.3-.8,0-1.5-.7-1.6-1.4.2-.7.6-1.3,1-1.7.9-1,2.3-1.5,4.2-1.5ZM33.2,37.8c.8,0,1.4.6,1.4,1.3s-.6,1.3-1.4,1.3-1.4-.6-1.4-1.3.6-1.3,1.4-1.3ZM19.8,27h0s0,0,0,0h0Z"/>
  <polygon class="cls-1" points="24.2 43 24.2 43 24.2 43 24.2 43"/>
  <polygon class="cls-1" points="24.3 32.3 24.3 32.3 24.3 32.3 24.3 32.3"/>
  <path class="cls-1" d="M43.5,29.7c.2,0,.3,0,.5-.2l8.4-8.4c.1-.1.2-.3.2-.5s0-.3-.2-.5l-1.9-1.9c-.2-.2-.7-.2-.9,0l-6.1,6.1-2.3-2.3c-.2-.2-.7-.2-.9,0l-1.9,1.9c-.2.2-.2.7,0,.9l4.7,4.7c.1.1.3.2.5.2ZM40.7,23.4l2.3,2.3c.1.1.3.2.5.2s.3,0,.5-.2l6.1-6.1,1,1-7.5,7.5-3.8-3.8,1-.9Z"/>
</svg>