<?xml version="1.0" encoding="UTF-8"?>
<svg id="Layer_1" data-name="Layer 1" xmlns="http://www.w3.org/2000/svg" viewBox="0 0 60 60">
  <defs>
    <style>
      .cls-1 {
        fill: #37464c;
        stroke-width: 0px;
      }
    </style>
  </defs>
  <path class="cls-1" d="m11,38c-2.76,0-5-2.24-5-5s2.24-5,5-5,5,2.24,5,5-2.24,5-5,5Zm0-8c-1.65,0-3,1.35-3,3s1.35,3,3,3,3-1.35,3-3-1.35-3-3-3Z"/>
  <path class="cls-1" d="m17,44H5c-.55,0-1-.45-1-1,0-3.86,3.14-7,7-7s7,3.14,7,7c0,.55-.45,1-1,1Zm-10.9-2h9.8c-.46-2.28-2.48-4-4.9-4s-4.44,1.72-4.9,4Z"/>
  <path class="cls-1" d="m30,52c-2.76,0-5-2.24-5-5s2.24-5,5-5,5,2.24,5,5-2.24,5-5,5Zm0-8c-1.65,0-3,1.35-3,3s1.35,3,3,3,3-1.35,3-3-1.35-3-3-3Z"/>
  <path class="cls-1" d="m36,58h-12c-.55,0-1-.45-1-1,0-3.86,3.14-7,7-7s7,3.14,7,7c0,.55-.45,1-1,1Zm-10.9-2h9.8c-.46-2.28-2.48-4-4.9-4s-4.44,1.72-4.9,4Z"/>
  <path class="cls-1" d="m49,38c-2.76,0-5-2.24-5-5s2.24-5,5-5,5,2.24,5,5-2.24,5-5,5Zm0-8c-1.65,0-3,1.35-3,3s1.35,3,3,3,3-1.35,3-3-1.35-3-3-3Z"/>
  <path class="cls-1" d="m55,44h-12c-.55,0-1-.45-1-1,0-3.86,3.14-7,7-7s7,3.14,7,7c0,.55-.45,1-1,1Zm-10.9-2h9.8c-.46-2.28-2.48-4-4.9-4s-4.44,1.72-4.9,4Z"/>
  <path class="cls-1" d="m41,38c-3.86,0-7-3.14-7-7,0-.55.45-1,1-1s1,.45,1,1c0,2.76,2.24,5,5,5,.55,0,1,.45,1,1s-.45,1-1,1Z"/>
  <path class="cls-1" d="m19,38c-.55,0-1-.45-1-1s.45-1,1-1c2.76,0,5-2.24,5-5,0-.55.45-1,1-1s1,.45,1,1c0,3.86-3.14,7-7,7Z"/>
  <path class="cls-1" d="m30,40c-.55,0-1-.45-1-1v-8c0-.55.45-1,1-1s1,.45,1,1v8c0,.55-.45,1-1,1Z"/>
  <path class="cls-1" d="m30,27c-.13,0-.26-.03-.38-.08-.12-.05-.23-.12-.33-.21-.09-.1-.16-.2-.21-.33-.05-.12-.08-.25-.08-.38s.03-.26.08-.38c.05-.13.12-.23.21-.33.1-.09.21-.16.33-.21.18-.08.38-.1.58-.06.06,0,.12.03.18.06.06.02.12.05.18.09.05.04.1.08.15.12.18.19.29.45.29.71,0,.13-.03.26-.08.38-.05.12-.12.23-.21.33-.05.04-.1.08-.15.12-.06.04-.12.07-.18.09-.06.03-.12.05-.18.06-.07,0-.13.02-.2.02Z"/>
  <path class="cls-1" d="m30,14c-3.31,0-6-2.69-6-6s2.69-6,6-6,6,2.69,6,6-2.69,6-6,6Zm0-10c-2.21,0-4,1.79-4,4s1.79,4,4,4,4-1.79,4-4-1.79-4-4-4Z"/>
  <path class="cls-1" d="m37.2,28.98l-.39-1.96,3.07-.61c.53-.11.89-.63.79-1.16l-1.35-7.43c-.12-.68-.58-1.24-1.22-1.5l-2.85-1.14-4.53,4.53c-.39.39-1.02.39-1.41,0l-4.53-4.53-2.85,1.14c-.64.26-1.1.82-1.23,1.5l-1.35,7.43c-.1.53.26,1.05.79,1.16l3.07.61-.39,1.96-3.07-.61c-1.59-.32-2.65-1.88-2.36-3.48l1.35-7.43c.25-1.36,1.16-2.48,2.45-3l3.46-1.38c.37-.15.8-.06,1.08.22l4.29,4.29,4.29-4.29c.28-.28.71-.37,1.08-.22l3.46,1.38c1.29.51,2.2,1.64,2.45,3l1.35,7.43c.29,1.6-.77,3.16-2.36,3.48l-3.07.61Z"/>
  <path class="cls-1" d="m47,26h-5.36c-.55,0-1-.45-1-1s.45-1,1-1h5.36c.55,0,1,.45,1,1s-.45,1-1,1Z"/>
  <path class="cls-1" d="m18.36,26h-5.36c-.55,0-1-.45-1-1s.45-1,1-1h5.36c.55,0,1,.45,1,1s-.45,1-1,1Z"/>
  <path class="cls-1" d="m36,32h-12c-1.1,0-2-.9-2-2v-8c0-1.1.9-2,2-2h12c1.1,0,2,.9,2,2v8c0,1.1-.9,2-2,2Zm-12-10v8h12v-8h-12Z"/>
</svg>