<?xml version="1.0" encoding="UTF-8"?>
<svg id="Layer_1" data-name="Layer 1" xmlns="http://www.w3.org/2000/svg" viewBox="0 0 60 60">
  <defs>
    <style>
      .cls-1 {
        fill: #37464c;
        stroke-width: 0px;
      }
    </style>
  </defs>
  <path class="cls-1" d="m18.66,55.34c-1.73,0-3.13-1.41-3.13-3.13s1.41-3.13,3.13-3.13,3.13,1.41,3.13,3.13-1.41,3.13-3.13,3.13Zm0-4.27c-.62,0-1.13.51-1.13,1.13s.51,1.13,1.13,1.13,1.13-.51,1.13-1.13-.51-1.13-1.13-1.13Z"/>
  <path class="cls-1" d="m10.13,46.81c-1.73,0-3.13-1.41-3.13-3.13s1.41-3.13,3.13-3.13,3.13,1.41,3.13,3.13-1.41,3.13-3.13,3.13Zm0-4.27c-.62,0-1.13.51-1.13,1.13s.51,1.13,1.13,1.13,1.13-.51,1.13-1.13-.51-1.13-1.13-1.13Z"/>
  <path class="cls-1" d="m11.19,31.87c-1.73,0-3.13-1.41-3.13-3.13s1.41-3.13,3.13-3.13,3.13,1.41,3.13,3.13-1.41,3.13-3.13,3.13Zm0-4.27c-.62,0-1.13.51-1.13,1.13s.51,1.13,1.13,1.13,1.13-.51,1.13-1.13-.51-1.13-1.13-1.13Z"/>
  <path class="cls-1" d="m45.33,23.34c-1.73,0-3.13-1.41-3.13-3.13s1.41-3.13,3.13-3.13,3.13,1.41,3.13,3.13-1.41,3.13-3.13,3.13Zm0-4.27c-.62,0-1.13.51-1.13,1.13s.51,1.13,1.13,1.13,1.13-.51,1.13-1.13-.51-1.13-1.13-1.13Z"/>
  <path class="cls-1" d="m48.53,46.81c-1.73,0-3.13-1.41-3.13-3.13s1.41-3.13,3.13-3.13,3.13,1.41,3.13,3.13-1.41,3.13-3.13,3.13Zm0-4.27c-.62,0-1.13.51-1.13,1.13s.51,1.13,1.13,1.13,1.13-.51,1.13-1.13-.51-1.13-1.13-1.13Z"/>
  <path class="cls-1" d="m41.06,12.67c-1.73,0-3.13-1.41-3.13-3.13s1.41-3.13,3.13-3.13,3.13,1.41,3.13,3.13-1.41,3.13-3.13,3.13Zm0-4.27c-.62,0-1.13.51-1.13,1.13s.51,1.13,1.13,1.13,1.13-.51,1.13-1.13-.51-1.13-1.13-1.13Z"/>
  <path class="cls-1" d="m17.59,21.2c-1.73,0-3.13-1.41-3.13-3.13s1.41-3.13,3.13-3.13,3.13,1.41,3.13,3.13-1.41,3.13-3.13,3.13Zm0-4.27c-.62,0-1.13.51-1.13,1.13s.51,1.13,1.13,1.13,1.13-.51,1.13-1.13-.51-1.13-1.13-1.13Z"/>
  <path class="cls-1" d="m46.4,44.67h-13.87c-.55,0-1-.45-1-1v-8.53c0-.55.45-1,1-1s1,.45,1,1v7.53h12.87c.55,0,1,.45,1,1s-.45,1-1,1Z"/>
  <g>
    <path class="cls-1" d="m12.26,44.67c-.13,0-.26-.02-.38-.07-.13-.05-.24-.13-.33-.22-.19-.19-.29-.44-.29-.71,0-.13.02-.26.07-.38s.13-.23.22-.33c.09-.09.2-.16.32-.21.37-.15.81-.06,1.09.21.1.1.17.21.22.33.05.12.08.25.08.38,0,.27-.11.52-.3.71-.09.09-.2.17-.32.22-.12.05-.25.07-.38.07Z"/>
    <path class="cls-1" d="m11.26,43.67c0-.55.44-1,1-1h0c.55,0,1,.45,1,1h0c0,.55-.45,1-1,1h0c-.56,0-1-.45-1-1Z"/>
    <path class="cls-1" d="m18.84,43.67c0-.55.44-1,1-1h0c.54,0,.99.45.99,1h0c0,.55-.45,1-.99,1h0c-.56,0-1-.45-1-1Zm-3.67,0c0-.55.44-1,1-1h0c.55,0,1,.45,1,1h0c0,.55-.45,1-1,1h0c-.56,0-1-.45-1-1Z"/>
    <path class="cls-1" d="m23.99,44.67c-.27,0-.52-.1-.71-.29-.09-.1-.16-.2-.21-.32s-.08-.25-.08-.39c0-.26.11-.52.29-.7.1-.1.21-.17.33-.22.36-.15.81-.06,1.09.22.18.18.29.44.29.7,0,.14-.02.27-.07.39s-.13.22-.22.32c-.1.09-.2.17-.33.22-.12.05-.24.07-.38.07Z"/>
    <path class="cls-1" d="m22.99,43.67c0-.55.45-1,1-1h0c.55,0,1,.45,1,1h0c0,.55-.45,1-1,1h0c-.55,0-1-.45-1-1Z"/>
    <path class="cls-1" d="m22.99,39.41c0-.56.45-1.01,1-1.01h0c.55,0,1,.45,1,1.01h0c0,.55-.45,1-1,1h0c-.55,0-1-.45-1-1Z"/>
    <path class="cls-1" d="m23.99,36.14c-.27,0-.52-.11-.71-.3-.09-.09-.16-.2-.21-.32s-.08-.25-.08-.38.03-.26.08-.38c.05-.13.12-.24.21-.33.1-.09.21-.16.33-.22.18-.07.38-.09.58-.05.06,0,.12.03.18.05.06.03.12.06.18.1.05.03.1.08.15.12.09.09.16.2.21.33.06.12.08.25.08.38s-.02.26-.07.38c-.06.12-.13.23-.22.32-.19.19-.44.3-.71.3Z"/>
  </g>
  <path class="cls-1" d="m38.93,55.34c-1.73,0-3.13-1.41-3.13-3.13s1.41-3.13,3.13-3.13,3.13,1.41,3.13,3.13-1.41,3.13-3.13,3.13Zm0-4.27c-.62,0-1.13.51-1.13,1.13s.51,1.13,1.13,1.13,1.13-.51,1.13-1.13-.51-1.13-1.13-1.13Z"/>
  <path class="cls-1" d="m33.66,36.14h-10.8c-1.1,0-2-.9-2-2v-10.8c0-1.1.9-2,2-2h10.8c1.1,0,2,.9,2,2v10.8c0,1.1-.9,2-2,2Zm0-2v1-1s0,0,0,0Zm-10.8-10.8v10.8h10.8v-10.8s-10.8,0-10.8,0Z"/>
  <path class="cls-1" d="m26.13,23.34c-.55,0-1-.45-1-1v-3.27h-5.4c-.55,0-1-.45-1-1s.45-1,1-1h6.4c.55,0,1,.45,1,1v4.27c0,.55-.45,1-1,1Z"/>
  <path class="cls-1" d="m45.33,27.6h-10.67c-.55,0-1-.45-1-1s.45-1,1-1h9.67v-3.27c0-.55.45-1,1-1s1,.45,1,1v4.27c0,.55-.45,1-1,1Z"/>
  <g>
    <path class="cls-1" d="m32.53,23.34c-.27,0-.52-.11-.71-.3-.1-.09-.17-.2-.22-.32-.05-.12-.08-.25-.08-.38s.03-.26.08-.39c.05-.12.13-.23.22-.32.37-.37,1.04-.38,1.41,0,.1.09.17.2.22.32.05.13.08.25.08.39,0,.13-.03.26-.08.38s-.12.23-.22.32c-.09.1-.2.17-.32.22s-.25.08-.38.08Z"/>
    <path class="cls-1" d="m31.53,22.34c0-.56.44-1,1-1h0c.55,0,1,.44,1,1h0c0,.55-.45,1-1,1h0c-.56,0-1-.45-1-1Z"/>
    <path class="cls-1" d="m31.53,18.07c0-.55.44-1,1-1h0c.55,0,1,.45,1,1h0c0,.55-.45,1-1,1h0c-.56,0-1-.45-1-1Zm0-4c0-.55.44-1,1-1h0c.55,0,1,.45,1,1h0c0,.55-.45,1-1,1h0c-.56,0-1-.45-1-1Z"/>
    <path class="cls-1" d="m32.53,10.53c-.27,0-.52-.1-.71-.29s-.3-.44-.3-.71.11-.52.3-.7c.37-.37,1.04-.38,1.41,0,.19.18.3.44.3.7s-.11.52-.3.71c-.09.09-.2.17-.32.22s-.25.07-.38.07Z"/>
    <path class="cls-1" d="m31.53,9.53c0-.55.44-1,1-1h0c.55,0,1,.45,1,1h0c0,.56-.45,1-1,1h0c-.56,0-1-.44-1-1Z"/>
    <path class="cls-1" d="m34.73,9.53c0-.55.45-1,1-1h0c.55,0,1,.45,1,1h0c0,.56-.45,1-1,1h0c-.55,0-1-.44-1-1Z"/>
    <path class="cls-1" d="m38.93,10.53c-.27,0-.52-.1-.71-.29-.09-.09-.17-.2-.22-.32s-.07-.25-.07-.39c0-.26.1-.52.29-.7.37-.38,1.04-.38,1.41,0,.19.18.3.44.3.7,0,.14-.03.27-.08.39-.05.12-.12.23-.22.32-.09.1-.2.17-.32.22-.12.05-.25.07-.38.07Z"/>
  </g>
  <path class="cls-1" d="m21.86,29.74h-8.53c-.55,0-1-.45-1-1s.45-1,1-1h8.53c.55,0,1,.45,1,1s-.45,1-1,1Z"/>
  <path class="cls-1" d="m46.46,30.87c0-.55.45-1,1-1h0c.55,0,1,.45,1,1h0c0,.55-.45,1-1,1h0c-.55,0-1-.45-1-1Zm-4,0c0-.55.45-1,1-1h0c.55,0,1,.45,1,1h0c0,.55-.45,1-1,1h0c-.55,0-1-.45-1-1Zm-4,0c0-.55.45-1,1-1h0c.55,0,1,.45,1,1h0c0,.55-.45,1-1,1h0c-.55,0-1-.45-1-1Zm-4,0c0-.55.45-1,1-1h0c.55,0,1,.45,1,1h0c0,.55-.45,1-1,1h0c-.55,0-1-.45-1-1Z"/>
  <path class="cls-1" d="m28.26,53.21h-7.47c-.55,0-1-.45-1-1s.45-1,1-1h6.47v-16.07c0-.55.45-1,1-1s1,.45,1,1v17.07c0,.55-.45,1-1,1Z"/>
  <path class="cls-1" d="m35.79,52.21c0-.56.45-1,1.01-1h0c.55,0,.99.44.99,1h0c0,.55-.44,1-.99,1h0c-.56,0-1.01-.45-1.01-1Zm-4,0c0-.56.45-1,1-1h0c.55,0,1,.44,1,1h0c0,.55-.45,1-1,1h0c-.55,0-1-.45-1-1Zm-4,0c0-.56.45-1,1-1h0c.56,0,1,.44,1,1h0c0,.55-.44,1-1,1h0c-.55,0-1-.45-1-1Z"/>
</svg>