<?xml version="1.0" encoding="UTF-8"?>
<svg id="Layer_1" data-name="Layer 1" xmlns="http://www.w3.org/2000/svg" viewBox="0 0 60 60">
  <defs>
    <style>
      .cls-1 {
        fill: #37464c;
        stroke-width: 0px;
      }
    </style>
  </defs>
  <g>
    <path class="cls-1" d="m49.51,53.84H9.56c-1.49,0-2.69-1.21-2.69-2.69v-8.86c0-1.49,1.21-2.69,2.69-2.69h39.95c1.49,0,2.69,1.21,2.69,2.69v8.86c0,1.49-1.21,2.69-2.69,2.69Zm-39.95-13.2c-.91,0-1.65.74-1.65,1.65v8.86c0,.91.74,1.65,1.65,1.65h39.95c.91,0,1.65-.74,1.65-1.65v-8.86c0-.91-.74-1.65-1.65-1.65H9.56Z"/>
    <path class="cls-1" d="m49.51,54.22H9.56c-1.69,0-3.07-1.38-3.07-3.07v-8.86c0-1.69,1.38-3.07,3.07-3.07h39.95c1.69,0,3.07,1.38,3.07,3.07v8.86c0,1.69-1.38,3.07-3.07,3.07Zm-39.95-14.25c-1.28,0-2.32,1.04-2.32,2.32v8.86c0,1.28,1.04,2.32,2.32,2.32h39.95c1.28,0,2.32-1.04,2.32-2.32v-8.86c0-1.28-1.04-2.32-2.32-2.32H9.56Zm39.95,13.2H9.56c-1.12,0-2.02-.91-2.02-2.02v-8.86c0-1.12.91-2.02,2.02-2.02h39.95c1.12,0,2.02.91,2.02,2.02v8.86c0,1.12-.91,2.02-2.02,2.02Zm-39.95-12.16c-.7,0-1.27.57-1.27,1.27v8.86c0,.7.57,1.27,1.27,1.27h39.95c.7,0,1.27-.57,1.27-1.27v-8.86c0-.7-.57-1.27-1.27-1.27H9.56Z"/>
  </g>
  <g>
    <path class="cls-1" d="m51.89,42.95c-.14,0-.29-.06-.39-.17-.19-.22-.17-.55.04-.74.47-.42.66-1.05.49-1.66l-2.29-8.56c-.11-.43-.39-.78-.77-1-.38-.22-.83-.28-1.25-.16l-34.68,9.29c-.28.08-.57-.09-.64-.37-.07-.28.09-.57.37-.64l34.68-9.29c.7-.19,1.42-.09,2.04.27.62.36,1.07.94,1.26,1.64l2.29,8.56c.26.99-.04,2.03-.81,2.71-.1.09-.22.13-.35.13Z"/>
    <path class="cls-1" d="m51.89,43.33c-.25,0-.5-.11-.67-.3-.16-.18-.24-.41-.23-.65.01-.24.12-.46.3-.62.36-.32.51-.81.38-1.28l-2.29-8.56c-.09-.33-.3-.6-.59-.77-.29-.17-.64-.22-.97-.13l-34.68,9.29c-.23.06-.47.03-.68-.09-.21-.12-.36-.31-.42-.54-.06-.23-.03-.48.09-.68.12-.21.31-.36.55-.42l34.68-9.29c.79-.21,1.62-.1,2.33.31.71.41,1.22,1.07,1.43,1.86l2.29,8.56c.3,1.12-.05,2.31-.92,3.08-.17.15-.38.23-.6.23Zm-3.74-13.1c.35,0,.7.09,1.01.27.47.27.8.71.94,1.23l2.29,8.56c.2.74-.03,1.52-.61,2.03-.05.05-.06.16-.01.21.08.09.14.07.21.01.66-.59.92-1.48.69-2.33l-2.29-8.56c-.16-.6-.54-1.1-1.08-1.41-.54-.31-1.16-.39-1.76-.23l-34.68,9.29c-.05.01-.08.05-.09.07-.01.02-.03.06-.01.11.02.07.11.13.18.1l34.68-9.29c.17-.05.35-.07.53-.07Z"/>
  </g>
  <g>
    <path class="cls-1" d="m12.61,39.73c-.18,0-.36-.09-.45-.26-.14-.25-.06-.57.19-.72l30.46-17.59c.62-.36,1.35-.46,2.05-.27.7.19,1.28.63,1.64,1.26l4.43,7.67c.4.7.47,1.53.19,2.28-.1.27-.4.41-.67.31-.27-.1-.41-.4-.31-.67.17-.46.13-.97-.12-1.4l-4.43-7.67c-.22-.38-.58-.65-1-.77-.43-.11-.87-.06-1.25.16l-30.46,17.59c-.08.05-.17.07-.26.07Z"/>
    <path class="cls-1" d="m12.61,40.11c-.32,0-.62-.17-.78-.45-.25-.43-.1-.98.33-1.23l30.46-17.59c.71-.41,1.54-.52,2.33-.31.79.21,1.45.72,1.86,1.43l4.43,7.67c.46.79.54,1.74.22,2.6-.08.22-.25.4-.47.5-.22.1-.46.11-.69.03-.46-.17-.7-.69-.53-1.15.13-.36.1-.75-.09-1.08l-4.43-7.67c-.17-.29-.44-.5-.77-.59-.33-.09-.67-.04-.97.13l-30.46,17.59c-.14.08-.29.12-.45.12Zm31.54-18.93c-.4,0-.8.11-1.16.31l-30.46,17.59c-.06.03-.09.14-.05.2.04.07.13.09.2.05l30.46-17.59c.47-.27,1.01-.34,1.54-.2.52.14.96.47,1.23.94l4.43,7.67c.3.52.35,1.15.15,1.71-.03.08.01.16.09.19.07.03.17-.02.19-.09.24-.65.18-1.37-.17-1.96l-4.43-7.67c-.31-.54-.81-.92-1.41-1.08-.2-.05-.4-.08-.6-.08Z"/>
  </g>
  <g>
    <path class="cls-1" d="m11.57,40.33c-.13,0-.27-.05-.37-.15-.2-.2-.2-.54,0-.74l24.7-24.71c.51-.51,1.19-.79,1.91-.79s1.4.28,1.91.79l6.4,6.76c.2.21.19.54-.02.74-.21.2-.54.19-.74-.02l-6.39-6.75c-.3-.3-.72-.47-1.16-.47s-.85.17-1.17.48l-24.7,24.71c-.1.1-.24.15-.37.15Z"/>
    <path class="cls-1" d="m11.57,40.7c-.24,0-.47-.09-.64-.26-.35-.35-.35-.92,0-1.27l24.7-24.71c1.16-1.16,3.18-1.16,4.34,0l6.41,6.77c.34.36.32.93-.03,1.27-.36.34-.93.32-1.27-.04l-6.39-6.75c-.45-.46-1.3-.46-1.78.02l-24.7,24.71c-.17.17-.39.26-.64.26Zm26.24-26.39c-.62,0-1.2.24-1.64.68l-24.7,24.71c-.06.06-.06.15,0,.21.07.07.14.07.21,0l24.7-24.71c.76-.76,2.1-.76,2.85,0l6.4,6.76c.06.06.15.06.21,0,.06-.06.06-.15,0-.21l-6.4-6.76c-.43-.43-1.01-.67-1.63-.67Z"/>
  </g>
  <g>
    <path class="cls-1" d="m10.78,40.54c-.09,0-.18-.02-.26-.07-.25-.15-.33-.47-.19-.72L27.2,10.77c.36-.62.94-1.07,1.64-1.25.7-.19,1.42-.09,2.04.27l6.68,3.86c.25.14.34.46.19.71-.14.25-.46.34-.71.19l-6.68-3.86c-.38-.22-.83-.28-1.25-.17-.43.11-.78.39-1,.77l-16.87,28.98c-.1.17-.27.26-.45.26Z"/>
    <path class="cls-1" d="m10.78,40.91c-.16,0-.31-.04-.45-.12-.43-.25-.57-.8-.33-1.23L26.88,10.58c.41-.71,1.07-1.22,1.86-1.43.79-.21,1.62-.1,2.33.31l6.68,3.85c.43.25.58.8.33,1.23-.25.43-.8.58-1.23.33l-6.68-3.86c-.29-.17-.64-.22-.97-.13-.33.09-.6.3-.77.59l-16.87,28.98c-.16.28-.46.45-.78.45ZM29.54,9.8c-.2,0-.4.03-.6.08-.6.16-1.1.54-1.41,1.08l-16.87,28.98c-.04.07-.02.16.05.2l.07.02c.05,0,.1-.03.13-.07L27.78,11.11c.27-.47.71-.8,1.23-.94.52-.14,1.07-.07,1.54.2l6.68,3.86c.07.04.16.02.2-.05.04-.07.02-.16-.06-.2l-6.68-3.85c-.36-.21-.75-.31-1.16-.31Z"/>
  </g>
  <g>
    <path class="cls-1" d="m9.74,40.33s-.09,0-.14-.02c-.28-.07-.44-.36-.37-.64l8.06-30.1c.19-.7.63-1.28,1.26-1.64.62-.36,1.35-.46,2.05-.27l7.44,1.99c.28.07.44.36.37.64-.07.28-.36.44-.64.37l-7.44-1.99c-.43-.11-.87-.06-1.25.16-.38.22-.65.58-.77,1l-8.06,30.1c-.06.23-.27.39-.5.39Z"/>
    <path class="cls-1" d="m9.74,40.7c-.07,0-.15,0-.23-.03-.48-.13-.77-.62-.64-1.1l8.06-30.1c.21-.79.72-1.45,1.43-1.86.71-.41,1.54-.52,2.33-.31l7.44,1.99c.23.06.43.21.55.42.12.21.15.45.09.68-.06.23-.21.43-.42.55-.21.12-.45.15-.68.09l-7.44-1.99c-.33-.09-.67-.04-.97.13-.29.17-.51.45-.59.77l-8.06,30.1c-.1.39-.46.67-.87.67ZM19.9,7.94c-.4,0-.8.11-1.16.31-.54.31-.92.81-1.08,1.41l-8.06,30.1c-.02.08.03.16.1.18h.04c.07,0,.12-.04.14-.1l8.06-30.1c.14-.52.48-.96.94-1.23.47-.27,1.02-.34,1.54-.2l7.44,1.99c.05.01.09,0,.11-.01s.06-.04.07-.09c.02-.07-.04-.16-.11-.18l-7.44-1.99c-.2-.05-.4-.08-.6-.08Z"/>
  </g>
  <g>
    <path class="cls-1" d="m18.42,53.84h-8.86c-1.49,0-2.69-1.21-2.69-2.7V11.2c0-1.49,1.21-2.7,2.69-2.7h8.28c.29,0,.52.23.52.52s-.23.52-.52.52h-8.28c-.91,0-1.65.74-1.65,1.65v39.95c0,.91.74,1.65,1.65,1.65h8.86c.29,0,.52.23.52.52s-.23.52-.52.52Z"/>
    <path class="cls-1" d="m18.42,54.22h-8.86c-1.69,0-3.07-1.38-3.07-3.07V11.2c0-1.69,1.38-3.07,3.07-3.07h8.28c.5,0,.9.4.9.9s-.4.9-.9.9h-8.28c-.7,0-1.27.57-1.27,1.27v39.95c0,.7.57,1.27,1.27,1.27h8.86c.5,0,.9.4.9.9s-.4.9-.9.9ZM9.56,8.88c-1.28,0-2.32,1.04-2.32,2.32v39.95c0,1.28,1.04,2.32,2.32,2.32h8.86c.08,0,.15-.07.15-.15s-.07-.15-.15-.15h-8.86c-1.12,0-2.02-.91-2.02-2.02V11.2c0-1.12.91-2.02,2.02-2.02h8.28c.08,0,.15-.07.15-.15s-.07-.15-.15-.15h-8.28Z"/>
  </g>
  <g>
    <path class="cls-1" d="m13.41,48.85c-1.17,0-2.13-.95-2.13-2.13s.95-2.13,2.13-2.13,2.13.96,2.13,2.13-.95,2.13-2.13,2.13Zm0-3.21c-.6,0-1.08.49-1.08,1.08s.49,1.08,1.08,1.08,1.08-.49,1.08-1.08-.49-1.08-1.08-1.08Z"/>
    <path class="cls-1" d="m13.41,49.1c-1.31,0-2.38-1.07-2.38-2.38s1.07-2.38,2.38-2.38,2.38,1.07,2.38,2.38-1.07,2.38-2.38,2.38Zm0-4.26c-1.04,0-1.88.84-1.88,1.88s.84,1.88,1.88,1.88,1.88-.84,1.88-1.88-.84-1.88-1.88-1.88Zm0,3.21c-.73,0-1.33-.6-1.33-1.33s.6-1.33,1.33-1.33,1.33.6,1.33,1.33-.6,1.33-1.33,1.33Zm0-2.16c-.46,0-.83.37-.83.83s.37.83.83.83.83-.37.83-.83-.37-.83-.83-.83Z"/>
  </g>
</svg>