<?xml version="1.0" encoding="UTF-8"?>
<svg id="Layer_1" data-name="Layer 1" xmlns="http://www.w3.org/2000/svg" viewBox="0 0 60 60">
  <defs>
    <style>
      .cls-1 {
        fill: #37464c;
        stroke-width: 0px;
      }
    </style>
  </defs>
  <g>
    <path class="cls-1" d="m39.2,43.97c-.15,0-.29-.06-.4-.17l-21.27-21.26c-.11-.11-.17-.25-.17-.4s.06-.3.17-.4l4.62-4.62c.22-.22.58-.22.81,0l21.27,21.26c.11.11.17.25.17.4s-.06.3-.17.4l-4.62,4.62c-.11.11-.26.17-.4.17Zm-20.47-21.83l20.47,20.45,3.82-3.81-20.47-20.45-3.82,3.81Z"/>
    <path class="cls-1" d="m39.2,44.34c-.25,0-.49-.1-.67-.28l-21.27-21.26c-.18-.18-.28-.42-.28-.67s.1-.49.28-.67l4.62-4.62c.37-.37.97-.37,1.34,0l21.27,21.26c.18.18.28.42.28.67s-.1.49-.28.67l-4.62,4.62c-.18.18-.42.28-.67.28Zm-16.65-27.02s-.1.02-.14.06l-4.62,4.62s-.06.09-.06.14.02.1.06.14l21.27,21.26c.07.07.2.07.28,0l4.62-4.62s.06-.09.06-.14-.02-.1-.06-.14l-21.27-21.26s-.09-.06-.14-.06Zm16.65,25.8l-21-20.98,4.35-4.34,21,20.98-4.35,4.34Zm-19.94-20.98l19.94,19.92,3.29-3.28-19.94-19.92-3.29,3.28Z"/>
  </g>
  <g>
    <path class="cls-1" d="m43.83,39.34c-.15,0-.29-.06-.4-.17l-21.27-21.26c-.11-.11-.17-.25-.17-.4s.06-.3.17-.4l11.6-11.59c.22-.22.58-.22.81,0l21.27,21.26c.11.11.17.25.17.4s-.06.3-.17.4l-11.6,11.59c-.11.11-.26.17-.4.17Zm-20.47-21.83l20.47,20.45,10.79-10.78L34.15,6.73l-10.79,10.78Z"/>
    <path class="cls-1" d="m43.83,39.72c-.25,0-.49-.1-.67-.27l-21.27-21.26c-.18-.18-.28-.42-.28-.67s.1-.49.28-.67l11.6-11.59c.37-.37.97-.37,1.34,0l21.27,21.26c.18.18.28.42.28.67s-.1.49-.28.67l-11.6,11.59c-.18.18-.42.28-.67.28ZM34.15,5.73s-.1.02-.14.06l-11.6,11.59s-.06.09-.06.14.02.1.06.14l21.27,21.26c.07.07.2.07.28,0l11.6-11.59s.06-.09.06-.14-.02-.1-.06-.14L34.29,5.79s-.09-.06-.14-.06Zm9.67,32.77l-21-20.98,11.32-11.32,21,20.98-11.32,11.31Zm-19.94-20.98l19.94,19.92,10.26-10.25L34.15,7.26l-10.26,10.25Z"/>
  </g>
  <g>
    <path class="cls-1" d="m36.2,46.97c-.15,0-.29-.06-.4-.17L14.52,25.54c-.11-.11-.17-.25-.17-.4s.06-.3.17-.4l3.01-3c.22-.22.58-.22.81,0l21.27,21.26c.11.11.17.25.17.4s-.06.3-.17.4l-3.01,3c-.11.11-.26.17-.4.17ZM15.73,25.14l20.47,20.45,2.2-2.2-20.47-20.45-2.2,2.2Z"/>
    <path class="cls-1" d="m36.2,47.34c-.25,0-.49-.1-.67-.28L14.26,25.81c-.18-.18-.28-.42-.28-.67s.1-.49.28-.67l3.01-3c.37-.37.97-.37,1.33,0l21.27,21.26c.18.18.28.42.28.67s-.1.49-.28.67l-3.01,3c-.18.18-.42.28-.67.28Zm-18.27-25.4c-.05,0-.1.02-.14.06l-3.01,3s-.06.09-.06.14.02.1.06.14l21.27,21.26c.06.06.14.14.28,0l3.01-3s.06-.09.06-.14-.02-.1-.06-.14l-21.27-21.26s-.09-.06-.14-.06Zm18.27,24.18L15.2,25.14l2.73-2.73,21,20.98-2.73,2.73Zm-19.94-20.98l19.94,19.92,1.67-1.67-19.94-19.92-1.67,1.67Z"/>
  </g>
  <g>
    <path class="cls-1" d="m12.29,55.6c-.62,0-1.21-.24-1.65-.68h0l-4.23-4.23c-.45-.45-.7-1.05-.69-1.69.01-.64.27-1.23.74-1.67,0,0,.02-.02.03-.03l16.94-13.74c.23-.18.55-.17.76.04l3.55,3.54c.21.21.22.54.04.76l-13.75,16.93s-.02.02-.03.03c-.44.47-1.03.73-1.67.74-.01,0-.03,0-.04,0Zm-.85-1.49c.23.23.53.35.85.35h.02c.32,0,.62-.14.84-.37l13.41-16.51-2.82-2.82-16.52,13.4c-.23.22-.36.52-.37.84,0,.33.12.64.35.87l4.23,4.23Z"/>
    <path class="cls-1" d="m12.29,55.97c-.72,0-1.41-.28-1.92-.79l-4.23-4.23c-.52-.53-.81-1.22-.79-1.96.01-.74.32-1.43.86-1.94l16.99-13.78c.38-.31.92-.28,1.26.06l3.55,3.54c.34.34.37.89.07,1.26l-13.75,16.93c-.55.59-1.24.9-1.98.91h-.05Zm11.5-22.17s-.09.01-.12.04l-16.94,13.74c-.4.38-.62.87-.63,1.41,0,.54.2,1.04.58,1.42l4.23,4.23c.37.37.86.58,1.39.58v.38-.38c.57,0,1.07-.23,1.43-.62l13.76-16.94c.06-.08.06-.19-.01-.26l-3.54-3.54s-.09-.06-.14-.06Zm-11.47,21.03c-.45,0-.84-.16-1.14-.46l-4.23-4.23c-.3-.3-.47-.71-.46-1.14,0-.42.18-.81.48-1.11l16.81-13.64,3.3,3.29-13.63,16.77c-.31.33-.71.5-1.13.5Zm11.4-19.57l-16.26,13.19c-.13.13-.22.34-.23.56,0,.23.08.44.24.6l4.23,4.23c.16.16.36.24.58.24.23,0,.44-.09.59-.25l13.18-16.22-2.34-2.34Z"/>
  </g>
  <g>
    <path class="cls-1" d="m12.03,51.33c-.52,0-1.04-.2-1.44-.6-.39-.39-.6-.9-.6-1.44s.21-1.06.6-1.44c.8-.79,2.09-.79,2.89,0,.39.39.6.9.6,1.44s-.21,1.06-.6,1.44c-.4.4-.92.6-1.44.6Zm0-2.94c-.23,0-.46.09-.64.26-.17.17-.26.4-.26.64s.09.47.26.64c.35.35.92.35,1.27,0,.17-.17.26-.4.26-.64s-.09-.47-.26-.64c-.18-.18-.41-.26-.64-.26Z"/>
    <path class="cls-1" d="m12.03,51.71c-.65,0-1.25-.25-1.71-.71-.46-.46-.71-1.06-.71-1.71s.25-1.25.71-1.71c.94-.94,2.47-.94,3.42,0,.46.46.71,1.06.71,1.71s-.25,1.25-.71,1.71c-.46.46-1.06.71-1.71.71Zm0-4.08c-.43,0-.85.16-1.18.49-.31.31-.49.73-.49,1.18s.17.86.49,1.18c.63.62,1.73.63,2.35,0,.31-.31.49-.73.49-1.18s-.17-.86-.49-1.18c-.32-.32-.75-.49-1.18-.49Zm0,2.94c-.34,0-.66-.13-.9-.37-.24-.24-.37-.56-.37-.9s.13-.66.37-.9c.48-.48,1.32-.48,1.8,0,.24.24.37.56.37.9s-.13.66-.37.9c-.24.24-.56.37-.9.37Zm0-1.8c-.14,0-.27.05-.37.15-.1.1-.15.23-.15.37s.05.27.15.37c.2.2.55.2.74,0,.1-.1.15-.23.15-.37s-.05-.27-.15-.37c-.1-.1-.23-.15-.37-.15Z"/>
  </g>
  <g>
    <path class="cls-1" d="m54.07,29.11c-.13,0-.25-.04-.36-.13l-8.1-6.51c-.27-.22-.91-.11-1.43.4-.17.17-.29.39-.3.57-.05.63-.38,1.28-.91,1.78l-.41.39c-.53.51-1.2.8-1.84.79-.47,0-.9-.17-1.21-.48l-.37-.37c-.47-.47-.6-1.19-.36-1.93l.08-.24c.14-.43.39-.83.73-1.17l.55-.55c.57-.57,1.32-.89,2.01-.85.27.01.62-.14.88-.41.12-.12.15-.24.15-.29l-1.79-1.86c-.52-.54-1.58-.48-2.52.15-.38.26-.67.64-.79,1.04-.18.63-.55,1.24-1.04,1.76l-.51.53c-.87.9-2.04,1.39-3.07,1.29l-.28-.03c-.55-.06-1.03-.28-1.39-.64l-.26-.26c-.68-.68-.84-1.75-.43-2.85l.31-.83c.15-.4.36-.78.64-1.13l.23-.3c.87-1.11,2.18-1.75,3.34-1.66.54-.41.93-1.02,1.01-1.6.03-.24.02-.58-.2-.83l-4.38-4.94c-.2-.23-.19-.57.02-.78l1.77-1.77c.22-.22.58-.22.81,0l21.27,21.26c.11.11.17.25.17.4s-.06.3-.17.4l-1.45,1.45c-.11.11-.26.17-.4.17Zm-8.82-7.89c.4,0,.78.12,1.08.36l7.7,6.19.69-.69L34.25,6.64l-.99.98,4.03,4.54c.4.45.56,1.06.47,1.74-.13.96-.77,1.93-1.68,2.51-.12.08-.27.11-.41.08-.8-.15-1.82.35-2.49,1.2l-.23.3c-.2.26-.36.54-.47.83l-.31.83c-.25.66-.18,1.29.17,1.64l.26.26c.17.17.42.28.71.31l.28.03c.68.07,1.52-.3,2.13-.94l.51-.53c.37-.38.64-.84.77-1.29.19-.65.64-1.26,1.25-1.66,1.42-.96,3.06-.96,3.98,0l1.81,1.88c.46.48.38,1.3-.19,1.86-.5.5-1.16.78-1.76.74-.36-.02-.8.18-1.14.52l-.55.55c-.21.21-.37.47-.46.72l-.08.24c-.11.33-.08.62.08.77l.37.37c.12.12.29.14.41.14h0c.34,0,.73-.18,1.04-.48l.41-.39c.32-.3.53-.69.55-1.04.04-.45.27-.92.63-1.29.55-.55,1.24-.84,1.87-.84Z"/>
    <path class="cls-1" d="m54.07,29.49c-.22,0-.43-.07-.59-.21l-8.1-6.51c-.07-.06-.5-.06-.93.37-.12.12-.19.26-.19.34-.06.72-.43,1.46-1.02,2.02l-.41.39c-.6.57-1.36.9-2.07.9h-.03c-.57,0-1.09-.21-1.47-.59l-.37-.37c-.57-.57-.74-1.44-.45-2.31l.08-.24c.16-.48.44-.94.83-1.32l.55-.55c.65-.65,1.5-1,2.3-.96.13,0,.36-.08.55-.26l-1.6-1.66c-.39-.41-1.27-.32-2.04.21-.3.21-.55.52-.64.83-.2.69-.59,1.36-1.13,1.92l-.51.53c-.94.98-2.23,1.52-3.38,1.4l-.28-.03c-.64-.07-1.2-.32-1.62-.75l-.26-.26c-.79-.79-.98-2-.52-3.24l.31-.83c.16-.43.39-.84.69-1.23l.23-.3c.9-1.15,2.28-1.83,3.51-1.81.41-.35.7-.82.76-1.26.02-.16.02-.39-.11-.53l-4.38-4.94c-.33-.37-.31-.94.04-1.29l1.77-1.77c.37-.37.97-.37,1.34,0l21.27,21.26c.18.18.28.42.28.67s-.1.49-.28.67l-1.45,1.45c-.18.18-.42.28-.67.28Zm-8.82-7.5c.23,0,.44.06.6.19l8.1,6.51c.12.09.2.04.26-.01l1.45-1.45s.06-.09.06-.14-.02-.1-.06-.14L34.38,5.69c-.08-.08-.2-.08-.28,0l-1.77,1.77c-.07.07-.08.19,0,.27l4.38,4.94c.25.28.35.67.29,1.13-.09.68-.52,1.37-1.15,1.85l-.11.09h-.14c-1.05-.1-2.22.49-3.01,1.5l-.23.3c-.25.32-.45.67-.58,1.03l-.31.83c-.36.96-.23,1.88.34,2.45l.26.26c.3.3.7.48,1.17.53l.28.03c.92.09,1.97-.36,2.76-1.17l.51-.53c.46-.47.79-1.03.95-1.61.14-.48.49-.94.94-1.24,1.11-.75,2.34-.79,3-.11l1.9,1.97v.15c0,.14-.07.36-.26.55-.34.34-.78.52-1.17.52-.59-.05-1.23.24-1.73.74l-.55.55c-.3.3-.52.65-.64,1.02l-.08.24c-.2.61-.1,1.19.27,1.55l.37.37c.24.24.57.37.95.37.55-.02,1.11-.25,1.58-.69l.41-.39c.46-.44.75-1,.79-1.54.02-.28.17-.57.41-.81.4-.4.9-.62,1.32-.62Zm8.81,6.29l-7.96-6.4c-.61-.49-1.71-.29-2.45.45-.3.3-.49.68-.52,1.05-.04.44-.29.92-.67,1.29l-.41.39c-.64.61-1.56.75-1.98.33l-.37-.38c-.26-.26-.32-.69-.17-1.15l.08-.24c.1-.31.3-.62.55-.87l.55-.55c.42-.42.94-.66,1.42-.62.5.01,1.04-.2,1.47-.63.42-.42.5-1.01.18-1.34l-1.81-1.88c-.79-.82-2.23-.8-3.5.05-.53.36-.93.89-1.09,1.46-.15.51-.45,1.02-.86,1.44l-.51.53c-.69.72-1.65,1.14-2.44,1.06l-.28-.03c-.37-.04-.7-.18-.93-.42l-.26-.26c-.46-.46-.55-1.24-.25-2.04l.31-.83c.12-.32.3-.63.52-.92l.23-.3c.76-.97,1.9-1.51,2.85-1.34.05,0,.1,0,.14-.03.82-.53,1.4-1.39,1.51-2.25.08-.56-.06-1.07-.38-1.44l-4.26-4.8,1.5-1.5,21,20.98-1.19,1.19Zm-8.81-7.43c.5,0,.95.15,1.31.45l7.44,5.98.18-.18L34.25,7.17l-.47.47,3.79,4.28c.47.53.67,1.25.56,2.04-.14,1.07-.85,2.13-1.85,2.78-.2.13-.44.18-.68.14-.66-.12-1.55.33-2.12,1.06l-.23.3c-.18.23-.32.48-.41.73l-.31.83c-.19.51-.16,1,.08,1.24l.26.26c.11.11.28.18.48.2l.28.03c.55.05,1.29-.28,1.83-.83l.51-.53c.32-.34.56-.74.68-1.13.21-.74.72-1.42,1.4-1.87,1.57-1.06,3.41-1.04,4.46.05l1.81,1.88c.47.49.52,1.24.19,1.88.25-.07.5-.11.75-.11Zm-3.21,1.47c-.25,0-.57.16-.82.41l-.55.55c-.17.17-.3.37-.36.57l-.08.24c-.07.23-.04.36,0,.39l.37.38s.07.03.14.03c.24,0,.54-.14.79-.38l.41-.39c.25-.24.42-.54.44-.8.03-.36.16-.73.37-1.06-.23.05-.46.08-.68.06,0,0-.02,0-.03,0Z"/>
  </g>
</svg>