<?xml version="1.0" encoding="UTF-8"?>
<svg id="Layer_1" data-name="Layer 1" xmlns="http://www.w3.org/2000/svg" viewBox="0 0 60 60">
  <defs>
    <style>
      .cls-1 {
        fill: #37464c;
        stroke-width: 0px;
      }
    </style>
  </defs>
  <g>
    <g>
      <path class="cls-1" d="m15.64,48.3c-.16,0-.31-.06-.42-.17l-5.38-5.38c-.23-.23-.23-.61,0-.84l29.06-29.07c.22-.22.62-.22.84,0l5.38,5.38c.23.23.23.61,0,.84l-29.06,29.07c-.11.11-.26.17-.42.17Zm-4.54-5.98l4.54,4.54,28.22-28.23-4.54-4.54-28.22,28.23Z"/>
      <path class="cls-1" d="m15.64,48.67c-.26,0-.51-.1-.69-.29l-5.38-5.38c-.38-.38-.38-1,0-1.38l29.06-29.07c.37-.37,1-.37,1.37,0l5.38,5.38c.38.38.38.99,0,1.37l-29.06,29.07c-.18.18-.43.29-.69.29ZM39.32,13.03c-.06,0-.12.02-.16.06l-29.06,29.07c-.09.09-.09.23,0,.31l5.38,5.38c.08.09.23.08.31,0l29.06-29.07c.09-.09.09-.23,0-.31l-5.38-5.38s-.1-.06-.16-.06ZM15.64,47.38l-5.07-5.07,28.75-28.76,5.07,5.07-28.75,28.76Zm-4.01-5.07l4.01,4.01,27.69-27.7-4.01-4.01-27.69,27.7Z"/>
    </g>
    <g>
      <path class="cls-1" d="m46.86,17.07c-.15,0-.31-.06-.42-.17l-5.38-5.38c-.23-.23-.23-.61,0-.84s.61-.23.84,0l5.38,5.38c.23.23.23.61,0,.84-.12.12-.27.17-.42.17Z"/>
      <path class="cls-1" d="m46.86,17.45c-.26,0-.5-.1-.69-.28l-5.38-5.38c-.38-.38-.38-1,0-1.38.38-.38.99-.38,1.37,0l5.38,5.38c.38.38.38,1,0,1.37-.18.18-.43.28-.69.28Zm-5.38-6.58c-.06,0-.11.02-.16.06-.09.09-.09.23,0,.32l5.38,5.38c.08.08.23.08.31,0,.09-.09.09-.23,0-.31l-5.38-5.38s-.1-.06-.16-.06Z"/>
    </g>
    <g>
      <path class="cls-1" d="m49.01,14.92c-.16,0-.31-.06-.42-.17l-5.38-5.38c-.23-.23-.23-.61,0-.84l3.59-3.59c.11-.11.26-.17.42-.17h0c.16,0,.31.06.42.17l5.38,5.38c.23.23.23.61,0,.84l-3.59,3.59c-.11.11-.26.17-.42.17Zm-4.54-5.98l4.54,4.54,2.74-2.74-4.54-4.54-2.74,2.74Z"/>
      <path class="cls-1" d="m49.01,15.29c-.26,0-.5-.1-.69-.28l-5.38-5.38c-.18-.18-.28-.43-.29-.69,0-.26.1-.5.29-.69l3.59-3.59c.37-.37,1.01-.37,1.38,0l5.38,5.38c.38.38.38.99,0,1.37l-3.59,3.59c-.18.18-.43.29-.69.29Zm-1.79-10.17c-.06,0-.12.02-.16.07l-3.59,3.59s-.07.1-.07.16c0,.06.02.11.06.16l5.38,5.38c.08.08.23.08.31,0l3.59-3.59c.09-.09.09-.23,0-.31l-5.38-5.38s-.1-.06-.16-.06Zm1.79,8.88l-5.07-5.07,3.27-3.27,5.07,5.07-3.27,3.27Zm-4.01-5.07l4.01,4.01,2.21-2.21-4.01-4.01-2.21,2.21Z"/>
    </g>
    <g>
      <path class="cls-1" d="m3.78,54.78c-.16,0-.31-.06-.42-.17-.18-.18-.22-.44-.12-.67l4.37-9.76c.08-.18.24-.31.44-.34.19-.04.39.03.53.16l5.38,5.38c.14.14.2.34.16.53-.04.19-.16.36-.34.44l-9.76,4.37c-.08.04-.16.05-.24.05Zm4.56-9.32l-3.38,7.54,7.54-3.38-4.16-4.16Z"/>
      <path class="cls-1" d="m3.78,55.15c-.26,0-.5-.1-.69-.28-.29-.29-.37-.71-.2-1.08l4.37-9.76c.13-.29.4-.5.71-.56.31-.06.64.04.86.27l5.38,5.38c.23.23.33.55.27.86-.06.32-.27.58-.56.71l-9.75,4.37c-.13.06-.26.09-.4.09Zm4.37-10.95s-.03,0-.04,0c-.07.01-.13.06-.16.13l-4.37,9.76c-.04.08-.02.18.05.25.06.06.16.08.25.04l9.75-4.37c.07-.03.11-.09.13-.16.01-.07-.01-.15-.06-.2l-5.38-5.38s-.1-.07-.16-.07Zm-3.93,9.54l4-8.93,4.93,4.93-8.93,4Zm4.24-7.63l-2.75,6.14,6.14-2.75-3.39-3.39Z"/>
    </g>
    <g>
      <path class="cls-1" d="m6.33,53.63c-.15,0-.29-.05-.41-.16l-1.44-1.34c-.24-.22-.26-.6-.03-.84.22-.24.6-.26.84-.03l1.44,1.34c.24.22.26.6.03.84-.12.13-.28.19-.44.19Z"/>
      <path class="cls-1" d="m6.33,54.01c-.25,0-.48-.09-.66-.26l-1.44-1.34c-.19-.18-.3-.42-.31-.68s.08-.51.26-.7c.18-.19.42-.3.68-.31.26-.02.51.08.7.26l1.44,1.34c.39.37.41.98.05,1.37-.18.2-.44.31-.71.31Zm-1.44-2.53h0c-.06,0-.11.03-.15.07-.04.04-.06.1-.06.16,0,.06.03.11.07.16l1.44,1.34c.07.06.17.15.31-.01.08-.09.08-.23-.01-.31l-1.44-1.34s-.1-.06-.15-.06Z"/>
    </g>
  </g>
  <g>
    <path class="cls-1" d="m55.46,54.78H16.94c-.33,0-.6-.27-.6-.6s.27-.6.6-.6h38.51c.33,0,.6.27.6.6s-.27.6-.6.6Z"/>
    <path class="cls-1" d="m55.46,55.15H16.94c-.54,0-.97-.44-.97-.97s.44-.97.97-.97h38.51c.54,0,.97.44.97.97s-.44.97-.97.97Zm-38.51-1.19c-.12,0-.22.1-.22.22s.1.22.22.22h38.51c.12,0,.22-.1.22-.22s-.1-.22-.22-.22H16.94Z"/>
  </g>
</svg>