<?xml version="1.0" encoding="UTF-8"?>
<svg id="Layer_1" data-name="Layer 1" xmlns="http://www.w3.org/2000/svg" viewBox="0 0 60 60">
  <defs>
    <style>
      .cls-1 {
        fill: #37464c;
        stroke-width: 0px;
      }
    </style>
  </defs>
  <path class="cls-1" d="m17,40.16v-2c1.65,0,3-1.35,3-3v-10c0-1.09-.69-2.05-1.72-2.39l-1.97-.5-3.6,3.6c-.39.39-1.02.39-1.41,0l-3.6-3.6-2.04.52c-.96.32-1.66,1.28-1.66,2.37v10c0,1.65,1.35,3,3,3v2c-2.76,0-5-2.24-5-5v-10c0-1.95,1.24-3.68,3.09-4.29l2.66-.68c.34-.09.7.01.95.26l3.29,3.29,3.29-3.29c.25-.25.61-.35.95-.26l2.59.66c1.92.63,3.16,2.35,3.16,4.31v10c0,2.76-2.24,5-5,5Z"/>
  <path class="cls-1" d="m12,20.16c-2.76,0-5-2.24-5-5s2.24-5,5-5,5,2.24,5,5-2.24,5-5,5Zm0-8c-1.65,0-3,1.35-3,3s1.35,3,3,3,3-1.35,3-3-1.35-3-3-3Z"/>
  <path class="cls-1" d="m16,54.16h-8c-1.1,0-2-.9-2-2v-25c0-.55.45-1,1-1s1,.45,1,1v25h8v-25c0-.55.45-1,1-1s1,.45,1,1v25c0,1.1-.9,2-2,2Z"/>
  <path class="cls-1" d="m12,54.16c-.55,0-1-.45-1-1v-16c0-.55.45-1,1-1s1,.45,1,1v16c0,.55-.45,1-1,1Z"/>
  <path class="cls-1" d="m53,40.16v-2c1.65,0,3-1.35,3-3v-10c0-1.09-.69-2.05-1.72-2.39l-1.97-.5-3.6,3.6c-.39.39-1.02.39-1.41,0l-3.6-3.6-2.04.52c-.96.32-1.66,1.28-1.66,2.37v10c0,1.65,1.35,3,3,3v2c-2.76,0-5-2.24-5-5v-10c0-1.95,1.24-3.68,3.09-4.29l2.66-.68c.34-.09.7.01.95.26l3.29,3.29,3.29-3.29c.25-.25.61-.35.95-.26l2.59.66c1.92.63,3.16,2.35,3.16,4.31v10c0,2.76-2.24,5-5,5Z"/>
  <path class="cls-1" d="m48,20.16c-2.76,0-5-2.24-5-5s2.24-5,5-5,5,2.24,5,5-2.24,5-5,5Zm0-8c-1.65,0-3,1.35-3,3s1.35,3,3,3,3-1.35,3-3-1.35-3-3-3Z"/>
  <path class="cls-1" d="m52,54.16h-8c-1.1,0-2-.9-2-2v-25c0-.55.45-1,1-1s1,.45,1,1v25h8v-25c0-.55.45-1,1-1s1,.45,1,1v25c0,1.1-.9,2-2,2Z"/>
  <path class="cls-1" d="m48,54.16c-.55,0-1-.45-1-1v-16c0-.55.45-1,1-1s1,.45,1,1v16c0,.55-.45,1-1,1Z"/>
  <path class="cls-1" d="m35,16.16c-.37,0-.72-.2-.9-.55-.25-.49-.05-1.09.45-1.34l3.11-1.55-1.55-3.11c-.25-.49-.05-1.09.45-1.34.49-.25,1.09-.05,1.34.45l2,4c.25.49.05,1.09-.45,1.34l-4,2c-.14.07-.3.11-.45.11Z"/>
  <path class="cls-1" d="m23,56.16c-.37,0-.72-.2-.9-.55l-2-4c-.25-.49-.05-1.09.45-1.34l4-2c.5-.25,1.1-.05,1.34.45.25.49.05,1.09-.45,1.34l-3.11,1.55,1.55,3.11c.25.49.05,1.09-.45,1.34-.14.07-.3.11-.45.11Z"/>
  <path class="cls-1" d="m21,14.21c-.37,0-.73-.21-.9-.57-.24-.5-.03-1.1.47-1.33,2.99-1.42,6.16-2.15,9.43-2.15s6.5.71,9.43,2.1c.5.24.71.83.47,1.33-.24.5-.83.71-1.33.47-2.65-1.26-5.54-1.9-8.57-1.9s-5.85.66-8.57,1.95c-.14.07-.29.1-.43.1Z"/>
  <path class="cls-1" d="m30,54.16c-3.33,0-6.5-.71-9.43-2.1-.5-.24-.71-.83-.47-1.33.24-.5.83-.71,1.33-.47,2.65,1.26,5.54,1.9,8.57,1.9s5.85-.66,8.57-1.95c.5-.24,1.09-.03,1.33.47.24.5.03,1.1-.47,1.33-2.99,1.42-6.16,2.15-9.43,2.15Z"/>
</svg>