<?xml version="1.0" encoding="UTF-8"?>
<svg id="Layer_1" data-name="Layer 1" xmlns="http://www.w3.org/2000/svg" viewBox="0 0 60 60">
  <defs>
    <style>
      .cls-1 {
        fill: #37464c;
        stroke-width: 0px;
      }
    </style>
  </defs>
  <path class="cls-1" d="m21,39v-2c1.65,0,3-1.35,3-3v-12.77c0-1.08-.69-2.04-1.73-2.39-.42-.14-1.38-.47-2.01-.69l-4.56,4.56c-.39.39-1.02.39-1.41,0l-4.56-4.56c-.63.22-1.59.55-2.01.69-1.03.35-1.73,1.31-1.73,2.39v12.77c0,1.65,1.35,3,3,3v2c-2.76,0-5-2.24-5-5v-12.77c0-1.94,1.24-3.66,3.09-4.29.65-.22,2.58-.89,2.58-.89.36-.13.76-.03,1.03.24l4.29,4.29,4.29-4.29c.27-.27.67-.36,1.03-.24,0,0,1.94.67,2.58.89,1.85.62,3.09,2.35,3.09,4.29v12.77c0,2.76-2.24,5-5,5Z"/>
  <path class="cls-1" d="m15,16c-3.31,0-6-2.69-6-6s2.69-6,6-6,6,2.69,6,6-2.69,6-6,6Zm0-10c-2.21,0-4,1.79-4,4s1.79,4,4,4,4-1.79,4-4-1.79-4-4-4Z"/>
  <path class="cls-1" d="m20,56h-10c-1.1,0-2-.9-2-2v-29c0-.55.45-1,1-1s1,.45,1,1v29h10v-29c0-.55.45-1,1-1s1,.45,1,1v29c0,1.1-.9,2-2,2Z"/>
  <path class="cls-1" d="m15,56c-.55,0-1-.45-1-1v-18c0-.55.45-1,1-1s1,.45,1,1v18c0,.55-.45,1-1,1Z"/>
  <path class="cls-1" d="m36,56c-6.21,0-11.96-2.83-15.79-7.75l1.58-1.23c3.45,4.44,8.62,6.98,14.21,6.98,9.93,0,18-8.07,18-18s-8.07-18-18-18c-3.78,0-7.41,1.17-10.48,3.39l-1.17-1.62c3.42-2.46,7.45-3.77,11.65-3.77,11.03,0,20,8.97,20,20s-8.97,20-20,20Z"/>
  <path class="cls-1" d="m37,43h-2c-2.21,0-4-1.79-4-4,0-.55.45-1,1-1s1,.45,1,1c0,1.1.9,2,2,2h2c1.1,0,2-.9,2-2s-.9-2-2-2h-2c-2.21,0-4-1.79-4-4s1.79-4,4-4h2c2.21,0,4,1.79,4,4,0,.55-.45,1-1,1s-1-.45-1-1c0-1.1-.9-2-2-2h-2c-1.1,0-2,.9-2,2s.9,2,2,2h2c2.21,0,4,1.79,4,4s-1.79,4-4,4Z"/>
  <path class="cls-1" d="m36,31c-.55,0-1-.45-1-1v-3c0-.55.45-1,1-1s1,.45,1,1v3c0,.55-.45,1-1,1Z"/>
  <path class="cls-1" d="m36,46c-.55,0-1-.45-1-1v-3c0-.55.45-1,1-1s1,.45,1,1v3c0,.55-.45,1-1,1Z"/>
</svg>