<?xml version="1.0" encoding="UTF-8"?>
<svg id="Layer_1" data-name="Layer 1" xmlns="http://www.w3.org/2000/svg" viewBox="0 0 60 60">
  <defs>
    <style>
      .cls-1 {
        fill: #37464c;
        stroke-width: 0px;
      }
    </style>
  </defs>
  <path class="cls-1" d="m30,13.78c-3.08,0-5.59-2.51-5.59-5.59s2.51-5.59,5.59-5.59,5.59,2.51,5.59,5.59-2.51,5.59-5.59,5.59Zm0-9.18c-1.98,0-3.59,1.61-3.59,3.59s1.61,3.59,3.59,3.59,3.59-1.61,3.59-3.59-1.61-3.59-3.59-3.59Z"/>
  <path class="cls-1" d="m34.59,57.4h-9.18c-1.18,0-2.15-.96-2.15-2.15V23.11c0-.55.45-1,1-1s1,.45,1,1v32.14c0,.08.07.15.15.15h9.18c.08,0,.15-.07.15-.15V23.11c0-.55.45-1,1-1s1,.45,1,1v32.14c0,1.18-.96,2.15-2.15,2.15Z"/>
  <path class="cls-1" d="m30,57.4c-.55,0-1-.45-1-1v-18.37c0-.55.45-1,1-1s1,.45,1,1v18.37c0,.55-.45,1-1,1Z"/>
  <path class="cls-1" d="m35.74,39.03c-.55,0-1-.45-1-1s.45-1,1-1c1.98,0,3.59-1.61,3.59-3.59v-11.48c0-2.61-2.13-4.74-4.74-4.74h-9.18c-2.61,0-4.74,2.13-4.74,4.74v11.48c0,1.98,1.61,3.59,3.59,3.59.55,0,1,.45,1,1s-.45,1-1,1c-3.08,0-5.59-2.51-5.59-5.59v-11.48c0-3.72,3.02-6.74,6.74-6.74h9.18c3.72,0,6.74,3.02,6.74,6.74v11.48c0,3.08-2.51,5.59-5.59,5.59Z"/>
</svg>