<?xml version="1.0" encoding="UTF-8"?>
<svg id="Layer_1" data-name="Layer 1" xmlns="http://www.w3.org/2000/svg" viewBox="0 0 60 60">
  <defs>
    <style>
      .cls-1 {
        fill: #37464c;
        stroke-width: 0px;
      }
    </style>
  </defs>
  <path class="cls-1" d="m49,36h-8c-1.1,0-2-.9-2-2v-8c0-1.1.9-2,2-2h6c.55,0,1,.45,1,1s-.45,1-1,1h-6v8h8v-2c0-.55.45-1,1-1s1,.45,1,1v2c0,1.1-.9,2-2,2Z"/>
  <path class="cls-1" d="m46,32h0c-.27,0-.52-.11-.71-.29l-2-2c-.39-.39-.39-1.02,0-1.41.39-.39,1.02-.39,1.41,0l1.29,1.29,5.29-5.29c.39-.39,1.02-.39,1.41,0,.39.39.39,1.02,0,1.41l-6,6c-.19.19-.44.29-.71.29Z"/>
  <path class="cls-1" d="m49,50h-8c-1.1,0-2-.9-2-2v-8c0-1.1.9-2,2-2h6c.55,0,1,.45,1,1s-.45,1-1,1h-6v8h8v-2c0-.55.45-1,1-1s1,.45,1,1v2c0,1.1-.9,2-2,2Z"/>
  <path class="cls-1" d="m46,46h0c-.27,0-.52-.11-.71-.29l-2-2c-.39-.39-.39-1.02,0-1.41.39-.39,1.02-.39,1.41,0l1.29,1.29,5.29-5.29c.39-.39,1.02-.39,1.41,0,.39.39.39,1.02,0,1.41l-6,6c-.19.19-.44.29-.71.29Z"/>
  <path class="cls-1" d="m49,22h-8c-1.1,0-2-.9-2-2v-8c0-1.1.9-2,2-2h6c.55,0,1,.45,1,1s-.45,1-1,1h-6v8h8v-2c0-.55.45-1,1-1s1,.45,1,1v2c0,1.1-.9,2-2,2Z"/>
  <path class="cls-1" d="m46,18h0c-.27,0-.52-.11-.71-.29l-2-2c-.39-.39-.39-1.02,0-1.41.39-.39,1.02-.39,1.41,0l1.29,1.29,5.29-5.29c.39-.39,1.02-.39,1.41,0,.39.39.39,1.02,0,1.41l-6,6c-.19.19-.44.29-.71.29Z"/>
  <path class="cls-1" d="m30,40v-2c1.65,0,3-1.35,3-3v-13.77c0-1.09-.69-2.05-1.72-2.39l-2.01-.69-4.56,4.56c-.39.39-1.02.39-1.41,0l-4.56-4.56-2,.69c-1.04.34-1.73,1.3-1.73,2.39v13.77c0,1.65,1.35,3,3,3v2c-2.76,0-5-2.24-5-5v-13.77c0-1.95,1.24-3.68,3.09-4.29l2.58-.89c.36-.12.76-.03,1.03.24l4.29,4.29,4.29-4.29c.27-.27.67-.36,1.03-.24l2.59.89c1.84.61,3.08,2.33,3.08,4.28v13.77c0,2.76-2.24,5-5,5Z"/>
  <path class="cls-1" d="m24,16c-3.31,0-6-2.69-6-6s2.69-6,6-6,6,2.69,6,6-2.69,6-6,6Zm0-10c-2.21,0-4,1.79-4,4s1.79,4,4,4,4-1.79,4-4-1.79-4-4-4Z"/>
  <path class="cls-1" d="m29,56h-10c-1.1,0-2-.9-2-2v-29c0-.55.45-1,1-1s1,.45,1,1v29h10v-29c0-.55.45-1,1-1s1,.45,1,1v29c0,1.1-.9,2-2,2Z"/>
  <path class="cls-1" d="m24,56c-.55,0-1-.45-1-1v-18c0-.55.45-1,1-1s1,.45,1,1v18c0,.55-.45,1-1,1Z"/>
</svg>