<?xml version="1.0" encoding="UTF-8"?>
<svg id="Layer_1" data-name="Layer 1" xmlns="http://www.w3.org/2000/svg" viewBox="0 0 60 60">
  <defs>
    <style>
      .cls-1 {
        fill: #37464c;
        stroke-width: 0px;
      }
    </style>
  </defs>
  <path class="cls-1" d="m31,55h-8c-.55,0-1-.45-1-1v-28c0-.55.45-1,1-1h8c.55,0,1,.45,1,1v28c0,.55-.45,1-1,1Zm-7-2h6v-26h-6v26Z"/>
  <path class="cls-1" d="m23,55h-8c-.55,0-1-.45-1-1v-18c0-.55.45-1,1-1h8c.55,0,1,.45,1,1v18c0,.55-.45,1-1,1Zm-7-2h6v-16h-6v16Z"/>
  <path class="cls-1" d="m15,55H7c-.55,0-1-.45-1-1v-8c0-.55.45-1,1-1h8c.55,0,1,.45,1,1v8c0,.55-.45,1-1,1Zm-7-2h6v-6h-6v6Z"/>
  <path class="cls-1" d="m33,17c-.55,0-1-.45-1-1v-7h-7c-.55,0-1-.45-1-1s.45-1,1-1h8c.55,0,1,.45,1,1v8c0,.55-.45,1-1,1Z"/>
  <path class="cls-1" d="m5,37c-.26,0-.51-.1-.71-.29-.39-.39-.39-1.02,0-1.41L32.29,7.29c.39-.39,1.02-.39,1.41,0s.39,1.02,0,1.41L5.71,36.71c-.2.2-.45.29-.71.29Z"/>
  <path class="cls-1" d="m51,38v-2c1.65,0,3-1.35,3-3v-12.77c0-1.08-.69-2.04-1.73-2.39-.42-.14-1.38-.47-2.01-.69l-4.56,4.56c-.39.39-1.02.39-1.41,0l-4.56-4.56c-.63.22-1.59.55-2.01.69-1.03.35-1.73,1.31-1.73,2.39v12.77c0,1.65,1.35,3,3,3v2c-2.76,0-5-2.24-5-5v-12.77c0-1.94,1.24-3.66,3.09-4.29.65-.22,2.58-.89,2.58-.89.36-.12.76-.03,1.03.24l4.29,4.29,4.29-4.29c.27-.27.67-.36,1.03-.24,0,0,1.94.67,2.58.89,1.85.62,3.09,2.35,3.09,4.29v12.77c0,2.76-2.24,5-5,5Z"/>
  <path class="cls-1" d="m45,15c-3.31,0-6-2.69-6-6s2.69-6,6-6,6,2.69,6,6-2.69,6-6,6Zm0-10c-2.21,0-4,1.79-4,4s1.79,4,4,4,4-1.79,4-4-1.79-4-4-4Z"/>
  <path class="cls-1" d="m50,55h-10c-1.1,0-2-.9-2-2v-29c0-.55.45-1,1-1s1,.45,1,1v29h10v-29c0-.55.45-1,1-1s1,.45,1,1v29c0,1.1-.9,2-2,2Z"/>
  <path class="cls-1" d="m45,55c-.55,0-1-.45-1-1v-18c0-.55.45-1,1-1s1,.45,1,1v18c0,.55-.45,1-1,1Z"/>
</svg>