<?xml version="1.0" encoding="UTF-8"?>
<svg id="Layer_1" data-name="Layer 1" xmlns="http://www.w3.org/2000/svg" viewBox="0 0 60 60">
  <defs>
    <style>
      .cls-1 {
        fill: #37464c;
        stroke-width: 0px;
      }
    </style>
  </defs>
  <path class="cls-1" d="m30.04,43v-2c1.65,0,3-1.35,3-3v-11c0-1.09-.69-2.05-1.72-2.39l-1.97-.5-3.6,3.6c-.39.39-1.02.39-1.41,0l-3.6-3.6-2.04.52c-.96.32-1.66,1.28-1.66,2.37v11c0,1.65,1.35,3,3,3v2c-2.76,0-5-2.24-5-5v-11c0-1.95,1.24-3.68,3.09-4.29l2.66-.68c.34-.09.7.01.95.26l3.29,3.29,3.29-3.29c.25-.25.61-.35.95-.26l2.59.66c1.92.63,3.16,2.35,3.16,4.31v11c0,2.76-2.24,5-5,5Z"/>
  <path class="cls-1" d="m25.04,22c-2.76,0-5-2.24-5-5s2.24-5,5-5,5,2.24,5,5-2.24,5-5,5Zm0-8c-1.65,0-3,1.35-3,3s1.35,3,3,3,3-1.35,3-3-1.35-3-3-3Z"/>
  <path class="cls-1" d="m29.04,58h-8c-1.1,0-2-.9-2-2v-27c0-.55.45-1,1-1s1,.45,1,1v27h8v-27c0-.55.45-1,1-1s1,.45,1,1v27c0,1.1-.9,2-2,2Z"/>
  <path class="cls-1" d="m25.04,58c-.55,0-1-.45-1-1v-16c0-.55.45-1,1-1s1,.45,1,1v16c0,.55-.45,1-1,1Z"/>
  <path class="cls-1" d="m40.04,36c-.13,0-.26-.02-.38-.08-.37-.15-.62-.52-.62-.92v-5h-1c-.55,0-1-.45-1-1s.45-1,1-1h2c.55,0,1,.45,1,1v3.59l4.29-4.29c.19-.19.44-.29.71-.29h5c1.1,0,2-.9,2-2V10c0-1.1-.9-2-2-2H15.04c-1.1,0-2,.9-2,2v16c0,1.1.9,2,2,2h1c.55,0,1,.45,1,1s-.45,1-1,1h-1c-2.21,0-4-1.79-4-4V10c0-2.21,1.79-4,4-4h36c2.21,0,4,1.79,4,4v16c0,2.21-1.79,4-4,4h-4.59l-5.71,5.71c-.19.19-.45.29-.71.29Z"/>
  <path class="cls-1" d="m43.04,20c-1.1,0-2-.9-2-2s.9-2,2-2,2,.9,2,2-.9,2-2,2Zm0-2h0s0,0,0,0Z"/>
  <path class="cls-1" d="m35.04,20c-1.1,0-2-.9-2-2s.9-2,2-2,2,.9,2,2-.9,2-2,2Zm0-2h0s0,0,0,0Z"/>
</svg>