<?xml version="1.0" encoding="UTF-8"?>
<svg id="Layer_1" data-name="Layer 1" xmlns="http://www.w3.org/2000/svg" viewBox="0 0 60 60">
  <defs>
    <style>
      .cls-1 {
        fill: #37464c;
        stroke-width: 0px;
      }
    </style>
  </defs>
  <g>
    <g>
      <g>
        <g>
          <path class="cls-1" d="m24.2,30.03c-4.93,0-8.58-4.7-9.29-11.96-.45-4.62.31-8.06,2.25-10.2,1.58-1.75,3.95-2.63,7.03-2.63s5.54.9,7.13,2.68c1.94,2.16,2.66,5.58,2.16,10.16h0c-.81,7.38-4.37,11.96-9.29,11.96Zm0-23.75c-2.77,0-4.88.77-6.26,2.29-1.74,1.92-2.41,5.08-1.99,9.39.65,6.69,3.89,11.02,8.24,11.02s7.49-4.22,8.24-11.02h0c.47-4.27-.17-7.41-1.9-9.34-1.39-1.55-3.52-2.33-6.35-2.33Z"/>
          <path class="cls-1" d="m24.2,30.58c-5.24,0-9.1-4.89-9.83-12.46-.46-4.79.34-8.36,2.4-10.62,1.69-1.87,4.2-2.81,7.44-2.81s5.84.96,7.54,2.86c2.04,2.28,2.82,5.84,2.29,10.59-.85,7.68-4.62,12.45-9.83,12.45Zm0-23.75c-2.61,0-4.58.71-5.85,2.11-1.63,1.8-2.25,4.82-1.85,8.97.62,6.39,3.64,10.52,7.69,10.52s6.98-4.04,7.7-10.53c.45-4.11-.14-7.11-1.76-8.92-1.28-1.43-3.28-2.15-5.94-2.15Z"/>
        </g>
        <path class="cls-1" d="m24.3,13.93c-2.29,0-4.96-.57-4.96-2.18,0-.47.38-.85.85-.85.42,0,.76.3.83.69.29.24,1.46.64,3.28.64.47,0,.85.38.85.85s-.38.85-.85.85Zm-3.27-2.18h0s0,0,0,0Z"/>
        <path class="cls-1" d="m24.3,13.93c-.47,0-.85-.38-.85-.85s.38-.85.85-.85c2.07,0,3.19-.68,3.27-.94,0-.47.38-.84.85-.84s.85.39.85.86c0,1.72-2.5,2.63-4.97,2.63Z"/>
        <path class="cls-1" d="m15.92,14.7c-.47,0-.85-.38-.85-.85s.38-.85.85-.85c2.12,0,3.42-.81,3.42-1.25,0-.47.38-.85.85-.85s.85.38.85.85c0,1.68-2.2,2.95-5.12,2.95Z"/>
        <path class="cls-1" d="m32.71,14.36c-2.93,0-5.14-1.32-5.14-3.06,0-.47.38-.85.85-.85s.85.38.85.85c0,.54,1.37,1.36,3.44,1.36.47,0,.85.38.85.85s-.38.85-.85.85Z"/>
      </g>
      <g>
        <path class="cls-1" d="m24.23,33.79c-2.31,0-4.42-1.81-5.14-4.4l.99-.42c.58,2.08,2.28,3.53,4.15,3.53s3.55-1.55,4.11-3.77l1,.39c-.7,2.75-2.8,4.67-5.11,4.67Z"/>
        <path class="cls-1" d="m24.23,34.16c-2.47,0-4.74-1.92-5.5-4.67l-.09-.32,1.69-.71.11.41c.53,1.92,2.09,3.25,3.79,3.25s3.23-1.43,3.75-3.48l.1-.41,1.7.66-.08.32c-.74,2.92-2.99,4.96-5.48,4.96Zm-4.68-4.56c.75,2.26,2.64,3.81,4.68,3.81s3.93-1.66,4.66-4.07l-.3-.12c-.7,2.17-2.45,3.64-4.36,3.64s-3.66-1.38-4.38-3.4l-.3.13Z"/>
      </g>
      <g>
        <path class="cls-1" d="m1.96,51.03l-.12-10.93c.3-2.52,1.91-4.6,4.2-5.5l9.63-4.16,2.78-2.46.69.79-2.98,2.6-9.72,4.2c-1.95.77-3.31,2.53-3.56,4.59l.12,10.86h-1.05Z"/>
        <path class="cls-1" d="m1.42,51.59l-.12-11.48c.32-2.76,2.07-5.04,4.55-6.02l9.53-4.12,3.13-2.76,1.43,1.61-3.54,3.05-9.72,4.21c-1.77.7-3,2.29-3.23,4.15l.13,11.34-2.15.02Z"/>
      </g>
      <g>
        <g>
          <path class="cls-1" d="m33.46,31.05l-.59-.23-2.61-2.57-.74.75,2.69,2.64,1.38.55c-.12-.36-.16-.75-.12-1.14Z"/>
          <path class="cls-1" d="m34.49,33.14l-2.67-1.11-3.08-3.03,1.51-1.53,2.92,2.88.87.34-.04.41c-.03.32,0,.64.1.91l.39,1.13Z"/>
        </g>
        <g>
          <path class="cls-1" d="m46.06,41.04c-.16,0-.3-.02-.44-.04l.15,8.76,1.05-.02-.15-8.77c-.19.05-.39.08-.61.08Z"/>
          <path class="cls-1" d="m45.24,50.31l-.17-9.96.65.1c.25.04.52.05.83-.02l.67-.16.18,10.01-2.15.04Z"/>
        </g>
      </g>
    </g>
    <g>
      <path class="cls-1" d="m24.13,55.28h0c-.44,0-.81-.23-.91-.56l-6.3-20.78v-3.43h1.28v3.37l5.94,19.56,6.25-19.72-.17-3.39,1.27-.04.18,3.53-6.63,20.9c-.1.33-.48.56-.91.56Z"/>
      <path class="cls-1" d="m24.13,55.66h0c-.6,0-1.12-.34-1.27-.83l-6.31-20.89v-3.81h2.03v3.69l5.58,18.35,5.87-18.5-.19-3.71,2.02-.06.2,3.97-6.65,20.97c-.15.48-.68.82-1.27.82Zm-6.84-21.78l6.28,20.73c.05.17.29.3.55.3v.38s0-.38,0-.38c.26,0,.5-.13.56-.3l6.61-20.84-.16-3.1-.52.02.15,3.08-6.64,20.94-6.31-20.83v-3h-.53v3Z"/>
    </g>
    <path class="cls-1" d="m15.34,45.62h-1.7c0-1.87.97-3.27,2.26-3.27v1.7c-.13.03-.56.57-.56,1.57Z"/>
    <path class="cls-1" d="m15.9,44.05c-2.05,0-3.66-1.19-3.66-2.72,0-.47.38-.85.85-.85s.85.38.85.85.86,1.02,1.96,1.02c.47,0,.85.38.85.85s-.38.85-.85.85Z"/>
    <rect class="cls-1" x="11.4" y="31.82" width="1.7" height="9.59" transform="translate(-6.16 2.68) rotate(-9.97)"/>
    <path class="cls-1" d="m19.41,55.92c-.29,0-.57-.15-.73-.41l-4.14-6.92c-.24-.4-.11-.92.29-1.17.4-.24.92-.11,1.17.29l4.14,6.92c.24.4.11.92-.29,1.17-.14.08-.29.12-.44.12Z"/>
    <path class="cls-1" d="m14.54,48.6c-.6-.94-.9-1.95-.9-2.99h1.7c0,.71.21,1.41.64,2.08l-1.44.91Z"/>
    <path class="cls-1" d="m34.59,45.83h-1.7c0-1.01-.43-1.55-.56-1.57v-1.7c1.29,0,2.26,1.41,2.26,3.27Z"/>
    <path class="cls-1" d="m32.33,44.25c-.47,0-.85-.38-.85-.85s.38-.85.85-.85c1.11,0,1.96-.55,1.96-1.02s.38-.85.85-.85.85.38.85.85c0,1.52-1.61,2.72-3.66,2.72Z"/>
    <rect class="cls-1" x="33.16" y="38.32" width="4.79" height="1.7" transform="translate(-9.19 67.4) rotate(-80.01)"/>
    <path class="cls-1" d="m28.82,56.13c-.15,0-.3-.04-.44-.12-.4-.24-.53-.76-.29-1.17l4.14-6.92c.24-.4.76-.53,1.17-.29s.53.76.29,1.17l-4.14,6.92c-.16.27-.44.41-.73.41Z"/>
    <path class="cls-1" d="m33.69,48.81l-1.44-.91c.42-.67.64-1.36.64-2.07h1.7c0,1.04-.3,2.04-.9,2.99Z"/>
    <path class="cls-1" d="m24.06,39.34c-.15,0-.31-.01-.46-.03-1.67-.25-2.83-1.82-2.58-3.49.25-1.67,1.82-2.82,3.49-2.58.81.12,1.53.55,2.01,1.21.49.66.69,1.47.57,2.28s-.55,1.53-1.21,2.01c-.53.39-1.17.6-1.82.6Zm0-4.44c-.67,0-1.25.49-1.35,1.17-.11.75.4,1.45,1.15,1.56.75.12,1.45-.4,1.56-1.15.05-.36-.04-.72-.25-1.02-.22-.29-.54-.49-.9-.54-.07-.01-.14-.02-.2-.02Z"/>
    <rect class="cls-1" x="18.19" y="41.19" width="7.82" height="1.7" transform="translate(-24.1 53.01) rotate(-75.63)"/>
    <rect class="cls-1" x="25.72" y="38.16" width="1.7" height="7.76" transform="translate(-8.28 6.56) rotate(-12.2)"/>
  </g>
  <g>
    <path class="cls-1" d="m43.5,34.94c-.17,0-.33-.06-.46-.19l-4.83-4.83c-.12-.12-.19-.29-.19-.46s.07-.34.19-.46l1.93-1.93c.25-.25.67-.25.92,0l2.44,2.44,6.3-6.3c.12-.12.29-.19.46-.19h0c.17,0,.34.07.46.19l1.93,1.93c.25.25.25.67,0,.92l-8.69,8.69c-.13.13-.29.19-.46.19Zm-3.91-5.48l3.91,3.91,7.77-7.77-1.01-1.01-6.3,6.3c-.25.25-.67.25-.92,0l-2.44-2.44-1.01,1.01Z"/>
    <path class="cls-1" d="m45.43,41.9c-7.12,0-12.92-5.79-12.92-12.92s5.79-12.92,12.92-12.92,12.92,5.79,12.92,12.92-5.8,12.92-12.92,12.92Zm0-24.14c-6.19,0-11.22,5.03-11.22,11.22s5.03,11.22,11.22,11.22,11.22-5.03,11.22-11.22-5.03-11.22-11.22-11.22Z"/>
  </g>
</svg>