<?xml version="1.0" encoding="UTF-8"?>
<svg id="Layer_1" data-name="Layer 1" xmlns="http://www.w3.org/2000/svg" viewBox="0 0 60 60">
  <defs>
    <style>
      .cls-1 {
        fill: #37464c;
        stroke-width: 0px;
      }
    </style>
  </defs>
  <path class="cls-1" d="m29,15c-3.31,0-6-2.69-6-6s2.69-6,6-6,6,2.69,6,6-2.69,6-6,6Zm0-10c-2.21,0-4,1.79-4,4s1.79,4,4,4,4-1.79,4-4-1.79-4-4-4Z"/>
  <path class="cls-1" d="m35,55h-12c-.55,0-1-.45-1-1V22c0-.55.45-1,1-1s1,.45,1,1v31h10v-31c0-.55.45-1,1-1s1,.45,1,1v32c0,.55-.45,1-1,1Z"/>
  <path class="cls-1" d="m29,55c-.55,0-1-.45-1-1v-17c0-.55.45-1,1-1s1,.45,1,1v17c0,.55-.45,1-1,1Z"/>
  <path class="cls-1" d="m35,38v-2c1.65,0,3-1.35,3-3v-11c0-2.76-2.24-5-5-5h-8c-2.76,0-5,2.24-5,5v11c0,1.65,1.35,3,3,3v2c-2.76,0-5-2.24-5-5v-11c0-3.86,3.14-7,7-7h8c3.86,0,7,3.14,7,7v11c0,2.76-2.24,5-5,5Z"/>
  <path class="cls-1" d="m35,55c-.28,0-.57-.12-.76-.35-.36-.42-.3-1.05.12-1.41l17-14.38c.37-.31.92-.32,1.29,0l2.35,1.99v-7.84h-9.27l1.92,1.62c.22.19.35.47.35.76s-.13.57-.35.76l-12,10.15c-.42.36-1.05.3-1.41-.12-.36-.42-.3-1.05.12-1.41l11.1-9.39-3.1-2.62c-.32-.27-.44-.71-.29-1.11s.52-.66.94-.66h13c.55,0,1,.45,1,1v11c0,.39-.23.74-.58.91-.35.16-.77.11-1.07-.14l-3.35-2.84-16.35,13.84c-.19.16-.42.24-.65.24Z"/>
  <path class="cls-1" d="m23,55c-.23,0-.46-.08-.65-.24l-16.35-13.84-3.35,2.84c-.3.25-.71.31-1.07.14-.35-.16-.58-.52-.58-.91v-11c0-.55.45-1,1-1h13c.42,0,.79.26.94.66s.03.84-.29,1.11l-3.1,2.62,11.1,9.39c.42.36.47.99.12,1.41-.36.42-.99.48-1.41.12l-12-10.15c-.22-.19-.35-.47-.35-.76s.13-.57.35-.76l1.92-1.62H3v7.84l2.35-1.99c.37-.32.92-.32,1.29,0l17,14.38c.42.36.47.99.12,1.41-.2.23-.48.35-.76.35Z"/>
</svg>