<?xml version="1.0" encoding="UTF-8"?>
<svg id="Layer_1" data-name="Layer 1" xmlns="http://www.w3.org/2000/svg" viewBox="0 0 60 60">
  <defs>
    <style>
      .cls-1 {
        fill: #37464c;
        stroke-width: 0px;
      }
    </style>
  </defs>
  <path class="cls-1" d="m21.44,38v-2c1.65,0,3-1.35,3-3v-12.77c0-1.08-.69-2.04-1.73-2.39-.42-.14-1.38-.47-2.01-.69l-4.56,4.56c-.39.39-1.02.39-1.41,0l-4.56-4.56c-.63.22-1.59.55-2.01.69-1.03.35-1.73,1.31-1.73,2.39v12.77c0,1.65,1.35,3,3,3v2c-2.76,0-5-2.24-5-5v-12.77c0-1.94,1.24-3.66,3.09-4.29.65-.22,2.58-.89,2.58-.89.36-.13.76-.03,1.03.24l4.29,4.29,4.29-4.29c.27-.27.67-.36,1.03-.24,0,0,1.94.67,2.58.89,1.85.62,3.09,2.35,3.09,4.29v12.77c0,2.76-2.24,5-5,5Z"/>
  <path class="cls-1" d="m15.44,15c-3.31,0-6-2.69-6-6s2.69-6,6-6,6,2.69,6,6-2.69,6-6,6Zm0-10c-2.21,0-4,1.79-4,4s1.79,4,4,4,4-1.79,4-4-1.79-4-4-4Z"/>
  <path class="cls-1" d="m20.44,55h-10c-1.1,0-2-.9-2-2v-29c0-.55.45-1,1-1s1,.45,1,1v29h10v-29c0-.55.45-1,1-1s1,.45,1,1v29c0,1.1-.9,2-2,2Z"/>
  <path class="cls-1" d="m15.44,55c-.55,0-1-.45-1-1v-18c0-.55.45-1,1-1s1,.45,1,1v18c0,.55-.45,1-1,1Z"/>
  <path class="cls-1" d="m36.44,39c-2.21,0-4-1.79-4-4s1.79-4,4-4,4,1.79,4,4-1.79,4-4,4Zm0-6c-1.1,0-2,.9-2,2s.9,2,2,2,2-.9,2-2-.9-2-2-2Z"/>
  <path class="cls-1" d="m38.56,33.88c-.26,0-.51-.1-.71-.29-.39-.39-.39-1.02,0-1.41l8.49-8.49c.39-.39,1.02-.39,1.41,0s.39,1.02,0,1.41l-8.49,8.49c-.2.2-.45.29-.71.29Z"/>
  <path class="cls-1" d="m47.38,43c-.19,0-.37-.05-.54-.16-.46-.3-.6-.92-.3-1.38,1.24-1.93,1.9-4.17,1.9-6.46,0-1.91-.44-3.74-1.32-5.46-.25-.49-.06-1.09.43-1.35.49-.25,1.09-.06,1.35.43,1.02,2,1.54,4.14,1.54,6.37,0,2.68-.77,5.28-2.22,7.54-.19.3-.51.46-.84.46Z"/>
  <path class="cls-1" d="m25.5,43c-.33,0-.65-.16-.84-.46-1.16-1.8-1.9-3.89-2.13-6.03-.06-.55.34-1.04.89-1.1.55-.06,1.04.34,1.1.89.2,1.86.81,3.6,1.82,5.17.3.46.16,1.08-.3,1.38-.17.11-.35.16-.54.16Z"/>
  <path class="cls-1" d="m25.44,29.09c-.18,0-.37-.05-.53-.15-.47-.29-.61-.91-.31-1.38,2.58-4.11,7.01-6.56,11.85-6.56,2.23,0,4.37.52,6.37,1.54.49.25.69.85.43,1.35-.25.49-.85.69-1.35.43-1.71-.88-3.55-1.32-5.46-1.32-4.14,0-7.94,2.1-10.15,5.63-.19.3-.51.47-.85.47Z"/>
  <path class="cls-1" d="m39.44,49h-6c-.55,0-1-.45-1-1s.45-1,1-1h6c.55,0,1,.45,1,1s-.45,1-1,1Z"/>
  <path class="cls-1" d="m36.44,55c-4.18,0-8.18-1.28-11.58-3.72-.45-.32-.55-.95-.23-1.4.32-.45.94-.55,1.4-.23,3.06,2.19,6.66,3.34,10.42,3.34,9.93,0,18-8.07,18-18s-8.07-18-18-18c-3.78,0-7.41,1.17-10.48,3.39-.45.32-1.07.22-1.4-.23-.32-.45-.22-1.07.23-1.4,3.42-2.46,7.45-3.77,11.65-3.77,11.03,0,20,8.97,20,20s-8.97,20-20,20Z"/>
</svg>