<?xml version="1.0" encoding="UTF-8"?>
<svg id="Layer_1" data-name="Layer 1" xmlns="http://www.w3.org/2000/svg" viewBox="0 0 60 60">
  <defs>
    <style>
      .cls-1 {
        fill: #37464c;
        stroke-width: 0px;
      }
    </style>
  </defs>
  <g>
    <path class="cls-1" d="m19.37,20.74c-3.17,0-5.74-2.58-5.74-5.74s2.58-5.74,5.74-5.74,5.74,2.58,5.74,5.74-2.58,5.74-5.74,5.74Zm0-9.48c-2.06,0-3.74,1.68-3.74,3.74s1.68,3.74,3.74,3.74,3.74-1.68,3.74-3.74-1.68-3.74-3.74-3.74Z"/>
    <path class="cls-1" d="m24.11,58.68h-9.48c-1.07,0-1.95-.87-1.95-1.95v-14.28c-2.17-.46-3.79-2.39-3.79-4.69v-11.66c0-1.97,1.18-3.72,3.01-4.45l2.36-.94c.37-.15.79-.06,1.08.22l3.96,3.96,9.43-11.41c.6-.72,1.71-1.59,2.87-1.64.62-.04,1.16.18,1.58.59l.72.69c.1.09.17.21.23.33.75,1.76-.6,3.5-1.11,4.15l-6.96,8.93v30.19c0,1.07-.87,1.95-1.95,1.95Zm-10.43-30.45c.55,0,1,.45,1,1v27.5l9.43-.05-.05-30.48c0-.22.07-.44.21-.61l7.17-9.2c.29-.37,1.02-1.31.89-1.99l-.55-.53c-.21-.09-.97.26-1.5.9l-10.13,12.26c-.18.22-.44.35-.72.36-.29.02-.56-.09-.75-.29l-4.28-4.28-1.74.7c-1.07.43-1.76,1.44-1.76,2.59v11.66c0,1.19.75,2.21,1.79,2.61v-11.14c0-.55.45-1,1-1Z"/>
    <path class="cls-1" d="m19.37,58.68c-.55,0-1-.45-1-1v-17.07c0-.55.45-1,1-1s1,.45,1,1v17.07c0,.55-.45,1-1,1Z"/>
  </g>
  <g>
    <path class="cls-1" d="m48.75,18.32h-10.44c-1.27,0-2.31-1.03-2.31-2.31V5.57c0-1.27,1.03-2.31,2.31-2.31h7.83c.55,0,1,.45,1,1s-.45,1-1,1h-7.83c-.17,0-.31.14-.31.31v10.44c0,.17.14.31.31.31h10.44c.17,0,.3-.14.3-.31v-2.61c0-.55.45-1,1-1s1,.45,1,1v2.61c0,1.27-1.03,2.31-2.3,2.31Z"/>
    <path class="cls-1" d="m44.83,13.09h0c-.27,0-.52-.11-.71-.29l-2.61-2.61c-.39-.39-.39-1.02,0-1.41s1.02-.39,1.41,0l1.9,1.9,7.13-7.13c.39-.39,1.02-.39,1.41,0,.39.39.39,1.02,0,1.41l-7.83,7.83c-.19.19-.44.29-.71.29Z"/>
  </g>
</svg>