<?xml version="1.0" encoding="UTF-8"?>
<svg id="Layer_1" data-name="Layer 1" xmlns="http://www.w3.org/2000/svg" viewBox="0 0 60 60">
  <defs>
    <style>
      .cls-1 {
        fill: #37464c;
        stroke-width: 0px;
      }
    </style>
  </defs>
  <path class="cls-1" d="m30.52,26.6c-6.15,0-11.16-5-11.16-11.16s5-11.16,11.16-11.16,11.16,5,11.16,11.16-5,11.16-11.16,11.16Zm0-20.31c-5.05,0-9.16,4.11-9.16,9.16s4.11,9.16,9.16,9.16,9.16-4.11,9.16-9.16-4.11-9.16-9.16-9.16Z"/>
  <path class="cls-1" d="m17.82,55.33c-.55,0-1-.45-1-1v-8.89c0-.55.45-1,1-1s1,.45,1,1v8.89c0,.55-.45,1-1,1Z"/>
  <path class="cls-1" d="m43.21,55.67c-.55,0-1-.45-1-1v-9.22c0-.55.45-1,1-1s1,.45,1,1v9.22c0,.55-.45,1-1,1Z"/>
  <path class="cls-1" d="m53.37,54.14c-.55,0-1-.45-1-1v-10.24c0-6.45-5.25-11.69-11.69-11.69h-20.31c-6.45,0-11.69,5.25-11.69,11.69v10.24c0,.55-.45,1-1,1s-1-.45-1-1v-10.24c0-7.55,6.14-13.69,13.69-13.69h20.31c7.55,0,13.69,6.14,13.69,13.69v10.24c0,.55-.45,1-1,1Z"/>
  <path class="cls-1" d="m30.52,55.98c-.55,0-1-.45-1-1s.45-1,1-1c12.5,0,20.62-.79,22.02-1.39.18-.27.49-.45.83-.45.55,0,1,.45,1,1,0,1.02-.53,1.73-7.61,2.29-4.34.35-10.11.54-16.24.54Z"/>
  <path class="cls-1" d="m31.03,55.97c-6.27,0-12.17-.19-16.6-.54-7.24-.57-7.76-1.25-7.76-2.29,0-.55.45-1,1-1,.35,0,.65.17.83.44,1.42.6,9.73,1.39,22.54,1.39.55,0,1,.45,1,1s-.45,1-1,1Zm-22.37-2.83h0,0Z"/>
</svg>