<?xml version="1.0" encoding="UTF-8"?>
<svg id="Layer_1" data-name="Layer 1" xmlns="http://www.w3.org/2000/svg" viewBox="0 0 60 60">
  <defs>
    <style>
      .cls-1 {
        fill: #37464c;
        stroke-width: 0px;
      }
    </style>
  </defs>
  <g>
    <path class="cls-1" d="m14.83,55.25h-5.55c-2.05,0-3.72-1.67-3.72-3.72V7.81c0-1.69,1.37-3.06,3.06-3.06.32,0,.57.26.57.57s-.26.57-.57.57c-1.06,0-1.91.86-1.91,1.91v43.71c0,1.42,1.15,2.57,2.57,2.57h5.55c1.42,0,2.57-1.15,2.57-2.57v-14.35c0-.32.26-.57.57-.57s.57.26.57.57v14.35c0,2.05-1.67,3.72-3.72,3.72Z"/>
    <path class="cls-1" d="m14.83,55.75h-5.55c-2.33,0-4.22-1.89-4.22-4.22V7.81c0-1.96,1.6-3.56,3.56-3.56.59,0,1.07.48,1.07,1.07s-.48,1.07-1.07,1.07c-.78,0-1.41.63-1.41,1.41v43.71c0,1.14.93,2.07,2.07,2.07h5.55c1.14,0,2.07-.93,2.07-2.07v-14.35c0-.59.48-1.07,1.07-1.07s1.07.48,1.07,1.07v14.35c0,2.33-1.89,4.22-4.22,4.22ZM8.62,5.25c-1.41,0-2.56,1.15-2.56,2.56v43.71c0,1.78,1.44,3.22,3.22,3.22h5.55c1.78,0,3.22-1.44,3.22-3.22v-14.35c0-.08-.15-.08-.15,0v14.35c0,1.69-1.38,3.07-3.07,3.07h-5.55c-1.69,0-3.07-1.38-3.07-3.07V7.81c0-1.33,1.08-2.41,2.41-2.41.04,0,.07-.03.07-.07s-.03-.07-.07-.07Z"/>
  </g>
  <g>
    <path class="cls-1" d="m26.67,55.25h-5.55c-2.05,0-3.72-1.67-3.72-3.72v-14.35c0-.32.26-.57.57-.57s.57.26.57.57v14.35c0,1.42,1.15,2.57,2.57,2.57h5.55c1.42,0,2.57-1.15,2.57-2.57v-14.35c0-.32.26-.57.57-.57s.57.26.57.57v14.35c0,2.05-1.67,3.72-3.72,3.72Z"/>
    <path class="cls-1" d="m26.67,55.75h-5.55c-2.33,0-4.22-1.89-4.22-4.22v-14.35c0-.59.48-1.07,1.07-1.07s1.07.48,1.07,1.07v14.35c0,1.14.93,2.07,2.07,2.07h5.55c1.14,0,2.07-.93,2.07-2.07v-14.35c0-.59.48-1.07,1.07-1.07s1.07.48,1.07,1.07v14.35c0,2.33-1.89,4.22-4.22,4.22Zm-8.7-18.65s-.07.03-.07.07v14.35c0,1.78,1.44,3.22,3.22,3.22h5.55c1.78,0,3.22-1.44,3.22-3.22v-14.35c0-.08-.15-.08-.15,0v14.35c0,1.69-1.38,3.07-3.07,3.07h-5.55c-1.69,0-3.07-1.38-3.07-3.07v-14.35s-.03-.07-.07-.07Z"/>
  </g>
  <g>
    <path class="cls-1" d="m38.51,55.25h-5.55c-2.05,0-3.72-1.67-3.72-3.72v-14.35c0-.32.26-.57.57-.57s.57.26.57.57v14.35c0,1.42,1.15,2.57,2.57,2.57h5.55c1.42,0,2.57-1.15,2.57-2.57v-14.35c0-.32.26-.57.57-.57s.57.26.57.57v14.35c0,2.05-1.67,3.72-3.72,3.72Z"/>
    <path class="cls-1" d="m38.51,55.75h-5.55c-2.33,0-4.22-1.89-4.22-4.22v-14.35c0-.59.48-1.07,1.07-1.07s1.07.48,1.07,1.07v14.35c0,1.14.93,2.07,2.07,2.07h5.55c1.14,0,2.07-.93,2.07-2.07v-14.35c0-.59.48-1.07,1.07-1.07s1.07.48,1.07,1.07v14.35c0,2.33-1.89,4.22-4.22,4.22Zm-8.7-18.65s-.07.03-.07.07v14.35c0,1.78,1.44,3.22,3.22,3.22h5.55c1.78,0,3.22-1.44,3.22-3.22v-14.35c0-.08-.15-.08-.15,0v14.35c0,1.69-1.38,3.07-3.07,3.07h-5.55c-1.69,0-3.07-1.38-3.07-3.07v-14.35s-.03-.07-.07-.07Z"/>
  </g>
  <g>
    <path class="cls-1" d="m50.35,55.25h-5.55c-2.05,0-3.72-1.67-3.72-3.72v-14.35c0-.32.26-.57.57-.57s.57.26.57.57v14.35c0,1.42,1.15,2.57,2.57,2.57h5.55c1.42,0,2.57-1.15,2.57-2.57V7.81c0-1.06-.86-1.91-1.91-1.91-.32,0-.57-.26-.57-.57s.26-.57.57-.57c1.69,0,3.06,1.37,3.06,3.06v43.71c0,2.05-1.67,3.72-3.72,3.72Z"/>
    <path class="cls-1" d="m50.35,55.75h-5.55c-2.33,0-4.22-1.89-4.22-4.22v-14.35c0-.59.48-1.07,1.07-1.07s1.07.48,1.07,1.07v14.35c0,1.14.93,2.07,2.07,2.07h5.55c1.14,0,2.07-.93,2.07-2.07V7.81c0-.78-.63-1.41-1.41-1.41-.59,0-1.07-.48-1.07-1.07s.48-1.07,1.07-1.07c1.96,0,3.56,1.6,3.56,3.56v43.71c0,2.33-1.89,4.22-4.22,4.22Zm-8.7-18.65s-.07.03-.07.07v14.35c0,1.78,1.44,3.22,3.22,3.22h5.55c1.78,0,3.22-1.44,3.22-3.22V7.81c0-1.41-1.15-2.56-2.56-2.56-.04,0-.07.03-.07.07s.03.07.07.07c1.33,0,2.41,1.08,2.41,2.41v43.71c0,1.69-1.38,3.07-3.07,3.07h-5.55c-1.69,0-3.07-1.38-3.07-3.07v-14.35s-.03-.07-.07-.07Z"/>
  </g>
  <g>
    <path class="cls-1" d="m19.83,37.75h-3.63c-1.15,0-2.09-.94-2.09-2.09V5.33c0-.32.26-.57.57-.57h6.65c.32,0,.57.26.57.57v30.33c0,1.15-.94,2.09-2.09,2.09ZM15.26,5.9v29.76c0,.52.42.94.94.94h3.63c.52,0,.94-.42.94-.94V5.9h-5.51Z"/>
    <path class="cls-1" d="m19.83,38.25h-3.63c-1.43,0-2.59-1.16-2.59-2.59V5.33c0-.59.48-1.07,1.07-1.07h6.65c.59,0,1.07.48,1.07,1.07v30.33c0,1.43-1.16,2.59-2.59,2.59ZM14.69,5.25s-.07.03-.07.07v30.33c0,.88.71,1.59,1.59,1.59h3.63c.88,0,1.59-.71,1.59-1.59V5.33s-.03-.07-.07-.07h-6.65Zm5.14,31.84h-3.63c-.79,0-1.44-.65-1.44-1.44V5.4h6.5v30.26c0,.79-.65,1.44-1.44,1.44ZM15.76,6.4v29.26c0,.24.2.44.44.44h3.63c.24,0,.44-.2.44-.44V6.4h-4.5Z"/>
  </g>
  <g>
    <path class="cls-1" d="m31.71,37.75h-3.63c-1.15,0-2.09-.94-2.09-2.09V5.33c0-.32.26-.57.57-.57h6.65c.32,0,.57.26.57.57v30.33c0,1.15-.94,2.09-2.09,2.09Zm-4.57-31.85v29.76c0,.52.42.94.94.94h3.63c.52,0,.94-.42.94-.94V5.9h-5.51Z"/>
    <path class="cls-1" d="m31.71,38.25h-3.63c-1.43,0-2.59-1.16-2.59-2.59V5.33c0-.59.48-1.07,1.07-1.07h6.65c.59,0,1.07.48,1.07,1.07v30.33c0,1.43-1.16,2.59-2.59,2.59ZM26.57,5.25s-.07.03-.07.07v30.33c0,.88.71,1.59,1.59,1.59h3.63c.88,0,1.59-.71,1.59-1.59V5.33s-.03-.07-.07-.07h-6.65Zm5.14,31.84h-3.63c-.79,0-1.44-.65-1.44-1.44V5.4h6.5v30.26c0,.79-.65,1.44-1.44,1.44Zm-4.07-30.7v29.26c0,.24.2.44.44.44h3.63c.24,0,.44-.2.44-.44V6.4h-4.5Z"/>
  </g>
  <g>
    <path class="cls-1" d="m43.47,37.75h-3.63c-1.15,0-2.09-.94-2.09-2.09V5.33c0-.32.26-.57.57-.57h6.65c.32,0,.57.26.57.57v30.33c0,1.15-.94,2.09-2.09,2.09Zm-4.57-31.85v29.76c0,.52.42.94.94.94h3.63c.52,0,.94-.42.94-.94V5.9h-5.51Z"/>
    <path class="cls-1" d="m43.47,38.25h-3.63c-1.43,0-2.59-1.16-2.59-2.59V5.33c0-.59.48-1.07,1.07-1.07h6.65c.59,0,1.07.48,1.07,1.07v30.33c0,1.43-1.16,2.59-2.59,2.59Zm-5.14-32.99s-.07.03-.07.07v30.33c0,.88.71,1.59,1.59,1.59h3.63c.88,0,1.59-.71,1.59-1.59V5.33s-.03-.07-.07-.07h-6.65Zm5.14,31.84h-3.63c-.79,0-1.44-.65-1.44-1.44V5.4h6.51v30.26c0,.79-.65,1.44-1.44,1.44Zm-4.07-30.7v29.26c0,.24.2.44.44.44h3.63c.24,0,.44-.2.44-.44V6.4h-4.51Z"/>
  </g>
</svg>