<?xml version="1.0" encoding="UTF-8"?>
<svg id="Layer_1" data-name="Layer 1" xmlns="http://www.w3.org/2000/svg" viewBox="0 0 60 60">
  <defs>
    <style>
      .cls-1 {
        fill: #37464c;
        stroke-width: 0px;
      }
    </style>
  </defs>
  <path class="cls-1" d="m19.52,34c-.55,0-1-.45-1-1v-5.39c0-.67-.33-1.29-.89-1.66l-3.92-2.61c-.45-.3-.71-.79-.71-1.33s.27-1.03.71-1.33l3.92-2.61c.56-.37.89-.99.89-1.66v-5.39c0-.55.45-1,1-1s1,.45,1,1v5.39c0,1.34-.67,2.58-1.78,3.33l-3.42,2.28,3.42,2.28c1.12.74,1.78,1.99,1.78,3.33v5.39c0,.55-.45,1-1,1Z"/>
  <path class="cls-1" d="m21.52,34H3.52c-.55,0-1-.45-1-1s.45-1,1-1h18c.55,0,1,.45,1,1s-.45,1-1,1Z"/>
  <path class="cls-1" d="m5.52,34c-.55,0-1-.45-1-1v-5.39c0-1.34.67-2.58,1.78-3.33l3.42-2.28-3.42-2.28c-1.12-.74-1.78-1.99-1.78-3.33v-5.39c0-.55.45-1,1-1s1,.45,1,1v5.39c0,.67.33,1.29.89,1.66l3.92,2.61c.45.3.71.79.71,1.33s-.27,1.03-.71,1.33l-3.91,2.61c-.56.37-.89.99-.89,1.66v5.39c0,.55-.45,1-1,1Z"/>
  <path class="cls-1" d="m21.52,12H3.52c-.55,0-1-.45-1-1s.45-1,1-1h18c.55,0,1,.45,1,1s-.45,1-1,1Z"/>
  <path class="cls-1" d="m19.52,31c-.13,0-.27-.03-.39-.08l-6.61-2.83-6.61,2.83c-.51.22-1.1-.02-1.31-.52-.22-.51.02-1.1.52-1.31l7-3c.25-.11.54-.11.79,0l7,3c.51.22.74.81.52,1.31-.16.38-.53.61-.92.61Z"/>
  <path class="cls-1" d="m57.52,28h-22c-.55,0-1-.45-1-1V5c0-.55.45-1,1-1,12.68,0,23,10.32,23,23,0,.55-.45,1-1,1Zm-21-2h19.98c-.51-10.79-9.19-19.47-19.98-19.98v19.98Z"/>
  <path class="cls-1" d="m29.52,56c-6.14,0-11.92-2.39-16.26-6.74-.39-.39-.39-1.02,0-1.41l15.56-15.56c.29-.29.71-.37,1.09-.22.37.15.62.52.62.92v22c0,.55-.45,1-1,1Zm-14.13-7.46c3.63,3.31,8.22,5.21,13.13,5.44v-18.56l-13.13,13.13Z"/>
  <path class="cls-1" d="m29.52,56c-.55,0-1-.45-1-1v-22c0-.55.45-1,1-1h22c.55,0,1,.45,1,1,0,12.68-10.32,23-23,23Zm1-22v19.98c10.79-.51,19.47-9.19,19.98-19.98h-19.98Z"/>
  <path class="cls-1" d="m13.96,49.56c-.26,0-.51-.1-.71-.29-3.31-3.31-5.51-7.49-6.35-12.08-.1-.54.26-1.06.8-1.16.55-.1,1.06.26,1.16.8.71,3.87,2.47,7.41,5.11,10.31l14.54-14.54V12.02c-.94.05-1.88.16-2.82.33-.55.1-1.06-.26-1.16-.8-.1-.54.26-1.06.8-1.16,1.39-.26,2.8-.39,4.18-.39.55,0,1,.45,1,1v22c0,.27-.11.52-.29.71l-15.56,15.56c-.2.2-.45.29-.71.29Z"/>
</svg>