<?xml version="1.0" encoding="UTF-8"?>
<svg id="Layer_1" data-name="Layer 1" xmlns="http://www.w3.org/2000/svg" viewBox="0 0 60 60">
  <defs>
    <style>
      .cls-1 {
        fill: #37464c;
        stroke-width: 0px;
      }
    </style>
  </defs>
  <g>
    <path class="cls-1" d="m28.99,56.17h0c-6.38,0-12.37-2.48-16.88-6.99-4.51-4.51-6.99-10.5-6.99-16.88,0-5.68,2.03-11.18,5.71-15.49.11-.13.27-.2.43-.2.17,0,.33.07.44.19l17.45,18.99,22.93-1.36c.18-.01.34.06.46.18.12.13.18.3.16.47-1.39,12.02-11.58,21.09-23.71,21.09ZM11.3,18.08c-3.23,4.02-5.01,9.04-5.01,14.22,0,6.06,2.36,11.76,6.65,16.05,4.29,4.29,9.99,6.65,16.05,6.65h0c11.3,0,20.83-8.28,22.46-19.37l-22.5,1.34c-.18.01-.35-.06-.47-.19L11.3,18.08Z"/>
    <path class="cls-1" d="m28.99,56.55h0c-6.47,0-12.56-2.52-17.14-7.1-4.58-4.58-7.1-10.67-7.1-17.14,0-5.77,2.06-11.35,5.8-15.73.18-.21.44-.33.71-.34h.02c.27,0,.53.11.71.31l17.33,18.86,22.75-1.35c.28-.02.55.09.75.3.2.21.29.49.26.77-1.41,12.21-11.76,21.42-24.08,21.42ZM11.27,16.98c-.06-.01-.12.03-.16.07-3.62,4.24-5.62,9.66-5.62,15.25,0,6.28,2.44,12.17,6.88,16.61,4.44,4.44,10.34,6.88,16.61,6.88v.38s0-.38,0-.38c11.93,0,21.96-8.93,23.33-20.76,0-.06-.01-.12-.06-.17-.03-.03-.08-.07-.16-.06l-23.11,1.37-.12-.13L11.43,17.05s-.09-.07-.15-.07Zm17.71,38.4c-6.17,0-11.96-2.4-16.32-6.76-4.36-4.36-6.76-10.15-6.76-16.32,0-5.24,1.81-10.38,5.09-14.46l.27-.34,17.48,19.03s.08.08.16.07l22.97-1.37-.07.46c-1.65,11.22-11.46,19.69-22.83,19.69ZM11.32,18.66c-3,3.89-4.65,8.72-4.66,13.64,0,5.96,2.32,11.57,6.54,15.79,4.22,4.22,9.82,6.54,15.78,6.54,10.85,0,20.23-7.96,22.02-18.59l-22.03,1.31c-.28.02-.56-.09-.76-.31L11.32,18.66Z"/>
  </g>
  <g>
    <path class="cls-1" d="m32.19,31.87c-.2,0-.39-.11-.5-.28-.11-.19-.11-.42,0-.6l11.95-19.98c.08-.13.21-.23.36-.27.15-.04.31-.01.44.07,6.09,3.65,10.22,9.76,11.32,16.76.12.77.21,1.54.25,2.31,0,.15-.04.31-.15.42-.1.12-.25.19-.4.2l-23.24,1.37s-.02,0-.03,0Zm12.15-19.76l-11.08,18.52,21.55-1.27c-.05-.54-.11-1.08-.2-1.62-1.02-6.47-4.75-12.14-10.27-15.64Z"/>
    <path class="cls-1" d="m32.19,32.24c-.33,0-.65-.18-.82-.46-.18-.3-.19-.68,0-.99l11.95-19.98c.13-.22.34-.38.59-.44.25-.06.51-.03.73.11,6.19,3.71,10.38,9.91,11.5,17.03.12.78.21,1.57.26,2.35.02.25-.07.5-.24.69-.17.19-.41.31-.66.32l-23.3,1.37Zm11.95-21.15s-.03,0-.05,0c-.05.01-.1.05-.13.09l-11.95,19.98c-.04.07-.04.15,0,.21.04.06.11.1.18.1v.38-.38s23.26-1.37,23.26-1.37c.06,0,.11-.03.15-.07.04-.04.05-.1.05-.15-.04-.75-.13-1.52-.25-2.28-1.09-6.89-5.15-12.91-11.14-16.5-.03-.02-.07-.03-.11-.03Zm-11.57,19.96l11.64-19.46.33.21c5.6,3.55,9.41,9.34,10.44,15.89.09.54.15,1.09.2,1.64l.03.38-22.64,1.34Zm11.89-18.42l-10.52,17.58,20.45-1.21c-.04-.4-.09-.81-.16-1.21-.98-6.21-4.54-11.72-9.78-15.17Z"/>
  </g>
  <g>
    <path class="cls-1" d="m28.96,29.8c-.17,0-.33-.07-.44-.2L12.46,11.52c-.11-.12-.16-.28-.15-.44.01-.16.09-.31.22-.41,5.82-4.61,13.06-6.7,19.38-5.58,2.89.51,5.48,1.5,8.94,3.42.14.08.24.2.28.35.04.15.02.31-.06.45l-11.61,20.19c-.09.16-.26.27-.45.29-.02,0-.04,0-.06,0ZM13.75,11.21l15.11,17.01,10.91-18.97c-3.08-1.67-5.45-2.55-8.06-3.01-5.82-1.03-12.49.82-17.96,4.96Z"/>
    <path class="cls-1" d="m28.96,30.18c-.27,0-.54-.12-.72-.32L12.18,11.77c-.17-.2-.26-.46-.24-.72.02-.26.15-.5.36-.67,5.9-4.68,13.25-6.79,19.68-5.65,2.93.52,5.55,1.52,9.06,3.47.22.12.39.33.46.58.07.25.04.51-.09.74l-11.61,20.19c-.15.27-.43.45-.73.48h-.1Zm-.5-25c-5.32,0-10.98,2.05-15.7,5.79-.04.04-.07.09-.08.15,0,.06.01.11.05.16l16.06,18.09s.1.07.16.07v.38l.02-.38c.06,0,.12-.04.16-.1l11.61-20.19s.04-.11.02-.16c-.01-.05-.05-.1-.1-.13-3.43-1.9-5.98-2.88-8.83-3.38-1.1-.2-2.24-.29-3.39-.29Zm.46,23.69L13.2,11.16l.32-.25c5.54-4.2,12.37-6.08,18.26-5.03,2.64.47,5.08,1.38,8.17,3.05l.34.18-11.36,19.75ZM14.3,11.27l14.49,16.32,10.46-18.18c-2.89-1.53-5.11-2.35-7.61-2.79-5.57-.98-12.03.75-17.35,4.65Z"/>
  </g>
</svg>