<?xml version="1.0" encoding="UTF-8"?>
<svg id="Layer_1" data-name="Layer 1" xmlns="http://www.w3.org/2000/svg" viewBox="0 0 60 60">
  <defs>
    <style>
      .cls-1 {
        fill: #37464c;
        stroke-width: 0px;
      }
    </style>
  </defs>
  <g>
    <path class="cls-1" d="m44.84,47.99c-4.6,0-8.35-3.74-8.35-8.35v-19.77c0-4.6,3.74-8.35,8.35-8.35s8.35,3.74,8.35,8.35v19.77c0,4.6-3.74,8.35-8.35,8.35Zm0-35.46c-4.05,0-7.34,3.29-7.34,7.34v19.77c0,4.05,3.29,7.34,7.34,7.34s7.34-3.29,7.34-7.34v-19.77c0-4.05-3.29-7.34-7.34-7.34Z"/>
    <path class="cls-1" d="m44.84,48.37c-4.81,0-8.72-3.91-8.72-8.72v-19.77c0-4.81,3.91-8.72,8.72-8.72s8.72,3.91,8.72,8.72v19.77c0,4.81-3.91,8.72-8.72,8.72Zm0-36.46c-4.4,0-7.97,3.58-7.97,7.97v19.77c0,4.4,3.58,7.97,7.97,7.97s7.97-3.58,7.97-7.97v-19.77c0-4.4-3.58-7.97-7.97-7.97Zm0,35.46c-4.26,0-7.72-3.46-7.72-7.72v-19.77c0-4.26,3.46-7.72,7.72-7.72s7.72,3.46,7.72,7.72v19.77c0,4.26-3.46,7.72-7.72,7.72Zm0-34.45c-3.84,0-6.97,3.13-6.97,6.97v19.77c0,3.84,3.13,6.97,6.97,6.97s6.97-3.13,6.97-6.97v-19.77c0-3.84-3.13-6.97-6.97-6.97Z"/>
  </g>
  <g>
    <path class="cls-1" d="m52.69,30.26h-15.69c-.28,0-.5-.22-.5-.5s.22-.5.5-.5h15.69c.28,0,.5.22.5.5s-.22.5-.5.5Z"/>
    <path class="cls-1" d="m52.69,30.64h-15.69c-.48,0-.88-.39-.88-.88s.39-.88.88-.88h15.69c.48,0,.88.39.88.88s-.39.88-.88.88Zm-15.69-1c-.07,0-.13.06-.13.13s.06.13.13.13h15.69c.07,0,.13-.06.13-.13s-.06-.13-.13-.13h-15.69Z"/>
  </g>
  <g>
    <g>
      <path class="cls-1" d="m27.49,51.83H11.02c-1.57,0-2.85-1.28-2.85-2.85V13.92c0-1.57,1.28-2.85,2.85-2.85h16.48c1.57,0,2.85,1.28,2.85,2.85v35.05c0,1.57-1.28,2.85-2.85,2.85ZM11.02,12.07c-1.02,0-1.85.83-1.85,1.85v35.05c0,1.02.83,1.85,1.85,1.85h16.48c1.02,0,1.85-.83,1.85-1.85V13.92c0-1.02-.83-1.85-1.85-1.85H11.02Z"/>
      <path class="cls-1" d="m27.49,52.2H11.02c-1.78,0-3.23-1.45-3.23-3.23V13.92c0-1.78,1.45-3.23,3.23-3.23h16.48c1.78,0,3.23,1.45,3.23,3.23v35.05c0,1.78-1.45,3.23-3.23,3.23ZM11.02,11.44c-1.37,0-2.48,1.11-2.48,2.48v35.05c0,1.37,1.11,2.48,2.48,2.48h16.48c1.37,0,2.48-1.11,2.48-2.48V13.92c0-1.37-1.11-2.48-2.48-2.48H11.02Zm16.48,39.75H11.02c-1.23,0-2.23-1-2.23-2.23V13.92c0-1.23,1-2.23,2.23-2.23h16.48c1.23,0,2.23,1,2.23,2.23v35.05c0,1.23-1,2.23-2.23,2.23ZM11.02,12.45c-.81,0-1.48.66-1.48,1.48v35.05c0,.81.66,1.48,1.48,1.48h16.48c.81,0,1.48-.66,1.48-1.48V13.92c0-.81-.66-1.48-1.48-1.48H11.02Z"/>
    </g>
    <g>
      <g>
        <g>
          <path class="cls-1" d="m24.71,19.89c-1.54,0-2.8-1.25-2.8-2.8s1.25-2.8,2.8-2.8,2.8,1.25,2.8,2.8-1.25,2.8-2.8,2.8Zm0-4.59c-.99,0-1.79.8-1.79,1.79s.8,1.79,1.79,1.79,1.79-.8,1.79-1.79-.8-1.79-1.79-1.79Z"/>
          <path class="cls-1" d="m24.71,20.26c-1.75,0-3.17-1.42-3.17-3.17s1.42-3.17,3.17-3.17,3.17,1.42,3.17,3.17-1.42,3.17-3.17,3.17Zm0-5.59c-1.33,0-2.42,1.09-2.42,2.42s1.09,2.42,2.42,2.42,2.42-1.09,2.42-2.42-1.09-2.42-2.42-2.42Zm0,4.59c-1.19,0-2.17-.97-2.17-2.17s.97-2.17,2.17-2.17,2.17.97,2.17,2.17-.97,2.17-2.17,2.17Zm0-3.58c-.78,0-1.42.63-1.42,1.42s.63,1.42,1.42,1.42,1.42-.63,1.42-1.42-.63-1.42-1.42-1.42Z"/>
        </g>
        <g>
          <path class="cls-1" d="m24.71,27.07c-1.54,0-2.8-1.25-2.8-2.8s1.25-2.8,2.8-2.8,2.8,1.25,2.8,2.8-1.25,2.8-2.8,2.8Zm0-4.59c-.99,0-1.79.8-1.79,1.79s.8,1.79,1.79,1.79,1.79-.8,1.79-1.79-.8-1.79-1.79-1.79Z"/>
          <path class="cls-1" d="m24.71,27.44c-1.75,0-3.17-1.42-3.17-3.17s1.42-3.17,3.17-3.17,3.17,1.42,3.17,3.17-1.42,3.17-3.17,3.17Zm0-5.59c-1.33,0-2.42,1.09-2.42,2.42s1.09,2.42,2.42,2.42,2.42-1.09,2.42-2.42-1.09-2.42-2.42-2.42Zm0,4.59c-1.19,0-2.17-.97-2.17-2.17s.97-2.17,2.17-2.17,2.17.97,2.17,2.17-.97,2.17-2.17,2.17Zm0-3.58c-.78,0-1.42.63-1.42,1.42s.63,1.42,1.42,1.42,1.42-.63,1.42-1.42-.63-1.42-1.42-1.42Z"/>
        </g>
        <g>
          <path class="cls-1" d="m24.71,34.24c-1.54,0-2.8-1.25-2.8-2.8s1.25-2.8,2.8-2.8,2.8,1.25,2.8,2.8-1.25,2.8-2.8,2.8Zm0-4.59c-.99,0-1.79.8-1.79,1.79s.8,1.79,1.79,1.79,1.79-.8,1.79-1.79-.8-1.79-1.79-1.79Z"/>
          <path class="cls-1" d="m24.71,34.62c-1.75,0-3.17-1.42-3.17-3.17s1.42-3.17,3.17-3.17,3.17,1.42,3.17,3.17-1.42,3.17-3.17,3.17Zm0-5.59c-1.33,0-2.42,1.09-2.42,2.42s1.09,2.42,2.42,2.42,2.42-1.09,2.42-2.42-1.09-2.42-2.42-2.42Zm0,4.59c-1.19,0-2.17-.97-2.17-2.17s.97-2.17,2.17-2.17,2.17.97,2.17,2.17-.97,2.17-2.17,2.17Zm0-3.58c-.78,0-1.42.63-1.42,1.42s.63,1.42,1.42,1.42,1.42-.63,1.42-1.42-.63-1.42-1.42-1.42Z"/>
        </g>
        <g>
          <path class="cls-1" d="m24.71,41.42c-1.54,0-2.8-1.25-2.8-2.8s1.25-2.8,2.8-2.8,2.8,1.25,2.8,2.8-1.25,2.8-2.8,2.8Zm0-4.59c-.99,0-1.79.8-1.79,1.79s.8,1.79,1.79,1.79,1.79-.8,1.79-1.79-.8-1.79-1.79-1.79Z"/>
          <path class="cls-1" d="m24.71,41.79c-1.75,0-3.17-1.42-3.17-3.17s1.42-3.17,3.17-3.17,3.17,1.42,3.17,3.17-1.42,3.17-3.17,3.17Zm0-5.59c-1.33,0-2.42,1.09-2.42,2.42s1.09,2.42,2.42,2.42,2.42-1.09,2.42-2.42-1.09-2.42-2.42-2.42Zm0,4.59c-1.19,0-2.17-.97-2.17-2.17s.97-2.17,2.17-2.17,2.17.97,2.17,2.17-.97,2.17-2.17,2.17Zm0-3.58c-.78,0-1.42.63-1.42,1.42s.63,1.42,1.42,1.42,1.42-.63,1.42-1.42-.63-1.42-1.42-1.42Z"/>
        </g>
        <g>
          <path class="cls-1" d="m24.71,48.59c-1.54,0-2.8-1.25-2.8-2.8s1.25-2.8,2.8-2.8,2.8,1.25,2.8,2.8-1.25,2.8-2.8,2.8Zm0-4.59c-.99,0-1.79.8-1.79,1.79s.8,1.79,1.79,1.79,1.79-.8,1.79-1.79-.8-1.79-1.79-1.79Z"/>
          <path class="cls-1" d="m24.71,48.97c-1.75,0-3.17-1.42-3.17-3.17s1.42-3.17,3.17-3.17,3.17,1.42,3.17,3.17-1.42,3.17-3.17,3.17Zm0-5.59c-1.33,0-2.42,1.09-2.42,2.42s1.09,2.42,2.42,2.42,2.42-1.09,2.42-2.42-1.09-2.42-2.42-2.42Zm0,4.59c-1.19,0-2.17-.97-2.17-2.17s.97-2.17,2.17-2.17,2.17.97,2.17,2.17-.97,2.17-2.17,2.17Zm0-3.58c-.78,0-1.42.63-1.42,1.42s.63,1.42,1.42,1.42,1.42-.63,1.42-1.42-.63-1.42-1.42-1.42Z"/>
        </g>
      </g>
      <g>
        <g>
          <path class="cls-1" d="m13.8,19.89c-1.54,0-2.8-1.25-2.8-2.8s1.25-2.8,2.8-2.8,2.8,1.25,2.8,2.8-1.25,2.8-2.8,2.8Zm0-4.59c-.99,0-1.79.8-1.79,1.79s.8,1.79,1.79,1.79,1.79-.8,1.79-1.79-.8-1.79-1.79-1.79Z"/>
          <path class="cls-1" d="m13.8,20.26c-1.75,0-3.17-1.42-3.17-3.17s1.42-3.17,3.17-3.17,3.17,1.42,3.17,3.17-1.42,3.17-3.17,3.17Zm0-5.59c-1.33,0-2.42,1.09-2.42,2.42s1.09,2.42,2.42,2.42,2.42-1.09,2.42-2.42-1.09-2.42-2.42-2.42Zm0,4.59c-1.19,0-2.17-.97-2.17-2.17s.97-2.17,2.17-2.17,2.17.97,2.17,2.17-.97,2.17-2.17,2.17Zm0-3.58c-.78,0-1.42.63-1.42,1.42s.63,1.42,1.42,1.42,1.42-.63,1.42-1.42-.63-1.42-1.42-1.42Z"/>
        </g>
        <g>
          <path class="cls-1" d="m13.8,27.07c-1.54,0-2.8-1.25-2.8-2.8s1.25-2.8,2.8-2.8,2.8,1.25,2.8,2.8-1.25,2.8-2.8,2.8Zm0-4.59c-.99,0-1.79.8-1.79,1.79s.8,1.79,1.79,1.79,1.79-.8,1.79-1.79-.8-1.79-1.79-1.79Z"/>
          <path class="cls-1" d="m13.8,27.44c-1.75,0-3.17-1.42-3.17-3.17s1.42-3.17,3.17-3.17,3.17,1.42,3.17,3.17-1.42,3.17-3.17,3.17Zm0-5.59c-1.33,0-2.42,1.09-2.42,2.42s1.09,2.42,2.42,2.42,2.42-1.09,2.42-2.42-1.09-2.42-2.42-2.42Zm0,4.59c-1.19,0-2.17-.97-2.17-2.17s.97-2.17,2.17-2.17,2.17.97,2.17,2.17-.97,2.17-2.17,2.17Zm0-3.58c-.78,0-1.42.63-1.42,1.42s.63,1.42,1.42,1.42,1.42-.63,1.42-1.42-.63-1.42-1.42-1.42Z"/>
        </g>
        <g>
          <path class="cls-1" d="m13.8,34.24c-1.54,0-2.8-1.25-2.8-2.8s1.25-2.8,2.8-2.8,2.8,1.25,2.8,2.8-1.25,2.8-2.8,2.8Zm0-4.59c-.99,0-1.79.8-1.79,1.79s.8,1.79,1.79,1.79,1.79-.8,1.79-1.79-.8-1.79-1.79-1.79Z"/>
          <path class="cls-1" d="m13.8,34.62c-1.75,0-3.17-1.42-3.17-3.17s1.42-3.17,3.17-3.17,3.17,1.42,3.17,3.17-1.42,3.17-3.17,3.17Zm0-5.59c-1.33,0-2.42,1.09-2.42,2.42s1.09,2.42,2.42,2.42,2.42-1.09,2.42-2.42-1.09-2.42-2.42-2.42Zm0,4.59c-1.19,0-2.17-.97-2.17-2.17s.97-2.17,2.17-2.17,2.17.97,2.17,2.17-.97,2.17-2.17,2.17Zm0-3.58c-.78,0-1.42.63-1.42,1.42s.63,1.42,1.42,1.42,1.42-.63,1.42-1.42-.63-1.42-1.42-1.42Z"/>
        </g>
        <g>
          <path class="cls-1" d="m13.8,41.42c-1.54,0-2.8-1.25-2.8-2.8s1.25-2.8,2.8-2.8,2.8,1.25,2.8,2.8-1.25,2.8-2.8,2.8Zm0-4.59c-.99,0-1.79.8-1.79,1.79s.8,1.79,1.79,1.79,1.79-.8,1.79-1.79-.8-1.79-1.79-1.79Z"/>
          <path class="cls-1" d="m13.8,41.79c-1.75,0-3.17-1.42-3.17-3.17s1.42-3.17,3.17-3.17,3.17,1.42,3.17,3.17-1.42,3.17-3.17,3.17Zm0-5.59c-1.33,0-2.42,1.09-2.42,2.42s1.09,2.42,2.42,2.42,2.42-1.09,2.42-2.42-1.09-2.42-2.42-2.42Zm0,4.59c-1.19,0-2.17-.97-2.17-2.17s.97-2.17,2.17-2.17,2.17.97,2.17,2.17-.97,2.17-2.17,2.17Zm0-3.58c-.78,0-1.42.63-1.42,1.42s.63,1.42,1.42,1.42,1.42-.63,1.42-1.42-.63-1.42-1.42-1.42Z"/>
        </g>
        <g>
          <path class="cls-1" d="m13.8,48.59c-1.54,0-2.8-1.25-2.8-2.8s1.25-2.8,2.8-2.8,2.8,1.25,2.8,2.8-1.25,2.8-2.8,2.8Zm0-4.59c-.99,0-1.79.8-1.79,1.79s.8,1.79,1.79,1.79,1.79-.8,1.79-1.79-.8-1.79-1.79-1.79Z"/>
          <path class="cls-1" d="m13.8,48.97c-1.75,0-3.17-1.42-3.17-3.17s1.42-3.17,3.17-3.17,3.17,1.42,3.17,3.17-1.42,3.17-3.17,3.17Zm0-5.59c-1.33,0-2.42,1.09-2.42,2.42s1.09,2.42,2.42,2.42,2.42-1.09,2.42-2.42-1.09-2.42-2.42-2.42Zm0,4.59c-1.19,0-2.17-.97-2.17-2.17s.97-2.17,2.17-2.17,2.17.97,2.17,2.17-.97,2.17-2.17,2.17Zm0-3.58c-.78,0-1.42.63-1.42,1.42s.63,1.42,1.42,1.42,1.42-.63,1.42-1.42-.63-1.42-1.42-1.42Z"/>
        </g>
      </g>
    </g>
    <g>
      <path class="cls-1" d="m19.26,46.3c-.28,0-.5-.22-.5-.5v-29.17c0-.28.22-.5.5-.5s.5.22.5.5v29.17c0,.28-.22.5-.5.5Z"/>
      <path class="cls-1" d="m19.26,46.68c-.48,0-.88-.39-.88-.88v-29.17c0-.48.39-.88.88-.88s.88.39.88.88v29.17c0,.48-.39.88-.88.88Zm0-30.18c-.07,0-.13.06-.13.13v29.17c0,.14.25.14.25,0v-29.17c0-.07-.06-.13-.13-.13Z"/>
    </g>
  </g>
</svg>