<?xml version="1.0" encoding="UTF-8"?>
<svg id="Layer_1" data-name="Layer 1" xmlns="http://www.w3.org/2000/svg" viewBox="0 0 60 60">
  <defs>
    <style>
      .cls-1 {
        fill: #37464c;
        stroke-width: 0px;
      }
    </style>
  </defs>
  <g>
    <g>
      <path class="cls-1" d="m52.97,52.88h-27.53c-1.7,0-3.08-1.38-3.08-3.08,0-.33.27-.6.6-.6s.6.27.6.6c0,1.03.84,1.87,1.87,1.87h27.53c1.03,0,1.87-.84,1.87-1.87v-14.19c0-1.03-.84-1.87-1.87-1.87h-27.53c-1.03,0-1.87.84-1.87,1.87,0,.33-.27.6-.6.6s-.6-.27-.6-.6c0-1.7,1.38-3.08,3.08-3.08h27.53c1.7,0,3.08,1.38,3.08,3.08v14.19c0,1.7-1.38,3.08-3.08,3.08Z"/>
      <path class="cls-1" d="m52.97,53.26h-27.53c-1.9,0-3.45-1.55-3.45-3.45,0-.54.44-.98.98-.98s.98.44.98.98c0,.83.67,1.5,1.5,1.5h27.53c.83,0,1.5-.67,1.5-1.5v-14.19c0-.83-.67-1.5-1.5-1.5h-27.53c-.83,0-1.5.67-1.5,1.5,0,.54-.44.98-.98.98s-.98-.44-.98-.98c0-1.9,1.55-3.45,3.45-3.45h27.53c1.9,0,3.45,1.55,3.45,3.45v14.19c0,1.9-1.55,3.45-3.45,3.45Zm-30-3.68c-.12,0-.23.1-.23.23,0,1.49,1.21,2.7,2.7,2.7h27.53c1.49,0,2.7-1.21,2.7-2.7v-14.19c0-1.49-1.21-2.7-2.7-2.7h-27.53c-1.49,0-2.7,1.21-2.7,2.7,0,.25.45.25.45,0,0-1.24,1.01-2.25,2.25-2.25h27.53c1.24,0,2.25,1.01,2.25,2.25v14.19c0,1.24-1.01,2.25-2.25,2.25h-27.53c-1.24,0-2.25-1.01-2.25-2.25,0-.12-.1-.23-.23-.23Z"/>
    </g>
    <g>
      <path class="cls-1" d="m22.97,42.01c-.33,0-.6-.27-.6-.6v-3.19c0-.33.27-.6.6-.6s.6.27.6.6v3.19c0,.33-.27.6-.6.6Z"/>
      <path class="cls-1" d="m22.97,42.39c-.54,0-.98-.44-.98-.98v-3.19c0-.54.44-.98.98-.98s.98.44.98.98v3.19c0,.54-.44.98-.98.98Zm0-4.4c-.12,0-.23.1-.23.23v3.19c0,.25.45.25.45,0v-3.19c0-.12-.1-.23-.23-.23Z"/>
    </g>
    <g>
      <path class="cls-1" d="m22.97,47.8c-.33,0-.6-.27-.6-.6v-3.19c0-.33.27-.6.6-.6s.6.27.6.6v3.19c0,.33-.27.6-.6.6Z"/>
      <path class="cls-1" d="m22.97,48.18c-.54,0-.98-.44-.98-.98v-3.19c0-.54.44-.98.98-.98s.98.44.98.98v3.19c0,.54-.44.98-.98.98Zm0-4.4c-.12,0-.23.1-.23.23v3.19c0,.25.45.25.45,0v-3.19c0-.12-.1-.23-.23-.23Z"/>
    </g>
    <g>
      <path class="cls-1" d="m22.97,47.8c-.33,0-.6-.27-.6-.6v-3.19c0-.33.27-.6.6-.6s.6.27.6.6v3.19c0,.33-.27.6-.6.6Z"/>
      <path class="cls-1" d="m22.97,48.18c-.54,0-.98-.44-.98-.98v-3.19c0-.54.44-.98.98-.98s.98.44.98.98v3.19c0,.54-.44.98-.98.98Zm0-4.4c-.12,0-.23.1-.23.23v3.19c0,.25.45.25.45,0v-3.19c0-.12-.1-.23-.23-.23Z"/>
    </g>
    <g>
      <path class="cls-1" d="m22.97,42.01c-.33,0-.6-.27-.6-.6v-3.19c0-.33.27-.6.6-.6s.6.27.6.6v3.19c0,.33-.27.6-.6.6Z"/>
      <path class="cls-1" d="m22.97,42.39c-.54,0-.98-.44-.98-.98v-3.19c0-.54.44-.98.98-.98s.98.44.98.98v3.19c0,.54-.44.98-.98.98Zm0-4.4c-.12,0-.23.1-.23.23v3.19c0,.25.45.25.45,0v-3.19c0-.12-.1-.23-.23-.23Z"/>
    </g>
    <g>
      <path class="cls-1" d="m20.5,52.88h-8.03c-1.7,0-3.08-1.38-3.08-3.08v-14.19c0-1.7,1.38-3.08,3.08-3.08h8.03c1.7,0,3.08,1.38,3.08,3.08,0,.33-.27.6-.6.6s-.6-.27-.6-.6c0-1.03-.84-1.87-1.87-1.87h-8.03c-1.03,0-1.87.84-1.87,1.87v14.19c0,1.03.84,1.87,1.87,1.87h8.03c1.03,0,1.87-.84,1.87-1.87,0-.33.27-.6.6-.6s.6.27.6.6c0,1.7-1.38,3.08-3.08,3.08Z"/>
      <path class="cls-1" d="m20.5,53.26h-8.03c-1.9,0-3.45-1.55-3.45-3.45v-14.19c0-1.9,1.55-3.45,3.45-3.45h8.03c1.9,0,3.45,1.55,3.45,3.45,0,.54-.44.98-.98.98s-.98-.44-.98-.98c0-.83-.67-1.5-1.5-1.5h-8.03c-.83,0-1.5.67-1.5,1.5v14.19c0,.83.67,1.5,1.5,1.5h8.03c.83,0,1.5-.67,1.5-1.5,0-.54.44-.98.98-.98s.98.44.98.98c0,1.9-1.55,3.45-3.45,3.45Zm-8.03-20.35c-1.49,0-2.7,1.21-2.7,2.7v14.19c0,1.49,1.21,2.7,2.7,2.7h8.03c1.49,0,2.7-1.21,2.7-2.7,0-.25-.45-.25-.45,0,0,1.24-1.01,2.25-2.25,2.25h-8.03c-1.24,0-2.25-1.01-2.25-2.25v-14.19c0-1.24,1.01-2.25,2.25-2.25h8.03c1.24,0,2.25,1.01,2.25,2.25,0,.25.45.25.45,0,0-1.49-1.21-2.7-2.7-2.7h-8.03Z"/>
    </g>
    <g>
      <g>
        <path class="cls-1" d="m34.93,46.96h0c-.08-.08-.1-.2-.05-.3l.4-.77c.63-1.22,1.44-2.33,2.41-3.3l5.05-5.05c.44-.44,1.17-.44,1.61,0h0c.44.44.44,1.17,0,1.61l-5.06,5.06c-.98.98-2.11,1.8-3.34,2.43l-.72.37c-.1.05-.22.03-.3-.05Z"/>
        <path class="cls-1" d="m35.12,47.41c-.16,0-.33-.06-.45-.19-.2-.2-.24-.49-.12-.74l.4-.77c.65-1.25,1.48-2.4,2.48-3.4l5.05-5.05c.59-.59,1.55-.59,2.14,0,.59.59.59,1.55,0,2.14l-5.06,5.06c-1.01,1.01-2.17,1.85-3.43,2.5l-.72.37c-.09.05-.19.07-.29.07Zm8.43-9.83c-.2,0-.39.07-.54.22l-5.05,5.05c-.94.94-1.73,2.02-2.34,3.21l-.23.45.41-.21c1.2-.61,2.29-1.41,3.25-2.36l5.06-5.06c.3-.3.3-.78,0-1.08-.15-.15-.34-.22-.54-.22Z"/>
      </g>
      <g>
        <path class="cls-1" d="m36.36,44.14h-2.4c-.58,0-.86.7-.46,1.1l1.64.91"/>
        <path class="cls-1" d="m34.96,46.48l-1.72-.97c-.3-.3-.38-.72-.22-1.11.16-.39.52-.63.94-.63h2.4v.75h-2.4c-.16,0-.23.12-.25.17-.02.05-.05.16.03.26l1.58.88-.37.65Z"/>
      </g>
      <g>
        <path class="cls-1" d="m37.81,45.59v2.4c0,.58-.7.86-1.1.46l-.91-1.64"/>
        <path class="cls-1" d="m37.16,49.01c-.26,0-.52-.1-.72-.3l-.06-.08-.91-1.63.65-.37.88,1.58c.11.08.22.05.26.03.05-.02.17-.09.17-.25v-2.4h.75v2.4c0,.42-.24.78-.63.94-.13.05-.26.08-.4.08Z"/>
      </g>
      <g>
        <path class="cls-1" d="m40.45,39.83l-4.74-2.94c-.27-.17-.62-.13-.86.09h0c-.29.27-.3.73-.02,1.02l3.72,3.73"/>
        <path class="cls-1" d="m38.29,41.99l-3.72-3.73c-.21-.21-.32-.49-.32-.78s.13-.57.34-.77c.36-.33.9-.39,1.31-.13l4.74,2.94-.39.64-4.74-2.94c-.13-.08-.29-.06-.4.04-.07.06-.1.15-.11.24,0,.09.03.18.1.24l3.72,3.73-.53.53Z"/>
      </g>
      <g>
        <path class="cls-1" d="m42.06,41.44l2.94,4.74c.17.27.13.62-.09.86h0c-.27.29-.73.3-1.02.02l-3.73-3.73"/>
        <path class="cls-1" d="m44.39,47.64c-.29,0-.56-.11-.77-.32l-3.73-3.72.53-.53,3.73,3.73c.06.07.18.11.24.1.09,0,.18-.04.24-.1.1-.11.12-.28.04-.4l-2.94-4.74.64-.39,2.94,4.74c.26.42.2.95-.13,1.31-.2.22-.48.34-.77.34h-.02Z"/>
      </g>
    </g>
  </g>
  <g>
    <g>
      <path class="cls-1" d="m50.94,33.73s-.07,0-.11-.01c-.33-.06-.54-.37-.48-.7.07-.38.02-.77-.14-1.13l-6-12.86c-.21-.45-.59-.8-1.06-.97-.47-.17-.98-.15-1.43.06l-24.95,11.63c-.94.44-1.34,1.55-.91,2.49.14.3.01.66-.29.8-.3.14-.66.01-.8-.29-.72-1.54-.05-3.37,1.49-4.09l24.95-11.63c.74-.35,1.58-.38,2.35-.1.77.28,1.39.85,1.74,1.59l6,12.86c.27.58.35,1.23.24,1.86-.05.29-.31.49-.59.49Z"/>
      <path class="cls-1" d="m50.94,34.11c-.06,0-.12,0-.18-.02-.53-.1-.88-.61-.78-1.14.06-.31.02-.62-.12-.9l-6-12.86c-.17-.36-.47-.64-.84-.77-.38-.14-.78-.12-1.15.05l-24.95,11.63c-.36.17-.64.47-.77.84-.14.38-.12.78.05,1.15.11.24.12.5.03.75-.09.25-.27.44-.5.55-.49.23-1.07.01-1.3-.47-.8-1.73-.06-3.78,1.67-4.59l24.95-11.63c.83-.39,1.77-.43,2.64-.12.87.32,1.56.95,1.95,1.79l6,12.86c.31.66.4,1.38.27,2.08-.09.46-.49.8-.96.8Zm-8.43-16.54c.26,0,.52.05.77.14.56.21,1.01.62,1.27,1.16l6,12.86c.2.43.26.89.17,1.35-.01.06,0,.12.04.17.04.05.09.08.15.09h.04c.11,0,.2-.07.22-.18.1-.55.03-1.12-.21-1.63l-6-12.86c-.3-.65-.85-1.15-1.52-1.4-.68-.25-1.41-.22-2.07.09l-24.95,11.63c-1.35.63-1.93,2.24-1.31,3.59.05.11.19.16.3.11.11-.05.16-.19.11-.3-.25-.54-.28-1.15-.07-1.72.21-.56.62-1.01,1.16-1.27l24.95-11.63c.3-.14.62-.21.95-.21Z"/>
    </g>
    <g>
      <path class="cls-1" d="m11.48,52.86s-.05,0-.08,0c-1.05-.14-1.95-.79-2.39-1.75l-6-12.86c-.72-1.54-.05-3.37,1.49-4.09l7.28-3.39c.75-.35,1.58-.38,2.35-.1.77.28,1.39.85,1.74,1.59.14.3.01.66-.29.8-.3.14-.66.01-.8-.29-.21-.45-.59-.8-1.06-.97-.47-.17-.98-.15-1.43.06l-7.28,3.4c-.94.44-1.34,1.55-.91,2.49l6,12.86c.27.58.82.98,1.46,1.07.33.04.56.34.52.67-.04.3-.3.52-.6.52Z"/>
      <path class="cls-1" d="m11.48,53.24h-.12c-1.19-.16-2.19-.9-2.69-1.97l-6-12.86c-.8-1.73-.05-3.78,1.67-4.59l7.28-3.39c.83-.39,1.77-.43,2.64-.12.87.32,1.56.95,1.95,1.79.11.24.12.5.03.75-.09.25-.27.44-.5.55-.49.23-1.07.01-1.3-.47-.17-.36-.47-.64-.84-.78-.38-.14-.78-.12-1.14.05l-7.28,3.4c-.75.35-1.07,1.24-.72,1.99l6,12.86c.22.47.65.79,1.17.85.26.03.49.17.65.37s.23.46.19.72c-.06.49-.48.85-.97.85Zm1.6-22.39c-.39,0-.78.08-1.14.25l-7.28,3.39c-.65.3-1.15.85-1.4,1.52-.25.68-.22,1.41.09,2.07l6,12.86c.39.84,1.18,1.42,2.1,1.54h.03c.11,0,.21-.08.22-.2,0-.06,0-.12-.04-.17-.04-.05-.09-.08-.15-.09-.77-.1-1.42-.58-1.75-1.28l-6-12.86c-.25-.54-.28-1.15-.07-1.72.21-.56.62-1.01,1.16-1.27l7.28-3.4c.54-.25,1.16-.28,1.72-.08.56.21,1.01.62,1.27,1.16.05.12.19.16.3.11.11-.05.16-.19.11-.3-.3-.65-.85-1.15-1.52-1.4-.3-.11-.61-.16-.92-.16Z"/>
    </g>
  </g>
</svg>