<?xml version="1.0" encoding="UTF-8"?>
<svg id="Layer_1" data-name="Layer 1" xmlns="http://www.w3.org/2000/svg" viewBox="0 0 60 60">
  <defs>
    <style>
      .cls-1 {
        fill: #37464c;
        stroke-width: 0px;
      }
    </style>
  </defs>
  <g>
    <g>
      <path class="cls-1" d="m45.11,51.56H10.18c-1.25,0-2.26-1.01-2.26-2.26V14.37c0-1.25,1.01-2.26,2.26-2.26h34.93c1.25,0,2.26,1.01,2.26,2.26v34.93c0,1.25-1.01,2.26-2.26,2.26ZM10.18,13.12c-.69,0-1.25.56-1.25,1.25v34.93c0,.69.56,1.25,1.25,1.25h34.93c.69,0,1.25-.56,1.25-1.25V14.37c0-.69-.56-1.25-1.25-1.25H10.18Z"/>
      <path class="cls-1" d="m45.11,51.94H10.18c-1.45,0-2.64-1.18-2.64-2.64V14.37c0-1.45,1.18-2.64,2.64-2.64h34.93c1.45,0,2.64,1.18,2.64,2.64v34.93c0,1.45-1.18,2.64-2.64,2.64ZM10.18,12.48c-1.04,0-1.89.85-1.89,1.89v34.93c0,1.04.85,1.89,1.89,1.89h34.93c1.04,0,1.89-.85,1.89-1.89V14.37c0-1.04-.85-1.89-1.89-1.89H10.18Zm34.93,38.44H10.18c-.89,0-1.62-.73-1.62-1.62V14.37c0-.89.73-1.62,1.62-1.62h34.93c.89,0,1.62.73,1.62,1.62v34.93c0,.89-.73,1.62-1.62,1.62ZM10.18,13.5c-.48,0-.87.39-.87.87v34.93c0,.48.39.87.87.87h34.93c.48,0,.87-.39.87-.87V14.37c0-.48-.39-.87-.87-.87H10.18Z"/>
    </g>
    <g>
      <path class="cls-1" d="m30.51,51.56h-5.74c-.28,0-.51-.23-.51-.51V12.61c0-.28.23-.51.51-.51h5.74c.28,0,.51.23.51.51v38.44c0,.28-.23.51-.51.51Zm-5.23-1.02h4.72V13.12h-4.72v37.43Z"/>
      <path class="cls-1" d="m30.51,51.94h-5.74c-.49,0-.88-.4-.88-.88V12.61c0-.49.4-.88.88-.88h5.74c.49,0,.88.4.88.88v38.44c0,.49-.4.88-.88.88Zm-5.74-39.46c-.07,0-.13.06-.13.13v38.44c0,.07.06.13.13.13h5.74c.07,0,.13-.06.13-.13V12.61c0-.07-.06-.13-.13-.13h-5.74Zm5.6,38.44h-5.47V12.75h5.47v38.18Zm-4.72-.75h3.97V13.5h-3.97v36.68Z"/>
    </g>
    <g>
      <path class="cls-1" d="m21.37,25.2h-9.63c-.28,0-.51-.23-.51-.51v-7.4c0-.28.23-.51.51-.51h9.63c.28,0,.51.23.51.51v7.4c0,.28-.23.51-.51.51Zm-9.12-1.02h8.62v-6.39h-8.62v6.39Z"/>
      <path class="cls-1" d="m21.37,25.58h-9.63c-.49,0-.88-.4-.88-.88v-7.4c0-.49.4-.88.88-.88h9.63c.49,0,.88.4.88.88v7.4c0,.49-.4.88-.88.88Zm-9.63-8.42c-.07,0-.13.06-.13.13v7.4c0,.07.06.13.13.13h9.63c.07,0,.13-.06.13-.13v-7.4c0-.07-.06-.13-.13-.13h-9.63Zm9.5,7.4h-9.37v-7.14h9.37v7.14Zm-8.62-.75h7.87v-5.64h-7.87v5.64Z"/>
    </g>
    <g>
      <g>
        <path class="cls-1" d="m36.6,47.92c0,.46-.37.83-.83.83s-.83-.37-.83-.83.37-.83.83-.83.83.37.83.83Z"/>
        <path class="cls-1" d="m35.76,49.12c-.67,0-1.21-.54-1.21-1.21s.54-1.21,1.21-1.21,1.21.54,1.21,1.21-.54,1.21-1.21,1.21Zm0-1.67c-.25,0-.46.21-.46.46s.21.46.46.46.46-.21.46-.46-.21-.46-.46-.46Z"/>
      </g>
      <g>
        <circle class="cls-1" cx="38.97" cy="47.92" r=".83"/>
        <path class="cls-1" d="m38.97,49.12c-.67,0-1.21-.54-1.21-1.21s.54-1.21,1.21-1.21,1.21.54,1.21,1.21-.54,1.21-1.21,1.21Zm0-1.67c-.25,0-.46.21-.46.46s.21.46.46.46.46-.21.46-.46-.21-.46-.46-.46Z"/>
      </g>
      <g>
        <circle class="cls-1" cx="42.17" cy="47.92" r=".83"/>
        <path class="cls-1" d="m42.17,49.12c-.67,0-1.21-.54-1.21-1.21s.54-1.21,1.21-1.21,1.21.54,1.21,1.21-.54,1.21-1.21,1.21Zm0-1.67c-.25,0-.46.21-.46.46s.21.46.46.46.46-.21.46-.46-.21-.46-.46-.46Z"/>
      </g>
    </g>
  </g>
  <g>
    <g>
      <path class="cls-1" d="m47.11,46.97c-.28,0-.51-.23-.51-.51s.23-.51.51-.51c.03,0,2.68,0,2.78,0,.65-.03,1.18-.58,1.18-1.24V9.77c0-.69-.56-1.25-1.25-1.25H14.89c-.69,0-1.25.56-1.25,1.25v2.72c0,.28-.23.51-.51.51s-.51-.23-.51-.51v-2.72c0-1.25,1.01-2.26,2.26-2.26h34.93c1.25,0,2.26,1.01,2.26,2.26v34.93c0,1.21-.95,2.21-2.16,2.26-.04,0-2.78,0-2.81,0Z"/>
      <path class="cls-1" d="m47.11,47.34c-.49,0-.88-.4-.88-.88s.4-.88.88-.88c.03,0,2.66,0,2.77,0,.45-.02.81-.4.81-.87V9.77c0-.48-.39-.87-.87-.87H14.89c-.48,0-.87.39-.87.87v2.71c0,.49-.4.88-.88.88s-.88-.4-.88-.88v-2.71c0-1.45,1.18-2.64,2.64-2.64h34.93c1.45,0,2.64,1.18,2.64,2.64v34.93c0,1.42-1.11,2.57-2.52,2.63-.03,0-.99,0-2.83,0ZM14.89,8.15h34.93c.89,0,1.62.73,1.62,1.62v34.93c0,.87-.67,1.58-1.54,1.62-.11,0-2.77,0-2.8,0-.07,0-.13.06-.13.13s.06.13.13.13c.02,0,2.69,0,2.8,0,1-.04,1.8-.87,1.8-1.88V9.77c0-1.04-.85-1.89-1.89-1.89H14.89c-1.04,0-1.89.85-1.89,1.89v2.71c0,.15.27.15.27,0v-2.71c0-.89.73-1.62,1.62-1.62Z"/>
    </g>
    <g>
      <path class="cls-1" d="m35.22,13.08h-5.74c-.28,0-.51-.23-.51-.51v-4.55c0-.28.23-.51.51-.51h5.74c.28,0,.51.23.51.51v4.55c0,.28-.23.51-.51.51Zm-5.23-1.02h4.72v-3.54h-4.72v3.54Z"/>
      <path class="cls-1" d="m35.22,13.45h-5.74c-.49,0-.88-.4-.88-.88v-4.55c0-.49.4-.88.88-.88h5.74c.49,0,.88.4.88.88v4.55c0,.49-.4.88-.88.88Zm-5.74-5.57c-.07,0-.13.06-.13.13v4.55c0,.07.06.13.13.13h5.74c.07,0,.13-.06.13-.13v-4.55c0-.07-.06-.13-.13-.13h-5.74Zm5.6,4.55h-5.47v-4.29h5.47v4.29Zm-4.72-.75h3.97v-2.79h-3.97v2.79Z"/>
    </g>
  </g>
</svg>