<?xml version="1.0" encoding="UTF-8"?>
<svg id="Layer_1" data-name="Layer 1" xmlns="http://www.w3.org/2000/svg" viewBox="0 0 60 60">
  <defs>
    <style>
      .cls-1 {
        fill: #37464c;
        stroke-width: 0px;
      }
    </style>
  </defs>
  <g>
    <path class="cls-1" d="m30,53.43c-12.41,0-22.51-10.1-22.51-22.51S17.59,8.4,30,8.4s22.51,10.1,22.51,22.51-10.1,22.51-22.51,22.51Zm0-44.03c-11.86,0-21.51,9.65-21.51,21.51s9.65,21.51,21.51,21.51,21.51-9.65,21.51-21.51-9.65-21.51-21.51-21.51Z"/>
    <path class="cls-1" d="m30,53.8c-12.62,0-22.89-10.27-22.89-22.89S17.38,8.02,30,8.02s22.89,10.27,22.89,22.89-10.27,22.89-22.89,22.89Zm0-45.03c-12.21,0-22.14,9.93-22.14,22.14s9.93,22.14,22.14,22.14,22.14-9.93,22.14-22.14-9.93-22.14-22.14-22.14Zm0,44.02c-12.07,0-21.89-9.82-21.89-21.88S17.93,9.03,30,9.03s21.89,9.82,21.89,21.89-9.82,21.88-21.89,21.88Zm0-43.02c-11.65,0-21.14,9.48-21.14,21.14s9.48,21.13,21.14,21.13,21.14-9.48,21.14-21.13-9.48-21.14-21.14-21.14Z"/>
  </g>
  <g>
    <path class="cls-1" d="m32.28,38.86c-6.98,0-12.65-5.68-12.65-12.65s5.68-12.65,12.65-12.65,12.65,5.68,12.65,12.65-5.68,12.65-12.65,12.65Zm0-24.3c-6.42,0-11.65,5.23-11.65,11.65s5.23,11.65,11.65,11.65,11.65-5.23,11.65-11.65-5.23-11.65-11.65-11.65Z"/>
    <path class="cls-1" d="m32.28,39.24c-7.18,0-13.03-5.84-13.03-13.03s5.84-13.03,13.03-13.03,13.03,5.84,13.03,13.03-5.84,13.03-13.03,13.03Zm0-25.31c-6.77,0-12.28,5.51-12.28,12.28s5.51,12.28,12.28,12.28,12.28-5.51,12.28-12.28-5.51-12.28-12.28-12.28Zm0,24.3c-6.63,0-12.02-5.39-12.02-12.02s5.39-12.02,12.02-12.02,12.02,5.39,12.02,12.02-5.39,12.02-12.02,12.02Zm0-23.3c-6.22,0-11.27,5.06-11.27,11.27s5.06,11.27,11.27,11.27,11.27-5.06,11.27-11.27-5.06-11.27-11.27-11.27Z"/>
  </g>
  <g>
    <path class="cls-1" d="m31.19,33.21c-.11-.4.11-.83.51-.96.23-.08.49-.18.79-.29,1.05-.45,1.96-1.18,2.55-2.15.69-1.09,1.02-2.49.83-4.22l-.06.02c-.51,1.16-1.48,2.02-2.87,2.4-2.51.69-4.63-.76-5.29-3.14-.72-2.64.55-5.48,3.41-6.26,2.85-.78,5.25,1.06,6.22,4.62.84,3.07.4,5.49-.61,7.2-.79,1.34-2.09,2.39-3.54,2.98-.32.14-.62.26-.9.35-.43.15-.9-.11-1.02-.55h0Zm-1.72-8.98c.48,1.74,1.86,2.67,3.49,2.23,1.27-.35,2.08-1.24,2.35-2.21.06-.2.07-.43-.02-.73-.65-2.38-2.03-3.96-4-3.42-1.61.44-2.36,2.17-1.82,4.14Z"/>
    <path class="cls-1" d="m31.95,34.17c-.19,0-.38-.05-.55-.14-.28-.15-.5-.42-.58-.73-.16-.6.17-1.22.75-1.42.23-.08.48-.17.77-.28,1.01-.43,1.83-1.12,2.36-1.99.52-.82.8-1.77.83-2.85-.61.77-1.46,1.32-2.51,1.61-2.59.71-5.01-.72-5.75-3.4-.82-2.98.8-5.93,3.67-6.72,1.51-.42,2.94-.16,4.14.74,1.16.87,2.04,2.3,2.54,4.14.99,3.61.19,6.07-.65,7.49-.81,1.38-2.13,2.49-3.73,3.13-.32.14-.63.26-.92.36-.12.04-.25.06-.37.06Zm4.17-9.04l.11.42c.2,1.73-.1,3.23-.89,4.46-.61,1-1.55,1.79-2.72,2.29-.31.12-.58.22-.81.3-.21.07-.32.29-.27.51h0c.03.11.11.21.21.26.1.05.22.06.33.03.27-.09.56-.2.87-.34,1.44-.58,2.66-1.6,3.37-2.82.77-1.3,1.49-3.55.58-6.91-.46-1.67-1.24-2.97-2.27-3.73-1.01-.75-2.21-.97-3.49-.62-2.51.69-3.86,3.18-3.14,5.8.63,2.3,2.62,3.48,4.83,2.88,1.23-.34,2.14-1.09,2.63-2.19l.07-.16.59-.16Zm-3.96,1.81c-.57,0-1.1-.16-1.58-.47-.7-.46-1.21-1.2-1.47-2.15h0c-.28-1.04-.24-2.07.12-2.89.38-.86,1.07-1.46,1.96-1.71,1.06-.29,2.04-.05,2.85.7.7.65,1.26,1.68,1.61,2.98.09.34.1.65.01.94-.32,1.18-1.3,2.11-2.61,2.46-.31.08-.61.13-.9.13Zm-.12-6.58c-.21,0-.43.03-.65.09-.67.18-1.18.63-1.47,1.28-.29.67-.32,1.52-.09,2.4h0c.21.77.61,1.36,1.16,1.72.54.35,1.19.43,1.88.25,1.05-.29,1.83-1.01,2.08-1.95.05-.16.04-.33-.02-.54-.32-1.17-.8-2.08-1.4-2.63-.44-.41-.94-.62-1.49-.62Z"/>
  </g>
</svg>