<?xml version="1.0" encoding="UTF-8"?>
<svg id="Layer_1" data-name="Layer 1" xmlns="http://www.w3.org/2000/svg" viewBox="0 0 60 60">
  <defs>
    <style>
      .cls-1 {
        fill: #37464c;
        stroke-width: 0px;
      }
    </style>
  </defs>
  <g>
    <g>
      <path class="cls-1" d="m55.76,40.45c-.06,0-.13-.01-.19-.03l-5.5-1.97c-1.75-.63-3.68-.63-5.43,0l-2.59.93c-2,.72-4.2.72-6.21,0l-2.59-.93c-1.75-.63-3.68-.63-5.43,0l-2.59.93c-2,.72-4.2.72-6.21,0l-2.59-.93c-1.75-.63-3.68-.63-5.43,0l-5.5,1.97c-.3.11-.63-.05-.74-.35s.05-.63.35-.74l5.5-1.97c2-.72,4.2-.72,6.21,0l2.59.93c1.75.63,3.68.63,5.43,0l2.59-.93c2-.72,4.2-.72,6.21,0l2.59.93c1.75.63,3.68.63,5.43,0l2.59-.93c2-.72,4.2-.72,6.21,0l5.5,1.97c.3.11.45.44.35.74-.08.23-.31.38-.54.38Z"/>
      <path class="cls-1" d="m5.3,40.83c-.14,0-.28-.03-.4-.09-.23-.11-.41-.3-.49-.54-.08-.24-.07-.5.04-.72s.3-.4.54-.49l5.5-1.97c2.08-.75,4.38-.75,6.46,0l2.59.93c1.67.6,3.51.6,5.18,0l2.59-.93c2.08-.75,4.38-.75,6.46,0l2.59.93c1.67.6,3.51.6,5.18,0l2.59-.93c2.08-.75,4.38-.75,6.46,0l5.5,1.97c.24.08.43.26.54.49s.12.49.03.73c-.17.48-.74.75-1.22.57l-5.5-1.97c-1.67-.6-3.51-.6-5.18,0l-2.59.93c-2.08.75-4.38.75-6.46,0l-2.59-.93c-1.67-.6-3.51-.6-5.18,0l-2.59.93c-2.08.75-4.38.75-6.46,0l-2.59-.93c-1.67-.6-3.51-.6-5.18,0l-5.5,1.97c-.1.04-.21.06-.32.06Zm8.41-3.63c-1.01,0-2.02.17-2.98.52l-5.5,1.97c-.05.02-.09.06-.11.1s-.03.1,0,.15c.03.07.08.1.1.12.03.01.08.03.15,0l5.5-1.97c1.83-.65,3.85-.65,5.68,0l2.59.93c1.92.69,4.03.69,5.95,0l2.59-.93c1.83-.66,3.85-.66,5.68,0l2.59.93c1.92.69,4.03.69,5.95,0l2.59-.93c1.83-.66,3.85-.66,5.68,0l5.57,1.98c.08,0,.16-.05.19-.13.02-.05.02-.11,0-.15s-.06-.08-.11-.1l-5.5-1.97c-1.92-.69-4.03-.69-5.95,0l-2.59.93c-1.83.66-3.85.66-5.68,0l-2.59-.93c-1.92-.69-4.03-.69-5.95,0l-2.59.93c-1.83.66-3.85.66-5.68,0l-2.59-.93c-.96-.34-1.97-.52-2.98-.52Z"/>
    </g>
    <g>
      <path class="cls-1" d="m55.76,44.82c-.06,0-.13-.01-.19-.03l-5.5-1.97c-1.75-.63-3.68-.63-5.43,0l-2.59.93c-2,.72-4.2.72-6.21,0l-2.59-.93c-1.75-.63-3.68-.63-5.43,0l-2.59.93c-2,.72-4.2.72-6.21,0l-2.59-.93c-1.75-.63-3.68-.63-5.43,0l-5.5,1.97c-.3.11-.63-.05-.74-.35-.11-.3.05-.63.35-.74l5.5-1.97c2-.72,4.2-.72,6.21,0l2.59.93c1.75.63,3.68.63,5.43,0l2.59-.93c2-.72,4.2-.72,6.21,0l2.59.93c1.75.63,3.68.63,5.43,0l2.59-.93c2-.72,4.2-.72,6.21,0l5.5,1.97c.3.11.45.44.35.74-.08.23-.31.38-.54.38Z"/>
      <path class="cls-1" d="m5.3,45.19c-.14,0-.28-.03-.41-.09-.23-.11-.4-.3-.49-.54-.18-.49.08-1.04.57-1.21l5.5-1.97c2.08-.75,4.38-.75,6.46,0l2.59.93c1.67.6,3.51.6,5.18,0l2.59-.93c2.08-.75,4.37-.75,6.46,0l2.59.93c1.67.6,3.51.6,5.18,0l2.59-.93c2.08-.75,4.37-.75,6.46,0l5.5,1.97c.49.18.75.72.57,1.22-.17.48-.73.74-1.21.58l-5.5-1.97c-1.67-.6-3.51-.6-5.18,0l-2.59.93c-2.08.75-4.38.75-6.46,0l-2.59-.93c-1.67-.6-3.51-.6-5.18,0l-2.59.93c-2.08.75-4.38.75-6.46,0l-2.59-.93c-1.67-.6-3.51-.6-5.18,0l-5.5,1.97c-.1.04-.21.06-.32.06Zm8.41-3.63c-1.01,0-2.02.17-2.98.52l-5.5,1.97s-.09.05-.11.1c-.02.05-.03.1,0,.15.02.07.08.1.1.11s.09.03.15,0l5.5-1.97c1.83-.66,3.85-.66,5.68,0l2.59.93c1.92.69,4.03.69,5.95,0l2.59-.93c1.83-.66,3.85-.66,5.68,0l2.59.93c1.92.69,4.03.69,5.95,0l2.59-.93c1.83-.66,3.85-.66,5.68,0l5.57,1.98c.08,0,.16-.05.19-.13.02-.05.02-.1,0-.15-.02-.05-.06-.08-.11-.1l-5.5-1.97c-1.92-.69-4.03-.69-5.95,0l-2.59.93c-1.83.65-3.85.65-5.68,0l-2.59-.93c-1.92-.69-4.04-.69-5.95,0l-2.59.93c-1.83.65-3.85.65-5.68,0l-2.59-.93c-.96-.34-1.97-.52-2.98-.52Z"/>
    </g>
    <g>
      <path class="cls-1" d="m5.3,49.18c-.24,0-.46-.15-.54-.38-.11-.3.05-.63.35-.74l5.5-1.97c2-.72,4.2-.72,6.21,0l2.59.93c1.75.63,3.68.63,5.43,0l2.59-.93c2-.72,4.2-.72,6.21,0l2.59.93c1.75.63,3.68.63,5.43,0l2.59-.93c2-.72,4.2-.72,6.21,0l5.5,1.97c.3.11.45.44.35.74-.11.3-.44.45-.74.35l-5.5-1.97c-1.75-.63-3.68-.63-5.43,0l-2.59.93c-2,.72-4.2.72-6.21,0l-2.59-.93c-1.75-.63-3.68-.63-5.43,0l-2.59.93c-2,.72-4.2.72-6.21,0l-2.59-.93c-1.75-.63-3.68-.63-5.43,0l-5.5,1.97c-.06.02-.13.03-.19.03Z"/>
      <path class="cls-1" d="m5.3,49.56c-.4,0-.76-.25-.89-.63-.08-.24-.07-.5.04-.73.11-.23.3-.4.54-.49l5.5-1.97c2.09-.75,4.38-.75,6.46,0l2.59.93c1.67.6,3.51.6,5.18,0l2.59-.93c2.08-.75,4.38-.75,6.46,0l2.59.93c1.67.6,3.51.6,5.18,0l2.59-.93c2.08-.75,4.38-.75,6.46,0l5.5,1.97c.24.08.43.26.54.49.11.23.12.49.04.73-.08.24-.26.43-.49.54-.23.11-.49.12-.73.04l-5.5-1.97c-1.67-.6-3.51-.6-5.18,0l-2.59.93c-2.08.75-4.38.75-6.46,0l-2.59-.93c-1.67-.6-3.51-.6-5.18,0l-2.59.93c-2.08.75-4.38.75-6.46,0l-2.59-.93c-1.67-.6-3.51-.6-5.18,0l-5.5,1.97c-.1.04-.21.06-.32.06Zm8.41-3.63c-1.01,0-2.02.17-2.98.52l-5.5,1.97c-.05.02-.09.05-.11.1-.02.05-.03.1,0,.15.04.1.15.16.25.12l5.5-1.97c1.83-.66,3.85-.66,5.68,0l2.59.93c1.92.69,4.03.69,5.95,0l2.59-.93c1.83-.66,3.85-.66,5.68,0l2.59.93c1.92.69,4.03.69,5.95,0l2.59-.93c1.83-.66,3.85-.66,5.68,0l5.5,1.97s.1.02.15,0c.03-.01.08-.04.1-.11.02-.05.02-.11,0-.15-.02-.05-.06-.08-.11-.1l-5.5-1.97c-1.92-.69-4.03-.69-5.95,0l-2.59.93c-1.83.66-3.85.66-5.68,0l-2.59-.93c-1.92-.69-4.03-.69-5.95,0l-2.59.93c-1.83.66-3.85.66-5.68,0l-2.59-.93c-.96-.34-1.97-.52-2.98-.52Z"/>
    </g>
  </g>
  <g>
    <g>
      <path class="cls-1" d="m24.28,39.32c-.32,0-.58-.26-.58-.58V15.37c0-.32.26-.58.58-.58s.58.26.58.58v23.38c0,.32-.26.58-.58.58Z"/>
      <path class="cls-1" d="m24.28,39.7c-.52,0-.95-.43-.95-.95V15.37c0-.52.43-.95.95-.95s.95.43.95.95v23.38c0,.52-.43.95-.95.95Zm0-24.53c-.11,0-.2.09-.2.2v23.38c0,.22.4.22.4,0V15.37c0-.11-.09-.2-.2-.2Z"/>
    </g>
    <g>
      <path class="cls-1" d="m35.88,38.99c-.32,0-.58-.26-.58-.58V15.37c0-.32.26-.58.58-.58s.58.26.58.58v23.05c0,.32-.26.58-.58.58Z"/>
      <path class="cls-1" d="m35.88,39.36c-.52,0-.95-.43-.95-.95V15.37c0-.52.43-.95.95-.95s.95.43.95.95v23.05c0,.52-.43.95-.95.95Zm0-24.2c-.11,0-.2.09-.2.2v23.05c0,.22.4.22.4,0V15.37c0-.11-.09-.2-.2-.2Z"/>
    </g>
    <g>
      <path class="cls-1" d="m35.88,26.54h-11.6c-.32,0-.58-.26-.58-.58s.26-.58.58-.58h11.6c.32,0,.58.26.58.58s-.26.58-.58.58Z"/>
      <path class="cls-1" d="m35.88,26.91h-11.6c-.52,0-.95-.43-.95-.95s.43-.95.95-.95h11.6c.52,0,.95.43.95.95s-.43.95-.95.95Zm-11.6-1.15c-.11,0-.2.09-.2.2s.09.2.2.2h11.6c.11,0,.2-.09.2-.2s-.09-.2-.2-.2h-11.6Z"/>
    </g>
    <g>
      <path class="cls-1" d="m35.88,34.44h-11.6c-.32,0-.58-.26-.58-.58s.26-.58.58-.58h11.6c.32,0,.58.26.58.58s-.26.58-.58.58Z"/>
      <path class="cls-1" d="m35.88,34.82h-11.6c-.52,0-.95-.43-.95-.95s.43-.95.95-.95h11.6c.52,0,.95.43.95.95s-.43.95-.95.95Zm-11.6-1.15c-.11,0-.2.09-.2.2s.09.2.2.2h11.6c.11,0,.2-.09.2-.2s-.09-.2-.2-.2h-11.6Z"/>
    </g>
    <g>
      <path class="cls-1" d="m19.12,19.3c-.32,0-.58-.26-.58-.58v-3.36c0-1.74,1.42-3.15,3.15-3.15s3.15,1.42,3.15,3.15c0,.32-.26.58-.58.58s-.58-.26-.58-.58c0-1.1-.9-2-2-2s-2,.9-2,2v3.36c0,.32-.26.58-.58.58Z"/>
      <path class="cls-1" d="m19.12,19.68c-.52,0-.95-.43-.95-.95v-3.36c0-1.95,1.58-3.53,3.53-3.53s3.53,1.58,3.53,3.53c0,.52-.43.95-.95.95s-.95-.43-.95-.95c0-.9-.73-1.63-1.63-1.63s-1.63.73-1.63,1.63v3.36c0,.52-.43.95-.95.95Zm2.58-7.09c-1.53,0-2.78,1.25-2.78,2.78v3.36c0,.22.4.22.4,0v-3.36c0-1.31,1.07-2.38,2.38-2.38s2.38,1.07,2.38,2.38c0,.22.4.22.4,0,0-1.53-1.25-2.78-2.78-2.78Z"/>
    </g>
    <g>
      <path class="cls-1" d="m30.73,19.3c-.32,0-.58-.26-.58-.58v-3.36c0-1.74,1.42-3.15,3.15-3.15s3.15,1.42,3.15,3.15c0,.32-.26.58-.58.58s-.58-.26-.58-.58c0-1.1-.9-2-2-2s-2,.9-2,2v3.36c0,.32-.26.58-.58.58Z"/>
      <path class="cls-1" d="m30.73,19.68c-.52,0-.95-.43-.95-.95v-3.36c0-1.95,1.58-3.53,3.53-3.53s3.53,1.58,3.53,3.53c0,.52-.43.95-.95.95s-.95-.43-.95-.95c0-.9-.73-1.63-1.63-1.63s-1.63.73-1.63,1.63v3.36c0,.52-.43.95-.95.95Zm2.58-7.09c-1.53,0-2.78,1.25-2.78,2.78v3.36c0,.22.4.22.4,0v-3.36c0-1.31,1.07-2.38,2.38-2.38s2.38,1.07,2.38,2.38c0,.22.4.22.4,0,0-1.53-1.25-2.78-2.78-2.78Z"/>
    </g>
  </g>
  <g>
    <path class="cls-1" d="m55.76,19.3H5.3c-.32,0-.58-.26-.58-.58s.26-.58.58-.58h50.45c.32,0,.58.26.58.58s-.26.58-.58.58Z"/>
    <path class="cls-1" d="m55.76,19.68H5.3c-.52,0-.95-.43-.95-.95s.43-.95.95-.95h50.46c.52,0,.95.43.95.95s-.43.95-.95.95Zm-50.46-1.15c-.11,0-.2.09-.2.2s.09.2.2.2h50.46c.11,0,.2-.09.2-.2s-.09-.2-.2-.2H5.3Z"/>
  </g>
</svg>