<?xml version="1.0" encoding="UTF-8"?>
<svg id="Layer_1" data-name="Layer 1" xmlns="http://www.w3.org/2000/svg" viewBox="0 0 60 60">
  <defs>
    <style>
      .cls-1 {
        fill: #37464c;
        stroke-width: 0px;
      }
    </style>
  </defs>
  <path class="cls-1" d="m30.7,38.2c-4.41,0-8-3.59-8-8s3.59-8,8-8,8,3.59,8,8-3.59,8-8,8Zm0-14c-3.31,0-6,2.69-6,6s2.69,6,6,6,6-2.69,6-6-2.69-6-6-6Z"/>
  <path class="cls-1" d="m43.7,58.2c-.55,0-1-.45-1-1v-11.53c0-1.66-1.04-3.16-2.6-3.75l-4.15-1.56-4.54,4.54c-.39.39-1.02.39-1.41,0l-4.54-4.54-4.15,1.56c-1.55.58-2.6,2.09-2.6,3.75v11.53c0,.55-.45,1-1,1s-1-.45-1-1v-11.53c0-2.49,1.56-4.75,3.89-5.62l4.76-1.78c.37-.14.78-.05,1.06.23l4.29,4.29,4.29-4.29c.28-.28.69-.37,1.06-.23l4.76,1.78c2.33.87,3.89,3.13,3.89,5.62v11.53c0,.55-.45,1-1,1Z"/>
  <path class="cls-1" d="m22.7,58.2c-.55,0-1-.45-1-1v-9c0-.55.45-1,1-1s1,.45,1,1v9c0,.55-.45,1-1,1Z"/>
  <path class="cls-1" d="m38.7,58.2c-.55,0-1-.45-1-1v-9c0-.55.45-1,1-1s1,.45,1,1v9c0,.55-.45,1-1,1Z"/>
  <g>
    <path class="cls-1" d="m38.2,18.21c-.17,0-.34-.04-.5-.13-.48-.28-.64-.89-.37-1.37l4-6.93c.28-.48.89-.64,1.37-.37.48.28.64.89.37,1.37l-4,6.93c-.19.32-.52.5-.87.5Z"/>
    <path class="cls-1" d="m10.78,42.7c-.35,0-.68-.18-.87-.5-.28-.48-.11-1.09.37-1.37l6.93-4c.48-.28,1.09-.11,1.37.37.28.48.11,1.09-.37,1.37l-6.93,4c-.16.09-.33.13-.5.13Z"/>
    <path class="cls-1" d="m43.69,23.7c-.35,0-.68-.18-.87-.5-.28-.48-.11-1.09.37-1.37l6.93-4c.48-.28,1.09-.11,1.37.37.28.48.11,1.09-.37,1.37l-6.93,4c-.16.09-.33.13-.5.13Z"/>
    <path class="cls-1" d="m15.7,31.2H7.7c-.55,0-1-.45-1-1s.45-1,1-1h8c.55,0,1,.45,1,1s-.45,1-1,1Z"/>
    <path class="cls-1" d="m53.7,31.2h-8c-.55,0-1-.45-1-1s.45-1,1-1h8c.55,0,1,.45,1,1s-.45,1-1,1Z"/>
    <path class="cls-1" d="m17.71,23.7c-.17,0-.34-.04-.5-.13l-6.93-4c-.48-.28-.64-.89-.37-1.37.28-.48.89-.64,1.37-.37l6.93,4c.48.28.64.89.37,1.37-.19.32-.52.5-.87.5Z"/>
    <path class="cls-1" d="m50.62,42.7c-.17,0-.34-.04-.5-.13l-6.93-4c-.48-.28-.64-.89-.37-1.37.28-.48.89-.64,1.37-.37l6.93,4c.48.28.64.89.37,1.37-.19.32-.52.5-.87.5Z"/>
    <path class="cls-1" d="m23.2,18.21c-.35,0-.68-.18-.87-.5l-4-6.93c-.28-.48-.11-1.09.37-1.37.48-.28,1.09-.11,1.37.37l4,6.93c.28.48.11,1.09-.37,1.37-.16.09-.33.13-.5.13Z"/>
    <path class="cls-1" d="m30.7,16.2c-.55,0-1-.45-1-1V7.2c0-.55.45-1,1-1s1,.45,1,1v8c0,.55-.45,1-1,1Z"/>
  </g>
</svg>