<?xml version="1.0" encoding="UTF-8"?>
<svg id="Layer_1" data-name="Layer 1" xmlns="http://www.w3.org/2000/svg" viewBox="0 0 60 60">
  <defs>
    <style>
      .cls-1 {
        fill: #37464c;
        stroke-width: 0px;
      }
    </style>
  </defs>
  <path class="cls-1" d="m55.07,34.91H18.48c-.5,0-.9-.4-.9-.9s.4-.9.9-.9h35.69V14.48H13.24c-.5,0-.9-.4-.9-.9s.4-.9.9-.9h41.82c.5,0,.9.4.9.9v20.44c0,.5-.4.9-.9.9Z"/>
  <path class="cls-1" d="m13.24,24.07c-.5,0-.9-.4-.9-.9v-2.66c0-.5.4-.9.9-.9s.9.4.9.9v2.66c0,.5-.4.9-.9.9Z"/>
  <path class="cls-1" d="m13.24,21.41c-2.41,0-4.36-1.96-4.36-4.36s1.96-4.37,4.36-4.37,4.36,1.96,4.36,4.37-1.96,4.36-4.36,4.36Zm0-6.93c-1.41,0-2.56,1.15-2.56,2.57s1.15,2.56,2.56,2.56,2.56-1.15,2.56-2.56-1.15-2.57-2.56-2.57Z"/>
  <path class="cls-1" d="m15.88,56.6h-5.26c-1.02,0-1.88-.81-1.96-1.85l-1-13.5c-1.58-.41-3.49-1.63-3.63-3.27l-.78-10.49c0-.15,0-.24,0-.29,0-2.53,2.04-4.67,4.54-4.74h24.91v.9c0,2.36-1.92,4.28-4.28,4.28h-8.56l-2.02,27.11c-.07,1.04-.94,1.85-1.96,1.85ZM7.8,24.27c-1.51.04-2.77,1.37-2.77,2.97v.14l.78,10.45c.06.64,1.46,1.57,2.63,1.75l.89.09,1.11,14.95c0,.1.1.18.16.18h5.26c.07,0,.16-.08.16-.18l2.14-28.77h10.23c1.05,0,1.95-.66,2.31-1.58H7.8Z"/>
  <path class="cls-1" d="m12.93,21.41c-2.41,0-4.36-1.96-4.36-4.36s1.96-4.37,4.36-4.37,4.36,1.96,4.36,4.37-1.96,4.36-4.36,4.36Zm0-6.93c-1.41,0-2.56,1.15-2.56,2.57s1.15,2.56,2.56,2.56,2.56-1.15,2.56-2.56-1.15-2.57-2.56-2.57Z"/>
  <path class="cls-1" d="m28.41,27.61h-9.39c-.5,0-.9-.4-.9-.9s.4-.9.9-.9h9.39c1.05,0,1.95-.66,2.31-1.58H13.24c-.5,0-.9-.4-.9-.9s.4-.9.9-.9h18.55c.5,0,.9.4.9.9,0,2.36-1.92,4.28-4.28,4.28Z"/>
  <path class="cls-1" d="m15.88,56.56h-5.26c-1.02,0-1.88-.81-1.96-1.85l-1-13.5c-1.57-.41-3.49-1.63-3.63-3.27l-.78-10.49c0-.15,0-.24,0-.29,0-2.53,2.04-4.67,4.54-4.74h5.46c.5,0,.9.4.9.9s-.4.9-.9.9h-5.44c-1.51.04-2.77,1.37-2.77,2.97v.14l.78,10.45c.06.64,1.46,1.57,2.63,1.75l.13.02c.44.04.78.39.81.83l1.05,14.2c0,.1.1.18.16.18h5.26c.07,0,.16-.08.16-.18l2.08-27.94c.04-.5.46-.86.96-.83.5.04.87.47.83.96l-2.08,27.94c-.07,1.03-.94,1.85-1.96,1.85Z"/>
  <path class="cls-1" d="m13.24,56.16c-.5,0-.9-.4-.9-.9v-15.76c0-.5.4-.9.9-.9s.9.4.9.9v15.76c0,.5-.4.9-.9.9Z"/>
  <path class="cls-1" d="m8.5,41.4c-.47,0-.86-.36-.9-.83l-.88-11.84c-.04-.5.34-.93.83-.96.5-.03.93.34.96.83l.88,11.84c.04.5-.34.93-.83.96-.02,0-.04,0-.07,0Z"/>
  <path class="cls-1" d="m30.17,45.26c-2.35,0-4.27-1.91-4.27-4.27s1.91-4.27,4.27-4.27,4.27,1.91,4.27,4.27-1.91,4.27-4.27,4.27Zm0-6.73c-1.36,0-2.47,1.11-2.47,2.47s1.11,2.47,2.47,2.47,2.47-1.11,2.47-2.47-1.11-2.47-2.47-2.47Z"/>
  <path class="cls-1" d="m39.36,56.6h-1.8v-5.6c0-1.64-1.33-2.97-2.97-2.97h-8.87c-1.64,0-2.97,1.33-2.97,2.97v5.6h-1.8v-5.6c0-2.63,2.14-4.77,4.77-4.77h8.87c2.63,0,4.77,2.14,4.77,4.77v5.6Z"/>
  <rect class="cls-1" x="24.45" y="52.51" width="1.8" height="4.09"/>
  <rect class="cls-1" x="34.06" y="52.51" width="1.8" height="4.09"/>
  <path class="cls-1" d="m25.35,55.99c-.5,0-.9-.4-.9-.9v-2.82c0-.5.4-.9.9-.9s.9.4.9.9v2.82c0,.5-.4.9-.9.9Z"/>
  <path class="cls-1" d="m34.96,55.99c-.5,0-.9-.4-.9-.9v-2.82c0-.5.4-.9.9-.9s.9.4.9.9v2.82c0,.5-.4.9-.9.9Z"/>
  <path class="cls-1" d="m46.77,45.26c-2.35,0-4.27-1.91-4.27-4.27s1.91-4.27,4.27-4.27,4.27,1.91,4.27,4.27-1.91,4.27-4.27,4.27Zm0-6.73c-1.36,0-2.47,1.11-2.47,2.47s1.11,2.47,2.47,2.47,2.47-1.11,2.47-2.47-1.11-2.47-2.47-2.47Z"/>
  <path class="cls-1" d="m55.97,56.6h-1.8v-5.6c0-1.64-1.33-2.97-2.97-2.97h-8.87c-1.64,0-2.97,1.33-2.97,2.97v5.6h-1.8v-5.6c0-2.63,2.14-4.77,4.77-4.77h8.87c2.63,0,4.77,2.14,4.77,4.77v5.6Z"/>
  <rect class="cls-1" x="41.05" y="52.51" width="1.8" height="4.09"/>
  <rect class="cls-1" x="50.67" y="52.51" width="1.8" height="4.09"/>
  <path class="cls-1" d="m41.95,55.99c-.5,0-.9-.4-.9-.9v-2.82c0-.5.4-.9.9-.9s.9.4.9.9v2.82c0,.5-.4.9-.9.9Z"/>
  <path class="cls-1" d="m51.57,55.99c-.5,0-.9-.4-.9-.9v-2.82c0-.5.4-.9.9-.9s.9.4.9.9v2.82c0,.5-.4.9-.9.9Z"/>
  <path class="cls-1" d="m35.81,30.88c-.5,0-.9-.4-.9-.9v-3.87c0-.5.4-.9.9-.9s.9.4.9.9v3.87c0,.5-.4.9-.9.9Z"/>
  <path class="cls-1" d="m39.07,30.88c-.5,0-.9-.4-.9-.9v-5.58c0-.5.4-.9.9-.9s.9.4.9.9v5.58c0,.5-.4.9-.9.9Z"/>
  <path class="cls-1" d="m42.32,30.88c-.5,0-.9-.4-.9-.9v-7.3c0-.5.4-.9.9-.9s.9.4.9.9v7.3c0,.5-.4.9-.9.9Z"/>
  <path class="cls-1" d="m45.58,30.88c-.5,0-.9-.4-.9-.9v-9.01c0-.5.4-.9.9-.9s.9.4.9.9v9.01c0,.5-.4.9-.9.9Z"/>
  <path class="cls-1" d="m48.84,30.88c-.5,0-.9-.4-.9-.9v-10.72c0-.5.4-.9.9-.9s.9.4.9.9v10.72c0,.5-.4.9-.9.9Z"/>
</svg>