<?xml version="1.0" encoding="UTF-8"?>
<svg id="Layer_1" data-name="Layer 1" xmlns="http://www.w3.org/2000/svg" viewBox="0 0 60 60">
  <defs>
    <style>
      .cls-1 {
        fill: #37464c;
        stroke-width: 0px;
      }
    </style>
  </defs>
  <path class="cls-1" d="m29.55,37.26h-5.69c-.55,0-1-.45-1-1s.45-1,1-1h4.69v-7.21c0-.65.32-1.25.85-1.61.54-.37,1.23-.44,1.84-.19.75.3,1.52.48,2.1.48,1.54,0,2.79-1.25,2.79-2.79s-1.25-2.79-2.79-2.79c-.58,0-1.35.17-2.1.48-.61.24-1.3.17-1.84-.19-.53-.36-.85-.96-.85-1.61v-7.21h-14.17c-.49,0-.9.4-.9.9v17.07c0,.55-.45,1-1,1s-1-.45-1-1V13.5c0-1.6,1.3-2.9,2.9-2.9h15.17c.55,0,1,.45,1,1v8.21c.94-.46,1.95-.68,2.79-.68,2.64,0,4.79,2.15,4.79,4.79s-2.15,4.79-4.79,4.79c-.84,0-1.85-.22-2.85-.62l.06,8.16c0,.55-.45,1-1,1Z"/>
  <path class="cls-1" d="m47.57,52.43c-.26,0-.51-.1-.71-.29l-1.9-1.9c-.39-.39-.39-1.02,0-1.41l10.43-10.43c.38-.38,1.04-.38,1.41,0l1.9,1.9c.39.39.39,1.02,0,1.41s-1.02.39-1.41,0l-1.19-1.19-9.02,9.02,1.19,1.19c.39.39.39,1.02,0,1.41-.2.2-.45.29-.71.29Z"/>
  <path class="cls-1" d="m55.1,40.83c-.45,0-.86-.3-.97-.76l-2.68-10.85c-.21-.85-.97-1.45-1.84-1.45h-1.09c-.55,0-1-.45-1-1s.45-1,1-1h1.09c1.8,0,3.36,1.22,3.79,2.97l2.68,10.85c.13.54-.2,1.08-.73,1.21-.08.02-.16.03-.24.03Z"/>
  <path class="cls-1" d="m37.14,37.26h-7.59c-.55,0-1-.45-1-1s.45-1,1-1h7.59c.55,0,1,.45,1,1s-.45,1-1,1Z"/>
  <path class="cls-1" d="m48.52,31.57c-.55,0-1-.45-1-1V13.5c0-.49-.4-.9-.9-.9h-17.07c-.55,0-1-.45-1-1s.45-1,1-1h17.07c1.6,0,2.9,1.3,2.9,2.9v17.07c0,.55-.45,1-1,1Z"/>
  <path class="cls-1" d="m47.57,48.64c-4.31,0-7.05-4.5-7.55-7.54-.07-.43-.25-.8-.52-1.07l-3.23-3.23c-.7-.7-1.08-1.62-1.08-2.6s.38-1.91,1.08-2.6c1.39-1.39,3.82-1.39,5.21,0l3.48,3.48c.33.33.72.27.87.23s.52-.19.63-.65l.14-.55c.13-.54.68-.86,1.21-.73.54.13.86.68.73,1.21l-.14.54c-.26,1.02-1.02,1.81-2.04,2.09-1.02.28-2.07,0-2.82-.74l-3.48-3.48c-.63-.63-1.74-.64-2.38,0-.32.32-.49.74-.49,1.19s.17.87.49,1.19l3.23,3.23c.57.57.94,1.32,1.08,2.16.39,2.39,2.6,5.86,5.57,5.86.55,0,1,.45,1,1s-.45,1-1,1Z"/>
  <path class="cls-1" d="m13.43,52.43c-.26,0-.51-.1-.71-.29-.39-.39-.39-1.02,0-1.41l1.19-1.19-9.02-9.02-1.19,1.19c-.39.39-1.02.39-1.41,0s-.39-1.02,0-1.41l1.9-1.9c.19-.19.44-.29.71-.29h0c.27,0,.52.11.71.29l10.43,10.43c.39.39.39,1.02,0,1.41l-1.9,1.9c-.2.2-.45.29-.71.29Z"/>
  <path class="cls-1" d="m5.9,40.83c-.08,0-.16,0-.24-.03-.54-.13-.86-.67-.73-1.21l2.68-10.85c.43-1.75,1.99-2.97,3.79-2.97h1.09c.55,0,1,.45,1,1s-.45,1-1,1h-1.09c-.88,0-1.64.59-1.85,1.44l-2.68,10.85c-.11.46-.52.76-.97.76Z"/>
  <path class="cls-1" d="m13.43,48.64c-.55,0-1-.45-1-1s.45-1,1-1c2.97,0,5.18-3.46,5.57-5.86.14-.84.51-1.59,1.08-2.16l3.23-3.23c.32-.32.49-.74.49-1.19s-.17-.87-.49-1.19c-.63-.64-1.74-.63-2.38,0l-3.48,3.48c-.75.75-1.8,1.02-2.82.74-1.02-.28-1.78-1.06-2.04-2.09l-.14-.54c-.13-.54.19-1.08.73-1.21.53-.13,1.08.19,1.21.73l.14.54c.12.46.48.61.63.65.15.04.54.1.87-.23l3.48-3.48c1.39-1.39,3.82-1.39,5.21,0,.7.7,1.08,1.62,1.08,2.6s-.38,1.91-1.08,2.6l-3.23,3.23c-.27.27-.45.64-.52,1.07-.5,3.04-3.24,7.54-7.55,7.54Z"/>
</svg>