<?xml version="1.0" encoding="UTF-8"?>
<svg id="Layer_1" data-name="Layer 1" xmlns="http://www.w3.org/2000/svg" version="1.1" viewBox="0 0 60 60">
  <defs>
    <style>
      .cls-1 {
        fill: #37464c;
        stroke-width: 0px;
      }
    </style>
  </defs>
  <path class="cls-1" d="M51.5,39.1c-.5,0-1,.5-1,1v2c0,.5.5,1,1,1s1-.5,1-1v-2c0-.5-.5-1-1-1Z"/>
  <circle class="cls-1" cx="51.5" cy="46.1" r="1"/>
  <path class="cls-1" d="M51.5,28.9c-.5,0-1,.5-1,1v6.2c0,.5.5,1,1,1s1-.5,1-1v-6.2c0-.5-.5-1-1-1Z"/>
  <path class="cls-1" d="M39,35.7c.5,0,1-.5,1-1v-6.6c0-.5-.5-1-1-1s-1,.5-1,1v6.6c0,.5.5,1,1,1Z"/>
  <path class="cls-1" d="M55.9,23.8L38.8,4c-.4-.4-1.1-.4-1.5,0l-7.1,8.2c-.4.4-.3,1,.1,1.4.4.3,1.1.3,1.4-.1l6.4-7.4,14.9,17.3h-6.8c-.3,0-.5.1-.7.3-.2.2-.3.4-.3.7v24.8c0,.5.4,1,1,1s1-.5,1-1v-23.8h8c.4,0,.8-.2.9-.6.2-.3,0-.8-.2-1.1Z"/>
  <circle class="cls-1" cx="46.2" cy="53.3" r="1"/>
  <path class="cls-1" d="M39.8,41.2c.1-.2.2-.3.2-.6v-2c0-.5-.5-1-1-1s-.6.2-.8.4l-11.4-22.4c-.6-1.2-1.7-1.9-2.9-1.9h0c-1.2,0-2.3.7-2.9,1.8L3.9,48.7c-.6,1.2-.6,2.6.1,3.7.6,1,1.6,1.6,2.7,1.6l34,.2h0c1.1,0,2.1-.6,2.7-1.6.7-1.1.8-2.5.2-3.7l-3.9-7.6ZM17.7,26.4c.1,0,.2,0,.4,0h4.6s0,9.4,0,9.4h-10l4.9-9.5ZM17.2,37.8h12.7v14.3h-12.8c0,0,.1-14.3.1-14.3ZM24.8,35.8v-9.4c0,0,4.5,0,4.5,0,.2,0,.5,0,.6-.2l4.9,9.6h-10ZM22.8,16.6c.2-.5.6-.7,1.1-.7s.9.3,1.1.8l4,7.9h-10.3s4.1-7.9,4.1-7.9ZM5.7,51.3c-.2-.4-.4-1.1,0-1.8l6.1-11.8h3.4v14.2c-.1,0-8.5,0-8.5,0-.6,0-.9-.4-1-.6ZM41.8,51.5c-.1.2-.5.6-1,.6h-8.8v-14.3h3.8l6.1,11.9c.3.7.2,1.3,0,1.8Z"/>
</svg>