<?xml version="1.0" encoding="UTF-8"?>
<svg id="Layer_1" data-name="Layer 1" xmlns="http://www.w3.org/2000/svg" viewBox="0 0 60 60">
  <defs>
    <style>
      .cls-1 {
        fill: #37464c;
        stroke-width: 0px;
      }
    </style>
  </defs>
  <path class="cls-1" d="m33.33,39.79H7.65c-1.23,0-2.22-1.03-2.22-2.29V14.27c0-1.26,1-2.29,2.22-2.29h25.68c1.23,0,2.22,1.03,2.22,2.29v23.23c0,1.26-1,2.29-2.22,2.29ZM7.65,13.98c-.12,0-.22.13-.22.29v23.23c0,.16.1.29.22.29h25.68c.12,0,.22-.13.22-.29V14.27c0-.16-.1-.29-.22-.29H7.65Z"/>
  <path class="cls-1" d="m28.44,16.56c-.55,0-1-.45-1-1v-5.16c0-.55.45-1,1-1s1,.45,1,1v5.16c0,.55-.45,1-1,1Z"/>
  <path class="cls-1" d="m12.54,16.56c-.55,0-1-.45-1-1v-5.16c0-.55.45-1,1-1s1,.45,1,1v5.16c0,.55-.45,1-1,1Z"/>
  <rect class="cls-1" x="6.43" y="19.72" width="28.12" height="2"/>
  <rect class="cls-1" x="37" y="26.17" width="12.23" height="2"/>
  <path class="cls-1" d="m54.12,53.98h-25.68c-1.23,0-2.22-1.03-2.22-2.29v-10.32h2v10.32c0,.16.1.29.22.29h25.68c.12,0,.22-.13.22-.29v-23.23c0-.16-.1-.29-.22-.29h-4.89v-2h4.89c1.23,0,2.22,1.03,2.22,2.29v23.23c0,1.26-1,2.29-2.22,2.29Z"/>
  <path class="cls-1" d="m49.22,30.75c-.55,0-1-.45-1-1v-5.16c0-.55.45-1,1-1s1,.45,1,1v5.16c0,.55-.45,1-1,1Z"/>
  <rect class="cls-1" x="37" y="33.92" width="18.34" height="2"/>
  <path class="cls-1" d="m19.88,53.99h-8.56c-1.9,0-3.45-1.61-3.45-3.58v-6.45c0-.55.45-1,1-1s1,.45,1,1v6.45c0,.87.65,1.58,1.45,1.58h8.56c.55,0,1,.45,1,1s-.45,1-1,1Z"/>
  <path class="cls-1" d="m16.21,57.86c-.25,0-.49-.09-.69-.27-.4-.38-.42-1.01-.04-1.41l3.02-3.18-3.02-3.18c-.38-.4-.36-1.03.04-1.41.4-.38,1.03-.36,1.41.04l4.32,4.56-4.32,4.56c-.2.21-.46.31-.73.31Z"/>
  <path class="cls-1" d="m52.89,20.43c-.55,0-1-.45-1-1v-6.45c0-.87-.65-1.58-1.45-1.58h-8.56c-.55,0-1-.45-1-1s.45-1,1-1h8.56c1.9,0,3.45,1.61,3.45,3.58v6.45c0,.55-.45,1-1,1Z"/>
  <path class="cls-1" d="m45.56,15.27c-.26,0-.53-.1-.73-.31l-4.32-4.56,4.32-4.56c.38-.4,1.01-.42,1.41-.04.4.38.42,1.01.04,1.41l-3.02,3.18,3.02,3.19c.38.4.36,1.03-.04,1.41-.19.18-.44.27-.69.27Z"/>
</svg>