<?xml version="1.0" encoding="UTF-8"?>
<svg id="Layer_1" data-name="Layer 1" xmlns="http://www.w3.org/2000/svg" viewBox="0 0 60 60">
  <defs>
    <style>
      .cls-1 {
        fill: #37464c;
        stroke-width: 0px;
      }
    </style>
  </defs>
  <g>
    <g>
      <path class="cls-1" d="m21.67,52.34h-11c-2.16,0-4.09-1.12-5.15-3.01-1.06-1.88-1.03-4.11.08-5.96l6.09-10.1-4.86-2.93c-.21-.12-.32-.36-.28-.6.03-.24.2-.43.44-.5l14.07-3.84c.32-.09.65.1.74.42l4.09,14.92c.07.24-.03.5-.23.65-.2.15-.48.15-.69,0l-5-3.38-3.36,6.04h5.03c.33,0,.6.27.6.6l.03,7.08c0,.16-.06.31-.17.43-.11.11-.27.18-.42.18Zm-13.02-22.3l4.17,2.52c.28.17.37.54.2.82l-6.4,10.61c-.89,1.48-.91,3.25-.07,4.75.85,1.5,2.38,2.4,4.1,2.4h10.4l-.03-5.88h-5.46c-.21,0-.41-.11-.52-.3-.11-.18-.11-.41,0-.6l4.18-7.5c.08-.15.22-.25.38-.29.16-.04.34,0,.47.09l4.2,2.84-3.5-12.78-12.14,3.31Z"/>
      <path class="cls-1" d="m21.67,52.72h-11c-2.3,0-4.34-1.19-5.47-3.2-1.13-2-1.1-4.37.09-6.34l5.89-9.78-4.54-2.74c-.33-.2-.52-.58-.46-.97.05-.39.33-.7.71-.81l14.07-3.84c.52-.14,1.05.17,1.2.68l4.09,14.92c.11.39-.04.81-.37,1.05-.33.24-.78.24-1.11.01l-4.66-3.16-2.85,5.13h4.4c.54,0,.97.44.97.97l.03,7.08c0,.26-.1.51-.28.69-.18.18-.43.29-.69.29Zm-.46-26.95s-.04,0-.06,0l-14.07,3.84c-.09.02-.15.1-.16.19-.01.09.03.18.11.22l5.18,3.12-6.28,10.42c-1.04,1.73-1.08,3.82-.08,5.58s2.8,2.81,4.82,2.81h11c.06,0,.12-.02.16-.07.04-.04.07-.1.07-.16l-.03-7.08c0-.12-.1-.22-.22-.22h-5.67l3.87-6.96,5.34,3.61c.08.05.18.05.26,0,.08-.05.11-.15.08-.24l-4.09-14.92c-.03-.1-.12-.17-.22-.17Zm.23,25.75h-10.77c-1.86,0-3.52-.97-4.43-2.59-.92-1.62-.89-3.54.07-5.13l6.4-10.61c.06-.11.03-.25-.08-.31l-4.92-2.97,13.34-3.64,3.87,14.12-5.04-3.41c-.05-.04-.12-.05-.18-.03-.06.01-.11.05-.14.11l-4.18,7.5c-.04.07-.04.15,0,.22.04.07.11.11.19.11h5.83l.03,6.63Zm-11.85-21.35l3.42,2.06c.46.28.61.88.33,1.34l-6.4,10.61c-.82,1.36-.84,3-.06,4.38.78,1.38,2.19,2.21,3.78,2.21h10.02l-.02-5.13h-5.08c-.34,0-.66-.18-.84-.48-.17-.3-.18-.67-.01-.97l4.18-7.5c.13-.24.36-.41.63-.47.27-.06.55-.01.77.14l3.36,2.27-3.14-11.44-10.93,2.98Z"/>
    </g>
    <g>
      <path class="cls-1" d="m11.63,52.34c-.1,0-.2-.02-.29-.08-.29-.16-.39-.53-.23-.82l8.13-14.58c.16-.29.53-.39.82-.23.29.16.39.53.23.82l-8.13,14.58c-.11.2-.31.31-.52.31Z"/>
      <path class="cls-1" d="m11.63,52.72c-.17,0-.33-.04-.47-.12-.47-.26-.64-.86-.38-1.33l8.13-14.58c.13-.23.33-.39.59-.46.25-.07.51-.04.74.09.47.26.64.86.38,1.33l-8.13,14.58c-.17.31-.5.5-.85.5Zm8.13-15.78s-.04,0-.06,0c-.06.02-.11.05-.14.11l-8.13,14.58c-.06.11-.02.25.09.31.11.06.25.02.31-.09l8.13-14.58c.03-.05.04-.11.02-.17s-.05-.11-.11-.13c-.03-.02-.07-.03-.11-.03Z"/>
    </g>
  </g>
  <g>
    <g>
      <path class="cls-1" d="m45.36,30.33c-.05,0-.11,0-.17-.02l-14.87-4.26c-.24-.07-.41-.28-.43-.53-.02-.25.12-.49.35-.59l5.49-2.51-3.41-6.01-2.62,4.3c-.17.28-.54.37-.82.2l-6.06-3.65c-.14-.08-.23-.22-.27-.37-.04-.15-.01-.32.07-.45l5.72-9.4c1.12-1.85,3.08-2.9,5.24-2.84,2.16.07,4.05,1.26,5.05,3.17l5.46,10.45,5.03-2.63c.21-.11.47-.08.66.07.19.15.26.4.2.63l-4.04,14.01c-.08.26-.32.43-.58.43Zm-13.15-4.99l12.74,3.65,3.48-12.09-4.32,2.26c-.29.15-.66.04-.81-.25l-5.74-10.99c-.8-1.53-2.3-2.47-4.02-2.53-1.72-.05-3.29.79-4.18,2.26l-5.41,8.88,5.03,3.04,2.84-4.66c.11-.18.3-.28.52-.29.21,0,.41.12.51.3l4.24,7.47c.08.15.1.32.05.48-.05.16-.17.29-.32.36l-4.61,2.11Z"/>
      <path class="cls-1" d="m45.36,30.7c-.09,0-.19-.01-.27-.04l-14.87-4.26c-.39-.11-.67-.46-.7-.86-.03-.4.2-.79.57-.96l5.12-2.34-2.89-5.1-2.29,3.75c-.28.46-.88.6-1.33.33l-6.06-3.65c-.22-.14-.38-.35-.44-.6-.06-.25-.02-.52.11-.74l5.72-9.4c1.19-1.96,3.26-3.08,5.58-3.02,2.3.08,4.3,1.34,5.37,3.37l5.29,10.12,4.7-2.45c.34-.18.76-.14,1.07.11.3.25.43.65.32,1.02l-4.04,14.01c-.12.42-.5.71-.94.71Zm-13.03-15.05l3.93,6.93-5.86,2.68c-.08.04-.14.13-.13.22,0,.09.07.17.16.2l14.93,4.27c.1,0,.19-.07.22-.16l4.04-14.01c.03-.09,0-.18-.07-.24-.07-.06-.17-.07-.25-.03l-5.36,2.8-5.63-10.79c-.94-1.79-2.71-2.91-4.73-2.97-2.04-.08-3.86.93-4.91,2.66l-5.72,9.4c-.03.05-.04.11-.03.17.01.06.05.11.1.14l6.06,3.65c.11.06.24.03.31-.08l2.95-4.84Zm12.87,13.8l-14.07-4.03,5.53-2.53c.06-.03.1-.08.12-.13.02-.06.01-.13-.02-.18l-4.24-7.47c-.04-.07-.11-.11-.19-.11-.04,0-.14.02-.2.11l-3.03,4.98-5.68-3.42,5.6-9.2c.97-1.59,2.7-2.51,4.51-2.44,1.86.06,3.48,1.08,4.34,2.73l5.74,10.99c.06.11.19.15.3.09l5.09-2.66-3.83,13.29Zm-11.92-4.2l11.4,3.27,3.14-10.89-3.54,1.85c-.48.25-1.07.06-1.31-.41l-5.74-10.99c-.73-1.41-2.12-2.28-3.71-2.33-1.59-.07-3.03.73-3.85,2.08l-5.21,8.56,4.39,2.65,2.64-4.34c.17-.28.48-.46.83-.47.36,0,.68.19.85.49l4.24,7.47c.13.24.16.52.08.78s-.27.47-.52.59l-3.69,1.69Z"/>
    </g>
    <g>
      <path class="cls-1" d="m36.57,23.28c-.21,0-.41-.11-.52-.3l-8.22-14.53c-.16-.29-.06-.65.23-.82.29-.16.65-.06.82.23l8.22,14.53c.16.29.06.65-.23.82-.09.05-.19.08-.29.08Z"/>
      <path class="cls-1" d="m36.57,23.65c-.35,0-.68-.19-.85-.5l-8.22-14.53c-.13-.23-.16-.49-.09-.74.07-.25.23-.46.46-.59.23-.13.49-.16.74-.09.25.07.46.23.59.46l8.22,14.53c.13.23.16.49.09.74-.07.25-.23.46-.46.59-.15.08-.31.13-.48.13Zm-8.22-15.73s-.08,0-.11.03c-.05.03-.09.08-.11.14-.02.06,0,.12.02.17l8.22,14.53c.06.1.2.15.3.08.05-.03.09-.08.11-.14.02-.06,0-.12-.02-.17l-8.22-14.53c-.03-.05-.08-.09-.14-.11-.02,0-.04,0-.06,0Z"/>
    </g>
  </g>
  <g>
    <g>
      <path class="cls-1" d="m37.84,56.63c-.16,0-.31-.06-.42-.18l-10.3-10.32c-.23-.23-.23-.61,0-.85l10.93-10.95c.18-.18.45-.23.67-.12.23.1.37.34.35.59l-.46,6.02,6.91-.07-2.49-4.37c-.16-.29-.06-.65.22-.82l6.13-3.53c.14-.08.3-.1.46-.06.15.04.28.14.36.28l5.45,9.56c1.07,1.88,1.05,4.11-.06,5.96-1.11,1.86-3.06,2.93-5.22,2.88l-11.79-.29-.14,5.67c0,.24-.15.45-.38.54-.07.03-.15.04-.22.04Zm-9.45-10.92l8.89,8.91.12-4.87c0-.33.29-.59.61-.58l12.39.3c1.72.04,3.28-.82,4.16-2.29.88-1.48.9-3.26.05-4.75l-5.15-9.03-5.09,2.93,2.7,4.74c.11.18.1.41,0,.6-.11.18-.3.3-.51.3l-8.59.09c-.16,0-.33-.07-.44-.19-.11-.12-.17-.29-.16-.46l.39-5.06-9.37,9.37Z"/>
      <path class="cls-1" d="m37.84,57.01c-.26,0-.51-.1-.69-.29l-10.3-10.32c-.38-.38-.38-1,0-1.38l10.93-10.94c.29-.29.73-.37,1.1-.2.37.17.59.56.56.96l-.43,5.61,5.87-.06-2.18-3.82c-.26-.46-.1-1.06.36-1.33l6.13-3.53c.22-.13.49-.17.74-.1.25.07.46.23.59.46l5.45,9.56c1.14,2,1.11,4.37-.07,6.34-1.18,1.97-3.26,3.1-5.55,3.06l-11.41-.28-.13,5.3c0,.39-.25.74-.61.88-.11.05-.24.07-.36.07Zm.64-22.47c-.06,0-.12.02-.16.07l-10.93,10.94c-.09.09-.09.23,0,.32l10.3,10.32c.06.06.16.08.24.05.08-.03.14-.11.14-.2l.15-6.05,12.16.3c2.04.05,3.85-.96,4.89-2.7,1.04-1.74,1.06-3.83.06-5.58l-5.45-9.56c-.03-.05-.08-.09-.14-.11-.06-.02-.12,0-.17.02l-6.13,3.53c-.11.06-.14.2-.08.31l2.81,4.93-7.96.08.5-6.43c0-.09-.04-.18-.13-.22-.03-.01-.06-.02-.09-.02Zm-.85,20.96l-9.77-9.79,10.35-10.36-.47,6.07c0,.06.02.12.06.17.04.04.11.07.16.07h0l8.59-.09c.08,0,.15-.04.19-.11.04-.07.04-.15,0-.22l-2.89-5.07,5.74-3.31,5.33,9.36c.92,1.62.9,3.53-.05,5.13-.96,1.6-2.62,2.5-4.49,2.48l-12.39-.3c-.13,0-.23.1-.23.22l-.14,5.75Zm-8.71-9.79l8,8.02.1-4c.01-.54.45-.98,1-.95l12.39.3c1.59.03,3.02-.75,3.83-2.11.81-1.36.83-3,.04-4.38l-4.96-8.71-4.44,2.56,2.52,4.42c.17.3.17.67,0,.97-.17.3-.49.49-.83.49l-8.59.09c-.28-.02-.54-.11-.72-.31-.19-.2-.28-.47-.26-.74l.31-4.04-8.38,8.39Z"/>
    </g>
    <g>
      <path class="cls-1" d="m37.96,42.04c-.33,0-.6-.26-.6-.59,0-.33.26-.6.59-.6l16.69-.15h0c.33,0,.6.26.6.59,0,.33-.26.6-.59.61l-16.69.15h0Z"/>
      <path class="cls-1" d="m37.97,42.41h0c-.53,0-.97-.43-.97-.97,0-.26.1-.51.28-.69.18-.19.43-.29.69-.29l16.69-.15c.54,0,.98.43.98.97,0,.54-.43.98-.96.98l-16.69.15Zm16.68-1.35l-16.69.15c-.06,0-.12.02-.16.07-.04.04-.07.1-.06.16,0,.12.1.22.22.22h0l16.69-.15c.12,0,.22-.1.22-.23,0-.12-.1-.22-.22-.22Z"/>
    </g>
  </g>
</svg>