<?xml version="1.0" encoding="UTF-8"?>
<svg id="Layer_1" data-name="Layer 1" xmlns="http://www.w3.org/2000/svg" viewBox="0 0 60 60">
  <defs>
    <style>
      .cls-1 {
        fill: #37464c;
        stroke-width: 0px;
      }
    </style>
  </defs>
  <path class="cls-1" d="m11.54,52.64c-.55,0-1-.45-1-1v-7.81h7.81c.55,0,1,.45,1,1s-.45,1-1,1h-5.81v5.81c0,.55-.45,1-1,1Z"/>
  <path class="cls-1" d="m30.54,54.91c-6.33,0-11.5-1.88-16.24-5.92-.8-.68-3.37-3.36-3.48-3.48-.38-.4-.37-1.03.03-1.41.4-.38,1.03-.37,1.41.03.72.75,2.73,2.83,3.33,3.34,4.49,3.82,9.18,5.49,15.24,5.44,6.16-.06,11.87-2.42,16.09-6.64,4.37-4.37,6.78-10.13,6.76-16.21,0-3.14-.72-6.35-2.05-9.28-.23-.5,0-1.1.49-1.32.5-.23,1.1,0,1.32.49,1.45,3.19,2.23,6.68,2.23,10.1.01,6.61-2.6,12.87-7.35,17.62-4.59,4.59-10.8,7.16-17.49,7.22-.11,0-.21,0-.32,0Z"/>
  <path class="cls-1" d="m9.14,40.75c-.38,0-.74-.22-.91-.58-1.45-3.19-2.23-6.68-2.23-10.1-.01-6.61,2.6-12.87,7.35-17.62,4.59-4.59,10.8-7.16,17.49-7.22,6.51-.07,11.74,1.82,16.56,5.91.8.68,3.37,3.36,3.48,3.48.38.4.37,1.03-.03,1.41-.4.38-1.03.37-1.41-.03-.72-.75-2.73-2.83-3.33-3.34-4.49-3.82-9.17-5.48-15.24-5.44-6.16.06-11.87,2.42-16.09,6.64-4.37,4.37-6.78,10.13-6.76,16.21,0,3.14.72,6.34,2.05,9.28.23.5,0,1.1-.5,1.32-.13.06-.28.09-.41.09Z"/>
  <path class="cls-1" d="m51.15,16.3h-7.81c-.55,0-1-.45-1-1s.45-1,1-1h5.81v-5.81c0-.55.45-1,1-1s1,.45,1,1v7.81Z"/>
  <path class="cls-1" d="m42.2,41.28h-22.71c-1.18,0-2.14-.96-2.14-2.14v-17.03c0-1.18.96-2.14,2.14-2.14h22.71c1.18,0,2.14.96,2.14,2.14v17.03c0,1.18-.96,2.14-2.14,2.14Zm-22.71-19.3c-.07,0-.14.06-.14.14v17.03c0,.07.06.14.14.14h22.71c.07,0,.14-.06.14-.14v-17.03c0-.07-.06-.14-.14-.14h-22.71Z"/>
  <path class="cls-1" d="m37.66,24.25c-.55,0-1-.45-1-1v-4.54c0-.55.45-1,1-1s1,.45,1,1v4.54c0,.55-.45,1-1,1Z"/>
  <path class="cls-1" d="m24.03,24.25c-.55,0-1-.45-1-1v-4.54c0-.55.45-1,1-1s1,.45,1,1v4.54c0,.55-.45,1-1,1Z"/>
  <rect class="cls-1" x="18.36" y="26.79" width="24.98" height="2"/>
</svg>