<?xml version="1.0" encoding="UTF-8"?>
<svg id="Layer_1" data-name="Layer 1" xmlns="http://www.w3.org/2000/svg" viewBox="0 0 60 60">
  <defs>
    <style>
      .cls-1 {
        fill: #37464c;
        stroke-width: 0px;
      }
    </style>
  </defs>
  <g>
    <path class="cls-1" d="m39.98,57.16l-.42-.51c-.12-.15-12.58-15.13-18.95-25.98-3.41-5.79-3.22-10.72-2.47-13.83.82-3.38,2.44-5.37,2.51-5.46l.77.64c-.06.08-6.12,7.65.04,18.14,5.67,9.65,16.2,22.62,18.44,25.33l6.23-9.13c-2.43-3.07-21.25-27.02-23-34.56-.64-2.78-.4-4.92.74-6.35,1.66-2.09,4.75-2.13,6.21-2.09,1.76,0,4.85.38,6.22,2.95,1.72,3.21.06,8.64-4.93,16.16l-.83-.55c5.94-8.96,5.94-13.17,4.88-15.14-1.13-2.11-3.81-2.42-5.3-2.42h-.04c-1.47,0-4.07.02-5.42,1.71-.94,1.18-1.12,3.03-.55,5.5,1.78,7.67,22.82,34.18,23.03,34.45l.23.29-7.4,10.83Z"/>
    <path class="cls-1" d="m40.02,57.99l-.85-1.02c-.52-.62-12.68-15.29-19-26.05-3.49-5.94-3.3-11-2.52-14.2.85-3.48,2.54-5.57,2.61-5.66l.32-.39,1.54,1.27-.31.39c-.06.07-5.86,7.46.09,17.57,5.36,9.12,15.15,21.3,17.97,24.75l5.65-8.27c-3.03-3.84-21.13-27.01-22.86-34.46-.68-2.94-.4-5.22.84-6.77,1.91-2.4,5.44-2.31,6.61-2.28h0c1.83,0,5.15.42,6.65,3.21,1.81,3.38.15,8.99-4.96,16.68l-.28.42-1-.66c6.78,10.32,16.87,23.02,17.01,23.2l.46.58-7.98,11.68Zm-.08-1.66h0s4.81-7.04,4.81-7.04l-4.81,7.04Zm-17.08-22.95c5.48,8.58,13.44,18.5,16.15,21.82-2.62-3.21-10.66-13.23-16.15-21.82Zm.54-22.91c.05.39.13.8.23,1.23,1.73,7.46,20.74,31.63,22.9,34.36l.23.29h0c-.21-.27-21.33-26.86-23.13-34.65-.1-.43-.18-.84-.23-1.23Zm-2.66,1.63c-.5.73-1.52,2.41-2.11,4.85-.63,2.59-.85,6.49,1.2,11.11-3.64-8.22-.16-14.37.92-15.96h0Zm10.5,9.69h0c4.58-7.01,6.17-12.08,4.72-15.07,1.02,2.11.94,6.42-4.72,15.07Zm-1.11-16.92c-1.38,0-3.86,0-5.07,1.52-.84,1.05-.99,2.76-.46,5.08.51,2.21,2.66,6.02,5.44,10.31l.08-.13c6.11-9.21,5.67-13.12,4.86-14.62-1.01-1.88-3.48-2.16-4.86-2.16Zm-5.47.48c-.14.13-.27.27-.39.42-.28.35-.49.74-.65,1.19.16-.44.38-.84.65-1.19.12-.15.25-.29.39-.42Zm4.85-1.49c-.91,0-2.34.08-3.6.66,1.43-.65,3.12-.65,4.17-.65.08,0,.17,0,.26,0-.09,0-.17,0-.26,0-.15,0-.35,0-.57,0Z"/>
  </g>
  <g>
    <polygon class="cls-1" points="19.54 58.65 11.56 47.17 20.49 34.81 21.3 35.4 12.78 47.18 19.56 56.93 28.42 44.87 29.23 45.46 19.54 58.65"/>
    <path class="cls-1" d="m19.53,59.51l-8.58-12.35,9.43-13.05,1.62,1.17-8.6,11.9,6.18,8.89,8.74-11.91,1.61,1.18-10.4,14.16Zm-3.71-7.1l3.74,5.38h0s-3.74-5.38-3.74-5.38Zm12.72-6.85l-6,8.16,6-8.16Zm-7.93-10.06l-2.23,3.09,2.23-3.09Z"/>
  </g>
  <g>
    <path class="cls-1" d="m38.43,31.66l-.87-.49c1.69-3.04,4.37-8.31,4.37-9.52s-3.93-9.64-6.41-14.66l.9-.44c.67,1.35,6.51,13.25,6.51,15.1s-4.04,9.17-4.5,10Z"/>
    <path class="cls-1" d="m38.62,32.34l-1.75-.97.24-.44c2.07-3.72,4.31-8.33,4.31-9.27s-3.3-8.24-6.36-14.44l-.22-.45,1.79-.89.22.45c1.54,3.12,6.56,13.45,6.56,15.32s-3.8,8.88-4.56,10.25l-.24.44Zm-.39-1.36h0c1.22-2.21,2.46-4.65,3.27-6.52-1.04,2.37-2.67,5.4-3.28,6.52Zm4.19-9.32h0Zm0,0h0Zm-6.24-14.43c.72,1.48,3.05,6.28,4.65,9.99-1.21-2.82-2.95-6.53-4.65-9.99h0Z"/>
  </g>
</svg>