<?xml version="1.0" encoding="UTF-8"?>
<svg id="Layer_1" data-name="Layer 1" xmlns="http://www.w3.org/2000/svg" viewBox="0 0 60 60">
  <defs>
    <style>
      .cls-1 {
        fill: #37464c;
        stroke-width: 0px;
      }
    </style>
  </defs>
  <rect class="cls-1" x="29" y="9" width="2" height="4"/>
  <path class="cls-1" d="m30,10c-2.21,0-4-1.79-4-4s1.79-4,4-4,4,1.79,4,4-1.79,4-4,4Zm0-6c-1.1,0-2,.9-2,2s.9,2,2,2,2-.9,2-2-.9-2-2-2Z"/>
  <path class="cls-1" d="m24,26c-2.21,0-4-1.79-4-4s1.79-4,4-4,4,1.79,4,4-1.79,4-4,4Zm0-6c-1.1,0-2,.9-2,2s.9,2,2,2,2-.9,2-2-.9-2-2-2Z"/>
  <path class="cls-1" d="m36,26c-2.21,0-4-1.79-4-4s1.79-4,4-4,4,1.79,4,4-1.79,4-4,4Zm0-6c-1.1,0-2,.9-2,2s.9,2,2,2,2-.9,2-2-.9-2-2-2Z"/>
  <path class="cls-1" d="m30,31c-1.16,0-2.31-.43-3.19-1.28-.4-.38-.41-1.02-.02-1.41.38-.4,1.02-.41,1.41-.02,1,.96,2.62.96,3.61,0,.4-.38,1.03-.37,1.41.02.38.4.37,1.03-.02,1.41-.88.85-2.04,1.28-3.19,1.28Z"/>
  <path class="cls-1" d="m30,58c-.09,0-.18-.01-.27-.04l-21-6c-.43-.12-.73-.52-.73-.96v-8c0-.55.45-1,1-1s1,.45,1,1v7.25l19,5.43v-19.92l-19-5.43v4.67c0,.55-.45,1-1,1s-1-.45-1-1v-6c0-.31.15-.61.4-.8.25-.19.57-.25.88-.16l21,6c.43.12.73.52.73.96v22c0,.31-.15.61-.4.8-.18.13-.39.2-.6.2Z"/>
  <path class="cls-1" d="m30,58c-.21,0-.43-.07-.6-.2-.25-.19-.4-.48-.4-.8v-22c0-.45.3-.84.73-.96l21-6c.3-.09.63-.03.88.16.25.19.4.48.4.8v6c0,.55-.45,1-1,1s-1-.45-1-1v-4.67l-19,5.43v19.92l19-5.43v-7.25c0-.55.45-1,1-1s1,.45,1,1v8c0,.45-.3.84-.73.96l-21,6c-.09.03-.18.04-.27.04Z"/>
  <path class="cls-1" d="m43,32.29c-.55,0-1-.45-1-1v-15.29c0-1.1-.9-2-2-2h-20c-1.1,0-2,.9-2,2v15.29c0,.55-.45,1-1,1s-1-.45-1-1v-15.29c0-2.21,1.79-4,4-4h20c2.21,0,4,1.79,4,4v15.29c0,.55-.45,1-1,1Z"/>
  <path class="cls-1" d="m9,44c-2.76,0-5-2.24-5-5s2.24-5,5-5,5,2.24,5,5-2.24,5-5,5Zm0-8c-1.65,0-3,1.35-3,3s1.35,3,3,3,3-1.35,3-3-1.35-3-3-3Z"/>
  <path class="cls-1" d="m51,44c-2.76,0-5-2.24-5-5s2.24-5,5-5,5,2.24,5,5-2.24,5-5,5Zm0-8c-1.65,0-3,1.35-3,3s1.35,3,3,3,3-1.35,3-3-1.35-3-3-3Z"/>
  <path class="cls-1" d="m46,28h-3c-.55,0-1-.45-1-1s.45-1,1-1h3v-6h-3c-.55,0-1-.45-1-1s.45-1,1-1h3c1.1,0,2,.9,2,2v6c0,1.1-.9,2-2,2Z"/>
  <path class="cls-1" d="m17,28h-3c-1.1,0-2-.9-2-2v-6c0-1.1.9-2,2-2h3c.55,0,1,.45,1,1s-.45,1-1,1h-3v6h3c.55,0,1,.45,1,1s-.45,1-1,1Z"/>
  <path class="cls-1" d="m24.71,23.71c-.27,0-.52-.11-.71-.3-.05-.04-.09-.09-.12-.15-.04-.05-.07-.11-.1-.17-.02-.06-.04-.12-.05-.19-.02-.06-.02-.13-.02-.19,0-.13.02-.26.07-.39.05-.12.13-.23.22-.32.09-.09.2-.17.32-.22.37-.15.82-.06,1.09.22.1.09.17.2.22.32.05.13.08.26.08.39,0,.06-.01.13-.02.19-.01.07-.03.13-.06.19-.02.06-.06.12-.09.17-.04.06-.08.11-.13.15-.04.05-.09.09-.15.13-.05.03-.11.07-.17.09-.06.03-.12.05-.19.06-.06,0-.13.02-.19.02Z"/>
  <path class="cls-1" d="m36.71,23.71c-.27,0-.52-.11-.71-.3-.05-.04-.09-.09-.12-.15-.04-.05-.07-.11-.1-.17-.02-.06-.04-.12-.05-.19-.02-.06-.02-.13-.02-.19,0-.27.1-.52.29-.71.37-.37,1.04-.37,1.41,0,.1.09.17.2.22.32.05.13.08.26.08.39,0,.06-.01.13-.02.19-.02.07-.04.13-.06.19-.03.06-.06.12-.09.17-.04.06-.08.11-.13.15-.18.19-.44.3-.7.3Z"/>
</svg>