<?xml version="1.0" encoding="UTF-8"?>
<svg id="Layer_1" data-name="Layer 1" xmlns="http://www.w3.org/2000/svg" viewBox="0 0 60 60">
  <defs>
    <style>
      .cls-1 {
        fill: #37464c;
        stroke-width: 0px;
      }
    </style>
  </defs>
  <path class="cls-1" d="m53.32,52H7.32c-1.65,0-3-1.35-3-3V11c0-1.65,1.35-3,3-3h46c1.65,0,3,1.35,3,3v38c0,1.65-1.35,3-3,3ZM7.32,10c-.55,0-1,.45-1,1v38c0,.55.45,1,1,1h46c.55,0,1-.45,1-1V11c0-.55-.45-1-1-1H7.32Z"/>
  <path class="cls-1" d="m48.32,46H12.32c-1.1,0-2-.9-2-2v-28c0-1.1.9-2,2-2h36c1.1,0,2,.9,2,2v5c0,.55-.45,1-1,1s-1-.45-1-1v-5H12.32v28h36v-5c0-.55.45-1,1-1s1,.45,1,1v5c0,1.1-.9,2-2,2Z"/>
  <path class="cls-1" d="m49.32,34c-.55,0-1-.45-1-1v-6c0-.55.45-1,1-1s1,.45,1,1v6c0,.55-.45,1-1,1Z"/>
  <path class="cls-1" d="m50.32,28h-4c-1.1,0-2-.9-2-2v-4c0-1.1.9-2,2-2h4c1.1,0,2,.9,2,2v4c0,1.1-.9,2-2,2Zm-4-6v4h4v-4h-4Z"/>
  <path class="cls-1" d="m50.32,40h-4c-1.1,0-2-.9-2-2v-4c0-1.1.9-2,2-2h4c1.1,0,2,.9,2,2v4c0,1.1-.9,2-2,2Zm-4-6v4h4v-4h-4Z"/>
  <path class="cls-1" d="m17.32,56h-6c-.55,0-1-.45-1-1v-4c0-.55.45-1,1-1h6c.55,0,1,.45,1,1v4c0,.55-.45,1-1,1Zm-5-2h4v-2h-4v2Z"/>
  <path class="cls-1" d="m49.32,56h-6c-.55,0-1-.45-1-1v-4c0-.55.45-1,1-1h6c.55,0,1,.45,1,1v4c0,.55-.45,1-1,1Zm-5-2h4v-2h-4v2Z"/>
  <path class="cls-1" d="m28.32,40h-10c-1.1,0-2-.9-2-2v-16c0-1.1.9-2,2-2h10c1.1,0,2,.9,2,2v16c0,1.1-.9,2-2,2Zm-10-18v16h10v-16h-10Z"/>
  <path class="cls-1" d="m21.32,32c-.26,0-.52-.11-.71-.29-.04-.05-.09-.1-.12-.16-.04-.05-.07-.11-.09-.17-.03-.06-.05-.12-.06-.18-.02-.07-.02-.13-.02-.2,0-.26.11-.52.29-.71.37-.37,1.05-.37,1.42,0,.18.19.29.45.29.71,0,.07,0,.13-.02.2,0,.06-.03.12-.06.18-.02.06-.05.12-.09.17-.04.06-.08.11-.12.16-.19.18-.45.29-.71.29Z"/>
  <path class="cls-1" d="m25.32,32c-.26,0-.52-.11-.71-.29-.18-.19-.29-.45-.29-.71,0-.13.02-.26.08-.38.05-.12.12-.23.21-.33.37-.37,1.05-.37,1.42,0,.09.1.16.21.21.33.05.12.08.25.08.38,0,.07,0,.13-.02.2,0,.06-.03.12-.06.18-.02.06-.05.12-.09.18-.04.05-.08.1-.12.15-.19.18-.45.29-.71.29Z"/>
  <path class="cls-1" d="m21.32,36c-.13,0-.26-.03-.38-.08-.13-.05-.24-.12-.33-.21-.09-.1-.16-.21-.21-.33-.06-.12-.08-.25-.08-.38s.02-.26.08-.38c.05-.12.12-.23.21-.33.37-.37,1.05-.37,1.42,0,.09.1.16.21.21.33.05.12.08.25.08.38s-.03.26-.08.38c-.05.12-.12.23-.21.33-.19.18-.45.29-.71.29Z"/>
  <path class="cls-1" d="m25.32,36c-.26,0-.52-.11-.71-.29-.09-.1-.16-.21-.21-.33-.06-.12-.08-.25-.08-.38s.02-.26.08-.38c.05-.12.12-.23.21-.33.37-.37,1.04-.37,1.42,0,.18.19.29.45.29.71s-.11.52-.29.71c-.19.18-.45.29-.71.29Z"/>
  <path class="cls-1" d="m29.32,28h-12c-.55,0-1-.45-1-1s.45-1,1-1h12c.55,0,1,.45,1,1s-.45,1-1,1Z"/>
</svg>