<?xml version="1.0" encoding="UTF-8"?>
<svg id="Layer_1" data-name="Layer 1" xmlns="http://www.w3.org/2000/svg" viewBox="0 0 60 60">
  <defs>
    <style>
      .cls-1 {
        fill: #37464c;
        stroke-width: 0px;
      }
    </style>
  </defs>
  <g>
    <path class="cls-1" d="m20.12,49c-.2,0-.4-.1-.51-.28l-8.19-12.41c-.17-.26-.12-.6.11-.8L46.25,5.55c1.71-1.47,4.26-1.56,6.06-.2l5.47,4.13c.2.15.29.42.22.66-.07.24-.29.42-.54.44l-3.11.23-.23,3.02c-.02.3-.26.54-.56.56l-3.11.23-.24,3.83c-.02.31-.27.55-.57.57l-4.01.24-.24,3.42c-.02.28-.22.51-.5.56l-3.95.74-.75,4.26c-.05.26-.25.46-.51.5l-4.75.75-.74,4.34c-.04.26-.25.46-.5.5l-4.56.75-.75,5.19c-.04.26-.24.47-.51.52l-6.11,1.02-1.02,6.65c-.04.25-.23.45-.47.5-.04,0-.09.01-.13.01Zm-7.38-12.91l7.02,10.64.85-5.52c.04-.26.24-.47.5-.51l6.11-1.02.75-5.2c.04-.26.24-.47.51-.52l4.57-.75.74-4.34c.04-.26.25-.46.51-.5l4.75-.75.74-4.25c.04-.25.24-.45.49-.5l3.9-.73.24-3.48c.02-.31.27-.55.57-.57l4.01-.24.24-3.82c.02-.31.26-.55.57-.57l3.11-.23.23-3.02c.02-.3.26-.54.56-.56l2.02-.15-4.18-3.16c-1.34-1.02-3.25-.95-4.52.15L12.74,36.09Z"/>
    <path class="cls-1" d="m20.12,49.37c-.33,0-.64-.17-.82-.44l-8.19-12.41c-.27-.41-.2-.97.18-1.29L46.01,5.26c1.84-1.59,4.59-1.68,6.53-.21l5.47,4.13c.33.25.47.67.35,1.07s-.47.68-.87.71l-2.79.21-.21,2.7c-.04.49-.42.87-.91.91l-2.78.21-.22,3.51c-.03.5-.43.89-.93.92l-3.68.22-.21,3.09c-.03.45-.36.82-.8.9l-3.69.69-.7,4.01c-.07.42-.4.74-.82.8l-4.49.71-.7,4.08c-.07.42-.4.74-.81.81l-4.29.7-.71,4.92c-.06.43-.39.76-.81.83l-5.85.97-.98,6.39c-.06.4-.37.73-.77.81-.07.01-.14.02-.21.02ZM49.4,4.76c-1.04,0-2.08.36-2.91,1.07L11.77,35.8c-.09.08-.11.21-.04.31l8.19,12.41c.05.08.17.12.25.1.1-.02.17-.1.19-.2l1.07-6.92,6.38-1.06c.1-.02.18-.1.2-.2l.79-5.46,4.83-.79c.1-.02.18-.09.2-.19l.79-4.61,5.02-.79c.1-.02.18-.09.2-.19l.79-4.52,4.21-.79c.11-.02.19-.11.19-.22l.26-3.75,4.34-.26c.12,0,.21-.1.22-.22l.26-4.16,3.43-.26c.12,0,.21-.1.22-.22l.26-3.34,3.44-.26c.1,0,.18-.08.21-.17.03-.09,0-.2-.08-.26l-5.47-4.13c-.79-.6-1.73-.89-2.68-.89Zm-29.43,42.99l-7.73-11.72.25-.22L46.81,6.19c1.41-1.21,3.51-1.28,4.99-.16l4.97,3.75-3.01.23c-.12,0-.21.1-.22.22l-.26,3.34-3.44.26c-.12,0-.21.1-.22.22l-.26,4.16-4.34.26c-.12,0-.21.1-.22.22l-.26,3.77-4.19.78c-.1.02-.17.09-.19.19l-.79,4.52-5.02.79c-.1.02-.18.09-.2.19l-.79,4.61-4.84.79c-.1.02-.18.1-.2.2l-.79,5.47-6.38,1.06c-.1.02-.18.1-.2.2l-1,6.48Zm-6.74-11.59l6.3,9.55.7-4.56c.06-.42.39-.75.81-.82l5.84-.97.72-4.92c.06-.43.39-.76.82-.83l4.31-.71.7-4.08c.07-.42.4-.74.82-.81l4.49-.71.7-3.99c.07-.4.39-.72.79-.8l3.62-.68.22-3.19c.03-.49.43-.89.93-.92l3.68-.22.22-3.49c.03-.49.42-.89.91-.92l2.79-.21.21-2.7c.04-.49.42-.87.91-.91l1.03-.08-3.39-2.56c-1.2-.91-2.91-.85-4.05.13L13.23,36.16Z"/>
  </g>
  <g>
    <path class="cls-1" d="m11.87,54.56c-.29,0-.59-.03-.88-.08-1.4-.25-2.64-1.09-3.38-2.3,0-.01-.01-.02-.02-.03l-2.95-5.49c-1.35-2.21-.82-5.04,1.25-6.61l5.66-4.55c.13-.11.31-.15.48-.13.17.03.32.12.42.27l8.19,12.41c.17.26.12.61-.12.81l-5.53,4.63c-.9.71-2,1.08-3.11,1.08Zm-3.21-3.01c.57.91,1.49,1.54,2.55,1.72,1.06.19,2.16-.08,3-.75l5.09-4.26-7.52-11.39-5.15,4.14c-1.58,1.2-1.98,3.35-.95,5.02,0,.01.01.02.02.03l2.95,5.49Z"/>
    <path class="cls-1" d="m11.87,54.94c-.32,0-.63-.03-.94-.08-1.51-.27-2.83-1.17-3.64-2.47l-2.98-5.54c-1.44-2.35-.86-5.4,1.35-7.08l5.65-4.55c.22-.18.5-.25.77-.21.27.04.52.2.67.43l8.19,12.41c.28.42.19.98-.19,1.3l-5.53,4.62c-.96.76-2.15,1.17-3.35,1.17Zm.06-19.2c-.05,0-.11.02-.15.05l-5.66,4.55c-1.91,1.45-2.41,4.08-1.16,6.12l2.96,5.51c.7,1.13,1.84,1.91,3.14,2.14,1.28.22,2.65-.11,3.69-.93l5.52-4.62c.09-.08.11-.21.05-.31l-8.19-12.41c-.04-.05-.1-.09-.16-.1-.01,0-.03,0-.04,0Zm-.06,17.97c-.24,0-.49-.02-.73-.06-1.16-.21-2.18-.9-2.8-1.89v-.02s-2.96-5.49-2.96-5.49c-1.14-1.85-.69-4.22,1.03-5.52l5.46-4.39,7.93,12.02-5.35,4.48c-.75.58-1.65.89-2.58.89Zm-2.89-2.35c.51.81,1.35,1.38,2.29,1.54.96.17,1.94-.07,2.71-.67l4.83-4.04-7.1-10.77-4.83,3.88c-1.42,1.08-1.79,3.02-.86,4.53l2.97,5.53Z"/>
  </g>
  <g>
    <path class="cls-1" d="m11.84,49.78c-.14,0-.28-.01-.42-.04-.68-.12-1.28-.53-1.64-1.12,0-.01-.01-.02-.02-.03l-1.21-2.26c-.65-1.07-.39-2.44.61-3.19l2.33-1.88c.13-.11.31-.15.48-.13.17.03.32.12.42.27l3.38,5.13c.17.26.12.61-.12.81l-2.28,1.91c-.44.35-.98.53-1.52.53Zm-1.01-1.78c.18.29.47.48.81.54.34.06.68-.02.96-.24l1.85-1.55-2.71-4.11-1.82,1.46c-.51.39-.64,1.07-.31,1.6,0,.01.01.02.02.03l1.21,2.26Z"/>
    <path class="cls-1" d="m11.84,50.15c-.16,0-.33-.01-.49-.04-.78-.14-1.47-.61-1.89-1.29l-1.24-2.31c-.74-1.21-.43-2.8.71-3.67l2.32-1.87c.22-.17.5-.25.77-.21.28.04.52.2.67.43l3.38,5.13c.28.42.2.98-.19,1.3l-2.28,1.91c-.51.4-1.13.62-1.76.62Zm.03-8.65c-.05,0-.11.02-.15.05l-2.33,1.88c-.85.64-1.07,1.81-.52,2.71l1.22,2.28c.31.51.82.85,1.39.96.58.1,1.17-.05,1.64-.42l2.27-1.9c.09-.08.11-.21.05-.31l-3.38-5.13c-.04-.06-.1-.09-.16-.1-.01,0-.02,0-.03,0Zm-.02,7.43c-.09,0-.19,0-.28-.03-.44-.08-.82-.33-1.06-.71v-.02s-1.23-2.26-1.23-2.26c-.44-.71-.26-1.61.4-2.11l2.13-1.72,3.12,4.73-2.11,1.76c-.29.23-.63.35-.98.35Zm-.7-1.12c.13.2.32.32.55.36.24.04.47-.01.66-.16l1.58-1.33-2.3-3.49-1.5,1.21c-.37.28-.46.74-.23,1.11l1.23,2.3Z"/>
  </g>
</svg>