<?xml version="1.0" encoding="UTF-8"?>
<svg id="Layer_1" data-name="Layer 1" xmlns="http://www.w3.org/2000/svg" viewBox="0 0 60 60">
  <defs>
    <style>
      .cls-1 {
        fill: #37464c;
        stroke-width: 0px;
      }
    </style>
  </defs>
  <g>
    <path class="cls-1" d="m40.75,53.43h-22.24c-5.13,0-9.3-4.17-9.3-9.3v-26.42c0-5.13,4.17-9.3,9.3-9.3h22.24c5.13,0,9.3,4.17,9.3,9.3v26.42c0,5.13-4.17,9.3-9.3,9.3ZM18.51,9.4c-4.58,0-8.3,3.72-8.3,8.3v26.42c0,4.58,3.72,8.3,8.3,8.3h22.24c4.58,0,8.3-3.72,8.3-8.3v-26.42c0-4.58-3.72-8.3-8.3-8.3h-22.24Z"/>
    <path class="cls-1" d="m40.75,53.8h-22.24c-5.34,0-9.68-4.34-9.68-9.68v-26.42c0-5.34,4.34-9.68,9.68-9.68h22.24c5.34,0,9.68,4.34,9.68,9.68v26.42c0,5.34-4.34,9.68-9.68,9.68ZM18.51,8.77c-4.92,0-8.93,4-8.93,8.93v26.42c0,4.92,4.01,8.93,8.93,8.93h22.24c4.92,0,8.93-4.01,8.93-8.93v-26.42c0-4.92-4.01-8.93-8.93-8.93h-22.24Zm22.24,44.02h-22.24c-4.78,0-8.67-3.89-8.67-8.67v-26.42c0-4.78,3.89-8.67,8.67-8.67h22.24c4.78,0,8.67,3.89,8.67,8.67v26.42c0,4.78-3.89,8.67-8.67,8.67ZM18.51,9.78c-4.37,0-7.92,3.55-7.92,7.92v26.42c0,4.37,3.55,7.92,7.92,7.92h22.24c4.37,0,7.92-3.55,7.92-7.92v-26.42c0-4.37-3.55-7.92-7.92-7.92h-22.24Z"/>
  </g>
  <g>
    <g>
      <path class="cls-1" d="m37.04,19.27h-14.83c-.28,0-.5-.22-.5-.5v-7.2c0-.28.22-.5.5-.5h14.83c.28,0,.5.22.5.5v7.2c0,.28-.22.5-.5.5Zm-14.33-1h13.83v-6.2h-13.83v6.2Z"/>
      <path class="cls-1" d="m37.04,19.39h-14.83c-.35,0-.63-.28-.63-.63v-7.21c0-.35.28-.63.63-.63h14.83c.35,0,.63.28.63.63v7.21c0,.35-.28.63-.63.63Zm-14.83-8.21c-.21,0-.38.17-.38.38v7.21c0,.21.17.38.38.38h14.83c.21,0,.38-.17.38-.38v-7.21c0-.21-.17-.38-.38-.38h-14.83Zm14.45,7.21h-14.08v-6.45h14.08v6.45Zm-13.83-.25h13.58v-5.95h-13.58v5.95Z"/>
    </g>
    <g>
      <g>
        <path class="cls-1" d="m26.17,15.13c0,1.17-.43,1.81-1.2,1.81-.67,0-1.13-.63-1.14-1.77,0-1.15.5-1.79,1.2-1.79s1.14.65,1.14,1.74Zm-1.87.05c0,.89.28,1.4.7,1.4.48,0,.7-.56.7-1.43s-.22-1.4-.7-1.4c-.41,0-.7.5-.7,1.43Z"/>
        <path class="cls-1" d="m24.98,17.07c-.77,0-1.25-.72-1.26-1.89,0-1.18.51-1.91,1.32-1.91s1.26.7,1.26,1.87c0,1.23-.48,1.94-1.32,1.94Zm.06-3.56c-.66,0-1.07.64-1.07,1.66,0,1.03.39,1.64,1.01,1.64.93,0,1.07-1.06,1.07-1.69,0-1.03-.37-1.62-1.01-1.62Zm-.03,3.2c-.52,0-.82-.57-.82-1.53,0-1.15.43-1.56.83-1.56.31,0,.82.2.82,1.53s-.52,1.56-.83,1.56Zm0-2.84c-.35,0-.58.51-.58,1.31s.22,1.28.57,1.28c.5,0,.58-.82.58-1.31s-.07-1.28-.57-1.28Z"/>
      </g>
      <g>
        <path class="cls-1" d="m28.89,15.13c0,1.17-.43,1.81-1.2,1.81-.67,0-1.13-.63-1.14-1.77,0-1.15.5-1.79,1.2-1.79s1.14.65,1.14,1.74Zm-1.87.05c0,.89.27,1.4.7,1.4.48,0,.7-.56.7-1.43s-.22-1.4-.7-1.4c-.41,0-.7.5-.7,1.43Z"/>
        <path class="cls-1" d="m27.69,17.07c-.77,0-1.25-.72-1.26-1.89,0-1.18.51-1.91,1.32-1.91s1.26.7,1.26,1.87c0,1.23-.48,1.94-1.32,1.94Zm.06-3.56c-.66,0-1.07.64-1.07,1.66,0,1.03.39,1.64,1.01,1.64.93,0,1.07-1.06,1.07-1.69,0-1.03-.37-1.62-1.01-1.62Zm-.03,3.2c-.52,0-.82-.57-.82-1.53,0-1.15.43-1.56.83-1.56.31,0,.82.2.82,1.53s-.52,1.56-.83,1.56Zm0-2.84c-.35,0-.58.51-.58,1.31s.22,1.28.57,1.28c.52,0,.58-.92.58-1.31,0-.48-.07-1.28-.57-1.28Z"/>
      </g>
      <g>
        <path class="cls-1" d="m29.36,16.61c0-.2.13-.33.32-.33s.31.14.31.33-.12.33-.32.33c-.19,0-.31-.14-.31-.33Z"/>
        <path class="cls-1" d="m29.67,17.07c-.25,0-.44-.2-.44-.46s.19-.46.44-.46.44.19.44.46-.19.46-.44.46Zm0-.67c-.12,0-.19.08-.19.21s.08.21.19.21c.14,0,.19-.11.19-.21,0-.13-.07-.21-.19-.21Z"/>
      </g>
      <g>
        <path class="cls-1" d="m32.7,15.13c0,1.17-.43,1.81-1.2,1.81-.67,0-1.13-.63-1.14-1.77,0-1.15.5-1.79,1.2-1.79s1.14.65,1.14,1.74Zm-1.87.05c0,.89.28,1.4.7,1.4.48,0,.7-.56.7-1.43s-.22-1.4-.7-1.4c-.41,0-.7.5-.7,1.43Z"/>
        <path class="cls-1" d="m31.5,17.07c-.77,0-1.25-.72-1.26-1.89,0-1.18.51-1.91,1.32-1.91s1.26.7,1.26,1.87c0,1.23-.48,1.94-1.32,1.94Zm.06-3.56c-.66,0-1.07.64-1.07,1.66,0,1.03.39,1.64,1.01,1.64.93,0,1.07-1.06,1.07-1.69,0-1.03-.37-1.62-1.01-1.62Zm-.03,3.2c-.52,0-.82-.57-.82-1.53,0-1.15.43-1.56.83-1.56.31,0,.82.2.82,1.53s-.52,1.56-.83,1.56Zm0-2.84c-.35,0-.58.51-.58,1.31s.22,1.28.57,1.28c.5,0,.58-.82.58-1.31s-.07-1.28-.57-1.28Z"/>
      </g>
      <g>
        <path class="cls-1" d="m35.41,15.13c0,1.17-.43,1.81-1.2,1.81-.67,0-1.13-.63-1.14-1.77,0-1.15.5-1.79,1.2-1.79s1.14.65,1.14,1.74Zm-1.87.05c0,.89.27,1.4.7,1.4.48,0,.7-.56.7-1.43s-.22-1.4-.7-1.4c-.41,0-.7.5-.7,1.43Z"/>
        <path class="cls-1" d="m34.22,17.07c-.77,0-1.25-.72-1.26-1.89,0-1.18.51-1.91,1.32-1.91s1.26.7,1.26,1.87c0,1.23-.48,1.94-1.32,1.94Zm.06-3.56c-.66,0-1.07.64-1.07,1.66,0,1.03.39,1.64,1.01,1.64.93,0,1.07-1.06,1.07-1.69,0-1.03-.37-1.62-1.01-1.62Zm-.03,3.2c-.52,0-.82-.57-.82-1.53,0-1.15.43-1.56.83-1.56.31,0,.82.2.82,1.53s-.52,1.56-.83,1.56Zm0-2.84c-.35,0-.58.51-.58,1.31s.22,1.28.57,1.28c.5,0,.58-.82.58-1.31s-.07-1.28-.57-1.28Z"/>
      </g>
    </g>
  </g>
</svg>