<?xml version="1.0" encoding="UTF-8"?>
<svg id="Layer_1" data-name="Layer 1" xmlns="http://www.w3.org/2000/svg" viewBox="0 0 60 60">
  <defs>
    <style>
      .cls-1 {
        fill: #37464c;
        stroke-width: 0px;
      }
    </style>
  </defs>
  <g>
    <g>
      <path class="cls-1" d="m29.45,56.92c-6.99,0-13.58-2.62-18.66-7.41l-3.16,3.16c-.22.22-.55.3-.85.21-.3-.09-.53-.34-.59-.65l-2.99-14.94c-.06-.3.05-.61.28-.81.23-.2.55-.26.84-.16l13.24,4.7c.28.1.48.33.54.61s-.02.58-.23.79l-2.28,2.28c3.77,3.47,9.02,5.67,13.61,5.67.47,0,.85.38.85.85s-.38.85-.85.85c-5.36,0-11.27-2.59-15.43-6.76-.33-.33-.33-.87,0-1.2l1.94-1.94-10.56-3.74,2.38,11.92,2.62-2.62c.16-.16.38-.25.6-.25h0c.23,0,.44.09.6.25,4.83,4.84,11.25,7.5,18.06,7.5,14.1,0,25.56-11.47,25.56-25.56,0-.19,0-.37-.01-.56v-.23c-.02-.47.35-.86.82-.87.44.02.86.36.87.83v.22c.01.2.02.41.02.61,0,15.03-12.23,27.26-27.26,27.26Z"/>
      <g>
        <path class="cls-1" d="m33.27,51.63c-.11,0-.22-.03-.32-.07-.1-.04-.2-.1-.27-.18-.09-.08-.15-.18-.19-.28-.04-.1-.06-.21-.06-.32,0-.23.09-.45.25-.61.23-.24.61-.31.92-.18.11.04.2.1.28.18.15.16.24.38.24.61,0,.11-.02.22-.06.32-.04.1-.1.2-.19.28-.07.08-.17.14-.27.18-.1.04-.21.07-.33.07Z"/>
        <path class="cls-1" d="m38.14,50.02c-.11,0-.22-.02-.33-.07-.1-.04-.19-.1-.27-.18s-.14-.17-.18-.28c-.05-.1-.07-.21-.07-.32,0-.23.09-.44.25-.6.23-.24.61-.31.93-.19.1.05.19.11.27.19.08.08.14.17.19.27.04.11.06.22.06.33s-.02.22-.06.32c-.05.11-.11.2-.19.28s-.17.14-.27.18c-.11.05-.22.07-.33.07Z"/>
        <path class="cls-1" d="m42.51,47.38c-.11,0-.22-.03-.32-.07-.11-.04-.2-.1-.28-.18-.16-.16-.25-.37-.25-.6s.09-.45.25-.6c.08-.08.17-.15.28-.19.2-.08.44-.09.65,0,.1.04.2.11.27.19.16.16.25.37.25.6,0,.11-.02.22-.06.32-.04.1-.11.2-.19.28s-.17.14-.27.18c-.1.04-.21.07-.33.07Z"/>
        <path class="cls-1" d="m46.17,43.83c-.23,0-.44-.09-.6-.25s-.25-.37-.25-.6.09-.44.25-.6c.31-.32.89-.32,1.2,0,.08.08.14.17.19.28.04.1.06.21.06.32,0,.12-.02.22-.06.33-.05.1-.11.19-.19.27-.08.08-.17.15-.27.19-.11.04-.22.06-.33.06Z"/>
        <path class="cls-1" d="m48.93,39.57c-.23,0-.44-.09-.6-.25-.08-.08-.15-.17-.19-.28-.04-.1-.06-.21-.06-.32s.02-.22.06-.33c.04-.1.11-.2.19-.28.23-.23.61-.3.92-.18.1.05.2.11.28.18.08.08.14.18.18.28.04.11.06.22.06.33s-.02.22-.06.32c-.04.11-.1.2-.18.28-.08.08-.18.14-.28.18s-.21.07-.32.07Z"/>
        <path class="cls-1" d="m50.64,34.8c-.12,0-.22-.02-.33-.06-.1-.05-.19-.11-.27-.19s-.15-.17-.19-.28c-.04-.1-.06-.21-.06-.32,0-.22.09-.44.25-.6.31-.32.89-.31,1.2,0,.16.16.25.38.25.6,0,.11-.02.22-.07.32-.04.11-.1.2-.18.28s-.18.14-.28.19c-.1.04-.21.06-.32.06Z"/>
        <path class="cls-1" d="m51.22,29.77c-.11,0-.22-.02-.33-.06-.1-.04-.19-.1-.27-.19-.08-.07-.14-.17-.19-.27-.04-.1-.06-.21-.06-.32,0-.12.02-.23.06-.33.05-.1.11-.2.19-.28.31-.31.89-.31,1.2,0,.08.08.14.18.18.28.05.1.07.21.07.33,0,.11-.02.22-.07.32-.04.1-.1.2-.18.27-.08.09-.17.15-.28.19-.1.04-.21.06-.32.06Z"/>
      </g>
    </g>
    <g>
      <path class="cls-1" d="m3.05,31.32c-.46,0-.84-.36-.85-.83v-.2c-.01-.21-.02-.42-.02-.63C2.18,14.63,14.41,2.4,29.45,2.4c6.99,0,13.58,2.62,18.66,7.4l3.15-3.15c.22-.22.55-.3.85-.21.3.09.53.34.59.65l2.99,14.94c.06.3-.05.61-.28.81-.23.2-.55.26-.84.16l-13.29-4.64c-.28-.1-.48-.33-.55-.61-.06-.29.02-.58.23-.79l2.4-2.39c-3.63-3.34-8.38-5.24-13.16-5.24-.47,0-.85-.38-.85-.85s.38-.85.85-.85c5.5,0,10.96,2.31,14.98,6.33.16.16.25.38.25.6,0,.23-.09.44-.25.6l-2.05,2.05,10.6,3.7-2.39-11.93-2.62,2.62c-.33.33-.87.33-1.2,0-4.83-4.83-11.25-7.5-18.07-7.5C15.35,4.1,3.88,15.56,3.88,29.66c0,.19,0,.39.01.58v.2c.02.47-.35.86-.82.87h-.02Z"/>
      <g>
        <path class="cls-1" d="m25.44,9.32c-.23,0-.44-.09-.6-.25-.16-.16-.25-.37-.25-.6s.09-.45.25-.6c.24-.24.61-.32.93-.19.1.05.19.11.27.19.16.16.25.38.25.6,0,.11-.02.22-.06.32-.05.11-.11.2-.19.28-.16.16-.37.25-.6.25Z"/>
        <path class="cls-1" d="m20.74,10.85c-.11,0-.22-.03-.32-.07-.1-.04-.2-.1-.28-.18-.16-.16-.25-.37-.25-.6,0-.12.03-.23.07-.33.04-.11.1-.2.18-.28.08-.07.17-.14.28-.18.21-.08.44-.08.65,0,.1.04.2.11.28.18.15.16.24.38.24.61s-.09.44-.25.6c-.08.08-.17.14-.27.18-.1.04-.21.07-.33.07Z"/>
        <path class="cls-1" d="m16.52,13.36c-.11,0-.22-.02-.33-.06-.1-.05-.19-.11-.27-.19-.16-.16-.25-.37-.25-.6s.09-.44.25-.6c.08-.08.17-.14.27-.18.31-.13.69-.06.93.18.16.16.25.38.25.6,0,.23-.09.44-.25.6-.16.16-.37.25-.6.25Z"/>
        <path class="cls-1" d="m12.99,16.73c-.12,0-.23-.02-.33-.06s-.19-.1-.27-.18c-.16-.16-.25-.37-.25-.6,0-.12.02-.23.06-.33.05-.11.11-.2.19-.28.07-.08.17-.14.27-.18.31-.13.69-.06.93.18.16.16.25.38.25.61,0,.11-.02.22-.07.32-.04.1-.1.2-.18.28-.16.16-.37.24-.6.24Z"/>
        <path class="cls-1" d="m10.33,20.79c-.23,0-.44-.08-.61-.24-.08-.08-.14-.18-.18-.28-.04-.1-.06-.21-.06-.33,0-.22.09-.44.24-.6.08-.07.17-.14.28-.18.31-.13.69-.05.93.18.15.16.25.38.25.6,0,.23-.09.44-.26.61-.08.08-.17.14-.27.18-.1.04-.21.06-.32.06Z"/>
        <path class="cls-1" d="m8.67,25.33c-.23,0-.44-.09-.6-.25s-.25-.37-.25-.6c0-.11.02-.22.07-.32.04-.11.1-.2.18-.28s.17-.14.27-.18c.32-.13.7-.06.93.18.16.16.25.38.25.6,0,.12-.02.22-.06.33-.05.1-.11.19-.19.27-.08.08-.17.15-.27.19-.11.04-.22.06-.33.06Z"/>
        <path class="cls-1" d="m8.11,30.11c-.23,0-.44-.08-.6-.24-.08-.08-.14-.18-.19-.28-.04-.1-.06-.21-.06-.32,0-.12.02-.23.07-.33.04-.1.1-.2.18-.28.08-.07.17-.14.27-.18.32-.13.7-.05.93.18.16.16.25.38.25.61,0,.11-.02.22-.06.32-.05.1-.11.2-.19.28s-.17.14-.27.18c-.11.04-.22.06-.33.06Z"/>
      </g>
    </g>
  </g>
  <g>
    <path class="cls-1" d="m36.66,31.95c-1.26,0-2.29-1.03-2.29-2.29s1.03-2.29,2.29-2.29,2.29,1.03,2.29,2.29-1.03,2.29-2.29,2.29Zm0-3.08c-.43,0-.79.35-.79.79s.35.79.79.79.79-.35.79-.79-.35-.79-.79-.79Z"/>
    <path class="cls-1" d="m34.61,38.62c-1.26,0-2.29-1.03-2.29-2.29s1.03-2.29,2.29-2.29,2.29,1.03,2.29,2.29-1.03,2.29-2.29,2.29Zm0-3.08c-.43,0-.79.35-.79.79s.35.79.79.79.79-.35.79-.79-.35-.79-.79-.79Z"/>
    <path class="cls-1" d="m29.49,41.69c-1.26,0-2.29-1.03-2.29-2.29s1.03-2.29,2.29-2.29,2.29,1.03,2.29,2.29-1.03,2.29-2.29,2.29Zm0-3.08c-.43,0-.79.35-.79.79s.35.79.79.79.79-.35.79-.79-.35-.79-.79-.79Z"/>
    <path class="cls-1" d="m30.51,25.29c-1.26,0-2.29-1.03-2.29-2.29s1.03-2.29,2.29-2.29,2.29,1.03,2.29,2.29-1.03,2.29-2.29,2.29Zm0-3.08c-.43,0-.79.35-.79.79s.35.79.79.79.79-.35.79-.79-.35-.79-.79-.79Z"/>
    <path class="cls-1" d="m30.51,27.34h-11.28c-.41,0-.75-.34-.75-.75s.34-.75.75-.75h10.53v-1.3c0-.41.34-.75.75-.75s.75.34.75.75v2.05c0,.41-.34.75-.75.75Z"/>
    <path class="cls-1" d="m34.61,35.54c-.41,0-.75-.34-.75-.75v-1.3h-14.63c-.41,0-.75-.34-.75-.75s.34-.75.75-.75h15.38c.41,0,.75.34.75.75v2.05c0,.41-.34.75-.75.75Z"/>
    <path class="cls-1" d="m29.49,38.62c-.41,0-.75-.34-.75-.75v-1.3h-9.5c-.41,0-.75-.34-.75-.75s.34-.75.75-.75h10.25c.41,0,.75.34.75.75v2.05c0,.41-.34.75-.75.75Z"/>
    <path class="cls-1" d="m35.13,30.42h-15.89c-.41,0-.75-.34-.75-.75s.34-.75.75-.75h15.89c.41,0,.75.34.75.75s-.34.75-.75.75Z"/>
    <path class="cls-1" d="m30,44.77c-.09,0-.19-.02-.28-.05-.22-.09-5.37-2.19-8.63-6.39-.25-.33-.2-.8.13-1.05.33-.26.8-.19,1.05.13,2.6,3.34,6.64,5.3,7.73,5.79,1.65-.74,10.01-4.86,10.01-12v-9.31c-1.18-.67-5.25-2.75-10.01-2.75s-8.83,2.08-10.01,2.75v2.65c0,.41-.34.75-.75.75s-.75-.34-.75-.75v-3.08c0-.26.13-.49.35-.63.2-.13,5.07-3.19,11.17-3.19s10.96,3.06,11.17,3.19c.22.14.35.38.35.63v9.74c0,8.9-10.78,13.33-11.24,13.51-.09.04-.18.05-.28.05Z"/>
  </g>
</svg>