<?xml version="1.0" encoding="UTF-8"?>
<svg id="Layer_1" data-name="Layer 1" xmlns="http://www.w3.org/2000/svg" viewBox="0 0 60 60">
  <defs>
    <style>
      .cls-1 {
        fill: #37464c;
        stroke-width: 0px;
      }
    </style>
  </defs>
  <path class="cls-1" d="m25.56,47.22c-.26,0-.51-.1-.71-.29l-12.64-12.64c-.19-.19-.29-.44-.29-.71s.11-.52.29-.71l5.42-5.42c.39-.39,1.02-.39,1.41,0l6.51,6.51,15.54-15.54c.39-.39,1.02-.39,1.41,0l5.42,5.42c.39.39.39,1.02,0,1.41l-21.66,21.66c-.2.2-.45.29-.71.29Zm-11.22-13.64l11.22,11.22,20.25-20.25-4-4-15.54,15.54c-.39.39-1.02.39-1.41,0l-6.51-6.51-4,4Z"/>
  <path class="cls-1" d="m30.6,57.21c-14.63,0-26.53-11.9-26.53-26.53S15.97,4.15,30.6,4.15s26.53,11.9,26.53,26.53-11.9,26.53-26.53,26.53Zm0-51.06c-13.53,0-24.53,11-24.53,24.53s11,24.53,24.53,24.53,24.53-11,24.53-24.53S44.12,6.15,30.6,6.15Z"/>
</svg>