<?xml version="1.0" encoding="UTF-8"?>
<svg id="Layer_1" data-name="Layer 1" xmlns="http://www.w3.org/2000/svg" viewBox="0 0 60 60">
  <defs>
    <style>
      .cls-1 {
        fill: #37464c;
        stroke-width: 0px;
      }
    </style>
  </defs>
  <g>
    <path class="cls-1" d="m32.79,38.21H8.92c-1.3,0-2.52-.51-3.43-1.42-.92-.92-1.42-2.14-1.42-3.43V14.08c0-2.68,2.18-4.85,4.86-4.85h37.95c1.3,0,2.52.51,3.43,1.43.92.92,1.42,2.14,1.42,3.43v9.99c0,.33-.27.6-.6.6h0c-.33,0-.6-.27-.6-.6v-9.99c0-.97-.38-1.89-1.07-2.58-.69-.69-1.61-1.07-2.58-1.07H8.92s0,0,0,0c-2.01,0-3.65,1.64-3.65,3.65v19.28c0,.97.38,1.89,1.07,2.58.69.69,1.61,1.07,2.58,1.07h23.88c.33,0,.6.27.6.61s-.27.6-.6.6Z"/>
    <path class="cls-1" d="m32.79,38.59H8.92c-1.4,0-2.71-.55-3.7-1.53-.99-.99-1.53-2.3-1.53-3.7V14.08c0-2.88,2.35-5.23,5.23-5.23h37.95c1.4,0,2.71.55,3.7,1.53.99.99,1.53,2.3,1.53,3.7v9.99c0,.54-.44.98-.98.98s-.98-.44-.98-.98v-9.99c0-.87-.34-1.7-.96-2.31-.62-.62-1.44-.96-2.32-.96H8.92c-1.81,0-3.27,1.46-3.27,3.27v19.28c0,.87.34,1.7.96,2.31.62.62,1.44.96,2.31.96h23.88c.54,0,.98.44.98.98s-.44.98-.98.98ZM8.92,9.6c-2.47,0-4.48,2.01-4.48,4.48v19.28c0,1.2.46,2.32,1.31,3.17.85.85,1.97,1.31,3.17,1.31h23.88c.12,0,.23-.1.23-.23s-.1-.23-.23-.23H8.92c-1.07,0-2.08-.42-2.84-1.18s-1.18-1.77-1.18-2.84V14.08c0-2.22,1.81-4.02,4.03-4.02h37.95c1.08,0,2.09.42,2.85,1.18.76.76,1.18,1.77,1.18,2.84v9.99c0,.25.45.25.45,0v-9.99c0-1.2-.46-2.32-1.31-3.17-.84-.85-1.97-1.31-3.17-1.31H8.92Z"/>
  </g>
  <g>
    <polygon class="cls-1" points="32.27 32.94 4.07 32.94 4.07 25.12 35.64 25.13 35.64 26.33 5.27 26.33 5.27 31.73 32.27 31.73 32.27 32.94"/>
    <path class="cls-1" d="m32.65,33.31H3.69s0-8.57,0-8.57h32.32v1.96H5.65s0,4.65,0,4.65h27v1.96Zm-28.21-.75h27.46s0-.45,0-.45H4.9s0-6.16,0-6.16h30.37s0-.45,0-.45H4.44s0,7.06,0,7.06Z"/>
  </g>
  <g>
    <path class="cls-1" d="m43.41,20.33h0c-.91,0-1.77-.35-2.42-.99l.84-.86c.42.42.98.64,1.58.64h0c.6,0,1.17-.23,1.59-.66.43-.43.66-.99.66-1.59s-.23-1.17-.66-1.59c-.43-.43-.99-.66-1.59-.66s-1.17.23-1.59.66l-.85-.85c.65-.65,1.52-1.01,2.45-1.01.92,0,1.79.36,2.45,1.01.65.65,1.01,1.52,1.01,2.44,0,.92-.36,1.79-1.01,2.44-.65.65-1.52,1.01-2.44,1.01Z"/>
    <path class="cls-1" d="m43.41,20.7c-1.01,0-1.96-.39-2.68-1.1l-.27-.26,1.37-1.4.27.26c.71.7,1.94.69,2.64-.01.36-.35.55-.83.55-1.33s-.2-.97-.55-1.33c-.71-.71-1.95-.71-2.66,0l-.27.26-1.38-1.38.26-.27c.72-.72,1.69-1.12,2.71-1.12,1.02,0,1.99.4,2.71,1.12.72.72,1.12,1.69,1.12,2.71s-.4,1.99-1.12,2.71c-.72.72-1.69,1.12-2.71,1.12Zm-1.88-1.38c.54.41,1.19.63,1.88.63h0c.82,0,1.6-.32,2.18-.9.58-.58.9-1.36.9-2.18s-.32-1.6-.9-2.18c-1.07-1.07-2.9-1.17-4.08-.25l.32.33c1-.76,2.53-.66,3.43.25.5.5.77,1.16.77,1.86s-.27,1.36-.77,1.86c-.89.89-2.41,1-3.41.26l-.32.33Z"/>
  </g>
  <g>
    <path class="cls-1" d="m39.41,20.33h0c-1.91,0-3.46-1.55-3.46-3.46,0-1.91,1.55-3.46,3.46-3.46h0c1.91,0,3.46,1.55,3.46,3.46h0c0,1.91-1.55,3.46-3.46,3.46Zm0-5.71c-1.24,0-2.25,1.01-2.25,2.25,0,1.24,1.01,2.25,2.25,2.25h0c1.24,0,2.25-1.01,2.25-2.25,0-1.24-1.01-2.25-2.25-2.25Z"/>
    <path class="cls-1" d="m39.42,20.7c-2.11,0-3.83-1.72-3.83-3.83s1.72-3.83,3.83-3.83,3.83,1.72,3.83,3.83c0,2.11-1.72,3.83-3.83,3.83Zm0-6.91c-1.7,0-3.08,1.38-3.08,3.08s1.38,3.08,3.08,3.08h0c1.7,0,3.08-1.38,3.08-3.08,0-1.7-1.38-3.08-3.08-3.08Zm0,5.71c-1.45,0-2.63-1.18-2.63-2.63s1.18-2.63,2.63-2.63,2.63,1.18,2.63,2.63-1.18,2.63-2.63,2.63Zm0-4.5c-1.04,0-1.88.84-1.88,1.88s.84,1.88,1.88,1.88,1.88-.84,1.88-1.88-.84-1.88-1.88-1.88Z"/>
  </g>
  <g>
    <path class="cls-1" d="m18.95,17.47h-9.61c-.33,0-.6-.27-.6-.6s.27-.6.6-.6h9.61c.33,0,.6.27.6.6s-.27.6-.6.6Z"/>
    <path class="cls-1" d="m18.95,17.85h-9.61c-.54,0-.98-.44-.98-.98s.44-.98.98-.98h9.61c.54,0,.98.44.98.98s-.44.98-.98.98Zm-9.61-1.21c-.12,0-.23.1-.23.23s.1.23.23.23h9.61c.12,0,.23-.1.23-.23s-.1-.23-.23-.23h-9.61Z"/>
  </g>
  <g>
    <path class="cls-1" d="m27.9,17.47h-5.24c-.33,0-.6-.27-.6-.6s.27-.6.6-.6h5.24c.33,0,.6.27.6.6s-.27.6-.6.6Z"/>
    <path class="cls-1" d="m27.9,17.85h-5.24c-.54,0-.98-.44-.98-.98s.44-.98.98-.98h5.24c.54,0,.98.44.98.98s-.44.98-.98.98Zm-5.24-1.21c-.12,0-.23.1-.23.23s.1.23.23.23h5.24c.12,0,.23-.1.23-.23s-.1-.23-.23-.23h-5.24Z"/>
  </g>
  <g>
    <path class="cls-1" d="m22.66,21.66h-13.33c-.33,0-.6-.27-.6-.6s.27-.6.6-.6h13.33c.33,0,.6.27.6.6s-.27.6-.6.6Z"/>
    <path class="cls-1" d="m22.66,22.03h-13.33c-.54,0-.98-.44-.98-.98s.44-.98.98-.98h13.33c.54,0,.98.44.98.98s-.44.98-.98.98Zm-13.33-1.21c-.12,0-.23.1-.23.23s.1.23.23.23h13.33c.12,0,.23-.1.23-.23s-.1-.23-.23-.23h-13.33Z"/>
  </g>
  <g>
    <path class="cls-1" d="m44.36,46.78h0c-3.39,0-6.58-1.32-8.97-3.72-2.4-2.4-3.72-5.58-3.72-8.97,0-3.39,1.32-6.57,3.72-8.97,2.4-2.4,5.58-3.71,8.97-3.71h0c7,0,12.69,5.69,12.69,12.69h0c0,6.99-5.69,12.68-12.69,12.68Zm0-24.16c-3.07,0-5.95,1.19-8.12,3.36-2.17,2.17-3.36,5.05-3.37,8.12,0,3.07,1.19,5.95,3.36,8.12,2.17,2.17,5.05,3.36,8.12,3.36h0c6.33,0,11.49-5.15,11.49-11.48,0-6.33-5.15-11.48-11.49-11.48h0Z"/>
    <path class="cls-1" d="m44.36,47.15c-3.49,0-6.77-1.36-9.24-3.83-2.47-2.47-3.83-5.75-3.83-9.24,0-3.49,1.36-6.77,3.83-9.23,2.47-2.46,5.75-3.82,9.24-3.82,7.21,0,13.07,5.86,13.07,13.06,0,7.2-5.86,13.06-13.07,13.06Zm0-25.37c-3.29,0-6.38,1.28-8.71,3.6-2.33,2.33-3.61,5.42-3.61,8.7,0,3.29,1.28,6.38,3.61,8.7,2.33,2.33,5.42,3.61,8.71,3.61h0c6.79,0,12.32-5.52,12.32-12.31,0-6.79-5.52-12.31-12.32-12.31Zm0,24.16c-3.17,0-6.15-1.23-8.39-3.47-2.24-2.24-3.47-5.22-3.47-8.38s1.23-6.14,3.48-8.38c2.24-2.24,5.22-3.47,8.39-3.47h0c6.54,0,11.86,5.32,11.86,11.86,0,6.54-5.32,11.85-11.86,11.85Zm0-23.33v.38c-2.97,0-5.76,1.15-7.86,3.25-2.1,2.1-3.25,4.88-3.25,7.85s1.16,5.75,3.25,7.85c2.1,2.1,4.89,3.25,7.86,3.25,6.13,0,11.11-4.98,11.11-11.1,0-6.12-4.98-11.1-11.11-11.11v-.38Z"/>
  </g>
  <g>
    <g>
      <path class="cls-1" d="m48.71,41.16h-8.69c-.33,0-.6-.27-.6-.6v-7.61c0-.16.06-.31.18-.43s.27-.18.43-.18h8.69c.16,0,.31.06.43.18.11.11.18.27.18.43v7.61c0,.33-.27.6-.6.6Zm-8.09-1.21h7.49s0-6.4,0-6.4h-7.49s0,6.4,0,6.4Z"/>
      <path class="cls-1" d="m48.71,41.29h-8.69c-.4,0-.73-.33-.73-.73v-7.61c0-.19.08-.38.21-.51.13-.13.32-.21.51-.21h8.69c.19,0,.38.08.51.21.13.13.21.32.21.51v7.61c0,.4-.33.73-.73.73Zm-8.69-8.82c-.13,0-.25.05-.34.14-.09.09-.14.21-.14.34v7.61c0,.26.21.48.48.48h8.69c.26,0,.48-.21.48-.48v-7.61c0-.13-.05-.25-.14-.34-.09-.09-.21-.14-.34-.14h-8.69Zm8.22,7.61h-7.74s0-6.66,0-6.66h7.74s0,6.66,0,6.66Zm-7.49-.25h7.24s0-6.15,0-6.15h-7.24s0,6.15,0,6.15Z"/>
    </g>
    <g>
      <path class="cls-1" d="m47.79,33.55h-6.85c-.33,0-.6-.27-.6-.6v-3.42c0-2.22,1.81-4.03,4.03-4.03h0c2.22,0,4.03,1.81,4.03,4.03h0s0,3.42,0,3.42c0,.33-.27.6-.6.6Zm-6.25-1.21h5.65s0-2.82,0-2.82c0-1.56-1.27-2.82-2.82-2.82-1.56,0-2.82,1.27-2.82,2.82v2.82Zm6.25-2.82h0,0Z"/>
      <path class="cls-1" d="m47.79,33.68h-6.85c-.4,0-.73-.33-.73-.73v-3.42c0-2.29,1.86-4.15,4.16-4.15s4.15,1.86,4.15,4.15v3.42c0,.4-.33.73-.73.73Zm-3.43-8.05c-2.15,0-3.9,1.75-3.9,3.9v3.42c0,.26.21.48.48.48h6.85c.26,0,.48-.21.48-.48v-3.42c0-2.15-1.75-3.9-3.9-3.9Zm2.95,6.85h-5.9s0-2.95,0-2.95c0-1.62,1.32-2.95,2.95-2.95,1.63,0,2.95,1.32,2.95,2.95v2.95Zm-5.65-.25h5.4s0-2.7,0-2.7c0-1.49-1.21-2.7-2.7-2.7-1.49,0-2.7,1.21-2.7,2.7v2.7Zm6.13-2.57v-.25s0,0,0,0v.25Z"/>
    </g>
    <g>
      <path class="cls-1" d="m44.8,39.05h-.87c-.31,0-.6-.14-.79-.39-.19-.25-.25-.56-.17-.86l.27-1c-.2-.25-.31-.56-.31-.89,0-.45.2-.87.56-1.14.36-.28.82-.37,1.26-.25.49.13.89.53,1.02,1.01.12.45.02.92-.26,1.27l.27,1c.08.3.02.62-.17.86-.19.25-.48.39-.79.39Zm-.61-1.21h.34l-.17-.63-.17.63Zm.17-2.17c-.07,0-.11.02-.15.05-.06.05-.09.11-.09.19,0,.08.04.15.11.2l.13.09.13-.09s.14-.11.1-.27c-.02-.07-.08-.14-.15-.15-.03,0-.05,0-.07,0Z"/>
      <path class="cls-1" d="m44.8,39.17h-.88c-.35,0-.68-.16-.89-.44-.21-.28-.29-.63-.19-.97l.25-.94c-.19-.26-.3-.59-.3-.92,0-.49.22-.94.61-1.24.39-.3.88-.4,1.37-.28.53.14.97.57,1.11,1.1.12.46.03.95-.24,1.33l.25.94c.09.34.02.69-.19.97-.21.28-.54.44-.89.44Zm-.44-4.58c-.29,0-.57.09-.81.28-.33.25-.51.63-.51,1.04,0,.29.1.58.28.81l.04.05-.28,1.06c-.07.26-.02.54.15.76.17.22.42.34.69.34h.88c.27,0,.53-.12.69-.34.17-.22.22-.49.15-.76l-.28-1.06.04-.05c.25-.32.34-.76.24-1.16-.12-.45-.48-.81-.93-.92-.12-.03-.23-.04-.35-.04Zm.33,3.38h-.66l.33-1.24.33,1.24Zm-.34-.25h0v-.02s0,.02,0,.02Zm0-1.37l-.2-.13c-.1-.07-.16-.18-.16-.3,0-.11.05-.22.14-.29.06-.05.19-.1.33-.06.11.03.21.13.24.24.05.19-.04.34-.15.41l-.2.13Zm0-.55s-.05,0-.07.02c-.03.02-.04.05-.04.09,0,.04.02.07.05.09l.06.04.06-.04s.06-.08.04-.14c0-.03-.04-.06-.07-.06-.02,0-.03,0-.04,0Z"/>
    </g>
  </g>
</svg>