<?xml version="1.0" encoding="UTF-8"?>
<svg id="Layer_1" data-name="Layer 1" xmlns="http://www.w3.org/2000/svg" viewBox="0 0 60 60">
  <defs>
    <style>
      .cls-1 {
        fill: #37464c;
        stroke-width: 0px;
      }
    </style>
  </defs>
  <g>
    <path class="cls-1" d="m10.92,37c-2.76,0-5-2.24-5-5s2.24-5,5-5,5,2.24,5,5-2.24,5-5,5Zm0-8c-1.65,0-3,1.35-3,3s1.35,3,3,3,3-1.35,3-3-1.35-3-3-3Z"/>
    <path class="cls-1" d="m16.92,43H4.92c-.55,0-1-.45-1-1,0-3.86,3.14-7,7-7s7,3.14,7,7c0,.55-.45,1-1,1Zm-10.9-2h9.8c-.46-2.28-2.48-4-4.9-4s-4.43,1.72-4.9,4Z"/>
    <path class="cls-1" d="m29.92,51c-2.76,0-5-2.24-5-5s2.24-5,5-5,5,2.24,5,5-2.24,5-5,5Zm0-8c-1.65,0-3,1.35-3,3s1.35,3,3,3,3-1.35,3-3-1.35-3-3-3Z"/>
    <path class="cls-1" d="m35.92,57h-12c-.55,0-1-.45-1-1,0-3.86,3.14-7,7-7s7,3.14,7,7c0,.55-.45,1-1,1Zm-10.9-2h9.8c-.46-2.28-2.48-4-4.9-4s-4.43,1.72-4.9,4Z"/>
    <path class="cls-1" d="m48.92,37c-2.76,0-5-2.24-5-5s2.24-5,5-5,5,2.24,5,5-2.24,5-5,5Zm0-8c-1.65,0-3,1.35-3,3s1.35,3,3,3,3-1.35,3-3-1.35-3-3-3Z"/>
    <path class="cls-1" d="m54.92,43h-12c-.55,0-1-.45-1-1,0-3.86,3.14-7,7-7s7,3.14,7,7c0,.55-.45,1-1,1Zm-10.9-2h9.8c-.46-2.28-2.48-4-4.9-4s-4.43,1.72-4.9,4Z"/>
    <path class="cls-1" d="m40.92,37c-3.86,0-7-3.14-7-7,0-.55.45-1,1-1s1,.45,1,1c0,2.76,2.24,5,5,5,.55,0,1,.45,1,1s-.45,1-1,1Z"/>
    <path class="cls-1" d="m18.92,37c-.55,0-1-.45-1-1s.45-1,1-1c2.76,0,5-2.24,5-5,0-.55.45-1,1-1s1,.45,1,1c0,3.86-3.14,7-7,7Z"/>
    <path class="cls-1" d="m29.92,39c-.55,0-1-.45-1-1v-8c0-.55.45-1,1-1s1,.45,1,1v8c0,.55-.45,1-1,1Z"/>
    <path class="cls-1" d="m46.92,25h-5.36c-.55,0-1-.45-1-1s.45-1,1-1h5.36c.55,0,1,.45,1,1s-.45,1-1,1Z"/>
    <path class="cls-1" d="m18.28,25h-5.36c-.55,0-1-.45-1-1s.45-1,1-1h5.36c.55,0,1,.45,1,1s-.45,1-1,1Z"/>
  </g>
  <g>
    <path class="cls-1" d="m36.42,17.2c-1.21,0-2.2-.99-2.2-2.2s.99-2.2,2.2-2.2,2.2.99,2.2,2.2-.99,2.2-2.2,2.2Zm0-3c-.44,0-.8.36-.8.8s.36.8.8.8.8-.36.8-.8-.36-.8-.8-.8Z"/>
    <path class="cls-1" d="m34.42,23.7c-1.21,0-2.2-.99-2.2-2.2s.99-2.2,2.2-2.2,2.2.99,2.2,2.2-.99,2.2-2.2,2.2Zm0-3c-.44,0-.8.36-.8.8s.36.8.8.8.8-.36.8-.8-.36-.8-.8-.8Z"/>
    <path class="cls-1" d="m29.42,26.7c-1.21,0-2.2-.99-2.2-2.2s.99-2.2,2.2-2.2,2.2.99,2.2,2.2-.99,2.2-2.2,2.2Zm0-3c-.44,0-.8.36-.8.8s.36.8.8.8.8-.36.8-.8-.36-.8-.8-.8Z"/>
    <path class="cls-1" d="m30.42,10.7c-1.21,0-2.2-.99-2.2-2.2s.99-2.2,2.2-2.2,2.2.99,2.2,2.2-.99,2.2-2.2,2.2Zm0-3c-.44,0-.8.36-.8.8s.36.8.8.8.8-.36.8-.8-.36-.8-.8-.8Z"/>
    <path class="cls-1" d="m30.42,12.7h-11c-.39,0-.7-.31-.7-.7s.31-.7.7-.7h10.3v-1.3c0-.39.31-.7.7-.7s.7.31.7.7v2c0,.39-.31.7-.7.7Z"/>
    <path class="cls-1" d="m34.42,20.7c-.39,0-.7-.31-.7-.7v-1.3h-14.3c-.39,0-.7-.31-.7-.7s.31-.7.7-.7h15c.39,0,.7.31.7.7v2c0,.39-.31.7-.7.7Z"/>
    <path class="cls-1" d="m29.42,23.7c-.39,0-.7-.31-.7-.7v-1.3h-9.3c-.39,0-.7-.31-.7-.7s.31-.7.7-.7h10c.39,0,.7.31.7.7v2c0,.39-.31.7-.7.7Z"/>
    <path class="cls-1" d="m34.92,15.7h-15.5c-.39,0-.7-.31-.7-.7s.31-.7.7-.7h15.5c.39,0,.7.31.7.7s-.31.7-.7.7Z"/>
    <path class="cls-1" d="m29.92,30c-.13,0-.25-.02-.37-.07-.21-.09-5.31-2.17-8.53-6.31-.34-.44-.26-1.06.17-1.4.44-.34,1.06-.26,1.4.17,2.42,3.1,6.14,4.98,7.33,5.52,1.8-.83,9.5-4.75,9.5-11.41V7.58c-1.28-.71-5.08-2.58-9.5-2.58s-8.22,1.87-9.5,2.57v2.43c0,.55-.45,1-1,1s-1-.45-1-1v-3c0-.34.17-.66.46-.84.2-.13,5.02-3.16,11.04-3.16s10.84,3.03,11.04,3.16c.29.18.46.5.46.84v9.5c0,8.86-10.67,13.25-11.13,13.43-.12.05-.25.07-.37.07Z"/>
  </g>
</svg>