<?xml version="1.0" encoding="UTF-8"?>
<svg id="Layer_1" data-name="Layer 1" xmlns="http://www.w3.org/2000/svg" viewBox="0 0 60 60">
  <defs>
    <style>
      .cls-1 {
        fill: #37464c;
        stroke-width: 0px;
      }
    </style>
  </defs>
  <path class="cls-1" d="m37,20.1h-4c-.55,0-1-.45-1-1s.45-1,1-1h4c.55,0,1,.45,1,1s-.45,1-1,1Z"/>
  <path class="cls-1" d="m39,24.1h-6c-.55,0-1-.45-1-1v-8c0-.55.45-1,1-1h6c.55,0,1,.45,1,1s-.45,1-1,1h-5v6h5c.55,0,1,.45,1,1s-.45,1-1,1Z"/>
  <path class="cls-1" d="m47,24.1h-2c-1.65,0-3-1.35-3-3v-4c0-1.65,1.35-3,3-3h2c1.65,0,3,1.35,3,3v4c0,1.65-1.35,3-3,3Zm-2-8c-.55,0-1,.45-1,1v4c0,.55.45,1,1,1h2c.55,0,1-.45,1-1v-4c0-.55-.45-1-1-1h-2Z"/>
  <path class="cls-1" d="m27,24.1h-4c-.55,0-1-.45-1-1s.45-1,1-1h4c.55,0,1-.45,1-1s-.45-1-1-1h-2c-1.65,0-3-1.35-3-3s1.35-3,3-3h4c.55,0,1,.45,1,1s-.45,1-1,1h-4c-.55,0-1,.45-1,1s.45,1,1,1h2c1.65,0,3,1.35,3,3s-1.35,3-3,3Z"/>
  <path class="cls-1" d="m51,30.1h-31c-.27,0-.52-.11-.71-.29l-7.88-7.88c-1.56-1.56-1.56-4.1,0-5.66l7.88-7.88c.19-.19.44-.29.71-.29h31c2.76,0,5,2.24,5,5v12c0,2.76-2.24,5-5,5Zm-30.59-2h30.59c1.65,0,3-1.35,3-3v-12c0-1.65-1.35-3-3-3h-30.59l-7.59,7.59c-.78.78-.78,2.05,0,2.83l7.59,7.59Z"/>
  <path class="cls-1" d="m43,50.1c-.26,0-.51-.1-.71-.29l-14-14c-.39-.39-.39-1.02,0-1.41s1.02-.39,1.41,0l14,14c.39.39.39,1.02,0,1.41-.2.2-.45.29-.71.29Z"/>
  <path class="cls-1" d="m19,21.1c-1.1,0-2-.9-2-2s.9-2,2-2,2,.9,2,2-.9,2-2,2Zm0-2h0s0,0,0,0Z"/>
  <path class="cls-1" d="m16,29.1c-2.76,0-5-2.24-5-5,0-1.02.31-2.01.9-2.85.32-.45.94-.56,1.39-.25s.56.94.25,1.39c-.35.51-.54,1.1-.54,1.71,0,1.65,1.35,3,3,3,.61,0,1.2-.19,1.71-.54.45-.31,1.08-.2,1.39.25.32.45.2,1.08-.25,1.39-.84.59-1.83.9-2.85.9Z"/>
  <path class="cls-1" d="m5.86,22.46c-.35,0-.7-.19-.88-.52-.64-1.17-.98-2.5-.98-3.84,0-4.41,3.59-8,8-8s8,3.59,8,8c0,.73-.11,1.48-.32,2.22-.15.53-.71.83-1.24.68-.53-.15-.84-.71-.68-1.24.16-.56.25-1.12.25-1.66,0-3.31-2.69-6-6-6s-6,2.69-6,6c0,1,.25,2,.74,2.88.27.48.09,1.09-.4,1.36-.15.08-.32.12-.48.12Z"/>
  <path class="cls-1" d="m47,56.1h-7c-.55,0-1-.45-1-1v-3h-3c-.55,0-1-.45-1-1v-3h-3c-.55,0-1-.45-1-1v-3h-3c-.27,0-.52-.11-.71-.29l-4.54-4.54c-1.52.55-3.12.83-4.75.83-7.72,0-14-6.28-14-14,0-6.84,4.89-12.63,11.63-13.79.55-.09,1.06.27,1.15.82.09.54-.27,1.06-.82,1.15-5.78.99-9.97,5.96-9.97,11.81,0,6.62,5.38,12,12,12,1.6,0,3.15-.31,4.62-.92.37-.16.81-.07,1.09.22l4.71,4.71h3.59c.55,0,1,.45,1,1v3h3c.55,0,1,.45,1,1v3h3c.55,0,1,.45,1,1v3h5v-5.59l-14.71-14.71c-.39-.39-.39-1.02,0-1.41s1.02-.39,1.41,0l15,15c.19.19.29.44.29.71v7c0,.55-.45,1-1,1Z"/>
</svg>