<?xml version="1.0" encoding="UTF-8"?>
<svg id="Layer_1" data-name="Layer 1" xmlns="http://www.w3.org/2000/svg" viewBox="0 0 60 60">
  <defs>
    <style>
      .cls-1 {
        fill: #37464c;
        stroke-width: 0px;
      }
    </style>
  </defs>
  <g>
    <path class="cls-1" d="m39.16,51.62h-18.33c-1.35,0-2.65-.57-3.57-1.57-.91-1-1.37-2.34-1.25-3.69l1.99-22.63c.16-1.82,1.66-3.19,3.49-3.19h17.01c1.83,0,3.33,1.37,3.49,3.19l1.99,22.63c.12,1.35-.34,2.69-1.25,3.69-.91,1-2.21,1.57-3.57,1.57Zm-17.67-30.07c-1.3,0-2.36.97-2.47,2.27l-1.99,22.63c-.1,1.08.26,2.12.99,2.92s1.73,1.24,2.82,1.24h18.33c1.08,0,2.09-.44,2.82-1.24.73-.8,1.08-1.84.99-2.92l-1.99-22.63c-.11-1.29-1.18-2.27-2.47-2.27h-17.01Z"/>
    <path class="cls-1" d="m39.16,52h-18.33c-1.46,0-2.86-.62-3.84-1.69-.98-1.08-1.48-2.52-1.35-3.98l1.99-22.63c.18-2.02,1.84-3.54,3.86-3.54h17.01c2.02,0,3.68,1.52,3.86,3.54l1.99,22.63c.13,1.45-.36,2.9-1.35,3.98s-2.39,1.69-3.84,1.69Zm-17.67-31.08c-1.63,0-2.97,1.23-3.11,2.85l-1.99,22.63c-.11,1.24.31,2.48,1.15,3.41.84.92,2.04,1.45,3.29,1.45h18.33c1.25,0,2.45-.53,3.29-1.45.84-.92,1.26-2.16,1.15-3.41l-1.99-22.63c-.14-1.63-1.48-2.85-3.11-2.85h-17.01Zm17.67,30.07h-18.33c-1.19,0-2.29-.48-3.09-1.36-.8-.88-1.19-2.01-1.09-3.2l1.99-22.63c.13-1.49,1.36-2.61,2.85-2.61h17.01c1.49,0,2.72,1.12,2.85,2.61l1.99,22.63c.1,1.19-.28,2.32-1.09,3.2-.81.88-1.9,1.36-3.09,1.36Zm-17.67-29.05c-1.1,0-2,.83-2.1,1.92l-1.99,22.63c-.09.97.23,1.91.89,2.63.66.72,1.56,1.12,2.54,1.12h18.33c.98,0,1.88-.4,2.54-1.12.66-.72.98-1.66.89-2.63l-1.99-22.63c-.1-1.1-1-1.92-2.1-1.92h-17.01Z"/>
  </g>
  <g>
    <path class="cls-1" d="m35.78,21.38c-.28,0-.51-.23-.51-.51,0-.07,0-7.13,0-7.24-.05-2.85-2.41-5.17-5.27-5.17s-5.23,2.33-5.27,5.19c0,.1,0,7.19,0,7.22,0,.28-.23.51-.51.51s-.51-.23-.51-.51c0-.07,0-7.2,0-7.23.05-3.41,2.87-6.19,6.28-6.19s6.22,2.77,6.28,6.17c0,.04,0,7.18,0,7.25,0,.28-.23.51-.51.51Z"/>
    <path class="cls-1" d="m35.78,21.76c-.49,0-.88-.4-.88-.88,0-.07,0-7.13,0-7.24-.05-2.64-2.24-4.79-4.89-4.79s-4.85,2.16-4.89,4.82c0,.1,0,7.18,0,7.21,0,.49-.4.88-.88.88s-.88-.4-.88-.88c0-.07,0-7.2,0-7.24.05-3.62,3.04-6.56,6.66-6.56s6.59,2.93,6.66,6.54c0,.05,0,7.19,0,7.26,0,.49-.4.88-.88.88Zm-5.78-13.67c3.06,0,5.59,2.48,5.64,5.54,0,.11,0,7.18,0,7.25,0,.15.27.15.27,0,0-.07,0-7.16,0-7.25-.06-3.2-2.71-5.8-5.91-5.8s-5.86,2.61-5.91,5.82c0,.09,0,7.15,0,7.23,0,.15.27.15.27,0,0-.03,0-7.12,0-7.22.04-3.07,2.57-5.56,5.64-5.56Z"/>
  </g>
</svg>