<?xml version="1.0" encoding="UTF-8"?>
<svg id="Layer_1" data-name="Layer 1" xmlns="http://www.w3.org/2000/svg" viewBox="0 0 60 60">
  <defs>
    <style>
      .cls-1 {
        fill: #37464c;
        stroke-width: 0px;
      }
    </style>
  </defs>
  <g>
    <g>
      <path class="cls-1" d="m24.03,53.93c-3.3,0-5.99-2.67-5.99-5.95s2.69-5.95,5.99-5.95,5.99,2.67,5.99,5.95-2.69,5.95-5.99,5.95Zm0-10.68c-2.63,0-4.76,2.12-4.76,4.73s2.14,4.73,4.76,4.73,4.76-2.12,4.76-4.73-2.14-4.73-4.76-4.73Z"/>
      <path class="cls-1" d="m24.03,54.43c-3.58,0-6.49-2.89-6.49-6.45s2.91-6.45,6.49-6.45,6.49,2.89,6.49,6.45-2.91,6.45-6.49,6.45Zm0-11.9c-3.02,0-5.49,2.45-5.49,5.45s2.46,5.45,5.49,5.45,5.49-2.45,5.49-5.45-2.46-5.45-5.49-5.45Zm0,10.68c-2.9,0-5.26-2.35-5.26-5.23s2.36-5.23,5.26-5.23,5.26,2.35,5.26,5.23-2.36,5.23-5.26,5.23Zm0-9.46c-2.35,0-4.26,1.9-4.26,4.23s1.91,4.23,4.26,4.23,4.26-1.9,4.26-4.23-1.91-4.23-4.26-4.23Z"/>
    </g>
    <g>
      <path class="cls-1" d="m47.52,53.93c-2.8,0-5.08-2.26-5.08-5.05s2.28-5.05,5.08-5.05,5.08,2.26,5.08,5.05-2.28,5.05-5.08,5.05Zm0-8.87c-2.13,0-3.85,1.72-3.85,3.83s1.73,3.83,3.85,3.83,3.85-1.72,3.85-3.83-1.73-3.83-3.85-3.83Z"/>
      <path class="cls-1" d="m47.52,54.43c-3.07,0-5.58-2.49-5.58-5.55s2.5-5.55,5.58-5.55,5.58,2.49,5.58,5.55-2.5,5.55-5.58,5.55Zm0-10.09c-2.52,0-4.58,2.04-4.58,4.55s2.05,4.55,4.58,4.55,4.58-2.04,4.58-4.55-2.05-4.55-4.58-4.55Zm0,8.87c-2.4,0-4.35-1.94-4.35-4.33s1.95-4.33,4.35-4.33,4.35,1.94,4.35,4.33-1.95,4.33-4.35,4.33Zm0-7.65c-1.85,0-3.35,1.49-3.35,3.33s1.5,3.33,3.35,3.33,3.35-1.49,3.35-3.33-1.5-3.33-3.35-3.33Z"/>
    </g>
  </g>
  <g>
    <path class="cls-1" d="m52.97,40.26H17.58c-.27,0-.51-.18-.59-.44l-7.99-28.03-5.22-.61c-.34-.04-.57-.34-.54-.68.04-.34.34-.58.68-.54l5.62.66c.25.03.45.2.52.44l7.98,27.98h34.93c.34,0,.61.27.61.61s-.27.61-.61.61Z"/>
    <path class="cls-1" d="m52.97,40.76H17.58c-.49,0-.93-.33-1.07-.81l-7.9-27.71-4.89-.57c-.29-.04-.56-.18-.74-.42-.18-.23-.27-.52-.23-.82.07-.61.62-1.04,1.23-.98l5.62.66c.45.05.82.37.94.8l7.87,27.62h34.55c.61,0,1.11.5,1.11,1.11s-.5,1.11-1.11,1.11ZM3.86,10.45c-.06,0-.1.04-.11.1,0,.05.05.12.1.12l5.55.65,8.08,28.36s.06.08.11.08h35.39c.06,0,.11-.05.11-.11s-.05-.11-.11-.11H17.67L9.59,11.19s-.05-.07-.09-.08l-5.62-.66s0,0-.01,0Z"/>
  </g>
  <g>
    <path class="cls-1" d="m52.6,36.2h-31.75c-.28,0-.52-.18-.59-.45l-5.46-19.88c-.05-.2,0-.41.13-.56.14-.15.34-.23.54-.2l40.52,5.59c.17.02.32.12.42.26.1.14.13.32.09.48l-3.31,14.3c-.06.28-.31.47-.6.47Zm-31.29-1.22h30.8l3.05-13.17-38.94-5.37,5.09,18.54Z"/>
    <path class="cls-1" d="m52.6,36.7h-31.75c-.5,0-.94-.34-1.07-.82l-5.46-19.88c-.1-.36-.01-.75.24-1.03.25-.28.62-.42.99-.37l40.52,5.59c.31.04.59.21.76.47s.24.58.17.88l-3.31,14.29c-.12.51-.56.86-1.08.86ZM15.39,15.59s-.06.01-.08.04c-.02.03-.03.07-.02.1l5.46,19.88s.06.08.11.08h31.75c.05,0,.1-.04.11-.09l3.31-14.29-.02-.63-.07.5L15.4,15.59s-.01,0-.02,0Zm37.12,19.88h-31.58l-5.39-19.64,40.23,5.55-3.26,14.09Zm-30.82-1h30.02l2.83-12.25-37.64-5.19,4.79,17.44Z"/>
  </g>
</svg>