<?xml version="1.0" encoding="UTF-8"?>
<svg id="Layer_1" data-name="Layer 1" xmlns="http://www.w3.org/2000/svg" viewBox="0 0 60 60">
  <defs>
    <style>
      .cls-1 {
        fill: #37464c;
        stroke-width: 0px;
      }
    </style>
  </defs>
  <g>
    <path class="cls-1" d="m33,56.41h-2.69c-.33,0-.6-.27-.6-.6v-18.81c0-.33.27-.6.6-.6s.6.27.6.6v18.21h1.49v-18.21c0-.33.27-.6.6-.6s.6.27.6.6v18.81c0,.33-.27.6-.6.6Z"/>
    <path class="cls-1" d="m33,56.66h-2.69c-.47,0-.85-.38-.85-.85v-18.81c0-.47.38-.85.85-.85s.85.38.85.85v17.96h.99v-17.96c0-.47.38-.85.85-.85s.85.38.85.85v18.81c0,.47-.38.85-.85.85Zm-2.69-20c-.19,0-.35.16-.35.35v18.81c0,.19.16.35.35.35h2.69c.19,0,.35-.16.35-.35v-18.81c0-.19-.16-.35-.35-.35s-.35.16-.35.35v18.46h-1.99v-18.46c0-.19-.16-.35-.35-.35Z"/>
  </g>
  <g>
    <path class="cls-1" d="m33,26.21c-.33,0-.6-.27-.6-.6v-5.01c0-.33.27-.6.6-.6s.6.27.6.6v5.01c0,.33-.27.6-.6.6Z"/>
    <path class="cls-1" d="m33,26.46c-.47,0-.85-.38-.85-.85v-5.01c0-.47.38-.85.85-.85s.85.38.85.85v5.01c0,.47-.38.85-.85.85Zm0-6.2c-.19,0-.35.16-.35.35v5.01c0,.19.16.35.35.35s.35-.16.35-.35v-5.01c0-.19-.16-.35-.35-.35Z"/>
  </g>
  <g>
    <path class="cls-1" d="m33,9.81c-.33,0-.6-.27-.6-.6v-3.85c0-.41-.33-.75-.75-.75s-.75.33-.75.75v3.85c0,.33-.27.6-.6.6s-.6-.27-.6-.6v-3.85c0-1.07.87-1.94,1.94-1.94s1.94.87,1.94,1.94v3.85c0,.33-.27.6-.6.6Z"/>
    <path class="cls-1" d="m33,10.06c-.47,0-.85-.38-.85-.85v-3.85c0-.27-.22-.5-.5-.5s-.5.22-.5.5v3.85c0,.47-.38.85-.85.85s-.85-.38-.85-.85v-3.85c0-1.21.98-2.19,2.19-2.19s2.19.98,2.19,2.19v3.85c0,.47-.38.85-.85.85Zm-1.34-5.69c.55,0,1,.45,1,1v3.85c0,.19.16.35.35.35s.35-.16.35-.35v-3.85c0-.93-.76-1.69-1.69-1.69s-1.69.76-1.69,1.69v3.85c0,.19.16.35.35.35s.35-.16.35-.35v-3.85c0-.55.45-1,1-1Z"/>
  </g>
  <g>
    <path class="cls-1" d="m30.31,26.21c-.33,0-.6-.27-.6-.6v-5.01c0-.33.27-.6.6-.6s.6.27.6.6v5.01c0,.33-.27.6-.6.6Z"/>
    <path class="cls-1" d="m30.31,26.71c-.61,0-1.1-.49-1.1-1.1v-5.01c0-.61.49-1.1,1.1-1.1s1.1.49,1.1,1.1v5.01c0,.61-.49,1.1-1.1,1.1Zm0-6.2c-.05,0-.1.04-.1.1v5.01c0,.11.2.11.2,0v-5.01c0-.05-.04-.1-.1-.1Z"/>
  </g>
  <g>
    <path class="cls-1" d="m46.71,37.6h-30.21c-1.54,0-2.8-1.25-2.8-2.8v-6.99c0-1.54,1.26-2.8,2.8-2.8h30.21c.65,0,1.28.23,1.78.64l4.24,3.5c.65.53,1.02,1.32,1.02,2.16s-.37,1.62-1.02,2.16l-4.24,3.5c-.5.41-1.13.64-1.78.64Zm-30.21-11.39c-.88,0-1.6.72-1.6,1.6v6.99c0,.88.72,1.6,1.6,1.6h30.21c.37,0,.73-.13,1.02-.37l4.24-3.5c.37-.31.58-.76.58-1.24s-.21-.93-.58-1.23l-4.24-3.5c-.29-.24-.65-.37-1.02-.37h-30.21Z"/>
    <path class="cls-1" d="m46.71,38.1h-30.21c-1.82,0-3.3-1.48-3.3-3.3v-6.99c0-1.82,1.48-3.3,3.3-3.3h30.21c.76,0,1.51.27,2.1.75l4.24,3.5c.76.63,1.2,1.56,1.2,2.54s-.44,1.92-1.2,2.54l-4.24,3.5c-.59.49-1.33.75-2.1.75Zm-30.21-12.59c-1.27,0-2.3,1.03-2.3,2.3v6.99c0,1.27,1.03,2.3,2.3,2.3h30.21c.53,0,1.05-.19,1.46-.53l4.24-3.5c.53-.44.84-1.08.84-1.77s-.3-1.33-.84-1.77l-4.24-3.5c-.41-.34-.93-.52-1.46-.52h-30.21Zm30.21,11.39h-30.21c-1.16,0-2.1-.94-2.1-2.1v-6.99c0-1.16.94-2.1,2.1-2.1h30.21c.49,0,.96.17,1.34.48l4.24,3.5c.49.4.76.99.76,1.62s-.28,1.22-.76,1.62l-4.24,3.5c-.37.31-.85.48-1.34.48Zm-30.21-10.2c-.61,0-1.1.49-1.1,1.1v6.99c0,.61.49,1.1,1.1,1.1h30.21c.26,0,.5-.09.7-.25l4.24-3.5c.25-.21.4-.52.4-.85s-.15-.64-.4-.85l-4.24-3.5c-.2-.16-.45-.25-.7-.25h-30.21Z"/>
  </g>
  <g>
    <path class="cls-1" d="m45.3,21.2H15.09c-.65,0-1.28-.23-1.78-.64l-4.24-3.5c-.65-.53-1.02-1.32-1.02-2.16s.37-1.63,1.02-2.16l4.24-3.5c.5-.41,1.13-.64,1.78-.64h30.21c1.54,0,2.8,1.26,2.8,2.8v6.99c0,1.54-1.25,2.8-2.8,2.8ZM15.09,9.81c-.37,0-.73.13-1.02.37l-4.24,3.5c-.37.31-.58.76-.58,1.24s.21.93.58,1.24l4.24,3.5c.29.24.65.37,1.02.37h30.21c.88,0,1.6-.72,1.6-1.6v-6.99c0-.88-.72-1.6-1.6-1.6H15.09Z"/>
    <path class="cls-1" d="m45.3,21.7H15.09c-.76,0-1.51-.27-2.1-.75l-4.24-3.5c-.76-.63-1.2-1.56-1.2-2.54s.44-1.92,1.2-2.54l4.24-3.5c.59-.49,1.34-.75,2.1-.75h30.2c1.82,0,3.3,1.48,3.3,3.3v6.99c0,1.82-1.48,3.3-3.3,3.3ZM15.09,9.11c-.53,0-1.05.19-1.46.53l-4.24,3.5c-.53.44-.84,1.08-.84,1.77s.3,1.33.84,1.77l4.24,3.5c.41.34.93.53,1.46.53h30.2c1.27,0,2.3-1.03,2.3-2.3v-6.99c0-1.27-1.03-2.3-2.3-2.3H15.09Zm30.2,11.39H15.09c-.49,0-.96-.17-1.34-.48l-4.24-3.5c-.49-.4-.76-.99-.76-1.62s.28-1.22.76-1.62l4.24-3.5c.38-.31.85-.48,1.34-.48h30.2c1.16,0,2.1.94,2.1,2.1v6.99c0,1.16-.94,2.1-2.1,2.1ZM15.09,10.31c-.26,0-.5.09-.7.25l-4.24,3.5c-.25.21-.4.52-.4.85s.15.64.4.85l4.24,3.5c.2.16.45.25.7.25h30.2c.61,0,1.1-.49,1.1-1.1v-6.99c0-.61-.49-1.1-1.1-1.1H15.09Z"/>
  </g>
</svg>