<?xml version="1.0" encoding="UTF-8"?>
<svg id="Layer_1" data-name="Layer 1" xmlns="http://www.w3.org/2000/svg" viewBox="0 0 60 60">
  <defs>
    <style>
      .cls-1 {
        fill: #37464c;
        stroke-width: 0px;
      }
    </style>
  </defs>
  <g>
    <g>
      <path class="cls-1" d="m53.29,51.26H7.78c-.31,0-.57-.26-.57-.57s.26-.57.57-.57h45.51c.31,0,.57.26.57.57s-.26.57-.57.57Z"/>
      <path class="cls-1" d="m53.29,51.63H7.78c-.52,0-.94-.42-.94-.94s.42-.95.94-.95h45.52c.52,0,.94.42.94.95s-.42.94-.94.94Zm-45.52-1.14c-.11,0-.19.09-.19.2s.09.19.19.19h45.52c.11,0,.19-.09.19-.19s-.09-.2-.19-.2H7.78Z"/>
    </g>
    <g>
      <g>
        <path class="cls-1" d="m13.79,48.4h-5.95c-.31,0-.57-.26-.57-.57v-8.55c0-.31.26-.57.57-.57h5.95c.31,0,.57.26.57.57v8.55c0,.31-.26.57-.57.57Zm-5.39-1.14h4.82v-7.41h-4.82v7.41Z"/>
        <path class="cls-1" d="m13.79,48.77h-5.96c-.52,0-.94-.42-.94-.94v-8.55c0-.52.42-.94.94-.94h5.96c.52,0,.94.42.94.94v8.55c0,.52-.42.94-.94.94Zm-5.96-9.69c-.11,0-.19.09-.19.19v8.55c0,.11.09.19.19.19h5.96c.11,0,.19-.09.19-.19v-8.55c0-.11-.09-.19-.19-.19h-5.96Zm5.76,8.55h-5.57v-8.16h5.57v8.16Zm-4.82-.75h4.07v-6.66h-4.07v6.66Z"/>
      </g>
      <g>
        <path class="cls-1" d="m25.15,48.4h-5.95c-.31,0-.57-.26-.57-.57v-11.95c0-.31.26-.57.57-.57h5.95c.31,0,.57.26.57.57v11.95c0,.31-.26.57-.57.57Zm-5.39-1.14h4.82v-10.81h-4.82v10.81Z"/>
        <path class="cls-1" d="m25.15,48.77h-5.95c-.52,0-.94-.42-.94-.94v-11.95c0-.52.42-.94.94-.94h5.95c.52,0,.94.42.94.94v11.95c0,.52-.42.94-.94.94Zm-5.95-13.09c-.11,0-.19.09-.19.19v11.95c0,.11.09.19.19.19h5.95c.11,0,.19-.09.19-.19v-11.95c0-.11-.09-.19-.19-.19h-5.95Zm5.76,11.95h-5.56v-11.56h5.56v11.56Zm-4.81-.75h4.06v-10.06h-4.06v10.06Z"/>
      </g>
      <g>
        <path class="cls-1" d="m36.52,48.4h-5.95c-.31,0-.57-.26-.57-.57v-15.74c0-.31.26-.57.57-.57h5.95c.31,0,.57.26.57.57v15.74c0,.31-.26.57-.57.57Zm-5.39-1.14h4.82v-14.61h-4.82v14.61Z"/>
        <path class="cls-1" d="m36.52,48.77h-5.96c-.52,0-.94-.42-.94-.94v-15.75c0-.52.42-.94.94-.94h5.96c.52,0,.94.42.94.94v15.75c0,.52-.42.94-.94.94Zm-5.96-16.88c-.11,0-.19.09-.19.19v15.75c0,.11.09.19.19.19h5.96c.11,0,.19-.09.19-.19v-15.75c0-.11-.09-.19-.19-.19h-5.96Zm5.76,15.75h-5.57v-15.36h5.57v15.36Zm-4.82-.75h4.07v-13.86h-4.07v13.86Z"/>
      </g>
      <g>
        <path class="cls-1" d="m47.88,48.4h-5.95c-.31,0-.57-.26-.57-.57v-22.6c0-.31.26-.57.57-.57h5.95c.31,0,.57.26.57.57v22.6c0,.31-.26.57-.57.57Zm-5.39-1.14h4.82v-21.46h-4.82v21.46Z"/>
        <path class="cls-1" d="m47.88,48.77h-5.96c-.52,0-.94-.42-.94-.94v-22.6c0-.52.42-.95.94-.95h5.96c.52,0,.94.42.94.95v22.6c0,.52-.42.94-.94.94Zm-5.96-23.74c-.11,0-.19.09-.19.2v22.6c0,.11.09.19.19.19h5.96c.11,0,.19-.09.19-.19v-22.6c0-.11-.09-.2-.19-.2h-5.96Zm5.76,22.6h-5.57v-22.21h5.57v22.21Zm-4.82-.75h4.07v-20.71h-4.07v20.71Z"/>
      </g>
    </g>
  </g>
  <g>
    <path class="cls-1" d="m52.37,24.3c-.2,0-.39-.11-.5-.29l-4.19-7.56c-.1-.18-.1-.39,0-.57.1-.17.29-.28.49-.28h4.19c.31,0,.57.26.57.57s-.26.57-.57.57h-3.23l3.72,6.71c.15.28.05.62-.22.77-.09.05-.18.07-.28.07Z"/>
    <path class="cls-1" d="m52.37,24.68c-.34,0-.66-.19-.83-.49l-4.19-7.56c-.16-.29-.16-.65.01-.94.17-.29.48-.46.81-.46h4.19c.52,0,.94.42.94.94s-.42.94-.94.94h-2.59l3.42,6.15c.12.22.15.47.08.72-.07.24-.23.44-.45.57-.14.08-.3.12-.46.12Zm-4.19-8.7c-.07,0-.13.04-.17.1-.03.06-.04.13,0,.19l4.19,7.56c.06.12.19.12.26.08.06-.04.09-.09.09-.12s.02-.09-.02-.15l-4.03-7.27h3.86c.11,0,.19-.09.19-.19s-.09-.19-.19-.19h-4.19Z"/>
  </g>
  <g>
    <path class="cls-1" d="m52.37,24.3c-.09,0-.19-.02-.28-.07-.28-.15-.37-.5-.22-.77l3.72-6.71h-3.23c-.31,0-.57-.26-.57-.57s.26-.57.57-.57h4.19c.2,0,.39.11.49.28.1.17.11.39,0,.57l-4.19,7.56c-.1.19-.3.29-.5.29Z"/>
    <path class="cls-1" d="m52.37,24.68c-.16,0-.32-.04-.46-.12-.22-.12-.38-.32-.45-.57-.07-.24-.04-.5.08-.72l3.42-6.15h-2.59c-.52,0-.94-.42-.94-.94s.42-.94.94-.94h4.19c.33,0,.65.18.81.46.17.29.17.65.01.94l-4.19,7.56c-.17.3-.48.49-.83.49Zm0-8.7c-.11,0-.19.09-.19.19s.09.19.19.19h3.86l-4.03,7.27c-.03.06-.03.12-.02.15s.03.08.09.12c.08.04.2.04.26-.08l4.2-7.56c.03-.06.03-.13,0-.19-.03-.06-.1-.09-.17-.09h-4.19Z"/>
  </g>
  <g>
    <path class="cls-1" d="m52.37,48.4c-.31,0-.57-.26-.57-.57v-24.1c0-.31.26-.57.57-.57s.57.26.57.57v24.1c0,.31-.26.57-.57.57Z"/>
    <path class="cls-1" d="m52.37,48.77c-.52,0-.94-.42-.94-.94v-24.1c0-.52.42-.94.94-.94s.94.42.94.94v24.1c0,.52-.42.94-.94.94Zm0-25.24c-.11,0-.19.09-.19.19v24.1c0,.21.39.21.39,0v-24.1c0-.11-.09-.19-.19-.19Z"/>
  </g>
</svg>