<?xml version="1.0" encoding="UTF-8"?>
<svg id="Layer_1" data-name="Layer 1" xmlns="http://www.w3.org/2000/svg" viewBox="0 0 60 60">
  <defs>
    <style>
      .cls-1 {
        fill: #37464c;
        stroke-width: 0px;
      }
    </style>
  </defs>
  <g>
    <g>
      <path class="cls-1" d="m51.15,53.82h-23.9c-.33,0-.59-.26-.59-.59s.26-.59.59-.59h23.31V5.83h-28.93v12.05c0,.33-.26.59-.59.59s-.59-.26-.59-.59V5.24c0-.33.26-.59.59-.59h30.11c.33,0,.59.26.59.59v47.99c0,.33-.26.59-.59.59Z"/>
      <path class="cls-1" d="m51.15,54.19h-23.9c-.53,0-.96-.43-.96-.96s.43-.96.96-.96h22.93V6.2h-28.18v11.68c0,.53-.43.96-.96.96s-.96-.43-.96-.96V5.24c0-.53.43-.96.96-.96h30.11c.53,0,.96.43.96.96v47.99c0,.53-.43.96-.96.96Zm-23.9-1.18c-.12,0-.21.1-.21.21s.1.21.21.21h23.9c.12,0,.21-.1.21-.21V5.24c0-.12-.1-.21-.21-.21h-30.11c-.12,0-.21.1-.21.21v12.64c0,.24.43.24.43,0V5.45h29.68v47.56h-23.68Z"/>
    </g>
    <g>
      <path class="cls-1" d="m38.51,53.82h-4.75c-.33,0-.59-.26-.59-.59v-7.38c0-.33.26-.59.59-.59h4.75c.33,0,.59.26.59.59v7.38c0,.33-.26.59-.59.59Zm-4.16-1.18h3.57v-6.2h-3.57v6.2Z"/>
      <path class="cls-1" d="m38.51,54.07h-4.75c-.46,0-.84-.38-.84-.84v-7.38c0-.46.38-.84.84-.84h4.75c.46,0,.84.38.84.84v7.38c0,.46-.38.84-.84.84Zm-4.75-8.56c-.19,0-.34.15-.34.34v7.38c0,.19.15.34.34.34h4.75c.19,0,.34-.15.34-.34v-7.38c0-.19-.15-.34-.34-.34h-4.75Zm4.41,7.38h-4.07v-6.7h4.07v6.7Zm-3.57-.5h3.07v-5.7h-3.07v5.7Z"/>
    </g>
    <g>
      <g>
        <g>
          <rect class="cls-1" x="29.89" y="45.16" width="1.81" height="4.45"/>
          <path class="cls-1" d="m32.08,49.99h-2.56v-5.2h2.56v5.2Zm-1.81-.75h1.06v-3.7h-1.06v3.7Z"/>
        </g>
        <g>
          <rect class="cls-1" x="40.57" y="45.16" width="1.81" height="4.45"/>
          <path class="cls-1" d="m42.76,49.99h-2.56v-5.2h2.56v5.2Zm-1.81-.75h1.06v-3.7h-1.06v3.7Z"/>
        </g>
      </g>
      <g>
        <g>
          <rect class="cls-1" x="29.88" y="39.11" width="1.81" height="4.45"/>
          <path class="cls-1" d="m32.07,43.94h-2.57v-5.2h2.57v5.2Zm-1.82-.75h1.07v-3.7h-1.07v3.7Z"/>
        </g>
        <g>
          <rect class="cls-1" x="35.22" y="39.11" width="1.81" height="4.45"/>
          <path class="cls-1" d="m37.41,43.94h-2.56v-5.2h2.56v5.2Zm-1.81-.75h1.06v-3.7h-1.06v3.7Z"/>
        </g>
        <g>
          <rect class="cls-1" x="40.56" y="39.11" width="1.81" height="4.45"/>
          <path class="cls-1" d="m42.75,43.94h-2.56v-5.2h2.56v5.2Zm-1.81-.75h1.06v-3.7h-1.06v3.7Z"/>
        </g>
      </g>
      <g>
        <g>
          <rect class="cls-1" x="29.87" y="33.06" width="1.81" height="4.45"/>
          <path class="cls-1" d="m32.06,37.89h-2.56v-5.2h2.56v5.2Zm-1.81-.75h1.06v-3.7h-1.06v3.7Z"/>
        </g>
        <g>
          <rect class="cls-1" x="35.21" y="33.06" width="1.81" height="4.45"/>
          <path class="cls-1" d="m37.4,37.89h-2.56v-5.2h2.56v5.2Zm-1.81-.75h1.06v-3.7h-1.06v3.7Z"/>
        </g>
        <g>
          <rect class="cls-1" x="40.56" y="33.06" width="1.81" height="4.45"/>
          <path class="cls-1" d="m42.75,37.89h-2.56v-5.2h2.56v5.2Zm-1.81-.75h1.06v-3.7h-1.06v3.7Z"/>
        </g>
      </g>
      <g>
        <g>
          <rect class="cls-1" x="29.86" y="27.01" width="1.81" height="4.45"/>
          <path class="cls-1" d="m32.05,31.84h-2.56v-5.2h2.56v5.2Zm-1.81-.75h1.06v-3.7h-1.06v3.7Z"/>
        </g>
        <g>
          <rect class="cls-1" x="35.21" y="27.01" width="1.81" height="4.45"/>
          <path class="cls-1" d="m37.4,31.84h-2.56v-5.2h2.56v5.2Zm-1.81-.75h1.06v-3.7h-1.06v3.7Z"/>
        </g>
        <g>
          <rect class="cls-1" x="40.55" y="27.01" width="1.81" height="4.45"/>
          <path class="cls-1" d="m42.74,31.84h-2.56v-5.2h2.56v5.2Zm-1.81-.75h1.06v-3.7h-1.06v3.7Z"/>
        </g>
      </g>
      <g>
        <rect class="cls-1" x="29.86" y="20.96" width="1.81" height="4.45"/>
        <path class="cls-1" d="m32.05,25.79h-2.56v-5.2h2.56v5.2Zm-1.81-.75h1.06v-3.7h-1.06v3.7Z"/>
      </g>
      <g>
        <rect class="cls-1" x="35.2" y="20.96" width="1.81" height="4.45"/>
        <path class="cls-1" d="m37.39,25.79h-2.57v-5.2h2.57v5.2Zm-1.82-.75h1.07v-3.7h-1.07v3.7Z"/>
      </g>
      <g>
        <rect class="cls-1" x="40.54" y="20.96" width="1.81" height="4.45"/>
        <path class="cls-1" d="m42.73,25.79h-2.56v-5.2h2.56v5.2Zm-1.81-.75h1.06v-3.7h-1.06v3.7Z"/>
      </g>
      <g>
        <g>
          <rect class="cls-1" x="29.85" y="14.91" width="1.81" height="4.45"/>
          <path class="cls-1" d="m32.04,19.74h-2.56v-5.2h2.56v5.2Zm-1.81-.75h1.06v-3.7h-1.06v3.7Z"/>
        </g>
        <g>
          <rect class="cls-1" x="35.19" y="14.91" width="1.81" height="4.45"/>
          <path class="cls-1" d="m37.38,19.74h-2.56v-5.2h2.56v5.2Zm-1.81-.75h1.06v-3.7h-1.06v3.7Z"/>
        </g>
        <g>
          <rect class="cls-1" x="40.53" y="14.91" width="1.81" height="4.45"/>
          <path class="cls-1" d="m42.72,19.74h-2.56v-5.2h2.56v5.2Zm-1.81-.75h1.06v-3.7h-1.06v3.7Z"/>
        </g>
      </g>
      <g>
        <g>
          <rect class="cls-1" x="29.84" y="8.86" width="1.81" height="4.45"/>
          <path class="cls-1" d="m32.03,13.69h-2.56v-5.2h2.56v5.2Zm-1.81-.75h1.06v-3.7h-1.06v3.7Z"/>
        </g>
        <g>
          <rect class="cls-1" x="35.18" y="8.86" width="1.81" height="4.45"/>
          <path class="cls-1" d="m37.37,13.69h-2.56v-5.2h2.56v5.2Zm-1.81-.75h1.06v-3.7h-1.06v3.7Z"/>
        </g>
        <g>
          <rect class="cls-1" x="40.52" y="8.86" width="1.81" height="4.45"/>
          <path class="cls-1" d="m42.71,13.69h-2.56v-5.2h2.56v5.2Zm-1.81-.75h1.06v-3.7h-1.06v3.7Z"/>
        </g>
      </g>
      <g>
        <g>
          <rect class="cls-1" x="45.75" y="45.16" width="1.81" height="4.45"/>
          <path class="cls-1" d="m47.94,49.99h-2.56v-5.2h2.56v5.2Zm-1.81-.75h1.06v-3.7h-1.06v3.7Z"/>
        </g>
        <g>
          <rect class="cls-1" x="45.75" y="39.11" width="1.81" height="4.45"/>
          <path class="cls-1" d="m47.94,43.94h-2.56v-5.2h2.56v5.2Zm-1.81-.75h1.06v-3.7h-1.06v3.7Z"/>
        </g>
        <g>
          <rect class="cls-1" x="45.74" y="33.06" width="1.81" height="4.45"/>
          <path class="cls-1" d="m47.93,37.89h-2.56v-5.2h2.56v5.2Zm-1.81-.75h1.06v-3.7h-1.06v3.7Z"/>
        </g>
        <g>
          <rect class="cls-1" x="45.73" y="27.01" width="1.81" height="4.45"/>
          <path class="cls-1" d="m47.92,31.84h-2.56v-5.2h2.56v5.2Zm-1.81-.75h1.06v-3.7h-1.06v3.7Z"/>
        </g>
        <g>
          <rect class="cls-1" x="45.72" y="20.96" width="1.81" height="4.45"/>
          <path class="cls-1" d="m47.91,25.79h-2.56v-5.2h2.56v5.2Zm-1.81-.75h1.06v-3.7h-1.06v3.7Z"/>
        </g>
        <g>
          <rect class="cls-1" x="45.71" y="14.91" width="1.81" height="4.45"/>
          <path class="cls-1" d="m47.9,19.74h-2.56v-5.2h2.56v5.2Zm-1.81-.75h1.06v-3.7h-1.06v3.7Z"/>
        </g>
        <g>
          <rect class="cls-1" x="45.71" y="8.86" width="1.81" height="4.45"/>
          <path class="cls-1" d="m47.9,13.69h-2.56v-5.2h2.56v5.2Zm-1.81-.75h1.06v-3.7h-1.06v3.7Z"/>
        </g>
      </g>
      <g>
        <rect class="cls-1" x="24.68" y="8.86" width="1.81" height="4.45"/>
        <path class="cls-1" d="m26.87,13.69h-2.56v-5.2h2.56v5.2Zm-1.81-.75h1.06v-3.7h-1.06v3.7Z"/>
      </g>
      <g>
        <rect class="cls-1" x="24.68" y="14.91" width="1.81" height="3.3"/>
        <path class="cls-1" d="m26.87,18.59h-2.56v-4.05h2.56v4.05Zm-1.81-.75h1.06v-2.55h-1.06v2.55Z"/>
      </g>
    </g>
    <g>
      <g>
        <path class="cls-1" d="m27.44,53.82H9.09c-.33,0-.59-.26-.59-.59V18.08c0-.33.26-.59.59-.59h18.35c.33,0,.59.26.59.59v35.15c0,.33-.26.59-.59.59Zm-17.76-1.18h17.17V18.67H9.68v33.97Z"/>
        <path class="cls-1" d="m27.44,54.07H9.09c-.46,0-.84-.38-.84-.84V18.08c0-.46.38-.84.84-.84h18.35c.46,0,.84.38.84.84v35.15c0,.46-.38.84-.84.84ZM9.09,17.74c-.19,0-.34.15-.34.34v35.15c0,.19.15.34.34.34h18.35c.19,0,.34-.15.34-.34V18.08c0-.19-.15-.34-.34-.34H9.09Zm18.01,35.15H9.43V18.42h17.67v34.47Zm-17.17-.5h16.67V18.92H9.93v33.47Z"/>
      </g>
      <g>
        <path class="cls-1" d="m20.64,53.82h-4.75c-.33,0-.59-.26-.59-.59v-7.38c0-.33.26-.59.59-.59h4.75c.33,0,.59.26.59.59v7.38c0,.33-.26.59-.59.59Zm-4.16-1.18h3.57v-6.2h-3.57v6.2Z"/>
        <path class="cls-1" d="m20.64,53.94h-4.75c-.39,0-.71-.32-.71-.71v-7.38c0-.39.32-.71.71-.71h4.75c.39,0,.71.32.71.71v7.38c0,.39-.32.71-.71.71Zm-4.75-8.56c-.26,0-.46.21-.46.46v7.38c0,.26.21.46.46.46h4.75c.26,0,.46-.21.46-.46v-7.38c0-.26-.21-.46-.46-.46h-4.75Zm4.28,7.38h-3.82v-6.45h3.82v6.45Zm-3.57-.25h3.32v-5.95h-3.32v5.95Z"/>
      </g>
      <g>
        <g>
          <rect class="cls-1" x="12.02" y="45.16" width="1.81" height="4.45"/>
          <path class="cls-1" d="m14.08,49.87h-2.31v-4.95h2.31v4.95Zm-1.81-.5h1.31v-3.95h-1.31v3.95Z"/>
        </g>
        <g>
          <rect class="cls-1" x="22.7" y="45.16" width="1.81" height="4.45"/>
          <path class="cls-1" d="m24.77,49.87h-2.31v-4.95h2.31v4.95Zm-1.81-.5h1.31v-3.95h-1.31v3.95Z"/>
        </g>
      </g>
      <g>
        <g>
          <rect class="cls-1" x="12.02" y="39.06" width="1.81" height="4.45"/>
          <path class="cls-1" d="m14.08,43.76h-2.31v-4.95h2.31v4.95Zm-1.81-.5h1.31v-3.95h-1.31v3.95Z"/>
        </g>
        <g>
          <rect class="cls-1" x="17.36" y="39.06" width="1.81" height="4.45"/>
          <path class="cls-1" d="m19.42,43.76h-2.31v-4.95h2.31v4.95Zm-1.81-.5h1.31v-3.95h-1.31v3.95Z"/>
        </g>
        <g>
          <rect class="cls-1" x="22.7" y="39.06" width="1.81" height="4.45"/>
          <path class="cls-1" d="m24.77,43.76h-2.31v-4.95h2.31v4.95Zm-1.81-.5h1.31v-3.95h-1.31v3.95Z"/>
        </g>
      </g>
      <g>
        <g>
          <rect class="cls-1" x="12.02" y="32.95" width="1.81" height="4.45"/>
          <path class="cls-1" d="m14.08,37.65h-2.31v-4.95h2.31v4.95Zm-1.81-.5h1.31v-3.95h-1.31v3.95Z"/>
        </g>
        <g>
          <rect class="cls-1" x="17.36" y="32.95" width="1.81" height="4.45"/>
          <path class="cls-1" d="m19.42,37.65h-2.31v-4.95h2.31v4.95Zm-1.81-.5h1.31v-3.95h-1.31v3.95Z"/>
        </g>
        <g>
          <rect class="cls-1" x="22.7" y="32.95" width="1.81" height="4.45"/>
          <path class="cls-1" d="m24.77,37.65h-2.31v-4.95h2.31v4.95Zm-1.81-.5h1.31v-3.95h-1.31v3.95Z"/>
        </g>
      </g>
      <g>
        <g>
          <rect class="cls-1" x="12.02" y="26.84" width="1.81" height="4.45"/>
          <path class="cls-1" d="m14.08,31.54h-2.31v-4.95h2.31v4.95Zm-1.81-.5h1.31v-3.95h-1.31v3.95Z"/>
        </g>
        <g>
          <rect class="cls-1" x="17.36" y="26.84" width="1.81" height="4.45"/>
          <path class="cls-1" d="m19.42,31.54h-2.31v-4.95h2.31v4.95Zm-1.81-.5h1.31v-3.95h-1.31v3.95Z"/>
        </g>
        <g>
          <rect class="cls-1" x="22.7" y="26.84" width="1.81" height="4.45"/>
          <path class="cls-1" d="m24.77,31.54h-2.31v-4.95h2.31v4.95Zm-1.81-.5h1.31v-3.95h-1.31v3.95Z"/>
        </g>
      </g>
      <g>
        <g>
          <rect class="cls-1" x="12.02" y="20.73" width="1.81" height="4.45"/>
          <path class="cls-1" d="m14.08,25.44h-2.31v-4.95h2.31v4.95Zm-1.81-.5h1.31v-3.95h-1.31v3.95Z"/>
        </g>
        <g>
          <rect class="cls-1" x="17.36" y="20.73" width="1.81" height="4.45"/>
          <path class="cls-1" d="m19.42,25.44h-2.31v-4.95h2.31v4.95Zm-1.81-.5h1.31v-3.95h-1.31v3.95Z"/>
        </g>
        <g>
          <rect class="cls-1" x="22.7" y="20.73" width="1.81" height="4.45"/>
          <path class="cls-1" d="m24.77,25.44h-2.31v-4.95h2.31v4.95Zm-1.81-.5h1.31v-3.95h-1.31v3.95Z"/>
        </g>
      </g>
    </g>
  </g>
  <g>
    <path class="cls-1" d="m51.15,56.78H9.09c-.33,0-.59-.26-.59-.59s.26-.59.59-.59h42.05c.33,0,.59.26.59.59s-.26.59-.59.59Z"/>
    <path class="cls-1" d="m51.15,57.16H9.09c-.53,0-.96-.43-.96-.96s.43-.96.96-.96h42.06c.53,0,.96.43.96.96s-.43.96-.96.96Zm-42.06-1.18c-.12,0-.21.1-.21.21s.1.21.21.21h42.06c.12,0,.21-.1.21-.21s-.1-.21-.21-.21H9.09Z"/>
  </g>
</svg>