<?xml version="1.0" encoding="UTF-8"?>
<svg id="Layer_1" data-name="Layer 1" xmlns="http://www.w3.org/2000/svg" viewBox="0 0 60 60">
  <defs>
    <style>
      .cls-1 {
        fill: #37464c;
        stroke-width: 0px;
      }
    </style>
  </defs>
  <g>
    <path class="cls-1" d="m30,53.4c-12.41,0-22.51-10.1-22.51-22.51S17.59,8.37,30,8.37s22.51,10.1,22.51,22.51-10.1,22.51-22.51,22.51Zm0-44.03c-11.86,0-21.51,9.65-21.51,21.51s9.65,21.51,21.51,21.51,21.51-9.65,21.51-21.51-9.65-21.51-21.51-21.51Z"/>
    <path class="cls-1" d="m30,53.77c-12.62,0-22.88-10.27-22.88-22.89S17.38,7.99,30,7.99s22.88,10.27,22.88,22.89-10.27,22.89-22.88,22.89Zm0-45.03c-12.21,0-22.13,9.93-22.13,22.14s9.93,22.14,22.13,22.14,22.13-9.93,22.13-22.14-9.93-22.14-22.13-22.14Zm0,44.03c-12.07,0-21.88-9.82-21.88-21.89S17.93,9,30,9s21.88,9.82,21.88,21.88-9.82,21.89-21.88,21.89Zm0-43.02c-11.65,0-21.13,9.48-21.13,21.13s9.48,21.14,21.13,21.14,21.13-9.48,21.13-21.14-9.48-21.13-21.13-21.13Z"/>
  </g>
  <g>
    <path class="cls-1" d="m39.62,34.37c-1.83,0-3.8-.14-4.99-.24-.2-.02-.38-.16-.44-.35-.82-2.66-2.57-8.01-3.28-9.21-.12-.2-.09-.46.09-.63.9-.83,5.45-5.01,7.02-5.28,1.95-.34,7.01,4.55,7.61,5.34,1.05,1.38-.79,8.58-1.68,9.63-.47.56-2.32.73-4.33.73Zm-4.57-1.21c4.52.36,7.74.2,8.14-.17.29-.34.89-2.07,1.34-4.24.54-2.59.47-3.91.3-4.13-.95-1.25-5.52-5.16-6.65-4.96-.95.16-4.2,2.9-6.23,4.76.93,1.9,2.65,7.33,3.08,8.74Z"/>
    <path class="cls-1" d="m39.62,34.75c-1.79,0-3.72-.13-5.03-.24-.36-.03-.66-.27-.76-.62-.95-3.07-2.59-8.04-3.24-9.13-.21-.35-.15-.81.15-1.09,1.28-1.19,5.57-5.09,7.21-5.38,2.22-.41,7.46,4.81,7.98,5.49,1.24,1.63-.81,9.06-1.69,10.1-.31.37-1.13.86-4.62.86Zm-1.38-15.72c-.06,0-.11,0-.16.01-1.07.18-4.2,2.74-6.83,5.19-.04.04-.05.11-.02.16.74,1.23,2.49,6.62,3.32,9.29.02.05.06.08.11.09,1.29.11,3.2.24,4.96.24,3.29,0,3.93-.45,4.04-.59.89-1.06,2.54-8.02,1.67-9.16-.68-.89-5.29-5.21-7.09-5.21Zm1.36,14.71c-1.43,0-3.06-.08-4.59-.2l-.25-.02-.08-.24c-.35-1.12-2.13-6.78-3.06-8.68l-.12-.25.21-.19c.51-.47,5.07-4.63,6.42-4.86,1.45-.25,6.23,4.08,7.01,5.1.33.44.24,2.18-.23,4.44-.43,2.05-1.04,3.95-1.42,4.4-.4.36-1.94.5-3.87.5Zm-4.28-.93c4.72.36,7.29.11,7.62-.1.15-.19.74-1.75,1.22-4.03.55-2.64.42-3.71.35-3.85-1.03-1.34-5.45-4.94-6.27-4.8-.71.12-3.48,2.34-5.83,4.49.9,1.99,2.36,6.55,2.91,8.29Z"/>
  </g>
  <g>
    <path class="cls-1" d="m35.19,12.64c-.09,0-.18-.03-.26-.07-2.3-1.42-8.73-1.49-8.8-1.49-.22,0-.41-.14-.47-.35l-.41-1.29c-.05-.15-.02-.31.07-.44.09-.13.24-.21.4-.21l7.4-.19c.05,0,.11,0,.16.02l6.16,1.83c.21.06.36.26.36.48s-.15.42-.36.48l-4.09,1.22s-.1.02-.14.02Zm-8.69-2.56c1.41.03,6.43.24,8.75,1.51l2.26-.67-4.46-1.32-6.65.18.1.31Z"/>
    <path class="cls-1" d="m35.19,13.01c-.16,0-.32-.04-.46-.13-2.16-1.34-8.34-1.43-8.6-1.43-.38,0-.71-.25-.83-.61l-.41-1.29c-.08-.26-.04-.55.12-.77.16-.23.42-.36.69-.37l7.4-.19c.08,0,.18,0,.28.04l6.15,1.82c.38.11.63.45.63.84s-.25.73-.63.84l-4.09,1.22c-.08.02-.17.04-.25.04Zm-2.03-4.04l-7.44.19s-.08.02-.1.05c-.02.03-.03.07-.02.11l.41,1.29c.02.05.06.09.12.09.68,0,6.69.12,8.99,1.54l.07.02s.03,0,.04,0l4.09-1.22c.05-.02.09-.07.09-.12s-.04-.11-.09-.12l-6.16-1.83Zm2.05,3.03l-.14-.08c-2.24-1.22-7.13-1.43-8.58-1.47h-.27s-.33-1.04-.33-1.04l7.21-.19,5.73,1.7-3.62,1.08Zm-4.4-1.97c1.63.22,3.33.57,4.49,1.16l.91-.27-3.19-.95-2.2.06Z"/>
  </g>
  <g>
    <path class="cls-1" d="m16.14,30.75c-.07,0-.14-.01-.21-.04l-5.52-2.5c-.22-.1-.34-.35-.28-.58l2.19-8.6c.04-.15.14-.27.28-.33l6.61-3.01c.13-.06.28-.06.41,0,.13.06.23.16.28.3l2.29,6.72c.05.16.03.33-.07.46l-5.57,7.39c-.1.13-.25.2-.4.2Zm-4.93-3.28l4.77,2.16,5.17-6.86-2.03-5.94-5.89,2.68-2.02,7.96Z"/>
    <path class="cls-1" d="m16.14,31.13c-.13,0-.25-.03-.36-.08l-5.52-2.5c-.39-.18-.59-.6-.49-1.02l2.19-8.6c.06-.26.24-.47.49-.58l6.61-3.01c.22-.1.49-.11.71,0,.22.1.4.29.48.52l2.29,6.72c.09.28.05.58-.13.81l-5.57,7.39c-.17.22-.43.35-.7.35Zm3.28-15.11s-.04,0-.05.01l-6.61,3.01s-.06.05-.07.08l-2.19,8.6c-.02.06.01.12.07.15l5.57,2.51s.08-.02.1-.05l5.57-7.39s.03-.08.02-.12l-2.29-6.71s-.04-.06-.07-.08c-.02,0-.04-.01-.05-.01Zm-3.32,14.08l-5.33-2.41,2.14-8.44,6.43-2.92,2.22,6.52-5.47,7.26Zm-4.45-2.84l4.21,1.91,4.87-6.46-1.83-5.36-5.34,2.43-1.9,7.48Z"/>
  </g>
  <g>
    <path class="cls-1" d="m24.63,51c-.1,0-.2-.03-.28-.09l-7.18-4.95c-.19-.13-.26-.37-.19-.58l2.13-6.04c.08-.23.32-.37.56-.33l9.26,1.61c.17.03.31.14.37.29l3.02,6.92c.06.13.06.28,0,.4s-.17.23-.3.27l-7.23,2.45c-.05.02-.11.03-.16.03Zm-6.58-5.64l6.66,4.58,6.48-2.19-2.69-6.17-8.58-1.49-1.86,5.28Z"/>
    <path class="cls-1" d="m24.63,51.38c-.18,0-.35-.05-.5-.15l-7.18-4.95c-.33-.22-.46-.64-.33-1.02l2.13-6.04c.14-.4.55-.65.98-.57l9.26,1.61c.29.05.54.24.65.51l3.02,6.92c.1.22.1.48,0,.7-.1.23-.29.4-.52.48l-7.23,2.45c-.08.03-.18.05-.28.05Zm-5.05-11.99c-.05,0-.1.03-.12.09l-2.13,6.04c-.02.05,0,.11.05.15l7.25,4.97s.03,0,.03,0l7.24-2.45s.06-.04.08-.07c.01-.03.01-.07,0-.1l-3.02-6.92s-.05-.07-.1-.07l-9.26-1.61s-.01,0-.02,0Zm5.07,10.97l-7.05-4.85,2.07-5.84,9.09,1.58,2.94,6.73-7.04,2.38Zm-6.15-5.15l6.27,4.32,5.91-2-2.45-5.62-8.07-1.41-1.66,4.71Z"/>
  </g>
  <g>
    <path class="cls-1" d="m41.4,50.22s-.07,0-.11-.01c-.15-.03-.28-.14-.35-.28l-.96-2.13c-.08-.18-.05-.38.07-.53l5.72-6.77c.05-.06.12-.11.19-.14l4.27-1.76c.2-.08.43-.03.57.14.14.16.16.4.05.59l-3.56,5.95s-.06.09-.1.12l-5.47,4.7c-.09.08-.21.12-.33.12Zm-.37-2.55l.55,1.23,4.9-4.21,2.74-4.58-2.75,1.14-5.44,6.43Z"/>
    <path class="cls-1" d="m41.4,50.59c-.07,0-.13,0-.2-.02-.26-.06-.49-.24-.6-.49l-.96-2.13c-.14-.31-.09-.67.13-.92l5.73-6.77c.09-.11.2-.19.33-.24l4.27-1.76c.35-.15.75-.05,1,.24.25.29.28.7.09,1.02l-3.56,5.95c-.05.08-.11.15-.18.22l-5.47,4.7c-.16.14-.36.21-.57.21Zm9.04-11.66s-.03,0-.05,0l-4.27,1.76-5.77,6.8s-.04.09-.02.13l.96,2.13s.05.06.09.07h.03s.06,0,.08-.03l5.47-4.7,3.59-5.98s.02-.11-.01-.15c-.02-.03-.06-.04-.1-.04Zm-8.99,10.58l-.85-1.9,5.74-6.72,3.8-1.57-3.4,5.64-5.28,4.54Zm.02-1.78l.25.55,4.47-3.85,2.13-3.56-1.62.67-5.23,6.18Z"/>
  </g>
</svg>