<?xml version="1.0" encoding="UTF-8"?>
<svg id="Layer_1" data-name="Layer 1" xmlns="http://www.w3.org/2000/svg" viewBox="0 0 60 60">
  <defs>
    <style>
      .cls-1 {
        fill: #37464c;
        stroke-width: 0px;
      }
    </style>
  </defs>
  <g>
    <path class="cls-1" d="m42.12,55.31h-22.49c-2.49,0-4.52-2.03-4.52-4.52V14.52c0-2.49,2.03-4.52,4.52-4.52h22.49c2.49,0,4.52,2.03,4.52,4.52v36.26c0,2.49-2.03,4.52-4.52,4.52ZM19.64,11.03c-1.92,0-3.49,1.57-3.49,3.49v36.26c0,1.92,1.57,3.49,3.49,3.49h22.49c1.92,0,3.49-1.57,3.49-3.49V14.52c0-1.92-1.57-3.49-3.49-3.49h-22.49Z"/>
    <path class="cls-1" d="m42.12,55.68h-22.48c-2.7,0-4.9-2.2-4.9-4.9V14.52c0-2.7,2.2-4.9,4.9-4.9h22.48c2.7,0,4.9,2.2,4.9,4.9v36.26c0,2.7-2.2,4.9-4.9,4.9ZM19.64,10.38c-2.29,0-4.15,1.86-4.15,4.15v36.26c0,2.29,1.86,4.15,4.15,4.15h22.48c2.29,0,4.15-1.86,4.15-4.15V14.52c0-2.29-1.86-4.15-4.15-4.15h-22.48Zm22.48,44.27h-22.48c-2.13,0-3.87-1.73-3.87-3.87V14.52c0-2.13,1.73-3.87,3.87-3.87h22.48c2.13,0,3.87,1.73,3.87,3.87v36.26c0,2.13-1.73,3.87-3.87,3.87ZM19.64,11.41c-1.72,0-3.12,1.4-3.12,3.12v36.26c0,1.72,1.4,3.12,3.12,3.12h22.48c1.72,0,3.12-1.4,3.12-3.12V14.52c0-1.72-1.4-3.12-3.12-3.12h-22.48Z"/>
  </g>
  <g>
    <path class="cls-1" d="m30.88,51.18c-5.33,0-9.67-4.34-9.67-9.67s4.34-9.67,9.67-9.67,9.67,4.34,9.67,9.67-4.34,9.67-9.67,9.67Zm0-18.3c-4.76,0-8.63,3.87-8.63,8.63s3.87,8.63,8.63,8.63,8.63-3.87,8.63-8.63-3.87-8.63-8.63-8.63Z"/>
    <path class="cls-1" d="m30.88,51.55c-5.54,0-10.04-4.5-10.04-10.04s4.5-10.04,10.04-10.04,10.04,4.5,10.04,10.04-4.5,10.04-10.04,10.04Zm0-19.33c-5.12,0-9.29,4.17-9.29,9.29s4.17,9.29,9.29,9.29,9.29-4.17,9.29-9.29-4.17-9.29-9.29-9.29Zm0,18.3c-4.97,0-9.01-4.04-9.01-9.01s4.04-9.01,9.01-9.01,9.01,4.04,9.01,9.01-4.04,9.01-9.01,9.01Zm0-17.27c-4.55,0-8.26,3.7-8.26,8.26s3.7,8.26,8.26,8.26,8.26-3.7,8.26-8.26-3.7-8.26-8.26-8.26Z"/>
  </g>
  <g>
    <path class="cls-1" d="m30.88,28.55c-3.49,0-6.32-2.84-6.32-6.32s2.84-6.32,6.32-6.32,6.32,2.84,6.32,6.32-2.84,6.32-6.32,6.32Zm0-11.61c-2.92,0-5.29,2.37-5.29,5.29s2.37,5.29,5.29,5.29,5.29-2.37,5.29-5.29-2.37-5.29-5.29-5.29Z"/>
    <path class="cls-1" d="m30.88,28.93c-3.69,0-6.7-3-6.7-6.7s3-6.7,6.7-6.7,6.7,3,6.7,6.7-3,6.7-6.7,6.7Zm0-12.64c-3.28,0-5.95,2.67-5.95,5.95s2.67,5.95,5.95,5.95,5.95-2.67,5.95-5.95-2.67-5.95-5.95-5.95Zm0,11.61c-3.12,0-5.66-2.54-5.66-5.66s2.54-5.66,5.66-5.66,5.66,2.54,5.66,5.66-2.54,5.66-5.66,5.66Zm0-10.58c-2.71,0-4.91,2.2-4.91,4.91s2.2,4.91,4.91,4.91,4.91-2.2,4.91-4.91-2.2-4.91-4.91-4.91Z"/>
  </g>
  <g>
    <path class="cls-1" d="m30.88,46.53c-2.77,0-5.02-2.25-5.02-5.02s2.25-5.02,5.02-5.02,5.02,2.25,5.02,5.02-2.25,5.02-5.02,5.02Zm0-9c-2.2,0-3.98,1.79-3.98,3.98s1.79,3.98,3.98,3.98,3.98-1.79,3.98-3.98-1.79-3.98-3.98-3.98Z"/>
    <path class="cls-1" d="m30.88,46.91c-2.97,0-5.39-2.42-5.39-5.39s2.42-5.39,5.39-5.39,5.39,2.42,5.39,5.39-2.42,5.39-5.39,5.39Zm0-10.04c-2.56,0-4.64,2.08-4.64,4.64s2.08,4.64,4.64,4.64,4.64-2.08,4.64-4.64-2.08-4.64-4.64-4.64Zm0,9c-2.4,0-4.36-1.96-4.36-4.36s1.96-4.36,4.36-4.36,4.36,1.96,4.36,4.36-1.96,4.36-4.36,4.36Zm0-7.97c-1.99,0-3.61,1.62-3.61,3.61s1.62,3.61,3.61,3.61,3.61-1.62,3.61-3.61-1.62-3.61-3.61-3.61Z"/>
  </g>
  <g>
    <path class="cls-1" d="m30.88,25.01c-1.53,0-2.78-1.25-2.78-2.78s1.25-2.78,2.78-2.78,2.78,1.25,2.78,2.78-1.25,2.78-2.78,2.78Zm0-4.53c-.96,0-1.75.78-1.75,1.75s.78,1.75,1.75,1.75,1.75-.78,1.75-1.75-.78-1.75-1.75-1.75Z"/>
    <path class="cls-1" d="m30.88,25.38c-1.74,0-3.15-1.42-3.15-3.16s1.42-3.15,3.15-3.15,3.15,1.42,3.15,3.15-1.42,3.16-3.15,3.16Zm0-5.56c-1.33,0-2.4,1.08-2.4,2.4s1.08,2.41,2.4,2.41,2.4-1.08,2.4-2.41-1.08-2.4-2.4-2.4Zm0,4.53c-1.17,0-2.12-.95-2.12-2.12s.95-2.12,2.12-2.12,2.12.95,2.12,2.12-.95,2.12-2.12,2.12Zm0-3.49c-.76,0-1.37.62-1.37,1.37s.62,1.37,1.37,1.37,1.37-.62,1.37-1.37-.61-1.37-1.37-1.37Z"/>
  </g>
</svg>