<?xml version="1.0" encoding="UTF-8"?>
<svg id="Layer_1" data-name="Layer 1" xmlns="http://www.w3.org/2000/svg" viewBox="0 0 60 60">
  <defs>
    <style>
      .cls-1 {
        fill: #37464c;
        stroke-width: 0px;
      }
    </style>
  </defs>
  <path class="cls-1" d="m32.74,56c-.49,0-.97-.09-1.44-.27-12.88-5.06-20.56-15.73-20.56-28.53v-15.07c0-1.07.58-2.07,1.51-2.6,2.9-1.66,10.7-5.52,20.49-5.52s17.59,3.86,20.49,5.52c.93.53,1.51,1.53,1.51,2.6v15.07c0,12.8-7.69,23.46-20.56,28.53-.46.18-.95.27-1.44.27Zm0-50c-9.31,0-16.74,3.68-19.5,5.26-.31.18-.5.5-.5.87v15.07c0,11.95,7.21,21.92,19.29,26.67.45.18.96.18,1.41,0,12.08-4.75,19.29-14.72,19.29-26.67v-15.07c0-.36-.19-.69-.5-.87-2.76-1.58-10.19-5.26-19.5-5.26Z"/>
  <path class="cls-1" d="m32.74,49.75c-.14,0-.27-.03-.4-.08-9.91-4.32-15.6-12.51-15.6-22.46v-12.65c0-.39.22-.74.57-.9,2.86-1.36,8.66-3.65,15.43-3.65s12.57,2.29,15.43,3.65c.35.17.57.52.57.9v12.65c0,9.96-5.69,18.14-15.6,22.46-.13.06-.26.08-.4.08ZM18.74,15.19v12.01c0,8.99,5.1,16.42,14,20.45,8.9-4.03,14-11.46,14-20.45v-12.01c-2.86-1.3-8.04-3.19-14-3.19s-11.14,1.89-14,3.19Z"/>
  <path class="cls-1" d="m36.93,36c-.36,0-.72-.09-1.05-.27l-3.01-1.67c-.09-.05-.19-.05-.27,0t0,0l-3.01,1.67c-.73.4-1.6.36-2.28-.12-.68-.48-1.03-1.29-.89-2.12l.61-3.73c.01-.09-.01-.18-.08-.24l-2.6-2.67c-.57-.58-.76-1.42-.5-2.19.26-.77.92-1.33,1.72-1.45l3.48-.53c.09-.01.17-.07.21-.16l1.52-3.26c.36-.77,1.11-1.24,1.95-1.24h0c.85,0,1.59.48,1.95,1.24l1.53,3.26c.04.09.12.14.21.16l3.48.53c.8.12,1.46.68,1.72,1.45.26.77.07,1.61-.5,2.19l-2.6,2.68c-.06.06-.09.15-.08.24l.61,3.74c.13.83-.21,1.64-.89,2.12-.37.26-.8.39-1.23.39Zm-4.19-3.98c.38,0,.76.1,1.11.29l3.01,1.67s.09.04.16,0c.08-.06.07-.13.07-.16l-.61-3.73c-.12-.71.11-1.44.62-1.95l2.6-2.68s.07-.07.04-.16c-.03-.09-.1-.1-.13-.11l-3.48-.53c-.75-.12-1.4-.6-1.72-1.29l-1.53-3.26s-.04-.09-.14-.09h0c-.1,0-.13.06-.14.09l-1.52,3.26c-.32.69-.96,1.17-1.72,1.29l-3.48.53s-.1.02-.13.11c-.03.09.02.15.04.17l2.6,2.67c.5.51.73,1.24.62,1.95l-.61,3.74s-.02.1.07.16c.07.05.14.02.16,0l3.01-1.67c.35-.19.73-.29,1.11-.29Z"/>
</svg>