<?xml version="1.0" encoding="UTF-8"?>
<svg id="Layer_1" data-name="Layer 1" xmlns="http://www.w3.org/2000/svg" viewBox="0 0 60 60">
  <defs>
    <style>
      .cls-1 {
        fill: #4d4d4d;
      }

      .cls-1, .cls-2 {
        stroke-width: 0px;
      }

      .cls-2 {
        fill: #37464c;
      }
    </style>
  </defs>
  <g>
    <g>
      <g>
        <path class="cls-1" d="m41.77,17.17c-.35,0-.63-.28-.63-.63v-3.9h-6.96v3.9c0,.35-.28.63-.63.63s-.63-.28-.63-.63v-4.53c0-.35.28-.63.63-.63h8.22c.35,0,.63.28.63.63v4.53c0,.35-.28.63-.63.63Z"/>
        <path class="cls-2" d="m41.77,17.55c-.55,0-1-.45-1-1v-3.53h-6.21v3.53c0,.55-.45,1-1,1s-1-.45-1-1v-4.53c0-.55.45-1,1-1h8.22c.55,0,1,.45,1,1v4.53c0,.55-.45,1-1,1Zm-7.96-5.28h7.71v4.28c0,.28.51.28.51,0v-4.53c0-.14-.11-.25-.25-.25h-8.22c-.14,0-.25.11-.25.25v4.53c0,.28.51.28.51,0v-4.28Z"/>
      </g>
      <g>
        <path class="cls-1" d="m37.66,55.49c-.35,0-.63-.28-.63-.63s.28-.63.63-.63c10.22,0,18.53-8.31,18.53-18.53s-8.31-18.53-18.53-18.53c-.35,0-.63-.28-.63-.63s.28-.63.63-.63c10.91,0,19.79,8.88,19.79,19.79s-8.88,19.79-19.79,19.79Z"/>
        <path class="cls-2" d="m37.66,55.86c-.55,0-1-.45-1-1s.45-1,1-1c10.01,0,18.15-8.14,18.15-18.15s-8.14-18.15-18.15-18.15c-.55,0-1-.45-1-1s.45-1,1-1c11.12,0,20.16,9.04,20.16,20.16s-9.04,20.16-20.16,20.16Zm0-39.57c-.14,0-.25.11-.25.25s.11.25.25.25c10.42,0,18.9,8.48,18.9,18.9s-8.48,18.9-18.9,18.9c-.14,0-.25.11-.25.25s.11.25.25.25c10.7,0,19.41-8.71,19.41-19.41s-8.71-19.41-19.41-19.41Z"/>
      </g>
      <g>
        <path class="cls-1" d="m41.95,12.64h-8.58c-1.98,0-3.59-1.61-3.59-3.59s1.61-3.59,3.59-3.59h8.58c1.98,0,3.59,1.61,3.59,3.59s-1.61,3.59-3.59,3.59Zm-8.58-5.92c-1.29,0-2.33,1.05-2.33,2.33s1.05,2.33,2.33,2.33h8.58c1.29,0,2.33-1.05,2.33-2.33s-1.05-2.33-2.33-2.33h-8.58Z"/>
        <path class="cls-2" d="m41.95,13.01h-8.58c-2.19,0-3.97-1.78-3.97-3.97s1.78-3.97,3.97-3.97h8.58c2.19,0,3.97,1.78,3.97,3.97s-1.78,3.97-3.97,3.97Zm-8.58-7.18c-1.77,0-3.22,1.44-3.22,3.22s1.44,3.22,3.22,3.22h8.58c1.77,0,3.22-1.44,3.22-3.22s-1.44-3.22-3.22-3.22h-8.58Zm8.58,5.92h-8.58c-1.49,0-2.71-1.21-2.71-2.71s1.21-2.71,2.71-2.71h8.58c1.49,0,2.71,1.21,2.71,2.71s-1.21,2.71-2.71,2.71Zm-8.58-4.66c-1.08,0-1.96.88-1.96,1.96s.88,1.96,1.96,1.96h8.58c1.08,0,1.96-.88,1.96-1.96s-.88-1.96-1.96-1.96h-8.58Z"/>
      </g>
      <g>
        <path class="cls-1" d="m37.66,51.8c-8.88,0-16.1-7.22-16.1-16.1s7.22-16.1,16.1-16.1,16.1,7.22,16.1,16.1-7.22,16.1-16.1,16.1Zm0-30.94c-8.18,0-14.84,6.66-14.84,14.84s6.66,14.84,14.84,14.84,14.84-6.66,14.84-14.84-6.66-14.84-14.84-14.84Z"/>
        <path class="cls-2" d="m37.66,52.17c-9.08,0-16.47-7.39-16.47-16.48s7.39-16.48,16.47-16.48,16.48,7.39,16.48,16.48-7.39,16.48-16.48,16.48Zm0-32.2c-8.67,0-15.72,7.05-15.72,15.73s7.05,15.73,15.72,15.73,15.73-7.05,15.73-15.73-7.05-15.73-15.73-15.73Zm0,30.94c-8.39,0-15.22-6.83-15.22-15.22s6.83-15.22,15.22-15.22,15.22,6.83,15.22,15.22-6.83,15.22-15.22,15.22Zm0-29.68c-7.98,0-14.47,6.49-14.47,14.47s6.49,14.47,14.47,14.47,14.47-6.49,14.47-14.47-6.49-14.47-14.47-14.47Z"/>
      </g>
    </g>
    <g>
      <path class="cls-1" d="m37.66,39.3c-1.99,0-3.6-1.62-3.6-3.6s1.62-3.6,3.6-3.6,3.6,1.62,3.6,3.6-1.62,3.6-3.6,3.6Zm0-5.95c-1.29,0-2.34,1.05-2.34,2.34s1.05,2.34,2.34,2.34,2.34-1.05,2.34-2.34-1.05-2.34-2.34-2.34Z"/>
      <path class="cls-2" d="m37.66,39.68c-2.19,0-3.98-1.79-3.98-3.98s1.78-3.98,3.98-3.98,3.98,1.78,3.98,3.98-1.79,3.98-3.98,3.98Zm0-7.21c-1.78,0-3.23,1.45-3.23,3.23s1.45,3.23,3.23,3.23,3.23-1.45,3.23-3.23-1.45-3.23-3.23-3.23Zm0,5.95c-1.5,0-2.72-1.22-2.72-2.72s1.22-2.72,2.72-2.72,2.72,1.22,2.72,2.72-1.22,2.72-2.72,2.72Zm0-4.69c-1.09,0-1.97.88-1.97,1.97s.88,1.97,1.97,1.97,1.97-.88,1.97-1.97-.88-1.97-1.97-1.97Z"/>
    </g>
    <g>
      <path class="cls-1" d="m49.53,36.33h-8.9c-.35,0-.63-.28-.63-.63s.28-.63.63-.63h7.38l-.57-.57c-.25-.25-.25-.64,0-.89.25-.25.64-.25.89,0l1.64,1.65c.18.18.23.45.14.69-.1.24-.33.39-.58.39Z"/>
      <path class="cls-2" d="m49.53,36.7h-8.9c-.55,0-1-.45-1-1s.45-1,1-1h6.48c-.15-.18-.23-.4-.23-.64,0-.27.1-.52.29-.71.39-.39,1.03-.39,1.42,0l1.64,1.64c.29.29.37.72.22,1.1s-.52.62-.93.62Zm-8.9-1.26c-.14,0-.25.11-.25.25s.11.25.25.25h8.9c.1,0,.2-.06.24-.16.04-.1.02-.2-.06-.28l-1.64-1.64c-.1-.1-.26-.1-.36,0-.05.05-.08.11-.08.18s.03.13.07.18l1.21,1.21h-8.28Z"/>
    </g>
    <g>
      <path class="cls-1" d="m47.89,37.97c-.16,0-.32-.06-.45-.18-.25-.25-.25-.64,0-.89l.57-.57h-7.38c-.35,0-.63-.28-.63-.63s.28-.63.63-.63h8.9c.25,0,.48.15.58.39.1.24.04.51-.14.69l-1.64,1.65c-.12.12-.28.18-.45.18Z"/>
      <path class="cls-2" d="m47.89,38.35c-.27,0-.52-.1-.71-.29-.19-.19-.29-.44-.29-.71,0-.24.08-.46.23-.64h-6.48c-.55,0-1-.45-1-1s.45-1,1-1h8.9c.41,0,.77.24.93.62.16.38.07.81-.22,1.1l-1.64,1.64c-.19.19-.44.29-.71.29Zm-7.25-2.9c-.14,0-.25.11-.25.25s.11.25.25.25h8.28l-1.21,1.21s-.08.11-.08.18.03.13.07.18c.1.1.26.1.36,0l1.64-1.64c.07-.07.1-.18.06-.28-.04-.1-.13-.16-.24-.16h-8.9Z"/>
    </g>
  </g>
  <g>
    <path class="cls-1" d="m37.66,17.17h-14.87c-.35,0-.63-.28-.63-.63s.28-.63.63-.63h14.87c.35,0,.63.28.63.63s-.28.63-.63.63Z"/>
    <path class="cls-2" d="m37.66,17.55h-14.87c-.55,0-1-.45-1-1s.45-1,1-1h14.87c.55,0,1,.45,1,1s-.45,1-1,1Zm-14.87-1.26c-.14,0-.25.11-.25.25s.11.25.25.25h14.87c.14,0,.25-.11.25-.25s-.11-.25-.25-.25h-14.87Z"/>
  </g>
  <g>
    <path class="cls-1" d="m25.08,21.83h-14.87c-.35,0-.63-.28-.63-.63s.28-.63.63-.63h14.87c.35,0,.63.28.63.63s-.28.63-.63.63Z"/>
    <path class="cls-2" d="m25.08,22.21h-14.87c-.55,0-1-.45-1-1s.45-1,1-1h14.87c.55,0,1,.45,1,1s-.45,1-1,1Zm-14.87-1.26c-.14,0-.25.11-.25.25s.11.25.25.25h14.87c.14,0,.25-.11.25-.25s-.11-.25-.25-.25h-14.87Z"/>
  </g>
  <g>
    <path class="cls-1" d="m20.95,26.64H6.08c-.35,0-.63-.28-.63-.63s.28-.63.63-.63h14.87c.35,0,.63.28.63.63s-.28.63-.63.63Z"/>
    <path class="cls-2" d="m20.95,27.01H6.08c-.55,0-1-.45-1-1s.45-1,1-1h14.87c.55,0,1,.45,1,1s-.45,1-1,1Zm-14.87-1.26c-.14,0-.25.11-.25.25s.11.25.25.25h14.87c.14,0,.25-.11.25-.25s-.11-.25-.25-.25H6.08Z"/>
  </g>
  <g>
    <path class="cls-1" d="m18.84,31.45H3.97c-.35,0-.63-.28-.63-.63s.28-.63.63-.63h14.87c.35,0,.63.28.63.63s-.28.63-.63.63Z"/>
    <path class="cls-2" d="m18.84,31.82H3.97c-.55,0-1-.45-1-1s.45-1,1-1h14.87c.55,0,1,.45,1,1s-.45,1-1,1Zm-14.87-1.26c-.14,0-.25.11-.25.25s.11.25.25.25h14.87c.14,0,.25-.11.25-.25s-.11-.25-.25-.25H3.97Z"/>
  </g>
  <g>
    <path class="cls-1" d="m18.19,36.25H3.32c-.35,0-.63-.28-.63-.63s.28-.63.63-.63h14.87c.35,0,.63.28.63.63s-.28.63-.63.63Z"/>
    <path class="cls-2" d="m18.19,36.63H3.32c-.55,0-1-.45-1-1s.45-1,1-1h14.87c.55,0,1,.45,1,1s-.45,1-1,1Zm-14.87-1.26c-.14,0-.25.11-.25.25s.11.25.25.25h14.87c.14,0,.25-.11.25-.25s-.11-.25-.25-.25H3.32Z"/>
  </g>
  <g>
    <path class="cls-1" d="m18.84,41.06H3.97c-.35,0-.63-.28-.63-.63s.28-.63.63-.63h14.87c.35,0,.63.28.63.63s-.28.63-.63.63Z"/>
    <path class="cls-2" d="m18.84,41.44H3.97c-.55,0-1-.45-1-1s.45-1,1-1h14.87c.55,0,1,.45,1,1s-.45,1-1,1Zm-14.87-1.26c-.14,0-.25.11-.25.25s.11.25.25.25h14.87c.14,0,.25-.11.25-.25s-.11-.25-.25-.25H3.97Z"/>
  </g>
  <g>
    <path class="cls-1" d="m20.79,45.87H5.92c-.35,0-.63-.28-.63-.63s.28-.63.63-.63h14.87c.35,0,.63.28.63.63s-.28.63-.63.63Z"/>
    <path class="cls-2" d="m20.79,46.25H5.92c-.55,0-1-.45-1-1s.45-1,1-1h14.87c.55,0,1,.45,1,1s-.45,1-1,1Zm-14.87-1.26c-.14,0-.25.11-.25.25s.11.25.25.25h14.87c.14,0,.25-.11.25-.25s-.11-.25-.25-.25H5.92Z"/>
  </g>
  <g>
    <path class="cls-1" d="m24.68,50.68h-14.87c-.35,0-.63-.28-.63-.63s.28-.63.63-.63h14.87c.35,0,.63.28.63.63s-.28.63-.63.63Z"/>
    <path class="cls-2" d="m24.68,51.05h-14.87c-.55,0-1-.45-1-1s.45-1,1-1h14.87c.55,0,1,.45,1,1s-.45,1-1,1Zm-14.87-1.26c-.14,0-.25.11-.25.25s.11.25.25.25h14.87c.14,0,.25-.11.25-.25s-.11-.25-.25-.25h-14.87Z"/>
  </g>
  <g>
    <path class="cls-1" d="m37.66,55.49h-14.87c-.35,0-.63-.28-.63-.63s.28-.63.63-.63h14.87c.35,0,.63.28.63.63s-.28.63-.63.63Z"/>
    <path class="cls-2" d="m37.66,55.86h-14.87c-.55,0-1-.45-1-1s.45-1,1-1h14.87c.55,0,1,.45,1,1s-.45,1-1,1Zm-14.87-1.26c-.14,0-.25.11-.25.25s.11.25.25.25h14.87c.14,0,.25-.11.25-.25s-.11-.25-.25-.25h-14.87Z"/>
  </g>
</svg>