<?xml version="1.0" encoding="UTF-8"?>
<svg id="Layer_1" data-name="Layer 1" xmlns="http://www.w3.org/2000/svg" viewBox="0 0 60 60">
  <defs>
    <style>
      .cls-1 {
        fill: #37464c;
        stroke-width: 0px;
      }
    </style>
  </defs>
  <g>
    <path class="cls-1" d="m17.66,37.78c-.31,0-.56-.25-.56-.56,0-3.52,3.61-7.3,10.29-7.37.03,0,.06,0,.09,0,2.93,0,6.84,1.44,8.59,3.18.67.66,1,1.33,1,2.01,0,.31-.25.56-.56.56s-.56-.25-.56-.56c0-.36-.23-.77-.67-1.21-1.55-1.53-5.17-2.85-7.8-2.85-.03,0-.05,0-.08,0-3.81.04-9.17,2.01-9.17,6.25,0,.31-.25.56-.56.56Z"/>
    <path class="cls-1" d="m17.66,38.15c-.52,0-.94-.42-.94-.94,0-3.7,3.74-7.68,10.66-7.75h.1c3.05,0,7.02,1.47,8.86,3.29.74.73,1.12,1.5,1.12,2.27,0,.52-.42.94-.94.94s-.94-.42-.94-.94c0-.25-.2-.59-.56-.94-1.48-1.46-5-2.74-7.54-2.74-3.73.04-8.88,1.89-8.88,5.88,0,.52-.42.94-.94.94Zm9.82-7.94c-6.53.07-10,3.66-10,7,0,.21.38.21.37,0,0-4.5,5.58-6.58,9.54-6.63h0c2.83,0,6.53,1.36,8.15,2.96.52.51.78,1.01.78,1.48,0,.21.38.21.37,0,0-.57-.3-1.15-.89-1.74-1.68-1.66-5.5-3.07-8.33-3.07Z"/>
  </g>
  <g>
    <path class="cls-1" d="m28.66,52.56c-3.06,0-6.32-.62-9.88-1.89-.85-.3-1.72-.43-3.77,1.02-.25.18-.6.12-.78-.13-.18-.25-.12-.6.13-.78,2.25-1.59,3.5-1.63,4.8-1.17,9.37,3.32,15.04,1.51,19.35-.7,2.94-1.51,6.37-3.4,11.52-6.99,4.24-2.95,3.72-3.7,3-4.73-.08-.11-.15-.22-.23-.34-1.98-3.05-3.47-5.63-4.67-7.7-2.23-3.86-3.71-6.42-6.14-8.26-.48-.36-1.02-.74-1.6-1.13-2.18-1.49-4.89-3.35-7.1-6.67-2.62-3.92-4.18-4-5.99-4.08-1.13-.05-2.17-.09-3.59-.13-1.31-.04-2.93-.1-5.2-.18-4.14-.16-4.37.71-4.7,1.9l-.03.1c-.08.28-.17.6-.28.95-.37,1.25-.83,2.81-.94,4.18-.03.39.06.69.28.92.42.46,1.26.62,1.85.62h.02c2.11,0,6.72-.77,8.26-1.5,1.68-.79,2.57-.94,3.52-.6,4.65,1.69,5.26,4.73,5.69,6.95.04.18.07.35.11.52,1.22,5.74,2.63,7.74,3.57,9.06.68.96,1.22,1.72,1.22,3.23,0,.31-.25.56-.56.56s-.56-.25-.56-.56c0-1.15-.36-1.66-1.01-2.57-.99-1.4-2.49-3.51-3.75-9.47-.04-.17-.07-.35-.11-.54-.41-2.06-.92-4.63-4.98-6.11-.55-.2-1.11-.17-2.65.56-1.73.82-6.45,1.6-8.74,1.6h-.03c-.41,0-1.83-.08-2.67-.98-.43-.46-.63-1.08-.58-1.77.11-1.49.59-3.11.98-4.42.1-.34.19-.65.27-.93l.03-.1c.48-1.77,1.15-2.92,5.83-2.73,2.27.09,3.88.14,5.2.18,1.43.05,2.47.08,3.61.14,1.94.09,3.94.19,6.87,4.58,2.09,3.14,4.7,4.93,6.8,6.37.59.4,1.14.78,1.64,1.16,2.62,1.98,4.14,4.61,6.44,8.59,1.25,2.17,2.68,4.63,4.64,7.65.07.11.14.21.21.31,1.1,1.58,1.51,2.96-3.28,6.3-5.2,3.62-8.67,5.54-11.65,7.06-1.94.99-4.62,2.18-8.17,2.54-.72.07-1.44.11-2.18.11Z"/>
    <path class="cls-1" d="m28.66,52.93c-3.11,0-6.39-.62-10.01-1.91-.64-.23-1.37-.48-3.43.98-.42.3-1.01.2-1.31-.22-.14-.2-.2-.45-.16-.7s.18-.46.38-.61c2.37-1.68,3.77-1.7,5.14-1.21,9.24,3.28,14.82,1.5,19.05-.68,2.93-1.5,6.35-3.39,11.48-6.96,3.93-2.74,3.52-3.32,2.9-4.21-.09-.13-.16-.24-.24-.35-1.99-3.06-3.48-5.64-4.68-7.72-2.21-3.82-3.67-6.35-6.04-8.15-.47-.36-1.01-.73-1.58-1.12-2.21-1.51-4.95-3.39-7.2-6.77-2.51-3.77-3.92-3.83-5.7-3.92-1.13-.05-2.16-.09-3.59-.13-1.34-.04-2.95-.1-5.21-.18-3.84-.15-4.03.56-4.32,1.63l-.03.1c-.08.29-.17.61-.28.96-.37,1.24-.82,2.78-.92,4.1-.03.37.09.54.18.64.32.35,1.02.5,1.58.5,2.09,0,6.63-.76,8.13-1.46,1.78-.84,2.75-1,3.81-.61,4.85,1.77,5.5,5.05,5.93,7.23l.1.51c1.2,5.67,2.59,7.62,3.51,8.92.69.97,1.29,1.81,1.29,3.44,0,.52-.42.94-.94.94s-.94-.42-.94-.94c0-1.03-.29-1.45-.94-2.36-1.01-1.42-2.53-3.57-3.82-9.61l-.11-.54c-.41-2.07-.88-4.43-4.74-5.83-.39-.14-.81-.19-2.37.54-1.79.84-6.53,1.64-8.9,1.64-.48,0-2.03-.08-2.98-1.1-.5-.54-.74-1.25-.68-2.05.12-1.53.6-3.17,1-4.5.1-.34.19-.65.27-.92l.03-.1c.59-2.18,1.67-3.18,6.2-3.01,2.24.09,3.84.14,5.15.18,1.48.05,2.52.08,3.66.14,2.03.1,4.13.2,7.17,4.75,2.05,3.08,4.63,4.84,6.7,6.26.6.42,1.16.79,1.66,1.17,2.68,2.03,4.21,4.68,6.54,8.71,1.25,2.16,2.66,4.61,4.63,7.63l.17.25c1.42,2.05,1.28,3.65-3.34,6.87-5.22,3.64-8.71,5.56-11.69,7.09-1.97,1.01-4.69,2.22-8.31,2.58-.72.07-1.47.11-2.22.11Zm-10.85-2.83c.41,0,.75.1,1.09.21,4.39,1.56,8.27,2.13,11.9,1.76,3.49-.35,6.13-1.52,8.04-2.5,2.96-1.52,6.42-3.42,11.61-7.04,4.85-3.38,4.04-4.54,3.18-5.77l-.22-.32c-1.98-3.04-3.4-5.5-4.65-7.67-2.28-3.94-3.78-6.55-6.34-8.48-.49-.37-1.03-.74-1.61-1.14-2.14-1.47-4.79-3.28-6.92-6.48-2.82-4.24-4.65-4.33-6.58-4.42-1.14-.05-2.17-.09-3.61-.13-1.35-.04-2.96-.1-5.2-.18-4.73-.19-5.07,1.04-5.45,2.46l-.03.1c-.08.28-.17.59-.27.93-.38,1.29-.86,2.89-.97,4.34-.04.59.12,1.1.48,1.49.74.8,2.02.86,2.4.86,2.28,0,6.93-.78,8.61-1.57,1.49-.7,2.2-.84,2.94-.57,4.26,1.55,4.81,4.35,5.21,6.39l.11.53c1.25,5.89,2.72,7.96,3.69,9.33.67.95,1.08,1.52,1.08,2.79,0,.21.38.21.37,0,0-1.39-.48-2.07-1.15-3-.96-1.35-2.4-3.38-3.63-9.2-.04-.17-.07-.34-.11-.53-.44-2.25-1-5.05-5.45-6.67-.84-.31-1.66-.16-3.23.58-1.61.76-6.26,1.53-8.42,1.53-.72,0-1.65-.2-2.15-.74-.29-.31-.42-.72-.38-1.21.11-1.41.58-2.99.95-4.26.1-.35.2-.66.27-.94l.03-.1c.4-1.46.85-2.34,5.08-2.18,2.25.09,3.86.14,5.17.18,1.46.05,2.5.08,3.63.14,1.83.09,3.56.17,6.28,4.25,2.17,3.26,4.85,5.09,7,6.57.58.4,1.13.77,1.61,1.14,2.5,1.89,3.99,4.47,6.24,8.37,1.19,2.07,2.68,4.64,4.66,7.69.07.11.14.21.21.31,1,1.44,1.01,2.42-3.08,5.27-5.17,3.6-8.61,5.5-11.56,7.01-4.38,2.25-10.14,4.09-19.65.72-1.21-.43-2.33-.39-4.46,1.12-.07.05-.09.19-.04.26.06.08.18.1.26.04,1.4-.99,2.31-1.29,3.03-1.29Z"/>
  </g>
  <g>
    <path class="cls-1" d="m4.83,34.73c-.13,0-.26-.04-.36-.13-.24-.2-.27-.55-.07-.79.06-.07,6.36-7.39,16.57-2.32.28.14.39.48.25.75-.14.28-.48.39-.75.25-3.97-1.97-7.74-2.23-11.2-.75-2.58,1.1-3.99,2.77-4.01,2.78-.11.13-.27.2-.43.2Z"/>
    <path class="cls-1" d="m4.83,35.11c-.22,0-.43-.08-.6-.22-.19-.16-.31-.39-.33-.64-.02-.25.05-.49.21-.68.06-.08,6.57-7.6,17.03-2.41.22.11.39.3.47.54.08.24.06.49-.05.72-.11.22-.3.39-.54.47-.24.08-.49.06-.72-.05-3.86-1.92-7.53-2.17-10.89-.74-2.48,1.05-3.85,2.66-3.87,2.68-.18.21-.44.33-.72.33Zm9.11-5.02c-5.8,0-9.21,3.91-9.26,3.96-.06.07-.04.21.03.26.09.07.17.09.26-.02.01-.01,1.5-1.76,4.15-2.89,3.57-1.52,7.45-1.26,11.52.76.04.02.09.03.14,0,.03,0,.08-.03.11-.09.03-.06.02-.12.01-.14,0-.03-.03-.08-.09-.11-2.55-1.27-4.85-1.74-6.87-1.74Z"/>
  </g>
</svg>