<?xml version="1.0" encoding="UTF-8"?>
<svg id="Layer_1" data-name="Layer 1" xmlns="http://www.w3.org/2000/svg" viewBox="0 0 60 60">
  <defs>
    <style>
      .cls-1 {
        fill: #37464c;
        stroke-width: 0px;
      }
    </style>
  </defs>
  <path class="cls-1" d="m37.6,57.97c-.55,0-1-.45-1-1V24.23c0-.55.45-1,1-1s1,.45,1,1v32.74c0,.55-.45,1-1,1Z"/>
  <path class="cls-1" d="m37.6,20.71c-.55,0-1-.45-1-1V3.03c0-.55.45-1,1-1s1,.45,1,1v16.68c0,.55-.45,1-1,1Z"/>
  <path class="cls-1" d="m46.02,57.97H9.56c-.55,0-1-.45-1-1s.45-1,1-1h36.47c.55,0,1,.45,1,1s-.45,1-1,1Z"/>
  <path class="cls-1" d="m20.06,16.91c-2.48,0-4.49-2.02-4.49-4.49s2.02-4.5,4.49-4.5,4.49,2.02,4.49,4.5-2.02,4.49-4.49,4.49Zm0-7.99c-1.93,0-3.49,1.57-3.49,3.5s1.57,3.49,3.49,3.49,3.49-1.57,3.49-3.49-1.57-3.5-3.49-3.5Z"/>
  <path class="cls-1" d="m20.06,17.41c-2.75,0-4.99-2.24-4.99-4.99s2.24-5,4.99-5,4.99,2.24,4.99,5-2.24,4.99-4.99,4.99Zm0-7.99c-1.65,0-2.99,1.34-2.99,3s1.34,2.99,2.99,2.99,2.99-1.34,2.99-2.99-1.34-3-2.99-3Z"/>
  <path class="cls-1" d="m37.54,24.6h-10.82c-.55,0-1-.45-1-1s.45-1,1-1h10.82c.06,0,.12,0,.18,0,.56-.03,1.03.38,1.07.93.04.55-.38,1.03-.93,1.07-.11,0-.22.01-.32.01Z"/>
  <path class="cls-1" d="m23.09,57.97h-6.07c-1.16,0-2.13-.92-2.22-2.1l-1.15-15.59c-1.81-.47-4.02-1.87-4.18-3.74l-.9-12.09c0-.17,0-.27,0-.32,0-2.91,2.33-5.36,5.2-5.43h27.67c.55,0,1,.45,1,1,0,2.57-2.01,4.72-4.58,4.88-.55.04-1.03-.38-1.06-.93-.04-.55.38-1.03.93-1.06,1.17-.08,2.14-.84,2.53-1.89H13.78c-1.77.04-3.23,1.6-3.23,3.46,0,.06,0,.1,0,.16l.9,12.05c.07.76,1.67,1.84,3.07,2.05l.16.02c.49.05.87.44.9.92l1.21,16.36c0,.13.13.24.23.24h6.07c.09,0,.22-.11.23-.24l2.4-32.2c.04-.55.51-.96,1.07-.92.55.04.96.52.92,1.07l-2.4,32.2c-.09,1.17-1.06,2.09-2.22,2.09Z"/>
  <path class="cls-1" d="m20.06,17.41c-2.75,0-4.99-2.24-4.99-4.99s2.24-5,4.99-5,4.99,2.24,4.99,5-2.24,4.99-4.99,4.99Zm0-7.99c-1.65,0-2.99,1.34-2.99,3s1.34,2.99,2.99,2.99,2.99-1.34,2.99-2.99-1.34-3-2.99-3Z"/>
  <path class="cls-1" d="m20.05,57.46c-.55,0-1-.45-1-1v-18.16c0-.55.45-1,1-1s1,.45,1,1v18.16c0,.55-.45,1-1,1Z"/>
  <path class="cls-1" d="m14.59,40.44c-.52,0-.96-.4-1-.93l-1.01-13.64c-.04-.55.37-1.03.92-1.07.54-.05,1.03.37,1.07.92l1.01,13.64c.04.55-.37,1.03-.92,1.07-.02,0-.05,0-.07,0Z"/>
  <path class="cls-1" d="m46.02,14.22h-8.43c-.55,0-1-.45-1-1v-7.88c0-.55.45-1,1-1h8.43c.55,0,1,.45,1,1v7.88c0,.55-.45,1-1,1Zm-7.43-2h6.43v-5.88h-6.43v5.88Z"/>
  <path class="cls-1" d="m54.45,17.22h-8.43c-.55,0-1-.45-1-1v-7.88c0-.55.45-1,1-1h8.43c.39,0,.75.23.91.59.16.36.1.78-.16,1.07l-2.88,3.28,2.88,3.28c.26.29.32.71.16,1.07-.16.36-.52.59-.91.59Zm-7.43-2h5.22l-2-2.28c-.33-.38-.33-.94,0-1.32l2-2.28h-5.22v5.88Z"/>
</svg>