<?xml version="1.0" encoding="UTF-8"?>
<svg id="Layer_1" data-name="Layer 1" xmlns="http://www.w3.org/2000/svg" viewBox="0 0 60 60">
  <defs>
    <style>
      .cls-1 {
        fill: #37464c;
        stroke-width: 0px;
      }
    </style>
  </defs>
  <g>
    <path class="cls-1" d="m30,42.16c-6.76,0-12.26-5.5-12.26-12.26s5.5-12.26,12.26-12.26,12.26,5.5,12.26,12.26-5.5,12.26-12.26,12.26Zm0-23.49c-6.19,0-11.23,5.04-11.23,11.23s5.04,11.23,11.23,11.23,11.23-5.04,11.23-11.23-5.04-11.23-11.23-11.23Z"/>
    <path class="cls-1" d="m30,42.54c-6.97,0-12.64-5.67-12.64-12.64s5.67-12.64,12.64-12.64,12.64,5.67,12.64,12.64-5.67,12.64-12.64,12.64Zm0-24.53c-6.56,0-11.89,5.33-11.89,11.89s5.33,11.89,11.89,11.89,11.89-5.33,11.89-11.89-5.33-11.89-11.89-11.89Zm0,23.49c-6.4,0-11.6-5.21-11.6-11.6s5.21-11.6,11.6-11.6,11.6,5.21,11.6,11.6-5.21,11.6-11.6,11.6Zm0-22.46c-5.99,0-10.85,4.87-10.85,10.85s4.87,10.85,10.85,10.85,10.85-4.87,10.85-10.85-4.87-10.85-10.85-10.85Z"/>
  </g>
  <g>
    <g>
      <path class="cls-1" d="m30,14.85c-.29,0-.52-.23-.52-.52v-6.54c0-.29.23-.52.52-.52s.52.23.52.52v6.54c0,.29-.23.52-.52.52Z"/>
      <path class="cls-1" d="m30,15.23c-.49,0-.89-.4-.89-.89v-6.54c0-.49.4-.89.89-.89s.89.4.89.89v6.54c0,.49-.4.89-.89.89Zm0-7.57c-.08,0-.14.06-.14.14v6.54c0,.16.28.16.28,0v-6.54c0-.08-.06-.14-.14-.14Z"/>
    </g>
    <g>
      <path class="cls-1" d="m30,52.52c-.29,0-.52-.23-.52-.52v-6.54c0-.29.23-.52.52-.52s.52.23.52.52v6.54c0,.29-.23.52-.52.52Z"/>
      <path class="cls-1" d="m30,52.89c-.49,0-.89-.4-.89-.89v-6.54c0-.49.4-.89.89-.89s.89.4.89.89v6.54c0,.49-.4.89-.89.89Zm0-7.57c-.08,0-.14.06-.14.14v6.54c0,.16.28.16.28,0v-6.54c0-.08-.06-.14-.14-.14Z"/>
    </g>
  </g>
  <g>
    <g>
      <path class="cls-1" d="m41,19.41c-.13,0-.26-.05-.37-.15-.2-.2-.2-.53,0-.73l4.62-4.62c.2-.2.53-.2.73,0,.2.2.2.53,0,.73l-4.62,4.62c-.1.1-.23.15-.37.15Z"/>
      <path class="cls-1" d="m41,19.79c-.24,0-.46-.09-.63-.26-.35-.35-.35-.91,0-1.26l4.63-4.62c.34-.33.92-.34,1.26,0,.35.35.35.91,0,1.26l-4.62,4.62c-.17.17-.39.26-.63.26Zm4.62-5.66s-.07.01-.1.04l-4.63,4.62c-.05.05-.05.14,0,.2.06.06.12.08.2,0l4.63-4.63c.06-.05.06-.14,0-.2-.03-.03-.06-.04-.1-.04Z"/>
    </g>
    <g>
      <path class="cls-1" d="m14.37,46.05c-.13,0-.26-.05-.37-.15-.2-.2-.2-.53,0-.73l4.62-4.62c.2-.2.53-.2.73,0,.2.2.2.53,0,.73l-4.62,4.62c-.1.1-.23.15-.37.15Z"/>
      <path class="cls-1" d="m14.37,46.42c-.24,0-.46-.09-.63-.26-.35-.35-.35-.91,0-1.26l4.62-4.62c.17-.17.39-.26.63-.26h0c.24,0,.46.09.63.26.17.17.26.39.26.63s-.09.46-.26.63l-4.62,4.62c-.17.17-.39.26-.63.26Zm4.62-5.66s-.06,0-.1.04l-4.62,4.62c-.06.05-.06.14,0,.2.06.06.12.08.2,0l4.62-4.63s.04-.08.04-.1,0-.06-.04-.1c-.04-.04-.09-.04-.1-.04Z"/>
    </g>
  </g>
  <g>
    <g>
      <path class="cls-1" d="m52.1,30.42h-6.54c-.29,0-.52-.23-.52-.52s.23-.52.52-.52h6.54c.29,0,.52.23.52.52s-.23.52-.52.52Z"/>
      <path class="cls-1" d="m52.1,30.79h-6.54c-.49,0-.89-.4-.89-.89s.4-.89.89-.89h6.54c.49,0,.89.4.89.89s-.4.89-.89.89Zm-6.54-1.03c-.08,0-.14.06-.14.14s.06.14.14.14h6.54c.08,0,.14-.06.14-.14s-.06-.14-.14-.14h-6.54Z"/>
    </g>
    <g>
      <path class="cls-1" d="m14.44,30.42h-6.54c-.29,0-.52-.23-.52-.52s.23-.52.52-.52h6.54c.29,0,.52.23.52.52s-.23.52-.52.52Z"/>
      <path class="cls-1" d="m14.44,30.79h-6.54c-.49,0-.89-.4-.89-.89s.4-.89.89-.89h6.54c.49,0,.89.4.89.89s-.4.89-.89.89Zm-6.54-1.03c-.08,0-.14.06-.14.14s.06.14.14.14h6.54c.08,0,.14-.06.14-.14s-.06-.14-.14-.14h-6.54Z"/>
    </g>
  </g>
  <g>
    <g>
      <path class="cls-1" d="m45.63,46.05c-.13,0-.26-.05-.37-.15l-4.62-4.62c-.2-.2-.2-.53,0-.73.2-.2.53-.2.73,0l4.62,4.62c.2.2.2.53,0,.73-.1.1-.23.15-.37.15Z"/>
      <path class="cls-1" d="m45.63,46.42c-.24,0-.46-.09-.63-.26l-4.62-4.62c-.17-.17-.26-.39-.26-.63s.09-.46.26-.63c.34-.33.92-.34,1.26,0l4.62,4.62c.35.35.35.91,0,1.26-.17.17-.39.26-.63.26Zm-4.62-5.66s-.07.01-.1.04c-.06.05-.06.14,0,.2l4.62,4.62c.08.08.14.06.2,0,.06-.05.06-.14,0-.2l-4.62-4.62s-.06-.04-.1-.04Z"/>
    </g>
    <g>
      <path class="cls-1" d="m19,19.41c-.13,0-.26-.05-.37-.15l-4.62-4.62c-.2-.2-.2-.53,0-.73.2-.2.53-.2.73,0l4.62,4.62c.2.2.2.53,0,.73-.1.1-.23.15-.37.15Z"/>
      <path class="cls-1" d="m19,19.79c-.24,0-.46-.09-.63-.26l-4.62-4.62c-.35-.35-.35-.91,0-1.26.34-.34.93-.33,1.26,0l4.62,4.62c.17.17.26.39.26.63,0,.24-.09.46-.26.63-.17.17-.39.26-.63.26Zm-4.62-5.66s-.07.01-.1.04c-.06.05-.06.14,0,.2l4.62,4.62c.08.08.14.06.2,0,.04-.04.04-.08.04-.1s0-.06-.04-.1l-4.62-4.62s-.06-.04-.1-.04Z"/>
    </g>
  </g>
</svg>