<?xml version="1.0" encoding="UTF-8"?>
<svg id="Layer_1" data-name="Layer 1" xmlns="http://www.w3.org/2000/svg" viewBox="0 0 60 60">
  <defs>
    <style>
      .cls-1 {
        fill: #37464c;
        stroke-width: 0px;
      }
    </style>
  </defs>
  <g>
    <path class="cls-1" d="m31.67,45.1c-9.99,0-18.12-8.62-18.12-19.21,0-.43.15-1.24.3-2.02.09-.48.17-.92.2-1.17l1.14.11c-.03.27-.11.75-.21,1.27-.12.66-.28,1.48-.28,1.81,0,9.96,7.62,18.06,16.98,18.06s16.98-8.1,16.98-18.06c0-.33-.15-1.15-.28-1.81-.1-.52-.19-1.01-.21-1.27l1.14-.11c.02.25.11.69.2,1.17.15.78.3,1.59.3,2.02,0,10.59-8.13,19.21-18.12,19.21Z"/>
    <path class="cls-1" d="m31.67,45.6c-10.27,0-18.62-8.84-18.62-19.71,0-.48.15-1.27.31-2.11.09-.47.17-.89.19-1.13l.05-.5,2.14.2-.05.5c-.03.28-.12.78-.22,1.32-.11.57-.27,1.44-.27,1.72,0,9.69,7.39,17.56,16.48,17.56s16.48-7.88,16.48-17.56c0-.28-.16-1.15-.27-1.72-.1-.54-.19-1.04-.22-1.32l-.04-.5,2.13-.2.05.5c.02.23.1.62.18,1.06.19.99.32,1.73.32,2.18,0,10.87-8.35,19.71-18.62,19.71ZM14.47,23.23c-.04.21-.08.45-.13.7-.14.74-.29,1.56-.29,1.95,0,10.32,7.91,18.71,17.62,18.71s17.62-8.39,17.62-18.71c0-.4-.16-1.25-.29-1.93-.05-.27-.1-.51-.13-.72h-.15c.04.23.08.48.13.75.16.87.29,1.56.29,1.9,0,10.24-7.84,18.56-17.48,18.56s-17.48-8.33-17.48-18.56c0-.35.12-1.04.29-1.9.05-.26.1-.51.13-.73h-.15Z"/>
  </g>
  <g>
    <path class="cls-1" d="m14.04,23.87v-11.94c0-2.67,1.8-5.04,4.37-5.76,8.67-2.44,17.87-2.55,26.6-.33,2.53.64,4.29,2.91,4.29,5.52v12.51l-.91-.65c-3.27-2.35-6.77-3.96-10.4-4.76l.25-1.12c3.45.77,6.78,2.22,9.92,4.32v-10.29c0-2.08-1.41-3.9-3.43-4.41-8.54-2.17-17.53-2.06-26.01.32-2.08.58-3.53,2.5-3.53,4.66v9.74c1.59-1,5.13-2.97,9.89-4.13l.27,1.11c-6.18,1.5-10.36,4.52-10.4,4.55l-.91.67Z"/>
    <path class="cls-1" d="m13.54,24.86v-12.93c0-2.89,1.95-5.46,4.73-6.25,8.75-2.46,18.04-2.58,26.86-.33,2.75.7,4.67,3.17,4.67,6.01v13.48l-1.7-1.22c-3.21-2.31-6.65-3.89-10.22-4.68l-.49-.11.47-2.1.49.11c3.22.72,6.35,2.02,9.31,3.89v-9.37c0-1.85-1.25-3.47-3.05-3.93-8.45-2.15-17.36-2.04-25.75.32-1.86.52-3.17,2.24-3.17,4.18v8.86c1.89-1.11,5.13-2.72,9.28-3.73l.49-.12.51,2.09-.49.12c-6.01,1.46-10.06,4.34-10.22,4.47l-1.7,1.24ZM32.33,4.75c-4.64,0-9.29.63-13.78,1.9-2.36.66-4,2.83-4,5.28v10.96l.12-.08c.17-.13,4.16-2.97,10.09-4.51l-.04-.14c-4.4,1.14-7.67,2.95-9.26,3.95l-.77.48v-10.65c0-2.38,1.6-4.5,3.9-5.14,8.56-2.41,17.64-2.52,26.27-.33,2.24.57,3.81,2.58,3.81,4.9v11.23l-.78-.52c-2.93-1.97-6.05-3.36-9.26-4.14l-.03.14c3.53.85,6.92,2.45,10.1,4.73l.12.08v-11.53c0-2.38-1.61-4.45-3.92-5.04-4.12-1.05-8.34-1.57-12.56-1.57Z"/>
  </g>
  <g>
    <path class="cls-1" d="m31.67,24.26c-3.87,0-7.02-3.15-7.02-7.02s3.15-7.02,7.02-7.02,7.02,3.15,7.02,7.02-3.15,7.02-7.02,7.02Zm0-12.89c-3.24,0-5.87,2.63-5.87,5.87s2.63,5.87,5.87,5.87,5.87-2.63,5.87-5.87-2.63-5.87-5.87-5.87Z"/>
    <path class="cls-1" d="m31.67,24.76c-4.15,0-7.52-3.37-7.52-7.52s3.37-7.52,7.52-7.52,7.52,3.37,7.52,7.52-3.37,7.52-7.52,7.52Zm0-14.03c-3.59,0-6.52,2.92-6.52,6.52s2.92,6.52,6.52,6.52,6.52-2.92,6.52-6.52-2.92-6.52-6.52-6.52Zm0,12.89c-3.51,0-6.37-2.86-6.37-6.37s2.86-6.37,6.37-6.37,6.37,2.86,6.37,6.37-2.86,6.37-6.37,6.37Zm0-11.74c-2.96,0-5.37,2.41-5.37,5.37s2.41,5.37,5.37,5.37,5.37-2.41,5.37-5.37-2.41-5.37-5.37-5.37Z"/>
  </g>
  <g>
    <path class="cls-1" d="m45.74,36.81l-4.51-4.61c-.87-.89-2.08-1.4-3.33-1.4h-12.47c-1.24,0-2.46.51-3.33,1.4l-4.51,4.61-.82-.8,4.51-4.61c1.08-1.11,2.6-1.74,4.14-1.74h12.47c1.55,0,3.06.64,4.15,1.74l4.51,4.61-.82.8Z"/>
    <path class="cls-1" d="m17.61,37.52l-1.53-1.5,4.86-4.97c1.18-1.2,2.82-1.89,4.5-1.89h12.47c1.68,0,3.33.69,4.5,1.89l4.86,4.97-1.53,1.5-4.86-4.97c-.78-.79-1.86-1.25-2.97-1.25h-12.47c-1.11,0-2.19.45-2.97,1.25l-4.86,4.97Zm7.83-7.21h12.47c1.38,0,2.72.56,3.68,1.55l4.16,4.25.1-.1-4.16-4.25c-.99-1.01-2.37-1.59-3.79-1.59h-12.47c-1.42,0-2.8.58-3.79,1.59l-4.16,4.25.1.1,4.16-4.25c.96-.98,2.31-1.55,3.68-1.55Z"/>
  </g>
  <g>
    <path class="cls-1" d="m11.85,57h-1.15v-5.29c0-1.65.64-3.21,1.81-4.38l5.47-5.47.81.81-5.47,5.47c-.95.95-1.48,2.22-1.48,3.57v5.29Z"/>
    <path class="cls-1" d="m12.35,57.5h-2.15v-5.79c0-1.79.7-3.47,1.96-4.73l5.82-5.82,1.52,1.52-5.83,5.82c-.86.86-1.33,2-1.33,3.21v5.79Zm-1.15-1h.15v-4.79c0-1.48.58-2.87,1.62-3.92l5.12-5.12-.1-.1-5.12,5.12c-1.07,1.07-1.67,2.5-1.67,4.02v4.79Z"/>
  </g>
  <g>
    <path class="cls-1" d="m52.64,57h-1.15v-5.29c0-1.35-.52-2.61-1.48-3.57l-5.47-5.47.81-.81,5.47,5.47c1.17,1.17,1.81,2.72,1.81,4.38v5.29Z"/>
    <path class="cls-1" d="m53.14,57.5h-2.15v-5.79c0-1.21-.47-2.35-1.33-3.21l-5.82-5.82,1.52-1.52,5.83,5.83c1.26,1.26,1.96,2.94,1.96,4.73v5.79Zm-1.15-1h.15v-4.79c0-1.52-.59-2.95-1.67-4.02l-5.12-5.12-.1.1,5.12,5.12c1.05,1.05,1.62,2.44,1.62,3.92v4.79Z"/>
  </g>
  <g>
    <path class="cls-1" d="m25.36,26.68h-.27c-.32,0-.57-.26-.57-.57s.26-.57.57-.57h.27c.32,0,.57.26.57.57s-.26.57-.57.57Z"/>
    <path class="cls-1" d="m25.36,27.18h-.27c-.59,0-1.07-.48-1.07-1.07s.48-1.07,1.07-1.07h.27c.59,0,1.07.48,1.07,1.07s-.48,1.07-1.07,1.07Zm-.27-1.15s-.07.03-.07.07.03.07.07.07h.27s.07-.03.07-.07-.03-.07-.07-.07h-.27Z"/>
  </g>
  <g>
    <path class="cls-1" d="m38.25,26.68h-.27c-.32,0-.57-.26-.57-.57s.26-.57.57-.57h.27c.32,0,.57.26.57.57s-.26.57-.57.57Z"/>
    <path class="cls-1" d="m38.25,27.18h-.27c-.59,0-1.07-.48-1.07-1.07s.48-1.07,1.07-1.07h.27c.59,0,1.07.48,1.07,1.07s-.48,1.07-1.07,1.07Zm-.27-1.15s-.07.03-.07.07.03.07.07.07h.27s.07-.03.07-.07-.03-.07-.07-.07h-.27Z"/>
  </g>
</svg>