<?xml version="1.0" encoding="UTF-8"?>
<svg id="Layer_1" data-name="Layer 1" xmlns="http://www.w3.org/2000/svg" viewBox="0 0 60 60">
  <defs>
    <style>
      .cls-1 {
        fill: #37464c;
        stroke-width: 0px;
      }
    </style>
  </defs>
  <g>
    <polygon class="cls-1" points="39.26 47.41 8.98 17.13 9.82 16.29 39.26 45.73 45.9 39.08 16.46 9.65 17.3 8.8 47.58 39.08 39.26 47.41"/>
    <path class="cls-1" d="m39.26,48.12L8.27,17.13l1.55-1.55,29.44,29.44,5.94-5.94L15.75,9.65l1.55-1.55,30.99,30.99-9.03,9.03ZM9.68,17.13l29.57,29.57,7.62-7.62L17.3,9.51l-.13.13,29.44,29.44-7.35,7.35L9.82,17l-.13.13Z"/>
  </g>
  <g>
    <rect class="cls-1" x="5.29" y="12.79" width="16.53" height="1.19" transform="translate(-5.49 13.51) rotate(-45)"/>
    <path class="cls-1" d="m8.14,20.36l-1.55-1.55,12.4-12.4,1.55,1.55-12.4,12.4Zm-.13-1.55l.13.13,10.98-10.98-.13-.13-10.98,10.98Z"/>
  </g>
  <g>
    <path class="cls-1" d="m45.53,48.17l-5.52-3.21,5.12-5.13,3.21,5.52-2.82,2.81Zm-3.59-3.46l3.39,1.97,1.52-1.52-1.97-3.39-2.94,2.94Z"/>
    <path class="cls-1" d="m45.62,48.8l-6.41-3.73,6.04-6.04,3.73,6.41-3.36,3.36Zm-4.79-3.94l4.62,2.69,2.27-2.27-2.69-4.62-4.21,4.21Zm4.59,2.45l-4.29-2.49,3.86-3.86,2.49,4.28-2.06,2.06Zm-2.66-2.7l2.5,1.45.97-.98-1.45-2.5-2.02,2.02Z"/>
  </g>
  <g>
    <rect class="cls-1" x="50.39" y="43.9" width="1.19" height="13.82" transform="translate(-21 50.93) rotate(-45)"/>
    <path class="cls-1" d="m55.45,56.83l-10.48-10.48,1.55-1.55,10.48,10.48-1.55,1.55Zm-9.06-10.48l9.06,9.06.13-.13-9.06-9.06-.13.13Z"/>
  </g>
  <g>
    <rect class="cls-1" x="29.94" y="27.08" width="5.06" height="1.19" transform="translate(-10.06 31.07) rotate(-45)"/>
    <path class="cls-1" d="m31.1,30.59l-1.55-1.55,4.28-4.28,1.55,1.55-4.28,4.28Zm-.13-1.55l.13.13,2.87-2.87-.13-.13-2.87,2.87Z"/>
  </g>
  <g>
    <rect class="cls-1" x="34.05" y="31.19" width="5.06" height="1.19" transform="translate(-11.76 35.17) rotate(-45)"/>
    <path class="cls-1" d="m35.21,34.7l-1.55-1.55,4.28-4.28,1.55,1.55-4.28,4.28Zm-.13-1.55l.13.13,2.87-2.87-.13-.13-2.87,2.87Z"/>
  </g>
  <g>
    <rect class="cls-1" x="38.16" y="35.3" width="5.06" height="1.19" transform="translate(-13.46 39.29) rotate(-45)"/>
    <path class="cls-1" d="m39.32,38.81l-1.55-1.55,4.28-4.28,1.55,1.55-4.28,4.28Zm-.13-1.55l.13.13,2.87-2.87-.13-.13-2.87,2.87Z"/>
  </g>
  <g>
    <rect class="cls-1" x="10.56" y="6.99" width="1.19" height="7.99" transform="translate(-4.5 11.11) rotate(-45)"/>
    <path class="cls-1" d="m13.56,14.94l-6.35-6.35,1.55-1.55,6.35,6.35-1.55,1.55Zm-4.94-6.35l4.94,4.94.13-.13-4.94-4.94-.13.13Z"/>
  </g>
  <g>
    <rect class="cls-1" x="3.7" y="6.92" width="7.99" height="1.19" transform="translate(-3.06 7.64) rotate(-45)"/>
    <path class="cls-1" d="m5.29,11.47l-1.55-1.55,6.35-6.35,1.55,1.55-6.35,6.35Zm-.13-1.55l.13.13,4.94-4.94-.13-.13-4.94,4.94Z"/>
  </g>
</svg>