<?xml version="1.0" encoding="UTF-8"?>
<svg id="Layer_1" data-name="Layer 1" xmlns="http://www.w3.org/2000/svg" viewBox="0 0 60 60">
  <defs>
    <style>
      .cls-1 {
        fill: #37464c;
        stroke-width: 0px;
      }
    </style>
  </defs>
  <g>
    <g>
      <path class="cls-1" d="m43.27,28.73c-.07,0-.13-.01-.2-.03-.15-.05-.28-.16-.34-.31l-4.44-9.2c-.14-.3-.02-.66.28-.81l1.85-.89c.14-.07.31-.08.46-.03.15.05.28.16.34.31l4.44,9.2c.14.3.02.66-.28.81l-1.85.89c-.08.04-.17.06-.26.06Zm-3.64-9.53l3.92,8.12.76-.37-3.92-8.12-.76.37Z"/>
      <path class="cls-1" d="m43.27,28.86c-.08,0-.16-.01-.24-.04-.18-.06-.33-.2-.42-.37l-4.44-9.2c-.17-.36-.02-.8.34-.97l1.85-.89c.18-.08.37-.1.56-.03.18.06.33.2.42.37l4.44,9.2c.17.36.02.8-.34.97l-1.85.89c-.1.05-.21.07-.32.07Zm-2.59-11.31c-.07,0-.14.02-.21.05l-1.85.89c-.24.12-.34.4-.22.64l4.44,9.2c.06.12.15.2.27.24.12.04.25.03.37-.02l1.85-.89c.24-.12.34-.4.22-.64l-4.44-9.2c-.06-.12-.15-.2-.27-.24-.05-.02-.1-.03-.16-.03Zm2.82,9.94l-.05-.11-3.97-8.23.99-.48.05.11,3.97,8.23-.99.48Zm-3.69-8.23l3.81,7.89.54-.26-3.81-7.89-.54.26Z"/>
    </g>
    <g>
      <path class="cls-1" d="m43.72,24.6c-.07,0-.13-.01-.2-.03-.15-.05-.28-.16-.34-.31l-1.38-2.85c-.14-.3-.02-.66.28-.81l.79-.38c.14-.07.31-.08.46-.03.15.05.28.16.34.31l1.38,2.85c.14.3.02.66-.28.81l-.79.38c-.08.04-.17.06-.26.06Z"/>
      <path class="cls-1" d="m43.72,24.72c-.08,0-.16-.01-.24-.04-.18-.06-.33-.2-.42-.37l-1.38-2.85c-.17-.36-.02-.8.34-.97l.79-.38c.17-.08.37-.1.56-.03.18.06.33.2.42.37l1.38,2.85c.08.18.1.37.03.56-.06.18-.2.33-.37.42l-.79.38c-.1.05-.21.07-.32.07Zm-.58-4.44c-.07,0-.14.02-.21.05l-.79.38c-.24.12-.34.4-.22.64l1.38,2.85c.05.11.15.2.27.24.12.04.25.03.37-.02l.79-.38c.11-.06.2-.15.24-.27.04-.12.03-.25-.02-.37l-1.38-2.85c-.06-.12-.15-.2-.27-.24-.05-.02-.1-.03-.16-.03Z"/>
    </g>
  </g>
  <g>
    <path class="cls-1" d="m33.2,53.54c-2.09,0-4.33-.26-6.44-.5-1.15-.13-2.24-.26-3.25-.33-5.5-.42-10.58-2.64-14.31-6.26-3.85-3.74-5.97-8.74-5.97-14.08,0-11.22,9.12-20.34,20.33-20.34s20.33,9.13,20.33,20.34c0,.58,0,1.19,0,1.82.05,6.37.11,14.29-4.33,17.76-1.57,1.22-3.86,1.59-6.37,1.59ZM23.56,13.24c-10.55,0-19.13,8.58-19.13,19.13,0,5.01,1.99,9.71,5.61,13.21,3.53,3.42,8.34,5.53,13.56,5.92,1.03.08,2.13.2,3.29.34,4.44.51,9.46,1.08,11.94-.85,3.97-3.09,3.91-10.69,3.86-16.79,0-.63,0-1.24,0-1.83,0-10.55-8.58-19.13-19.13-19.13Z"/>
    <path class="cls-1" d="m33.2,53.92c-2.11,0-4.33-.25-6.48-.5-1.18-.13-2.25-.26-3.23-.33-5.59-.42-10.76-2.68-14.55-6.36-3.93-3.81-6.09-8.91-6.09-14.35,0-11.42,9.29-20.72,20.71-20.72s20.71,9.29,20.71,20.72c0,.58,0,1.19,0,1.82.05,6.45.11,14.48-4.47,18.05-1.44,1.13-3.6,1.67-6.6,1.67ZM23.56,12.41c-11,0-19.96,8.96-19.96,19.97,0,5.24,2.08,10.15,5.86,13.81,3.67,3.56,8.67,5.74,14.08,6.15,1,.08,2.08.2,3.22.33,2.17.25,4.38.5,6.44.5,2.83,0,4.84-.5,6.14-1.52,4.29-3.35,4.23-11.17,4.18-17.46,0-.63,0-1.24,0-1.82,0-11.01-8.95-19.97-19.96-19.97Zm9.66,40.31c-2.04,0-4.27-.25-6.36-.49-1.19-.14-2.27-.26-3.28-.34-5.31-.4-10.21-2.54-13.8-6.03-3.69-3.58-5.72-8.37-5.72-13.48,0-10.76,8.75-19.51,19.5-19.51s19.5,8.75,19.5,19.51c0,.57,0,1.16,0,1.77.05,6.24.11,13.94-4.01,17.15-1.39,1.08-3.5,1.42-5.85,1.42ZM23.56,13.61c-10.34,0-18.75,8.42-18.75,18.76,0,4.91,1.95,9.51,5.49,12.95,3.46,3.36,8.2,5.43,13.33,5.82,1.02.08,2.11.2,3.26.33,4.41.5,9.35,1.07,11.71-.77,3.82-2.98,3.76-10.47,3.72-16.5,0-.67,0-1.26,0-1.83,0-10.34-8.41-18.76-18.75-18.76Z"/>
  </g>
  <g>
    <path class="cls-1" d="m55.97,53.42c-.33,0-.6-.27-.6-.6v-4.68h-13.4c-.33,0-.6-.27-.6-.6s.27-.6.6-.6h14c.33,0,.6.27.6.6v5.29c0,.33-.27.6-.6.6Z"/>
    <path class="cls-1" d="m55.97,53.79c-.54,0-.98-.44-.98-.98v-4.31h-13.02c-.54,0-.98-.44-.98-.98s.44-.98.98-.98h14c.54,0,.98.44.98.98v5.29c0,.54-.44.98-.98.98Zm-14-6.49c-.13,0-.23.1-.23.23s.1.23.23.23h13.77v5.06c0,.25.46.25.46,0v-5.29c0-.13-.1-.23-.23-.23h-14Z"/>
  </g>
  <g>
    <path class="cls-1" d="m23.56,46.37c-7.71,0-13.99-6.28-13.99-14s6.28-14,13.99-14,13.99,6.28,13.99,14-6.28,14-13.99,14Zm0-26.79c-7.05,0-12.78,5.74-12.78,12.79s5.74,12.79,12.78,12.79,12.78-5.74,12.78-12.79-5.74-12.79-12.78-12.79Z"/>
    <path class="cls-1" d="m23.56,46.74c-7.92,0-14.37-6.45-14.37-14.37s6.44-14.37,14.37-14.37,14.37,6.45,14.37,14.37-6.44,14.37-14.37,14.37Zm0-27.99c-7.51,0-13.62,6.11-13.62,13.62s6.11,13.62,13.62,13.62,13.62-6.11,13.62-13.62-6.11-13.62-13.62-13.62Zm0,26.79c-7.26,0-13.16-5.91-13.16-13.17s5.9-13.17,13.16-13.17,13.16,5.91,13.16,13.17-5.9,13.17-13.16,13.17Zm0-25.58c-6.84,0-12.41,5.57-12.41,12.42s5.57,12.42,12.41,12.42,12.41-5.57,12.41-12.42-5.57-12.42-12.41-12.42Z"/>
  </g>
  <g>
    <g>
      <g>
        <path class="cls-1" d="m19.03,26.1v12.56h-.6v-12.01h-2.78v-.55h3.38Z"/>
        <polygon class="cls-1" points="19.4 39.04 18.05 39.04 18.05 27.02 15.27 27.02 15.27 25.73 19.4 25.73 19.4 39.04"/>
      </g>
      <g>
        <path class="cls-1" d="m19.33,38.96h-1.21v-12.01h-2.78v-1.15h3.98v13.17Zm-.6-.6h0v-11.96s0,11.96,0,11.96Z"/>
        <path class="cls-1" d="m19.7,39.34h-1.96v-12.01h-2.78v-1.9h4.73v13.92Zm-1.21-.75h.46v-.23h-.46v.23Zm-2.78-12.01h2.63v-.17h.6v-.23h-3.23v.4Z"/>
      </g>
    </g>
    <g>
      <g>
        <path class="cls-1" d="m26.84,38.85c-.72,0-1.37-.15-1.94-.45-.57-.3-1.06-.73-1.47-1.3-.4-.56-.71-1.24-.93-2.04-.21-.8-.32-1.7-.32-2.7s.11-1.89.32-2.7c.21-.8.52-1.48.93-2.03.4-.55.89-.98,1.47-1.29.57-.3,1.22-.45,1.94-.45s1.35.15,1.92.45c.57.3,1.06.73,1.47,1.29.4.55.71,1.23.93,2.03s.32,1.7.32,2.7-.11,1.89-.32,2.7c-.21.8-.52,1.48-.93,2.04-.4.56-.89.99-1.47,1.3-.57.3-1.22.45-1.92.45Zm0-.59c.62,0,1.17-.14,1.67-.41.5-.27.92-.66,1.28-1.17.35-.51.62-1.13.81-1.86.19-.73.28-1.55.28-2.47s-.09-1.72-.28-2.45c-.19-.73-.46-1.35-.8-1.86-.35-.51-.77-.9-1.27-1.17-.5-.27-1.06-.41-1.69-.41s-1.18.14-1.68.41c-.5.27-.93.66-1.28,1.17-.35.51-.61,1.13-.8,1.86-.19.73-.28,1.55-.28,2.45s.09,1.74.28,2.47c.19.73.46,1.35.8,1.86.35.51.77.9,1.28,1.17.5.27,1.06.41,1.68.41Z"/>
        <path class="cls-1" d="m26.84,39.23c-.78,0-1.49-.17-2.11-.5-.62-.33-1.16-.8-1.6-1.41-.43-.6-.76-1.33-.99-2.17-.22-.83-.33-1.77-.33-2.79s.11-1.96.33-2.79c.22-.84.56-1.57.99-2.16.44-.6.97-1.07,1.6-1.4,1.24-.65,2.95-.66,4.21,0,.62.33,1.16.8,1.6,1.4.43.59.76,1.32.99,2.16.22.83.33,1.77.33,2.79s-.11,1.96-.33,2.79c-.22.84-.56,1.57-.99,2.17-.44.61-.97,1.08-1.6,1.41-.63.33-1.33.5-2.1.5Zm0-12.37c-.55,0-1.06.12-1.5.36-.45.24-.83.59-1.14,1.05-.32.47-.57,1.06-.75,1.74-.18.69-.27,1.49-.27,2.36s.09,1.68.27,2.38c.18.68.43,1.27.75,1.74.31.46.69.81,1.14,1.05.89.48,2.12.48,3,0,.44-.24.83-.6,1.15-1.05.33-.47.58-1.06.76-1.74.18-.69.27-1.49.27-2.38s-.09-1.66-.27-2.36c-.18-.68-.43-1.27-.75-1.74-.31-.46-.69-.81-1.13-1.05-.44-.24-.95-.36-1.51-.36Z"/>
      </g>
      <g>
        <path class="cls-1" d="m26.84,39.15c-.77,0-1.47-.16-2.08-.49-.61-.32-1.14-.79-1.57-1.39-.42-.59-.75-1.31-.97-2.14-.22-.82-.33-1.76-.33-2.77s.11-1.95.33-2.77c.22-.83.55-1.55.97-2.13.43-.59.96-1.05,1.57-1.38.62-.32,1.32-.49,2.08-.49s1.45.16,2.06.49c.61.32,1.14.79,1.57,1.38.42.58.75,1.3.98,2.13.22.82.33,1.76.33,2.77s-.11,1.95-.33,2.77c-.22.83-.55,1.55-.97,2.14-.43.6-.96,1.06-1.57,1.39-.62.32-1.31.49-2.06.49Zm0-12.37c-.56,0-1.08.12-1.54.37-.46.25-.85.61-1.17,1.07-.33.48-.58,1.07-.76,1.76-.18.7-.27,1.5-.27,2.38s.09,1.7.27,2.39c.18.69.44,1.29.76,1.76.32.47.71.83,1.17,1.07.46.25.97.37,1.54.37s1.08-.12,1.53-.37c.45-.25.85-.61,1.17-1.08.33-.48.59-1.07.77-1.76.18-.7.27-1.51.27-2.39s-.09-1.67-.27-2.38c-.18-.69-.43-1.28-.76-1.76-.32-.47-.71-.83-1.16-1.07-.45-.24-.97-.37-1.55-.37Zm3.21,1.11c.36.54.65,1.19.84,1.95.19.75.29,1.6.29,2.53s-.1,1.8-.29,2.55c-.2.76-.48,1.42-.86,1.95-.11.16-.23.31-.35.44.11-.12.21-.25.31-.38.38-.53.68-1.18.88-1.94.21-.77.31-1.65.31-2.62s-.1-1.85-.31-2.62c-.19-.72-.47-1.35-.82-1.86Zm-6.39-.04c-.37.52-.65,1.16-.85,1.9-.21.77-.31,1.65-.31,2.62s.1,1.84.31,2.62c.1.37.22.71.36,1.03-.15-.34-.28-.71-.38-1.1-.19-.75-.29-1.6-.29-2.55s.1-1.78.29-2.53c.2-.76.48-1.42.85-1.95,0-.01.02-.02.02-.04Z"/>
        <path class="cls-1" d="m26.84,39.53c-.83,0-1.58-.18-2.26-.53-.66-.35-1.24-.85-1.7-1.5-.45-.63-.8-1.39-1.03-2.26-.23-.86-.34-1.82-.34-2.87s.12-2.01.35-2.87c.23-.88.58-1.64,1.03-2.26.46-.64,1.04-1.14,1.7-1.49,1.33-.7,3.14-.71,4.49,0,.66.35,1.24.85,1.7,1.49.45.62.8,1.38,1.03,2.26.23.86.34,1.82.34,2.87s-.12,2.01-.34,2.87c-.23.88-.58,1.64-1.03,2.26-.46.65-1.04,1.15-1.7,1.5-.67.35-1.42.53-2.24.53Zm-3.89-3.42c.16.35.34.67.54.95.4.55.88.98,1.44,1.27,1.11.59,2.66.6,3.79,0,.42-.22.79-.51,1.12-.87l-.34-.31c-.29.32-.61.58-.97.77-1.01.55-2.4.55-3.42,0-.51-.27-.95-.67-1.3-1.19-.17-.24-.31-.51-.45-.81l-.42.19Zm3.88-8.95c-.5,0-.96.11-1.36.33-.41.22-.75.54-1.04.95-.3.44-.54,1-.71,1.65-.17.67-.26,1.44-.26,2.28s.09,1.63.26,2.3c.17.65.41,1.21.71,1.65.28.42.63.74,1.04.95.8.43,1.92.43,2.71,0,.4-.22.75-.54,1.04-.96.31-.44.55-.99.71-1.64.17-.67.26-1.45.26-2.3s-.09-1.61-.26-2.28c-.17-.65-.41-1.2-.71-1.65-.28-.42-.63-.74-1.03-.96-.4-.21-.86-.32-1.37-.32Zm0-.75c.64,0,1.22.14,1.72.41.51.28.94.68,1.29,1.19,0,0,0,0,0,0l.38-.26s-.04-.05-.06-.08c-.4-.54-.88-.97-1.44-1.27-1.13-.59-2.68-.58-3.79,0-.56.29-1.05.72-1.44,1.26,0,.01-.02.02-.03.04l.38.26c.34-.5.77-.88,1.27-1.15.51-.28,1.09-.42,1.72-.42Z"/>
      </g>
    </g>
  </g>
</svg>