<?xml version="1.0" encoding="UTF-8"?>
<svg id="Layer_1" data-name="Layer 1" xmlns="http://www.w3.org/2000/svg" viewBox="0 0 60 60">
  <defs>
    <style>
      .cls-1 {
        fill: #37464c;
        stroke-width: 0px;
      }
    </style>
  </defs>
  <g>
    <path class="cls-1" d="m32.14,53.43c-12.41,0-22.51-10.1-22.51-22.51s10.1-22.51,22.51-22.51,22.51,10.1,22.51,22.51-10.1,22.51-22.51,22.51Zm0-44.03c-11.86,0-21.51,9.65-21.51,21.51s9.65,21.51,21.51,21.51,21.51-9.65,21.51-21.51-9.65-21.51-21.51-21.51Z"/>
    <path class="cls-1" d="m32.14,53.8c-12.62,0-22.89-10.27-22.89-22.89s10.27-22.89,22.89-22.89,22.89,10.27,22.89,22.89-10.27,22.89-22.89,22.89Zm0-45.03c-12.21,0-22.14,9.93-22.14,22.14s9.93,22.14,22.14,22.14,22.14-9.93,22.14-22.14-9.93-22.14-22.14-22.14Zm0,44.02c-12.07,0-21.89-9.82-21.89-21.88s9.82-21.89,21.89-21.89,21.89,9.82,21.89,21.89-9.82,21.88-21.89,21.88Zm0-43.02c-11.65,0-21.14,9.48-21.14,21.14s9.48,21.13,21.14,21.13,21.14-9.48,21.14-21.13-9.48-21.14-21.14-21.14Z"/>
  </g>
  <g>
    <path class="cls-1" d="m14.31,44.31c-.21,0-.4-.13-.47-.33-.09-.26.04-.55.3-.64.01,0,1.06-.38,2.62-1.08.18-.08.37-.17.56-.26,2.68-1.25,6.51-3.31,9.56-6.09,3.56-3.24,5.16-6.63,4.77-10.09-1.03-8.99-10.39-9.04-14.38-9.06-.94,0-1.37-.01-1.64-.1-.26-.09-.4-.37-.32-.64.09-.26.37-.4.63-.32.14.04.77.05,1.33.05,3.9.02,14.25.07,15.38,9.95.43,3.79-1.28,7.47-5.09,10.94-3.14,2.86-7.07,4.98-9.81,6.25-.2.09-.39.18-.57.26-1.6.72-2.65,1.1-2.7,1.11-.06.02-.11.03-.17.03Z"/>
    <path class="cls-1" d="m14.31,44.69c-.37,0-.7-.23-.83-.58-.08-.22-.07-.46.03-.67.1-.21.28-.37.5-.45.11-.04,1.11-.4,2.59-1.07l.56-.25c2.66-1.24,6.45-3.28,9.46-6.02,3.46-3.15,5.03-6.44,4.65-9.77-.99-8.66-10.12-8.71-14.01-8.73-1.01,0-1.43-.01-1.76-.12-.46-.16-.71-.65-.55-1.11.15-.46.65-.71,1.11-.55.12.02.83.03,1.21.03,3.99.02,14.58.07,15.75,10.28.45,3.92-1.3,7.71-5.21,11.26-3.17,2.89-7.14,5.03-9.9,6.32l-.58.26c-1.62.73-2.68,1.11-2.73,1.12-.1.03-.19.05-.29.05Zm1.47-28.62c-.06,0-.1.03-.12.08-.02.07.01.14.08.16.21.07.67.08,1.52.08,4.1.02,13.69.07,14.75,9.39.41,3.58-1.24,7.08-4.89,10.41-3.08,2.8-6.95,4.89-9.65,6.15l-.56.26c-1.5.68-2.54,1.05-2.65,1.09-.06.02-.1.11-.08.16.03.08.1.1.16.08.04-.02,1.08-.38,2.67-1.1l.57-.26c2.72-1.26,6.61-3.37,9.71-6.19,3.72-3.38,5.39-6.96,4.97-10.62-1.09-9.55-11.2-9.6-15.01-9.62-.91,0-1.26-.02-1.43-.07-.02,0-.03,0-.05,0Z"/>
  </g>
  <g>
    <path class="cls-1" d="m52.68,39.34c-.11,0-.23-.04-.32-.12-7.57-6.26-7.84-8.36-8.39-12.55-.04-.27-.07-.55-.11-.83-.28-2.01.59-4.05,2.51-5.92,1.56-1.52,3.25-2.39,3.33-2.43.25-.13.55-.03.68.22.13.25.03.55-.22.68-.02,0-1.64.85-3.08,2.25-1.71,1.66-2.45,3.36-2.22,5.06.04.29.08.57.11.84.53,4.05.78,5.9,8.04,11.91.21.18.24.49.07.71-.1.12-.24.18-.39.18Z"/>
    <path class="cls-1" d="m52.68,39.71c-.2,0-.4-.07-.56-.2-7.68-6.35-7.96-8.5-8.52-12.79l-.11-.83c-.29-2.13.61-4.29,2.62-6.24,1.62-1.57,3.35-2.46,3.42-2.49.21-.11.44-.12.67-.05.22.07.41.23.51.44.11.21.13.45.05.67-.07.22-.23.41-.44.51-.16.09-1.65.89-2.99,2.19-1.62,1.57-2.32,3.17-2.11,4.74l.1.78c.53,4.02.77,5.82,7.91,11.74.37.31.43.86.12,1.24-.17.2-.41.32-.68.32Zm-2.76-21.9s-.04,0-.06.01c-.02,0-1.7.87-3.24,2.36-1.83,1.78-2.66,3.72-2.4,5.6l.11.83c.54,4.09.81,6.15,8.26,12.31l.08.03s.07-.02.1-.05c.04-.05.03-.14-.02-.18-7.37-6.1-7.62-8-8.17-12.15l-.11-.84c-.25-1.83.53-3.64,2.33-5.38,1.41-1.37,2.99-2.22,3.17-2.31.06-.03.09-.12.06-.17-.02-.04-.06-.06-.07-.06-.01,0-.02,0-.04,0Z"/>
  </g>
</svg>