<?xml version="1.0" encoding="UTF-8"?>
<svg id="Layer_1" data-name="Layer 1" xmlns="http://www.w3.org/2000/svg" viewBox="0 0 60 60">
  <defs>
    <style>
      .cls-1 {
        fill: #37464c;
        stroke-width: 0px;
      }
    </style>
  </defs>
  <g>
    <path class="cls-1" d="m36.89,31.87h-10.89c-1.65,0-3-1.35-3-3v-12c0-.19.05-.37.15-.52l3.11-5.05c.49-.79.74-1.69.74-2.62v-3.8c0-.55.45-1,1-1h1c2.21,0,4,1.79,4,4v6h6.89c1.52,0,2.83,1.08,3.07,2.5.14.88-.1,1.77-.67,2.44-.02.02-.03.04-.05.06l.05.06c.57.67.82,1.56.67,2.44-.14.84-.65,1.56-1.36,2.01.34.6.47,1.3.36,1.99-.19,1.14-1.06,2.05-2.18,2.38.21.51.27,1.07.18,1.62-.23,1.43-1.55,2.5-3.07,2.5Zm-11.89-14.72v11.72c0,.55.45,1,1,1h10.89c.54,0,1.02-.36,1.09-.82.05-.3-.03-.6-.22-.82-.19-.22-.47-.35-.76-.35h-.5c-.55,0-1-.45-1-1s.45-1,1-1h2.39c.54,0,1.02-.36,1.09-.82.05-.3-.03-.6-.22-.82-.19-.22-.47-.35-.76-.35h-1.5c-.55,0-1-.45-1-1s.45-1,1-1h2.39c.54,0,1.02-.36,1.09-.82.05-.3-.03-.6-.22-.82-.19-.22-.47-.35-.76-.35h-2c-.55,0-1-.45-1-1s.45-1,1-1h2c.29,0,.57-.13.76-.35.19-.23.27-.52.22-.82-.08-.46-.56-.82-1.09-.82h-7.39c-.83,0-1.5-.67-1.5-1.5v-6.5c0-1.1-.9-2-2-2v2.8c0,1.3-.36,2.57-1.04,3.67l-2.96,4.81Z"/>
    <path class="cls-1" d="m22.3,31.87h-2.61c-1.49,0-2.7-1.21-2.7-2.7v-12.61c0-1.49,1.21-2.7,2.7-2.7h2.61c1.49,0,2.7,1.21,2.7,2.7v12.61c0,1.49-1.21,2.7-2.7,2.7Zm-2.61-16c-.38,0-.7.31-.7.7v12.61c0,.38.31.7.7.7h2.61c.38,0,.7-.31.7-.7v-12.61c0-.38-.31-.7-.7-.7h-2.61Z"/>
  </g>
  <path class="cls-1" d="m34.24,55.87c-.41,0-.81-.1-1.19-.31l-3.76-2.09c-.18-.1-.4-.1-.58,0t0,0l-3.76,2.09c-.82.46-1.82.41-2.59-.14-.78-.54-1.16-1.46-1.01-2.4l.76-4.67c.03-.19-.03-.38-.16-.52l-3.25-3.34c-.64-.66-.86-1.62-.57-2.49.29-.87,1.04-1.5,1.95-1.64l4.34-.67c.2-.03.37-.16.45-.34l1.91-4.08c.41-.87,1.25-1.41,2.21-1.41s1.81.54,2.21,1.41l1.91,4.08c.08.18.25.31.45.34l4.35.67c.91.14,1.66.77,1.95,1.64s.08,1.83-.57,2.49l-3.25,3.35c-.13.14-.19.33-.16.51l.76,4.67c.15.94-.24,1.86-1.01,2.4-.42.3-.91.45-1.4.45Zm-5.24-20c-.11,0-.3.03-.4.26l-1.91,4.08c-.37.79-1.1,1.34-1.96,1.47l-4.35.67c-.24.04-.33.21-.36.3-.03.08-.07.28.1.46l3.25,3.34c.57.59.83,1.42.7,2.23l-.76,4.67c-.04.25.12.4.19.44.08.06.26.14.47.02l3.76-2.09c.79-.44,1.73-.44,2.53,0l3.76,2.09c.21.12.38.03.46-.02.07-.05.23-.19.19-.44l-.76-4.67c-.13-.81.13-1.64.7-2.23l3.25-3.35c.17-.17.14-.36.1-.46-.03-.1-.12-.27-.36-.3l-4.35-.67c-.86-.13-1.59-.68-1.96-1.47l-1.91-4.08c-.1-.22-.29-.26-.4-.26Z"/>
  <path class="cls-1" d="m50.67,45.87c-.33,0-.67-.08-.98-.26l-2.63-1.46s-.08-.02-.12,0h0l-2.63,1.46c-.68.38-1.49.33-2.13-.11-.64-.45-.96-1.2-.83-1.98l.53-3.27s0-.08-.03-.1l-2.27-2.34c-.53-.54-.71-1.33-.47-2.05s.86-1.24,1.61-1.35l3.04-.47s.07-.03.09-.07l1.33-2.85c.33-.72,1.03-1.16,1.82-1.16h0c.79,0,1.49.44,1.82,1.16l1.33,2.85s.05.06.09.07l3.05.47c.75.11,1.36.63,1.61,1.35s.06,1.5-.47,2.05l-2.28,2.34s-.04.07-.03.1l.53,3.27c.12.77-.19,1.53-.83,1.97-.35.24-.75.37-1.15.37Zm-3.67-3.74c.35,0,.71.09,1.03.27l2.63,1.46-.52-3.29c-.11-.66.11-1.34.57-1.82l2.28-2.34-3.05-.49c-.7-.11-1.3-.55-1.6-1.2l-1.33-2.85-1.35,2.85c-.3.64-.9,1.09-1.6,1.2l-3.04.47,2.26,2.37c.47.48.68,1.16.57,1.82l-.53,3.26,2.65-1.44c.32-.18.68-.27,1.03-.27Z"/>
  <path class="cls-1" d="m14.67,45.87c-.33,0-.67-.08-.98-.26l-2.63-1.46s-.08-.02-.12,0h0l-2.63,1.46c-.68.38-1.49.33-2.13-.11-.64-.45-.96-1.2-.83-1.98l.53-3.27s0-.08-.03-.1l-2.27-2.34c-.53-.54-.71-1.33-.47-2.05s.86-1.24,1.61-1.35l3.04-.47s.07-.03.09-.07l1.33-2.85c.33-.72,1.03-1.16,1.82-1.16h0c.79,0,1.49.44,1.82,1.16l1.33,2.85s.05.06.09.07l3.05.47c.75.11,1.36.63,1.61,1.35s.06,1.5-.47,2.05l-2.28,2.34s-.04.07-.03.1l.53,3.27c.12.77-.19,1.53-.83,1.97-.35.24-.75.37-1.15.37Zm-3.67-3.74c.35,0,.71.09,1.03.27l2.63,1.46-.52-3.29c-.11-.66.11-1.34.57-1.82l2.28-2.34-3.05-.49c-.7-.11-1.3-.55-1.6-1.2l-1.33-2.85-1.35,2.85c-.3.64-.9,1.09-1.6,1.2l-3.04.47,2.26,2.37c.47.48.68,1.16.57,1.82l-.53,3.26,2.65-1.44c.32-.18.68-.27,1.03-.27Z"/>
</svg>