<?xml version="1.0" encoding="UTF-8"?>
<svg id="Layer_1" data-name="Layer 1" xmlns="http://www.w3.org/2000/svg" viewBox="0 0 60 60">
  <defs>
    <style>
      .cls-1 {
        fill: #37464c;
        stroke-width: 0px;
      }
    </style>
  </defs>
  <path class="cls-1" d="m26,19.02H6c-2.21,0-4-1.79-4-4s1.79-4,4-4h20c2.21,0,4,1.79,4,4s-1.79,4-4,4ZM6,13.02c-1.1,0-2,.9-2,2s.9,2,2,2h20c1.1,0,2-.9,2-2s-.9-2-2-2H6Z"/>
  <path class="cls-1" d="m26,51.02H6c-2.21,0-4-1.79-4-4s1.79-4,4-4h20c2.21,0,4,1.79,4,4s-1.79,4-4,4Zm-20-6c-1.1,0-2,.9-2,2s.9,2,2,2h20c1.1,0,2-.9,2-2s-.9-2-2-2H6Z"/>
  <path class="cls-1" d="m27,44.02h-2v-2c0-4.26-3.03-7.97-7.2-8.82-.47-.09-.8-.5-.8-.98v-2.4c0-.48.33-.89.8-.98,4.17-.85,7.2-4.56,7.2-8.82v-2h2v2c0,4.93-3.32,9.26-8,10.58v.83c4.68,1.33,8,5.65,8,10.58v2Z"/>
  <path class="cls-1" d="m7,44.02h-2v-2c0-4.93,3.32-9.26,8-10.58v-.83c-4.68-1.32-8-5.65-8-10.58v-2h2v2c0,4.26,3.03,7.97,7.2,8.82.47.09.8.5.8.98v2.4c0,.48-.33.89-.8.98-4.17.85-7.2,4.56-7.2,8.82v2Z"/>
  <path class="cls-1" d="m38,51.02c-1.73,0-3.5-.24-5.26-.72-.53-.15-.85-.69-.7-1.23s.7-.85,1.23-.7c1.59.43,3.18.65,4.74.65,9.92,0,18-8.08,18-18s-8.08-18-18-18c-1.56,0-3.15.22-4.74.65-.53.15-1.08-.17-1.23-.7-.15-.53.17-1.08.7-1.23,1.76-.48,3.53-.72,5.26-.72,11.03,0,20,8.97,20,20s-8.97,20-20,20Z"/>
  <path class="cls-1" d="m36.31,42.62c-.69,0-1.3-.51-1.44-1.18l-.54-2.51-1.61-.93-2.45.8c-.63.22-1.38-.06-1.72-.65l-1.52-2.64c-.34-.59-.21-1.38.3-1.83l1.91-1.72v-1.86s-1.92-1.73-1.92-1.73c-.5-.44-.64-1.23-.29-1.82l1.52-2.63c.34-.6,1.09-.88,1.74-.65l2.44.79,1.61-.93.54-2.52c.13-.66.74-1.16,1.43-1.16h3.03s0,0,0,0c.68,0,1.3.51,1.43,1.18l.54,2.51,1.61.93,2.45-.8c.64-.22,1.38.06,1.73.66l1.52,2.63c.34.59.21,1.38-.3,1.83l-1.92,1.73v1.86s1.92,1.73,1.92,1.73c.5.44.64,1.23.29,1.82l-1.52,2.63c-.34.59-1.08.88-1.74.65l-2.45-.8-1.61.93-.54,2.53c-.13.66-.74,1.17-1.43,1.17h-3.03Zm2.51-1.59s0,.02,0,.02v-.02Zm-1.99-.02v.02s0-.01,0-.02Zm-4.1-5.03c.37,0,.75.11,1.04.31l1.61.92c.41.19.8.69.9,1.21l.47,2.19h2.16s.47-2.21.47-2.21c.1-.51.49-1.01.98-1.24l1.6-.93c.36-.26,1-.35,1.5-.18l2.13.69,1.08-1.88-1.67-1.51c-.39-.34-.63-.93-.58-1.47v-1.85c-.05-.45.19-1.04.59-1.39l1.67-1.5-1.08-1.88-2.14.7c-.49.17-1.12.08-1.56-.23l-1.61-.92c-.41-.19-.8-.69-.9-1.21l-.47-2.19h-2.16s-.47,2.21-.47,2.21c-.1.51-.5,1.01-.98,1.24l-1.6.93c-.37.26-1,.35-1.5.18l-2.13-.69-1.08,1.87,1.67,1.51c.39.34.63.94.58,1.47v1.85c.05.44-.19,1.04-.59,1.39l-1.67,1.5,1.08,1.88,2.14-.7c.17-.05.34-.08.53-.08Zm1.64,2.96s.04.03.08.04l-.08-.04Zm6.92,0h-.01s0,0,.01,0Zm-6.98-.11s0,.02,0,.03v-.03Zm7.02-.02v.03s0-.02,0-.03Zm-8.64-.84s0,0,.01,0h-.01Zm10.34-.05l-.08.04s.05-.02.08-.04Zm-.2.04s.02,0,.02,0h-.02Zm-10,0h-.02s.01,0,.02,0Zm12.54-.83s0,0,0,0h0Zm-15.71-.24s-.01,0-.02,0h.02Zm16.32,0h.01s0,0-.01,0Zm1.01-1.72s.01,0,.02.01h-.02Zm-18.32,0h-.01s0,0,.01,0Zm.58-3.17s0,.05,0,.09v-.09Zm17.17-.01v.02s0-.01,0-.02Zm-.09-.1l.03.03s-.02-.02-.03-.03Zm-17,.01s-.01.01-.02.02l.02-.02Zm-.02-1.74s.02.01.02.02l-.02-.02Zm17.05,0l-.02.02s.01-.01.02-.02Zm-17.11-.09s0,.01,0,.02v-.02Zm17.17-.08v.09s0-.05,0-.09Zm-17.76-3.1h.01s0,0-.01,0Zm1-1.71s.01,0,.02,0h-.02Zm16.36,0h-.02s.01,0,.02,0Zm-13.31-1.08s-.05.02-.08.04l.08-.04Zm10.14,0s-.02,0-.03,0h.03Zm-10.04,0h.02s-.02,0-.02,0Zm10.15-.01h.01s0,0-.01,0Zm-8.62-.86s0,.02,0,.03v-.03Zm7.01,0v.03s0-.02,0-.03Zm-6.96-.09s0,0-.01,0h.01Zm6.83-.04l.08.05s-.04-.03-.08-.05Zm-1.86-1.63h0,0Zm-.52-.42s0,.01,0,.02v-.02Zm-1.98-.02v.02s0-.01,0-.02Zm.99,14.91c-.5,0-1.01-.08-1.48-.23-.61-.2-1.17-.51-1.67-.92-.5-.42-.9-.92-1.19-1.49-.29-.56-.47-1.2-.53-1.84-.05-.63.02-1.29.21-1.89.2-.61.51-1.17.92-1.67.42-.5.92-.9,1.49-1.19.56-.29,1.2-.47,1.83-.53.63-.05,1.29.02,1.9.21.61.19,1.22.61,1.28.65.22.15.53.41.71.6.06.06.57.59.86,1.16.29.56.47,1.2.53,1.83h0c.05.63-.02,1.29-.21,1.89-.2.61-.51,1.17-.92,1.67-.42.5-.92.9-1.49,1.19-.56.29-1.2.47-1.83.53-.14.01-.27.02-.41.02Zm0-7.77c-.08,0-.16,0-.24.01-.38.03-.75.14-1.08.31-.33.17-.63.41-.88.71-.25.29-.43.62-.55.98-.11.35-.16.74-.12,1.12.03.38.14.75.31,1.08.17.34.41.63.7.88.29.25.62.43.98.54.36.12.74.16,1.12.12.38-.03.75-.14,1.08-.31.34-.17.63-.41.88-.7.25-.29.43-.62.55-.99.11-.35.16-.74.12-1.12-.03-.38-.14-.75-.31-1.08-.12-.24-.4-.56-.52-.68-.09-.1-.3-.27-.41-.35-.16-.11-.51-.32-.75-.39-.28-.09-.58-.14-.88-.14Z"/>
</svg>