<?xml version="1.0" encoding="UTF-8"?>
<svg id="Layer_1" data-name="Layer 1" xmlns="http://www.w3.org/2000/svg" viewBox="0 0 60 60">
  <defs>
    <style>
      .cls-1 {
        fill: #37464c;
        stroke-width: 0px;
      }
    </style>
  </defs>
  <path class="cls-1" d="m26,17.88H6c-2.21,0-4-1.79-4-4s1.79-4,4-4h20c2.21,0,4,1.79,4,4s-1.79,4-4,4ZM6,11.88c-1.1,0-2,.9-2,2s.9,2,2,2h20c1.1,0,2-.9,2-2s-.9-2-2-2H6Z"/>
  <path class="cls-1" d="m26,49.88H6c-2.21,0-4-1.79-4-4s1.79-4,4-4h20c2.21,0,4,1.79,4,4s-1.79,4-4,4Zm-20-6c-1.1,0-2,.9-2,2s.9,2,2,2h20c1.1,0,2-.9,2-2s-.9-2-2-2H6Z"/>
  <path class="cls-1" d="m27,42.88h-2v-2c0-4.26-3.03-7.97-7.2-8.82-.47-.09-.8-.5-.8-.98v-2.4c0-.48.33-.89.8-.98,4.17-.85,7.2-4.56,7.2-8.82v-2h2v2c0,4.93-3.32,9.26-8,10.58v.83c4.68,1.32,8,5.65,8,10.58v2Z"/>
  <path class="cls-1" d="m7,42.88h-2v-2c0-4.93,3.32-9.26,8-10.58v-.83c-4.68-1.32-8-5.65-8-10.58v-2h2v2c0,4.26,3.03,7.97,7.2,8.82.47.09.8.5.8.98v2.4c0,.48-.33.89-.8.98-4.17.85-7.2,4.56-7.2,8.82v2Z"/>
  <path class="cls-1" d="m38,49.88c-1.73,0-3.5-.24-5.26-.72-.53-.15-.85-.69-.7-1.23.15-.53.7-.85,1.23-.7,1.59.43,3.18.65,4.74.65,9.92,0,18-8.07,18-18s-8.08-18-18-18c-1.56,0-3.15.22-4.74.65-.53.14-1.08-.17-1.23-.7-.15-.53.17-1.08.7-1.23,1.76-.48,3.53-.72,5.26-.72,11.03,0,20,8.97,20,20s-8.97,20-20,20Z"/>
  <g>
    <path class="cls-1" d="m43.73,31.67c.03.6-.06,1.15-.27,1.65-.21.5-.51.94-.92,1.31-.4.37-.91.68-1.51.91-.6.24-1.27.39-2.02.46l-.14,2.45s-.02.09-.03.13c-.02.04-.05.08-.1.11-.05.03-.12.05-.22.07-.09.02-.21.03-.36.04-.17,0-.31,0-.41-.01-.1-.01-.18-.03-.25-.06-.06-.02-.1-.06-.12-.11-.02-.05-.03-.1-.01-.16l.15-2.44c-.36-.03-.7-.07-1.01-.13-.31-.06-.59-.12-.83-.19-.24-.07-.45-.15-.62-.23-.17-.08-.3-.16-.38-.24-.08-.07-.14-.18-.18-.3-.04-.13-.06-.3-.07-.53,0-.17,0-.3,0-.41.01-.11.03-.2.06-.27s.06-.12.11-.15c.05-.03.11-.04.17-.05.1,0,.24.04.42.15s.43.21.73.33c.3.12.67.22,1.1.32.43.09.95.13,1.55.1,1.07-.05,1.87-.29,2.4-.74.53-.44.78-1.03.75-1.75-.02-.44-.14-.81-.35-1.1-.22-.29-.5-.53-.84-.73-.34-.2-.73-.37-1.16-.5-.43-.14-.87-.27-1.32-.41-.44-.14-.89-.3-1.32-.48-.43-.18-.82-.42-1.17-.7-.34-.29-.63-.64-.85-1.06-.22-.42-.35-.95-.37-1.58-.02-.5.04-.98.2-1.42.15-.44.4-.84.73-1.18.33-.34.75-.63,1.27-.86.52-.23,1.12-.38,1.82-.46l.13-2.28s.02-.09.03-.13c.02-.04.05-.08.1-.11.05-.03.12-.06.21-.07.09-.01.21-.03.37-.03.17,0,.3,0,.41,0,.11.01.19.03.25.06.06.03.09.07.11.11.02.04.03.1.03.16l-.15,2.26c.23.01.46.04.71.09.25.05.48.1.69.16.22.06.41.13.59.21.18.08.3.15.37.2.07.06.11.11.14.16.03.05.05.11.07.18s.04.15.05.23c.02.09.03.19.03.3,0,.14,0,.27,0,.37,0,.11-.02.19-.04.25-.02.06-.05.11-.08.14-.04.03-.08.05-.13.05-.08,0-.22-.04-.4-.13-.18-.09-.42-.18-.7-.29-.28-.1-.6-.19-.96-.27-.36-.08-.77-.11-1.21-.09-.5.02-.93.09-1.28.2-.35.11-.64.26-.85.45-.21.19-.37.4-.46.66-.09.25-.13.52-.12.82.02.45.14.82.36,1.11s.5.53.84.73.73.36,1.17.49c.43.13.88.27,1.33.41.45.14.9.3,1.34.48.44.18.83.41,1.18.69.35.29.63.64.86,1.06.23.42.35.95.38,1.58Z"/>
    <path class="cls-1" d="m38,39.19c-.12,0-.23,0-.31-.02-.14-.02-.24-.04-.33-.08-.16-.06-.28-.17-.33-.32-.05-.1-.06-.24-.03-.38l.12-2.03c-.24-.03-.47-.06-.68-.1-.32-.06-.61-.13-.87-.2-.27-.08-.49-.16-.68-.25-.21-.1-.36-.2-.47-.3-.13-.12-.23-.28-.28-.48-.04-.15-.07-.35-.08-.61,0-.18,0-.34,0-.46.01-.15.04-.27.08-.37.06-.16.15-.27.27-.34.11-.06.23-.1.35-.1.18-.02.36.05.62.19.17.1.4.2.69.31.28.11.63.21,1.05.3.4.09.89.12,1.45.09.98-.04,1.71-.26,2.18-.65.44-.37.64-.84.62-1.44-.02-.37-.11-.66-.28-.89-.18-.24-.43-.46-.73-.63-.32-.18-.68-.34-1.08-.47l-1.32-.41c-.47-.15-.92-.31-1.35-.5-.46-.2-.89-.45-1.26-.76-.38-.32-.7-.71-.94-1.18-.25-.47-.39-1.06-.42-1.74-.02-.55.05-1.07.22-1.56.17-.5.45-.94.81-1.32.36-.37.83-.69,1.39-.94.47-.21,1.01-.36,1.62-.45l.11-1.97c.01-.11.03-.19.07-.26.04-.1.12-.2.25-.28.09-.06.2-.1.34-.12.11-.02.25-.03.42-.04.19,0,.34,0,.46,0,.17.02.29.05.4.11.13.07.23.17.28.3.03.09.05.18.06.28l-.13,1.94c.12.02.25.03.38.06.26.05.5.11.73.17.24.07.45.14.64.23.22.1.36.18.46.26.1.09.17.17.23.26.05.09.08.18.11.27.02.07.04.16.06.27.02.1.03.22.04.35,0,.16,0,.3,0,.42,0,.12-.02.24-.06.34-.04.13-.11.23-.19.31-.1.09-.23.14-.37.14-.15,0-.33-.04-.58-.17-.17-.09-.4-.17-.66-.27s-.57-.18-.92-.26c-.33-.07-.71-.1-1.11-.08-.47.02-.87.08-1.19.19-.3.1-.54.22-.71.38-.17.14-.28.31-.35.5-.07.2-.1.43-.09.67.02.38.11.67.28.9.19.25.43.46.73.63.32.18.68.33,1.09.46.44.13.88.27,1.33.41.46.15.92.31,1.37.49.47.19.9.44,1.27.75.38.31.7.71.95,1.17.25.47.39,1.06.42,1.74.03.65-.07,1.26-.3,1.81-.23.55-.57,1.04-1.01,1.44-.44.4-.98.73-1.62.98-.54.21-1.15.37-1.8.45l-.12,2.14c-.01.1-.03.17-.06.24-.06.14-.14.23-.26.3-.1.05-.21.09-.33.11-.11.02-.25.04-.42.05-.06,0-.12,0-.17,0Zm-.26-.77s.04,0,.06,0c.08.01.2.01.34,0,.12,0,.22-.02.3-.03.02,0,.04,0,.05-.01l.17-2.73.32-.03c.71-.07,1.36-.21,1.92-.44.55-.22,1.02-.5,1.39-.84.36-.33.64-.73.83-1.18.18-.45.27-.95.24-1.49h0c-.02-.57-.14-1.05-.34-1.42-.2-.38-.46-.7-.77-.95-.32-.26-.68-.47-1.08-.64-.43-.17-.86-.33-1.31-.47-.45-.14-.89-.28-1.33-.41-.46-.14-.88-.32-1.25-.52-.39-.22-.71-.5-.96-.83-.26-.35-.41-.8-.44-1.32-.01-.34.03-.66.14-.96.12-.32.3-.59.57-.81.25-.22.58-.39.98-.52.38-.12.85-.2,1.38-.22.47-.02.92.01,1.31.1.38.08.72.18,1.01.29.29.11.54.21.73.3.05.02.08.04.12.05,0-.01,0-.03,0-.04,0-.1,0-.21,0-.34,0-.09,0-.18-.02-.25-.01-.08-.03-.15-.04-.2,0-.04-.02-.07-.04-.1-.07-.06-.13-.11-.33-.2-.16-.07-.34-.13-.54-.19-.21-.06-.43-.11-.66-.15-.23-.04-.45-.07-.66-.08l-.38-.02.17-2.57s-.03,0-.05,0c-.1,0-.22,0-.36,0-.14,0-.25.02-.33.03l-.17,2.57-.32.03c-.65.07-1.23.21-1.71.43-.47.21-.86.47-1.15.78-.29.3-.51.65-.64,1.04-.14.4-.2.83-.18,1.28.02.57.14,1.05.33,1.42.2.38.45.7.75.95.32.26.68.48,1.07.65.41.18.84.33,1.28.47l1.32.41c.45.14.87.32,1.24.53.39.23.71.5.95.83.26.35.41.79.43,1.31.04.84-.26,1.53-.89,2.05-.6.5-1.48.77-2.62.82-.63.03-1.18,0-1.65-.11-.45-.1-.84-.21-1.16-.33-.32-.12-.58-.24-.77-.35-.1-.06-.17-.08-.2-.09,0,.02,0,.07,0,.13,0,.09,0,.21,0,.36,0,.25.04.38.05.44.02.06.04.1.07.13.04.04.12.09.29.18.16.08.35.15.57.21.23.07.5.13.79.19.3.06.62.1.97.13l.37.03-.17,2.74Zm1.95-19.21h0s0,0,0,0Z"/>
  </g>
</svg>