<?xml version="1.0" encoding="UTF-8"?>
<svg id="Layer_1" data-name="Layer 1" xmlns="http://www.w3.org/2000/svg" viewBox="0 0 60 60">
  <defs>
    <style>
      .cls-1 {
        fill: #37464c;
        stroke-width: 0px;
      }
    </style>
  </defs>
  <g>
    <g>
      <path class="cls-1" d="m18.51,39.26c-.13,0-.27-.05-.37-.15-.2-.2-.2-.54,0-.74l16.35-16.34c.2-.2.54-.2.74,0,.2.2.2.54,0,.74l-16.35,16.34c-.1.1-.24.15-.37.15Z"/>
      <path class="cls-1" d="m18.51,39.64c-.24,0-.47-.09-.64-.26-.17-.17-.26-.39-.26-.63s.09-.47.26-.64l16.35-16.34c.35-.35.92-.35,1.27,0,.35.35.35.92,0,1.27l-16.35,16.34c-.17.17-.39.26-.64.26Zm16.35-17.39s-.08.01-.11.04l-16.35,16.34s-.04.08-.04.1,0,.07.04.1c.07.07.14.07.21,0l16.35-16.34c.06-.06.06-.15,0-.21-.03-.03-.07-.04-.1-.04Z"/>
    </g>
    <g>
      <path class="cls-1" d="m23.17,43.93c-.13,0-.27-.05-.37-.15-.2-.2-.2-.54,0-.74l16.35-16.34c.2-.2.54-.2.74,0,.2.2.2.54,0,.74l-16.35,16.34c-.1.1-.24.15-.37.15Z"/>
      <path class="cls-1" d="m23.17,44.3c-.24,0-.46-.09-.63-.26-.17-.17-.26-.4-.26-.64s.09-.47.26-.64l16.35-16.34c.17-.17.4-.26.63-.26h0c.24,0,.47.09.63.26.35.35.35.92,0,1.27l-16.35,16.34c-.17.17-.4.26-.64.26Zm16.35-17.39s-.07,0-.1.04l-16.35,16.34s-.05.16,0,.21c.05.05.15.06.21,0l16.35-16.34c.06-.06.06-.15,0-.21-.04-.04-.08-.04-.1-.04h0Z"/>
    </g>
    <g>
      <path class="cls-1" d="m15.18,55.33c-.9,0-1.82-.14-2.71-.44-.17-.06-.3-.2-.35-.38-.04-.18.01-.36.14-.49l4.74-4.74-4.38-4.38-4.74,4.74c-.13.13-.31.18-.49.14-.18-.04-.32-.17-.38-.35-1.02-3.1-.23-6.45,2.07-8.75,3.34-3.34,8.79-3.34,12.13,0,1.62,1.62,2.51,3.77,2.51,6.06s-.89,4.44-2.51,6.06c-1.64,1.64-3.81,2.51-6.04,2.51Zm-1.54-1.2c2.47.51,5.03-.24,6.84-2.05,1.42-1.42,2.21-3.31,2.21-5.32s-.78-3.9-2.21-5.32c-2.94-2.93-7.71-2.93-10.65,0-1.81,1.81-2.56,4.36-2.05,6.83l4.47-4.47c.2-.2.54-.2.74,0l5.12,5.12c.1.1.15.23.15.37s-.06.27-.15.37l-4.47,4.47Z"/>
      <path class="cls-1" d="m15.18,55.7c-.96,0-1.91-.15-2.83-.46-.29-.1-.52-.34-.59-.65s.02-.62.24-.84l4.48-4.48-3.85-3.85-4.48,4.48c-.22.22-.54.31-.84.24-.31-.07-.55-.29-.65-.59-1.06-3.23-.23-6.73,2.17-9.13,3.49-3.49,9.17-3.49,12.66,0,1.69,1.69,2.62,3.94,2.62,6.33s-.93,4.64-2.62,6.33c-1.69,1.69-3.93,2.62-6.31,2.62Zm-2.55-11.33l4.91,4.91-5.01,5.01s-.05.09-.04.14.05.09.1.11c.84.28,1.71.42,2.59.42,2.18,0,4.23-.85,5.78-2.4s2.4-3.61,2.4-5.8-.85-4.25-2.4-5.8c-3.2-3.2-8.4-3.2-11.6,0-2.2,2.2-2.96,5.4-1.98,8.36.02.05.06.09.11.1.05.01.1,0,.14-.04l5.01-5.01Zm2.55,10.28c-.53,0-1.07-.05-1.61-.17l-.68-.14,4.96-4.96s.04-.06.04-.1-.02-.08-.04-.1l-5.12-5.12c-.06-.06-.15-.06-.21,0l-4.96,4.96-.14-.68c-.54-2.61.26-5.29,2.15-7.17,3.08-3.08,8.1-3.08,11.18,0,1.49,1.49,2.32,3.48,2.32,5.59s-.82,4.09-2.32,5.59c-1.5,1.5-3.5,2.31-5.57,2.31Zm-.74-.79c2.13.22,4.25-.52,5.78-2.05,1.35-1.35,2.1-3.15,2.1-5.06s-.74-3.71-2.1-5.06c-2.79-2.79-7.33-2.79-10.12,0-1.54,1.53-2.28,3.65-2.05,5.78l3.95-3.95c.34-.34.93-.34,1.27,0l5.12,5.12c.17.17.26.39.26.64s-.1.47-.26.63l-3.95,3.95Z"/>
    </g>
    <g>
      <path class="cls-1" d="m42.88,27.61c-2.2,0-4.39-.84-6.06-2.51-1.62-1.62-2.51-3.77-2.51-6.06s.89-4.44,2.51-6.06c2.3-2.3,5.65-3.09,8.75-2.07.17.06.3.2.35.38.04.18-.01.36-.14.49l-4.74,4.74,4.38,4.38,4.74-4.74c.13-.13.31-.18.49-.14.18.04.32.17.38.35,1.02,3.1.23,6.45-2.07,8.75-1.67,1.67-3.87,2.51-6.06,2.51Zm-.02-16.09c-1.96,0-3.87.77-5.3,2.2-1.42,1.42-2.21,3.31-2.21,5.32s.78,3.9,2.21,5.32c2.94,2.93,7.71,2.93,10.65,0,1.81-1.81,2.56-4.36,2.05-6.83l-4.47,4.47c-.2.2-.54.2-.74,0l-5.12-5.12c-.1-.1-.15-.23-.15-.37s.06-.27.15-.37l4.47-4.47c-.51-.11-1.02-.16-1.53-.16Z"/>
      <path class="cls-1" d="m42.88,27.99c-2.39,0-4.64-.93-6.33-2.62-1.69-1.69-2.62-3.94-2.62-6.33s.93-4.64,2.62-6.33c2.4-2.4,5.9-3.23,9.13-2.16.29.1.52.34.59.65.07.31-.02.62-.24.84l-4.48,4.48,3.85,3.85,4.48-4.48c.22-.22.54-.31.84-.24.3.07.55.3.65.59,1.06,3.23.23,6.73-2.16,9.13-1.69,1.69-3.94,2.62-6.33,2.62Zm-.02-17.14c-2.14,0-4.21.83-5.78,2.4-1.55,1.55-2.4,3.61-2.4,5.8s.85,4.25,2.4,5.8c1.55,1.55,3.61,2.4,5.8,2.4s4.25-.85,5.8-2.4c2.2-2.2,2.96-5.4,1.98-8.36-.02-.05-.06-.08-.11-.1-.05-.01-.1,0-.14.04l-5.01,5.01-4.91-4.91,5.01-5.01s.05-.09.04-.14c-.01-.05-.05-.09-.1-.11-.85-.28-1.73-.42-2.59-.42Zm.02,16.09c-2.02,0-4.05-.77-5.59-2.31-1.49-1.49-2.31-3.48-2.31-5.59s.82-4.09,2.31-5.59c1.87-1.87,4.59-2.68,7.18-2.15l.68.14-4.96,4.96s-.04.07-.04.1.02.08.04.1l5.12,5.12c.08.08.13.08.21,0l4.97-4.96.14.68c.54,2.61-.26,5.29-2.15,7.17-1.54,1.54-3.57,2.31-5.59,2.31Zm-.02-15.05c-1.9,0-3.69.74-5.04,2.09-1.35,1.35-2.1,3.15-2.1,5.06s.74,3.71,2.1,5.06c2.79,2.79,7.33,2.79,10.12,0,1.54-1.53,2.28-3.65,2.05-5.78l-3.95,3.95c-.34.34-.93.34-1.27,0l-5.12-5.12c-.17-.17-.26-.4-.26-.64s.09-.46.26-.63l3.95-3.95c-.25-.03-.5-.04-.75-.04Z"/>
    </g>
  </g>
  <g>
    <g>
      <path class="cls-1" d="m47.38,55.16c-1.4,0-2.8-.53-3.87-1.6l-10.26-10.25c-1.03-1.03-1.6-2.41-1.6-3.87s.57-2.84,1.6-3.87c2.13-2.13,5.61-2.13,7.74,0l10.26,10.25c1.03,1.03,1.6,2.41,1.6,3.87s-.57,2.84-1.6,3.87h0c-1.07,1.07-2.47,1.6-3.87,1.6Zm-10.26-20.14c-1.13,0-2.27.43-3.13,1.29-.84.84-1.3,1.95-1.3,3.13s.46,2.29,1.3,3.13l10.26,10.25c1.73,1.73,4.54,1.73,6.26,0h0c.84-.84,1.3-1.95,1.3-3.13s-.46-2.29-1.3-3.13l-10.26-10.25c-.86-.86-2-1.29-3.13-1.29Z"/>
      <path class="cls-1" d="m47.38,55.54c-1.56,0-3.03-.61-4.14-1.71l-10.26-10.25c-1.1-1.1-1.71-2.57-1.71-4.13s.61-3.03,1.71-4.13c2.28-2.28,5.99-2.28,8.27,0l10.26,10.25c1.1,1.11,1.71,2.57,1.71,4.13s-.61,3.03-1.71,4.14c-1.1,1.1-2.57,1.71-4.14,1.71Zm-10.26-21.19c-1.31,0-2.61.5-3.61,1.49-.96.96-1.49,2.24-1.49,3.6s.53,2.64,1.49,3.6l10.26,10.25c.96.96,2.24,1.49,3.61,1.49s2.64-.53,3.61-1.49c.96-.96,1.49-2.24,1.49-3.6s-.53-2.64-1.49-3.6l-10.26-10.25c-.99-.99-2.3-1.49-3.61-1.49Zm10.26,20.14c-1.23,0-2.46-.47-3.4-1.4l-10.26-10.25c-.91-.91-1.41-2.11-1.41-3.39s.5-2.49,1.41-3.39c.91-.91,2.11-1.4,3.4-1.4s2.49.5,3.4,1.4l10.26,10.25c.91.91,1.41,2.11,1.41,3.39s-.5,2.49-1.41,3.4c-.94.94-2.17,1.4-3.4,1.4Zm-10.26-19.1c-1.08,0-2.1.42-2.87,1.19-.77.76-1.19,1.78-1.19,2.86s.42,2.1,1.19,2.86l10.26,10.25c1.58,1.58,4.15,1.58,5.73,0,.77-.76,1.19-1.78,1.19-2.86s-.42-2.1-1.19-2.86l-10.26-10.25c-.76-.76-1.78-1.19-2.87-1.19Z"/>
    </g>
    <g>
      <path class="cls-1" d="m32.78,37.31c-.13,0-.25-.05-.35-.14l-1.56-1.42c-.11-.1-.17-.23-.17-.37,0-.14.05-.28.15-.38l1.68-1.68c.2-.2.52-.2.72-.02l1.56,1.42c.11.1.17.23.17.37,0,.14-.05.28-.15.38l-1.68,1.68c-.1.1-.24.15-.37.15Zm-.8-1.96l.79.71.94-.94-.79-.71-.94.94Z"/>
      <path class="cls-1" d="m32.78,37.68c-.22,0-.44-.08-.6-.23l-1.56-1.42c-.18-.16-.29-.4-.29-.64,0-.24.09-.48.26-.66l1.68-1.68c.34-.34.88-.35,1.24-.03l1.56,1.42c.18.17.29.4.29.64,0,.24-.09.48-.26.66l-1.68,1.68c-.17.17-.4.26-.64.26Zm.12-4.14s-.08.01-.11.04l-1.68,1.68s-.04.07-.04.11c0,.04.02.08.05.1l1.56,1.42c.07.06.13.08.21,0l1.68-1.68s.04-.07.04-.11c0-.04-.02-.08-.05-.11l-1.56-1.42s-.06-.04-.1-.04Zm-.12,3.04l-1.34-1.22,1.47-1.47,1.34,1.22-1.47,1.47Zm-.25-1.24l.23.21.41-.41-.23-.21-.41.41Z"/>
    </g>
    <g>
      <path class="cls-1" d="m26.39,30.92c-.13,0-.27-.05-.37-.15l-8.41-8.4c-.1-.1-.15-.23-.15-.37s.06-.27.15-.37l1.68-1.68c.2-.2.54-.2.74,0l8.4,8.4c.1.1.15.23.15.37s-.06.27-.15.37l-1.68,1.68c-.1.1-.24.15-.37.15Zm-7.66-8.92l7.66,7.66.94-.94-7.66-7.66-.94.94Z"/>
      <path class="cls-1" d="m26.39,31.29c-.24,0-.47-.09-.64-.26l-8.4-8.4c-.17-.17-.26-.4-.26-.64s.1-.47.26-.64l1.68-1.68c.35-.35.92-.35,1.27,0l8.41,8.4c.17.17.26.4.26.63s-.09.47-.26.64l-1.68,1.68c-.17.17-.39.26-.64.26Zm-6.72-11.13s-.08.01-.1.04l-1.68,1.68s-.04.07-.04.1.02.08.04.11l8.4,8.4c.07.07.13.08.21,0l1.68-1.68s.04-.07.04-.11-.02-.08-.04-.1l-8.41-8.4s-.07-.04-.1-.04Zm6.72,10.02l-8.19-8.19,1.47-1.47,8.19,8.19-1.47,1.47Zm-7.13-8.19l7.13,7.13.41-.41-7.13-7.13-.41.41Z"/>
    </g>
    <g>
      <path class="cls-1" d="m16.81,23.68s-.02,0-.03,0c-.15,0-.29-.08-.38-.2l-6.44-8.12c-.17-.21-.15-.51.04-.7l2.33-2.33c.19-.19.49-.21.7-.04l8.12,6.44c.12.09.19.23.2.38,0,.15-.05.29-.15.4l-4.01,4.01c-.1.1-.23.15-.37.15Zm-5.74-8.6l5.79,7.29,3.18-3.18-7.3-5.78-1.67,1.67Z"/>
      <path class="cls-1" d="m16.81,24.06h-.07c-.24-.02-.48-.14-.64-.34l-6.44-8.12c-.28-.36-.25-.87.07-1.19l2.33-2.33c.32-.32.84-.35,1.19-.07l8.12,6.44c.2.16.32.4.34.65.01.26-.08.51-.26.69l-4.01,4.01c-.17.17-.4.26-.63.26Zm-4.11-11.5s-.08.01-.1.04l-2.33,2.33c-.05.05-.06.14-.01.2l6.44,8.12s.07.05.11.06v.38s0-.38,0-.38c.04,0,.08-.02.1-.04l4.01-4.01s.05-.07.04-.11c0-.04-.02-.08-.06-.11l-8.12-6.44s-.06-.03-.09-.03Zm4.12,10.38l-6.26-7.88,2.15-2.14,7.89,6.25-3.78,3.78Zm-5.25-7.83l5.32,6.7,2.59-2.59-6.7-5.32-1.2,1.2Z"/>
    </g>
  </g>
</svg>