<?xml version="1.0" encoding="UTF-8"?>
<svg id="Layer_1" data-name="Layer 1" xmlns="http://www.w3.org/2000/svg" viewBox="0 0 60 60">
  <defs>
    <style>
      .cls-1 {
        fill: #37464c;
        stroke-width: 0px;
      }
    </style>
  </defs>
  <path class="cls-1" d="m9.6,25c-.45,0-.86-.3-.97-.76-1.07-4.3-.78-8.39.7-9.94.82-.86,2.07-1.3,3.73-1.3.55,0,1,.45,1,1s-.45,1-1,1c-.74,0-1.74.12-2.28.68-.71.74-1.27,3.83-.21,8.08.13.54-.19,1.08-.73,1.21-.08.02-.16.03-.24.03Z"/>
  <path class="cls-1" d="m44,49c-.12,0-.24-.02-.36-.07-.56-.21-13.64-5.33-13.64-16.93v-12c0-.33.16-.64.43-.82.25-.17,6.16-4.18,13.57-4.18s13.32,4.01,13.57,4.18c.27.19.43.5.43.82v12c0,11.6-13.09,16.72-13.64,16.93-.11.04-.24.07-.36.07Zm-12-28.45v11.45c0,9.22,9.97,14.03,12,14.92,2.03-.88,12-5.7,12-14.92v-11.45c-1.44-.88-6.31-3.55-12-3.55s-10.56,2.67-12,3.55Z"/>
  <path class="cls-1" d="m44,49c-.12,0-.24-.02-.36-.07-.56-.21-13.64-5.33-13.64-16.93v-12c0-.33.16-.64.43-.82.25-.17,6.16-4.18,13.57-4.18s13.32,4.01,13.57,4.18c.27.19.43.5.43.82v12c0,11.6-13.09,16.72-13.64,16.93-.11.04-.24.07-.36.07Zm-12-28.45v11.45c0,9.22,9.97,14.03,12,14.92,2.03-.88,12-5.7,12-14.92v-11.45c-1.44-.88-6.31-3.55-12-3.55s-10.56,2.67-12,3.55Z"/>
  <path class="cls-1" d="m31.82,55c-.3,0-.6-.03-.91-.1-1.8-.4-3.04-1.84-3.16-3.68-.74-11.98-3.02-16.22-4.75-16.22s-4.02,4.25-4.75,16.22c-.11,1.84-1.35,3.28-3.16,3.68-1.79.39-3.5-.39-4.37-2-3.44-6.4-5.23-13.07-5.63-21-4.08-8.19-4.13-17.51-.1-21.74,3.86-4.06,10.73-4.21,18.01-.44,7.28-3.77,14.15-3.61,18.01.44,1.33,1.39,2.23,3.31,2.68,5.7l-1.97.37c-.38-2-1.1-3.58-2.16-4.69-3.3-3.46-9.46-3.39-16.09.19-.3.16-.65.16-.95,0-6.63-3.58-12.79-3.65-16.09-.19-3.45,3.62-3.21,12.25.54,19.65.06.13.1.26.11.41.37,7.82,2.03,14.09,5.4,20.36.52.97,1.47,1.15,2.18.99.72-.16,1.52-.73,1.59-1.85.74-12.01,3.01-18.1,6.75-18.1s6.01,6.09,6.75,18.1c.07,1.12.87,1.69,1.59,1.85.71.15,1.65-.02,2.18-.99,1.37-2.55,2.46-5.13,3.31-7.89l1.91.59c-.89,2.88-2.03,5.58-3.46,8.25-.72,1.33-2.02,2.1-3.46,2.1Z"/>
  <path class="cls-1" d="m42,37c-.26,0-.51-.1-.71-.29l-4-4c-.39-.39-.39-1.02,0-1.41.39-.39,1.02-.39,1.41,0l3.29,3.29,7.29-7.29c.39-.39,1.02-.39,1.41,0,.39.39.39,1.02,0,1.41l-8,8c-.2.19-.45.29-.71.29Z"/>
</svg>