<?xml version="1.0" encoding="UTF-8"?>
<svg id="Layer_1" data-name="Layer 1" xmlns="http://www.w3.org/2000/svg" viewBox="0 0 60 60">
  <defs>
    <style>
      .cls-1 {
        fill: #37464c;
        stroke-width: 0px;
      }
    </style>
  </defs>
  <g>
    <g>
      <g>
        <path class="cls-1" d="m42.41,48.79h-24.66c-3.96,0-7.19-3.22-7.19-7.19V14.46c0-5.24,4.26-9.5,9.5-9.5h20.04c5.24,0,9.5,4.26,9.5,9.5v27.14c0,3.96-3.22,7.19-7.19,7.19ZM20.06,6.12c-4.6,0-8.34,3.74-8.34,8.34v27.14c0,3.33,2.71,6.04,6.04,6.04h24.66c3.33,0,6.04-2.71,6.04-6.04V14.46c0-4.6-3.74-8.34-8.34-8.34h-20.04Z"/>
        <path class="cls-1" d="m42.41,49.29h-24.66c-4.24,0-7.69-3.45-7.69-7.69V14.46c0-5.51,4.48-10,10-10h20.04c5.51,0,10,4.48,10,10v27.14c0,4.24-3.45,7.69-7.69,7.69ZM20.06,5.47c-4.96,0-9,4.04-9,9v27.14c0,3.69,3,6.69,6.69,6.69h24.66c3.69,0,6.69-3,6.69-6.69V14.46c0-4.96-4.04-9-9-9h-20.04Zm22.35,42.67h-24.66c-3.6,0-6.54-2.93-6.54-6.54V14.46c0-4.88,3.97-8.84,8.84-8.84h20.04c4.88,0,8.84,3.97,8.84,8.84v27.14c0,3.6-2.93,6.54-6.54,6.54ZM20.06,6.62c-4.33,0-7.84,3.52-7.84,7.84v27.14c0,3.05,2.48,5.54,5.54,5.54h24.66c3.05,0,5.54-2.48,5.54-5.54V14.46c0-4.33-3.52-7.84-7.84-7.84h-20.04Z"/>
      </g>
      <g>
        <path class="cls-1" d="m49.02,31.56H11.14c-.32,0-.58-.26-.58-.58v-12.76c0-.32.26-.58.58-.58h37.88c.32,0,.58.26.58.58v12.76c0,.32-.26.58-.58.58Zm-37.3-1.15h36.73v-11.61H11.72v11.61Z"/>
        <path class="cls-1" d="m49.02,32.06H11.14c-.59,0-1.08-.48-1.08-1.08v-12.76c0-.59.48-1.08,1.08-1.08h37.88c.59,0,1.08.48,1.08,1.08v12.76c0,.59-.48,1.08-1.08,1.08ZM11.14,18.14s-.08.03-.08.08v12.76s.03.08.08.08h37.88s.08-.03.08-.08v-12.76s-.03-.08-.08-.08H11.14Zm37.8,12.76H11.22v-12.61h37.73v12.61Zm-36.73-1h35.73v-10.61H12.22v10.61Z"/>
      </g>
      <g>
        <g>
          <path class="cls-1" d="m21.88,40.08h-4.55c-1.64,0-2.98-1.33-2.98-2.97s1.34-2.97,2.98-2.97h4.55c1.64,0,2.98,1.33,2.98,2.97s-1.34,2.97-2.98,2.97Zm-4.55-4.8c-1.01,0-1.83.82-1.83,1.82s.82,1.82,1.83,1.82h4.55c1.01,0,1.83-.82,1.83-1.82s-.82-1.82-1.83-1.82h-4.55Z"/>
          <path class="cls-1" d="m21.88,40.58h-4.55c-1.92,0-3.48-1.56-3.48-3.47s1.56-3.47,3.48-3.47h4.55c1.92,0,3.48,1.56,3.48,3.47s-1.56,3.47-3.48,3.47Zm-4.55-5.95c-1.37,0-2.48,1.11-2.48,2.47s1.11,2.47,2.48,2.47h4.55c1.37,0,2.48-1.11,2.48-2.47s-1.11-2.47-2.48-2.47h-4.55Zm4.55,4.8h-4.55c-1.28,0-2.33-1.04-2.33-2.32s1.04-2.32,2.33-2.32h4.55c1.28,0,2.33,1.04,2.33,2.32s-1.04,2.32-2.33,2.32Zm-4.55-3.64c-.73,0-1.33.59-1.33,1.32s.6,1.32,1.33,1.32h4.55c.73,0,1.33-.59,1.33-1.32s-.6-1.32-1.33-1.32h-4.55Z"/>
        </g>
        <g>
          <path class="cls-1" d="m42.84,40.08h-4.55c-1.64,0-2.98-1.33-2.98-2.97s1.34-2.97,2.98-2.97h4.55c1.64,0,2.98,1.33,2.98,2.97s-1.34,2.97-2.98,2.97Zm-4.55-4.8c-1.01,0-1.83.82-1.83,1.82s.82,1.82,1.83,1.82h4.55c1.01,0,1.83-.82,1.83-1.82s-.82-1.82-1.83-1.82h-4.55Z"/>
          <path class="cls-1" d="m42.84,40.58h-4.55c-1.92,0-3.48-1.56-3.48-3.47s1.56-3.47,3.48-3.47h4.55c1.92,0,3.48,1.56,3.48,3.47s-1.56,3.47-3.48,3.47Zm-4.55-5.95c-1.37,0-2.48,1.11-2.48,2.47s1.11,2.47,2.48,2.47h4.55c1.37,0,2.48-1.11,2.48-2.47s-1.11-2.47-2.48-2.47h-4.55Zm4.55,4.8h-4.55c-1.28,0-2.33-1.04-2.33-2.32s1.04-2.32,2.33-2.32h4.55c1.28,0,2.33,1.04,2.33,2.32s-1.04,2.32-2.33,2.32Zm-4.55-3.64c-.73,0-1.33.59-1.33,1.32s.59,1.32,1.33,1.32h4.55c.73,0,1.33-.59,1.33-1.32s-.59-1.32-1.33-1.32h-4.55Z"/>
        </g>
      </g>
    </g>
    <g>
      <g>
        <path class="cls-1" d="m10.37,56c-.15,0-.3-.06-.41-.17-.22-.23-.22-.59,0-.81l6.83-6.82c.23-.23.59-.22.81,0,.22.23.22.59,0,.81l-6.83,6.82c-.11.11-.26.17-.41.17Z"/>
        <path class="cls-1" d="m10.37,56.5c-.29,0-.56-.11-.76-.31-.42-.42-.42-1.1,0-1.52l6.83-6.82c.42-.42,1.1-.42,1.52,0s.42,1.1,0,1.52l-6.83,6.82c-.2.2-.47.31-.76.31Zm6.83-7.97s-.04,0-.05.02l-6.83,6.82s-.03.08,0,.11l.05.02s.04,0,.05-.02l6.83-6.82s.03-.08,0-.11c-.02-.02-.04-.02-.05-.02Z"/>
      </g>
      <g>
        <path class="cls-1" d="m49.79,56c-.15,0-.29-.06-.41-.17l-6.83-6.82c-.22-.22-.23-.59,0-.81.22-.23.59-.23.81,0l6.83,6.82c.23.22.23.59,0,.81-.11.11-.26.17-.41.17Z"/>
        <path class="cls-1" d="m49.79,56.5c-.29,0-.56-.11-.76-.31l-6.83-6.82c-.42-.42-.42-1.1,0-1.52.2-.2.47-.32.76-.32h0c.29,0,.56.11.76.31l6.83,6.82c.42.42.42,1.1,0,1.52-.21.21-.48.32-.76.32Zm-6.78-7.95h-.11s-.03.08,0,.11l6.88,6.84s.04,0,.06-.02c.03-.03.03-.08,0-.11l-6.83-6.82Z"/>
      </g>
    </g>
  </g>
  <g>
    <path class="cls-1" d="m30.12,14.87c-1.95,0-3.53-1.58-3.53-3.52s1.58-3.52,3.53-3.52,3.53,1.58,3.53,3.52-1.58,3.52-3.53,3.52Zm0-5.9c-1.31,0-2.38,1.06-2.38,2.37s1.07,2.37,2.38,2.37,2.38-1.06,2.38-2.37-1.07-2.37-2.38-2.37Z"/>
    <path class="cls-1" d="m30.12,15.37c-2.22,0-4.03-1.81-4.03-4.02s1.81-4.02,4.03-4.02,4.03,1.8,4.03,4.02-1.81,4.02-4.03,4.02Zm0-7.05c-1.67,0-3.03,1.36-3.03,3.02s1.36,3.02,3.03,3.02,3.03-1.36,3.03-3.02-1.36-3.02-3.03-3.02Zm0,5.9c-1.59,0-2.88-1.29-2.88-2.87s1.29-2.87,2.88-2.87,2.88,1.29,2.88,2.87-1.29,2.87-2.88,2.87Zm0-4.74c-1.04,0-1.88.84-1.88,1.87s.84,1.87,1.88,1.87,1.88-.84,1.88-1.87-.84-1.87-1.88-1.87Z"/>
  </g>
</svg>