<?xml version="1.0" encoding="UTF-8"?>
<svg id="Layer_1" data-name="Layer 1" xmlns="http://www.w3.org/2000/svg" viewBox="0 0 60 60">
  <defs>
    <style>
      .cls-1 {
        fill: #37464c;
        stroke-width: 0px;
      }
    </style>
  </defs>
  <g>
    <path class="cls-1" d="m35.83,58.7c-4.4,0-7.98-3.57-7.98-7.97V12.88c0-3.72-3.03-6.74-6.75-6.74h-1.08c-3.72,0-6.75,3.02-6.75,6.74v30.28c0,.34-.27.61-.61.61s-.61-.27-.61-.61V12.88c0-4.39,3.58-7.97,7.98-7.97h1.08c4.4,0,7.98,3.57,7.98,7.97v37.85c0,3.72,3.03,6.74,6.75,6.74s6.75-3.02,6.75-6.74v-18.68c0-.34.27-.61.61-.61s.61.27.61.61v18.68c0,4.39-3.58,7.97-7.98,7.97Z"/>
    <path class="cls-1" d="m35.83,59.07c-4.6,0-8.35-3.74-8.35-8.34V12.88c0-3.51-2.86-6.37-6.37-6.37h-1.08c-3.51,0-6.37,2.86-6.37,6.37v30.28c0,.54-.44.99-.99.99s-.99-.44-.99-.99V12.88c0-4.6,3.75-8.34,8.35-8.34h1.08c4.6,0,8.35,3.74,8.35,8.34v37.85c0,3.51,2.86,6.37,6.37,6.37s6.37-2.86,6.37-6.37v-18.68c0-.55.44-.99.99-.99s.99.44.99.99v18.68c0,4.6-3.75,8.34-8.35,8.34ZM20.02,5.76h1.08c3.93,0,7.12,3.19,7.12,7.12v37.85c0,4.19,3.41,7.59,7.6,7.59s7.6-3.41,7.6-7.59v-18.68c0-.26-.48-.26-.48,0v18.68c0,3.92-3.2,7.12-7.12,7.12s-7.12-3.19-7.12-7.12V12.88c0-4.19-3.41-7.59-7.6-7.59h-1.08c-4.19,0-7.6,3.41-7.6,7.59v30.28c0,.26.48.26.48,0V12.88c0-3.92,3.2-7.12,7.12-7.12Z"/>
  </g>
  <g>
    <g>
      <path class="cls-1" d="m43.13,32.26c-3.36,0-6.1-2.73-6.1-6.09v-7.48c0-.34.27-.61.61-.61h10.97c.34,0,.61.27.61.61v7.48c0,3.36-2.74,6.09-6.1,6.09Zm-4.87-12.96v6.86c0,2.68,2.18,4.86,4.87,4.86s4.87-2.18,4.87-4.86v-6.86h-9.74Z"/>
      <path class="cls-1" d="m43.13,32.63c-3.57,0-6.47-2.9-6.47-6.47v-7.48c0-.54.44-.99.99-.99h10.97c.55,0,.99.44.99.99v7.48c0,3.57-2.9,6.47-6.47,6.47Zm-5.48-14.18c-.13,0-.24.11-.24.24v7.48c0,3.15,2.57,5.72,5.72,5.72s5.72-2.56,5.72-5.72v-7.48c0-.13-.11-.24-.24-.24h-10.97Zm5.48,12.96c-2.89,0-5.24-2.35-5.24-5.24v-7.24h10.49v7.24c0,2.89-2.35,5.24-5.24,5.24Zm-4.49-11.73v6.49c0,2.47,2.02,4.49,4.49,4.49s4.49-2.01,4.49-4.49v-6.49h-8.99Z"/>
    </g>
    <g>
      <path class="cls-1" d="m46.95,19.3h-7.65c-.34,0-.61-.27-.61-.61v-7.64c0-.34.27-.61.61-.61h7.65c.34,0,.61.27.61.61v7.64c0,.34-.27.61-.61.61Zm-7.03-1.23h6.42v-6.41h-6.42v6.41Z"/>
      <path class="cls-1" d="m46.95,19.68h-7.65c-.55,0-.99-.44-.99-.99v-7.64c0-.55.44-.99.99-.99h7.65c.55,0,.99.44.99.99v7.64c0,.55-.44.99-.99.99Zm-7.65-8.87c-.13,0-.24.11-.24.24v7.64c0,.13.11.24.24.24h7.65c.13,0,.24-.11.24-.24v-7.64c0-.13-.11-.24-.24-.24h-7.65Zm7.41,7.64h-7.17v-7.16h7.17v7.16Zm-6.42-.75h5.67v-5.66h-5.67v5.66Z"/>
    </g>
    <g>
      <g>
        <rect class="cls-1" x="40.72" y="14.01" width="1.72" height="1.72"/>
        <path class="cls-1" d="m42.81,16.11h-2.47v-2.47h2.47v2.47Zm-1.72-.75h.97v-.97h-.97v.97Z"/>
      </g>
      <g>
        <rect class="cls-1" x="43.83" y="14.01" width="1.72" height="1.72"/>
        <path class="cls-1" d="m45.92,16.11h-2.47v-2.47h2.47v2.47Zm-1.72-.75h.97v-.97h-.97v.97Z"/>
      </g>
    </g>
  </g>
</svg>