<?xml version="1.0" encoding="UTF-8"?>
<svg id="Layer_1" data-name="Layer 1" xmlns="http://www.w3.org/2000/svg" viewBox="0 0 60 60">
  <defs>
    <style>
      .cls-1 {
        fill: #37464c;
        stroke-width: 0px;
      }
    </style>
  </defs>
  <path class="cls-1" d="m37,56c-.55,0-1-.45-1-1v-11h-12v11c0,.55-.45,1-1,1s-1-.45-1-1v-12c0-.55.45-1,1-1h14c.55,0,1,.45,1,1v12c0,.55-.45,1-1,1Z"/>
  <path class="cls-1" d="m23,56c-.55,0-1-.45-1-1v-7h-10v7c0,.55-.45,1-1,1s-1-.45-1-1v-8c0-.55.45-1,1-1h12c.55,0,1,.45,1,1v8c0,.55-.45,1-1,1Z"/>
  <path class="cls-1" d="m49,56c-.55,0-1-.45-1-1v-5h-10v5c0,.55-.45,1-1,1s-1-.45-1-1v-6c0-.55.45-1,1-1h12c.55,0,1,.45,1,1v6c0,.55-.45,1-1,1Z"/>
  <path class="cls-1" d="m30,54c-.55,0-1-.45-1-1v-4c0-.55.45-1,1-1s1,.45,1,1v4c0,.55-.45,1-1,1Z"/>
  <g>
    <path class="cls-1" d="m30,14c-2.76,0-5-2.24-5-5s2.24-5,5-5,5,2.24,5,5-2.24,5-5,5Zm0-8c-1.65,0-3,1.35-3,3s1.35,3,3,3,3-1.35,3-3-1.35-3-3-3Z"/>
    <path class="cls-1" d="m30,44c-.55,0-1-.45-1-1v-13c0-.55.45-1,1-1s1,.45,1,1v13c0,.55-.45,1-1,1Z"/>
    <path class="cls-1" d="m35,44h-10c-.55,0-1-.45-1-1v-22.59l-9.09-9.09c-.59-.59-.91-1.37-.91-2.21s.32-1.6.9-2.19c0,0,.01-.01.02-.02,1.18-1.18,3.23-1.18,4.41,0l10.67,10.67,10.67-10.67c1.18-1.18,3.23-1.18,4.41,0,.59.59.92,1.37.92,2.21s-.32,1.62-.91,2.21l-9.09,9.09v22.59c0,.55-.45,1-1,1Zm-9-2h8v-22c0-.27.11-.52.29-.71l9.38-9.38c.21-.21.33-.49.33-.79s-.12-.58-.33-.79c-.43-.43-1.16-.43-1.59,0l-11.38,11.38c-.39.39-1.02.39-1.41,0l-11.38-11.38c-.42-.42-1.15-.42-1.57-.01,0,0,0,0-.01.01-.21.21-.33.49-.33.79s.12.58.33.79l9.38,9.38c.19.19.29.44.29.71v22Z"/>
  </g>
  <path class="cls-1" d="m17.54,22.5c-.17,0-.34-.04-.5-.13l-3.46-2c-.48-.28-.64-.89-.37-1.37.28-.48.89-.64,1.37-.37l3.46,2c.48.28.64.89.37,1.37-.19.32-.52.5-.87.5Z"/>
  <path class="cls-1" d="m15,30h-4c-.55,0-1-.45-1-1s.45-1,1-1h4c.55,0,1,.45,1,1s-.45,1-1,1Z"/>
  <path class="cls-1" d="m14.08,39.5c-.35,0-.68-.18-.87-.5-.28-.48-.11-1.09.37-1.37l3.46-2c.48-.28,1.09-.11,1.37.37.28.48.11,1.09-.37,1.37l-3.46,2c-.16.09-.33.13-.5.13Z"/>
  <path class="cls-1" d="m42.46,22.5c-.35,0-.68-.18-.87-.5-.28-.48-.11-1.09.37-1.37l3.46-2c.48-.28,1.09-.11,1.37.37.28.48.11,1.09-.37,1.37l-3.46,2c-.16.09-.33.13-.5.13Z"/>
  <path class="cls-1" d="m49,30h-4c-.55,0-1-.45-1-1s.45-1,1-1h4c.55,0,1,.45,1,1s-.45,1-1,1Z"/>
  <path class="cls-1" d="m45.92,39.5c-.17,0-.34-.04-.5-.13l-3.46-2c-.48-.28-.64-.89-.37-1.37.28-.48.89-.64,1.37-.37l3.46,2c.48.28.64.89.37,1.37-.19.32-.52.5-.87.5Z"/>
</svg>