<?xml version="1.0" encoding="UTF-8"?>
<svg id="Layer_1" data-name="Layer 1" xmlns="http://www.w3.org/2000/svg" viewBox="0 0 60 60">
  <defs>
    <style>
      .cls-1 {
        fill: #37464c;
        stroke-width: 0px;
      }
    </style>
  </defs>
  <g>
    <g>
      <path class="cls-1" d="m47.33,51.32c-1.69,0-3.06-1.18-3.06-2.64v-12.3c0-.8-.76-1.46-1.69-1.46s-1.69.65-1.69,1.46v3.55c0,2.15-2.03,3.9-4.52,3.9h-19.13c-1.68,0-3.04-1.18-3.04-2.62s1.36-2.62,3.04-2.62h12.76c.92,0,1.67-.65,1.67-1.44s-.75-1.44-1.67-1.44h-4.58c-1.46,0-2.64-1.02-2.64-2.28v-.59h1.37v.59c0,.6.57,1.09,1.27,1.09h4.58c1.68,0,3.04,1.18,3.04,2.62s-1.36,2.62-3.04,2.62h-12.76c-.92,0-1.67.64-1.67,1.44s.75,1.44,1.67,1.44h19.13c1.74,0,3.15-1.22,3.15-2.72v-3.55c0-1.46,1.37-2.64,3.06-2.64s3.06,1.18,3.06,2.64v12.3c0,.8.76,1.46,1.69,1.46s1.69-.65,1.69-1.46v-18.6h1.37v18.6c0,1.46-1.37,2.64-3.06,2.64Z"/>
      <path class="cls-1" d="m47.33,51.69c-1.9,0-3.44-1.35-3.44-3.02v-12.3c0-.6-.59-1.08-1.32-1.08s-1.32.49-1.32,1.08v3.55c0,2.36-2.2,4.27-4.9,4.27h-19.13c-1.88,0-3.42-1.34-3.42-3s1.53-3,3.42-3h12.76c.71,0,1.29-.48,1.29-1.06s-.58-1.06-1.29-1.06h-4.58c-1.66,0-3.02-1.19-3.02-2.65v-.97h2.12v.97c0,.4.4.72.89.72h4.58c1.88,0,3.42,1.34,3.42,3s-1.53,3-3.42,3h-12.76c-.71,0-1.29.48-1.29,1.06s.58,1.06,1.29,1.06h19.13c1.53,0,2.77-1.05,2.77-2.34v-3.55c0-1.66,1.54-3.02,3.44-3.02s3.44,1.35,3.44,3.02v12.3c0,.6.59,1.08,1.32,1.08s1.32-.49,1.32-1.08v-18.97h2.12v18.97c0,1.66-1.54,3.02-3.44,3.02Zm-4.75-17.15c1.14,0,2.07.82,2.07,1.83v12.3c0,1.25,1.21,2.27,2.69,2.27s2.69-1.02,2.69-2.27v-18.22h-.62v18.22c0,1.01-.93,1.83-2.07,1.83s-2.07-.82-2.07-1.83v-12.3c0-1.25-1.21-2.27-2.69-2.27s-2.69,1.02-2.69,2.27v3.55c0,1.7-1.58,3.09-3.52,3.09h-19.13c-1.13,0-2.04-.81-2.04-1.81s.92-1.81,2.04-1.81h12.76c1.47,0,2.67-1.01,2.67-2.25s-1.2-2.25-2.67-2.25h-4.58c-.91,0-1.64-.66-1.64-1.47v-.22h-.62v.22c0,1.05,1.02,1.9,2.27,1.9h4.58c1.13,0,2.04.81,2.04,1.81s-.92,1.81-2.04,1.81h-12.76c-1.47,0-2.67,1.01-2.67,2.25s1.2,2.25,2.67,2.25h19.13c2.29,0,4.15-1.58,4.15-3.52v-3.55c0-1.01.93-1.83,2.07-1.83Z"/>
    </g>
    <g>
      <path class="cls-1" d="m23.54,32.68l-5.79-5.42c-1-.93-1.54-2.16-1.54-3.47v-4.42c.05-1.08,1.03-1.95,2.22-1.95h.47v1.18h-.47c-.47,0-.85.38-.85.85v4.34c0,1,.43,1.97,1.18,2.67l4.78,4.47,4.78-4.47c.75-.7,1.18-1.67,1.18-2.67v-4.34c0-.47-.38-.85-.85-.85h-.47v-1.18h.47c1.2,0,2.18.87,2.22,1.95h0v4.42c0,1.31-.55,2.54-1.54,3.47l-5.79,5.42Z"/>
      <path class="cls-1" d="m23.54,33.19l-6.05-5.65c-1.07-1-1.66-2.33-1.66-3.75v-4.42c.06-1.31,1.2-2.33,2.6-2.33h.85v1.93h-.85c-.26,0-.48.21-.48.47v4.34c0,.89.39,1.77,1.06,2.4l4.53,4.23,4.53-4.23c.67-.63,1.06-1.5,1.06-2.4v-4.34c0-.26-.21-.47-.48-.47h-.85v-1.93h.85c1.27,0,2.32.83,2.55,1.95h.04v4.79c0,1.42-.59,2.74-1.66,3.75l-6.05,5.66Zm-5.11-15.4c-1,0-1.81.7-1.85,1.59v4.4c0,1.21.5,2.34,1.42,3.2l5.54,5.18,5.54-5.18c.92-.86,1.42-1.99,1.42-3.2v-4.4c-.04-.89-.85-1.59-1.85-1.59h-.1v.43h.1c.68,0,1.23.55,1.23,1.22v4.34c0,1.1-.47,2.17-1.3,2.94l-5.04,4.71-5.04-4.71c-.83-.77-1.3-1.85-1.3-2.95v-4.34c0-.67.55-1.22,1.23-1.22h.1v-.43h-.1Z"/>
    </g>
    <g>
      <path class="cls-1" d="m23.54,28.09c-2.44,0-4.69-.45-6.02-1.21l.75-.99c1.1.62,3.12,1.01,5.27,1.01,2.26,0,4.32-.42,5.39-1.08l.81.96c-1.31.82-3.63,1.31-6.2,1.31Z"/>
      <path class="cls-1" d="m23.54,28.47c-2.5,0-4.82-.47-6.21-1.26l-.38-.21,1.21-1.59.28.16c1.05.59,3,.96,5.08.96,2.19,0,4.18-.39,5.19-1.03l.28-.17,1.3,1.53-.37.23c-1.37.86-3.76,1.37-6.4,1.37Zm-5.45-1.71c1.31.61,3.3.96,5.45.96,2.27,0,4.32-.38,5.62-1.04l-.31-.37c-1.18.61-3.16.98-5.31.98s-3.97-.34-5.16-.91l-.29.38Z"/>
    </g>
    <g>
      <path class="cls-1" d="m19.75,19.52c-.38,0-.69-.26-.69-.59v-1.77c0-.33.31-.59.69-.59s.69.26.69.59v1.77c0,.33-.31.59-.69.59Z"/>
      <path class="cls-1" d="m19.75,19.9c-.58,0-1.06-.43-1.06-.97v-1.77c0-.53.48-.97,1.06-.97s1.06.43,1.06.97v1.77c0,.53-.48.97-1.06.97Zm0-2.95c-.18,0-.31.11-.31.22v1.77c0,.1.13.22.31.22s.31-.11.31-.22v-1.77c0-.1-.13-.22-.31-.22Z"/>
    </g>
    <g>
      <path class="cls-1" d="m27.34,19.52c-.38,0-.69-.26-.69-.59v-1.77c0-.33.31-.59.69-.59s.69.26.69.59v1.77c0,.33-.31.59-.69.59Z"/>
      <path class="cls-1" d="m27.34,19.9c-.58,0-1.06-.43-1.06-.97v-1.77c0-.53.48-.97,1.06-.97s1.06.43,1.06.97v1.77c0,.53-.48.97-1.06.97Zm0-2.95c-.18,0-.31.11-.31.22v1.77c0,.1.13.22.31.22s.31-.11.31-.22v-1.77c0-.1-.13-.22-.31-.22Z"/>
    </g>
    <g>
      <path class="cls-1" d="m49.7,30.56c-4.28,0-7.75-3-7.75-6.68s3.48-6.68,7.75-6.68,7.75,3,7.75,6.68-3.48,6.68-7.75,6.68Zm0-12.19c-3.52,0-6.38,2.47-6.38,5.5s2.86,5.5,6.38,5.5,6.38-2.47,6.38-5.5-2.86-5.5-6.38-5.5Z"/>
      <path class="cls-1" d="m49.7,30.93c-4.48,0-8.13-3.17-8.13-7.06s3.65-7.06,8.13-7.06,8.13,3.17,8.13,7.06-3.65,7.06-8.13,7.06Zm0-13.37c-4.07,0-7.38,2.83-7.38,6.31s3.31,6.31,7.38,6.31,7.38-2.83,7.38-6.31-3.31-6.31-7.38-6.31Zm0,12.19c-3.73,0-6.76-2.64-6.76-5.88s3.03-5.88,6.76-5.88,6.76,2.64,6.76,5.88-3.03,5.88-6.76,5.88Zm0-11c-3.31,0-6.01,2.3-6.01,5.13s2.69,5.13,6.01,5.13,6.01-2.3,6.01-5.13-2.69-5.13-6.01-5.13Z"/>
    </g>
    <g>
      <path class="cls-1" d="m49.7,26.74c-1.83,0-3.33-1.29-3.33-2.87s1.49-2.87,3.33-2.87,3.33,1.29,3.33,2.87-1.49,2.87-3.33,2.87Zm0-4.55c-1.08,0-1.96.76-1.96,1.69s.88,1.69,1.96,1.69,1.95-.76,1.95-1.69-.88-1.69-1.95-1.69Z"/>
      <path class="cls-1" d="m49.7,27.12c-2.04,0-3.7-1.46-3.7-3.24s1.66-3.24,3.7-3.24,3.7,1.46,3.7,3.24-1.66,3.24-3.7,3.24Zm0-5.74c-1.63,0-2.95,1.12-2.95,2.49s1.32,2.49,2.95,2.49,2.95-1.12,2.95-2.49-1.32-2.49-2.95-2.49Zm0,4.55c-1.29,0-2.33-.92-2.33-2.06s1.04-2.06,2.33-2.06,2.33.92,2.33,2.06-1.04,2.06-2.33,2.06Zm0-3.37c-.87,0-1.58.59-1.58,1.31s.71,1.31,1.58,1.31,1.58-.59,1.58-1.31-.71-1.31-1.58-1.31Z"/>
    </g>
  </g>
  <g>
    <g>
      <path class="cls-1" d="m39.35,50.6c0,3.42-2.78,6.21-6.21,6.21H13.74c-3.42,0-6.21-2.78-6.21-6.21V11.04c0-3.42,2.78-6.21,6.21-6.21h19.41c3.42,0,6.21,2.78,6.21,6.21v20.89c.1-.1.22-.19.35-.27l.41-.17c.16-.04.32-.06.49-.06V11.04c0-4.11-3.34-7.45-7.45-7.45H13.74c-4.11,0-7.45,3.34-7.45,7.45v39.56c0,4.11,3.34,7.45,7.45,7.45h19.41c4.11,0,7.45-3.34,7.45-7.45v-3.6h-1.24v3.6Z"/>
      <path class="cls-1" d="m33.15,58.42H13.74c-4.31,0-7.82-3.51-7.82-7.82V11.04c0-4.31,3.51-7.82,7.82-7.82h19.41c4.31,0,7.82,3.51,7.82,7.82v20.78h-.38c-.14,0-.27,0-.38.04l-.36.16c-.05.04-.14.11-.22.19l-.64.64V11.04c0-3.21-2.62-5.83-5.83-5.83H13.74c-3.21,0-5.83,2.62-5.83,5.83v39.56c0,3.21,2.62,5.83,5.83,5.83h19.41c3.21,0,5.83-2.62,5.83-5.83v-3.97h1.99v3.97c0,4.31-3.51,7.82-7.82,7.82ZM13.74,3.97c-3.9,0-7.07,3.17-7.07,7.07v39.56c0,3.9,3.17,7.07,7.07,7.07h19.41c3.9,0,7.07-3.17,7.07-7.07v-3.22h-.49v3.22c0,3.63-2.95,6.58-6.58,6.58H13.74c-3.63,0-6.58-2.95-6.58-6.58V11.04c0-3.63,2.95-6.58,6.58-6.58h19.41c3.63,0,6.58,2.95,6.58,6.58v20.21l.23-.1c.09-.03.18-.04.26-.06V11.04c0-3.9-3.17-7.07-7.07-7.07H13.74Z"/>
    </g>
    <g>
      <path class="cls-1" d="m37.24,47.1c-.13,0-.25-.01-.36-.04v.04H10V14.54h26.88v20.85c.07,0,.13-.02.2-.02h1.04V13.91c0-.34-.28-.62-.62-.62H9.38c-.34,0-.62.28-.62.62v33.81c0,.34.28.62.62.62h28.12c.34,0,.62-.28.62-.62v-.87c-.24.15-.53.24-.89.24Z"/>
      <path class="cls-1" d="m37.51,48.6H9.38c-.48,0-.87-.39-.87-.87V13.92c0-.48.39-.87.87-.87h28.12c.48,0,.87.39.87.87v21.71h-1.29s-.08,0-.12,0l-.28.04-.05-.28V14.79H10.25v32.07h26.38v-.05h.3c.35.08.75.03,1.07-.16l.38-.23v1.32c0,.48-.39.87-.87.87ZM9.38,13.54c-.21,0-.37.17-.37.37v33.81c0,.21.17.37.37.37h28.12c.21,0,.37-.17.37-.37v-.48c-.27.09-.58.12-.87.09l-.12.02H9.75V14.29h27.38v20.84h.74V13.92c0-.21-.17-.37-.37-.37H9.38Z"/>
    </g>
  </g>
  <path class="cls-1" d="m37.51,37.06c-.46,0-.84-.37-.85-.84l-.07-6.53c0-.47.37-.85.84-.86h0c.46,0,.84.37.85.84l.07,6.53c0,.47-.37.85-.84.86h0Z"/>
  <path class="cls-1" d="m40,33.24c-.55,0-.99-.44-1-.99l-.07-5.96c0-.55.44-1,.99-1.01.54.02,1.01.44,1.01.99l.07,5.96c0,.55-.44,1-.99,1.01h-.01Z"/>
  <path class="cls-1" d="m40.02,50.91c-.55,0-.99-.44-1-.99l-.05-4.68c0-.55.44-1,.99-1.01h.01c.55,0,.99.44,1,.99l.05,4.68c0,.55-.44,1-.99,1.01h-.01Z"/>
  <path class="cls-1" d="m37.51,47.61c-.46,0-.84-.37-.85-.84v-.8c-.01-.47.36-.85.83-.86h0c.46,0,.84.37.85.84v.8c.01.47-.36.85-.83.86h0Z"/>
</svg>