<?xml version="1.0" encoding="UTF-8"?>
<svg id="Layer_1" data-name="Layer 1" xmlns="http://www.w3.org/2000/svg" viewBox="0 0 60 60">
  <defs>
    <style>
      .cls-1 {
        fill: #37464c;
        stroke-width: 0px;
      }
    </style>
  </defs>
  <g>
    <path class="cls-1" d="m30.05,55.88c-12.41,0-22.51-10.1-22.51-22.51S17.63,10.85,30.05,10.85s22.51,10.1,22.51,22.51-10.1,22.51-22.51,22.51Zm0-44.03c-11.86,0-21.51,9.65-21.51,21.51s9.65,21.51,21.51,21.51,21.51-9.65,21.51-21.51-9.65-21.51-21.51-21.51Z"/>
    <path class="cls-1" d="m30.05,56.25c-12.62,0-22.88-10.27-22.88-22.89S17.43,10.47,30.05,10.47s22.88,10.27,22.88,22.89-10.27,22.89-22.88,22.89Zm0-45.03c-12.21,0-22.13,9.93-22.13,22.14s9.93,22.14,22.13,22.14,22.13-9.93,22.13-22.14-9.93-22.14-22.13-22.14Zm0,44.03c-12.07,0-21.88-9.82-21.88-21.89S17.98,11.48,30.05,11.48s21.88,9.82,21.88,21.89-9.82,21.89-21.88,21.89Zm0-43.02c-11.65,0-21.13,9.48-21.13,21.14s9.48,21.14,21.13,21.14,21.13-9.48,21.13-21.14-9.48-21.14-21.13-21.14Z"/>
  </g>
  <g>
    <path class="cls-1" d="m16.34,20.95c-.13,0-.26-.05-.35-.14-.1-.09-.15-.22-.15-.36v-4.31c0-.28.22-.5.5-.5s.5.22.5.5v3.8l8.95-.15-1.93-7.56c-.07-.27.09-.54.36-.61.27-.07.54.09.61.36l2.09,8.18c.04.15,0,.31-.09.43-.09.12-.24.19-.39.2l-10.09.17s0,0,0,0Z"/>
    <path class="cls-1" d="m16.35,21.33h-.01c-.23,0-.45-.09-.62-.25-.17-.17-.26-.39-.26-.63v-4.31c0-.48.39-.88.88-.88s.88.39.88.88v3.41l8.09-.14-1.81-7.1c-.12-.47.17-.95.63-1.07.47-.12.95.17,1.07.63l2.08,8.18c.07.26.01.53-.15.75-.17.21-.41.34-.68.35l-10.1.17Zm-.01-5.31c-.07,0-.13.06-.13.13v4.31s.01.07.04.09c.02.02.05.04.09.04h0l10.09-.17s.08-.02.1-.05c.02-.03.03-.07.02-.11l-2.08-8.18c-.02-.07-.09-.11-.16-.09-.06.01-.11.1-.09.15l2.05,8.02-9.8.17v-4.18c0-.07-.06-.13-.13-.13Z"/>
  </g>
  <g>
    <path class="cls-1" d="m26.43,20.78c-.23,0-.43-.16-.49-.38l-2.09-8.18c-.07-.27.09-.54.36-.61.27-.07.54.09.61.36l1.99,7.79,6.38-.21,1.43-7.71c.05-.27.31-.45.59-.4.27.05.45.31.4.59l-1.5,8.1c-.04.23-.24.4-.48.41l-7.19.23s-.01,0-.02,0Z"/>
    <path class="cls-1" d="m26.45,21.15h-.02c-.4,0-.75-.27-.85-.66l-2.09-8.18c-.12-.47.17-.95.63-1.07.47-.12.95.17,1.07.63l1.91,7.5,5.78-.19,1.37-7.41c.04-.23.17-.43.36-.56.19-.13.42-.18.66-.14.47.09.79.55.7,1.02l-1.5,8.1c-.08.41-.42.7-.83.72l-7.2.24Zm-2.11-9.18s-.02,0-.03,0c-.07.02-.11.09-.09.15l2.09,8.18c.01.06.07.1.12.1h.02l7.18-.24c.06,0,.11-.04.12-.1l1.5-8.1c.01-.07-.03-.13-.1-.15-.04,0-.08,0-.1.02-.02.01-.04.04-.05.08l-1.48,8-6.99.23-2.06-8.08c-.01-.06-.07-.1-.12-.1Z"/>
  </g>
  <g>
    <path class="cls-1" d="m33.62,20.54c-.15,0-.29-.07-.39-.18-.1-.11-.14-.27-.11-.41l1.5-8.1c.05-.27.31-.45.59-.4.27.05.45.31.4.59l-1.39,7.51,8.92-.05-.46-3.73c-.03-.28.16-.53.44-.56.27-.03.53.16.56.44l.53,4.29c.02.14-.03.29-.12.39-.09.11-.23.17-.37.17l-10.1.05h0Z"/>
    <path class="cls-1" d="m33.62,20.92h0c-.26,0-.51-.12-.67-.32-.17-.2-.24-.46-.19-.72l1.5-8.1c.04-.23.17-.43.36-.56.19-.13.42-.18.66-.14.47.09.79.55.7,1.02l-1.31,7.06,8.05-.04-.41-3.31c-.06-.48.28-.92.76-.98.47-.07.92.28.98.76l.53,4.29c.03.25-.04.5-.21.68-.17.19-.41.3-.66.3l-10.1.05Zm1.49-9.11s-.06.01-.07.02-.04.04-.05.08l-1.5,8.1s0,.08.03.1c.03.03.06.05.1.05h0l10.09-.05s.07-.02.1-.04c.02-.03.03-.06.03-.1l-.53-4.29c0-.07-.06-.11-.14-.11-.07,0-.12.07-.11.14l.52,4.15-9.8.05,1.47-7.95c.01-.07-.03-.13-.1-.15,0,0-.02,0-.02,0Z"/>
  </g>
  <g>
    <path class="cls-1" d="m10.8,31.59c-.12,0-.24-.04-.33-.13-.12-.11-.18-.27-.17-.43.66-6.4,5.5-10.78,5.7-10.96.09-.08.21-.13.33-.13l27.38-.46c.14,0,.26.05.35.13,5.76,5.38,5.58,10,5.57,10.19,0,.14-.08.27-.19.36-.11.09-.25.13-.39.11-19.01-3.04-37.95,1.25-38.14,1.29-.04,0-.08.01-.11.01Zm5.74-10.64c-.74.71-4.35,4.42-5.15,9.5,3.58-.74,20.29-3.82,37.2-1.25-.15-1.32-.95-4.79-5.07-8.7l-26.98.45Z"/>
    <path class="cls-1" d="m10.8,31.97c-.21,0-.42-.08-.58-.22-.21-.19-.32-.47-.29-.75.68-6.58,5.62-11.02,5.83-11.21.15-.14.36-.22.57-.22l27.38-.46h.01c.23,0,.43.08.6.24,5.89,5.5,5.7,10.29,5.69,10.49-.01.25-.13.48-.32.63-.19.16-.44.22-.69.18-19.05-3.04-37.8,1.24-37.99,1.29-.06.01-.13.02-.2.02Zm32.92-12.1h0l-27.38.46c-.28.21-5.01,4.47-5.66,10.75,0,.04.01.08.04.11l.08.03s.02,0,.03,0c.19-.04,19.08-4.36,38.28-1.3.03,0,.07,0,.1-.03s.05-.06.05-.09c0-.19.19-4.64-5.45-9.9-.03-.02-.05-.03-.09-.03ZM10.94,30.93l.08-.54c.82-5.21,4.53-9.01,5.26-9.71l.11-.1h.15s27.13-.46,27.13-.46l.11.11c4.22,4,5.03,7.58,5.19,8.93l.06.49-.49-.07c-16.96-2.57-33.86.59-37.07,1.25l-.53.11Zm5.76-9.61c-.86.85-3.94,4.16-4.84,8.66,4.24-.83,20.17-3.56,36.29-1.22-.28-1.51-1.27-4.51-4.77-7.88l-26.68.45Z"/>
  </g>
  <g>
    <path class="cls-1" d="m30.02,41.73c-2.24,0-4.34-.14-6.2-.35-7.45-.82-12.86-2.82-12.91-2.84-.14-.05-.24-.16-.29-.29-.8-2.16-.33-7-.31-7.21.02-.22.18-.4.4-.44,12.13-2.44,21.95-2.67,28.05-2.43,6.63.26,10.33,1.09,10.49,1.13.12.03.23.1.3.2,1.44,2.05.61,7.06.57,7.28-.03.15-.12.28-.26.36-6.6,3.57-13.77,4.6-19.84,4.6Zm-18.54-4.05c1.08.38,5.99,2,12.47,2.71,6.69.73,16.46.62,25.2-4.02.22-1.44.48-4.69-.34-6.13-1.83-.37-16.19-2.97-37.55,1.27-.09,1.11-.3,4.47.21,6.18Z"/>
    <path class="cls-1" d="m30.02,42.11c-2.05,0-4.15-.12-6.24-.35-7.52-.83-12.95-2.84-13-2.86-.24-.09-.42-.28-.51-.51-.79-2.11-.42-6.51-.34-7.37.04-.39.32-.7.7-.78,12.17-2.45,22.02-2.68,28.14-2.43,6.65.26,10.4,1.1,10.55,1.14.21.05.4.17.52.35,1.5,2.14.73,7.01.63,7.56-.05.27-.21.5-.45.62-5.69,3.08-12.43,4.64-20.01,4.64Zm4.84-13.63c-6.02,0-14.3.52-24.08,2.49-.06.01-.1.06-.1.11-.05.51-.45,5.04.29,7.04.01.03.04.06.07.07.05.02,5.37,2,12.82,2.82,2.06.23,4.13.34,6.16.34,7.46,0,14.08-1.53,19.66-4.55.04-.02.06-.05.07-.09.3-1.75.57-5.45-.51-7-.23-.09-3.91-.91-10.49-1.17-1.16-.05-2.46-.08-3.88-.08Zm-4.84,12.63c-2.21,0-4.27-.14-6.1-.34-6.58-.72-11.61-2.4-12.56-2.73l-.18-.06-.06-.18c-.52-1.74-.33-5-.23-6.31l.02-.28.28-.06c21.55-4.28,36.11-1.59,37.7-1.27l.17.03.08.15c1.03,1.81.46,5.91.39,6.37l-.03.19-.17.09c-6.43,3.42-13.41,4.4-19.32,4.4Zm-18.23-3.71c1.28.44,6.05,1.95,12.21,2.62,6.57.72,16.2.62,24.82-3.89.22-1.56.38-4.25-.25-5.56-2.25-.43-16.33-2.8-36.95,1.25-.08,1.2-.23,4,.17,5.57Z"/>
  </g>
  <g>
    <path class="cls-1" d="m17.14,48.89c-.11,0-.21-.03-.3-.1-4.73-3.49-6.18-10.33-6.24-10.62-.04-.17.02-.35.15-.47.13-.12.31-.16.48-.11,12.77,3.74,22.46,3.18,28.33,2.05,6.36-1.22,9.75-3.35,9.79-3.37.16-.1.37-.11.54,0,.16.1.26.29.23.48-.66,5.77-4.81,10.85-4.98,11.07-.09.11-.23.18-.37.18l-27.61.89s-.01,0-.02,0Zm-5.35-10.09c.53,1.88,2.11,6.49,5.51,9.08l27.2-.88c.67-.87,3.62-4.87,4.47-9.37-1.43.73-4.5,2.09-9.16,2.99-5.87,1.13-15.44,1.72-28.02-1.82Z"/>
    <path class="cls-1" d="m17.16,49.27h-.02c-.19,0-.37-.06-.52-.17-4.84-3.57-6.33-10.55-6.39-10.84-.06-.3.04-.62.27-.82.22-.21.54-.28.84-.2,12.7,3.72,22.32,3.16,28.16,2.04,6.22-1.19,9.52-3.24,9.66-3.32.28-.18.65-.18.93,0,.28.18.44.51.41.84-.67,5.89-4.89,11.05-5.07,11.26-.16.19-.4.31-.65.32l-27.62.89Zm-6.07-11.32s-.06.01-.08.03c-.04.03-.05.08-.04.12.06.28,1.49,6.99,6.1,10.39l.09.02,27.6-.89s.07-.02.09-.05c.17-.21,4.25-5.2,4.9-10.87,0-.05-.02-.1-.06-.12-.04-.03-.09-.03-.13,0-.14.09-3.56,2.21-9.92,3.43-5.92,1.14-15.66,1.7-28.51-2.06-.01,0-.02,0-.04,0Zm6.09,10.31l-.11-.08c-3.48-2.66-5.11-7.38-5.64-9.28l-.18-.64.64.18c12.54,3.53,22.06,2.93,27.85,1.81,4.62-.89,7.66-2.23,9.06-2.95l.68-.35-.14.75c-.87,4.62-3.94,8.75-4.54,9.53l-.11.14-27.51.89Zm-4.83-8.92c.65,2.07,2.18,5.89,5.08,8.16l26.89-.87c.73-.96,3.18-4.4,4.13-8.32-1.64.77-4.5,1.89-8.55,2.68-5.77,1.12-15.19,1.72-27.54-1.65Z"/>
  </g>
  <g>
    <path class="cls-1" d="m17.01,51.6s-.02,0-.02,0c-.28-.01-.49-.25-.48-.52l.12-2.71c.01-.28.25-.49.52-.48.28.01.49.25.48.52l-.12,2.71c-.01.27-.23.48-.5.48Z"/>
    <path class="cls-1" d="m17.01,51.98h-.07c-.2-.01-.42-.11-.58-.29s-.24-.4-.23-.63l.12-2.71c.02-.48.43-.84.92-.84.23.01.45.11.61.29.16.17.24.4.23.63l-.12,2.71c-.02.47-.41.84-.88.84Zm.12-3.71c-.07,0-.12.06-.13.12l-.12,2.71c0,.06.06.13.12.13v.38s0-.38,0-.38c.07,0,.12-.05.13-.12l.12-2.71c0-.06-.06-.13-.12-.13,0,0,0,0,0,0Z"/>
  </g>
  <g>
    <path class="cls-1" d="m25.5,55.41c-.05,0-.1,0-.15-.02-.26-.08-.41-.37-.32-.63l2.2-6.86c.08-.26.37-.41.63-.33.26.08.41.37.32.63l-2.2,6.86c-.07.21-.27.35-.48.35Z"/>
    <path class="cls-1" d="m25.5,55.78c-.09,0-.18-.01-.27-.04-.22-.07-.4-.22-.51-.43s-.13-.45-.05-.67l2.19-6.86c.15-.46.64-.72,1.1-.57.46.15.72.64.57,1.1l-2.2,6.86c-.12.37-.45.61-.84.61Zm2.2-7.86c-.05,0-.11.03-.12.09l-2.19,6.86s0,.08,0,.1c0,.02.03.05.07.06h.04s.1-.02.12-.08l2.2-6.86c.02-.07-.01-.14-.08-.16-.01,0-.02,0-.04,0Z"/>
  </g>
  <g>
    <path class="cls-1" d="m36.45,54.93c-.2,0-.4-.13-.47-.33l-2.41-6.59c-.1-.26.04-.55.3-.64.26-.1.55.04.64.3l2.41,6.59c.1.26-.04.55-.3.64-.06.02-.12.03-.17.03Z"/>
    <path class="cls-1" d="m36.45,55.31c-.37,0-.7-.23-.82-.58l-2.42-6.59c-.17-.45.07-.96.52-1.12.45-.17.96.07,1.13.52l2.42,6.59c.17.45-.07.96-.52,1.12-.1.04-.2.05-.3.05Zm-2.43-7.59s-.02,0-.03,0c-.07.02-.1.1-.08.17l2.42,6.59c.03.08.11.09.16.08.06-.02.1-.11.08-.16l-2.42-6.59s-.08-.08-.13-.08Z"/>
  </g>
  <g>
    <path class="cls-1" d="m43.95,50.93s-.09,0-.13-.02c-.27-.07-.43-.35-.35-.62l.79-2.93c.07-.27.35-.43.62-.35.27.07.43.35.35.62l-.79,2.93c-.06.22-.26.37-.48.37Z"/>
    <path class="cls-1" d="m43.95,51.3c-.08,0-.15,0-.23-.03-.47-.13-.75-.61-.62-1.08l.79-2.93c.13-.47.61-.74,1.08-.62.23.06.42.21.53.41.12.2.15.44.09.67l-.79,2.93c-.1.38-.45.65-.85.65Zm.79-3.93c-.06,0-.11.04-.12.09l-.79,2.93c-.02.07.02.14.09.16h.03s.1-.03.12-.09l.79-2.93c.02-.07-.02-.14-.09-.16-.01,0-.02,0-.03,0Z"/>
  </g>
</svg>