<?xml version="1.0" encoding="UTF-8"?>
<svg id="Layer_1" data-name="Layer 1" xmlns="http://www.w3.org/2000/svg" viewBox="0 0 60 60">
  <defs>
    <style>
      .cls-1 {
        fill: #37464c;
        stroke-width: 0px;
      }
    </style>
  </defs>
  <g>
    <path class="cls-1" d="m18.01,42.34h-6.53c-3.36,0-6.09-2.73-6.09-6.09v-10.41c0-3.36,2.73-6.09,6.09-6.09h6.53c.31,0,.56.25.56.56v21.47c0,.31-.25.56-.56.56Zm-6.53-21.47c-2.74,0-4.97,2.23-4.97,4.97v10.41c0,2.74,2.23,4.97,4.97,4.97h5.97v-20.35h-5.97Z"/>
    <path class="cls-1" d="m18.01,42.84h-6.54c-3.63,0-6.59-2.96-6.59-6.59v-10.41c0-3.63,2.96-6.59,6.59-6.59h6.54c.59,0,1.06.48,1.06,1.06v21.47c0,.58-.48,1.06-1.06,1.06Zm-6.54-22.6c-3.08,0-5.59,2.51-5.59,5.59v10.41c0,3.08,2.51,5.59,5.59,5.59h6.54s.06-.03.06-.06v-21.47l-6.6-.06Zm6.47,21.47h-6.47c-3.01,0-5.47-2.45-5.47-5.47v-10.41c0-3.01,2.45-5.47,5.47-5.47h6.47v21.35Zm-6.47-20.35c-2.46,0-4.47,2-4.47,4.47v10.41c0,2.46,2,4.47,4.47,4.47h5.47v-19.35h-5.47Z"/>
  </g>
  <g>
    <path class="cls-1" d="m32.33,49.88c-.09,0-.18-.02-.26-.06l-14.33-7.54c-.18-.1-.3-.29-.3-.5v-21.47c0-.21.12-.4.3-.5l14.33-7.54c.17-.09.38-.09.55.02.17.1.27.28.27.48v36.55c0,.2-.1.38-.27.48-.09.05-.19.08-.29.08Zm-13.76-8.44l13.2,6.95V13.69l-13.2,6.95v20.79Z"/>
    <path class="cls-1" d="m32.33,50.38c-.17,0-.34-.04-.49-.12l-14.33-7.54c-.35-.19-.57-.54-.57-.94v-21.47c0-.39.22-.75.57-.94l14.33-7.54c.33-.17.73-.16,1.04.03.32.19.51.54.51.91v36.55c0,.37-.19.71-.51.91-.17.1-.36.15-.55.15Zm-.03-37.67l-14.33,7.54-.03,21.53,14.39,7.6s.02,0,.03,0l.03-36.61-.09-.05Zm-.03,36.5l-14.2-7.47v-21.4l14.2-7.47v36.35Zm-13.2-8.08l12.2,6.42V14.52l-12.2,6.42v20.19Z"/>
  </g>
  <g>
    <g>
      <path class="cls-1" d="m37.4,39.34c-.24,0-.46-.15-.54-.39-.09-.3.07-.61.36-.71,3.11-.99,5.24-3.97,5.18-7.24-.06-3.27-2.3-6.16-5.45-7.04-.3-.08-.47-.39-.39-.69.08-.3.39-.47.69-.39,3.62,1.01,6.2,4.34,6.27,8.1.07,3.76-2.38,7.19-5.96,8.33-.06.02-.11.03-.17.03Z"/>
      <path class="cls-1" d="m37.4,39.84c-.46,0-.87-.3-1.01-.74-.09-.27-.06-.56.07-.81.13-.25.35-.44.62-.52,2.9-.93,4.89-3.7,4.83-6.75-.06-3.05-2.15-5.75-5.08-6.57-.27-.08-.5-.25-.64-.5-.14-.25-.17-.53-.1-.81.08-.27.25-.5.5-.64.25-.14.54-.17.81-.1,3.83,1.07,6.56,4.59,6.64,8.57.07,3.98-2.52,7.61-6.31,8.82-.11.03-.22.05-.32.05Zm-.27-16.48l-.03.12c3.36.93,5.75,4.02,5.81,7.51s-2.21,6.66-5.53,7.72l.02.12s.01,0,.02,0c3.37-1.07,5.68-4.3,5.61-7.84-.07-3.54-2.5-6.68-5.91-7.63Z"/>
    </g>
    <g>
      <path class="cls-1" d="m39.11,44.69c-.24,0-.46-.15-.54-.39-.09-.3.07-.61.36-.71,5.46-1.74,9.19-6.96,9.09-12.69-.11-5.73-4.04-10.81-9.56-12.35-.3-.08-.47-.39-.39-.69s.39-.47.69-.39c5.99,1.67,10.26,7.18,10.38,13.41.12,6.23-3.94,11.9-9.87,13.79-.06.02-.11.03-.17.03Z"/>
      <path class="cls-1" d="m39.11,45.19c-.46,0-.87-.3-1.01-.74-.18-.56.13-1.16.69-1.34,5.25-1.67,8.84-6.69,8.74-12.21-.1-5.51-3.88-10.4-9.19-11.87-.56-.16-.9-.75-.74-1.31.16-.56.75-.89,1.31-.74,6.21,1.73,10.62,7.43,10.75,13.88.12,6.45-4.08,12.32-10.22,14.27-.1.03-.21.05-.32.05Zm-.51-27.12c5.73,1.59,9.81,6.86,9.92,12.82.11,5.95-3.77,11.37-9.43,13.18l.02.12s.01,0,.02,0c5.72-1.83,9.64-7.29,9.52-13.3s-4.23-11.33-10.01-12.94l-.17.6.13-.48Z"/>
    </g>
    <g>
      <path class="cls-1" d="m40.83,50.1c-.24,0-.46-.15-.54-.39-.09-.3.07-.61.37-.71,7.83-2.5,13.19-9.99,13.04-18.21-.15-8.23-5.79-15.51-13.71-17.71-.3-.08-.47-.39-.39-.69.08-.3.39-.47.69-.39,8.39,2.33,14.37,10.06,14.53,18.77.16,8.72-5.52,16.66-13.82,19.31-.06.02-.11.03-.17.03Z"/>
      <path class="cls-1" d="m40.83,50.6c-.46,0-.87-.3-1.01-.74-.09-.27-.06-.56.07-.81.13-.25.35-.44.62-.52,7.62-2.43,12.84-9.72,12.69-17.73-.15-8.01-5.64-15.1-13.34-17.24-.56-.16-.9-.75-.74-1.31.08-.27.25-.5.5-.64.25-.14.53-.18.81-.1,8.6,2.39,14.73,10.31,14.9,19.25.17,8.94-5.66,17.08-14.17,19.79-.11.03-.22.05-.32.05Zm-.71-38c8.13,2.26,13.92,9.74,14.08,18.18.16,8.45-5.35,16.13-13.38,18.7l.02.12s.01,0,.02,0c8.09-2.58,13.63-10.32,13.47-18.82-.16-8.5-5.99-16.03-14.17-18.3l-.03.12Z"/>
    </g>
  </g>
</svg>