<?xml version="1.0" encoding="UTF-8"?>
<svg id="Layer_1" data-name="Layer 1" xmlns="http://www.w3.org/2000/svg" viewBox="0 0 60 60">
  <defs>
    <style>
      .cls-1 {
        fill: #37464c;
        stroke-width: 0px;
      }
    </style>
  </defs>
  <path class="cls-1" d="m31.31,57.2H15.31c-.55,0-1-.45-1-1s.45-1,1-1h15v-5c0-.26.11-.52.29-.7.19-.19.44-.3.71-.3h5v-5c0-.26.1-.52.29-.7.19-.19.44-.3.71-.3h5v-18h-5c-.38,0-.72-.2-.89-.54-.17-.33-.14-.73.07-1.04l10-14c.38-.52,1.25-.53,1.63,0l10,14c.22.31.25.71.08,1.04s-.52.54-.89.54h-5v13c0,.55-.45,1-1,1s-1-.45-1-1v-14c0-.26.11-.52.29-.7.19-.19.44-.3.71-.3h4.05l-8.05-11.28-8.06,11.28h4.06c.26,0,.52.11.71.3.18.18.29.44.29.7v20c0,.27-.11.52-.29.71-.19.19-.44.29-.71.29h-5v5c0,.27-.11.52-.29.71-.2.19-.45.29-.71.29h-5v5c0,.27-.11.52-.3.71s-.44.29-.7.29Zm20-8c-.55,0-1-.45-1-1s.45-1,1-1,1,.45,1,1-.45,1-1,1Zm0-4c-.55,0-1-.45-1-1v-2c0-.55.45-1,1-1s1,.45,1,1v2c0,.55-.45,1-1,1Z"/>
  <g>
    <path class="cls-1" d="m16.31,17.2c-3.31,0-6-2.69-6-6s2.69-6,6-6,6,2.69,6,6-2.69,6-6,6Zm0-10c-2.21,0-4,1.79-4,4s1.79,4,4,4,4-1.79,4-4-1.79-4-4-4Z"/>
    <path class="cls-1" d="m22.31,57.2c-.07,0-.14,0-.22,0-2.12-.11-3.79-1.94-3.79-4.16v-8.14l-6.36-7.58c-1.06-1.26-1.64-2.86-1.64-4.5v-6.2l-2,2v5.59c0,1.65-1.35,3-3,3s-3-1.35-3-3v-6.34c0-1.34.52-2.59,1.46-3.54l5.66-5.66c.94-.94,2.2-1.46,3.54-1.46h1.34c3.31,0,6,2.69,6,6v11.27c0,.23.08.46.23.64l4.13,4.92c1.06,1.26,1.64,2.86,1.64,4.5v8.67c0,1.09-.45,2.15-1.25,2.9-.75.71-1.72,1.1-2.75,1.1ZM11.31,23.2c.13,0,.26.02.38.08.37.15.62.52.62.92v8.61c0,1.17.42,2.31,1.17,3.21l6.36,7.58c.3.36.47.82.47,1.29v8.14c0,1.14.85,2.11,1.89,2.17.55.02,1.08-.17,1.49-.55.4-.38.62-.9.62-1.45v-8.67c0-1.17-.42-2.31-1.17-3.21l-4.13-4.92c-.45-.54-.7-1.22-.7-1.93v-11.27c0-2.21-1.79-4-4-4h-1.34c-.8,0-1.55.31-2.12.88l-5.66,5.66c-.57.57-.88,1.32-.88,2.12v6.34c0,.55.45,1,1,1s1-.45,1-1v-5.59c0-.53.21-1.04.58-1.41l3.71-3.71c.19-.19.45-.29.71-.29Z"/>
    <path class="cls-1" d="m27.31,37.2c-.77,0-1.54-.29-2.12-.88l-6.59-6.59,1.41-1.41,6.59,6.59c.39.39,1.02.39,1.41,0,.39-.39.39-1.02,0-1.41l-9.41-9.41,1.41-1.41,9.41,9.41c1.17,1.17,1.17,3.07,0,4.24-.58.58-1.35.88-2.12.88Z"/>
    <path class="cls-1" d="m8.31,57.2c-.46,0-.92-.08-1.37-.24-2.07-.75-3.14-3.05-2.39-5.13l6.25-17.17,1.88.68-6.25,17.17c-.38,1.04.16,2.19,1.2,2.56.5.18,1.05.16,1.53-.07.48-.23.85-.63,1.03-1.13l4.94-13.56,1.88.68-4.94,13.56c-.36,1-1.1,1.81-2.07,2.26-.54.25-1.11.38-1.69.38Z"/>
  </g>
</svg>