<?xml version="1.0" encoding="UTF-8"?>
<svg id="Layer_1" data-name="Layer 1" xmlns="http://www.w3.org/2000/svg" viewBox="0 0 60 60">
  <defs>
    <style>
      .cls-1 {
        fill: #37464c;
        stroke-width: 0px;
      }
    </style>
  </defs>
  <g>
    <g>
      <path class="cls-1" d="m39.83,18.94c-.18,0-.36-.07-.49-.2l-7.17-7.17c-.27-.27-.27-.72,0-.99l7.17-7.17c.27-.27.72-.27.99,0,.27.27.27.72,0,.99l-6.68,6.68,6.68,6.68c.27.27.27.72,0,.99-.14.14-.32.2-.49.2Z"/>
      <path class="cls-1" d="m39.83,19.31c-.29,0-.56-.11-.76-.31l-7.17-7.17c-.2-.2-.31-.47-.31-.76s.11-.56.32-.76l7.17-7.17c.41-.4,1.11-.41,1.52,0,.2.2.31.47.31.76s-.11.56-.31.76l-6.41,6.41,6.41,6.41c.2.2.31.47.31.76s-.11.56-.32.76c-.2.2-.47.31-.76.31Zm0-15.74c-.09,0-.17.03-.23.09l-7.17,7.17c-.06.06-.1.14-.1.23s.03.17.1.23l7.17,7.17c.12.12.33.12.46,0,.06-.06.1-.14.1-.23s-.03-.17-.09-.23l-6.94-6.94,6.94-6.94c.06-.06.1-.14.1-.23s-.03-.17-.09-.23c-.06-.06-.14-.1-.23-.1Z"/>
    </g>
    <g>
      <path class="cls-1" d="m14.63,43.77c-.08,0-.16-.01-.24-.04l-9.52-3.49c-.36-.13-.55-.53-.42-.9.13-.36.53-.55.9-.42l8.87,3.25,3.25-8.87c.13-.36.53-.55.9-.42.36.13.55.53.42.9l-3.49,9.52c-.1.28-.37.46-.66.46Z"/>
      <path class="cls-1" d="m14.63,44.14c-.12,0-.25-.02-.37-.06l-9.52-3.49c-.27-.1-.48-.3-.6-.56-.12-.26-.13-.55-.04-.82.2-.56.82-.84,1.38-.64l8.51,3.12,3.12-8.51c.1-.27.3-.48.56-.6.26-.12.55-.13.82-.03.27.1.48.3.6.56.12.26.13.55.04.82l-3.49,9.52c-.15.42-.56.71-1.01.71Zm-9.52-4.89c-.13,0-.26.08-.3.21-.03.08-.03.17,0,.25.04.08.1.14.18.17l9.52,3.49c.17.06.36-.03.42-.19l3.49-9.52c.06-.17-.02-.35-.19-.42-.08-.03-.17-.03-.25,0-.08.04-.14.1-.17.18l-3.38,9.22-9.22-3.38s-.07-.02-.11-.02Z"/>
    </g>
    <g>
      <path class="cls-1" d="m50.43,54.69c-.37,0-.68-.29-.7-.67l-.39-9.43-9.43.39c-.38.01-.71-.28-.73-.67-.02-.39.28-.71.67-.73l10.13-.42c.38-.01.71.28.73.67l.42,10.13c.02.39-.28.71-.67.73,0,0-.02,0-.03,0Z"/>
      <path class="cls-1" d="m50.43,55.07c-.58,0-1.05-.45-1.07-1.03l-.38-9.06-9.06.38h-.03c-.58,0-1.07-.46-1.09-1.03-.01-.29.09-.56.28-.77.19-.21.46-.33.75-.35l10.13-.42c.64-.02,1.09.45,1.12,1.03l.42,10.13c.01.29-.09.56-.28.77-.19.21-.46.33-.75.35h-.04Zm-.73-10.87l.41,9.81c0,.17.15.31.32.31v.38-.38c.1,0,.18-.04.24-.1.06-.06.09-.15.08-.23l-.42-10.13c0-.18-.17-.33-.34-.31l-10.13.42c-.09,0-.17.04-.22.1-.06.06-.09.15-.08.23,0,.18.17.3.34.31l9.8-.41Z"/>
    </g>
    <g>
      <path class="cls-1" d="m14.76,42.86c.26-.22.32-.59.15-.89-1.66-2.94-2.61-6.33-2.61-9.94,0-9.52,6.61-17.53,15.48-19.69.33-.08.55-.4.52-.74h0c-.04-.43-.45-.71-.86-.61-9.48,2.31-16.53,10.87-16.53,21.05,0,3.86,1.02,7.49,2.8,10.63.22.38.72.47,1.06.19h0Z"/>
      <path class="cls-1" d="m14.31,43.39c-.06,0-.13,0-.19-.02-.31-.06-.59-.25-.75-.53-1.86-3.29-2.85-7.03-2.85-10.82,0-10.19,6.92-19,16.82-21.41.3-.07.62-.01.88.17s.42.46.45.77c.05.53-.29,1.03-.8,1.15-8.95,2.17-15.19,10.12-15.19,19.33,0,3.42.89,6.79,2.56,9.76.26.46.16,1.03-.24,1.36h0c-.19.16-.44.25-.69.25ZM27.6,11.34s-.05,0-.08,0c-9.56,2.33-16.25,10.84-16.25,20.68,0,3.66.95,7.27,2.75,10.45.07.12.17.15.23.16.05.01.16.01.26-.07.12-.1.15-.27.07-.41-1.74-3.08-2.66-6.58-2.66-10.13,0-9.55,6.48-17.8,15.76-20.05.15-.04.25-.18.23-.34,0-.1-.06-.18-.13-.24-.06-.04-.12-.06-.19-.06Z"/>
    </g>
    <g>
      <g>
        <path class="cls-1" d="m52.83,32.03c0,2.48-.45,4.86-1.27,7.06-.13.34.02.72.34.88h0c.37.19.82,0,.97-.38.88-2.35,1.36-4.9,1.36-7.55,0-11.46-8.94-20.86-20.21-21.61-.4-.03-.75.29-.75.7h0c0,.37.28.67.64.7,10.55.69,18.92,9.49,18.92,20.21Z"/>
        <path class="cls-1" d="m52.21,40.41c-.16,0-.33-.04-.48-.11-.5-.25-.72-.82-.53-1.35.83-2.22,1.25-4.55,1.25-6.92,0-10.44-8.16-19.15-18.57-19.84-.56-.04-1-.5-1-1.07,0-.3.12-.58.34-.78.22-.2.51-.31.81-.29,11.53.77,20.56,10.42,20.56,21.98,0,2.64-.47,5.22-1.38,7.68-.11.29-.33.51-.61.63-.13.05-.26.07-.39.07Zm-18.24-29.61c-.08,0-.16.03-.23.09-.07.06-.1.14-.1.23,0,.17.13.31.29.32,10.81.71,19.27,9.75,19.27,20.59,0,2.46-.44,4.88-1.3,7.19-.06.16,0,.34.15.41.09.04.18.05.27.01.09-.03.15-.1.19-.19.89-2.38,1.34-4.87,1.34-7.42,0-11.17-8.72-20.49-19.86-21.23,0,0-.02,0-.02,0Z"/>
      </g>
      <g>
        <path class="cls-1" d="m49.71,43.87c-.31-.15-.67-.06-.88.22-3.7,4.97-9.61,8.2-16.27,8.2-5.52,0-10.53-2.22-14.19-5.82-.25-.25-.66-.26-.93-.03h0c-.32.27-.33.75-.04,1.04,3.91,3.84,9.26,6.21,15.16,6.21,7.12,0,13.44-3.45,17.4-8.77.26-.35.14-.85-.25-1.05h0Z"/>
        <path class="cls-1" d="m32.56,54.06c-5.79,0-11.27-2.24-15.42-6.32-.22-.21-.33-.51-.32-.81.01-.3.15-.58.38-.78.42-.36,1.04-.34,1.43.05,3.75,3.68,8.69,5.71,13.93,5.71,6.25,0,12.22-3.01,15.97-8.05.31-.42.88-.56,1.34-.33h0c.28.14.49.4.57.71.07.31,0,.64-.18.89-4.15,5.59-10.76,8.92-17.7,8.92Zm-14.67-7.41c-.07,0-.15.03-.21.08-.07.06-.11.14-.12.23,0,.09.03.18.1.25,4.01,3.93,9.3,6.1,14.89,6.1,6.69,0,13.08-3.22,17.09-8.62.08-.11.07-.22.06-.27-.01-.05-.05-.16-.17-.21l.17-.34-.17.34c-.14-.07-.31-.03-.41.1-3.89,5.23-10.08,8.36-16.57,8.36-5.43,0-10.56-2.1-14.45-5.92-.06-.06-.14-.09-.22-.09Z"/>
      </g>
    </g>
  </g>
  <g>
    <path class="cls-1" d="m32.7,43.07c-4.6,0-8.34-3.74-8.34-8.34s7.55-14.52,7.87-14.95c.22-.29.72-.29.94,0,.32.43,7.87,10.52,7.87,14.95s-3.74,8.34-8.34,8.34Zm0-21.94c-1.66,2.3-7.16,10.16-7.16,13.6,0,3.95,3.21,7.16,7.16,7.16s7.16-3.21,7.16-7.16c0-3.44-5.5-11.31-7.16-13.6Z"/>
    <path class="cls-1" d="m32.7,43.44c-4.8,0-8.71-3.91-8.71-8.71s7.62-14.74,7.94-15.17c.35-.46,1.19-.46,1.54,0,.32.43,7.94,10.6,7.94,15.17,0,4.8-3.91,8.71-8.71,8.71Zm0-23.5c-.07,0-.14.03-.17.07-.08.1-7.79,10.4-7.79,14.72s3.57,7.96,7.96,7.96,7.96-3.57,7.96-7.96-7.71-14.62-7.79-14.72c-.03-.04-.1-.07-.17-.07Zm0,22.33c-4.16,0-7.54-3.38-7.54-7.54,0-3.55,5.54-11.48,7.23-13.82l.3-.42.3.42c2.17,3.01,7.23,10.37,7.23,13.82,0,4.16-3.38,7.54-7.54,7.54Zm0-20.5c-3.34,4.67-6.79,10.39-6.79,12.96,0,3.74,3.04,6.79,6.79,6.79s6.79-3.04,6.79-6.79c0-2.56-3.45-8.29-6.79-12.96Z"/>
  </g>
</svg>