<?xml version="1.0" encoding="UTF-8"?>
<svg id="Layer_1" data-name="Layer 1" xmlns="http://www.w3.org/2000/svg" viewBox="0 0 60 60">
  <defs>
    <style>
      .cls-1 {
        fill: #37464c;
        stroke-width: 0px;
      }
    </style>
  </defs>
  <path class="cls-1" d="m41.88,53c-.26,0-.51-.1-.71-.29l-10.64-10.64-10.64,10.64c-.38.38-1.04.38-1.41,0l-8.1-8.1c-.19-.19-.29-.44-.29-.71s.11-.52.29-.71l10.64-10.64-10.64-10.64c-.19-.19-.29-.44-.29-.71s.11-.52.29-.71l8.1-8.1c.39-.39,1.02-.39,1.41,0l10.64,10.64,10.64-10.64c.39-.39,1.02-.39,1.41,0l8.1,8.1c.39.39.39,1.02,0,1.41l-10.64,10.64,10.64,10.64c.19.19.29.44.29.71s-.11.52-.29.71l-8.1,8.1c-.2.2-.45.29-.71.29Zm-11.34-13.34c.27,0,.52.11.71.29l10.64,10.64,6.69-6.69-10.64-10.64c-.19-.19-.29-.44-.29-.71s.11-.52.29-.71l10.64-10.64-6.69-6.69-10.64,10.64c-.38.38-1.04.38-1.41,0l-10.64-10.64-6.69,6.69,10.64,10.64c.19.19.29.44.29.71s-.11.52-.29.71l-10.64,10.64,6.69,6.69,10.64-10.64c.19-.19.44-.29.71-.29Z"/>
</svg>